<svg id="miscellaneous" xmlns="http://www.w3.org/2000/svg" width="20.682" height="22.479" viewBox="0 0 20.682 22.479">
  <path id="Path_24315" data-name="Path 24315" d="M61.35,58.963H44.582a1.436,1.436,0,0,0,1.449-1.068C47.224,54.677,44.047,45.3,52.966,45.3s5.741,9.377,6.934,12.594A1.437,1.437,0,0,0,61.35,58.963Zm0,0" transform="translate(-42.625 -43.312)" fill="#f7d360"/>
  <path id="Path_24316" data-name="Path 24316" d="M27.62,358.108A1.624,1.624,0,0,1,26,359.731H9.229a1.623,1.623,0,1,1,0-3.247H26a1.623,1.623,0,0,1,1.623,1.623Zm0,0" transform="translate(-7.272 -340.833)" fill="#e58e13"/>
  <path id="Path_24317" data-name="Path 24317" d="M59.9,57.9H51.189a1.663,1.663,0,0,1-1.662-1.717c.123-3.973-.511-10.8,3.377-10.877-10.673.055-3.85,13.662-8.319,13.662H61.353A1.437,1.437,0,0,1,59.9,57.9Zm0,0" transform="translate(-42.628 -43.319)" fill="#e58e13"/>
  <path id="Path_24318" data-name="Path 24318" d="M129.78,358.108a1.624,1.624,0,0,1-1.623,1.623H116.08a1.623,1.623,0,0,1,0-3.247h12.077a1.623,1.623,0,0,1,1.623,1.623Zm0,0" transform="translate(-109.432 -340.833)" fill="#f7d360"/>
  <path id="Path_24319" data-name="Path 24319" d="M168.076,430.434a3.247,3.247,0,1,1-6.494,0Zm0,0" transform="translate(-154.488 -411.536)" fill="#e58e13"/>
  <path id="Path_24320" data-name="Path 24320" d="M218.375,453.246a2.06,2.06,0,0,1-3.878,1.042.642.642,0,0,1,.5-1.042Zm0,0" transform="translate(-204.944 -433.347)" fill="#f7d360"/>
  <path id="Path_24321" data-name="Path 24321" d="M201.153,9.385c0-.041,0-.082,0-.124a1.655,1.655,0,0,0-3.31,0c0,.042,0,.083,0,.124" transform="translate(-189.161 -7.272)" fill="#e58e13"/>
  <path id="Path_24322" data-name="Path 24322" d="M18.725,15.317h0c-.646,0-1.011-.336-1.22-1.121a14.447,14.447,0,0,1-.228-3.2,20.712,20.712,0,0,0-.391-4.7.334.334,0,0,0-.649.159A20.21,20.21,0,0,1,16.607,11a14.8,14.8,0,0,0,.251,3.368,2.682,2.682,0,0,0,.439.949H3.385a2.682,2.682,0,0,0,.439-.949A14.787,14.787,0,0,0,4.075,11,14.434,14.434,0,0,1,4.9,5.151c.9-1.9,2.678-2.828,5.443-2.828a7.114,7.114,0,0,1,3.693.848,4.481,4.481,0,0,1,1.814,2.121.334.334,0,0,0,.611-.269A5.2,5.2,0,0,0,14.38,2.6a6.336,6.336,0,0,0-2.056-.764,1.988,1.988,0,0,0-3.965,0,6.4,6.4,0,0,0-1.974.715A5.148,5.148,0,0,0,4.294,4.866,14.906,14.906,0,0,0,3.407,11a14.436,14.436,0,0,1-.228,3.2c-.209.785-.574,1.121-1.22,1.121h0a1.957,1.957,0,0,0,0,3.915H4.07a.334.334,0,1,0,0-.668H1.957a1.29,1.29,0,0,1,0-2.579H18.725a1.29,1.29,0,0,1,0,2.579H5.406a.334.334,0,0,0,0,.668h1.37a3.58,3.58,0,0,0,7.13,0h4.819a1.957,1.957,0,0,0,0-3.915ZM10.341.668a1.324,1.324,0,0,1,1.3,1.061,11.452,11.452,0,0,0-2.591,0A1.323,1.323,0,0,1,10.341.668Zm0,21.144a2.917,2.917,0,0,1-2.894-2.579h5.787A2.917,2.917,0,0,1,10.341,21.811Zm0,0" fill="none"/>
  <path id="Path_24323" data-name="Path 24323" d="M353.914,34.1a4.329,4.329,0,0,1,1.185,1.131,6.42,6.42,0,0,1,1.181,3.919.334.334,0,1,0,.668,0,7.084,7.084,0,0,0-1.336-4.348,4.88,4.88,0,0,0-1.374-1.285.334.334,0,0,0-.324.584Zm0,0" transform="translate(-338.212 -32.006)" fill="#fff"/>
  <path id="Path_24324" data-name="Path 24324" d="M411.691,37.131a3.536,3.536,0,0,1,1.316,3.013.334.334,0,0,0,.668,0,4.181,4.181,0,0,0-1.623-3.576.334.334,0,0,0-.36.562Zm0,0" transform="translate(-393.471 -34.914)" fill="#fff"/>
  <path id="Path_24325" data-name="Path 24325" d="M44.681,39.483a.334.334,0,0,0,.334-.334A6.421,6.421,0,0,1,46.2,35.23,4.345,4.345,0,0,1,47.381,34.1a.334.334,0,0,0-.324-.584A4.88,4.88,0,0,0,45.683,34.8a7.085,7.085,0,0,0-1.335,4.348A.334.334,0,0,0,44.681,39.483Zm0,0" transform="translate(-42.401 -32.005)" fill="#fff"/>
  <path id="Path_24326" data-name="Path 24326" d="M11.225,40.479a.334.334,0,0,0,.334-.334,3.535,3.535,0,0,1,1.316-3.013.334.334,0,0,0-.36-.562,4.181,4.181,0,0,0-1.623,3.575A.334.334,0,0,0,11.225,40.479Zm0,0" transform="translate(-10.412 -34.914)" fill="#fff"/>
</svg>
