<svg xmlns="http://www.w3.org/2000/svg" width="102.05" height="102.05" viewBox="0 0 102.05 102.05">
  <g id="Group_12353" data-name="Group 12353" transform="translate(-137 -260.15)">
    <g id="tick_1_" data-name="tick (1)" transform="translate(137 260.15)">
      <circle id="Ellipse_602" data-name="Ellipse 602" cx="51.025" cy="51.025" r="51.025" transform="translate(0 0)" fill="#32ba7c"/>
      <path id="Path_24500" data-name="Path 24500" d="M188.8,195.46,215.037,221.7a50.991,50.991,0,0,0,37.826-49.254v-1.449L232.26,152Z" transform="translate(-150.813 -121.417)" fill="#0aa06e"/>
      <g id="Group_12389" data-name="Group 12389" transform="translate(17.142 25.191)">
        <path id="Path_24501" data-name="Path 24501" d="M120.37,221.893a6.026,6.026,0,0,1,0,8.37l-4.668,4.668a6.026,6.026,0,0,1-8.37,0l-20.442-20.6a6.027,6.027,0,0,1,0-8.37l4.668-4.668a6.027,6.027,0,0,1,8.37,0Z" transform="translate(-85.2 -184.631)" fill="#fff"/>
        <path id="Path_24502" data-name="Path 24502" d="M201.5,126.89a6.027,6.027,0,0,1,8.37,0l4.668,4.668a6.027,6.027,0,0,1,0,8.37l-35.412,35.251a6.027,6.027,0,0,1-8.37,0l-4.668-4.668a6.026,6.026,0,0,1,0-8.37Z" transform="translate(-148.465 -125.2)" fill="#fff"/>
      </g>
    </g>
  </g>
</svg>
