<svg xmlns="http://www.w3.org/2000/svg" width="16.516" height="16.516" viewBox="0 0 16.516 16.516">
  <g id="growth" transform="translate(0 0)">
    <g id="Groupe_12196" data-name="Groupe 12196" transform="translate(1.376 12.384)">
      <g id="Groupe_12195" data-name="Groupe 12195">
        <path id="Tracé_22765" data-name="Tracé 22765" d="M5.612,22.128h-3.1A.516.516,0,0,1,2,21.612v-3.1A.516.516,0,0,1,2.516,18h3.1a.516.516,0,0,1,.516.516v3.1A.516.516,0,0,1,5.612,22.128Z" transform="translate(-2 -18)" fill="#64b5f6"/>
      </g>
    </g>
    <g id="Groupe_12198" data-name="Groupe 12198" transform="translate(6.88 8.944)">
      <g id="Groupe_12197" data-name="Groupe 12197">
        <path id="Tracé_22766" data-name="Tracé 22766" d="M13.612,20.568h-3.1A.516.516,0,0,1,10,20.052V13.516A.516.516,0,0,1,10.516,13h3.1a.516.516,0,0,1,.516.516v6.536a.516.516,0,0,1-.52.516Z" transform="translate(-10 -13)" fill="#42a5f5"/>
      </g>
    </g>
    <g id="Groupe_12200" data-name="Groupe 12200" transform="translate(12.384 5.504)">
      <g id="Groupe_12199" data-name="Groupe 12199">
        <path id="Tracé_22767" data-name="Tracé 22767" d="M21.612,19.008h-3.1A.516.516,0,0,1,18,18.492V8.516A.516.516,0,0,1,18.516,8h3.1a.516.516,0,0,1,.516.516v9.976a.516.516,0,0,1-.52.516Z" transform="translate(-18 -8)" fill="#2196f3"/>
      </g>
    </g>
    <g id="Groupe_12202" data-name="Groupe 12202" transform="translate(6.88 8.944)">
      <g id="Groupe_12201" data-name="Groupe 12201">
        <path id="Tracé_22768" data-name="Tracé 22768" d="M12.064,13H10.516a.516.516,0,0,0-.516.516v6.536a.516.516,0,0,0,.516.516h1.548Z" transform="translate(-10 -13)" fill="#3990d5"/>
      </g>
    </g>
    <g id="Groupe_12204" data-name="Groupe 12204" transform="translate(1.376 12.384)">
      <g id="Groupe_12203" data-name="Groupe 12203">
        <path id="Tracé_22769" data-name="Tracé 22769" d="M4.064,18H2.516A.516.516,0,0,0,2,18.516v3.1a.516.516,0,0,0,.516.516H4.064Z" transform="translate(-2 -18)" fill="#579ed6"/>
      </g>
    </g>
    <g id="Groupe_12206" data-name="Groupe 12206" transform="translate(12.384 5.504)">
      <g id="Groupe_12205" data-name="Groupe 12205">
        <path id="Tracé_22770" data-name="Tracé 22770" d="M20.064,8H18.516A.516.516,0,0,0,18,8.516v9.976a.516.516,0,0,0,.516.516h1.548Z" transform="translate(-18 -8)" fill="#1d83d4"/>
      </g>
    </g>
    <g id="Groupe_12208" data-name="Groupe 12208" transform="translate(4.494 4.854)">
      <g id="Groupe_12207" data-name="Groupe 12207">
        <path id="Tracé_22771" data-name="Tracé 22771" d="M8.639,12.007a.516.516,0,0,1-.366-.152l-1.591-1.6A.516.516,0,0,1,6.7,9.51L9.263,7.188a.516.516,0,0,1,.862.391,6.891,6.891,0,0,1-1.081,4.229.517.517,0,0,1-.376.2Z" transform="translate(-6.532 -7.055)" fill="#2196f3"/>
      </g>
    </g>
    <g id="Groupe_12210" data-name="Groupe 12210" transform="translate(0.491 2.208)">
      <g id="Groupe_12209" data-name="Groupe 12209">
        <path id="Tracé_22772" data-name="Tracé 22772" d="M2.828,6.8a.516.516,0,0,1-.364-.15L.865,5.063a.517.517,0,0,1,.046-.772A6.894,6.894,0,0,1,5.14,3.21a.549.549,0,0,1,.479.3.516.516,0,0,1-.087.559L3.211,6.634a.516.516,0,0,1-.369.169Z" transform="translate(-0.714 -3.21)" fill="#2196f3"/>
      </g>
    </g>
    <g id="Groupe_12212" data-name="Groupe 12212" transform="translate(0 6.873)">
      <g id="Groupe_12211" data-name="Groupe 12211">
        <path id="Tracé_22773" data-name="Tracé 22773" d="M.516,13.609a.516.516,0,0,1-.494-.664A8.574,8.574,0,0,1,1.1,10.421,1.474,1.474,0,1,1,3.188,12.5,8.6,8.6,0,0,1,.664,13.587Z" transform="translate(0 -9.99)" fill="#ff9800"/>
      </g>
    </g>
    <g id="Groupe_12214" data-name="Groupe 12214" transform="translate(1.915)">
      <g id="Groupe_12213" data-name="Groupe 12213">
        <path id="Tracé_22774" data-name="Tracé 22774" d="M2.784,5.328,5.065,2.8a8.048,8.048,0,0,1,5.6-2.8.5.5,0,0,1,.374.151.516.516,0,0,1,.151.374,8.056,8.056,0,0,1-2.807,5.6L5.861,8.4Z" transform="translate(-2.784)" fill="#eceff1"/>
      </g>
    </g>
    <g id="Groupe_12216" data-name="Groupe 12216" transform="translate(0.491 2.211)">
      <g id="Groupe_12215" data-name="Groupe 12215">
        <path id="Tracé_22775" data-name="Tracé 22775" d="M4.984,3.214A6.693,6.693,0,0,0,.911,4.292a.517.517,0,0,0-.046.772l1.305,1.3-.032-.032L4.419,3.8a8.132,8.132,0,0,1,.565-.586Z" transform="translate(-0.714 -3.214)" fill="#1d83d4"/>
      </g>
    </g>
    <g id="Groupe_12218" data-name="Groupe 12218" transform="translate(0 6.873)">
      <g id="Groupe_12217" data-name="Groupe 12217">
        <path id="Tracé_22776" data-name="Tracé 22776" d="M2.146,9.99a1.468,1.468,0,0,0-1.042.431A8.574,8.574,0,0,0,.022,12.945a.515.515,0,0,0,.089.467l3.034-3.034a1.474,1.474,0,0,0-1-.388Z" transform="translate(0 -9.99)" fill="#de8400"/>
      </g>
    </g>
    <g id="Groupe_12220" data-name="Groupe 12220" transform="translate(1.915)">
      <g id="Groupe_12219" data-name="Groupe 12219">
        <path id="Tracé_22777" data-name="Tracé 22777" d="M10.685,0h-.022A7.929,7.929,0,0,0,5.63,2.211a8.132,8.132,0,0,0-.565.588L2.784,5.328l.032.032,1.55,1.549L11.078.2a.5.5,0,0,0-.041-.045A.5.5,0,0,0,10.685,0Z" transform="translate(-2.784)" fill="#cdd0d2"/>
      </g>
    </g>
  </g>
</svg>
