<svg xmlns="http://www.w3.org/2000/svg" width="63.514" height="59.156" viewBox="0 0 63.514 59.156">
  <g id="PROFIL-onboarding-Copy" transform="translate(-0.001 -0.019)">
    <g id="Group-2">
      <g id="experiences-01">
        <path id="Path" d="M54.14,27.7c12.44,7.2,12.51,18.86.15,26.06S21.82,61,9.38,53.76-3.14,34.9,9.23,27.7,41.7,20.5,54.14,27.7Z" fill="#a6f2ff"/>
        <path id="Path-2" d="M48.08,22.06A.06.06,0,0,1,48,22h0a.07.07,0,0,1,0-.09,3,3,0,0,0,.37-.34.05.05,0,0,1,.08,0h0a.09.09,0,0,1,0,.1,3.09,3.09,0,0,1-.38.35Z" fill="#262c60"/>
        <path id="Shape" d="M27,38.22h0c-.3.08-.6.15-.9.2a.06.06,0,0,1-.06-.06h0a8.63,8.63,0,0,0,.88-.2h.07v.06Zm-1.8.31h-.92a.06.06,0,0,1-.06,0v-.06h.9a.059.059,0,0,1,.06.06.09.09,0,0,1,0,.05Zm-1.81-.07h0c-.3-.05-.61-.11-.9-.18,0,0-.05-.05,0-.07a.06.06,0,0,1,.07,0,8.551,8.551,0,0,0,.88.17.08.08,0,0,1,0,.07h0ZM21.61,38h-.05l-.22-.09c-.2-.09-.41-.18-.62-.29a.05.05,0,0,1,0-.07.07.07,0,0,1,.07,0h0l.6.29.22.08a.06.06,0,0,1,0,.08h0ZM20,37.18h-.06a7.74,7.74,0,0,1-.73-.55.05.05,0,0,1,0-.08.06.06,0,0,1,.08,0h0a5.51,5.51,0,0,0,.73.54.06.06,0,0,1,0,.08ZM18.6,36a.06.06,0,0,1-.07,0,8.39,8.39,0,0,1-.6-.69.05.05,0,0,1,0-.08.06.06,0,0,1,.08,0h0a6.35,6.35,0,0,0,.6.68.05.05,0,0,1,0,.08Zm-1.13-1.4a.06.06,0,0,1-.07,0,7.07,7.07,0,0,1-.45-.8.057.057,0,1,1,.08-.08h0a8.78,8.78,0,0,0,.44.79v.07h0ZM49,21a.047.047,0,0,1-.08-.05,4,4,0,0,0,.4-.8.06.06,0,0,1,.11,0h0A4.31,4.31,0,0,1,49,21ZM16.66,33h0a.07.07,0,0,1-.08,0h0c-.08-.25-.17-.52-.26-.85a.07.07,0,0,1,0-.07h.07c.09.32.17.59.26.84h0a.05.05,0,0,1,.01.08Zm33-13.63a.06.06,0,0,1-.08,0h0a4.49,4.49,0,0,0,0-.9.06.06,0,0,1,.07,0,.07.07,0,0,1,.05,0,4.69,4.69,0,0,1-.06.92h0ZM16.17,31.22h0a.06.06,0,0,1-.07,0c-.08-.31-.16-.6-.23-.88a.06.06,0,0,1,.11,0c.08.28.16.56.23.88a.06.06,0,0,1-.04,0ZM49.55,17.53h0a.06.06,0,0,1-.07,0,6.2,6.2,0,0,0-.24-.87.05.05,0,0,1,0-.07h0a.07.07,0,0,1,.08,0,6.74,6.74,0,0,1,.24.88.05.05,0,0,1-.01.06ZM15.66,29.47h0a.07.07,0,0,1-.08,0l-.06-.16a5,5,0,0,0-.31-.66.06.06,0,0,1,0-.08.07.07,0,0,1,.08,0h0a5.72,5.72,0,0,1,.32.66.184.184,0,0,0,.07.17.07.07,0,0,1,0,.07ZM49,15.81h-.08a8.848,8.848,0,0,0-.42-.8v-.08a.05.05,0,0,1,.08,0c.16.28.3.54.43.81a.05.05,0,0,1,0,.07ZM14.75,27.9a.06.06,0,0,1-.07,0,5.37,5.37,0,0,0-.64-.62.06.06,0,0,1,0-.08h.07a5,5,0,0,1,.66.64.06.06,0,0,1,0,.08h0Zm33.3-13.67a.06.06,0,0,1-.07,0l-.3-.45-.21-.31a.053.053,0,0,1,.08-.07h0l.21.31q.16.23.3.45a.06.06,0,0,1,0,.08h0ZM13.38,26.72a.06.06,0,0,1-.06,0l-.77-.48a.057.057,0,1,1,.08-.08l.77.49v.08h0ZM47,12.73a.06.06,0,0,1-.07,0c-.21-.31-.37-.54-.51-.76a.05.05,0,0,1,0-.07h.07l.5.76v.07Zm-35.21,13h-.05L11,25.29a.05.05,0,0,1,0-.08h.07c.22.15.45.3.78.49v.07h0ZM46,11.2a.06.06,0,0,1-.07,0c-.15-.28-.3-.54-.42-.8a.057.057,0,0,1,.08-.08h0c.12.26.26.52.42.8v.07ZM10.32,24.75h-.06a8,8,0,0,1-.66-.64.08.08,0,0,1,0-.08h.07a4.67,4.67,0,0,0,.64.62.06.06,0,0,1,0,.08h0Zm35-15.19h0a.06.06,0,0,1-.07,0,8.93,8.93,0,0,1-.27-.87s0-.06.05-.07a.06.06,0,0,1,.06,0c.08.31.17.6.26.87a.05.05,0,0,1,0,.07ZM9.15,23.37H9.08a3.132,3.132,0,0,1-.23-.48,3.382,3.382,0,0,1-.13-.37c-.04-.13,0-.06,0-.07h0a.06.06,0,0,1,.07,0,2.6,2.6,0,0,0,.13.36,3.88,3.88,0,0,0,.22.46s0,.07,0,.08ZM44.81,7.8h-.06c-.06-.31-.12-.61-.17-.89a.06.06,0,0,1,0-.06h.06a5.138,5.138,0,0,0,.17.89.06.06,0,0,1,0,.06ZM8.61,21.65h0a.06.06,0,0,1-.06,0h0a7.07,7.07,0,0,1,0-.92.06.06,0,0,1,.06-.05v.05a6.77,6.77,0,0,0,0,.9.05.05,0,0,1,0,.07ZM44.48,6h0a.08.08,0,0,1-.07,0h0c-.07-.35-.12-.63-.18-.89a.06.06,0,0,1,0-.07h.07c.06.26.12.54.18.89a.06.06,0,0,1,0,.07ZM8.68,19.84a.07.07,0,0,1-.08,0h0a6.74,6.74,0,0,1,.24-.88.07.07,0,0,1,.08,0,.05.05,0,0,1,0,.07H9a6.2,6.2,0,0,0-.24.87ZM44.07,4.24h0a.06.06,0,0,1-.07,0h0c-.09-.3-.19-.59-.3-.86a.05.05,0,0,1,0-.07h0a.05.05,0,0,1,.07,0,8.811,8.811,0,0,1,.31.87.05.05,0,0,1,0,.07ZM9.28,18.13H9.21c.14-.25.29-.5.45-.73v-.05a.05.05,0,0,1,.08,0,.06.06,0,0,1,0,.07h0v.05a5.16,5.16,0,0,0-.43.71h0Zm1.06-1.48h-.07v-.06q.32-.33.66-.63A.05.05,0,1,1,11,16c-.23.2-.44.41-.65.63Zm13.33-5.44a.06.06,0,0,1-.07,0,.08.08,0,0,1,0-.07l.83-.37a.05.05,0,0,1,.08,0,.06.06,0,0,1,0,.08h0l-.83.37Zm-.84.33h0l-.83.3h0a.049.049,0,0,1-.07-.07h0l.82-.29a.06.06,0,0,1,.07,0v.06Zm2.49-1.12a.06.06,0,0,1-.07,0v-.06c.27-.14.53-.29.79-.44a.07.07,0,0,1,.08,0,.05.05,0,0,1,0,.08c-.26.16-.53.3-.8.44Zm-4.22,1.7h0l-.88.25a.06.06,0,0,1,0-.11h0l.88-.25a.06.06,0,0,1,.07.05.07.07,0,0,1,0,.06Zm-1.76.47h0l-.62.15-.26.07a.07.07,0,0,1-.08,0,.06.06,0,0,1,0-.07h0l.26-.07.62-.15a.06.06,0,0,1,.07,0v.06ZM26.89,9.5a.057.057,0,1,1-.08-.08h0c.26-.15.51-.33.76-.5a.08.08,0,0,1,.08,0,.06.06,0,0,1,0,.08l-.75.5ZM11.72,15.45h-.08a.07.07,0,0,1,0-.08c.24-.17.5-.33.77-.5a.07.07,0,0,1,.08,0v.07c-.27.16-.52.33-.76.5ZM43.38,2.55h-.07a6.11,6.11,0,0,0-.5-.75.06.06,0,0,1,0-.08.05.05,0,0,1,.08,0h0a4.83,4.83,0,0,1,.5.77.05.05,0,0,1,0,.08ZM17.57,13h0l-.88.23a.06.06,0,0,1-.07,0,.07.07,0,0,1,0-.07h0l.88-.24a.08.08,0,0,1,.07.05v.06ZM28.39,8.47a.057.057,0,1,1-.08-.08L29,7.81a.06.06,0,0,1,.08.08h0l-.71.56ZM15.83,13.54h0l-.44.14-.42.14a.05.05,0,0,1,0-.1h0l.42-.15.45-.15a.07.07,0,0,1,.07,0,.06.06,0,0,1,0,.07Zm-2.54,1a.06.06,0,0,1-.06,0v-.05c.26-.14.54-.26.83-.39h0a.07.07,0,0,1,.07,0,.05.05,0,0,1,0,.07l-.82.38ZM29.78,7.31h-.07a.07.07,0,0,1,0-.06l.66-.62a.07.07,0,0,1,.08,0,.09.09,0,0,1,0,.07c-.22.21-.44.42-.67.61ZM31.08,6H31l.62-.68a.06.06,0,0,1,.08,0,.05.05,0,0,1,0,.08h0l-.59.6h0ZM42.25,1.13h-.06a4.24,4.24,0,0,0-.65-.46L41.46.61a.05.05,0,0,1,0-.07.06.06,0,0,1,.08,0h0l.09.05a5.14,5.14,0,0,1,.67.48.06.06,0,0,1,0,.08h0Zm-10,3.55a.05.05,0,0,1-.07,0V4.62l.06-.07.53-.62a.06.06,0,0,1,.09.07l-.54.62-.06.07Zm1.21-1.36a.07.07,0,0,1-.08,0V3.26c.23-.25.44-.46.64-.66a.06.06,0,0,1,.08,0v.07c-.2.2-.41.41-.63.65h0Zm7.16-3h0a4.27,4.27,0,0,0-.88-.16.06.06,0,0,1,0-.06h0a4.67,4.67,0,0,1,.91.15.07.07,0,0,1,0,.08h0ZM34.81,2a.05.05,0,0,1-.08,0,.06.06,0,0,1,0-.08,8.789,8.789,0,0,1,.72-.56h.07v.07c-.23.17-.47.36-.7.56Zm4-1.9h0A5.36,5.36,0,0,0,38,.3a.06.06,0,1,1,0-.11h0a5.7,5.7,0,0,1,.9-.17.05.05,0,0,1,.06.06.05.05,0,0,1,0,.05ZM36.28,1a.06.06,0,0,1-.07,0,.09.09,0,0,1,0-.06,7.769,7.769,0,0,1,.82-.4h0a.06.06,0,0,1,0,.11h0A7.55,7.55,0,0,0,36.3,1Z" fill="#262c60"/>
        <path id="Path-3" d="M28,38.06h-.07v-.05h0l.37-.14h.06l-.38.15Z" fill="#262c60"/>
        <path id="Path-4" d="M36.12,38.23h0c-.62-.39-1.64.24-2.27,1.4A3,3,0,0,0,33.46,41a1,1,0,0,0,.38.91c.41.26,1.07-.16,1.48-.92a2.07,2.07,0,0,0,.25-.91.69.69,0,0,0-.25-.6.48.48,0,0,0-.5.05,1.55,1.55,0,0,0-.66,1.17.48.48,0,0,0,.17.4c.19.12.48-.07.67-.41a.88.88,0,0,0,.11-.42A.32.32,0,0,0,35,40a.21.21,0,0,0-.23,0,.67.67,0,0,0-.23.27.62.62,0,0,0-.09.29.23.23,0,0,0,.09.19.118.118,0,0,0,.1-.06c.03-.06,0-.05,0-.07a.08.08,0,0,0,0-.05.1.1,0,0,1,0-.1.23.23,0,0,1,0-.14.32.32,0,0,1,.13-.15.13.13,0,0,1,.13,0,.21.21,0,0,1,.07.18.64.64,0,0,1-.07.27c-.13.24-.34.37-.47.29a.35.35,0,0,1-.13-.3,1.06,1.06,0,0,1,.13-.46c.22-.41.57-.63.79-.49a.57.57,0,0,1,.21.5,1.66,1.66,0,0,1-.21.76c-.35.66-.93,1-1.29.8a.94.94,0,0,1-.34-.81,2.67,2.67,0,0,1,.34-1.23c.57-1.07,1.5-1.64,2.07-1.28a.118.118,0,0,0,.1-.06A.11.11,0,0,0,36.12,38.23Z" fill="#fff"/>
        <path id="Path-5" d="M24.13,36.49h0" fill="none"/>
      </g>
      <g id="linkedin">
        <path id="Path-6" d="M44.82,13.73,24.34,1.85A3.28,3.28,0,0,0,21,1.53L15.24,4.9h0a3.27,3.27,0,0,0-1.36,3l-.07,23.64a10.28,10.28,0,0,0,4.64,8.07L38.94,51.48a3.2,3.2,0,0,0,3.38.28l-.07.05L48,48.43a3.26,3.26,0,0,0,1.36-3l.07-23.63A10.28,10.28,0,0,0,44.82,13.73Z" fill="#005ecf"/>
        <g id="Group">
          <path id="Path-7" d="M48,48.26l-5.77,3.36a3.28,3.28,0,0,0,1.36-3l5.76-3.36a3.25,3.25,0,0,1-1.35,3Z" fill="#016ef1"/>
          <g id="Path-8">
            <path id="Tracé_23933" data-name="Tracé 23933" d="M15.31,4.89l5.77-3.36a3.26,3.26,0,0,1,3.31.32L18.62,5.21a3.28,3.28,0,0,0-3.31-.32Z" fill="#2487ff"/>
            <path id="Tracé_23934" data-name="Tracé 23934" d="M43.69,25.08l5.76-3.36-.06,23.55-5.77,3.36Z" fill="#2487ff"/>
          </g>
          <path id="Path-9" d="M18.62,5.21l5.77-3.36L44.82,13.68,39.06,17Z" fill="#59a4ff"/>
          <path id="Path-10" d="M39.05,17l5.77-3.36a10.23,10.23,0,0,1,4.63,8L43.68,25a10.25,10.25,0,0,0-4.63-8Z" fill="#9bc9fd"/>
        </g>
        <g id="Group-2-2">
          <path id="Shape-2" d="M19.45,34.11V19.7L23.41,22V36.41l-3.92-2.25m10.16-6.62h.05c.53-.84,1.81-1.3,3.71-.2,4,2.28,4.69,5.68,4.67,9.56v7.9l-3.91-2.25v-7c0-1.67,0-3.84-2-5s-2.36.47-2.36,2.35v7.13L25.9,37.78V23.37l3.76,2.16v2M21.51,18.9A5,5,0,0,1,19.2,15c0-1.44,1-2,2.27-1.29a4.92,4.92,0,0,1,2.26,3.9c0,1.43-1,2-2.27,1.29" fill="#0065a1"/>
          <g id="Groupe_11795" data-name="Groupe 11795">
            <path id="Shape-3" d="M23.41,22l-3.92-2.3V34.11l3.92,2.25V21.95m-1.94-8.28c-1.25-.73-2.27-.15-2.27,1.28a4.92,4.92,0,0,0,2.26,3.9c1.25.72,2.27.15,2.27-1.29a5,5,0,0,0-2.26-3.89" fill="#fff"/>
            <path id="Path-11" d="M33.37,27.32c-1.9-1.1-3.18-.64-3.71.2h-.05v-2l-3.76-2.16V37.77L29.73,40V32.88c0-1.88.32-3.52,2.36-2.35s2,3.32,2,5v7L38,44.78v-7.9c0-3.88-.71-7.28-4.67-9.56" fill="#fff"/>
          </g>
        </g>
      </g>
    </g>
  </g>
</svg>
