<svg xmlns="http://www.w3.org/2000/svg" xmlns:xlink="http://www.w3.org/1999/xlink" width="51.868" height="52.014" viewBox="0 0 51.868 52.014">
  <defs>
    <linearGradient id="linear-gradient" x1="-1376.938" y1="478.984" x2="-1376.862" y2="478.995" gradientUnits="objectBoundingBox">
      <stop offset="0.16" stop-color="#4edaf7"/>
      <stop offset="1" stop-color="#505cc8"/>
    </linearGradient>
    <linearGradient id="linear-gradient-2" x1="-1368.591" y1="563.096" x2="-1368.074" y2="563.096" xlink:href="#linear-gradient"/>
    <linearGradient id="linear-gradient-3" x1="-1019.316" y1="532.132" x2="-1019.044" y2="532.132" xlink:href="#linear-gradient"/>
    <linearGradient id="linear-gradient-4" x1="-908.545" y1="530.843" x2="-908.32" y2="530.843" xlink:href="#linear-gradient"/>
    <linearGradient id="linear-gradient-5" x1="-933.224" y1="442.803" x2="-932.982" y2="442.803" xlink:href="#linear-gradient"/>
    <linearGradient id="linear-gradient-6" x1="-1153.922" y1="636.695" x2="-1153.677" y2="636.695" xlink:href="#linear-gradient"/>
    <linearGradient id="linear-gradient-7" x1="-936.203" y1="578.59" x2="-936.017" y2="578.59" xlink:href="#linear-gradient"/>
    <linearGradient id="linear-gradient-8" x1="-910.36" y1="516.588" x2="-910.185" y2="516.588" xlink:href="#linear-gradient"/>
    <linearGradient id="linear-gradient-9" x1="-859.864" y1="544.852" x2="-859.698" y2="544.852" xlink:href="#linear-gradient"/>
    <linearGradient id="linear-gradient-10" x1="-1305.837" y1="490.231" x2="-1305.764" y2="490.136" gradientUnits="objectBoundingBox">
      <stop offset="0.01" stop-color="#ca79e1"/>
      <stop offset="0.42" stop-color="#c878df"/>
      <stop offset="0.59" stop-color="#c174da"/>
      <stop offset="0.72" stop-color="#b56dd0"/>
      <stop offset="0.82" stop-color="#a363c3"/>
      <stop offset="0.92" stop-color="#8c56b2"/>
      <stop offset="1" stop-color="#71479c"/>
      <stop offset="1" stop-color="#6f469b"/>
    </linearGradient>
    <linearGradient id="linear-gradient-11" x1="-1084.145" y1="673.719" x2="-1084.022" y2="673.719" xlink:href="#linear-gradient-10"/>
    <linearGradient id="linear-gradient-12" x1="-816.995" y1="716.414" x2="-816.917" y2="716.414" xlink:href="#linear-gradient-10"/>
    <linearGradient id="linear-gradient-13" x1="-739.435" y1="738.033" x2="-739.363" y2="738.033" xlink:href="#linear-gradient-10"/>
    <linearGradient id="linear-gradient-14" x1="-707.087" y1="612.096" x2="-707.024" y2="612.096" xlink:href="#linear-gradient-10"/>
    <linearGradient id="linear-gradient-15" x1="-1409.428" y1="545.633" x2="-1408.313" y2="545.633" xlink:href="#linear-gradient-10"/>
    <linearGradient id="linear-gradient-16" x1="-1267.376" y1="476.914" x2="-1266.673" y2="476.914" xlink:href="#linear-gradient-10"/>
    <linearGradient id="linear-gradient-17" x1="-1265.269" y1="442.636" x2="-1264.519" y2="442.636" xlink:href="#linear-gradient-10"/>
    <linearGradient id="linear-gradient-18" x1="-1190.37" y1="452.958" x2="-1189.781" y2="452.958" xlink:href="#linear-gradient-10"/>
    <linearGradient id="linear-gradient-19" x1="-242.687" y1="239.876" x2="-242.641" y2="239.876" gradientUnits="objectBoundingBox">
      <stop offset="0" stop-color="#49e0fb"/>
      <stop offset="0.33" stop-color="#41abf8"/>
      <stop offset="0.41" stop-color="#8bc1f8"/>
      <stop offset="1" stop-color="#1fb7ff"/>
    </linearGradient>
    <linearGradient id="linear-gradient-20" x1="-366.66" y1="238.198" x2="-366.59" y2="238.198" xlink:href="#linear-gradient-19"/>
    <linearGradient id="linear-gradient-21" x1="-248.147" y1="383.374" x2="-248.1" y2="383.374" xlink:href="#linear-gradient"/>
    <linearGradient id="linear-gradient-22" x1="-240.146" y1="370.428" x2="-240.101" y2="370.428" xlink:href="#linear-gradient"/>
    <linearGradient id="linear-gradient-23" x1="-240.204" y1="234.348" x2="-240.159" y2="234.348" xlink:href="#linear-gradient"/>
    <linearGradient id="linear-gradient-24" x1="-667.078" y1="493.33" x2="-666.941" y2="493.33" xlink:href="#linear-gradient"/>
    <linearGradient id="linear-gradient-25" x1="-453.148" y1="334.299" x2="-453.06" y2="334.299" xlink:href="#linear-gradient"/>
    <linearGradient id="linear-gradient-26" x1="-1232.489" y1="620.506" x2="-1232.167" y2="620.506" xlink:href="#linear-gradient"/>
  </defs>
  <g id="frontoffice" transform="translate(0 -0.055)">
    <g id="PROFIL-onboarding-Copy" transform="translate(0.002 0.061)">
      <g id="CV-01-2">
        <g id="CV-01">
          <path id="Path" d="M44.27,26.64c10.08,5.82,10.14,15.24.11,21S18.06,53.51,8,47.69s-10.15-15.23-.13-21S34.18,20.83,44.27,26.64Z" fill="#78f1ff"/>
          <path id="Path-2" d="M24.44,5.66S20.81.44,23.89,0C23.89,0,26-.42,24.44,5.66Z" fill="url(#linear-gradient)"/>
          <path id="Path-3" d="M24.85,8.22s-.31-5.32,2-4.48C26.84,3.74,28.49,4.23,24.85,8.22Z" fill="url(#linear-gradient-2)"/>
          <path id="Path-4" d="M24.66,11.69s1.52-6.43,3.94-4.6C28.6,7.09,30.37,8.26,24.66,11.69Z" fill="url(#linear-gradient-3)"/>
          <path id="Path-5" d="M24.84,15.16s2.33-6.71,4.71-4.48C29.55,10.68,31.31,12.13,24.84,15.16Z" fill="url(#linear-gradient-4)"/>
          <path id="Path-6" d="M24.47,20.64s1.33-7.9,4.39-5.88C28.86,14.76,31.09,16,24.47,20.64Z" fill="url(#linear-gradient-5)"/>
          <path id="Path-7" d="M24.66,9.13s-1.32-5-3.27-3.57C21.39,5.56,20,6.5,24.66,9.13Z" fill="url(#linear-gradient-6)"/>
          <path id="Path-8" d="M25,13.52s-2.43-6.07-4.56-3.93C20.46,9.59,18.87,11,25,13.52Z" fill="url(#linear-gradient-7)"/>
          <path id="Path-9" d="M24.66,17.53S22.51,10.68,20,12.84C20,12.84,18.11,14.24,24.66,17.53Z" fill="url(#linear-gradient-8)"/>
          <path id="Path-10" d="M24.48,20.46s-2.3-6.64-5-4.22C19.44,16.24,17.44,17.82,24.48,20.46Z" fill="url(#linear-gradient-9)"/>
          <path id="Path-11" d="M26.67,9.23a.15.15,0,0,0,0-.22.17.17,0,0,0-.22,0h0c-.05.06-1,1.26-1.57,2.05,0-.67-.06-1.32-.1-1.93h0A11.1,11.1,0,0,1,25.9,5.46a.17.17,0,0,0,0-.22.16.16,0,0,0-.21,0h0a9.88,9.88,0,0,0-1,2.63c-.24-2.72-.58-4.48-.58-4.52a.16.16,0,0,0-.18-.12h0a.16.16,0,0,0-.12.18,50.919,50.919,0,0,1,.63,5.22L23,7.13a.16.16,0,0,0-.22,0,.14.14,0,0,0,0,.2l1.7,1.84c.07,1.12.12,2.37.12,3.7a14.83,14.83,0,0,0-2-1.83.16.16,0,0,0-.19.25,11.17,11.17,0,0,1,2.16,2.13,31.44,31.44,0,0,1-.15,3.71c-1.22-1.35-2.17-2.33-2.18-2.34A.16.16,0,0,0,22,15h0s1,1.05,2.3,2.49h.07c-.07.71-.15,1.42-.25,2.15a10.39,10.39,0,0,0-2.35-2.33.16.16,0,0,0-.21.06.15.15,0,0,0,0,.2c.95.7,2.3,1.92,2.45,2.62l-.06.39a.22.22,0,0,0,0,.14.829.829,0,0,1-.07.41.16.16,0,0,0,.13.18.15.15,0,0,0,.17-.12,2.363,2.363,0,0,1,.08-.45,42.819,42.819,0,0,0,2.43-3.54.16.16,0,0,0-.16-.24.18.18,0,0,0-.1.07c-.63,1-1.57,2.36-2.07,3.08.21-1.5.36-3,.43-4.52a6.61,6.61,0,0,1,2-2.43.17.17,0,0,0,0-.22.16.16,0,0,0-.22,0h0a8.27,8.27,0,0,0-1.74,1.9V11.61a27.829,27.829,0,0,1,1.84-2.38Z" fill="#505cc8"/>
          <path id="Path-12" d="M31.12,13.33s-.68-6.27,2.18-5.4C33.3,7.94,35.33,8.43,31.12,13.33Z" fill="url(#linear-gradient-10)"/>
          <path id="Path-13" d="M30.5,15.71s2-4.85,3.7-3.09C34.2,12.62,35.43,13.78,30.5,15.71Z" fill="url(#linear-gradient-11)"/>
          <path id="Path-14" d="M28.68,18.81s4.23-5,5.6-2.32C34.28,16.49,35.35,18.3,28.68,18.81Z" fill="url(#linear-gradient-12)"/>
          <path id="Path-15" d="M27,21.9s5.18-5,6.35-1.9C33.38,20,34.34,22.09,27,21.9Z" fill="url(#linear-gradient-13)"/>
          <path id="Path-16" d="M24.47,26.48s4.77-6.23,6.66-3.17C31.13,23.31,32.59,25.37,24.47,26.48Z" fill="url(#linear-gradient-14)"/>
          <path id="Path-17" d="M29.69,16.44s1.12-5.2-1.27-4.72C28.42,11.72,26.74,12,29.69,16.44Z" fill="url(#linear-gradient-15)"/>
          <path id="Path-18" d="M28.08,20.27s.57-6.54-2.39-5.56C25.7,14.71,23.6,15.26,28.08,20.27Z" fill="url(#linear-gradient-16)"/>
          <path id="Path-19" d="M26.1,23.74s1.17-6.95-2.1-6.14C24,17.6,21.66,18,26.1,23.74Z" fill="url(#linear-gradient-17)"/>
          <path id="Path-20" d="M24.54,26.3s.95-6.9-2.56-5.93C22,20.37,19.5,20.91,24.54,26.3Z" fill="url(#linear-gradient-18)"/>
          <path id="Path-21" d="M28.13,24.71a.154.154,0,1,0-.15-.27c-1,.57-2.45,1.41-3.22,1.83.88-1.27,1.68-2.57,2.39-3.84A6.54,6.54,0,0,1,30,21.13a.17.17,0,0,0,.12-.1.18.18,0,0,0,0-.16.17.17,0,0,0-.15-.05,8.17,8.17,0,0,0-2.39.92c.23-.43.45-.85.66-1.27.27-.53.52-1.05.76-1.56a27.8,27.8,0,0,1,2.67-1.35.152.152,0,1,0-.12-.28h0a24.506,24.506,0,0,0-2.31,1.13c.28-.62.54-1.21.77-1.78h0a11.11,11.11,0,0,1,2.65-2.78.15.15,0,0,0,.06-.1.16.16,0,0,0-.12-.19h-.12a10.17,10.17,0,0,0-2,1.91,44.628,44.628,0,0,0,1.48-4.29.13.13,0,0,0,0-.12.16.16,0,0,0-.09-.07.15.15,0,0,0-.19.11h0A49.9,49.9,0,0,1,29.87,16l-.6-2a.14.14,0,0,0-.19-.1h0a.15.15,0,0,0-.1.19l.7,2.39c-.43,1-.94,2.18-1.53,3.37a15,15,0,0,0-.95-2.52.16.16,0,1,0-.28.14,11.22,11.22,0,0,1,1,2.87c-.54,1.06-1.13,2.16-1.79,3.25-.49-1.75-.9-3.06-.91-3.07a.15.15,0,0,0-.19-.1.12.12,0,0,0-.09.08.13.13,0,0,0,0,.12s.45,1.4,1,3.25a.07.07,0,0,0,0,.06c-.37.61-.76,1.22-1.17,1.82a10.55,10.55,0,0,0-1.07-3.13.16.16,0,0,0-.21-.06.14.14,0,0,0-.07.2h0c.54,1.05,1.21,2.75,1,3.45l-.22.32a.25.25,0,0,0-.08.1l-.25.35a.16.16,0,0,0,0,.22h.05a.16.16,0,0,0,.17-.05l.27-.38a37.811,37.811,0,0,0,3.77-2.06Z" fill="#7c49c2"/>
          <path id="Path-22" d="M46.19,33.07c1.67.81,2.47,1.84,1.79,2.3L32.08,46c-.69.46-2.6.17-4.27-.65L3.32,33.41c-1.68-.81-2.48-1.84-1.8-2.3l15.9-10.62c.69-.46,2.6-.17,4.27.65Z" fill="#e5dbff"/>
          <path id="Path-23" d="M45.46,33.07c1.67.81,2.47,1.84,1.78,2.3L31.34,46c-.68.46-2.6.17-4.26-.65L2.58,33.41C.91,32.6.11,31.57.79,31.11l15.9-10.62c.69-.45,2.6-.16,4.27.65Z" fill="#fff"/>
          <path id="Path-24" d="M45,33.2c1.61.92,2.34,2,1.63,2.41L30.1,45.14c-.71.41-2.6,0-4.21-.93L2.27,30.72c-1.62-.92-2.35-2-1.63-2.41l16.57-9.52c.71-.41,2.6,0,4.21.92Z" fill="#cbc3e3"/>
          <path id="Path-25" d="M44.67,32.29c1.61.92,2.35,2,1.63,2.41L29.73,44.22c-.71.41-2.6,0-4.21-.92L1.9,29.82C.29,28.9-.44,27.81.27,27.4l16.57-9.52c.71-.41,2.6,0,4.21.92Z" fill="#e5dbff"/>
          <path id="Path-26" d="M44.67,31.56c1.61.92,2.35,2,1.63,2.41L29.73,43.49c-.71.41-2.6,0-4.21-.92L1.9,29.08c-1.61-.92-2.34-2-1.63-2.41l16.57-9.53c.71-.41,2.6,0,4.21.93Z" fill="#fff"/>
          <path id="Path-27" d="M19,19.29a27.57,27.57,0,0,1-4.11,2.63l-4.67,2.72A33.519,33.519,0,0,1,5.7,27l-1.13-.66a27.94,27.94,0,0,1,4.1-2.62L13.34,21a32.71,32.71,0,0,1,4.53-2.4Z" fill="#e5dbff"/>
          <path id="Path-28" d="M15.16,24.44a25.659,25.659,0,0,1-2.85,1.79L9.11,28.1a30.241,30.241,0,0,1-3.06,1.67l-.57-.33a27.13,27.13,0,0,1,2.85-1.78l3.2-1.88a31.32,31.32,0,0,1,3.07-1.67Z" fill="#e5dbff"/>
          <path id="Path-29" d="M16.44,27.55A19,19,0,0,1,14.12,29L11.5,30.47A21.49,21.49,0,0,1,9,31.78l-.58-.33A16.72,16.72,0,0,1,10.71,30l2.62-1.49a23.19,23.19,0,0,1,2.52-1.32Z" fill="#e5dbff"/>
          <path id="Path-30" d="M25.2,32.66a16.15,16.15,0,0,1-2.31,1.43l-2.62,1.49a20.07,20.07,0,0,1-2.52,1.31l-.58-.33a18.16,18.16,0,0,1,2.31-1.43l2.62-1.49a21.489,21.489,0,0,1,2.52-1.31Z" fill="#e5dbff"/>
          <path id="Path-31" d="M19.36,24.25c.06,0-1.59,1-3.68,2.2l-4.1,2.33A39.145,39.145,0,0,1,7.7,30.86l-.58-.32s1.59-1,3.68-2.2L14.9,26c2.09-1.19,3.83-2.12,3.88-2.09Z" fill="#e5dbff"/>
          <path id="Path-32" d="M20.82,31.19a13.63,13.63,0,0,1-2,1.26l-2.3,1.3a16.72,16.72,0,0,1-2.23,1.14l-.57-.33a13.89,13.89,0,0,1,2-1.25L18,32a15.61,15.61,0,0,1,2.23-1.14Z" fill="#e5dbff"/>
          <path id="Path-33" d="M24.29,27.17a40.281,40.281,0,0,1-3.68,2.2l-4.1,2.33c-2.09,1.18-3.82,2.11-3.88,2.08l-.57-.32a42,42,0,0,1,3.67-2.2l4.1-2.32c2.09-1.18,3.83-2.12,3.89-2.09Z" fill="#e5dbff"/>
          <path id="Path-34" d="M27.58,29.18c.06,0-1.59,1-3.68,2.2l-4.1,2.33c-2.09,1.18-3.83,2.11-3.88,2.08l-.58-.32c-.05,0,1.59-1,3.68-2.2L23.12,31C25.21,29.76,27,28.83,27,28.86Z" fill="#e5dbff"/>
          <g id="Group" opacity="0.18">
            <path id="Path-35" d="M32.35,23.41c4.31,2.45,4.33,6.41,0,8.85a17.35,17.35,0,0,1-15.54,0c-4.31-2.44-4.33-6.4-.05-8.84A17.38,17.38,0,0,1,32.35,23.41Z" fill="url(#linear-gradient-19)"/>
          </g>
          <path id="Path-36" d="M32.35,23.38a15.63,15.63,0,0,0-7-1.83,14.39,14.39,0,0,1,4.58,1.57c4.32,2.47,4.34,6.46.05,8.93a16.45,16.45,0,0,1-8.59,1.83,17.29,17.29,0,0,0,11-1.57C36.71,29.84,36.68,25.84,32.35,23.38Z" opacity="0.21" fill="url(#linear-gradient-20)" style="isolation: isolate"/>
          <g id="Group-2">
            <path id="Path-37" d="M32.37,22.55a6.681,6.681,0,0,0-.8-.41L31.29,22c-.16-.07-.32-.15-.48-.21h-.09l-.19-.07-.66-.22-.22-.07H29.5l-.67-.17h-.14l-.32-.07H28.1l-.58-.1h-.48l-.54-.06H23.6a3.043,3.043,0,0,0-.74.06h-.35l-.76.1h-.28l-.34.07-.6.13-.43.11-.56.16h-.12a6.4,6.4,0,0,0-.66.23h-.09c-.23.09-.47.19-.7.3l-.2.09c-.25.13-.5.25-.73.38l-.12.08-.12.08-.2.12-.17.12-.18.13-.16.12-.17.12-.15.13-.16.14-.06.05-.05.05a3,3,0,0,0-.25.25l-.08.08-.28.33h0a.56.56,0,0,0-.05.08l-.16.21-.07.11-.13.2h0a.29.29,0,0,0,0,.08l-.09.16-.06.14-.07.16v.07a.64.64,0,0,1,0,.07,1,1,0,0,0-.05.16L14,26v.16a.24.24,0,0,0,0,.08v.63a.14.14,0,0,0,0,.09v1.5a1.21,1.21,0,0,1,0-.19v-.31a1,1,0,0,1,0-.16v-.3a.74.74,0,0,0,0-.14V27.2l.06-.14a1.66,1.66,0,0,1,.06-.16l.07-.14a1.19,1.19,0,0,1,.08-.16.74.74,0,0,1,.08-.13,1.22,1.22,0,0,1,.12-.19l.08-.12c0-.07.1-.14.15-.21l.07-.09a4.09,4.09,0,0,1,.28-.33l.08-.08c.08-.08.16-.17.24-.24l.12-.11.16-.14.14-.12.17-.13.16-.13.19-.12.17-.12.2-.13L17,24c.23-.14.48-.26.73-.38l.2-.09c.23-.11.46-.21.7-.3h.08c.25-.1.52-.18.78-.26l.56-.16.43-.12.6-.12a3.823,3.823,0,0,0,.44-.09h.18l.76-.11h.21l.88-.08h2.9l.55.07.48.06.58.1.59.12h.14c.28.06.55.14.82.22l.22.07c.23.07.45.14.66.22l.19.07.57.24.28.13c.28.13.54.27.8.41a6.81,6.81,0,0,1,2.74,2.66,4.35,4.35,0,0,1,.25.59,1.143,1.143,0,0,0,.09.3,4,4,0,0,1,.11.9V27C35.56,25.39,34.5,23.78,32.37,22.55Z" fill="url(#linear-gradient-21)"/>
            <path id="Path-38" d="M35.86,27a1.33,1.33,0,0,1,0,.2c0,.07,0,.11,0,.16v.15a1.11,1.11,0,0,1,0,.17v.45a1.54,1.54,0,0,1,0,.17.78.78,0,0,0-.05.14l-.08.17-.06.14-.09.16c0,.06-.05.09-.07.14l-.13.2a.83.83,0,0,1-.08.12l-.16.22a.35.35,0,0,0-.06.09l-.29.33-.09.09-.25.25-.12.11-.16.14-.15.13-.18.13-.16.13-.19.13-.18.12-.2.12-.25.16q-.36.21-.75.39l-.2.1-.72.31H31.1c-.26.1-.53.18-.8.27l-.57.16-.44.12-.62.13-.45.09h-.19l-.77.11h-.23l-.9.08H22.92l-.55-.07-.5-.07-.6-.1-.6-.12h-.15c-.29-.06-.57-.14-.84-.22l-.23-.07-.68-.23-.2-.07L18,32.07,17.69,32c-.28-.13-.55-.28-.82-.43-2.18-1.27-3.28-2.93-3.28-4.59v1.49c0,1.66,1.09,3.32,3.28,4.58l.82.43.29.12.5.22h.09l.2.07a5.9,5.9,0,0,0,.67.23l.24.08h.15c.23.07.45.13.69.18h.14l.33.08.28.05.59.1h.5l.56.06h.52a5.249,5.249,0,0,0,.56,0h1.9l.77-.05h.36a3.971,3.971,0,0,0,.77-.11h.29l.36-.08.61-.12.44-.12c.19-.05.38-.1.57-.17h.13c.23-.07.45-.15.67-.24h.09l.72-.31.2-.1c.25-.13.51-.25.75-.39l.14-.08.12-.08.2-.13.18-.12.19-.12.16-.13.18-.13.15-.13.16-.14.07-.06v-.05l.25-.25.09-.09.29-.33h0l.05-.07c.06-.07.11-.15.16-.22l.08-.12.13-.2v-.05a.589.589,0,0,0,0-.08l.09-.17.06-.14.08-.17v-.07a.14.14,0,0,1,0-.07,1.419,1.419,0,0,0,0-.16.174.174,0,0,1,.05-.15c.05-.05,0-.11,0-.16a.29.29,0,0,1,0-.09.11.11,0,0,1,0-.06,1,1,0,0,0,0-.17.78.78,0,0,0,0-.14v-.17a.34.34,0,0,1,0-.1.17.17,0,0,0,0-.1h0Z" fill="url(#linear-gradient-22)"/>
            <path id="Shape" d="M32.58,22.42c4.36,2.51,4.38,6.6.05,9.1a17.444,17.444,0,0,1-15.75,0c-4.36-2.51-4.38-6.59-.05-9.1a17.44,17.44,0,0,1,15.75,0Zm-15.49,9a17,17,0,0,0,15.33,0c4.21-2.44,4.19-6.41-.05-8.85a17,17,0,0,0-15.33,0C12.83,25,12.86,29,17.09,31.4Z" fill="url(#linear-gradient-23)"/>
          </g>
          <g id="Group-3">
            <path id="Path-39" d="M39.49,35.21a.28.28,0,0,1,.13,0h.25l-6.51-3.76H33l-.11.05-.15.1h0l-.07.06h0l-.06.07h0v.14h0v.18h0v.07a.24.24,0,0,0,0,.08v.28a.76.76,0,0,0,0,.15.54.54,0,0,0,.23.51l6.5,3.76a.53.53,0,0,1-.22-.51,1.09,1.09,0,0,1,0-.18h0a1,1,0,0,1,0-.17h0a1.34,1.34,0,0,1,.07-.18h0a1.62,1.62,0,0,1,.1-.18h0a1,1,0,0,1,.11-.17h0a1.339,1.339,0,0,1,.11-.14h0l.1-.09h.05l.15-.1a.52.52,0,0,1,.15-.07Z" fill="url(#linear-gradient-24)"/>
            <path id="Path-40" d="M39.32,35.28c.44-.25.8-.05.8.45a1.72,1.72,0,0,1-.8,1.36.488.488,0,0,1-.79-.45,1.72,1.72,0,0,1,.79-1.36Z" fill="#aaa"/>
          </g>
          <g id="Group-4">
            <path id="Path-41" d="M45.68,37.75h.68l-9-5.1h-.9l-.2.1-.29.2-.09.08-.14.12v.06l-.06.06-.06.06-.12.15v.05h0v.06l-.09.13-.08.12h0l-.06.11-.07.13-.06.11h0v.13a.88.88,0,0,0-.05.15v.07h0a.09.09,0,0,1,0,.05.216.216,0,0,1-.05.17c-.05.05,0,.07,0,.1a.15.15,0,0,0,0,.06h0a1.51,1.51,0,0,0,0,.3,1.16,1.16,0,0,0,.26.82.7.7,0,0,0,.19.15l9,5.1a1.06,1.06,0,0,1-.45-1,2.069,2.069,0,0,1,0-.35.11.11,0,0,1,0-.05,1.323,1.323,0,0,1,.08-.33h0a1.046,1.046,0,0,1,.13-.36h0a3.9,3.9,0,0,1,.19-.35h0a3.53,3.53,0,0,1,.21-.32h0l.22-.27h0a1.12,1.12,0,0,1,.2-.18L45,38.1l.29-.2.2-.1h.06A.16.16,0,0,1,45.68,37.75Z" fill="url(#linear-gradient-25)"/>
            <path id="Path-42" d="M45.32,37.9c.85-.48,1.55-.1,1.55.86a3.3,3.3,0,0,1-1.55,2.62c-.86.48-1.56.1-1.56-.86A3.34,3.34,0,0,1,45.32,37.9Z" fill="url(#linear-gradient-26)"/>
          </g>
        </g>
      </g>
    </g>
  </g>
</svg>
