<svg id="TARGET" xmlns="http://www.w3.org/2000/svg" width="20.598" height="20.6" viewBox="0 0 20.598 20.6">
  <path id="Tracé_22778" data-name="Tracé 22778" d="M133.149,20.6,128,10.3,133.149,0a10.3,10.3,0,1,1,0,20.6Z" transform="translate(-122.851)" fill="#cb2e81"/>
  <path id="Tracé_22779" data-name="Tracé 22779" d="M0,10.3A10.3,10.3,0,0,1,10.3,0V20.6A10.3,10.3,0,0,1,0,10.3Z" fill="#ff3187"/>
  <path id="Tracé_22780" data-name="Tracé 22780" d="M161.943,75.77,158,67.885,161.943,60a7.885,7.885,0,0,1,0,15.77Z" transform="translate(-151.644 -57.586)" fill="#dff5ff"/>
  <path id="Tracé_22781" data-name="Tracé 22781" d="M60,67.885A7.885,7.885,0,0,1,67.885,60V75.77A7.885,7.885,0,0,1,60,67.885Z" transform="translate(-57.586 -57.586)" fill="#fff"/>
  <path id="Tracé_22782" data-name="Tracé 22782" d="M196.686,142.345l-2.486-4.972,2.486-4.972a4.973,4.973,0,0,1,0,9.945Z" transform="translate(-186.387 -127.074)" fill="#ff3187"/>
  <path id="Tracé_22783" data-name="Tracé 22783" d="M132.4,137.372a4.972,4.972,0,0,1,4.972-4.972v9.945a4.972,4.972,0,0,1-4.972-4.972Z" transform="translate(-127.074 -127.074)" fill="#ff5178"/>
  <path id="Tracé_22784" data-name="Tracé 22784" d="M231.43,208.92l-1.03-2.06,1.03-2.06a2.06,2.06,0,1,1,0,4.12Z" transform="translate(-221.131 -196.561)" fill="#ffb24a"/>
  <path id="Tracé_22785" data-name="Tracé 22785" d="M204.8,206.86a2.06,2.06,0,0,1,2.06-2.06v4.12A2.06,2.06,0,0,1,204.8,206.86Z" transform="translate(-196.561 -196.561)" fill="#ffd23b"/>
</svg>
