<svg xmlns="http://www.w3.org/2000/svg" width="190.014" height="190.014" viewBox="0 0 190.014 190.014">
  <g id="Group_11901" data-name="Group 11901" transform="translate(-92.622 -188.923)">
    <g id="Group_11713" data-name="Group 11713" transform="translate(-11 -102)">
      <g id="Group_11712" data-name="Group 11712" transform="translate(79.523 267.364)">
        <g id="Group_11711" data-name="Group 11711" transform="translate(0 174.107) rotate(-70)">
          <g id="Ellipse_420" data-name="Ellipse 420" transform="translate(18.802 18.802)" fill="none" stroke="rgba(112,112,112,0.22)" stroke-width="15">
            <circle cx="74.125" cy="74.125" r="74.125" stroke="none"/>
            <circle cx="74.125" cy="74.125" r="66.625" fill="none"/>
          </g>
          <g id="Group_11710" data-name="Group 11710" transform="translate(0)">
            <g id="Path_23918" data-name="Path 23918" transform="translate(141.898 0) rotate(73)" fill="none" stroke-linecap="round" stroke-dasharray="300">
              <path d="M74.191,0A74.191,74.191,0,1,1,0,74.191,74.191,74.191,0,0,1,74.191,0Z" stroke="none"/>
              <path d="M 74.19087219238281 0 C 115.1653442382812 0 148.3817443847656 33.21636962890625 148.3817443847656 74.19087219238281 C 148.3817443847656 115.1653442382812 115.1653442382812 148.3817443847656 74.19087219238281 148.3817443847656 C 74.17935180664062 148.3817443847656 74.16987609863281 148.3817291259766 74.15835571289062 148.3817291259766 C 74.15335845947266 148.3817291259766 74.15345001220703 148.3817291259766 74.14844512939453 148.3817291259766 C 74.14125061035156 148.3817138671875 74.13292694091797 148.3817138671875 74.125732421875 148.3817138671875 C 74.12322998046875 148.3817138671875 74.11562347412109 148.3816986083984 74.11312103271484 148.3816986083984 C 74.10592651367188 148.3816833496094 74.10061645507812 148.3816833496094 74.09342193603516 148.3816680908203 C 74.08842468261719 148.3816680908203 74.08525848388672 148.3816680908203 74.08026123046875 148.3816528320312 C 74.07450103759766 148.3816528320312 74.06632995605469 148.3816375732422 74.06057739257812 148.3816223144531 C 74.05558013916016 148.3816223144531 74.05209350585938 148.3816070556641 74.04709625244141 148.3816070556641 C 74.03990173339844 148.381591796875 74.03394317626953 148.3815765380859 74.02674865722656 148.3815612792969 C 74.02425384521484 148.3815612792969 74.01753997802734 148.3815460205078 74.01504516601562 148.3815307617188 C 74.00785064697266 148.3815155029297 73.99967193603516 148.3815002441406 73.99247741699219 148.3814849853516 C 73.98748016357422 148.3814697265625 73.98692321777344 148.3814697265625 73.98192596435547 148.3814544677734 C 73.97041320800781 148.3814239501953 73.96115875244141 148.3813934326172 73.94964599609375 148.38134765625 C 73.94715118408203 148.38134765625 73.94607543945312 148.38134765625 73.94358062744141 148.3813323974609 C 73.93495178222656 148.3813018798828 73.92690277099609 148.3812713623047 73.91827392578125 148.3812408447266 C 73.91327667236328 148.3812255859375 73.90949249267578 148.3812103271484 73.90449523925781 148.3811950683594 C 73.89730834960938 148.3811645507812 73.89189910888672 148.3811492919922 73.88471221923828 148.3811187744141 C 73.88220977783203 148.381103515625 73.87511444091797 148.3810729980469 73.87261962890625 148.3810729980469 C 73.86542510986328 148.3810424804688 73.85904693603516 148.3810119628906 73.85186004638672 148.3809814453125 C 73.84686279296875 148.3809509277344 73.84477996826172 148.3809509277344 73.83978271484375 148.3809204101562 C 73.83258819580078 148.3808898925781 73.8251953125 148.380859375 73.81800842285156 148.3808135986328 C 73.81550598144531 148.3808135986328 73.80954742431641 148.3807830810547 73.80704498291016 148.3807678222656 C 73.79985809326172 148.3807220458984 73.79178619384766 148.3806915283203 73.78459930419922 148.3806457519531 C 73.77960205078125 148.380615234375 73.77915954589844 148.380615234375 73.77416229248047 148.3805999755859 C 73.76409912109375 148.3805389404297 73.75363159179688 148.3804779052734 73.74356842041016 148.3804168701172 C 73.74356842041016 148.3804168701172 73.74188232421875 148.3804016113281 73.74188232421875 148.3804016113281 C 73.73037719726562 148.3803405761719 73.72001647949219 148.3802795410156 73.70851898193359 148.3802032470703 C 73.70602416992188 148.3801879882812 73.7044677734375 148.3801727294922 73.70197296142578 148.3801574707031 C 73.69334411621094 148.3801116943359 73.68510437011719 148.3800506591797 73.67647552490234 148.3799896240234 C 73.67398071289062 148.3799743652344 73.66739654541016 148.3799285888672 73.66490173339844 148.3799133300781 C 73.65771484375 148.3798675537109 73.65161895751953 148.3798217773438 73.64443206787109 148.3797607421875 C 73.63944244384766 148.3797302246094 73.63538360595703 148.3796997070312 73.63038635253906 148.3796691894531 C 73.62464141845703 148.3796234130859 73.617431640625 148.3795623779297 73.61167907714844 148.3795166015625 C 73.606689453125 148.3794860839844 73.60343933105469 148.3794555664062 73.59844207763672 148.3794250488281 C 73.59126281738281 148.3793640136719 73.58555603027344 148.3793182373047 73.578369140625 148.3792572021484 C 73.57587432861328 148.3792419433594 73.56795501708984 148.3791809082031 73.56546020507812 148.379150390625 C 73.55828094482422 148.3791046142578 73.55009460449219 148.3790283203125 73.54291534423828 148.3789672851562 C 73.53791809082031 148.3789215087891 73.53861236572266 148.3789367675781 73.53362274169922 148.3788909912109 C 73.52212524414062 148.3787841796875 73.51264953613281 148.3787078857422 73.50115966796875 148.3786010742188 C 73.49866485595703 148.3785705566406 73.49875640869141 148.3785705566406 73.49626159667969 148.3785552978516 C 73.4862060546875 148.3784637451172 73.47789764404297 148.3783874511719 73.46784210205078 148.3782806396484 C 73.46285247802734 148.3782348632812 73.46424865722656 148.3782501220703 73.45925903320312 148.3782043457031 C 73.45207977294922 148.3781280517578 73.44332122802734 148.3780517578125 73.43614196777344 148.3779754638672 C 73.43364715576172 148.3779602050781 73.42626190185547 148.3778839111328 73.42376708984375 148.3778533935547 C 73.41658782958984 148.3777770996094 73.41000366210938 148.3777160644531 73.40282440185547 148.3776397705078 C 73.39783477783203 148.3775939941406 73.39589691162109 148.3775634765625 73.39090728759766 148.3775177001953 C 73.38372802734375 148.37744140625 73.37793731689453 148.3773803710938 73.37075805664062 148.3773040771484 C 73.36576843261719 148.3772430419922 73.36272430419922 148.3772125244141 73.35773468017578 148.3771514892578 C 73.35055541992188 148.3770751953125 73.34471130371094 148.3770141601562 73.33753204345703 148.3769378662109 C 73.33254241943359 148.3768768310547 73.329833984375 148.3768463134766 73.32485198974609 148.3767852783203 C 73.31767272949219 148.376708984375 73.30924224853516 148.3766021728516 73.30206298828125 148.3765258789062 C 73.29956817626953 148.3764953613281 73.29524993896484 148.3764495849609 73.29275512695312 148.3764190673828 C 73.28127288818359 148.3762817382812 73.27229309082031 148.3761749267578 73.26081085205078 148.3760223388672 C 73.25831604003906 148.3759918212891 73.25421142578125 148.3759460449219 73.25171661376953 148.3759155273438 C 73.24454498291016 148.3758239746094 73.23500061035156 148.3757019042969 73.22782897949219 148.3756103515625 C 73.22533416748047 148.3755798339844 73.21937561035156 148.3755035400391 73.21688079833984 148.3754730224609 C 73.20970153808594 148.3753814697266 73.20219421386719 148.3752899169922 73.19501495361328 148.3751831054688 C 73.19252777099609 148.3751525878906 73.1865234375 148.3750762939453 73.18402862548828 148.3750457763672 C 73.17542266845703 148.3749237060547 73.1707763671875 148.3748626708984 73.16216278076172 148.374755859375 C 73.15718078613281 148.3746795654297 73.15537261962891 148.3746643066406 73.150390625 148.3745880126953 C 73.14321899414062 148.3744964599609 73.13668060302734 148.3744049072266 73.12950897216797 148.3742980957031 C 73.12701416015625 148.374267578125 73.12014007568359 148.3741760253906 73.11764526367188 148.3741302490234 C 73.1104736328125 148.3740386962891 73.10443115234375 148.3739471435547 73.09725952148438 148.3738403320312 C 73.09226989746094 148.3737640380859 73.08914184570312 148.3737182617188 73.08415985107422 148.3736572265625 C 73.06407165527344 148.3733520507812 73.04092407226562 148.3730163574219 73.02084350585938 148.3726959228516 C 73.01586151123047 148.3726196289062 73.01445770263672 148.3726043701172 73.00947570800781 148.3725280761719 C 73.00230407714844 148.3724060058594 72.99427795410156 148.3722839355469 72.98711395263672 148.3721771240234 C 72.984619140625 148.3721313476562 72.97885131835938 148.3720397949219 72.97636413574219 148.3719940185547 C 72.96919250488281 148.3718872070312 72.96282958984375 148.3717803955078 72.95566558837891 148.3716583251953 C 72.95068359375 148.37158203125 72.94721984863281 148.3715209960938 72.94223785400391 148.3714447021484 C 72.93650817871094 148.3713531494141 72.92765808105469 148.3712005615234 72.92192077636719 148.3711090087891 C 72.91693878173828 148.3710174560547 72.91526031494141 148.3709869384766 72.9102783203125 148.3709106445312 C 72.90311431884766 148.3707885742188 72.89527893066406 148.3706512451172 72.88810729980469 148.3705291748047 C 72.8856201171875 148.3704833984375 72.88029479980469 148.3703918457031 72.87779998779297 148.3703460693359 C 72.86920166015625 148.3702087402344 72.86095428466797 148.3700561523438 72.85235595703125 148.3699035644531 C 72.84986877441406 148.3698577880859 72.8475341796875 148.3698272705078 72.84504699707031 148.3697814941406 C 72.83358001708984 148.3695678710938 72.82402801513672 148.3694000244141 72.81256103515625 148.3691864013672 C 72.81006622314453 148.369140625 72.80931091308594 148.3691253662109 72.80682373046875 148.3690795898438 C 72.79679107666016 148.368896484375 72.78942108154297 148.3687744140625 72.77938842773438 148.3685760498047 C 72.77690124511719 148.3685302734375 72.77454376220703 148.3684844970703 72.77204895019531 148.3684387207031 C 72.76345062255859 148.3682861328125 72.75497436523438 148.3681182861328 72.74637603759766 148.3679504394531 C 72.74388122558594 148.3679046630859 72.73926544189453 148.3678131103516 72.73677825927734 148.3677673339844 C 72.72817993164062 148.3675994873047 72.72312927246094 148.3675079345703 72.71453094482422 148.3673400878906 C 72.70955657958984 148.3672485351562 72.70803070068359 148.3672180175781 72.70304870605469 148.3671112060547 C 72.69588470458984 148.3669738769531 72.68872833251953 148.3668365478516 72.68156433105469 148.3666839599609 C 72.6790771484375 148.3666381835938 72.67227935791016 148.3665008544922 72.66979217529297 148.366455078125 C 72.66262817382812 148.3663177490234 72.65457153320312 148.3661499023438 72.64740753173828 148.3659973144531 C 72.64243316650391 148.3659057617188 72.64280700683594 148.3659057617188 72.63783264160156 148.3657989501953 C 72.62637329101562 148.3655700683594 72.618896484375 148.3654174804688 72.60743713378906 148.3651733398438 C 72.60743713378906 148.3651733398438 72.60528564453125 148.3651275634766 72.60528564453125 148.3651275634766 C 72.59382629394531 148.3648834228516 72.58341979980469 148.3646697998047 72.57196044921875 148.3644256591797 C 72.56947326660156 148.3643646240234 72.56874847412109 148.3643493652344 72.56626129150391 148.3643035888672 C 72.55767059326172 148.3641204833984 72.54889678955078 148.3639221191406 72.54030609130859 148.3637390136719 C 72.53781890869141 148.3636779785156 72.53115081787109 148.3635406494141 72.52865600585938 148.3634796142578 C 72.52149963378906 148.3633270263672 72.51438903808594 148.3631744384766 72.50723266601562 148.3630065917969 C 72.50225830078125 148.3628997802734 72.50040435791016 148.3628540039062 72.49542999267578 148.3627471923828 C 72.48970794677734 148.3626251220703 72.48095703125 148.3624267578125 72.47522735595703 148.3622894287109 C 72.47025299072266 148.3621826171875 72.46739959716797 148.3621063232422 72.46242523193359 148.3619995117188 C 72.45526885986328 148.3618316650391 72.44846343994141 148.3616790771484 72.44130706787109 148.3615112304688 C 72.43881988525391 148.3614501953125 72.43270874023438 148.3613128662109 72.43022155761719 148.3612518310547 C 72.42305755615234 148.361083984375 72.41304779052734 148.3608551025391 72.40589141845703 148.3606872558594 C 72.40340423583984 148.3606262207031 72.40041351318359 148.3605499267578 72.39792633056641 148.3605041503906 C 72.386474609375 148.3602294921875 72.37654113769531 148.3599853515625 72.36508941650391 148.3597106933594 C 72.36508941650391 148.3597106933594 72.36388397216797 148.3596801757812 72.36388397216797 148.3596801757812 C 72.35243225097656 148.3594055175781 72.34366607666016 148.3591918945312 72.33221435546875 148.3589172363281 C 72.32972717285156 148.3588562011719 72.32723999023438 148.3587799072266 72.32475280761719 148.3587188720703 C 72.316162109375 148.3585205078125 72.30801391601562 148.3583068847656 72.29942321777344 148.3580932617188 C 72.29694366455078 148.3580322265625 72.29299163818359 148.3579406738281 72.29051208496094 148.3578796386719 C 72.28192138671875 148.3576507568359 72.27545928955078 148.3574981689453 72.26687622070312 148.3572692871094 C 72.26190185546875 148.3571472167969 72.26112365722656 148.3571319580078 72.25615692138672 148.3569946289062 C 72.24900054931641 148.3568115234375 72.24146270751953 148.3566284179688 72.23430633544922 148.3564453125 C 72.23181915283203 148.3563690185547 72.2255859375 148.3562164306641 72.22310638427734 148.3561553955078 C 72.21595001220703 148.35595703125 72.20900726318359 148.3557739257812 72.20185089111328 148.3555908203125 C 72.19688415527344 148.3554534912109 72.19497680664062 148.3554077148438 72.19001007080078 148.3552856445312 C 72.18142700195312 148.3550567626953 72.17383575439453 148.3548431396484 72.16525268554688 148.3546142578125 C 72.16276550292969 148.3545532226562 72.16056060791016 148.3544921875 72.1580810546875 148.3544311523438 C 72.14663696289062 148.3541259765625 72.13729095458984 148.3538665771484 72.12584686279297 148.3535614013672 C 72.12336730957031 148.3534851074219 72.11911010742188 148.3533630371094 72.11662292480469 148.3533020019531 C 72.10947418212891 148.3531036376953 72.10060119628906 148.3528594970703 72.09344482421875 148.3526611328125 C 72.08847808837891 148.3525238037109 72.08589172363281 148.3524475097656 72.08092498779297 148.3523101806641 C 72.07377624511719 148.3521118164062 72.06870269775391 148.3519744873047 72.06155395507812 148.3517761230469 C 72.05658721923828 148.3516235351562 72.05295562744141 148.3515319824219 72.04798889160156 148.3513793945312 C 72.04227447509766 148.3512268066406 72.03413391113281 148.3509979248047 72.02841949462891 148.350830078125 C 72.02345275878906 148.3506927490234 72.020263671875 148.3506011962891 72.01529693603516 148.3504486083984 C 72.00814819335938 148.3502502441406 72.00372314453125 148.3501129150391 71.99657440185547 148.3499145507812 C 71.99160766601562 148.3497619628906 71.98735809326172 148.3496398925781 71.98239135742188 148.3495025634766 C 71.97524261474609 148.3492889404297 71.97062683105469 148.3491516113281 71.96347808837891 148.3489379882812 C 71.95851135253906 148.3488006591797 71.95525360107422 148.3486938476562 71.95028686523438 148.3485565185547 C 71.94027709960938 148.3482513427734 71.92893218994141 148.3479156494141 71.91893005371094 148.3476104736328 C 71.91893005371094 148.3476104736328 71.91873931884766 148.3476104736328 71.91873931884766 148.3476104736328 C 71.90730285644531 148.3472595214844 71.89750671386719 148.3469696044922 71.88607788085938 148.3466186523438 C 71.88111114501953 148.3464660644531 71.88205718994141 148.3464965820312 71.87709045410156 148.3463439941406 C 71.86994171142578 148.3461303710938 71.86109924316406 148.3458557128906 71.85395812988281 148.3456268310547 C 71.85147857666016 148.3455505371094 71.84420776367188 148.3453216552734 71.84172821044922 148.3452453613281 C 71.83458709716797 148.3450317382812 71.82828521728516 148.3448333740234 71.82114410400391 148.3446044921875 C 71.81617736816406 148.3444519042969 71.81477355957031 148.3444061279297 71.80980682373047 148.3442535400391 C 71.80266571044922 148.3440246582031 71.79517364501953 148.3437957763672 71.78803253173828 148.3435668945312 C 71.78306579589844 148.3433990478516 71.78150177001953 148.3433532714844 71.77653503417969 148.3432006835938 C 71.76939392089844 148.3429718017578 71.76210784912109 148.3427276611328 71.75496673583984 148.3424987792969 C 71.75248718261719 148.3424224853516 71.74668121337891 148.3422393798828 71.74420166015625 148.3421630859375 C 71.737060546875 148.3419189453125 71.72876739501953 148.3416595458984 71.72162628173828 148.3414154052734 C 71.71666717529297 148.3412628173828 71.71608734130859 148.3412475585938 71.71112060546875 148.3410797119141 C 71.69969940185547 148.3406982421875 71.69044494628906 148.3403930664062 71.67901611328125 148.3400115966797 C 71.67653656005859 148.3399353027344 71.67827606201172 148.3399963378906 71.67579650878906 148.3399047851562 C 71.66722869873047 148.3396301269531 71.65599060058594 148.3392486572266 71.64742279052734 148.3389587402344 C 71.64246368408203 148.3387908935547 71.64049530029297 148.3387298583984 71.63553619384766 148.3385620117188 C 71.62839508056641 148.3383178710938 71.62152099609375 148.3380737304688 71.6143798828125 148.3378295898438 C 71.61190032958984 148.3377532958984 71.60553741455078 148.3375396728516 71.60305786132812 148.3374481201172 C 71.59591674804688 148.3372039794922 71.58903503417969 148.3369750976562 71.58189392089844 148.3367156982422 C 71.57693481445312 148.3365478515625 71.57486724853516 148.3364715576172 71.56990814208984 148.3363037109375 C 71.56276702880859 148.3360595703125 71.55595397949219 148.3358154296875 71.54882049560547 148.3355712890625 C 71.54634094238281 148.3354797363281 71.53997039794922 148.3352661132812 71.53749084472656 148.3351745605469 C 71.53034973144531 148.3349151611328 71.52185821533203 148.3346252441406 71.51472473144531 148.3343658447266 C 71.509765625 148.3341979980469 71.51007843017578 148.3342132568359 71.50511932373047 148.3340301513672 C 71.49655151367188 148.3337249755859 71.48499298095703 148.3333129882812 71.47643280029297 148.3330078125 C 71.47395324707031 148.3329162597656 71.47525024414062 148.3329620361328 71.47277069091797 148.3328704833984 C 71.46135711669922 148.3324584960938 71.45159912109375 148.3321075439453 71.440185546875 148.3316955566406 C 71.43770599365234 148.3316040039062 71.43449401855469 148.3314819335938 71.43201446533203 148.3313903808594 C 71.42488098144531 148.3311309814453 71.41481781005859 148.3307647705078 71.40768432617188 148.3305053710938 C 71.40520477294922 148.3304138183594 71.40024566650391 148.3302307128906 71.39776611328125 148.3301391601562 C 71.39063262939453 148.3298645019531 71.38180541992188 148.3295440673828 71.37467193603516 148.3292694091797 C 71.3721923828125 148.3291778564453 71.36714172363281 148.3289947509766 71.36466217041016 148.3289031982422 C 71.35610961914062 148.3285827636719 71.34958648681641 148.3283386230469 71.34102630615234 148.3280029296875 C 71.33855438232422 148.3279113769531 71.33486175537109 148.3277740478516 71.33238983154297 148.3276824951172 C 71.32382965087891 148.3273620605469 71.31612396240234 148.3270721435547 71.30757141113281 148.3267364501953 C 71.30509185791016 148.3266448974609 71.30170440673828 148.3265228271484 71.29922485351562 148.326416015625 C 71.29066467285156 148.3260955810547 71.28010559082031 148.32568359375 71.27154541015625 148.3253479003906 C 71.26906585693359 148.3252563476562 71.26937103271484 148.3252716064453 71.26689147949219 148.3251800537109 C 71.24407958984375 148.3242950439453 71.22312164306641 148.3234710693359 71.20030975341797 148.3225708007812 C 71.20030975341797 148.3225708007812 71.19476318359375 148.3223419189453 71.19476318359375 148.3223419189453 C 71.18621063232422 148.3220062255859 71.177490234375 148.3216552734375 71.16893768310547 148.3213195800781 C 71.16645812988281 148.3212127685547 71.16033172607422 148.3209686279297 71.15785217285156 148.3208618164062 C 71.15072631835938 148.3205871582031 71.14276123046875 148.3202667236328 71.13563537597656 148.3199768066406 C 71.13068389892578 148.3197784423828 71.13063049316406 148.3197631835938 71.12567901611328 148.3195648193359 C 71.11712646484375 148.3192138671875 71.11067962646484 148.3189544677734 71.10212707519531 148.318603515625 C 71.09964752197266 148.3185119628906 71.09552001953125 148.3183441162109 71.09304046630859 148.3182373046875 C 71.08448791503906 148.3178863525391 71.07691955566406 148.3175659179688 71.06836700439453 148.3172149658203 C 71.06589508056641 148.3171081542969 71.06267547607422 148.3169860839844 71.06019592285156 148.3168792724609 C 71.05164337158203 148.3165283203125 71.04123687744141 148.3160858154297 71.03268432617188 148.3157348632812 C 71.03021240234375 148.3156280517578 71.03000640869141 148.3156127929688 71.02752685546875 148.3155212402344 C 71.01612854003906 148.3150329589844 71.00599670410156 148.3146057128906 70.99460601806641 148.3141326904297 C 70.99212646484375 148.3140258789062 70.99319458007812 148.3140716552734 70.99071502685547 148.31396484375 C 70.98217010498047 148.3135986328125 70.97061157226562 148.3131103515625 70.96206665039062 148.312744140625 C 70.9595947265625 148.3126373291016 70.95601654052734 148.3124847412109 70.95353698730469 148.3123779296875 C 70.94499206542969 148.31201171875 70.93833923339844 148.3117218017578 70.92979431152344 148.3113555908203 C 70.92731475830078 148.3112487792969 70.92125701904297 148.3109893798828 70.91878509521484 148.3108673095703 C 70.9130859375 148.3106231689453 70.90402984619141 148.3102264404297 70.89833068847656 148.3099822998047 C 70.89338684082031 148.3097686767578 70.88998413085938 148.3096160888672 70.88504028320312 148.3094024658203 C 70.87934112548828 148.3091583251953 70.87078094482422 148.3087768554688 70.86508178710938 148.3085174560547 C 70.86260986328125 148.3084106445312 70.85594940185547 148.3081207275391 70.85347747802734 148.3080139160156 C 70.84635925292969 148.3076934814453 70.83713531494141 148.3072814941406 70.83001708984375 148.3069763183594 C 70.8250732421875 148.3067474365234 70.82618713378906 148.3067932128906 70.82124328613281 148.3065795898438 C 70.79845428466797 148.3055572509766 70.77938079833984 148.3047027587891 70.75660705566406 148.3036651611328 C 70.75165557861328 148.3034362792969 70.75202941894531 148.3034515380859 70.74708557128906 148.30322265625 C 70.73996734619141 148.3029022216797 70.73094940185547 148.302490234375 70.72383117675781 148.3021545410156 C 70.72135925292969 148.3020477294922 70.71576690673828 148.3017883300781 70.71329498291016 148.3016815185547 C 70.70618438720703 148.3013458251953 70.69908905029297 148.301025390625 70.69197845458984 148.3006896972656 C 70.68702697753906 148.3004608154297 70.68440246582031 148.3003387451172 70.67945861816406 148.3001098632812 C 70.67376708984375 148.2998352050781 70.66485595703125 148.2994232177734 70.65916442871094 148.2991638183594 C 70.65422058105469 148.2989196777344 70.65213012695312 148.298828125 70.64718627929688 148.2985992431641 C 70.64007568359375 148.2982635498047 70.63339233398438 148.2979431152344 70.62627410888672 148.297607421875 C 70.62380218505859 148.2974853515625 70.61734008789062 148.2971801757812 70.6148681640625 148.2970733642578 C 70.60633087158203 148.2966613769531 70.59783935546875 148.2962646484375 70.58930206298828 148.2958526611328 C 70.58683013916016 148.2957305908203 70.58551025390625 148.2956695556641 70.58303833007812 148.2955474853516 C 70.5716552734375 148.2950134277344 70.56131744384766 148.2945098876953 70.54993438720703 148.2939605712891 C 70.54993438720703 148.2939605712891 70.54972076416016 148.2939453125 70.54972076416016 148.2939453125 C 70.53834533691406 148.2933959960938 70.52916717529297 148.2929534912109 70.51779174804688 148.2924041748047 C 70.51284790039062 148.2921600341797 70.51413726806641 148.2922210693359 70.50919342041016 148.2919769287109 C 70.50208282470703 148.2916259765625 70.49231719970703 148.2911529541016 70.48520660400391 148.2908020019531 C 70.48273468017578 148.2906799316406 70.47780609130859 148.2904357910156 70.47533416748047 148.2903137207031 C 70.46680450439453 148.2899017333984 70.46079254150391 148.2895965576172 70.45225524902344 148.2891693115234 C 70.44731903076172 148.2889251708984 70.44746398925781 148.2889404296875 70.44252014160156 148.2886962890625 C 70.43399047851562 148.2882690429688 70.42825317382812 148.2879791259766 70.41972351074219 148.2875518798828 C 70.41725158691406 148.2874298095703 70.41191864013672 148.2871551513672 70.40944671630859 148.2870330810547 C 70.40091705322266 148.2866058349609 70.39264678955078 148.2861938476562 70.38411712646484 148.2857666015625 C 70.38411712646484 148.2857666015625 70.37777709960938 148.2854461669922 70.37777709960938 148.2854461669922 C 70.36640167236328 148.2848663330078 70.35820007324219 148.2844543457031 70.34683227539062 148.2838745117188 C 70.34683227539062 148.2838745117188 70.34487915039062 148.2837677001953 70.34487915039062 148.2837677001953 C 70.33351135253906 148.2831878662109 70.32276153564453 148.2826385498047 70.31138610839844 148.2820587158203 C 70.30892181396484 148.2819213867188 70.31124877929688 148.2820434570312 70.30877685546875 148.2819213867188 C 70.30025482177734 148.2814788818359 70.28800201416016 148.2808380126953 70.27947235107422 148.2803955078125 C 70.27700042724609 148.2802734375 70.27294158935547 148.2800598144531 70.27047729492188 148.2799377441406 C 70.26337432861328 148.2795562744141 70.25384521484375 148.2790679931641 70.24674224853516 148.2786865234375 C 70.24427032470703 148.278564453125 70.23945617675781 148.2783050537109 70.23698425292969 148.2781829833984 C 70.22845458984375 148.2777404785156 70.22289276123047 148.2774353027344 70.21436309814453 148.2769927978516 C 70.20942687988281 148.2767333984375 70.20890045166016 148.2767028808594 70.20396423339844 148.2764434814453 C 70.19544219970703 148.2759857177734 70.18922424316406 148.2756652832031 70.18070220947266 148.2752075195312 C 70.17823791503906 148.2750701904297 70.17401123046875 148.2748413085938 70.17153930664062 148.2747192382812 C 70.16301727294922 148.2742614746094 70.15425109863281 148.2737884521484 70.14572906494141 148.2733306884766 C 70.14326477050781 148.273193359375 70.14173889160156 148.2731170654297 70.13927459716797 148.2729797363281 C 70.11654663085938 148.2717590332031 70.09678649902344 148.2706909179688 70.07405853271484 148.2694549560547 C 70.06912994384766 148.2691802978516 70.07057189941406 148.2692565917969 70.06564331054688 148.2689819335938 C 70.05854034423828 148.2686004638672 70.04838562011719 148.2680358886719 70.04128265380859 148.2676544189453 C 70.038818359375 148.2675170898438 70.0347900390625 148.2672882080078 70.03232574462891 148.2671508789062 C 70.0238037109375 148.2666778564453 70.01715087890625 148.2663116455078 70.00862884521484 148.2658386230469 C 70.00369262695312 148.2655639648438 70.00376892089844 148.2655639648438 69.99883270263672 148.2652893066406 C 69.99031829833984 148.2648162841797 69.98429107666016 148.2644805908203 69.97577667236328 148.2640075683594 C 69.97330474853516 148.2638702392578 69.96861267089844 148.2636108398438 69.96614837646484 148.2634735107422 C 69.95904541015625 148.2630767822266 69.95008850097656 148.2625579833984 69.9429931640625 148.2621612548828 C 69.94052886962891 148.2620239257812 69.93571472167969 148.2617492675781 69.93325042724609 148.2616119384766 C 69.92331695556641 148.2610473632812 69.91379547119141 148.2605133056641 69.90386199951172 148.2599487304688 C 69.90139007568359 148.2598114013672 69.90414428710938 148.2599639892578 69.90167999267578 148.2598266601562 C 69.89032745361328 148.2591705322266 69.87983703613281 148.2585754394531 69.86848449707031 148.2579193115234 C 69.86602020263672 148.2577819824219 69.86586761474609 148.2577667236328 69.8634033203125 148.2576293945312 C 69.85488891601562 148.2571411132812 69.844970703125 148.2565612792969 69.83646392822266 148.2560729980469 C 69.83152770996094 148.2557830810547 69.83055114746094 148.2557373046875 69.82561492919922 148.2554473876953 C 69.81852722167969 148.2550354003906 69.81178283691406 148.254638671875 69.8046875 148.2542266845703 C 69.80222320556641 148.2540893554688 69.79478454589844 148.2536468505859 69.79232025146484 148.2535095214844 C 69.78522491455078 148.2530975341797 69.77818298339844 148.252685546875 69.77108764648438 148.2522583007812 C 69.76615905761719 148.2519683837891 69.76561737060547 148.2519378662109 69.76068878173828 148.2516479492188 C 69.75360107421875 148.2512359619141 69.74558258056641 148.2507629394531 69.73849487304688 148.2503356933594 C 69.73603057861328 148.2501983642578 69.73029327392578 148.2498626708984 69.72782897949219 148.2497100830078 C 69.71932220458984 148.2492065429688 69.71212005615234 148.248779296875 69.70361328125 148.2482604980469 C 69.70114898681641 148.2481231689453 69.69844818115234 148.2479553222656 69.69598388671875 148.2478179931641 C 69.67329406738281 148.2464599609375 69.6531982421875 148.2452545166016 69.63051605224609 148.2438659667969 C 69.6280517578125 148.2437286376953 69.62740325927734 148.2436828613281 69.62493896484375 148.2435302734375 C 69.61643218994141 148.2430114746094 69.60697174072266 148.2424468994141 69.59846496582031 148.2419281005859 C 69.59600067138672 148.2417755126953 69.59139251708984 148.2414855957031 69.58892822265625 148.2413330078125 C 69.58184051513672 148.2409057617188 69.57279205322266 148.2403564453125 69.56570434570312 148.2399139404297 C 69.56324005126953 148.2397613525391 69.55860137939453 148.2394714355469 69.55614471435547 148.2393188476562 C 69.54763793945312 148.2388000488281 69.54193115234375 148.2384490966797 69.53342437744141 148.2379150390625 C 69.52850341796875 148.2376098632812 69.52758026123047 148.2375640869141 69.52265930175781 148.2372589111328 C 69.51415252685547 148.2367248535156 69.50827026367188 148.2363586425781 69.49977111816406 148.2358245849609 C 69.49730682373047 148.2356719970703 69.49333190917969 148.2354278564453 69.49086761474609 148.2352752685547 C 69.48236846923828 148.2347412109375 69.47059631347656 148.2340087890625 69.46209716796875 148.2334747314453 C 69.45963287353516 148.2333068847656 69.46142578125 148.2334289550781 69.45896911621094 148.2332763671875 C 69.43629455566406 148.2318420410156 69.41551971435547 148.2305297851562 69.39285278320312 148.2290802001953 C 69.39285278320312 148.2290802001953 69.38677215576172 148.2286987304688 69.38677215576172 148.2286987304688 C 69.37827301025391 148.2281494140625 69.36864471435547 148.2275390625 69.36013793945312 148.2269897460938 C 69.35768127441406 148.2268218994141 69.35478210449219 148.2266387939453 69.35232543945312 148.2264862060547 C 69.34382629394531 148.2259368896484 69.33633422851562 148.2254486083984 69.32783508300781 148.2248992919922 C 69.32291412353516 148.2245788574219 69.32389831542969 148.2246398925781 69.31897735595703 148.2243347167969 C 69.31047821044922 148.2237701416016 69.30333709716797 148.2233123779297 69.29483795166016 148.2227630615234 C 69.29238128662109 148.2225952148438 69.28824615478516 148.2223358154297 69.28578948974609 148.22216796875 C 69.27870178222656 148.2217102050781 69.26987457275391 148.2211303710938 69.26279449462891 148.2206573486328 C 69.26033020019531 148.2205047607422 69.25537872314453 148.2201843261719 69.25291442871094 148.2200164794922 C 69.24300384521484 148.2193603515625 69.23162078857422 148.2186126708984 69.22171020507812 148.2179565429688 C 69.22171020507812 148.2179565429688 69.22149658203125 148.2179412841797 69.22149658203125 148.2179412841797 C 69.19883728027344 148.2164459228516 69.1781005859375 148.2150726318359 69.15544891357422 148.2135467529297 C 69.15299224853516 148.21337890625 69.15088653564453 148.2132415771484 69.14842987060547 148.2130737304688 C 69.13993835449219 148.2125091552734 69.13185119628906 148.2119598388672 69.12335968017578 148.2113952636719 C 69.12090301513672 148.2112274169922 69.11640930175781 148.2109222412109 69.11395263671875 148.2107543945312 C 69.10546112060547 148.2101745605469 69.09882354736328 148.2097320556641 69.09033203125 148.2091522216797 C 69.08787536621094 148.208984375 69.08406829833984 148.2087249755859 69.08160400390625 148.2085571289062 C 69.07311248779297 148.2079772949219 69.06547546386719 148.2074584960938 69.05698394775391 148.2068786621094 C 69.05452728271484 148.2067108154297 69.05134582519531 148.2064971923828 69.04888916015625 148.2063293457031 C 69.04039764404297 148.2057495117188 69.03061676025391 148.205078125 69.02213287353516 148.2044982910156 C 69.01966857910156 148.2043304443359 69.01898956298828 148.2042846679688 69.01653289794922 148.2041015625 C 68.993896484375 148.2025451660156 68.97265625 148.2010803222656 68.95002746582031 148.1994934082031 C 68.95002746582031 148.1994934082031 68.94871520996094 148.1994018554688 68.94871520996094 148.1994018554688 C 68.93881225585938 148.1987152099609 68.92855072021484 148.197998046875 68.91864776611328 148.1972961425781 C 68.91619110107422 148.1971282958984 68.91254425048828 148.1968688964844 68.91008758544922 148.1967010498047 C 68.90159606933594 148.1961059570312 68.89462280273438 148.1956024169922 68.88613128662109 148.1950073242188 C 68.88121795654297 148.1946563720703 68.88140106201172 148.1946716308594 68.87648773193359 148.1943206787109 C 68.86800384521484 148.1937255859375 68.86253356933594 148.1933441162109 68.85404968261719 148.1927337646484 C 68.85159301757812 148.1925659179688 68.84624481201172 148.1921844482422 68.84378814697266 148.1920013427734 C 68.83530426025391 148.19140625 68.82809448242188 148.1908874511719 68.81961059570312 148.1902770996094 C 68.81715393066406 148.1901092529297 68.81430816650391 148.1898956298828 68.81185150146484 148.1897277832031 C 68.80337524414062 148.1891174316406 68.79085540771484 148.1882171630859 68.78237152099609 148.1876068115234 C 68.77991485595703 148.1874237060547 68.78216552734375 148.1875915527344 68.77970886230469 148.1874084472656 C 68.75709533691406 148.185791015625 68.7369384765625 148.184326171875 68.71432495117188 148.1826782226562 C 68.71187591552734 148.1824951171875 68.70789337158203 148.1822052001953 68.70543670654297 148.1820220947266 C 68.69837188720703 148.1815032958984 68.68927001953125 148.1808471679688 68.68220520019531 148.1803283691406 C 68.67974853515625 148.1801452636719 68.67470550537109 148.1797790527344 68.67224884033203 148.1795959472656 C 68.66377258300781 148.1789703369141 68.65771484375 148.1785278320312 68.64923858642578 148.1779022216797 C 68.64432525634766 148.1775360107422 68.64466857910156 148.1775512695312 68.63975524902344 148.1772003173828 C 68.63127899169922 148.1765747070312 68.62387084960938 148.176025390625 68.61539459228516 148.1753845214844 C 68.61293792724609 148.1752014160156 68.61032867431641 148.1750183105469 68.60787200927734 148.1748352050781 C 68.59939575195312 148.1741943359375 68.58921051025391 148.1734466552734 68.58073425292969 148.1728057861328 C 68.58073425292969 148.1728057861328 68.57534790039062 148.1724090576172 68.57534790039062 148.1724090576172 C 68.55274963378906 148.1707153320312 68.53156280517578 148.1691131591797 68.50897216796875 148.1674041748047 C 68.50651550292969 148.1672210693359 68.51070404052734 148.1675415039062 68.50824737548828 148.1673583984375 C 68.49695587158203 148.1664886474609 68.48741149902344 148.165771484375 68.47611236572266 148.1649169921875 C 68.47611236572266 148.1649169921875 68.47181701660156 148.1645812988281 68.47181701660156 148.1645812988281 C 68.46334075927734 148.1639404296875 68.45321655273438 148.1631622314453 68.44474792480469 148.1625213623047 C 68.44229125976562 148.1623229980469 68.43845367431641 148.1620330810547 68.43600463867188 148.1618499755859 C 68.42752838134766 148.1611938476562 68.42015838623047 148.1606292724609 68.41168975830078 148.1599731445312 C 68.40923309326172 148.1597900390625 68.40601348876953 148.1595306396484 68.403564453125 148.1593475341797 C 68.39509582519531 148.15869140625 68.38653564453125 148.1580352783203 68.37806701660156 148.1573791503906 C 68.3756103515625 148.1571807861328 68.37363433837891 148.1570281982422 68.37118530273438 148.1568450927734 C 68.36130523681641 148.1560821533203 68.35140991210938 148.1553039550781 68.34152984619141 148.154541015625 C 68.33907318115234 148.1543426513672 68.34137725830078 148.1545257568359 68.33892822265625 148.1543273925781 C 68.31634521484375 148.1525726318359 68.29498291015625 148.1508941650391 68.27240753173828 148.1491088867188 C 68.27240753173828 148.1491088867188 68.26920318603516 148.1488647460938 68.26920318603516 148.1488647460938 C 68.26073455810547 148.148193359375 68.24850463867188 148.147216796875 68.24003601074219 148.1465454101562 C 68.23758697509766 148.1463623046875 68.23583984375 148.1462097167969 68.23339080810547 148.1460266113281 C 68.22492218017578 148.1453552246094 68.21616363525391 148.1446533203125 68.20770263671875 148.1439819335938 C 68.20525360107422 148.1437835693359 68.20228576660156 148.1435394287109 68.19983673095703 148.1433410644531 C 68.19137573242188 148.1426696777344 68.18415069580078 148.14208984375 68.17568969726562 148.1414184570312 C 68.17324066162109 148.1412200927734 68.16879272460938 148.140869140625 68.16634368896484 148.1406707763672 C 68.15788269042969 148.1399841308594 68.14818572998047 148.1392059326172 68.13971710205078 148.1385192871094 C 68.13971710205078 148.1385192871094 68.13518524169922 148.1381530761719 68.13518524169922 148.1381530761719 C 68.10134124755859 148.1354217529297 68.06965637207031 148.1328430175781 68.03582000732422 148.1300659179688 C 68.03582000732422 148.1300659179688 68.03196716308594 148.1297454833984 68.03196716308594 148.1297454833984 C 68.0220947265625 148.1289367675781 68.01276397705078 148.1281585693359 68.00289916992188 148.1273498535156 C 68.00045013427734 148.1271514892578 68.00016021728516 148.1271209716797 67.99771118164062 148.1269226074219 C 67.9892578125 148.126220703125 67.97943115234375 148.1254119873047 67.97097778320312 148.1247100830078 C 67.96852874755859 148.1244964599609 67.96595001220703 148.1242828369141 67.9635009765625 148.1240844726562 C 67.95504760742188 148.1233825683594 67.94601440429688 148.1226348876953 67.93756103515625 148.1219177246094 C 67.93511199951172 148.1217193603516 67.93344879150391 148.12158203125 67.93099975585938 148.1213836669922 C 67.92253875732422 148.1206665039062 67.91176605224609 148.1197662353516 67.90331268310547 148.1190643310547 C 67.90331268310547 148.1190643310547 67.89839935302734 148.11865234375 67.89839935302734 148.11865234375 C 67.8758544921875 148.1167602539062 67.85494232177734 148.114990234375 67.83240509033203 148.1130828857422 C 67.8299560546875 148.1128692626953 67.83174133300781 148.1130218505859 67.82929992675781 148.1128082275391 C 67.81943511962891 148.1119689941406 67.80988311767578 148.1111602783203 67.80002593994141 148.1103210449219 C 67.79757690429688 148.110107421875 67.79642486572266 148.1100158691406 67.79398345947266 148.1098022460938 C 67.78553009033203 148.1090850830078 67.77603912353516 148.1082763671875 67.76759338378906 148.1075439453125 C 67.76514434814453 148.1073303222656 67.76221466064453 148.1070861816406 67.75977325439453 148.1068725585938 C 67.75131988525391 148.1061553955078 67.74338531494141 148.10546875 67.73493957519531 148.104736328125 C 67.73249053955078 148.1045227050781 67.72962951660156 148.1042785644531 67.72718811035156 148.1040649414062 C 67.71873474121094 148.1033325195312 67.70977783203125 148.1025695800781 67.70133209228516 148.1018371582031 C 67.69888305664062 148.1016235351562 67.69709014892578 148.1014709472656 67.69464111328125 148.1012573242188 C 67.66085052490234 148.0983276367188 67.63008117675781 148.0956268310547 67.59630584716797 148.0926513671875 C 67.59630584716797 148.0926513671875 67.59201049804688 148.09228515625 67.59201049804688 148.09228515625 C 67.58356475830078 148.0915374755859 67.57252502441406 148.0905609130859 67.56407928466797 148.0898132324219 C 67.56163787841797 148.089599609375 67.55990600585938 148.0894470214844 67.55746459960938 148.0892333984375 C 67.54901885986328 148.0884704589844 67.53897857666016 148.0875854492188 67.53054046630859 148.0868377685547 C 67.53054046630859 148.0868377685547 67.52467346191406 148.0863189697266 67.52467346191406 148.0863189697266 C 67.51622772216797 148.0855560302734 67.50704193115234 148.0847473144531 67.49860382080078 148.083984375 C 67.49615478515625 148.0837707519531 67.49372100830078 148.0835571289062 67.49127960205078 148.0833282470703 C 67.48283386230469 148.0825805664062 67.47103118896484 148.0815124511719 67.46259307861328 148.0807647705078 C 67.46259307861328 148.0807647705078 67.45946502685547 148.0804748535156 67.45946502685547 148.0804748535156 C 67.42570495605469 148.0774383544922 67.39424896240234 148.0745849609375 67.36050415039062 148.0715179443359 C 67.35805511474609 148.0712890625 67.35771179199219 148.0712585449219 67.35527038574219 148.0710296630859 C 67.34542846679688 148.0701293945312 67.33708190917969 148.0693664550781 67.32723999023438 148.0684661865234 C 67.32479858398438 148.0682373046875 67.32496643066406 148.0682525634766 67.32252502441406 148.0680389404297 C 67.3140869140625 148.0672607421875 67.30297088623047 148.0662384033203 67.29453277587891 148.0654602050781 C 67.29209136962891 148.0652313232422 67.29115295410156 148.0651550292969 67.28871154785156 148.0649261474609 C 67.28028106689453 148.0641479492188 67.26962280273438 148.0631561279297 67.26119232177734 148.0623779296875 C 67.25875091552734 148.0621490478516 67.25855255126953 148.0621337890625 67.25611114501953 148.0619049072266 C 67.24486541748047 148.0608673095703 67.23665618896484 148.0601043701172 67.22541046142578 148.0590515136719 C 67.22541046142578 148.0590515136719 67.22367095947266 148.0588989257812 67.22367095947266 148.0588989257812 C 67.20118713378906 148.0567932128906 67.17943572998047 148.0547637939453 67.15695190429688 148.0526428222656 C 67.15695190429688 148.0526428222656 67.15509796142578 148.0524749755859 67.15509796142578 148.0524749755859 C 67.14385986328125 148.0514221191406 67.13571166992188 148.0506439208984 67.12447357177734 148.0495910644531 C 67.12203216552734 148.0493621826172 67.12191009521484 148.0493469238281 67.11946868896484 148.0491180419922 C 67.11103820800781 148.0483245849609 67.10093688964844 148.04736328125 67.09250640869141 148.0465545654297 C 67.09007263183594 148.0463256835938 67.08794403076172 148.0461273193359 67.08550262451172 148.0458984375 C 67.07707214355469 148.0450897216797 67.06667327880859 148.0440979003906 67.05825042724609 148.0433044433594 C 67.05580902099609 148.0430755615234 67.05589294433594 148.0430755615234 67.05345153808594 148.0428466796875 C 67.04361724853516 148.0419006347656 67.03460693359375 148.0410461425781 67.0247802734375 148.0401000976562 C 67.0247802734375 148.0401000976562 67.02053833007812 148.0396881103516 67.02053833007812 148.0396881103516 C 66.98683929443359 148.0364685058594 66.95493316650391 148.0333862304688 66.92124938964844 148.0301055908203 C 66.92124938964844 148.0301055908203 66.91873168945312 148.0298614501953 66.91873168945312 148.0298614501953 C 66.90890502929688 148.0289001464844 66.89940643310547 148.0279846191406 66.88957977294922 148.0270233154297 C 66.88713836669922 148.0267791748047 66.88512420654297 148.0265808105469 66.88268280029297 148.0263519287109 C 66.87425994873047 148.0255279541016 66.86480712890625 148.0245971679688 66.85638427734375 148.0237731933594 C 66.85638427734375 148.0237731933594 66.85054779052734 148.023193359375 66.85054779052734 148.023193359375 C 66.84213256835938 148.0223693847656 66.83139801025391 148.0213165283203 66.82297515869141 148.0204772949219 C 66.82054138183594 148.0202484130859 66.82006072998047 148.0202026367188 66.81761932373047 148.0199584960938 C 66.806396484375 148.0188446044922 66.79784393310547 148.0180053710938 66.78661346435547 148.0168914794922 C 66.78661346435547 148.0168914794922 66.78570556640625 148.0167999267578 66.78570556640625 148.0167999267578 C 66.75202941894531 148.0134582519531 66.71953582763672 148.0102233886719 66.68587493896484 148.0068359375 C 66.68587493896484 148.0068359375 66.68279266357422 148.0065307617188 66.68279266357422 148.0065307617188 C 66.67298126220703 148.0055389404297 66.66259002685547 148.0045013427734 66.65277099609375 148.0035095214844 C 66.65277099609375 148.0035095214844 66.64922332763672 148.0031433105469 66.64922332763672 148.0031433105469 C 66.63941192626953 148.0021514892578 66.62979125976562 148.0011901855469 66.61997222900391 148.0001831054688 C 66.61753845214844 147.9999389648438 66.61830902099609 148.0000152587891 66.61587524414062 147.9997711181641 C 66.60466003417969 147.9986419677734 66.59650421142578 147.997802734375 66.58528900146484 147.9966583251953 C 66.58528900146484 147.9966583251953 66.58332061767578 147.9964599609375 66.58332061767578 147.9964599609375 C 66.54967498779297 147.9930419921875 66.51692962646484 147.9896850585938 66.48329925537109 147.9862060546875 C 66.48329925537109 147.9862060546875 66.4820556640625 147.986083984375 66.4820556640625 147.986083984375 C 66.47084808349609 147.9849243164062 66.46230316162109 147.9840393066406 66.45109558105469 147.9828796386719 C 66.44866180419922 147.9826202392578 66.44883728027344 147.9826354980469 66.44640350341797 147.9823913574219 C 66.43799591064453 147.9815216064453 66.42709350585938 147.9803924560547 66.41868591308594 147.9795074462891 C 66.41868591308594 147.9795074462891 66.41277313232422 147.9788970947266 66.41277313232422 147.9788970947266 C 66.40296936035156 147.9778747558594 66.39376831054688 147.9769134521484 66.38396453857422 147.9758911132812 C 66.38153076171875 147.9756317138672 66.38355255126953 147.9758453369141 66.38111877441406 147.9755859375 C 66.36991119384766 147.9744110107422 66.36071014404297 147.9734497070312 66.34951019287109 147.9722747802734 C 66.34951019287109 147.9722747802734 66.34818267822266 147.9721374511719 66.34818267822266 147.9721374511719 C 66.31456756591797 147.9686126708984 66.28184509277344 147.9651489257812 66.24823760986328 147.9615631103516 C 66.24823760986328 147.9615631103516 66.24625396728516 147.9613494873047 66.24625396728516 147.9613494873047 C 66.2364501953125 147.9603118896484 66.22640228271484 147.9592437744141 66.21659851074219 147.9581909179688 C 66.21416473388672 147.9579315185547 66.21311187744141 147.9578247070312 66.21067810058594 147.9575653076172 C 66.20227813720703 147.9566650390625 66.19145965576172 147.9555053710938 66.18305969238281 147.9546051025391 C 66.18305969238281 147.9546051025391 66.17832946777344 147.9541015625 66.17832946777344 147.9541015625 C 66.16992950439453 147.9531860351562 66.15753173828125 147.9518585205078 66.14913940429688 147.9509582519531 C 66.14670562744141 147.9506988525391 66.14833831787109 147.9508666992188 66.14590454101562 147.9506072998047 C 66.11231994628906 147.9469909667969 66.07978057861328 147.9434509277344 66.04620361328125 147.9397888183594 C 66.04620361328125 147.9397888183594 66.04612731933594 147.9397735595703 66.04612731933594 147.9397735595703 C 66.03493499755859 147.9385528564453 66.02565002441406 147.9375457763672 66.01445770263672 147.9363098144531 C 66.01203155517578 147.9360504150391 66.01116180419922 147.9359588623047 66.00873565673828 147.9356842041016 C 66.00034332275391 147.9347686767578 65.9901123046875 147.9336395263672 65.98171997070312 147.9327239990234 C 65.97929382324219 147.9324493408203 65.97848510742188 147.9323577880859 65.97605895996094 147.9320983886719 C 65.96766662597656 147.9311676025391 65.95677185058594 147.9299621582031 65.94838714599609 147.9290466308594 C 65.94595336914062 147.9287719726562 65.94590759277344 147.9287719726562 65.9434814453125 147.9284973144531 C 65.93229675292969 147.9272613525391 65.92338562011719 147.92626953125 65.91220092773438 147.9250335693359 C 65.91220092773438 147.9250335693359 65.91182708740234 147.9249877929688 65.91182708740234 147.9249877929688 C 65.87827301025391 147.9212646484375 65.84528350830078 147.9175720214844 65.81173706054688 147.9138031005859 C 65.81173706054688 147.9138031005859 65.80999755859375 147.9136199951172 65.80999755859375 147.9136199951172 C 65.79882049560547 147.912353515625 65.78993225097656 147.9113616943359 65.77874755859375 147.9100952148438 C 65.77632141113281 147.9098205566406 65.77838897705078 147.9100494384766 65.77596282958984 147.9097747802734 C 65.76618194580078 147.9086761474609 65.75704956054688 147.9076385498047 65.74726867675781 147.9065399169922 C 65.74726867675781 147.9065399169922 65.74131011962891 147.9058532714844 65.74131011962891 147.9058532714844 C 65.73292541503906 147.9049072265625 65.72138214111328 147.9035949707031 65.71299743652344 147.9026489257812 C 65.7105712890625 147.9023590087891 65.7117919921875 147.9025115966797 65.70936584472656 147.9022369384766 C 65.66465759277344 147.8971405029297 65.62226104736328 147.8922729492188 65.57758331298828 147.8871154785156 C 65.57758331298828 147.8871154785156 65.57440185546875 147.8867492675781 65.57440185546875 147.8867492675781 C 65.56602478027344 147.8857727050781 65.55394744873047 147.8843688964844 65.54557037353516 147.8834075927734 C 65.54314422607422 147.8831176757812 65.54203033447266 147.8829956054688 65.53960418701172 147.8827056884766 C 65.53122711181641 147.8817443847656 65.52117919921875 147.8805694580078 65.51280212402344 147.8795928955078 C 65.5103759765625 147.8793182373047 65.50946044921875 147.8792114257812 65.50704193115234 147.8789215087891 C 65.49866485595703 147.8779449462891 65.48926544189453 147.8768463134766 65.48088836669922 147.8758697509766 C 65.47846984863281 147.8755798339844 65.47620391845703 147.8753204345703 65.47377777099609 147.8750305175781 C 65.44167327880859 147.8712768554688 65.40802001953125 147.8673248291016 65.37593078613281 147.863525390625 C 65.37593078613281 147.863525390625 65.37438201904297 147.8633422851562 65.37438201904297 147.8633422851562 C 65.36461639404297 147.8621826171875 65.35398864746094 147.8609161376953 65.34422302246094 147.8597564697266 C 65.341796875 147.8594665527344 65.34092712402344 147.8593597412109 65.33850860595703 147.8590850830078 C 65.33013916015625 147.8580780029297 65.31954956054688 147.8568267822266 65.31118011474609 147.8558197021484 C 65.31118011474609 147.8558197021484 65.30586242675781 147.8551940917969 65.30586242675781 147.8551940917969 C 65.29749298095703 147.8541870117188 65.28665924072266 147.8528900146484 65.27828979492188 147.8518981933594 C 65.27587127685547 147.8516082763672 65.27564239501953 147.8515777587891 65.27322387695312 147.8512878417969 C 65.26345825195312 147.8501129150391 65.25373077392578 147.8489532470703 65.24397277832031 147.8477783203125 C 65.24397277832031 147.8477783203125 65.24089050292969 147.847412109375 65.24089050292969 147.847412109375 C 65.20742797851562 147.8433837890625 65.17530822753906 147.8395080566406 65.14185333251953 147.8354339599609 C 65.14185333251953 147.8354339599609 65.13983917236328 147.8351898193359 65.13983917236328 147.8351898193359 C 65.13008880615234 147.8339996337891 65.11978912353516 147.8327484130859 65.11003112792969 147.8315582275391 C 65.10761260986328 147.8312530517578 65.10712432861328 147.8312072753906 65.10469818115234 147.8309020996094 C 65.09633636474609 147.8298797607422 65.08626556396484 147.8286590576172 65.07790374755859 147.8276214599609 C 65.07548522949219 147.8273315429688 65.07361602783203 147.8271026611328 65.07118988037109 147.8267974853516 C 65.06282806396484 147.8257751464844 65.05293273925781 147.8245697021484 65.04457092285156 147.8235321044922 C 65.04215240478516 147.8232421875 65.04167938232422 147.8231811523438 65.03926086425781 147.8228912353516 C 65.02811431884766 147.8215179443359 65.01907348632812 147.8204040527344 65.0079345703125 147.8190307617188 C 65.0079345703125 147.8190307617188 65.00746917724609 147.8189697265625 65.00746917724609 147.8189697265625 C 64.97403717041016 147.8148345947266 64.94178009033203 147.8108367919922 64.90836334228516 147.8066711425781 C 64.90836334228516 147.8066711425781 64.90501403808594 147.8062438964844 64.90501403808594 147.8062438964844 C 64.895263671875 147.8050231933594 64.88546752929688 147.8038024902344 64.87571716308594 147.8025817871094 C 64.87571716308594 147.8025817871094 64.87174224853516 147.8020782470703 64.87174224853516 147.8020782470703 C 64.86199188232422 147.8008575439453 64.85208892822266 147.7996215820312 64.84234619140625 147.7984008789062 C 64.83992767333984 147.798095703125 64.84145355224609 147.7982788085938 64.83903503417969 147.7979736328125 C 64.82790374755859 147.7965698242188 64.81902313232422 147.7954559326172 64.80788421630859 147.7940521240234 C 64.80788421630859 147.7940521240234 64.80671691894531 147.7938995361328 64.80671691894531 147.7938995361328 C 64.76217651367188 147.7882843017578 64.71952056884766 147.7828674316406 64.67500305175781 147.7771606445312 C 64.67258453369141 147.77685546875 64.67317962646484 147.7769317626953 64.67076110839844 147.776611328125 C 64.66241455078125 147.7755432128906 64.65059661865234 147.7740325927734 64.64225006103516 147.7729644775391 C 64.64225006103516 147.7729644775391 64.63803100585938 147.7724151611328 64.63803100585938 147.7724151611328 C 64.6282958984375 147.7711639404297 64.61878204345703 147.7699432373047 64.60904693603516 147.7686920166016 C 64.60663604736328 147.7683715820312 64.607666015625 147.7685089111328 64.60524749755859 147.7682037353516 C 64.56074523925781 147.762451171875 64.51834106445312 147.7569427490234 64.47386169433594 147.7511291503906 C 64.47386169433594 147.7511291503906 64.47162628173828 147.7508392333984 64.47162628173828 147.7508392333984 C 64.46189880371094 147.7495574951172 64.45175170898438 147.7482299804688 64.44202423095703 147.7469635009766 C 64.43961334228516 147.7466430664062 64.43920135498047 147.74658203125 64.43679046630859 147.7462615966797 C 64.42845153808594 147.7451782226562 64.41783142089844 147.7437744140625 64.40949249267578 147.74267578125 C 64.40708160400391 147.7423553466797 64.40664672851562 147.7423095703125 64.40422821044922 147.7419891357422 C 64.39588928222656 147.7408905029297 64.38369750976562 147.7392730712891 64.37535858154297 147.7381744384766 C 64.37535858154297 147.7381744384766 64.37211608886719 147.7377471923828 64.37211608886719 147.7377471923828 C 64.32765197753906 147.7318725585938 64.28549957275391 147.7262573242188 64.24106597900391 147.7203063964844 C 64.23865509033203 147.719970703125 64.23989105224609 147.7201385498047 64.23748016357422 147.7198181152344 C 64.22776031494141 147.7185211181641 64.21817779541016 147.7172241210938 64.20846557617188 147.7159271240234 C 64.20846557617188 147.7159271240234 64.20430755615234 147.7153625488281 64.20430755615234 147.7153625488281 C 64.19459533691406 147.7140502929688 64.184326171875 147.7126770019531 64.17460632324219 147.7113647460938 C 64.17219543457031 147.7110290527344 64.17469787597656 147.7113800048828 64.17228698730469 147.7110443115234 C 64.16117858886719 147.7095489501953 64.15231323242188 147.7083435058594 64.14120483398438 147.7068481445312 C 64.14120483398438 147.7068481445312 64.13930511474609 147.7065887451172 64.13930511474609 147.7065887451172 C 64.09488677978516 147.7005767822266 64.05218505859375 147.6947479248047 64.00779724121094 147.6886596679688 C 64.00538635253906 147.6883239746094 64.00732421875 147.6885986328125 64.00491333007812 147.6882629394531 C 63.99381256103516 147.6867370605469 63.98609924316406 147.6856842041016 63.97500610351562 147.6841430664062 C 63.97500610351562 147.6841430664062 63.9718017578125 147.6837005615234 63.9718017578125 147.6837005615234 C 63.96070098876953 147.6821746826172 63.95185089111328 147.6809539794922 63.94075775146484 147.6794281005859 C 63.94075775146484 147.6794281005859 63.93972015380859 147.6792755126953 63.93972015380859 147.6792755126953 C 63.88424682617188 147.6716156005859 63.82952117919922 147.6639862060547 63.77408599853516 147.6562042236328 C 63.77408599853516 147.6562042236328 63.77322387695312 147.6560821533203 63.77322387695312 147.6560821533203 C 63.76213836669922 147.6545257568359 63.75294494628906 147.6532287597656 63.74185943603516 147.6516571044922 C 63.73944854736328 147.6513214111328 63.74170684814453 147.6516418457031 63.73929595947266 147.6513061523438 C 63.67278289794922 147.6419219970703 63.60854339599609 147.6327819824219 63.54209136962891 147.6232299804688 C 63.54209136962891 147.6232299804688 63.53989410400391 147.6229095458984 63.53989410400391 147.6229095458984 C 63.52881622314453 147.6213226318359 63.51895141601562 147.6199035644531 63.50788116455078 147.6183013916016 C 63.50788116455078 147.6183013916016 63.5076904296875 147.6182708740234 63.5076904296875 147.6182708740234 C 63.45231628417969 147.6102905273438 63.39792633056641 147.6023864746094 63.34259796142578 147.5942687988281 C 63.34019470214844 147.5939178466797 63.34276580810547 147.5942993164062 63.34036254882812 147.5939483642578 C 63.32929992675781 147.5923309326172 63.32061767578125 147.5910491943359 63.30955505371094 147.5894317626953 C 63.30955505371094 147.5894317626953 63.30768585205078 147.5891571044922 63.30768585205078 147.5891571044922 C 63.29661560058594 147.5875244140625 63.28672027587891 147.5860748291016 63.27565765380859 147.5844421386719 C 63.27565765380859 147.5844421386719 63.27513885498047 147.5843658447266 63.27513885498047 147.5843658447266 C 63.20876312255859 147.5745697021484 63.14302825927734 147.5647888183594 63.07670593261719 147.5548248291016 C 63.07670593261719 147.5548248291016 63.07596588134766 147.5547180175781 63.07596588134766 147.5547180175781 C 51.8453369140625 145.8675689697266 41.43916320800781 141.6632080078125 32.44947814941406 135.5342559814453 C 32.44947814941406 135.5342559814453 32.44911193847656 135.5340118408203 32.44911193847656 135.5340118408203 C 32.44026947021484 135.5279693603516 32.43192291259766 135.5222930908203 32.42308044433594 135.5162506103516 C 32.42308044433594 135.5162506103516 32.42250061035156 135.5158538818359 32.42250061035156 135.5158538818359 C 32.41365051269531 135.5098114013672 32.40544128417969 135.5042114257812 32.39659881591797 135.4981689453125 C 32.39659881591797 135.4981689453125 32.39607238769531 135.4978179931641 32.39607238769531 135.4978179931641 C 32.343017578125 135.4615783691406 32.29148864746094 135.4262847900391 32.23853302001953 135.3899078369141 C 32.23853302001953 135.3899078369141 32.23587799072266 135.3880767822266 32.23587799072266 135.3880767822266 C 32.22705078125 135.3820190429688 32.22048187255859 135.3775024414062 32.21165466308594 135.3714447021484 C 32.20973968505859 135.3701171875 32.21223449707031 135.371826171875 32.21031188964844 135.3705139160156 C 32.16619873046875 135.3401794433594 32.12368011474609 135.3108825683594 32.07963562011719 135.2804718017578 C 32.07772064208984 135.2791442871094 32.07897186279297 135.2800140380859 32.07705688476562 135.2786865234375 C 32.06824493408203 135.2725982666016 32.0618896484375 135.2682037353516 32.05307769775391 135.2621154785156 C 32.05307769775391 135.2621154785156 32.05132293701172 135.2609100341797 32.05132293701172 135.2609100341797 C 32.04361724853516 135.2555847167969 32.03520965576172 135.249755859375 32.02750396728516 135.2444305419922 C 32.02750396728516 135.2444305419922 32.02484893798828 135.2425994873047 32.02484893798828 135.2425994873047 C 31.98963165283203 135.2182312011719 31.95585632324219 135.1948089599609 31.92067718505859 135.1703796386719 C 31.92067718505859 135.1703796386719 31.91900634765625 135.1692199707031 31.91900634765625 135.1692199707031 C 31.91021728515625 135.1631164550781 31.90341949462891 135.1583862304688 31.89463043212891 135.1522827148438 C 31.89463043212891 135.1522827148438 31.89278411865234 135.1510009765625 31.89278411865234 135.1510009765625 C 31.88508605957031 135.1456451416016 31.87706756591797 135.1400756835938 31.86937713623047 135.1347198486328 C 31.86746978759766 135.1333923339844 31.86785125732422 135.1336517333984 31.86594390869141 135.13232421875 C 31.85715484619141 135.126220703125 31.85028076171875 135.1214294433594 31.84149169921875 135.1153106689453 C 31.84149169921875 135.1153106689453 31.84085845947266 135.1148681640625 31.84085845947266 135.1148681640625 C 31.81450653076172 135.0965118408203 31.78874969482422 135.0785522460938 31.76242065429688 135.0601654052734 C 31.76242065429688 135.0601654052734 31.76081848144531 135.0590515136719 31.76081848144531 135.0590515136719 C 31.75203704833984 135.0529174804688 31.74587249755859 135.0486145019531 31.73709869384766 135.04248046875 C 31.73519897460938 135.0411529541016 31.73519134521484 135.0411376953125 31.73328399658203 135.0398101806641 C 31.72670745849609 135.0352172851562 31.71868896484375 135.0296020507812 31.71211242675781 135.0250091552734 C 31.710205078125 135.0236663818359 31.70888519287109 135.0227508544922 31.70697784423828 135.0214080810547 C 31.70040130615234 135.0168151855469 31.69155883789062 135.0106201171875 31.68498229980469 135.0060119628906 C 31.68308258056641 135.0046844482422 31.68389129638672 135.0052490234375 31.68199157714844 135.0039215087891 C 31.6732177734375 134.9977722167969 31.66627502441406 134.992919921875 31.65750885009766 134.9867706298828 C 31.65750885009766 134.9867706298828 31.65653991699219 134.986083984375 31.65653991699219 134.986083984375 C 31.6302490234375 134.9676666259766 31.60514831542969 134.9500427246094 31.57888031005859 134.9315795898438 C 31.57888031005859 134.9315795898438 31.57575988769531 134.9293823242188 31.57575988769531 134.9293823242188 C 31.56919097900391 134.9247741699219 31.56051635742188 134.9186706542969 31.55394744873047 134.9140472412109 C 31.55204772949219 134.9127197265625 31.55043792724609 134.9115753173828 31.54853820800781 134.9102478027344 C 31.54196929931641 134.9056243896484 31.53464508056641 134.9004669189453 31.52808380126953 134.8958435058594 C 31.52618408203125 134.8945159912109 31.52541351318359 134.8939666748047 31.52351379394531 134.8926239013672 C 31.51695251464844 134.8880004882812 31.50811004638672 134.8817749023438 31.50154876708984 134.8771514892578 C 31.50154876708984 134.8771514892578 31.49806213378906 134.8746948242188 31.49806213378906 134.8746948242188 C 31.46416473388672 134.8508148193359 31.42991638183594 134.8266296386719 31.39605712890625 134.8026733398438 C 31.3941650390625 134.8013305664062 31.39282989501953 134.8003845214844 31.39093017578125 134.7990417480469 C 31.38437652587891 134.7944183349609 31.37699127197266 134.7891845703125 31.37044525146484 134.7845458984375 C 31.37044525146484 134.7845458984375 31.36547088623047 134.7810363769531 31.36547088623047 134.7810363769531 C 31.35891723632812 134.7763977050781 31.35116577148438 134.7709045410156 31.34461975097656 134.7662506103516 C 31.34272003173828 134.7649078369141 31.34208679199219 134.7644653320312 31.34019470214844 134.7631225585938 C 31.33145904541016 134.7569274902344 31.32553863525391 134.7527313232422 31.31681060791016 134.7465362548828 C 31.31681060791016 134.7465362548828 31.31520080566406 134.7454071044922 31.31520080566406 134.7454071044922 C 31.28901672363281 134.7268371582031 31.26406860351562 134.7091064453125 31.23790740966797 134.6905059814453 C 31.23790740966797 134.6905059814453 31.23465728759766 134.6881866455078 31.23465728759766 134.6881866455078 C 31.22811889648438 134.6835327148438 31.22003936767578 134.6777954101562 31.2135009765625 134.6731414794922 C 31.21160888671875 134.6717834472656 31.20914459228516 134.6700286865234 31.20725250244141 134.6686859130859 C 31.20071411132812 134.6640319824219 31.19551849365234 134.6603240966797 31.18898010253906 134.6556701660156 C 31.18519592285156 134.6529693603516 31.18472290039062 134.6526336669922 31.18093872070312 134.6499328613281 C 31.17549133300781 134.6460571289062 31.16909790039062 134.6415100097656 31.16365051269531 134.6376190185547 C 31.16175842285156 134.6362762451172 31.15825653076172 134.6337738037109 31.15636444091797 134.6324157714844 C 31.14983367919922 134.6277618408203 31.14344024658203 134.6231994628906 31.13690948486328 134.6185302734375 C 31.13501739501953 134.6171875 31.13324737548828 134.6159362792969 31.13136291503906 134.6145782470703 C 31.11393737792969 134.6021423339844 31.09883880615234 134.5913543701172 31.08142852783203 134.5789031982422 C 31.07953643798828 134.5775451660156 31.07807159423828 134.5764923095703 31.07617950439453 134.5751495361328 C 31.06964874267578 134.5704803466797 31.06259155273438 134.5654296875 31.05606079101562 134.5607604980469 C 31.05417633056641 134.5594024658203 31.05189514160156 134.5577697753906 31.05000305175781 134.5564117431641 C 31.04347991943359 134.5517425537109 31.03837585449219 134.548095703125 31.03185272216797 134.5434112548828 C 31.028076171875 134.5407104492188 31.02742767333984 134.5402374267578 31.02365112304688 134.5375366210938 C 31.01821136474609 134.5336456298828 31.01231384277344 134.5294189453125 31.00687408447266 134.5255126953125 C 31.00498962402344 134.5241546630859 31.00026702880859 134.5207824707031 30.99838256835938 134.5194244384766 C 30.99295043945312 134.5155334472656 30.98813629150391 134.5120697021484 30.98270416259766 134.5081787109375 C 30.98081207275391 134.5068206787109 30.97518920898438 134.5027770996094 30.97329711914062 134.5014190673828 C 30.96786499023438 134.4975280761719 30.96059417724609 134.4923095703125 30.95516204833984 134.4884033203125 C 30.95327758789062 134.4870452880859 30.95079803466797 134.4852752685547 30.94891357421875 134.4839172363281 C 30.94022369384766 134.4776763916016 30.93307495117188 134.4725341796875 30.92438507080078 134.4662780761719 C 30.92250061035156 134.4649353027344 30.92128753662109 134.4640502929688 30.91940307617188 134.4626922607422 C 30.91288757324219 134.4580078125 30.906005859375 134.4530639648438 30.89949035644531 134.4483795166016 C 30.89760589599609 134.447021484375 30.89442443847656 134.4447326660156 30.89253997802734 134.4433746337891 C 30.88710784912109 134.4394683837891 30.88050079345703 134.4347076416016 30.87507629394531 134.4308013916016 C 30.87130737304688 134.4280853271484 30.86929321289062 134.4266357421875 30.86552429199219 134.4239196777344 C 30.86118316650391 134.4207916259766 30.85530853271484 134.4165496826172 30.85096740722656 134.4134216308594 C 30.84719848632812 134.4107055664062 30.84429168701172 134.4085998535156 30.84052276611328 134.4058837890625 C 30.836181640625 134.4027557373047 30.83075714111328 134.3988494873047 30.826416015625 134.3957214355469 C 30.82264709472656 134.3929901123047 30.81947326660156 134.3907012939453 30.81570434570312 134.3879852294922 C 30.81027984619141 134.3840637207031 30.80645751953125 134.3813018798828 30.80103302001953 134.3773956298828 C 30.79726409912109 134.3746643066406 30.79524993896484 134.3732147216797 30.79148101806641 134.3704986572266 C 30.78714752197266 134.3673553466797 30.78221130371094 134.3638000488281 30.77787780761719 134.3606567382812 C 30.77033996582031 134.3552093505859 30.76417541503906 134.3507537841797 30.75664520263672 134.3453063964844 C 30.75122833251953 134.3414001464844 30.74853515625 134.3394470214844 30.74311828613281 134.3355255126953 C 30.73935699462891 134.3327941894531 30.73722076416016 134.3312530517578 30.73345184326172 134.3285217285156 C 30.72803497314453 134.3246154785156 30.72433471679688 134.3219299316406 30.71891784667969 134.3180084228516 C 30.71514892578125 134.3152770996094 30.71235656738281 134.3132476806641 30.70859527587891 134.3105316162109 C 30.70317840576172 134.3066101074219 30.69901275634766 134.3035888671875 30.69359588623047 134.2996520996094 C 30.68983459472656 134.2969360351562 30.68764495849609 134.2953338623047 30.68388366699219 134.2926177978516 C 30.67955017089844 134.2894744873047 30.67417144775391 134.2855682373047 30.66984558105469 134.2824249267578 C 30.66608428955078 134.2797088623047 30.66249084472656 134.277099609375 30.65873718261719 134.2743682861328 C 30.6533203125 134.2704467773438 30.64967346191406 134.2677917480469 30.64426422119141 134.2638702392578 C 30.64238739013672 134.2624969482422 30.63667297363281 134.2583465576172 30.63479614257812 134.2569885253906 C 30.62938690185547 134.2530517578125 30.62300872802734 134.2484283447266 30.61759948730469 134.2444915771484 C 30.61383819580078 134.2417602539062 30.61419677734375 134.2420196533203 30.61043548583984 134.2392883300781 C 30.60286712646484 134.2337799072266 30.59498596191406 134.2280578613281 30.58741760253906 134.2225494384766 C 30.58554077148438 134.2211761474609 30.58067321777344 134.2176361083984 30.57878875732422 134.2162628173828 C 30.57338714599609 134.2123260498047 30.56741333007812 134.2079772949219 30.56200408935547 134.2040405273438 C 30.55825042724609 134.2013092041016 30.55579376220703 134.1995239257812 30.55204010009766 134.1967926025391 C 30.54663848876953 134.1928558349609 30.54247283935547 134.1898193359375 30.53706359863281 134.1858825683594 C 30.53518676757812 134.1845092773438 30.53025817871094 134.180908203125 30.52838134765625 134.1795501708984 C 30.52297973632812 134.1756134033203 30.51753234863281 134.171630859375 30.51213073730469 134.1676940917969 C 30.50837707519531 134.1649627685547 30.50672149658203 134.1637420654297 30.50296783447266 134.1610107421875 C 30.49864959716797 134.1578521728516 30.49199676513672 134.1529998779297 30.4876708984375 134.1498413085938 C 30.48580169677734 134.1484680175781 30.48027038574219 134.1444396972656 30.4783935546875 134.14306640625 C 30.47299194335938 134.1391296386719 30.46845245361328 134.1358032226562 30.46305084228516 134.1318664550781 C 30.45930480957031 134.1291198730469 30.45725250244141 134.1276245117188 30.45350646972656 134.1248779296875 C 30.44702911376953 134.1201477050781 30.4403076171875 134.115234375 30.43383026123047 134.1105041503906 C 30.43196105957031 134.109130859375 30.43157196044922 134.1088409423828 30.42969512939453 134.1074676513672 C 30.42106628417969 134.1011505126953 30.41407012939453 134.0960388183594 30.40544128417969 134.0897216796875 C 30.40168762207031 134.0869750976562 30.39996337890625 134.0857086181641 30.39621734619141 134.0829620361328 C 30.39082336425781 134.0790100097656 30.38689422607422 134.0761413574219 30.38150787353516 134.0721893310547 C 30.37588500976562 134.0680694580078 30.37480163574219 134.0672760009766 30.36918640136719 134.0631561279297 C 30.36595153808594 134.0607757568359 30.36087799072266 134.0570678710938 30.35764312744141 134.0546875 C 30.35389709472656 134.0519409179688 30.3494873046875 134.0487060546875 30.34574127197266 134.0459594726562 C 30.3414306640625 134.0428009033203 30.33646392822266 134.0391540527344 30.3321533203125 134.0359802246094 C 30.32840728759766 134.0332336425781 30.32525634765625 134.0309143066406 30.32151031494141 134.0281677246094 C 30.31719970703125 134.0250091552734 30.31230926513672 134.0214080810547 30.30799865722656 134.0182495117188 C 30.30425262451172 134.0154876708984 30.30092620849609 134.0130462646484 30.29718017578125 134.0102996826172 C 30.29179382324219 134.0063323974609 30.28818511962891 134.0036773681641 30.28279876708984 133.9997253417969 C 30.27906036376953 133.9969787597656 30.27655029296875 133.9951324462891 30.27280426025391 133.9923706054688 C 30.26634216308594 133.9876251220703 30.25912475585938 133.9822998046875 30.25266265869141 133.9775543212891 C 30.25079345703125 133.9761657714844 30.24888610839844 133.9747772216797 30.24701690673828 133.973388671875 C 30.24055480957031 133.9686431884766 30.23143768310547 133.9619140625 30.22498321533203 133.9571685791016 C 30.22124481201172 133.9544067382812 30.21965789794922 133.9532470703125 30.21591949462891 133.9504852294922 C 30.21054077148438 133.9465179443359 30.20596313476562 133.9431457519531 30.20058441162109 133.9391784667969 C 30.19871520996094 133.9378051757812 30.19248199462891 133.9331970214844 30.19061279296875 133.9318237304688 C 30.18523406982422 133.9278564453125 30.18133544921875 133.9249725341797 30.17595672607422 133.9210052490234 C 30.17221832275391 133.9182434082031 30.17025756835938 133.9167938232422 30.16651916503906 133.9140319824219 C 30.16221618652344 133.9108581542969 30.15614318847656 133.9063720703125 30.15184783935547 133.9031982421875 C 30.14810943603516 133.9004364013672 30.14475250244141 133.8979644775391 30.14101409912109 133.8952026367188 C 30.13563537597656 133.8912200927734 30.13216400146484 133.8886566162109 30.12679290771484 133.8846893310547 C 30.12492370605469 133.88330078125 30.119384765625 133.8792114257812 30.11751556396484 133.8778228759766 C 30.11214447021484 133.8738555908203 30.10658264160156 133.8697357177734 30.10120391845703 133.8657531738281 C 30.09747314453125 133.8629913330078 30.09641265869141 133.8622131347656 30.09268188476562 133.8594512939453 C 30.08408355712891 133.8530883789062 30.077880859375 133.8484954833984 30.06928253173828 133.8421173095703 C 30.0655517578125 133.83935546875 30.06223297119141 133.8368988037109 30.05850219726562 133.8341369628906 C 30.05420684814453 133.8309478759766 30.05015563964844 133.8279418945312 30.04586029052734 133.8247680664062 C 30.04026794433594 133.8206176757812 30.03856658935547 133.8193511962891 30.03296661376953 133.8152008056641 C 30.02867126464844 133.81201171875 30.02565765380859 133.8097686767578 30.0213623046875 133.8065795898438 C 30.01763153076172 133.8038177490234 30.01268768310547 133.8001556396484 30.00896453857422 133.7973785400391 C 30.00466918945312 133.794189453125 30.00181579589844 133.7920684814453 29.99752044677734 133.7888793945312 C 29.99378967285156 133.7861175537109 29.98889923095703 133.7824859619141 29.98517608642578 133.7797088623047 C 29.98088073730469 133.7765197753906 29.97705078125 133.773681640625 29.97276306152344 133.7704925537109 C 29.96903228759766 133.7677154541016 29.96435546875 133.7642364501953 29.96063232421875 133.761474609375 C 29.95633697509766 133.7582702636719 29.95441436767578 133.7568359375 29.95011901855469 133.7536468505859 C 29.94453430175781 133.7494964599609 29.94197845458984 133.7475891113281 29.93638610839844 133.7434387207031 C 29.93317413330078 133.7410430908203 29.92938995361328 133.7382202148438 29.92617797851562 133.7358245849609 C 29.91872406005859 133.7302856445312 29.91184234619141 133.7251586914062 29.90439605712891 133.7196044921875 C 29.90010833740234 133.7164154052734 29.89414978027344 133.7119750976562 29.88986206054688 133.7087707519531 C 29.88613891601562 133.7059936523438 29.88285064697266 133.7035369873047 29.87912750244141 133.7007598876953 C 29.87483978271484 133.6975708007812 29.86988067626953 133.6938781738281 29.8656005859375 133.690673828125 C 29.86187744140625 133.6878967285156 29.85858154296875 133.6854400634766 29.85486602783203 133.6826629638672 C 29.85057830810547 133.6794586181641 29.84580230712891 133.6759033203125 29.84151458740234 133.6726989746094 C 29.83779907226562 133.669921875 29.83383941650391 133.6669616699219 29.83011627197266 133.6641845703125 C 29.82583618164062 133.6609802246094 29.821044921875 133.6574096679688 29.81676483154297 133.6542053222656 C 29.81304168701172 133.6514282226562 29.81050109863281 133.6495208740234 29.80677795410156 133.6467437744141 C 29.80142211914062 133.6427459716797 29.79728698730469 133.6396484375 29.79193115234375 133.6356353759766 C 29.79007720947266 133.6342468261719 29.78376770019531 133.6295318603516 29.78190612792969 133.6281433105469 C 29.77762603759766 133.6249389648438 29.77241516113281 133.6210327148438 29.76813507080078 133.6178283691406 C 29.76441955566406 133.6150512695312 29.76142883300781 133.6128082275391 29.75771331787109 133.6100311279297 C 29.75450897216797 133.6076202392578 29.74858093261719 133.6031799316406 29.74537658691406 133.6007843017578 C 29.73793792724609 133.59521484375 29.73028564453125 133.5894775390625 29.72285461425781 133.5838928222656 C 29.71857452392578 133.5806884765625 29.71482849121094 133.577880859375 29.71054840087891 133.5746765136719 C 29.70683288574219 133.5718841552734 29.70262145996094 133.5687255859375 29.69890594482422 133.5659332275391 C 29.69463348388672 133.5627288818359 29.69131469726562 133.5602264404297 29.68703460693359 133.5570220947266 C 29.68146514892578 133.5528411865234 29.68026733398438 133.5519409179688 29.67469787597656 133.5477600097656 C 29.67041778564453 133.5445404052734 29.66692352294922 133.5419158935547 29.66265106201172 133.5386962890625 C 29.658935546875 133.5359039306641 29.65410614013672 133.5322875976562 29.650390625 133.5294952392578 C 29.6461181640625 133.5262756347656 29.64337921142578 133.5242156982422 29.63909912109375 133.52099609375 C 29.63539123535156 133.5182037353516 29.63018798828125 133.5142974853516 29.62648010253906 133.5115051269531 C 29.62327575683594 133.5090942382812 29.61846923828125 133.5054779052734 29.61526489257812 133.5030670166016 C 29.60970306396484 133.4988708496094 29.60739898681641 133.4971466064453 29.60182952880859 133.4929504394531 C 29.59862518310547 133.4905395507812 29.59761047363281 133.4897766113281 29.59440612792969 133.4873504638672 C 29.57585906982422 133.473388671875 29.55754089355469 133.4595642089844 29.53900909423828 133.4455871582031 C 29.53687286376953 133.4439697265625 29.53520202636719 133.4427185058594 29.53306579589844 133.4411010742188 C 29.52750396728516 133.4369049072266 29.52255249023438 133.4331665039062 29.51699829101562 133.4289703369141 C 29.51486206054688 133.4273529052734 29.51141357421875 133.4247436523438 29.50928497314453 133.4231414794922 C 29.50372314453125 133.4189453125 29.49986267089844 133.416015625 29.49430847167969 133.4118194580078 C 29.49111175537109 133.4094085693359 29.48869323730469 133.4075775146484 29.48549652099609 133.4051513671875 C 29.48178863525391 133.4023590087891 29.47434234619141 133.396728515625 29.47064208984375 133.3939208984375 C 29.46744537353516 133.3915100097656 29.46464538574219 133.3893890380859 29.46144866943359 133.386962890625 C 29.45589447021484 133.3827667236328 29.45330810546875 133.3808135986328 29.44775390625 133.3766021728516 C 29.44455718994141 133.3741760253906 29.44109344482422 133.3715515136719 29.43789672851562 133.369140625 C 29.41197967529297 133.3495178222656 29.38694000244141 133.3305053710938 29.36105346679688 133.3108520507812 C 29.35892486572266 133.3092346191406 29.35707855224609 133.3078308105469 29.35494995117188 133.3062286376953 C 29.34940338134766 133.302001953125 29.34246826171875 133.2967376708984 29.33692169189453 133.2925262451172 C 29.33586120605469 133.2917175292969 29.33373260498047 133.2901000976562 29.33267211914062 133.2892913818359 C 29.32527160644531 133.2836608886719 29.32179260253906 133.2810211181641 29.31440734863281 133.2754058837891 C 29.31227874755859 133.2737884521484 29.31108093261719 133.2728729248047 29.3089599609375 133.2712554931641 C 29.30341339111328 133.2670288085938 29.29718017578125 133.2622985839844 29.29163360595703 133.2580718994141 C 29.28951263427734 133.2564544677734 29.28785705566406 133.2551879882812 29.28572845458984 133.2535705566406 C 29.28018951416016 133.2493591308594 29.27414703369141 133.2447509765625 29.26860809326172 133.2405395507812 C 29.2664794921875 133.2389068603516 29.26505279541016 133.2378234863281 29.26292419433594 133.2362060546875 C 29.23707580566406 133.2165069580078 29.20938110351562 133.1953735351562 29.18355560302734 133.1756286621094 C 29.18142700195312 133.1740112304688 29.17926788330078 133.17236328125 29.17714691162109 133.1707305908203 C 29.17161560058594 133.16650390625 29.16632843017578 133.1624603271484 29.16079711914062 133.1582336425781 C 29.15867614746094 133.1566162109375 29.15608215332031 133.1546325683594 29.15396118164062 133.1529998779297 C 29.1502685546875 133.1501770019531 29.14128875732422 133.143310546875 29.13760375976562 133.1404876708984 C 29.13548278808594 133.1388702392578 29.13332366943359 133.13720703125 29.13120269775391 133.1355895996094 C 29.12567138671875 133.13134765625 29.11904907226562 133.1262817382812 29.11351776123047 133.1220550537109 C 29.11245727539062 133.1212310791016 29.11077117919922 133.1199340820312 29.10971069335938 133.1191253662109 C 29.10417938232422 133.1148986816406 29.09656524658203 133.1090545654297 29.09103393554688 133.1048126220703 C 29.08997344970703 133.10400390625 29.08836364746094 133.1027679443359 29.08730316162109 133.1019592285156 C 29.06151580810547 133.0821838378906 29.03138732910156 133.0590515136719 29.00562286376953 133.0392303466797 C 29.00350189208984 133.03759765625 29.00224304199219 133.0366363525391 29.00012969970703 133.0350036621094 C 28.99460601806641 133.03076171875 28.98847198486328 133.0260467529297 28.98295593261719 133.0217895507812 C 28.9808349609375 133.0201721191406 28.97957611083984 133.0191955566406 28.97745513916016 133.0175628662109 C 28.97010040283203 133.0119018554688 28.96717834472656 133.0096588134766 28.95982360839844 133.0039825439453 C 28.95770263671875 133.0023498535156 28.9569091796875 133.0017395019531 28.95479583740234 133.0001068115234 C 28.94927215576172 132.9958648681641 28.94153594970703 132.9898986816406 28.93601989746094 132.9856414794922 C 28.93601989746094 132.9856414794922 28.93541717529297 132.9851837158203 28.93541717529297 132.9851837158203 C 28.906005859375 132.9625091552734 28.87949371337891 132.9420471191406 28.85011291503906 132.9193267822266 C 28.84905242919922 132.9185028076172 28.84799194335938 132.9176788330078 28.84693145751953 132.9168701171875 C 28.84142303466797 132.9126129150391 28.83462524414062 132.9073486328125 28.82911682128906 132.9030914306641 C 28.82805633544922 132.9022674560547 28.82464599609375 132.8996276855469 28.82358551025391 132.8988037109375 C 28.81624603271484 132.8931274414062 28.81290435791016 132.8905334472656 28.80555725097656 132.8848571777344 C 28.80450439453125 132.884033203125 28.80233764648438 132.8823547363281 28.80128479003906 132.8815307617188 C 28.7939453125 132.8758544921875 28.79014587402344 132.8729095458984 28.78280639648438 132.8672180175781 C 28.78175354003906 132.8664093017578 28.7801513671875 132.8651733398438 28.77909851074219 132.8643493652344 C 28.74240112304688 132.8359069824219 28.70853424072266 132.8096008300781 28.67189025878906 132.7810974121094 C 28.67189025878906 132.7810974121094 28.67150115966797 132.7807922363281 28.67150115966797 132.7807922363281 C 28.66417694091797 132.7751007080078 28.65922546386719 132.771240234375 28.65190124511719 132.7655334472656 C 28.65084838867188 132.7647094726562 28.64874267578125 132.7630767822266 28.64768981933594 132.7622528076172 C 28.64036560058594 132.7565612792969 28.63606262207031 132.7532043457031 28.62874603271484 132.7474975585938 C 28.627685546875 132.7466735839844 28.62717437744141 132.7462768554688 28.62612152099609 132.7454528808594 C 28.61879730224609 132.73974609375 28.61334991455078 132.7355041503906 28.60602569580078 132.7297973632812 C 28.60497283935547 132.7289733886719 28.60566711425781 132.7295227050781 28.6046142578125 132.7286987304688 C 28.56800842285156 132.7001495361328 28.53264617919922 132.6725158691406 28.49609375 132.6439056396484 C 28.49609375 132.6439056396484 28.49588012695312 132.6437377929688 28.49588012695312 132.6437377929688 C 28.48857116699219 132.6380157470703 28.48300933837891 132.6336517333984 28.47570037841797 132.6279296875 C 28.47464752197266 132.6271057128906 28.47337341308594 132.6260986328125 28.47232055664062 132.6252746582031 C 28.46501159667969 132.6195526123047 28.45993804931641 132.6155853271484 28.45263671875 132.6098480224609 C 28.45263671875 132.6098480224609 28.45099639892578 132.6085662841797 28.45099639892578 132.6085662841797 C 28.44369506835938 132.6028442382812 28.43754577636719 132.5980224609375 28.43024444580078 132.59228515625 C 28.43024444580078 132.59228515625 28.43000793457031 132.5921020507812 28.43000793457031 132.5921020507812 C 28.38618469238281 132.5577239990234 28.34293365478516 132.5236968994141 28.29918670654297 132.4892272949219 C 28.29814147949219 132.4883880615234 28.29944610595703 132.4894256591797 28.29839324951172 132.4886016845703 C 28.24007415771484 132.442626953125 28.18253326416016 132.3971252441406 28.12435150146484 132.3509826660156 C 28.12435150146484 132.3509826660156 28.12368774414062 132.3504486083984 28.12368774414062 132.3504486083984 C 23.62734222412109 128.7842254638672 19.55369567871094 124.7068710327148 15.99119567871094 120.2074508666992 C 13.42959594726562 116.9608154296875 13.97956848144531 112.2518615722656 17.22280883789062 109.6830062866211 C 18.60075378417969 108.5915908813477 20.243408203125 108.0619354248047 21.87455749511719 108.0619354248047 C 24.0870361328125 108.0619354248047 26.2783203125 109.036491394043 27.75870513916016 110.9055404663086 C 39.07244110107422 125.1894683837891 55.99630737304688 133.3817443847656 74.19087219238281 133.3817443847656 C 106.8288421630859 133.3817443847656 133.3817443847656 106.8288421630859 133.3817443847656 74.19087219238281 C 133.3817443847656 41.55290222167969 106.8288421630859 15 74.19087219238281 15 C 70.04873657226562 15 66.69087219238281 11.64213562011719 66.69087219238281 7.5 C 66.69087219238281 3.357879638671875 70.04873657226562 0 74.19087219238281 0 C 74.19087219238281 0 74.19087219238281 0 74.19087219238281 0 Z" stroke="none" fill="#de1d25"/>
            </g>
          </g>
        </g>
      </g>
    </g>
    <text id="_75_" data-name="75%" transform="translate(187.032 290.944)" fill="#707070" font-size="21" font-family="Muli-Bold, Muli" font-weight="700"><tspan x="-22.628" y="0">75%</tspan></text>
  </g>
</svg>
