<svg xmlns="http://www.w3.org/2000/svg" xmlns:xlink="http://www.w3.org/1999/xlink" width="342" height="129" viewBox="0 0 342 129">
  <defs>
    <clipPath id="clip-path">
      <rect id="Rectangle_17852" data-name="Rectangle 17852" width="342" height="129" rx="9" transform="translate(17 131)" fill="#fff"/>
    </clipPath>
    <linearGradient id="linear-gradient" x1="0.5" y1="1" x2="0.5" gradientUnits="objectBoundingBox">
      <stop offset="0" stop-color="#8a7dd1"/>
      <stop offset="1" stop-color="#c0b9e5"/>
    </linearGradient>
  </defs>
  <g id="Mask_Group_48" data-name="Mask Group 48" transform="translate(-17 -131)" clip-path="url(#clip-path)">
    <g id="Group_14485" data-name="Group 14485" transform="translate(275.887 176.269)">
      <g id="clock" transform="translate(61.51 107.152) rotate(-140)">
        <path id="Path_24831" data-name="Path 24831" d="M16.383,10.881H8.888L0,0H16.383a5.44,5.44,0,0,1,0,10.881Z" transform="translate(55.224 17.334)" fill="#ffddce"/>
        <path id="Path_24832" data-name="Path 24832" d="M21.823,5.441A5.44,5.44,0,0,0,16.382,0H0L3.088,3.781H16.382a5.443,5.443,0,0,1,5.1,3.55A5.42,5.42,0,0,0,21.823,5.441Z" transform="translate(55.225 17.334)" fill="#ffcbbe"/>
        <path id="Path_24833" data-name="Path 24833" d="M16.383,10.881H8.888L0,0H16.383a5.44,5.44,0,0,1,0,10.881Z" transform="translate(54.44 28.215)" fill="#ffddce"/>
        <path id="Path_24834" data-name="Path 24834" d="M21.823,5.441A5.44,5.44,0,0,0,16.382,0H0L3.088,3.78H16.382a5.443,5.443,0,0,1,5.1,3.55A5.419,5.419,0,0,0,21.823,5.441Z" transform="translate(54.44 28.215)" fill="#ffcbbe"/>
        <path id="Path_24835" data-name="Path 24835" d="M16.383,10.881H8.888L0,0H16.383a5.44,5.44,0,0,1,0,10.881Z" transform="translate(50.516 39.096)" fill="#ffddce"/>
        <path id="Path_24836" data-name="Path 24836" d="M21.823,5.441A5.44,5.44,0,0,0,16.382,0H0L3.088,3.78H16.382a5.443,5.443,0,0,1,5.1,3.55A5.423,5.423,0,0,0,21.823,5.441Z" transform="translate(50.517 39.096)" fill="#ffcbbe"/>
        <path id="Path_24837" data-name="Path 24837" d="M38.894,0H13.638L2.57,9.607,0,20.6,4.7,33.555,9.867,45.714a15.635,15.635,0,0,0,7.666,8l9.474,4.513a6.213,6.213,0,0,0,8.578-3.671,0,0,0,0,0,0,0,6.215,6.215,0,0,0-.653-5.257l-3.9-6.18,5.8-31.782L38.777.639Z" transform="translate(8.498 6.473)" fill="#ffddce"/>
        <path id="Path_24838" data-name="Path 24838" d="M28.838.639Q28.661.316,28.488,0H3.7L0,13.885C5.012,11.648,17.329,7.1,26.887,11.338a17.435,17.435,0,0,1,2.067,1.086c8.038,4.946,3.825-4.532-.116-11.786Z" transform="translate(18.438 6.473)" fill="#ffcbbe"/>
        <path id="Path_24839" data-name="Path 24839" d="M30.886,32.418c-1.513,2.454-8.047-.286-12.308-2.544C14.676,27.807,4.211,14.494,3.04,0L0,11.414,5.168,23.573a15.635,15.635,0,0,0,7.666,8l9.474,4.513a6.212,6.212,0,0,0,8.578-3.671Z" transform="translate(13.198 28.615)" fill="#ffcbbe"/>
        <path id="Path_24843" data-name="Path 24843" d="M16.383,10.881H8.888L0,0H16.383a5.44,5.44,0,0,1,0,10.881Z" transform="translate(47.393 6.473)" fill="#ffddce"/>
        <path id="Path_24844" data-name="Path 24844" d="M21.823,5.441A5.44,5.44,0,0,0,16.382,0H0L3.088,3.781H16.382a5.443,5.443,0,0,1,5.1,3.55A5.425,5.425,0,0,0,21.823,5.441Z" transform="translate(47.393 6.473)" fill="#ffcbbe"/>
        <g id="Group_14065" data-name="Group 14065" transform="translate(14.489 16.538) rotate(-20)">
          <g id="Group_14056" data-name="Group 14056" transform="translate(24.369 42.924)">
            <path id="Path_24840" data-name="Path 24840" d="M0,9.417H8.615V0H0Z" transform="matrix(0.951, -0.308, 0.308, 0.951, 2.61, 2.652)" fill="#8a7dd1"/>
            <path id="Path_24841" data-name="Path 24841" d="M15.287.141Q8.74,2.066,2.306,4.339A3.425,3.425,0,0,0,.16,8.594l.02.063a3.425,3.425,0,0,0,4.23,2.192q6.547-1.925,12.981-4.2A3.425,3.425,0,0,0,19.538,2.4l-.02-.063A3.425,3.425,0,0,0,15.287.141Z" transform="translate(0 5.639)" fill="#8a7dd1"/>
            <path id="Path_24842" data-name="Path 24842" d="M8.066,0Q5.175.944,2.305,1.958A3.426,3.426,0,0,0,.16,6.212l.021.064a3.425,3.425,0,0,0,4.23,2.193q2.921-.859,5.817-1.786a3.545,3.545,0,0,1-3.98-2.367l-.021-.066A3.546,3.546,0,0,1,8.066,0Z" transform="translate(0 8.02)" fill="#8a7dd1"/>
          </g>
          <g id="Group_14064" data-name="Group 14064" transform="translate(0 0)">
            <ellipse id="Ellipse_615" data-name="Ellipse 615" cx="24.177" cy="24.177" rx="24.177" ry="24.177" transform="translate(0 0)" fill="#8a7dd1"/>
            <path id="Path_24845" data-name="Path 24845" d="M25.729.049C25.216.017,24.7,0,24.177,0a24.177,24.177,0,0,0,0,48.354c.521,0,1.039-.017,1.552-.049a24.179,24.179,0,0,1,0-48.257Z" transform="translate(0 0)" fill="url(#linear-gradient)"/>
            <ellipse id="Ellipse_616" data-name="Ellipse 616" cx="18.478" cy="18.478" rx="18.478" ry="18.478" transform="translate(5.699 5.699)" fill="#d3effb"/>
            <path id="Path_24846" data-name="Path 24846" d="M21.628.268a18.479,18.479,0,1,0,0,36.421,18.482,18.482,0,0,1,0-36.421Z" transform="translate(5.777 5.698)" fill="#9dc6fb"/>
            <path id="Path_24847" data-name="Path 24847" d="M2.354,0A2.354,2.354,0,0,0,0,2.354V8.365a2.354,2.354,0,0,0,4.708,0V2.354A2.354,2.354,0,0,0,2.354,0Z" transform="translate(21.823 21.823)" fill="#2b4d66"/>
            <g id="Group_14063" data-name="Group 14063" transform="translate(5.167 5.167)">
              <g id="Group_14057" data-name="Group 14057" transform="translate(17.848 0)">
                <path id="Path_24848" data-name="Path 24848" d="M1.163,0A1.163,1.163,0,0,0,0,1.163V4.878a1.163,1.163,0,0,0,2.325,0V1.163A1.163,1.163,0,0,0,1.163,0Z" transform="translate(0 31.98)" fill="#698ed5"/>
                <path id="Path_24849" data-name="Path 24849" d="M1.163,0A1.163,1.163,0,0,0,0,1.163V4.878a1.163,1.163,0,0,0,2.325,0V1.163A1.163,1.163,0,0,0,1.163,0Z" transform="translate(0 0)" fill="#698ed5"/>
              </g>
              <g id="Group_14058" data-name="Group 14058" transform="translate(0 17.848)">
                <path id="Path_24850" data-name="Path 24850" d="M4.878,0H1.163a1.163,1.163,0,1,0,0,2.325H4.878A1.163,1.163,0,0,0,4.878,0Z" transform="translate(31.98 0)" fill="#698ed5"/>
                <path id="Path_24851" data-name="Path 24851" d="M4.878,0H1.163a1.163,1.163,0,0,0,0,2.325H4.878A1.163,1.163,0,1,0,4.878,0Z" transform="translate(0 0)" fill="#698ed5"/>
              </g>
              <g id="Group_14059" data-name="Group 14059" transform="translate(2.391 8.924)">
                <path id="Path_24852" data-name="Path 24852" d="M1.164,0A1.163,1.163,0,0,0,.582,2.17l1.9,1.1A1.163,1.163,0,0,0,3.643,1.252l-1.9-1.1A1.158,1.158,0,0,0,1.164,0Z" transform="translate(29.014 16.751)" fill="#698ed5"/>
                <path id="Path_24853" data-name="Path 24853" d="M1.164,0A1.163,1.163,0,0,0,.582,2.17l1.9,1.1A1.163,1.163,0,0,0,3.643,1.252l-1.9-1.1A1.158,1.158,0,0,0,1.164,0Z" transform="translate(0 0)" fill="#698ed5"/>
              </g>
              <g id="Group_14060" data-name="Group 14060" transform="translate(8.924 2.391)">
                <path id="Path_24854" data-name="Path 24854" d="M1.162,0A1.163,1.163,0,0,0,.156,1.744l1.1,1.9A1.163,1.163,0,0,0,3.266,2.48L2.17.581A1.162,1.162,0,0,0,1.162,0Z" transform="translate(16.751 29.014)" fill="#698ed5"/>
                <path id="Path_24855" data-name="Path 24855" d="M1.162,0A1.163,1.163,0,0,0,.156,1.744l1.1,1.9A1.163,1.163,0,0,0,3.266,2.48L2.17.581A1.162,1.162,0,0,0,1.162,0Z" transform="translate(0 0)" fill="#698ed5"/>
              </g>
              <g id="Group_14061" data-name="Group 14061" transform="translate(8.924 2.391)">
                <path id="Path_24856" data-name="Path 24856" d="M2.26,0A1.162,1.162,0,0,0,1.252.581l-1.1,1.9A1.163,1.163,0,1,0,2.17,3.643l1.1-1.9A1.163,1.163,0,0,0,2.26,0Z" transform="translate(0 29.014)" fill="#698ed5"/>
                <path id="Path_24857" data-name="Path 24857" d="M2.26,0A1.162,1.162,0,0,0,1.252.581l-1.1,1.9A1.163,1.163,0,1,0,2.17,3.643l1.1-1.9A1.163,1.163,0,0,0,2.26,0Z" transform="translate(16.751 0)" fill="#698ed5"/>
              </g>
              <g id="Group_14062" data-name="Group 14062" transform="translate(2.391 8.924)">
                <path id="Path_24858" data-name="Path 24858" d="M3.061,0a1.158,1.158,0,0,0-.58.156l-1.9,1.1A1.163,1.163,0,1,0,1.744,3.266l1.9-1.1A1.163,1.163,0,0,0,3.061,0Z" transform="translate(0 16.751)" fill="#698ed5"/>
                <path id="Path_24859" data-name="Path 24859" d="M3.061,0a1.159,1.159,0,0,0-.58.156l-1.9,1.1A1.163,1.163,0,0,0,1.744,3.266l1.9-1.1A1.163,1.163,0,0,0,3.061,0Z" transform="translate(29.014 0)" fill="#698ed5"/>
              </g>
            </g>
            <path id="Path_24860" data-name="Path 24860" d="M19.641,0A19.641,19.641,0,1,0,39.282,19.641,19.663,19.663,0,0,0,19.641,0Zm0,36.957A17.316,17.316,0,1,1,36.956,19.641,17.335,17.335,0,0,1,19.641,36.957Z" transform="translate(4.536 4.536)" fill="url(#linear-gradient)"/>
          </g>
        </g>
        <path id="Path_24861" data-name="Path 24861" d="M22.137,4.047,8.937,0,3.247,21.366,0,33.557,13.2,37.6l3.247-12.189Z" transform="translate(0 2.426)" fill="#6fc7ff"/>
        <path id="Path_24862" data-name="Path 24862" d="M16.445,4.047,3.247,0,0,12.191l13.2,4.046Z" transform="translate(0 23.792)" fill="#6fc7ff"/>
      </g>
    </g>
  </g>
</svg>
