<svg xmlns="http://www.w3.org/2000/svg" xmlns:xlink="http://www.w3.org/1999/xlink" width="67" height="70" viewBox="0 0 67 70">
  <defs>
    <clipPath id="clip-path">
      <rect id="Rectangle_17853" data-name="Rectangle 17853" width="67" height="70" rx="9" transform="translate(292 190)" fill="#fff"/>
    </clipPath>
  </defs>
  <g id="Groupe_14523" data-name="Groupe 14523" transform="translate(-292 -190)">
    <g id="Groupe_de_masques_49" data-name="Groupe de masques 49" clip-path="url(#clip-path)">
      <g id="good" transform="translate(293.321 191.295)">
        <path id="Tracé_26579" data-name="Tracé 26579" d="M.5,82.71a33.3,33.3,0,1,0,33.3-33.3A33.3,33.3,0,0,0,.5,82.71Zm0,0" transform="translate(5.588 -42.301)" fill="#937de2"/>
        <path id="Tracé_26580" data-name="Tracé 26580" d="M229.136,49.414a33.544,33.544,0,0,1,5.175.4,33.3,33.3,0,0,0,0,65.789,33.3,33.3,0,1,1-5.173-66.19Zm0,0" transform="translate(-189.752 -42.301)" fill="#7570d6"/>
        <path id="Tracé_26581" data-name="Tracé 26581" d="M181.181,37.949l19.013,12.59a6.475,6.475,0,0,0,4.6,1,6.5,6.5,0,0,1,4.61.994l2.545,1.686,14.249-21-3.5-15.1a15.764,15.764,0,0,1,2.214-12.258,3.769,3.769,0,0,0-5.765-4.787l-2.265,2.194a24.206,24.206,0,0,0-5.843,8.957l-1.228,3.306L197.167,7.164a4.313,4.313,0,0,0-6.042,1.316A4.369,4.369,0,0,0,192.48,14.4a.047.047,0,0,1-.044.084,4.291,4.291,0,0,0-1.541-.286,4.337,4.337,0,0,0-2.35.692,4.313,4.313,0,0,0-1.884,4.457,4.405,4.405,0,0,0,1.808,2.731.093.093,0,0,1,.024.128,0,0,0,0,1,0,0,.092.092,0,0,1-.121.024,4.425,4.425,0,0,0-1.046-.124,4.543,4.543,0,0,0-2.433.705,4.241,4.241,0,0,0-1.258,1.234,4.311,4.311,0,0,0,1.216,5.976c.049.033.1.066.147.1a.067.067,0,0,1,.022.084.035.035,0,0,1-.016.016.069.069,0,0,1-.085,0,4.222,4.222,0,0,0-3.658.471,4.394,4.394,0,0,0-1.288,1.277A4.314,4.314,0,0,0,181.181,37.949Zm0,0" transform="translate(-179.25 -0.001)" fill="#fdd7bd"/>
        <path id="Tracé_26582" data-name="Tracé 26582" d="M3.595,238.554l8.021,5.312,11.58,7.668a33.331,33.331,0,0,0,20.249-26.2l-13.438-8.9-8.181-5.418a2.047,2.047,0,0,0-2.837.579L3.016,235.715A2.049,2.049,0,0,0,3.595,238.554Zm0,0" transform="translate(28.922 -180.352)" fill="#87dbff"/>
        <path id="Tracé_26583" data-name="Tracé 26583" d="M96.946,238.554l8.021,5.312,18.39-27.427-8.181-5.418a2.047,2.047,0,0,0-2.837.579L96.367,235.715A2.049,2.049,0,0,0,96.946,238.554Zm0,0" transform="translate(-64.43 -180.352)" fill="#6fc7ff"/>
        <g id="Groupe_14486" data-name="Groupe 14486" transform="translate(2.005 14.202)">
          <path id="Tracé_26584" data-name="Tracé 26584" d="M378.7,99.348l6.327,3.386a2.049,2.049,0,0,0,2.614-.588l-4.988-3.227a.047.047,0,0,1-.061.024,4.292,4.292,0,0,0-1.541-.286A4.339,4.339,0,0,0,378.7,99.348Zm0,0" transform="translate(-371.414 -98.656)" fill="#fac5aa"/>
          <path id="Tracé_26585" data-name="Tracé 26585" d="M405.051,154.318l6.189,3.309a2.048,2.048,0,0,0,2.614-.586l-4.988-3.228-.215-.1a.092.092,0,0,1-.121.024,4.425,4.425,0,0,0-1.046-.124A4.54,4.54,0,0,0,405.051,154.318Zm0,0" transform="translate(-401.417 -145.702)" fill="#fac5aa"/>
          <path id="Tracé_26586" data-name="Tracé 26586" d="M435.418,209.1l5.451,2.916a2.052,2.052,0,0,0,2.614-.588l-4.321-2.8a.069.069,0,0,1-.086,0A4.225,4.225,0,0,0,435.418,209.1Zm0,0" transform="translate(-435.418 -192.612)" fill="#fac5aa"/>
        </g>
      </g>
    </g>
  </g>
</svg>
