<svg xmlns="http://www.w3.org/2000/svg" xmlns:xlink="http://www.w3.org/1999/xlink" width="110.431" height="110.431" viewBox="0 0 110.431 110.431">
  <defs>
    <linearGradient id="linear-gradient" x1="0.5" x2="0.5" y2="1" gradientUnits="objectBoundingBox">
      <stop offset="0" stop-color="#ec1b24"/>
      <stop offset="1" stop-color="#8e2b2f"/>
    </linearGradient>
  </defs>
  <g id="Group_10063" data-name="Group 10063" transform="translate(-132.39 -58)">
    <g id="Group_9899" data-name="Group 9899" transform="translate(8 3)">
      <g id="Group_9898" data-name="Group 9898" transform="translate(124.39 55)" opacity="0.75">
        <path id="Path_22430" data-name="Path 22430" d="M55.216,0A55.216,55.216,0,1,1,0,55.216,55.216,55.216,0,0,1,55.216,0Z" transform="translate(0 0)" fill="url(#linear-gradient)"/>
      </g>
    </g>
    <g id="Groupe_10062" data-name="Groupe 10062" transform="translate(155.99 82)">
      <g id="Groupe_10061" data-name="Groupe 10061">
        <path id="Tracé_22422" data-name="Tracé 22422" d="M44.4,38.4a1.36,1.36,0,0,0-1.92.11h0a15.12,15.12,0,0,1-21.36,1.08c-.37-.34-.74-.7-1.08-1.08a1.36,1.36,0,1,0-2,1.81,17.83,17.83,0,0,0,25.19,1.3,16,16,0,0,0,1.3-1.3,1.36,1.36,0,0,0-.13-1.92Z" fill="#fff"/>
        <path id="Tracé_22423" data-name="Tracé 22423" d="M31.26,0a31.267,31.267,0,1,0,.007,0Zm0,59.81A28.55,28.55,0,1,1,59.81,31.26,28.55,28.55,0,0,1,31.26,59.81Z" fill="#fff"/>
        <path id="Tracé_22424" data-name="Tracé 22424" d="M42.14,21.75a6.79,6.79,0,0,0-6.8,6.8h0a1.36,1.36,0,1,0,2.72,0,4.08,4.08,0,0,1,8.15,0,1.36,1.36,0,1,0,2.72,0,6.8,6.8,0,0,0-6.79-6.8Z" fill="#fff"/>
        <path id="Tracé_22425" data-name="Tracé 22425" d="M24.47,28.55a1.36,1.36,0,1,0,2.71,0,6.8,6.8,0,1,0-13.591-.47v.47a1.36,1.36,0,0,0,2.72,0,4.081,4.081,0,0,1,8.16-.13Z" fill="#fff"/>
      </g>
    </g>
  </g>
</svg>
