<svg xmlns="http://www.w3.org/2000/svg" width="187.543" height="133.303" viewBox="0 0 187.543 133.303">
  <g id="Group_12963" data-name="Group 12963" transform="translate(-118.965 -155.335)">
    <g id="Group_12909" data-name="Group 12909" transform="translate(-1315 -488.877)">
      <g id="Groupe_11810" data-name="Groupe 11810" transform="translate(1433.965 644.212)">
        <g id="Groupe_11809" data-name="Groupe 11809" transform="translate(0 0)">
          <path id="Tracé_24049" data-name="Tracé 24049" d="M89.088,75.9s28.6-8.021,38.5-14.036,12.869-7.693,11.375-10.9c-1.992-4.312-6.251.288-6.251.288s.839-2.005-.249-2.621-1.979,1.638-3.093,5.242-.865,5.032-12.371,9.174-26,5.531-28.321,7.47S89.088,75.9,89.088,75.9Z" transform="translate(52.372 -22.011) rotate(20)" fill="#8595ba"/>
          <g id="Groupe_11805" data-name="Groupe 11805">
            <g id="Groupe_11803" data-name="Groupe 11803">
              <g id="Groupe_11100" data-name="Groupe 11100">
                <g id="Groupe_11099" data-name="Groupe 11099">
                  <g id="Groupe_11095" data-name="Groupe 11095">
                    <g id="Groupe_11094" data-name="Groupe 11094">
                      <g id="Groupe_11093" data-name="Groupe 11093">
                        <g id="Groupe_11090" data-name="Groupe 11090">
                          <path id="Tracé_22543" data-name="Tracé 22543" d="M14.13,44.182S6.778,72.962,7,84.586s.262,14.953,3.787,15.268c4.731.432,2.883-5.557,2.883-5.557s1.311,1.73,2.346,1.062S15.585,92.829,13,90.116s-3.932-3.263-1.756-15.294,8.217-25.28,7.706-28.268S14.13,44.182,14.13,44.182Z" transform="translate(2.171 13.703)" fill="#8595ba"/>
                          <g id="Groupe_10797" data-name="Groupe 10797" transform="translate(40.67 78.828)">
                            <path id="Tracé_87" data-name="Tracé 87" d="M41,61s3.093,47.179,1.52,48.594-9.868.144-11.375,2.752,12.738,2.451,14.56.852,0-52.172,0-52.172Z" transform="translate(-31.035 -59.886)" fill="#8595ba"/>
                            <path id="Tracé_88" data-name="Tracé 88" d="M72.911,60.15s-3.04,47.179-1.52,48.581,9.855.144,11.375,2.739-12.738,2.451-14.573.9,0-52.172,0-52.172Z" transform="translate(-19.75 -60.15)" fill="#8595ba"/>
                          </g>
                          <g id="Groupe_10793" data-name="Groupe 10793">
                            <g id="Groupe_10771" data-name="Groupe 10771">
                              <g id="Groupe_10768" data-name="Groupe 10768">
                                <g id="Groupe_10740" data-name="Groupe 10740">
                                  <g id="Groupe_10740-2" data-name="Groupe 10740-2">
                                    <g id="Groupe_10738" data-name="Groupe 10738">
                                      <g id="Groupe_34" data-name="Groupe 34">
                                        <g id="Groupe_27" data-name="Groupe 27">
                                          <path id="Tracé_89" data-name="Tracé 89" d="M103.759,91.136c1.455.616,6.382,2.359,10.366-.183,4.731-3.027,4.731-6.631,4.731-6.631a13.787,13.787,0,0,0,13.813-3.211c6.631-6.055,3.6-18.138,3.6-18.138s6.2-3.224,5.491-9.881c-1.166-10.746-12.122-11.362-12.122-11.362s3.407-8.138-2.621-13.813a17.823,17.823,0,0,0-14.009-4.351,6.277,6.277,0,0,0-2.267-7.011c-3.787-2.621-6.815-1.062-6.815-1.062s.655-8.61-7.182-11.546A16.08,16.08,0,0,0,82.882,5.585S78.151.474,71.337,1.418a21.139,21.139,0,0,0-10.6,4.351A12.044,12.044,0,0,0,49.005,3.147a10.89,10.89,0,0,0-7.955,8.7S28.9,8.442,22.271,16.764s-3.407,15.294-3.407,15.294S7.934,30.564,4.526,40.969A18.347,18.347,0,0,0,7.357,58.386s-8.9,8.9-5.137,18.531a11.336,11.336,0,0,0,12.856,7.614,10.039,10.039,0,0,0,9.672,8.846c8.9.577,12.686-2.621,12.686-2.621s7.758,6.435,15.333,5.675S63.2,92.643,63.2,92.643s7.169,4.1,14.206,3.853a23.589,23.589,0,0,0,12.62-4.98,7.5,7.5,0,0,0,7.011,3.407C101.819,94.438,103.484,91.018,103.759,91.136Z" transform="translate(0.399 0.404)" fill="#f3f6fe"/>
                                          <g id="Groupe_26" data-name="Groupe 26">
                                            <path id="Tracé_90" data-name="Tracé 90" d="M143.856,53.312a14.18,14.18,0,0,0-11.6-12.581,13.826,13.826,0,0,0-3.7-13.656,19.2,19.2,0,0,0-13.105-4.954h-.092a7.653,7.653,0,0,0-3.3-6.553,9.541,9.541,0,0,0-5.242-1.953,11.035,11.035,0,0,0-1.1-3.132,13.6,13.6,0,0,0-7.994-7.732A16.316,16.316,0,0,0,92.011,1.73a17.338,17.338,0,0,0-5.6.891h0L86,2.765l-.236.092h0a17.115,17.115,0,0,0-2.241,1.075A16,16,0,0,0,73.389,0a13.59,13.59,0,0,0-1.926.131A24,24,0,0,0,61.2,4a13.826,13.826,0,0,0-8.178-2.687,14.966,14.966,0,0,0-4.089.59,12.542,12.542,0,0,0-8.754,8.374c-3.735-.537-12.712-.957-18.347,6.212-3.879,4.77-4.8,8.833-4.8,11.637h0a9.96,9.96,0,0,0,.118,1.769A15.726,15.726,0,0,0,3.315,40.836,20.208,20.208,0,0,0,5.491,58.58l-.328.393a1.677,1.677,0,0,0-.315.629C2.227,62.971-1.992,70.152,1.074,77.95c2.752,7.011,8.191,8.06,11.192,8.06a13.432,13.432,0,0,0,2.044-.157c.878,3.932,3.8,9.174,10.773,9.645.721,0,1.455.066,2.162.066a21.3,21.3,0,0,0,10.484-2.346c2.28,1.664,8.06,5.373,14.154,5.373a12.7,12.7,0,0,0,1.428-.079,23.131,23.131,0,0,0,9.383-2.752,5.871,5.871,0,0,0,1.153-.642A32.082,32.082,0,0,0,77.124,98.6h.681A24.4,24.4,0,0,0,90.1,94.279a4.875,4.875,0,0,0,.6.564l.144.079a8.754,8.754,0,0,0,5.779,2.162h.983a10.576,10.576,0,0,0,6.933-3.5,16.067,16.067,0,0,0,5.032.878,10.642,10.642,0,0,0,5.819-1.612,11.952,11.952,0,0,0,5.177-6.028,15.373,15.373,0,0,0,2.9.275,15.726,15.726,0,0,0,10.8-4.325c6.055-5.53,4.967-15.163,4.351-18.583A11.7,11.7,0,0,0,143.856,53.312Zm-7.562,8.283c-.917-.275-2.031-.59-3.381-.917a6.657,6.657,0,0,0-6.762,1.769,5.714,5.714,0,0,0-1.1,5.9,4.862,4.862,0,0,0,4.928,3.211,7.955,7.955,0,0,0,2.542-.419,1.538,1.538,0,1,0-1-2.909h0c-.118,0-2.883.957-3.578-.93a2.713,2.713,0,0,1,.485-2.739,3.643,3.643,0,0,1,3.722-.839c1.219.3,2.228.59,3.054.839.5,2.621,1.651,11.218-3.25,15.726a12.293,12.293,0,0,1-8.492,3.447,11.441,11.441,0,0,1-3.394-.5l-3.106-5.91a1.706,1.706,0,1,0-3.027,1.573l3.447,6.644a8.348,8.348,0,0,1-3.787,4.416,7.2,7.2,0,0,1-3.932,1.075,13.223,13.223,0,0,1-4.823-1.048l-.328-.144h-.354a2.2,2.2,0,0,0-1.7,1,7.4,7.4,0,0,1-5.124,2.8H96.7a5.661,5.661,0,0,1-4.456-2.228,5.426,5.426,0,0,1-.813-3.211,2.791,2.791,0,0,1,1.311-2.333c2.175-1.311,3.237-.183,3.512.183a1.709,1.709,0,0,0,2.8-1.953c-.983-1.442-3.932-3.538-8.007-1.179a6.094,6.094,0,0,0-2.975,5.032,9,9,0,0,0,.432,3.342,21.335,21.335,0,0,1-10.707,3.932A27.6,27.6,0,0,1,66.05,92.392h0a11.008,11.008,0,0,0-.681-8.61c-2.162-4.823-7.391-4.665-9.855-3.932a1.7,1.7,0,1,0,.93,3.276h0c.183,0,4.259-1.311,5.753,2.058a7.863,7.863,0,0,1,.708,5.91,3.931,3.931,0,0,1-.275.524l-.262.262s-2.621,2.621-9.344,3.276a10.31,10.31,0,0,1-1.1,0c-5.124,0-10.261-3.355-12.188-4.744l.432-5.163a1.7,1.7,0,1,0-3.394-.288h0l-.419,5.124a17.771,17.771,0,0,1-9.108,2.044H25.28c-7.051-.459-7.8-7.653-7.863-8.335a4.665,4.665,0,0,1,2.516-3.722,3.669,3.669,0,0,1,2.267-.616h-.118l1.311-3.132c-.328-.144-2.123-.76-5.046.786a7.955,7.955,0,0,0-4.167,5.4,10.576,10.576,0,0,1-1.926.052c-3.787,0-6.487-1.979-8.02-5.9C1.048,68.619,8.2,60.808,8.9,60.061a8.676,8.676,0,0,1,5.517-1.926,5.242,5.242,0,0,1,4.928,3.25,1.691,1.691,0,0,0,1.612,1.153,1.494,1.494,0,0,0,.537-.092,1.691,1.691,0,0,0,1.127-2.162h0a8.61,8.61,0,0,0-8.086-5.57,11.624,11.624,0,0,0-6.369,1.73A17.037,17.037,0,0,1,6.552,41.937,12.647,12.647,0,0,1,18.176,33.3a8.112,8.112,0,0,0,6.382,4.587,8.992,8.992,0,0,0,1.311.092,9.41,9.41,0,0,0,8.2-5.465,1.7,1.7,0,1,0-3.093-1.429c-.078.157-1.926,3.932-5.936,3.407a4.875,4.875,0,0,1-3.5-2.175L20.85,30.8a1.428,1.428,0,0,1-.1-.249,8.243,8.243,0,0,1-.328-2.267s0-.1,0-.157c0-2.136.773-5.426,4.023-9.528C29.5,12.24,38.07,13.354,40.429,13.761l2.4,5.4a1.671,1.671,0,1,0,3.04-1.389h0l-2.621-5.832a.459.459,0,0,1,0-.144A9.174,9.174,0,0,1,49.8,5.124a11.139,11.139,0,0,1,3.145-.459,10.406,10.406,0,0,1,6.893,2.621l.38.393a4.679,4.679,0,0,1,.655,4.613,3.814,3.814,0,0,1-3.591,2.4,1.7,1.7,0,0,0-.315,3.394h.38A7.208,7.208,0,0,0,63.9,13.761a7.68,7.68,0,0,0-.367-7.208,20.968,20.968,0,0,1,8.44-3.027,10.864,10.864,0,0,1,1.415-.118,12.607,12.607,0,0,1,7.522,2.778,8.021,8.021,0,0,0-1.756,3.552,6.933,6.933,0,0,0,4.8,8.387,1.468,1.468,0,0,0,.419,0,1.7,1.7,0,0,0,.406-3.355,3.525,3.525,0,0,1-2.293-4.285c.629-2.909,4.089-4.259,4.757-4.5a14.416,14.416,0,0,1,4.77-.826,12.948,12.948,0,0,1,4.521.813,10.327,10.327,0,0,1,6.028,5.819v.131a12.424,12.424,0,0,1,.97,3.8V18.6c-.577,2.372-1.848,2.372-2.411,2.372a3.683,3.683,0,0,1-1.94-.642,1.7,1.7,0,0,0-2.1,2.687,6.985,6.985,0,0,0,4.023,1.311c1.56,0,5.242-.629,5.95-6.4a3.527,3.527,0,0,1,.092-.983,6.815,6.815,0,0,1,2.936,1.4,4.508,4.508,0,0,1,1.638,5.059l-.93,2.687,2.818-.446a12.044,12.044,0,0,1,1.822-.118,15.726,15.726,0,0,1,10.746,4.023c4.482,4.207,2.9,10.026,2.372,11.546-.17.38-2.555,5.242-5.871,5.386a2.32,2.32,0,0,1-1.756-.393,1.533,1.533,0,0,1-.17-1.127,1.705,1.705,0,0,0-3.316-.8,4.954,4.954,0,0,0,.865,4.089,5.059,5.059,0,0,0,4.1,1.651h.432c4.023-.183,6.775-3.814,8.047-5.937a10.812,10.812,0,0,1,9.58,9.763,8.518,8.518,0,0,1-4.167,7.929Z" transform="translate(-0.002 0)" fill="#b8c4e0"/>
                                            <path id="Tracé_91" data-name="Tracé 91" d="M98.07,34.791a9.829,9.829,0,0,0-2.307-8.767c-5.465-6.644-13.826-5.15-18.989-2.8a11.965,11.965,0,0,0-8.086-9.082C62.437,12.014,57.627,16.221,55.4,18.79a15.556,15.556,0,0,0-11.467-4.141,10.484,10.484,0,0,0-9.174,7.326,8.951,8.951,0,0,0,2.909,10.274,10.406,10.406,0,0,0,13.826-.354,1.7,1.7,0,0,0-2.32-2.49h0a7.024,7.024,0,0,1-9.4.17,5.675,5.675,0,0,1-1.8-6.553,7.064,7.064,0,0,1,6.028-4.954c7.077-.144,9.894,4.141,10.012,4.325a1.7,1.7,0,0,0,2.346.55,1.861,1.861,0,0,0,.537-.524c0-.079,4.639-7.1,10.681-5.046A8.663,8.663,0,0,1,73.6,25.827a1.717,1.717,0,0,0,2.621,1.546c.432-.275,10.786-6.553,16.932.839a6.553,6.553,0,0,1,1.612,5.819,7.011,7.011,0,0,1-3.407,4.521c-2.228,1.009-5.019-.472-5.032-.485a1.717,1.717,0,0,0-2.32.681,1.691,1.691,0,0,0,.668,2.307h0a11.454,11.454,0,0,0,4.194,1.219,7.863,7.863,0,0,0,3.932-.6,10.484,10.484,0,0,0,5.268-6.88Z" transform="translate(10.61 4.21)" fill="#b8c4e0"/>
                                            <path id="Tracé_92" data-name="Tracé 92" d="M28.577,53.344a7.863,7.863,0,0,0-.406-4.377h0a9.1,9.1,0,0,0,2.909-.485A7.863,7.863,0,0,0,36.034,42.9,10.759,10.759,0,0,0,34.2,33.424c-3.132-3.669-8.007-2.739-10.2-1.73a1.709,1.709,0,0,0,1.455,3.093h0s3.853-1.782,6.107.878a7.365,7.365,0,0,1,1.166,6.369A4.508,4.508,0,0,1,29.94,45.3a6.553,6.553,0,0,1-5.242-.629,12.7,12.7,0,0,0-1.979-1.311l-.026-.17a1.7,1.7,0,0,0-2.451,2.359l.079.079a4.508,4.508,0,0,0,.537.472h0a15.164,15.164,0,0,0,2.1,1.428,5.609,5.609,0,0,1,2.307,5.242C24.567,56.5,21.8,56.7,21.474,56.7a1.7,1.7,0,1,0,0,3.407A7.588,7.588,0,0,0,28.577,53.344Z" transform="translate(6.137 9.561)" fill="#b8c4e0"/>
                                            <path id="Tracé_93" data-name="Tracé 93" d="M33.911,53.341a10.17,10.17,0,0,0-8.99,6.238,1.7,1.7,0,0,0,3.145,1.311V60.8a6.749,6.749,0,0,1,5.91-4.05c3.787-.118,4.194,4.01,4.194,4.534a1.7,1.7,0,0,0,1.7,1.6h.1a1.7,1.7,0,0,0,1.6-1.8C41.421,58.321,39.612,53.158,33.911,53.341Z" transform="translate(7.696 16.562)" fill="#b8c4e0"/>
                                            <path id="Tracé_94" data-name="Tracé 94" d="M93,43.274c-2.726-2.293-6.867-1.625-7.038-1.586a1.549,1.549,0,0,0,.524,3.054,6.553,6.553,0,0,1,4.521.917,3.84,3.84,0,0,1,1.166,3.119,4.7,4.7,0,0,1-1.311,3.6,5.321,5.321,0,0,1-3.578,1.127,1.533,1.533,0,0,0-1.677,1.415,1.573,1.573,0,0,0,0,.5,5.53,5.53,0,0,1-.393,3.8,2.333,2.333,0,0,1-1.861.865,3.289,3.289,0,0,1-2.621-.695,4,4,0,0,1-.852-2.844,1.56,1.56,0,0,0-3.106-.236,7.064,7.064,0,0,0,1.782,5.242,5.871,5.871,0,0,0,4.364,1.651h.76a5.412,5.412,0,0,0,4.128-2.149,7.287,7.287,0,0,0,1.14-4.508,7.129,7.129,0,0,0,6.33-7.732A6.854,6.854,0,0,0,93,43.274Z" transform="translate(23.832 12.908)" fill="#b8c4e0"/>
                                          </g>
                                        </g>
                                      </g>
                                    </g>
                                  </g>
                                </g>
                              </g>
                              <g id="Groupe_10769" data-name="Groupe 10769" transform="translate(43.324 35.817)">
                                <path id="Tracé_22523" data-name="Tracé 22523" d="M51.761,27.33A61.294,61.294,0,0,1,42.8,33.083a57.571,57.571,0,0,1-9.737,3.722" transform="translate(-33.06 -27.33)" fill="none" stroke="#8595ba" stroke-linecap="round" stroke-linejoin="bevel" stroke-width="2"/>
                                <path id="Tracé_22935" data-name="Tracé 22935" d="M82.654,36.805a61.215,61.215,0,0,0-8.964-5.74,56.667,56.667,0,0,0-9.75-3.735" transform="translate(-23.471 -27.33)" fill="none" stroke="#8595ba" stroke-linecap="round" stroke-linejoin="bevel" stroke-width="2"/>
                              </g>
                              <g id="Groupe_11091" data-name="Groupe 11091" transform="translate(51.279 49.132)">
                                <g id="Groupe_10734" data-name="Groupe 10734" transform="translate(30.129)">
                                  <g id="Groupe_29" data-name="Groupe 29">
                                    <path id="Tracé_97" data-name="Tracé 97" d="M78.869,45.851a8.374,8.374,0,1,1-8.361-8.361A8.374,8.374,0,0,1,78.869,45.851Z" transform="translate(-62.12 -37.49)" fill="none" stroke="#8595ba" stroke-width="2"/>
                                    <path id="Tracé_98" data-name="Tracé 98" d="M76.089,44.656a3.289,3.289,0,1,1-3.316-3.276h0a3.276,3.276,0,0,1,3.316,3.276Z" transform="translate(-64.825 -36.282)" fill="#8595ba" stroke="#8595ba" stroke-width="2"/>
                                  </g>
                                </g>
                                <g id="Groupe_10742" data-name="Groupe 10742" transform="translate(0 0)">
                                  <g id="Groupe_29-2" data-name="Groupe 29-2">
                                    <path id="Tracé_97-2" data-name="Tracé 97-2" d="M55.852,45.851a8.361,8.361,0,1,1-8.361-8.361,8.361,8.361,0,0,1,8.361,8.361Z" transform="translate(-39.13 -37.49)" fill="none" stroke="#8595ba" stroke-width="2"/>
                                    <path id="Tracé_98-2" data-name="Tracé 98-2" d="M53.079,44.656a3.289,3.289,0,1,1-3.3-3.276h0a3.276,3.276,0,0,1,3.3,3.276Z" transform="translate(-40.841 -36.282)" fill="#8595ba" stroke="#8595ba" stroke-width="2"/>
                                  </g>
                                </g>
                              </g>
                            </g>
                          </g>
                        </g>
                        <g id="Groupe_11092" data-name="Groupe 11092" transform="translate(68.407 73.517)">
                          <g id="Groupe_22" data-name="Groupe 22">
                            <path id="Tracé_51" data-name="Tracé 51" d="M65.384,60.478a3.486,3.486,0,0,0-1.179-2.5,6.552,6.552,0,0,0-2.713-1.494,9.7,9.7,0,0,0-5.4,0,6.736,6.736,0,0,0-2.713,1.494,3.486,3.486,0,0,0-1.179,2.5c0,1.769,1.573.957,3.827.393a9.921,9.921,0,0,1,5.53,0C63.811,61.435,65.384,62.247,65.384,60.478Z" transform="translate(-52.2 -56.097)" fill="#8595ba"/>
                          </g>
                          <path id="Tracé_52" data-name="Tracé 52" d="M60.569,56.731a9.7,9.7,0,0,0-5.4,0,2.726,2.726,0,0,0,5.4,0Z" transform="translate(-51.278 -56.02)" fill="#8595ba"/>
                        </g>
                      </g>
                    </g>
                  </g>
                </g>
              </g>
            </g>
          </g>
        </g>
      </g>
    </g>
    <g id="Group_12962" data-name="Group 12962" transform="translate(11790 5854.043)">
      <g id="alert_1_" data-name="alert (1)" transform="translate(-11540 -5677)">
        <g id="Group_12961" data-name="Group 12961" transform="translate(0 0)">
          <g id="Group_12960" data-name="Group 12960">
            <g id="Group_12958" data-name="Group 12958">
              <path id="Path_24652" data-name="Path 24652" d="M.608,76.054,24.6,35.5a4.236,4.236,0,0,1,7.306,0L55.9,76.054a4.292,4.292,0,0,1-3.653,6.49H4.261a4.292,4.292,0,0,1-3.653-6.49Z" transform="translate(0 -33.412)" fill="#fd4755"/>
              <g id="Group_12957" data-name="Group 12957" transform="translate(3.4 3.404)">
                <path id="Path_24653" data-name="Path 24653" d="M180.893,187.451h32.282a4.292,4.292,0,0,0,3.653-6.49L199.3,151.333a30.331,30.331,0,0,1,.665,9.968c-1.722,17.294-17.472,25.357-18.493,25.858-.2.1-.388.2-.578.292Z" transform="translate(-164.329 -141.722)" fill="#fb2b3a"/>
                <path id="Path_24654" data-name="Path 24654" d="M31.67,106.576a.853.853,0,0,1-.718-1.342l23.993-40.55a.811.811,0,0,1,1.435,0l23.993,40.55a.851.851,0,0,1-.718,1.342H31.67Z" transform="translate(-30.81 -64.25)" fill="#fff"/>
                <path id="Path_24655" data-name="Path 24655" d="M473.387,436.929a.851.851,0,0,0,.718-1.342Z" transform="translate(-424.541 -394.604)" fill="#f7bc09"/>
              </g>
            </g>
            <g id="Group_12959" data-name="Group 12959" transform="translate(25.963 15.681)">
              <path id="Path_24656" data-name="Path 24656" d="M237.537,193.093a1.166,1.166,0,0,1-1.162-1.073l-1.121-14.052a2.29,2.29,0,1,1,4.566,0L238.7,192.02A1.166,1.166,0,0,1,237.537,193.093Z" transform="translate(-235.246 -175.496)" fill="#fb2b3a"/>
              <circle id="Ellipse_546" data-name="Ellipse 546" cx="1.831" cy="1.831" r="1.831" transform="translate(0.46 20.93)" fill="#fb2b3a"/>
            </g>
          </g>
        </g>
      </g>
    </g>
  </g>
</svg>
