<svg xmlns="http://www.w3.org/2000/svg" width="243.585" height="124.275" viewBox="0 0 243.585 124.275">
  <g id="Group_12963" data-name="Group 12963" transform="translate(-55 -155.335)">
    <g id="Group_12909" data-name="Group 12909" transform="translate(55 155.335)">
      <g id="Groupe_11172" data-name="Groupe 11172" transform="translate(0 8.884)">
        <g id="fusee" transform="translate(0 0)">
          <g id="OBJECTS">
            <g id="Groupe_10733" data-name="Groupe 10733">
              <path id="Tracé_20852" data-name="Tracé 20852" d="M207.628,106.291c-12.7,7.523-23.156,9.108-30.507,9.108-18.8-.08-44.049-10.533-53.663-11.2a130.24,130.24,0,0,0-14.047.08c-9.189.333-15.633,1.149-21.146,1.757-6.892.747-17.057,1.677-29.76,2.3-1,.161-22.972,2.837-34.274-13.048-.827-1.1-9.108-13.163-5.088-23.271,2.182-5.513,8.948-12.784,16.551-16.965,1.838-1,3.009-1.424,3.446-2.757,1.734-5.433-14.254-11.279-15.908-21.065C22.392,26.3,24.816,18.7,40.54,6.994c10.866-5.1,26.246-9.947,41.545-4.767,13.037,4.434,14.208,12.037,26.154,14.381,15.139,2.849,19.228-8.19,45.14-12.451,10.877-1.838,22.4-3.515,33.861,2.584,2.3,1.263,15.713,8.362,17.551,20.675,2.171,14.794-17.229,21.4-15.047,33.608,2.3,13.542,27.337,14.932,28.842,27.658C219.413,95.253,213.566,101.524,207.628,106.291Z" transform="translate(2.682 -0.008)" fill="#dfe4f4"/>
              <circle id="Ellipse_392" data-name="Ellipse 392" cx="8.442" cy="8.442" r="8.442" transform="translate(226.7 4.378)" fill="#dfe4f4"/>
              <circle id="Ellipse_393" data-name="Ellipse 393" cx="4.181" cy="4.181" r="4.181" transform="translate(216.076 23.686)" fill="#dfe4f4"/>
              <circle id="Ellipse_394" data-name="Ellipse 394" cx="6.604" cy="6.604" r="6.604" transform="translate(0 84.631)" fill="#dfe4f4"/>
              <circle id="Ellipse_395" data-name="Ellipse 395" cx="6.604" cy="6.604" r="6.604" transform="translate(223.266 65.99)" fill="#dfe4f4"/>
              <circle id="Ellipse_396" data-name="Ellipse 396" cx="6.604" cy="6.604" r="6.604" transform="translate(13.117 3.207)" fill="#dfe4f4"/>
            </g>
          </g>
        </g>
      </g>
      <g id="Groupe_11810" data-name="Groupe 11810" transform="translate(58.702)">
        <g id="Groupe_11809" data-name="Groupe 11809" transform="translate(0 0)">
          <path id="Tracé_24049" data-name="Tracé 24049" d="M1.231,25.121S27.474,17.761,36.567,12.24,48.377,5.18,47.006,2.234c-1.828-3.957-5.737.265-5.737.265s.77-1.84-.229-2.405S39.225,1.6,38.2,4.9s-.794,4.618-11.354,8.419S2.987,18.4.858,20.178,1.231,25.121,1.231,25.121Z" transform="translate(108.501 49.193) rotate(20)" fill="#8595ba"/>
          <g id="Groupe_11805" data-name="Groupe 11805">
            <g id="Groupe_11803" data-name="Groupe 11803">
              <g id="Groupe_11100" data-name="Groupe 11100">
                <g id="Groupe_11099" data-name="Groupe 11099">
                  <g id="Groupe_11095" data-name="Groupe 11095">
                    <g id="Groupe_11094" data-name="Groupe 11094">
                      <g id="Groupe_11093" data-name="Groupe 11093">
                        <g id="Groupe_11090" data-name="Groupe 11090">
                          <path id="Tracé_22543" data-name="Tracé 22543" d="M13.543,44.178S6.8,70.589,7,81.257s.241,13.723,3.476,14.011c4.342.4,2.646-5.1,2.646-5.1s1.2,1.588,2.153.974-.4-2.321-2.766-4.811S8.9,83.338,10.9,72.3s7.541-23.2,7.072-25.942S13.543,44.178,13.543,44.178Z" transform="translate(1.416 8.945)" fill="#8595ba"/>
                          <g id="Groupe_10797" data-name="Groupe 10797" transform="translate(37.324 72.342)">
                            <path id="Tracé_87" data-name="Tracé 87" d="M40.182,61s2.838,43.3,1.4,44.6-9.056.132-10.439,2.526,11.69,2.249,13.362.782,0-47.879,0-47.879Z" transform="translate(-31.035 -59.978)" fill="#8595ba"/>
                            <path id="Tracé_88" data-name="Tracé 88" d="M72.456,60.15s-2.79,43.3-1.4,44.584,9.044.132,10.439,2.514-11.69,2.249-13.374.83,0-47.879,0-47.879Z" transform="translate(-23.668 -60.15)" fill="#8595ba"/>
                          </g>
                          <g id="Groupe_10793" data-name="Groupe 10793">
                            <g id="Groupe_10771" data-name="Groupe 10771">
                              <g id="Groupe_10768" data-name="Groupe 10768">
                                <g id="Groupe_10740" data-name="Groupe 10740">
                                  <g id="Groupe_10740-2" data-name="Groupe 10740-2">
                                    <g id="Groupe_10738" data-name="Groupe 10738">
                                      <g id="Groupe_34" data-name="Groupe 34">
                                        <g id="Groupe_27" data-name="Groupe 27">
                                          <path id="Tracé_89" data-name="Tracé 89" d="M95.328,83.745c1.335.565,5.857,2.165,9.513-.168,4.342-2.778,4.342-6.086,4.342-6.086a12.652,12.652,0,0,0,12.676-2.947c6.086-5.556,3.307-16.645,3.307-16.645s5.689-2.959,5.039-9.068c-1.07-9.862-11.125-10.427-11.125-10.427s3.127-7.469-2.405-12.676a16.357,16.357,0,0,0-12.857-3.993,5.761,5.761,0,0,0-2.081-6.434c-3.476-2.405-6.254-.974-6.254-.974s.6-7.9-6.591-10.6a14.757,14.757,0,0,0-12.725,1.5S71.828.542,65.574,1.408A19.4,19.4,0,0,0,55.844,5.4,11.053,11.053,0,0,0,45.08,3a9.994,9.994,0,0,0-7.3,7.986S26.63,7.854,20.545,15.492s-3.127,14.035-3.127,14.035S7.387,28.156,4.26,37.705a16.838,16.838,0,0,0,2.6,15.984S-1.308,61.856,2.143,70.7a10.4,10.4,0,0,0,11.8,6.988A9.213,9.213,0,0,0,22.818,85.8C30.984,86.331,34.46,83.4,34.46,83.4S41.58,89.3,48.531,88.6,58.1,85.128,58.1,85.128s6.579,3.764,13.037,3.536a21.648,21.648,0,0,0,11.582-4.57,6.879,6.879,0,0,0,6.434,3.127C93.549,86.776,95.076,83.637,95.328,83.745Z" transform="translate(0.26 0.264)" fill="#f3f6fe"/>
                                          <g id="Groupe_26" data-name="Groupe 26">
                                            <path id="Tracé_90" data-name="Tracé 90" d="M132.02,48.926A13.013,13.013,0,0,0,121.376,37.38a12.688,12.688,0,0,0-3.392-12.532A17.62,17.62,0,0,0,105.957,20.3h-.084a7.024,7.024,0,0,0-3.031-6.013A8.756,8.756,0,0,0,98.032,12.5a10.127,10.127,0,0,0-1.01-2.874,12.484,12.484,0,0,0-7.336-7.1,14.974,14.974,0,0,0-5.244-.938,15.912,15.912,0,0,0-5.136.818h0l-.385.132-.216.084h0a15.707,15.707,0,0,0-2.057.986A14.685,14.685,0,0,0,67.351,0a12.472,12.472,0,0,0-1.768.12,22.021,22.021,0,0,0-9.417,3.548,12.688,12.688,0,0,0-7.5-2.466,13.735,13.735,0,0,0-3.752.541,11.51,11.51,0,0,0-8.034,7.685c-3.428-.493-11.666-.878-16.838,5.7-3.56,4.378-4.4,8.106-4.4,10.68h0a9.14,9.14,0,0,0,.108,1.624,14.432,14.432,0,0,0-12.7,10.043,18.546,18.546,0,0,0,2,16.285l-.3.361a1.539,1.539,0,0,0-.289.577C2.044,57.79-1.828,64.38.986,71.537c2.526,6.434,7.517,7.4,10.271,7.4a12.328,12.328,0,0,0,1.876-.144c.806,3.608,3.488,8.419,9.886,8.852.661,0,1.335.06,1.984.06a19.544,19.544,0,0,0,9.622-2.153c2.093,1.527,7.4,4.931,12.989,4.931a11.65,11.65,0,0,0,1.311-.072,21.228,21.228,0,0,0,8.611-2.526,5.388,5.388,0,0,0,1.058-.589,29.442,29.442,0,0,0,12.183,3.2H71.4a22.394,22.394,0,0,0,11.281-3.969,4.474,4.474,0,0,0,.553.517l.132.072a8.034,8.034,0,0,0,5.3,1.984h.9a9.706,9.706,0,0,0,6.362-3.211,14.745,14.745,0,0,0,4.618.806,9.766,9.766,0,0,0,5.34-1.479,10.969,10.969,0,0,0,4.751-5.532,14.108,14.108,0,0,0,2.658.253,14.432,14.432,0,0,0,9.91-3.969c5.556-5.075,4.558-13.915,3.993-17.054A10.74,10.74,0,0,0,132.02,48.926Zm-6.94,7.6c-.842-.253-1.864-.541-3.1-.842a6.11,6.11,0,0,0-6.206,1.624,5.244,5.244,0,0,0-1.01,5.412,4.462,4.462,0,0,0,4.522,2.947,7.3,7.3,0,0,0,2.333-.385,1.411,1.411,0,1,0-.914-2.67h0c-.108,0-2.646.878-3.283-.854a2.49,2.49,0,0,1,.445-2.514,3.343,3.343,0,0,1,3.416-.77c1.119.277,2.045.541,2.8.77.457,2.405,1.515,10.3-2.983,14.432a11.281,11.281,0,0,1-7.793,3.163,10.5,10.5,0,0,1-3.115-.457l-2.85-5.424a1.565,1.565,0,1,0-2.778,1.443l3.163,6.1a7.661,7.661,0,0,1-3.476,4.053,6.6,6.6,0,0,1-3.608.986,12.135,12.135,0,0,1-4.426-.962l-.3-.132H95.59a2.021,2.021,0,0,0-1.564.914,6.8,6.8,0,0,1-4.7,2.574h-.577a5.2,5.2,0,0,1-4.089-2.045,4.979,4.979,0,0,1-.746-2.947,2.562,2.562,0,0,1,1.2-2.141c2-1.2,2.971-.168,3.223.168a1.568,1.568,0,0,0,2.574-1.792c-.9-1.323-3.608-3.247-7.348-1.082a5.593,5.593,0,0,0-2.73,4.618,8.263,8.263,0,0,0,.4,3.067A19.58,19.58,0,0,1,71.4,87.388a25.329,25.329,0,0,1-10.788-2.6h0a10.1,10.1,0,0,0-.625-7.9c-1.984-4.426-6.783-4.282-9.044-3.608a1.563,1.563,0,1,0,.854,3.007h0c.168,0,3.909-1.2,5.28,1.888a7.216,7.216,0,0,1,.649,5.424,3.608,3.608,0,0,1-.253.481l-.241.241s-2.405,2.405-8.575,3.007a9.464,9.464,0,0,1-1.01,0c-4.7,0-9.417-3.079-11.185-4.354l.4-4.739a1.564,1.564,0,1,0-3.115-.265h0l-.385,4.7A16.309,16.309,0,0,1,25,84.55H23.2c-6.471-.421-7.156-7.024-7.216-7.649a4.282,4.282,0,0,1,2.309-3.416,3.368,3.368,0,0,1,2.081-.565h-.108l1.2-2.874c-.3-.132-1.948-.7-4.63.722a7.3,7.3,0,0,0-3.825,4.955,9.706,9.706,0,0,1-1.768.048c-3.476,0-5.953-1.816-7.361-5.412C.962,62.973,7.529,55.805,8.166,55.12a7.962,7.962,0,0,1,5.063-1.768,4.811,4.811,0,0,1,4.522,2.983,1.551,1.551,0,0,0,1.479,1.058,1.371,1.371,0,0,0,.493-.084,1.551,1.551,0,0,0,1.034-1.984h0a7.9,7.9,0,0,0-7.421-5.111A10.668,10.668,0,0,0,7.493,51.8,15.635,15.635,0,0,1,6.013,38.486a11.606,11.606,0,0,1,10.668-7.926,7.445,7.445,0,0,0,5.857,4.209,8.252,8.252,0,0,0,1.2.084,8.635,8.635,0,0,0,7.529-5.015,1.563,1.563,0,1,0-2.839-1.311c-.072.144-1.768,3.608-5.448,3.127a4.474,4.474,0,0,1-3.211-2l-.637-1.4a1.31,1.31,0,0,1-.1-.229,7.565,7.565,0,0,1-.3-2.081s0-.1,0-.144c0-1.96.71-4.979,3.692-8.744,4.642-5.833,12.508-4.811,14.673-4.438l2.2,4.955a1.534,1.534,0,1,0,2.79-1.275h0l-2.405-5.352a.421.421,0,0,1,0-.132A8.419,8.419,0,0,1,45.7,4.7a10.223,10.223,0,0,1,2.886-.421,9.549,9.549,0,0,1,6.326,2.405l.349.361a4.294,4.294,0,0,1,.6,4.233,3.5,3.5,0,0,1-3.3,2.2,1.564,1.564,0,0,0-.289,3.115h.349a6.615,6.615,0,0,0,6.014-3.969,7.048,7.048,0,0,0-.337-6.615,19.243,19.243,0,0,1,7.745-2.778,9.971,9.971,0,0,1,1.3-.108,11.57,11.57,0,0,1,6.9,2.55,7.361,7.361,0,0,0-1.612,3.259,6.362,6.362,0,0,0,4.4,7.7,1.347,1.347,0,0,0,.385,0,1.564,1.564,0,0,0,.373-3.079,3.235,3.235,0,0,1-2.1-3.933c.577-2.67,3.752-3.909,4.366-4.125a13.23,13.23,0,0,1,4.378-.758,11.883,11.883,0,0,1,4.149.746,9.477,9.477,0,0,1,5.532,5.34v.12a11.4,11.4,0,0,1,.89,3.488v2.634c-.529,2.177-1.7,2.177-2.213,2.177a3.38,3.38,0,0,1-1.78-.589A1.564,1.564,0,0,0,89.1,21.119a6.41,6.41,0,0,0,3.692,1.2c1.431,0,4.811-.577,5.46-5.869a3.237,3.237,0,0,1,.084-.9,6.254,6.254,0,0,1,2.694,1.287,4.137,4.137,0,0,1,1.5,4.642l-.854,2.466,2.586-.409a11.053,11.053,0,0,1,1.672-.108,14.432,14.432,0,0,1,9.862,3.692c4.113,3.861,2.658,9.2,2.177,10.6-.156.349-2.345,4.811-5.388,4.943a2.129,2.129,0,0,1-1.612-.361,1.407,1.407,0,0,1-.156-1.034,1.565,1.565,0,0,0-3.043-.734,4.546,4.546,0,0,0,.794,3.752,4.642,4.642,0,0,0,3.764,1.515h.4c3.692-.168,6.218-3.5,7.385-5.448a9.922,9.922,0,0,1,8.792,8.96,7.818,7.818,0,0,1-3.825,7.276Z" transform="translate(-0.002 0)" fill="#b8c4e0"/>
                                            <path id="Tracé_91" data-name="Tracé 91" d="M92.813,33.044A9.02,9.02,0,0,0,90.7,25c-5.015-6.1-12.688-4.727-17.427-2.574a10.981,10.981,0,0,0-7.421-8.335C60.111,12.141,55.7,16,53.653,18.359a14.276,14.276,0,0,0-10.524-3.8,9.622,9.622,0,0,0-8.419,6.723,8.214,8.214,0,0,0,2.67,9.429,9.549,9.549,0,0,0,12.688-.325A1.564,1.564,0,0,0,47.94,28.1h0a6.446,6.446,0,0,1-8.623.156,5.208,5.208,0,0,1-1.648-6.013A6.483,6.483,0,0,1,43.2,17.7c6.495-.132,9.08,3.8,9.189,3.969a1.563,1.563,0,0,0,2.153.505,1.708,1.708,0,0,0,.493-.481c0-.072,4.258-6.519,9.8-4.63a7.95,7.95,0,0,1,5.52,7.757,1.576,1.576,0,0,0,2.405,1.419c.4-.253,9.9-6.013,15.539.77a6.014,6.014,0,0,1,1.479,5.34A6.434,6.434,0,0,1,86.655,36.5c-2.045.926-4.606-.433-4.618-.445a1.576,1.576,0,0,0-2.129.625,1.551,1.551,0,0,0,.613,2.117h0a10.511,10.511,0,0,0,3.849,1.119,7.216,7.216,0,0,0,3.608-.553,9.622,9.622,0,0,0,4.835-6.314Z" transform="translate(6.925 2.748)" fill="#b8c4e0"/>
                                            <path id="Tracé_92" data-name="Tracé 92" d="M27.852,51.488a7.216,7.216,0,0,0-.373-4.017h0a8.347,8.347,0,0,0,2.67-.445A7.216,7.216,0,0,0,34.7,41.9a9.874,9.874,0,0,0-1.684-8.7c-2.874-3.368-7.348-2.514-9.357-1.588a1.568,1.568,0,0,0,1.335,2.838h0s3.536-1.636,5.6.806a6.759,6.759,0,0,1,1.07,5.845A4.137,4.137,0,0,1,29.1,44.1a6.014,6.014,0,0,1-4.811-.577,11.654,11.654,0,0,0-1.816-1.2l-.024-.156A1.564,1.564,0,0,0,20.2,44.332l.072.072a4.137,4.137,0,0,0,.493.433h0a13.916,13.916,0,0,0,1.924,1.311,5.148,5.148,0,0,1,2.117,4.811c-.637,3.428-3.175,3.608-3.476,3.608a1.564,1.564,0,1,0,0,3.127A6.964,6.964,0,0,0,27.852,51.488Z" transform="translate(4.006 6.241)" fill="#b8c4e0"/>
                                            <path id="Tracé_93" data-name="Tracé 93" d="M33.161,53.341a9.333,9.333,0,0,0-8.251,5.725,1.564,1.564,0,0,0,2.886,1.2v-.084a6.194,6.194,0,0,1,5.424-3.716c3.476-.108,3.849,3.68,3.849,4.161A1.564,1.564,0,0,0,38.633,62.1h.1A1.564,1.564,0,0,0,40.2,60.449C40.052,57.911,38.393,53.172,33.161,53.341Z" transform="translate(5.023 10.811)" fill="#b8c4e0"/>
                                            <path id="Tracé_94" data-name="Tracé 94" d="M91.662,43.134c-2.5-2.1-6.3-1.491-6.459-1.455a1.422,1.422,0,0,0,.481,2.8,6.013,6.013,0,0,1,4.149.842,3.524,3.524,0,0,1,1.07,2.862,4.318,4.318,0,0,1-1.2,3.307,4.883,4.883,0,0,1-3.283,1.034,1.407,1.407,0,0,0-1.539,1.3,1.443,1.443,0,0,0,0,.457,5.075,5.075,0,0,1-.361,3.488,2.141,2.141,0,0,1-1.708.794,3.019,3.019,0,0,1-2.405-.637,3.668,3.668,0,0,1-.782-2.61,1.431,1.431,0,0,0-2.85-.216,6.483,6.483,0,0,0,1.636,4.811,5.388,5.388,0,0,0,4,1.515h.7A4.967,4.967,0,0,0,86.9,59.454a6.687,6.687,0,0,0,1.046-4.137,6.543,6.543,0,0,0,5.809-7.1,6.29,6.29,0,0,0-2.093-5.087Z" transform="translate(15.556 8.426)" fill="#b8c4e0"/>
                                          </g>
                                        </g>
                                      </g>
                                    </g>
                                  </g>
                                </g>
                              </g>
                              <g id="Groupe_10769" data-name="Groupe 10769" transform="translate(39.759 32.87)">
                                <path id="Tracé_22523" data-name="Tracé 22523" d="M50.223,27.33A56.251,56.251,0,0,1,42,32.61a52.834,52.834,0,0,1-8.936,3.416" transform="translate(-33.06 -27.33)" fill="none" stroke="#8595ba" stroke-linecap="round" stroke-linejoin="bevel" stroke-width="2"/>
                                <path id="Tracé_22935" data-name="Tracé 22935" d="M81.115,36.026a56.178,56.178,0,0,0-8.226-5.268A52,52,0,0,0,63.94,27.33" transform="translate(-26.801 -27.33)" fill="none" stroke="#8595ba" stroke-linecap="round" stroke-linejoin="bevel" stroke-width="2"/>
                              </g>
                              <g id="Groupe_11091" data-name="Groupe 11091" transform="translate(47.06 45.089)">
                                <g id="Groupe_10734" data-name="Groupe 10734" transform="translate(27.65)">
                                  <g id="Groupe_29" data-name="Groupe 29">
                                    <path id="Tracé_97" data-name="Tracé 97" d="M77.491,45.163a7.685,7.685,0,1,1-7.673-7.673A7.685,7.685,0,0,1,77.491,45.163Z" transform="translate(-62.12 -37.49)" fill="none" stroke="#8595ba" stroke-width="2"/>
                                    <path id="Tracé_98" data-name="Tracé 98" d="M75.548,44.387A3.019,3.019,0,1,1,72.5,41.38h0a3.007,3.007,0,0,1,3.043,3.007Z" transform="translate(-65.21 -36.702)" fill="#8595ba" stroke="#8595ba" stroke-width="2"/>
                                  </g>
                                </g>
                                <g id="Groupe_10742" data-name="Groupe 10742" transform="translate(0 0)">
                                  <g id="Groupe_29-2" data-name="Groupe 29-2">
                                    <path id="Tracé_97-2" data-name="Tracé 97-2" d="M54.476,45.163A7.673,7.673,0,1,1,46.8,37.49a7.673,7.673,0,0,1,7.673,7.673Z" transform="translate(-39.13 -37.49)" fill="none" stroke="#8595ba" stroke-width="2"/>
                                    <path id="Tracé_98-2" data-name="Tracé 98-2" d="M52.538,44.387a3.019,3.019,0,1,1-3.031-3.007h0a3.007,3.007,0,0,1,3.031,3.007Z" transform="translate(-41.307 -36.702)" fill="#8595ba" stroke="#8595ba" stroke-width="2"/>
                                  </g>
                                </g>
                              </g>
                            </g>
                          </g>
                        </g>
                        <g id="Groupe_11092" data-name="Groupe 11092" transform="translate(62.779 67.468)">
                          <g id="Groupe_22" data-name="Groupe 22">
                            <path id="Tracé_51" data-name="Tracé 51" d="M64.3,60.118a3.2,3.2,0,0,0-1.082-2.3,6.013,6.013,0,0,0-2.49-1.371,8.9,8.9,0,0,0-4.955,0,6.182,6.182,0,0,0-2.49,1.371,3.2,3.2,0,0,0-1.082,2.3c0,1.624,1.443.878,3.512.361a9.1,9.1,0,0,1,5.075,0C62.856,61,64.3,61.741,64.3,60.118Z" transform="translate(-52.2 -56.097)" fill="#8595ba"/>
                          </g>
                          <path id="Tracé_52" data-name="Tracé 52" d="M60.125,56.7a8.9,8.9,0,0,0-4.955,0,2.5,2.5,0,0,0,4.955,0Z" transform="translate(-51.598 -56.047)" fill="#8595ba"/>
                        </g>
                      </g>
                    </g>
                  </g>
                </g>
              </g>
            </g>
          </g>
        </g>
      </g>
    </g>
    <g id="Group_12962" data-name="Group 12962" transform="translate(233.956 174.339)">
      <g id="alert_1_" data-name="alert (1)" transform="translate(0 0)">
        <g id="Group_12961" data-name="Group 12961" transform="translate(0 0)">
          <g id="Group_12960" data-name="Group 12960">
            <g id="Group_12958" data-name="Group 12958">
              <path id="Path_24652" data-name="Path 24652" d="M.558,72.546,22.577,35.331a3.887,3.887,0,0,1,6.705,0L51.3,72.546A3.939,3.939,0,0,1,47.949,78.5H3.91A3.938,3.938,0,0,1,.558,72.546Z" transform="translate(0 -33.412)" fill="#fd4755"/>
              <g id="Group_12957" data-name="Group 12957" transform="translate(3.121 3.124)">
                <path id="Path_24653" data-name="Path 24653" d="M180.893,184.48h29.626a3.938,3.938,0,0,0,3.353-5.956l-16.088-27.19a27.835,27.835,0,0,1,.611,9.148c-1.58,15.871-16.035,23.271-16.971,23.73-.18.093-.356.182-.53.268Z" transform="translate(-165.692 -142.513)" fill="#fb2b3a"/>
                <path id="Path_24654" data-name="Path 24654" d="M31.6,103.094a.783.783,0,0,1-.659-1.232L52.959,64.647a.745.745,0,0,1,1.317,0L76.3,101.861a.781.781,0,0,1-.659,1.232H31.6Z" transform="translate(-30.81 -64.25)" fill="#fff"/>
                <path id="Path_24655" data-name="Path 24655" d="M473.387,436.819a.781.781,0,0,0,.659-1.232Z" transform="translate(-428.56 -397.976)" fill="#f7bc09"/>
              </g>
            </g>
            <g id="Group_12959" data-name="Group 12959" transform="translate(23.827 14.391)">
              <path id="Path_24656" data-name="Path 24656" d="M237.348,191.646a1.07,1.07,0,0,1-1.066-.985l-1.029-12.9a2.1,2.1,0,1,1,4.191,0l-1.029,12.9A1.07,1.07,0,0,1,237.348,191.646Z" transform="translate(-235.246 -175.496)" fill="#fb2b3a"/>
              <circle id="Ellipse_546" data-name="Ellipse 546" cx="1.68" cy="1.68" r="1.68" transform="translate(0.422 19.208)" fill="#fb2b3a"/>
            </g>
          </g>
        </g>
      </g>
    </g>
  </g>
</svg>
