<svg xmlns="http://www.w3.org/2000/svg" width="177" height="122.788" viewBox="0 0 177 122.788">
  <g id="Groupe_11810" data-name="Groupe 11810" transform="translate(-0.002 0)">
    <g id="Groupe_11809" data-name="Groupe 11809" transform="translate(0.002 0)">
      <path id="Tracé_24049" data-name="Tracé 24049" d="M88.982,48.53s26.334,7.386,35.458,12.926S136.291,68.54,134.916,71.5c-1.834,3.971-5.757-.266-5.757-.266s.772,1.847-.229,2.414-1.822-1.509-2.848-4.828-.8-4.634-11.393-8.448S90.744,55.276,88.608,53.49,88.982,48.53,88.982,48.53Z" transform="translate(18.151 10.04)" fill="#8595ba"/>
      <g id="Groupe_11805" data-name="Groupe 11805">
        <g id="Groupe_11803" data-name="Groupe 11803">
          <g id="Groupe_11100" data-name="Groupe 11100">
            <g id="Groupe_11099" data-name="Groupe 11099">
              <g id="Groupe_11095" data-name="Groupe 11095">
                <g id="Groupe_11094" data-name="Groupe 11094">
                  <g id="Groupe_11093" data-name="Groupe 11093">
                    <g id="Groupe_11090" data-name="Groupe 11090">
                      <path id="Tracé_22543" data-name="Tracé 22543" d="M13.566,44.178S6.8,70.681,7,81.386s.241,13.771,3.488,14.06c4.357.4,2.655-5.117,2.655-5.117s1.207,1.593,2.16.978-.4-2.329-2.776-4.828S8.908,83.474,10.911,72.4s7.567-23.281,7.1-26.032S13.566,44.178,13.566,44.178Z" transform="translate(1.446 9.13)" fill="#8595ba"/>
                      <g id="Groupe_10797" data-name="Groupe 10797" transform="translate(37.454 72.594)">
                        <path id="Tracé_87" data-name="Tracé 87" d="M40.213,61s2.848,43.448,1.4,44.751-9.088.133-10.476,2.534,11.731,2.257,13.408.784,0-48.046,0-48.046Z" transform="translate(-31.035 -59.974)" fill="#8595ba"/>
                        <path id="Tracé_88" data-name="Tracé 88" d="M72.473,60.15s-2.8,43.448-1.4,44.739,9.076.133,10.476,2.522-11.731,2.257-13.421.833,0-48.046,0-48.046Z" transform="translate(-23.516 -60.15)" fill="#8595ba"/>
                      </g>
                      <g id="Groupe_10793" data-name="Groupe 10793">
                        <g id="Groupe_10771" data-name="Groupe 10771">
                          <g id="Groupe_10768" data-name="Groupe 10768">
                            <g id="Groupe_10740" data-name="Groupe 10740">
                              <g id="Groupe_10740-2" data-name="Groupe 10740-2">
                                <g id="Groupe_10738" data-name="Groupe 10738">
                                  <g id="Groupe_34" data-name="Groupe 34">
                                    <g id="Groupe_27" data-name="Groupe 27">
                                      <path id="Tracé_89" data-name="Tracé 89" d="M95.655,84.031c1.34.567,5.878,2.172,9.546-.169,4.357-2.788,4.357-6.107,4.357-6.107A12.7,12.7,0,0,0,122.279,74.8c6.107-5.576,3.319-16.7,3.319-16.7s5.709-2.969,5.057-9.1c-1.074-9.9-11.164-10.464-11.164-10.464s3.138-7.495-2.414-12.721a16.414,16.414,0,0,0-12.9-4.007,5.781,5.781,0,0,0-2.088-6.457c-3.488-2.414-6.276-.978-6.276-.978s.6-7.929-6.614-10.633A14.808,14.808,0,0,0,76.43,5.246S72.073.539,65.8,1.408a19.467,19.467,0,0,0-9.764,4.007A11.091,11.091,0,0,0,45.232,3a10.029,10.029,0,0,0-7.326,8.014S26.718,7.877,20.612,15.541s-3.138,14.084-3.138,14.084S7.408,28.249,4.27,37.832A16.9,16.9,0,0,0,6.877,53.871s-8.195,8.195-4.731,17.065a10.44,10.44,0,0,0,11.84,7.012A9.245,9.245,0,0,0,22.893,86.1c8.195.531,11.683-2.414,11.683-2.414S41.72,89.607,48.7,88.907,58.3,85.419,58.3,85.419s6.6,3.778,13.083,3.548a21.724,21.724,0,0,0,11.622-4.586,6.9,6.9,0,0,0,6.457,3.138C93.869,87.073,95.4,83.923,95.655,84.031Z" transform="translate(0.266 0.269)" fill="#f3f6fe"/>
                                      <g id="Groupe_26" data-name="Groupe 26">
                                        <path id="Tracé_90" data-name="Tracé 90" d="M132.479,49.1A13.058,13.058,0,0,0,121.8,37.51a12.733,12.733,0,0,0-3.4-12.576,17.681,17.681,0,0,0-12.069-4.562h-.084a7.048,7.048,0,0,0-3.041-6.034,8.786,8.786,0,0,0-4.828-1.8,10.162,10.162,0,0,0-1.014-2.884A12.527,12.527,0,0,0,90,2.534a15.026,15.026,0,0,0-5.262-.941,15.967,15.967,0,0,0-5.153.821h0l-.386.133-.217.084h0a15.761,15.761,0,0,0-2.064.99A14.736,14.736,0,0,0,67.585,0a12.516,12.516,0,0,0-1.774.121,22.1,22.1,0,0,0-9.45,3.56A12.733,12.733,0,0,0,48.83,1.207a13.783,13.783,0,0,0-3.765.543A11.55,11.55,0,0,0,37,9.462c-3.44-.495-11.707-.881-16.9,5.721-3.572,4.393-4.417,8.134-4.417,10.717h0a9.172,9.172,0,0,0,.109,1.629A14.483,14.483,0,0,0,3.053,37.606a18.61,18.61,0,0,0,2,16.341l-.3.362a1.545,1.545,0,0,0-.29.579c-2.414,3.1-6.3,9.715-3.476,16.9,2.534,6.457,7.543,7.422,10.307,7.422a12.369,12.369,0,0,0,1.883-.145c.809,3.621,3.5,8.448,9.921,8.883.664,0,1.34.06,1.991.06a19.612,19.612,0,0,0,9.655-2.16c2.1,1.533,7.422,4.948,13.034,4.948a11.693,11.693,0,0,0,1.316-.072,21.3,21.3,0,0,0,8.641-2.534A5.407,5.407,0,0,0,58.8,87.6a29.544,29.544,0,0,0,12.226,3.21h.628a22.472,22.472,0,0,0,11.321-3.983,4.489,4.489,0,0,0,.555.519l.133.072a8.062,8.062,0,0,0,5.322,1.991h.905a9.74,9.74,0,0,0,6.384-3.222,14.8,14.8,0,0,0,4.634.809,9.8,9.8,0,0,0,5.359-1.484,11.007,11.007,0,0,0,4.767-5.552,14.157,14.157,0,0,0,2.667.253,14.483,14.483,0,0,0,9.945-3.983c5.576-5.093,4.574-13.964,4.007-17.114A10.777,10.777,0,0,0,132.479,49.1Zm-6.964,7.627c-.845-.253-1.871-.543-3.114-.845a6.131,6.131,0,0,0-6.228,1.629,5.262,5.262,0,0,0-1.014,5.431A4.478,4.478,0,0,0,119.7,65.9a7.326,7.326,0,0,0,2.341-.386,1.416,1.416,0,0,0-.917-2.679h0c-.109,0-2.655.881-3.295-.857a2.5,2.5,0,0,1,.447-2.522,3.355,3.355,0,0,1,3.428-.772c1.122.278,2.052.543,2.812.772.459,2.414,1.521,10.331-2.993,14.483a11.321,11.321,0,0,1-7.821,3.174,10.536,10.536,0,0,1-3.126-.459l-2.86-5.443a1.571,1.571,0,1,0-2.788,1.448l3.174,6.119a7.688,7.688,0,0,1-3.488,4.067,6.626,6.626,0,0,1-3.621.99,12.177,12.177,0,0,1-4.441-.966l-.3-.133h-.326a2.028,2.028,0,0,0-1.569.917,6.819,6.819,0,0,1-4.719,2.583h-.579a5.214,5.214,0,0,1-4.1-2.052,5,5,0,0,1-.748-2.957,2.571,2.571,0,0,1,1.207-2.148c2-1.207,2.981-.169,3.234.169a1.574,1.574,0,0,0,2.583-1.8c-.905-1.328-3.621-3.259-7.374-1.086a5.612,5.612,0,0,0-2.74,4.634,8.292,8.292,0,0,0,.4,3.078,19.648,19.648,0,0,1-9.86,3.621,25.417,25.417,0,0,1-10.826-2.607h0a10.138,10.138,0,0,0-.628-7.929c-1.991-4.441-6.807-4.3-9.076-3.621a1.568,1.568,0,1,0,.857,3.017h0c.169,0,3.922-1.207,5.3,1.895a7.241,7.241,0,0,1,.652,5.443,3.619,3.619,0,0,1-.253.483l-.241.241s-2.414,2.414-8.605,3.017a9.5,9.5,0,0,1-1.014,0c-4.719,0-9.45-3.09-11.224-4.369l.4-4.755a1.569,1.569,0,1,0-3.126-.266h0l-.386,4.719a16.365,16.365,0,0,1-8.388,1.883H23.28c-6.493-.422-7.181-7.048-7.241-7.676a4.3,4.3,0,0,1,2.317-3.428,3.379,3.379,0,0,1,2.088-.567h-.109l1.207-2.884c-.3-.133-1.955-.7-4.646.724a7.326,7.326,0,0,0-3.838,4.972,9.739,9.739,0,0,1-1.774.048C7.8,76.034,5.31,74.211,3.9,70.6.965,63.192,7.555,56,8.194,55.311a7.99,7.99,0,0,1,5.081-1.774,4.828,4.828,0,0,1,4.538,2.993A1.557,1.557,0,0,0,19.3,57.592a1.376,1.376,0,0,0,.495-.084,1.557,1.557,0,0,0,1.038-1.991h0a7.929,7.929,0,0,0-7.446-5.129A10.705,10.705,0,0,0,7.519,51.98,15.689,15.689,0,0,1,6.034,38.62a11.646,11.646,0,0,1,10.705-7.953,7.471,7.471,0,0,0,5.878,4.224,8.28,8.28,0,0,0,1.207.084,8.665,8.665,0,0,0,7.555-5.033,1.569,1.569,0,1,0-2.848-1.316c-.072.145-1.774,3.621-5.467,3.138a4.49,4.49,0,0,1-3.222-2l-.64-1.4a1.315,1.315,0,0,1-.1-.229,7.591,7.591,0,0,1-.3-2.088s0-.1,0-.145c0-1.967.712-5,3.705-8.774,4.659-5.853,12.552-4.828,14.724-4.453l2.209,4.972a1.539,1.539,0,1,0,2.8-1.279h0l-2.414-5.371a.422.422,0,0,1,0-.133,8.448,8.448,0,0,1,6.034-6.143,10.258,10.258,0,0,1,2.9-.422A9.583,9.583,0,0,1,55.106,6.71l.35.362a4.309,4.309,0,0,1,.6,4.248,3.512,3.512,0,0,1-3.307,2.209,1.57,1.57,0,0,0-.29,3.126h.35a6.638,6.638,0,0,0,6.034-3.983,7.072,7.072,0,0,0-.338-6.638,19.31,19.31,0,0,1,7.772-2.788,10.005,10.005,0,0,1,1.3-.109A11.61,11.61,0,0,1,74.513,5.7,7.386,7.386,0,0,0,72.9,8.967a6.384,6.384,0,0,0,4.417,7.724,1.352,1.352,0,0,0,.386,0,1.569,1.569,0,0,0,.374-3.09,3.247,3.247,0,0,1-2.112-3.947c.579-2.679,3.765-3.922,4.381-4.14a13.276,13.276,0,0,1,4.393-.76A11.924,11.924,0,0,1,88.9,5.5a9.51,9.51,0,0,1,5.552,5.359v.121a11.441,11.441,0,0,1,.893,3.5v2.643c-.531,2.184-1.7,2.184-2.221,2.184a3.391,3.391,0,0,1-1.786-.591,1.569,1.569,0,0,0-1.931,2.474A6.433,6.433,0,0,0,93.111,22.4c1.436,0,4.828-.579,5.479-5.89a3.248,3.248,0,0,1,.084-.905,6.276,6.276,0,0,1,2.7,1.291,4.152,4.152,0,0,1,1.509,4.659l-.857,2.474,2.595-.41a11.091,11.091,0,0,1,1.678-.109,14.483,14.483,0,0,1,9.9,3.705c4.128,3.874,2.667,9.233,2.184,10.633-.157.35-2.353,4.828-5.407,4.96a2.136,2.136,0,0,1-1.617-.362,1.412,1.412,0,0,1-.157-1.038,1.57,1.57,0,0,0-3.053-.736,4.562,4.562,0,0,0,.8,3.765,4.659,4.659,0,0,0,3.778,1.521h.4c3.705-.169,6.24-3.512,7.41-5.467a9.957,9.957,0,0,1,8.822,8.991,7.845,7.845,0,0,1-3.838,7.3Z" transform="translate(-0.002 0)" fill="#b8c4e0"/>
                                        <path id="Tracé_91" data-name="Tracé 91" d="M93.017,33.112a9.052,9.052,0,0,0-2.124-8.074C85.86,18.919,78.16,20.295,73.4,22.455a11.019,11.019,0,0,0-7.446-8.364C60.2,12.136,55.772,16.01,53.721,18.376a14.326,14.326,0,0,0-10.56-3.814,9.655,9.655,0,0,0-8.448,6.746,8.243,8.243,0,0,0,2.679,9.462,9.583,9.583,0,0,0,12.733-.326,1.569,1.569,0,0,0-2.136-2.293h0a6.469,6.469,0,0,1-8.653.157,5.226,5.226,0,0,1-1.653-6.034,6.505,6.505,0,0,1,5.552-4.562c6.517-.133,9.112,3.814,9.221,3.983a1.569,1.569,0,0,0,2.16.507,1.714,1.714,0,0,0,.495-.483c0-.072,4.272-6.541,9.836-4.646a7.977,7.977,0,0,1,5.54,7.784A1.581,1.581,0,0,0,72.9,26.281c.4-.253,9.933-6.034,15.593.772a6.034,6.034,0,0,1,1.484,5.359,6.457,6.457,0,0,1-3.138,4.164c-2.052.929-4.622-.434-4.634-.447a1.581,1.581,0,0,0-2.136.628,1.557,1.557,0,0,0,.616,2.124h0A10.548,10.548,0,0,0,84.544,40a7.241,7.241,0,0,0,3.621-.555,9.655,9.655,0,0,0,4.852-6.336Z" transform="translate(7.068 2.805)" fill="#b8c4e0"/>
                                        <path id="Tracé_92" data-name="Tracé 92" d="M27.88,51.56a7.241,7.241,0,0,0-.374-4.031h0a8.376,8.376,0,0,0,2.679-.447,7.241,7.241,0,0,0,4.562-5.141,9.908,9.908,0,0,0-1.69-8.726c-2.884-3.379-7.374-2.522-9.39-1.593a1.574,1.574,0,0,0,1.34,2.848h0s3.548-1.641,5.624.809a6.783,6.783,0,0,1,1.074,5.865,4.152,4.152,0,0,1-2.571,3.005,6.034,6.034,0,0,1-4.828-.579,11.694,11.694,0,0,0-1.822-1.207l-.024-.157A1.569,1.569,0,0,0,20.2,44.379l.072.072a4.151,4.151,0,0,0,.495.434h0A13.964,13.964,0,0,0,22.7,46.2a5.165,5.165,0,0,1,2.124,4.828c-.64,3.44-3.186,3.621-3.488,3.621a1.569,1.569,0,0,0,0,3.138A6.988,6.988,0,0,0,27.88,51.56Z" transform="translate(4.088 6.37)" fill="#b8c4e0"/>
                                        <path id="Tracé_93" data-name="Tracé 93" d="M33.19,53.341a9.365,9.365,0,0,0-8.279,5.745,1.569,1.569,0,0,0,2.9,1.207v-.084a6.215,6.215,0,0,1,5.443-3.729c3.488-.109,3.862,3.693,3.862,4.176a1.569,1.569,0,0,0,1.569,1.472h.1a1.569,1.569,0,0,0,1.472-1.653C40.105,57.927,38.44,53.172,33.19,53.341Z" transform="translate(5.127 11.034)" fill="#b8c4e0"/>
                                        <path id="Tracé_94" data-name="Tracé 94" d="M91.714,43.139c-2.51-2.112-6.324-1.5-6.481-1.46a1.427,1.427,0,0,0,.483,2.812,6.034,6.034,0,0,1,4.164.845,3.536,3.536,0,0,1,1.074,2.872,4.333,4.333,0,0,1-1.207,3.319,4.9,4.9,0,0,1-3.295,1.038,1.412,1.412,0,0,0-1.545,1.3,1.448,1.448,0,0,0,0,.459,5.093,5.093,0,0,1-.362,3.5,2.148,2.148,0,0,1-1.714.8,3.029,3.029,0,0,1-2.414-.64,3.681,3.681,0,0,1-.784-2.619,1.436,1.436,0,0,0-2.86-.217,6.505,6.505,0,0,0,1.641,4.828A5.407,5.407,0,0,0,82.433,61.5h.7a4.984,4.984,0,0,0,3.8-1.979,6.71,6.71,0,0,0,1.05-4.152,6.565,6.565,0,0,0,5.829-7.121,6.312,6.312,0,0,0-2.1-5.105Z" transform="translate(15.877 8.6)" fill="#b8c4e0"/>
                                      </g>
                                    </g>
                                  </g>
                                </g>
                              </g>
                            </g>
                          </g>
                          <g id="Groupe_10769" data-name="Groupe 10769" transform="translate(39.898 32.984)">
                            <path id="Tracé_22523" data-name="Tracé 22523" d="M50.282,27.33a56.446,56.446,0,0,1-8.255,5.3,53.018,53.018,0,0,1-8.967,3.428" transform="translate(-33.06 -27.33)" fill="none" stroke="#8595ba" stroke-linecap="round" stroke-linejoin="bevel" stroke-width="2"/>
                            <path id="Tracé_22935" data-name="Tracé 22935" d="M81.174,36.056a56.373,56.373,0,0,0-8.255-5.286,52.186,52.186,0,0,0-8.979-3.44" transform="translate(-26.672 -27.33)" fill="none" stroke="#8595ba" stroke-linecap="round" stroke-linejoin="bevel" stroke-width="2"/>
                          </g>
                          <g id="Groupe_11091" data-name="Groupe 11091" transform="translate(47.223 45.246)">
                            <g id="Groupe_10734" data-name="Groupe 10734" transform="translate(27.746)">
                              <g id="Groupe_29" data-name="Groupe 29">
                                <path id="Tracé_97" data-name="Tracé 97" d="M77.544,45.19a7.712,7.712,0,1,1-7.7-7.7A7.712,7.712,0,0,1,77.544,45.19Z" transform="translate(-62.12 -37.49)" fill="none" stroke="#8595ba" stroke-width="2"/>
                                <path id="Tracé_98" data-name="Tracé 98" d="M75.569,44.4a3.029,3.029,0,1,1-3.053-3.017h0A3.017,3.017,0,0,1,75.569,44.4Z" transform="translate(-60.591 -36.685)" fill="#8595ba" stroke="#8595ba" stroke-width="2"/>
                              </g>
                            </g>
                            <g id="Groupe_10742" data-name="Groupe 10742" transform="translate(0 0)">
                              <g id="Groupe_29-2" data-name="Groupe 29-2">
                                <path id="Tracé_97-2" data-name="Tracé 97-2" d="M54.53,45.19a7.7,7.7,0,1,1-7.7-7.7,7.7,7.7,0,0,1,7.7,7.7Z" transform="translate(-39.13 -37.49)" fill="none" stroke="#8595ba" stroke-width="2"/>
                                <path id="Tracé_98-2" data-name="Tracé 98-2" d="M52.559,44.4a3.029,3.029,0,1,1-3.041-3.017h0A3.017,3.017,0,0,1,52.559,44.4Z" transform="translate(-37.605 -36.685)" fill="#8595ba" stroke="#8595ba" stroke-width="2"/>
                              </g>
                            </g>
                          </g>
                        </g>
                      </g>
                    </g>
                    <g id="Groupe_11092" data-name="Groupe 11092" transform="translate(62.997 67.703)">
                      <g id="Groupe_22" data-name="Groupe 22">
                        <path id="Tracé_51" data-name="Tracé 51" d="M64.341,60.131a3.21,3.21,0,0,0-1.086-2.305,6.034,6.034,0,0,0-2.5-1.376,8.931,8.931,0,0,0-4.972,0,6.2,6.2,0,0,0-2.5,1.376A3.21,3.21,0,0,0,52.2,60.131c0,1.629,1.448.881,3.524.362a9.136,9.136,0,0,1,5.093,0C62.893,61.013,64.341,61.761,64.341,60.131Z" transform="translate(-52.2 -56.097)" fill="#8595ba"/>
                      </g>
                      <path id="Tracé_52" data-name="Tracé 52" d="M60.142,56.7a8.931,8.931,0,0,0-4.972,0,2.51,2.51,0,0,0,4.972,0Z" transform="translate(-51.586 -56.046)" fill="#8595ba"/>
                    </g>
                  </g>
                </g>
              </g>
            </g>
          </g>
        </g>
      </g>
      <g id="trash" transform="translate(127.915 69.431)">
        <path id="Tracé_24050" data-name="Tracé 24050" d="M112.15,75.175h27.758L126.754,62.02a.893.893,0,0,1,0-1.207l2.51-2.522a2.74,2.74,0,0,1,3.79,0l2.028,1.979-1.207,1.207-2.04-2.028a.917.917,0,0,0-1.267,0l-1.895,1.883,21.446,21.446,1.859-1.847a.881.881,0,0,0,0-1.207L135.564,63.311l1.207-1.207,1.207,1.207,1.207-1.207a2.679,2.679,0,0,1,3.79,0l6.3,6.3a2.679,2.679,0,0,1,0,3.79L148.067,73.4l5.117,5.021a2.679,2.679,0,0,1,0,3.814h0l-2.522,2.522a.893.893,0,0,1-1.207,0l-4.743-4.743-3.753,28.555a2.679,2.679,0,0,1-2.655,2.317H118.185a2.667,2.667,0,0,1-2.655-2.317l-3.09-23.438,1.774-.229,3.078,23.426a.905.905,0,0,0,.893.784h20.058a.905.905,0,0,0,.881-.784l3.934-29.907-1.424-1.436H113.188l.567,4.345-1.774.241-.7-5.371a.893.893,0,0,1,.76-1Zm35.989-4.333a.905.905,0,0,0,0-1.207l-6.312-6.312a.893.893,0,0,0-1.207,0l-1.207,1.267,7.567,7.567Z" transform="translate(-104.897 -57.53)" fill="#8595ba"/>
        <path id="Tracé_24055" data-name="Tracé 24055" d="M115.6,65.749l.857-1.714a.905.905,0,0,1,.978-.483l4.465.893a.893.893,0,0,1,.712.881V67.1a1.207,1.207,0,0,1,0,.217l-.893,3.621a.893.893,0,0,1-.869.676h-.109l-7.133-.893a.893.893,0,0,1-.772-1A.772.772,0,0,1,113,69.3Zm4.55,3.947L120.821,67v-.953l-3.078-.616-.591,1.207-.084.133-1.75,2.341Z" transform="translate(-104.576 -56.287)" fill="#8595ba"/>
        <path id="Tracé_24057" data-name="Tracé 24057" d="M114.378,63.368l-1.086,1.412a8.653,8.653,0,0,0-6.94-1.617l-.362-1.738a10.427,10.427,0,0,1,8.388,1.943Z" transform="translate(-105.99 -56.766)" fill="#8595ba"/>
        <path id="Tracé_24058" data-name="Tracé 24058" d="M110.146,65.76H108.36v1.774h1.786Z" transform="translate(-105.5 -55.827)" fill="#8595ba"/>
      </g>
    </g>
  </g>
</svg>
