<svg xmlns="http://www.w3.org/2000/svg" width="155.016" height="122.236" viewBox="0 0 155.016 122.236">
  <g id="Groupe_10788" data-name="Groupe 10788" transform="translate(0)">
    <g id="Groupe_10778" data-name="Groupe 10778" transform="translate(0)">
      <g id="Groupe_10774" data-name="Groupe 10774" transform="translate(132.746 21.186)">
        <path id="Tracé_22528" data-name="Tracé 22528" d="M663.41,140.715a7.644,7.644,0,0,1,.527-.85,139.626,139.626,0,0,0,16.323.535c5.726-.2-3.377-20.233-6.375-26.18-.565-1.125-5.189-1.212-5.181-2.551s2.3-.4,2.3-.4-2.272-1.753-2.222-2.7,1.563-5.4,4.531-2.957,14.483,33.055,11.764,36.317c-2.089,2.5-15.083,2.557-21.007,2.446C663.576,143.222,662.869,141.731,663.41,140.715Z" transform="translate(-663.215 -104.886)" fill="#8595ba"/>
      </g>
      <g id="Groupe_10775" data-name="Groupe 10775" transform="translate(0 21.19)">
        <path id="Tracé_22528-2" data-name="Tracé 22528-2" d="M28.1,140.735a7.647,7.647,0,0,0-.527-.85,139.643,139.643,0,0,1-16.325.535c-5.726-.2,3.379-20.233,6.375-26.18.568-1.125,5.191-1.212,5.183-2.551s-2.3-.4-2.3-.4,2.272-1.753,2.222-2.7-1.567-5.4-4.537-2.957S3.713,138.683,6.432,141.945c2.087,2.5,15.082,2.557,21.007,2.446C27.936,143.24,28.639,141.751,28.1,140.735Z" transform="translate(-6.02 -104.906)" fill="#8595ba"/>
      </g>
      <g id="Groupe_10740" data-name="Groupe 10740" transform="translate(14.449)">
        <g id="Groupe_10740-2" data-name="Groupe 10740-2">
          <g id="Groupe_10738" data-name="Groupe 10738">
            <g id="Groupe_34" data-name="Groupe 34">
              <g id="Groupe_25" data-name="Groupe 25" transform="translate(36.851 72.889)">
                <path id="Tracé_87" data-name="Tracé 87" d="M269.032,365.89s2.751,42.751,1.376,44.019-8.936.133-10.312,2.489,11.55,2.222,13.2.772,0-47.279,0-47.279Z" transform="translate(-259.994 -364.874)" fill="#8595ba"/>
                <path id="Tracé_88" data-name="Tracé 88" d="M478.745,360.86s-2.751,42.753-1.376,44.021,8.934.131,10.312,2.487-11.55,2.222-13.2.774,0-47.281,0-47.281Z" transform="translate(-430.569 -360.86)" fill="#8595ba"/>
              </g>
              <g id="Groupe_27" data-name="Groupe 27">
                <path id="Tracé_89" data-name="Tracé 89" d="M178.085,89.067c1.321.555,5.781,2.137,9.392-.174,4.288-2.747,4.288-6,4.288-6a12.5,12.5,0,0,0,12.523-2.917c6.005-5.488,3.258-16.434,3.258-16.434s5.627-2.925,4.975-8.952c-1.054-9.738-10.978-10.3-10.978-10.3s3.088-7.375-2.4-12.523a16.117,16.117,0,0,0-12.693-3.945,5.67,5.67,0,0,0-2.06-6.336c-3.422-2.4-6.167-.968-6.167-.968s.59-7.8-6.508-10.457c-6.763-2.535-12.539,1.477-12.539,1.477S154.886,6.9,148.712,7.761a19.2,19.2,0,0,0-9.609,3.945A10.911,10.911,0,0,0,128.47,9.3a9.879,9.879,0,0,0-7.2,7.892s-11.018-3.07-17.015,4.468-3.092,13.864-3.092,13.864-9.916-1.351-13,8.08a16.673,16.673,0,0,0,2.571,15.781S82.671,67.45,86.1,76.2s11.653,6.9,11.653,6.9a9.08,9.08,0,0,0,8.76,8.021c8.061.513,11.493-2.4,11.493-2.4s7.031,5.829,13.893,5.145,9.435-3.434,9.435-3.434,6.518,3.711,12.865,3.484S165.693,89.4,165.693,89.4a6.783,6.783,0,0,0,6.346,3.088C176.317,92.048,177.836,88.96,178.085,89.067Z" transform="translate(-83.696 -6.108)" fill="#f3f6fe"/>
                <g id="Groupe_26" data-name="Groupe 26">
                  <path id="Tracé_90" data-name="Tracé 90" d="M207.912,48.312c-.808-7.449-6.464-10.524-10.5-11.4.661-2.8,1.127-8.181-3.347-12.374a17.343,17.343,0,0,0-11.849-4.486h-.085a6.9,6.9,0,0,0-2.989-5.945,8.623,8.623,0,0,0-4.725-1.775,10.11,10.11,0,0,0-1.044-2.828,12.418,12.418,0,0,0-7.255-7,14.727,14.727,0,0,0-5.171-.933,16.234,16.234,0,0,0-5.074.84h-.042a3.176,3.176,0,0,0-.376.131l-.2.079h-.02a17.3,17.3,0,0,0-1.98.879A14.712,14.712,0,0,0,144.1,0a12.553,12.553,0,0,0-1.743.121,21.83,21.83,0,0,0-9.343,3.5,12.477,12.477,0,0,0-7.4-2.454,13.43,13.43,0,0,0-3.713.541,11.331,11.331,0,0,0-7.934,7.581c-3.381-.495-11.513-.871-16.686,5.627-3.452,4.339-4.3,8.023-4.31,10.574v.034a9.252,9.252,0,0,0,.107,1.6c-3.365.388-9.988,2.145-12.523,9.883A18.306,18.306,0,0,0,82.53,53.087c-.176.188-.283.319-.305.345a1.572,1.572,0,0,0-.283.57c-2.343,3.056-6.2,9.564-3.422,16.646,2.493,6.363,7.427,7.32,10.146,7.32a12.9,12.9,0,0,0,1.852-.135c.79,3.539,3.446,8.328,9.754,8.73.665.042,1.327.065,1.969.065a19.419,19.419,0,0,0,9.546-2.121c2.06,1.5,7.3,4.86,12.826,4.86.436,0,.873-.022,1.3-.061a20.943,20.943,0,0,0,8.51-2.513,5.251,5.251,0,0,0,1.036-.574,29.2,29.2,0,0,0,12.034,3.159c.2,0,.4,0,.62-.012a22.287,22.287,0,0,0,11.136-3.925,4.905,4.905,0,0,0,.553.511,1.08,1.08,0,0,0,.125.069,7.952,7.952,0,0,0,5.24,1.951h0a8.729,8.729,0,0,0,.889-.044,9.655,9.655,0,0,0,6.286-3.163,14.446,14.446,0,0,0,4.553.788,9.619,9.619,0,0,0,5.272-1.462,10.793,10.793,0,0,0,4.607-5.405,14.129,14.129,0,0,0,12.408-3.674c5.492-5.021,4.5-13.753,3.951-16.838A10.64,10.64,0,0,0,207.912,48.312Zm-6.9,7.56c-.822-.25-1.832-.533-3.058-.84a6.065,6.065,0,0,0-6.132,1.6,5.2,5.2,0,0,0-.99,5.351,4.4,4.4,0,0,0,4.458,2.907,7.271,7.271,0,0,0,2.312-.378,1.4,1.4,0,1,0-.907-2.64h0c-.107.036-2.612.875-3.232-.846a2.462,2.462,0,0,1,.444-2.527,3.31,3.31,0,0,1,3.377-.759c1.107.277,2.02.533,2.773.757.44,2.361,1.491,10.168-2.947,14.226a11.163,11.163,0,0,1-7.7,3.115,10.368,10.368,0,0,1-3.076-.448l-2.779-5.353a1.545,1.545,0,0,0-2.755,1.4l.016.028,3.121,6.013a7.589,7.589,0,0,1-3.434,4.009,6.581,6.581,0,0,1-3.608.976,11.825,11.825,0,0,1-4.347-.925l-.3-.125h-.315a2,2,0,0,0-1.541.895,6.688,6.688,0,0,1-4.646,2.545,5.5,5.5,0,0,1-.572.03h0a5.19,5.19,0,0,1-4.04-2.02,4.983,4.983,0,0,1-.735-2.915,2.519,2.519,0,0,1,1.155-2.107c1.977-1.137,2.931-.17,3.181.162a1.544,1.544,0,0,0,2.533-1.765c-.893-1.3-3.555-3.2-7.255-1.073a5.507,5.507,0,0,0-2.695,4.561,7.979,7.979,0,0,0,.4,3.02,19.206,19.206,0,0,1-9.706,3.529c-4.133.145-8.415-1.543-10.588-2.555v-.01c.889-2.173.671-4.945-.618-7.8-1.967-4.375-6.708-4.232-8.936-3.543a1.543,1.543,0,1,0,.871,2.957h.024c.158-.046,3.858-1.151,5.213,1.86a7.122,7.122,0,0,1,.572,5.367,3.069,3.069,0,0,1-.244.481l-.234.236c-.022.022-2.392,2.357-8.473,2.965a9.549,9.549,0,0,1-.99.046c-4.646,0-9.3-3.03-11.045-4.3l.386-4.68a1.545,1.545,0,1,0-3.078-.252l-.382,4.646c-.917.557-3.547,1.85-8.255,1.85-.576,0-1.172-.02-1.771-.057-6.395-.4-7.07-6.926-7.12-7.548a4.22,4.22,0,0,1,2.272-3.391,3.313,3.313,0,0,1,2.048-.557.544.544,0,0,1-.109-.04l1.212-2.842c-.3-.125-1.923-.691-4.581.707a7.2,7.2,0,0,0-3.767,4.892,9.882,9.882,0,0,1-1.759.164c-3.434,0-5.882-1.8-7.272-5.343-2.882-7.348,3.6-14.428,4.242-15.1a7.849,7.849,0,0,1,5.04-1.753,4.771,4.771,0,0,1,4.472,2.953,1.543,1.543,0,0,0,2.923-.992,7.807,7.807,0,0,0-7.332-5.05,10.617,10.617,0,0,0-5.779,1.563A15.377,15.377,0,0,1,83.49,37.978c2.153-6.581,8.124-7.665,10.526-7.831A7.389,7.389,0,0,0,99.808,34.3a8.166,8.166,0,0,0,1.194.089,8.542,8.542,0,0,0,7.439-4.939,1.545,1.545,0,0,0-2.806-1.293c-.071.149-1.751,3.612-5.383,3.086a4.371,4.371,0,0,1-3.167-1.971l-.634-1.367a2.452,2.452,0,0,1-.091-.23,7.508,7.508,0,0,1-.3-2.052v-.147c.018-1.931.7-4.916,3.652-8.631,4.585-5.763,12.341-4.787,14.479-4.387l2.177,4.892a1.547,1.547,0,0,0,1.414.917,1.523,1.523,0,0,0,.626-.133,1.543,1.543,0,0,0,.784-2.038l-2.359-5.28c-.016-.034-.038-.063-.057-.1a8.35,8.35,0,0,1,5.993-6.043,10.247,10.247,0,0,1,2.852-.418,9.4,9.4,0,0,1,6.229,2.408l.345.36a4.229,4.229,0,0,1,.594,4.177,3.458,3.458,0,0,1-3.25,2.181,1.544,1.544,0,1,0-.289,3.074c.115,0,.232.014.347.014a6.559,6.559,0,0,0,5.965-3.919,6.986,6.986,0,0,0-.43-6.633,19.063,19.063,0,0,1,7.653-2.743,9.548,9.548,0,0,1,1.315-.091,11.369,11.369,0,0,1,6.815,2.521,7.286,7.286,0,0,0-1.63,3.214,6.3,6.3,0,0,0,4.347,7.607,1.679,1.679,0,0,0,.376.046,1.545,1.545,0,0,0,.374-3.044A3.2,3.2,0,0,1,152.3,9.477c.572-2.636,3.709-3.856,4.312-4.068a13.287,13.287,0,0,1,4.331-.764,11.644,11.644,0,0,1,4.093.742,9.4,9.4,0,0,1,5.469,5.265c.014.038.03.079.046.117a11.152,11.152,0,0,1,.836,3.446l-.018,2.61c-.507,2.2-1.652,2.21-2.173,2.21a3.321,3.321,0,0,1-1.753-.576,1.546,1.546,0,0,0-1.919,2.424l.022.016a6.363,6.363,0,0,0,3.65,1.226c1.414,0,4.749-.564,5.393-5.8.036-.3.059-.594.073-.881a6.111,6.111,0,0,1,2.709,1.19,4.043,4.043,0,0,1,1.487,4.575l-.844,2.44,2.551-.4a11.312,11.312,0,0,1,1.652-.1,14.273,14.273,0,0,1,9.738,3.648c4.064,3.816,2.626,9.089,2.157,10.463-.166.347-2.315,4.739-5.326,4.88a2.1,2.1,0,0,1-1.586-.36,1.469,1.469,0,0,1-.164-1.02,1.544,1.544,0,0,0-3-.723h0a4.5,4.5,0,0,0,.78,3.706,4.548,4.548,0,0,0,3.713,1.489c.131,0,.265,0,.4-.01,3.636-.17,6.136-3.458,7.29-5.377,2.222.374,7.9,1.99,8.637,8.807.452,4.181-2.781,6.569-3.838,7.227Z" transform="translate(-77.554)" fill="#b8c4e0"/>
                  <path id="Tracé_91" data-name="Tracé 91" d="M336.267,99.015a8.9,8.9,0,0,0-2.093-7.938c-4.981-6-12.523-4.67-17.209-2.547a10.81,10.81,0,0,0-7.324-8.221c-5.656-1.927-10.023,1.88-12.047,4.209a14.153,14.153,0,0,0-10.386-3.751c-3.636.071-7.07,2.8-8.368,6.631a8.128,8.128,0,0,0,2.638,9.318,9.451,9.451,0,0,0,12.537-.327,1.543,1.543,0,1,0-2.111-2.252,6.352,6.352,0,0,1-8.506.162,5.161,5.161,0,0,1-1.634-5.914,6.422,6.422,0,0,1,5.506-4.533c6.411-.131,8.974,3.763,9.075,3.919a1.545,1.545,0,0,0,2.614.022c.04-.065,4.2-6.431,9.7-4.561a7.885,7.885,0,0,1,5.454,7.655,1.547,1.547,0,0,0,2.357,1.4c.4-.246,9.77-5.945,15.341.762a5.9,5.9,0,0,1,1.462,5.268,6.354,6.354,0,0,1-3.092,4.1c-2.02.907-4.545-.43-4.565-.442a1.545,1.545,0,1,0-1.495,2.7h0a10.424,10.424,0,0,0,3.791,1.1,7.1,7.1,0,0,0,3.525-.551A9.436,9.436,0,0,0,336.267,99.015Z" transform="translate(-237.778 -63.667)" fill="#b8c4e0"/>
                  <path id="Tracé_92" data-name="Tracé 92" d="M201.439,201.568a7.056,7.056,0,0,0-.368-3.965h.018a8.032,8.032,0,0,0,2.638-.44,7.078,7.078,0,0,0,4.49-5.05,9.777,9.777,0,0,0-1.672-8.582c-2.844-3.361-7.272-2.517-9.213-1.6a1.544,1.544,0,1,0,1.317,2.794c.036-.018,3.5-1.616,5.538.808a6.637,6.637,0,0,1,1.056,5.767,4.091,4.091,0,0,1-2.525,2.959,5.958,5.958,0,0,1-4.7-.566,12.565,12.565,0,0,0-1.792-1.212c-.1-.085-.151-.135-.156-.137a1.543,1.543,0,1,0-2.159,2.2h0a5.8,5.8,0,0,0,.489.43v.01a12.831,12.831,0,0,0,1.911,1.291A5.077,5.077,0,0,1,198.391,201c-.63,3.381-3.133,3.555-3.434,3.563a1.545,1.545,0,0,0,.016,3.088C196.828,207.652,200.541,206.38,201.439,201.568Z" transform="translate(-169.985 -144.531)" fill="#b8c4e0"/>
                  <path id="Tracé_93" data-name="Tracé 93" d="M231.626,313.613a9.2,9.2,0,0,0-8.144,5.656,1.544,1.544,0,1,0,2.876,1.121h0a6.136,6.136,0,0,1,5.363-3.676c3.391-.105,3.751,3.692,3.783,4.117a1.543,1.543,0,0,0,1.537,1.45h.1a1.541,1.541,0,0,0,1.444-1.634C238.433,318.132,236.787,313.447,231.626,313.613Z" transform="translate(-193.922 -250.264)" fill="#b8c4e0"/>
                  <path id="Tracé_94" data-name="Tracé 94" d="M543.581,245.952c-2.478-2.089-6.225-1.47-6.385-1.44a1.414,1.414,0,0,0,.479,2.769c.026,0,2.626-.4,4.094.824a3.476,3.476,0,0,1,1.056,2.828,4.254,4.254,0,0,1-1.143,3.258,4.812,4.812,0,0,1-3.244,1.022,1.414,1.414,0,0,0-1.491,1.739,4.961,4.961,0,0,1-.356,3.446,2.151,2.151,0,0,1-1.681.786,3,3,0,0,1-2.424-.634,3.674,3.674,0,0,1-.808-2.537,1.414,1.414,0,0,0-2.806-.222,6.407,6.407,0,0,0,1.606,4.735,5.348,5.348,0,0,0,3.957,1.493c.222,0,.452-.012.687-.028a4.859,4.859,0,0,0,3.739-1.947,6.532,6.532,0,0,0,1.032-4.108,6.452,6.452,0,0,0,5.734-7A6.134,6.134,0,0,0,543.581,245.952Z" transform="translate(-437.701 -195.037)" fill="#b8c4e0"/>
                </g>
              </g>
            </g>
          </g>
        </g>
      </g>
      <g id="Groupe_10805" data-name="Groupe 10805" transform="translate(53.705 32.224)">
        <path id="Tracé_22522" data-name="Tracé 22522" d="M472.8,159.771s6.53-1.01,10.77,1.133,6.185,7.449,6.185,7.449" transform="translate(-432.221 -159.533)" fill="none" stroke="#8595ba" stroke-linecap="round" stroke-linejoin="bevel" stroke-width="3"/>
        <path id="Tracé_22523" data-name="Tracé 22523" d="M288.855,159.772s-6.532-1.01-10.77,1.135-6.185,7.447-6.185,7.447" transform="translate(-271.9 -159.534)" fill="none" stroke="#8595ba" stroke-linecap="round" stroke-linejoin="bevel" stroke-width="3"/>
      </g>
      <g id="Groupe_24" data-name="Groupe 24" transform="translate(57.152 47.393)">
        <path id="Tracé_53" data-name="Tracé 53" d="M306.713,244.368l.04-.293q.018-.141.042-.351c0-.069.02-.141.026-.224s0-.184,0-.285c0-.2,0-.432-.018-.679s-.065-.489-.1-.764-.129-.557-.2-.862a9.474,9.474,0,0,0-.331-.933,6.414,6.414,0,0,0-.491-.968,9.065,9.065,0,0,0-2.5-2.717c-.186-.125-.372-.252-.564-.374s-.4-.216-.606-.325l-.309-.16-.323-.131c-.218-.083-.436-.176-.661-.246a9.345,9.345,0,0,0-1.388-.323,5.276,5.276,0,0,0-.713-.083l-.358-.02h-.438l-.606.034-.152.01a1.212,1.212,0,0,0-.17.016l-.384.055a5.9,5.9,0,0,0-.745.139l-.685.19c-.224.071-.442.164-.66.244l-.323.133-.309.16c-.2.107-.4.2-.606.325s-.378.248-.564.372a9.088,9.088,0,0,0-2.5,2.719c-.186.325-.345.652-.491.966a5.7,5.7,0,0,0-.333.933c-.081.3-.156.59-.2.862s-.081.529-.1.766a6.082,6.082,0,0,0,0,.634v.275a2.178,2.178,0,0,0,.024.242c.016.149.03.277.04.38l.04.313a.606.606,0,0,0,1.184.075l.02-.075.071-.267a7.006,7.006,0,0,1,.2-.733l.166-.5c.083-.176.156-.368.24-.57a5.808,5.808,0,0,1,.317-.606c.115-.2.267-.418.4-.64a5.335,5.335,0,0,1,.5-.638,7.128,7.128,0,0,1,.594-.616,7.529,7.529,0,0,1,1.452-1.083,8.079,8.079,0,0,1,1.753-.731l.473-.107a1.182,1.182,0,0,1,.224-.04l.212-.03.214-.036a.708.708,0,0,1,.131-.012h.149l.606-.026a.665.665,0,1,0-.071,0h.483a3.013,3.013,0,0,1,.485.051c.16.03.325.032.481.077l.473.107a8.082,8.082,0,0,1,1.753.729,7.7,7.7,0,0,1,1.452,1.083,7.441,7.441,0,0,1,.594.616c.18.2.335.432.5.64a5.271,5.271,0,0,1,.4.64c.121.212.23.414.317.606s.158.392.24.57a4.212,4.212,0,0,1,.164.477c.024.073.048.143.073.2a1.7,1.7,0,0,1,.051.216q.044.2.079.345l.069.287a.606.606,0,0,0,1.2-.061Z" transform="translate(-288.965 -234.63)" fill="#8595ba"/>
        <path id="Tracé_54" data-name="Tracé 54" d="M467.933,244.368l.04-.293q.018-.141.042-.351c0-.069.02-.141.026-.224s0-.184,0-.285c0-.2,0-.432-.018-.679s-.065-.489-.1-.764-.129-.557-.2-.862a9.49,9.49,0,0,0-.331-.933,6.245,6.245,0,0,0-.493-.968,9.027,9.027,0,0,0-2.5-2.717c-.186-.125-.372-.252-.564-.374s-.4-.216-.606-.325l-.309-.16-.323-.131c-.218-.083-.436-.176-.661-.246a9.29,9.29,0,0,0-1.388-.323,5.251,5.251,0,0,0-.711-.083l-.36-.02h-.428l-.606.034-.151.01a1.179,1.179,0,0,0-.168.016l-.384.055a5.772,5.772,0,0,0-.745.139l-.687.19c-.224.071-.44.164-.659.244l-.323.133-.309.16c-.2.107-.4.2-.606.325s-.378.248-.562.372a9.045,9.045,0,0,0-2.5,2.719c-.188.325-.347.652-.493.966a5.512,5.512,0,0,0-.331.933c-.079.3-.156.59-.2.862s-.079.529-.1.766-.01.457-.014.65v.275a2.193,2.193,0,0,0,.024.242c.016.149.028.277.04.38l.04.313a.606.606,0,0,0,1.184.075l.02-.075.069-.267a7.18,7.18,0,0,1,.2-.733l.168-.5c.081-.176.156-.368.238-.57a5.158,5.158,0,0,1,.319-.606c.117-.2.265-.418.4-.64a5.333,5.333,0,0,1,.5-.638,7.123,7.123,0,0,1,.594-.616,7.514,7.514,0,0,1,1.45-1.083,8.125,8.125,0,0,1,1.753-.731l.473-.107a1.249,1.249,0,0,1,.224-.04l.214-.03.212-.036a.7.7,0,0,1,.131-.012h.151l.606-.026a.667.667,0,1,0-.073,0h.473a3.013,3.013,0,0,1,.487.05c.16.03.325.032.481.077l.473.107a8.081,8.081,0,0,1,1.753.729,7.7,7.7,0,0,1,1.452,1.083,7.421,7.421,0,0,1,.594.616c.18.2.335.432.495.64a5.263,5.263,0,0,1,.4.64c.119.212.232.414.319.606s.158.392.24.57l.164.477c.026.073.048.143.073.2a1.708,1.708,0,0,1,.05.216q.046.2.079.345l.069.287a.607.607,0,0,0,1.212-.061Z" transform="translate(-417.63 -234.63)" fill="#8595ba"/>
      </g>
      <g id="Groupe_23" data-name="Groupe 23" transform="translate(70.334 64.481)">
        <g id="Groupe_22" data-name="Groupe 22">
          <path id="Tracé_51" data-name="Tracé 51" d="M377.614,321.143a6.169,6.169,0,0,1-2.1,4.444,11.907,11.907,0,0,1-4.807,2.656,17.169,17.169,0,0,1-9.58,0,11.877,11.877,0,0,1-4.807-2.656,6.155,6.155,0,0,1-2.093-4.444c0-3.131,2.779-1.7,6.787-.691a17.74,17.74,0,0,0,9.8,0C374.831,319.444,377.614,318.01,377.614,321.143Z" transform="translate(-354.23 -319.233)" fill="#8595ba"/>
        </g>
        <path id="Tracé_52" data-name="Tracé 52" d="M397.972,344.645a17.17,17.17,0,0,1-9.582,0,4.848,4.848,0,0,1,9.582,0Z" transform="translate(-381.49 -336.232)" fill="#f3f6fe"/>
      </g>
    </g>
  </g>
</svg>
