<svg xmlns="http://www.w3.org/2000/svg" width="199.699" height="123.603" viewBox="0 0 199.699 123.603">
  <g id="Group_14970" data-name="Group 14970" transform="translate(-88 -305)">
    <g id="Group_14964" data-name="Group 14964" transform="translate(0 48.076)">
      <g id="Group_13207" data-name="Group 13207" transform="translate(7 95.859)">
        <g id="Group_12397" data-name="Group 12397" transform="translate(81 190.066)">
          <g id="Group_12390" data-name="Group 12390">
            <g id="Groupe_11172" data-name="Groupe 11172" transform="translate(0 0)">
              <g id="fusee" transform="translate(0 0)">
                <g id="OBJECTS">
                  <g id="Groupe_10733" data-name="Groupe 10733">
                    <path id="Tracé_20852" data-name="Tracé 20852" d="M173.472,87.142c-10.415,6.168-18.984,7.467-25.011,7.467-15.415-.066-36.113-8.635-43.995-9.181a106.771,106.771,0,0,0-11.517.066c-7.533.273-12.816.942-17.336,1.441-5.65.612-13.984,1.375-24.4,1.883-.819.132-18.833,2.326-28.1-10.7-.678-.9-7.467-10.791-4.172-19.078,1.789-4.52,7.336-10.481,13.569-13.908,1.507-.819,2.467-1.168,2.825-2.26C36.761,38.42,23.653,33.627,22.3,25.6c-.687-4.04,1.3-10.274,14.191-19.869C45.4,1.554,58-2.42,70.548,1.827,81.236,5.462,82.2,11.7,91.989,13.617,104.4,15.952,107.753,6.9,129,3.409c8.918-1.507,18.362-2.881,27.76,2.119,1.883,1.036,12.882,6.855,14.389,16.95,1.78,12.129-14.125,17.543-12.336,27.553,1.883,11.1,22.412,12.242,23.645,22.675C183.133,78.093,178.34,83.234,173.472,87.142Z" transform="translate(-1.053 -0.008)" fill="#dfe4f4"/>
                    <circle id="Ellipse_392" data-name="Ellipse 392" cx="6.921" cy="6.921" r="6.921" transform="translate(185.857 3.589)" fill="#dfe4f4"/>
                    <circle id="Ellipse_393" data-name="Ellipse 393" cx="3.428" cy="3.428" r="3.428" transform="translate(177.146 19.419)" fill="#dfe4f4"/>
                    <circle id="Ellipse_394" data-name="Ellipse 394" cx="5.415" cy="5.415" r="5.415" transform="translate(0 69.384)" fill="#dfe4f4"/>
                    <circle id="Ellipse_395" data-name="Ellipse 395" cx="5.415" cy="5.415" r="5.415" transform="translate(183.041 54.1)" fill="#dfe4f4"/>
                    <circle id="Ellipse_396" data-name="Ellipse 396" cx="5.415" cy="5.415" r="5.415" transform="translate(10.754 2.629)" fill="#dfe4f4"/>
                  </g>
                </g>
              </g>
            </g>
          </g>
        </g>
        <path id="Path_24617" data-name="Path 24617" d="M.942,0H5.65a.942.942,0,0,1,.942.942c0,.52-.582,2.437-1.1,2.437a12.8,12.8,0,0,0-2.133-.887,4.68,4.68,0,0,0-1.695-.163C1.141,2.328,0,1.461,0,.942A.942.942,0,0,1,.942,0Z" transform="matrix(0.985, 0.174, -0.174, 0.985, 116.997, 256.365)" fill="#dfe4f4"/>
      </g>
    </g>
    <g id="Groupe_10778" data-name="Groupe 10778" transform="translate(107 305)">
      <g id="Groupe_10774" data-name="Groupe 10774" transform="translate(138.707 22.14)">
        <path id="Tracé_22528" data-name="Tracé 22528" d="M663.419,142.324a8,8,0,0,1,.551-.888,145.885,145.885,0,0,0,17.056.559c5.983-.209-3.529-21.141-6.661-27.355-.59-1.176-5.422-1.266-5.413-2.666s2.4-.418,2.4-.418-2.374-1.832-2.322-2.821,1.633-5.642,4.734-3.09,15.133,34.539,12.292,37.948c-2.183,2.612-15.76,2.672-21.95,2.556C663.592,144.943,662.854,143.385,663.419,142.324Z" transform="translate(-663.215 -104.889)" fill="#8595ba"/>
      </g>
      <g id="Groupe_10775" data-name="Groupe 10775" transform="translate(0 22.144)">
        <path id="Tracé_22528-2" data-name="Tracé 22528-2" d="M29.091,142.344a7.992,7.992,0,0,0-.551-.888,145.912,145.912,0,0,1-17.058.559c-5.983-.209,3.531-21.141,6.661-27.355.594-1.176,5.424-1.266,5.416-2.666s-2.4-.418-2.4-.418,2.374-1.832,2.322-2.821-1.637-5.642-4.741-3.09S3.609,140.2,6.451,143.608c2.181,2.612,15.759,2.672,21.95,2.556C28.92,144.961,29.655,143.405,29.091,142.344Z" transform="translate(-6.02 -104.909)" fill="#8595ba"/>
      </g>
      <g id="Groupe_10740" data-name="Groupe 10740" transform="translate(15.097)">
        <g id="Groupe_10740-2" data-name="Groupe 10740-2" transform="translate(0)">
          <g id="Groupe_10738" data-name="Groupe 10738">
            <g id="Groupe_34" data-name="Groupe 34">
              <g id="Groupe_25" data-name="Groupe 25" transform="translate(38.506 67.162)">
                <path id="Tracé_87" data-name="Tracé 87" d="M269.438,365.89s2.875,44.67,1.438,46-9.337.139-10.775,2.6,12.069,2.322,13.793.807,0-49.4,0-49.4Z" transform="translate(-259.994 -364.828)" fill="#8595ba"/>
                <path id="Tracé_88" data-name="Tracé 88" d="M478.969,360.86s-2.875,44.673-1.438,46,9.335.137,10.775,2.6-12.069,2.322-13.793.809,0-49.4,0-49.4Z" transform="translate(-428.63 -360.86)" fill="#8595ba"/>
              </g>
              <g id="Groupe_27" data-name="Groupe 27">
                <path id="Tracé_89" data-name="Tracé 89" d="M182.253,92.722c1.38.58,6.041,2.233,9.814-.182,4.48-2.87,4.48-6.269,4.48-6.269a13.061,13.061,0,0,0,13.085-3.048c6.275-5.734,3.4-17.172,3.4-17.172s5.88-3.056,5.2-9.354c-1.1-10.175-11.471-10.762-11.471-10.762s3.227-7.706-2.508-13.085a16.841,16.841,0,0,0-13.263-4.122,5.925,5.925,0,0,0-2.153-6.62C185.266,19.6,182.4,21.1,182.4,21.1s.616-8.15-6.8-10.927c-7.067-2.649-13.1,1.543-13.1,1.543s-4.483-4.846-10.934-3.947a20.062,20.062,0,0,0-10.04,4.122,11.4,11.4,0,0,0-11.11-2.514,10.323,10.323,0,0,0-7.523,8.246s-11.513-3.208-17.779,4.669-3.231,14.486-3.231,14.486-10.361-1.412-13.584,8.443a17.422,17.422,0,0,0,2.686,16.49s-8.425,8.427-4.842,17.57,12.176,7.21,12.176,7.21a9.488,9.488,0,0,0,9.153,8.381c8.423.536,12.009-2.508,12.009-2.508s7.347,6.091,14.517,5.376,9.859-3.588,9.859-3.588,6.811,3.878,13.443,3.64S169.3,93.07,169.3,93.07a7.088,7.088,0,0,0,6.631,3.227C180.406,95.837,181.993,92.61,182.253,92.722Z" transform="translate(-83.625 -6.039)" fill="#f3f6fe"/>
                <g id="Groupe_26" data-name="Groupe 26">
                  <path id="Tracé_90" data-name="Tracé 90" d="M213.765,50.481c-.844-7.783-6.754-11-10.971-11.912.691-2.926,1.178-8.548-3.5-12.93a18.122,18.122,0,0,0-12.381-4.687h-.089A7.21,7.21,0,0,0,183.7,14.74a9.01,9.01,0,0,0-4.937-1.855,10.564,10.564,0,0,0-1.091-2.955,12.976,12.976,0,0,0-7.581-7.314,15.388,15.388,0,0,0-5.4-.975,16.963,16.963,0,0,0-5.3.878h-.044a3.32,3.32,0,0,0-.393.137l-.209.083h-.021a18.075,18.075,0,0,0-2.069.918A15.373,15.373,0,0,0,147.088,0a13.117,13.117,0,0,0-1.821.126A22.81,22.81,0,0,0,135.5,3.784a13.037,13.037,0,0,0-7.732-2.564,14.033,14.033,0,0,0-3.88.565,11.84,11.84,0,0,0-8.29,7.921c-3.533-.517-12.03-.91-17.435,5.88-3.607,4.534-4.493,8.383-4.5,11.049v.036a9.667,9.667,0,0,0,.112,1.672c-3.516.405-10.436,2.241-13.085,10.327a19.128,19.128,0,0,0,2.064,16.8c-.184.2-.3.333-.319.36a1.643,1.643,0,0,0-.3.6c-2.448,3.193-6.478,9.993-3.576,17.393,2.6,6.649,7.76,7.649,10.6,7.649a13.48,13.48,0,0,0,1.935-.141c.825,3.7,3.6,8.7,10.192,9.122.695.044,1.387.068,2.057.068a20.291,20.291,0,0,0,9.975-2.216c2.152,1.567,7.628,5.078,13.4,5.078.456,0,.912-.023,1.358-.064a21.883,21.883,0,0,0,8.892-2.626,5.486,5.486,0,0,0,1.083-.6,30.511,30.511,0,0,0,12.574,3.3c.209,0,.418,0,.648-.013a23.288,23.288,0,0,0,11.636-4.1,5.128,5.128,0,0,0,.578.534,1.127,1.127,0,0,0,.131.072,8.309,8.309,0,0,0,5.475,2.039h0a9.126,9.126,0,0,0,.929-.046,10.088,10.088,0,0,0,6.568-3.305,15.1,15.1,0,0,0,4.757.823,10.051,10.051,0,0,0,5.509-1.528,11.278,11.278,0,0,0,4.814-5.648,14.763,14.763,0,0,0,12.965-3.839c5.739-5.246,4.7-14.37,4.128-17.594a11.118,11.118,0,0,0,4.994-10.3Zm-7.21,7.9c-.859-.261-1.914-.557-3.2-.878a6.337,6.337,0,0,0-6.407,1.672,5.434,5.434,0,0,0-1.034,5.591,4.6,4.6,0,0,0,4.658,3.038,7.6,7.6,0,0,0,2.416-.395,1.463,1.463,0,1,0-.948-2.759h0c-.112.038-2.729.914-3.377-.884a2.573,2.573,0,0,1,.464-2.64,3.459,3.459,0,0,1,3.529-.793c1.157.289,2.111.557,2.9.791.46,2.467,1.558,10.625-3.079,14.865a11.664,11.664,0,0,1-8.046,3.255,10.833,10.833,0,0,1-3.214-.468l-2.9-5.593a1.615,1.615,0,0,0-2.879,1.463l.017.029,3.261,6.283a7.93,7.93,0,0,1-3.588,4.189,6.877,6.877,0,0,1-3.77,1.02,12.356,12.356,0,0,1-4.542-.967l-.313-.131h-.329a2.09,2.09,0,0,0-1.61.935,6.988,6.988,0,0,1-4.855,2.659,5.749,5.749,0,0,1-.6.031h0a5.423,5.423,0,0,1-4.221-2.111,5.207,5.207,0,0,1-.768-3.046,2.632,2.632,0,0,1,1.207-2.2c2.066-1.188,3.063-.178,3.324.169a1.613,1.613,0,1,0,2.647-1.844c-.933-1.358-3.715-3.343-7.581-1.121a5.754,5.754,0,0,0-2.816,4.766,8.337,8.337,0,0,0,.418,3.156,20.068,20.068,0,0,1-10.142,3.687c-4.319.152-8.793-1.612-11.063-2.67v-.01c.929-2.271.7-5.167-.646-8.15-2.055-4.571-7.009-4.422-9.337-3.7a1.612,1.612,0,1,0,.91,3.09h.025c.165-.048,4.031-1.2,5.447,1.944a7.442,7.442,0,0,1,.6,5.608,3.206,3.206,0,0,1-.255.5l-.245.247c-.023.023-2.5,2.463-8.853,3.1a9.98,9.98,0,0,1-1.034.048c-4.855,0-9.718-3.166-11.541-4.493l.4-4.89a1.614,1.614,0,1,0-3.216-.263l-.4,4.855c-.958.582-3.706,1.933-8.626,1.933-.6,0-1.225-.021-1.851-.06-6.682-.418-7.387-7.237-7.44-7.887A4.409,4.409,0,0,1,96.427,75.8a3.462,3.462,0,0,1,2.14-.582.567.567,0,0,1-.114-.042l1.266-2.97c-.313-.131-2.009-.722-4.787.739A7.523,7.523,0,0,0,91,78.061a10.325,10.325,0,0,1-1.838.171c-3.588,0-6.146-1.881-7.6-5.583-3.011-7.678,3.762-15.076,4.432-15.778a8.2,8.2,0,0,1,5.266-1.832,4.985,4.985,0,0,1,4.673,3.086,1.613,1.613,0,0,0,3.054-1.037,8.158,8.158,0,0,0-7.661-5.277,11.094,11.094,0,0,0-6.038,1.633,16.067,16.067,0,0,1-1.53-13.762c2.25-6.876,8.489-8.009,11-8.183a7.721,7.721,0,0,0,6.052,4.339,8.531,8.531,0,0,0,1.248.093,8.926,8.926,0,0,0,7.773-5.161,1.614,1.614,0,1,0-2.932-1.351c-.074.156-1.829,3.774-5.624,3.225a4.567,4.567,0,0,1-3.309-2.059L97.3,29.158a2.557,2.557,0,0,1-.1-.24,7.845,7.845,0,0,1-.313-2.144V26.62c.019-2.018.731-5.137,3.816-9.019,4.791-6.022,12.9-5,15.129-4.584l2.275,5.112a1.616,1.616,0,0,0,1.477.958,1.591,1.591,0,0,0,.654-.139,1.612,1.612,0,0,0,.819-2.13L118.6,11.3c-.017-.036-.04-.066-.06-.1A8.725,8.725,0,0,1,124.8,4.883a10.707,10.707,0,0,1,2.98-.437,9.822,9.822,0,0,1,6.509,2.516l.36.376a4.419,4.419,0,0,1,.621,4.365,3.613,3.613,0,0,1-3.4,2.279,1.613,1.613,0,1,0-.3,3.212c.12,0,.242.014.363.014a6.853,6.853,0,0,0,6.233-4.095,7.3,7.3,0,0,0-.449-6.931,19.919,19.919,0,0,1,8-2.866,9.977,9.977,0,0,1,1.374-.1,11.879,11.879,0,0,1,7.121,2.634,7.613,7.613,0,0,0-1.7,3.358,6.583,6.583,0,0,0,4.542,7.949,1.754,1.754,0,0,0,.393.048,1.614,1.614,0,0,0,.391-3.181A3.344,3.344,0,0,1,155.656,9.9c.6-2.754,3.876-4.029,4.506-4.251a13.884,13.884,0,0,1,4.525-.8,12.167,12.167,0,0,1,4.277.775,9.822,9.822,0,0,1,5.715,5.5c.015.04.031.083.048.122a11.654,11.654,0,0,1,.874,3.6l-.019,2.727c-.53,2.3-1.726,2.309-2.271,2.309a3.47,3.47,0,0,1-1.832-.6,1.615,1.615,0,1,0-2.005,2.533l.023.017a6.649,6.649,0,0,0,3.814,1.281c1.477,0,4.962-.589,5.635-6.06.038-.313.062-.621.076-.921a6.385,6.385,0,0,1,2.831,1.243,4.225,4.225,0,0,1,1.554,4.78l-.882,2.55,2.666-.418a11.82,11.82,0,0,1,1.726-.1A14.914,14.914,0,0,1,197.091,28c4.246,3.987,2.744,9.5,2.254,10.933-.173.363-2.419,4.952-5.565,5.1a2.194,2.194,0,0,1-1.657-.376,1.535,1.535,0,0,1-.171-1.066,1.613,1.613,0,0,0-3.135-.755h0a4.7,4.7,0,0,0,.815,3.872,4.752,4.752,0,0,0,3.88,1.556c.137,0,.277,0,.418-.01,3.8-.178,6.411-3.613,7.617-5.618,2.322.391,8.255,2.079,9.025,9.2.472,4.369-2.906,6.864-4.01,7.551Z" transform="translate(-77.553 0)" fill="#b8c4e0"/>
                  <path id="Tracé_91" data-name="Tracé 91" d="M338.869,99.879a9.3,9.3,0,0,0-2.187-8.294c-5.2-6.269-13.085-4.88-17.982-2.661a11.3,11.3,0,0,0-7.653-8.59c-5.91-2.014-10.473,1.964-12.588,4.4a14.788,14.788,0,0,0-10.852-3.919c-3.8.074-7.387,2.926-8.744,6.929a8.493,8.493,0,0,0,2.756,9.736,9.875,9.875,0,0,0,13.1-.342,1.613,1.613,0,0,0-2.206-2.353,6.637,6.637,0,0,1-8.888.169,5.393,5.393,0,0,1-1.707-6.18,6.71,6.71,0,0,1,5.753-4.737c6.7-.137,9.377,3.932,9.482,4.095a1.614,1.614,0,0,0,2.731.023c.042-.068,4.389-6.72,10.136-4.766a8.239,8.239,0,0,1,5.7,8,1.616,1.616,0,0,0,2.463,1.463c.418-.257,10.209-6.212,16.03.8a6.165,6.165,0,0,1,1.528,5.5,6.639,6.639,0,0,1-3.231,4.284c-2.111.948-4.749-.449-4.77-.462a1.614,1.614,0,1,0-1.562,2.821h0a10.892,10.892,0,0,0,3.961,1.149,7.419,7.419,0,0,0,3.683-.576A9.86,9.86,0,0,0,338.869,99.879Z" transform="translate(-235.957 -62.943)" fill="#b8c4e0"/>
                  <path id="Tracé_92" data-name="Tracé 92" d="M201.8,202.486a7.373,7.373,0,0,0-.385-4.143h.019a8.394,8.394,0,0,0,2.756-.46,7.4,7.4,0,0,0,4.692-5.277,10.216,10.216,0,0,0-1.747-8.967c-2.972-3.512-7.6-2.63-9.627-1.672a1.614,1.614,0,1,0,1.376,2.919c.038-.019,3.657-1.689,5.787.844a6.935,6.935,0,0,1,1.1,6.026,4.275,4.275,0,0,1-2.638,3.092,6.225,6.225,0,0,1-4.911-.591,13.128,13.128,0,0,0-1.872-1.266c-.1-.089-.158-.141-.163-.143a1.612,1.612,0,1,0-2.256,2.3h0a6.066,6.066,0,0,0,.511.449v.01a13.408,13.408,0,0,0,2,1.349,5.3,5.3,0,0,1,2.173,4.937c-.658,3.533-3.274,3.715-3.588,3.723a1.614,1.614,0,0,0,.017,3.227C196.982,208.844,200.862,207.514,201.8,202.486Z" transform="translate(-168.933 -142.889)" fill="#b8c4e0"/>
                  <path id="Tracé_93" data-name="Tracé 93" d="M232,313.613a9.613,9.613,0,0,0-8.51,5.91,1.613,1.613,0,1,0,3.005,1.171h0a6.411,6.411,0,0,1,5.6-3.841c3.543-.11,3.919,3.858,3.953,4.3a1.612,1.612,0,0,0,1.606,1.515h.1a1.61,1.61,0,0,0,1.509-1.707C239.11,318.335,237.39,313.44,232,313.613Z" transform="translate(-192.599 -247.42)" fill="#b8c4e0"/>
                  <path id="Tracé_94" data-name="Tracé 94" d="M544.242,246.021c-2.589-2.183-6.5-1.536-6.672-1.5a1.477,1.477,0,0,0,.5,2.893c.027,0,2.744-.418,4.278.861a3.632,3.632,0,0,1,1.1,2.955,4.445,4.445,0,0,1-1.194,3.4,5.028,5.028,0,0,1-3.39,1.068,1.478,1.478,0,0,0-1.558,1.817,5.184,5.184,0,0,1-.372,3.6,2.248,2.248,0,0,1-1.757.821,3.135,3.135,0,0,1-2.533-.662,3.839,3.839,0,0,1-.844-2.651,1.477,1.477,0,0,0-2.932-.232,6.7,6.7,0,0,0,1.678,4.948,5.588,5.588,0,0,0,4.135,1.56c.232,0,.472-.013.718-.029a5.077,5.077,0,0,0,3.907-2.034,6.824,6.824,0,0,0,1.078-4.292,6.742,6.742,0,0,0,5.992-7.314A6.41,6.41,0,0,0,544.242,246.021Z" transform="translate(-433.607 -192.821)" fill="#b8c4e0"/>
                </g>
              </g>
            </g>
          </g>
        </g>
      </g>
      <g id="Groupe_10805" data-name="Groupe 10805" transform="translate(56.117 33.671)">
        <path id="Tracé_22522" data-name="Tracé 22522" d="M472.8,159.782s6.823-1.055,11.254,1.184,6.463,7.783,6.463,7.783" transform="translate(-430.399 -159.533)" fill="none" stroke="#8595ba" stroke-linecap="round" stroke-linejoin="bevel" stroke-width="3"/>
        <path id="Tracé_22523" data-name="Tracé 22523" d="M289.616,159.783s-6.825-1.055-11.254,1.186-6.463,7.781-6.463,7.781" transform="translate(-271.9 -159.534)" fill="none" stroke="#8595ba" stroke-linecap="round" stroke-linejoin="bevel" stroke-width="3"/>
      </g>
      <g id="Groupe_24" data-name="Groupe 24" transform="translate(59.739 49.521)">
        <path id="Tracé_53" data-name="Tracé 53" d="M307.509,244.805l.042-.306q.019-.147.044-.367c0-.072.021-.147.027-.234s0-.192,0-.3c0-.209,0-.451-.019-.71s-.068-.511-.1-.8-.135-.582-.209-.9a9.9,9.9,0,0,0-.346-.975,6.708,6.708,0,0,0-.513-1.011,9.473,9.473,0,0,0-2.612-2.839c-.194-.131-.389-.263-.589-.391s-.418-.226-.633-.34l-.323-.167-.337-.137c-.228-.087-.456-.184-.691-.257a9.771,9.771,0,0,0-1.45-.338,5.518,5.518,0,0,0-.745-.087l-.374-.021h-.458l-.633.036-.159.01a1.262,1.262,0,0,0-.178.017l-.4.057a6.164,6.164,0,0,0-.778.145l-.716.2c-.234.074-.462.171-.69.255l-.338.139-.323.167c-.209.112-.418.209-.633.34s-.395.259-.589.389a9.5,9.5,0,0,0-2.612,2.841c-.194.34-.361.681-.513,1.009a5.956,5.956,0,0,0-.348.975,9.178,9.178,0,0,0-.209.9c-.046.284-.085.553-.1.8a6.345,6.345,0,0,0,0,.662v.287a2.274,2.274,0,0,0,.025.253c.017.156.031.289.042.4l.042.327a.633.633,0,0,0,1.237.078l.021-.078.074-.279a7.32,7.32,0,0,1,.209-.766l.173-.522c.087-.184.163-.385.251-.6a6.065,6.065,0,0,1,.331-.633c.12-.209.279-.437.418-.669a5.569,5.569,0,0,1,.522-.667,7.449,7.449,0,0,1,.621-.644,7.868,7.868,0,0,1,1.517-1.132,8.444,8.444,0,0,1,1.832-.764l.494-.112a1.238,1.238,0,0,1,.234-.042l.221-.031.224-.038a.736.736,0,0,1,.137-.013h.156l.633-.027a.695.695,0,1,0-.074,0h.5a3.149,3.149,0,0,1,.507.053c.167.031.34.033.5.08l.494.112a8.442,8.442,0,0,1,1.832.762,8.044,8.044,0,0,1,1.517,1.132,7.778,7.778,0,0,1,.621.644c.188.209.35.451.522.669a5.5,5.5,0,0,1,.418.669c.126.222.24.433.331.633s.165.41.251.6a4.4,4.4,0,0,1,.171.5c.025.076.05.149.076.209a1.762,1.762,0,0,1,.053.226q.046.209.083.361l.072.3a.633.633,0,0,0,1.254-.064Z" transform="translate(-288.985 -234.63)" fill="#8595ba"/>
        <path id="Tracé_54" data-name="Tracé 54" d="M468.729,244.805l.042-.306q.019-.147.044-.367c0-.072.021-.147.027-.234s0-.192,0-.3c0-.209,0-.451-.019-.71s-.068-.511-.1-.8-.135-.582-.209-.9a9.913,9.913,0,0,0-.346-.975,6.523,6.523,0,0,0-.515-1.011,9.432,9.432,0,0,0-2.612-2.839c-.194-.131-.389-.263-.589-.391s-.418-.226-.633-.34l-.323-.167-.338-.137c-.228-.087-.456-.184-.691-.257a9.71,9.71,0,0,0-1.45-.338,5.493,5.493,0,0,0-.743-.087l-.376-.021h-.447l-.633.036-.158.01a1.231,1.231,0,0,0-.175.017l-.4.057a6.029,6.029,0,0,0-.778.145l-.718.2c-.234.074-.46.171-.689.255l-.337.139-.323.167c-.209.112-.418.209-.633.34s-.395.259-.587.389a9.452,9.452,0,0,0-2.612,2.841c-.2.34-.362.681-.515,1.009a5.75,5.75,0,0,0-.346.975c-.083.313-.163.617-.209.9s-.083.553-.1.8-.01.478-.015.679v.287a2.31,2.31,0,0,0,.025.253c.017.156.029.289.042.4l.042.327a.633.633,0,0,0,1.237.078l.021-.078.072-.279a7.517,7.517,0,0,1,.209-.766l.176-.522c.085-.184.163-.385.249-.6a5.4,5.4,0,0,1,.333-.633c.122-.209.277-.437.418-.669a5.587,5.587,0,0,1,.522-.667,7.441,7.441,0,0,1,.621-.644,7.85,7.85,0,0,1,1.515-1.132,8.49,8.49,0,0,1,1.832-.764l.494-.112a1.307,1.307,0,0,1,.234-.042l.224-.031.222-.038a.732.732,0,0,1,.137-.013h.158l.633-.027a.7.7,0,1,0-.076,0h.494a3.15,3.15,0,0,1,.509.052c.167.031.34.033.5.08l.494.112a8.442,8.442,0,0,1,1.832.762,8.048,8.048,0,0,1,1.517,1.132,7.753,7.753,0,0,1,.621.644c.188.209.35.451.517.669a5.5,5.5,0,0,1,.418.669c.124.221.242.433.333.633s.165.41.251.6l.171.5c.027.076.05.149.076.209a1.787,1.787,0,0,1,.052.226l.083.361.072.3a.634.634,0,0,0,1.266-.064Z" transform="translate(-416.188 -234.63)" fill="#8595ba"/>
      </g>
      <g id="Groupe_23" data-name="Groupe 23" transform="translate(73.489 67.376)">
        <g id="Groupe_22" data-name="Groupe 22" transform="translate(0 0)">
          <path id="Tracé_51" data-name="Tracé 51" d="M378.664,321.229a6.446,6.446,0,0,1-2.194,4.643,12.442,12.442,0,0,1-5.023,2.775,17.94,17.94,0,0,1-10.01,0,12.409,12.409,0,0,1-5.023-2.775,6.431,6.431,0,0,1-2.187-4.643c0-3.272,2.9-1.776,7.092-.722a18.536,18.536,0,0,0,10.24,0C375.756,319.453,378.664,317.955,378.664,321.229Z" transform="translate(-354.227 -319.233)" fill="#8595ba"/>
        </g>
        <path id="Tracé_52" data-name="Tracé 52" d="M398.4,344.829a17.942,17.942,0,0,1-10.012,0,5.066,5.066,0,0,1,10.012,0Z" transform="translate(-381.177 -336.038)" fill="#f3f6fe"/>
      </g>
    </g>
  </g>
</svg>
