<svg xmlns="http://www.w3.org/2000/svg" width="156.076" height="149.387" viewBox="0 0 156.076 149.387">
  <g id="Group_15283" data-name="Group 15283" transform="translate(-134.944 -263.508)">
    <g id="Group_10826" data-name="Group 10826" transform="translate(134.944 263.508)">
      <g id="Group_10825" data-name="Group 10825" transform="translate(0 0)">
        <g id="Group_10824" data-name="Group 10824" transform="translate(0)">
          <g id="Group_10823" data-name="Group 10823" transform="translate(0)">
            <g id="Group_10822" data-name="Group 10822">
              <g id="Group_10821" data-name="Group 10821" transform="translate(0)">
                <g id="Group_10109" data-name="Group 10109">
                  <path id="iconmonstr-star-3_2_" data-name="iconmonstr-star-3 (2)" d="M78.038.587l23.854,49.529,54.184,7.533L116.641,95.791l9.625,54.183L78.038,124.011,29.8,149.974l9.631-54.183L0,57.649l54.184-7.533Z" transform="translate(0 -0.587)" fill="#8bdee1"/>
                  <g id="Objects" transform="translate(13.589 51.049)">
                    <g id="Group_43" data-name="Group 43" transform="translate(0)">
                      <path id="Path_32" data-name="Path 32" d="M304.5,715.28c0,1.327-15.855,2.4-35.413,2.4s-35.413-1.075-35.413-2.4,15.855-2.4,35.413-2.4S304.5,713.953,304.5,715.28Z" transform="translate(-206.171 -624.784)" fill="#fff" opacity="0.75"/>
                      <g id="Group_41" data-name="Group 41" opacity="0.75">
                        <path id="Path_67" data-name="Path 67" d="M147.517,299.132c0,2.339-1.037,3.376-3.376,3.376,2.339,0,3.376,1.037,3.376,3.376,0-2.339,1.037-3.376,3.376-3.376C148.554,302.508,147.517,301.471,147.517,299.132Z" transform="translate(-135.7 -299.132)" fill="#fff"/>
                        <path id="Path_68" data-name="Path 68" d="M109.206,338.252c0,3.263-1.447,4.71-4.71,4.71,3.263,0,4.71,1.447,4.71,4.71,0-3.263,1.447-4.71,4.71-4.71C110.653,342.962,109.206,341.515,109.206,338.252Z" transform="translate(-104.496 -329.923)" fill="#fff"/>
                        <path id="Path_69" data-name="Path 69" d="M166.511,341.932a.716.716,0,1,1-.716-.716A.716.716,0,0,1,166.511,341.932Z" transform="translate(-152.179 -332.255)" fill="#fff"/>
                        <path id="Path_70" data-name="Path 70" d="M113.312,312.689a1.17,1.17,0,1,1-1.17-1.17A1.17,1.17,0,0,1,113.312,312.689Z" transform="translate(-109.594 -308.882)" fill="#fff"/>
                        <path id="Path_71" data-name="Path 71" d="M153.512,372.078a.689.689,0,1,1-.689-.689A.689.689,0,0,1,153.512,372.078Z" transform="translate(-141.992 -356.004)" fill="#fff"/>
                      </g>
                      <g id="Group_42" data-name="Group 42" transform="translate(113.096 11.558)" opacity="0.748">
                        <path id="Path_72" data-name="Path 72" d="M639.044,353.417c0,2.339,1.037,3.376,3.377,3.376-2.339,0-3.377,1.037-3.377,3.376,0-2.339-1.037-3.376-3.376-3.376C638.007,356.793,639.044,355.756,639.044,353.417Z" transform="translate(-635.668 -353.417)" fill="#fff"/>
                        <path id="Path_73" data-name="Path 73" d="M667.494,392.537c0,3.263,1.447,4.71,4.71,4.71-3.263,0-4.71,1.447-4.71,4.71,0-3.263-1.447-4.71-4.71-4.71C666.047,397.247,667.494,395.8,667.494,392.537Z" transform="translate(-657.011 -384.208)" fill="#fff"/>
                        <path id="Path_74" data-name="Path 74" d="M639.715,396.217a.716.716,0,1,0,.716-.716A.716.716,0,0,0,639.715,396.217Z" transform="translate(-638.854 -386.54)" fill="#fff"/>
                        <path id="Path_75" data-name="Path 75" d="M689.56,366.974a1.17,1.17,0,1,0,1.17-1.17A1.17,1.17,0,0,0,689.56,366.974Z" transform="translate(-678.086 -363.167)" fill="#fff"/>
                        <path id="Path_76" data-name="Path 76" d="M652.917,426.363a.689.689,0,1,0,.689-.689A.689.689,0,0,0,652.917,426.363Z" transform="translate(-649.244 -410.289)" fill="#fff"/>
                      </g>
                    </g>
                  </g>
                </g>
              </g>
            </g>
          </g>
        </g>
      </g>
    </g>
    <g id="Group_15282" data-name="Group 15282" transform="translate(140.87 292.519)">
      <path id="Tracé_101" data-name="Tracé 101" d="M578.216,104.627c4.929,1.668,12.022-6.145,12.275-10.528s-1.4-7.226-3.654-11.275c-2.117-3.813-5-5.145-8.528-6.872-.149-.65-9.264,2.117-9.264,2.117a3.63,3.63,0,0,1-2.281-6.342,11.349,11.349,0,0,1-2-.155,47.307,47.307,0,0,0-5.561.812c-2.13-2.157,3.307-2.843,4.475-2.929a57.872,57.872,0,0,1,7.086-.158c.409.063,10.755,2.569,16.915,10.3,2.288,2.869,4.558,6.7,4.923,10.251a17.566,17.566,0,0,1-2.447,10.849c-4.065,5.955-12.424,7.638-15.092,6.747a25.113,25.113,0,0,0,3.156-2.812Z" transform="translate(-449.843 -57.199)" fill="#8595ba"/>
      <g id="Groupe_10788" data-name="Groupe 10788" transform="translate(0 0)">
        <g id="Groupe_10778" data-name="Groupe 10778" transform="translate(0 0)">
          <g id="Group_15282-2" data-name="Group 15282">
            <g id="Groupe_10775" data-name="Groupe 10775" transform="translate(0 19.503)">
              <path id="Tracé_22528-2" data-name="Tracé 22528-2" d="M26.339,137.879a7.04,7.04,0,0,0-.485-.782,128.5,128.5,0,0,1-15.023.492c-5.269-.184,3.11-18.62,5.867-24.093.523-1.035,4.777-1.115,4.77-2.348s-2.117-.368-2.117-.368,2.091-1.613,2.045-2.485-1.442-4.969-4.175-2.721S3.9,135.99,6.4,138.992c1.921,2.3,13.879,2.353,19.332,2.251C26.189,140.184,26.836,138.814,26.339,137.879Z" transform="translate(-6.02 -104.909)" fill="#8595ba"/>
            </g>
            <g id="Groupe_10740" data-name="Groupe 10740" transform="translate(13.297)">
              <g id="Groupe_10740-2" data-name="Groupe 10740-2" transform="translate(0)">
                <g id="Groupe_10738" data-name="Groupe 10738">
                  <g id="Groupe_34" data-name="Groupe 34">
                    <g id="Groupe_25" data-name="Groupe 25" transform="translate(33.913 67.077)">
                      <path id="Tracé_87" data-name="Tracé 87" d="M268.311,365.89s2.532,39.342,1.266,40.509-8.224.122-9.49,2.291,10.629,2.045,12.148.71,0-43.509,0-43.509Z" transform="translate(-259.994 -364.955)" fill="#8595ba"/>
                      <path id="Tracé_88" data-name="Tracé 88" d="M478.347,360.86s-2.532,39.344-1.266,40.511,8.222.121,9.49,2.289-10.629,2.045-12.148.712,0-43.511,0-43.511Z" transform="translate(-434.011 -360.86)" fill="#8595ba"/>
                    </g>
                    <g id="Groupe_27" data-name="Groupe 27">
                      <path id="Tracé_89" data-name="Tracé 89" d="M170.683,82.576c1.216.511,5.32,1.967,8.643-.16,3.946-2.528,3.946-5.522,3.946-5.522A11.5,11.5,0,0,0,194.8,74.21c5.526-5.05,3-15.124,3-15.124s5.178-2.692,4.578-8.238c-.97-8.962-10.1-9.479-10.1-9.479s2.842-6.787-2.209-11.525a14.832,14.832,0,0,0-11.681-3.63,5.218,5.218,0,0,0-1.9-5.831c-3.149-2.209-5.675-.891-5.675-.891s.543-7.178-5.989-9.623a13.385,13.385,0,0,0-11.539,1.359s-3.948-4.268-9.63-3.476a17.669,17.669,0,0,0-8.843,3.63,10.041,10.041,0,0,0-9.785-2.214,9.091,9.091,0,0,0-6.626,7.263s-10.14-2.825-15.658,4.112S99.894,33.3,99.894,33.3s-9.125-1.243-11.964,7.436A15.344,15.344,0,0,0,90.3,55.26s-7.42,7.422-4.265,15.474,10.724,6.35,10.724,6.35a8.356,8.356,0,0,0,8.062,7.381c7.418.472,10.577-2.209,10.577-2.209s6.47,5.364,12.785,4.735,8.683-3.16,8.683-3.16,6,3.415,11.839,3.206,10.578-4.156,10.578-4.156a6.242,6.242,0,0,0,5.84,2.842C169.056,85.319,170.454,82.477,170.683,82.576Z" transform="translate(-83.819 -6.231)" fill="#f3f6fe"/>
                      <g id="Groupe_26" data-name="Groupe 26">
                        <path id="Tracé_90" data-name="Tracé 90" d="M197.518,44.46c-.744-6.855-5.949-9.685-9.663-10.491a11.533,11.533,0,0,0-3.08-11.387,15.96,15.96,0,0,0-10.9-4.128h-.078a6.35,6.35,0,0,0-2.751-5.471,7.935,7.935,0,0,0-4.348-1.633,9.3,9.3,0,0,0-.961-2.6A11.428,11.428,0,0,0,159.057,2.3a13.553,13.553,0,0,0-4.759-.859,14.94,14.94,0,0,0-4.669.773h-.039a2.924,2.924,0,0,0-.346.121l-.184.073h-.018a15.917,15.917,0,0,0-1.822.809A13.539,13.539,0,0,0,138.794,0a11.552,11.552,0,0,0-1.6.111,20.089,20.089,0,0,0-8.6,3.221,11.482,11.482,0,0,0-6.81-2.258,12.359,12.359,0,0,0-3.417.5,10.428,10.428,0,0,0-7.3,6.977c-3.111-.456-10.6-.8-15.356,5.178-3.177,3.993-3.957,7.383-3.966,9.731v.031a8.511,8.511,0,0,0,.1,1.472,13.159,13.159,0,0,0-11.525,9.1,16.846,16.846,0,0,0,1.818,14.8c-.162.173-.26.294-.281.317a1.447,1.447,0,0,0-.26.525c-2.156,2.812-5.706,8.8-3.149,15.319,2.294,5.856,6.835,6.736,9.337,6.736a11.871,11.871,0,0,0,1.7-.124c.727,3.257,3.171,7.664,8.976,8.034.612.039,1.221.06,1.812.06a17.871,17.871,0,0,0,8.785-1.952c1.9,1.38,6.718,4.473,11.8,4.473.4,0,.8-.02,1.2-.056a19.273,19.273,0,0,0,7.831-2.313,4.832,4.832,0,0,0,.953-.528,26.872,26.872,0,0,0,11.074,2.907c.184,0,.368,0,.571-.011a20.51,20.51,0,0,0,10.248-3.612,4.514,4.514,0,0,0,.509.47.994.994,0,0,0,.115.063,7.318,7.318,0,0,0,4.822,1.8h0a8.036,8.036,0,0,0,.818-.04,8.885,8.885,0,0,0,5.785-2.911,13.294,13.294,0,0,0,4.19.725,8.852,8.852,0,0,0,4.852-1.345,9.933,9.933,0,0,0,4.24-4.974,13,13,0,0,0,11.419-3.381c5.054-4.621,4.141-12.656,3.636-15.5a9.792,9.792,0,0,0,4.4-9.076Zm-6.35,6.957c-.756-.23-1.686-.49-2.814-.773a5.581,5.581,0,0,0-5.643,1.472,4.785,4.785,0,0,0-.911,4.924,4.049,4.049,0,0,0,4.1,2.675,6.691,6.691,0,0,0,2.128-.348,1.288,1.288,0,1,0-.835-2.43h0c-.1.033-2.4.805-2.974-.779a2.266,2.266,0,0,1,.409-2.326,3.046,3.046,0,0,1,3.108-.7c1.019.255,1.859.491,2.552.7.4,2.173,1.372,9.357-2.712,13.092a10.273,10.273,0,0,1-7.086,2.867,9.542,9.542,0,0,1-2.831-.412L175.1,64.453a1.422,1.422,0,1,0-2.535,1.288l.015.026,2.872,5.534a6.984,6.984,0,0,1-3.16,3.689,6.056,6.056,0,0,1-3.32.9,10.882,10.882,0,0,1-4-.851l-.276-.115h-.29a1.84,1.84,0,0,0-1.418.824,6.155,6.155,0,0,1-4.276,2.342,5.065,5.065,0,0,1-.526.028h0a4.776,4.776,0,0,1-3.718-1.859,4.586,4.586,0,0,1-.676-2.683,2.318,2.318,0,0,1,1.063-1.939c1.819-1.046,2.7-.156,2.927.149a1.421,1.421,0,1,0,2.331-1.624c-.822-1.2-3.272-2.945-6.677-.987a5.068,5.068,0,0,0-2.48,4.2,7.343,7.343,0,0,0,.368,2.779,17.675,17.675,0,0,1-8.932,3.248,22.957,22.957,0,0,1-9.744-2.351v-.009a9.181,9.181,0,0,0-.569-7.178c-1.81-4.026-6.173-3.895-8.223-3.261a1.42,1.42,0,1,0,.8,2.721h.022c.145-.042,3.55-1.059,4.8,1.712a6.554,6.554,0,0,1,.526,4.939,2.825,2.825,0,0,1-.225.443l-.215.217c-.02.02-2.2,2.169-7.8,2.729a8.791,8.791,0,0,1-.911.042c-4.276,0-8.558-2.788-10.164-3.957l.355-4.307a1.422,1.422,0,1,0-2.833-.232l-.352,4.276a14.675,14.675,0,0,1-7.6,1.7c-.53,0-1.079-.018-1.63-.052-5.885-.368-6.506-6.374-6.552-6.946a3.884,3.884,0,0,1,2.091-3.121,3.049,3.049,0,0,1,1.885-.513.5.5,0,0,1-.1-.037L97.076,63.6c-.276-.115-1.77-.636-4.216.651a6.626,6.626,0,0,0-3.467,4.5,9.094,9.094,0,0,1-1.619.151c-3.16,0-5.413-1.657-6.692-4.917-2.652-6.762,3.313-13.278,3.9-13.9a7.223,7.223,0,0,1,4.638-1.613,4.391,4.391,0,0,1,4.115,2.718,1.42,1.42,0,0,0,2.69-.913,7.185,7.185,0,0,0-6.747-4.647,9.771,9.771,0,0,0-5.318,1.438A14.151,14.151,0,0,1,83.017,34.95C85,28.894,90.493,27.9,92.7,27.743a6.8,6.8,0,0,0,5.33,3.822,7.515,7.515,0,0,0,1.1.082,7.861,7.861,0,0,0,6.846-4.545,1.422,1.422,0,1,0-2.582-1.19c-.065.137-1.611,3.324-4.954,2.84a4.022,4.022,0,0,1-2.915-1.814l-.583-1.258a2.247,2.247,0,0,1-.084-.212,6.91,6.91,0,0,1-.276-1.888v-.135c.017-1.777.644-4.524,3.361-7.943,4.219-5.3,11.357-4.405,13.325-4.037l2,4.5a1.424,1.424,0,0,0,1.3.844,1.4,1.4,0,0,0,.576-.122,1.42,1.42,0,0,0,.721-1.876L113.7,9.954c-.015-.031-.035-.058-.052-.092A7.684,7.684,0,0,1,119.164,4.3a9.43,9.43,0,0,1,2.625-.385,8.651,8.651,0,0,1,5.732,2.216l.317.331a3.892,3.892,0,0,1,.547,3.844,3.182,3.182,0,0,1-2.991,2.007,1.421,1.421,0,1,0-.266,2.829c.106,0,.214.013.319.013a6.036,6.036,0,0,0,5.489-3.607,6.429,6.429,0,0,0-.4-6.1,17.543,17.543,0,0,1,7.043-2.524,8.787,8.787,0,0,1,1.21-.084,10.462,10.462,0,0,1,6.272,2.32,6.705,6.705,0,0,0-1.5,2.958,5.8,5.8,0,0,0,4,7,1.545,1.545,0,0,0,.346.042,1.422,1.422,0,0,0,.344-2.8,2.945,2.945,0,0,1-1.916-3.635c.526-2.426,3.413-3.549,3.968-3.744a12.228,12.228,0,0,1,3.986-.7,10.715,10.715,0,0,1,3.767.683A8.65,8.65,0,0,1,163.094,9.8c.013.035.028.073.042.108a10.263,10.263,0,0,1,.769,3.171l-.017,2.4c-.467,2.025-1.52,2.034-2,2.034a3.056,3.056,0,0,1-1.613-.53,1.423,1.423,0,1,0-1.766,2.231l.02.015a5.856,5.856,0,0,0,3.359,1.128c1.3,0,4.37-.519,4.963-5.338.033-.276.054-.547.067-.811a5.624,5.624,0,0,1,2.493,1.1,3.721,3.721,0,0,1,1.368,4.21L170,21.763l2.348-.368a10.41,10.41,0,0,1,1.52-.092,13.135,13.135,0,0,1,8.962,3.357c3.74,3.512,2.417,8.364,1.985,9.629-.153.319-2.13,4.361-4.9,4.491a1.933,1.933,0,0,1-1.46-.331,1.352,1.352,0,0,1-.151-.939,1.421,1.421,0,0,0-2.761-.665h0a4.141,4.141,0,0,0,.718,3.411,4.185,4.185,0,0,0,3.417,1.37c.121,0,.244,0,.368-.009,3.346-.156,5.647-3.182,6.709-4.948,2.045.344,7.27,1.831,7.948,8.1.416,3.848-2.559,6.045-3.532,6.651Z" transform="translate(-77.553 0)" fill="#b8c4e0"/>
                        <path id="Tracé_91" data-name="Tracé 91" d="M331.646,97.482a8.19,8.19,0,0,0-1.926-7.305c-4.584-5.522-11.525-4.3-15.837-2.344a9.948,9.948,0,0,0-6.74-7.566c-5.2-1.773-9.224,1.73-11.086,3.873a13.024,13.024,0,0,0-9.558-3.452,8.7,8.7,0,0,0-7.7,6.1,7.48,7.48,0,0,0,2.428,8.575,8.7,8.7,0,0,0,11.537-.3,1.42,1.42,0,0,0-1.943-2.072,5.846,5.846,0,0,1-7.828.149,4.749,4.749,0,0,1-1.5-5.442,5.91,5.91,0,0,1,5.067-4.172c5.9-.121,8.259,3.463,8.351,3.607a1.422,1.422,0,0,0,2.406.02c.037-.06,3.865-5.918,8.927-4.2A7.256,7.256,0,0,1,311.259,90a1.424,1.424,0,0,0,2.169,1.288c.368-.226,8.991-5.471,14.118.7a5.43,5.43,0,0,1,1.345,4.848,5.847,5.847,0,0,1-2.846,3.773c-1.859.835-4.183-.4-4.2-.407a1.422,1.422,0,1,0-1.376,2.485h0a9.593,9.593,0,0,0,3.489,1.012,6.534,6.534,0,0,0,3.244-.507A8.683,8.683,0,0,0,331.646,97.482Z" transform="translate(-241.009 -64.952)" fill="#b8c4e0"/>
                        <path id="Tracé_92" data-name="Tracé 92" d="M200.8,199.937a6.493,6.493,0,0,0-.339-3.649h.017a7.391,7.391,0,0,0,2.428-.4,6.513,6.513,0,0,0,4.132-4.647,9,9,0,0,0-1.539-7.9c-2.617-3.093-6.692-2.316-8.478-1.472a1.421,1.421,0,0,0,1.212,2.571c.033-.017,3.221-1.487,5.1.744a6.108,6.108,0,0,1,.972,5.307,3.765,3.765,0,0,1-2.324,2.723,5.483,5.483,0,0,1-4.325-.521A11.565,11.565,0,0,0,196,191.575c-.092-.078-.139-.124-.144-.126a1.42,1.42,0,1,0-1.987,2.025h0a5.337,5.337,0,0,0,.45.4v.009a11.806,11.806,0,0,0,1.759,1.188,4.672,4.672,0,0,1,1.914,4.348c-.58,3.111-2.883,3.271-3.16,3.279a1.422,1.422,0,0,0,.015,2.842C196.554,205.536,199.971,204.366,200.8,199.937Z" transform="translate(-171.851 -147.448)" fill="#b8c4e0"/>
                        <path id="Tracé_93" data-name="Tracé 93" d="M230.967,313.613a8.467,8.467,0,0,0-7.495,5.205,1.421,1.421,0,1,0,2.647,1.032h0a5.647,5.647,0,0,1,4.935-3.383c3.121-.1,3.452,3.4,3.481,3.789a1.42,1.42,0,0,0,1.414,1.334h.092a1.418,1.418,0,0,0,1.329-1.5C237.231,317.771,235.716,313.46,230.967,313.613Z" transform="translate(-196.268 -255.315)" fill="#b8c4e0"/>
                        <path id="Tracé_94" data-name="Tracé 94" d="M542.407,245.829c-2.28-1.922-5.729-1.353-5.876-1.325a1.3,1.3,0,0,0,.441,2.548c.024,0,2.417-.368,3.768.758a3.2,3.2,0,0,1,.972,2.6,3.915,3.915,0,0,1-1.052,3,4.429,4.429,0,0,1-2.985.941,1.3,1.3,0,0,0-1.372,1.6,4.565,4.565,0,0,1-.328,3.171,1.98,1.98,0,0,1-1.547.723,2.761,2.761,0,0,1-2.231-.583,3.381,3.381,0,0,1-.744-2.335,1.3,1.3,0,0,0-2.582-.2,5.9,5.9,0,0,0,1.478,4.357,4.922,4.922,0,0,0,3.641,1.374c.2,0,.416-.011.632-.026a4.471,4.471,0,0,0,3.441-1.792,6.011,6.011,0,0,0,.95-3.78,5.937,5.937,0,0,0,5.277-6.442A5.645,5.645,0,0,0,542.407,245.829Z" transform="translate(-444.968 -198.973)" fill="#b8c4e0"/>
                      </g>
                    </g>
                  </g>
                </g>
              </g>
            </g>
            <g id="Groupe_10805" data-name="Groupe 10805" transform="translate(49.423 29.655)">
              <path id="Tracé_22522" data-name="Tracé 22522" d="M472.8,159.752s6.009-.929,9.911,1.043,5.692,6.855,5.692,6.855" transform="translate(-435.456 -159.533)" fill="none" stroke="#8595ba" stroke-linecap="round" stroke-linejoin="bevel" stroke-width="3"/>
              <path id="Tracé_22523" data-name="Tracé 22523" d="M287.5,159.753s-6.011-.929-9.911,1.044-5.692,6.853-5.692,6.853" transform="translate(-271.9 -159.534)" fill="none" stroke="#8595ba" stroke-linecap="round" stroke-linejoin="bevel" stroke-width="3"/>
            </g>
            <g id="Groupe_24" data-name="Groupe 24" transform="translate(52.614 43.614)">
              <path id="Tracé_53" data-name="Tracé 53" d="M305.3,243.592l.037-.27q.016-.13.039-.323c0-.063.018-.13.024-.206s0-.169,0-.262c0-.184,0-.4-.017-.625s-.06-.45-.092-.7-.119-.513-.184-.793a8.708,8.708,0,0,0-.3-.859,5.91,5.91,0,0,0-.452-.891,8.344,8.344,0,0,0-2.3-2.5c-.171-.115-.342-.232-.519-.344s-.368-.2-.558-.3l-.284-.147-.3-.121c-.2-.076-.4-.162-.608-.226a8.6,8.6,0,0,0-1.277-.3,4.857,4.857,0,0,0-.656-.076l-.329-.018h-.4l-.558.031-.14.009a1.121,1.121,0,0,0-.157.015l-.353.051a5.433,5.433,0,0,0-.686.128l-.63.175c-.206.065-.407.151-.607.225l-.3.122-.284.147c-.184.1-.368.184-.558.3s-.348.228-.519.342a8.363,8.363,0,0,0-2.3,2.5c-.171.3-.318.6-.452.889a5.239,5.239,0,0,0-.306.859,8.089,8.089,0,0,0-.184.793c-.04.25-.074.487-.092.7a5.588,5.588,0,0,0,0,.583v.253a2,2,0,0,0,.022.223c.015.137.028.255.037.35l.037.288a.558.558,0,0,0,1.09.069l.018-.069.065-.246a6.457,6.457,0,0,1,.184-.674l.153-.46c.076-.162.144-.339.221-.525a5.328,5.328,0,0,1,.292-.558c.106-.184.246-.385.368-.589a4.912,4.912,0,0,1,.46-.587,6.57,6.57,0,0,1,.547-.567,6.929,6.929,0,0,1,1.336-1,7.429,7.429,0,0,1,1.613-.673l.435-.1a1.091,1.091,0,0,1,.206-.037l.2-.028.2-.033a.652.652,0,0,1,.121-.011h.137l.558-.024a.612.612,0,1,0-.065,0h.444a2.782,2.782,0,0,1,.446.047c.147.028.3.029.443.071l.435.1a7.436,7.436,0,0,1,1.613.671,7.085,7.085,0,0,1,1.336,1,6.847,6.847,0,0,1,.547.567c.166.184.308.4.46.589a4.851,4.851,0,0,1,.368.589c.111.2.212.381.292.558s.145.361.221.525a3.888,3.888,0,0,1,.151.439c.022.067.044.132.067.184a1.578,1.578,0,0,1,.047.2q.04.184.073.317l.063.264a.558.558,0,0,0,1.1-.056Z" transform="translate(-288.985 -234.63)" fill="#8595ba"/>
              <path id="Tracé_54" data-name="Tracé 54" d="M466.52,243.592l.037-.27q.017-.13.039-.323c0-.063.018-.13.024-.206s0-.169,0-.262c0-.184,0-.4-.017-.625s-.06-.45-.092-.7-.119-.513-.184-.793a8.742,8.742,0,0,0-.3-.859,5.756,5.756,0,0,0-.454-.891,8.307,8.307,0,0,0-2.3-2.5c-.171-.115-.342-.232-.519-.344s-.368-.2-.558-.3l-.284-.147-.3-.121c-.2-.076-.4-.162-.608-.226a8.538,8.538,0,0,0-1.277-.3,4.831,4.831,0,0,0-.654-.076l-.331-.018h-.394l-.558.031-.139.009a1.093,1.093,0,0,0-.154.015l-.354.051a5.314,5.314,0,0,0-.686.128l-.632.175c-.206.065-.4.151-.607.225l-.3.122-.284.147c-.184.1-.368.184-.558.3s-.348.228-.517.342a8.323,8.323,0,0,0-2.3,2.5c-.173.3-.319.6-.454.889a5.08,5.08,0,0,0-.3.859c-.073.276-.144.543-.184.793s-.073.487-.092.7-.009.421-.013.6v.253a2.017,2.017,0,0,0,.022.223c.015.137.026.255.037.35l.037.288a.558.558,0,0,0,1.09.069l.018-.069.063-.246a6.567,6.567,0,0,1,.184-.675l.154-.46c.075-.162.144-.339.219-.525a4.766,4.766,0,0,1,.294-.558c.108-.184.244-.385.368-.589a4.91,4.91,0,0,1,.46-.587,6.548,6.548,0,0,1,.547-.567,6.916,6.916,0,0,1,1.334-1,7.48,7.48,0,0,1,1.613-.673l.435-.1a1.15,1.15,0,0,1,.206-.037l.2-.028.2-.033a.65.65,0,0,1,.121-.011h.139l.558-.024a.614.614,0,1,0-.067,0h.435a2.76,2.76,0,0,1,.448.046c.147.028.3.029.443.071l.435.1a7.439,7.439,0,0,1,1.613.671,7.084,7.084,0,0,1,1.336,1,6.838,6.838,0,0,1,.547.567c.166.184.308.4.456.589a4.833,4.833,0,0,1,.368.589c.109.2.214.381.294.558s.145.361.221.525l.151.439c.024.067.044.132.067.184a1.581,1.581,0,0,1,.046.2l.073.317.063.264a.559.559,0,0,0,1.115-.056Z" transform="translate(-420.246 -234.63)" fill="#8595ba"/>
            </g>
            <g id="Groupe_23" data-name="Groupe 23" transform="translate(64.724 59.339)">
              <g id="Groupe_22" data-name="Groupe 22" transform="translate(0 0)">
                <path id="Tracé_51" data-name="Tracé 51" d="M375.749,320.991a5.677,5.677,0,0,1-1.933,4.09,10.957,10.957,0,0,1-4.424,2.444,15.8,15.8,0,0,1-8.816,0,10.929,10.929,0,0,1-4.424-2.444,5.664,5.664,0,0,1-1.926-4.09c0-2.881,2.557-1.565,6.246-.636a16.326,16.326,0,0,0,9.019,0C373.188,319.427,375.749,318.108,375.749,320.991Z" transform="translate(-354.227 -319.233)" fill="#8595ba"/>
              </g>
              <path id="Tracé_52" data-name="Tracé 52" d="M397.208,344.318a15.8,15.8,0,0,1-8.818,0,4.461,4.461,0,0,1,8.818,0Z" transform="translate(-382.037 -336.575)" fill="#f3f6fe"/>
            </g>
          </g>
        </g>
      </g>
    </g>
  </g>
</svg>
