<svg xmlns="http://www.w3.org/2000/svg" width="212.07" height="120.014" viewBox="0 0 212.07 120.014">
  <g id="Group_15347" data-name="Group 15347" transform="translate(-81 -195.999)">
    <g id="Groupe_11172" data-name="Groupe 11172" transform="translate(81 211.715)">
      <g id="fusee">
        <g id="OBJECTS">
          <g id="Groupe_10733" data-name="Groupe 10733">
            <path id="Tracé_20852" data-name="Tracé 20852" d="M183.1,92.54c-11.06,6.55-20.16,7.93-26.56,7.93-16.37-.07-38.35-9.17-46.72-9.75a113.392,113.392,0,0,0-12.23.07c-8,.29-13.61,1-18.41,1.53-6,.65-14.85,1.46-25.91,2-.87.14-20,2.47-29.84-11.36C22.71,82,15.5,71.5,19,62.7c1.9-4.8,7.79-11.13,14.41-14.77,1.6-.87,2.62-1.24,3-2.4C37.92,40.8,24,35.71,22.56,27.19c-.73-4.29,1.38-10.91,15.07-21.1C47.09,1.65,60.48-2.57,73.8,1.94,85.15,5.8,86.17,12.42,96.57,14.46c13.18,2.48,16.74-7.13,39.3-10.84,9.47-1.6,19.5-3.06,29.48,2.25,2,1.1,13.68,7.28,15.28,18,1.89,12.88-15,18.63-13.1,29.26,2,11.79,23.8,13,25.11,24.08C193.36,82.93,188.27,88.39,183.1,92.54Z" transform="translate(0 -0.01)" fill="#dfe4f4"/>
            <circle id="Ellipse_392" data-name="Ellipse 392" cx="7.35" cy="7.35" r="7.35" transform="translate(197.37 3.81)" fill="#dfe4f4"/>
            <circle id="Ellipse_393" data-name="Ellipse 393" cx="3.64" cy="3.64" r="3.64" transform="translate(188.12 20.62)" fill="#dfe4f4"/>
            <circle id="Ellipse_394" data-name="Ellipse 394" cx="5.75" cy="5.75" r="5.75" transform="translate(0 73.68)" fill="#dfe4f4"/>
            <circle id="Ellipse_395" data-name="Ellipse 395" cx="5.75" cy="5.75" r="5.75" transform="translate(194.38 57.45)" fill="#dfe4f4"/>
            <circle id="Ellipse_396" data-name="Ellipse 396" cx="5.75" cy="5.75" r="5.75" transform="translate(11.42 2.79)" fill="#dfe4f4"/>
          </g>
        </g>
      </g>
    </g>
    <g id="Group_15346" data-name="Group 15346" transform="translate(-15 -161.287)">
      <g id="Group_12225" data-name="Group 12225" transform="translate(134.003 357.286)">
        <g id="Group_11094" data-name="Group 11094" transform="translate(0 0)">
          <g id="Group_11093" data-name="Group 11093" transform="translate(0 0)">
            <g id="Group_14136" data-name="Group 14136">
              <g id="Group_11090" data-name="Group 11090">
                <path id="Path_22543" data-name="Path 22543" d="M329.528,530.8s-6.624,25.91-6.391,36.352.21,13.492,3.379,13.78c4.261.389,2.6-5.013,2.6-5.013s1.179,1.561,2.114.967-.389-2.279-2.72-4.786-3.545-2.94-1.578-13.767,7.4-22.763,6.929-25.452S329.528,530.8,329.528,530.8Z" transform="translate(-314.846 -478.678)" fill="#8595ba"/>
                <g id="Group_10797" data-name="Group 10797" transform="translate(36.618 70.982)">
                  <path id="Path_87" data-name="Path 87" d="M219.264,544.795s2.734,42.48,1.368,43.74-8.879.133-10.246,2.473,11.476,2.208,13.117.767,0-46.979,0-46.979Z" transform="translate(-210.284 -543.786)" fill="#8595ba"/>
                  <path id="Path_88" data-name="Path 88" d="M279.934,543.274s-2.735,42.482-1.368,43.742,8.879.131,10.246,2.471-11.476,2.209-13.118.769,0-46.982,0-46.982Z" transform="translate(-232.063 -543.274)" fill="#8595ba"/>
                </g>
                <path id="Path_24887" data-name="Path 24887" d="M327.493,530.8s6.624,25.91,6.391,36.352-.21,13.492-3.379,13.78c-4.261.389-3.122-4.418-3.122-4.418a13.38,13.38,0,0,0-1.7-1.3c-.933-.6.5-.6,2.828-3.111s3.545-2.94,1.578-13.767-7.4-22.763-6.929-25.452S327.493,530.8,327.493,530.8Z" transform="translate(-217.845 -480.678)" fill="#8595ba"/>
              </g>
              <g id="Group_14134" data-name="Group 14134">
                <g id="Group_10793" data-name="Group 10793">
                  <g id="Group_10771" data-name="Group 10771">
                    <g id="Group_10768" data-name="Group 10768">
                      <g id="Group_10740" data-name="Group 10740">
                        <g id="Group_10740-2" data-name="Group 10740">
                          <g id="Group_10738" data-name="Group 10738">
                            <g id="Group_34" data-name="Group 34">
                              <g id="Group_27" data-name="Group 27">
                                <path id="Path_89" data-name="Path 89" d="M255.036,515.136c1.313.553,5.745,2.123,9.333-.172,4.261-2.729,4.261-5.966,4.261-5.966a12.415,12.415,0,0,0,12.442-2.9c5.966-5.453,3.238-16.329,3.238-16.329s5.593-2.905,4.944-8.9c-1.049-9.677-10.908-10.229-10.908-10.229s3.067-7.327-2.386-12.442a16.03,16.03,0,0,0-12.614-3.92,5.631,5.631,0,0,0-2.046-6.307c-3.408-2.384-6.127-.96-6.127-.96s.586-7.752-6.468-10.391c-6.719-2.512-12.46,1.467-12.46,1.467s-4.262-4.6-10.4-3.749a19.049,19.049,0,0,0-9.546,3.92,10.844,10.844,0,0,0-10.567-2.387,9.814,9.814,0,0,0-7.158,7.841s-10.943-3.05-16.908,4.448-3.068,13.769-3.068,13.769-9.852-1.343-12.919,8.03a16.561,16.561,0,0,0,2.556,15.681s-8.01,8.01-4.6,16.7,11.578,6.857,11.578,6.857a9.023,9.023,0,0,0,8.7,7.971c8.011.512,11.42-2.385,11.42-2.385s6.987,5.792,13.8,5.112,9.375-3.407,9.375-3.407,6.477,3.687,12.783,3.463,11.42-4.488,11.42-4.488a6.741,6.741,0,0,0,6.307,3.068C253.278,518.1,254.789,515.03,255.036,515.136Z" transform="translate(-161.246 -432.702)" fill="#f3f6fe"/>
                                <g id="Group_26" data-name="Group 26">
                                  <path id="Path_90" data-name="Path 90" d="M289.994,479.927c-.8-7.4-6.415-10.455-10.444-11.326.657-2.78,1.12-8.128-3.327-12.295a17.227,17.227,0,0,0-11.773-4.457h-.084a6.859,6.859,0,0,0-2.971-5.907,8.565,8.565,0,0,0-4.694-1.764,10.059,10.059,0,0,0-1.039-2.813,12.288,12.288,0,0,0-7.2-6.956,14.638,14.638,0,0,0-5.139-.928,16.1,16.1,0,0,0-5.041.836.261.261,0,0,0-.042.008c-.03.009-.169.054-.373.129-.073.026-.138.052-.209.078l-.019.009a17.156,17.156,0,0,0-1.967.874,14.447,14.447,0,0,0-9.085-3.492,12.506,12.506,0,0,0-1.729.121,21.807,21.807,0,0,0-9.285,3.48,12.4,12.4,0,0,0-7.354-2.438,13.308,13.308,0,0,0-3.688.537,11.263,11.263,0,0,0-7.884,7.538c-3.361-.492-11.446-.865-16.582,5.593-3.43,4.311-4.27,7.972-4.281,10.506,0,.013,0,.023,0,.035a9.212,9.212,0,0,0,.105,1.594c-3.343.385-9.924,2.132-12.44,9.82a18.191,18.191,0,0,0,1.967,15.97c-.174.188-.281.318-.3.344a1.548,1.548,0,0,0-.281.567c-2.329,3.037-6.16,9.5-3.4,16.54,2.477,6.316,7.38,7.26,10.082,7.26a12.7,12.7,0,0,0,1.84-.135c.785,3.517,3.424,8.275,9.693,8.676.66.042,1.319.064,1.955.064a19.289,19.289,0,0,0,9.486-2.108c2.048,1.489,7.256,4.829,12.746,4.829.434,0,.868-.022,1.288-.061a20.8,20.8,0,0,0,8.456-2.5,5.284,5.284,0,0,0,1.031-.571,29.017,29.017,0,0,0,11.958,3.139c.206,0,.411,0,.616-.011a22.051,22.051,0,0,0,11.064-3.9,5.1,5.1,0,0,0,.549.507c.039.031.085.042.125.069a7.911,7.911,0,0,0,5.205,1.939h0c.289,0,.588-.015.882-.045a9.594,9.594,0,0,0,6.247-3.143,14.345,14.345,0,0,0,4.524.783,9.555,9.555,0,0,0,5.239-1.453,10.723,10.723,0,0,0,4.577-5.372,14.014,14.014,0,0,0,2.615.247,14.21,14.21,0,0,0,9.72-3.9c5.452-4.985,4.476-13.662,3.921-16.733A10.549,10.549,0,0,0,289.994,479.927Zm-6.856,7.514c-.816-.249-1.821-.531-3.039-.836A6.041,6.041,0,0,0,274,488.2a5.167,5.167,0,0,0-.983,5.318,4.368,4.368,0,0,0,4.431,2.888,7.279,7.279,0,0,0,2.3-.375,1.388,1.388,0,1,0-.9-2.625c-.107.037-2.6.87-3.222-.839a2.444,2.444,0,0,1,.441-2.511,3.293,3.293,0,0,1,3.355-.756c1.1.275,2.009.53,2.755.754.439,2.345,1.482,10.1-2.928,14.134a11.085,11.085,0,0,1-7.649,3.1,10.256,10.256,0,0,1-3.056-.445l-2.762-5.318a1.534,1.534,0,0,0-2.722,1.414l3.1,5.975a7.55,7.55,0,0,1-3.409,3.983,6.543,6.543,0,0,1-3.585.969,11.76,11.76,0,0,1-4.32-.917l-.3-.125h-.313a1.983,1.983,0,0,0-1.531.889,6.647,6.647,0,0,1-4.62,2.529c-.19.019-.383.03-.568.03h0a5.139,5.139,0,0,1-4.009-2.007,4.965,4.965,0,0,1-.732-2.9,2.513,2.513,0,0,1,1.149-2.093c1.965-1.131,2.913-.17,3.16.16a1.534,1.534,0,0,0,2.517-1.754c-.886-1.294-3.532-3.181-7.209-1.066a5.472,5.472,0,0,0-2.678,4.531,7.921,7.921,0,0,0,.393,3,19.109,19.109,0,0,1-9.644,3.507c-4.106.145-8.362-1.534-10.522-2.539l0-.01c.882-2.159.666-4.913-.613-7.751-1.956-4.347-6.665-4.2-8.88-3.52a1.534,1.534,0,1,0,.9,2.932c.157-.048,3.834-1.143,5.18,1.848a7.079,7.079,0,0,1,.568,5.332,2.976,2.976,0,0,1-.243.477l-.233.235c-.021.022-2.376,2.343-8.42,2.946a9.807,9.807,0,0,1-.984.048c-4.611,0-9.245-3.018-10.975-4.271l.385-4.651a1.535,1.535,0,0,0-3.059-.251l-.38,4.613c-.912.554-3.525,1.84-8.2,1.84-.572,0-1.164-.021-1.76-.057-6.354-.406-7.025-6.883-7.075-7.5a4.189,4.189,0,0,1,2.265-3.358,3.308,3.308,0,0,1,2.035-.555.462.462,0,0,1-.109-.04l1.2-2.823c-.3-.125-1.911-.686-4.551.7a7.149,7.149,0,0,0-3.744,4.861,9.761,9.761,0,0,1-1.748.162c-3.413,0-5.844-1.786-7.225-5.309-2.863-7.3,3.572-14.337,4.206-15a7.8,7.8,0,0,1,5.008-1.741,4.736,4.736,0,0,1,4.442,2.934,1.533,1.533,0,0,0,1.449,1.035,1.558,1.558,0,0,0,.488-.078,1.537,1.537,0,0,0,.967-1.943,7.759,7.759,0,0,0-7.284-5.015,10.554,10.554,0,0,0-5.742,1.553,15.273,15.273,0,0,1-1.459-13.09c2.139-6.538,8.072-7.616,10.459-7.782a7.344,7.344,0,0,0,5.756,4.13,8.212,8.212,0,0,0,1.187.087,8.485,8.485,0,0,0,7.391-4.907,1.535,1.535,0,0,0-2.788-1.283c-.069.147-1.739,3.588-5.348,3.067a4.339,4.339,0,0,1-3.147-1.96l-.631-1.359c-.009-.019-.045-.1-.09-.229a7.493,7.493,0,0,1-.3-2.04c0-.05-.007-.1-.01-.145.017-1.919.692-4.886,3.629-8.578,4.556-5.726,12.263-4.757,14.388-4.359l2.163,4.862a1.536,1.536,0,0,0,1.4.911,1.513,1.513,0,0,0,.622-.133,1.534,1.534,0,0,0,.779-2.025l-2.334-5.248c-.016-.035-.038-.064-.056-.1a8.289,8.289,0,0,1,5.954-6,10.194,10.194,0,0,1,2.835-.416,9.333,9.333,0,0,1,6.2,2.39l.343.358a4.209,4.209,0,0,1,.588,4.153,3.438,3.438,0,0,1-3.23,2.168,1.534,1.534,0,0,0-.287,3.054,3.432,3.432,0,0,0,.346.014A6.521,6.521,0,0,0,218.1,444.4a6.94,6.94,0,0,0-.428-6.591,18.955,18.955,0,0,1,7.6-2.725,9.461,9.461,0,0,1,1.307-.09,11.291,11.291,0,0,1,6.771,2.505,7.223,7.223,0,0,0-1.619,3.194,6.259,6.259,0,0,0,4.322,7.557,1.606,1.606,0,0,0,.373.047,1.535,1.535,0,0,0,.371-3.023,3.184,3.184,0,0,1-2.069-3.929c.567-2.619,3.685-3.831,4.285-4.043a13.165,13.165,0,0,1,4.3-.749,11.536,11.536,0,0,1,4.066.735,9.341,9.341,0,0,1,5.436,5.233c.014.038.03.078.046.115a11.048,11.048,0,0,1,.832,3.424l-.027,2.585c-.5,2.189-1.642,2.2-2.16,2.2a3.3,3.3,0,0,1-1.742-.572,1.535,1.535,0,1,0-1.884,2.423,6.316,6.316,0,0,0,3.626,1.218c1.4,0,4.719-.561,5.359-5.759.037-.3.059-.591.073-.876a6.047,6.047,0,0,1,2.692,1.182A4.021,4.021,0,0,1,261.112,453l-.838,2.424,2.536-.407a11.2,11.2,0,0,1,1.641-.1,14.183,14.183,0,0,1,9.676,3.625c4.039,3.79,2.614,9.024,2.143,10.4-.163.344-2.3,4.707-5.293,4.848a2.089,2.089,0,0,1-1.575-.357,1.4,1.4,0,0,1-.163-1.013,1.534,1.534,0,0,0-2.982-.718,4.468,4.468,0,0,0,.775,3.683,4.531,4.531,0,0,0,3.69,1.479c.13,0,.262,0,.4-.01,3.622-.167,6.1-3.436,7.243-5.341,2.219.37,7.849,1.975,8.583,8.751C287.393,484.414,284.18,486.787,283.138,487.441Z" transform="translate(-160.462 -431.923)" fill="#b8c4e0"/>
                                  <path id="Path_91" data-name="Path 91" d="M277.471,480.426a8.845,8.845,0,0,0-2.081-7.888c-4.948-5.957-12.447-4.641-17.1-2.532a10.748,10.748,0,0,0-7.278-8.168c-5.626-1.915-9.958,1.87-11.97,4.184a14.023,14.023,0,0,0-10.321-3.728,9.388,9.388,0,0,0-8.314,6.589,8.086,8.086,0,0,0,2.62,9.259,9.39,9.39,0,0,0,12.46-.325,1.534,1.534,0,0,0-2.1-2.238,6.313,6.313,0,0,1-8.452.162,5.128,5.128,0,0,1-1.623-5.877,6.38,6.38,0,0,1,5.471-4.5c6.369-.131,8.918,3.737,9.017,3.893a1.535,1.535,0,0,0,2.6.021c.04-.064,4.176-6.391,9.626-4.533a7.806,7.806,0,0,1,5.418,7.607,1.535,1.535,0,0,0,2.342,1.393c.393-.245,9.709-5.906,15.245.757a5.867,5.867,0,0,1,1.452,5.235,6.309,6.309,0,0,1-3.072,4.078c-2.006.9-4.517-.427-4.535-.438a1.535,1.535,0,0,0-1.477,2.691,10.322,10.322,0,0,0,3.767,1.1,7.057,7.057,0,0,0,3.5-.548A9.374,9.374,0,0,0,277.471,480.426Z" transform="translate(-179.606 -445.309)" fill="#b8c4e0"/>
                                  <path id="Path_92" data-name="Path 92" d="M203.551,507.048a7.027,7.027,0,0,0-.364-3.939h.017a8.008,8.008,0,0,0,2.621-.439,7.032,7.032,0,0,0,4.463-5.028,9.713,9.713,0,0,0-1.662-8.527c-2.826-3.34-7.223-2.5-9.155-1.59a1.534,1.534,0,0,0,1.309,2.775c.035-.017,3.477-1.6,5.5.8a6.624,6.624,0,0,1,1.049,5.731,4.063,4.063,0,0,1-2.508,2.94,5.909,5.909,0,0,1-4.673-.563,12.655,12.655,0,0,0-1.782-1.2c-.1-.085-.151-.134-.154-.137a1.533,1.533,0,1,0-2.144,2.192c.033.031.206.2.486.427a.133.133,0,0,0,.011.01,12.8,12.8,0,0,0,1.9,1.284,5.042,5.042,0,0,1,2.071,4.7c-.627,3.361-3.114,3.533-3.409,3.542a1.534,1.534,0,0,0,.017,3.067C198.969,513.094,202.659,511.829,203.551,507.048Z" transform="translate(-172.297 -450.372)" fill="#b8c4e0"/>
                                  <path id="Path_93" data-name="Path 93" d="M212.784,526.824a9.155,9.155,0,0,0-8.093,5.614,1.534,1.534,0,1,0,2.862,1.1,6.1,6.1,0,0,1,5.33-3.653c3.37-.1,3.726,3.669,3.758,4.091a1.534,1.534,0,0,0,1.528,1.441c.033,0,.064,0,.1-.005a1.534,1.534,0,0,0,1.436-1.624C219.549,531.309,217.914,526.661,212.784,526.824Z" transform="translate(-175.32 -463.876)" fill="#b8c4e0"/>
                                  <path id="Path_94" data-name="Path 94" d="M311.658,507.418c-2.463-2.075-6.186-1.461-6.344-1.431a1.4,1.4,0,0,0,.475,2.753c.026,0,2.612-.409,4.068.818a3.449,3.449,0,0,1,1.051,2.816,4.234,4.234,0,0,1-1.136,3.238,4.792,4.792,0,0,1-3.224,1.017,1.4,1.4,0,0,0-1.481,1.727,4.926,4.926,0,0,1-.354,3.423,2.129,2.129,0,0,1-1.669.781,2.967,2.967,0,0,1-2.406-.63,3.6,3.6,0,0,1-.8-2.521,1.4,1.4,0,0,0-2.788-.22,6.364,6.364,0,0,0,1.6,4.705,5.318,5.318,0,0,0,3.933,1.482c.221,0,.448-.011.683-.029a4.828,4.828,0,0,0,3.714-1.933A6.494,6.494,0,0,0,308,519.331a6.415,6.415,0,0,0,5.7-6.959A6.141,6.141,0,0,0,311.658,507.418Z" transform="translate(-206.449 -456.825)" fill="#b8c4e0"/>
                                </g>
                              </g>
                            </g>
                          </g>
                        </g>
                      </g>
                    </g>
                    <g id="Group_10769" data-name="Group 10769" transform="translate(39.006 27.819)">
                      <path id="Path_22523" data-name="Path 22523" d="M0,0A55.349,55.349,0,0,1,9.291,2.371a51.737,51.737,0,0,1,8.437,4.135" transform="translate(16.848 4.437) rotate(133)" fill="none" stroke="#8595ba" stroke-linecap="round" stroke-linejoin="bevel" stroke-width="2"/>
                      <path id="Path_22935" data-name="Path 22935" d="M0,6.506A55.349,55.349,0,0,0,9.291,4.135,51.737,51.737,0,0,0,17.728,0" transform="translate(48.538 17.402) rotate(-133)" fill="none" stroke="#8595ba" stroke-linecap="round" stroke-linejoin="bevel" stroke-width="2"/>
                    </g>
                    <g id="Group_11091" data-name="Group 11091" transform="translate(46.176 44.241)">
                      <g id="Group_10734" data-name="Group 10734" transform="translate(27.152 0)">
                        <g id="Group_29" data-name="Group 29">
                          <path id="Path_97" data-name="Path 97" d="M305.4,509.57a7.53,7.53,0,1,1-7.53-7.53A7.528,7.528,0,0,1,305.4,509.57Z" transform="translate(-290.343 -502.04)" fill="none" stroke="#8595ba" stroke-width="2"/>
                          <path id="Path_98" data-name="Path 98" d="M297.447,507.42a2.957,2.957,0,1,1-2.959-2.954A2.962,2.962,0,0,1,297.447,507.42Z" transform="translate(-284.003 -497.52)" fill="#8595ba" stroke="#8595ba" stroke-width="2"/>
                        </g>
                      </g>
                      <g id="Group_10742" data-name="Group 10742" transform="translate(0 0)">
                        <g id="Group_29-2" data-name="Group 29">
                          <path id="Path_97-2" data-name="Path 97" d="M305.4,509.57a7.53,7.53,0,1,1-7.53-7.53A7.528,7.528,0,0,1,305.4,509.57Z" transform="translate(-290.343 -502.04)" fill="none" stroke="#8595ba" stroke-width="2"/>
                          <path id="Path_98-2" data-name="Path 98" d="M297.447,507.42a2.957,2.957,0,1,1-2.959-2.954A2.962,2.962,0,0,1,297.447,507.42Z" transform="translate(-284.003 -497.52)" fill="#8595ba" stroke="#8595ba" stroke-width="2"/>
                        </g>
                      </g>
                    </g>
                  </g>
                </g>
                <g id="Group_11092" data-name="Group 11092" transform="translate(61.597 66.197)">
                  <g id="Group_22" data-name="Group 22">
                    <path id="Path_51" data-name="Path 51" d="M368.2,476.666a3.118,3.118,0,0,0-1.064-2.253,6.023,6.023,0,0,0-2.441-1.348,8.718,8.718,0,0,0-4.865,0,6.038,6.038,0,0,0-2.441,1.348,3.125,3.125,0,0,0-1.063,2.253c0,1.59,1.412.863,3.446.351a9.007,9.007,0,0,1,4.979,0C366.785,477.528,368.2,478.256,368.2,476.666Z" transform="translate(-356.325 -472.719)" fill="#8595ba"/>
                  </g>
                  <path id="Path_52" data-name="Path 52" d="M386.965,488.964a8.719,8.719,0,0,0-4.865,0,2.457,2.457,0,0,0,4.865,0Z" transform="translate(-378.596 -488.319)" fill="#8595ba"/>
                </g>
              </g>
            </g>
          </g>
        </g>
      </g>
    </g>
  </g>
</svg>
