<svg id="Calque_1" data-name="Calque 1" xmlns="http://www.w3.org/2000/svg" xmlns:xlink="http://www.w3.org/1999/xlink" viewBox="0 0 153.4 164.17">
  <defs>
    <clipPath id="clip-path" transform="translate(0 0)">
      <path d="M76.7,1.77A75.7,75.7,0,1,1,1,77.47H1A75.7,75.7,0,0,1,76.7,1.77Z" style="fill: none"/>
    </clipPath>
  </defs>
  <title>neo_celebrating</title>
  <g id="Group_14784" data-name="Group 14784">
    <path id="Path_26980" data-name="Path 26980" d="M76.7,1A75.7,75.7,0,1,1,1,76.7H1A75.7,75.7,0,0,1,76.7,1Z" transform="translate(0 0)" style="fill: #65b2fe;stroke: #65b2fe;stroke-width: 2px"/>
    <path id="Path_26981" data-name="Path 26981" d="M152,76.89A75.51,75.51,0,1,1,10.93,39.43a75.55,75.55,0,0,0,131.16,0A75.24,75.24,0,0,1,152,76.89Z" transform="translate(0 0)" style="fill: #0e9ce7;stroke: #0e9ce7;stroke-width: 2px"/>
    <g style="clip-path: url(#clip-path)">
      <g id="Mask_Group_96" data-name="Mask Group 96">
        <g id="Groupe_10788" data-name="Groupe 10788">
          <g id="Groupe_10778" data-name="Groupe 10778">
            <g id="Groupe_10774" data-name="Groupe 10774">
              <path id="Tracé_22528" data-name="Tracé 22528" d="M128.7,102.66a6,6,0,0,1,.5-.8,131.83,131.83,0,0,0,15.39.5c5.4-.19-3.18-19.08-6-24.69-.53-1.06-4.89-1.15-4.88-2.41s2.16-.38,2.16-.38-2.14-1.65-2.1-2.54,1.48-5.09,4.28-2.79,13.66,31.17,11.09,34.25c-2,2.36-14.22,2.41-19.81,2.31C128.85,105,128.19,103.62,128.7,102.66Z" transform="translate(0 0)" style="fill: #b8c4e0"/>
            </g>
            <g id="Groupe_10775" data-name="Groupe 10775">
              <path id="Tracé_22528-2" data-name="Tracé 22528-2" d="M24.14,102.66c-.15-.27-.32-.54-.5-.8a129.78,129.78,0,0,1-15.4.5c-5.4-.18,3.19-19.08,6-24.69.54-1.06,4.9-1.14,4.89-2.4S17,74.89,17,74.89s2.15-1.65,2.1-2.55-1.48-5.09-4.28-2.78S1.14,100.73,3.71,103.8c2,2.36,14.22,2.41,19.81,2.31C24,105,24.65,103.62,24.14,102.66Z" transform="translate(0 0)" style="fill: #b8c4e0"/>
            </g>
            <g id="Groupe_10740" data-name="Groupe 10740">
              <g id="Groupe_10740-2" data-name="Groupe 10740-2">
                <g id="Groupe_10738" data-name="Groupe 10738">
                  <g id="Groupe_34" data-name="Groupe 34">
                    <g id="Groupe_25" data-name="Groupe 25">
                      <path id="Tracé_87" data-name="Tracé 87" d="M60.22,118.59s2.6,40.32,1.3,41.51-8.43.13-9.72,2.35,10.89,2.1,12.45.73,0-44.59,0-44.59Z" transform="translate(0 0)" style="fill: #b8c4e0"/>
                      <path id="Tracé_88" data-name="Tracé 88" d="M97.14,117.63s-2.6,40.32-1.3,41.52,8.42.12,9.72,2.34-10.89,2.1-12.45.73,0-44.59,0-44.59Z" transform="translate(0 0)" style="fill: #b8c4e0"/>
                    </g>
                    <g id="Groupe_27" data-name="Groupe 27">
                      <path id="Tracé_89" data-name="Tracé 89" d="M106,127.13c1.25.52,5.45,2,8.86-.17,4-2.59,4-5.66,4-5.66a11.76,11.76,0,0,0,11.81-2.75c5.67-5.17,3.08-15.5,3.08-15.5s5.3-2.76,4.69-8.44c-1-9.18-10.36-9.71-10.36-9.71s2.92-7-2.26-11.82a15.21,15.21,0,0,0-12-3.72,5.35,5.35,0,0,0-1.94-6c-3.23-2.27-5.82-.92-5.82-.92s.56-7.35-6.14-9.86A13.71,13.71,0,0,0,88.13,54s-4-4.38-9.87-3.57a18.21,18.21,0,0,0-9.06,3.72,10.29,10.29,0,0,0-10-2.26,9.29,9.29,0,0,0-6.79,7.44S42,56.44,36.33,63.55s-2.91,13.08-2.91,13.08-9.35-1.27-12.26,7.62a15.71,15.71,0,0,0,2.43,14.88S16,106.74,19.22,115a9.68,9.68,0,0,0,11,6.51,8.56,8.56,0,0,0,8.26,7.56c7.6.49,10.84-2.26,10.84-2.26s6.63,5.5,13.1,4.85,8.9-3.24,8.9-3.24,6.14,3.5,12.13,3.29,10.84-4.26,10.84-4.26a6.39,6.39,0,0,0,6,2.91C104.3,129.94,105.73,127,106,127.13Z" transform="translate(0 0)" style="fill: #f3f6fe"/>
                      <g id="Groupe_26" data-name="Groupe 26">
                        <path id="Tracé_90" data-name="Tracé 90" d="M139.89,94.45c-.76-7-6.1-9.92-9.9-10.75A11.8,11.8,0,0,0,126.83,72a16.33,16.33,0,0,0-11.17-4.23h-.08a6.51,6.51,0,0,0-2.82-5.61,8.14,8.14,0,0,0-4.46-1.67,9.31,9.31,0,0,0-1-2.67,11.71,11.71,0,0,0-6.84-6.6,14,14,0,0,0-4.88-.88,15.21,15.21,0,0,0-4.78.79h0l-.36.13-.19.07h0a15.49,15.49,0,0,0-1.86.83,13.86,13.86,0,0,0-8.64-3.3,11.43,11.43,0,0,0-1.65.11,20.58,20.58,0,0,0-8.81,3.3,11.71,11.71,0,0,0-7-2.31,12.25,12.25,0,0,0-3.5.51,10.64,10.64,0,0,0-7.48,7.15c-3.19-.47-10.86-.82-15.74,5.3-3.26,4.1-4.06,7.57-4.06,10v0a8.51,8.51,0,0,0,.09,1.51,13.48,13.48,0,0,0-11.81,9.32A17.25,17.25,0,0,0,21.64,99a4.1,4.1,0,0,0-.29.33,1.38,1.38,0,0,0-.27.54c-2.21,2.88-5.84,9-3.22,15.7,2.35,6,7,6.9,9.56,6.9a12.76,12.76,0,0,0,1.75-.13c.75,3.34,3.25,7.85,9.2,8.23q.95.06,1.86.06a18.15,18.15,0,0,0,9-2c1.94,1.42,6.88,4.59,12.1,4.59.41,0,.82,0,1.22-.06a19.86,19.86,0,0,0,8-2.37,4.69,4.69,0,0,0,1-.54,27.5,27.5,0,0,0,11.35,3h.58a21.07,21.07,0,0,0,10.5-3.7,5.91,5.91,0,0,0,.52.48l.12.06a7.49,7.49,0,0,0,4.94,1.84h0a7.87,7.87,0,0,0,.84,0,9.11,9.11,0,0,0,5.93-3,13.34,13.34,0,0,0,4.29.74,9.11,9.11,0,0,0,5-1.38,10.14,10.14,0,0,0,4.34-5.1,13.3,13.3,0,0,0,11.7-3.46c5.18-4.74,4.24-13,3.73-15.88a10,10,0,0,0,4.5-9.3Zm-6.51,7.13c-.77-.24-1.72-.5-2.88-.79a5.7,5.7,0,0,0-5.78,1.51,4.9,4.9,0,0,0-.94,5,4.16,4.16,0,0,0,4.2,2.75,6.73,6.73,0,0,0,2.18-.36,1.32,1.32,0,1,0-.67-2.55.64.64,0,0,0-.18.06h0c-.1,0-2.47.82-3-.8a2.3,2.3,0,0,1,.42-2.38,3.11,3.11,0,0,1,3.18-.72c1,.26,1.91.5,2.62.71.41,2.23,1.4,9.59-2.78,13.42a10.51,10.51,0,0,1-7.26,2.94,10.12,10.12,0,0,1-2.9-.42l-2.62-5a1.46,1.46,0,0,0-2.6,1.32v0l2.94,5.67a7.18,7.18,0,0,1-3.24,3.79,6.35,6.35,0,0,1-3.4.92,11.17,11.17,0,0,1-4.1-.88l-.28-.11H106a1.85,1.85,0,0,0-1.45.84,6.29,6.29,0,0,1-4.38,2.4,4.89,4.89,0,0,1-.54,0h0A4.87,4.87,0,0,1,95.77,127a4.74,4.74,0,0,1-.7-2.75,2.39,2.39,0,0,1,1.09-2c1.87-1.08,2.77-.16,3,.15a1.46,1.46,0,0,0,2.4-1.66h0c-.84-1.22-3.35-3-6.84-1a5.2,5.2,0,0,0-2.54,4.3,7.64,7.64,0,0,0,.37,2.85,18,18,0,0,1-9.15,3.33,23.39,23.39,0,0,1-10-2.41h0a9.43,9.43,0,0,0-.59-7.36c-1.85-4.13-6.32-4-8.43-3.34A1.45,1.45,0,1,0,65.1,120l.12,0h0c.15-.05,3.64-1.09,4.91,1.75a6.71,6.71,0,0,1,.54,5.06,2.82,2.82,0,0,1-.23.46l-.22.22s-2.25,2.22-8,2.8a7.23,7.23,0,0,1-.93,0c-4.38,0-8.77-2.85-10.42-4l.36-4.42a1.45,1.45,0,1,0-2.88-.39s0,.1,0,.16L48,125.94c-.86.52-3.34,1.74-7.78,1.74-.54,0-1.11,0-1.67-.05-6-.38-6.67-6.53-6.72-7.12a4,4,0,0,1,2.15-3.2,3.08,3.08,0,0,1,1.93-.52l-.1,0L37,114.07c-.28-.12-1.81-.65-4.32.67a6.79,6.79,0,0,0-3.55,4.61,9.23,9.23,0,0,1-1.66.15c-3.24,0-5.55-1.7-6.86-5-2.71-6.93,3.4-13.61,4-14.25a7.49,7.49,0,0,1,4.76-1.65,4.49,4.49,0,0,1,4.21,2.79,1.46,1.46,0,0,0,1.87.87,1.44,1.44,0,0,0,.89-1.81,7.36,7.36,0,0,0-6.91-4.76,10,10,0,0,0-5.45,1.47,14.47,14.47,0,0,1-1.38-12.42c2-6.21,7.66-7.23,9.92-7.39a7,7,0,0,0,5.47,3.92,7,7,0,0,0,1.12.08,8,8,0,0,0,7-4.65,1.46,1.46,0,1,0-2.65-1.22h0c-.07.14-1.65,3.4-5.08,2.91a4.11,4.11,0,0,1-3-1.86l-.6-1.29a1.45,1.45,0,0,1-.09-.22,7,7,0,0,1-.28-1.93v-.14c0-1.82.66-4.64,3.44-8.14,4.33-5.44,11.64-4.52,13.66-4.14l2,4.62a1.46,1.46,0,0,0,1.33.86,1.44,1.44,0,0,0,1.33-2h0l-2.22-5s0-.06-.05-.1a7.88,7.88,0,0,1,5.65-5.7,9.78,9.78,0,0,1,2.69-.39,8.84,8.84,0,0,1,5.87,2.27l.33.34A4,4,0,0,1,69,59.45,3.28,3.28,0,0,1,66,61.51a1.44,1.44,0,0,0-1.58,1.31,1.46,1.46,0,0,0,1.31,1.59H66a6.19,6.19,0,0,0,5.62-3.7,6.6,6.6,0,0,0-.4-6.26,17.9,17.9,0,0,1,7.22-2.58,8.52,8.52,0,0,1,1.24-.09,10.68,10.68,0,0,1,6.42,2.38,6.83,6.83,0,0,0-1.54,3,6,6,0,0,0,4.1,7.18,2.2,2.2,0,0,0,.36,0A1.45,1.45,0,0,0,90.5,63a1.43,1.43,0,0,0-1.1-1.41,3,3,0,0,1-2-3.73c.54-2.48,3.5-3.63,4.07-3.83a12.35,12.35,0,0,1,4.09-.72,10.85,10.85,0,0,1,3.86.7,8.85,8.85,0,0,1,5.16,5,.36.36,0,0,0,0,.11,10.74,10.74,0,0,1,.79,3.25l0,2.46c-.48,2.08-1.56,2.09-2,2.09a3.07,3.07,0,0,1-1.65-.55,1.46,1.46,0,0,0-1.84,2.27l0,0,0,0a6,6,0,0,0,3.44,1.15c1.33,0,4.48-.53,5.09-5.47,0-.28.05-.56.07-.83a5.74,5.74,0,0,1,2.55,1.12,3.81,3.81,0,0,1,1.41,4.32l-.8,2.3,2.41-.38a10.06,10.06,0,0,1,1.56-.09,13.41,13.41,0,0,1,9.18,3.44c3.83,3.6,2.48,8.57,2,9.86-.15.33-2.18,4.47-5,4.6a2,2,0,0,1-1.5-.34,1.34,1.34,0,0,1-.15-1,1.46,1.46,0,0,0-2.83-.68h0a4.21,4.21,0,0,0,.73,3.5,4.29,4.29,0,0,0,3.5,1.4H122c3.43-.16,5.79-3.26,6.87-5.07,2.1.35,7.46,1.88,8.15,8.31.43,3.94-2.62,6.2-3.62,6.81Z" transform="translate(0 0)" style="fill: #b8c4e0"/>
                        <path id="Tracé_91" data-name="Tracé 91" d="M109.83,82.22a8.38,8.38,0,0,0-2-7.48c-4.7-5.66-11.81-4.4-16.23-2.4a10.22,10.22,0,0,0-6.91-7.76c-5.33-1.81-9.45,1.78-11.36,4A13.36,13.36,0,0,0,63.56,65a8.9,8.9,0,0,0-7.89,6.25,7.65,7.65,0,0,0,2.49,8.79A8.91,8.91,0,0,0,70,79.75a1.45,1.45,0,0,0-2-2.12,6,6,0,0,1-8,.15,4.87,4.87,0,0,1-1.54-5.58,6.06,6.06,0,0,1,5.19-4.27c6.05-.13,8.47,3.55,8.56,3.7a1.47,1.47,0,0,0,2,.47,1.64,1.64,0,0,0,.46-.45c0-.06,4-6.07,9.14-4.3a7.44,7.44,0,0,1,5.15,7.22,1.45,1.45,0,0,0,1.38,1.53,1.46,1.46,0,0,0,.84-.21c.38-.23,9.21-5.61,14.47.72a5.57,5.57,0,0,1,1.38,5,6,6,0,0,1-2.92,3.87c-1.9.86-4.28-.4-4.3-.42a1.46,1.46,0,0,0-1.54,2.48l.13.07h0a9.87,9.87,0,0,0,3.57,1,6.78,6.78,0,0,0,3.33-.52A8.89,8.89,0,0,0,109.83,82.22Z" transform="translate(0 0)" style="fill: #b8c4e0"/>
                        <path id="Tracé_92" data-name="Tracé 92" d="M46.61,102.67a6.69,6.69,0,0,0-.35-3.73h0a7.53,7.53,0,0,0,2.49-.42A6.68,6.68,0,0,0,53,93.76a9.25,9.25,0,0,0-1.57-8.1c-2.69-3.17-6.86-2.37-8.69-1.51A1.46,1.46,0,0,0,44,86.79s3.3-1.52,5.22.76a6.26,6.26,0,0,1,1,5.44,3.86,3.86,0,0,1-2.38,2.79,5.63,5.63,0,0,1-4.43-.53A12.9,12.9,0,0,0,41.7,94.1L41.55,94a1.45,1.45,0,1,0-2.13,2l.09.09h0c.15.14.3.28.47.41h0a12.31,12.31,0,0,0,1.8,1.21,4.83,4.83,0,0,1,2,4.46c-.6,3.19-3,3.35-3.24,3.36a1.46,1.46,0,0,0,0,2.91C42.26,108.42,45.76,107.22,46.61,102.67Z" transform="translate(0 0)" style="fill: #b8c4e0"/>
                        <path id="Tracé_93" data-name="Tracé 93" d="M52.5,108.63A8.67,8.67,0,0,0,44.82,114a1.46,1.46,0,1,0,2.67,1.17l0-.12h0a5.78,5.78,0,0,1,5.05-3.47c3.2-.1,3.54,3.48,3.57,3.89a1.45,1.45,0,0,0,1.45,1.36h.09a1.45,1.45,0,0,0,1.37-1.54h0C58.92,112.89,57.37,108.48,52.5,108.63Z" transform="translate(0 0)" style="fill: #b8c4e0"/>
                        <path id="Tracé_94" data-name="Tracé 94" d="M116.8,96.91c-2.34-2-5.87-1.39-6-1.36a1.33,1.33,0,0,0-.9,1.66,1.35,1.35,0,0,0,1.35,1s2.48-.38,3.86.78a3.25,3.25,0,0,1,1,2.66,4.06,4.06,0,0,1-1.07,3.08,4.57,4.57,0,0,1-3.06,1,1.33,1.33,0,0,0-1.44,1.22,1.49,1.49,0,0,0,0,.42,4.69,4.69,0,0,1-.34,3.25,2,2,0,0,1-1.58.74,2.86,2.86,0,0,1-2.29-.6,3.5,3.5,0,0,1-.76-2.39,1.34,1.34,0,0,0-2.65-.21,6,6,0,0,0,1.52,4.46,5,5,0,0,0,3.73,1.41l.65,0a4.62,4.62,0,0,0,3.53-1.84,6.22,6.22,0,0,0,1-3.87,6.09,6.09,0,0,0,5.41-6.6A5.77,5.77,0,0,0,116.8,96.91Z" transform="translate(0 0)" style="fill: #b8c4e0"/>
                      </g>
                    </g>
                  </g>
                </g>
              </g>
            </g>
            <g id="Groupe_10805" data-name="Groupe 10805">
              <path id="Tracé_22522" data-name="Tracé 22522" d="M92.24,79.5s6.16-1,10.16,1.07,5.83,7,5.83,7" transform="translate(0 0)" style="fill: none"/>
              <path id="Tracé_22523" data-name="Tracé 22523" d="M70,79.5s-6.16-1-10.16,1.07-5.83,7-5.83,7" transform="translate(0 0)" style="fill: none"/>
            </g>
            <g id="Groupe_24" data-name="Groupe 24">
              <path id="Tracé_53" data-name="Tracé 53" d="M74,102.77l0-.28c0-.09,0-.2,0-.33a2.11,2.11,0,0,1,0-.21v-.27c0-.19,0-.41,0-.64s-.06-.46-.1-.72-.12-.53-.18-.81a8.35,8.35,0,0,0-.32-.88,6.08,6.08,0,0,0-.46-.92,8.48,8.48,0,0,0-2.36-2.56l-.53-.35c-.18-.12-.38-.2-.57-.31l-.29-.15-.3-.12c-.21-.08-.41-.17-.63-.24a9.44,9.44,0,0,0-1.3-.3,5.23,5.23,0,0,0-.68-.07l-.33,0h-.42l-.57,0h-.3l-.36.06a4.11,4.11,0,0,0-.7.13L63,94a6.56,6.56,0,0,0-.62.23l-.3.12-.29.15c-.19.1-.38.19-.58.31s-.35.23-.53.35a8.74,8.74,0,0,0-2.36,2.56c-.17.31-.32.62-.46.91a5.76,5.76,0,0,0-.31.88,7.51,7.51,0,0,0-.19.82c0,.25-.08.5-.1.72s0,.4,0,.6v.26l0,.23c0,.14,0,.26,0,.35l0,.3a.57.57,0,0,0,1.12.07l0-.07.07-.25a5.91,5.91,0,0,1,.19-.69l.15-.47c.08-.17.15-.35.23-.54a5.12,5.12,0,0,1,.3-.57c.11-.19.25-.4.38-.6a4.43,4.43,0,0,1,.47-.6,5.12,5.12,0,0,1,.56-.58,6.51,6.51,0,0,1,1.37-1,7,7,0,0,1,1.65-.69l.45-.1.21,0,.2,0,.2,0h.26l.57,0a.63.63,0,1,0-.06-1.25.63.63,0,0,0-.6.66.64.64,0,0,0,.6.59h.45a3.41,3.41,0,0,1,.46,0c.15,0,.31,0,.45.07l.45.1a8,8,0,0,1,1.65.69,7.28,7.28,0,0,1,1.37,1,6.11,6.11,0,0,1,.56.58c.17.19.32.41.47.6a4.67,4.67,0,0,1,.38.6c.11.2.22.39.3.57s.15.37.23.54a4,4,0,0,1,.15.45,2,2,0,0,0,.07.19,1.46,1.46,0,0,1,0,.2c0,.13,0,.24.07.33l.07.27a.57.57,0,0,0,.67.45.55.55,0,0,0,.46-.51Z" transform="translate(0 0)" style="fill: #8595ba"/>
              <path id="Tracé_54" data-name="Tracé 54" d="M104.66,102.77l0-.28c0-.09,0-.2,0-.33s0-.13,0-.21a2.42,2.42,0,0,0,0-.27c0-.19,0-.41,0-.64s-.07-.46-.1-.72a6.71,6.71,0,0,0-.19-.81,8.31,8.31,0,0,0-.31-.88,6.08,6.08,0,0,0-.46-.92,8.74,8.74,0,0,0-2.36-2.56l-.53-.35c-.19-.12-.38-.2-.58-.31l-.29-.15-.3-.12c-.2-.08-.41-.17-.62-.24a9.93,9.93,0,0,0-1.31-.3,4.9,4.9,0,0,0-.67-.07l-.34,0h-.4l-.57,0h-.3l-.36.06a4.11,4.11,0,0,0-.7.13l-.65.18a6.56,6.56,0,0,0-.62.23l-.3.12-.29.15c-.19.1-.38.19-.58.31s-.35.23-.53.35A8.46,8.46,0,0,0,89,97.73c-.18.31-.33.62-.47.91a5.76,5.76,0,0,0-.31.88,7.33,7.33,0,0,0-.19.82c0,.25-.07.5-.09.72s0,.43,0,.61v.26a1.81,1.81,0,0,0,0,.23q0,.21,0,.36l0,.3a.57.57,0,0,0,1.12.07l0-.07.06-.26c0-.23.12-.46.19-.69l.16-.47a5.51,5.51,0,0,0,.22-.54q.14-.28.3-.57c.11-.19.25-.39.38-.6a5.39,5.39,0,0,1,.47-.6,7.67,7.67,0,0,1,.56-.58,7.5,7.5,0,0,1,1.37-1,7.68,7.68,0,0,1,1.65-.69l.45-.1.21,0,.2,0,.2,0h.27l.57,0a.61.61,0,0,0,.59-.66.63.63,0,0,0-.66-.59.62.62,0,0,0-.59.66.61.61,0,0,0,.59.59h.45a3.8,3.8,0,0,1,.46,0c.15,0,.3,0,.45.07l.45.1a8.23,8.23,0,0,1,1.65.69,8,8,0,0,1,1.37,1c.19.19.38.38.56.58s.31.41.46.6a6.64,6.64,0,0,1,.38.6,6.45,6.45,0,0,1,.3.58c.08.18.15.37.23.53l.15.45c0,.07,0,.14.07.19a1.94,1.94,0,0,1,0,.2l.07.33.07.27a.56.56,0,0,0,.6.54.56.56,0,0,0,.54-.6h0Z" transform="translate(0 0)" style="fill: #8595ba"/>
            </g>
            <path id="Path_26993" data-name="Path 26993" d="M76.78,109.72s5.67,1.2,5.93,2.9c.16,1-1.3,1.84-2.73,2.56-.79.4-2,.71-2,1.55,0,.69,1.57,1.73,1.57,1.73s3.45,1.13,3.2,2.34c-.36,1.78-5.93,2.93-5.93,2.93v.4s7-1,8-2.73-3.9-4.18-3.9-4.18-.19-1.14,0-1.27c.86-.58,5-2.25,4.14-4-1-2-8-2.69-8-2.69Z" transform="translate(0 0)" style="fill: #8595ba"/>
          </g>
        </g>
      </g>
    </g>
    <path id="Path_26986" data-name="Path 26986" d="M94.21,24.49l-8.45,8.45L82,29.19l8.44-8.45Z" transform="translate(0 0)" style="fill: #f7f900"/>
    <path id="Path_26987" data-name="Path 26987" d="M108.75,30.93l9.36-7.42,3.3,4.16-9.36,7.42Z" transform="translate(0 0)" style="fill: #f8396c"/>
    <path id="Path_26988" data-name="Path 26988" d="M116.76,45l8.44,8.44-3.75,3.76L113,48.72Z" transform="translate(0 0)" style="fill: #ffb33b"/>
    <path id="Path_26989" data-name="Path 26989" d="M132.6,62.64l7.91-9,4,3.51-7.9,9Z" transform="translate(0 0)" style="fill: #6cdc2d"/>
    <g id="Group_14862" data-name="Group 14862">
      <path id="Path_26954" data-name="Path 26954" d="M73.19,51.75,39.84,63.47l.48-7.91.48-7.91.48-7.91.48-7.91.32-5.36a3.58,3.58,0,0,1,6.22-2.19l3.62,4,5.32,5.87L62.56,40l5.32,5.87Z" transform="translate(0 0)" style="fill: #ff4dcd"/>
      <path id="Path_26955" data-name="Path 26955" d="M73.19,51.75,56.51,57.61l-12-34.3a3.53,3.53,0,0,1,3.84,1l3.62,4,5.32,5.87L62.55,40l5.32,5.87Z" transform="translate(0 0)" style="fill: #ff3dc9"/>
      <path id="Path_26956" data-name="Path 26956" d="M51.92,28.28,41.75,31.85l.33-5.38a3.58,3.58,0,0,1,6.22-2.19Z" transform="translate(0 0)" style="fill: #3c4bdc"/>
      <path id="Path_26957" data-name="Path 26957" d="M62.55,40,40.79,47.66l.48-7.9,16-5.61Z" transform="translate(0 0)" style="fill: #3c4bdc"/>
      <path id="Path_26958" data-name="Path 26958" d="M73.19,51.75,39.84,63.47l.47-7.9,27.57-9.69Z" transform="translate(0 0)" style="fill: #3c4bdc"/>
      <path id="Path_26959" data-name="Path 26959" d="M51.92,28.28l-5.09,1.78-2.37-6.75a3.53,3.53,0,0,1,3.84,1Z" transform="translate(0 0)" style="fill: #3c4bdc"/>
      <path id="Path_26960" data-name="Path 26960" d="M62.56,40,51.68,43.84,49.25,37l8-2.8Z" transform="translate(0 0)" style="fill: #3c4bdc"/>
      <path id="Path_26961" data-name="Path 26961" d="M73.19,51.75,56.51,57.62l-2.42-6.89,13.78-4.85Z" transform="translate(0 0)" style="fill: #3c4bdc"/>
    </g>
    <path id="Path_26990" data-name="Path 26990" d="M23.84,66.47l-9.11-7.71,3.43-4.06,9.11,7.72Z" transform="translate(0 0)" style="fill: #ffb33b"/>
    <path id="Path_26991" data-name="Path 26991" d="M37.05,34.52,28.6,43l-3.75-3.75,8.45-8.45Z" transform="translate(0 0)" style="fill: #fe3345"/>
    <path id="Path_26992" data-name="Path 26992" d="M59.83,13.94l11.94.42-.19,5.3-11.93-.42Z" transform="translate(0 0)" style="fill: #2060d8"/>
    <g id="Group_14864" data-name="Group 14864">
      <path id="Path_27010" data-name="Path 27010" d="M110.08,112.67v.71a5,5,0,0,1-5,5H84.66V115.3H105a1.92,1.92,0,0,0,1.92-1.92h0v-.76a2,2,0,0,0-1.54-2,1.88,1.88,0,0,0-.85,0c-.09,0-.13,0-.11.17s.1.17.18.18a.42.42,0,0,1,.42.43h0v1.13h0v1.13a.44.44,0,0,1-.43.42h0a3.28,3.28,0,0,1-3.24-2.93,3.2,3.2,0,0,1,2.46-3.56,4.89,4.89,0,0,1,1.21-.15A5.16,5.16,0,0,1,110.08,112.67Z" transform="translate(0 0)" style="fill: #0e9be6"/>
      <path id="Path_27011" data-name="Path 27011" d="M110.08,112.67v.71a5,5,0,0,1-5,5H84.66v-1.56H105a3.48,3.48,0,0,0,3.48-3.48h0v-.74a3.49,3.49,0,0,0-3.41-3.57,4,4,0,0,0-.91.1A1.74,1.74,0,0,0,103,111.3a1.71,1.71,0,0,0,1.66,1.29h.43v1.13a.44.44,0,0,1-.43.42h0a3.27,3.27,0,0,1-3.24-2.92,3.2,3.2,0,0,1,2.46-3.56,5,5,0,0,1,1.21-.15A5.15,5.15,0,0,1,110.08,112.67Z" transform="translate(0 0)" style="fill: #0e9be6"/>
      <path id="Path_27012" data-name="Path 27012" d="M93.84,115.36v3a.92.92,0,0,1-.92.92H81.48c-.5,0-3.5-1.34-3.5-2.55s3-2.3,3.5-2.3H92.92a.93.93,0,0,1,.92.93Z" transform="translate(0 0)" style="fill: #5965dd"/>
      <path id="Path_27015" data-name="Path 27015" d="M94.55,114.54V119a1.14,1.14,0,0,1-1.14,1.15h-.5A1.14,1.14,0,0,1,91.77,119v-4.48a1.14,1.14,0,0,1,1.14-1.15h.5a1.14,1.14,0,0,1,1.14,1.15Z" transform="translate(0 0)" style="fill: #3c4bdc"/>
      <path id="Path_27016" data-name="Path 27016" d="M94.55,116.87V119a1.14,1.14,0,0,1-1.14,1.15h-.5A1.14,1.14,0,0,1,91.77,119v-2.15Z" transform="translate(0 0)" style="fill: #3c4bdc"/>
    </g>
  </g>
</svg>
