<svg xmlns="http://www.w3.org/2000/svg" width="243.585" height="117.449" viewBox="0 0 243.585 117.449">
  <g id="Group_17922" data-name="Group 17922" transform="translate(0 -8.884)">
    <g id="Groupe_11172" data-name="Groupe 11172" transform="translate(0 8.884)">
      <g id="fusee" transform="translate(0 0)">
        <g id="OBJECTS">
          <g id="Groupe_10733" data-name="Groupe 10733">
            <path id="Tracé_20852" data-name="Tracé 20852" d="M207.628,106.291c-12.7,7.523-23.156,9.108-30.507,9.108-18.8-.08-44.049-10.533-53.663-11.2a130.24,130.24,0,0,0-14.047.08c-9.189.333-15.633,1.149-21.146,1.757-6.892.747-17.057,1.677-29.76,2.3-1,.161-22.972,2.837-34.274-13.048-.827-1.1-9.108-13.163-5.088-23.271,2.182-5.513,8.948-12.784,16.551-16.965,1.838-1,3.009-1.424,3.446-2.757,1.734-5.433-14.254-11.279-15.908-21.065C22.392,26.3,24.816,18.7,40.54,6.994c10.866-5.1,26.246-9.947,41.545-4.767,13.037,4.434,14.208,12.037,26.154,14.381,15.139,2.849,19.228-8.19,45.14-12.451,10.877-1.838,22.4-3.515,33.861,2.584,2.3,1.263,15.713,8.362,17.551,20.675,2.171,14.794-17.229,21.4-15.047,33.608,2.3,13.542,27.337,14.932,28.842,27.658C219.413,95.253,213.566,101.524,207.628,106.291Z" transform="translate(2.682 -0.008)" fill="#dfe4f4"/>
            <circle id="Ellipse_392" data-name="Ellipse 392" cx="8.442" cy="8.442" r="8.442" transform="translate(226.7 4.378)" fill="#dfe4f4"/>
            <circle id="Ellipse_393" data-name="Ellipse 393" cx="4.181" cy="4.181" r="4.181" transform="translate(216.076 23.686)" fill="#dfe4f4"/>
            <circle id="Ellipse_394" data-name="Ellipse 394" cx="6.604" cy="6.604" r="6.604" transform="translate(0 84.631)" fill="#dfe4f4"/>
            <circle id="Ellipse_395" data-name="Ellipse 395" cx="6.604" cy="6.604" r="6.604" transform="translate(223.266 65.99)" fill="#dfe4f4"/>
            <circle id="Ellipse_396" data-name="Ellipse 396" cx="6.604" cy="6.604" r="6.604" transform="translate(13.117 3.207)" fill="#dfe4f4"/>
          </g>
        </g>
      </g>
    </g>
    <g id="Group_17923" data-name="Group 17923" transform="translate(13870.473 4102.001)">
      <g id="Door_open" data-name="Door open" transform="translate(-13833.96 -4093.118)">
        <path id="Path_24651" data-name="Path 24651" d="M75.357,2H8.35a3.049,3.049,0,0,0-2.37,1.228A4.781,4.781,0,0,0,5,6.195v96.737a4.1,4.1,0,0,0,2.66,4.1s47.156,12.42,47.385,12.412a2.981,2.981,0,0,0,2.388-1.2,4.708,4.708,0,0,0,.962-2.99v-8.127H75.357a3.049,3.049,0,0,0,2.37-1.228,4.781,4.781,0,0,0,.981-2.967V6.195a4.781,4.781,0,0,0-.981-2.967A3.049,3.049,0,0,0,75.357,2ZM45.22,68.97c0,2.317-1.5,4.195-3.35,4.195s-3.35-1.878-3.35-4.195V52.417c0-2.317,1.5-4.195,3.35-4.195s3.35,1.878,3.35,4.195ZM72.006,98.737H58.4V17.476a4.06,4.06,0,0,0-2.716-4.117l-12.292-2.97H72.006Z" transform="translate(-5 -2)" fill="#8595ba"/>
      </g>
      <g id="Groupe_11810" data-name="Groupe 11810" transform="translate(-13774.62 -4087.782)">
        <g id="Groupe_11809" data-name="Groupe 11809" transform="translate(0 0)">
          <path id="Tracé_24049" data-name="Tracé 24049" d="M88.3,48.53s11.786,10.35,15.869,18.113,5.3,9.928,4.688,14.071c-.821,5.564-2.576-.372-2.576-.372s.346,2.588-.1,3.382-.816-2.114-1.275-6.765-.356-6.494-5.1-11.839-10.716-7.137-11.672-9.64S88.3,48.53,88.3,48.53Z" transform="translate(2.214 -1.763)" fill="#8595ba"/>
          <g id="Groupe_11805" data-name="Groupe 11805" transform="translate(0)">
            <g id="Groupe_11803" data-name="Groupe 11803">
              <g id="Groupe_11100" data-name="Groupe 11100">
                <g id="Groupe_11099" data-name="Groupe 11099">
                  <g id="Groupe_11095" data-name="Groupe 11095">
                    <g id="Groupe_11094" data-name="Groupe 11094">
                      <g id="Groupe_11093" data-name="Groupe 11093">
                        <g id="Groupe_11090" data-name="Groupe 11090">
                          <path id="Tracé_22543" data-name="Tracé 22543" d="M5.246.039S-.16,21.2,0,29.749s.193,11,2.785,11.227c3.479.318,2.12-4.086,2.12-4.086s.964,1.272,1.725.781-.318-1.86-2.216-3.855-2.891-2.4-1.291-11.246S9.168,3.98,8.792,1.783,5.246.039,5.246.039Z" transform="matrix(0.766, 0.643, -0.643, 0.766, 26.349, 44.489)" fill="#8595ba"/>
                          <g id="Groupe_10797" data-name="Groupe 10797" transform="translate(35.309 57.966)">
                            <path id="Tracé_87" data-name="Tracé 87" d="M38.364,61s2.274,34.692,1.118,35.733-7.256.106-8.365,2.024,9.367,1.8,10.706.626,0-38.364,0-38.364Z" transform="translate(-31.035 -60.182)" fill="#8595ba"/>
                            <path id="Tracé_88" data-name="Tracé 88" d="M74.708,60.15s2.236,34.692,1.118,35.724-7.247.106-8.365,2.014,9.367,1.8,10.716.665,0-38.364,0-38.364Z" transform="translate(-32.356 -60.15)" fill="#8595ba"/>
                          </g>
                          <g id="Groupe_10793" data-name="Groupe 10793" transform="translate(5.403)">
                            <g id="Groupe_10771" data-name="Groupe 10771">
                              <g id="Groupe_10768" data-name="Groupe 10768">
                                <g id="Groupe_10740" data-name="Groupe 10740">
                                  <g id="Groupe_10740-2" data-name="Groupe 10740-2">
                                    <g id="Groupe_10738" data-name="Groupe 10738">
                                      <g id="Groupe_34" data-name="Groupe 34">
                                        <g id="Groupe_27" data-name="Groupe 27">
                                          <path id="Tracé_89" data-name="Tracé 89" d="M76.64,67.36c1.07.453,4.693,1.735,7.623-.135,3.479-2.226,3.479-4.876,3.479-4.876A10.138,10.138,0,0,0,97.9,59.988c4.876-4.452,2.65-13.337,2.65-13.337s4.558-2.371,4.038-7.266c-.858-7.9-8.914-8.355-8.914-8.355s2.506-5.984-1.927-10.157a13.106,13.106,0,0,0-10.3-3.2,4.616,4.616,0,0,0-1.667-5.156,5.037,5.037,0,0,0-5.011-.781s.482-6.331-5.281-8.49a11.824,11.824,0,0,0-10.2,1.2S57.81.693,52.8,1.387a15.544,15.544,0,0,0-7.8,3.2,8.856,8.856,0,0,0-8.625-1.927,8.008,8.008,0,0,0-5.85,6.4s-8.933-2.506-13.809,3.614-2.506,11.246-2.506,11.246S6.176,22.819,3.67,30.47A13.491,13.491,0,0,0,5.752,43.278S-.791,49.821,1.974,56.9a8.336,8.336,0,0,0,9.454,5.6,7.382,7.382,0,0,0,7.112,6.5c6.543.424,9.328-1.927,9.328-1.927s5.7,4.732,11.275,4.173,7.671-2.785,7.671-2.785S52.085,71.485,57.26,71.3a17.346,17.346,0,0,0,9.28-3.662A5.512,5.512,0,0,0,71.7,70.145C75.214,69.788,76.437,67.273,76.64,67.36Z" transform="translate(-0.048 -0.047)" fill="#f3f6fe"/>
                                          <g id="Groupe_26" data-name="Groupe 26">
                                            <path id="Tracé_90" data-name="Tracé 90" d="M105.783,39.2a10.427,10.427,0,0,0-8.529-9.251A10.167,10.167,0,0,0,94.537,19.91,14.118,14.118,0,0,0,84.9,16.267h-.067A5.628,5.628,0,0,0,82.4,11.448a7.016,7.016,0,0,0-3.855-1.436,8.114,8.114,0,0,0-.809-2.3,10,10,0,0,0-5.878-5.686,12,12,0,0,0-4.2-.752,12.749,12.749,0,0,0-4.115.655h0l-.308.106-.173.067h0a12.585,12.585,0,0,0-1.648.79A11.766,11.766,0,0,0,53.966,0a9.993,9.993,0,0,0-1.417.1A17.645,17.645,0,0,0,45,2.939,10.167,10.167,0,0,0,38.99.964a11.005,11.005,0,0,0-3.007.434,9.222,9.222,0,0,0-6.437,6.158c-2.746-.4-9.348-.7-13.491,4.568-2.852,3.508-3.527,6.5-3.527,8.557h0a7.324,7.324,0,0,0,.087,1.3A11.564,11.564,0,0,0,2.438,30.028a14.86,14.86,0,0,0,1.6,13.048l-.241.289a1.234,1.234,0,0,0-.231.463C1.638,46.3-1.465,51.586.79,57.319c2.024,5.156,6.023,5.927,8.23,5.927a9.877,9.877,0,0,0,1.5-.116c.646,2.891,2.795,6.746,7.921,7.093.53,0,1.07.048,1.59.048a15.66,15.66,0,0,0,7.709-1.725C29.421,69.77,33.671,72.5,38.152,72.5a9.337,9.337,0,0,0,1.05-.058,17.009,17.009,0,0,0,6.9-2.024,4.318,4.318,0,0,0,.848-.472,23.591,23.591,0,0,0,9.762,2.563h.5a17.944,17.944,0,0,0,9.039-3.18,3.584,3.584,0,0,0,.443.414l.106.058a6.437,6.437,0,0,0,4.25,1.59h.723a7.777,7.777,0,0,0,5.1-2.573,11.814,11.814,0,0,0,3.7.646,7.825,7.825,0,0,0,4.279-1.185,8.789,8.789,0,0,0,3.807-4.433,11.3,11.3,0,0,0,2.13.2,11.564,11.564,0,0,0,7.941-3.18c4.452-4.067,3.652-11.15,3.2-13.665A8.606,8.606,0,0,0,105.783,39.2Zm-5.56,6.09c-.675-.2-1.494-.434-2.486-.675a4.9,4.9,0,0,0-4.973,1.3,4.2,4.2,0,0,0-.81,4.337,3.575,3.575,0,0,0,3.623,2.361,5.849,5.849,0,0,0,1.87-.308,1.131,1.131,0,1,0-.732-2.139h0c-.087,0-2.12.7-2.631-.684a2,2,0,0,1,.357-2.014,2.679,2.679,0,0,1,2.737-.617c.9.222,1.638.434,2.245.617.366,1.927,1.214,8.249-2.39,11.564a9.039,9.039,0,0,1-6.245,2.534,8.413,8.413,0,0,1-2.5-.366l-2.284-4.346a1.254,1.254,0,1,0-2.226,1.156L86.316,62.9a6.139,6.139,0,0,1-2.785,3.248,5.291,5.291,0,0,1-2.891.79,9.724,9.724,0,0,1-3.546-.771l-.241-.106h-.26a1.619,1.619,0,0,0-1.253.732,5.445,5.445,0,0,1-3.768,2.062H71.11a4.163,4.163,0,0,1-3.276-1.638,3.99,3.99,0,0,1-.6-2.361A2.053,2.053,0,0,1,68.2,63.14c1.6-.964,2.38-.135,2.583.135a1.256,1.256,0,0,0,2.062-1.436c-.723-1.06-2.891-2.6-5.888-.867a4.481,4.481,0,0,0-2.188,3.7,6.621,6.621,0,0,0,.318,2.457,15.688,15.688,0,0,1-7.873,2.891,20.3,20.3,0,0,1-8.644-2.082h0a8.1,8.1,0,0,0-.5-6.331c-1.59-3.546-5.435-3.431-7.247-2.891a1.252,1.252,0,1,0,.684,2.409h0c.135,0,3.132-.964,4.231,1.513a5.782,5.782,0,0,1,.52,4.346,2.89,2.89,0,0,1-.2.385l-.193.193s-1.927,1.927-6.871,2.409a7.579,7.579,0,0,1-.809,0c-3.768,0-7.546-2.467-8.962-3.489l.318-3.8a1.253,1.253,0,1,0-2.5-.212h0l-.308,3.768a13.067,13.067,0,0,1-6.7,1.5H18.589c-5.185-.337-5.734-5.628-5.782-6.129a3.431,3.431,0,0,1,1.85-2.737,2.7,2.7,0,0,1,1.667-.453h-.087l.964-2.3c-.241-.106-1.561-.559-3.71.578a5.85,5.85,0,0,0-3.064,3.97,7.778,7.778,0,0,1-1.417.039c-2.785,0-4.77-1.455-5.9-4.337-2.342-5.917,2.92-11.66,3.431-12.21A6.379,6.379,0,0,1,10.6,42.749a3.855,3.855,0,0,1,3.623,2.39,1.243,1.243,0,0,0,1.185.848,1.1,1.1,0,0,0,.4-.067,1.243,1.243,0,0,0,.829-1.59h0a6.331,6.331,0,0,0-5.946-4.1A8.548,8.548,0,0,0,6,41.505,12.528,12.528,0,0,1,4.818,30.838a9.3,9.3,0,0,1,8.548-6.351,5.965,5.965,0,0,0,4.693,3.373,6.612,6.612,0,0,0,.964.067,6.919,6.919,0,0,0,6.033-4.019,1.253,1.253,0,1,0-2.274-1.05c-.058.116-1.416,2.891-4.365,2.506a3.585,3.585,0,0,1-2.573-1.6l-.511-1.118a1.05,1.05,0,0,1-.077-.183,6.062,6.062,0,0,1-.241-1.667s0-.077,0-.116c0-1.571.569-3.99,2.958-7.006C21.692,9,27.995,9.82,29.729,10.119l1.764,3.97a1.229,1.229,0,1,0,2.236-1.021h0L31.8,8.779a.337.337,0,0,1,0-.106A6.746,6.746,0,0,1,36.62,3.768a8.191,8.191,0,0,1,2.313-.337A7.652,7.652,0,0,1,44,5.358l.279.289a3.44,3.44,0,0,1,.482,3.392,2.8,2.8,0,0,1-2.64,1.764,1.253,1.253,0,0,0-.231,2.5h.279a5.3,5.3,0,0,0,4.818-3.18,5.647,5.647,0,0,0-.27-5.3,15.419,15.419,0,0,1,6.206-2.226,7.989,7.989,0,0,1,1.041-.087A9.271,9.271,0,0,1,59.5,4.549,5.9,5.9,0,0,0,58.206,7.16a5.1,5.1,0,0,0,3.527,6.168,1.079,1.079,0,0,0,.308,0,1.253,1.253,0,0,0,.3-2.467,2.592,2.592,0,0,1-1.686-3.151c.463-2.139,3.007-3.132,3.5-3.305A10.6,10.6,0,0,1,67.66,3.8a9.521,9.521,0,0,1,3.325.6,7.594,7.594,0,0,1,4.433,4.279v.1a9.135,9.135,0,0,1,.713,2.795v2.11c-.424,1.744-1.359,1.744-1.773,1.744a2.708,2.708,0,0,1-1.426-.472,1.253,1.253,0,0,0-1.542,1.976,5.136,5.136,0,0,0,2.958.964c1.147,0,3.855-.463,4.375-4.7a2.593,2.593,0,0,1,.067-.723,5.011,5.011,0,0,1,2.159,1.031,3.315,3.315,0,0,1,1.2,3.72l-.684,1.976,2.072-.328a8.856,8.856,0,0,1,1.339-.087,11.564,11.564,0,0,1,7.9,2.958c3.3,3.093,2.13,7.372,1.744,8.49-.125.279-1.879,3.855-4.317,3.961a1.706,1.706,0,0,1-1.291-.289,1.128,1.128,0,0,1-.125-.829,1.254,1.254,0,0,0-2.438-.588,3.643,3.643,0,0,0,.636,3.007A3.72,3.72,0,0,0,90.007,36.7h.318c2.958-.135,4.982-2.8,5.917-4.365a7.95,7.95,0,0,1,7.044,7.179,6.264,6.264,0,0,1-3.064,5.83Z" transform="translate(-0.002 0)" fill="#b8c4e0"/>
                                            <path id="Tracé_91" data-name="Tracé 91" d="M81.159,29.171a7.228,7.228,0,0,0-1.7-6.447C75.444,17.839,69.3,18.937,65.5,20.662a8.8,8.8,0,0,0-5.946-6.678c-4.6-1.561-8.133,1.532-9.772,3.421A11.439,11.439,0,0,0,41.35,14.36,7.709,7.709,0,0,0,34.6,19.747,6.582,6.582,0,0,0,36.743,27.3a7.652,7.652,0,0,0,10.167-.26A1.253,1.253,0,0,0,45.2,25.211h0a5.165,5.165,0,0,1-6.91.125,4.173,4.173,0,0,1-1.32-4.818,5.194,5.194,0,0,1,4.433-3.643c5.2-.106,7.276,3.045,7.362,3.18a1.253,1.253,0,0,0,1.725.4,1.369,1.369,0,0,0,.4-.385c0-.058,3.411-5.223,7.854-3.71a6.37,6.37,0,0,1,4.423,6.216,1.262,1.262,0,0,0,1.927,1.137c.318-.2,7.931-4.818,12.451.617a4.818,4.818,0,0,1,1.185,4.279,5.156,5.156,0,0,1-2.506,3.325,4.8,4.8,0,0,1-3.7-.357,1.262,1.262,0,0,0-1.706.5,1.243,1.243,0,0,0,.491,1.7h0a8.423,8.423,0,0,0,3.084.9,5.782,5.782,0,0,0,2.891-.443,7.709,7.709,0,0,0,3.874-5.059Z" transform="translate(-1.243 -0.492)" fill="#b8c4e0"/>
                                            <path id="Tracé_92" data-name="Tracé 92" d="M26.246,47.375a5.782,5.782,0,0,0-.3-3.219h0a6.688,6.688,0,0,0,2.139-.357,5.782,5.782,0,0,0,3.643-4.105,7.912,7.912,0,0,0-1.349-6.967c-2.3-2.7-5.888-2.014-7.5-1.272a1.257,1.257,0,0,0,1.07,2.274h0s2.833-1.311,4.491.646a5.416,5.416,0,0,1,.858,4.683,3.315,3.315,0,0,1-2.053,2.4A4.818,4.818,0,0,1,23.393,41a9.338,9.338,0,0,0-1.455-.964l-.019-.125a1.253,1.253,0,0,0-1.8,1.735l.058.058a3.315,3.315,0,0,0,.4.347h0a11.15,11.15,0,0,0,1.542,1.05,4.125,4.125,0,0,1,1.7,3.855c-.511,2.746-2.544,2.891-2.785,2.891a1.253,1.253,0,0,0,0,2.506A5.58,5.58,0,0,0,26.246,47.375Z" transform="translate(-0.72 -1.118)" fill="#b8c4e0"/>
                                            <path id="Tracé_93" data-name="Tracé 93" d="M31.5,53.34a7.478,7.478,0,0,0-6.611,4.587,1.253,1.253,0,1,0,2.313.964v-.067a4.963,4.963,0,0,1,4.346-2.978c2.785-.087,3.084,2.949,3.084,3.334a1.253,1.253,0,0,0,1.253,1.176h.077a1.253,1.253,0,0,0,1.176-1.32C37.019,57,35.689,53.2,31.5,53.34Z" transform="translate(-0.902 -1.937)" fill="#b8c4e0"/>
                                            <path id="Tracé_94" data-name="Tracé 94" d="M88.7,42.823c-2-1.686-5.05-1.195-5.175-1.166A1.139,1.139,0,0,0,83.91,43.9a4.818,4.818,0,0,1,3.325.675,2.824,2.824,0,0,1,.858,2.294,3.46,3.46,0,0,1-.964,2.65,3.913,3.913,0,0,1-2.631.829,1.127,1.127,0,0,0-1.234,1.041,1.157,1.157,0,0,0,0,.366,4.067,4.067,0,0,1-.289,2.795,1.715,1.715,0,0,1-1.368.636,2.419,2.419,0,0,1-1.927-.511,2.939,2.939,0,0,1-.626-2.091,1.147,1.147,0,0,0-2.284-.173,5.194,5.194,0,0,0,1.311,3.855,4.317,4.317,0,0,0,3.209,1.214h.559a3.98,3.98,0,0,0,3.036-1.58,5.358,5.358,0,0,0,.838-3.315A5.242,5.242,0,0,0,90.377,46.9,5.04,5.04,0,0,0,88.7,42.823Z" transform="translate(-2.79 -1.51)" fill="#b8c4e0"/>
                                          </g>
                                        </g>
                                      </g>
                                    </g>
                                  </g>
                                </g>
                              </g>
                              <g id="Groupe_10769" data-name="Groupe 10769" transform="translate(31.858 26.337)">
                                <path id="Tracé_22523" data-name="Tracé 22523" d="M46.812,27.33a45.071,45.071,0,0,1-6.592,4.231A42.335,42.335,0,0,1,33.06,34.3" transform="translate(-33.06 -27.33)" fill="none" stroke="#8595ba" stroke-linecap="round" stroke-linejoin="bevel" stroke-width="2"/>
                                <path id="Tracé_22935" data-name="Tracé 22935" d="M77.7,34.3a45.013,45.013,0,0,0-6.592-4.221,41.67,41.67,0,0,0-7.17-2.746" transform="translate(-34.182 -27.33)" fill="none" stroke="#8595ba" stroke-linecap="round" stroke-linejoin="bevel" stroke-width="2"/>
                              </g>
                              <g id="Groupe_11091" data-name="Groupe 11091" transform="translate(37.623 36.128)">
                                <g id="Groupe_10734" data-name="Groupe 10734" transform="translate(22.239)">
                                  <g id="Groupe_29" data-name="Groupe 29">
                                    <path id="Tracé_97" data-name="Tracé 97" d="M74.436,43.638a6.158,6.158,0,1,1-6.148-6.148A6.158,6.158,0,0,1,74.436,43.638Z" transform="translate(-62.12 -37.49)" fill="none" stroke="#8595ba" stroke-width="2"/>
                                    <path id="Tracé_98" data-name="Tracé 98" d="M74.348,43.789A2.419,2.419,0,1,1,71.91,41.38h0a2.409,2.409,0,0,1,2.438,2.409Z" transform="translate(-68.776 -37.631)" fill="#8595ba" stroke="#8595ba" stroke-width="2"/>
                                  </g>
                                </g>
                                <g id="Groupe_10742" data-name="Groupe 10742" transform="translate(0 0)">
                                  <g id="Groupe_29-2" data-name="Groupe 29-2">
                                    <path id="Tracé_97-2" data-name="Tracé 97-2" d="M51.426,43.638a6.148,6.148,0,1,1-6.148-6.148A6.148,6.148,0,0,1,51.426,43.638Z" transform="translate(-39.046 -37.49)" fill="none" stroke="#8595ba" stroke-width="2"/>
                                    <path id="Tracé_98-2" data-name="Tracé 98-2" d="M51.338,43.789a2.419,2.419,0,1,1-2.428-2.409h0a2.409,2.409,0,0,1,2.428,2.409Z" transform="translate(-46.5 -37.631)" fill="#8595ba" stroke="#8595ba" stroke-width="2"/>
                                  </g>
                                </g>
                              </g>
                            </g>
                          </g>
                        </g>
                        <g id="Groupe_11092" data-name="Groupe 11092" transform="translate(55.705 57.379)">
                          <g id="Groupe_22" data-name="Groupe 22">
                            <path id="Tracé_51" data-name="Tracé 51" d="M61.895,56.638a1.608,1.608,0,0,1-.867,1.255,5.75,5.75,0,0,1-1.995.749,10.346,10.346,0,0,1-3.97,0,5.914,5.914,0,0,1-1.995-.749,1.608,1.608,0,0,1-.867-1.255c0-.887,1.156-.48,2.814-.2a10.583,10.583,0,0,0,4.067,0C60.738,56.158,61.895,55.751,61.895,56.638Z" transform="translate(-52.2 -56.097)" fill="#8595ba"/>
                          </g>
                        </g>
                      </g>
                    </g>
                  </g>
                </g>
              </g>
            </g>
          </g>
        </g>
      </g>
    </g>
  </g>
</svg>
