<svg xmlns="http://www.w3.org/2000/svg" width="315.361" height="172.134" viewBox="0 0 315.361 172.134">
  <g id="Group_12855" data-name="Group 12855" transform="translate(0 0)">
    <g id="Groupe_11172" data-name="Groupe 11172" transform="translate(0 11.048)">
      <g id="fusee" transform="translate(0 0)">
        <g id="OBJECTS">
          <g id="Groupe_10733" data-name="Groupe 10733">
            <path id="Tracé_20852" data-name="Tracé 20852" d="M263.491,137.609c-16.447,9.74-29.979,11.792-39.5,11.792-24.343-.1-57.029-13.636-69.476-14.5a168.619,168.619,0,0,0-18.187.1c-11.9.431-20.239,1.487-27.377,2.275-8.922.967-22.083,2.171-38.53,2.974-1.294.208-29.741,3.673-44.374-16.893-1.071-1.428-11.792-17.042-6.588-30.128C22.29,86.1,31.049,76.684,40.893,71.271c2.379-1.294,3.9-1.844,4.461-3.569C47.6,60.668,26.9,53.1,24.758,40.429,23.673,34.05,26.81,24.205,47.168,9.052c14.068-6.6,33.979-12.878,53.787-6.171,16.878,5.74,18.395,15.584,33.86,18.618,19.6,3.688,24.893-10.6,58.442-16.12C207.34,3,222.255.829,237.1,8.725c2.974,1.636,20.343,10.826,22.722,26.767C262.629,54.646,237.512,63.2,240.338,79c2.974,17.532,35.392,19.332,37.34,35.808C278.748,123.318,271.179,131.437,263.491,137.609Z" transform="translate(8.79 -0.008)" fill="#dfe4f4"/>
            <circle id="Ellipse_392" data-name="Ellipse 392" cx="10.93" cy="10.93" r="10.93" transform="translate(293.501 5.668)" fill="#dfe4f4"/>
            <circle id="Ellipse_393" data-name="Ellipse 393" cx="5.413" cy="5.413" r="5.413" transform="translate(279.746 30.666)" fill="#dfe4f4"/>
            <circle id="Ellipse_394" data-name="Ellipse 394" cx="8.551" cy="8.551" r="8.551" transform="translate(0 109.569)" fill="#dfe4f4"/>
            <circle id="Ellipse_395" data-name="Ellipse 395" cx="8.551" cy="8.551" r="8.551" transform="translate(289.055 85.434)" fill="#dfe4f4"/>
            <circle id="Ellipse_396" data-name="Ellipse 396" cx="8.551" cy="8.551" r="8.551" transform="translate(16.982 4.152)" fill="#dfe4f4"/>
          </g>
        </g>
      </g>
    </g>
    <g id="Group_12853" data-name="Group 12853" transform="translate(15.3)">
      <g id="Group_12852" data-name="Group 12852" transform="translate(0 16.16)">
        <g id="Groupe_10757" data-name="Groupe 10757" transform="translate(15.635 47.354)">
          <path id="Tracé_34" data-name="Tracé 34" d="M59.581,211.083c-.078.156-8.021,15.745-24.831,13.733-6.781-.811-11.791-4.575-14.886-11.194a32.336,32.336,0,0,1-2.7-9.351c2.032-1.072,4.3-3.326,5.547-8.048,2.317-8.81-6.694-7.415-7.5-4.29-.054-1.057-.714-2.54-2.852-1.879-3,.928-3.6,4.557-3.083,7.973a5.356,5.356,0,0,1-.573-6.6c2.248-3.9,2.876-5.454,1.471-6.481-1.591-1.177-8.519,5.22-3.662,13.307a6.937,6.937,0,0,1-2.552-7c.035-.17.068-.336.167-.831.778-3.88.826-5.35-.674-5.743-2.4-.63-9.258,17.57,8.048,20.322a37.919,37.919,0,0,0,3.092,10.885c3.938,8.519,10.684,13.58,19.5,14.634a30.37,30.37,0,0,0,3.653.219,28.836,28.836,0,0,0,19.614-7.739,34.923,34.923,0,0,0,7.391-9.36ZM12.407,195.741c.994-2.507,2.209-1.114,2.75-3.161h0a1.852,1.852,0,0,0,.132.51s.255,1.087,2.552.826.681,5.8-.94,6.166S10.78,199.856,12.407,195.741Z" transform="translate(-0.073 -184.657)" fill="#8595ba"/>
        </g>
        <g id="Group_12849" data-name="Group 12849" transform="translate(63.295 50.549) rotate(150)">
          <path id="Path_24564" data-name="Path 24564" d="M0,33.094,25.334.835a2.172,2.172,0,0,1,3.879,1.412l-1.328,41Z" transform="translate(9.176 0)" fill="#fdeaaf"/>
          <path id="Path_24565" data-name="Path 24565" d="M0,41.14l5.982-39.3C6.135.832,5.806.182,5.306,0A2.133,2.133,0,0,1,6.734,2.111l-1.328,41Z" transform="translate(31.656 0.136)" fill="#f8cc7c"/>
          <path id="Path_24566" data-name="Path 24566" d="M0,12.3l36.349,13.23L38.9,18.522a8.04,8.04,0,0,0-4.805-10.3L12.856.487a8.04,8.04,0,0,0-10.3,4.805Z" transform="translate(0 32.837)" fill="#fdeaaf"/>
          <path id="Path_24567" data-name="Path 24567" d="M2.254,17.314,4.805,10.3A8.04,8.04,0,0,0,0,0L4.232,1.54a8.04,8.04,0,0,1,4.805,10.3L6.486,18.854Z" transform="translate(29.863 39.515)" fill="#f8cc7c"/>
          <g id="Group_12845" data-name="Group 12845" transform="translate(21.8 8.236)">
            <path id="Path_24569" data-name="Path 24569" d="M.063.682a1.037,1.037,0,0,0,.62,1.329,27.562,27.562,0,0,1,3.232,1.44,1.029,1.029,0,0,0,.445.116L4.43,1.386A29.079,29.079,0,0,0,1.392.063,1.037,1.037,0,0,0,.063.682Z" transform="translate(11.921 0)" fill="#f8cc7c"/>
            <path id="Path_24570" data-name="Path 24570" d="M11.463,6.257A30.252,30.252,0,0,0,1.392.063,1.037,1.037,0,1,0,.683,2.012,27.089,27.089,0,0,1,10.649,8.4a1.033,1.033,0,0,0,.734.338Z" transform="translate(4.027 21.687)" fill="#f8cc7c"/>
            <path id="Path_24571" data-name="Path 24571" d="M.063.682a1.037,1.037,0,0,0,.62,1.329A29.345,29.345,0,0,1,8.445,6.36a1.029,1.029,0,0,0,.611.222L9.13,4.273A31.705,31.705,0,0,0,1.392.062,1.038,1.038,0,0,0,.063.682Z" transform="translate(6.659 14.458)" fill="#f8cc7c"/>
            <path id="Path_24572" data-name="Path 24572" d="M6.19,4.762a1.032,1.032,0,0,0,.522.16L6.785,2.69A31.191,31.191,0,0,0,1.392.063,1.037,1.037,0,0,0,.682,2.011,29.33,29.33,0,0,1,6.19,4.762Z" transform="translate(9.289 7.23)" fill="#f8cc7c"/>
            <path id="Path_24573" data-name="Path 24573" d="M12.295,6.172a1.034,1.034,0,0,1-.354-.063L.683,2.012A1.037,1.037,0,1,1,1.392.063L12.65,4.16a1.037,1.037,0,0,1-.355,2.011Z" transform="translate(0 27.683)" fill="#f8cc7c"/>
          </g>
        </g>
      </g>
      <g id="Group_12848" data-name="Group 12848" transform="translate(2.377 0)">
        <g id="Groupe_10785" transform="translate(45.386 0)">
          <g id="Groupe_10779" transform="translate(0 0)">
            <path id="Tracé_22535" d="M685.78,241.73s9.986,39.041,9.635,54.783-.325,20.322-5.081,20.772c-6.432.576-3.929-7.558-3.929-7.558s-1.777,2.352-3.178,1.452.576-3.429,4.1-7.208c3.5-3.779,5.331-4.43,2.378-20.747s-11.137-34.311-10.436-38.341C679.949,240.8,685.78,241.73,685.78,241.73Z" transform="translate(-518.148 -181.115)" fill="#8595ba"/>
            <g id="Groupe_10740" transform="translate(0 0)">
              <g id="Groupe_10740-2">
                <g id="Groupe_10738">
                  <g id="Groupe_34">
                    <g id="Groupe_25" transform="translate(51.873 102.678)">
                      <path id="Tracé_87" d="M12.661,5.625s3.879,60.189,1.927,61.966c-1.927,1.777-12.588.2-14.515,3.5S16.34,74.223,18.667,72.17s0-66.571,0-66.571Z" transform="translate(0.07 -4.198)" fill="#8595ba"/>
                      <path id="Tracé_88" d="M249.907,0s-3.879,60.189-1.927,61.991,12.588.175,14.515,3.5c1.927,3.3-16.267,3.128-18.595,1.1s0-66.571,0-66.571h6.006Z" transform="translate(-182.068)" fill="#8595ba"/>
                    </g>
                    <path id="Tracé_22536" d="M24.048,266.629c-7.808,2.653-5.206,7.833,4.98,4.43A39.877,39.877,0,0,1,24.048,266.629Z" transform="translate(-6.926 -165.246)" fill="#8595ba"/>
                    <g id="Groupe_27">
                      <path id="Tracé_89" d="M139.5,123.328c1.852.776,8.134,3,13.214-.25,6.056-3.854,6.056-8.434,6.056-8.434a17.557,17.557,0,0,0,17.619-4.1c8.434-7.733,4.58-23.15,4.58-23.15s7.933-4.1,7.007-12.613c-1.477-13.715-15.466-14.49-15.466-14.49s4.355-10.386-3.379-17.619-17.869-5.556-17.869-5.556,1.927-5.556-2.9-8.934C143.559,24.8,139.7,26.8,139.7,26.8s.826-10.987-9.16-14.716c-9.51-3.554-17.644,2.077-17.644,2.077s-6.056-6.507-14.741-5.306-13.514,5.556-13.514,5.556a15.416,15.416,0,0,0-14.991-3.379A13.873,13.873,0,0,0,59.52,22.146S44,17.816,35.57,28.452c-8.459,10.636-4.355,19.521-4.355,19.521S17.25,46.071,12.921,59.36a23.51,23.51,0,0,0,3.629,22.224S5.187,92.921,10.018,105.259s16.417,9.71,16.417,9.71.976,10.561,12.338,11.287,16.192-3.379,16.192-3.379,9.91,8.209,19.571,7.233,13.289-4.83,13.289-4.83,9.185,5.231,18.119,4.905,16.192-6.357,16.192-6.357a9.523,9.523,0,0,0,8.934,4.355C137.027,127.532,139.154,123.178,139.5,123.328Z" transform="translate(-6.609 -6.479)" fill="#f3f6fe"/>
                      <g id="Groupe_26" transform="translate(0)">
                        <path id="Tracé_90" d="M183.53,67.872c-1.126-10.486-9.085-14.816-14.791-16.042.926-3.929,1.577-11.512-4.705-17.418A24.339,24.339,0,0,0,147.341,28.1h-.125a9.649,9.649,0,0,0-4.2-8.359,12.259,12.259,0,0,0-6.657-2.5,14.121,14.121,0,0,0-1.477-3.979A17.358,17.358,0,0,0,124.667,3.4a20.721,20.721,0,0,0-7.283-1.326,22.313,22.313,0,0,0-7.133,1.176h-.05c-.05.025-.25.075-.526.175-.1.025-.2.075-.3.1h-.025a27.516,27.516,0,0,0-2.778,1.226A20.4,20.4,0,0,0,93.709-.2a16.17,16.17,0,0,0-2.453.175,31.03,31.03,0,0,0-13.164,4.93A17.559,17.559,0,0,0,67.682,1.452a19.426,19.426,0,0,0-5.231.751A15.953,15.953,0,0,0,51.289,12.889c-4.755-.7-16.217-1.226-23.5,7.933-4.855,6.106-6.056,11.287-6.056,14.891v.05a11.365,11.365,0,0,0,.15,2.252c-4.73.551-14.065,3.028-17.619,13.915A25.787,25.787,0,0,0,7.043,74.554c-.25.275-.4.45-.425.476a2.193,2.193,0,0,0-.4.8c-3.354,4.355-8.784,13.539-4.88,23.5,3.5,8.959,10.461,10.286,14.29,10.286a17.953,17.953,0,0,0,2.6-.2c1.1,4.98,4.855,11.737,13.74,12.288.926.05,1.877.1,2.778.1,6.982,0,11.337-1.8,13.439-2.978,2.9,2.1,10.286,6.832,18.069,6.832.626,0,1.226-.025,1.827-.075a29.568,29.568,0,0,0,11.988-3.529,7.415,7.415,0,0,0,1.452-.8c2.928,1.452,9.86,4.455,16.943,4.455.3,0,.576,0,.876-.025,6.932-.25,12.814-3.6,15.667-5.531.25.25.5.5.776.726.05.025.125.075.175.1a11.243,11.243,0,0,0,7.383,2.753h0a10.492,10.492,0,0,0,1.251-.075,13.658,13.658,0,0,0,8.859-4.455,20.629,20.629,0,0,0,6.407,1.1,13.7,13.7,0,0,0,7.433-2.052,15.1,15.1,0,0,0,6.482-7.608,20.4,20.4,0,0,0,3.7.35,20.036,20.036,0,0,0,13.765-5.531c7.733-7.057,6.332-19.345,5.556-23.7C179.35,79.935,184.355,75.405,183.53,67.872Zm-9.71,10.636c-1.151-.35-2.578-.751-4.3-1.176a8.551,8.551,0,0,0-8.634,2.252,7.343,7.343,0,0,0-1.4,7.533c1.151,3.178,3.854,4.079,6.282,4.079a10.3,10.3,0,0,0,3.253-.526,1.971,1.971,0,1,0-1.276-3.729h0c-.15.05-3.679,1.226-4.555-1.2a3.478,3.478,0,0,1,.626-3.554,4.679,4.679,0,0,1,4.755-1.076c1.552.4,2.853.751,3.9,1.076.626,3.329,2.1,14.315-4.154,20.021a15.73,15.73,0,0,1-10.837,4.38,14.854,14.854,0,0,1-4.33-.626l-3.929-7.508a2.177,2.177,0,0,0-3.879,1.977v.025l4.4,8.459c-.4,1.276-1.527,3.529-4.83,5.656a9.09,9.09,0,0,1-5.08,1.376,16.723,16.723,0,0,1-6.132-1.3l-.425-.175h-.45a2.883,2.883,0,0,0-2.177,1.251,9.5,9.5,0,0,1-6.557,3.579c-.275.025-.551.05-.8.05h0a7.251,7.251,0,0,1-5.681-2.853,6.944,6.944,0,0,1-1.026-4.1,3.49,3.49,0,0,1,1.627-2.953c2.778-1.6,4.129-.25,4.48.225a2.184,2.184,0,0,0,3.579-2.5c-1.251-1.827-5.005-4.5-10.211-1.5a7.835,7.835,0,0,0-3.8,6.432,11.144,11.144,0,0,0,.551,4.255c-2.277,1.577-7.583,4.755-13.664,4.98-5.806.2-11.838-2.177-14.916-3.6V117.7c1.251-3.053.951-6.957-.876-10.987-2.778-6.157-9.435-5.956-12.588-4.98a2.177,2.177,0,0,0,1.3,4.154h0c.225-.075,5.431-1.627,7.333,2.628,1.3,2.878,1.6,5.631.8,7.558a4.352,4.352,0,0,1-.35.676l-.325.325c-.025.025-3.379,3.329-11.938,4.179a13.145,13.145,0,0,1-1.4.075c-6.532,0-13.089-4.28-15.541-6.056l.551-6.582a2.173,2.173,0,0,0-4.33-.375l-.551,6.532c-1.3.776-5.005,2.6-11.612,2.6-.8,0-1.652-.025-2.5-.075-9.01-.576-9.961-9.76-10.036-10.636a5.946,5.946,0,0,1,3.2-4.755c1.927-1,2.878-.8,2.878-.776a.356.356,0,0,1-.15-.05l1.7-4c-.425-.175-2.7-.976-6.457,1a10.158,10.158,0,0,0-5.306,6.882,13.825,13.825,0,0,1-2.478.225c-4.83,0-8.284-2.528-10.236-7.533-3.979-10.336,5.13-20.3,6.031-21.247A11.075,11.075,0,0,1,18.455,74a6.672,6.672,0,0,1,6.282,4.154,2.181,2.181,0,0,0,2.052,1.477,2.261,2.261,0,0,0,.7-.1,2.2,2.2,0,0,0,1.376-2.753,11.006,11.006,0,0,0-10.311-7.108,15.013,15.013,0,0,0-8.134,2.2A21.668,21.668,0,0,1,8.344,53.332c3.028-9.26,11.437-10.786,14.816-11.037a10.409,10.409,0,0,0,8.159,5.856A12.6,12.6,0,0,0,33,48.276c5.731,0,9.31-4.4,10.461-6.957a2.173,2.173,0,1,0-3.954-1.8c-.1.2-2.453,5.08-7.583,4.355a6.1,6.1,0,0,1-4.455-2.778l-.9-1.927a1.2,1.2,0,0,1-.125-.325,10.274,10.274,0,0,1-.425-2.878.551.551,0,0,0-.025-.2c.025-2.728.976-6.932,5.13-12.163,6.482-8.134,17.418-6.782,20.422-6.207l3.053,6.882a2.2,2.2,0,0,0,1.977,1.3,2.134,2.134,0,0,0,.876-.2,2.163,2.163,0,0,0,1.1-2.878l-3.3-7.433a.547.547,0,0,0-.075-.125A11.763,11.763,0,0,1,63.6,6.432a15.507,15.507,0,0,1,4-.6A13.318,13.318,0,0,1,76.391,9.21l.475.5c.826,1.226,1.977,3.554.826,5.881a4.878,4.878,0,0,1-4.58,3.078,2.174,2.174,0,0,0-.4,4.33,3.354,3.354,0,0,0,.5.025,9.275,9.275,0,0,0,8.409-5.506,9.832,9.832,0,0,0-.6-9.335A26.871,26.871,0,0,1,91.807,4.33,15.345,15.345,0,0,1,93.659,4.2a15.852,15.852,0,0,1,9.585,3.554,10.411,10.411,0,0,0-2.3,4.53A8.859,8.859,0,0,0,107.073,23a1.905,1.905,0,0,0,.526.075,2.171,2.171,0,0,0,.526-4.28,4.482,4.482,0,0,1-2.928-5.556c.8-3.7,5.231-5.431,6.081-5.731a18.113,18.113,0,0,1,6.106-1.051,16.066,16.066,0,0,1,5.756,1.051,13.29,13.29,0,0,1,7.708,7.408,1.222,1.222,0,0,1,.075.175,15.5,15.5,0,0,1,1.176,4.855l-.05,3.654c-.726,3.1-2.327,3.1-3.053,3.1a4.7,4.7,0,0,1-2.478-.8,2.175,2.175,0,1,0-2.678,3.429,8.843,8.843,0,0,0,5.13,1.727c1.977,0,6.682-.8,7.583-8.159.05-.425.075-.826.1-1.251a8.455,8.455,0,0,1,3.8,1.677,5.71,5.71,0,0,1,2.1,6.432l-1.176,3.429,3.6-.576a18.169,18.169,0,0,1,2.327-.15,20.169,20.169,0,0,1,13.715,5.13c5.731,5.381,3.7,12.789,3.028,14.741-.225.475-3.253,6.682-7.508,6.857a2.913,2.913,0,0,1-2.227-.5,1.889,1.889,0,0,1-.225-1.427,2.158,2.158,0,0,0-1.627-2.6,2.19,2.19,0,0,0-2.6,1.577,6.287,6.287,0,0,0,1.1,5.206,6.386,6.386,0,0,0,5.231,2.1,4.054,4.054,0,0,0,.551-.025c5.13-.225,8.634-4.88,10.261-7.558,3.153.526,11.112,2.8,12.163,12.388C179.851,74.229,175.3,77.582,173.819,78.508Z" transform="translate(0.02 0.2)" fill="#b8c4e0"/>
                        <path id="Tracé_91" d="M309.732,117.719a12.562,12.562,0,0,0-2.953-11.187c-7.007-8.434-17.644-6.582-24.226-3.579a15.182,15.182,0,0,0-10.311-11.562c-7.983-2.7-14.115,2.653-16.968,5.931-2.378-2.277-7.032-5.431-14.615-5.281-5.13.1-9.961,3.954-11.787,9.335a11.448,11.448,0,0,0,3.7,13.114,13.3,13.3,0,0,0,17.644-.45,2.169,2.169,0,0,0-2.953-3.178,8.955,8.955,0,0,1-11.988.225,7.272,7.272,0,0,1-2.3-8.334c1.226-3.629,4.48-6.307,7.758-6.382,9.035-.175,12.638,5.306,12.789,5.506a2.166,2.166,0,0,0,3.679.025c.05-.1,5.906-9.06,13.639-6.432a11.087,11.087,0,0,1,7.683,10.786,2.182,2.182,0,0,0,2.052,2.3,2.08,2.08,0,0,0,1.276-.325c.551-.35,13.765-8.359,21.6,1.076a8.292,8.292,0,0,1,2.052,7.408,8.952,8.952,0,0,1-4.355,5.781c-2.853,1.276-6.407-.6-6.432-.626a2.173,2.173,0,0,0-2.1,3.8h0a14.711,14.711,0,0,0,5.331,1.552,9.868,9.868,0,0,0,4.955-.776A13.1,13.1,0,0,0,309.732,117.719Z" transform="translate(-171.055 -67.916)" fill="#b8c4e0"/>
                        <path id="Tracé_92" d="M143.187,234.522a9.894,9.894,0,0,0-.526-5.581h.025a10.968,10.968,0,0,0,3.7-.626,10.014,10.014,0,0,0,6.332-7.133,13.81,13.81,0,0,0-2.352-12.088c-4-4.73-10.236-3.554-12.964-2.252a2.177,2.177,0,0,0,1.877,3.929c.05-.025,4.93-2.277,7.808,1.126a9.362,9.362,0,0,1,1.477,8.109,5.722,5.722,0,0,1-3.554,4.154,8.374,8.374,0,0,1-6.632-.8,19.412,19.412,0,0,0-2.528-1.7c-.15-.125-.225-.2-.225-.2a2.177,2.177,0,1,0-3.053,3.1h0c.05.05.3.275.676.6l.025.025a21.084,21.084,0,0,0,2.678,1.827c1.652,1.4,3.479,3.679,2.928,6.657-.9,4.755-4.4,5.005-4.83,5.03a2.177,2.177,0,0,0,.025,4.355C136.68,243.081,141.911,241.3,143.187,234.522Z" transform="translate(-98.885 -154.162)" fill="#b8c4e0"/>
                        <path id="Tracé_93" d="M177.279,356.383a12.958,12.958,0,0,0-11.462,7.958,2.166,2.166,0,1,0,4,1.652c.025-.025.025-.05.025-.1a8.668,8.668,0,0,1,7.558-5.181c4.78-.15,5.281,5.206,5.331,5.806a2.189,2.189,0,0,0,2.177,2.052h.15a2.162,2.162,0,0,0,2.027-2.3C186.864,362.74,184.562,356.158,177.279,356.383Z" transform="translate(-124.193 -267.139)" fill="#b8c4e0"/>
                        <path id="Tracé_94" d="M533.5,279.87c-3.479-2.928-8.759-2.077-8.985-2.027a1.979,1.979,0,0,0,.651,3.9c.025,0,3.7-.576,5.756,1.151a4.9,4.9,0,0,1,1.477,3.979,6.019,6.019,0,0,1-1.6,4.58,6.915,6.915,0,0,1-4.58,1.452,1.973,1.973,0,0,0-2.152,1.8,1.91,1.91,0,0,0,.05.651c.2.8.526,3.429-.5,4.855a3,3,0,0,1-2.378,1.1,4.107,4.107,0,0,1-3.4-.9,5.122,5.122,0,0,1-1.126-3.579,1.983,1.983,0,0,0-3.954-.3A9.1,9.1,0,0,0,515,303.194a7.492,7.492,0,0,0,5.581,2.1c.325,0,.626-.025.976-.05a6.786,6.786,0,0,0,5.256-2.728,9.169,9.169,0,0,0,1.452-5.781,9.655,9.655,0,0,0,5.155-2.327,9.766,9.766,0,0,0,2.9-7.533A8.525,8.525,0,0,0,533.5,279.87Z" transform="translate(-384.411 -208.144)" fill="#b8c4e0"/>
                      </g>
                    </g>
                  </g>
                </g>
                <g id="Groupe_10736" transform="translate(99.548 57.798)">
                  <g id="Groupe_10734">
                    <g id="Groupe_29">
                      <g id="Groupe_10803">
                        <path id="Tracé_97" d="M24.351,12.163A12.175,12.175,0,1,1,12.163,0,12.16,12.16,0,0,1,24.351,12.163Z" fill="none" stroke="#8595ba" stroke-width="4"/>
                        <path id="Tracé_98" d="M41.458,37.579A3.579,3.579,0,1,1,37.879,34h0A3.578,3.578,0,0,1,41.458,37.579Z" transform="translate(-29.03 -21.072)" fill="#8595ba" stroke="#8595ba" stroke-width="4"/>
                      </g>
                    </g>
                  </g>
                </g>
                <g id="Groupe_10804" transform="translate(60.006 57.798)">
                  <g id="Groupe_10734-2">
                    <g id="Groupe_29-2">
                      <g id="Groupe_10803-2">
                        <path id="Tracé_97-2" d="M24.351,12.163A12.175,12.175,0,1,1,12.163,0,12.16,12.16,0,0,1,24.351,12.163Z" fill="none" stroke="#8595ba" stroke-width="4"/>
                        <path id="Tracé_98-2" d="M41.458,37.579A3.579,3.579,0,1,1,37.879,34h0A3.578,3.578,0,0,1,41.458,37.579Z" transform="translate(-30.135 -19.967)" fill="#8595ba" stroke="#8595ba" stroke-width="4"/>
                      </g>
                    </g>
                  </g>
                </g>
              </g>
              <path id="Tracé_22520" data-name="Tracé 22520" d="M336.19,310.746a8.09,8.09,0,0,1,6.3-4.638c4.833-.763,13.029,1.6,13.029,1.6" transform="translate(-254.293 -213.596)" fill="none" stroke="#8595ba" stroke-linecap="round" stroke-linejoin="bevel" stroke-width="3"/>
            </g>
          </g>
          <g id="Groupe_10807" transform="translate(48.801 41.309)">
            <path id="Tracé_22533" d="M685.4,176.946s9.185,1.426,15.166-1.6,8.709-10.486,8.709-10.486" transform="translate(-685.4 -164.859)" fill="none" stroke="#8595ba" stroke-linecap="round" stroke-linejoin="bevel" stroke-width="5"/>
            <path id="Tracé_22534" d="M480.975,176.946s-9.185,1.426-15.166-1.6-8.709-10.486-8.709-10.486" transform="translate(-399.331 -164.859)" fill="none" stroke="#8595ba" stroke-linecap="round" stroke-linejoin="bevel" stroke-width="5"/>
          </g>
        </g>
        <g id="food-and-restaurant" transform="translate(0 139.309)">
          <g id="Group_12850" data-name="Group 12850" transform="translate(0 0)">
            <path id="Path_24561" data-name="Path 24561" d="M44.631,316.575a8.542,8.542,0,0,1,8.091-5.8h4.35a1.394,1.394,0,0,0,1.365-1.091,5.141,5.141,0,0,1,4.216-3.981c0-.115-.008-.229-.008-.344a16.96,16.96,0,1,1,33.56,3.476,2.07,2.07,0,0,0,1.344,2.394,8.559,8.559,0,0,1,5.335,5.326,2.085,2.085,0,0,1-1.973,2.759h-54.3A2.082,2.082,0,0,1,44.631,316.575Z" transform="translate(-44.521 -288.396)" fill="#e25fbb"/>
            <g id="Group_12844" data-name="Group 12844" transform="translate(19.879)">
              <path id="Path_24562" data-name="Path 24562" d="M309.094,316.552a8.558,8.558,0,0,0-5.335-5.326,2.07,2.07,0,0,1-1.344-2.394,16.963,16.963,0,0,0-16.6-20.436,17.144,17.144,0,0,0-2.005.118,16.962,16.962,0,0,1,14.613,20.318,2.07,2.07,0,0,0,1.344,2.394,8.559,8.559,0,0,1,5.335,5.326,2.085,2.085,0,0,1-1.973,2.759h3.988A2.085,2.085,0,0,0,309.094,316.552Z" transform="translate(-270.609 -288.396)" fill="#f18dd5"/>
              <path id="Path_24563" data-name="Path 24563" d="M220.112,308.832a2.117,2.117,0,0,0-.041.567l-31.765-11.561a16.962,16.962,0,0,1,31.805,10.995Z" transform="translate(-188.307 -288.397)" fill="#f18dd5"/>
            </g>
            <path id="Path_24568" data-name="Path 24568" d="M175.62,400.432c.107-.008.213-.014.321-.014a4.1,4.1,0,0,1,4.1,4.1,1.037,1.037,0,1,0,2.074,0,6.18,6.18,0,0,0-6.172-6.172c-.08,0-.159,0-.239.008a17.154,17.154,0,0,0-.089,1.751C175.613,400.213,175.618,400.322,175.62,400.432Z" transform="translate(-157.489 -383.142)" fill="#f18dd5"/>
          </g>
        </g>
      </g>
    </g>
  </g>
</svg>
