<svg xmlns="http://www.w3.org/2000/svg" width="212.07" height="132.374" viewBox="0 0 212.07 132.374">
  <g id="Group_12397" data-name="Group 12397" transform="translate(-81 -163.58)">
    <g id="Group_12390" data-name="Group 12390">
      <g id="Groupe_11172" data-name="Groupe 11172" transform="translate(81 191.002)">
        <g id="fusee">
          <g id="OBJECTS">
            <g id="Groupe_10733" data-name="Groupe 10733">
              <path id="Tracé_20852" data-name="Tracé 20852" d="M183.1,92.54c-11.06,6.55-20.16,7.93-26.56,7.93-16.37-.07-38.35-9.17-46.72-9.75a113.392,113.392,0,0,0-12.23.07c-8,.29-13.61,1-18.41,1.53-6,.65-14.85,1.46-25.91,2-.87.14-20,2.47-29.84-11.36C22.71,82,15.5,71.5,19,62.7c1.9-4.8,7.79-11.13,14.41-14.77,1.6-.87,2.62-1.24,3-2.4C37.92,40.8,24,35.71,22.56,27.19c-.73-4.29,1.38-10.91,15.07-21.1C47.09,1.65,60.48-2.57,73.8,1.94,85.15,5.8,86.17,12.42,96.57,14.46c13.18,2.48,16.74-7.13,39.3-10.84,9.47-1.6,19.5-3.06,29.48,2.25,2,1.1,13.68,7.28,15.28,18,1.89,12.88-15,18.63-13.1,29.26,2,11.79,23.8,13,25.11,24.08C193.36,82.93,188.27,88.39,183.1,92.54Z" transform="translate(0 -0.01)" fill="#dfe4f4"/>
              <circle id="Ellipse_392" data-name="Ellipse 392" cx="7.35" cy="7.35" r="7.35" transform="translate(197.37 3.81)" fill="#dfe4f4"/>
              <circle id="Ellipse_393" data-name="Ellipse 393" cx="3.64" cy="3.64" r="3.64" transform="translate(188.12 20.62)" fill="#dfe4f4"/>
              <circle id="Ellipse_394" data-name="Ellipse 394" cx="5.75" cy="5.75" r="5.75" transform="translate(0 73.68)" fill="#dfe4f4"/>
              <circle id="Ellipse_395" data-name="Ellipse 395" cx="5.75" cy="5.75" r="5.75" transform="translate(194.38 57.45)" fill="#dfe4f4"/>
              <circle id="Ellipse_396" data-name="Ellipse 396" cx="5.75" cy="5.75" r="5.75" transform="translate(11.42 2.79)" fill="#dfe4f4"/>
            </g>
          </g>
        </g>
      </g>
      <g id="Group_12229" data-name="Group 12229" transform="translate(12421 -17325.791)">
        <g id="online" transform="translate(-12171.917 17489.371)">
          <path id="Path_24348" data-name="Path 24348" d="M128.616,93.557H93.767a1.813,1.813,0,0,1-1.813-1.813V45.6a1.814,1.814,0,0,1,1.813-1.813h34.849a1.814,1.814,0,0,1,1.813,1.813V91.743A1.813,1.813,0,0,1,128.616,93.557Z" transform="translate(-88.323 -38.649)" fill="#d4d4d4"/>
          <path id="Path_24349" data-name="Path 24349" d="M97.663,49.774H62.814A1.813,1.813,0,0,1,61,47.961V1.814A1.814,1.814,0,0,1,62.814,0H97.663a1.814,1.814,0,0,1,1.813,1.813V47.96a1.813,1.813,0,0,1-1.813,1.814Z" transform="translate(-61 0)" fill="#f5f5f5"/>
          <path id="Path_24350" data-name="Path 24350" d="M358.143,0V49.774h1.815a1.814,1.814,0,0,0,1.815-1.812V1.812A1.814,1.814,0,0,0,359.958,0Z" transform="translate(-323.297)" fill="#e6e6e6"/>
          <path id="Path_24351" data-name="Path 24351" d="M120.085,123.144H113.8a.483.483,0,0,1-.483-.483v-6.282a.483.483,0,0,1,.483-.483h6.282a.483.483,0,0,1,.483.483v6.282A.483.483,0,0,1,120.085,123.144Z" transform="translate(-107.184 -102.304)" fill="#b8c4e0"/>
          <path id="Path_24352" data-name="Path 24352" d="M120.085,223.072H113.8a.483.483,0,0,1-.483-.483v-6.282a.483.483,0,0,1,.483-.483h6.282a.483.483,0,0,1,.483.483v6.282A.483.483,0,0,1,120.085,223.072Z" transform="translate(-107.184 -190.513)" fill="#b8c4e0"/>
          <path id="Path_24353" data-name="Path 24353" d="M120.085,323H113.8a.483.483,0,0,1-.483-.483v-6.282a.483.483,0,0,1,.483-.483h6.282a.483.483,0,0,1,.483.483v6.282A.483.483,0,0,1,120.085,323Z" transform="translate(-107.184 -278.722)" fill="#b8c4e0"/>
          <g id="Group_12208" data-name="Group 12208" transform="translate(16.975 14.161)">
            <path id="Path_24354" data-name="Path 24354" d="M206.628,122.517h14.5a.88.88,0,0,0,0-1.759h-14.5a.88.88,0,1,0,0,1.759Z" transform="translate(-205.748 -120.758)" fill="#9f9f9f"/>
            <path id="Path_24355" data-name="Path 24355" d="M221.125,153.724h-14.5a.88.88,0,1,0,0,1.759h14.5a.88.88,0,1,0,0-1.759Z" transform="translate(-205.748 -149.858)" fill="#9f9f9f"/>
            <path id="Path_24356" data-name="Path 24356" d="M221.125,220.686h-14.5a.88.88,0,1,0,0,1.759h14.5a.88.88,0,1,0,0-1.759Z" transform="translate(-205.748 -208.967)" fill="#9f9f9f"/>
            <path id="Path_24357" data-name="Path 24357" d="M221.125,253.651h-14.5a.88.88,0,1,0,0,1.759h14.5a.88.88,0,1,0,0-1.759Z" transform="translate(-205.748 -238.067)" fill="#9f9f9f"/>
            <path id="Path_24358" data-name="Path 24358" d="M221.125,320.612h-14.5a.88.88,0,1,0,0,1.759h14.5a.88.88,0,1,0,0-1.759Z" transform="translate(-205.748 -297.175)" fill="#9f9f9f"/>
            <path id="Path_24359" data-name="Path 24359" d="M221.125,353.578h-14.5a.88.88,0,1,0,0,1.759h14.5a.88.88,0,1,0,0-1.759Z" transform="translate(-205.748 -326.275)" fill="#9f9f9f"/>
          </g>
          <path id="Path_24360" data-name="Path 24360" d="M156.315,40.8H139.643a2.114,2.114,0,0,1,0-4.228h16.672a2.114,2.114,0,1,1,0,4.228Z" transform="translate(-128.554 -32.283)" fill="#8595ba"/>
          <path id="Path_24361" data-name="Path 24361" d="M139.525,107.159a.88.88,0,0,0-1.24-.1l-4.31,3.679-.876-.949a.88.88,0,0,0-1.293,1.193l1.45,1.571a.88.88,0,0,0,1.217.072l4.953-4.228A.879.879,0,0,0,139.525,107.159Z" transform="translate(-123.297 -94.32)" fill="#8595ba"/>
        </g>
        <g id="Groupe_10767" data-name="Groupe 10767" transform="translate(-12314.045 17502.232)">
          <g id="Groupe_10740" data-name="Groupe 10740" transform="translate(0 0)">
            <g id="Groupe_10740-2" data-name="Groupe 10740-2">
              <g id="Groupe_10738" data-name="Groupe 10738">
                <g id="Groupe_34" data-name="Groupe 34">
                  <path id="Tracé_101" data-name="Tracé 101" d="M21.531,39.063C26.971,40.9,34.8,32.28,35.08,27.442s-1.546-7.976-4.034-12.448c-2.34-4.208-5.517-5.679-9.414-7.585C21.468,6.692,11.406,9.74,11.406,9.74a4.007,4.007,0,0,1-2.519-7,12.53,12.53,0,0,1-2.209-.17,52.217,52.217,0,0,0-6.139.9C-1.81,1.083,4.191.327,5.48.231A63.879,63.879,0,0,1,13.3.056c.451.069,11.872,2.837,18.671,11.365,2.525,3.167,5.031,7.392,5.434,11.315a19.39,19.39,0,0,1-2.7,11.976c-4.487,6.573-13.715,8.431-16.662,7.448A27.715,27.715,0,0,0,21.531,39.063Z" transform="translate(156.065 16.847) rotate(90)" fill="#8595ba"/>
                  <path id="Tracé_86" data-name="Tracé 86" d="M16.693,198.743S-.264,206.051-.011,217.51s7.145,14.6,10.621,14.917c3.853.353,3.6-.665,3.209-2.369l-.052-.187s1.293,1.712,2.319,1.062-.416-2.494-2.984-5.253c-.975-1.039-2.529,1.889-4.865,1.588-3.022-.384-6.814-4.418-5.478-11.783,2.159-11.883,19.2-11.515,18.69-14.468S16.693,198.743,16.693,198.743Z" transform="translate(0.014 -157.38)" fill="#8595ba"/>
                  <g id="Groupe_25" data-name="Groupe 25" transform="translate(49.375 71.267)">
                    <path id="Tracé_87" data-name="Tracé 87" d="M246.419,347.7s2.691,41.795,1.347,43.036-8.728.131-10.081,2.431,11.29,2.174,12.905.754,0-46.221,0-46.221Z" transform="translate(-237.584 -346.703)" fill="#8595ba"/>
                    <path id="Tracé_88" data-name="Tracé 88" d="M445.592,342.9s-2.689,41.8-1.345,43.033,8.728.129,10.081,2.431-11.29,2.174-12.907.756,0-46.225,0-46.225Z" transform="translate(-398.492 -342.9)" fill="#8595ba"/>
                  </g>
                  <g id="Groupe_27" data-name="Groupe 27" transform="translate(13.352)">
                    <path id="Tracé_89" data-name="Tracé 89" d="M162.321,86.858c1.293.542,5.652,2.078,9.183-.17C175.7,84,175.7,80.817,175.7,80.817a12.219,12.219,0,0,0,12.242-2.851c5.869-5.366,3.186-16.066,3.186-16.066s5.5-2.859,4.865-8.753c-1.039-9.52-10.733-10.064-10.733-10.064s3.017-7.209-2.348-12.24a15.77,15.77,0,0,0-12.41-3.857,5.539,5.539,0,0,0-2.012-6.205c-3.354-2.348-6.027-.946-6.027-.946s.578-7.627-6.363-10.224a14.25,14.25,0,0,0-12.261,1.442S139.641,6.525,133.6,7.364a18.77,18.77,0,0,0-9.393,3.857,10.681,10.681,0,0,0-10.4-2.352,9.633,9.633,0,0,0-7.034,7.72s-10.767-3-16.635,4.376-3.019,13.547-3.019,13.547-9.694-1.322-12.712,7.9a16.3,16.3,0,0,0,2.515,15.428S69.047,65.72,72.4,74.273s11.392,6.746,11.392,6.746a8.877,8.877,0,0,0,8.564,7.843c7.882.5,11.236-2.346,11.236-2.346s6.874,5.7,13.583,5.029,9.225-3.352,9.225-3.352,6.371,3.628,12.577,3.408,11.234-4.41,11.234-4.41a6.628,6.628,0,0,0,6.205,3.017C160.6,89.776,162.078,86.754,162.321,86.858Z" transform="translate(-70.047 -5.743)" fill="#f3f6fe"/>
                    <g id="Groupe_26" data-name="Groupe 26">
                      <path id="Tracé_90" data-name="Tracé 90" d="M191.681,47.2c-.79-7.284-6.313-10.287-10.276-11.145a12.252,12.252,0,0,0-3.273-12.1,16.953,16.953,0,0,0-11.583-4.385h-.083a6.766,6.766,0,0,0-2.924-5.819,8.424,8.424,0,0,0-4.618-1.735,9.908,9.908,0,0,0-1.012-2.762,12.089,12.089,0,0,0-7.088-6.843,14.383,14.383,0,0,0-5.056-.912,15.854,15.854,0,0,0-4.96.831h-.042a3.022,3.022,0,0,0-.368.127l-.208.077h-.019a17.07,17.07,0,0,0-1.935.858A14.209,14.209,0,0,0,129.3-.04a12.267,12.267,0,0,0-1.7.119A21.513,21.513,0,0,0,118.454,3.5a12.2,12.2,0,0,0-7.238-2.39,13.075,13.075,0,0,0-3.628.528A11.089,11.089,0,0,0,99.83,9.058c-3.306-.484-11.261-.852-16.315,5.5-3.373,4.241-4.2,7.851-4.212,10.345v.033a9.219,9.219,0,0,0,.1,1.569c-3.29.378-9.767,2.1-12.24,9.661A17.916,17.916,0,0,0,69.1,51.884c-.172.183-.278.312-.3.337a1.565,1.565,0,0,0-.276.559c-2.286,2.988-6.06,9.351-3.346,16.274C67.62,75.266,72.443,76.2,75.1,76.2a12.566,12.566,0,0,0,1.81-.133c.773,3.46,3.369,8.142,9.536,8.535.648.042,1.3.062,1.924.062a18.854,18.854,0,0,0,9.333-2.078c2.016,1.465,7.14,4.751,12.541,4.751.426,0,.852-.021,1.268-.058a20.53,20.53,0,0,0,8.312-2.456,5.248,5.248,0,0,0,1.014-.561,28.573,28.573,0,0,0,11.764,3.088c.208,0,.405,0,.607-.01A21.656,21.656,0,0,0,144.1,83.5a5.109,5.109,0,0,0,.54.5,1.2,1.2,0,0,0,.125.069,7.778,7.778,0,0,0,5.12,1.908h0a8.079,8.079,0,0,0,.869-.046,9.426,9.426,0,0,0,6.145-3.092,14.131,14.131,0,0,0,4.451.771,9.4,9.4,0,0,0,5.156-1.43,10.551,10.551,0,0,0,4.5-5.285A13.837,13.837,0,0,0,183.14,73.3c5.366-4.9,4.406-13.441,3.859-16.463A10.383,10.383,0,0,0,191.681,47.2Zm-6.754,7.392c-.8-.245-1.791-.522-2.99-.831a5.941,5.941,0,0,0-6,1.569,5.087,5.087,0,0,0-.968,5.233,4.3,4.3,0,0,0,4.364,2.841,7.149,7.149,0,0,0,2.265-.362,1.369,1.369,0,1,0-.856-2.6h-.029c-.106.037-2.556.856-3.171-.831a2.406,2.406,0,0,1,.434-2.471,3.246,3.246,0,0,1,3.3-.744c1.081.27,1.976.522,2.7.742.432,2.307,1.455,9.942-2.88,13.907a10.908,10.908,0,0,1-7.527,3.047,10.1,10.1,0,0,1-2.988-.416l-2.726-5.233a1.509,1.509,0,1,0-2.677,1.392h0l3.053,5.881a7.426,7.426,0,0,1-3.354,3.917,6.442,6.442,0,0,1-3.533.954,11.556,11.556,0,0,1-4.252-.9l-.3-.123H156.5a1.948,1.948,0,0,0-1.507.875,6.568,6.568,0,0,1-4.545,2.494c-.187.019-.378.029-.561.029h0a5.071,5.071,0,0,1-3.948-1.974,4.883,4.883,0,0,1-.721-2.851,2.478,2.478,0,0,1,1.13-2.057c1.933-1.114,2.868-.166,3.117.156a1.509,1.509,0,0,0,2.477-1.725c-.873-1.274-3.477-3.13-7.093-1.049a5.38,5.38,0,0,0-2.635,4.46,7.771,7.771,0,0,0,.387,2.951,18.794,18.794,0,0,1-9.489,3.45c-4.042.143-8.227-1.509-10.353-2.494h0a9.769,9.769,0,0,0-.6-7.627c-1.924-4.277-6.559-4.138-8.728-3.464a1.509,1.509,0,1,0,.887,2.884c.154-.046,3.774-1.124,5.1,1.818a6.969,6.969,0,0,1,.559,5.247,2.936,2.936,0,0,1-.239.47l-.229.231c-.021.023-2.338,2.3-8.285,2.9a9.41,9.41,0,0,1-.968.046c-4.537,0-9.1-2.968-10.806-4.2l.38-4.572a1.511,1.511,0,0,0-3.007-.27l-.374,4.539c-.9.544-3.468,1.81-8.069,1.81-.563,0-1.147-.021-1.733-.056-6.251-.4-6.912-6.773-6.962-7.379a4.117,4.117,0,0,1,2.228-3.3,3.255,3.255,0,0,1,2-.547.513.513,0,0,1-.108-.037l1.182-2.778c-.293-.123-1.881-.675-4.478.692A7.036,7.036,0,0,0,76.819,73a9.559,9.559,0,0,1-1.721.16c-3.358,0-5.75-1.758-7.107-5.222-2.818-7.184,3.514-14.106,4.138-14.755a7.672,7.672,0,0,1,4.927-1.712,4.639,4.639,0,0,1,4.364,2.886,1.514,1.514,0,1,0,2.864-.985,7.631,7.631,0,0,0-7.167-4.933,10.368,10.368,0,0,0-5.655,1.536,15.044,15.044,0,0,1-1.436-12.884c2.105-6.432,7.943-7.494,10.291-7.656A7.22,7.22,0,0,0,85.98,33.5a8.136,8.136,0,0,0,1.168.087,8.354,8.354,0,0,0,7.273-4.83A1.51,1.51,0,1,0,91.678,27.5c-.069.145-1.71,3.533-5.262,3.017a4.273,4.273,0,0,1-3.1-1.928L82.7,27.248a2.065,2.065,0,0,1-.089-.224,7.379,7.379,0,0,1-.3-2.007v-.141c.017-1.889.68-4.809,3.57-8.439,4.482-5.636,12.065-4.682,14.156-4.289l2.128,4.78a1.511,1.511,0,0,0,1.378.914,1.476,1.476,0,0,0,.611-.131,1.509,1.509,0,0,0,.767-2l-2.286-5.162c-.017-.033-.039-.062-.056-.1a8.127,8.127,0,0,1,5.85-5.908,10.06,10.06,0,0,1,2.789-.416,9.183,9.183,0,0,1,6.1,2.35l.337.351a4.14,4.14,0,0,1,.578,4.088,3.379,3.379,0,0,1-3.177,2.132,1.509,1.509,0,1,0-.283,3c.114,0,.227.015.341.015a6.413,6.413,0,0,0,5.833-3.83,6.869,6.869,0,0,0-.416-6.486,18.62,18.62,0,0,1,7.481-2.681,9.186,9.186,0,0,1,1.286-.089,11.123,11.123,0,0,1,6.662,2.465,7.111,7.111,0,0,0-1.594,3.142,6.154,6.154,0,0,0,4.252,7.435,1.565,1.565,0,0,0,.368.046,1.509,1.509,0,0,0,.366-2.974,3.122,3.122,0,0,1-2.037-3.865c.557-2.577,3.624-3.77,4.214-3.977a12.961,12.961,0,0,1,4.235-.738,11.342,11.342,0,0,1,4,.723,9.187,9.187,0,0,1,5.347,5.15c.015.037.029.077.046.114a10.882,10.882,0,0,1,.819,3.369l-.025,2.544c-.5,2.153-1.617,2.161-2.126,2.161a3.265,3.265,0,0,1-1.714-.563,1.511,1.511,0,1,0-1.854,2.384,6.214,6.214,0,0,0,3.568,1.2c1.376,0,4.642-.551,5.272-5.665.035-.3.058-.582.071-.862a5.953,5.953,0,0,1,2.65,1.164,3.967,3.967,0,0,1,1.455,4.476l-.831,2.384,2.494-.4a10.515,10.515,0,0,1,1.615-.1,13.95,13.95,0,0,1,9.52,3.566c3.975,3.728,2.573,8.878,2.109,10.228-.16.339-2.263,4.632-5.208,4.769a2.047,2.047,0,0,1-1.548-.349,1.406,1.406,0,0,1-.162-1,1.509,1.509,0,1,0-2.934-.707h0a4.405,4.405,0,0,0,.763,3.622,4.455,4.455,0,0,0,3.63,1.455c.129,0,.258,0,.391-.01,3.564-.164,6-3.381,7.126-5.256,2.184.364,7.722,1.943,8.445,8.61.445,4.086-2.718,6.421-3.741,7.066Z" transform="translate(-64.238 0.04)" fill="#b8c4e0"/>
                      <path id="Tracé_91" data-name="Tracé 91" d="M311.642,94.567a8.7,8.7,0,0,0-2.047-7.762c-4.869-5.86-12.248-4.572-16.833-2.494a10.59,10.59,0,0,0-7.161-8.036c-5.534-1.885-9.8,1.839-11.777,4.117a13.79,13.79,0,0,0-10.156-3.668,9.234,9.234,0,0,0-8.179,6.484,7.964,7.964,0,0,0,2.577,9.108A9.24,9.24,0,0,0,270.327,92a1.509,1.509,0,1,0-2.064-2.2,6.212,6.212,0,0,1-8.312.16,5.044,5.044,0,0,1-1.6-5.783,6.284,6.284,0,0,1,5.382-4.431c6.266-.129,8.774,3.678,8.871,3.832a1.513,1.513,0,0,0,2.556.021c.039-.062,4.108-6.29,9.47-4.462a7.685,7.685,0,0,1,5.33,7.481,1.511,1.511,0,0,0,2.3,1.369c.387-.241,9.559-5.819,15,.746a5.773,5.773,0,0,1,1.428,5.15,6.207,6.207,0,0,1-3.024,4.013c-1.974.887-4.443-.416-4.462-.432a1.511,1.511,0,0,0-1.455,2.648,10.116,10.116,0,0,0,3.705,1.079,6.943,6.943,0,0,0,3.445-.538A9.19,9.19,0,0,0,311.642,94.567Z" transform="translate(-215.356 -60.008)" fill="#b8c4e0"/>
                      <path id="Tracé_92" data-name="Tracé 92" d="M182.422,192.069a6.916,6.916,0,0,0-.36-3.876h.017a7.884,7.884,0,0,0,2.587-.432,6.9,6.9,0,0,0,4.391-4.946,9.551,9.551,0,0,0-1.635-8.389c-2.778-3.288-7.107-2.463-9.007-1.565a1.51,1.51,0,1,0,1.288,2.731c.035-.017,3.421-1.577,5.416.783a6.548,6.548,0,0,1,1.039,5.638,3.977,3.977,0,0,1-2.467,2.893,5.817,5.817,0,0,1-4.6-.553,12.286,12.286,0,0,0-1.752-1.176l-.152-.135a1.509,1.509,0,1,0-2.136,2.132l.027.025c.031.029.208.193.478.416h0a12.312,12.312,0,0,0,1.87,1.263,4.96,4.96,0,0,1,2.037,4.624c-.623,3.306-3.063,3.477-3.354,3.485a1.509,1.509,0,1,0,.017,3.017C177.912,198.025,181.549,196.778,182.422,192.069Z" transform="translate(-151.674 -136.297)" fill="#b8c4e0"/>
                      <path id="Tracé_93" data-name="Tracé 93" d="M210.837,297.986a9.008,9.008,0,0,0-7.963,5.524,1.509,1.509,0,1,0,2.805,1.112.1.1,0,0,0,.01-.027,6.012,6.012,0,0,1,5.245-3.6c3.315-.1,3.666,3.612,3.7,4.025a1.511,1.511,0,0,0,1.5,1.419h.1a1.507,1.507,0,0,0,1.413-1.6C217.491,302.406,215.883,297.832,210.837,297.986Z" transform="translate(-173.98 -236.05)" fill="#b8c4e0"/>
                      <path id="Tracé_94" data-name="Tracé 94" d="M507.559,233.764c-2.423-2.041-6.085-1.436-6.234-1.407a1.374,1.374,0,0,0,.468,2.7c.025,0,2.571-.4,4,.8a3.4,3.4,0,0,1,1.039,2.77,4.17,4.17,0,0,1-1.118,3.186,4.728,4.728,0,0,1-3.171,1,1.38,1.38,0,0,0-1.455,1.7,4.837,4.837,0,0,1-.349,3.367,2.088,2.088,0,0,1-1.642.769,2.9,2.9,0,0,1-2.367-.623,3.549,3.549,0,0,1-.783-2.479,1.376,1.376,0,0,0-2.743-.218h0a6.257,6.257,0,0,0,1.569,4.63,5.232,5.232,0,0,0,3.869,1.455c.208,0,.441-.01.673-.029a4.746,4.746,0,0,0,3.653-1.9,6.385,6.385,0,0,0,1.01-4.017,6.311,6.311,0,0,0,5.607-6.847A6.116,6.116,0,0,0,507.559,233.764Z" transform="translate(-404.05 -183.978)" fill="#b8c4e0"/>
                    </g>
                  </g>
                </g>
              </g>
              <g id="Groupe_10736" data-name="Groupe 10736" transform="translate(51.993 40.116)">
                <g id="Groupe_10734" data-name="Groupe 10734" transform="translate(30.475)">
                  <g id="Groupe_29" data-name="Groupe 29">
                    <path id="Tracé_97" data-name="Tracé 97" d="M413.733,201.443a8.448,8.448,0,1,0,0,.008Z" transform="translate(-396.83 -193)" fill="none" stroke="#8595ba" stroke-width="3"/>
                    <path id="Tracé_98" data-name="Tracé 98" d="M444.09,233.755a3.325,3.325,0,1,1-3.325-3.325h0A3.325,3.325,0,0,1,444.09,233.755Z" transform="translate(-429.001 -227.12)" fill="#8595ba" stroke="#8595ba" stroke-width="3"/>
                  </g>
                </g>
                <g id="Groupe_10742" data-name="Groupe 10742">
                  <g id="Groupe_29-2" data-name="Groupe 29-2">
                    <path id="Tracé_97-2" data-name="Tracé 97-2" d="M267.083,201.443a8.417,8.417,0,1,0,0,.008Z" transform="translate(-250.18 -193)" fill="none" stroke="#8595ba" stroke-width="3"/>
                    <path id="Tracé_98-2" data-name="Tracé 98-2" d="M297.44,233.755a3.325,3.325,0,1,1-3.325-3.325h0A3.325,3.325,0,0,1,297.44,233.755Z" transform="translate(-282.351 -227.12)" fill="#8595ba" stroke="#8595ba" stroke-width="3"/>
                  </g>
                </g>
              </g>
            </g>
            <path id="Tracé_22520" data-name="Tracé 22520" d="M336.19,309.063a5.246,5.246,0,0,1,4.088-3.007c3.134-.495,8.448,1.039,8.448,1.039" transform="translate(-266.323 -242.368)" fill="none" stroke="#8595ba" stroke-linecap="round" stroke-linejoin="bevel" stroke-width="7"/>
            <g id="Groupe_10808" data-name="Groupe 10808" transform="translate(48.128 30.035)">
              <path id="Tracé_22521" data-name="Tracé 22521" d="M231.58,157.5a5.559,5.559,0,0,1,3.869-3.778c3.246-.985,9.073-.166,9.073-.166" transform="translate(-231.58 -151.417)" fill="none" stroke="#8595ba" stroke-linecap="round" stroke-linejoin="bevel" stroke-width="4"/>
              <path id="Tracé_22522" data-name="Tracé 22522" d="M403.79,151.514a5.761,5.761,0,0,1,3.308-4.665c3.281-1.756,9.827-2.359,9.827-2.359" transform="translate(-368.003 -144.49)" fill="none" stroke="#8595ba" stroke-linecap="round" stroke-linejoin="bevel" stroke-width="4"/>
            </g>
          </g>
        </g>
      </g>
    </g>
  </g>
</svg>
