<svg xmlns="http://www.w3.org/2000/svg" width="212.07" height="125.863" viewBox="0 0 212.07 125.863">
  <g id="Group_12395" data-name="Group 12395" transform="translate(-81 -165.599)">
    <g id="Group_12224" data-name="Group 12224" transform="translate(0 -215)">
      <g id="Groupe_11172" data-name="Groupe 11172" transform="translate(81 406.002)">
        <g id="fusee">
          <g id="OBJECTS">
            <g id="Groupe_10733" data-name="Groupe 10733">
              <path id="Tracé_20852" data-name="Tracé 20852" d="M183.1,92.54c-11.06,6.55-20.16,7.93-26.56,7.93-16.37-.07-38.35-9.17-46.72-9.75a113.392,113.392,0,0,0-12.23.07c-8,.29-13.61,1-18.41,1.53-6,.65-14.85,1.46-25.91,2-.87.14-20,2.47-29.84-11.36C22.71,82,15.5,71.5,19,62.7c1.9-4.8,7.79-11.13,14.41-14.77,1.6-.87,2.62-1.24,3-2.4C37.92,40.8,24,35.71,22.56,27.19c-.73-4.29,1.38-10.91,15.07-21.1C47.09,1.65,60.48-2.57,73.8,1.94,85.15,5.8,86.17,12.42,96.57,14.46c13.18,2.48,16.74-7.13,39.3-10.84,9.47-1.6,19.5-3.06,29.48,2.25,2,1.1,13.68,7.28,15.28,18,1.89,12.88-15,18.63-13.1,29.26,2,11.79,23.8,13,25.11,24.08C193.36,82.93,188.27,88.39,183.1,92.54Z" transform="translate(0 -0.01)" fill="#dfe4f4"/>
              <circle id="Ellipse_392" data-name="Ellipse 392" cx="7.35" cy="7.35" r="7.35" transform="translate(197.37 3.81)" fill="#dfe4f4"/>
              <circle id="Ellipse_393" data-name="Ellipse 393" cx="3.64" cy="3.64" r="3.64" transform="translate(188.12 20.62)" fill="#dfe4f4"/>
              <circle id="Ellipse_394" data-name="Ellipse 394" cx="5.75" cy="5.75" r="5.75" transform="translate(0 73.68)" fill="#dfe4f4"/>
              <circle id="Ellipse_395" data-name="Ellipse 395" cx="5.75" cy="5.75" r="5.75" transform="translate(194.38 57.45)" fill="#dfe4f4"/>
              <circle id="Ellipse_396" data-name="Ellipse 396" cx="5.75" cy="5.75" r="5.75" transform="translate(11.42 2.79)" fill="#dfe4f4"/>
            </g>
          </g>
        </g>
      </g>
      <g id="Groupe_10791" data-name="Groupe 10791" transform="translate(118.235 343.238)">
        <g id="Groupe_10784" data-name="Groupe 10784" transform="translate(0 0)">
          <g id="Groupe_10765" data-name="Groupe 10765">
            <g id="Groupe_10764" data-name="Groupe 10764">
              <g id="Groupe_10738" data-name="Groupe 10738" transform="translate(0 37.36)">
                <g id="Groupe_34" data-name="Groupe 34">
                  <g id="Groupe_25" data-name="Groupe 25" transform="translate(38.596 73.2)">
                    <path id="Tracé_87" data-name="Tracé 87" d="M200.154,544.8s2.922,45.385,1.461,46.719-9.487.143-10.946,2.643,12.26,2.358,14.013.82,0-50.19,0-50.19Z" transform="translate(-190.561 -543.72)" fill="#8595ba"/>
                    <path id="Tracé_88" data-name="Tracé 88" d="M419.538,539.57s-2.922,45.385-1.465,46.731,9.485.141,10.946,2.641-12.259,2.359-14.013.82,0-50.192,0-50.192Z" transform="translate(-368.395 -539.57)" fill="#8595ba"/>
                  </g>
                  <g id="Groupe_27" data-name="Groupe 27">
                    <path id="Tracé_89" data-name="Tracé 89" d="M108.8,276.866c1.4.59,6.147,2.268,9.971-.184,4.553-2.916,4.553-6.373,4.553-6.373a13.261,13.261,0,0,0,13.292-3.1c6.373-5.83,3.459-17.435,3.459-17.435s5.975-3.1,5.282-9.5c-1.121-10.34-11.655-10.928-11.655-10.928s3.279-7.827-2.549-13.292-13.475-4.188-13.475-4.188a6.017,6.017,0,0,0-2.186-6.739c-3.643-2.553-6.545-1.025-6.545-1.025s.625-8.282-6.909-11.1c-7.172-2.684-13.319,1.568-13.319,1.568s-4.549-4.926-11.106-4.008a20.428,20.428,0,0,0-10.2,4.188A11.557,11.557,0,0,0,56.129,192.2a10.492,10.492,0,0,0-7.647,8.377s-11.692-3.254-18.064,4.737-3.278,14.71-3.278,14.71-10.526-1.434-13.8,8.579a17.7,17.7,0,0,0,2.731,16.753S7.509,253.91,11.15,263.2s12.366,7.334,12.366,7.334a9.64,9.64,0,0,0,9.3,8.516c8.559.545,12.214-2.547,12.214-2.547s7.465,6.188,14.753,5.461S69.8,278.323,69.8,278.323s6.92,3.938,13.657,3.688,12.186-4.778,12.186-4.778a7.2,7.2,0,0,0,6.737,3.278C106.921,280.042,108.536,276.755,108.8,276.866Z" transform="translate(-8.599 -188.781)" fill="#f3f6fe"/>
                    <g id="Groupe_26" data-name="Groupe 26">
                      <path id="Tracé_90" data-name="Tracé 90" d="M140.585,233.634c-.859-7.909-6.854-11.171-11.159-12.1.7-2.971,1.2-8.682-3.553-13.134a18.409,18.409,0,0,0-12.577-4.762h-.09a7.334,7.334,0,0,0-3.174-6.311,9.137,9.137,0,0,0-5.016-1.885,10.774,10.774,0,0,0-1.109-3,13.153,13.153,0,0,0-7.7-7.432,15.645,15.645,0,0,0-5.489-.992,17.262,17.262,0,0,0-5.387.893H85.29c-.033.01-.18.057-.4.139l-.223.082h-.02a18.7,18.7,0,0,0-2.1.934,15.428,15.428,0,0,0-9.7-3.731,13.267,13.267,0,0,0-1.841.129,23.278,23.278,0,0,0-9.922,3.719,13.241,13.241,0,0,0-7.858-2.6,14.176,14.176,0,0,0-3.94.574,12.027,12.027,0,0,0-8.422,8.053c-3.59-.527-12.227-.924-17.714,5.975-3.67,4.621-4.567,8.532-4.58,11.239v.037a9.856,9.856,0,0,0,.113,1.7c-3.572.41-10.6,2.279-13.29,10.491a19.392,19.392,0,0,0,2.1,17.062c-.186.2-.3.34-.324.367a1.68,1.68,0,0,0-.3.615C4.37,242.925.278,249.832,3.227,257.35c2.647,6.75,7.885,7.758,10.772,7.758a13.7,13.7,0,0,0,1.965-.146c.84,3.758,3.658,8.84,10.356,9.268.7.047,1.408.07,2.09.07a20.6,20.6,0,0,0,10.135-2.254c2.188,1.59,7.752,5.159,13.616,5.159.463,0,.926-.025,1.377-.066a22.261,22.261,0,0,0,9.032-2.664,5.671,5.671,0,0,0,1.1-.615c2.207,1.088,7.426,3.352,12.774,3.352H77.1a23.558,23.558,0,0,0,11.821-4.164,5.439,5.439,0,0,0,.586.543,1.44,1.44,0,0,0,.135.074,8.438,8.438,0,0,0,5.561,2.07h0a9.07,9.07,0,0,0,.943-.047,10.245,10.245,0,0,0,6.674-3.358,15.277,15.277,0,0,0,4.834.836,10.206,10.206,0,0,0,5.6-1.565,11.463,11.463,0,0,0,4.891-5.737,15,15,0,0,0,13.177-3.9c5.825-5.328,4.782-14.6,4.188-17.878A11.246,11.246,0,0,0,140.585,233.634Zm-7.325,8.026c-.873-.266-1.945-.568-3.248-.893a6.456,6.456,0,0,0-6.51,1.7,5.533,5.533,0,0,0-1.049,5.682,4.666,4.666,0,0,0,4.733,3.086,7.8,7.8,0,0,0,2.459-.41,1.482,1.482,0,0,0-.932-2.813l-.029.01c-.115.039-2.772.928-3.442-.9a2.611,2.611,0,0,1,.471-2.682,3.52,3.52,0,0,1,3.586-.809c1.176.3,2.147.568,2.945.807.469,2.5,1.584,10.794-3.129,15.1a11.846,11.846,0,0,1-8.172,3.305,10.959,10.959,0,0,1-3.272-.469L114.72,256.7a1.639,1.639,0,0,0-2.908,1.512l3.315,6.383a8.063,8.063,0,0,1-3.641,4.256,6.991,6.991,0,0,1-3.83,1.025,12.586,12.586,0,0,1-4.617-.979l-.322-.133h-.334a2.121,2.121,0,0,0-1.639.951,7.1,7.1,0,0,1-4.936,2.7q-.307.031-.615.031h0a5.485,5.485,0,0,1-4.283-2.143,5.291,5.291,0,0,1-.783-3.094,2.681,2.681,0,0,1,1.229-2.236c2.1-1.209,3.113-.182,3.377.17a1.642,1.642,0,1,0,2.7-1.863c-.947-1.383-3.772-3.4-7.7-1.139a5.871,5.871,0,0,0-2.869,4.842,8.475,8.475,0,0,0,.422,3.207,20.435,20.435,0,0,1-10.3,3.746c-4.387.156-8.934-1.639-11.241-2.713h0c.943-2.307.711-5.25-.658-8.28-2.09-4.643-7.12-4.492-9.485-3.76a1.639,1.639,0,1,0,.879,3.158l.086-.027c.166-.051,4.1-1.229,5.532,1.975a7.594,7.594,0,0,1,.615,5.7,3.211,3.211,0,0,1-.26.508l-.26.242c-.023.025-2.537,2.5-9,3.147-.348.035-.7.051-1.049.051-4.928,0-9.876-3.223-11.725-4.563l.41-4.969a1.645,1.645,0,1,0-3.278-.268l-.41,4.93c-.975.59-3.766,1.965-8.764,1.965-.615,0-1.244-.023-1.881-.061-6.766-.434-7.483-7.354-7.543-8.014a4.483,4.483,0,0,1,2.42-3.588,3.54,3.54,0,0,1,2.174-.592.464.464,0,0,1-.117-.041l1.283-3.018c-.318-.133-2.049-.732-4.862.752a7.643,7.643,0,0,0-4,5.194,10.4,10.4,0,0,1-1.867.172c-3.647,0-6.243-1.908-7.721-5.672-3.051-7.8,3.824-15.317,4.494-16.028a8.346,8.346,0,0,1,5.35-1.861,5.056,5.056,0,0,1,4.746,3.135,1.639,1.639,0,0,0,1.549,1.106,1.69,1.69,0,0,0,.523-.084,1.639,1.639,0,0,0,1.025-2.076,8.306,8.306,0,0,0-7.786-5.358,11.3,11.3,0,0,0-6.135,1.66,16.319,16.319,0,0,1-1.559-13.985c2.3-6.983,8.641-8.137,11.192-8.313a7.844,7.844,0,0,0,6.147,4.412,8.769,8.769,0,0,0,1.268.094,9.082,9.082,0,0,0,7.9-5.244A1.64,1.64,0,1,0,32,212.246h0c-.074.158-1.858,3.834-5.713,3.278a4.631,4.631,0,0,1-3.362-2.094l-.672-1.457a2.576,2.576,0,0,1-.1-.244,8.022,8.022,0,0,1-.328-2.178c0-.053,0-.1,0-.154.018-2.049.74-5.221,3.877-9.163,4.869-6.118,13.1-5.082,15.368-4.658l2.311,5.194a1.639,1.639,0,0,0,1.5.973,1.618,1.618,0,0,0,.664-.143,1.639,1.639,0,0,0,.832-2.162l-2.494-5.608c-.016-.037-.041-.068-.059-.1a8.848,8.848,0,0,1,6.352-6.414,10.821,10.821,0,0,1,3.029-.445,9.966,9.966,0,0,1,6.629,2.563l.367.381a4.506,4.506,0,0,1,.629,4.438,3.674,3.674,0,0,1-3.453,2.315,1.639,1.639,0,0,0-.305,3.252c.123.01.246.016.369.014a6.967,6.967,0,0,0,6.334-4.16,7.415,7.415,0,0,0-.457-7.041,20.238,20.238,0,0,1,8.122-2.912,10.289,10.289,0,0,1,1.4-.1,12.066,12.066,0,0,1,7.233,2.676,7.723,7.723,0,0,0-1.729,3.412,6.686,6.686,0,0,0,4.617,8.073,1.64,1.64,0,1,0,.8-3.182,3.4,3.4,0,0,1-2.211-4.2c.615-2.8,3.936-4.1,4.578-4.317a14.056,14.056,0,0,1,4.6-.8,12.333,12.333,0,0,1,4.344.785,9.971,9.971,0,0,1,5.8,5.59c.016.041.033.084.051.123a11.807,11.807,0,0,1,.889,3.658l-.029,2.762c-.539,2.34-1.754,2.34-2.307,2.34a3.512,3.512,0,0,1-1.861-.615,1.645,1.645,0,0,0-2.016,2.6,6.743,6.743,0,0,0,3.877,1.293c1.494,0,5.041-.6,5.725-6.147.039-.32.061-.631.078-.934a6.42,6.42,0,0,1,2.869,1.262,4.3,4.3,0,0,1,1.578,4.858l-.889,2.6,2.709-.434a11.93,11.93,0,0,1,1.754-.109,15.148,15.148,0,0,1,10.335,3.873c4.317,4.049,2.793,9.641,2.291,11.106-.174.367-2.459,5.028-5.655,5.18a2.239,2.239,0,0,1-1.682-.381,1.534,1.534,0,0,1-.174-1.084,1.639,1.639,0,0,0-3.186-.766,4.374,4.374,0,0,0,4.762,5.514h.424c3.869-.18,6.514-3.672,7.737-5.707,2.371.4,8.385,2.111,9.17,9.348.482,4.44-2.951,6.967-4.065,7.674Z" transform="translate(-2.2 -182.33)" fill="#b8c4e0"/>
                      <path id="Tracé_91" data-name="Tracé 91" d="M273.821,286.283a9.455,9.455,0,0,0-2.223-8.428c-5.287-6.362-13.3-4.959-18.267-2.7a11.477,11.477,0,0,0-7.776-8.725c-6.01-2.049-10.639,2-12.788,4.469a14.985,14.985,0,0,0-11.026-3.983c-3.858.078-7.51,2.971-8.883,7.041a8.64,8.64,0,0,0,2.8,9.891,10.047,10.047,0,0,0,13.319-.346,1.64,1.64,0,1,0-2.242-2.393,6.742,6.742,0,0,1-9.03.174A5.481,5.481,0,0,1,215.97,275c.924-2.738,3.381-4.758,5.846-4.809,6.8-.139,9.528,3.992,9.631,4.16a1.639,1.639,0,0,0,2.254.531,1.674,1.674,0,0,0,.516-.508c.043-.068,4.461-6.83,10.284-4.844a8.341,8.341,0,0,1,5.787,8.127,1.639,1.639,0,0,0,2.5,1.488c.42-.262,10.372-6.309,16.286.82a6.265,6.265,0,0,1,1.551,5.592,6.736,6.736,0,0,1-3.279,4.356c-2.143.963-4.826-.455-4.844-.467a1.639,1.639,0,1,0-1.578,2.869,11.032,11.032,0,0,0,4.024,1.17,7.559,7.559,0,0,0,3.742-.586A10.036,10.036,0,0,0,273.821,286.283Z" transform="translate(-169.268 -248.748)" fill="#b8c4e0"/>
                      <path id="Tracé_92" data-name="Tracé 92" d="M132.054,393.635a7.5,7.5,0,0,0-.389-4.209h.018a8.525,8.525,0,0,0,2.8-.469,7.512,7.512,0,0,0,4.768-5.371,10.376,10.376,0,0,0-1.777-9.11c-3.018-3.567-7.715-2.664-9.78-1.7a1.639,1.639,0,1,0,1.4,2.965c.039-.019,3.715-1.711,5.881.85a7.09,7.09,0,0,1,1.121,6.125,4.344,4.344,0,0,1-2.68,3.139,6.308,6.308,0,0,1-4.992-.6,13.484,13.484,0,0,0-1.9-1.277l-.164-.148a1.639,1.639,0,1,0-2.291,2.342c.035.033.219.2.518.457l.01.01a13.709,13.709,0,0,0,2.029,1.371,5.39,5.39,0,0,1,2.213,5.02c-.67,3.592-3.328,3.774-3.643,3.785a1.639,1.639,0,0,0,.018,3.279C127.161,400.094,131.1,398.744,132.054,393.635Z" transform="translate(-98.665 -333.067)" fill="#b8c4e0"/>
                      <path id="Tracé_93" data-name="Tracé 93" d="M163.412,510.6a9.783,9.783,0,0,0-8.645,6,1.639,1.639,0,1,0,3.022,1.266c.012-.029.025-.057.035-.088a6.5,6.5,0,0,1,5.694-3.893c3.6-.111,3.981,3.92,4.014,4.371a1.639,1.639,0,0,0,1.639,1.539h.1a1.639,1.639,0,0,0,1.535-1.733C170.639,515.393,168.893,510.428,163.412,510.6Z" transform="translate(-123.388 -443.334)" fill="#b8c4e0"/>
                      <path id="Tracé_94" data-name="Tracé 94" d="M490.13,439.824c-2.633-2.217-6.61-1.559-6.778-1.529a1.492,1.492,0,1,0,.508,2.94c.027,0,2.789-.436,4.346.873a3.683,3.683,0,0,1,1.123,3.008,4.527,4.527,0,0,1-1.215,3.461,5.129,5.129,0,0,1-3.442,1.086,1.5,1.5,0,0,0-1.584,1.844c.15.615.41,2.582-.377,3.658a2.274,2.274,0,0,1-1.783.834,3.174,3.174,0,0,1-2.572-.672,3.855,3.855,0,0,1-.85-2.693,1.494,1.494,0,0,0-2.979-.236,6.755,6.755,0,0,0,1.7,5.026,5.687,5.687,0,0,0,4.2,1.584c.236,0,.479-.012.729-.031a5.16,5.16,0,0,0,3.969-2.065,6.938,6.938,0,0,0,1.1-4.362,6.85,6.85,0,0,0,6.09-7.434A6.571,6.571,0,0,0,490.13,439.824Z" transform="translate(-377.732 -385.756)" fill="#b8c4e0"/>
                    </g>
                  </g>
                </g>
              </g>
              <path id="Tracé_22526" data-name="Tracé 22526" d="M14.13,478.215a8.117,8.117,0,0,1,.615.912A153.031,153.031,0,0,0,6.893,495.3c-2.365,5.84,21.874,5.659,29.187,5.309,1.385-.066,3.539-4.678,4.887-4.069s-.615,2.494-.615,2.494,2.783-1.5,3.709-1.025,4.725,3.99.945,5.881-39.729-.242-41.8-4.436c-1.58-3.207,4.186-16.306,6.95-22.214C11.536,477.254,13.352,477.209,14.13,478.215Z" transform="translate(-2.785 -379.451)" fill="#8595ba"/>
              <g id="Groupe_10758" data-name="Groupe 10758" transform="translate(37.842 67.298)">
                <path id="Tracé_22522" data-name="Tracé 22522" d="M402.54,328.693s7.112-1.1,11.729,1.229S421,338.034,421,338.034" transform="translate(-358.35 -328.433)" fill="none" stroke="#8595ba" stroke-linecap="round" stroke-linejoin="bevel" stroke-width="4"/>
                <path id="Tracé_22523" data-name="Tracé 22523" d="M205.346,328.693s-7.114-1.1-11.731,1.229-6.735,8.112-6.735,8.112" transform="translate(-186.88 -328.433)" fill="none" stroke="#8595ba" stroke-linecap="round" stroke-linejoin="bevel" stroke-width="4"/>
              </g>
              <g id="Groupe_10736" data-name="Groupe 10736" transform="translate(41.96 80.919)">
                <g id="Groupe_10734" data-name="Groupe 10734" transform="translate(36.24)">
                  <g id="Groupe_29" data-name="Groupe 29">
                    <path id="Tracé_97" data-name="Tracé 97" d="M402.2,404.088a9.178,9.178,0,1,1-9.178-9.178,9.178,9.178,0,0,1,9.178,9.178Z" transform="translate(-383.84 -394.91)" fill="none" stroke="#8595ba" stroke-width="4"/>
                    <path id="Tracé_98" data-name="Tracé 98" d="M417.919,442.39a3.6,3.6,0,1,1-3.608-3.6h0A3.608,3.608,0,0,1,417.919,442.39Z" transform="translate(-405.204 -429.799)" fill="#8595ba" stroke="#8595ba" stroke-width="4"/>
                  </g>
                </g>
                <g id="Groupe_10742" data-name="Groupe 10742">
                  <g id="Groupe_29-2" data-name="Groupe 29-2">
                    <path id="Tracé_97-2" data-name="Tracé 97-2" d="M225.335,404.088a9.178,9.178,0,1,1-9.178-9.178A9.178,9.178,0,0,1,225.335,404.088Z" transform="translate(-206.98 -394.91)" fill="none" stroke="#8595ba" stroke-width="4"/>
                    <path id="Tracé_98-2" data-name="Tracé 98-2" d="M241.029,442.39a3.6,3.6,0,1,1-3.608-3.6h0A3.608,3.608,0,0,1,241.029,442.39Z" transform="translate(-228.32 -429.799)" fill="#8595ba" stroke="#8595ba" stroke-width="4"/>
                  </g>
                </g>
              </g>
              <path id="Tracé_22524" data-name="Tracé 22524" d="M230.827,388.842H199.951a1.277,1.277,0,0,0-.662.186,8.606,8.606,0,0,0-9.846.027,1.256,1.256,0,0,0-.7-.2H157.886a1.176,1.176,0,1,0-.1,2.348h1.789v12.792a4.693,4.693,0,0,0,4.541,4.826h21.036a4.689,4.689,0,0,0,4.535-4.826V392.377a1.048,1.048,0,0,0,.145-.2,5.094,5.094,0,0,1,4.557-2.326,5.006,5.006,0,0,1,4.639,2.5v11.649a4.691,4.691,0,0,0,4.537,4.826H224.6a4.7,4.7,0,0,0,4.539-4.826v-12.8h1.686a1.176,1.176,0,0,0,.1-2.348Zm-45.68,17.622H164.111a2.311,2.311,0,0,1-2.088-2.477v-12.8h25.2v12.8a2.3,2.3,0,0,1-2.08,2.475Zm41.543-2.473a2.311,2.311,0,0,1-2.088,2.477H203.564a2.312,2.312,0,0,1-2.088-2.477v-12.8h25.214Z" transform="translate(-124.972 -308.095)" fill="#8595ba"/>
              <g id="Group_11092" data-name="Group 11092" transform="translate(64.143 107.635)">
                <g id="Group_22" data-name="Group 22">
                  <path id="Path_51" data-name="Path 51" d="M367.192,476.331a2.854,2.854,0,0,0-.974-2.062,5.513,5.513,0,0,0-2.234-1.234,7.979,7.979,0,0,0-4.453,0,5.526,5.526,0,0,0-2.234,1.234,2.86,2.86,0,0,0-.973,2.062c0,1.455,1.292.789,3.154.321a8.245,8.245,0,0,1,4.557,0C365.9,477.121,367.192,477.786,367.192,476.331Z" transform="translate(-356.325 -472.719)" fill="#8595ba"/>
                </g>
                <path id="Path_52" data-name="Path 52" d="M386.552,488.935a7.98,7.98,0,0,0-4.453,0,2.249,2.249,0,0,0,4.453,0Z" transform="translate(-378.893 -488.344)" fill="#8595ba"/>
              </g>
              <g id="Groupe_10762" data-name="Groupe 10762" transform="translate(42.124 106.289)">
                <path id="Tracé_43" data-name="Tracé 43" d="M329.857,524.572l26.623-5.852-5.664,36.121L326.16,559.9Z" transform="translate(-301.903 -518.72)" fill="#b8c4e0"/>
                <path id="Tracé_44" data-name="Tracé 44" d="M235.733,524.572,207.78,518.72l1.465,36.508,22.792,4.674Z" transform="translate(-207.78 -518.72)" fill="#b8c4e0"/>
              </g>
            </g>
            <path id="Tracé_22527" data-name="Tracé 22527" d="M456.563,478.215a8.389,8.389,0,0,0-.615.912A153.451,153.451,0,0,1,463.8,495.3c2.365,5.84-21.865,5.659-29.185,5.309-1.387-.066-3.541-4.678-4.887-4.069s.615,2.494.615,2.494-2.783-1.5-3.709-1.025-4.727,3.99-.945,5.881,39.737-.236,41.8-4.43c1.584-3.221-4.182-16.313-6.946-22.22C459.159,477.254,457.344,477.209,456.563,478.215Z" transform="translate(-337.607 -379.451)" fill="#8595ba"/>
          </g>
          <g id="Groupe_10773" data-name="Groupe 10773" transform="translate(0.151 97.789)">
            <path id="Tracé_22528" data-name="Tracé 22528" d="M14.13,478.215a8.386,8.386,0,0,1,.615.912A153.87,153.87,0,0,0,6.893,495.3c-2.365,5.84,21.874,5.659,29.187,5.309,1.385-.066,3.539-4.678,4.887-4.067s-.615,2.492-.615,2.492,2.781-1.5,3.709-1.025,4.725,3.99.945,5.881-39.729-.242-41.8-4.436c-1.58-3.207,4.186-16.306,6.95-22.214C11.536,477.254,13.352,477.209,14.13,478.215Z" transform="translate(-2.935 -477.24)" fill="#8595ba"/>
            <path id="Tracé_22529" data-name="Tracé 22529" d="M456.579,482.119a8.386,8.386,0,0,0-.615.912,153.461,153.461,0,0,1,7.852,16.173c2.369,5.846-21.861,5.666-29.181,5.315-1.387-.066-3.541-4.678-4.887-4.067s.615,2.492.615,2.492-2.783-1.5-3.709-1.025-4.727,3.99-.945,5.881,39.733-.236,41.793-4.43c1.584-3.221-4.182-16.313-6.946-22.22C459.175,481.164,457.359,481.119,456.579,482.119Z" transform="translate(-337.773 -480.349)" fill="#8595ba"/>
          </g>
        </g>
      </g>
    </g>
  </g>
</svg>
