<svg xmlns="http://www.w3.org/2000/svg" width="215.562" height="140.062" viewBox="0 0 215.562 140.062">
  <g id="Group_12394" data-name="Group 12394" transform="translate(-77.508 -151.4)">
    <g id="Group_12224" data-name="Group 12224" transform="translate(0 -215)">
      <g id="Groupe_11172" data-name="Groupe 11172" transform="translate(81 406.002)">
        <g id="fusee">
          <g id="OBJECTS">
            <g id="Groupe_10733" data-name="Groupe 10733">
              <path id="Tracé_20852" data-name="Tracé 20852" d="M183.1,92.54c-11.06,6.55-20.16,7.93-26.56,7.93-16.37-.07-38.35-9.17-46.72-9.75a113.392,113.392,0,0,0-12.23.07c-8,.29-13.61,1-18.41,1.53-6,.65-14.85,1.46-25.91,2-.87.14-20,2.47-29.84-11.36C22.71,82,15.5,71.5,19,62.7c1.9-4.8,7.79-11.13,14.41-14.77,1.6-.87,2.62-1.24,3-2.4C37.92,40.8,24,35.71,22.56,27.19c-.73-4.29,1.38-10.91,15.07-21.1C47.09,1.65,60.48-2.57,73.8,1.94,85.15,5.8,86.17,12.42,96.57,14.46c13.18,2.48,16.74-7.13,39.3-10.84,9.47-1.6,19.5-3.06,29.48,2.25,2,1.1,13.68,7.28,15.28,18,1.89,12.88-15,18.63-13.1,29.26,2,11.79,23.8,13,25.11,24.08C193.36,82.93,188.27,88.39,183.1,92.54Z" transform="translate(0 -0.01)" fill="#dfe4f4"/>
              <circle id="Ellipse_392" data-name="Ellipse 392" cx="7.35" cy="7.35" r="7.35" transform="translate(197.37 3.81)" fill="#dfe4f4"/>
              <circle id="Ellipse_393" data-name="Ellipse 393" cx="3.64" cy="3.64" r="3.64" transform="translate(188.12 20.62)" fill="#dfe4f4"/>
              <circle id="Ellipse_394" data-name="Ellipse 394" cx="5.75" cy="5.75" r="5.75" transform="translate(0 73.68)" fill="#dfe4f4"/>
              <circle id="Ellipse_395" data-name="Ellipse 395" cx="5.75" cy="5.75" r="5.75" transform="translate(194.38 57.45)" fill="#dfe4f4"/>
              <circle id="Ellipse_396" data-name="Ellipse 396" cx="5.75" cy="5.75" r="5.75" transform="translate(11.42 2.79)" fill="#dfe4f4"/>
            </g>
          </g>
        </g>
      </g>
    </g>
    <g id="Groupe_10802" data-name="Groupe 10802" transform="translate(77.609 151.381)">
      <g id="Groupe_10796" data-name="Groupe 10796" transform="translate(-0.102 0.019)">
        <g id="Groupe_10794" data-name="Groupe 10794" transform="translate(5.618 15.099)">
          <g id="Groupe_10771" data-name="Groupe 10771">
            <g id="Groupe_10768" data-name="Groupe 10768">
              <g id="Groupe_10740" data-name="Groupe 10740">
                <g id="Groupe_10740-2" data-name="Groupe 10740-2">
                  <g id="Groupe_10738" data-name="Groupe 10738">
                    <g id="Groupe_34" data-name="Groupe 34">
                      <path id="Tracé_101" data-name="Tracé 101" d="M787.488,217.724c5.692,1.927,13.882-7.1,14.173-12.153s-1.616-8.342-4.219-13.02c-2.446-4.4-5.768-5.942-9.846-7.934-.172-.752-10.7,2.438-10.7,2.438a4.192,4.192,0,0,1-2.633-7.323,13.2,13.2,0,0,1-2.312-.176,54.644,54.644,0,0,0-6.42.936c-2.455-2.492,3.817-3.283,5.166-3.383a66.853,66.853,0,0,1,8.184-.182c.471.072,12.418,2.968,19.531,11.888,2.64,3.311,5.262,7.732,5.681,11.833a20.177,20.177,0,0,1-2.824,12.524c-4.69,6.876-14.338,8.82-17.427,7.79A28.346,28.346,0,0,0,787.488,217.724Z" transform="translate(-613.695 -161.798)" fill="#8595ba"/>
                      <path id="Tracé_22540" data-name="Tracé 22540" d="M121.213,341.27c-6.952-.954-13.521,2.172-20.638,1.108-14.416-2.151-27.808-8.455-29.313-9.537-3.767-2.724-3.178-5.392-.217-5.926s6.535,3.259,6.535,3.259-.28-1.4,1.779-1.475,1.521,3.826,4.273,4.015c.869.061,8.379,4.695,17.225,5.344,6.029.435,12.355-3.191,19.318-2.624A16.25,16.25,0,0,0,121.213,341.27Z" transform="translate(-68.627 -279.207)" fill="#8595ba"/>
                      <g id="Groupe_11" data-name="Groupe 11" transform="translate(50.196 67.312)">
                        <path id="Tracé_48" data-name="Tracé 48" d="M658.874,417.34s-3.2,49.706-1.6,51.181,10.389.156,11.99,2.894-13.428,2.583-15.349.9,0-54.963,0-54.963Z" transform="translate(-576.291 -417.34)" fill="#8595ba"/>
                        <path id="Tracé_49" data-name="Tracé 49" d="M339.791,449s-26.054,42.45-28.212,42.732-8.577-5.866-11.462-4.562,9.478,9.856,12.02,9.587,31.7-44.909,31.7-44.909Z" transform="translate(-299.684 -442.122)" fill="#8595ba"/>
                      </g>
                      <g id="Groupe_27" data-name="Groupe 27" transform="translate(43.815)">
                        <path id="Tracé_89" data-name="Tracé 89" d="M372.484,198.122c1.351.567,5.913,2.183,9.6-.178,4.384-2.809,4.384-6.139,4.384-6.139a12.777,12.777,0,0,0,12.8-2.983c6.139-5.614,3.33-16.8,3.33-16.8s5.757-2.989,5.088-9.155c-1.086-9.956-11.225-10.523-11.225-10.523s3.157-7.541-2.455-12.8-12.98-4.034-12.98-4.034a5.8,5.8,0,0,0-2.105-6.491c-3.509-2.459-6.3-.988-6.3-.988s.6-7.977-6.654-10.693c-6.915-2.585-12.818,1.51-12.818,1.51s-4.384-4.736-10.7-3.858a19.745,19.745,0,0,0-9.841,4.034,11.158,11.158,0,0,0-10.875-2.455,10.1,10.1,0,0,0-7.367,8.069s-11.253-3.139-17.386,4.577-3.157,14.169-3.157,14.169-10.139-1.382-13.3,8.255a17.052,17.052,0,0,0,2.631,16.137s-8.255,8.242-4.736,17.189,11.909,7.067,11.909,7.067a9.284,9.284,0,0,0,8.957,8.2c8.244.526,11.753-2.455,11.753-2.455s7.191,5.961,14.206,5.26,9.648-3.5,9.648-3.5,6.665,3.793,13.154,3.563,11.751-4.619,11.751-4.619a6.936,6.936,0,0,0,6.491,3.157C370.679,201.174,372.23,198.013,372.484,198.122Z" transform="translate(-275.985 -113.269)" fill="#f3f6fe"/>
                        <g id="Groupe_26" data-name="Groupe 26">
                          <path id="Tracé_90" data-name="Tracé 90" d="M403.591,156.924c-.826-7.617-6.6-10.76-10.749-11.655.676-2.861,1.151-8.364-3.424-12.652A17.708,17.708,0,0,0,377.3,128.03h-.087a7.071,7.071,0,0,0-3.057-6.083,8.829,8.829,0,0,0-4.832-1.816,10.289,10.289,0,0,0-1.069-2.894,12.679,12.679,0,0,0-7.412-7.169,15.121,15.121,0,0,0-5.29-.956,16.587,16.587,0,0,0-5.188.869h-.043a3.65,3.65,0,0,0-.385.133l-.217.08H349.7a17.691,17.691,0,0,0-2.022.9,14.871,14.871,0,0,0-9.342-3.593,12.842,12.842,0,0,0-1.779.124A22.459,22.459,0,0,0,327,111.2a12.763,12.763,0,0,0-7.569-2.507,13.686,13.686,0,0,0-3.784.574,11.6,11.6,0,0,0-8.112,7.758c-3.459-.506-11.779-.891-17.065,5.755-3.528,4.436-4.393,8.2-4.406,10.81v.037a9.639,9.639,0,0,0,.109,1.64c-3.439.4-10.211,2.194-12.8,10.1a18.742,18.742,0,0,0,2.025,16.435c-.18.193-.291.326-.313.354a1.6,1.6,0,0,0-.289.584c-2.39,3.124-6.339,9.776-3.5,17.019,2.548,6.5,7.593,7.471,10.374,7.471a13.163,13.163,0,0,0,1.894-.139c.808,3.619,3.524,8.516,9.974,8.929.68.043,1.358.065,2.012.065a19.742,19.742,0,0,0,9.763-2.172c2.107,1.534,7.467,4.971,13.115,4.971.448,0,.893-.022,1.325-.063a21.538,21.538,0,0,0,8.7-2.568,5.516,5.516,0,0,0,1.062-.589c2.125,1.049,7.152,3.23,12.3,3.23h.634a22.657,22.657,0,0,0,11.384-4.01,5.333,5.333,0,0,0,.565.521,1.251,1.251,0,0,0,.13.072,8.134,8.134,0,0,0,5.355,1.994h0a9.056,9.056,0,0,0,.909-.046,9.874,9.874,0,0,0,6.428-3.233,14.715,14.715,0,0,0,4.656.8,9.822,9.822,0,0,0,5.392-1.492,11.038,11.038,0,0,0,4.712-5.529,14.336,14.336,0,0,0,2.689.254,14.587,14.587,0,0,0,9.993-4.01c5.612-5.129,4.608-14.058,4.037-17.219A10.9,10.9,0,0,0,403.591,156.924Zm-7.056,7.732c-.841-.256-1.873-.547-3.128-.869a6.216,6.216,0,0,0-6.27,1.64,5.318,5.318,0,0,0-1.012,5.472,4.484,4.484,0,0,0,4.56,2.97,7.536,7.536,0,0,0,2.364-.387,1.428,1.428,0,0,0-.91-2.707h-.017c-.109.037-2.672.9-3.315-.869a2.52,2.52,0,0,1,.454-2.585,3.393,3.393,0,0,1,3.454-.778c1.132.282,2.068.545,2.824.776.452,2.414,1.521,10.4-3.013,14.556a11.412,11.412,0,0,1-7.871,3.185,10.562,10.562,0,0,1-3.146-.458l-2.842-5.472a1.579,1.579,0,0,0-2.8,1.456l3.194,6.148a7.767,7.767,0,0,1-3.506,4.1,6.735,6.735,0,0,1-3.693,1,12.083,12.083,0,0,1-4.445-.945l-.311-.128h-.322a2.039,2.039,0,0,0-1.575.917,6.872,6.872,0,0,1-4.753,2.607c-.2.02-.4.03-.584.03h0a5.279,5.279,0,0,1-4.128-2.064,5.105,5.105,0,0,1-.754-2.981,2.58,2.58,0,0,1,1.182-2.153c2.023-1.164,3-.174,3.259.163a1.579,1.579,0,0,0,2.59-1.805c-.912-1.332-3.634-3.272-7.417-1.086a5.628,5.628,0,0,0-2.757,4.662,8.134,8.134,0,0,0,.4,3.087,19.674,19.674,0,0,1-9.924,3.611c-4.225.148-8.605-1.579-10.828-2.607h0c.908-2.222.684-5.057-.63-7.977-2-4.493-6.848-4.338-9.135-3.641a1.577,1.577,0,1,0,.9,3.024h.03c.161-.048,3.945-1.175,5.329,1.9a7.278,7.278,0,0,1,.587,5.485,3.008,3.008,0,0,1-.252.493l-.239.241c-.022.024-2.444,2.411-8.664,3.031a9.873,9.873,0,0,1-1.012.05c-4.745,0-9.513-3.107-11.3-4.395l.4-4.779a1.579,1.579,0,1,0-3.148-.261l-.391,4.747c-.939.571-3.628,1.894-8.442,1.894-.589,0-1.2-.022-1.812-.059-6.539-.417-7.23-7.082-7.28-7.719a4.314,4.314,0,0,1,2.331-3.456,3.389,3.389,0,0,1,2.094-.569.543.543,0,0,1-.113-.041l1.236-2.907c-.306-.128-1.968-.706-4.684.726a7.358,7.358,0,0,0-3.854,5,9.992,9.992,0,0,1-1.8.167c-3.513,0-6.013-1.838-7.434-5.464-2.946-7.512,3.676-14.753,4.328-15.44a8.023,8.023,0,0,1,5.17-1.8,4.841,4.841,0,0,1,4.562,3.02,1.581,1.581,0,0,0,1.492,1.064,1.649,1.649,0,0,0,.5-.08,1.584,1.584,0,0,0,.995-2,7.984,7.984,0,0,0-7.493-5.162,10.862,10.862,0,0,0-5.909,1.6,15.713,15.713,0,0,1-1.5-13.469c2.2-6.735,8.305-7.838,10.762-8.008a7.554,7.554,0,0,0,5.922,4.249,8.228,8.228,0,0,0,1.223.089,8.728,8.728,0,0,0,7.6-5.049,1.58,1.58,0,1,0-2.87-1.321c-.072.152-1.79,3.693-5.5,3.157a4.467,4.467,0,0,1-3.239-2.018l-.652-1.4c0-.02-.046-.1-.093-.237a7.712,7.712,0,0,1-.311-2.1v-.148c.017-1.975.712-5.029,3.734-8.827,4.688-5.894,12.618-4.9,14.805-4.486l2.227,5a1.584,1.584,0,0,0,1.443.939,1.544,1.544,0,0,0,.639-.139,1.579,1.579,0,0,0,.8-2.083l-2.4-5.4c-.017-.037-.039-.065-.059-.1a8.537,8.537,0,0,1,6.129-6.181,10.6,10.6,0,0,1,2.915-.434,9.611,9.611,0,0,1,6.374,2.481l.354.369a4.328,4.328,0,0,1,.6,4.273,3.538,3.538,0,0,1-3.324,2.231,1.579,1.579,0,1,0-.293,3.144,3.216,3.216,0,0,0,.354.013,6.7,6.7,0,0,0,6.1-4.006,7.18,7.18,0,0,0-.434-6.782,19.531,19.531,0,0,1,7.821-2.8,9.922,9.922,0,0,1,1.345-.093,11.628,11.628,0,0,1,6.967,2.579,7.429,7.429,0,0,0-1.666,3.287,6.441,6.441,0,0,0,4.447,7.777,1.636,1.636,0,0,0,.384.048,1.579,1.579,0,0,0,.382-3.111,3.265,3.265,0,0,1-2.129-4.043c.582-2.694,3.791-3.943,4.41-4.16a13.55,13.55,0,0,1,4.428-.771,11.862,11.862,0,0,1,4.188.747,9.618,9.618,0,0,1,5.592,5.386l.048.119a11.346,11.346,0,0,1,.858,3.524l-.028,2.659c-.519,2.253-1.69,2.259-2.222,2.259a3.376,3.376,0,0,1-1.792-.589,1.579,1.579,0,0,0-1.955,2.477l.022.017A6.5,6.5,0,0,0,364,130.146c1.438,0,4.855-.578,5.514-5.926.039-.308.061-.608.076-.9a6.233,6.233,0,0,1,2.77,1.217,4.144,4.144,0,0,1,1.521,4.68l-.869,2.494,2.594-.419a11.569,11.569,0,0,1,1.688-.1,14.591,14.591,0,0,1,9.959,3.73c4.154,3.91,2.687,9.285,2.2,10.7-.167.354-2.366,4.845-5.446,5a2.161,2.161,0,0,1-1.621-.367,1.446,1.446,0,0,1-.167-1.043,1.579,1.579,0,0,0-3.07-.739,4.611,4.611,0,0,0,.8,3.789,4.664,4.664,0,0,0,3.8,1.521c.135,0,.269,0,.408-.011,3.728-.174,6.274-3.537,7.454-5.5,2.283.38,8.077,2.031,8.833,9,.471,4.271-2.835,6.713-3.908,7.386Z" transform="translate(-270.31 -107.5)" fill="#b8c4e0"/>
                          <path id="Tracé_91" data-name="Tracé 91" d="M520.378,203.077a9.092,9.092,0,0,0-2.14-8.116c-5.092-6.131-12.818-4.779-17.6-2.607a11.057,11.057,0,0,0-7.489-8.405c-5.79-1.97-10.25,1.923-12.318,4.3a14.437,14.437,0,0,0-10.621-3.837c-3.717.074-7.234,2.863-8.555,6.782a8.326,8.326,0,0,0,2.7,9.526,9.654,9.654,0,0,0,12.818-.335,1.579,1.579,0,0,0-2.155-2.3,6.5,6.5,0,0,1-8.69.167,5.281,5.281,0,0,1-1.671-6.048c.891-2.637,3.259-4.584,5.631-4.634,6.554-.135,9.177,3.845,9.279,4.006a1.582,1.582,0,0,0,2.672.022c.041-.065,4.3-6.576,9.9-4.664a8.037,8.037,0,0,1,5.577,7.821,1.579,1.579,0,0,0,2.409,1.434c.4-.252,9.993-6.083,15.687.78a6.037,6.037,0,0,1,1.495,5.388,6.489,6.489,0,0,1-3.161,4.2c-2.064.928-4.649-.434-4.669-.45a1.58,1.58,0,0,0-1.521,2.77,10.645,10.645,0,0,0,3.878,1.125,7.248,7.248,0,0,0,3.6-.565A9.649,9.649,0,0,0,520.378,203.077Z" transform="translate(-419.686 -166.919)" fill="#b8c4e0"/>
                          <path id="Tracé_92" data-name="Tracé 92" d="M388.6,300.669a7.217,7.217,0,0,0-.374-4.054h.017a8.256,8.256,0,0,0,2.7-.452,7.22,7.22,0,0,0,4.593-5.175,10,10,0,0,0-1.712-8.775c-2.907-3.437-7.432-2.574-9.42-1.636a1.579,1.579,0,1,0,1.347,2.857c.037-.018,3.578-1.649,5.664.819a6.845,6.845,0,0,1,1.086,5.9,4.156,4.156,0,0,1-2.581,3.024,6.072,6.072,0,0,1-4.808-.578,13.188,13.188,0,0,0-1.834-1.232l-.159-.139a1.578,1.578,0,1,0-2.249,2.214l.043.041c.033.033.217.2.5.434v.011a12.941,12.941,0,0,0,1.955,1.321,5.191,5.191,0,0,1,2.129,4.836c-.652,3.459-3.2,3.634-3.506,3.645a1.579,1.579,0,1,0,.017,3.157C383.887,306.889,387.684,305.587,388.6,300.669Z" transform="translate(-356.455 -242.323)" fill="#b8c4e0"/>
                          <path id="Tracé_93" data-name="Tracé 93" d="M417.38,405.755a9.425,9.425,0,0,0-8.329,5.779A1.579,1.579,0,0,0,412,412.667a6.286,6.286,0,0,1,5.486-3.758c3.476-.106,3.834,3.776,3.867,4.21a1.579,1.579,0,0,0,1.573,1.484h.1a1.579,1.579,0,0,0,1.477-1.671C424.341,410.367,422.659,405.587,417.38,405.755Z" transform="translate(-378.843 -340.956)" fill="#b8c4e0"/>
                          <path id="Tracé_94" data-name="Tracé 94" d="M714.38,341.545c-2.535-2.136-6.365-1.5-6.528-1.473a1.438,1.438,0,0,0,.489,2.824c.026,0,2.687-.421,4.186.841a3.554,3.554,0,0,1,1.086,2.9,4.376,4.376,0,0,1-1.169,3.333,4.93,4.93,0,0,1-3.317,1.045,1.445,1.445,0,0,0-1.521,1.779c.143.582.385,2.485-.365,3.522a2.191,2.191,0,0,1-1.718.8,3.041,3.041,0,0,1-2.477-.652,3.705,3.705,0,0,1-.819-2.594,1.443,1.443,0,0,0-2.879-.215h0a6.553,6.553,0,0,0,1.642,4.842,5.471,5.471,0,0,0,4.047,1.521c.217,0,.461-.011.7-.028a4.979,4.979,0,0,0,3.824-1.99,6.678,6.678,0,0,0,1.056-4.2,6.6,6.6,0,0,0,5.864-7.16A6.323,6.323,0,0,0,714.38,341.545Z" transform="translate(-606.13 -289.46)" fill="#b8c4e0"/>
                        </g>
                      </g>
                    </g>
                  </g>
                </g>
              </g>
            </g>
          </g>
        </g>
        <g id="Groupe_10795" data-name="Groupe 10795" transform="translate(86.536 45.035)">
          <g id="Groupe_10736" data-name="Groupe 10736" transform="translate(4.043 10.536)">
            <g id="Groupe_10734" data-name="Groupe 10734">
              <g id="Groupe_29" data-name="Groupe 29">
                <path id="Tracé_97" data-name="Tracé 97" d="M459.71,302.64a8.84,8.84,0,1,0,8.84-8.84,8.84,8.84,0,0,0-8.84,8.84Z" transform="translate(-459.71 -293.8)" fill="none" stroke="#8595ba" stroke-width="4"/>
                <path id="Tracé_98" data-name="Tracé 98" d="M465.82,311.246a3.476,3.476,0,1,0,3.476-3.476h0A3.476,3.476,0,0,0,465.82,311.246Z" transform="translate(-464.493 -304.735)" fill="#8595ba" stroke="#8595ba" stroke-width="4"/>
              </g>
            </g>
            <g id="Groupe_10742" data-name="Groupe 10742" transform="translate(31.874)">
              <g id="Groupe_29-2" data-name="Groupe 29-2">
                <path id="Tracé_97-2" data-name="Tracé 97-2" d="M606.43,302.64a8.84,8.84,0,1,0,8.84-8.84A8.84,8.84,0,0,0,606.43,302.64Z" transform="translate(-606.43 -293.8)" fill="none" stroke="#8595ba" stroke-width="4"/>
                <path id="Tracé_98-2" data-name="Tracé 98-2" d="M615.16,311.246a3.476,3.476,0,1,0,3.476-3.476h0A3.476,3.476,0,0,0,615.16,311.246Z" transform="translate(-613.263 -304.735)" fill="#8595ba" stroke="#8595ba" stroke-width="4"/>
              </g>
            </g>
          </g>
          <path id="Tracé_22520" data-name="Tracé 22520" d="M558.878,413.294a12.852,12.852,0,0,0-6.422-.891,18.8,18.8,0,0,0-6.687,2.955" transform="translate(-523.031 -376.012)" fill="none" stroke="#8595ba" stroke-linecap="round" stroke-linejoin="bevel" stroke-width="7"/>
          <g id="Groupe_10806" data-name="Groupe 10806">
            <path id="Tracé_22521" data-name="Tracé 22521" d="M441.1,258.513a5.813,5.813,0,0,1,4.047-3.952c3.4-1.03,9.489-.174,9.489-.174" transform="translate(-441.1 -252.152)" fill="none" stroke="#8595ba" stroke-linecap="round" stroke-linejoin="bevel" stroke-width="4"/>
            <path id="Tracé_22522" data-name="Tracé 22522" d="M613.4,252.647a6.027,6.027,0,0,1,3.461-4.879c3.433-1.838,10.267-2.468,10.267-2.468" transform="translate(-575.968 -245.3)" fill="none" stroke="#8595ba" stroke-linecap="round" stroke-linejoin="bevel" stroke-width="4"/>
          </g>
        </g>
        <g id="Ellipse_425" data-name="Ellipse 425" transform="translate(85.259 49.938)">
          <ellipse id="Ellipse_581" data-name="Ellipse 581" cx="14.664" cy="14.447" rx="14.664" ry="14.447" fill="none"/>
          <ellipse id="Ellipse_582" data-name="Ellipse 582" cx="13.687" cy="13.469" rx="13.687" ry="13.469" transform="translate(0.978 0.978)" fill="none" stroke="#8595ba" stroke-width="4"/>
        </g>
        <path id="Tracé_22541" data-name="Tracé 22541" d="M312.866,373.63s-4.514,25.563-15.585,27.551c-9.1,1.634-20.465-10.738-24.332-15.32-.708-.841-.352-4.026-.352-4.026" transform="translate(-222.597 -300.715)" fill="none" stroke="#8595ba" stroke-width="5"/>
        <g id="Groupe_21" data-name="Groupe 21" transform="translate(0 0)">
          <circle id="Ellipse_1" data-name="Ellipse 1" cx="23.704" cy="23.704" r="23.704" transform="translate(36.948 2.053)" fill="#fff" opacity="0.6" style="isolation: isolate"/>
          <path id="Tracé_54" data-name="Tracé 54" d="M229.353,70.625a23.761,23.761,0,0,1,3.207-2.755l36.4,26.4a23.567,23.567,0,0,1-5.6,9.385c-.2.217-.408.4-.617.6L225.38,76.1a23.719,23.719,0,0,1,3.973-5.479Z" transform="translate(-185.708 -61.381)" fill="#fff" opacity="0.6" style="isolation: isolate"/>
          <path id="Tracé_55" data-name="Tracé 55" d="M215.3,121.58l35.027,27.695a23.434,23.434,0,0,1-2.87,1.532L214.39,125.215a23.535,23.535,0,0,1,.91-3.635Z" transform="translate(-177.106 -103.422)" fill="#fff" opacity="0.6" style="isolation: isolate"/>
          <path id="Tracé_56" data-name="Tracé 56" d="M211.2,82.235a25.761,25.761,0,1,0-.534-36.415A25.761,25.761,0,0,0,211.2,82.235Zm33.022-34.008a21.644,21.644,0,1,1-30.608.448,21.644,21.644,0,0,1,30.608-.448Z" transform="translate(-168.5 -37.999)" fill="#8595ba"/>
          <path id="Tracé_57" data-name="Tracé 57" d="M85.429,225.98,43.888,266.4a3.7,3.7,0,1,0,5.157,5.3c.048-.046.1-.1.146-.15l39.191-42.708a2.057,2.057,0,1,0-2.952-2.866Z" transform="translate(-42.768 -184.653)" fill="#8595ba"/>
        </g>
      </g>
    </g>
  </g>
</svg>
