<svg xmlns="http://www.w3.org/2000/svg" width="151.22" height="146.064" viewBox="0 0 151.22 146.064">
  <g id="Group_11858" data-name="Group 11858" transform="translate(-7783 -1206.501)">
    <g id="Groupe_10767" data-name="Groupe 10767" transform="translate(7783 1234.914)">
      <g id="Groupe_10740" data-name="Groupe 10740" transform="translate(0 0)">
        <g id="Groupe_10740-2" data-name="Groupe 10740-2" transform="translate(0 0)">
          <g id="Groupe_10738" data-name="Groupe 10738">
            <g id="Groupe_34" data-name="Groupe 34">
              <path id="Tracé_101" data-name="Tracé 101" d="M579.906,107.692c5.356,1.813,13.064-6.677,13.338-11.44S591.722,88.4,589.273,84c-2.3-4.143-5.431-5.591-9.267-7.467-.162-.706-10.067,2.3-10.067,2.3a3.945,3.945,0,0,1-2.479-6.892,12.334,12.334,0,0,1-2.175-.168,51.406,51.406,0,0,0-6.043.882c-2.314-2.344,3.594-3.089,4.863-3.183a62.885,62.885,0,0,1,7.7-.172c.444.068,11.687,2.792,18.381,11.188,2.486,3.118,4.953,7.277,5.35,11.139a19.088,19.088,0,0,1-2.659,11.789c-4.417,6.471-13.5,8.3-16.4,7.332A27.285,27.285,0,0,0,579.906,107.692Z" transform="translate(-444.411 -55.066)" fill="#8595ba"/>
              <path id="Tracé_86" data-name="Tracé 86" d="M16.433,198.742S-.26,205.936-.011,217.216,7.022,231.59,10.445,231.9c3.793.348,3.539-.655,3.159-2.332l-.051-.184s1.272,1.686,2.283,1.045-.409-2.455-2.938-5.172c-.959-1.023-2.49,1.86-4.789,1.563-2.974-.378-6.708-4.349-5.393-11.6,2.125-11.7,18.9-11.335,18.4-14.242S16.433,198.742,16.433,198.742Z" transform="translate(0.014 -158.024)" fill="#8595ba"/>
              <g id="Groupe_25" data-name="Groupe 25" transform="translate(48.606 70.156)">
                <path id="Tracé_87" data-name="Tracé 87" d="M246.281,347.7s2.649,41.143,1.326,42.365-8.592.129-9.924,2.393,11.114,2.14,12.7.743,0-45.5,0-45.5Z" transform="translate(-237.584 -346.718)" fill="#8595ba"/>
                <path id="Tracé_88" data-name="Tracé 88" d="M445.515,342.9s-2.647,41.146-1.324,42.363,8.592.127,9.924,2.393S443,389.8,441.41,388.4s0-45.5,0-45.5Z" transform="translate(-399.15 -342.9)" fill="#8595ba"/>
              </g>
              <g id="Groupe_27" data-name="Groupe 27" transform="translate(13.144)">
                <path id="Tracé_89" data-name="Tracé 89" d="M160.907,85.617c1.272.534,5.564,2.046,9.04-.168,4.126-2.643,4.126-5.779,4.126-5.779a12.028,12.028,0,0,0,12.051-2.807c5.777-5.282,3.136-15.815,3.136-15.815s5.417-2.815,4.789-8.617c-1.023-9.371-10.566-9.907-10.566-9.907s2.97-7.1-2.312-12.049a15.525,15.525,0,0,0-12.217-3.8,5.452,5.452,0,0,0-1.98-6.109c-3.3-2.312-5.933-.931-5.933-.931s.569-7.508-6.264-10.065a14.028,14.028,0,0,0-12.07,1.42s-4.128-4.458-10.071-3.631a18.478,18.478,0,0,0-9.247,3.8,10.515,10.515,0,0,0-10.235-2.316,9.483,9.483,0,0,0-6.925,7.6s-10.6-2.954-16.376,4.308-2.972,13.336-2.972,13.336-9.543-1.3-12.514,7.774a16.045,16.045,0,0,0,2.475,15.187s-7.757,7.759-4.456,16.18S83.6,79.869,83.6,79.869a8.738,8.738,0,0,0,8.43,7.721c7.759.5,11.061-2.31,11.061-2.31s6.767,5.611,13.371,4.951,9.081-3.3,9.081-3.3,6.272,3.572,12.381,3.355,11.059-4.341,11.059-4.341a6.525,6.525,0,0,0,6.109,2.97C159.213,88.49,160.667,85.515,160.907,85.617Z" transform="translate(-70.07 -5.767)" fill="#f3f6fe"/>
                <g id="Groupe_26" data-name="Groupe 26">
                  <path id="Tracé_90" data-name="Tracé 90" d="M189.694,46.463c-.777-7.17-6.215-10.126-10.116-10.971a12.061,12.061,0,0,0-3.222-11.908,16.689,16.689,0,0,0-11.4-4.316h-.082a6.661,6.661,0,0,0-2.878-5.728,8.292,8.292,0,0,0-4.546-1.708,9.755,9.755,0,0,0-1-2.719,11.9,11.9,0,0,0-6.978-6.737,14.158,14.158,0,0,0-4.977-.9,15.607,15.607,0,0,0-4.883.818h-.041a2.977,2.977,0,0,0-.362.125l-.2.076h-.018a16.805,16.805,0,0,0-1.9.845,13.987,13.987,0,0,0-8.8-3.382,12.076,12.076,0,0,0-1.677.117,21.177,21.177,0,0,0-9,3.371A12.01,12.01,0,0,0,110.484,1.1a12.872,12.872,0,0,0-3.572.52,10.916,10.916,0,0,0-7.637,7.3c-3.255-.477-11.086-.839-16.061,5.417-3.32,4.175-4.134,7.729-4.147,10.184v.033a9.074,9.074,0,0,0,.1,1.545c-3.238.372-9.615,2.064-12.049,9.511a17.637,17.637,0,0,0,1.907,15.47c-.17.18-.274.307-.295.331a1.541,1.541,0,0,0-.272.55c-2.25,2.942-5.965,9.206-3.294,16.02,2.4,6.117,7.148,7.031,9.766,7.031a12.37,12.37,0,0,0,1.782-.131c.761,3.406,3.316,8.015,9.388,8.4.638.041,1.277.061,1.894.061a18.56,18.56,0,0,0,9.187-2.046c1.984,1.442,7.029,4.677,12.346,4.677.419,0,.839-.02,1.248-.057a20.21,20.21,0,0,0,8.183-2.418,5.166,5.166,0,0,0,1-.552,28.128,28.128,0,0,0,11.581,3.04c.2,0,.4,0,.6-.01A21.319,21.319,0,0,0,142.853,82.2a5.027,5.027,0,0,0,.532.491,1.18,1.18,0,0,0,.123.067,7.657,7.657,0,0,0,5.041,1.878h0a7.95,7.95,0,0,0,.855-.045,9.279,9.279,0,0,0,6.049-3.044,13.911,13.911,0,0,0,4.382.759A9.249,9.249,0,0,0,164.91,80.9a10.387,10.387,0,0,0,4.433-5.2,13.621,13.621,0,0,0,11.943-3.537c5.282-4.828,4.337-13.232,3.8-16.206A10.221,10.221,0,0,0,189.694,46.463Zm-6.649,7.277c-.792-.241-1.763-.513-2.944-.818a5.848,5.848,0,0,0-5.9,1.545,5.008,5.008,0,0,0-.953,5.151,4.235,4.235,0,0,0,4.3,2.8,7.037,7.037,0,0,0,2.23-.356,1.347,1.347,0,1,0-.843-2.559H178.9c-.1.037-2.516.843-3.122-.818a2.369,2.369,0,0,1,.428-2.432,3.2,3.2,0,0,1,3.251-.732c1.064.266,1.945.513,2.659.73.426,2.271,1.432,9.787-2.835,13.69a10.738,10.738,0,0,1-7.41,3,9.942,9.942,0,0,1-2.942-.409l-2.684-5.151a1.485,1.485,0,1,0-2.635,1.371h0l3.005,5.789a7.31,7.31,0,0,1-3.3,3.856,6.342,6.342,0,0,1-3.478.939,11.376,11.376,0,0,1-4.186-.888l-.29-.121h-.3a1.917,1.917,0,0,0-1.483.861,6.465,6.465,0,0,1-4.474,2.455c-.184.018-.372.029-.552.029h0a4.992,4.992,0,0,1-3.887-1.943,4.807,4.807,0,0,1-.71-2.807,2.439,2.439,0,0,1,1.113-2.025c1.9-1.1,2.823-.164,3.069.153a1.486,1.486,0,1,0,2.438-1.7c-.859-1.254-3.422-3.081-6.982-1.033A5.3,5.3,0,0,0,141,76.7a7.649,7.649,0,0,0,.38,2.9,18.5,18.5,0,0,1-9.341,3.4c-3.979.141-8.1-1.485-10.192-2.455h0a9.617,9.617,0,0,0-.593-7.508c-1.894-4.21-6.456-4.073-8.592-3.41a1.485,1.485,0,1,0,.874,2.839c.151-.045,3.715-1.107,5.018,1.79a6.86,6.86,0,0,1,.55,5.165,2.89,2.89,0,0,1-.235.462l-.225.227c-.02.022-2.3,2.269-8.156,2.854a9.266,9.266,0,0,1-.953.045c-4.466,0-8.954-2.921-10.638-4.136l.374-4.5a1.487,1.487,0,0,0-2.96-.266l-.368,4.468c-.884.536-3.414,1.782-7.944,1.782-.554,0-1.129-.02-1.706-.055-6.154-.393-6.8-6.667-6.853-7.264a4.053,4.053,0,0,1,2.193-3.253A3.2,3.2,0,0,1,83.6,69.25a.5.5,0,0,1-.106-.037l1.164-2.735c-.288-.121-1.851-.665-4.409.681a6.927,6.927,0,0,0-3.627,4.705,9.41,9.41,0,0,1-1.694.158c-3.306,0-5.66-1.731-7-5.141C65.159,59.809,71.392,53,72.006,52.357a7.553,7.553,0,0,1,4.85-1.686,4.567,4.567,0,0,1,4.3,2.841,1.491,1.491,0,0,0,2.819-.97,7.512,7.512,0,0,0-7.056-4.857A10.206,10.206,0,0,0,71.35,49.2a14.809,14.809,0,0,1-1.414-12.683c2.072-6.331,7.819-7.377,10.13-7.536a7.108,7.108,0,0,0,5.575,4,8.009,8.009,0,0,0,1.15.086,8.224,8.224,0,0,0,7.16-4.754,1.486,1.486,0,1,0-2.7-1.242c-.068.143-1.684,3.478-5.18,2.97a4.206,4.206,0,0,1-3.048-1.9l-.614-1.317a2.036,2.036,0,0,1-.088-.221,7.265,7.265,0,0,1-.293-1.976v-.139c.016-1.86.669-4.734,3.515-8.308,4.413-5.548,11.877-4.609,13.935-4.222l2.095,4.705a1.487,1.487,0,0,0,1.356.9,1.452,1.452,0,0,0,.6-.129,1.485,1.485,0,0,0,.755-1.972l-2.25-5.082c-.016-.033-.039-.061-.055-.094a8,8,0,0,1,5.759-5.816,9.9,9.9,0,0,1,2.745-.409,9.04,9.04,0,0,1,6,2.314l.331.346a4.075,4.075,0,0,1,.569,4.024,3.326,3.326,0,0,1-3.128,2.1,1.486,1.486,0,1,0-.278,2.958c.113,0,.223.014.336.014a6.313,6.313,0,0,0,5.742-3.77,6.762,6.762,0,0,0-.409-6.385,18.33,18.33,0,0,1,7.365-2.639,9.042,9.042,0,0,1,1.266-.088,10.95,10.95,0,0,1,6.559,2.426,7,7,0,0,0-1.569,3.093,6.058,6.058,0,0,0,4.186,7.32,1.541,1.541,0,0,0,.362.045,1.485,1.485,0,0,0,.36-2.927,3.073,3.073,0,0,1-2-3.805c.548-2.537,3.568-3.711,4.149-3.916a12.759,12.759,0,0,1,4.169-.726,11.165,11.165,0,0,1,3.938.712,9.044,9.044,0,0,1,5.264,5.069c.014.037.029.076.045.113a10.714,10.714,0,0,1,.806,3.316l-.025,2.5c-.489,2.119-1.592,2.128-2.093,2.128a3.214,3.214,0,0,1-1.688-.554,1.487,1.487,0,1,0-1.825,2.346,6.117,6.117,0,0,0,3.512,1.178c1.354,0,4.57-.542,5.19-5.577.035-.29.057-.573.07-.849a5.86,5.86,0,0,1,2.608,1.146,3.905,3.905,0,0,1,1.432,4.406l-.818,2.346,2.455-.393a10.351,10.351,0,0,1,1.59-.1,13.732,13.732,0,0,1,9.371,3.51c3.913,3.67,2.533,8.739,2.076,10.069-.158.333-2.228,4.56-5.127,4.695a2.015,2.015,0,0,1-1.524-.344,1.384,1.384,0,0,1-.16-.982,1.486,1.486,0,1,0-2.889-.7h0a4.337,4.337,0,0,0,.751,3.566,4.385,4.385,0,0,0,3.574,1.432c.127,0,.254,0,.385-.01,3.508-.162,5.906-3.328,7.015-5.174,2.15.358,7.6,1.913,8.314,8.475.438,4.022-2.676,6.321-3.682,6.955Z" transform="translate(-64.238 0.04)" fill="#b8c4e0"/>
                  <path id="Tracé_91" data-name="Tracé 91" d="M310.759,94.274a8.562,8.562,0,0,0-2.015-7.641c-4.793-5.769-12.057-4.5-16.57-2.455a10.425,10.425,0,0,0-7.05-7.911c-5.448-1.855-9.646,1.81-11.593,4.053a13.575,13.575,0,0,0-10-3.611,9.09,9.09,0,0,0-8.052,6.383,7.84,7.84,0,0,0,2.537,8.966,9.1,9.1,0,0,0,12.07-.315,1.486,1.486,0,0,0-2.031-2.168,6.115,6.115,0,0,1-8.183.158,4.965,4.965,0,0,1-1.571-5.693,6.186,6.186,0,0,1,5.3-4.361c6.168-.127,8.637,3.621,8.733,3.772a1.489,1.489,0,0,0,2.516.02c.039-.061,4.044-6.192,9.322-4.392a7.565,7.565,0,0,1,5.247,7.365,1.487,1.487,0,0,0,2.269,1.348c.381-.237,9.41-5.728,14.766.734a5.683,5.683,0,0,1,1.405,5.069,6.11,6.11,0,0,1-2.977,3.95c-1.943.874.018-1.457,0-1.473-.717-.374,1.6-.019,1.215.69s-1.915,1.322-1.215,1.727c1.136.585-.057,1.064,1.215,1.181,1.157.115-1.067,1.051,0,.588A9.047,9.047,0,0,0,310.759,94.274Z" transform="translate(-215.974 -60.254)" fill="#b8c4e0"/>
                  <path id="Tracé_92" data-name="Tracé 92" d="M182.3,191.758a6.808,6.808,0,0,0-.354-3.815h.016a7.762,7.762,0,0,0,2.547-.426,6.8,6.8,0,0,0,4.323-4.869,9.4,9.4,0,0,0-1.61-8.259c-2.735-3.236-7-2.424-8.866-1.54a1.486,1.486,0,0,0,1.268,2.688c.035-.016,3.367-1.553,5.331.771a6.445,6.445,0,0,1,1.023,5.55,3.915,3.915,0,0,1-2.428,2.848,5.726,5.726,0,0,1-4.527-.544A12.1,12.1,0,0,0,177.3,183l-.149-.133a1.486,1.486,0,0,0-2.1,2.1l.027.025c.031.029.2.19.471.409h0a12.124,12.124,0,0,0,1.841,1.244,4.882,4.882,0,0,1,2,4.552c-.614,3.255-3.015,3.422-3.3,3.431a1.485,1.485,0,1,0,.016,2.97C177.861,197.621,181.441,196.393,182.3,191.758Z" transform="translate(-152.031 -136.855)" fill="#b8c4e0"/>
                  <path id="Tracé_93" data-name="Tracé 93" d="M210.711,297.986a8.868,8.868,0,0,0-7.839,5.438,1.485,1.485,0,0,0,2.762,1.094.1.1,0,0,0,.01-.027,5.918,5.918,0,0,1,5.163-3.539c3.263-.1,3.609,3.555,3.639,3.963a1.487,1.487,0,0,0,1.481,1.4h.094a1.483,1.483,0,0,0,1.391-1.571C217.262,302.337,215.678,297.834,210.711,297.986Z" transform="translate(-174.428 -237.015)" fill="#b8c4e0"/>
                  <path id="Tracé_94" data-name="Tracé 94" d="M507.335,233.74c-2.385-2.009-5.99-1.414-6.137-1.385a1.352,1.352,0,0,0,.46,2.659c.025,0,2.531-.4,3.94.792a3.342,3.342,0,0,1,1.023,2.727,4.1,4.1,0,0,1-1.1,3.136,4.654,4.654,0,0,1-3.122.986,1.358,1.358,0,0,0-1.432,1.673,4.762,4.762,0,0,1-.344,3.314,2.055,2.055,0,0,1-1.616.757,2.856,2.856,0,0,1-2.33-.614,3.494,3.494,0,0,1-.771-2.441,1.354,1.354,0,1,0-2.7-.215h0a6.16,6.16,0,0,0,1.544,4.558,5.151,5.151,0,0,0,3.809,1.432c.2,0,.434-.01.663-.029a4.672,4.672,0,0,0,3.6-1.872,6.285,6.285,0,0,0,.994-3.954,6.213,6.213,0,0,0,5.519-6.741A6.021,6.021,0,0,0,507.335,233.74Z" transform="translate(-405.439 -184.731)" fill="#b8c4e0"/>
                </g>
              </g>
            </g>
          </g>
        </g>
      </g>
    </g>
    <g id="Group_11863" data-name="Group 11863" transform="translate(7827.4 1250.298)">
      <g id="Group_11860" data-name="Group 11860" transform="translate(25.339 45.674)">
        <g id="Group_22" data-name="Group 22" transform="translate(0 0)">
          <path id="Path_51" data-name="Path 51" d="M369.868,474.633a8.569,8.569,0,0,1-1.213,4.448,7.1,7.1,0,0,1-2.784,2.661,5.972,5.972,0,0,1-5.549,0,7.119,7.119,0,0,1-2.784-2.661,8.592,8.592,0,0,1-1.212-4.448c0-3.139,1.61-1.7,3.931-.693a6.167,6.167,0,0,0,5.679,0C368.256,472.93,369.868,471.494,369.868,474.633Z" transform="translate(-356.325 -472.719)" fill="#8595ba"/>
        </g>
        <path id="Path_52" data-name="Path 52" d="M387.649,491.025a9.945,9.945,0,0,1-5.549,0,2.8,2.8,0,0,1,5.549,0Z" transform="translate(-375.959 -485.081)" fill="#8595ba"/>
      </g>
      <g id="Group_11861" data-name="Group 11861" transform="translate(0 0)">
        <path id="Path_22522" data-name="Path 22522" d="M0,8.582S4.135,2.5,9.1.675s10.757.62,10.757.62" transform="translate(52.387 0) rotate(47)" fill="none" stroke="#8595ba" stroke-linecap="round" stroke-linejoin="bevel" stroke-width="3"/>
        <path id="Path_22523" data-name="Path 22523" d="M0,0S4.135,6.085,9.1,7.906s10.757-.619,10.757-.619" transform="translate(19.818 5.853) rotate(133)" fill="none" stroke="#8595ba" stroke-linecap="round" stroke-linejoin="bevel" stroke-width="3"/>
      </g>
      <g id="Group_11862" data-name="Group 11862" transform="translate(5.159 19.508)">
        <g id="Group_10734" data-name="Group 10734" transform="translate(37.036 0)">
          <g id="Group_29" data-name="Group 29">
            <path id="Path_97" data-name="Path 97" d="M309.1,511.419a9.379,9.379,0,1,1-9.379-9.379A9.377,9.377,0,0,1,309.1,511.419Z" transform="translate(-290.343 -502.04)" fill="none" stroke="#8595ba" stroke-width="3"/>
            <path id="Path_98" data-name="Path 98" d="M298.9,508.146a3.683,3.683,0,1,1-3.685-3.68A3.689,3.689,0,0,1,298.9,508.146Z" transform="translate(-285.907 -495.278)" fill="#8595ba" stroke="#8595ba" stroke-width="3"/>
          </g>
        </g>
        <g id="Group_10742" data-name="Group 10742" transform="translate(0 0)">
          <g id="Group_29-2" data-name="Group 29">
            <path id="Path_97-2" data-name="Path 97" d="M309.1,511.419a9.379,9.379,0,1,1-9.379-9.379A9.377,9.377,0,0,1,309.1,511.419Z" transform="translate(-290.343 -502.04)" fill="none" stroke="#8595ba" stroke-width="3"/>
            <path id="Path_98-2" data-name="Path 98" d="M298.9,508.146a3.683,3.683,0,1,1-3.685-3.68A3.689,3.689,0,0,1,298.9,508.146Z" transform="translate(-285.907 -495.278)" fill="#8595ba" stroke="#8595ba" stroke-width="3"/>
          </g>
        </g>
      </g>
    </g>
    <g id="thinking-bubble" transform="translate(7877.787 1206.501)">
      <g id="Group_11865" data-name="Group 11865" transform="translate(0 25.881)">
        <g id="Group_11864" data-name="Group 11864">
          <path id="Path_24063" data-name="Path 24063" d="M2.05,385.531A2.049,2.049,0,1,0,4.1,387.58,2.052,2.052,0,0,0,2.05,385.531Zm0,2.916a.867.867,0,1,1,.867-.867A.868.868,0,0,1,2.05,388.447Z" transform="translate(0 -385.531)" fill="#8595ba"/>
        </g>
      </g>
      <g id="Group_11867" data-name="Group 11867" transform="translate(20.398 4.45)">
        <g id="Group_11866" data-name="Group 11866">
          <path id="Path_24064" data-name="Path 24064" d="M273.544,117.228a6.114,6.114,0,0,0-1.8-3.314.591.591,0,1,0-.818.854,4.937,4.937,0,0,1,1.452,2.676,1.181,1.181,0,0,0,.959.945,4.974,4.974,0,0,1,0,9.8,1.181,1.181,0,0,0-.959.945A4.973,4.973,0,0,1,266.5,133.1a1.172,1.172,0,0,0-1.2.477,5.9,5.9,0,0,1-5.918,2.433.591.591,0,0,0-.215,1.163,7.084,7.084,0,0,0,7.1-2.914,6.15,6.15,0,0,0,7.275-4.895,6.155,6.155,0,0,0,.005-12.132Z" transform="translate(-258.681 -113.749)" fill="#8595ba"/>
        </g>
      </g>
      <g id="Group_11869" data-name="Group 11869" transform="translate(4.041 0)">
        <g id="Group_11868" data-name="Group 11868">
          <path id="Path_24065" data-name="Path 24065" d="M78,60.428a6.189,6.189,0,0,0-2.815-.083,7.08,7.08,0,0,0-11.605-.012,6.15,6.15,0,0,0-7.217,4.907,6.155,6.155,0,0,0-.005,12.132,6.157,6.157,0,0,0,7.223,4.912,7.094,7.094,0,0,0,1.686,1.7.592.592,0,1,0,.688-.962,5.913,5.913,0,0,1-1.41-1.424,1.169,1.169,0,0,0-1.182-.478,4.976,4.976,0,0,1-5.843-3.965,1.181,1.181,0,0,0-.959-.945,4.974,4.974,0,0,1,0-9.8,1.181,1.181,0,0,0,.959-.945A4.974,4.974,0,0,1,63.358,61.5a1.17,1.17,0,0,0,1.182-.478,5.894,5.894,0,0,1,9.675.01,1.172,1.172,0,0,0,1.2.477,5,5,0,0,1,2.278.067.591.591,0,0,0,.3-1.143Z" transform="translate(-51.241 -57.315)" fill="#8595ba"/>
        </g>
      </g>
      <g id="Group_11871" data-name="Group 11871" transform="translate(5.437 24.316)">
        <g id="Group_11870" data-name="Group 11870">
          <path id="Path_24066" data-name="Path 24066" d="M75.911,368.6a.591.591,0,0,0-1.166.2,2.324,2.324,0,1,1-1.365-1.736.591.591,0,0,0,.472-1.085,3.508,3.508,0,1,0,2.059,2.62Z" transform="translate(-68.947 -365.683)" fill="#8595ba"/>
        </g>
      </g>
    </g>
  </g>
</svg>
