<svg xmlns="http://www.w3.org/2000/svg" width="52.279" height="70.37" viewBox="0 0 52.279 70.37">
  <g id="Group_14084" data-name="Group 14084" transform="translate(0 -2.502)">
    <g id="Groupe_10784" data-name="Groupe 10784" transform="translate(0 24.693)">
      <g id="Groupe_10765" data-name="Groupe 10765" transform="translate(0)">
        <g id="Groupe_10764" data-name="Groupe 10764">
          <g id="Groupe_10738" data-name="Groupe 10738">
            <g id="Groupe_34" data-name="Groupe 34">
              <g id="Groupe_25" data-name="Groupe 25" transform="translate(11.431 27.666)">
                <path id="Tracé_87" data-name="Tracé 87" d="M3.622,0s1.1,17.137.552,17.641-3.582.054-4.133,1,4.629.891,5.291.31S5.332,0,5.332,0Z" transform="matrix(0.94, -0.342, 0.342, 0.94, 0, 1.924)" fill="#8595ba"/>
                <path id="Tracé_88" data-name="Tracé 88" d="M2.006,0S.9,17.137,1.453,17.645s3.582.053,4.133,1-4.629.891-5.291.309S.294,0,.294,0Z" transform="translate(25.669 0.922) rotate(30)" fill="#8595ba"/>
              </g>
              <g id="Groupe_27" data-name="Groupe 27">
                <path id="Tracé_89" data-name="Tracé 89" d="M47.46,223.076a4.257,4.257,0,0,0,3.765-.07,3.177,3.177,0,0,0,1.719-2.406,5.008,5.008,0,0,0,5.019-1.17c2.406-2.2,1.306-6.584,1.306-6.584a3.816,3.816,0,0,0,1.995-3.589c-.423-3.9-4.4-4.126-4.4-4.126s1.238-2.956-.963-5.019a6.462,6.462,0,0,0-5.088-1.581,2.272,2.272,0,0,0-.826-2.545,2.448,2.448,0,0,0-2.471-.387,4.244,4.244,0,0,0-2.609-4.192,5.851,5.851,0,0,0-5.029.592,5.179,5.179,0,0,0-4.194-1.513,7.714,7.714,0,0,0-3.851,1.581,4.364,4.364,0,0,0-4.261-.962,3.962,3.962,0,0,0-2.888,3.163s-4.415-1.229-6.821,1.789-1.238,5.555-1.238,5.555-3.975-.542-5.212,3.24a6.681,6.681,0,0,0,1.031,6.326s-3.232,3.231-1.857,6.738a4.116,4.116,0,0,0,4.669,2.769A3.64,3.64,0,0,0,18.77,223.9c3.232.206,4.612-.962,4.612-.962S26.2,225.275,28.953,225s3.782-1.374,3.782-1.374a11.316,11.316,0,0,0,5.157,1.393,8.6,8.6,0,0,0,4.6-1.8,2.718,2.718,0,0,0,2.544,1.238A3.712,3.712,0,0,0,47.46,223.076Z" transform="translate(-9.625 -189.816)" fill="#f3f6fe"/>
                <g id="Groupe_26" data-name="Groupe 26">
                  <path id="Tracé_90" data-name="Tracé 90" d="M54.454,201.7a5.148,5.148,0,0,0-4.214-4.57,5.022,5.022,0,0,0-1.342-4.96,6.951,6.951,0,0,0-4.749-1.8h-.034a2.769,2.769,0,0,0-1.2-2.383,3.45,3.45,0,0,0-1.894-.712,4.068,4.068,0,0,0-.419-1.134A4.966,4.966,0,0,0,37.7,183.34a5.907,5.907,0,0,0-2.073-.374,6.518,6.518,0,0,0-2.034.337h-.017c-.012,0-.068.022-.15.053l-.084.031h-.008a7.071,7.071,0,0,0-.794.353,5.826,5.826,0,0,0-3.664-1.409,5,5,0,0,0-.7.049,8.789,8.789,0,0,0-3.747,1.4,5,5,0,0,0-2.967-.983,5.352,5.352,0,0,0-1.488.217,4.541,4.541,0,0,0-3.18,3.041c-1.356-.2-4.617-.349-6.689,2.256a6.9,6.9,0,0,0-1.729,4.244v.014a3.722,3.722,0,0,0,.043.643A5.729,5.729,0,0,0,3.4,197.175a7.322,7.322,0,0,0,.793,6.443c-.07.077-.114.128-.122.138a.635.635,0,0,0-.113.232c-.942,1.222-2.487,3.83-1.373,6.669a4.2,4.2,0,0,0,4.067,2.929,5.169,5.169,0,0,0,.742-.055,4.218,4.218,0,0,0,3.91,3.5c.266.018.532.026.789.026a7.778,7.778,0,0,0,3.827-.851,9.563,9.563,0,0,0,5.141,1.948c.175,0,.35-.009.52-.025A8.406,8.406,0,0,0,25,217.124a2.141,2.141,0,0,0,.416-.232,11.713,11.713,0,0,0,4.823,1.266h.248a8.9,8.9,0,0,0,4.464-1.572,2.053,2.053,0,0,0,.221.205.542.542,0,0,0,.051.028,3.186,3.186,0,0,0,2.1.781h0a3.423,3.423,0,0,0,.356-.018,3.869,3.869,0,0,0,2.52-1.268,5.768,5.768,0,0,0,1.825.316,3.853,3.853,0,0,0,2.114-.591,4.328,4.328,0,0,0,1.847-2.166,5.665,5.665,0,0,0,4.976-1.472c2.2-2.012,1.806-5.511,1.581-6.751A4.246,4.246,0,0,0,54.454,201.7Zm-2.766,3.031c-.33-.1-.734-.214-1.226-.337a2.438,2.438,0,0,0-2.458.643,2.089,2.089,0,0,0-.4,2.146,1.762,1.762,0,0,0,1.787,1.165,2.945,2.945,0,0,0,.928-.155.56.56,0,0,0-.352-1.062l-.011,0c-.043.015-1.047.35-1.3-.339a.986.986,0,0,1,.178-1.013,1.329,1.329,0,0,1,1.354-.306c.444.111.811.214,1.112.3.177.945.6,4.076-1.181,5.7a4.473,4.473,0,0,1-3.086,1.248,4.141,4.141,0,0,1-1.236-.177l-1.114-2.146a.619.619,0,0,0-1.1.571l1.252,2.41A3.045,3.045,0,0,1,43.467,215a2.64,2.64,0,0,1-1.446.387,4.752,4.752,0,0,1-1.743-.37l-.121-.05H40.03a.8.8,0,0,0-.619.359,2.682,2.682,0,0,1-1.864,1.02q-.116.012-.232.012h0a2.071,2.071,0,0,1-1.617-.809,2,2,0,0,1-.3-1.168,1.012,1.012,0,0,1,.464-.844c.792-.456,1.175-.069,1.275.064a.62.62,0,0,0,1.021-.7,2.1,2.1,0,0,0-2.908-.43,2.217,2.217,0,0,0-1.083,1.828,3.2,3.2,0,0,0,.159,1.211,7.716,7.716,0,0,1-3.891,1.414,10,10,0,0,1-4.245-1.024h0a4,4,0,0,0-.248-3.127,2.9,2.9,0,0,0-3.582-1.42.619.619,0,1,0,.332,1.192l.032-.01c.063-.019,1.547-.464,2.089.746a2.867,2.867,0,0,1,.232,2.151,1.211,1.211,0,0,1-.1.192l-.1.091a5.789,5.789,0,0,1-3.4,1.188c-.132.013-.264.019-.4.019a8.426,8.426,0,0,1-4.427-1.723l.155-1.876a.621.621,0,1,0-1.238-.1l-.155,1.862a6.4,6.4,0,0,1-3.309.742c-.232,0-.47-.009-.71-.023-2.555-.164-2.826-2.777-2.848-3.026a1.693,1.693,0,0,1,.914-1.355,1.337,1.337,0,0,1,.821-.224.177.177,0,0,1-.044-.016l.484-1.14a2.2,2.2,0,0,0-1.836.284,2.886,2.886,0,0,0-1.51,1.961,3.926,3.926,0,0,1-.7.065,2.978,2.978,0,0,1-2.915-2.142c-1.152-2.945,1.444-5.784,1.7-6.052a3.152,3.152,0,0,1,2.02-.7,1.909,1.909,0,0,1,1.792,1.184.619.619,0,0,0,.585.418.641.641,0,0,0,.2-.032.619.619,0,0,0,.387-.784,3.136,3.136,0,0,0-2.94-2.023,4.265,4.265,0,0,0-2.317.627,6.162,6.162,0,0,1-.589-5.281A4.6,4.6,0,0,1,8.8,194.422a2.962,2.962,0,0,0,2.321,1.666,3.3,3.3,0,0,0,.479.036,3.429,3.429,0,0,0,2.982-1.98.619.619,0,1,0-1.125-.518h0a2.159,2.159,0,0,1-2.157,1.238,1.749,1.749,0,0,1-1.27-.791l-.254-.55a.968.968,0,0,1-.036-.092,3.029,3.029,0,0,1-.124-.822v-.058a5.714,5.714,0,0,1,1.464-3.46c1.838-2.31,4.947-1.919,5.8-1.759l.873,1.961a.619.619,0,0,0,.566.367.611.611,0,0,0,.251-.054.619.619,0,0,0,.314-.816l-.942-2.118c-.006-.014-.015-.026-.022-.039a3.341,3.341,0,0,1,2.4-2.422,4.085,4.085,0,0,1,1.144-.168,3.763,3.763,0,0,1,2.5.968l.138.144a1.7,1.7,0,0,1,.238,1.676,1.387,1.387,0,0,1-1.3.874.619.619,0,0,0-.115,1.228,1.389,1.389,0,0,0,.139.005,2.631,2.631,0,0,0,2.392-1.571,2.8,2.8,0,0,0-.173-2.658,7.642,7.642,0,0,1,3.067-1.1,3.873,3.873,0,0,1,.528-.036,4.556,4.556,0,0,1,2.731,1.01,2.916,2.916,0,0,0-.653,1.288,2.525,2.525,0,0,0,1.743,3.048.619.619,0,1,0,.3-1.2,1.282,1.282,0,0,1-.835-1.585c.232-1.056,1.486-1.547,1.728-1.63a5.307,5.307,0,0,1,1.736-.3,4.658,4.658,0,0,1,1.64.3,3.765,3.765,0,0,1,2.192,2.111c.006.015.012.032.019.046a4.458,4.458,0,0,1,.336,1.381l-.011,1.043c-.2.884-.662.884-.871.884a1.326,1.326,0,0,1-.7-.232.621.621,0,0,0-.761.982,2.546,2.546,0,0,0,1.464.488c.564,0,1.9-.226,2.162-2.321.015-.121.023-.238.029-.353A2.424,2.424,0,0,1,42.2,189a1.622,1.622,0,0,1,.6,1.834l-.336.982,1.023-.164a4.505,4.505,0,0,1,.662-.041,5.72,5.72,0,0,1,3.9,1.462,3.977,3.977,0,0,1,.865,4.194c-.066.138-.928,1.9-2.135,1.956a.845.845,0,0,1-.635-.144.579.579,0,0,1-.066-.409.619.619,0,0,0-1.2-.289,1.652,1.652,0,0,0,1.8,2.082h.16a3.994,3.994,0,0,0,2.922-2.155,3.929,3.929,0,0,1,3.462,3.53,3.1,3.1,0,0,1-1.535,2.9Z" transform="translate(-2.2 -182.33)" fill="#b8c4e0"/>
                  <path id="Tracé_91" data-name="Tracé 91" d="M235.544,273.575a3.57,3.57,0,0,0-.84-3.182c-2-2.4-5.021-1.872-6.9-1.021a4.334,4.334,0,0,0-2.936-3.294c-2.269-.774-4.017.754-4.829,1.687a5.658,5.658,0,0,0-4.163-1.5,3.788,3.788,0,0,0-3.354,2.658,3.262,3.262,0,0,0,1.057,3.735,3.793,3.793,0,0,0,5.029-.131.619.619,0,0,0-.846-.9,2.546,2.546,0,0,1-3.41.066,2.07,2.07,0,0,1-.655-2.371,2.573,2.573,0,0,1,2.207-1.816,4.133,4.133,0,0,1,3.636,1.571.619.619,0,0,0,.851.2.632.632,0,0,0,.195-.192c.016-.026,1.684-2.579,3.883-1.829a3.149,3.149,0,0,1,2.185,3.069.619.619,0,0,0,.945.562c.159-.1,3.917-2.382,6.149.309a2.366,2.366,0,0,1,.586,2.112,2.544,2.544,0,0,1-1.238,1.645,2.392,2.392,0,0,1-1.829-.176.619.619,0,1,0-.6,1.083,4.165,4.165,0,0,0,1.52.442,2.854,2.854,0,0,0,1.413-.221A3.79,3.79,0,0,0,235.544,273.575Z" transform="translate(-196.065 -259.402)" fill="#b8c4e0"/>
                  <path id="Tracé_92" data-name="Tracé 92" d="M126.745,380.116a2.831,2.831,0,0,0-.147-1.589h.007a3.219,3.219,0,0,0,1.057-.177,2.836,2.836,0,0,0,1.8-2.028,3.918,3.918,0,0,0-.671-3.44,3.148,3.148,0,0,0-3.693-.641.619.619,0,1,0,.528,1.12,1.974,1.974,0,0,1,2.221.321,2.677,2.677,0,0,1,.423,2.313,1.64,1.64,0,0,1-1.012,1.185,2.382,2.382,0,0,1-1.885-.227,5.087,5.087,0,0,0-.719-.482l-.062-.056a.619.619,0,1,0-.865.884c.013.012.083.077.2.173l0,0a5.166,5.166,0,0,0,.766.518,2.035,2.035,0,0,1,.836,1.9c-.253,1.356-1.257,1.425-1.376,1.429a.619.619,0,0,0,.007,1.238A2.75,2.75,0,0,0,126.745,380.116Z" transform="translate(-114.137 -357.246)" fill="#b8c4e0"/>
                  <path id="Tracé_93" data-name="Tracé 93" d="M157.939,510.6a3.694,3.694,0,0,0-3.264,2.265.619.619,0,1,0,1.141.478c0-.011.009-.022.013-.033a2.456,2.456,0,0,1,2.15-1.47c1.359-.042,1.5,1.48,1.516,1.65a.619.619,0,0,0,.619.581h.039a.619.619,0,0,0,.579-.655A2.79,2.79,0,0,0,157.939,510.6Z" transform="translate(-142.826 -485.2)" fill="#b8c4e0"/>
                  <path id="Tracé_94" data-name="Tracé 94" d="M480.409,438.8a3.463,3.463,0,0,0-2.56-.577.563.563,0,1,0,.192,1.11,2.377,2.377,0,0,1,1.641.33,1.391,1.391,0,0,1,.424,1.136,1.709,1.709,0,0,1-.459,1.307,1.937,1.937,0,0,1-1.3.41.565.565,0,0,0-.6.7,1.964,1.964,0,0,1-.142,1.381.859.859,0,0,1-.673.315,1.2,1.2,0,0,1-.971-.254,1.455,1.455,0,0,1-.321-1.017.564.564,0,1,0-1.125-.089,2.551,2.551,0,0,0,.644,1.9,2.148,2.148,0,0,0,1.586.6c.089,0,.181,0,.275-.012a1.949,1.949,0,0,0,1.5-.78,2.621,2.621,0,0,0,.414-1.647,2.587,2.587,0,0,0,2.3-2.807A2.481,2.481,0,0,0,480.409,438.8Z" transform="translate(-437.967 -418.386)" fill="#b8c4e0"/>
                </g>
              </g>
            </g>
          </g>
          <g id="Groupe_23" data-name="Groupe 23" transform="translate(23.3 26.115)">
            <g id="Groupe_22" data-name="Groupe 22">
              <path id="Tracé_51" data-name="Tracé 51" d="M308.351,520.559a3.173,3.173,0,0,1-.449,1.643,2.617,2.617,0,0,1-1.029.983,2.2,2.2,0,0,1-2.05,0,2.63,2.63,0,0,1-1.028-.983,3.171,3.171,0,0,1-.446-1.643c0-1.161.594-.63,1.452-.256a2.278,2.278,0,0,0,2.1,0C307.757,519.93,308.351,519.4,308.351,520.559Z" transform="translate(-303.349 -519.851)" fill="#8595ba"/>
            </g>
            <path id="Tracé_52" data-name="Tracé 52" d="M334.72,537.622a3.679,3.679,0,0,1-2.05,0,1.035,1.035,0,0,1,2.05,0Z" transform="translate(-330.401 -535.425)" fill="#8595ba"/>
          </g>
          <g id="Groupe_10762" data-name="Groupe 10762" transform="translate(15.906 26.027)">
            <path id="Tracé_43" data-name="Tracé 43" d="M327.556,520.93l10.053-2.21-2.139,13.639-9.31,1.911Z" transform="translate(-317.001 -518.72)" fill="#b8c4e0"/>
            <path id="Tracé_44" data-name="Tracé 44" d="M218.335,520.93l-10.555-2.21.553,13.785,8.606,1.765Z" transform="translate(-207.78 -518.72)" fill="#b8c4e0"/>
          </g>
          <path id="Tracé_22526" data-name="Tracé 22526" d="M7.162,477.608a3.069,3.069,0,0,1,.232.344A57.789,57.789,0,0,0,4.43,484.06c-.893,2.205,8.259,2.137,11.021,2,.523-.025,1.336-1.766,1.845-1.537s-.232.942-.232.942,1.051-.566,1.4-.387,1.784,1.506.357,2.22-15-.091-15.784-1.675c-.6-1.211,1.581-6.157,2.624-8.388C6.183,477.245,6.868,477.228,7.162,477.608Z" transform="translate(-2.878 -454.422)" fill="#8595ba"/>
          <g id="Groupe_10758" data-name="Groupe 10758" transform="translate(14.289 11.304)">
            <path id="Tracé_22522" data-name="Tracé 22522" d="M402.54,328.531a8.791,8.791,0,0,1,4.429.464,6.192,6.192,0,0,1,2.543,3.063" transform="translate(-385.854 -328.433)" fill="none" stroke="#8595ba" stroke-linecap="round" stroke-linejoin="bevel" stroke-width="2"/>
            <path id="Tracé_22523" data-name="Tracé 22523" d="M193.853,328.531a8.794,8.794,0,0,0-4.43.464,6.192,6.192,0,0,0-2.543,3.063" transform="translate(-186.88 -328.433)" fill="none" stroke="#8595ba" stroke-linecap="round" stroke-linejoin="bevel" stroke-width="2"/>
          </g>
          <g id="Groupe_10736" data-name="Groupe 10736" transform="translate(15.844 16.448)">
            <g id="Groupe_10734" data-name="Groupe 10734" transform="translate(13.684)">
              <g id="Groupe_29" data-name="Groupe 29">
                <path id="Tracé_97" data-name="Tracé 97" d="M390.771,398.375a3.465,3.465,0,1,1-3.465-3.465,3.465,3.465,0,0,1,3.465,3.465Z" transform="translate(-383.84 -394.91)" fill="none" stroke="#8595ba" stroke-width="1"/>
                <path id="Tracé_98" data-name="Tracé 98" d="M413.432,440.149a1.361,1.361,0,1,1-1.363-1.359h0A1.363,1.363,0,0,1,413.432,440.149Z" transform="translate(-408.631 -435.395)" fill="#8595ba" stroke="#8595ba" stroke-width="1"/>
              </g>
            </g>
            <g id="Groupe_10742" data-name="Groupe 10742">
              <g id="Groupe_29-2" data-name="Groupe 29-2">
                <path id="Tracé_97-2" data-name="Tracé 97-2" d="M213.911,398.375a3.465,3.465,0,1,1-3.465-3.465A3.466,3.466,0,0,1,213.911,398.375Z" transform="translate(-206.98 -394.91)" fill="none" stroke="#8595ba" stroke-width="1"/>
                <path id="Tracé_98-2" data-name="Tracé 98-2" d="M236.542,440.149a1.361,1.361,0,1,1-1.363-1.359h0A1.363,1.363,0,0,1,236.542,440.149Z" transform="translate(-231.743 -435.395)" fill="#8595ba" stroke="#8595ba" stroke-width="1"/>
              </g>
            </g>
          </g>
          <path id="Tracé_22524" data-name="Tracé 22524" d="M184.635,388H172.977a.482.482,0,0,0-.25.07,3.25,3.25,0,0,0-3.718.01.475.475,0,0,0-.265-.077H157.093a.444.444,0,1,0-.039.887h.675v4.83a1.772,1.772,0,0,0,1.715,1.822h7.943a1.771,1.771,0,0,0,1.712-1.822v-4.385a.394.394,0,0,0,.055-.077,1.924,1.924,0,0,1,1.721-.878,1.89,1.89,0,0,1,1.752.942v4.4a1.771,1.771,0,0,0,1.713,1.822h7.945A1.773,1.773,0,0,0,184,393.724V388.89h.637a.444.444,0,0,0,.039-.887Zm-17.248,6.654h-7.943a.873.873,0,0,1-.788-.935V388.89h9.517v4.833a.868.868,0,0,1-.785.935Zm15.686-.934a.873.873,0,0,1-.788.935h-7.944a.873.873,0,0,1-.788-.935V388.89h9.521Z" transform="translate(-144.665 -371.621)" fill="#8595ba"/>
        </g>
        <path id="Tracé_22527" data-name="Tracé 22527" d="M436.324,477.608a3.161,3.161,0,0,0-.232.344,57.945,57.945,0,0,1,2.965,6.107c.893,2.205-8.256,2.137-11.02,2-.524-.025-1.337-1.766-1.845-1.537s.232.942.232.942-1.051-.566-1.4-.387-1.785,1.506-.357,2.22,15-.089,15.782-1.673c.6-1.216-1.579-6.16-2.623-8.39C437.3,477.245,436.619,477.228,436.324,477.608Z" transform="translate(-391.407 -454.422)" fill="#8595ba"/>
      </g>
      <g id="Groupe_10773" data-name="Groupe 10773" transform="translate(0.057 22.818)">
        <path id="Tracé_22528" data-name="Tracé 22528" d="M7.162,477.608a3.162,3.162,0,0,1,.232.344A58.105,58.105,0,0,0,4.43,484.06c-.893,2.205,8.259,2.137,11.021,2,.523-.025,1.336-1.766,1.845-1.536s-.232.941-.232.941,1.05-.566,1.4-.387,1.784,1.506.357,2.22-15-.091-15.784-1.675c-.6-1.211,1.581-6.157,2.624-8.388C6.183,477.245,6.868,477.228,7.162,477.608Z" transform="translate(-2.935 -477.24)" fill="#8595ba"/>
        <path id="Tracé_22529" data-name="Tracé 22529" d="M436.342,481.516a3.215,3.215,0,0,0-.232.344,57.954,57.954,0,0,1,2.965,6.107c.894,2.207-8.255,2.139-11.018,2.007-.524-.025-1.337-1.766-1.845-1.536s.232.941.232.941-1.051-.566-1.4-.387-1.785,1.506-.357,2.22,15-.089,15.781-1.673c.6-1.216-1.579-6.16-2.623-8.39C437.323,481.155,436.637,481.138,436.342,481.516Z" transform="translate(-391.482 -480.848)" fill="#8595ba"/>
      </g>
    </g>
    <g id="Espace-pro-V2a" transform="translate(27.128 2.502)">
      <path id="Shape" d="M5.022,17.981A1.686,1.686,0,1,1,6.7,16.3,1.682,1.682,0,0,1,5.022,17.981ZM6.7,11.126v1.8a.56.56,0,0,1-.558.562H3.906a.56.56,0,0,1-.558-.562v-2.81A2.243,2.243,0,0,1,5.58,7.867,2.248,2.248,0,1,0,3.348,5.619v.562a.56.56,0,0,1-.558.562H.558A.56.56,0,0,1,0,6.181V5.619a5.58,5.58,0,1,1,6.7,5.507Z" transform="matrix(0.966, 0.259, -0.259, 0.966, 4.654, 0)" fill="#8a7dd1"/>
    </g>
    <g id="Espace-pro-V2a-2" data-name="Espace-pro-V2a" transform="translate(7.097 7.717) rotate(-30)">
      <path id="Shape-2" data-name="Shape" d="M5.022,17.981A1.686,1.686,0,1,1,6.7,16.3,1.682,1.682,0,0,1,5.022,17.981ZM6.7,11.126v1.8a.56.56,0,0,1-.558.562H3.906a.56.56,0,0,1-.558-.562v-2.81A2.243,2.243,0,0,1,5.58,7.867,2.248,2.248,0,1,0,3.348,5.619v.562a.56.56,0,0,1-.558.562H.558A.56.56,0,0,1,0,6.181V5.619a5.58,5.58,0,1,1,6.7,5.507Z" transform="matrix(-0.966, -0.259, 0.259, -0.966, 10.78, 20.257)" fill="#8a7dd1"/>
    </g>
  </g>
</svg>
