<svg xmlns="http://www.w3.org/2000/svg" width="199.699" height="110.15" viewBox="0 0 199.699 110.15">
  <g id="Group_14964" data-name="Group 14964" transform="translate(-88 -270.84)">
    <g id="Group_13207" data-name="Group 13207" transform="translate(7 95.859)">
      <g id="Group_12397" data-name="Group 12397" transform="translate(81 190.066)">
        <g id="Group_12390" data-name="Group 12390">
          <g id="Groupe_11172" data-name="Groupe 11172" transform="translate(0 0)">
            <g id="fusee" transform="translate(0 0)">
              <g id="OBJECTS">
                <g id="Groupe_10733" data-name="Groupe 10733">
                  <path id="Tracé_20852" data-name="Tracé 20852" d="M173.472,87.142c-10.415,6.168-18.984,7.467-25.011,7.467-15.415-.066-36.113-8.635-43.995-9.181a106.771,106.771,0,0,0-11.517.066c-7.533.273-12.816.942-17.336,1.441-5.65.612-13.984,1.375-24.4,1.883-.819.132-18.833,2.326-28.1-10.7-.678-.9-7.467-10.791-4.172-19.078,1.789-4.52,7.336-10.481,13.569-13.908,1.507-.819,2.467-1.168,2.825-2.26C36.761,38.42,23.653,33.627,22.3,25.6c-.687-4.04,1.3-10.274,14.191-19.869C45.4,1.554,58-2.42,70.548,1.827,81.236,5.462,82.2,11.7,91.989,13.617,104.4,15.952,107.753,6.9,129,3.409c8.918-1.507,18.362-2.881,27.76,2.119,1.883,1.036,12.882,6.855,14.389,16.95,1.78,12.129-14.125,17.543-12.336,27.553,1.883,11.1,22.412,12.242,23.645,22.675C183.133,78.093,178.34,83.234,173.472,87.142Z" transform="translate(-1.053 -0.008)" fill="#dfe4f4"/>
                  <circle id="Ellipse_392" data-name="Ellipse 392" cx="6.921" cy="6.921" r="6.921" transform="translate(185.857 3.589)" fill="#dfe4f4"/>
                  <circle id="Ellipse_393" data-name="Ellipse 393" cx="3.428" cy="3.428" r="3.428" transform="translate(177.146 19.419)" fill="#dfe4f4"/>
                  <circle id="Ellipse_394" data-name="Ellipse 394" cx="5.415" cy="5.415" r="5.415" transform="translate(0 69.384)" fill="#dfe4f4"/>
                  <circle id="Ellipse_395" data-name="Ellipse 395" cx="5.415" cy="5.415" r="5.415" transform="translate(183.041 54.1)" fill="#dfe4f4"/>
                  <circle id="Ellipse_396" data-name="Ellipse 396" cx="5.415" cy="5.415" r="5.415" transform="translate(10.754 2.629)" fill="#dfe4f4"/>
                </g>
              </g>
            </g>
          </g>
        </g>
      </g>
      <g id="Groupe_10766" data-name="Groupe 10766" transform="translate(95.124 174.981)">
        <g id="Groupe_10757" data-name="Groupe 10757" transform="translate(0 36.7)">
          <path id="Tracé_34" data-name="Tracé 34" d="M39.46,202.148c-.052.1-5.309,10.421-16.437,9.091-4.489-.537-7.8-3.028-9.854-7.409a21.4,21.4,0,0,1-1.789-6.19c1.346-.709,2.849-2.2,3.672-5.327,1.534-5.832-4.431-4.908-4.967-2.839A1.3,1.3,0,0,0,8.2,188.231c-1.987.614-2.384,3.013-2.041,5.273a3.545,3.545,0,0,1-.377-4.371c1.488-2.583,1.9-3.61.974-4.29-1.053-.779-5.639,3.455-2.424,8.808a4.592,4.592,0,0,1-1.694-4.632c.622-3.042.7-4.081-.336-4.351-1.59-.417-6.127,11.63,5.327,13.452a25.1,25.1,0,0,0,2.046,7.2c2.607,5.639,7.072,8.989,12.9,9.687a20.1,20.1,0,0,0,2.418.145,19.087,19.087,0,0,0,12.983-5.123,23.116,23.116,0,0,0,4.9-6.2ZM8.237,191.994c.659-1.659,1.462-.737,1.82-2.092h0a1.224,1.224,0,0,0,.088.338s.169.719,1.689.546.451,3.839-.621,4.081S7.161,194.718,8.237,191.994Z" transform="translate(-0.072 -184.657)" fill="#8595ba"/>
        </g>
        <g id="Groupe_12" data-name="Groupe 12" transform="translate(129.349 36.703)">
          <g id="Groupe_11" data-name="Groupe 11" transform="translate(0 0)">
            <path id="Tracé_37" data-name="Tracé 37" d="M651.05,203.846a23.084,23.084,0,0,0,4.9,6.2,19.073,19.073,0,0,0,12.981,5.123,20.486,20.486,0,0,0,2.418-.145c5.838-.7,10.3-4.049,12.915-9.689a25.2,25.2,0,0,0,2.046-7.2c11.453-1.824,6.925-13.869,5.325-13.452-1.029.268-.958,1.307-.336,4.351a4.58,4.58,0,0,1-1.705,4.634c3.217-5.367-1.371-9.587-2.424-8.819-.932.678-.515,1.695.974,4.288a3.539,3.539,0,0,1-.381,4.371c.346-2.26-.052-4.663-2.041-5.273a1.3,1.3,0,0,0-1.883,1.242c-.541-2.066-6.505-2.993-4.967,2.839.822,3.125,2.329,4.62,3.673,5.329a21.438,21.438,0,0,1-1.772,6.193c-2.058,4.382-5.379,6.874-9.863,7.412-11.128,1.332-16.385-8.987-16.439-9.091Zm31.655-8.979c-1.071-.24-2.144-4.254-.621-4.079s1.695-.546,1.695-.546a1.238,1.238,0,0,0,.086-.338h0c.358,1.353,1.162.431,1.82,2.092,1.072,2.73-1.912,3.119-2.979,2.872Z" transform="translate(-651.05 -184.667)" fill="#8595ba"/>
          </g>
        </g>
        <g id="Groupe_10738" data-name="Groupe 10738" transform="translate(21.446 0)">
          <g id="Groupe_34" data-name="Groupe 34" transform="translate(0 0)">
            <g id="Groupe_10761" data-name="Groupe 10761" transform="translate(30.37 74.911)">
              <g id="Groupe_10759" data-name="Groupe 10759" transform="translate(0 0.006)">
                <path id="Tracé_88" data-name="Tracé 88" d="M281.344,376.992s-21.025,5.4-20.486,17.35c.354,7.853,16.072,5.733,27.931,7.856,0,0,.952,9.388,4.253,10.006s2.186-14.891,2.186-14.891-26.01-.634-26.047-2.98c-.2-12.12,16.523-17.345,16.523-17.345Z" transform="translate(-260.848 -376.989)" fill="#8595ba"/>
              </g>
              <g id="Groupe_10760" data-name="Groupe 10760" transform="translate(37.833 0)">
                <path id="Tracé_88-2" data-name="Tracé 88-2" d="M465.309,376.967s21.03,5.4,20.492,17.345c-.354,7.853-16.072,5.733-27.931,7.856,0,0-.954,9.388-4.253,10.006s-2.186-14.891-2.186-14.891,26.01-.634,26.047-2.98c.2-12.12-16.525-17.345-16.525-17.345Z" transform="translate(-451.251 -376.959)" fill="#8595ba"/>
              </g>
            </g>
            <g id="Groupe_27" data-name="Groupe 27">
              <path id="Tracé_89" data-name="Tracé 89" d="M210.74,91.051c1.349.565,5.9,2.186,9.587-.177,4.371-2.805,4.371-6.13,4.371-6.13a12.751,12.751,0,0,0,12.782-2.98c6.127-5.608,3.326-16.776,3.326-16.776s5.744-2.98,5.085-9.14c-1.079-9.935-11.206-10.507-11.206-10.507s3.149-7.533-2.448-12.782-12.968-4.034-12.968-4.034a5.8,5.8,0,0,0-2.1-6.48c-3.493-2.454-6.293-.993-6.293-.993s.6-7.966-6.644-10.676c-6.905-2.583-12.807,1.507-12.807,1.507s-4.371-4.719-10.676-3.843a19.573,19.573,0,0,0-9.806,4.028,11.144,11.144,0,0,0-10.859-2.448,10.081,10.081,0,0,0-7.352,8.065s-11.243-3.134-17.37,4.57S132.208,36.4,132.208,36.4s-10.122-1.379-13.277,8.25a17.015,17.015,0,0,0,2.627,16.11s-8.23,8.23-4.727,17.16,11.894,7.046,11.894,7.046a9.269,9.269,0,0,0,8.946,8.192c8.228.525,11.733-2.448,11.733-2.448s7.179,5.951,14.183,5.254,9.633-3.5,9.633-3.5,6.655,3.787,13.132,3.559,11.733-4.614,11.733-4.614a6.923,6.923,0,0,0,6.48,3.152C208.936,94.1,210.486,90.937,210.74,91.051Z" transform="translate(-114.387 -6.347)" fill="#f3f6fe"/>
              <g id="Groupe_26" data-name="Groupe 26">
                <path id="Tracé_90" data-name="Tracé 90" d="M241.079,49.284c-.825-7.6-6.592-10.742-10.729-11.636.675-2.855,1.151-8.345-3.417-12.632a17.734,17.734,0,0,0-12.095-4.57h-.088a7.036,7.036,0,0,0-3.052-6.068,8.776,8.776,0,0,0-4.823-1.812,10.293,10.293,0,0,0-1.067-2.891,12.665,12.665,0,0,0-7.4-7.157,15.021,15.021,0,0,0-5.28-.95,16.506,16.506,0,0,0-5.179.859H187.9c-.032.01-.175.056-.383.133l-.215.079h-.018a17.8,17.8,0,0,0-2.021.9,14.854,14.854,0,0,0-9.339-3.578,12.982,12.982,0,0,0-1.778.123,22.4,22.4,0,0,0-9.537,3.578,12.761,12.761,0,0,0-7.553-2.5,13.678,13.678,0,0,0-3.789.553,11.567,11.567,0,0,0-8.1,7.749c-3.453-.5-11.759-.888-17.037,5.744-3.523,4.435-4.385,8.192-4.4,10.793v.036a9.4,9.4,0,0,0,.109,1.638c-3.435.4-10.2,2.187-12.78,10.09a18.684,18.684,0,0,0,2.019,16.409c-.179.2-.29.326-.312.354a1.589,1.589,0,0,0-.288.582c-2.384,3.12-6.329,9.762-3.494,16.992,2.542,6.49,7.582,7.457,10.358,7.457a12.812,12.812,0,0,0,1.892-.139c.807,3.614,3.517,8.5,9.957,8.914.678.043,1.355.066,2.009.066a19.818,19.818,0,0,0,9.746-2.166c2.1,1.53,7.455,4.967,13.094,4.967.445,0,.89-.022,1.323-.064a21.256,21.256,0,0,0,8.687-2.563,5.507,5.507,0,0,0,1.059-.586c2.123,1.047,7.142,3.225,12.283,3.225.213,0,.423,0,.634-.012a22.647,22.647,0,0,0,11.366-4,5.2,5.2,0,0,0,.565.523,1.167,1.167,0,0,0,.129.07,8.121,8.121,0,0,0,5.347,1.987h0c.3,0,.6-.016.906-.046a9.855,9.855,0,0,0,6.424-3.231,14.7,14.7,0,0,0,4.647.805,9.825,9.825,0,0,0,5.375-1.493,10.982,10.982,0,0,0,4.7-5.52,14.338,14.338,0,0,0,2.687.254,14.608,14.608,0,0,0,9.986-4c5.6-5.121,4.6-14.031,4.028-17.191A10.838,10.838,0,0,0,241.079,49.284Zm-7.044,7.722c-.838-.254-1.87-.544-3.122-.859a6.208,6.208,0,0,0-6.261,1.638,5.309,5.309,0,0,0-1.009,5.462,4.489,4.489,0,0,0,4.552,2.966,7.5,7.5,0,0,0,2.361-.385,1.426,1.426,0,0,0-.926-2.7c-.109.038-2.667.895-3.31-.863a2.511,2.511,0,0,1,.455-2.583,3.379,3.379,0,0,1,3.447-.777c1.13.283,2.062.544,2.825.775.451,2.408,1.524,10.38-3.009,14.52a11.394,11.394,0,0,1-7.858,3.179,10.57,10.57,0,0,1-3.14-.457L216.2,71.465a1.576,1.576,0,1,0-2.8,1.455h0l3.179,6.138a7.746,7.746,0,0,1-3.5,4.089,6.7,6.7,0,0,1-3.682.993,12.053,12.053,0,0,1-4.435-.936l-.308-.127h-.322a2.019,2.019,0,0,0-1.574.914,6.8,6.8,0,0,1-4.745,2.6c-.2.02-.4.03-.584.03h0a5.273,5.273,0,0,1-4.125-2.059,5.1,5.1,0,0,1-.753-2.98,2.583,2.583,0,0,1,1.18-2.15c2.019-1.162,2.993-.175,3.247.165a1.577,1.577,0,0,0,2.583-1.8c-.912-1.33-3.63-3.267-7.407-1.1a5.61,5.61,0,0,0-2.75,4.656,8.114,8.114,0,0,0,.4,3.084,19.622,19.622,0,0,1-9.907,3.6c-4.221.149-8.592-1.575-10.809-2.609h0c.906-2.22.684-5.049-.63-7.964-2.01-4.464-6.849-4.319-9.124-3.616a1.577,1.577,0,0,0,.918,3.018h.025c.161-.05,3.94-1.176,5.323,1.9a7.263,7.263,0,0,1,.584,5.478,3.168,3.168,0,0,1-.25.491l-.238.24c-.022.024-2.442,2.408-8.651,3.028a10.091,10.091,0,0,1-1.009.048c-4.739,0-9.5-3.1-11.276-4.387l.4-4.769a1.577,1.577,0,1,0-3.144-.258l-.4,4.739c-.942.565-3.623,1.89-8.427,1.89-.6,0-1.192-.022-1.808-.057-6.53-.417-7.219-7.072-7.271-7.706a4.306,4.306,0,0,1,2.329-3.451,3.382,3.382,0,0,1,2.091-.565.5.5,0,0,1-.111-.041l1.233-2.907c-.306-.127-1.963-.7-4.677.723a7.352,7.352,0,0,0-3.847,4.991,9.737,9.737,0,0,1-1.789.167c-3.507,0-6.005-1.834-7.423-5.454-2.941-7.5,3.673-14.73,4.321-15.413a8.015,8.015,0,0,1,5.144-1.789,4.888,4.888,0,0,1,4.57,3.013,1.574,1.574,0,0,0,1.488,1.063,1.526,1.526,0,0,0,.5-.079,1.575,1.575,0,0,0,.993-1.987,7.981,7.981,0,0,0-7.483-5.152,10.829,10.829,0,0,0-5.9,1.59,15.7,15.7,0,0,1-1.5-13.448c2.2-6.716,8.293-7.824,10.743-8a7.547,7.547,0,0,0,5.916,4.244,8.616,8.616,0,0,0,1.218.088,8.712,8.712,0,0,0,7.595-5.041,1.577,1.577,0,1,0-2.866-1.318c-.071.151-1.789,3.686-5.494,3.152a4.461,4.461,0,0,1-3.233-2.015l-.65-1.391c0-.02-.046-.1-.094-.234a7.711,7.711,0,0,1-.32-2.123v-.149c.018-1.971.711-5.021,3.727-8.812,4.683-5.868,12.6-4.878,14.783-4.48l2.221,4.991a1.59,1.59,0,0,0,1.441.936,1.544,1.544,0,0,0,.639-.137,1.577,1.577,0,0,0,.795-2.08l-2.393-5.386c-.016-.038-.04-.066-.057-.1a8.5,8.5,0,0,1,6.111-6.155,10.48,10.48,0,0,1,2.919-.424,9.591,9.591,0,0,1,6.367,2.448l.352.365a4.305,4.305,0,0,1,.6,4.268,3.533,3.533,0,0,1-3.318,2.227,1.576,1.576,0,1,0-.294,3.138h0c.117,0,.236.014.354.014a6.737,6.737,0,0,0,6.1-4.01,7.126,7.126,0,0,0-.439-6.772,19.473,19.473,0,0,1,7.816-2.8,9.8,9.8,0,0,1,1.343-.094A11.528,11.528,0,0,1,182.894,5.7a7.417,7.417,0,0,0-1.663,3.281,6.428,6.428,0,0,0,4.439,7.763,1.56,1.56,0,0,0,.383.048,1.575,1.575,0,0,0,.377-3.116A3.265,3.265,0,0,1,184.3,9.636c.582-2.688,3.775-3.934,4.4-4.153a13.567,13.567,0,0,1,4.421-.769,11.848,11.848,0,0,1,4.173.753,9.593,9.593,0,0,1,5.583,5.377l.048.12a11.254,11.254,0,0,1,.848,3.521l-.024,2.655c-.517,2.257-1.681,2.257-2.218,2.257a3.378,3.378,0,0,1-1.789-.6,1.578,1.578,0,1,0-1.93,2.5,6.485,6.485,0,0,0,3.725,1.251c1.437,0,4.849-.576,5.506-5.917.038-.308.059-.6.073-.9a6.208,6.208,0,0,1,2.766,1.214,4.124,4.124,0,0,1,1.516,4.672l-.856,2.5,2.6-.417a11.385,11.385,0,0,1,1.685-.1,14.549,14.549,0,0,1,9.93,3.724c4.151,3.895,2.687,9.272,2.2,10.68-.167.354-2.363,4.836-5.436,4.981a2.166,2.166,0,0,1-1.618-.365,1.484,1.484,0,0,1-.169-1.041,1.575,1.575,0,0,0-3.054-.739,4.576,4.576,0,0,0,.795,3.775,4.655,4.655,0,0,0,3.791,1.52h.4c3.72-.173,6.263-3.531,7.439-5.488,2.279.377,8.063,2.028,8.816,8.991.463,4.266-2.837,6.7-3.909,7.376Z" transform="translate(-108.006 0.042)" fill="#b8c4e0"/>
                <path id="Tracé_91" data-name="Tracé 91" d="M375.5,102.384a9.091,9.091,0,0,0-2.138-8.1c-5.085-6.121-12.788-4.769-17.567-2.6a11.037,11.037,0,0,0-7.477-8.393c-5.78-1.967-10.231,1.921-12.3,4.3a14.408,14.408,0,0,0-10.6-3.831c-3.712.073-7.223,2.857-8.544,6.77a8.3,8.3,0,0,0,2.692,9.511,9.646,9.646,0,0,0,12.8-.333,1.576,1.576,0,0,0-2.155-2.3h0a6.479,6.479,0,0,1-8.683.167,5.249,5.249,0,0,1-1.663-6.027,6.56,6.56,0,0,1,5.621-4.627c6.539-.141,9.158,3.833,9.259,3.992a1.59,1.59,0,0,0,2.171.51,1.619,1.619,0,0,0,.5-.489c.041-.066,4.29-6.557,9.887-4.657a8.011,8.011,0,0,1,5.563,7.816,1.577,1.577,0,0,0,2.406,1.43c.4-.252,9.975-6.068,15.662.777a6.027,6.027,0,0,1,1.493,5.379,6.484,6.484,0,0,1-3.157,4.189c-2.06.926-4.64-.437-4.659-.449a1.577,1.577,0,0,0-1.518,2.764,10.6,10.6,0,0,0,3.866,1.124,7.251,7.251,0,0,0,3.6-.565,9.621,9.621,0,0,0,4.945-6.352Z" transform="translate(-274.96 -66.293)" fill="#b8c4e0"/>
                <path id="Tracé_92" data-name="Tracé 92" d="M236.453,208.747a7.223,7.223,0,0,0-.377-4.049h.018a8.172,8.172,0,0,0,2.692-.451,7.226,7.226,0,0,0,4.586-5.166,9.987,9.987,0,0,0-1.709-8.758c-2.9-3.43-7.419-2.569-9.4-1.633a1.576,1.576,0,1,0,1.343,2.851h0c.038-.018,3.578-1.645,5.655.818a6.82,6.82,0,0,1,1.077,5.889,4.171,4.171,0,0,1-2.583,3.02,6.075,6.075,0,0,1-4.8-.578,13.037,13.037,0,0,0-1.83-1.23l-.159-.139a1.575,1.575,0,1,0-2.24,2.216l.038.037c.034.032.211.2.5.439l.01.01a13.073,13.073,0,0,0,1.951,1.318,5.194,5.194,0,0,1,2.126,4.828c-.644,3.453-3.2,3.63-3.5,3.639a1.576,1.576,0,1,0,.018,3.152C231.745,214.967,235.542,213.667,236.453,208.747Z" transform="translate(-204.347 -150.519)" fill="#b8c4e0"/>
                <path id="Tracé_93" data-name="Tracé 93" d="M267.737,325.453a9.417,9.417,0,0,0-8.314,5.762,1.576,1.576,0,0,0,2.941,1.13,6.269,6.269,0,0,1,5.474-3.753c3.463-.105,3.829,3.775,3.861,4.2a1.577,1.577,0,0,0,1.57,1.482h.1a1.577,1.577,0,0,0,1.475-1.67C274.687,330.06,273.006,325.283,267.737,325.453Z" transform="translate(-229.251 -260.772)" fill="#b8c4e0"/>
                <path id="Tracé_94" data-name="Tracé 94" d="M591.4,255.213c-2.529-2.132-6.358-1.507-6.517-1.47a1.435,1.435,0,1,0,.489,2.825c.025,0,2.683-.421,4.173.841a3.544,3.544,0,0,1,1.079,2.891,4.365,4.365,0,0,1-1.169,3.328,4.869,4.869,0,0,1-3.31,1.043,1.441,1.441,0,0,0-1.558,1.307,1.422,1.422,0,0,0,.036.471c.141.584.383,2.481-.363,3.517a2.151,2.151,0,0,1-1.717.795,3.037,3.037,0,0,1-2.47-.646,3.7,3.7,0,0,1-.82-2.583,1.437,1.437,0,1,0-2.864-.224,6.486,6.486,0,0,0,1.639,4.833,5.462,5.462,0,0,0,4.04,1.524c.229,0,.461-.012.7-.03a4.959,4.959,0,0,0,3.815-1.987,6.678,6.678,0,0,0,1.055-4.194,6.585,6.585,0,0,0,5.851-7.149,6.309,6.309,0,0,0-2.09-5.091Z" transform="translate(-483.305 -203.225)" fill="#b8c4e0"/>
              </g>
            </g>
          </g>
        </g>
        <g id="Groupe_10758" data-name="Groupe 10758" transform="translate(57.829 28.784)">
          <path id="Tracé_22522" data-name="Tracé 22522" d="M505,145.057s6.841-1.059,11.28,1.192,6.476,7.8,6.476,7.8" transform="translate(-462.501 -144.808)" fill="none" stroke="#8595ba" stroke-linecap="round" stroke-linejoin="bevel" stroke-width="4"/>
          <path id="Tracé_22523" data-name="Tracé 22523" d="M308.868,145.057s-6.841-1.059-11.28,1.192-6.478,7.8-6.478,7.8" transform="translate(-291.11 -144.808)" fill="none" stroke="#8595ba" stroke-linecap="round" stroke-linejoin="bevel" stroke-width="4"/>
        </g>
        <g id="Groupe_10149" data-name="Groupe 10149" transform="translate(61.438 46.93)">
          <g id="Groupe_23" data-name="Groupe 23" transform="translate(21.367 20.58)">
            <g id="Groupe_22" data-name="Groupe 22" transform="translate(0 0)">
              <path id="Tracé_51" data-name="Tracé 51" d="M429.539,340.763a3.35,3.35,0,0,1-1.142,2.418,6.465,6.465,0,0,1-2.615,1.437,9.37,9.37,0,0,1-5.222,0,6.466,6.466,0,0,1-2.619-1.446,3.35,3.35,0,0,1-1.14-2.418c0-1.707,1.514-.926,3.7-.377a9.7,9.7,0,0,0,5.345,0C428.023,339.827,429.539,339.042,429.539,340.763Z" transform="translate(-416.801 -339.712)" fill="#8595ba"/>
            </g>
            <path id="Tracé_52" data-name="Tracé 52" d="M440.942,353.632a9.338,9.338,0,0,1-5.222,0,2.637,2.637,0,0,1,5.222,0Z" transform="translate(-431.962 -349.048)" fill="#8595ba"/>
          </g>
          <g id="Groupe_24" data-name="Groupe 24" transform="translate(0 0)">
            <path id="Tracé_53" data-name="Tracé 53" d="M327.869,236.731l.041.306c.012.1.028.222.045.367,0,.073.02.147.025.234s0,.2,0,.3c0,.211,0,.451-.018.709s-.068.512-.109.795-.133.582-.211.9a9.793,9.793,0,0,1-.346.976,6.6,6.6,0,0,1-.517,1.013,9.449,9.449,0,0,1-2.623,2.848c-.2.129-.387.263-.6.4s-.419.227-.632.342l-.324.165-.338.139c-.229.088-.455.188-.691.258a9.807,9.807,0,0,1-1.452.338,5.555,5.555,0,0,1-.747.088l-.377.022-.188.01h-.272l-.632-.036-.157-.01a1.307,1.307,0,0,1-.177-.018l-.4-.057a6.223,6.223,0,0,1-.781-.145l-.718-.2c-.234-.073-.463-.17-.691-.258l-.338-.139-.322-.165c-.215-.115-.431-.215-.632-.342s-.4-.26-.6-.4a9.49,9.49,0,0,1-2.623-2.846c-.2-.344-.363-.686-.514-1.015a6,6,0,0,1-.348-.976c-.084-.318-.163-.618-.211-.9s-.084-.555-.109-.795-.01-.476-.014-.682v-.288a2.4,2.4,0,0,1,.024-.254c.018-.157.032-.29.043-.4.028-.215.041-.328.041-.328a.634.634,0,0,1,1.24-.079l.02.079.073.283a7.765,7.765,0,0,0,.2.765l.175.528c.086.188.163.385.25.6s.22.419.333.642.282.439.419.671a5.152,5.152,0,0,0,.521.67,7.632,7.632,0,0,0,.621.646,7.971,7.971,0,0,0,1.518,1.13,8.542,8.542,0,0,0,1.838.765l.494.113a1.52,1.52,0,0,0,.234.041l.222.032.222.036a.65.65,0,0,0,.139.014h.159l.632.028a.7.7,0,1,1-.075,0h.26l.258-.012a2.932,2.932,0,0,0,.509-.054c.167-.032.34-.032.5-.079l.494-.111a8.547,8.547,0,0,0,1.838-.765,8.041,8.041,0,0,0,1.518-1.13,7.635,7.635,0,0,0,.622-.646c.2-.22.354-.453.521-.67a5,5,0,0,0,.419-.671c.121-.222.242-.433.333-.642s.163-.411.25-.6a4.026,4.026,0,0,0,.17-.5c.025-.077.052-.151.075-.218a2.207,2.207,0,0,0,.054-.227c.032-.143.059-.263.081-.362l.073-.3a.642.642,0,0,1,1.258.064Z" transform="translate(-309.281 -236.142)" fill="#8595ba"/>
            <path id="Tracé_54" data-name="Tracé 54" d="M499.459,236.731s.014.105.041.306c.012.1.028.222.046.367,0,.073.02.147.025.234s0,.2,0,.3c0,.211,0,.451-.02.709s-.068.512-.107.795-.135.582-.213.9a9.8,9.8,0,0,1-.346.976,6.76,6.76,0,0,1-.515,1.013,9.5,9.5,0,0,1-2.623,2.848c-.2.129-.4.263-.6.4a7.126,7.126,0,0,1-.632.342l-.324.165-.338.139c-.229.088-.455.188-.691.258a9.815,9.815,0,0,1-1.452.338,5.521,5.521,0,0,1-.745.088l-.377.022-.188.01h-.272l-.632-.036-.159-.01a1.366,1.366,0,0,1-.177-.018l-.4-.057a6.149,6.149,0,0,1-.781-.145l-.718-.2c-.236-.073-.463-.17-.691-.258l-.338-.139-.324-.165c-.213-.115-.431-.215-.632-.342s-.4-.26-.6-.4a9.465,9.465,0,0,1-2.623-2.846c-.2-.344-.363-.686-.515-1.015a6.009,6.009,0,0,1-.347-.976c-.084-.318-.163-.618-.211-.9s-.084-.555-.109-.795-.012-.476-.016-.682v-.288a2.4,2.4,0,0,1,.025-.254c.016-.157.032-.29.043-.4.025-.215.041-.328.041-.328a.634.634,0,0,1,1.24-.079l.02.079s.024.094.072.283a6.631,6.631,0,0,0,.209.765c.052.159.111.336.175.528s.163.385.25.6.218.419.333.642.282.439.419.671a5.317,5.317,0,0,0,.519.67,8.038,8.038,0,0,0,3.978,2.542l.5.113a1.519,1.519,0,0,0,.234.041l.222.032.222.036a.641.641,0,0,0,.138.014h.159l.634.028a.7.7,0,1,1-.075,0h.249l.256-.012a2.9,2.9,0,0,0,.509-.054c.167-.032.34-.032.5-.079l.494-.111a8.546,8.546,0,0,0,1.836-.765,7.847,7.847,0,0,0,1.52-1.13,7.938,7.938,0,0,0,.621-.644c.2-.22.351-.453.519-.671a5.094,5.094,0,0,0,.419-.67c.121-.222.245-.433.334-.642s.165-.411.25-.6a5.064,5.064,0,0,0,.173-.5c.025-.077.052-.151.075-.218s.036-.157.054-.227c.032-.143.059-.263.081-.362l.073-.3a.642.642,0,0,1,1.258.064Z" transform="translate(-446.772 -236.142)" fill="#8595ba"/>
          </g>
        </g>
      </g>
      <path id="Path_24617" data-name="Path 24617" d="M.942,0H5.65a.942.942,0,0,1,.942.942c0,.52-.582,2.437-1.1,2.437a12.8,12.8,0,0,0-2.133-.887,4.68,4.68,0,0,0-1.695-.163C1.141,2.328,0,1.461,0,.942A.942.942,0,0,1,.942,0Z" transform="matrix(0.985, 0.174, -0.174, 0.985, 116.997, 256.365)" fill="#dfe4f4"/>
    </g>
  </g>
</svg>
