<svg id="Calque_1" data-name="Calque 1" xmlns="http://www.w3.org/2000/svg" viewBox="0 0 123.11 120.28"><title>actionstoday</title><g id="Groupe_10109" data-name="Groupe 10109"><path id="iconmonstr-star-3" d="M61.55,2.44,80.37,41.51l42.74,5.94L92,77.54l7.6,42.73-38-20.47-38,20.47,7.6-42.73L0,47.45l42.74-5.94Z" transform="translate(0 0)" style="fill:#006dd3"/><g id="Objects"><g id="Groupe_43" data-name="Groupe 43"><path id="Tracé_32" data-name="Tracé 32" d="M88.28,114.09c0,1-12.51,1.9-27.93,1.9s-27.94-.85-27.94-1.9,12.51-1.89,27.94-1.89S88.28,113,88.28,114.09Z" transform="translate(0 0)" style="fill:#fff;opacity:0.75;isolation:isolate"/><g id="Groupe_40" data-name="Groupe 40"><g id="Groupe_39" data-name="Groupe 39"><circle id="Ellipse_1" data-name="Ellipse 1" cx="60.35" cy="23.2" r="0.75" style="fill:#ef7668"/><g id="Groupe_31" data-name="Groupe 31"><path id="Tracé_58" data-name="Tracé 58" d="M72.78,12.43A12.43,12.43,0,1,1,60.35,0,12.43,12.43,0,0,1,72.78,12.43Z" transform="translate(0 0)" style="fill:#fff;opacity:0.10000000149011612;isolation:isolate"/><path id="Tracé_59" data-name="Tracé 59" d="M71.43,12.43A11.08,11.08,0,1,1,60.35,1.35h0A11.09,11.09,0,0,1,71.43,12.43Z" transform="translate(0 0)" style="fill:#fff;opacity:0.10000000149011612;isolation:isolate"/><path id="Tracé_60" data-name="Tracé 60" d="M69.59,12.43a9.24,9.24,0,1,1-9.24-9.24h0A9.24,9.24,0,0,1,69.59,12.43Z" transform="translate(0 0)" style="fill:#fff;opacity:0.10000000149011612;isolation:isolate"/></g><path id="Tracé_61" data-name="Tracé 61" d="M66.26,12.43a5.92,5.92,0,1,1-5.92-5.92,5.92,5.92,0,0,1,5.92,5.92Z" transform="translate(0 0)" style="fill:#fff"/><g id="Groupe_34" data-name="Groupe 34"><path id="Rectangle_2" data-name="Rectangle 2" d="M60,18h.61a2.62,2.62,0,0,1,2.62,2.62h0a2.62,2.62,0,0,1-2.62,2.62H60a2.62,2.62,0,0,1-2.62-2.62h0A2.62,2.62,0,0,1,60,18Z" transform="translate(0 0)" style="fill:#81c7ed"/><g id="Groupe_32" data-name="Groupe 32" style="opacity:0.4000000059604645"><path id="Tracé_62" data-name="Tracé 62" d="M63.27,20.06v.34a22.93,22.93,0,0,1-2.75.16,26.85,26.85,0,0,1-3.1-.18V20A25.43,25.43,0,0,0,63.27,20.06Z" transform="translate(0 0)" style="fill:#fff"/></g><g id="Groupe_33" data-name="Groupe 33" style="opacity:0.4000000059604645"><path id="Tracé_63" data-name="Tracé 63" d="M63.27,21.64V22a22.93,22.93,0,0,1-2.75.16,26.85,26.85,0,0,1-3.1-.18v-.34A24.89,24.89,0,0,0,63.27,21.64Z" transform="translate(0 0)" style="fill:#fff"/></g></g><g id="Groupe_38" data-name="Groupe 38"><g id="Groupe_37" data-name="Groupe 37"><g id="Groupe_35" data-name="Groupe 35"><path id="Tracé_64" data-name="Tracé 64" d="M58.59,18.6a.1.1,0,0,1-.09-.08l-.61-6.09a.1.1,0,0,1,.07-.09.08.08,0,0,1,.1.07h0l.61,6.08a.09.09,0,0,1-.07.1Z" transform="translate(0 0)" style="fill:#441165"/></g><g id="Groupe_36" data-name="Groupe 36"><path id="Tracé_65" data-name="Tracé 65" d="M62.1,18.6h0s-.08-.05-.07-.09l.61-6.09a.09.09,0,0,1,.09-.08.1.1,0,0,1,.08.1l-.61,6.08A.09.09,0,0,1,62.1,18.6Z" transform="translate(0 0)" style="fill:#441165"/></g></g><path id="Tracé_66" data-name="Tracé 66" d="M62.41,12.4a1,1,0,0,1-1.38,0,1,1,0,0,1-1.37,0,1,1,0,0,1-1.38,0,.08.08,0,0,0-.08.08.08.08,0,0,0,.08.09,1,1,0,0,1,.59.2,1.23,1.23,0,0,0-.41.86c0,.44.26.64.5.64s.5-.17.5-.64a1.22,1.22,0,0,0-.34-.85.92.92,0,0,1,.53-.21,1,1,0,0,1,.59.2,1.2,1.2,0,0,0-.41.86c0,.44.25.64.5.64s.5-.17.5-.64a1.22,1.22,0,0,0-.34-.85.92.92,0,0,1,.52-.21.94.94,0,0,1,.59.2,1.22,1.22,0,0,0-.4.86c0,.44.25.64.5.64s.5-.17.5-.64a1.27,1.27,0,0,0-.34-.85.92.92,0,0,1,.52-.21.09.09,0,0,0,.09-.09.09.09,0,0,0-.09-.08h0Zm-3.1,1.23c0,.3-.12.47-.34.47s-.34-.18-.34-.47a1.08,1.08,0,0,1,.37-.74,1.1,1.1,0,0,1,.31.74Zm1.38,0c0,.3-.12.47-.34.47s-.34-.18-.34-.47a1.08,1.08,0,0,1,.37-.74,1.15,1.15,0,0,1,.31.74Zm1.37,0c0,.3-.12.47-.34.47s-.33-.18-.33-.47a1.07,1.07,0,0,1,.36-.74,1.05,1.05,0,0,1,.31.74Z" transform="translate(0 0)" style="fill:#81c7ed"/></g></g></g></g></g><g id="Groupe_10" data-name="Groupe 10"><g id="Groupe_3" data-name="Groupe 3"><path id="Tracé_29" data-name="Tracé 29" d="M46.83,81.62s1.77,27.4.88,28.21-5.72.09-6.61,1.6,7.4,1.42,8.47.5,0-30.31,0-30.31Z" transform="translate(0 0)" style="fill:#81c7ed"/><path id="Tracé_30" data-name="Tracé 30" d="M71.92,81s-1.77,27.4-.88,28.21,5.73.09,6.61,1.6-7.4,1.42-8.47.5,0-30.31,0-30.31Z" transform="translate(0 0)" style="fill:#81c7ed"/></g><g id="Groupe_5" data-name="Groupe 5"><path id="Tracé_31" data-name="Tracé 31" d="M80.22,86.5c.85.36,3.71,1.37,6-.11C89,84.63,89,82.54,89,82.54a8,8,0,0,0,8-1.87c3.85-3.52,2.09-10.53,2.09-10.53s3.61-1.88,3.19-5.74c-.68-6.25-7-6.6-7-6.6s2-4.73-1.54-8a10.38,10.38,0,0,0-8.14-2.53,3.63,3.63,0,0,0-1.32-4.07,3.93,3.93,0,0,0-4-.62s.38-5-4.17-6.7a9.36,9.36,0,0,0-8,.95,8.3,8.3,0,0,0-6.71-2.42,12.22,12.22,0,0,0-6.15,2.53,7,7,0,0,0-6.82-1.54,6.34,6.34,0,0,0-4.62,5.06s-7.06-2-10.91,2.87-2,8.88-2,8.88-6.35-.87-8.33,5.18a10.68,10.68,0,0,0,1.65,10.12s-5.17,5.16-3,10.77a6.58,6.58,0,0,0,7.47,4.43,5.81,5.81,0,0,0,5.61,5.14c5.17.33,7.37-1.54,7.37-1.54s4.51,3.74,8.91,3.3,6.05-2.2,6.05-2.2,4.17,2.38,8.24,2.23a13.7,13.7,0,0,0,7.37-2.89,4.36,4.36,0,0,0,4.07,2A5.89,5.89,0,0,0,80.22,86.5Z" transform="translate(0 0)" style="fill:#ef7668"/><g id="Groupe_4" data-name="Groupe 4"><path id="Tracé_32-2" data-name="Tracé 32-2" d="M103.28,64.29A8.23,8.23,0,0,0,96.54,57a8,8,0,0,0-2.14-7.93,11.17,11.17,0,0,0-7.6-2.88h-.06a4.41,4.41,0,0,0-1.91-3.81,5.63,5.63,0,0,0-3-1.14,6.92,6.92,0,0,0-.67-1.81,8,8,0,0,0-4.65-4.49,9.65,9.65,0,0,0-3.32-.6,10.59,10.59,0,0,0-3.25.54h0l-.25.08-.09,0-.06,0a11.79,11.79,0,0,0-1.26.56,9.33,9.33,0,0,0-5.86-2.25,8.29,8.29,0,0,0-1.11.08,14,14,0,0,0-6,2.24,8.05,8.05,0,0,0-4.75-1.57,8.41,8.41,0,0,0-2.38.35,7.23,7.23,0,0,0-5.08,4.86c-2.17-.32-7.39-.56-10.7,3.61a11,11,0,0,0-2.76,6.78v0a5.82,5.82,0,0,0,.06,1,9.17,9.17,0,0,0-8,6.34,11.74,11.74,0,0,0,1.27,10.3c-.12.12-.18.2-.2.22a.85.85,0,0,0-.18.37c-1.5,2-4,6.13-2.2,10.67a6.73,6.73,0,0,0,6.5,4.68A7.85,7.85,0,0,0,28,83.2a6.74,6.74,0,0,0,6.25,5.6c.43,0,.85,0,1.26,0a12.59,12.59,0,0,0,6.12-1.36c1.33,1,4.69,3.11,8.23,3.11a7.56,7.56,0,0,0,.83,0A13.39,13.39,0,0,0,56.16,89a3.36,3.36,0,0,0,.67-.37,18.8,18.8,0,0,0,7.71,2h.4a14.33,14.33,0,0,0,7.14-2.51l.35.32a.55.55,0,0,0,.14.09,5.1,5.1,0,0,0,3.3,1.21h0a5.44,5.44,0,0,0,.57,0,6.21,6.21,0,0,0,4-2,9.06,9.06,0,0,0,2.92.51,6.23,6.23,0,0,0,3.38-.94,7,7,0,0,0,3-3.47,8.62,8.62,0,0,0,1.68.16,9.22,9.22,0,0,0,6.28-2.51c3.51-3.22,2.88-8.81,2.53-10.8A6.79,6.79,0,0,0,103.28,64.29Zm-4.42,4.84c-.53-.16-1.18-.34-2-.53a3.9,3.9,0,0,0-3.93,1,3.34,3.34,0,0,0-.64,3.43,2.83,2.83,0,0,0,2.86,1.87,4.68,4.68,0,0,0,1.48-.24.9.9,0,1,0-.4-1.76l-.18.06c-.07,0-1.67.56-2.08-.54a1.6,1.6,0,0,1,.29-1.62,2.15,2.15,0,0,1,2.16-.49c.71.18,1.3.35,1.78.49.28,1.51,1,6.52-1.89,9.12a7.15,7.15,0,0,1-4.93,2,6.64,6.64,0,0,1-2-.29l-1.78-3.43a1,1,0,0,0-1.32-.45,1,1,0,0,0-.45,1.33l0,0,2,3.86a5,5,0,0,1-2.2,2.57,4.31,4.31,0,0,1-2.32.63,7.62,7.62,0,0,1-2.78-.6l-.2-.08h-.2a1.31,1.31,0,0,0-1,.58,4.27,4.27,0,0,1-3,1.63l-.36,0h0a3.33,3.33,0,0,1-2.59-1.3,3.23,3.23,0,0,1-.47-1.87,1.62,1.62,0,0,1,.74-1.35c1.27-.73,1.88-.11,2,.1a1,1,0,0,0,1.62-1.13,3.36,3.36,0,0,0-4.65-.69,3.54,3.54,0,0,0-1.73,2.93,5.07,5.07,0,0,0,.26,1.93,12.28,12.28,0,0,1-6.22,2.26A16.11,16.11,0,0,1,58.09,87h0a6.4,6.4,0,0,0-.4-5c-1.26-2.8-4.3-2.72-5.73-2.28a1,1,0,0,0-.67,1.23,1,1,0,0,0,1.23.67h0c.1,0,2.47-.73,3.34,1.2a4.53,4.53,0,0,1,.36,3.44,2.2,2.2,0,0,1-.15.31L56,86.7s-1.54,1.51-5.44,1.9c-.2,0-.42,0-.63,0-3,0-6-1.95-7.08-2.76l.25-3a1,1,0,0,0-2-.16l-.24,3a10.14,10.14,0,0,1-5.29,1.19c-.37,0-.75,0-1.14,0-4.1-.26-4.53-4.44-4.56-4.83a2.68,2.68,0,0,1,1.46-2.17,2.12,2.12,0,0,1,1.31-.36l-.07,0,.78-1.82a3.48,3.48,0,0,0-2.94.45A4.61,4.61,0,0,0,28,81.22a7.19,7.19,0,0,1-1.13.1,4.77,4.77,0,0,1-4.66-3.43c-1.85-4.71,2.3-9.24,2.71-9.68a5,5,0,0,1,3.23-1.12A3,3,0,0,1,31,69a1,1,0,0,0,1.87-.64,5,5,0,0,0-4.7-3.23,6.8,6.8,0,0,0-3.7,1,9.87,9.87,0,0,1-.94-8.45,7.34,7.34,0,0,1,6.75-5A4.75,4.75,0,0,0,34,55.31a4.9,4.9,0,0,0,.77,0,5.45,5.45,0,0,0,4.76-3.16A1,1,0,0,0,39,50.88a1,1,0,0,0-1.32.49h0a3.45,3.45,0,0,1-3.45,2,2.83,2.83,0,0,1-2-1.26l-.41-.88a.79.79,0,0,0-.05-.15,4.53,4.53,0,0,1-.2-1.31.28.28,0,0,0,0-.09,9.13,9.13,0,0,1,2.34-5.54c2.94-3.7,7.91-3.07,9.28-2.81l1.4,3.13a1,1,0,1,0,1.84-.72l0-.08-1.51-3.38,0-.07a5.34,5.34,0,0,1,3.84-3.87,6.64,6.64,0,0,1,1.83-.27,6.05,6.05,0,0,1,4,1.55l.22.22a2.73,2.73,0,0,1,.38,2.68A2.21,2.21,0,0,1,53,41.9a1,1,0,0,0-.18,2h.22a4.2,4.2,0,0,0,3.84-2.52,4.49,4.49,0,0,0-.28-4.25,12.29,12.29,0,0,1,4.91-1.76c.27,0,.56-.05.84-.06a7.34,7.34,0,0,1,4.37,1.62,4.65,4.65,0,0,0-1,2.06,4,4,0,0,0,2.79,4.88l.24,0a1,1,0,0,0,.24-2,2.05,2.05,0,0,1-1.33-2.54c.37-1.74,2.5-2.52,2.8-2.62h0a8.55,8.55,0,0,1,2.7-.46,7.32,7.32,0,0,1,2.62.48,6,6,0,0,1,3.51,3.37l0,.08a7,7,0,0,1,.54,2.21l0,1.67c-.33,1.41-1.06,1.41-1.39,1.41a2.11,2.11,0,0,1-1.13-.37,1,1,0,0,0-1.39.18,1,1,0,0,0,.18,1.38h0a4,4,0,0,0,2.34.79c.9,0,3-.36,3.45-3.71,0-.2,0-.39,0-.57A4,4,0,0,1,83.7,44a2.62,2.62,0,0,1,1,2.94l-.54,1.56,1.63-.26a7.59,7.59,0,0,1,1.07-.07,9.21,9.21,0,0,1,6.24,2.34c2.6,2.44,1.69,5.82,1.38,6.7-.1.2-1.48,3-3.41,3.13a1.36,1.36,0,0,1-1-.23.92.92,0,0,1-.1-.65,1,1,0,0,0-.77-1.17A1,1,0,0,0,88,59a2.64,2.64,0,0,0,2.88,3.32h.25c2.34-.11,3.94-2.22,4.67-3.45a6.28,6.28,0,0,1,5.54,5.65,4.94,4.94,0,0,1-2.46,4.63Z" transform="translate(0 0)" style="fill:#ef564b"/><path id="Tracé_33" data-name="Tracé 33" d="M82.29,58.22A5.68,5.68,0,0,0,81,53.14c-3.19-3.85-8-3-11-1.64a7,7,0,0,0-4.7-5.27c-3.63-1.23-6.42,1.21-7.72,2.7a9,9,0,0,0-6.66-2.4,6,6,0,0,0-5.36,4.25,5.2,5.2,0,0,0,1.69,6,6,6,0,0,0,8-.21,1,1,0,1,0-1.36-1.44,4.07,4.07,0,0,1-5.45.1,3.32,3.32,0,0,1-1-3.79,4.12,4.12,0,0,1,3.53-2.9C55,48.42,56.64,50.92,56.7,51a1,1,0,0,0,1.36.32.92.92,0,0,0,.31-.31s2.7-4.12,6.21-2.92A5,5,0,0,1,68.08,53a1,1,0,0,0,.93,1,1,1,0,0,0,.58-.14c.25-.16,6.26-3.82,9.84.48a3.81,3.81,0,0,1,.93,3.38,4.07,4.07,0,0,1-2,2.63,3.81,3.81,0,0,1-2.92-.28,1,1,0,0,0-1.34.42,1,1,0,0,0,.38,1.31,6.68,6.68,0,0,0,2.43.71,4.49,4.49,0,0,0,2.26-.35A6.06,6.06,0,0,0,82.29,58.22Z" transform="translate(0 0)" style="fill:#ef564b"/><path id="Tracé_34" data-name="Tracé 34" d="M39.88,69.88a4.5,4.5,0,0,0-.23-2.54h0a5.16,5.16,0,0,0,1.69-.28,4.56,4.56,0,0,0,2.88-3.25,6.27,6.27,0,0,0-1.07-5.5c-1.83-2.15-4.66-1.61-5.91-1a1,1,0,0,0,.84,1.79s2.25-1,3.55.51a4.26,4.26,0,0,1,.68,3.7,2.6,2.6,0,0,1-1.62,1.9,3.82,3.82,0,0,1-3-.36,7.44,7.44,0,0,0-1.15-.77l-.1-.09a1,1,0,0,0-1.39,1.41A7.74,7.74,0,0,0,36.6,66.5a3.24,3.24,0,0,1,1.33,3,2.42,2.42,0,0,1-2.2,2.28,1,1,0,0,0,0,2A4.41,4.41,0,0,0,39.88,69.88Z" transform="translate(0 0)" style="fill:#ef564b"/><path id="Tracé_35" data-name="Tracé 35" d="M43.89,73.93a5.91,5.91,0,0,0-5.22,3.62,1,1,0,0,0,1.85.71A3.91,3.91,0,0,1,44,75.91c2.18-.07,2.4,2.36,2.43,2.64a1,1,0,0,0,1,.92h.07a1,1,0,0,0,.92-1C48.25,76.82,47.2,73.82,43.89,73.93Z" transform="translate(0 0)" style="fill:#ef564b"/><path id="Tracé_36" data-name="Tracé 36" d="M87.59,66A5.55,5.55,0,0,0,83.5,65a.92.92,0,0,0-.74,1,.9.9,0,0,0,1,.73,3.78,3.78,0,0,1,2.62.53,2.24,2.24,0,0,1,.68,1.81,2.76,2.76,0,0,1-.73,2.09,3.07,3.07,0,0,1-2.08.66.89.89,0,0,0-1,.81,1,1,0,0,0,0,.3,3.19,3.19,0,0,1-.23,2.21,1.35,1.35,0,0,1-1.07.5,1.91,1.91,0,0,1-1.56-.41A2.3,2.3,0,0,1,80,73.69a.9.9,0,1,0-1.8-.14,4.1,4.1,0,0,0,1,3,3.45,3.45,0,0,0,2.53,1l.44,0a3.1,3.1,0,0,0,2.4-1.25,4.21,4.21,0,0,0,.67-2.63,4.14,4.14,0,0,0,3.67-4.49A3.94,3.94,0,0,0,87.59,66Z" transform="translate(0 0)" style="fill:#ef564b"/></g></g><g id="Groupe_8" data-name="Groupe 8"><g id="Groupe_6" data-name="Groupe 6"><path id="Tracé_37" data-name="Tracé 37" d="M51.75,66.19a2.87,2.87,0,1,1-2.87-2.87,2.87,2.87,0,0,1,2.87,2.87Z" transform="translate(0 0)" style="fill:#81c7ed"/><path id="Tracé_38" data-name="Tracé 38" d="M48.35,65.27a.91.91,0,0,1-1.82,0,.91.91,0,1,1,1.82,0Z" transform="translate(0 0)" style="fill:#fff"/></g><g id="Groupe_7" data-name="Groupe 7"><path id="Tracé_39" data-name="Tracé 39" d="M81,66.19a2.87,2.87,0,1,1-2.86-2.87h0A2.86,2.86,0,0,1,81,66.19Z" transform="translate(0 0)" style="fill:#81c7ed"/><path id="Tracé_40" data-name="Tracé 40" d="M77.63,65.27a.92.92,0,1,1-.91-.91h0A.91.91,0,0,1,77.63,65.27Z" transform="translate(0 0)" style="fill:#fff"/></g><path id="Tracé_41" data-name="Tracé 41" d="M58.49,73.12s1.12,4,4.79,4.08,5-4.08,5-4.08Z" transform="translate(0 0)" style="fill:#fff"/></g><path id="Tracé_42" data-name="Tracé 42" d="M86.23,58.44H66.62a.77.77,0,0,0-.42.13,5.27,5.27,0,0,0-6.26,0,.71.71,0,0,0-.44-.15H39.9a.78.78,0,0,0,0,1.56H41v8.49a3.06,3.06,0,0,0,2.88,3.2H57.22a3.07,3.07,0,0,0,2.88-3.2v-7.7l.09-.14a3.19,3.19,0,0,1,2.89-1.54,3.14,3.14,0,0,1,3,1.65v7.73a3.07,3.07,0,0,0,2.88,3.2H82.28a3.07,3.07,0,0,0,2.88-3.2V60h1.07a.78.78,0,0,0,0-1.56Zm-29,11.69H43.85a1.51,1.51,0,0,1-1.32-1.64V60h16v8.49A1.51,1.51,0,0,1,57.22,70.13ZM83.6,68.49a1.51,1.51,0,0,1-1.32,1.64H68.91a1.51,1.51,0,0,1-1.32-1.64V60h16Z" transform="translate(0 0)" style="fill:#81c7ed"/><g id="Groupe_9" data-name="Groupe 9"><path id="Tracé_43" data-name="Tracé 43" d="M65.86,76.64l13.76-3L76.69,92.28,64,94.9Z" transform="translate(0 0)" style="fill:#81c7ed"/><path id="Tracé_44" data-name="Tracé 44" d="M65.86,76.64l-14.44-3,.75,18.86L64,94.9Z" transform="translate(0 0)" style="fill:#81c7ed"/></g><path id="Tracé_45" data-name="Tracé 45" d="M89.81,77.78a3.59,3.59,0,0,0-.38.4A77.12,77.12,0,0,1,92,86.76c.72,3.06-11.21,1.08-14.79.34-.68-.14-1.38-2.58-2.09-2.39s.11,1.28.11,1.28S74,85,73.52,85.2s-2.64,1.6-.93,2.83,19.6,3,20.94,1.07c1-1.46-.79-8.36-1.69-11.49C91.16,77.51,90.27,77.34,89.81,77.78Z" transform="translate(0 0)" style="fill:#81c7ed"/><path id="Tracé_46" data-name="Tracé 46" d="M39.61,78.1a3.51,3.51,0,0,1,.37.4,77.76,77.76,0,0,0-2.6,8.58c-.71,3.06,11.21,1.09,14.79.34.68-.14,1.38-2.58,2.09-2.38s-.11,1.27-.11,1.27,1.25-1,1.75-.79,2.64,1.6.92,2.83-19.59,3-20.94,1.07c-1-1.46.79-8.36,1.69-11.49C38.26,77.83,39.15,77.67,39.61,78.1Z" transform="translate(0 0)" style="fill:#81c7ed"/></g></g></svg>