<svg id="atom" xmlns="http://www.w3.org/2000/svg" xmlns:xlink="http://www.w3.org/1999/xlink" viewBox="0 0 25.63 25.66"><defs><linearGradient id="Dégradé_sans_nom" x1="-4375.52" y1="2553.05" x2="-4375.52" y2="2552.05" gradientTransform="matrix(4.58, 0, 0, -4.51, 20034.05, 11523.99)" gradientUnits="userSpaceOnUse"><stop offset="0" stop-color="#86f5bb"/><stop offset="1" stop-color="#8dd9ea"/></linearGradient><linearGradient id="Dégradé_sans_nom_2" x1="-4357.04" y1="2552.73" x2="-4357.04" y2="2551.73" gradientTransform="matrix(4.51, 0, 0, -4.51, 19654.05, 11530.18)" gradientUnits="userSpaceOnUse"><stop offset="0" stop-color="#fec36d"/><stop offset="1" stop-color="#fd8567"/></linearGradient></defs><title>atomtooltip</title><path id="Tracé_22445" data-name="Tracé 22445" d="M22.41,5.24l-.54,1.4c-1.52-.57-5,0-9,1.94-.62.3-1.23.63-1.88,1a24.14,24.14,0,0,0-6.5,5.23c-1.29,1.56-1.82,2.93-1.4,3.67l-1.22.87-.07-.11C1,17.88,1.53,16,3.28,13.83a26.34,26.34,0,0,1,6.91-5.56c.87-.51,1.76-1,2.63-1.37C16.72,5.12,20.36,4.45,22.41,5.24Z" transform="translate(0.02 0)" style="fill:#19a2ed"/><path id="Tracé_22446" data-name="Tracé 22446" d="M24.18,8.45c-.53,2.67-3.94,6.18-8.72,8.94a28.33,28.33,0,0,1-2.63,1.35,19,19,0,0,1-7.52,2H5.25l0-1.5a19.81,19.81,0,0,0,7.56-2.16c.63-.3,1.26-.63,1.88-1,5-2.89,7.64-6.14,8-7.93Z" transform="translate(0.02 0)" style="fill:#19a2ed"/><path id="Tracé_22447" data-name="Tracé 22447" d="M12.83,8.57V6.9c3.89-1.78,7.53-2.45,9.58-1.66l-.54,1.4C20.35,6.06,16.89,6.59,12.83,8.57Z" transform="translate(0.02 0)" style="fill:#19a2ed"/><path id="Tracé_22448" data-name="Tracé 22448" d="M24.18,8.45c-.52,2.67-3.94,6.18-8.72,8.94a28.33,28.33,0,0,1-2.63,1.35V17.08c.63-.3,1.26-.63,1.88-1,5-2.89,7.64-6.13,8-7.92Z" transform="translate(0.02 0)" style="fill:#19a2ed"/><path id="Tracé_22449" data-name="Tracé 22449" d="M23.9,19.22c-.62,1.08-1.9,1.53-3.52,1.53a19.44,19.44,0,0,1-7.55-2,28.41,28.41,0,0,1-2.63-1.36C5.42,14.63,2,11.11,1.48,8.45L3,8.16c.34,1.79,3,5,8,7.93.63.36,1.26.69,1.88,1,4.82,2.36,9,2.74,9.77,1.38.42-.73-.1-2.1-1.4-3.67a24.53,24.53,0,0,0-6.5-5.23c-.65-.36-1.26-.69-1.88-1-4.06-2-7.52-2.51-9-1.94l-.54-1.4c2.05-.78,5.69-.12,9.58,1.67.87.41,1.76.86,2.63,1.37a26.22,26.22,0,0,1,6.92,5.56C24.12,16,24.66,17.88,23.9,19.22Z" transform="translate(0.02 0)" style="fill:#1d8df5"/><path id="Tracé_22450" data-name="Tracé 22450" d="M23.9,19.22c-.62,1.08-1.9,1.53-3.52,1.53a19.44,19.44,0,0,1-7.55-2V17.08c4.83,2.36,9,2.74,9.77,1.39.42-.74-.1-2.1-1.4-3.67a24,24,0,0,0-6.5-5.23c-.64-.36-1.26-.69-1.88-1V6.9c.88.41,1.76.86,2.63,1.37a26.06,26.06,0,0,1,6.92,5.57C24.12,16,24.66,17.88,23.9,19.22Z" transform="translate(0.02 0)" style="fill:#19a2ed"/><path id="Tracé_22451" data-name="Tracé 22451" d="M12.83,0C9.42,0,7.57,6.63,7.57,12.83s1.85,12.83,5.26,12.83S18.09,19,18.09,12.83,16.24,0,12.83,0Zm0,24.16c-1.78,0-3.76-4.88-3.76-11.33s2-11.33,3.76-11.33,3.76,4.88,3.76,11.33S14.6,24.16,12.83,24.16Z" transform="translate(0.02 0)" style="fill:#19a2ed"/><path id="Tracé_22452" data-name="Tracé 22452" d="M18.09,12.83c0,6.19-1.85,12.83-5.26,12.83v-1.5c1.77,0,3.76-4.88,3.76-11.33S14.6,1.5,12.83,1.5V0C16.24,0,18.09,6.63,18.09,12.83Z" transform="translate(0.02 0)" style="fill:#19a2ed"/><path id="Tracé_22454" data-name="Tracé 22454" d="M2.31,9.07a2.26,2.26,0,1,1-.14-4.51h.14a2.26,2.26,0,0,1,0,4.51Z" transform="translate(0.02 0)" style="fill:url(#Dégradé_sans_nom)"/><path id="Tracé_22455" data-name="Tracé 22455" d="M3.81,21.85a2.26,2.26,0,1,1,2.25-2.26A2.26,2.26,0,0,1,3.81,21.85Z" transform="translate(0.02 0)" style="fill:url(#Dégradé_sans_nom_2)"/><path id="Tracé_22456" data-name="Tracé 22456" d="M23.35,9.07a2.26,2.26,0,1,1,2.26-2.25A2.25,2.25,0,0,1,23.35,9.07Z" transform="translate(0.02 0)" style="fill:#a272e7"/><g id="Groupe_10114" data-name="Groupe 10114"><g id="Groupe_10113" data-name="Groupe 10113"><path id="Tracé_22453" data-name="Tracé 22453" d="M12.83,10.57a2.26,2.26,0,1,0,2.25,2.26,2.26,2.26,0,0,0-2.25-2.26Z" transform="translate(0.02 0)" style="fill:#1d8df5"/></g><path id="Tracé_22457" data-name="Tracé 22457" d="M12.83,15.08V10.57a2.26,2.26,0,0,1,0,4.51Z" transform="translate(0.02 0)" style="fill:#1d8df5"/></g></svg>