<svg id="Calque_1" data-name="Calque 1" xmlns="http://www.w3.org/2000/svg" viewBox="0 0 95.56 21.87"><title>bosch</title><g id="layer1"><g id="g28145"><g id="g26531"><g id="q57"><g id="xfrm58"><path id="path3190" d="M11.61,15c0-1.2-.89-2-2.75-2H5.13V17H9C10.51,17,11.61,16.48,11.61,15Zm-.68-8.13a1.86,1.86,0,0,0-1.77-2h-4V8.75H8.86a2,2,0,0,0,2.08-1.83V6.84Zm6.24,8.71c0,3.52-3.24,5.83-6.51,5.83H0V.52H9.77c3.76,0,6.48,1.88,6.48,5.73a4.51,4.51,0,0,1-2.87,4.28,5.15,5.15,0,0,1,3.79,5" transform="translate(0 0.01)" style="fill:#da2328"/></g></g><g id="q59"><g id="xfrm60"><path id="path3194" d="M33.12,10.93c0-3.26-1.5-5.91-4.46-5.91s-4.43,2.65-4.43,5.91,1.47,5.95,4.43,5.95S33.12,14.23,33.12,10.93Zm5.13,0c0,6.13-3.51,10.94-9.59,10.94s-9.59-4.81-9.59-10.94S22.62,0,28.66,0s9.59,4.83,9.59,10.93" transform="translate(0 0.01)" style="fill:#da2328"/></g></g><g id="q61"><g id="xfrm62"><path id="path3198" d="M56.16,15.06c0,4.59-4.15,6.81-8.06,6.81A10.2,10.2,0,0,1,39.43,18l3.32-3.27A6.58,6.58,0,0,0,48,17.37c1.68,0,2.81-.83,2.81-2.06s-1-1.74-3.73-2.31l-.73-.16c-3.29-.69-6-2.55-6-6.28C40.4,2.46,43.73,0,48.13,0a9.75,9.75,0,0,1,7.61,3.26L52.5,6.46a6,6,0,0,0-4.28-1.94c-1.19,0-2.53.56-2.53,1.94s1.4,1.72,3.17,2.1l.74.15c3,.62,6.56,1.54,6.56,6.34" transform="translate(0 0.01)" style="fill:#da2328"/></g></g><g id="q63"><g id="xfrm64"><path id="path3202" d="M76,17.34c-2.14,3.08-4.13,4.53-8.25,4.53-5.86,0-9.65-4.87-9.65-11.06C58.1,4.93,61.52,0,67.81,0c3.45,0,5.93,1.35,8,4.53l-4.21,2.8A4,4,0,0,0,67.84,5c-2.32,0-4.55,2.07-4.55,5.79,0,4.16,2.41,6.06,4.71,6.06,2,0,2.9-1,3.75-2.4L76,17.34" transform="translate(0 0.01)" style="fill:#da2328"/></g></g><g id="q65"><g id="xfrm66"><path id="path3206" d="M95.56,21.38h-5.5V13.15H83.74v8.23H78.27V.52h5.47V8.19h6.32V.52h5.5V21.38" transform="translate(0 0.01)" style="fill:#da2328"/></g></g></g></g></g></svg>