<svg xmlns="http://www.w3.org/2000/svg" width="66.003" height="15.105" viewBox="0 0 66.003 15.105"><defs><style>.a{fill:#da2328;fill-rule:evenodd;}</style></defs><g transform="translate(0 0)"><g transform="translate(0 0.361)"><g transform="translate(0 0)"><path class="a" d="M315.176-227.289c0-.83-.612-1.4-1.9-1.4H310.7v2.83h2.638C314.417-225.863,315.176-226.246,315.176-227.289Zm-.463-5.616a1.3,1.3,0,0,0-1.371-1.362H310.7v2.681h2.575A1.352,1.352,0,0,0,314.713-232.9Zm4.3,6.02a4.279,4.279,0,0,1-4.494,4.021H307.16v-14.4h6.75c2.6,0,4.473,1.3,4.473,3.957a3.123,3.123,0,0,1-1.981,2.957,3.551,3.551,0,0,1,2.615,3.467" transform="translate(-307.16 237.267)"/></g></g><g transform="translate(13.174 0)"><g transform="translate(0)"><path class="a" d="M439.483-233.074c0-2.255-1.034-4.085-3.078-4.085s-3.06,1.83-3.06,4.085c0,2.276,1.013,4.106,3.06,4.106S439.483-230.8,439.483-233.074Zm3.544,0c0,4.234-2.426,7.552-6.622,7.552-4.177,0-6.624-3.319-6.624-7.552,0-4.213,2.447-7.552,6.622-7.552,4.2,0,6.624,3.34,6.624,7.552" transform="translate(-429.781 240.626)"/></g></g><g transform="translate(27.233 0)"><g transform="translate(0)"><path class="a" d="M572.2-230.223c0,3.17-2.869,4.7-5.567,4.7a7.037,7.037,0,0,1-5.991-2.7l2.3-2.256a4.534,4.534,0,0,0,3.651,1.851c1.16,0,1.94-.574,1.94-1.426,0-.915-.689-1.2-2.575-1.6l-.505-.106c-2.27-.477-4.135-1.766-4.135-4.34,0-2.829,2.3-4.531,5.339-4.531a6.737,6.737,0,0,1,5.253,2.254l-2.238,2.214a4.113,4.113,0,0,0-2.953-1.34c-.822,0-1.751.383-1.751,1.34,0,.872.966,1.189,2.193,1.447l.508.107c2.054.431,4.533,1.064,4.533,4.382" transform="translate(-560.637 240.626)"/></g></g><g transform="translate(40.13 0.021)"><path class="a" d="M693.041-228.475c-1.476,2.127-2.848,3.128-5.7,3.128-4.049,0-6.666-3.362-6.666-7.638,0-4.064,2.363-7.446,6.708-7.446a6.156,6.156,0,0,1,5.549,3.128l-2.911,1.936a2.807,2.807,0,0,0-2.617-1.617c-1.6,0-3.143,1.433-3.143,4,0,2.876,1.667,4.191,3.25,4.191a2.773,2.773,0,0,0,2.594-1.659l2.932,1.979" transform="translate(-680.679 240.431)"/></g><g transform="translate(54.063 0.361)"><g transform="translate(0 0)"><path class="a" d="M822.306-222.863h-3.8v-5.68H814.14v5.68h-3.774v-14.4h3.774v5.3h4.368v-5.3h3.8v14.4" transform="translate(-810.366 237.267)"/></g></g></g></svg>