<svg xmlns="http://www.w3.org/2000/svg" xmlns:xlink="http://www.w3.org/1999/xlink" width="79" height="78" viewBox="0 0 79 78">
  <defs>
    <linearGradient id="linear-gradient" x1="0.5" x2="0.5" y2="1" gradientUnits="objectBoundingBox">
      <stop offset="0" stop-color="#ec1b24"/>
      <stop offset="1" stop-color="#8e2b2f"/>
    </linearGradient>
    <filter id="Ellipse_418" x="0" y="2" width="49" height="49" filterUnits="userSpaceOnUse">
      <feOffset dy="3" input="SourceAlpha"/>
      <feGaussianBlur stdDeviation="3" result="blur"/>
      <feFlood flood-opacity="0.161"/>
      <feComposite operator="in" in2="blur"/>
      <feComposite in="SourceGraphic"/>
    </filter>
  </defs>
  <g id="Groupe_9968" data-name="Groupe 9968" transform="translate(-35 -293)">
    <rect id="Rectangle_17303" data-name="Rectangle 17303" width="78" height="78" rx="18" transform="translate(36 293)" opacity="0.303" fill="url(#linear-gradient)"/>
    <g id="Groupe_9965" data-name="Groupe 9965" transform="translate(-5 -5)">
      <g transform="matrix(1, 0, 0, 1, 40, 298)" filter="url(#Ellipse_418)">
        <circle id="Ellipse_418-2" data-name="Ellipse 418" cx="15.5" cy="15.5" r="15.5" transform="translate(9 8)" fill="#f24f56"/>
      </g>
      <text id="_21" data-name="21" transform="translate(65 328)" fill="#fff" font-size="16" font-family="Muli-SemiBold, Muli" font-weight="600"><tspan x="-9.6" y="0">21</tspan></text>
    </g>
    <g id="Groupe_9963" data-name="Groupe 9963" transform="translate(94.238 24.238)">
      <g id="_2" data-name="2" transform="translate(-38 283)">
        <g id="aim" transform="translate(0 0)">
          <g id="Groupe_9966" data-name="Groupe 9966">
            <path id="Tracé_21289" data-name="Tracé 21289" d="M165.258,158.462H171.6a11.666,11.666,0,0,0-9.921-9.922v6.344h-3.219V148.54a11.666,11.666,0,0,0-9.922,9.922h6.344v3.219H148.54a11.666,11.666,0,0,0,9.922,9.921v-6.344h3.219V171.6a11.666,11.666,0,0,0,9.921-9.921h-6.344Zm-5.187,3.353a1.744,1.744,0,1,1,1.744-1.744A1.744,1.744,0,0,1,160.071,161.815Z" transform="translate(-132.601 -132.601)" fill="#e70020"/>
            <path id="Tracé_21290" data-name="Tracé 21290" d="M65.81,81.726h2.75A14.891,14.891,0,0,1,81.726,68.56V62.58A20.85,20.85,0,0,0,62.58,81.726h3.23Z" transform="translate(-55.865 -55.865)" fill="#e70020"/>
            <path id="Tracé_21291" data-name="Tracé 21291" d="M290.145,81.726h-5.98A14.891,14.891,0,0,0,271,68.56V62.58A20.849,20.849,0,0,1,290.145,81.726Z" transform="translate(-241.92 -55.865)" fill="#e70020"/>
            <path id="Tracé_21292" data-name="Tracé 21292" d="M81.726,286.916v-2.75A14.891,14.891,0,0,1,68.56,271H62.58a20.849,20.849,0,0,0,19.146,19.145v-3.23Z" transform="translate(-55.865 -241.92)" fill="#e70020"/>
            <path id="Tracé_21293" data-name="Tracé 21293" d="M290.145,271A20.85,20.85,0,0,1,271,290.145v-5.98A14.891,14.891,0,0,0,284.165,271Z" transform="translate(-241.92 -241.92)" fill="#e70020"/>
            <path id="Tracé_21294" data-name="Tracé 21294" d="M244.219,0V6.715q-.8-.063-1.61-.062T241,6.715V0Z" transform="translate(-215.139)" fill="#e70020"/>
            <path id="Tracé_21295" data-name="Tracé 21295" d="M244.219,449.42v6.715H241V449.42q.8.063,1.61.062T244.219,449.42Z" transform="translate(-215.139 -401.195)" fill="#e70020"/>
            <path id="Tracé_21296" data-name="Tracé 21296" d="M456.135,241v3.219H449.42q.063-.8.062-1.61T449.42,241Z" transform="translate(-401.195 -215.139)" fill="#e70020"/>
            <path id="Tracé_21297" data-name="Tracé 21297" d="M6.715,241H0v3.219H6.715q-.063-.8-.062-1.61T6.715,241Z" transform="translate(0 -215.139)" fill="#e70020"/>
          </g>
          <g id="Groupe_9967" data-name="Groupe 9967" transform="translate(27.47)">
            <path id="Tracé_21298" data-name="Tracé 21298" d="M261.187,161.681h6.344a11.666,11.666,0,0,1-9.922,9.921v-6.344H256v-3.443a1.744,1.744,0,1,0,0-3.487v-3.443h1.61V148.54a11.666,11.666,0,0,1,9.922,9.922h-6.344Z" transform="translate(-256 -132.601)" fill="#e70020"/>
            <path id="Tracé_21299" data-name="Tracé 21299" d="M257.61,0V6.715q-.8-.063-1.61-.062V0Z" transform="translate(-256)" fill="#e70020"/>
            <path id="Tracé_21300" data-name="Tracé 21300" d="M256,449.482q.813,0,1.61-.062v6.715H256Z" transform="translate(-256 -401.195)" fill="#e70020"/>
            <path id="Tracé_21301" data-name="Tracé 21301" d="M284.165,271h5.98A20.849,20.849,0,0,1,271,290.145v-5.98A14.891,14.891,0,0,0,284.165,271Z" transform="translate(-269.39 -241.92)" fill="#e70020"/>
            <path id="Tracé_21302" data-name="Tracé 21302" d="M290.145,81.726h-5.98A14.891,14.891,0,0,0,271,68.56V62.58A20.849,20.849,0,0,1,290.145,81.726Z" transform="translate(-269.39 -55.865)" fill="#e70020"/>
            <path id="Tracé_21303" data-name="Tracé 21303" d="M456.135,241v3.219H449.42q.063-.8.062-1.61T449.42,241Z" transform="translate(-428.665 -215.139)" fill="#e70020"/>
          </g>
        </g>
      </g>
    </g>
  </g>
</svg>
