<svg xmlns="http://www.w3.org/2000/svg" width="28.606" height="28.606" viewBox="0 0 28.606 28.606"><defs><style>.a{fill:#e70020;}</style></defs><path class="a" d="M25.6,7.527a1.192,1.192,0,0,0-.554,1.592,11.8,11.8,0,0,1,1.18,5.184A11.919,11.919,0,1,1,14.3,2.384a11.776,11.776,0,0,1,7.4,2.572A1.192,1.192,0,1,0,23.186,3.09,14.305,14.305,0,1,0,28.606,14.3a14.157,14.157,0,0,0-1.418-6.222A1.191,1.191,0,0,0,25.6,7.527Zm0,0" transform="translate(0 0)"/><path class="a" d="M177.055,64A1.055,1.055,0,0,0,176,65.055v7.383a1.055,1.055,0,0,0,1.055,1.055h5.274a1.055,1.055,0,0,0,0-2.109h-4.219V65.055A1.055,1.055,0,0,0,177.055,64Zm0,0" transform="translate(-162.267 -58.903)"/></svg>