<svg id="Calque_1" data-name="Calque 1" xmlns="http://www.w3.org/2000/svg" xmlns:xlink="http://www.w3.org/1999/xlink" viewBox="0 0 172.48 114"><defs><linearGradient id="Dégradé_sans_nom" x1="-5477.03" y1="3288.59" x2="-5477.03" y2="3287.59" gradientTransform="matrix(114, 0, 0, -114, 624457.99, 374899.09)" gradientUnits="userSpaceOnUse"><stop offset="0" stop-color="#159beb"/><stop offset="1" stop-color="#3beaff"/></linearGradient></defs><title>cutebrain</title><g id="Groupe_10148" data-name="Groupe 10148"><circle id="Ellipse_436" data-name="Ellipse 436" cx="76.99" cy="57" r="57" style="opacity:0.4860000014305115;isolation:isolate;fill:url(#Dégradé_sans_nom)"/><g id="_676_R0lVIEpFTiAzMTItMDU_Converti_" data-name=" 676 R0lVIEpFTiAzMTItMDU Converti "><g id="Capa_1" data-name="Capa 1"><path id="Tracé_22458" data-name="Tracé 22458" d="M155.65,80c-5.05,1.73-10.53,3-15.81,1.54a18.86,18.86,0,0,1-7.7-4.35,22.36,22.36,0,0,1-4.92-7.87v0c-.54,1.14-1.1,2.28-1.64,3.43a23.52,23.52,0,0,0,4.34,6.3,21.2,21.2,0,0,0,8.81,5.21c6.05,1.81,12.23.46,18.06-1.55C158.56,82.06,157.42,79.39,155.65,80Z" transform="translate(-0.01 0)" style="fill:#cc1417"/><path id="Tracé_22460" data-name="Tracé 22460" d="M157.05,81.6c3.63,3.45,9.2,1.41,13.17-.39,1.18-.54,2.91-1.93,2-3.44S169,77,167.62,77a.59.59,0,0,0-.58.59.58.58,0,0,0,.58.58h0a17,17,0,0,1,3.11-.08c1.8.3-1,2.09-1.12,2.14a16.24,16.24,0,0,1-2.31.9c-3.06,1.07-6.76,2.2-9.43-.33-.54-.52-1.39.3-.82.82Z" transform="translate(-0.01 0)" style="fill:#81c7ed"/><path id="Tracé_22461" data-name="Tracé 22461" d="M170.31,77.9a2.54,2.54,0,0,0,2-2.22,1.56,1.56,0,0,0-1-1.68c-1.52-.51-3.39.31-4.78.88-.68.29-.38,1.41.31,1.13a14.79,14.79,0,0,1,2.87-.93c.37-.07,1-.18,1.35.08.7.57-.56,1.45-1,1.61-.71.23-.41,1.36.31,1.12Z" transform="translate(-0.01 0)" style="fill:#81c7ed"/><path id="Tracé_22462" data-name="Tracé 22462" d="M169.65,75c1.57-.56,2.78-2.92.6-3.57-1.6-.49-3.52,1-4.88,1.58-.68.32-.09,1.32.59,1s1.63-.85,2.48-1.19a4.11,4.11,0,0,1,1.3-.3c1.08,0,.13,1.17-.41,1.36-.7.25-.4,1.38.31,1.12Z" transform="translate(-0.01 0)" style="fill:#81c7ed"/><path id="Tracé_22463" data-name="Tracé 22463" d="M166.8,73.63c1.32-.71,3.19-1.63,3-3.39a1.53,1.53,0,0,0-1.57-1.49l-.16,0c-2.21.17-4.17,2.23-5.86,3.47-.6.44,0,1.45.59,1,1.13-.83,2.19-1.72,3.38-2.46a3.94,3.94,0,0,1,2.2-.87c.57.08.07,1.12,0,1.24a6.62,6.62,0,0,1-2.19,1.46C165.48,73,166.14,74,166.8,73.63Z" transform="translate(-0.01 0)" style="fill:#81c7ed"/><path id="Tracé_22464" data-name="Tracé 22464" d="M157.17,79.56c-2.18-3.7,1-5.38,3.19-7.8.4-.46.79-.89,1.19-1.33.09-.09,2.14-1.72,1.92-.58a7.22,7.22,0,0,1-1.34,2.54c-.44.61.58,1.19,1,.58.79-1.1,1.86-2.7,1.46-4.11s-2.39-.57-3.05,0a26.86,26.86,0,0,0-2.39,2.5c-.84.93-2,1.5-2.75,2.53a5.28,5.28,0,0,0-.24,6.26.58.58,0,0,0,.8.2.59.59,0,0,0,.21-.79Z" transform="translate(-0.01 0)" style="fill:#cc1417"/><path id="Tracé_22465" data-name="Tracé 22465" d="M155.62,79.63a12.16,12.16,0,0,0,1.89,2.61,5.7,5.7,0,0,1-1.69.89,5.44,5.44,0,0,1-1.86-2.5,6.13,6.13,0,0,1,.68-.56,5.84,5.84,0,0,1,1-.46m.65-1.31a5.41,5.41,0,0,0-2.21.74,4.28,4.28,0,0,0-1.37,1.34c.28,1.46,1.7,3.56,3.07,4a6,6,0,0,0,3.38-2.24,10.48,10.48,0,0,1-2.87-3.82Z" transform="translate(-0.01 0)" style="fill:#cc1417"/><path id="Tracé_22466" data-name="Tracé 22466" d="M28.24,68.64c0-.07.06-.13.08-.19A17.89,17.89,0,0,1,12.08,61.3,25.78,25.78,0,0,1,7,45.26a2.19,2.19,0,0,1-1.19,0A3.81,3.81,0,0,1,4.08,44.1,28.59,28.59,0,0,0,9.94,63.26a21.57,21.57,0,0,0,8.3,6.57,20.21,20.21,0,0,0,9.62,1.58A7,7,0,0,1,28.24,68.64Z" transform="translate(-0.01 0)" style="fill:#81c7ed"/><path id="Tracé_22470" data-name="Tracé 22470" d="M7.14,31.3c0-.37.24-1.77.87-1.27.38.29.39,1,.43,1.43,0,1,0,2-.14,3,0,.75,1.14.75,1.17,0,.06-1.58.5-3.46-.35-4.92a1.57,1.57,0,0,0-1.9-.66A2.47,2.47,0,0,0,6,31.3C6,32.05,7.18,32.05,7.14,31.3Z" transform="translate(-0.01 0)" style="fill:#81c7ed"/><g id="Groupe_10147" data-name="Groupe 10147"><path id="Tracé_22469" data-name="Tracé 22469" d="M4.23,31.8c-.06-.68.09-1.61.93-1.66.38,0,.57.71.65,1a10.73,10.73,0,0,1,.33,3.19.59.59,0,1,0,1.17,0c0-1.48,0-3.4-.89-4.63a1.58,1.58,0,0,0-1.93-.55A2.49,2.49,0,0,0,3,31.82c.06.74,1.23.75,1.17,0Z" transform="translate(-0.01 0)" style="fill:#81c7ed"/><path id="Tracé_22471" data-name="Tracé 22471" d="M9.53,33.53a11.53,11.53,0,0,1,.38-2.24c.08-.24.83-1.32,1.22-.8s.19,1.52.12,2.1a35.08,35.08,0,0,1-1,4.29c-.17.72,1,1,1.12.31.52-2.14,1.48-4.49,1-6.71a1.54,1.54,0,0,0-1.8-1.22l-.18,0c-1.78.38-1.9,2.78-2,4.22C8.29,34.28,9.46,34.27,9.53,33.53Z" transform="translate(-0.01 0)" style="fill:#81c7ed"/><g id="Groupe_10146" data-name="Groupe 10146"><path id="Tracé_22468" data-name="Tracé 22468" d="M5.3,44.49c-3.12-1.35-3.92-5-4-8.1a21,21,0,0,1,0-4c.05-.93.59-1.13,1.6-.61a7.14,7.14,0,0,1,.47,1.1c.16.46.3,1,.48,1.45.28.69,1.39.39,1.13-.31-.44-1.11-.74-3.51-2.15-3.92C1.16,29.65.24,31.31.11,32.78c-.37,4.3,0,10.74,4.63,12.71.68.3,1.28-.7.59-1Z" transform="translate(-0.01 0)" style="fill:#81c7ed"/><path id="Tracé_22472" data-name="Tracé 22472" d="M6.39,45.77c5.48.81,6.36-4.44,8.08-8.4.51-1.16,1-3.18-.62-3.7-1.39-.46-2.93,2.06-3.5,3-.39.64.62,1.22,1,.58a7.53,7.53,0,0,1,2-2.31c1-.64-.28,2.68-.14,2.37-.3.67-.64,1.31-.93,2-.51,1.11-.66,2.31-1.21,3.4a4,4,0,0,1-4.41,2c-.74-.1-1,1-.31,1.13Z" transform="translate(-0.01 0)" style="fill:#81c7ed"/></g></g><path id="Tracé_22473" data-name="Tracé 22473" d="M7.46,48.59a5.53,5.53,0,0,1-3.33-1,5.76,5.76,0,0,1,.4-3,11,11,0,0,0,4,1,5.33,5.33,0,0,1,.05,1.69,5,5,0,0,1-.47,1.31A6.2,6.2,0,0,1,7.46,48.59Z" transform="translate(-0.01 0)" style="fill:#abdcf3"/><path id="Tracé_22474" data-name="Tracé 22474" d="M4,45.36a12.4,12.4,0,0,0,3.13.73,4.7,4.7,0,0,1,0,1.06,4.89,4.89,0,0,1-.25.85H6.62a5.09,5.09,0,0,1-2.77-.75A5.83,5.83,0,0,1,4,45.35m-.54-1.54a6,6,0,0,0-.76,4A5.61,5.61,0,0,0,6.6,49.18a4.34,4.34,0,0,0,1-.1,4.07,4.07,0,0,0,.7-1.77A5.37,5.37,0,0,0,8.1,45h0a10.34,10.34,0,0,1-4.63-1.16Z" transform="translate(-0.01 0)" style="fill:#81c7ed"/><path id="Tracé_22475" data-name="Tracé 22475" d="M61,82.47c5.05,8.85,3.81,19.52.15,28.63-1.12,2.78,3.39,4,4.49,1.25,4.13-10.29,5-22.34-.62-32.23C63.54,77.51,59.51,79.86,61,82.47Z" transform="translate(-0.01 0)" style="fill:#81c7ed"/><path id="Tracé_22476" data-name="Tracé 22476" d="M79.13,83.57c5.1,8.34,4.66,17.28,2.36,26.44-.73,2.91,3.76,4.16,4.49,1.23,2.6-10.34,2.91-20.63-2.82-30C81.59,78.66,77.56,81,79.13,83.57Z" transform="translate(-0.01 0)" style="fill:#81c7ed"/><path id="Tracé_22477" data-name="Tracé 22477" d="M116.54,81.85c.65-2.08,1.25-4.17,1.85-6.31A69.11,69.11,0,0,1,120.7,69a33.09,33.09,0,0,1,3.4-10.43,19.18,19.18,0,0,1,.59-2,2,2,0,0,1,1-1.14q-.37-.39-.78-.75a.57.57,0,0,1-.09-.79,10.88,10.88,0,0,0-7.61-17.3.6.6,0,0,1-.47-.33,5,5,0,0,0-4.55-2.84.58.58,0,0,1-.58-.58v-.39a7,7,0,0,0-11-5.75.53.53,0,0,1-.32.1.58.58,0,0,1-.34-.11,5,5,0,0,0-6.57.61.59.59,0,0,1-.42.17.52.52,0,0,1-.34-.1,7,7,0,0,0-11,5.18.59.59,0,0,1-.32.47.58.58,0,0,1-.26.06.72.72,0,0,1-.29-.06,10.88,10.88,0,0,0-16.62,9.26,11.6,11.6,0,0,0,.13,1.66.58.58,0,0,1-.49.66h-.22a5.05,5.05,0,0,0-2.35,9.52.58.58,0,0,1,.31.51.61.61,0,0,1-.3.52,7,7,0,0,0,3.31,13.15h.29a.58.58,0,0,1,.58.59s0,.08,0,.12A10.87,10.87,0,0,0,80.36,81.4a.57.57,0,0,1,.76.31h0a7,7,0,0,0,11.78,1.7.61.61,0,0,1,.47-.21h.13a6.77,6.77,0,0,0,1.62.19,7,7,0,0,0,5.65-2.85.64.64,0,0,1,.47-.24h0a.58.58,0,0,1,.46.26,10.87,10.87,0,0,0,14,3.42Z" transform="translate(-0.01 0)" style="fill:#ef7668"/><path id="Tracé_22478" data-name="Tracé 22478" d="M69.56,31.94A10.28,10.28,0,0,1,75,33.49a1.17,1.17,0,0,0,1.61-.37,1.11,1.11,0,0,0,.17-.53,6.45,6.45,0,0,1,6.39-5.9,6.35,6.35,0,0,1,3.63,1.14,1.22,1.22,0,0,0,.67.2,1.13,1.13,0,0,0,.83-.36,4.46,4.46,0,0,1,5.81-.54,1.2,1.2,0,0,0,.68.22,1.16,1.16,0,0,0,.67-.21,6.42,6.42,0,0,1,10,5.28v.33A1.18,1.18,0,0,0,106.66,34a4.44,4.44,0,0,1,4,2.51,1.16,1.16,0,0,0,.93.65,10.31,10.31,0,0,1,9.17,11.32,10.46,10.46,0,0,1-2,5.06A1.16,1.16,0,0,0,119,55.1a10.31,10.31,0,0,1,3.55,6.74c.21-.81.43-1.6.68-2.39a11.45,11.45,0,0,0-3.46-5.24,11.46,11.46,0,0,0-8-18.23,5.63,5.63,0,0,0-5.06-3.17h0v-.39a7.58,7.58,0,0,0-11.92-6.23,5.64,5.64,0,0,0-7.32.67A7.59,7.59,0,0,0,76.89,28.8a7.68,7.68,0,0,0-1.31,3.7A11.47,11.47,0,0,0,58.21,44h-.13A5.63,5.63,0,0,0,55.45,54.6,7.58,7.58,0,0,0,59,68.85h.29a11.45,11.45,0,0,0,8.61,13.7l.22,0c0-.39,0-.79,0-1.19A10.12,10.12,0,0,1,60.5,69.1a1.15,1.15,0,0,0-.24-1,1.21,1.21,0,0,0-.9-.43h-.28a6.41,6.41,0,0,1-3-12,1.17,1.17,0,0,0,0-2.06,4.47,4.47,0,0,1,2.08-8.42h.13A1.15,1.15,0,0,0,59.41,44a1.21,1.21,0,0,0,0-.19A10.31,10.31,0,0,1,69.56,31.94Z" transform="translate(-0.01 0)" style="fill:#ef564b"/><path id="Tracé_22479" data-name="Tracé 22479" d="M119,72.16a1.81,1.81,0,0,1,.34-1,11.38,11.38,0,0,0,1-1.92,10.31,10.31,0,0,1-4.31,3.21,1.17,1.17,0,0,0-.73,1.16c0,.29,0,.53,0,.74a10.29,10.29,0,0,1-18.78,5.83,1.16,1.16,0,0,0-.93-.5h0a1.16,1.16,0,0,0-.92.46,6.42,6.42,0,0,1-6.66,2.45,1.24,1.24,0,0,0-.27,0,1.19,1.19,0,0,0-.9.42,6.4,6.4,0,0,1-9,.84,6.59,6.59,0,0,1-1.8-2.42A1.16,1.16,0,0,0,75,80.72a1,1,0,0,0-.46.1,10.84,10.84,0,0,1-2.43.68v1.19a11.67,11.67,0,0,0,2.9-.8,7.57,7.57,0,0,0,12.79,1.85,7.89,7.89,0,0,0,1.75.2,7.55,7.55,0,0,0,6.11-3.1,11.46,11.46,0,0,0,20.89-6.51c0-.28,0-.55,0-.82A10.86,10.86,0,0,0,119,72.16Z" transform="translate(-0.01 0)" style="fill:#ef564b"/><path id="Tracé_22480" data-name="Tracé 22480" d="M63,54.19c-4.07,2-9.76-.7-9.19-5.68.08-.74-1.08-.73-1.17,0-.67,5.91,6.15,9,10.95,6.69C64.22,54.88,63.63,53.87,63,54.19Z" transform="translate(-0.01 0)" style="fill:#cc1417"/><path id="Tracé_22481" data-name="Tracé 22481" d="M58.41,45.14c1.57,0,3.5.28,4,2.07a.58.58,0,1,0,1.12-.31c-.57-2.32-3-3-5.07-2.92a.58.58,0,0,0-.58.58.59.59,0,0,0,.58.59Z" transform="translate(-0.01 0)" style="fill:#cc1417"/><path id="Tracé_22482" data-name="Tracé 22482" d="M79.91,39.05c-3.73-.84-3.58-5.89-2.54-8.66.26-.7-.86-1-1.13-.31-1.27,3.39-1,9.12,3.36,10.1C80.33,40.34,80.64,39.22,79.91,39.05Z" transform="translate(-0.01 0)" style="fill:#cc1417"/><path id="Tracé_22486" data-name="Tracé 22486" d="M111.19,53.43a7,7,0,0,0,8.26,1.08c.67-.33.09-1.34-.58-1a5.8,5.8,0,0,1-6.86-.92.58.58,0,0,0-.82.82Z" transform="translate(-0.01 0)" style="fill:#ef564b"/><path id="Tracé_22487" data-name="Tracé 22487" d="M77.27,83.32a5.62,5.62,0,0,1,.81-7.9,6,6,0,0,1,1-.67c.67-.34.08-1.34-.59-1a6.79,6.79,0,0,0-2.92,9.15,7.59,7.59,0,0,0,.66,1c.47.6,1.46,0,1-.59Z" transform="translate(-0.01 0)" style="fill:#cc1417"/><path id="Tracé_22488" data-name="Tracé 22488" d="M86.07,85.37a5.74,5.74,0,0,0,2.42-5c0-.75-1.19-.75-1.16,0a4.54,4.54,0,0,1-1.86,4c-.6.46,0,1.46.59,1Z" transform="translate(-0.01 0)" style="fill:#ef564b"/><path id="Tracé_22489" data-name="Tracé 22489" d="M94.83,76.53c-.28,3.14,1.18,5.23,3.57,7.12.59.47,1.42-.35.83-.82-2.17-1.71-3.49-3.45-3.24-6.3C96.05,75.78,94.89,75.79,94.83,76.53Z" transform="translate(-0.01 0)" style="fill:#ef564b"/><path id="Tracé_22490" data-name="Tracé 22490" d="M60.26,72c0-3,.75-5.37,3.1-7.36.58-.46-.25-1.31-.82-.82C60,66,59.1,68.69,59.1,72a.58.58,0,0,0,1.16,0Z" transform="translate(-0.01 0)" style="fill:#cc1417"/><path id="Tracé_22491" data-name="Tracé 22491" d="M116.51,75.27c0-2.47,0-4.56-1.53-6.62-.47-.6-1.46,0-1,.58,1.41,1.9,1.39,3.78,1.39,6a.58.58,0,1,0,1.16,0Z" transform="translate(-0.01 0)" style="fill:#ef564b"/><path id="Tracé_22492" data-name="Tracé 22492" d="M67.64,41.17a7,7,0,0,1,3.44-5.76c1-.59.09-2.1-.88-1.51-2.4,1.48-4.43,4.35-4.31,7.27C65.93,42.29,67.68,42.3,67.64,41.17Z" transform="translate(-0.01 0)" style="fill:#fff"/><path id="Tracé_22493" data-name="Tracé 22493" d="M68.57,47.34c-.36-2.12,1.94-3.76,3.83-3.92.75-.07.75-1.23,0-1.17-2.71.24-5.45,2.47-5,5.4C67.57,48.39,68.69,48.08,68.57,47.34Z" transform="translate(-0.01 0)" style="fill:#cc1417"/><path id="Tracé_22494" data-name="Tracé 22494" d="M55.59,87.69a7,7,0,0,1-6.43-4.24.61.61,0,0,0-.54-.36.87.87,0,0,0-.22,0A10.89,10.89,0,0,1,33.52,70.73a.57.57,0,0,0-.12-.5.57.57,0,0,0-.46-.21h-.28a7,7,0,0,1-3.32-13.15.58.58,0,0,0,.31-.51.59.59,0,0,0-.31-.51,5.05,5.05,0,0,1,2.35-9.52h.11a.66.66,0,0,0,.46-.19.63.63,0,0,0,.16-.47A10.23,10.23,0,0,1,32.29,44a10.88,10.88,0,0,1,16.62-9.26.58.58,0,0,0,.8-.19.62.62,0,0,0,.09-.27,7,7,0,0,1,10.93-5.2.59.59,0,0,0,.75-.07,5,5,0,0,1,6.57-.61.6.6,0,0,0,.34.11.57.57,0,0,0,.33-.11,7,7,0,0,1,11,5.76v.36a.58.58,0,0,0,.55.61h0A5,5,0,0,1,84.81,38a.6.6,0,0,0,.47.33,10.88,10.88,0,0,1,7.61,17.3.57.57,0,0,0,.09.79,10.87,10.87,0,0,1-3,18.36.59.59,0,0,0-.37.59c0,.25,0,.51,0,.77a10.89,10.89,0,0,1-19.85,6.19.56.56,0,0,0-.46-.25h0a.59.59,0,0,0-.46.23,7,7,0,0,1-5.64,2.87A6.83,6.83,0,0,1,61.57,85a.29.29,0,0,0-.13,0,.58.58,0,0,0-.47.21A7,7,0,0,1,55.59,87.69Z" transform="translate(-0.01 0)" style="fill:#ef7668"/><path id="Tracé_22496" data-name="Tracé 22496" d="M31,55.94c-4.07,2-9.76-.7-9.19-5.68.08-.74-1.08-.73-1.17,0-.67,5.91,6.16,9,10.94,6.69C32.27,56.63,31.67,55.62,31,55.94Z" transform="translate(-0.01 0)" style="fill:#ef564b"/><path id="Tracé_22497" data-name="Tracé 22497" d="M26.46,46.88c1.57,0,3.5.28,3.95,2.06a.56.56,0,0,0,.71.41.57.57,0,0,0,.41-.72c-.57-2.31-3-3-5.09-2.91a.58.58,0,0,0,0,1.16Z" transform="translate(-0.01 0)" style="fill:#ef564b"/><g id="Groupe_10144" data-name="Groupe 10144"><path id="Tracé_22483" data-name="Tracé 22483" d="M86.69,27.79a7.09,7.09,0,0,1,2.16,4.31c.08.74,1.25.75,1.16,0a8.75,8.75,0,0,0-.7-2.7A8.44,8.44,0,0,0,87.51,27C87,26.42,86.17,27.25,86.69,27.79Z" transform="translate(-0.01 0)" style="fill:#ef564b"/><path id="Tracé_22484" data-name="Tracé 22484" d="M99.77,35.22a7.31,7.31,0,0,0,6.65-1.57c.55-.52-.28-1.34-.83-.82a6.15,6.15,0,0,1-5.51,1.27.58.58,0,0,0-.72.41.57.57,0,0,0,.41.71Z" transform="translate(-0.01 0)" style="fill:#ef564b"/><path id="Tracé_22485" data-name="Tracé 22485" d="M110.69,36.49c.88,2-.25,3.89-1.39,5.55-.42.63.58,1.2,1,.59,1.42-2.09,2.45-4.25,1.39-6.73-.3-.69-1.3-.09-1,.59Z" transform="translate(-0.01 0)" style="fill:#ef564b"/><path id="Tracé_22495" data-name="Tracé 22495" d="M83.4,77.08A10.29,10.29,0,0,1,64.67,82a1.18,1.18,0,0,0-.93-.5h0a1.14,1.14,0,0,0-.92.46,6.4,6.4,0,0,1-6.66,2.45.94.94,0,0,0-.29,0,1.15,1.15,0,0,0-.89.42,6.41,6.41,0,0,1-9,.83,6.23,6.23,0,0,1-1.8-2.42,1.18,1.18,0,0,0-1.54-.61A10.28,10.28,0,0,1,28.56,70.85a1.19,1.19,0,0,0-.91-1.4,1,1,0,0,0-.24,0h-.27a6.41,6.41,0,0,1-3-12,1.17,1.17,0,0,0,0-2.06,4.47,4.47,0,0,1,2-8.45h.13a1.15,1.15,0,0,0,.89-.37,1.11,1.11,0,0,0,.28-.92A10.51,10.51,0,0,1,27.33,44a10.29,10.29,0,0,1,15.74-8.74,1.06,1.06,0,0,0,.62.17,1.17,1.17,0,0,0,.52-.12,1.14,1.14,0,0,0,.64-1,6.43,6.43,0,0,1,6.39-5.89,6.31,6.31,0,0,1,3.63,1.13,1.17,1.17,0,0,0,1.5-.16,4.47,4.47,0,0,1,5.81-.53,1.1,1.1,0,0,0,.68.21,1.14,1.14,0,0,0,.66-.2,6.41,6.41,0,0,1,10,5.28v.33a1.16,1.16,0,0,0,1.1,1.22h.07a4.45,4.45,0,0,1,4,2.52,1.18,1.18,0,0,0,.9.64q-.18-.6-.33-1.2a1.91,1.91,0,0,1,0-.79,5.65,5.65,0,0,0-4.56-2.32h0v-.39A7.57,7.57,0,0,0,62.81,28a5.61,5.61,0,0,0-7.32.67A7.57,7.57,0,0,0,45,30.57a7.44,7.44,0,0,0-1.31,3.69A11.47,11.47,0,0,0,26.27,45.75h-.13a5.63,5.63,0,0,0-2.63,10.61,7.58,7.58,0,0,0,3.6,14.25h.29A11.45,11.45,0,0,0,43.06,83.68a7.57,7.57,0,0,0,9.94,4,7.48,7.48,0,0,0,2.85-2.13,7.57,7.57,0,0,0,7.87-2.89,11.45,11.45,0,0,0,20.83-5.41Z" transform="translate(-0.01 0)" style="fill:#ef564b"/><path id="Tracé_22500" data-name="Tracé 22500" d="M67.81,37a7.32,7.32,0,0,0,6.66-1.57c.55-.52-.28-1.34-.82-.83a6.16,6.16,0,0,1-5.53,1.28A.58.58,0,0,0,67.81,37Z" transform="translate(-0.01 0)" style="fill:#ef564b"/></g><g id="Groupe_10145" data-name="Groupe 10145"><path id="Tracé_22498" data-name="Tracé 22498" d="M48,40.8c-3.74-.83-3.59-5.89-2.54-8.65.26-.71-.86-1-1.13-.31-1.27,3.38-1,9.11,3.36,10.09C48.38,42.09,48.69,41,48,40.8Z" transform="translate(-0.01 0)" style="fill:#ef564b"/><path id="Tracé_22499" data-name="Tracé 22499" d="M54.74,29.54a7.14,7.14,0,0,1,2.16,4.31c.08.74,1.25.75,1.17,0a9.35,9.35,0,0,0-.7-2.7,8.63,8.63,0,0,0-1.8-2.44C55,28.17,54.22,29,54.74,29.54Z" transform="translate(-0.01 0)" style="fill:#ef564b"/><path id="Tracé_22501" data-name="Tracé 22501" d="M78.74,38.24c.87,2-.25,3.89-1.38,5.55-.43.63.58,1.21,1,.6,1.42-2.09,2.44-4.26,1.38-6.73-.3-.69-1.3-.1-1,.58Z" transform="translate(-0.01 0)" style="fill:#ef564b"/></g><path id="Tracé_22503" data-name="Tracé 22503" d="M45.32,85.07a5.61,5.61,0,0,1,.81-7.9,6,6,0,0,1,1-.67c.67-.34.08-1.34-.59-1a6.8,6.8,0,0,0-2.93,9.14,7.19,7.19,0,0,0,.67,1c.46.6,1.46,0,1-.59Z" transform="translate(-0.01 0)" style="fill:#ef564b"/><path id="Tracé_22504" data-name="Tracé 22504" d="M54.12,87.12a5.74,5.74,0,0,0,2.42-5,.58.58,0,0,0-1.16,0,4.53,4.53,0,0,1-1.86,4c-.6.46,0,1.46.59,1Z" transform="translate(-0.01 0)" style="fill:#ef564b"/><path id="Tracé_22505" data-name="Tracé 22505" d="M62.88,78.28c-.27,3.15,1.18,5.23,3.58,7.13.58.47,1.39-.36.82-.82-2.16-1.71-3.48-3.45-3.24-6.3C64.11,77.53,62.94,77.54,62.88,78.28Z" transform="translate(-0.01 0)" style="fill:#ef564b"/><path id="Tracé_22506" data-name="Tracé 22506" d="M28.31,73.77c0-3,.75-5.37,3.1-7.36.58-.49-.25-1.31-.82-.82-2.58,2.18-3.42,4.86-3.42,8.18a.59.59,0,0,0,1.17,0Z" transform="translate(-0.01 0)" style="fill:#ef564b"/><path id="Tracé_22507" data-name="Tracé 22507" d="M84.57,77c0-2.47,0-4.57-1.53-6.63-.47-.6-1.46,0-1,.58,1.41,1.9,1.38,3.79,1.38,6a.59.59,0,0,0,.59.58.58.58,0,0,0,.58-.58Z" transform="translate(-0.01 0)" style="fill:#cc1417"/><path id="Tracé_22508" data-name="Tracé 22508" d="M36.61,49.07c-.35-2.12,2-3.76,3.85-3.92.74-.06.74-1.23,0-1.16-2.72.23-5.46,2.46-5,5.4C35.61,50.12,36.74,49.81,36.61,49.07Z" transform="translate(-0.01 0)" style="fill:#ef564b"/><circle id="Ellipse_434" data-name="Ellipse 434" cx="61.87" cy="57.54" r="4.53" style="fill:#81c7ed"/><circle id="Ellipse_435" data-name="Ellipse 435" cx="106" cy="57.54" r="4.53" style="fill:#81c7ed"/><path id="Tracé_22509" data-name="Tracé 22509" d="M83.42,53A27.53,27.53,0,0,1,85.1,42.42a7.09,7.09,0,0,0,.67-2.55,6.27,6.27,0,0,0-.47-2.14C86.69,36,94.66,40.28,95,39.26c0,0,10.69,29.56,3.82,34.6s-11.2,5.88-13,1.42S83.42,53,83.42,53Z" transform="translate(-0.01 0)" style="fill:#ef7668"/><path id="Tracé_22510" data-name="Tracé 22510" d="M82,71a9.68,9.68,0,0,1,.72,8.93c-.28.69.72,1.28,1,.59,1.33-3.12,1.3-7.32-.73-10.1C82.59,69.8,81.57,70.4,82,71Z" transform="translate(-0.01 0)" style="fill:#ef564b"/><path id="Tracé_22511" data-name="Tracé 22511" d="M80.37,63.79c.06,2.28,1.44,4.16,3.88,4.06s3.63-2.2,3.18-4.43c-.23-1.1-1.91-.63-1.69.47A1.71,1.71,0,0,1,84.62,66a1.51,1.51,0,0,1-.37.07c-1.46.18-2.1-1-2.13-2.31a.88.88,0,1,0-1.75,0Z" transform="translate(-0.01 0)" style="fill:#81c7ed"/><g id="Groupe_10142" data-name="Groupe 10142"><path id="Tracé_22512" data-name="Tracé 22512" d="M65.17,63a11.11,11.11,0,0,0-3.06.73,3.92,3.92,0,0,1-2,0,18.93,18.93,0,0,0-4.72-.83c-2.15.1-4.1,2.6-2.9,4.63a6.71,6.71,0,0,0,5.62,3A12.66,12.66,0,0,0,61.31,70c1.31-.33,2.66-.2,4-.46,1.62-.33,3.45-1.56,3.57-3.36S66.87,62.94,65.17,63Z" transform="translate(-0.01 0)" style="fill:#ef7668"/></g><g id="Groupe_10143" data-name="Groupe 10143"><path id="Tracé_22513" data-name="Tracé 22513" d="M113.05,62.13a8.38,8.38,0,0,0-3,.86,7.88,7.88,0,0,1-3.58.13c-1.52-.21-3.14-.73-4.68-.51a2.52,2.52,0,0,0-2.1,3.21,5,5,0,0,0,4.28,3.5,13.8,13.8,0,0,0,6.19-.93,9.45,9.45,0,0,0,4.8-3.1C116.08,63.71,114.7,62.22,113.05,62.13Z" transform="translate(-0.01 0)" style="fill:#ef7668"/></g><path id="Tracé_22514" data-name="Tracé 22514" d="M35.37,61.6c2.35-1.61,4.6.6,5.71,2.6,1.33,2.39-.6,4.63-1.3,6.86-1.05,3.4,1.92,6.2,5,6.55.75.08.74-1.08,0-1.17a4.22,4.22,0,0,1-4-3.93c-.18-1.54.93-2.87,1.43-4.22a5.52,5.52,0,0,0-.14-4.68c-1.24-2.68-4.56-4.89-7.3-3C34.17,61,34.75,62,35.37,61.6Z" transform="translate(-0.01 0)" style="fill:#ef564b"/><path id="Tracé_22515" data-name="Tracé 22515" d="M42.13,68.17a1.68,1.68,0,0,1,2,1.33,1.64,1.64,0,0,1,0,.44.6.6,0,0,0,.59.59.59.59,0,0,0,.58-.59,2.87,2.87,0,0,0-3.46-2.89C41.09,67.21,41.4,68.33,42.13,68.17Z" transform="translate(-0.01 0)" style="fill:#ef564b"/><path id="Tracé_22516" data-name="Tracé 22516" d="M100.22,73.44c1.26,1.85,4.63,2.92,6.63,1.76a.59.59,0,0,0,.12-.82.57.57,0,0,0-.71-.18c-1.42.82-4.13,0-5-1.35C100.81,72.23,99.8,72.81,100.22,73.44Z" transform="translate(-0.01 0)" style="fill:#ef564b"/><path id="Tracé_22517" data-name="Tracé 22517" d="M86.33,79.86a2,2,0,0,0,2.81.33l.15-.13c.55-.51-.27-1.34-.82-.83s-.93.23-1.32-.19S85.83,79.31,86.33,79.86Z" transform="translate(-0.01 0)" style="fill:#ef564b"/><rect id="Rectangle_17350" data-name="Rectangle 17350" x="120.27" y="59.58" width="44.93" height="38.21" transform="translate(24.24 190.6) rotate(-72.23)" style="fill:#c9b7da"/><path id="Tracé_22518" data-name="Tracé 22518" d="M134.26,53.9l0-.18-2.8-.9,0,0a.9.9,0,0,1-.15.19,5.55,5.55,0,0,1-.24.56l3.29,1a1,1,0,0,1-.12-.76Z" transform="translate(-0.01 0)" style="fill:#cc1417"/><path id="Tracé_22519" data-name="Tracé 22519" d="M139.74,55.46l-3.05-1a.43.43,0,0,1,0,.07,1,1,0,0,1-.51.37,1,1,0,0,1-.3.2l4,1.27A.93.93,0,0,1,139.74,55.46Z" transform="translate(-0.01 0)" style="fill:#cc1417"/><path id="Tracé_22520" data-name="Tracé 22520" d="M145.29,57.68l.07-.41-2.78-.9c-.07.23-.14.46-.22.69l-.06.14,3,1A1.32,1.32,0,0,1,145.29,57.68Z" transform="translate(-0.01 0)" style="fill:#cc1417"/><path id="Tracé_22521" data-name="Tracé 22521" d="M150.8,59.25a1.43,1.43,0,0,0,.08-.22L148,58.11a2,2,0,0,1-.46.77l3.19,1a1,1,0,0,1,.07-.65Z" transform="translate(-0.01 0)" style="fill:#cc1417"/><path id="Tracé_22522" data-name="Tracé 22522" d="M156.71,61.54a2.29,2.29,0,0,1-.14-.68l-2.89-.93a5.7,5.7,0,0,1-.37.69.31.31,0,0,1-.07.09l3.7,1.19A1.05,1.05,0,0,1,156.71,61.54Z" transform="translate(-0.01 0)" style="fill:#cc1417"/><path id="Tracé_22523" data-name="Tracé 22523" d="M159.18,61.69a3.28,3.28,0,0,1-.2.31.92.92,0,0,1-.46.39l3.19,1-13.45,42L112.7,94,126.15,52l2.26.72a6.53,6.53,0,0,1,.13-.87l-2.95-.93-14,43.62,37.22,11.93,14-43.63Z" transform="translate(-0.01 0)" style="fill:#cc1417"/><rect id="Rectangle_17351" data-name="Rectangle 17351" x="120.77" y="58.07" width="44.93" height="38.21" transform="translate(26.01 190.02) rotate(-72.23)" style="fill:#f29497"/><path id="Tracé_22524" data-name="Tracé 22524" d="M134.67,52.17l-2.42-.78c-.12.29-.25.56-.37.8l2.59.83C134.53,52.73,134.59,52.43,134.67,52.17Z" transform="translate(-0.01 0)" style="fill:#cc1417"/><path id="Tracé_22525" data-name="Tracé 22525" d="M140.12,53.91l-2.81-.9a4.81,4.81,0,0,1-.26.84l2.94.93C140,54.5,140.07,54.2,140.12,53.91Z" transform="translate(-0.01 0)" style="fill:#cc1417"/><path id="Tracé_22526" data-name="Tracé 22526" d="M145.7,55.71,143,54.84c-.07.28-.15.57-.23.84l2.72.87C145.56,56.27,145.63,56,145.7,55.71Z" transform="translate(-0.01 0)" style="fill:#cc1417"/><path id="Tracé_22527" data-name="Tracé 22527" d="M159.9,60.26c-.11.27-.23.54-.36.8l2.64.84-13.42,42L113.2,92.46l13.42-41.95,2.09.67c.08-.27.16-.54.22-.81v0l-2.88-.93L112.07,93,149.29,105l14-43.61Z" transform="translate(-0.01 0)" style="fill:#cc1417"/><path id="Tracé_22528" data-name="Tracé 22528" d="M156.79,59.26l-2.65-.84a6.07,6.07,0,0,1-.21.84l2.64.85A4.25,4.25,0,0,1,156.79,59.26Z" transform="translate(-0.01 0)" style="fill:#cc1417"/><path id="Tracé_22529" data-name="Tracé 22529" d="M151.26,57.49l-2.92-.93a2.87,2.87,0,0,1-.05.31c0,.1-.07.36-.1.56l2.89.93Q151.17,57.91,151.26,57.49Z" transform="translate(-0.01 0)" style="fill:#cc1417"/><rect id="Rectangle_17352" data-name="Rectangle 17352" x="120.97" y="56.89" width="44.92" height="37.7" transform="translate(27.54 189.22) rotate(-72.24)" style="fill:#f6f6d4"/><path id="Tracé_22530" data-name="Tracé 22530" d="M135.16,50.81,132.71,50c-.08.28-.16.56-.26.83l2.39.77A7.18,7.18,0,0,1,135.16,50.81Z" transform="translate(-0.01 0)" style="fill:#cc1417"/><path id="Tracé_22531" data-name="Tracé 22531" d="M146.14,54.33l-2.87-.92c0,.28-.09.57-.15.86l2.73.87Z" transform="translate(-0.01 0)" style="fill:#cc1417"/><path id="Tracé_22532" data-name="Tracé 22532" d="M151.76,56.14l-3.2-1q0,.44-.12.87l3,1A3.28,3.28,0,0,1,151.76,56.14Z" transform="translate(-0.01 0)" style="fill:#cc1417"/><path id="Tracé_22533" data-name="Tracé 22533" d="M157,58.73a5,5,0,0,1,.47-.76l-3.28-1a4.82,4.82,0,0,1,0,.93Z" transform="translate(-0.01 0)" style="fill:#cc1417"/><path id="Tracé_22534" data-name="Tracé 22534" d="M160.23,58.84a5,5,0,0,1-.16.86l2.08.67-13.45,42L113.61,91.09l13.45-42,2,.64a2.86,2.86,0,0,1,.07-.28,4.35,4.35,0,0,0,.06-.52V48.9L126.5,48l-14,43.62,36.74,11.78,14-43.62Z" transform="translate(-0.01 0)" style="fill:#ef564b"/><path id="Tracé_22535" data-name="Tracé 22535" d="M140.23,53.3a3.57,3.57,0,0,1,.31-.76l-2.83-.93a4.94,4.94,0,0,1-.25.83l2.76.92A.13.13,0,0,1,140.23,53.3Z" transform="translate(-0.01 0)" style="fill:#cc1417"/><rect id="Rectangle_17353" data-name="Rectangle 17353" x="139.3" y="43.24" width="5.63" height="38.58" transform="matrix(0.31, -0.95, 0.95, 0.31, 39.19, 178.77)" style="fill:#ef564b"/><rect id="Rectangle_17354" data-name="Rectangle 17354" x="143.4" y="39.99" width="10.55" height="38.71" transform="translate(46.78 182.82) rotate(-72.23)" style="fill:#81c7ed"/><path id="Tracé_22536" data-name="Tracé 22536" d="M135.16,50.81,132.71,50c-.08.28-.16.56-.26.83l2.39.77A7.18,7.18,0,0,1,135.16,50.81Z" transform="translate(-0.01 0)" style="fill:#ef564b"/><path id="Tracé_22537" data-name="Tracé 22537" d="M146.14,54.33l-2.87-.92c0,.28-.09.57-.15.86l2.73.87Z" transform="translate(-0.01 0)" style="fill:#ef564b"/><path id="Tracé_22538" data-name="Tracé 22538" d="M151.76,56.14l-3.2-1q0,.44-.12.87l3,1A3.28,3.28,0,0,1,151.76,56.14Z" transform="translate(-0.01 0)" style="fill:#ef564b"/><path id="Tracé_22539" data-name="Tracé 22539" d="M157,58.73a5.91,5.91,0,0,1,.46-.76l-3.27-1a4.82,4.82,0,0,1,0,.93Z" transform="translate(-0.01 0)" style="fill:#ef564b"/><path id="Tracé_22540" data-name="Tracé 22540" d="M160.23,58.84a4.19,4.19,0,0,1-.15.86l2.55.82-3,9.22-36-11.57,3-9.22,2.47.79a1,1,0,0,1,.07-.28,4.35,4.35,0,0,0,.06-.52.06.06,0,0,1,0-.06l-3.18-1-3.48,10.89,37.69,12.08L163.73,60Z" transform="translate(-0.01 0)" style="fill:#ef564b"/><path id="Tracé_22541" data-name="Tracé 22541" d="M140.23,53.3a3.57,3.57,0,0,1,.31-.76l-2.83-.93a4.94,4.94,0,0,1-.25.83l2.76.92A.13.13,0,0,1,140.23,53.3Z" transform="translate(-0.01 0)" style="fill:#ef564b"/><path id="Tracé_22542" data-name="Tracé 22542" d="M135.7,54.05a1,1,0,0,1-.35-.06l-.75-.24a1.15,1.15,0,0,1-.75-1.45l1.5-4.69a1.15,1.15,0,0,1,1.44-.74l.76.24a1.15,1.15,0,0,1,.74,1.44h0l-1.5,4.69A1.15,1.15,0,0,1,135.7,54.05Z" transform="translate(-0.01 0)" style="fill:#9aacc0"/><path id="Tracé_22543" data-name="Tracé 22543" d="M130.89,47.25h0a.54.54,0,0,1,.22,0l.75.24a.67.67,0,0,1,.42.35.7.7,0,0,1,.05.55l-1.5,4.69a.73.73,0,0,1-.69.5.83.83,0,0,1-.22,0l-.75-.24a.73.73,0,0,1-.47-.91v0l1.5-4.69a.71.71,0,0,1,.68-.5m0-.86a1.58,1.58,0,0,0-1.51,1.1l-1.5,4.68a1.58,1.58,0,0,0,1,2h0l.76.24a1.77,1.77,0,0,0,.46.07,1.58,1.58,0,0,0,1.51-1.1l1.54-4.66a1.58,1.58,0,0,0-1-2h0l-.75-.24a1.36,1.36,0,0,0-.49-.08Z" transform="translate(-0.01 0)" style="fill:#ef564b"/><path id="Tracé_22544" data-name="Tracé 22544" d="M141.31,55.85a1,1,0,0,1-.35-.06l-.75-.24a1.1,1.1,0,0,1-.68-.57,1.16,1.16,0,0,1-.07-.88l1.5-4.68a1.14,1.14,0,0,1,1.09-.8,1,1,0,0,1,.35.05l.76.24a1.16,1.16,0,0,1,.74,1.45l-1.5,4.69A1.14,1.14,0,0,1,141.31,55.85Z" transform="translate(-0.01 0)" style="fill:#9aacc0"/><path id="Tracé_22545" data-name="Tracé 22545" d="M136.5,49.05h0a.54.54,0,0,1,.22,0l.75.24a.72.72,0,0,1,.47.9l-1.52,4.69a.71.71,0,0,1-.68.5.78.78,0,0,1-.22,0l-.76-.25a.68.68,0,0,1-.41-.35.7.7,0,0,1,0-.55l1.5-4.69a.72.72,0,0,1,.68-.5m0-.86a1.57,1.57,0,0,0-1.5,1.1L133.48,54a1.58,1.58,0,0,0,1,2h0l.76.25a1.43,1.43,0,0,0,.46.07,1.58,1.58,0,0,0,1.51-1.1l1.5-4.69a1.59,1.59,0,0,0-1-2l-.76-.24a1.61,1.61,0,0,0-.48-.08Z" transform="translate(-0.01 0)" style="fill:#ef564b"/><path id="Tracé_22546" data-name="Tracé 22546" d="M146.92,57.65a1,1,0,0,1-.35-.06l-.75-.24a1.15,1.15,0,0,1-.75-1.44l1.5-4.69a1.14,1.14,0,0,1,1.09-.8,1.49,1.49,0,0,1,.36,0l.75.24a1.17,1.17,0,0,1,.75,1.45L148,56.85a1.15,1.15,0,0,1-1.1.8Z" transform="translate(-0.01 0)" style="fill:#9aacc0"/><path id="Tracé_22547" data-name="Tracé 22547" d="M142.11,50.85a.78.78,0,0,1,.22,0l.75.24a.73.73,0,0,1,.48.9v0l-1.5,4.69a.72.72,0,0,1-.68.5.78.78,0,0,1-.22,0l-.76-.24a.72.72,0,0,1-.46-.9l1.5-4.69a.71.71,0,0,1,.68-.5m0-.87a1.58,1.58,0,0,0-1.5,1.1l-1.5,4.69a1.58,1.58,0,0,0,1,2h0l.76.24a1.56,1.56,0,0,0,.48.08,1.58,1.58,0,0,0,1.5-1.1l1.5-4.69a1.58,1.58,0,0,0-1-2h0l-.76-.24A1.56,1.56,0,0,0,142.11,50Z" transform="translate(-0.01 0)" style="fill:#ef564b"/><path id="Tracé_22548" data-name="Tracé 22548" d="M152.53,59.45a1.07,1.07,0,0,1-.35-.06l-.75-.24a1.16,1.16,0,0,1-.75-1.45l1.5-4.69a1.15,1.15,0,0,1,1.1-.8,1.34,1.34,0,0,1,.35,0l.75.25a1.15,1.15,0,0,1,.75,1.44h0l-1.5,4.69a1.14,1.14,0,0,1-1.09.8Z" transform="translate(-0.01 0)" style="fill:#9aacc0"/><path id="Tracé_22549" data-name="Tracé 22549" d="M147.73,52.65h0a.83.83,0,0,1,.22,0l.75.25a.71.71,0,0,1,.46.9l-1.5,4.68a.7.7,0,0,1-.68.5.56.56,0,0,1-.22,0l-.75-.24a.72.72,0,0,1-.47-.89h0l1.52-4.69a.72.72,0,0,1,.69-.5m0-.87a1.59,1.59,0,0,0-1.51,1.1l-1.5,4.7a1.59,1.59,0,0,0,1,2l.76.24a1.55,1.55,0,0,0,.48.07,1.57,1.57,0,0,0,1.5-1.1l1.5-4.69a1.56,1.56,0,0,0-1-2h0l-.76-.24a1.44,1.44,0,0,0-.46-.08Z" transform="translate(-0.01 0)" style="fill:#ef564b"/><path id="Tracé_22550" data-name="Tracé 22550" d="M158.14,61.23a1.07,1.07,0,0,1-.35-.06l-.75-.24a1.13,1.13,0,0,1-.74-1.44l1.5-4.69a1.14,1.14,0,0,1,1.1-.8,1,1,0,0,1,.34.06l.76.24a1.15,1.15,0,0,1,.74,1.44l-1.5,4.7a1.15,1.15,0,0,1-1.09.8Z" transform="translate(-0.01 0)" style="fill:#9aacc0"/><path id="Tracé_22551" data-name="Tracé 22551" d="M153.34,54.45h0a.83.83,0,0,1,.22,0l.75.24a.73.73,0,0,1,.47.9l-1.5,4.68a.72.72,0,0,1-.68.5.54.54,0,0,1-.22,0l-.76-.24a.72.72,0,0,1-.46-.9l1.5-4.69a.72.72,0,0,1,.68-.5m0-.87a1.6,1.6,0,0,0-1.5,1.1l-1.53,4.71a1.58,1.58,0,0,0,1,2h0l.75.24a1.36,1.36,0,0,0,.49.08,1.58,1.58,0,0,0,1.5-1.1l1.5-4.69a1.57,1.57,0,0,0-1-2h0l-.75-.24a1.85,1.85,0,0,0-.47-.08Z" transform="translate(-0.01 0)" style="fill:#ef564b"/><path id="Tracé_22552" data-name="Tracé 22552" d="M163.75,63a1.06,1.06,0,0,1-.35,0l-.75-.24a1.15,1.15,0,0,1-.74-1.45l1.5-4.7a1.13,1.13,0,0,1,1.1-.8,1.41,1.41,0,0,1,.35.05l.75.25a1.14,1.14,0,0,1,.74,1.44h0l-1.5,4.69a1.14,1.14,0,0,1-1.09.81Z" transform="translate(-0.01 0)" style="fill:#9aacc0"/><path id="Tracé_22553" data-name="Tracé 22553" d="M159,56.24h0l.22,0,.75.24a.73.73,0,0,1,.47.9l-1.5,4.69a.72.72,0,0,1-.68.5.78.78,0,0,1-.22,0l-.76-.25a.72.72,0,0,1-.46-.9l1.5-4.68a.71.71,0,0,1,.68-.5m0-.87a1.59,1.59,0,0,0-1.51,1.1l-1.5,4.69a1.6,1.6,0,0,0,1,2l.75.24a1.33,1.33,0,0,0,.48.07,1.56,1.56,0,0,0,1.5-1.1l1.5-4.68a1.58,1.58,0,0,0-1-2h0l-.75-.24a1.85,1.85,0,0,0-.47-.08Z" transform="translate(-0.01 0)" style="fill:#ef564b"/><path id="Tracé_22554" data-name="Tracé 22554" d="M135.92,53.36a1,1,0,0,1-.35-.06l-.76-.24a1.15,1.15,0,0,1-.74-1.44l1.5-4.69a1.15,1.15,0,0,1,1.44-.75h0l.75.24a1.14,1.14,0,0,1,.75,1.43v0L137,52.56a1.16,1.16,0,0,1-1.1.81Z" transform="translate(-0.01 0)" style="fill:#9aacc0"/><path id="Tracé_22555" data-name="Tracé 22555" d="M131.11,46.56a.54.54,0,0,1,.22,0l.76.24a.72.72,0,0,1,.46.9h0l-1.5,4.7a.72.72,0,0,1-.68.5.85.85,0,0,1-.22,0l-.75-.24a.72.72,0,0,1-.47-.9l1.5-4.7a.74.74,0,0,1,.69-.5m0-.86a1.58,1.58,0,0,0-1.51,1.1l-1.52,4.71a1.57,1.57,0,0,0,1,2h0l.76.24a1.85,1.85,0,0,0,.46.08,1.59,1.59,0,0,0,1.51-1.1l1.5-4.69a1.58,1.58,0,0,0-1-2h0l-.76-.25a1.77,1.77,0,0,0-.46-.07Z" transform="translate(-0.01 0)" style="fill:#ef564b"/><path id="Tracé_22556" data-name="Tracé 22556" d="M141.51,55.16a1,1,0,0,1-.35-.06l-.76-.24a1.18,1.18,0,0,1-.72-1.46l1.5-4.67a1.16,1.16,0,0,1,1.45-.74l.76.24a1.14,1.14,0,0,1,.74,1.44l-1.5,4.69A1.15,1.15,0,0,1,141.51,55.16Z" transform="translate(-0.01 0)" style="fill:#9aacc0"/><path id="Tracé_22557" data-name="Tracé 22557" d="M136.72,48.37h0a.53.53,0,0,1,.22,0l.76.24a.71.71,0,0,1,.41.35.7.7,0,0,1,0,.55l-1.5,4.69a.73.73,0,0,1-.7.52.83.83,0,0,1-.22,0l-.75-.25a.72.72,0,0,1-.47-.9v0l1.5-4.69a.72.72,0,0,1,.68-.5m0-.87a1.61,1.61,0,0,0-1.51,1.1l-1.5,4.69a1.59,1.59,0,0,0,1,2h0l.75.24a1.57,1.57,0,0,0,2-1v0L139,49.8a1.58,1.58,0,0,0-1-2h0l-.75-.24a1.5,1.5,0,0,0-.47-.08Z" transform="translate(-0.01 0)" style="fill:#ef564b"/><path id="Tracé_22558" data-name="Tracé 22558" d="M147.14,57a1.34,1.34,0,0,1-.35-.05l-.75-.25a1.15,1.15,0,0,1-.75-1.44h0l1.5-4.69a1.15,1.15,0,0,1,1.44-.75h0L149,50a1.18,1.18,0,0,1,.67.57,1.13,1.13,0,0,1,.07.88l-1.5,4.69A1.14,1.14,0,0,1,147.14,57Z" transform="translate(-0.01 0)" style="fill:#9aacc0"/><path id="Tracé_22559" data-name="Tracé 22559" d="M142.34,50.16l.21,0,.76.25a.69.69,0,0,1,.42.35.75.75,0,0,1,0,.55L142.27,56a.71.71,0,0,1-.68.5.85.85,0,0,1-.22,0l-.75-.24a.72.72,0,0,1-.47-.9l1.5-4.7a.73.73,0,0,1,.68-.5m0-.86a1.58,1.58,0,0,0-1.5,1.1l-1.5,4.69a1.59,1.59,0,0,0,1,2h0l.75.24a1.59,1.59,0,0,0,2-1l1.5-4.69a1.58,1.58,0,0,0-1-2l-.75-.24a1.85,1.85,0,0,0-.46-.08Z" transform="translate(-0.01 0)" style="fill:#ef564b"/><path id="Tracé_22560" data-name="Tracé 22560" d="M152.75,58.76a1,1,0,0,1-.35-.06l-.75-.25A1.15,1.15,0,0,1,150.9,57l1.5-4.69a1.15,1.15,0,0,1,1.44-.75h0l.75.25a1.15,1.15,0,0,1,.75,1.44L153.85,58a1.16,1.16,0,0,1-1.1.81Z" transform="translate(-0.01 0)" style="fill:#9aacc0"/><path id="Tracé_22561" data-name="Tracé 22561" d="M148,52h0a.83.83,0,0,1,.22,0l.75.24a.73.73,0,0,1,.47.91v0l-1.5,4.69a.71.71,0,0,1-.68.5.83.83,0,0,1-.22,0l-.75-.24a.74.74,0,0,1-.42-.36.7.7,0,0,1,0-.55l1.5-4.69A.72.72,0,0,1,148,52m0-.86a1.57,1.57,0,0,0-1.5,1.1L145,56.9a1.58,1.58,0,0,0,1,2h0l.75.24a1.85,1.85,0,0,0,.47.08,1.6,1.6,0,0,0,1.51-1.1l1.5-4.69a1.59,1.59,0,0,0-1-2l-.75-.25a1.61,1.61,0,0,0-.49-.07Z" transform="translate(-0.01 0)" style="fill:#ef564b"/><path id="Tracé_22562" data-name="Tracé 22562" d="M158.36,60.56a1,1,0,0,1-.35-.06l-.75-.24a1.15,1.15,0,0,1-.75-1.45l1.5-4.69a1.17,1.17,0,0,1,1.1-.8,1.07,1.07,0,0,1,.35.06l.75.24a1.16,1.16,0,0,1,.75,1.45l-1.5,4.69A1.15,1.15,0,0,1,158.36,60.56Z" transform="translate(-0.01 0)" style="fill:#9aacc0"/><path id="Tracé_22563" data-name="Tracé 22563" d="M153.55,53.76h0a.57.57,0,0,1,.22,0l.75.24a.7.7,0,0,1,.46.89h0l-1.5,4.69a.71.71,0,0,1-.68.5.78.78,0,0,1-.22,0l-.74-.25a.72.72,0,0,1-.47-.9l1.5-4.69a.72.72,0,0,1,.68-.5m0-.87a1.6,1.6,0,0,0-1.5,1.1l-1.5,4.69a1.57,1.57,0,0,0,1,2l.75.25a1.83,1.83,0,0,0,.46.07,1.58,1.58,0,0,0,1.51-1.1l1.52-4.68a1.6,1.6,0,0,0-1-2L154,53a1.7,1.7,0,0,0-.5-.09Z" transform="translate(-0.01 0)" style="fill:#ef564b"/><path id="Tracé_22564" data-name="Tracé 22564" d="M164,62.35a.9.9,0,0,1-.36-.05l-.75-.24a1.15,1.15,0,0,1-.75-1.44h0l1.5-4.69a1.16,1.16,0,0,1,1.1-.8,1.07,1.07,0,0,1,.35.06l.75.24a1.16,1.16,0,0,1,.75,1.45l-1.5,4.69A1.14,1.14,0,0,1,164,62.35Z" transform="translate(-0.01 0)" style="fill:#9aacc0"/><path id="Tracé_22565" data-name="Tracé 22565" d="M159.17,55.56h0a.83.83,0,0,1,.22,0l.75.24a.73.73,0,0,1,.47.9l-1.5,4.69a.72.72,0,0,1-.68.5.54.54,0,0,1-.22,0l-.75-.24a.72.72,0,0,1-.48-.9v0l1.5-4.69a.72.72,0,0,1,.68-.5m0-.87a1.59,1.59,0,0,0-1.5,1.1l-1.5,4.69a1.58,1.58,0,0,0,1,2h0l.75.24a1.48,1.48,0,0,0,.46.08,1.57,1.57,0,0,0,1.5-1.1L161.42,57a1.58,1.58,0,0,0-1-2h0l-.76-.25a1.92,1.92,0,0,0-.48-.07Z" transform="translate(-0.01 0)" style="fill:#ef564b"/><rect id="Rectangle_17355" data-name="Rectangle 17355" x="139.6" y="53.03" width="0.87" height="31.95" transform="translate(31.58 181.29) rotate(-72.23)" style="fill:#ef564b"/><rect id="Rectangle_17356" data-name="Rectangle 17356" x="138.66" y="58.26" width="0.87" height="31.95" transform="translate(25.36 183.43) rotate(-71.93)" style="fill:#ef564b"/><rect id="Rectangle_17357" data-name="Rectangle 17357" x="136.77" y="61.83" width="0.87" height="31.95" transform="translate(21.23 184.72) rotate(-72.23)" style="fill:#ef564b"/><rect id="Rectangle_17358" data-name="Rectangle 17358" x="135.36" y="66.23" width="0.87" height="31.95" transform="translate(16.06 186.43) rotate(-72.23)" style="fill:#ef564b"/><rect id="Rectangle_17359" data-name="Rectangle 17359" x="133.95" y="70.64" width="0.87" height="31.95" transform="translate(10.88 188.15) rotate(-72.23)" style="fill:#ef564b"/><rect id="Rectangle_17360" data-name="Rectangle 17360" x="132.54" y="75.04" width="0.87" height="31.95" transform="translate(5.71 189.86) rotate(-72.23)" style="fill:#ef564b"/><path id="Tracé_22566" data-name="Tracé 22566" d="M154.15,99.77l1.23-3.85c.17-.54-.66-.76-.83-.23l-1.24,3.85C153.14,100.07,154,100.3,154.15,99.77Z" transform="translate(-0.01 0)" style="fill:#fff"/><path id="Tracé_22567" data-name="Tracé 22567" d="M156.07,94l.42-1.31c.17-.53-.67-.76-.84-.23l-.42,1.31C155.06,94.31,155.9,94.54,156.07,94Z" transform="translate(-0.01 0)" style="fill:#fff"/></g></g><g id="Groupe_40" data-name="Groupe 40"><g id="Groupe_39" data-name="Groupe 39"><circle id="Ellipse_1" data-name="Ellipse 1" cx="78.14" cy="19.45" r="0.57" style="fill:#ef7668"/><g id="Groupe_31" data-name="Groupe 31"><path id="Tracé_58" data-name="Tracé 58" d="M87.57,11.27a9.43,9.43,0,1,1-9.43-9.43,9.43,9.43,0,0,1,9.43,9.43Z" transform="translate(-0.01 0)" style="fill:#fff;opacity:0.10000000149011612;isolation:isolate"/><path id="Tracé_59" data-name="Tracé 59" d="M86.55,11.27a8.41,8.41,0,1,1-8.41-8.41h0A8.42,8.42,0,0,1,86.55,11.27Z" transform="translate(-0.01 0)" style="fill:#fff;opacity:0.10000000149011612;isolation:isolate"/><path id="Tracé_60" data-name="Tracé 60" d="M85.15,11.27a7,7,0,1,1-7-7h0A7,7,0,0,1,85.15,11.27Z" transform="translate(-0.01 0)" style="fill:#fff;opacity:0.10000000149011612;isolation:isolate"/></g><path id="Tracé_61" data-name="Tracé 61" d="M82.63,11.27a4.49,4.49,0,1,1-4.49-4.49h0A4.49,4.49,0,0,1,82.63,11.27Z" transform="translate(-0.01 0)" style="fill:#fff"/><g id="Groupe_34" data-name="Groupe 34"><rect id="Rectangle_2" data-name="Rectangle 2" x="75.92" y="15.47" width="4.44" height="3.98" rx="1.99" ry="1.99" style="fill:#81c7ed"/><g id="Groupe_32" data-name="Groupe 32" style="opacity:0.4000000059604645"><path id="Tracé_62" data-name="Tracé 62" d="M80.36,17.06v.26a18.13,18.13,0,0,1-2.08.12,20.62,20.62,0,0,1-2.36-.14v-.25A19.39,19.39,0,0,0,80.36,17.06Z" transform="translate(-0.01 0)" style="fill:#fff"/></g><g id="Groupe_33" data-name="Groupe 33" style="opacity:0.4000000059604645"><path id="Tracé_63" data-name="Tracé 63" d="M80.36,18.26v.26a18.13,18.13,0,0,1-2.08.12,20.62,20.62,0,0,1-2.36-.14v-.25A19.39,19.39,0,0,0,80.36,18.26Z" transform="translate(-0.01 0)" style="fill:#fff"/></g></g><g id="Groupe_38" data-name="Groupe 38"><g id="Groupe_37" data-name="Groupe 37"><g id="Groupe_35" data-name="Groupe 35"><path id="Tracé_64" data-name="Tracé 64" d="M76.81,16a.07.07,0,0,1-.07-.06l-.46-4.62a.06.06,0,0,1,0-.07.07.07,0,0,1,.08,0h0l.46,4.62a.07.07,0,0,1-.06.07Z" transform="translate(-0.01 0)" style="fill:#441165"/></g><g id="Groupe_36" data-name="Groupe 36"><path id="Tracé_65" data-name="Tracé 65" d="M79.48,16h0s-.06,0-.06-.07l.47-4.62a.07.07,0,0,1,.07-.06s.06,0,0,.07l-.46,4.62A.06.06,0,0,1,79.48,16Z" transform="translate(-0.01 0)" style="fill:#441165"/></g></g><path id="Tracé_66" data-name="Tracé 66" d="M79.71,11.25a.8.8,0,0,1-1,0,.79.79,0,0,1-1,0,.79.79,0,0,1-1,0s-.06,0-.06.07a.06.06,0,0,0,.06,0,.76.76,0,0,1,.44.16,1,1,0,0,0-.31.65c0,.34.2.49.39.49s.38-.13.38-.49a.94.94,0,0,0-.26-.65.64.64,0,0,1,.85,0,.91.91,0,0,0-.31.65c0,.34.19.49.38.49s.39-.13.39-.49a1,1,0,0,0-.26-.65.63.63,0,0,1,.84,0,1,1,0,0,0-.31.65c0,.34.2.49.39.49s.38-.13.38-.49a.94.94,0,0,0-.26-.65.83.83,0,0,1,.4-.16.06.06,0,1,0,0-.12Zm-2.36.93c0,.23-.09.36-.25.36s-.26-.14-.26-.36a.84.84,0,0,1,.28-.56.79.79,0,0,1,.23.56Zm1.05,0c0,.23-.09.36-.26.36s-.25-.14-.25-.36a.76.76,0,0,1,.28-.56.83.83,0,0,1,.23.56Zm1,0c0,.23-.09.36-.25.36s-.26-.14-.26-.36a.76.76,0,0,1,.28-.56.79.79,0,0,1,.23.56Z" transform="translate(-0.01 0)" style="fill:#81c7ed"/></g></g></g></g></svg>