<svg id="Calque_1" data-name="Calque 1" xmlns="http://www.w3.org/2000/svg" viewBox="0 0 215.66 140.06"><title>emptyneo</title><g id="Groupe_12324" data-name="Groupe 12324"><g id="Groupe_11172" data-name="Groupe 11172"><g id="fusee"><g id="OBJECTS"><g id="Groupe_10733" data-name="Groupe 10733"><path id="Tracé_20852" data-name="Tracé 20852" d="M186.59,132.13c-11.06,6.55-20.16,7.93-26.56,7.93-16.37-.07-38.35-9.17-46.72-9.75a116,116,0,0,0-12.23.07c-8,.29-13.61,1-18.41,1.53-6,.65-14.85,1.46-25.91,2-.87.14-20,2.47-29.84-11.36-.72-1-7.93-11.46-4.43-20.26,1.9-4.8,7.79-11.13,14.41-14.77,1.6-.87,2.62-1.24,3-2.4,1.51-4.73-12.41-9.82-13.85-18.34-.73-4.29,1.38-10.91,15.07-21.1C50.58,41.24,64,37,77.29,41.53,88.64,45.39,89.66,52,100.06,54.05c13.18,2.48,16.74-7.13,39.3-10.84,9.47-1.6,19.5-3.06,29.48,2.25,2,1.1,13.68,7.28,15.28,18,1.89,12.88-15,18.63-13.1,29.26,2,11.79,23.8,13,25.11,24.08C196.85,122.52,191.76,128,186.59,132.13Z" transform="translate(0.1 0)" style="fill:#dfe4f4"/><circle id="Ellipse_392" data-name="Ellipse 392" cx="208.31" cy="50.76" r="7.35" style="fill:#dfe4f4"/><circle id="Ellipse_393" data-name="Ellipse 393" cx="195.35" cy="63.86" r="3.64" style="fill:#dfe4f4"/><circle id="Ellipse_394" data-name="Ellipse 394" cx="9.34" cy="119.03" r="5.75" style="fill:#dfe4f4"/><circle id="Ellipse_395" data-name="Ellipse 395" cx="203.72" cy="102.8" r="5.75" style="fill:#dfe4f4"/><circle id="Ellipse_396" data-name="Ellipse 396" cx="20.76" cy="48.14" r="5.75" style="fill:#dfe4f4"/></g></g></g></g><g id="Groupe_10802" data-name="Groupe 10802"><g id="Groupe_10796" data-name="Groupe 10796"><g id="Groupe_10794" data-name="Groupe 10794"><g id="Groupe_10771" data-name="Groupe 10771"><g id="Groupe_10768" data-name="Groupe 10768"><g id="Groupe_10740" data-name="Groupe 10740"><g id="Groupe_10740-2" data-name="Groupe 10740-2"><g id="Groupe_10738" data-name="Groupe 10738"><g id="Groupe_34" data-name="Groupe 34"><path id="Tracé_101" data-name="Tracé 101" d="M179.41,71c5.69,1.93,13.88-7.1,14.17-12.15s-1.61-8.34-4.22-13c-2.44-4.4-5.76-5.94-9.84-7.93-.17-.75-10.7,2.44-10.7,2.44A4.2,4.2,0,0,1,166.18,33a13.82,13.82,0,0,1-2.31-.17,53.67,53.67,0,0,0-6.42.93c-2.45-2.49,3.82-3.28,5.17-3.38a65.67,65.67,0,0,1,8.18-.18c.47.07,12.42,3,19.53,11.89C193,45.43,195.6,49.85,196,54a20.21,20.21,0,0,1-2.83,12.52c-4.69,6.88-14.34,8.82-17.43,7.79A27.37,27.37,0,0,0,179.41,71Z" transform="translate(0.1 0)" style="fill:#8595ba"/><path id="Tracé_22540" data-name="Tracé 22540" d="M58.2,77.16c-7-1-13.52,2.17-20.64,1.11-14.41-2.15-27.8-8.46-29.31-9.54C4.48,66,5.07,63.34,8,62.81s6.54,3.26,6.54,3.26-.28-1.4,1.78-1.48,1.52,3.83,4.27,4c.87.06,8.38,4.69,17.23,5.34,6,.43,12.35-3.19,19.31-2.62A16.33,16.33,0,0,0,58.2,77.16Z" transform="translate(0.1 0)" style="fill:#8595ba"/><g id="Groupe_11" data-name="Groupe 11"><path id="Tracé_48" data-name="Tracé 48" d="M138.4,82.41s-3.2,49.71-1.6,51.18,10.39.16,12,2.9-13.43,2.58-15.35.9,0-55,0-55Z" transform="translate(0.1 0)" style="fill:#8595ba"/><path id="Tracé_49" data-name="Tracé 49" d="M95.92,89.29s-26,42.45-28.21,42.73-8.58-5.87-11.46-4.56,9.47,9.85,12,9.59S100,92.14,100,92.14Z" transform="translate(0.1 0)" style="fill:#8595ba"/></g><g id="Groupe_27" data-name="Groupe 27"><path id="Tracé_89" data-name="Tracé 89" d="M145.93,100c1.35.57,5.91,2.18,9.6-.18,4.39-2.81,4.39-6.14,4.39-6.14a12.77,12.77,0,0,0,12.8-3c6.13-5.61,3.33-16.8,3.33-16.8s5.75-3,5.08-9.15c-1.08-10-11.22-10.53-11.22-10.53s3.16-7.54-2.46-12.8-13-4-13-4a5.8,5.8,0,0,0-2.1-6.49c-3.51-2.46-6.3-1-6.3-1s.6-8-6.66-10.69c-6.91-2.59-12.81,1.51-12.81,1.51s-4.39-4.74-10.7-3.86a19.69,19.69,0,0,0-9.84,4A11.17,11.17,0,0,0,95.18,18.4a10.12,10.12,0,0,0-7.37,8.07S76.56,23.33,70.43,31s-3.16,14.17-3.16,14.17S57.13,43.83,54,53.47A17,17,0,0,0,56.6,69.61s-8.25,8.24-4.73,17.18,11.9,7.07,11.9,7.07a9.28,9.28,0,0,0,9,8.2c8.25.53,11.75-2.45,11.75-2.45s7.2,6,14.21,5.26,9.65-3.5,9.65-3.5,6.66,3.79,13.15,3.56,11.75-4.62,11.75-4.62a7,7,0,0,0,6.49,3.16C144.13,103,145.68,99.84,145.93,100Z" transform="translate(0.1 0)" style="fill:#f3f6fe"/><g id="Groupe_26" data-name="Groupe 26"><path id="Tracé_90" data-name="Tracé 90" d="M182.71,64.52c-.82-7.61-6.6-10.76-10.75-11.65.68-2.86,1.16-8.37-3.42-12.65a17.66,17.66,0,0,0-12.12-4.59h-.09a7.06,7.06,0,0,0-3.05-6.08,8.81,8.81,0,0,0-4.83-1.82,10.26,10.26,0,0,0-1.07-2.89A12.67,12.67,0,0,0,140,17.67a14.92,14.92,0,0,0-5.29-1,16.61,16.61,0,0,0-5.18.87h-.05l-.38.13-.22.08h0a18.26,18.26,0,0,0-2,.9,14.88,14.88,0,0,0-9.34-3.59,13.2,13.2,0,0,0-1.78.12,22.56,22.56,0,0,0-9.56,3.58,12.8,12.8,0,0,0-7.57-2.51,13.86,13.86,0,0,0-3.78.58,11.57,11.57,0,0,0-8.11,7.75c-3.46-.5-11.78-.89-17.07,5.76-3.53,4.43-4.39,8.2-4.4,10.81v0a9.1,9.1,0,0,0,.11,1.64c-3.44.4-10.22,2.19-12.8,10.1a18.71,18.71,0,0,0,2,16.43c-.18.19-.29.33-.31.35a1.55,1.55,0,0,0-.29.59c-2.39,3.12-6.34,9.77-3.5,17C53,93.86,58,94.83,60.79,94.83a13.39,13.39,0,0,0,1.9-.14c.8,3.62,3.52,8.52,10,8.93.68,0,1.36.06,2,.06a19.73,19.73,0,0,0,9.77-2.17c2.1,1.54,7.46,5,13.11,5,.45,0,.89,0,1.33-.06a21.53,21.53,0,0,0,8.7-2.57,5,5,0,0,0,1.06-.59,29.8,29.8,0,0,0,12.3,3.23h.63a22.68,22.68,0,0,0,11.39-4,4.6,4.6,0,0,0,.56.52l.13.08a8.17,8.17,0,0,0,5.36,2h0c.3,0,.6,0,.9,0a9.85,9.85,0,0,0,6.43-3.23,14.49,14.49,0,0,0,4.66.8,9.77,9.77,0,0,0,5.39-1.49,11,11,0,0,0,4.71-5.53,14.33,14.33,0,0,0,2.69.25,14.52,14.52,0,0,0,10-4c5.62-5.13,4.61-14,4-17.22A10.88,10.88,0,0,0,182.71,64.52Zm-7.05,7.73c-.84-.25-1.88-.54-3.13-.86A6.2,6.2,0,0,0,166.26,73a5.31,5.31,0,0,0-1,5.47,4.48,4.48,0,0,0,4.56,3,7.3,7.3,0,0,0,2.36-.39,1.43,1.43,0,0,0-.91-2.71h0c-.1,0-2.67.9-3.31-.87a2.51,2.51,0,0,1,.45-2.58,3.4,3.4,0,0,1,3.46-.78c1.13.28,2.07.55,2.82.78.45,2.41,1.52,10.4-3,14.55a11.41,11.41,0,0,1-7.87,3.19,10.49,10.49,0,0,1-3.15-.46l-2.84-5.47a1.58,1.58,0,0,0-2.8,1.45l3.19,6.15a7.75,7.75,0,0,1-3.5,4.1,6.69,6.69,0,0,1-3.7,1,12.14,12.14,0,0,1-4.44-.94l-.31-.13h-.32a2,2,0,0,0-1.58.92,6.88,6.88,0,0,1-4.75,2.6l-.59,0h0a5.24,5.24,0,0,1-4.12-2.06,5,5,0,0,1-.76-3,2.59,2.59,0,0,1,1.18-2.15c2-1.17,3-.18,3.26.16a1.58,1.58,0,0,0,2.59-1.81c-.91-1.33-3.63-3.27-7.41-1.08A5.62,5.62,0,0,0,131,96.65a8.1,8.1,0,0,0,.4,3.09,19.77,19.77,0,0,1-9.92,3.61c-4.23.15-8.61-1.58-10.83-2.61h0c.91-2.22.68-5.06-.63-8-2-4.49-6.85-4.33-9.14-3.64a1.58,1.58,0,0,0,.9,3h0c.16-.05,4-1.18,5.33,1.9a7.27,7.27,0,0,1,.59,5.48,2.82,2.82,0,0,1-.25.49l-.24.25s-2.45,2.41-8.67,3c-.33,0-.67,0-1,0-4.74,0-9.51-3.11-11.3-4.4l.4-4.78a1.58,1.58,0,0,0-3.15-.26h0l-.39,4.75c-.94.57-3.63,1.89-8.44,1.89-.59,0-1.2,0-1.81-.06-6.54-.41-7.23-7.08-7.28-7.72a4.3,4.3,0,0,1,2.33-3.45A3.38,3.38,0,0,1,70,88.75l-.11,0,1.24-2.91c-.31-.13-2-.7-4.69.73a7.36,7.36,0,0,0-3.85,5,10,10,0,0,1-1.8.16c-3.51,0-6-1.83-7.44-5.46C50.39,78.72,57,71.48,57.66,70.79A8,8,0,0,1,62.83,69a4.84,4.84,0,0,1,4.56,3,1.57,1.57,0,0,0,1.5,1.06,1.45,1.45,0,0,0,.5-.08,1.58,1.58,0,0,0,1-2,8,8,0,0,0-7.49-5.16A10.88,10.88,0,0,0,57,67.43,15.72,15.72,0,0,1,55.48,54c2.2-6.73,8.3-7.83,10.76-8a7.55,7.55,0,0,0,5.92,4.24,8.48,8.48,0,0,0,1.23.09,8.74,8.74,0,0,0,7.6-5,1.58,1.58,0,0,0-2.85-1.37.17.17,0,0,0,0,.05c-.08.16-1.79,3.7-5.5,3.16a4.43,4.43,0,0,1-3.24-2l-.65-1.4s0-.1-.1-.23a7.9,7.9,0,0,1-.31-2.1v-.15c0-2,.71-5,3.74-8.83,4.68-5.89,12.61-4.9,14.8-4.49l2.23,5a1.58,1.58,0,0,0,1.44.94,1.42,1.42,0,0,0,.64-.14,1.58,1.58,0,0,0,.8-2.08l-2.4-5.4-.06-.1a8.55,8.55,0,0,1,6.13-6.18,10.68,10.68,0,0,1,2.91-.43A9.59,9.59,0,0,1,104.93,22l.35.37a4.3,4.3,0,0,1,.6,4.27,3.53,3.53,0,0,1-3.32,2.23,1.58,1.58,0,1,0-.34,3.14h0a2,2,0,0,0,.35,0,6.71,6.71,0,0,0,6.1-4,7.19,7.19,0,0,0-.43-6.78,19.51,19.51,0,0,1,7.82-2.8,9.94,9.94,0,0,1,1.34-.09,11.61,11.61,0,0,1,7,2.58,7.38,7.38,0,0,0-1.67,3.28,6.44,6.44,0,0,0,4.45,7.78,1.57,1.57,0,0,0,2-1.53A1.57,1.57,0,0,0,128,28.88a3.26,3.26,0,0,1-2.13-4.05c.58-2.69,3.79-3.94,4.41-4.16a13.61,13.61,0,0,1,4.42-.77,12,12,0,0,1,4.19.75A9.58,9.58,0,0,1,144.45,26l.05.11a11.41,11.41,0,0,1,.86,3.53l0,2.66c-.52,2.25-1.69,2.26-2.22,2.26a3.47,3.47,0,0,1-1.79-.59,1.58,1.58,0,0,0-2,2.47l0,0a6.42,6.42,0,0,0,3.73,1.24c1.44,0,4.86-.57,5.52-5.92,0-.31.06-.61.07-.9a6.18,6.18,0,0,1,2.77,1.22A4.13,4.13,0,0,1,153,36.82l-.87,2.49,2.6-.42a11.89,11.89,0,0,1,1.69-.1,14.59,14.59,0,0,1,10,3.73c4.16,3.91,2.69,9.29,2.21,10.7-.17.35-2.37,4.85-5.45,5a2.12,2.12,0,0,1-1.62-.37,1.4,1.4,0,0,1-.17-1,1.58,1.58,0,0,0-3.07-.74,4.22,4.22,0,0,0,4.6,5.31h.41c3.73-.17,6.27-3.54,7.45-5.5,2.29.38,8.08,2,8.84,9,.47,4.27-2.84,6.71-3.91,7.39Z" transform="translate(0.1 0)" style="fill:#b8c4e0"/><path id="Tracé_91" data-name="Tracé 91" d="M150.12,51.26A9.06,9.06,0,0,0,148,43.14c-5.09-6.13-12.81-4.78-17.6-2.61a11,11,0,0,0-7.49-8.4c-5.79-2-10.25,1.92-12.31,4.3A14.47,14.47,0,0,0,100,32.59a9.67,9.67,0,0,0-8.56,6.78,8.34,8.34,0,0,0,2.7,9.53,9.65,9.65,0,0,0,12.82-.34,1.57,1.57,0,0,0-.07-2.23,1.6,1.6,0,0,0-2.09-.07,6.49,6.49,0,0,1-8.69.17,5.29,5.29,0,0,1-1.67-6c.89-2.63,3.26-4.58,5.63-4.63,6.56-.14,9.18,3.84,9.28,4a1.58,1.58,0,0,0,2.18.5,1.5,1.5,0,0,0,.49-.48c0-.07,4.3-6.58,9.9-4.67a8,8,0,0,1,5.58,7.82,1.59,1.59,0,0,0,2.41,1.44c.4-.25,10-6.08,15.69.78a6,6,0,0,1,1.49,5.39,6.48,6.48,0,0,1-3.16,4.2c-2.06.92-4.65-.44-4.67-.45a1.58,1.58,0,0,0-1.52,2.77h0a10.57,10.57,0,0,0,3.88,1.12,7.27,7.27,0,0,0,3.6-.56A9.63,9.63,0,0,0,150.12,51.26Z" transform="translate(0.1 0)" style="fill:#b8c4e0"/><path id="Tracé_92" data-name="Tracé 92" d="M81.58,73.44a7.29,7.29,0,0,0-.38-4h0a8.27,8.27,0,0,0,2.7-.45,7.21,7.21,0,0,0,4.59-5.18A10,10,0,0,0,86.8,55c-2.91-3.44-7.43-2.57-9.42-1.64a1.58,1.58,0,0,0,1.35,2.86s3.58-1.65,5.66.82a6.86,6.86,0,0,1,1.09,5.9,4.16,4.16,0,0,1-2.58,3,6,6,0,0,1-4.81-.57,12.62,12.62,0,0,0-1.84-1.24L76.1,64a1.58,1.58,0,0,0-2.27,2.2l0,0,0,0s.22.2.5.43h0a12.15,12.15,0,0,0,2,1.32,5.19,5.19,0,0,1,2.13,4.84c-.65,3.46-3.2,3.63-3.5,3.65a1.58,1.58,0,1,0-.06,3.15H75C76.86,79.66,80.66,78.36,81.58,73.44Z" transform="translate(0.1 0)" style="fill:#b8c4e0"/><path id="Tracé_93" data-name="Tracé 93" d="M88,79.9a9.41,9.41,0,0,0-8.33,5.78,1.58,1.58,0,0,0,3,1.13,6.29,6.29,0,0,1,5.49-3.76c3.47-.1,3.83,3.78,3.86,4.21a1.59,1.59,0,0,0,1.58,1.49h.1a1.59,1.59,0,0,0,1.47-1.68C94.93,84.51,93.25,79.73,88,79.9Z" transform="translate(0.1 0)" style="fill:#b8c4e0"/><path id="Tracé_94" data-name="Tracé 94" d="M157.68,67.18c-2.53-2.13-6.36-1.5-6.53-1.47a1.44,1.44,0,0,0,.49,2.83s2.69-.43,4.19.84a3.5,3.5,0,0,1,1.08,2.9,4.36,4.36,0,0,1-1.16,3.33,4.93,4.93,0,0,1-3.32,1A1.45,1.45,0,0,0,150.87,78a1.38,1.38,0,0,0,0,.45c.14.59.38,2.49-.37,3.53a2.22,2.22,0,0,1-1.72.8,3.07,3.07,0,0,1-2.47-.66,3.68,3.68,0,0,1-.82-2.59,1.44,1.44,0,1,0-2.88-.22h0a6.58,6.58,0,0,0,1.64,4.85,5.48,5.48,0,0,0,4.05,1.52l.7,0a5,5,0,0,0,3.82-2,6.69,6.69,0,0,0,1.06-4.2,6.6,6.6,0,0,0,5.86-7.16A6.33,6.33,0,0,0,157.68,67.18Z" transform="translate(0.1 0)" style="fill:#b8c4e0"/></g></g></g></g></g></g></g></g></g><g id="Groupe_10795" data-name="Groupe 10795"><g id="Groupe_10736" data-name="Groupe 10736"><g id="Groupe_10734" data-name="Groupe 10734"><g id="Groupe_29" data-name="Groupe 29"><path id="Tracé_97" data-name="Tracé 97" d="M90.58,64.41a8.84,8.84,0,1,0,8.84-8.84h0A8.84,8.84,0,0,0,90.58,64.41Z" transform="translate(0.1 0)" style="fill:none;stroke:#8595ba;stroke-width:3px"/><path id="Tracé_98" data-name="Tracé 98" d="M91.9,62.08a3.48,3.48,0,1,0,3.48-3.47h0a3.47,3.47,0,0,0-3.48,3.47Z" transform="translate(0.1 0)" style="fill:#8595ba;stroke:#8595ba;stroke-width:3px"/></g></g><g id="Groupe_10742" data-name="Groupe 10742"><g id="Groupe_29-2" data-name="Groupe 29-2"><path id="Tracé_97-2" data-name="Tracé 97-2" d="M122.45,64.41a8.84,8.84,0,1,0,8.84-8.84,8.84,8.84,0,0,0-8.84,8.84Z" transform="translate(0.1 0)" style="fill:none;stroke:#8595ba;stroke-width:3px"/><path id="Tracé_98-2" data-name="Tracé 98-2" d="M124.35,62.08a3.48,3.48,0,1,0,3.47-3.47h0a3.47,3.47,0,0,0-3.47,3.47Z" transform="translate(0.1 0)" style="fill:#8595ba;stroke:#8595ba;stroke-width:3px"/></g></g></g><path id="Tracé_22520" data-name="Tracé 22520" d="M122.38,82.32a12.82,12.82,0,0,0-6.42-.89,18.77,18.77,0,0,0-6.69,2.95" transform="translate(0.1 0)" style="fill:none;stroke:#8595ba;stroke-linecap:round;stroke-linejoin:bevel;stroke-width:3px"/><g id="Groupe_10806" data-name="Groupe 10806"><path id="Tracé_22521" data-name="Tracé 22521" d="M86.54,51.4a5.81,5.81,0,0,1,4-4c3.4-1,9.49-.17,9.49-.17" transform="translate(0.1 0)" style="fill:none;stroke:#8595ba;stroke-linecap:round;stroke-linejoin:bevel;stroke-width:3px"/><path id="Tracé_22522" data-name="Tracé 22522" d="M124,52.38a6,6,0,0,1,3.46-4.88C130.86,45.66,137.7,45,137.7,45" transform="translate(0.1 0)" style="fill:none;stroke:#8595ba;stroke-linecap:round;stroke-linejoin:bevel;stroke-width:3px"/></g></g><g id="Ellipse_425" data-name="Ellipse 425"><ellipse id="Ellipse_581" data-name="Ellipse 581" cx="100.02" cy="64.38" rx="14.66" ry="14.45" style="fill:none"/><ellipse id="Ellipse_582" data-name="Ellipse 582" cx="100.02" cy="64.38" rx="13.69" ry="13.47" style="fill:none;stroke:#8595ba;stroke-width:3px"/></g><path id="Tracé_22541" data-name="Tracé 22541" d="M90.27,72.91s-4.52,25.57-15.59,27.56c-9.1,1.63-20.46-10.74-24.33-15.32-.71-.85-.35-4-.35-4" transform="translate(0.1 0)" style="fill:none;stroke:#8595ba;stroke-width:3px"/><g id="Groupe_21" data-name="Groupe 21"><circle id="Ellipse_1" data-name="Ellipse 1" cx="60.75" cy="25.76" r="23.7" style="fill:#fff;opacity:0.6000000238418579;isolation:isolate"/><path id="Tracé_54" data-name="Tracé 54" d="M43.64,9.24a24,24,0,0,1,3.21-2.75l36.4,26.4a23.43,23.43,0,0,1-5.6,9.38c-.2.22-.41.4-.62.6L39.67,14.72a23.82,23.82,0,0,1,4-5.48Z" transform="translate(0.1 0)" style="fill:#fff;opacity:0.6000000238418579;isolation:isolate"/><path id="Tracé_55" data-name="Tracé 55" d="M38.19,18.16l35,27.69a22.56,22.56,0,0,1-2.87,1.53L37.28,21.79A23.8,23.8,0,0,1,38.19,18.16Z" transform="translate(0.1 0)" style="fill:#fff;opacity:0.6000000238418579;isolation:isolate"/><path id="Tracé_56" data-name="Tracé 56" d="M42.7,44.24a25.76,25.76,0,1,0-.52-36.43h0A25.77,25.77,0,0,0,42.7,44.24Zm33-34a21.64,21.64,0,1,1-30.61.45,21.63,21.63,0,0,1,30.61-.45Z" transform="translate(0.1 0)" style="fill:#8595ba"/><path id="Tracé_57" data-name="Tracé 57" d="M42.66,41.33,1.12,81.75a3.7,3.7,0,1,0,5,5.49l.2-.19.14-.15L45.61,44.19a2.06,2.06,0,0,0-3-2.87h0Z" transform="translate(0.1 0)" style="fill:#8595ba"/></g></g></g></g></svg>