<svg id="Calque_1" data-name="Calque 1" xmlns="http://www.w3.org/2000/svg" viewBox="0 0 141.38 102.98"><title>fitneo</title><g id="Groupe_11132" data-name="Groupe 11132"><g id="Groupe_10778" data-name="Groupe 10778"><g id="Groupe_10774" data-name="Groupe 10774"><path id="Tracé_22528" data-name="Tracé 22528" d="M117.32,48q.21-.37.45-.72a119.06,119.06,0,0,0,13.75.46c4.82-.17-2.85-17.05-5.37-22.06-.48-.95-4.37-1-4.36-2.15s1.93-.34,1.93-.34-1.91-1.48-1.86-2.27,1.31-4.55,3.81-2.49,12.2,27.84,9.91,30.59c-1.76,2.11-12.7,2.15-17.69,2.06C117.47,50.14,116.87,48.88,117.32,48Z" transform="translate(0 0.01)" style="fill:#8595ba"/></g><g id="Groupe_10775" data-name="Groupe 10775"><path id="Tracé_22528-2" data-name="Tracé 22528-2" d="M23.94,48a6.59,6.59,0,0,0-.44-.72,116.93,116.93,0,0,1-13.75.46c-4.83-.16,2.84-17.05,5.36-22.05.48-.95,4.38-1,4.37-2.15s-1.94-.34-1.94-.34,1.92-1.48,1.87-2.28-1.32-4.54-3.82-2.49S3.4,46.3,5.69,49.05c1.76,2.11,12.7,2.16,17.69,2.06C23.8,50.14,24.4,48.89,23.94,48Z" transform="translate(0 0.01)" style="fill:#8595ba"/></g><g id="Groupe_10740" data-name="Groupe 10740"><g id="Groupe_10740-2" data-name="Groupe 10740-2"><g id="Groupe_10738" data-name="Groupe 10738"><g id="Groupe_34" data-name="Groupe 34"><g id="Groupe_25" data-name="Groupe 25"><path id="Tracé_87" data-name="Tracé 87" d="M56.17,62.26s2.32,36,1.16,37.08-7.53.11-8.69,2.1,9.73,1.87,11.12.65,0-39.83,0-39.83Z" transform="translate(0 0.01)" style="fill:#8595ba"/><path id="Tracé_88" data-name="Tracé 88" d="M89.14,61.4s-2.32,36-1.16,37.08,7.52.11,8.68,2.1-9.73,1.87-11.12.65,0-39.83,0-39.83Z" transform="translate(0 0.01)" style="fill:#8595ba"/></g><g id="Groupe_27" data-name="Groupe 27"><path id="Tracé_89" data-name="Tracé 89" d="M97,69.88c1.12.47,4.87,1.8,7.91-.14,3.62-2.32,3.62-5.06,3.62-5.06a10.52,10.52,0,0,0,10.54-2.46c5.06-4.62,2.75-13.84,2.75-13.84s4.74-2.47,4.19-7.54c-.89-8.2-9.25-8.67-9.25-8.67s2.6-6.22-2-10.55a13.6,13.6,0,0,0-10.69-3.32A4.78,4.78,0,0,0,102.33,13c-2.89-2-5.19-.82-5.19-.82s.5-6.57-5.48-8.8A12.25,12.25,0,0,0,81.09,4.57S77.48.67,72.28,1.39a16.13,16.13,0,0,0-8.09,3.32,9.21,9.21,0,0,0-9-2,8.34,8.34,0,0,0-6.07,6.65s-9.28-2.59-14.33,3.77-2.6,11.67-2.6,11.67-8.35-1.14-10.95,6.81a14,14,0,0,0,2.16,13.29S16.65,51.67,19.54,59a8.65,8.65,0,0,0,9.82,5.82,7.65,7.65,0,0,0,7.38,6.76c6.79.43,9.68-2,9.68-2s5.92,4.91,11.7,4.34S66.07,71,66.07,71,71.56,74.16,76.9,74a18.11,18.11,0,0,0,9.68-3.8,5.74,5.74,0,0,0,5.35,2.6C95.53,72.4,96.81,69.79,97,69.88Z" transform="translate(0 0.01)" style="fill:#f3f6fe"/><g id="Groupe_26" data-name="Groupe 26"><path id="Tracé_90" data-name="Tracé 90" d="M127.32,40.69a10.83,10.83,0,0,0-8.85-9.6,10.57,10.57,0,0,0-2.82-10.42,14.65,14.65,0,0,0-10-3.78h-.07a5.84,5.84,0,0,0-2.52-5,7.4,7.4,0,0,0-4-1.5A8.54,8.54,0,0,0,98.22,8a10.45,10.45,0,0,0-6.11-5.9,12.46,12.46,0,0,0-4.36-.79A13.8,13.8,0,0,0,83.48,2h0l-.31.11L83,2.2h0A14.47,14.47,0,0,0,81.27,3a12.32,12.32,0,0,0-7.7-3,12.1,12.1,0,0,0-1.47.1,18.56,18.56,0,0,0-7.87,3A10.54,10.54,0,0,0,58,1a11,11,0,0,0-3.12.45,9.56,9.56,0,0,0-6.69,6.39c-2.85-.41-9.7-.73-14,4.74-2.91,3.66-3.62,6.76-3.63,8.91v0a7.66,7.66,0,0,0,.09,1.35A12,12,0,0,0,20,31.18a15.4,15.4,0,0,0,1.67,13.53,3.53,3.53,0,0,0-.26.3,1.35,1.35,0,0,0-.24.48c-2,2.57-5.22,8-2.88,14,2.1,5.35,6.26,6.15,8.55,6.15a11.69,11.69,0,0,0,1.56-.11c.66,3,2.9,7,8.22,7.35.55,0,1.11.06,1.65.06a16.36,16.36,0,0,0,8-1.78c1.74,1.26,6.15,4.09,10.8,4.09.37,0,.74,0,1.09,0a17.68,17.68,0,0,0,7.17-2.12,4.59,4.59,0,0,0,.87-.48,24.72,24.72,0,0,0,10.14,2.66h.52A18.62,18.62,0,0,0,86.32,72a4.79,4.79,0,0,0,.47.43l.1.06a6.72,6.72,0,0,0,4.42,1.64h0a6,6,0,0,0,.74,0,8.13,8.13,0,0,0,5.3-2.66,12.24,12.24,0,0,0,3.84.66,8.09,8.09,0,0,0,4.44-1.23,9.09,9.09,0,0,0,3.88-4.55,11.84,11.84,0,0,0,2.22.21,12.13,12.13,0,0,0,8.24-3.3C124.59,59,123.76,51.6,123.29,49A8.94,8.94,0,0,0,127.32,40.69Zm-5.81,6.37c-.69-.21-1.55-.45-2.58-.7a5.08,5.08,0,0,0-5.16,1.35,4.38,4.38,0,0,0-.84,4.51,3.7,3.7,0,0,0,3.76,2.44,6.17,6.17,0,0,0,2-.31,1.18,1.18,0,0,0-.77-2.23h0c-.09,0-2.2.74-2.73-.71a2.07,2.07,0,0,1,.38-2.13,2.78,2.78,0,0,1,2.84-.64c.93.23,1.7.45,2.34.64.37,2,1.25,8.56-2.48,12a9.37,9.37,0,0,1-6.49,2.62,8.72,8.72,0,0,1-2.59-.37L106.8,59a1.3,1.3,0,0,0-2.31,1.2h0l2.63,5.07a6.37,6.37,0,0,1-2.89,3.37,5.52,5.52,0,0,1-3,.82,10,10,0,0,1-3.66-.77l-.26-.11H97a1.67,1.67,0,0,0-1.3.75,5.62,5.62,0,0,1-3.92,2.15l-.48,0h0a4.35,4.35,0,0,1-3.4-1.7,4.22,4.22,0,0,1-.62-2.45,2.14,2.14,0,0,1,1-1.78c1.66-1,2.47-.14,2.67.14a1.3,1.3,0,0,0,2.14-1.49h0c-.75-1.1-3-2.7-6.11-.9a4.63,4.63,0,0,0-2.27,3.84A6.69,6.69,0,0,0,85,69.71a16.29,16.29,0,0,1-8.18,3,21.1,21.1,0,0,1-8.92-2.15h0A8.4,8.4,0,0,0,67.41,64c-1.65-3.69-5.65-3.56-7.52-3a1.3,1.3,0,1,0,.76,2.48c.13,0,3.25-1,4.39,1.57a6,6,0,0,1,.49,4.52,3,3,0,0,1-.21.4l-.2.2s-2,2-7.14,2.5c-.28,0-.55,0-.83,0-3.91,0-7.84-2.56-9.3-3.62l.32-4a1.3,1.3,0,1,0-2.59-.21h0l-.32,3.91a13.38,13.38,0,0,1-7,1.56c-.48,0-1,0-1.49-.05-5.38-.34-6-5.83-6-6.36a3.56,3.56,0,0,1,1.92-2.84,2.8,2.8,0,0,1,1.73-.47.25.25,0,0,1-.09,0l1-2.39c-.25-.11-1.62-.58-3.86.6a6.06,6.06,0,0,0-3.17,4.12,8.15,8.15,0,0,1-1.48.14c-2.9,0-5-1.52-6.13-4.5-2.42-6.19,3-12.16,3.57-12.72a6.62,6.62,0,0,1,4.24-1.48,4,4,0,0,1,3.77,2.49,1.29,1.29,0,0,0,1.23.88,1.14,1.14,0,0,0,.41-.07A1.29,1.29,0,0,0,34.78,46h0a6.58,6.58,0,0,0-6.17-4.25,9,9,0,0,0-4.87,1.32A13,13,0,0,1,22.5,32a9.65,9.65,0,0,1,8.87-6.6,6.21,6.21,0,0,0,4.88,3.5,6.77,6.77,0,0,0,1,.07,7.17,7.17,0,0,0,6.26-4.16,1.3,1.3,0,1,0-2.36-1.08c-.06.12-1.48,3-4.54,2.6A3.66,3.66,0,0,1,34,24.66l-.54-1.15a.75.75,0,0,1-.07-.19,6,6,0,0,1-.26-1.73s0-.08,0-.12c0-1.63.59-4.15,3.08-7.28,3.86-4.85,10.4-4,12.2-3.7l1.83,4.13a1.31,1.31,0,0,0,1.19.77,1.4,1.4,0,0,0,.53-.11,1.31,1.31,0,0,0,.66-1.72h0l-2-4.45A.35.35,0,0,0,50.54,9a7,7,0,0,1,5.05-5.09A8.5,8.5,0,0,1,58,3.59a7.83,7.83,0,0,1,5.25,2l.3.3A3.57,3.57,0,0,1,64,9.43a2.93,2.93,0,0,1-2.74,1.84,1.3,1.3,0,0,0-.25,2.59h.3a5.51,5.51,0,0,0,5-3.3A5.88,5.88,0,0,0,66,5a16.19,16.19,0,0,1,6.45-2.31,8,8,0,0,1,1.1-.07A9.6,9.6,0,0,1,79.3,4.72a6.23,6.23,0,0,0-1.37,2.71,5.31,5.31,0,0,0,3.67,6.41,1.55,1.55,0,0,0,.31,0,1.3,1.3,0,0,0,.32-2.56A2.71,2.71,0,0,1,80.47,8C81,5.76,83.6,4.73,84.1,4.55a11.38,11.38,0,0,1,3.65-.63,9.88,9.88,0,0,1,3.45.62A8,8,0,0,1,95.81,9l0,.1a9.62,9.62,0,0,1,.7,2.9l0,2.19C96.1,16,95.14,16,94.7,16a2.89,2.89,0,0,1-1.48-.48,1.3,1.3,0,0,0-1.6,2.05,5.42,5.42,0,0,0,3.08,1c1.18,0,4-.47,4.54-4.88,0-.25.05-.5.06-.74a5,5,0,0,1,2.28,1,3.41,3.41,0,0,1,1.26,3.85l-.72,2.06,2.15-.35a9.32,9.32,0,0,1,1.4-.08,12,12,0,0,1,8.2,3.07c3.42,3.21,2.21,7.65,1.81,8.81-.14.29-2,4-4.48,4.11a1.73,1.73,0,0,1-1.34-.3,1.22,1.22,0,0,1-.14-.86,1.3,1.3,0,0,0-2.53-.6A3.48,3.48,0,0,0,111,38.09h.34c3.07-.14,5.16-2.91,6.14-4.53A8.26,8.26,0,0,1,124.73,41a6.5,6.5,0,0,1-3.22,6.09Z" transform="translate(0 0.01)" style="fill:#b8c4e0"/><path id="Tracé_91" data-name="Tracé 91" d="M100.48,29.77a7.54,7.54,0,0,0-1.77-6.69c-4.19-5-10.55-3.93-14.5-2.14A9.11,9.11,0,0,0,78,14c-4.77-1.62-8.44,1.59-10.15,3.55a11.86,11.86,0,0,0-8.75-3.16,8,8,0,0,0-7,5.58,6.84,6.84,0,0,0,2.22,7.85,8,8,0,0,0,10.56-.27,1.3,1.3,0,1,0-1.78-1.9,5.35,5.35,0,0,1-7.16.13,4.35,4.35,0,0,1-1.38-5A5.41,5.41,0,0,1,59.2,17c5.4-.11,7.56,3.17,7.64,3.3a1.31,1.31,0,0,0,1.79.43,1.24,1.24,0,0,0,.41-.41s3.54-5.42,8.16-3.84a6.63,6.63,0,0,1,4.6,6.45A1.29,1.29,0,0,0,83,24.29a1.27,1.27,0,0,0,.76-.19c.33-.21,8.23-5,12.92.64a5,5,0,0,1,1.24,4.44,5.38,5.38,0,0,1-2.6,3.45c-1.7.77-3.83-.36-3.85-.37a1.31,1.31,0,0,0-1.77.52,1.3,1.3,0,0,0,.52,1.76,8.7,8.7,0,0,0,3.19.93,6,6,0,0,0,3-.46A8,8,0,0,0,100.48,29.77Z" transform="translate(0 0.01)" style="fill:#b8c4e0"/><path id="Tracé_92" data-name="Tracé 92" d="M44,48.05a6,6,0,0,0-.31-3.34h0a7,7,0,0,0,2.23-.37,6,6,0,0,0,3.78-4.27,8.26,8.26,0,0,0-1.41-7.23c-2.4-2.83-6.12-2.12-7.76-1.34a1.3,1.3,0,0,0,1.11,2.35h0s3-1.36,4.66.67a5.59,5.59,0,0,1,.89,4.86,3.44,3.44,0,0,1-2.12,2.5,5,5,0,0,1-4-.48,11.76,11.76,0,0,0-1.51-1l-.13-.11a1.3,1.3,0,0,0-1.82,1.86s.17.16.41.36h0a11.1,11.1,0,0,0,1.61,1.09,4.26,4.26,0,0,1,1.75,4c-.53,2.85-2.64,3-2.89,3a1.3,1.3,0,0,0,0,2.6A5.79,5.79,0,0,0,44,48.05Z" transform="translate(0 0.01)" style="fill:#b8c4e0"/><path id="Tracé_93" data-name="Tracé 93" d="M49.27,53.36a7.78,7.78,0,0,0-6.86,4.76,1.3,1.3,0,0,0,2.43.94A5.16,5.16,0,0,1,49.36,56c2.85-.09,3.15,3.11,3.18,3.47a1.3,1.3,0,0,0,1.3,1.22h.08a1.3,1.3,0,0,0,1.22-1.38C55,57.16,53.62,53.22,49.27,53.36Z" transform="translate(0 0.01)" style="fill:#b8c4e0"/><path id="Tracé_94" data-name="Tracé 94" d="M106.7,42.89c-2.09-1.76-5.24-1.24-5.38-1.21a1.18,1.18,0,0,0,.4,2.33h0s2.22-.35,3.45.69a2.9,2.9,0,0,1,.89,2.39,3.58,3.58,0,0,1-1,2.75,4.09,4.09,0,0,1-2.73.86,1.19,1.19,0,0,0-1.29,1.08,1.22,1.22,0,0,0,0,.38,4.16,4.16,0,0,1-.3,2.9,1.76,1.76,0,0,1-1.41.66,2.5,2.5,0,0,1-2-.53,3.06,3.06,0,0,1-.68-2.14,1.18,1.18,0,0,0-2.36-.18h0a5.39,5.39,0,0,0,1.35,4A4.49,4.49,0,0,0,99,58.11l.58,0a4.1,4.1,0,0,0,3.15-1.64A5.44,5.44,0,0,0,103.6,53a5.44,5.44,0,0,0,4.83-5.9A5.19,5.19,0,0,0,106.7,42.89Z" transform="translate(0 0.01)" style="fill:#b8c4e0"/></g></g></g></g></g></g><g id="Groupe_10805" data-name="Groupe 10805"><path id="Tracé_22522" data-name="Tracé 22522" d="M84.76,27.34s5.5-.85,9.07,1S99,34.57,99,34.57" transform="translate(0 0.01)" style="fill:none;stroke:#8595ba;stroke-linecap:round;stroke-linejoin:bevel;stroke-width:4px"/><path id="Tracé_22523" data-name="Tracé 22523" d="M64.86,27.34s-5.5-.85-9.07,1-5.21,6.28-5.21,6.28" transform="translate(0 0.01)" style="fill:none;stroke:#8595ba;stroke-linecap:round;stroke-linejoin:bevel;stroke-width:4px"/></g><g id="Groupe_24" data-name="Groupe 24"><path id="Tracé_53" data-name="Tracé 53" d="M68.43,48.13l0-.25q0-.12,0-.3a1.11,1.11,0,0,0,0-.19,1.92,1.92,0,0,0,0-.24c0-.17,0-.36,0-.57s-.06-.41-.09-.65-.11-.46-.17-.72a7.55,7.55,0,0,0-.28-.79,8.81,8.81,0,0,0-.41-.81,7.69,7.69,0,0,0-2.11-2.29L65,41l-.51-.27-.26-.13-.27-.12c-.19-.07-.37-.15-.56-.2A6.65,6.65,0,0,0,62.21,40c-.2,0-.4-.06-.6-.07h-.67l-.51,0H60.3l-.14,0-.32,0a4.62,4.62,0,0,0-.63.11l-.58.16-.55.21-.27.11-.26.14c-.17.09-.35.17-.51.27l-.48.31a7.53,7.53,0,0,0-2.1,2.29,9.12,9.12,0,0,0-.42.82c-.1.27-.21.53-.28.78s-.13.5-.17.73-.06.45-.08.64,0,.39,0,.55v.23c0,.08,0,.15,0,.21s0,.23,0,.32l0,.26a.51.51,0,0,0,1,.06l0-.06.06-.23a4.24,4.24,0,0,1,.17-.61l.14-.43.2-.48a5,5,0,0,1,.26-.52c.09-.18.23-.35.34-.53s.27-.37.42-.54a4.93,4.93,0,0,1,.5-.52,6.35,6.35,0,0,1,1.22-.91,6.63,6.63,0,0,1,1.48-.62l.4-.09a.58.58,0,0,1,.19,0l.18,0,.17,0h.24l.51,0a.56.56,0,0,0,.54-.6.56.56,0,0,0-.6-.54.58.58,0,0,0-.54.6.57.57,0,0,0,.54.54h.41a2.73,2.73,0,0,1,.4.05,2.4,2.4,0,0,1,.4.06l.4.09a6.44,6.44,0,0,1,1.48.62,6.35,6.35,0,0,1,1.22.91,4.1,4.1,0,0,1,.5.52,5.24,5.24,0,0,1,.42.54c.12.18.24.36.34.53a5.2,5.2,0,0,1,.27.52c.07.17.13.33.2.48l.14.4.06.18c0,.06,0,.12,0,.18l.07.29,0,.24a.52.52,0,0,0,.63.38.53.53,0,0,0,.39-.43Z" transform="translate(0 0.01)" style="fill:#8595ba"/><path id="Tracé_54" data-name="Tracé 54" d="M95.86,48.13l0-.25,0-.3a1.11,1.11,0,0,0,0-.19,1.92,1.92,0,0,0,0-.24c0-.17,0-.36,0-.57s-.06-.41-.09-.65-.11-.46-.17-.72a7.55,7.55,0,0,0-.28-.79,9,9,0,0,0-.42-.81,7.53,7.53,0,0,0-2.1-2.29L92.4,41c-.16-.1-.34-.18-.51-.27l-.26-.13-.27-.12a5.14,5.14,0,0,0-.55-.2A7.1,7.1,0,0,0,89.64,40c-.2,0-.4-.06-.6-.07h-.67l-.51,0h-.13l-.14,0-.32,0a4.62,4.62,0,0,0-.63.11l-.58.16c-.19.06-.37.14-.55.21l-.28.11-.26.14c-.17.09-.34.17-.5.27l-.48.31a7.69,7.69,0,0,0-2.11,2.29,9,9,0,0,0-.41.82c-.1.27-.21.53-.28.78s-.13.5-.17.73-.07.45-.09.64a5.22,5.22,0,0,0,0,.55v.23a1.25,1.25,0,0,0,0,.21c0,.12,0,.23,0,.32l0,.26a.51.51,0,0,0,.56.45.52.52,0,0,0,.44-.39l0-.06.06-.23c0-.14.07-.35.16-.61l.14-.43c.07-.15.13-.31.2-.48s.18-.34.27-.52a7.25,7.25,0,0,1,.76-1.07,4.1,4.1,0,0,1,.5-.52,6.35,6.35,0,0,1,1.22-.91,6.55,6.55,0,0,1,1.47-.62l.4-.09.19,0,.18,0,.18,0H88l.51,0a.57.57,0,1,0-.6-.54.57.57,0,0,0,.54.54h.4a17.27,17.27,0,0,1,.82.11l.4.09a6.55,6.55,0,0,1,1.47.62,6.12,6.12,0,0,1,1.23.91,6.2,6.2,0,0,1,.5.52c.15.17.28.36.41.54s.24.36.34.53a5.2,5.2,0,0,1,.27.52c.07.17.13.33.2.48l.14.4.06.18c0,.06,0,.12,0,.18l.07.29.06.24a.5.5,0,0,0,.62.38.53.53,0,0,0,.39-.43Z" transform="translate(0 0.01)" style="fill:#8595ba"/></g><g id="Groupe_23" data-name="Groupe 23"><g id="Groupe_22" data-name="Groupe 22"><path id="Tracé_51" data-name="Tracé 51" d="M84.29,55.93a5.2,5.2,0,0,1-1.77,3.73,10,10,0,0,1-4,2.24,14.57,14.57,0,0,1-8.07,0,10,10,0,0,1-4.05-2.24,5.15,5.15,0,0,1-1.76-3.73c0-2.64,2.34-1.44,5.71-.59a14.87,14.87,0,0,0,8.26,0C81.94,54.5,84.29,53.29,84.29,55.93Z" transform="translate(0 0.01)" style="fill:#8595ba"/></g><path id="Tracé_52" data-name="Tracé 52" d="M78.47,61.4a14.39,14.39,0,0,1-8.07,0,4.08,4.08,0,0,1,8.07,0Z" transform="translate(0 0.01)" style="fill:#f3f6fe"/></g><g id="Groupe_10776" data-name="Groupe 10776"><g id="Groupe_10400" data-name="Groupe 10400"><rect id="Rectangle_33" data-name="Rectangle 33" x="117.12" y="17.12" width="16.93" height="5.74" style="fill:#b8c4e0"/><rect id="Rectangle_35" data-name="Rectangle 35" x="109.79" y="10.49" width="8.9" height="19" rx="4.45" ry="4.45" style="fill:#8595ba"/><rect id="Rectangle_36" data-name="Rectangle 36" x="132.48" y="10.49" width="8.9" height="19" rx="4.45" ry="4.45" style="fill:#8595ba"/><path id="Tracé_22530" data-name="Tracé 22530" d="M112.43,12.92h3.62a2.64,2.64,0,0,1,2.64,2.64h0v8.85A2.63,2.63,0,0,1,116.06,27h-3.63a2.64,2.64,0,0,1-2.64-2.63h0V15.56a2.64,2.64,0,0,1,2.64-2.64Z" transform="translate(0 0.01)" style="fill:#b8c4e0"/><path id="Tracé_22531" data-name="Tracé 22531" d="M135.12,12.92h3.62a2.64,2.64,0,0,1,2.64,2.64h0v8.85A2.64,2.64,0,0,1,138.74,27h-3.62a2.64,2.64,0,0,1-2.64-2.63h0V15.56a2.64,2.64,0,0,1,2.64-2.64Z" transform="translate(0 0.01)" style="fill:#b8c4e0"/><path id="Tracé_129" data-name="Tracé 129" d="M139.7,12.93h-.13V23.56a1.68,1.68,0,0,1-1.68,1.68h-5.41v.13A1.68,1.68,0,0,0,134.16,27h5.54a1.67,1.67,0,0,0,1.68-1.67h0V14.6A1.68,1.68,0,0,0,139.7,12.93Z" transform="translate(0 0.01)" style="fill:#b8c4e0;opacity:0.30000001192092896;isolation:isolate"/></g></g><g id="Groupe_10777" data-name="Groupe 10777"><g id="Groupe_10400-2" data-name="Groupe 10400-2"><rect id="Rectangle_33-2" data-name="Rectangle 33-2" x="7.33" y="17.12" width="16.93" height="5.74" style="fill:#b8c4e0"/><rect id="Rectangle_35-2" data-name="Rectangle 35-2" y="10.49" width="8.9" height="19" rx="4.45" ry="4.45" style="fill:#8595ba"/><rect id="Rectangle_36-2" data-name="Rectangle 36-2" x="22.69" y="10.49" width="8.9" height="19" rx="4.45" ry="4.45" style="fill:#8595ba"/><path id="Tracé_22530-2" data-name="Tracé 22530-2" d="M2.64,12.92H6.26A2.64,2.64,0,0,1,8.9,15.56h0v8.85A2.64,2.64,0,0,1,6.26,27H2.64A2.64,2.64,0,0,1,0,24.41H0V15.56a2.64,2.64,0,0,1,2.64-2.64Z" transform="translate(0 0.01)" style="fill:#b8c4e0"/><path id="Tracé_22531-2" data-name="Tracé 22531-2" d="M25.33,12.92H29a2.64,2.64,0,0,1,2.64,2.64h0v8.85A2.64,2.64,0,0,1,29,27H25.33a2.64,2.64,0,0,1-2.64-2.63h0V15.56a2.64,2.64,0,0,1,2.64-2.64Z" transform="translate(0 0.01)" style="fill:#b8c4e0"/><path id="Tracé_129-2" data-name="Tracé 129-2" d="M29.91,12.93h-.13V23.56a1.68,1.68,0,0,1-1.68,1.68H22.69v.13A1.67,1.67,0,0,0,24.36,27h5.55a1.68,1.68,0,0,0,1.68-1.67h0V14.6A1.68,1.68,0,0,0,29.91,12.93Z" transform="translate(0 0.01)" style="fill:#b8c4e0;opacity:0.30000001192092896;isolation:isolate"/></g></g></g></g></svg>