<svg id="Calque_1" data-name="Calque 1" xmlns="http://www.w3.org/2000/svg" viewBox="0 0 145.05 115"><title>forbiddenneo</title><g id="Groupe_11101" data-name="Groupe 11101"><g id="Groupe_11100" data-name="Groupe 11100"><g id="Groupe_11099" data-name="Groupe 11099"><g id="Groupe_11095" data-name="Groupe 11095"><g id="Groupe_11094" data-name="Groupe 11094"><path id="Tracé_22938" data-name="Tracé 22938" d="M96.7,71c3.65,2.73,7.87,5.73,8.57,5.56,1.3-.3,2.46-2.41,3.83-5.37,2.82-6.06,2.65-7.92,3-11s-.14-6.34,3.68-4.3-6.54,21-8.89,23.15c-1.53,1.39-8.75-3.53-13.53-7.08A20.92,20.92,0,0,0,96.7,71Z" transform="translate(0 0)" style="fill:#8595ba"/><g id="Groupe_11093" data-name="Groupe 11093"><g id="Groupe_11090" data-name="Groupe 11090"><path id="Tracé_22543" data-name="Tracé 22543" d="M12.44,57.46S6.83,79.41,7,88.26,7.2,99.7,9.89,99.94c3.61.33,2.2-4.25,2.2-4.25s1,1.32,1.79.82-.33-1.93-2.3-4.06-3-2.49-1.34-11.66,6.27-19.29,5.88-21.57S12.44,57.46,12.44,57.46Z" transform="translate(0 0)" style="fill:#8595ba"/><g id="Groupe_10797" data-name="Groupe 10797"><path id="Tracé_87" data-name="Tracé 87" d="M38.64,74.3s2.32,36,1.16,37.06-7.53.11-8.68,2.1,9.72,1.87,11.11.65,0-39.81,0-39.81Z" transform="translate(0 0)" style="fill:#8595ba"/><path id="Tracé_88" data-name="Tracé 88" d="M71.6,73.44s-2.32,36-1.16,37.06,7.52.12,8.68,2.1-9.72,1.87-11.12.65,0-39.81,0-39.81Z" transform="translate(0 0)" style="fill:#8595ba"/></g><g id="Groupe_10793" data-name="Groupe 10793"><g id="Groupe_10771" data-name="Groupe 10771"><g id="Groupe_10768" data-name="Groupe 10768"><g id="Groupe_10740" data-name="Groupe 10740"><g id="Groupe_10740-2" data-name="Groupe 10740-2"><g id="Groupe_10738" data-name="Groupe 10738"><g id="Groupe_34" data-name="Groupe 34"><g id="Groupe_27" data-name="Groupe 27"><path id="Tracé_89" data-name="Tracé 89" d="M79.48,83.14c1.11.47,4.87,1.8,7.91-.15,3.61-2.31,3.61-5,3.61-5a10.5,10.5,0,0,0,10.54-2.46c5.06-4.62,2.75-13.83,2.75-13.83s4.73-2.47,4.19-7.54c-.89-8.2-9.25-8.67-9.25-8.67s2.6-6.21-2-10.54a13.57,13.57,0,0,0-10.69-3.33,4.78,4.78,0,0,0-1.73-5.34c-2.89-2-5.2-.82-5.2-.82s.5-6.57-5.48-8.8a12.3,12.3,0,0,0-10.56,1.24s-3.61-3.9-8.81-3.18A16.24,16.24,0,0,0,46.65,18a9.17,9.17,0,0,0-8.95-2,8.34,8.34,0,0,0-6.07,6.65S22.36,20,17.3,26.39s-2.6,11.67-2.6,11.67-8.34-1.14-10.94,6.8A14,14,0,0,0,5.92,58.15S-.87,64.94,2,72.3a8.63,8.63,0,0,0,9.81,5.81,7.67,7.67,0,0,0,7.38,6.76c6.79.43,9.68-2,9.68-2s5.92,4.91,11.7,4.33,7.94-2.89,7.94-2.89S54,87.42,59.37,87.23A18,18,0,0,0,69,83.43,5.72,5.72,0,0,0,74.39,86C78,85.66,79.27,83.05,79.48,83.14Z" transform="translate(0 0)" style="fill:#f3f6fe"/><g id="Groupe_26" data-name="Groupe 26"><path id="Tracé_90" data-name="Tracé 90" d="M109.77,54a10.83,10.83,0,0,0-8.85-9.6A10.57,10.57,0,0,0,98.1,33.94a14.59,14.59,0,0,0-10-3.77h-.07a5.84,5.84,0,0,0-2.52-5,7.28,7.28,0,0,0-4-1.49,8.48,8.48,0,0,0-.88-2.39,10.39,10.39,0,0,0-6.1-5.89,12.46,12.46,0,0,0-4.36-.79,13.8,13.8,0,0,0-4.27.71h0a3,3,0,0,0-.32.11l-.18.06h0a14.62,14.62,0,0,0-1.67.74,12.26,12.26,0,0,0-7.7-3,12.1,12.1,0,0,0-1.47.1,18.57,18.57,0,0,0-7.86,2.95,10.54,10.54,0,0,0-6.24-2.06,11.05,11.05,0,0,0-3.12.45,9.55,9.55,0,0,0-6.68,6.39c-2.85-.42-9.7-.73-14,4.74C13.7,29.5,13,32.6,13,34.75v0a7.66,7.66,0,0,0,.09,1.35A12,12,0,0,0,2.53,44.45,15.39,15.39,0,0,0,4.19,58l-.25.3a1.21,1.21,0,0,0-.24.48c-2,2.57-5.22,8.05-2.88,14,2.1,5.36,6.25,6.15,8.54,6.15a10.23,10.23,0,0,0,1.56-.11c.67,3,2.9,7,8.22,7.35.55,0,1.11.06,1.65.06a16.36,16.36,0,0,0,8-1.79c1.74,1.26,6.15,4.09,10.8,4.09.37,0,.74,0,1.09,0a17.51,17.51,0,0,0,7.16-2.11,5,5,0,0,0,.88-.48,24.63,24.63,0,0,0,10.13,2.66h.52a18.62,18.62,0,0,0,9.38-3.3,4.68,4.68,0,0,0,.46.43l.11.06a6.67,6.67,0,0,0,4.41,1.64h0a6.28,6.28,0,0,0,.75,0,8.1,8.1,0,0,0,5.29-2.66,12,12,0,0,0,3.84.66,8.12,8.12,0,0,0,4.44-1.23A9.1,9.1,0,0,0,92,79.54a11.73,11.73,0,0,0,2.21.21,12,12,0,0,0,8.24-3.3c4.62-4.22,3.79-11.58,3.32-14.18A9,9,0,0,0,109.77,54ZM104,60.33c-.7-.21-1.55-.45-2.58-.71A5.12,5.12,0,0,0,96.22,61a4.38,4.38,0,0,0-.84,4.51,3.71,3.71,0,0,0,3.76,2.45,6.07,6.07,0,0,0,1.94-.32,1.18,1.18,0,1,0-.76-2.23h0c-.09,0-2.2.74-2.73-.71A2.08,2.08,0,0,1,98,62.54a2.8,2.8,0,0,1,2.84-.64c.93.24,1.7.45,2.33.64.38,2,1.26,8.56-2.48,12a9.33,9.33,0,0,1-6.48,2.62,8.72,8.72,0,0,1-2.59-.37l-2.34-4.51a1.3,1.3,0,0,0-2.31,1.2l2.63,5.06a6.39,6.39,0,0,1-2.89,3.38,5.49,5.49,0,0,1-3,.82A10.1,10.1,0,0,1,80,81.94l-.25-.1h-.27a1.7,1.7,0,0,0-1.3.75,5.61,5.61,0,0,1-3.91,2.14l-.48,0h0a4.35,4.35,0,0,1-3.4-1.7,4.17,4.17,0,0,1-.62-2.46,2.12,2.12,0,0,1,1-1.77c1.66-1,2.47-.14,2.68.14a1.3,1.3,0,0,0,2.14-1.49c-.75-1.1-3-2.7-6.11-.9a4.65,4.65,0,0,0-2.27,3.84A6.84,6.84,0,0,0,67.49,83a16.1,16.1,0,0,1-8.17,3,20.92,20.92,0,0,1-8.92-2.15h0a8.4,8.4,0,0,0-.52-6.57c-1.65-3.69-5.64-3.57-7.52-3a1.3,1.3,0,0,0-.89,1.61,1.29,1.29,0,0,0,1.6.89h0c.14,0,3.25-1,4.39,1.56A6,6,0,0,1,48,82.79a2.52,2.52,0,0,1-.21.4l-.2.2s-2,2-7.13,2.5a7.87,7.87,0,0,1-.84,0c-3.91,0-7.83-2.55-9.3-3.62l.33-3.94A1.31,1.31,0,0,0,29.46,77a1.29,1.29,0,0,0-1.4,1.19h0l-.32,3.9a13.37,13.37,0,0,1-6.95,1.56c-.49,0-1,0-1.5-.05-5.38-.34-5.95-5.83-6-6.35a3.58,3.58,0,0,1,1.92-2.85,2.87,2.87,0,0,1,1.73-.47l-.09,0,1-2.4c-.25-.1-1.62-.58-3.85.6a6.07,6.07,0,0,0-3.18,4.12,8.07,8.07,0,0,1-1.48.14c-2.89,0-4.95-1.51-6.12-4.5-2.43-6.19,3-12.15,3.56-12.71A6.63,6.63,0,0,1,11,57.64a4,4,0,0,1,3.76,2.49A1.3,1.3,0,0,0,16,61a1.41,1.41,0,0,0,.41-.07,1.3,1.3,0,0,0,.82-1.65h0A6.58,6.58,0,0,0,11.09,55a9,9,0,0,0-4.86,1.32A12.94,12.94,0,0,1,5,45.27a9.63,9.63,0,0,1,8.87-6.59,6.24,6.24,0,0,0,4.87,3.5,8.57,8.57,0,0,0,1,.07A7.19,7.19,0,0,0,26,38.09,1.3,1.3,0,0,0,23.64,37c-.06.13-1.47,3-4.53,2.6a3.66,3.66,0,0,1-2.67-1.66l-.53-1.15-.08-.19a6.35,6.35,0,0,1-.25-1.73s0-.08,0-.12c0-1.63.59-4.15,3.07-7.27,3.86-4.86,10.4-4,12.2-3.7l1.83,4.12a1.3,1.3,0,0,0,1.19.77,1,1,0,0,0,.52-.11A1.29,1.29,0,0,0,35,26.85h0l-2-4.45,0-.08a7,7,0,0,1,5-5.09,8.5,8.5,0,0,1,2.4-.35,7.93,7.93,0,0,1,5.26,2l.29.3a3.57,3.57,0,0,1,.5,3.52,2.93,2.93,0,0,1-2.74,1.84,1.3,1.3,0,0,0-.24,2.59h.29a5.51,5.51,0,0,0,5-3.3,5.88,5.88,0,0,0-.36-5.59A16.15,16.15,0,0,1,54.92,16,8.27,8.27,0,0,1,56,15.89,9.56,9.56,0,0,1,61.77,18a6,6,0,0,0-1.37,2.71,5.3,5.3,0,0,0,3.66,6.4,1.65,1.65,0,0,0,.32,0,1.3,1.3,0,0,0,.31-2.57,2.69,2.69,0,0,1-1.75-3.33c.48-2.22,3.12-3.24,3.63-3.42a11,11,0,0,1,3.64-.64,9.67,9.67,0,0,1,3.45.63,7.88,7.88,0,0,1,4.6,4.43.42.42,0,0,1,0,.1,9.34,9.34,0,0,1,.71,2.9l0,2.19c-.43,1.86-1.4,1.86-1.83,1.86a2.89,2.89,0,0,1-1.48-.48,1.3,1.3,0,1,0-1.6,2.05,5.39,5.39,0,0,0,3.07,1c1.19,0,4-.47,4.54-4.88,0-.25,0-.5.07-.74a5.09,5.09,0,0,1,2.28,1,3.42,3.42,0,0,1,1.25,3.85l-.71,2.06,2.15-.35a9.18,9.18,0,0,1,1.39-.08,12,12,0,0,1,8.2,3.07c3.42,3.21,2.21,7.65,1.81,8.81-.13.29-1.95,4-4.48,4.11a1.82,1.82,0,0,1-1.34-.3,1.18,1.18,0,0,1-.13-.86A1.3,1.3,0,0,0,89.65,47a3.78,3.78,0,0,0,.66,3.12,3.82,3.82,0,0,0,3.13,1.25h.33c3.07-.14,5.17-2.91,6.14-4.52a8.23,8.23,0,0,1,7.27,7.41A6.49,6.49,0,0,1,104,60.33Z" transform="translate(0 0)" style="fill:#b8c4e0"/><path id="Tracé_91" data-name="Tracé 91" d="M82.93,43a7.48,7.48,0,0,0-1.76-6.68C77,31.31,70.62,32.43,66.68,34.21a9.1,9.1,0,0,0-6.17-6.92c-4.77-1.62-8.44,1.59-10.14,3.55a11.87,11.87,0,0,0-8.75-3.16,8,8,0,0,0-7,5.58,6.84,6.84,0,0,0,2.22,7.85,8,8,0,0,0,10.55-.28,1.3,1.3,0,0,0-1.77-1.9h0a5.35,5.35,0,0,1-7.17.14,4.34,4.34,0,0,1-1.37-5,5.41,5.41,0,0,1,4.64-3.82c5.4-.11,7.55,3.17,7.64,3.3a1.3,1.3,0,0,0,1.79.42,1.42,1.42,0,0,0,.41-.4c0-.05,3.54-5.41,8.15-3.84a6.61,6.61,0,0,1,4.59,6.45,1.31,1.31,0,0,0,1.23,1.37,1.29,1.29,0,0,0,.76-.19c.33-.21,8.23-5,12.92.64a5,5,0,0,1,1.23,4.43,5.35,5.35,0,0,1-2.6,3.46c-1.7.76-3.83-.36-3.84-.37a1.3,1.3,0,1,0-1.26,2.28h0a8.94,8.94,0,0,0,3.2.93,5.9,5.9,0,0,0,3-.47A7.93,7.93,0,0,0,82.93,43Z" transform="translate(0 0)" style="fill:#b8c4e0"/><path id="Tracé_92" data-name="Tracé 92" d="M26.49,61.31A6,6,0,0,0,26.18,58h0a6.68,6.68,0,0,0,2.22-.38,5.93,5.93,0,0,0,3.78-4.26,8.2,8.2,0,0,0-1.4-7.22C28.39,43.29,24.67,44,23,44.77a1.3,1.3,0,0,0,1.11,2.35h0s2.94-1.35,4.66.68a5.6,5.6,0,0,1,.89,4.85,3.44,3.44,0,0,1-2.13,2.5,5,5,0,0,1-4-.48,9.69,9.69,0,0,0-1.51-1L22,53.54a1.3,1.3,0,1,0-1.87,1.8l.06.06s.17.16.41.36h0a10.69,10.69,0,0,0,1.6,1.08,4.3,4.3,0,0,1,1.76,4c-.53,2.84-2.64,3-2.89,3a1.29,1.29,0,0,0-1.29,1.3,1.31,1.31,0,0,0,1.31,1.3A5.79,5.79,0,0,0,26.49,61.31Z" transform="translate(0 0)" style="fill:#b8c4e0"/><path id="Tracé_93" data-name="Tracé 93" d="M31.75,66.63a7.75,7.75,0,0,0-6.86,4.76,1.3,1.3,0,1,0,2.4,1l0-.07a5.18,5.18,0,0,1,4.51-3.1c2.86-.09,3.16,3.11,3.19,3.47a1.3,1.3,0,0,0,1.3,1.22h.08a1.31,1.31,0,0,0,1.22-1.38C37.48,70.43,36.1,66.49,31.75,66.63Z" transform="translate(0 0)" style="fill:#b8c4e0"/><path id="Tracé_94" data-name="Tracé 94" d="M89.15,56.16c-2.08-1.76-5.24-1.24-5.37-1.21a1.18,1.18,0,0,0,.4,2.33s2.21-.35,3.45.69a3,3,0,0,1,.89,2.39,3.57,3.57,0,0,1-1,2.74,4,4,0,0,1-2.73.86A1.19,1.19,0,0,0,83.54,65a1.29,1.29,0,0,0,0,.39,4.22,4.22,0,0,1-.3,2.9,1.81,1.81,0,0,1-1.42.66,2.55,2.55,0,0,1-2-.53,3.07,3.07,0,0,1-.67-2.14,1.19,1.19,0,0,0-2.37-.19,5.4,5.4,0,0,0,1.36,4,4.52,4.52,0,0,0,3.33,1.26l.58,0a4.1,4.1,0,0,0,3.15-1.64,5.55,5.55,0,0,0,.87-3.46,5.43,5.43,0,0,0,4.83-5.9A5.21,5.21,0,0,0,89.15,56.16Z" transform="translate(0 0)" style="fill:#b8c4e0"/></g></g></g></g></g></g></g><g id="Groupe_10769" data-name="Groupe 10769"><path id="Tracé_22523" data-name="Tracé 22523" d="M47.33,40.62A46.77,46.77,0,0,1,40.49,45a43.93,43.93,0,0,1-7.43,2.84" transform="translate(0 0)" style="fill:none;stroke:#8595ba;stroke-linecap:round;stroke-linejoin:bevel;stroke-width:2px"/><path id="Tracé_22935" data-name="Tracé 22935" d="M78.22,47.85a46.77,46.77,0,0,0-6.84-4.39,44,44,0,0,0-7.44-2.84" transform="translate(0 0)" style="fill:none;stroke:#8595ba;stroke-linecap:round;stroke-linejoin:bevel;stroke-width:2px"/></g><g id="Groupe_11091" data-name="Groupe 11091"><g id="Groupe_10734" data-name="Groupe 10734"><g id="Groupe_29" data-name="Groupe 29"><path id="Tracé_97" data-name="Tracé 97" d="M74.9,57.16a6.39,6.39,0,1,1-6.38-6.38,6.38,6.38,0,0,1,6.38,6.38Z" transform="translate(0 0)" style="fill:none;stroke:#8595ba;stroke-width:2px"/><path id="Tracé_98" data-name="Tracé 98" d="M74.53,57.17A2.51,2.51,0,1,1,72,54.67h0A2.49,2.49,0,0,1,74.53,57.17Z" transform="translate(0 0)" style="fill:#8595ba;stroke:#8595ba;stroke-width:2px"/></g></g><g id="Groupe_10742" data-name="Groupe 10742"><g id="Groupe_29-2" data-name="Groupe 29-2"><path id="Tracé_97-2" data-name="Tracé 97-2" d="M51.89,57.16a6.38,6.38,0,1,1-6.38-6.38,6.38,6.38,0,0,1,6.38,6.38Z" transform="translate(0 0)" style="fill:none;stroke:#8595ba;stroke-width:2px"/><path id="Tracé_98-2" data-name="Tracé 98-2" d="M51.52,57.17A2.51,2.51,0,1,1,49,54.67h0A2.49,2.49,0,0,1,51.52,57.17Z" transform="translate(0 0)" style="fill:#8595ba;stroke:#8595ba;stroke-width:2px"/></g></g></g></g></g></g><g id="Groupe_11092" data-name="Groupe 11092"><g id="Groupe_22" data-name="Groupe 22"><path id="Tracé_51" data-name="Tracé 51" d="M62.26,72.73a2.63,2.63,0,0,0-.9-1.91,5,5,0,0,0-2.07-1.14,7.22,7.22,0,0,0-4.12,0,5,5,0,0,0-2.07,1.14,2.63,2.63,0,0,0-.9,1.91c0,1.34,1.2.73,2.92.3a7.57,7.57,0,0,1,4.22,0C61.06,73.46,62.26,74.07,62.26,72.73Z" transform="translate(0 0)" style="fill:#8595ba"/></g><path id="Tracé_52" data-name="Tracé 52" d="M59.29,69.93a7.4,7.4,0,0,0-4.12,0,2.08,2.08,0,0,0,4.12,0Z" transform="translate(0 0)" style="fill:#8595ba"/></g></g></g></g><g id="no-entry"><circle id="Ellipse_440" data-name="Ellipse 440" cx="112.49" cy="32.5" r="32.5" style="fill:#e70020"/><path id="Tracé_22953" data-name="Tracé 22953" d="M145.06,32.63A32.54,32.54,0,0,0,112.53.1h0V65.16A32.53,32.53,0,0,0,145.06,32.63Z" transform="translate(0 0)" style="fill:#e70020"/><path id="Tracé_22954" data-name="Tracé 22954" d="M132.55,27.63h-40A2.48,2.48,0,0,0,90,30.09v5a2.46,2.46,0,0,0,2.45,2.5h40.08a2.48,2.48,0,0,0,2.5-2.46v-5a2.48,2.48,0,0,0-2.45-2.5Z" transform="translate(0 0)" style="fill:#ecf7fe"/><path id="Tracé_22955" data-name="Tracé 22955" d="M135.05,30.13v5a2.48,2.48,0,0,1-2.46,2.5H112.53v-10h20a2.48,2.48,0,0,1,2.5,2.45Z" transform="translate(0 0)" style="fill:#dce7f5"/></g></g></g></g></svg>