<svg id="Calque_1" data-name="Calque 1" xmlns="http://www.w3.org/2000/svg" viewBox="0 0 163.82 155.69"><title>gymneo</title><g id="Groupe_10871" data-name="Groupe 10871"><g id="atom" style="opacity:0.12999999523162842"><path id="Tracé_21320" data-name="Tracé 21320" d="M76,96A17.88,17.88,0,1,1,93.85,78.16,17.87,17.87,0,0,1,76,96Z" transform="translate(0 0)" style="fill:#19a2ed"/><path id="Tracé_21321" data-name="Tracé 21321" d="M128.83,47.76l-.11,0a.57.57,0,0,1,0-.13c.59-16.87-4.65-29.38-14.77-35.22S90.4,8.23,76.08,17.19l-.1.06-.1-.06C61.56,8.23,48.1,6.52,38,12.36S22.63,30.71,23.23,47.58v.13l-.11,0C8.21,55.68,0,66.48,0,78.16s8.21,22.47,23.12,30.4l.11,0v.13C22.63,125.61,27.87,138.12,38,144a26,26,0,0,0,13.2,3.4c7.53,0,16-2.77,24.68-8.23l.1-.07.1.07c8.74,5.46,17.15,8.23,24.69,8.23A26,26,0,0,0,114,144c10.11-5.84,15.35-18.35,14.76-35.22a.57.57,0,0,0,0-.13l.11,0c14.91-7.92,23.12-18.72,23.12-30.4S143.74,55.68,128.83,47.76ZM106.09,95.54a130.14,130.14,0,0,1-10.85,16,132.25,132.25,0,0,1-38.52,0A131.84,131.84,0,0,1,37.46,78.16,132.07,132.07,0,0,1,56.72,44.79a133,133,0,0,1,38.52,0,130.14,130.14,0,0,1,10.85,16,130.14,130.14,0,0,1,8.41,17.39,130.61,130.61,0,0,1-8.41,17.38ZM118,88.47a91.74,91.74,0,0,1,3.09,15.73,91.14,91.14,0,0,1-15.17,5.2q3.42-4.89,6.49-10.2C114.46,95.66,116.32,92.07,118,88.47ZM76,130.25A91.07,91.07,0,0,1,63.9,119.71c4,.35,8,.52,12.08.52s8.12-.18,12.08-.52A90.35,90.35,0,0,1,76,130.25ZM46,109.4a91.1,91.1,0,0,1-15.17-5.19A90.72,90.72,0,0,1,34,88.47c1.68,3.6,3.55,7.19,5.59,10.72S43.75,106.14,46,109.4ZM34,67.84a90.61,90.61,0,0,1-3.09-15.73A91.1,91.1,0,0,1,46,46.92q-3.42,4.89-6.49,10.2T34,67.84ZM76,26.06A92.44,92.44,0,0,1,88.06,36.6c-4-.34-8-.52-12.08-.52s-8.13.18-12.08.52A91.16,91.16,0,0,1,76,26.06Zm36.43,31.06q-3.06-5.29-6.49-10.2a91.1,91.1,0,0,1,15.17,5.19A90.42,90.42,0,0,1,118,67.84q-2.52-5.4-5.58-10.72ZM100.73,16.26a18.9,18.9,0,0,1,9.58,2.43c7.1,4.1,11,13.14,11.15,25.63A107.34,107.34,0,0,0,99.14,38a107.25,107.25,0,0,0-16.6-16.19C89.12,18.14,95.3,16.26,100.73,16.26ZM41.64,18.68a19,19,0,0,1,9.58-2.42c5.43,0,11.61,1.89,18.19,5.59A107.7,107.7,0,0,0,52.81,38a107.69,107.69,0,0,0-22.32,6.28C30.63,31.83,34.54,22.79,41.64,18.68ZM7.3,78.16c0-8.2,5.88-16.11,16.62-22.48a107.64,107.64,0,0,0,5.72,22.48,107.4,107.4,0,0,0-5.72,22.47C13.18,94.26,7.3,86.36,7.3,78.16Zm34.34,59.47c-7.1-4.1-11-13.15-11.15-25.64a106.93,106.93,0,0,0,22.32,6.29,107.25,107.25,0,0,0,16.6,16.19C58.53,140.59,48.74,141.73,41.64,137.63Zm68.67,0c-7.1,4.1-16.89,3-27.77-3.16a107.7,107.7,0,0,0,16.6-16.19A106.93,106.93,0,0,0,121.46,112C121.32,124.48,117.42,133.53,110.31,137.63Zm17.71-37a107.37,107.37,0,0,0-5.71-22.47A107.62,107.62,0,0,0,128,55.68c10.75,6.37,16.63,14.27,16.63,22.48s-5.88,16.1-16.63,22.47Z" transform="translate(0 0)" style="fill:#19a2ed"/><path id="Tracé_21322" data-name="Tracé 21322" d="M93.85,78.16A17.9,17.9,0,0,0,76,60.28h0V96h0A17.9,17.9,0,0,0,93.85,78.16Z" transform="translate(0 0)" style="fill:#19a2ed"/><path id="Tracé_21323" data-name="Tracé 21323" d="M128.83,47.76l-.11,0a.53.53,0,0,1,0-.13c.59-16.87-4.65-29.38-14.76-35.22S90.4,8.23,76.08,17.19l-.1.06h0v8.81h0A91.07,91.07,0,0,1,88.06,36.6c-4-.34-8-.52-12.08-.52h0v7.3h0a132,132,0,0,1,19.26,1.41A132.14,132.14,0,0,1,114.5,78.15a131.72,131.72,0,0,1-19.26,33.37A132,132,0,0,1,76,112.93h0v7.3h0q6.13,0,12.08-.52A91.07,91.07,0,0,1,76,130.25h0v8.81h0l.1.07c8.74,5.46,17.15,8.23,24.68,8.23A26,26,0,0,0,114,144c10.12-5.84,15.36-18.35,14.77-35.22a.49.49,0,0,0,0-.12l.11-.06C143.74,100.64,152,89.84,152,78.16S143.74,55.68,128.83,47.76Zm-16.41,9.36q-3.08-5.31-6.5-10.2a91.1,91.1,0,0,1,15.17,5.19A90.61,90.61,0,0,1,118,67.84Q115.48,62.44,112.42,57.12Zm0,42.07c2-3.53,3.9-7.12,5.58-10.72a90.72,90.72,0,0,1,3.09,15.74,91.1,91.1,0,0,1-15.17,5.19q3.42-4.89,6.5-10.21Zm-2.1,38.44c-7.11,4.1-16.9,3-27.78-3.16a107.25,107.25,0,0,0,16.6-16.19A106.76,106.76,0,0,0,121.46,112c-.14,12.49-4,21.54-11.15,25.64ZM99.14,38a107.25,107.25,0,0,0-16.6-16.19c6.58-3.7,12.76-5.58,18.19-5.58a18.9,18.9,0,0,1,9.58,2.43c7.1,4.1,11,13.14,11.15,25.63A108,108,0,0,0,99.14,38ZM128,100.63a107.4,107.4,0,0,0-5.72-22.47A107,107,0,0,0,128,55.68c10.75,6.37,16.63,14.27,16.63,22.48s-5.88,16.1-16.63,22.47Z" transform="translate(0 0)" style="fill:#19a2ed"/><circle id="Ellipse_421" data-name="Ellipse 421" cx="148.3" cy="78.15" r="15.52" style="fill:#19a2ed"/><circle id="Ellipse_422" data-name="Ellipse 422" cx="40.18" cy="140.17" r="15.52" style="fill:#19a2ed"/><circle id="Ellipse_423" data-name="Ellipse 423" cx="39.82" cy="15.52" r="15.52" style="fill:#19a2ed"/></g><g id="Groupe_10788" data-name="Groupe 10788"><g id="Groupe_10778" data-name="Groupe 10778"><g id="Groupe_10774" data-name="Groupe 10774"><path id="Tracé_22528" data-name="Tracé 22528" d="M130.63,87.73a6,6,0,0,1,.47-.76,127.14,127.14,0,0,0,14.61.48c5.13-.18-3-18.11-5.71-23.43-.5-1-4.64-1.09-4.64-2.29s2.06-.36,2.06-.36-2-1.57-2-2.42,1.4-4.83,4.05-2.65,13,29.59,10.53,32.51c-1.86,2.24-13.5,2.29-18.8,2.19C130.78,90,130.14,88.64,130.63,87.73Z" transform="translate(0 0)" style="fill:#8595ba"/></g><g id="Groupe_10775" data-name="Groupe 10775"><path id="Tracé_22528-2" data-name="Tracé 22528-2" d="M31.4,87.73a8.65,8.65,0,0,0-.47-.76,122.91,122.91,0,0,1-14.61.48c-5.13-.17,3-18.11,5.7-23.43.51-1,4.65-1.08,4.64-2.28s-2.06-.37-2.06-.37,2-1.57,2-2.41-1.4-4.83-4.06-2.65S9.57,85.9,12,88.82c1.87,2.24,13.5,2.29,18.8,2.19C31.25,90,31.88,88.64,31.4,87.73Z" transform="translate(0 0)" style="fill:#8595ba"/></g><g id="Groupe_10740" data-name="Groupe 10740"><g id="Groupe_10740-2" data-name="Groupe 10740-2"><g id="Groupe_10738" data-name="Groupe 10738"><g id="Groupe_34" data-name="Groupe 34"><g id="Groupe_25" data-name="Groupe 25"><path id="Tracé_87" data-name="Tracé 87" d="M65.64,102.85s2.46,38.27,1.23,39.4-8,.12-9.23,2.23,10.34,2,11.82.69,0-42.32,0-42.32Z" transform="translate(0 0)" style="fill:#8595ba"/><path id="Tracé_88" data-name="Tracé 88" d="M100.67,101.94s-2.46,38.27-1.23,39.4,8,.12,9.23,2.23-10.34,2-11.81.69,0-42.32,0-42.32Z" transform="translate(0 0)" style="fill:#8595ba"/></g><g id="Groupe_27" data-name="Groupe 27"><path id="Tracé_89" data-name="Tracé 89" d="M109.05,111c1.18.5,5.18,1.91,8.41-.15,3.84-2.46,3.84-5.38,3.84-5.38a11.17,11.17,0,0,0,11.21-2.61c5.37-4.91,2.91-14.71,2.91-14.71s5-2.61,4.46-8c-.95-8.72-9.83-9.21-9.83-9.21s2.76-6.6-2.15-11.21a14.41,14.41,0,0,0-11.36-3.53,5.07,5.07,0,0,0-1.85-5.68c-3.07-2.15-5.52-.87-5.52-.87s.53-7-5.82-9.36a13.06,13.06,0,0,0-11.23,1.33s-3.83-4.15-9.36-3.38a17.18,17.18,0,0,0-8.6,3.53,9.79,9.79,0,0,0-9.52-2.15,8.84,8.84,0,0,0-6.45,7.06s-9.86-2.74-15.23,4S40.2,63,40.2,63s-8.88-1.21-11.64,7.23a14.93,14.93,0,0,0,2.3,14.13s-7.22,7.22-4.14,15a9.17,9.17,0,0,0,10.42,6.17A8.13,8.13,0,0,0,45,112.79c7.21.46,10.28-2.14,10.28-2.14s6.3,5.21,12.44,4.6,8.44-3.07,8.44-3.07S82,115.5,87.67,115.3s10.28-4,10.28-4a6.08,6.08,0,0,0,5.69,2.77C107.47,113.63,108.83,110.86,109.05,111Z" transform="translate(0 0)" style="fill:#f3f6fe"/><g id="Groupe_26" data-name="Groupe 26"><path id="Tracé_90" data-name="Tracé 90" d="M141.25,79.94c-.72-6.67-5.78-9.42-9.41-10.2a11.21,11.21,0,0,0-3-11.08,15.53,15.53,0,0,0-10.6-4h-.08a6.17,6.17,0,0,0-2.67-5.32,7.67,7.67,0,0,0-4.23-1.59,8.94,8.94,0,0,0-.94-2.54,11,11,0,0,0-6.49-6.26,13.25,13.25,0,0,0-4.62-.84,14.38,14.38,0,0,0-4.55.76h0l-.34.12-.19.07h0a14.77,14.77,0,0,0-1.78.78,13,13,0,0,0-8.18-3.14,10.23,10.23,0,0,0-1.56.11,19.69,19.69,0,0,0-8.36,3.13,11.22,11.22,0,0,0-6.63-2.2,12.45,12.45,0,0,0-3.32.48A10.15,10.15,0,0,0,57.16,45c-3-.44-10.31-.77-14.94,5-3.09,3.89-3.84,7.18-3.85,9.47v0A8.52,8.52,0,0,0,38.46,61a12.78,12.78,0,0,0-11.2,8.85A16.37,16.37,0,0,0,29,84.22a2.3,2.3,0,0,0-.27.31,1.37,1.37,0,0,0-.26.51c-2.1,2.73-5.55,8.56-3.06,14.9,2.23,5.69,6.65,6.54,9.08,6.54a10.23,10.23,0,0,0,1.66-.13c.71,3.17,3.08,7.46,8.73,7.82.59,0,1.19.06,1.76.06a17.5,17.5,0,0,0,8.55-1.9c1.84,1.34,6.53,4.35,11.48,4.35a11.12,11.12,0,0,0,1.16-.06,18.54,18.54,0,0,0,7.61-2.25,4.21,4.21,0,0,0,.93-.51,26.12,26.12,0,0,0,10.77,2.83h.56a19.85,19.85,0,0,0,10-3.51,5.35,5.35,0,0,0,.5.45.41.41,0,0,0,.11.07,7.09,7.09,0,0,0,4.69,1.74h0a6.85,6.85,0,0,0,.79,0,8.61,8.61,0,0,0,5.63-2.83,13.15,13.15,0,0,0,4.08.71,8.68,8.68,0,0,0,4.72-1.31,9.67,9.67,0,0,0,4.12-4.84,12.38,12.38,0,0,0,2.35.22,12.8,12.8,0,0,0,8.76-3.51c4.91-4.49,4-12.31,3.53-15.07A9.5,9.5,0,0,0,141.25,79.94Zm-6.18,6.77c-.73-.23-1.64-.48-2.74-.76a5.47,5.47,0,0,0-5.49,1.44,4.66,4.66,0,0,0-.88,4.79,3.94,3.94,0,0,0,4,2.6,6.65,6.65,0,0,0,2.07-.34,1.25,1.25,0,1,0-.81-2.36c-.1,0-2.34.78-2.9-.76a2.2,2.2,0,0,1,.4-2.26,3,3,0,0,1,3-.68c1,.25,1.81.48,2.48.68.4,2.11,1.34,9.1-2.63,12.73a10,10,0,0,1-6.89,2.79,9.55,9.55,0,0,1-2.76-.4l-2.49-4.79a1.38,1.38,0,0,0-1.84-.64,1.39,1.39,0,0,0-.64,1.85l0,.06,2.8,5.38a6.77,6.77,0,0,1-3.07,3.59,5.84,5.84,0,0,1-3.23.87,10.47,10.47,0,0,1-3.89-.82l-.27-.11h-.28a1.77,1.77,0,0,0-1.38.8,6,6,0,0,1-4.16,2.27l-.51,0h0a4.61,4.61,0,0,1-3.61-1.81,4.36,4.36,0,0,1-.66-2.61,2.24,2.24,0,0,1,1-1.88c1.77-1,2.62-.15,2.85.14a1.38,1.38,0,0,0,2.26-1.58c-.8-1.16-3.18-2.86-6.49-1A4.92,4.92,0,0,0,96,108.06a7.08,7.08,0,0,0,.35,2.7,17.31,17.31,0,0,1-8.68,3.16,22.42,22.42,0,0,1-9.48-2.29h0a9,9,0,0,0-.55-7c-1.77-3.92-6-3.79-8-3.17a1.38,1.38,0,1,0,.76,2.65h0c.14,0,3.45-1,4.67,1.66a6.42,6.42,0,0,1,.51,4.8,2.89,2.89,0,0,1-.22.43l-.21.22s-2.14,2.11-7.59,2.65a8.64,8.64,0,0,1-.88,0c-4.16,0-8.33-2.72-9.89-3.85l.35-4.19a1.38,1.38,0,1,0-2.76-.22l-.34,4.15a14.28,14.28,0,0,1-7.39,1.66c-.51,0-1.05,0-1.58,0-5.73-.37-6.33-6.2-6.38-6.76a3.79,3.79,0,0,1,2-3,3,3,0,0,1,1.84-.5l-.1,0,1.08-2.54c-.27-.11-1.72-.62-4.1.63a6.45,6.45,0,0,0-3.38,4.38,8.19,8.19,0,0,1-1.57.15c-3.08,0-5.26-1.61-6.51-4.78C25.43,92.35,31.23,86,31.8,85.41a7.06,7.06,0,0,1,4.51-1.57,4.27,4.27,0,0,1,4,2.65,1.39,1.39,0,0,0,1.31.93,1.62,1.62,0,0,0,.44-.07,1.39,1.39,0,0,0,.87-1.75,7,7,0,0,0-6.56-4.52,9.55,9.55,0,0,0-5.18,1.4,13.77,13.77,0,0,1-1.31-11.79,10.23,10.23,0,0,1,9.42-7,6.63,6.63,0,0,0,5.19,3.72,7.56,7.56,0,0,0,1.06.08,7.67,7.67,0,0,0,6.66-4.42A1.38,1.38,0,1,0,49.7,61.9c-.06.13-1.57,3.23-4.82,2.76a3.88,3.88,0,0,1-2.83-1.76l-.57-1.23a1.45,1.45,0,0,1-.08-.2,6.77,6.77,0,0,1-.27-1.84c0-.05,0-.09,0-.13,0-1.73.62-4.4,3.27-7.73,4.1-5.15,11-4.28,13-3.92l1.95,4.38a1.38,1.38,0,1,0,2.52-1.13l-2.1-4.72a.26.26,0,0,0,0-.09A7.48,7.48,0,0,1,65,40.88a9.21,9.21,0,0,1,2.56-.37,8.34,8.34,0,0,1,5.58,2.15l.31.32A3.79,3.79,0,0,1,74,46.72a3.08,3.08,0,0,1-2.91,2,1.39,1.39,0,1,0-.26,2.76h.31a5.88,5.88,0,0,0,5.34-3.51A6.27,6.27,0,0,0,76.11,42,17.09,17.09,0,0,1,83,39.54a7.67,7.67,0,0,1,1.17-.08,10.13,10.13,0,0,1,6.1,2.26,6.42,6.42,0,0,0-1.45,2.87,5.63,5.63,0,0,0,3.89,6.81,1.27,1.27,0,0,0,.34,0,1.38,1.38,0,0,0,.33-2.72,2.86,2.86,0,0,1-1.86-3.54c.51-2.36,3.32-3.45,3.86-3.64a11.85,11.85,0,0,1,3.87-.68,10.49,10.49,0,0,1,3.67.66,8.47,8.47,0,0,1,4.9,4.72.42.42,0,0,0,0,.1,10.22,10.22,0,0,1,.75,3.08l0,2.33c-.45,2-1.48,2-1.94,2a2.94,2.94,0,0,1-1.57-.52,1.39,1.39,0,0,0-1.7,2.19h0a5.73,5.73,0,0,0,3.26,1.1c1.26,0,4.26-.5,4.83-5.19,0-.27,0-.53.07-.79a5.45,5.45,0,0,1,2.42,1.07,3.61,3.61,0,0,1,1.33,4.1l-.75,2.18,2.28-.37a12.12,12.12,0,0,1,1.48-.09A12.82,12.82,0,0,1,127,60.68c3.63,3.41,2.35,8.13,1.93,9.36-.15.31-2.08,4.24-4.77,4.37a1.88,1.88,0,0,1-1.42-.32,1.27,1.27,0,0,1-.15-.91,1.38,1.38,0,0,0-2.68-.65,4,4,0,0,0,.7,3.32,4.08,4.08,0,0,0,3.32,1.33h.36c3.26-.15,5.49-3.1,6.52-4.81,2,.33,7.07,1.77,7.73,7.88.39,3.74-2.5,5.88-3.44,6.47Z" transform="translate(0 0)" style="fill:#b8c4e0"/><path id="Tracé_91" data-name="Tracé 91" d="M112.72,68.33a8,8,0,0,0-1.87-7.11c-4.46-5.36-11.21-4.18-15.4-2.28a9.69,9.69,0,0,0-6.56-7.36c-5.06-1.72-9,1.69-10.78,3.77A12.64,12.64,0,0,0,68.81,52a8.45,8.45,0,0,0-7.49,5.93,7.29,7.29,0,0,0,2.36,8.34A8.46,8.46,0,0,0,74.9,66,1.38,1.38,0,0,0,73,64a5.68,5.68,0,0,1-7.61.15,4.62,4.62,0,0,1-1.46-5.3,5.75,5.75,0,0,1,4.93-4.05c5.74-.12,8,3.36,8.12,3.5a1.37,1.37,0,0,0,1.9.45,1.29,1.29,0,0,0,.44-.43c0-.05,3.76-5.75,8.67-4.08a7,7,0,0,1,4.88,6.85,1.38,1.38,0,0,0,1.3,1.46,1.34,1.34,0,0,0,.81-.2c.35-.22,8.75-5.32,13.73.68A5.25,5.25,0,0,1,110,67.7a5.68,5.68,0,0,1-2.77,3.68c-1.8.81-4.07-.39-4.08-.4a1.39,1.39,0,0,0-1.33,2.43,9.32,9.32,0,0,0,3.39,1,6.35,6.35,0,0,0,3.16-.49A8.45,8.45,0,0,0,112.72,68.33Z" transform="translate(0 0)" style="fill:#b8c4e0"/><path id="Tracé_92" data-name="Tracé 92" d="M52.72,87.75a6.34,6.34,0,0,0-.33-3.55h0a7,7,0,0,0,2.36-.4,6.32,6.32,0,0,0,4-4.53,8.74,8.74,0,0,0-1.5-7.68c-2.54-3-6.51-2.25-8.25-1.43a1.38,1.38,0,1,0,1.18,2.5s3.14-1.44,5,.72a6,6,0,0,1,1,5.16,3.67,3.67,0,0,1-2.26,2.65,5.3,5.3,0,0,1-4.21-.51,11.44,11.44,0,0,0-1.6-1.07l-.14-.13a1.38,1.38,0,1,0-1.93,2,5.21,5.21,0,0,0,.43.38h0A12.24,12.24,0,0,0,48.14,83,4.55,4.55,0,0,1,50,87.24c-.57,3-2.81,3.18-3.07,3.19a1.39,1.39,0,1,0,0,2.77C48.59,93.2,51.92,92.06,52.72,87.75Z" transform="translate(0 0)" style="fill:#b8c4e0"/><path id="Tracé_93" data-name="Tracé 93" d="M58.31,93.4A8.25,8.25,0,0,0,51,98.46a1.39,1.39,0,0,0,2.56,1.06.19.19,0,0,1,0-.07,5.51,5.51,0,0,1,4.8-3.29c3-.09,3.36,3.3,3.39,3.68a1.37,1.37,0,0,0,1.37,1.3h.09a1.37,1.37,0,0,0,1.29-1.46h0C64.41,97.44,62.93,93.25,58.31,93.4Z" transform="translate(0 0)" style="fill:#b8c4e0"/><path id="Tracé_94" data-name="Tracé 94" d="M119.34,82.27c-2.22-1.87-5.57-1.32-5.72-1.29a1.26,1.26,0,0,0,.43,2.48s2.35-.37,3.67.74a3.11,3.11,0,0,1,.94,2.53,3.78,3.78,0,0,1-1,2.92,4.34,4.34,0,0,1-2.9.92,1.26,1.26,0,0,0-1.37,1.14,1.12,1.12,0,0,0,0,.41,4.52,4.52,0,0,1-.32,3.09,1.93,1.93,0,0,1-1.5.7,2.69,2.69,0,0,1-2.17-.57,3.23,3.23,0,0,1-.72-2.27,1.26,1.26,0,0,0-2.51-.2,5.69,5.69,0,0,0,1.44,4.24,4.79,4.79,0,0,0,3.54,1.33l.61,0a4.36,4.36,0,0,0,3.35-1.74,5.91,5.91,0,0,0,.93-3.68,5.79,5.79,0,0,0,5.13-6.27A5.55,5.55,0,0,0,119.34,82.27Z" transform="translate(0 0)" style="fill:#b8c4e0"/></g></g></g></g></g></g><g id="Groupe_10805" data-name="Groupe 10805"><path id="Tracé_22522" data-name="Tracé 22522" d="M96,65.75s5.84-.9,9.64,1,5.53,6.67,5.53,6.67" transform="translate(0 0)" style="fill:none;stroke:#8595ba;stroke-linecap:round;stroke-linejoin:bevel;stroke-width:3px"/><path id="Tracé_22523" data-name="Tracé 22523" d="M74.88,65.75s-5.85-.9-9.64,1-5.54,6.67-5.54,6.67" transform="translate(0 0)" style="fill:none;stroke:#8595ba;stroke-linecap:round;stroke-linejoin:bevel;stroke-width:3px"/></g><g id="Groupe_24" data-name="Groupe 24"><path id="Tracé_53" data-name="Tracé 53" d="M78.67,87.83l0-.26c0-.08,0-.19,0-.31s0-.13,0-.2V86.8c0-.18,0-.38,0-.61a7.53,7.53,0,0,0-.27-1.45,7.16,7.16,0,0,0-.3-.84c-.13-.28-.27-.57-.44-.86a7.89,7.89,0,0,0-2.24-2.43l-.5-.34c-.17-.11-.36-.19-.54-.29l-.28-.14-.28-.12c-.2-.07-.39-.16-.6-.22a7.45,7.45,0,0,0-1.24-.29,4.5,4.5,0,0,0-.63-.07l-.33,0h-.39l-.54,0h-.29l-.34,0a5.28,5.28,0,0,0-.67.13l-.61.17a6,6,0,0,0-.59.22l-.29.12L67.1,80c-.18.1-.36.18-.54.29l-.5.33a8.29,8.29,0,0,0-2.24,2.44c-.16.29-.31.58-.44.86s-.22.56-.3.84-.14.52-.18.77-.07.47-.09.68a5.8,5.8,0,0,0,0,.58V87a1.5,1.5,0,0,0,0,.22c0,.13,0,.25,0,.34l0,.28a.54.54,0,0,0,1.06.07l0-.07.06-.24q.07-.33.18-.66l.15-.45q.11-.24.21-.51a5.89,5.89,0,0,1,.29-.55c.09-.19.23-.37.35-.57s.29-.38.45-.57a4.59,4.59,0,0,1,.53-.55,6.47,6.47,0,0,1,1.3-1,7.25,7.25,0,0,1,1.57-.66l.42-.1a1.38,1.38,0,0,1,.2,0l.19,0,.19,0h.26l.54,0a.58.58,0,0,0-.07-1.16.58.58,0,0,0,0,1.16h.43a3.13,3.13,0,0,1,.44,0c.14,0,.29,0,.43.07l.42.1a7.75,7.75,0,0,1,1.57.65,7.34,7.34,0,0,1,1.83,1.52c.17.19.3.39.45.58s.25.38.36.57.2.37.28.55.14.35.21.51l.15.43.07.18c0,.07,0,.14,0,.2l.07.3.06.26a.55.55,0,0,0,1.08,0Z" transform="translate(0 0)" style="fill:#8595ba"/><path id="Tracé_54" data-name="Tracé 54" d="M107.82,87.83l0-.26c0-.08,0-.19,0-.31a1.23,1.23,0,0,0,0-.2,2.25,2.25,0,0,0,0-.26c0-.18,0-.38,0-.61s-.06-.43-.09-.68-.12-.5-.18-.77-.2-.54-.3-.84-.28-.57-.44-.86a8,8,0,0,0-2.25-2.43c-.16-.12-.33-.23-.5-.34a5.44,5.44,0,0,0-.54-.29l-.27-.14-.29-.12c-.2-.07-.39-.16-.59-.22a7.69,7.69,0,0,0-1.24-.29,4.64,4.64,0,0,0-.64-.07l-.32,0h-.39l-.54,0H99l-.34,0a5,5,0,0,0-.67.13l-.62.17a6,6,0,0,0-.59.22l-.29.12-.27.14c-.18.1-.37.18-.54.29l-.5.33A8,8,0,0,0,93,83.05c-.17.29-.31.58-.44.86a7.73,7.73,0,0,0-.3.84,6.06,6.06,0,0,0-.18.77c0,.24-.07.47-.09.68a3.92,3.92,0,0,0,0,.58V87c0,.08,0,.15,0,.22s0,.25,0,.34,0,.28,0,.28a.53.53,0,0,0,1,.07l0-.07.07-.24a5.33,5.33,0,0,1,.17-.66l.15-.45c.08-.16.14-.33.21-.51s.19-.36.29-.55.24-.37.36-.57.28-.38.44-.57a6.94,6.94,0,0,1,.53-.55,6.77,6.77,0,0,1,1.3-1,7.69,7.69,0,0,1,1.57-.66l.43-.1a1.2,1.2,0,0,1,.2,0L99,82l.19,0h.25l.54,0a.59.59,0,0,0-.06-1.17.59.59,0,0,0,0,1.17h.43a3.13,3.13,0,0,1,.43,0c.15,0,.29,0,.43.07l.43.1a8.25,8.25,0,0,1,1.57.65,7.21,7.21,0,0,1,1.3,1c.18.18.36.36.53.55s.3.39.44.58.26.38.36.57.21.37.29.55.14.35.21.51l.15.43.06.18c0,.07,0,.14.05.2s0,.22.07.3l.06.26a.55.55,0,0,0,1.07,0Z" transform="translate(0 0)" style="fill:#8595ba"/></g><g id="Groupe_23" data-name="Groupe 23"><g id="Groupe_22" data-name="Groupe 22"><path id="Tracé_51" data-name="Tracé 51" d="M95.52,96.12a5.5,5.5,0,0,1-1.88,4,10.48,10.48,0,0,1-4.3,2.38,15.42,15.42,0,0,1-8.57,0,10.66,10.66,0,0,1-4.3-2.38,5.45,5.45,0,0,1-1.87-4c0-2.8,2.48-1.52,6.07-.62a15.79,15.79,0,0,0,8.78,0C93,94.6,95.52,93.32,95.52,96.12Z" transform="translate(0 0)" style="fill:#8595ba"/></g><path id="Tracé_52" data-name="Tracé 52" d="M89.34,101.94a15.27,15.27,0,0,1-8.58,0,4.33,4.33,0,0,1,8.58,0Z" transform="translate(0 0)" style="fill:#f3f6fe"/></g><g id="Groupe_10776" data-name="Groupe 10776"><g id="Groupe_10400" data-name="Groupe 10400"><rect id="Rectangle_33" data-name="Rectangle 33" x="130.41" y="54.88" width="17.99" height="6.1" style="fill:#b8c4e0"/><path id="Rectangle_35" data-name="Rectangle 35" d="M127.35,47.84h0a4.73,4.73,0,0,1,4.73,4.73V63.3A4.72,4.72,0,0,1,127.35,68h0a4.72,4.72,0,0,1-4.73-4.72V52.57A4.73,4.73,0,0,1,127.35,47.84Z" transform="translate(0 0)" style="fill:#8595ba"/><path id="Rectangle_36" data-name="Rectangle 36" d="M151.46,47.84h0a4.73,4.73,0,0,1,4.73,4.73V63.3A4.72,4.72,0,0,1,151.46,68h0a4.72,4.72,0,0,1-4.73-4.72V52.57A4.73,4.73,0,0,1,151.46,47.84Z" transform="translate(0 0)" style="fill:#8595ba"/><path id="Tracé_22530" data-name="Tracé 22530" d="M125.42,50.43h3.85a2.8,2.8,0,0,1,2.8,2.8h0v9.4a2.8,2.8,0,0,1-2.8,2.8h-3.85a2.8,2.8,0,0,1-2.8-2.8h0v-9.4a2.8,2.8,0,0,1,2.8-2.8Z" transform="translate(0 0)" style="fill:#b8c4e0"/><path id="Tracé_22531" data-name="Tracé 22531" d="M149.53,50.43h3.85a2.8,2.8,0,0,1,2.8,2.8h0v9.4a2.8,2.8,0,0,1-2.8,2.8h-3.85a2.8,2.8,0,0,1-2.8-2.8h0v-9.4a2.8,2.8,0,0,1,2.8-2.8Z" transform="translate(0 0)" style="fill:#b8c4e0"/><path id="Tracé_129" data-name="Tracé 129" d="M154.4,50.43h-.14v11.3a1.77,1.77,0,0,1-1.78,1.78h-5.75v.14a1.78,1.78,0,0,0,1.78,1.78h5.89a1.78,1.78,0,0,0,1.78-1.78V52.21A1.78,1.78,0,0,0,154.4,50.43Z" transform="translate(0 0)" style="fill:#b8c4e0;opacity:0.30000001192092896;isolation:isolate"/></g></g><g id="Groupe_10777" data-name="Groupe 10777"><g id="Groupe_10400-2" data-name="Groupe 10400-2"><rect id="Rectangle_33-2" data-name="Rectangle 33-2" x="13.74" y="54.88" width="17.99" height="6.1" style="fill:#b8c4e0"/><path id="Rectangle_35-2" data-name="Rectangle 35-2" d="M10.69,47.84h0a4.72,4.72,0,0,1,4.72,4.73V63.3A4.72,4.72,0,0,1,10.69,68h0A4.72,4.72,0,0,1,6,63.3V52.57A4.73,4.73,0,0,1,10.69,47.84Z" transform="translate(0 0)" style="fill:#8595ba"/><path id="Rectangle_36-2" data-name="Rectangle 36-2" d="M34.79,47.84h0a4.73,4.73,0,0,1,4.73,4.73V63.3A4.72,4.72,0,0,1,34.79,68h0a4.72,4.72,0,0,1-4.72-4.72V52.57A4.72,4.72,0,0,1,34.79,47.84Z" transform="translate(0 0)" style="fill:#8595ba"/><path id="Tracé_22530-2" data-name="Tracé 22530-2" d="M8.76,50.43h3.85a2.8,2.8,0,0,1,2.8,2.8h0v9.4a2.8,2.8,0,0,1-2.8,2.8H8.76A2.8,2.8,0,0,1,6,62.63H6v-9.4a2.8,2.8,0,0,1,2.8-2.8Z" transform="translate(0 0)" style="fill:#b8c4e0"/><path id="Tracé_22531-2" data-name="Tracé 22531-2" d="M32.87,50.43h3.85a2.8,2.8,0,0,1,2.8,2.8h0v9.4a2.8,2.8,0,0,1-2.8,2.8H32.87a2.8,2.8,0,0,1-2.8-2.8h0v-9.4a2.8,2.8,0,0,1,2.8-2.8Z" transform="translate(0 0)" style="fill:#b8c4e0"/><path id="Tracé_129-2" data-name="Tracé 129-2" d="M37.74,50.43H37.6v11.3a1.78,1.78,0,0,1-1.78,1.78H30.06v.14a1.79,1.79,0,0,0,1.79,1.78h5.89a1.78,1.78,0,0,0,1.78-1.78V52.21A1.78,1.78,0,0,0,37.74,50.43Z" transform="translate(0 0)" style="fill:#b8c4e0;opacity:0.30000001192092896;isolation:isolate"/></g></g></g></g></g></svg>