<svg id="Calque_1" data-name="Calque 1" xmlns="http://www.w3.org/2000/svg" xmlns:xlink="http://www.w3.org/1999/xlink" viewBox="0 0 38.42 38.42"><defs><radialGradient id="Dégradé_sans_nom" cx="19.21" cy="20.48" r="19.21" gradientTransform="matrix(1, 0, 0, -1, 0, 39.69)" gradientUnits="userSpaceOnUse"><stop offset="0" stop-color="#fdd835" stop-opacity="0"/><stop offset="0.23" stop-color="#fdd835" stop-opacity="0.01"/><stop offset="0.37" stop-color="#fdd835" stop-opacity="0.04"/><stop offset="0.48" stop-color="#fdd835" stop-opacity="0.1"/><stop offset="0.58" stop-color="#fdd835" stop-opacity="0.18"/><stop offset="0.67" stop-color="#fdd835" stop-opacity="0.28"/><stop offset="0.75" stop-color="#fdd835" stop-opacity="0.41"/><stop offset="0.83" stop-color="#fdd835" stop-opacity="0.56"/><stop offset="0.91" stop-color="#fdd835" stop-opacity="0.73"/><stop offset="0.98" stop-color="#fdd835" stop-opacity="0.93"/><stop offset="1" stop-color="#fdd835"/></radialGradient></defs><title>happy</title><g id="Groupe_10041" data-name="Groupe 10041"><circle id="Ellipse_11" data-name="Ellipse 11" cx="19.21" cy="19.21" r="19.21" style="fill:#fdd835"/><circle id="Ellipse_12" data-name="Ellipse 12" cx="19.21" cy="19.21" r="19.21" style="fill:url(#Dégradé_sans_nom)"/><circle id="Ellipse_13" data-name="Ellipse 13" cx="11.21" cy="18.49" r="3.31" style="fill:#212121"/><circle id="Ellipse_14" data-name="Ellipse 14" cx="27.21" cy="18.49" r="3.31" style="fill:#212121"/><path id="Tracé_4" data-name="Tracé 4" d="M14.51,24.51a8.76,8.76,0,0,0,9.39,0" transform="translate(0 0)" style="fill:none;stroke:#212121;stroke-linecap:round;stroke-miterlimit:10;stroke-width:3px"/><path id="Tracé_5" data-name="Tracé 5" d="M12.83,16.91a.81.81,0,1,1-.81-.82h0A.82.82,0,0,1,12.83,16.91Z" transform="translate(0 0)" style="fill:#feeb98"/><path id="Tracé_6" data-name="Tracé 6" d="M28.83,16.91a.81.81,0,1,1-.81-.82h0A.82.82,0,0,1,28.83,16.91Z" transform="translate(0 0)" style="fill:#feeb98"/></g></svg>