<svg id="Calque_1" data-name="Calque 1" xmlns="http://www.w3.org/2000/svg" viewBox="0 0 38.42 38.42"><title>happy</title><g id="Groupe_10041" data-name="Groupe 10041"><circle id="Ellipse_11" data-name="Ellipse 11" cx="19.21" cy="19.21" r="19.21" style="fill:#fdd835"/><circle id="Ellipse_12" data-name="Ellipse 12" cx="19.21" cy="19.21" r="19.21" style="fill:#ccc"/><circle id="Ellipse_13" data-name="Ellipse 13" cx="11.21" cy="18.49" r="3.31" style="fill:#212121"/><circle id="Ellipse_14" data-name="Ellipse 14" cx="27.21" cy="18.49" r="3.31" style="fill:#212121"/><path id="Tracé_4" data-name="Tracé 4" d="M14.51,24.51a8.76,8.76,0,0,0,9.39,0" transform="translate(0 0)" style="fill:none;stroke:#212121;stroke-linecap:round;stroke-miterlimit:10;stroke-width:3px"/><path id="Tracé_5" data-name="Tracé 5" d="M12.83,16.91a.81.81,0,1,1-.81-.82h0A.82.82,0,0,1,12.83,16.91Z" transform="translate(0 0)" style="fill:#feeb98"/><path id="Tracé_6" data-name="Tracé 6" d="M28.83,16.91a.81.81,0,1,1-.81-.82h0A.82.82,0,0,1,28.83,16.91Z" transform="translate(0 0)" style="fill:#feeb98"/></g></svg>