<svg xmlns="http://www.w3.org/2000/svg" xmlns:xlink="http://www.w3.org/1999/xlink" width="428.054" height="171.573" viewBox="0 0 428.054 171.573">
  <defs>
    <clipPath id="clip-path">
      <path id="crop" d="M558.957,11.9c0,34.555,0,108.241,0,150.2-58.868,13.339-134.543,21.356-217.111,21.356-79.386,0-153.1-7.617-210.938-20.044,0-37.562.049-128.1.049-151.528C187.167,11.878,497.161,11.9,558.957,11.9Z" transform="translate(-130.953 -10.878)" fill="#fff" opacity="0.202"/>
    </clipPath>
    <filter id="Tracé_28318" x="290.764" y="43.167" width="165.738" height="165.189" filterUnits="userSpaceOnUse">
      <feOffset dx="5.526" dy="5.526" input="SourceAlpha"/>
      <feGaussianBlur stdDeviation="3.158" result="blur"/>
      <feFlood flood-opacity="0.251"/>
      <feComposite operator="in" in2="blur"/>
      <feComposite in="SourceGraphic"/>
    </filter>
    <filter id="Tracé_28319" x="281.06" y="83.06" width="175.722" height="139.884" filterUnits="userSpaceOnUse">
      <feOffset dx="5.526" dy="5.526" input="SourceAlpha"/>
      <feGaussianBlur stdDeviation="3.158" result="blur-2"/>
      <feFlood flood-opacity="0.251"/>
      <feComposite operator="in" in2="blur-2"/>
      <feComposite in="SourceGraphic"/>
    </filter>
    <filter id="Tracé_28320" x="-26.253" y="-15.803" width="146.761" height="131.276" filterUnits="userSpaceOnUse">
      <feOffset dx="5.526" dy="5.526" input="SourceAlpha"/>
      <feGaussianBlur stdDeviation="3.158" result="blur-3"/>
      <feFlood flood-opacity="0.251"/>
      <feComposite operator="in" in2="blur-3"/>
      <feComposite in="SourceGraphic"/>
    </filter>
  </defs>
  <g id="header_forms" transform="translate(0.049 -1)" clip-path="url(#clip-path)">
    <g id="forms">
      <path id="Tracé_28312" data-name="Tracé 28312" d="M206.62,169.655c17.577,56.637,49.066,97.751,110.1,88.961s90.638,3.632,83.491,92.769c-7.1,88.59-122.551,28.318-122.551,28.318l-103.405-43.67V169.655Z" transform="translate(-210.451 -173.39)" opacity="0.075"/>
      <path id="Tracé_28313" data-name="Tracé 28313" d="M299.575,197.112c-11.958,42.633-38.52,53.843,83.657,62.161s112.345,84.409,195.53,77.042,34.313-160,34.313-160Z" transform="translate(-176.592 -201.316)" opacity="0.08"/>
      <ellipse id="Ellipse_782" data-name="Ellipse 782" cx="3.974" cy="3.974" rx="3.974" ry="3.974" transform="translate(349.539 133.141) rotate(-42.236)" opacity="0.161"/>
      <ellipse id="Ellipse_783" data-name="Ellipse 783" cx="3.974" cy="3.974" rx="3.974" ry="3.974" transform="translate(352.124 134.782) rotate(-42.236)" opacity="0.08"/>
      <path id="Tracé_28315" data-name="Tracé 28315" d="M456.439,226.441a3.974,3.974,0,1,0-.271,5.614A3.975,3.975,0,0,0,456.439,226.441Z" transform="translate(-154.6 -210.746)" fill="none" stroke="#000" stroke-miterlimit="10" stroke-width="0.5" opacity="0.161"/>
      <path id="Tracé_28316" data-name="Tracé 28316" d="M361.2,243.989a7.9,7.9,0,1,0-7.9,7.9A7.9,7.9,0,0,0,361.2,243.989Z" transform="translate(-279.625 -156.236)" opacity="0.161"/>
      <path id="Tracé_28317" data-name="Tracé 28317" d="M363.376,246.38a7.9,7.9,0,1,0-7.9,7.9A7.9,7.9,0,0,0,363.376,246.38Z" transform="translate(-279.335 -155.917)" opacity="0.052"/>
      <g transform="matrix(1, 0, 0, 1, -0.05, 1)" filter="url(#Tracé_28318)">
        <path id="Tracé_28318-2" data-name="Tracé 28318" d="M492.9,188.595c-12.708,40.4-39.786,36.932-76.737,43.679-49.377,9.268-35.078,62.6-1.112,84.079a69.637,69.637,0,0,0,83.3-3.955c23.482-17.95,36.406-52.963,30.633-79.615-2.306-10.646-26-68.83-36.083-44.188" transform="translate(-89.19 -135.2)" fill="none" stroke="#000" stroke-miterlimit="10" stroke-width="0.5" opacity="0.161"/>
      </g>
      <g transform="matrix(1, 0, 0, 1, -0.05, 1)" filter="url(#Tracé_28319)">
        <path id="Tracé_28319-2" data-name="Tracé 28319" d="M516.067,256.355c-35.443,23.181-54.184,3.331-87.034-14.881-44.059-24.143-66.819,26.165-54.173,64.31a69.636,69.636,0,0,0,66.92,49.761c29.539,1.009,61.733-17.87,74.17-42.141,4.967-9.694,23.539-69.71.117-57.049" transform="translate(-86.11 -147.89)" fill="none" stroke="#000" stroke-miterlimit="10" stroke-width="0.5" opacity="0.161"/>
      </g>
      <g transform="matrix(1, 0, 0, 1, -0.05, 1)" filter="url(#Tracé_28320)">
        <path id="Tracé_28320-2" data-name="Tracé 28320" d="M301.644,119.074c-33.759,1.855-38.779-19.353-54.2-45.069-20.8-34.294-56.637-8.622-63.142,22.8a55.6,55.6,0,0,0,26.363,61.136c20.012,12.5,49.807,12.322,68.1.518,7.307-4.715,44.128-38.771,22.881-39.381" transform="translate(-201.86 -72.45) rotate(1)" fill="none" stroke="#000" stroke-miterlimit="10" stroke-width="0.5" opacity="0.161"/>
      </g>
      <g id="Groupe_18175" data-name="Groupe 18175" transform="translate(-36.587 48.366)" opacity="0.161" style="isolation: isolate">
        <path id="Tracé_28321" data-name="Tracé 28321" d="M231.935,329.972c.458-.129,35.482,21.031,68.6-20.448s70.13-21.837,110.6,2.174C451.68,335.712,467.6,280.1,546.349,280.5c54.554.282,124.387,56.324,195.7,23.1" transform="translate(-231.464 -220.83)" fill="none" stroke="#000" stroke-miterlimit="10" stroke-width="0.35"/>
        <path id="Tracé_28322" data-name="Tracé 28322" d="M231.922,328.288c1.373-.389,38.157,21.787,71.468-18.412s68.591-23.578,109.173-.244c40.806,23.346,57.206-27.817,136.741-27.619,54.913.154,122.985,51.507,192.448,18.8" transform="translate(-231.465 -220.628)" fill="none" stroke="#000" stroke-miterlimit="10" stroke-width="0.35"/>
        <path id="Tracé_28323" data-name="Tracé 28323" d="M231.909,326.6c2.288-.648,40.833,22.544,74.335-16.375s66.975-25.266,107.745-2.661c40.992,22.729,57.954-24.041,138.274-24.043,55.272.025,121.581,46.689,189.189,14.5" transform="translate(-231.467 -220.427)" fill="none" stroke="#000" stroke-miterlimit="10" stroke-width="0.35"/>
        <path id="Tracé_28324" data-name="Tracé 28324" d="M231.9,324.92c3.2-.907,43.512,23.3,77.2-14.339s65.408-26.987,106.317-5.078c41.23,22.08,58.7-20.265,139.806-20.469,55.63-.1,120.178,41.873,185.93,10.2" transform="translate(-231.469 -220.225)" fill="none" stroke="#000" stroke-miterlimit="10" stroke-width="0.35"/>
        <path id="Tracé_28325" data-name="Tracé 28325" d="M231.883,323.346c4.121-1.165,46.191,24.058,80.075-12.3s63.842-28.707,104.888-7.5c41.47,21.432,59.453-16.487,141.34-16.892,55.989-.231,118.774,37.055,182.667,5.9" transform="translate(-231.47 -220.136)" fill="none" stroke="#000" stroke-miterlimit="10" stroke-width="0.35"/>
        <path id="Tracé_28326" data-name="Tracé 28326" d="M231.87,321.859c5.038-1.425,48.874,24.814,82.947-10.265s62.278-30.43,103.458-9.914c41.712,20.783,60.2-12.711,142.875-13.316,56.35-.36,117.369,32.238,179.4,1.6" transform="translate(-231.472 -220.131)" fill="none" stroke="#000" stroke-miterlimit="10" stroke-width="0.35"/>
        <path id="Tracé_28327" data-name="Tracé 28327" d="M231.857,320.385c5.956-1.683,51.557,25.571,85.822-8.228S378.395,280,419.707,299.825c41.958,20.132,60.952-8.936,144.411-9.74,56.707-.488,115.962,27.42,176.137-2.7" transform="translate(-231.474 -220.139)" fill="none" stroke="#000" stroke-miterlimit="10" stroke-width="0.35"/>
        <path id="Tracé_28328" data-name="Tracé 28328" d="M231.844,319.006c6.875-1.943,54.244,26.327,88.7-6.193s59.155-33.875,100.6-14.747c42.206,19.482,61.7-5.159,145.948-6.164,57.069-.618,114.556,22.6,172.869-6.994" transform="translate(-231.476 -220.242)" fill="none" stroke="#000" stroke-miterlimit="10" stroke-width="0.35"/>
        <path id="Tracé_28329" data-name="Tracé 28329" d="M231.831,317.828c7.794-2.2,56.931,27.084,91.576-4.156s57.6-35.6,99.165-17.165c42.458,18.829,62.456-1.383,147.486-2.59,57.431-.746,113.149,17.786,169.6-11.293" transform="translate(-231.477 -220.547)" fill="none" stroke="#000" stroke-miterlimit="10" stroke-width="0.35"/>
        <path id="Tracé_28330" data-name="Tracé 28330" d="M231.818,316.648c8.714-2.459,59.62,27.841,94.457-2.118s56.041-37.325,97.731-19.584c42.712,18.177,63.207,2.395,149.026.987,57.789-.874,111.738,12.968,166.325-15.592" transform="translate(-231.479 -220.851)" fill="none" stroke="#000" stroke-miterlimit="10" stroke-width="0.35"/>
        <path id="Tracé_28331" data-name="Tracé 28331" d="M231.8,315.47c9.635-2.719,62.312,28.6,97.34-.082s54.485-39.051,96.3-22c42.968,17.523,63.96,6.171,150.566,4.563,58.151-1,110.329,8.15,163.05-19.891" transform="translate(-231.481 -221.156)" fill="none" stroke="#000" stroke-miterlimit="10" stroke-width="0.35"/>
        <path id="Tracé_28332" data-name="Tracé 28332" d="M231.792,314.292c10.556-2.979,65,29.355,100.225,1.955s52.931-40.78,94.86-24.418c43.227,16.868,64.712,9.948,152.108,8.139,58.512-1.131,108.918,3.332,159.773-24.19" transform="translate(-231.483 -221.46)" fill="none" stroke="#000" stroke-miterlimit="10" stroke-width="0.35"/>
        <path id="Tracé_28333" data-name="Tracé 28333" d="M231.779,313.114c11.478-3.237,67.7,30.111,103.113,3.991S386.27,274.6,428.315,290.27c43.489,16.212,65.465,13.724,153.651,11.713,58.873-1.259,107.507-1.484,156.493-28.487" transform="translate(-231.484 -221.764)" fill="none" stroke="#000" stroke-miterlimit="10" stroke-width="0.35"/>
        <path id="Tracé_28334" data-name="Tracé 28334" d="M231.766,311.936c12.4-3.5,70.4,30.869,106,6.027s49.827-44.239,91.986-29.252c43.755,15.553,66.221,17.5,155.194,15.289,59.236-1.388,106.094-6.3,153.212-32.786" transform="translate(-231.486 -222.069)" fill="none" stroke="#000" stroke-miterlimit="10" stroke-width="0.35"/>
        <path id="Tracé_28335" data-name="Tracé 28335" d="M231.753,310.758c13.325-3.756,73.1,31.625,108.893,8.064s48.278-45.972,90.547-31.671c44.022,14.895,66.976,21.277,156.74,18.866,59.6-1.516,104.679-11.12,149.927-37.086" transform="translate(-231.488 -222.373)" fill="none" stroke="#000" stroke-miterlimit="10" stroke-width="0.35"/>
        <path id="Tracé_28336" data-name="Tracé 28336" d="M231.74,309.579c14.249-4.013,75.8,32.383,111.787,10.1s46.727-47.707,89.107-34.089c44.292,14.233,67.73,25.053,158.286,22.442,59.961-1.646,103.266-15.937,146.641-41.385" transform="translate(-231.49 -222.678)" fill="none" stroke="#000" stroke-miterlimit="10" stroke-width="0.35"/>
        <path id="Tracé_28337" data-name="Tracé 28337" d="M231.727,308.4c15.173-4.273,78.5,33.139,114.682,12.138s45.179-49.443,87.667-36.506c44.564,13.57,68.486,28.83,159.834,26.017,60.321-1.773,101.849-20.753,143.352-45.683" transform="translate(-231.491 -222.982)" fill="none" stroke="#000" stroke-miterlimit="10" stroke-width="0.35"/>
        <path id="Tracé_28338" data-name="Tracé 28338" d="M231.714,307.223c16.1-4.532,81.206,33.9,117.58,14.174s43.632-51.18,86.225-38.922c44.84,12.9,69.244,32.606,161.382,29.592,60.686-1.9,100.433-25.571,140.062-49.982" transform="translate(-231.493 -223.286)" fill="none" stroke="#000" stroke-miterlimit="10" stroke-width="0.35"/>
        <path id="Tracé_28339" data-name="Tracé 28339" d="M231.7,306.045c17.024-4.792,83.914,34.652,120.48,16.211s42.086-52.921,84.783-41.34c45.116,12.236,70,36.382,162.931,33.168,61.05-2.03,99.017-30.389,136.768-54.281" transform="translate(-231.495 -223.591)" fill="none" stroke="#000" stroke-miterlimit="10" stroke-width="0.35"/>
        <path id="Tracé_28340" data-name="Tracé 28340" d="M231.688,304.867c17.951-5.05,86.622,35.409,123.382,18.247s40.539-54.664,83.339-43.758c45.394,11.567,70.758,40.16,164.483,36.745,61.411-2.159,97.6-35.206,133.473-58.579" transform="translate(-231.496 -223.895)" fill="none" stroke="#000" stroke-miterlimit="10" stroke-width="0.35"/>
        <path id="Tracé_28341" data-name="Tracé 28341" d="M231.675,303.689c18.878-5.31,89.332,36.165,126.286,20.284s38.994-56.408,81.894-46.176c45.674,10.894,71.515,43.936,166.034,40.321,61.777-2.288,96.178-40.024,130.175-62.879" transform="translate(-231.498 -224.199)" fill="none" stroke="#000" stroke-miterlimit="10" stroke-width="0.35"/>
        <path id="Tracé_28342" data-name="Tracé 28342" d="M231.662,302.509c19.806-5.568,92.046,36.923,129.192,22.321S398.3,266.675,441.3,276.238c45.954,10.218,72.275,47.713,167.589,43.9,62.14-2.415,94.756-44.841,126.873-67.177" transform="translate(-231.5 -224.504)" fill="none" stroke="#000" stroke-miterlimit="10" stroke-width="0.35"/>
        <path id="Tracé_28343" data-name="Tracé 28343" d="M231.649,301.331c20.734-5.827,94.76,37.679,132.1,24.357s35.9-59.9,79-51.01c46.236,9.541,73.034,51.488,169.142,47.471,62.5-2.544,93.336-49.659,123.573-71.476" transform="translate(-231.502 -224.808)" fill="none" stroke="#000" stroke-miterlimit="10" stroke-width="0.35"/>
        <path id="Tracé_28344" data-name="Tracé 28344" d="M231.636,300.153c21.663-6.086,97.478,38.436,135.01,26.394S401,264.89,444.2,273.12c46.519,8.861,73.794,55.264,170.7,51.047,62.87-2.673,91.914-54.476,120.268-75.775" transform="translate(-231.503 -225.112)" fill="none" stroke="#000" stroke-miterlimit="10" stroke-width="0.35"/>
        <path id="Tracé_28345" data-name="Tracé 28345" d="M231.623,298.975c22.593-6.346,100.2,39.192,137.921,28.431s32.806-63.411,76.108-55.846c46.8,8.178,74.554,59.042,172.255,54.624,63.234-2.8,90.49-59.293,116.961-80.074" transform="translate(-231.505 -225.417)" fill="none" stroke="#000" stroke-miterlimit="10" stroke-width="0.35"/>
        <path id="Tracé_28346" data-name="Tracé 28346" d="M231.61,297.8c23.524-6.6,102.918,39.949,140.836,30.467S403.7,263.1,447.1,270c47.086,7.492,75.316,62.818,173.813,58.2,63.6-2.93,89.065-64.11,113.652-84.372" transform="translate(-231.507 -225.721)" fill="none" stroke="#000" stroke-miterlimit="10" stroke-width="0.35"/>
        <path id="Tracé_28347" data-name="Tracé 28347" d="M231.6,296.618c24.455-6.863,105.64,40.707,143.753,32.5s29.706-66.928,73.208-60.68c47.37,6.8,76.078,66.595,175.373,61.775,63.964-3.058,87.64-68.927,110.338-88.671" transform="translate(-231.509 -226.026)" fill="none" stroke="#000" stroke-miterlimit="10" stroke-width="0.35"/>
        <path id="Tracé_28348" data-name="Tracé 28348" d="M231.584,295.44c25.387-7.122,108.365,41.463,146.671,34.541s28.152-68.689,71.756-63.1c47.651,6.111,76.839,70.371,176.932,65.35,64.331-3.187,86.214-73.745,107.026-92.971" transform="translate(-231.51 -226.33)" fill="none" stroke="#000" stroke-miterlimit="10" stroke-width="0.35"/>
        <path id="Tracé_28349" data-name="Tracé 28349" d="M231.571,294.262c26.319-7.381,111.092,42.22,149.593,36.577s26.6-70.454,70.3-65.516c47.933,5.418,77.6,74.149,178.5,68.927,64.694-3.315,84.785-78.563,103.708-97.269" transform="translate(-231.512 -226.634)" fill="none" stroke="#000" stroke-miterlimit="10" stroke-width="0.35"/>
        <path id="Tracé_28350" data-name="Tracé 28350" d="M231.558,293.084c27.253-7.64,113.821,42.976,152.516,38.614s25.04-72.221,68.85-67.933c48.215,4.719,78.364,77.925,180.057,72.5,65.062-3.444,83.359-83.381,100.391-101.568" transform="translate(-231.514 -226.939)" fill="none" stroke="#000" stroke-miterlimit="10" stroke-width="0.35"/>
        <path id="Tracé_28351" data-name="Tracé 28351" d="M231.545,291.905c28.187-7.9,116.551,43.733,155.441,40.65s23.479-73.99,67.395-70.35c48.494,4.019,79.13,81.7,181.62,76.078,65.43-3.572,81.93-88.2,97.07-105.866" transform="translate(-231.516 -227.243)" fill="none" stroke="#000" stroke-miterlimit="10" stroke-width="0.35"/>
        <path id="Tracé_28352" data-name="Tracé 28352" d="M231.532,290.727c29.121-8.158,119.283,44.489,158.369,42.686s21.922-75.794,65.939-72.767c48.778,3.28,79.894,85.477,183.187,79.654,65.795-3.7,80.5-93.015,93.745-110.165" transform="translate(-231.517 -227.548)" fill="none" stroke="#000" stroke-miterlimit="10" stroke-width="0.35"/>
        <path id="Tracé_28353" data-name="Tracé 28353" d="M231.519,289.548c30.056-8.416,122.019,45.248,161.3,44.724s20.35-77.535,64.483-75.185c49.047,2.611,80.659,89.253,184.752,83.229,66.163-3.83,79.067-97.833,90.421-114.465" transform="translate(-231.519 -227.852)" fill="none" stroke="#000" stroke-miterlimit="10" stroke-width="0.35"/>
      </g>
      <g id="Groupe_18176" data-name="Groupe 18176" transform="translate(-52.698 -16.989)" opacity="0.161" style="isolation: isolate">
        <path id="Tracé_28354" data-name="Tracé 28354" d="M244.1,229.8c55.508,13.893,77.522-45.9,110.244-56.011,47.156-14.574,77.124,29.15,92.9,2.238s31.156-50.788,66.037-22.853,48.184,5.134,48.184,5.134" transform="translate(-227.407 -119.349)" fill="none" stroke="#000" stroke-miterlimit="10" stroke-width="0.25"/>
        <path id="Tracé_28355" data-name="Tracé 28355" d="M561.152,157.5c-.456-.031-14.249,23.571-48.884-3.613s-50.024-5.247-66.015,21.292c-16.052,26.562-45.111-14.571-92.637-.016-32.9,10.083-55.324,66.98-109.9,53.142" transform="translate(-227.386 -119.391)" fill="none" stroke="#000" stroke-miterlimit="10" stroke-width="0.25"/>
        <path id="Tracé_28356" data-name="Tracé 28356" d="M560.832,156.695c-.909-.06-15.194,24.342-49.582-2.091s-49.792-6.437-65.992,19.729c-16.325,26.213-44.473-12.33-92.371,2.208-33.073,10.053-55.911,64.056-109.553,50.272" transform="translate(-227.364 -119.432)" fill="none" stroke="#000" stroke-miterlimit="10" stroke-width="0.25"/>
        <path id="Tracé_28357" data-name="Tracé 28357" d="M560.513,155.889c-1.365-.092-16.14,25.113-50.282-.57s-49.558-7.626-65.971,18.167c-16.6,25.865-43.836-10.09-92.1,4.431-33.248,10.023-56.5,61.131-109.206,47.4" transform="translate(-227.343 -119.472)" fill="none" stroke="#000" stroke-miterlimit="10" stroke-width="0.25"/>
        <path id="Tracé_28358" data-name="Tracé 28358" d="M560.194,155.082c-1.82-.122-17.085,25.883-50.982.951s-49.254-8.784-65.949,16.605c-16.8,25.547-43.2-7.848-91.836,6.654C318,189.286,294.341,237.5,242.566,223.826" transform="translate(-227.322 -119.511)" fill="none" stroke="#000" stroke-miterlimit="10" stroke-width="0.25"/>
        <path id="Tracé_28359" data-name="Tracé 28359" d="M559.874,154.274c-2.274-.152-18.029,26.653-51.681,2.472s-49.006-9.966-65.926,15.043c-17.055,25.207-42.562-5.607-91.57,8.878-33.6,9.964-57.676,55.282-108.517,41.664" transform="translate(-227.3 -119.549)" fill="none" stroke="#000" stroke-miterlimit="10" stroke-width="0.25"/>
        <path id="Tracé_28360" data-name="Tracé 28360" d="M559.556,153.464c-2.73-.183-18.974,27.423-52.38,3.993s-48.757-11.147-65.9,13.481c-17.313,24.867-41.924-3.366-91.3,11.1-33.775,9.934-58.263,52.357-108.171,38.794" transform="translate(-227.279 -119.586)" fill="none" stroke="#000" stroke-miterlimit="10" stroke-width="0.25"/>
        <path id="Tracé_28361" data-name="Tracé 28361" d="M559.237,152.653c-3.184-.213-19.921,28.194-53.08,5.514s-48.511-12.329-65.883,11.919c-17.571,24.527-41.287-1.125-91.036,13.324-33.95,9.9-58.85,49.433-107.825,35.925" transform="translate(-227.258 -119.621)" fill="none" stroke="#000" stroke-miterlimit="10" stroke-width="0.25"/>
        <path id="Tracé_28362" data-name="Tracé 28362" d="M558.917,151.841c-3.639-.245-20.864,28.964-53.779,7.035s-48.265-13.51-65.86,10.357c-17.83,24.186-40.65,1.116-90.769,15.548-34.127,9.875-59.438,46.509-107.48,33.056" transform="translate(-227.236 -119.655)" fill="none" stroke="#000" stroke-miterlimit="10" stroke-width="0.25"/>
        <path id="Tracé_28363" data-name="Tracé 28363" d="M558.6,151.026c-4.093-.275-21.809,29.734-54.478,8.556s-48.019-14.692-65.838,8.8c-18.091,23.846-40.014,3.357-90.5,17.771-34.3,9.845-60.026,43.584-107.135,30.186" transform="translate(-227.215 -119.687)" fill="none" stroke="#000" stroke-miterlimit="10" stroke-width="0.25"/>
        <path id="Tracé_28364" data-name="Tracé 28364" d="M558.279,150.209c-4.549-.305-22.754,30.506-55.176,10.078s-47.777-15.874-65.817,7.233c-18.353,23.506-39.378,5.6-90.237,19.995-34.476,9.815-60.613,40.659-106.789,27.316" transform="translate(-227.194 -119.716)" fill="none" stroke="#000" stroke-miterlimit="10" stroke-width="0.25"/>
        <path id="Tracé_28365" data-name="Tracé 28365" d="M557.96,149.39c-5-.335-23.7,31.276-55.875,11.6s-47.534-17.055-65.795,5.671c-18.614,23.166-38.741,7.839-89.971,22.217-34.652,9.785-61.2,37.735-106.444,24.447" transform="translate(-227.172 -119.744)" fill="none" stroke="#000" stroke-miterlimit="10" stroke-width="0.25"/>
        <path id="Tracé_28366" data-name="Tracé 28366" d="M557.641,148.568c-5.457-.366-24.643,32.046-56.574,13.12s-47.292-18.237-65.773,4.109c-18.877,22.825-38.1,10.079-89.7,24.441-34.827,9.756-61.787,34.81-106.1,21.578" transform="translate(-227.151 -119.768)" fill="none" stroke="#000" stroke-miterlimit="10" stroke-width="0.25"/>
        <path id="Tracé_28367" data-name="Tracé 28367" d="M557.322,147.693c-5.913-.4-25.587,32.816-57.273,14.642S453,142.914,434.3,164.881c-19.141,22.485-37.467,12.321-89.436,26.665-35,9.726-62.376,31.885-105.755,18.708" transform="translate(-227.129 -119.739)" fill="none" stroke="#000" stroke-miterlimit="10" stroke-width="0.25"/>
        <path id="Tracé_28368" data-name="Tracé 28368" d="M557,146.8c-6.366-.427-26.531,33.587-57.971,16.162s-46.81-20.6-65.729.985c-19.406,22.144-36.831,14.562-89.17,28.887-35.179,9.7-62.963,28.961-105.409,15.838" transform="translate(-227.108 -119.689)" fill="none" stroke="#000" stroke-miterlimit="10" stroke-width="0.25"/>
        <path id="Tracé_28369" data-name="Tracé 28369" d="M556.683,145.9c-6.821-.458-27.476,34.357-58.67,17.684s-46.571-21.786-65.707-.577c-19.672,21.8-36.194,16.8-88.9,31.11-35.354,9.666-63.55,26.037-105.064,12.969" transform="translate(-227.087 -119.639)" fill="none" stroke="#000" stroke-miterlimit="10" stroke-width="0.25"/>
        <path id="Tracé_28370" data-name="Tracé 28370" d="M556.364,145c-7.276-.488-28.421,35.127-59.369,19.2s-46.333-22.968-65.685-2.139c-19.938,21.461-35.557,19.044-88.637,33.334-35.528,9.637-64.137,23.112-104.719,10.1" transform="translate(-227.065 -119.59)" fill="none" stroke="#000" stroke-miterlimit="10" stroke-width="0.25"/>
        <path id="Tracé_28371" data-name="Tracé 28371" d="M556.044,144.108c-7.729-.518-29.364,35.9-60.067,20.727s-46.1-24.152-65.663-3.7c-20.206,21.119-34.92,21.285-88.37,35.557-35.706,9.608-64.726,20.188-104.374,7.231" transform="translate(-227.044 -119.54)" fill="none" stroke="#000" stroke-miterlimit="10" stroke-width="0.25"/>
        <path id="Tracé_28372" data-name="Tracé 28372" d="M555.726,143.212c-8.184-.549-30.308,36.668-60.766,22.248s-45.86-25.335-65.641-5.263c-20.475,20.777-34.285,23.526-88.1,37.781-35.88,9.578-65.312,17.263-104.03,4.361" transform="translate(-227.023 -119.49)" fill="none" stroke="#000" stroke-miterlimit="10" stroke-width="0.25"/>
        <path id="Tracé_28373" data-name="Tracé 28373" d="M555.407,142.316c-8.638-.579-31.253,37.439-61.465,23.769s-45.626-26.519-65.618-6.826c-20.746,20.434-33.649,25.767-87.838,40-36.055,9.547-65.9,14.338-103.684,1.491" transform="translate(-227.001 -119.44)" fill="none" stroke="#000" stroke-miterlimit="10" stroke-width="0.25"/>
        <path id="Tracé_28374" data-name="Tracé 28374" d="M555.087,141.42c-9.092-.61-32.2,38.21-62.163,25.29s-45.392-27.7-65.6-8.387c-21.016,20.091-33.012,28.008-87.571,42.227-36.231,9.517-66.485,11.413-103.339-1.379" transform="translate(-226.98 -119.39)" fill="none" stroke="#000" stroke-miterlimit="10" stroke-width="0.25"/>
        <path id="Tracé_28375" data-name="Tracé 28375" d="M554.768,140.524c-9.547-.64-33.139,38.979-62.862,26.811s-45.159-28.889-65.575-9.95c-21.287,19.748-32.376,30.249-87.305,44.451-36.405,9.489-67.072,8.489-102.993-4.247" transform="translate(-226.959 -119.341)" fill="none" stroke="#000" stroke-miterlimit="10" stroke-width="0.25"/>
        <path id="Tracé_28376" data-name="Tracé 28376" d="M554.448,139.628c-10-.672-34.082,39.75-63.559,28.332s-44.926-30.074-65.553-11.511c-21.56,19.4-31.74,32.49-87.038,46.674-36.581,9.459-67.66,5.565-102.65-7.117" transform="translate(-226.937 -119.291)" fill="none" stroke="#000" stroke-miterlimit="10" stroke-width="0.25"/>
        <path id="Tracé_28377" data-name="Tracé 28377" d="M554.13,138.731c-10.455-.7-35.027,40.52-64.257,29.853s-44.7-31.26-65.532-13.073c-21.835,19.059-31.1,34.73-86.772,48.9-36.757,9.428-68.247,2.64-102.3-9.987" transform="translate(-226.916 -119.241)" fill="none" stroke="#000" stroke-miterlimit="10" stroke-width="0.25"/>
        <path id="Tracé_28378" data-name="Tracé 28378" d="M553.81,137.835c-10.909-.732-35.97,41.29-64.955,31.374s-44.467-32.447-65.51-14.635c-22.108,18.714-30.467,36.972-86.505,51.12-36.932,9.4-68.833-.284-101.959-12.856" transform="translate(-226.895 -119.191)" fill="none" stroke="#000" stroke-miterlimit="10" stroke-width="0.25"/>
        <path id="Tracé_28379" data-name="Tracé 28379" d="M553.491,136.938c-11.363-.762-36.913,42.061-65.653,32.9S443.6,136.2,422.35,153.637C399.965,172,392.518,192.85,336.11,206.981c-37.106,9.37-69.42-3.209-101.615-15.726" transform="translate(-226.873 -119.141)" fill="none" stroke="#000" stroke-miterlimit="10" stroke-width="0.25"/>
        <path id="Tracé_28380" data-name="Tracé 28380" d="M553.172,136.042c-11.817-.792-37.856,42.832-66.351,34.417s-44.01-34.822-65.466-17.758c-22.66,18.021-29.2,41.453-85.973,55.567-37.283,9.34-70.008-6.134-101.271-18.6" transform="translate(-226.852 -119.092)" fill="none" stroke="#000" stroke-miterlimit="10" stroke-width="0.25"/>
        <path id="Tracé_28381" data-name="Tracé 28381" d="M552.853,135.146c-12.271-.824-38.8,43.6-67.05,35.938s-43.783-36.012-65.443-19.322c-22.938,17.674-28.56,43.7-85.707,57.79-37.458,9.31-70.594-9.058-100.926-21.465" transform="translate(-226.831 -119.042)" fill="none" stroke="#000" stroke-miterlimit="10" stroke-width="0.25"/>
        <path id="Tracé_28382" data-name="Tracé 28382" d="M552.533,134.25c-12.725-.854-39.743,44.372-67.747,37.46s-43.556-37.2-65.422-20.884c-23.215,17.325-27.923,45.935-85.44,60.013-37.632,9.28-71.18-11.983-100.581-24.334" transform="translate(-226.809 -118.992)" fill="none" stroke="#000" stroke-miterlimit="10" stroke-width="0.25"/>
        <path id="Tracé_28383" data-name="Tracé 28383" d="M552.214,133.354c-13.18-.884-40.686,45.143-68.445,38.98s-43.331-38.392-65.4-22.446c-23.495,16.977-27.288,48.177-85.175,62.238-37.808,9.251-71.767-14.907-100.236-27.2" transform="translate(-226.788 -118.942)" fill="none" stroke="#000" stroke-miterlimit="10" stroke-width="0.25"/>
        <path id="Tracé_28384" data-name="Tracé 28384" d="M551.9,132.458c-13.633-.915-41.629,45.913-69.144,40.5s-43.106-39.584-65.378-24.008c-23.774,16.626-26.653,50.418-84.909,64.461-37.982,9.221-72.353-17.832-99.891-30.073" transform="translate(-226.767 -118.892)" fill="none" stroke="#000" stroke-miterlimit="10" stroke-width="0.25"/>
        <path id="Tracé_28385" data-name="Tracé 28385" d="M551.576,131.562c-14.087-.945-42.572,46.683-69.841,42.022s-42.881-40.776-65.356-25.569c-24.054,16.275-26.017,52.659-84.642,66.683-38.158,9.191-72.941-20.756-99.547-32.943" transform="translate(-226.745 -118.842)" fill="none" stroke="#000" stroke-miterlimit="10" stroke-width="0.25"/>
        <path id="Tracé_28386" data-name="Tracé 28386" d="M551.257,130.666c-14.54-.977-43.515,47.454-70.539,43.544s-42.657-41.97-65.335-27.132C391.049,163,390,201.978,331.008,215.985c-38.334,9.161-73.527-23.681-99.2-35.812" transform="translate(-226.724 -118.793)" fill="none" stroke="#000" stroke-miterlimit="10" stroke-width="0.25"/>
        <path id="Tracé_28387" data-name="Tracé 28387" d="M550.938,129.769c-14.995-1.006-44.458,48.225-71.237,45.065s-42.435-43.162-65.312-28.693c-24.617,15.569-24.745,57.14-84.11,71.13-38.508,9.132-74.114-26.606-98.858-38.682" transform="translate(-226.702 -118.743)" fill="none" stroke="#000" stroke-miterlimit="10" stroke-width="0.25"/>
        <path id="Tracé_28388" data-name="Tracé 28388" d="M550.618,128.873c-15.448-1.037-45.4,49-71.934,46.587S436.472,131.1,413.394,145.2c-24.9,15.215-24.111,59.381-83.845,73.353-38.683,9.1-74.7-29.53-98.513-41.55" transform="translate(-226.681 -118.693)" fill="none" stroke="#000" stroke-miterlimit="10" stroke-width="0.25"/>
        <path id="Tracé_28389" data-name="Tracé 28389" d="M550.3,127.977c-15.9-1.067-46.344,49.765-72.631,48.108s-41.991-45.554-65.269-31.818c-25.182,14.86-23.475,61.623-83.578,75.577-38.859,9.072-75.286-32.455-98.17-44.42" transform="translate(-226.66 -118.643)" fill="none" stroke="#000" stroke-miterlimit="10" stroke-width="0.25"/>
        <path id="Tracé_28390" data-name="Tracé 28390" d="M549.981,127.081c-16.356-1.1-47.286,50.536-73.329,49.629s-41.769-46.751-65.248-33.38c-25.465,14.5-22.839,63.864-83.311,77.8-39.034,9.042-75.872-35.379-97.825-47.291" transform="translate(-226.639 -118.593)" fill="none" stroke="#000" stroke-miterlimit="10" stroke-width="0.25"/>
        <path id="Tracé_28391" data-name="Tracé 28391" d="M549.661,126.185c-16.808-1.129-48.228,51.306-74.025,51.15s-41.548-47.949-65.226-34.941c-25.749,14.145-22.2,66.1-83.046,80.022-39.208,9.014-76.459-38.3-97.48-50.159" transform="translate(-226.617 -118.544)" fill="none" stroke="#000" stroke-miterlimit="10" stroke-width="0.25"/>
        <path id="Tracé_28392" data-name="Tracé 28392" d="M549.342,125.289c-17.263-1.159-49.17,52.076-74.723,52.671s-41.327-49.149-65.2-36.5c-26.032,13.787-21.569,68.346-82.78,82.247-39.384,8.984-77.044-41.228-97.136-53.029" transform="translate(-226.596 -118.494)" fill="none" stroke="#000" stroke-miterlimit="10" stroke-width="0.25"/>
        <path id="Tracé_28393" data-name="Tracé 28393" d="M549.023,124.393c-17.717-1.19-50.114,52.847-75.421,54.192s-41.105-50.349-65.181-38.065c-26.316,13.426-20.934,70.586-82.515,84.47-39.558,8.953-77.63-44.153-96.791-55.9" transform="translate(-226.574 -118.444)" fill="none" stroke="#000" stroke-miterlimit="10" stroke-width="0.25"/>
        <path id="Tracé_28394" data-name="Tracé 28394" d="M548.7,123.5c-18.169-1.219-51.055,53.617-76.117,55.714s-40.885-51.551-65.16-39.628c-26.6,13.066-20.3,72.829-82.247,86.694-39.734,8.923-78.217-47.078-96.448-58.769" transform="translate(-226.553 -118.394)" fill="none" stroke="#000" stroke-miterlimit="10" stroke-width="0.25"/>
        <path id="Tracé_28395" data-name="Tracé 28395" d="M548.384,122.6c-18.623-1.25-52,54.388-76.815,57.235s-40.664-52.752-65.138-41.189c-26.884,12.7-19.664,75.069-81.982,88.916-39.909,8.895-78.8-50-96.1-61.637" transform="translate(-226.532 -118.344)" fill="none" stroke="#000" stroke-miterlimit="10" stroke-width="0.25"/>
        <path id="Tracé_28396" data-name="Tracé 28396" d="M548.066,121.7c-19.076-1.281-52.939,55.159-77.512,58.756S430.11,126.5,405.437,137.708c-27.169,12.338-19.028,77.309-81.717,91.14-40.084,8.865-79.389-52.927-95.759-64.507" transform="translate(-226.51 -118.294)" fill="none" stroke="#000" stroke-miterlimit="10" stroke-width="0.25"/>
        <path id="Tracé_28397" data-name="Tracé 28397" d="M547.746,120.808c-19.529-1.311-53.881,55.929-78.209,60.277s-40.223-55.161-65.093-44.314c-27.453,11.974-18.394,79.551-81.451,93.364-40.258,8.834-79.974-55.851-95.414-67.376" transform="translate(-226.489 -118.245)" fill="none" stroke="#000" stroke-miterlimit="10" stroke-width="0.25"/>
        <path id="Tracé_28398" data-name="Tracé 28398" d="M547.427,119.912c-19.984-1.342-54.823,56.7-78.906,61.8s-40.023-56.4-65.072-45.876c-27.76,11.568-17.758,81.791-81.184,95.586-40.435,8.805-80.561-58.775-95.07-70.245" transform="translate(-226.468 -118.195)" fill="none" stroke="#000" stroke-miterlimit="10" stroke-width="0.25"/>
        <path id="Tracé_28399" data-name="Tracé 28399" d="M547.108,119.016c-20.437-1.372-55.765,57.469-79.6,63.32s-39.791-57.593-65.05-47.438c-28.032,11.219-17.124,84.033-80.918,97.809-40.609,8.776-81.146-61.7-94.727-73.115" transform="translate(-226.446 -118.145)" fill="none" stroke="#000" stroke-miterlimit="10" stroke-width="0.25"/>
        <path id="Tracé_28400" data-name="Tracé 28400" d="M546.788,118.12c-20.889-1.4-56.706,58.24-80.3,64.84s-39.559-58.782-65.028-49c-28.3,10.871-16.488,86.274-80.653,100.034-40.783,8.746-81.732-64.625-94.382-75.985" transform="translate(-226.425 -118.095)" fill="none" stroke="#000" stroke-miterlimit="10" stroke-width="0.25"/>
      </g>
      <path id="Tracé_28401" data-name="Tracé 28401" d="M415.861,213.445a7.9,7.9,0,1,0-7.9,7.9A7.9,7.9,0,0,0,415.861,213.445Z" transform="translate(-222.335 -47.458)" fill="none" stroke="#000" stroke-miterlimit="10" stroke-width="1" opacity="0.161"/>
    </g>
  </g>
</svg>
