<svg xmlns="http://www.w3.org/2000/svg" width="26.815" height="25.485" viewBox="0 0 26.815 25.485"><defs><style>.a{fill:#fff;}</style></defs><g transform="translate(0 0)"><path class="a" d="M184.5,206.949a2.926,2.926,0,1,1,2.926-2.926A2.93,2.93,0,0,1,184.5,206.949Z" transform="translate(-172.067 -191.229)"/><path class="a" d="M21.088,47.043l-.018-.009c0-.007,0-.014,0-.02.1-2.762-.761-4.81-2.416-5.765s-3.858-.675-6.2.79l-.017.011-.017-.011c-2.343-1.465-4.546-1.746-6.2-.79s-2.514,3-2.416,5.765c0,.007,0,.014,0,.02l-.018.009C1.344,48.34,0,50.107,0,52.018S1.344,55.7,3.785,56.994L3.8,57c0,.007,0,.014,0,.02-.1,2.762.761,4.81,2.416,5.765a4.262,4.262,0,0,0,2.161.557A7.79,7.79,0,0,0,12.419,62l.017-.011.017.011a7.789,7.789,0,0,0,4.04,1.347,4.263,4.263,0,0,0,2.161-.557c1.656-.956,2.514-3,2.416-5.765,0-.007,0-.014,0-.02l.018-.009c2.441-1.3,3.785-3.064,3.785-4.975S23.528,48.34,21.088,47.043Zm-3.722,7.821a21.284,21.284,0,0,1-1.776,2.615,21.659,21.659,0,0,1-6.306,0,21.653,21.653,0,0,1-3.153-5.461,21.655,21.655,0,0,1,3.153-5.461,21.658,21.658,0,0,1,6.306,0,21.27,21.27,0,0,1,1.776,2.615,21.279,21.279,0,0,1,1.377,2.846A21.283,21.283,0,0,1,17.365,54.864Zm1.95-1.157a14.9,14.9,0,0,1,.506,2.575,14.9,14.9,0,0,1-2.483.85q.559-.8,1.062-1.67C18.735,54.883,19.04,54.3,19.316,53.707Zm-6.879,6.839a14.9,14.9,0,0,1-1.977-1.725c.648.056,1.309.085,1.977.085s1.329-.029,1.977-.085A14.9,14.9,0,0,1,12.436,60.546Zm-4.9-3.414a14.9,14.9,0,0,1-2.483-.85,14.906,14.906,0,0,1,.506-2.575c.275.589.581,1.176.915,1.755S7.161,56.6,7.534,57.132Zm-1.977-6.8a14.9,14.9,0,0,1-.506-2.575,14.905,14.905,0,0,1,2.483-.85q-.559.8-1.062,1.67C6.137,49.154,5.832,49.74,5.557,50.33Zm6.879-6.839a14.9,14.9,0,0,1,1.977,1.725c-.648-.056-1.309-.085-1.977-.085s-1.329.029-1.977.085A14.9,14.9,0,0,1,12.436,43.491ZM18.4,48.575q-.5-.869-1.062-1.67a14.905,14.905,0,0,1,2.483.85,14.905,14.905,0,0,1-.506,2.575C19.04,49.74,18.735,49.154,18.4,48.575Zm-1.913-6.688a3.094,3.094,0,0,1,1.569.4c1.163.671,1.8,2.152,1.825,4.2a17.6,17.6,0,0,0-3.653-1.029A17.607,17.607,0,0,0,13.51,42.8,6.222,6.222,0,0,1,16.488,41.887Zm-9.672.4a3.093,3.093,0,0,1,1.569-.4,6.224,6.224,0,0,1,2.977.914,17.605,17.605,0,0,0-2.718,2.649A17.6,17.6,0,0,0,4.991,46.48C5.013,44.435,5.653,42.955,6.816,42.284ZM1.2,52.018c0-1.343.962-2.637,2.721-3.678a17.608,17.608,0,0,0,.935,3.678A17.6,17.6,0,0,0,3.917,55.7C2.158,54.655,1.2,53.361,1.2,52.018Zm5.62,9.735c-1.163-.671-1.8-2.152-1.825-4.2a17.6,17.6,0,0,0,3.653,1.029,17.611,17.611,0,0,0,2.718,2.649C9.581,62.238,7.979,62.424,6.816,61.753Zm11.241,0c-1.163.671-2.765.485-4.546-.518a17.6,17.6,0,0,0,2.718-2.649,17.6,17.6,0,0,0,3.653-1.029C19.859,59.6,19.219,61.082,18.057,61.753Zm2.9-6.056a17.606,17.606,0,0,0-.936-3.678,17.6,17.6,0,0,0,.936-3.678c1.759,1.042,2.721,2.336,2.721,3.678S22.715,54.655,20.955,55.7Z" transform="translate(0 -39.225)"/><path class="a" d="M240.377,204.023a2.93,2.93,0,0,0-2.926-2.926h0v5.853h0A2.93,2.93,0,0,0,240.377,204.023Z" transform="translate(-225.015 -191.23)"/><path class="a" d="M246.1,47.044l-.018-.009c0-.007,0-.014,0-.02.1-2.762-.761-4.81-2.416-5.765s-3.858-.675-6.2.79l-.017.011h0v1.442h0a14.9,14.9,0,0,1,1.977,1.725c-.648-.056-1.309-.085-1.977-.085h0v1.2h0a21.291,21.291,0,0,1,3.153.231,21.654,21.654,0,0,1,3.153,5.461A21.653,21.653,0,0,1,240.6,57.48a21.292,21.292,0,0,1-3.153.231h0v1.2h0c.669,0,1.329-.029,1.977-.085a14.9,14.9,0,0,1-1.977,1.725h0v1.442h0l.017.011a7.789,7.789,0,0,0,4.04,1.347,4.263,4.263,0,0,0,2.161-.557c1.656-.956,2.514-3,2.416-5.765,0-.007,0-.014,0-.02l.018-.009c2.441-1.3,3.785-3.064,3.785-4.975S248.543,48.341,246.1,47.044Zm-2.687,1.532q-.5-.869-1.062-1.67a14.905,14.905,0,0,1,2.483.85,14.905,14.905,0,0,1-.506,2.575C244.055,49.741,243.75,49.155,243.416,48.576Zm0,6.887c.334-.579.639-1.166.915-1.755a14.9,14.9,0,0,1,.506,2.575,14.9,14.9,0,0,1-2.483.85Q242.912,56.333,243.416,55.463Zm-.344,6.291c-1.163.671-2.765.485-4.546-.518a17.6,17.6,0,0,0,2.718-2.649,17.6,17.6,0,0,0,3.653-1.029C244.874,59.6,244.234,61.083,243.071,61.754Zm-1.828-16.3a17.607,17.607,0,0,0-2.718-2.649,6.223,6.223,0,0,1,2.977-.914,3.094,3.094,0,0,1,1.569.4c1.163.671,1.8,2.152,1.825,4.2A17.6,17.6,0,0,0,241.243,45.452ZM245.97,55.7a17.607,17.607,0,0,0-.936-3.678,17.6,17.6,0,0,0,.936-3.678c1.759,1.042,2.721,2.336,2.721,3.678S247.729,54.656,245.97,55.7Z" transform="translate(-225.015 -39.226)"/><circle class="a" cx="2.541" cy="2.541" r="2.541" transform="translate(21.734 10.252)"/><circle class="a" cx="2.541" cy="2.541" r="2.541" transform="translate(4.035 20.403)"/><circle class="a" cx="2.541" cy="2.541" r="2.541" transform="translate(3.977 0)"/></g></svg>