<svg id="Calque_1" data-name="Calque 1" xmlns="http://www.w3.org/2000/svg" viewBox="0 0 17.88 21.97"><title>alarm-clock</title><g id="alarm-clock"><g id="Groupe_10231" data-name="Groupe 10231"><path id="Tracé_22602" data-name="Tracé 22602" d="M16.16,12.37A7.22,7.22,0,1,1,8.94,5.15,7.22,7.22,0,0,1,16.16,12.37Z" transform="translate(0 -0.03)" style="fill:#ffebb7"/></g><g id="Groupe_10232" data-name="Groupe 10232"><path id="Tracé_22603" data-name="Tracé 22603" d="M14.44,12.37a5.5,5.5,0,1,1-5.5-5.5h0A5.51,5.51,0,0,1,14.44,12.37Z" transform="translate(0 -0.03)" style="fill:#fff"/></g><g id="Groupe_10234" data-name="Groupe 10234"><g id="Groupe_10233" data-name="Groupe 10233"><path id="Tracé_22604" data-name="Tracé 22604" d="M12.8,4.87a.34.34,0,0,0,.3-.18l.71-1.35a.36.36,0,0,0-.13-.47.35.35,0,0,0-.47.13V3l-.71,1.35a.35.35,0,0,0,.15.46.42.42,0,0,0,.15,0Z" transform="translate(0 -0.03)" style="fill:#5d647f"/></g></g><g id="Groupe_10235" data-name="Groupe 10235"><path id="Tracé_22605" data-name="Tracé 22605" d="M10.69,1.7a3.19,3.19,0,0,1,5.64,3,.35.35,0,0,1-.47.14l-5-2.64a.33.33,0,0,1-.14-.46Z" transform="translate(0 -0.03)" style="fill:#b4b6bc"/></g><g id="Groupe_10236" data-name="Groupe 10236"><path id="Tracé_22606" data-name="Tracé 22606" d="M15,.36h0a3.2,3.2,0,0,1,1.34,4.3.35.35,0,0,1-.47.15L13.34,3.49Z" transform="translate(0 -0.03)" style="fill:#868491"/></g><g id="Groupe_10238" data-name="Groupe 10238"><g id="Groupe_10237" data-name="Groupe 10237"><path id="Tracé_22607" data-name="Tracé 22607" d="M5.07,4.87a.34.34,0,0,1-.3-.18L4.06,3.34A.34.34,0,0,1,4.66,3V3l.71,1.35a.35.35,0,0,1-.15.46.42.42,0,0,1-.15,0Z" transform="translate(0 -0.03)" style="fill:#5d647f"/></g></g><g id="Groupe_10240" data-name="Groupe 10240"><g id="Groupe_10239" data-name="Groupe 10239"><path id="Tracé_22608" data-name="Tracé 22608" d="M3.44,22a.35.35,0,0,1-.35-.34.41.41,0,0,1,.05-.18l1-1.72a.35.35,0,0,1,.47-.12.35.35,0,0,1,.12.47h0l-1,1.72A.32.32,0,0,1,3.44,22Z" transform="translate(0 -0.03)" style="fill:#5d647f"/></g></g><g id="Groupe_10242" data-name="Groupe 10242"><g id="Groupe_10241" data-name="Groupe 10241"><path id="Tracé_22609" data-name="Tracé 22609" d="M14.44,22a.34.34,0,0,1-.3-.17l-1-1.74a.34.34,0,0,1,.59-.35l1,1.74a.34.34,0,0,1-.12.47.29.29,0,0,1-.18.05Z" transform="translate(0 -0.03)" style="fill:#5d647f"/></g></g><g id="Groupe_10243" data-name="Groupe 10243"><path id="Tracé_22610" data-name="Tracé 22610" d="M8.94,3.43a8.94,8.94,0,1,0,8.94,8.94A8.94,8.94,0,0,0,8.94,3.43Zm6.87,8.94A6.88,6.88,0,1,1,8.94,5.5h0A6.88,6.88,0,0,1,15.81,12.37Z" transform="translate(0 -0.03)" style="fill:#60dc4d"/></g><g id="Groupe_10244" data-name="Groupe 10244"><path id="Tracé_22611" data-name="Tracé 22611" d="M8.93,19.25a6.88,6.88,0,0,1,0-13.75V3.43a8.94,8.94,0,0,0,0,17.88Z" transform="translate(0 -0.03)" style="fill:#00c37a"/></g><g id="Groupe_10246" data-name="Groupe 10246"><g id="Groupe_10245" data-name="Groupe 10245"><path id="Tracé_22612" data-name="Tracé 22612" d="M4.47,12.72H3.09a.35.35,0,0,1,0-.69H4.47a.35.35,0,0,1,0,.69Z" transform="translate(0 -0.03)" style="fill:#868491"/></g></g><g id="Groupe_10248" data-name="Groupe 10248"><g id="Groupe_10247" data-name="Groupe 10247"><path id="Tracé_22613" data-name="Tracé 22613" d="M14.78,12.72H13.41a.35.35,0,0,1,0-.69h1.37a.35.35,0,0,1,0,.69Z" transform="translate(0 -0.03)" style="fill:#868491"/></g></g><g id="Groupe_10250" data-name="Groupe 10250"><g id="Groupe_10249" data-name="Groupe 10249"><path id="Tracé_22614" data-name="Tracé 22614" d="M8.94,18.56a.34.34,0,0,1-.34-.34V16.84a.34.34,0,0,1,.68,0v1.38a.34.34,0,0,1-.34.34Z" transform="translate(0 -0.03)" style="fill:#868491"/></g></g><g id="Groupe_10252" data-name="Groupe 10252"><g id="Groupe_10251" data-name="Groupe 10251"><path id="Tracé_22615" data-name="Tracé 22615" d="M8.94,8.25A.35.35,0,0,1,8.6,7.9V6.53a.34.34,0,1,1,.68,0V7.9a.35.35,0,0,1-.34.35Z" transform="translate(0 -0.03)" style="fill:#868491"/></g></g><g id="Groupe_10253" data-name="Groupe 10253"><path id="Tracé_22616" data-name="Tracé 22616" d="M7.18,1.7a3.19,3.19,0,0,0-5.64,3A.35.35,0,0,0,2,4.8L7,2.16a.33.33,0,0,0,.14-.46Z" transform="translate(0 -0.03)" style="fill:#b4b6bc"/></g><g id="Groupe_10255" data-name="Groupe 10255"><g id="Groupe_10254" data-name="Groupe 10254"><path id="Tracé_22617" data-name="Tracé 22617" d="M7.91,12.72H6.19a.35.35,0,0,1-.34-.35A.34.34,0,0,1,6.19,12H7.91a.35.35,0,0,1,0,.69Z" transform="translate(0 -0.03)" style="fill:#5d647f"/></g></g><g id="Groupe_10257" data-name="Groupe 10257"><g id="Groupe_10256" data-name="Groupe 10256"><path id="Tracé_22618" data-name="Tracé 22618" d="M8.94,12a.34.34,0,0,1-.34-.34V9.28a.34.34,0,0,1,.68,0v2.41a.34.34,0,0,1-.34.34Z" transform="translate(0 -0.03)" style="fill:#5d647f"/></g></g><g id="Groupe_10259" data-name="Groupe 10259"><g id="Groupe_10258" data-name="Groupe 10258"><path id="Tracé_22619" data-name="Tracé 22619" d="M12.38,16.16a.39.39,0,0,1-.25-.1L8.7,12.62a.35.35,0,0,1,0-.49.34.34,0,0,1,.46,0l3.44,3.44a.34.34,0,0,1,0,.49.35.35,0,0,1-.24.1Z" transform="translate(0 -0.03)" style="fill:#ff4f19"/></g></g><g id="Groupe_10260" data-name="Groupe 10260"><path id="Tracé_22620" data-name="Tracé 22620" d="M2.88.36h0a3.19,3.19,0,0,0-1.33,4.3A.34.34,0,0,0,2,4.81L4.53,3.49Z" transform="translate(0 -0.03)" style="fill:#868491"/></g><g id="Groupe_10261" data-name="Groupe 10261"><circle id="Ellipse_442" data-name="Ellipse 442" cx="8.94" cy="12.35" r="1.03" style="fill:#5c546a"/></g></g></svg>