<svg xmlns="http://www.w3.org/2000/svg" width="134.387" height="136.2" viewBox="0 0 134.387 136.2"><g transform="translate(86.708 -11.643) rotate(52)"><path d="M101.317,107c-5.45-9.026-11.24-17.882-16.69-26.908-1.022-1.7-3.917-1.022-3.747,1.022,0,3.917.17,7.664.17,11.581-2.725-2.9-3.406-6.3-3.917-10.389-.341-1.7-1.022-3.577-2.895-4.087-2.9-.852-6.131,2.044-8.345,3.576-5.62,3.917-10.729,8.515-16.86,11.751-7.153,3.576-7.323-1.533-5.79-7.153a69.778,69.778,0,0,1,7.323-17.2C56.016,60,62.318,50.463,63.85,39.734c.852-5.961-2.214-14.987-9.708-14.646-9.2.341-19.755,7.153-25.716,13.965C25.021,42.459,5.606,68,3.733,53.359,2.37,42.629,11.226,29.516,16.506,20.66A1.169,1.169,0,0,0,14.632,19.3,73.352,73.352,0,0,0,.327,48.249c-1.192,5.62.681,16.009,8.856,13.795C18.72,59.489,25.021,48.76,31.152,41.607c3.747-4.6,9.707-8,14.816-10.729,10.9-5.79,15.838,2.725,13.113,12.6C55.676,55.572,46.99,65.45,42.051,76.86c-1.7,4.087-7.834,17.711-1.192,21.118,7.664,3.917,17.882-5.791,23.332-10.048-.341.17,8.685-7.153,9.2-5.62a45.706,45.706,0,0,1,.852,5.109A14.178,14.178,0,0,0,78.5,95.253a46.429,46.429,0,0,0-9.707.511c-1.7.341-1.873,2.9-.511,3.747,9.707,5.45,20.607,6.812,31,10.389C100.806,110.58,102.339,108.537,101.317,107ZM82.924,98.318a1.177,1.177,0,0,0,1.192-1.533,1.788,1.788,0,0,0,.852-1.533V88.441c3.406,5.45,6.812,10.729,10.218,16.179-6.472-1.873-13.113-3.236-19.244-5.791C78.156,98.659,80.54,98.489,82.924,98.318Z" transform="translate(0)"/></g></svg>