<svg xmlns="http://www.w3.org/2000/svg" width="26.549" height="31.55" viewBox="0 0 26.549 31.55">
  <g id="tools-and-utensils_2_" data-name="tools-and-utensils (2)" transform="translate(-4.491 -3)">
    <path id="Path_24343" data-name="Path 24343" d="M30.743,8.743V6.371a2.371,2.371,0,1,0-4.743,0V8.786" transform="translate(-10.707)" fill="none" stroke="#dc9628" stroke-linecap="round" stroke-linejoin="round" stroke-miterlimit="10" stroke-width="2"/>
    <path id="Path_24344" data-name="Path 24344" d="M12.438,32.835a39.117,39.117,0,0,0,15.675,0l5.437-.938h0a13.447,13.447,0,0,1-4.192-9.734V17.009a7.793,7.793,0,0,0-4.552-7.044,10.9,10.9,0,0,0-9.056,0,8.052,8.052,0,0,0-4.739,7.039v5.153A13.275,13.275,0,0,1,7,31.9H7Z" transform="translate(-2.509 -2.029)" fill="#eeaf4b"/>
    <path id="Path_24345" data-name="Path 24345" d="M18.593,21.516h0a.593.593,0,0,1-.589-.6,5.989,5.989,0,0,1,3.526-5.131,9.061,9.061,0,0,1,7.392,0,.593.593,0,1,1-.493,1.078,7.848,7.848,0,0,0-6.4,0,4.78,4.78,0,0,0-2.837,4.061A.594.594,0,0,1,18.593,21.516Z" transform="translate(-7.394 -4.707)" fill="#fbd490"/>
    <path id="Path_24346" data-name="Path 24346" d="M21.906,51.459a5.308,5.308,0,0,0,9.815,0A36.227,36.227,0,0,1,21.906,51.459Z" transform="translate(-9.044 -20.193)" fill="#dc9628"/>
  </g>
</svg>
