<svg id="Calque_1" data-name="Calque 1" xmlns="http://www.w3.org/2000/svg" xmlns:xlink="http://www.w3.org/1999/xlink" viewBox="0 0 61 61"><defs><linearGradient id="Dégradé_sans_nom" x1="-5481.14" y1="3246.9" x2="-5481.14" y2="3245.9" gradientTransform="matrix(61, 0, 0, -61, 334389.02, 198066.79)" gradientUnits="userSpaceOnUse"><stop offset="0" stop-color="#ec1b24"/><stop offset="1" stop-color="#8e2b2f"/></linearGradient></defs><title>Groupe 10184</title><circle cx="16.5" cy="18.5" r="12.5" style="fill:#f24f56"/><g style="isolation:isolate"><text transform="translate(9.2 24)" style="isolation:isolate;font-size:13px;fill:#fff;font-family:Muli-SemiBold, Muli;font-weight:700">21</text></g><path d="M48.84,37.62H53.9A9.31,9.31,0,0,0,46,29.7v5.06H43.41V29.7a9.31,9.31,0,0,0-7.92,7.92h5.06v2.57H35.49a9.31,9.31,0,0,0,7.92,7.92V43.05H46v5.06a9.31,9.31,0,0,0,7.92-7.92H48.84ZM44.7,40.3a1.4,1.4,0,1,1,1.39-1.39h0A1.39,1.39,0,0,1,44.7,40.3Z" transform="translate(-9 -6)" style="fill:#e70020"/><path d="M30.71,37.62h2.2a11.89,11.89,0,0,1,10.5-10.51V22.34A16.63,16.63,0,0,0,28.13,37.62Z" transform="translate(-9 -6)" style="fill:#e70020"/><path d="M61.26,37.62H56.49A11.89,11.89,0,0,0,46,27.11V22.34A16.63,16.63,0,0,1,61.26,37.62Z" transform="translate(-9 -6)" style="fill:#e70020"/><path d="M43.41,52.89v-2.2A11.89,11.89,0,0,1,32.9,40.19H28.13A16.63,16.63,0,0,0,43.41,55.47Z" transform="translate(-9 -6)" style="fill:#e70020"/><path d="M61.26,40.19A16.63,16.63,0,0,1,46,55.47V50.7A11.89,11.89,0,0,0,56.49,40.19Z" transform="translate(-9 -6)" style="fill:#e70020"/><path d="M46,17v5.36c-.42,0-.85-.05-1.28-.05s-.86,0-1.29.05V17Z" transform="translate(-9 -6)" style="fill:#e70020"/><path d="M46,55.47v5.36H43.41V55.47c.43,0,.85.05,1.29.05S45.56,55.51,46,55.47Z" transform="translate(-9 -6)" style="fill:#e70020"/><path d="M66.62,37.62v2.57H61.26c0-.42.05-.85.05-1.28s0-.86-.05-1.29Z" transform="translate(-9 -6)" style="fill:#e70020"/><path d="M28.13,37.62H22.77v2.57h5.36c0-.42-.05-.85-.05-1.28S28.1,38.05,28.13,37.62Z" transform="translate(-9 -6)" style="fill:#e70020"/><path d="M48.84,40.19H53.9A9.31,9.31,0,0,1,46,48.11V43.05H44.7V40.3a1.39,1.39,0,0,0,1.39-1.39,1.4,1.4,0,0,0-1.39-1.4h0V34.76H46V29.7a9.31,9.31,0,0,1,7.92,7.92H48.84Z" transform="translate(-9 -6)" style="fill:#e70020"/><path d="M46,17v5.36c-.42,0-.85-.05-1.28-.05V17Z" transform="translate(-9 -6)" style="fill:#e70020"/><path d="M44.7,55.52c.43,0,.86,0,1.28-.05v5.36H44.7Z" transform="translate(-9 -6)" style="fill:#e70020"/><path d="M56.49,40.19h4.77A16.63,16.63,0,0,1,46,55.47V50.7A11.89,11.89,0,0,0,56.49,40.19Z" transform="translate(-9 -6)" style="fill:#e70020"/><path d="M61.26,37.62H56.49A11.89,11.89,0,0,0,46,27.11V22.34A16.63,16.63,0,0,1,61.26,37.62Z" transform="translate(-9 -6)" style="fill:#e70020"/><path d="M66.62,37.62v2.57H61.26c0-.42.05-.85.05-1.28s0-.86-.05-1.29Z" transform="translate(-9 -6)" style="fill:#e70020"/><path d="M39.5,6A30.5,30.5,0,1,1,9,36.5,30.51,30.51,0,0,1,39.5,6Z" transform="translate(-9 -6)" style="opacity:0.6959999799728394;isolation:isolate;fill:url(#Dégradé_sans_nom)"/><path d="M47.88,27.36,35.71,39.84,30,34.44l-4,4,9.71,9.41L51.88,31.37Z" transform="translate(-9 -6)" style="fill:#fff"/></svg>