<svg id="Calque_1" data-name="Calque 1" xmlns="http://www.w3.org/2000/svg" xmlns:xlink="http://www.w3.org/1999/xlink" viewBox="0 0 66.97 66.97"><defs><linearGradient id="Dégradé_sans_nom" x1="-5486.33" y1="3254.65" x2="-5486.33" y2="3253.65" gradientTransform="matrix(66.97, 0, 0, -66.97, 367484.17, 217983.02)" gradientUnits="userSpaceOnUse"><stop offset="0" stop-color="#ec1b24"/><stop offset="1" stop-color="#8e2b2f"/></linearGradient></defs><title>action</title><circle cx="20.5" cy="20.5" r="13.5" style="fill:#f24f56"/><g style="isolation:isolate"><text transform="translate(11.6 26)" style="isolation:isolate;font-size:14px;fill:#fff;font-family:Muli-SemiBold, Muli;font-weight:700">21</text></g><path d="M54.93,40.72h5.56a10.2,10.2,0,0,0-8.7-8.7v5.56H49V32a10.22,10.22,0,0,0-8.7,8.7h5.56v2.82H40.27a10.24,10.24,0,0,0,8.7,8.7V46.68h2.82v5.56a10.21,10.21,0,0,0,8.7-8.7H54.93Zm-4.54,2.94a1.53,1.53,0,1,1,1.53-1.53h0A1.54,1.54,0,0,1,50.39,43.66Z" transform="translate(-9 -6)" style="fill:#e70020"/><path d="M35,40.72h2.41A13,13,0,0,1,49,29.18V23.94A18.27,18.27,0,0,0,32.2,40.72Z" transform="translate(-9 -6)" style="fill:#e70020"/><path d="M68.58,40.72H63.34A13.06,13.06,0,0,0,51.8,29.18V23.94A18.28,18.28,0,0,1,68.58,40.72Z" transform="translate(-9 -6)" style="fill:#e70020"/><path d="M49,57.49V55.08A13,13,0,0,1,37.44,43.54H32.2A18.27,18.27,0,0,0,49,60.32Z" transform="translate(-9 -6)" style="fill:#e70020"/><path d="M68.58,43.54A18.28,18.28,0,0,1,51.8,60.32V55.08A13.06,13.06,0,0,0,63.34,43.54Z" transform="translate(-9 -6)" style="fill:#e70020"/><path d="M51.8,18.05v5.89q-.7-.06-1.41-.06T49,23.94V18.05Z" transform="translate(-9 -6)" style="fill:#e70020"/><path d="M51.8,60.32V66.2H49V60.32c.46,0,.93,0,1.41,0S51.33,60.36,51.8,60.32Z" transform="translate(-9 -6)" style="fill:#e70020"/><path d="M74.46,40.72v2.82H68.58c0-.47,0-.94,0-1.41s0-1,0-1.41Z" transform="translate(-9 -6)" style="fill:#e70020"/><path d="M32.2,40.72H26.31v2.82H32.2q-.06-.7-.06-1.41T32.2,40.72Z" transform="translate(-9 -6)" style="fill:#e70020"/><path d="M54.93,43.54h5.56a10.21,10.21,0,0,1-8.7,8.7V46.68h-1.4v-3a1.53,1.53,0,1,0,0-3v-3H51.8V32a10.25,10.25,0,0,1,8.7,8.7H54.94Z" transform="translate(-9 -6)" style="fill:#e70020"/><path d="M51.8,18.05v5.89q-.7-.06-1.41-.06V18.05Z" transform="translate(-9 -6)" style="fill:#e70020"/><path d="M50.39,60.37c.47,0,.94,0,1.41,0V66.2H50.39Z" transform="translate(-9 -6)" style="fill:#e70020"/><path d="M63.34,43.54h5.24A18.28,18.28,0,0,1,51.8,60.32V55.08A13.06,13.06,0,0,0,63.34,43.54Z" transform="translate(-9 -6)" style="fill:#e70020"/><path d="M68.58,40.72H63.34A13.06,13.06,0,0,0,51.8,29.18V23.94A18.28,18.28,0,0,1,68.58,40.72Z" transform="translate(-9 -6)" style="fill:#e70020"/><path d="M74.46,40.72v2.82H68.58c0-.47,0-.94,0-1.41s0-1,0-1.41Z" transform="translate(-9 -6)" style="fill:#e70020"/><path d="M42.49,6A33.49,33.49,0,1,1,9,39.49H9A33.48,33.48,0,0,1,42.49,6Z" transform="translate(-9 -6)" style="opacity:0.6959999799728394;isolation:isolate;fill:url(#Dégradé_sans_nom)"/></svg>