<svg id="miscellaneous" xmlns="http://www.w3.org/2000/svg" viewBox="0 0 32.01 34.9"><title>bell</title><path id="Tracé_24315" data-name="Tracé 24315" d="M29.08,24.3H3a2.22,2.22,0,0,0,2.25-1.65c1.85-5-3.08-19.56,10.77-19.56S25,17.65,26.83,22.65A2.22,2.22,0,0,0,29.08,24.3Z" transform="translate(-0.06 0)" style="fill:#f7d360"/><path id="Tracé_24316" data-name="Tracé 24316" d="M31.6,26.82a2.52,2.52,0,0,1-2.52,2.53H3A2.53,2.53,0,0,1,3,24.3H29.08a2.52,2.52,0,0,1,2.52,2.52Z" transform="translate(-0.06 0)" style="fill:#e58e13"/><path id="Tracé_24317" data-name="Tracé 24317" d="M26.83,22.64H13.29a2.58,2.58,0,0,1-2.58-2.58V20C10.91,13.81,9.92,3.2,16,3.09-.62,3.17,10,24.3,3,24.3h26A2.21,2.21,0,0,1,26.83,22.64Z" transform="translate(-0.06 0)" style="fill:#e58e13"/><path id="Tracé_24318" data-name="Tracé 24318" d="M31.6,26.82a2.52,2.52,0,0,1-2.52,2.53H10.32a2.53,2.53,0,0,1,0-5.05H29.08a2.52,2.52,0,0,1,2.52,2.52Z" transform="translate(-0.06 0)" style="fill:#f7d360"/><path id="Tracé_24319" data-name="Tracé 24319" d="M21.1,29.35a5,5,0,0,1-10.08,0H21.1Z" transform="translate(-0.06 0)" style="fill:#e58e13"/><path id="Tracé_24320" data-name="Tracé 24320" d="M20.86,30.9a5.05,5.05,0,0,1-3.45,3.3,5,5,0,0,1-2.57-1.69,1,1,0,0,1,.17-1.4,1,1,0,0,1,.61-.21Z" transform="translate(-0.06 0)" style="fill:#f7d360"/><path id="Tracé_24321" data-name="Tracé 24321" d="M18.62,3.28a1.21,1.21,0,0,0,0-.19,2.57,2.57,0,0,0-5.14,0h0a1.21,1.21,0,0,0,0,.19" transform="translate(-0.06 0)" style="fill:#e58e13"/><path id="Tracé_24322" data-name="Tracé 24322" d="M29.08,23.79h0c-1,0-1.57-.53-1.9-1.75a22.32,22.32,0,0,1-.35-5,32,32,0,0,0-.61-7.3.52.52,0,0,0-.64-.35.53.53,0,0,0-.37.6,31,31,0,0,1,.58,7.06,22.93,22.93,0,0,0,.39,5.23,4.33,4.33,0,0,0,.68,1.48H5.26a4.33,4.33,0,0,0,.68-1.48,22.93,22.93,0,0,0,.39-5.23c0-3,0-6.46,1.28-9.08C9,5,11.77,3.61,16.06,3.61A11,11,0,0,1,21.8,4.92a7,7,0,0,1,2.81,3.3.52.52,0,0,0,.95-.42A8,8,0,0,0,22.33,4a9.93,9.93,0,0,0-3.19-1.19,3.09,3.09,0,0,0-6.16,0A9.92,9.92,0,0,0,9.91,4a8,8,0,0,0-3.24,3.6c-1.34,2.83-1.36,6.38-1.38,9.52a22.4,22.4,0,0,1-.35,5c-.33,1.22-.89,1.74-1.9,1.74H3a3,3,0,0,0,0,6.08H6.32a.52.52,0,0,0,0-1H3a2,2,0,1,1,0-4h26a2,2,0,0,1,0,4H8.4a.52.52,0,0,0,0,1h2.12a5.56,5.56,0,0,0,11.07,0h7.49a3,3,0,0,0,0-6.08ZM16.06,1a2,2,0,0,1,2,1.64,18,18,0,0,0-4,0A2,2,0,0,1,16.06,1Zm0,32.83a4.51,4.51,0,0,1-4.49-4h9A4.51,4.51,0,0,1,16.06,33.87Z" transform="translate(-0.06 0)" style="fill:none"/><path id="Tracé_24323" data-name="Tracé 24323" d="M24.38,3.25A6.71,6.71,0,0,1,26.22,5a10,10,0,0,1,1.84,6.09.52.52,0,1,0,1,0v0A11,11,0,0,0,27,4.34a7.52,7.52,0,0,0-2.13-2,.52.52,0,0,0-.5.91Z" transform="translate(-0.06 0)" style="fill:#fff"/><path id="Tracé_24324" data-name="Tracé 24324" d="M28.29,3.44a5.5,5.5,0,0,1,2.05,4.68.52.52,0,1,0,1,0,6.49,6.49,0,0,0-2.52-5.55.52.52,0,0,0-.71.16.51.51,0,0,0,.15.71Z" transform="translate(-0.06 0)" style="fill:#fff"/><path id="Tracé_24325" data-name="Tracé 24325" d="M3.54,11.61a.52.52,0,0,0,.52-.52h0A10,10,0,0,1,5.89,5,6.85,6.85,0,0,1,7.73,3.25a.52.52,0,0,0,.19-.71.53.53,0,0,0-.69-.2,7.81,7.81,0,0,0-2.13,2A11.06,11.06,0,0,0,3,11.1.51.51,0,0,0,3.54,11.61Z" transform="translate(-0.06 0)" style="fill:#fff"/><path id="Tracé_24326" data-name="Tracé 24326" d="M1.26,8.64a.52.52,0,0,0,.52-.52h0a5.49,5.49,0,0,1,2-4.68A.52.52,0,0,0,4,2.73a.53.53,0,0,0-.72-.16A6.51,6.51,0,0,0,.74,8.12a.52.52,0,0,0,.52.52Z" transform="translate(-0.06 0)" style="fill:#fff"/></svg>