<svg xmlns="http://www.w3.org/2000/svg" width="15.174" height="15.834" viewBox="0 0 15.174 15.834"><defs><style>.a{fill:#707070;fill-rule:evenodd;}</style></defs><path class="a" d="M4.3,4.618V0h8.577V6.6h3.3v9.237H1V4.618Zm0,10.556V12.535h-.66v2.639Zm5.278-2.639H7.6v2.639H9.577Zm3.958,0h-.66v2.639h.66Zm1.319-4.618H12.875v3.959h1.319v2.639h.66Zm-3.3-6.6H5.618v13.2h.66v-3.3H10.9v3.3h.66Zm-8.577,13.2V11.876H4.3V5.938H2.319v8.577Zm11.216-3.959h-.66V9.237h.66ZM2.979,9.237h.66v1.32h-.66Zm5.278.66H6.938V8.577H8.257Zm1.979,0H8.917V8.577h1.319Zm-6.6-2.639v1.32h-.66V7.257Zm4.618.66H6.938V6.6H8.257Zm1.979,0H8.917V6.6h1.319ZM8.257,5.938H6.938V4.618H8.257Zm1.979,0H8.917V4.618h1.319ZM8.257,3.959H6.938V2.639H8.257Zm1.979,0H8.917V2.639h1.319Z" transform="translate(-1)"/></svg>