<svg id="Calque_1" data-name="Calque 1" xmlns="http://www.w3.org/2000/svg" viewBox="0 0 22.99 22.99"><title>bird</title><g id="bird"><g id="Groupe_10865" data-name="Groupe 10865"><g id="Groupe_10864" data-name="Groupe 10864"><path id="Tracé_22747" data-name="Tracé 22747" d="M23,7.29l-.5-2a3.65,3.65,0,0,0-2.3-2.37,3.26,3.26,0,0,0-3.59,1l-3,3.59L11.31,6.35a4.13,4.13,0,0,0-3.63,0,4.19,4.19,0,0,1-1.87.45H2.07a.69.69,0,0,0-.68.69.52.52,0,0,0,0,.21,8.75,8.75,0,0,0,6.13,5.55l1,.26L2.7,18.9h9.47a8.09,8.09,0,0,0,8.09-8.08V8.13h2.06A.67.67,0,0,0,23,7.45.44.44,0,0,0,23,7.29ZM20.25,6.11a.68.68,0,1,1,.68-.68h0a.67.67,0,0,1-.68.68Z" transform="translate(0 0)" style="fill:#da2328"/></g></g><g id="Groupe_10867" data-name="Groupe 10867"><g id="Groupe_10866" data-name="Groupe 10866"><path id="Tracé_22748" data-name="Tracé 22748" d="M10.82,2.74a4.2,4.2,0,0,1-3-1.23L6.58.2A.67.67,0,0,0,5.43.67v.58a9.88,9.88,0,0,0,.93,4.11,3,3,0,0,0,.73-.24,5.48,5.48,0,0,1,4.82,0l1.33.67,1.33-1.59A5.51,5.51,0,0,0,10.82,2.74Z" transform="translate(0 0)" style="fill:#da2328"/></g></g><g id="Groupe_10869" data-name="Groupe 10869"><g id="Groupe_10868" data-name="Groupe 10868"><path id="Tracé_22749" data-name="Tracé 22749" d="M.48,20.26.2,20.5a.66.66,0,0,0,0,.95.54.54,0,0,0,.26.16L4.55,23a.67.67,0,0,0,.85-.43h0l.74-2.27Z" transform="translate(0 0)" style="fill:#da2328"/></g></g></g></svg>