<svg xmlns="http://www.w3.org/2000/svg" xmlns:xlink="http://www.w3.org/1999/xlink" width="95.56" height="21.869" viewBox="0 0 95.56 21.869"><defs><style>.a{fill-rule:evenodd;fill:url(#a);}</style><linearGradient id="a" x1="0.89" y1="0.642" x2="0.5" y2="1" gradientUnits="objectBoundingBox"><stop offset="0" stop-color="#ec1b24"/><stop offset="0.946" stop-color="#932a2e"/><stop offset="1" stop-color="#8e2b2f"/></linearGradient></defs><g transform="translate(-101.22 -371.58)"><g transform="translate(101.22 371.58)"><g transform="translate(0 0)"><g transform="translate(0 0.523)"><g transform="translate(0 0)"><path class="a" d="M318.766-222.821c0-1.2-.887-2.033-2.747-2.033H312.29v4.1h3.819C317.667-220.756,318.766-221.311,318.766-222.821Zm-.671-8.131a1.877,1.877,0,0,0-1.986-1.972H312.29v3.881h3.728A1.957,1.957,0,0,0,318.1-230.952Zm6.23,8.716c0,3.512-3.236,5.822-6.506,5.822H307.16v-20.853h9.773c3.759,0,6.476,1.878,6.476,5.729a4.521,4.521,0,0,1-2.869,4.282,5.142,5.142,0,0,1,3.786,5.02" transform="translate(-307.16 237.267)"/></g></g><g transform="translate(19.073 0)"><g transform="translate(0)"><path class="a" d="M443.828-229.692c0-3.265-1.5-5.914-4.457-5.914s-4.43,2.649-4.43,5.914c0,3.3,1.466,5.944,4.43,5.944S443.828-226.4,443.828-229.692Zm5.131,0c0,6.129-3.513,10.934-9.587,10.934-6.048,0-9.591-4.805-9.591-10.934,0-6.1,3.543-10.934,9.587-10.934,6.078,0,9.591,4.835,9.591,10.934" transform="translate(-429.781 240.626)"/></g></g><g transform="translate(39.428 0)"><g transform="translate(0)"><path class="a" d="M577.371-225.565c0,4.59-4.153,6.807-8.06,6.807-4.521,0-6.843-1.725-8.674-3.912l3.327-3.266a6.564,6.564,0,0,0,5.286,2.68c1.679,0,2.808-.832,2.808-2.064,0-1.324-1-1.737-3.728-2.31l-.731-.154c-3.287-.69-5.987-2.556-5.987-6.283,0-4.1,3.33-6.56,7.73-6.56a9.753,9.753,0,0,1,7.605,3.263l-3.24,3.2a5.954,5.954,0,0,0-4.275-1.941c-1.19,0-2.535.555-2.535,1.941,0,1.263,1.4,1.721,3.176,2.094l.735.154c2.973.624,6.563,1.54,6.563,6.344" transform="translate(-560.637 240.626)"/></g></g><g transform="translate(58.1 0.03)"><path class="a" d="M698.576-223.121c-2.137,3.08-4.123,4.528-8.246,4.528-5.862,0-9.651-4.867-9.651-11.058,0-5.883,3.422-10.781,9.712-10.781,3.452,0,5.926,1.355,8.033,4.528l-4.214,2.8a4.064,4.064,0,0,0-3.789-2.341c-2.319,0-4.551,2.075-4.551,5.791,0,4.164,2.414,6.068,4.706,6.068,1.982,0,2.9-.986,3.755-2.4l4.244,2.865" transform="translate(-680.679 240.431)"/></g><g transform="translate(78.272 0.523)"><g transform="translate(0 0)"><path class="a" d="M827.653-216.414h-5.5v-8.224H815.83v8.224h-5.465v-20.853h5.465v7.67h6.324v-7.67h5.5v20.853" transform="translate(-810.366 237.267)"/></g></g></g></g></g></svg>