<svg id="Calque_1" data-name="Calque 1" xmlns="http://www.w3.org/2000/svg" viewBox="0 0 212.07 111.42"><title>emptyneo</title><g id="Groupe_11172" data-name="Groupe 11172"><g id="fusee"><g id="OBJECTS"><g id="Groupe_10733" data-name="Groupe 10733"><path id="Tracé_20852" data-name="Tracé 20852" d="M183.1,92.53c-11.06,6.55-20.16,7.93-26.56,7.93-16.37-.07-38.35-9.17-46.72-9.75a116,116,0,0,0-12.23.07c-8,.29-13.61,1-18.41,1.53-6,.65-14.85,1.46-25.91,2-.87.14-20,2.47-29.84-11.36C22.71,82,15.5,71.49,19,62.69c1.9-4.8,7.79-11.13,14.41-14.77,1.6-.87,2.62-1.24,3-2.4C37.92,40.79,24,35.7,22.56,27.18c-.73-4.29,1.38-10.91,15.07-21.1C47.09,1.64,60.48-2.58,73.8,1.93,85.15,5.79,86.17,12.41,96.57,14.45c13.18,2.48,16.74-7.13,39.3-10.84,9.47-1.6,19.5-3.06,29.48,2.25,2,1.1,13.68,7.28,15.28,18,1.89,12.88-15,18.63-13.1,29.26,2,11.79,23.8,13,25.11,24.08C193.36,82.92,188.27,88.38,183.1,92.53Z" transform="translate(0 0)" style="fill:#dfe4f4"/><circle id="Ellipse_392" data-name="Ellipse 392" cx="204.72" cy="11.16" r="7.35" style="fill:#dfe4f4"/><circle id="Ellipse_393" data-name="Ellipse 393" cx="191.76" cy="24.26" r="3.64" style="fill:#dfe4f4"/><circle id="Ellipse_394" data-name="Ellipse 394" cx="5.75" cy="79.43" r="5.75" style="fill:#dfe4f4"/><circle id="Ellipse_395" data-name="Ellipse 395" cx="200.13" cy="63.2" r="5.75" style="fill:#dfe4f4"/><circle id="Ellipse_396" data-name="Ellipse 396" cx="17.17" cy="8.54" r="5.75" style="fill:#dfe4f4"/></g></g></g><g id="Groupe_10786" data-name="Groupe 10786"><g id="Groupe_10767" data-name="Groupe 10767"><g id="Groupe_10740" data-name="Groupe 10740"><g id="Groupe_10740-2" data-name="Groupe 10740-2"><g id="Groupe_10738" data-name="Groupe 10738"><g id="Groupe_34" data-name="Groupe 34"><path id="Tracé_101" data-name="Tracé 101" d="M162.72,50c5.07,1.71,12.35-6.31,12.61-10.82s-1.43-7.42-3.75-11.58c-2.18-3.92-5.14-5.29-8.76-7.06-.16-.67-9.52,2.17-9.52,2.17a3.73,3.73,0,0,1-2.3-6.57,11.17,11.17,0,0,1-2-.16,52.53,52.53,0,0,0-5.72.83c-2.18-2.21,3.4-2.92,4.6-3a61.14,61.14,0,0,1,7.29-.16c.42.06,11.05,2.64,17.38,10.58,2.35,3,4.68,6.88,5,10.53A17.94,17.94,0,0,1,175,45.89c-4.18,6.12-12.76,7.85-15.51,6.93A24.16,24.16,0,0,0,162.72,50Z" transform="translate(0 0)" style="fill:#8595ba"/><path id="Tracé_86" data-name="Tracé 86" d="M50.15,38.67S34.37,45.49,34.61,56.15,41.25,69.74,44.49,70c3.59.33,3.35-.62,3-2.21v-.17s1.2,1.59,2.16,1-.4-2.33-2.78-4.89c-.91-1-2.35,1.75-4.53,1.47-2.81-.35-6.34-4.12-5.1-11,2-11.06,17.88-10.72,17.4-13.47S50.15,38.67,50.15,38.67Z" transform="translate(0 0)" style="fill:#8595ba"/><g id="Groupe_25" data-name="Groupe 25"><path id="Tracé_87" data-name="Tracé 87" d="M88.79,67.45s2.5,38.9,1.25,40.06-8.13.12-9.39,2.26,10.51,2,12,.7,0-43,0-43Z" transform="translate(0 0)" style="fill:#8595ba"/><path id="Tracé_88" data-name="Tracé 88" d="M124.4,66.52s-2.5,38.91-1.25,40.06,8.13.12,9.38,2.26-10.51,2-12,.7,0-43,0-43Z" transform="translate(0 0)" style="fill:#8595ba"/></g><g id="Groupe_27" data-name="Groupe 27"><path id="Tracé_89" data-name="Tracé 89" d="M132.92,75.68c1.2.51,5.26,2,8.55-.16,3.9-2.5,3.9-5.46,3.9-5.46a11.36,11.36,0,0,0,11.39-2.65c5.47-5,3-15,3-15s5.12-2.66,4.53-8.15c-1-8.86-10-9.36-10-9.36s2.81-6.71-2.19-11.4A14.66,14.66,0,0,0,140.53,20a5.14,5.14,0,0,0-1.87-5.77c-3.12-2.19-5.61-.88-5.61-.88s.53-7.1-5.93-9.52a13.31,13.31,0,0,0-11.41,1.34s-3.9-4.21-9.52-3.43a17.43,17.43,0,0,0-8.74,3.59,10,10,0,0,0-9.68-2.23,9,9,0,0,0-6.56,7.19s-10-2.8-15.48,4.07S62.92,27,62.92,27s-9-1.23-11.83,7.35a15.16,15.16,0,0,0,2.34,14.37S46.09,56,49.21,64s10.6,6.28,10.6,6.28a8.26,8.26,0,0,0,8,7.3c7.33.46,10.45-2.19,10.45-2.19s6.4,5.3,12.65,4.68,8.58-3.12,8.58-3.12,5.94,3.38,11.71,3.18S121.64,76,121.64,76a6.2,6.2,0,0,0,5.78,2.81C131.31,78.4,132.7,75.59,132.92,75.68Z" transform="translate(0 0)" style="fill:#f3f6fe"/><g id="Groupe_26" data-name="Groupe 26"><path id="Tracé_90" data-name="Tracé 90" d="M165.66,44.15c-.74-6.78-5.88-9.57-9.57-10.37A11.39,11.39,0,0,0,153,22.52a15.77,15.77,0,0,0-10.78-4.08h-.08A6.3,6.3,0,0,0,139.46,13a7.84,7.84,0,0,0-4.3-1.62,8.75,8.75,0,0,0-.95-2.57,11.21,11.21,0,0,0-6.6-6.37,13,13,0,0,0-4.7-.85,14.53,14.53,0,0,0-4.62.76h0l-.34.12-.19.07h0a13.15,13.15,0,0,0-1.8.8A13.21,13.21,0,0,0,107.58.19,11.87,11.87,0,0,0,106,.3a19.89,19.89,0,0,0-8.5,3.18,11.41,11.41,0,0,0-6.73-2.23,12.5,12.5,0,0,0-3.38.49,10.33,10.33,0,0,0-7.22,6.9C77.08,8.19,69.68,7.85,65,13.76c-3.15,4-3.91,7.3-3.93,9.63h0a10.14,10.14,0,0,0,.1,1.46,13,13,0,0,0-11.39,9,16.66,16.66,0,0,0,1.8,14.63l-.28.31a1.47,1.47,0,0,0-.25.52c-2.14,2.78-5.64,8.7-3.12,15.15,2.27,5.79,6.76,6.65,9.24,6.65A11.48,11.48,0,0,0,58.83,71c.72,3.22,3.14,7.57,8.88,7.94.6,0,1.21.06,1.79.06a17.73,17.73,0,0,0,8.69-1.93c1.87,1.36,6.64,4.42,11.67,4.42a9.32,9.32,0,0,0,1.18,0,19,19,0,0,0,7.74-2.29,4.75,4.75,0,0,0,1-.52,26.54,26.54,0,0,0,11,2.87h.56a20.11,20.11,0,0,0,10.14-3.57,3.71,3.71,0,0,0,.5.47.24.24,0,0,0,.11.06,7.27,7.27,0,0,0,4.77,1.78h.81a8.84,8.84,0,0,0,5.72-2.88,13,13,0,0,0,4.14.71,8.68,8.68,0,0,0,4.8-1.32,9.82,9.82,0,0,0,4.19-4.93,11.35,11.35,0,0,0,2.4.23,13,13,0,0,0,8.9-3.57c5-4.56,4.1-12.51,3.59-15.32a9.68,9.68,0,0,0,4.25-9ZM159.38,51c-.75-.23-1.67-.48-2.79-.76a5.54,5.54,0,0,0-5.59,1.5,4.75,4.75,0,0,0-.9,4.87,4,4,0,0,0,4.06,2.64,6.55,6.55,0,0,0,2.1-.34,1.27,1.27,0,1,0-.68-2.45h-.14c-.1,0-2.38.8-2.95-.77a2.22,2.22,0,0,1,.4-2.3,3,3,0,0,1,3.07-.69q1.5.38,2.52.69c.4,2.15,1.36,9.25-2.68,12.94a10.07,10.07,0,0,1-7,2.84,9.17,9.17,0,0,1-2.8-.41l-2.53-4.87a1.41,1.41,0,0,0-2.55,1.2.31.31,0,0,0,.05.1l2.85,5.47a6.88,6.88,0,0,1-3.13,3.65,5.92,5.92,0,0,1-3.28.89,10.81,10.81,0,0,1-4-.84l-.27-.12h-.29a1.81,1.81,0,0,0-1.4.82,6.1,6.1,0,0,1-4.23,2.32h-.52A4.66,4.66,0,0,1,123,75.53a4.49,4.49,0,0,1-.67-2.65,2.32,2.32,0,0,1,1-1.92c1.8-1,2.67-.15,2.89.15a1.41,1.41,0,0,0,2.31-1.62c-.81-1.18-3.23-2.91-6.6-1a5,5,0,0,0-2.45,4.15,7.08,7.08,0,0,0,.49,2.85,17.61,17.61,0,0,1-8.83,3.21,22.55,22.55,0,0,1-9.64-2.33h0a9.05,9.05,0,0,0-.56-7.1c-1.79-4-6.1-3.85-8.13-3.22a1.41,1.41,0,0,0,.83,2.69h0c.14,0,3.51-1,4.74,1.69a6.48,6.48,0,0,1,.52,4.88,3.61,3.61,0,0,1-.22.44l-.22.21s-2.17,2.15-7.71,2.7h-.9c-4.22,0-8.46-2.77-10-3.92l.35-4.26a1.41,1.41,0,0,0-2.8-.23L77,74.52a14.47,14.47,0,0,1-7.52,1.68H67.87c-5.82-.37-6.43-6.3-6.48-6.87a3.83,3.83,0,0,1,2.08-3.07,3,3,0,0,1,1.86-.51h-.1l1.1-2.58c-.27-.12-1.75-.63-4.17.64a6.59,6.59,0,0,0-3.43,4.45,8.58,8.58,0,0,1-1.6.15c-3.12,0-5.35-1.64-6.61-4.86-2.63-6.69,3.27-13.13,3.85-13.74A7.17,7.17,0,0,1,59,48.12a4.36,4.36,0,0,1,4,2.69,1.4,1.4,0,0,0,1.33,1,1.76,1.76,0,0,0,.45-.07A1.4,1.4,0,0,0,65.66,50,7.12,7.12,0,0,0,59,45.31a9.67,9.67,0,0,0-5.26,1.43,14,14,0,0,1-1.33-12A10.41,10.41,0,0,1,62,27.62a6.74,6.74,0,0,0,5.28,3.78,5.61,5.61,0,0,0,1.08.08A7.76,7.76,0,0,0,75.13,27a1.4,1.4,0,0,0-2.55-1.18h0c-.06.14-1.59,3.29-4.9,2.81a3.92,3.92,0,0,1-2.88-1.8l-.58-1.24a1.8,1.8,0,0,1-.08-.21,6.51,6.51,0,0,1-.28-1.87v-.13c0-1.76.63-4.48,3.32-7.86,4.18-5.24,11.23-4.35,13.18-4l2,4.45A1.41,1.41,0,0,0,85,15l-.09-.2h0L82.76,10a.41.41,0,0,0-.05-.09,7.61,7.61,0,0,1,5.45-5.5A9.14,9.14,0,0,1,90.76,4,8.5,8.5,0,0,1,96.44,6.2l.31.33a3.83,3.83,0,0,1,.54,3.8,3.15,3.15,0,0,1-3,2,1.41,1.41,0,0,0-1.43,1.39A1.39,1.39,0,0,0,94,15.13h.32a6,6,0,0,0,5.43-3.57,6.36,6.36,0,0,0-.39-6,17.32,17.32,0,0,1,7-2.5,9.67,9.67,0,0,1,1.2-.08,10.32,10.32,0,0,1,6.2,2.29,6.65,6.65,0,0,0-1.48,2.92,5.74,5.74,0,0,0,4,6.93,1.93,1.93,0,0,0,.34,0,1.42,1.42,0,0,0,1.41-1.4A1.4,1.4,0,0,0,117,12.4a2.91,2.91,0,0,1-1.9-3.6c.52-2.4,3.37-3.51,3.92-3.7A12.06,12.06,0,0,1,123,4.41a10.57,10.57,0,0,1,3.73.68,8.53,8.53,0,0,1,5,4.79V10a10.31,10.31,0,0,1,.76,3.14v2.37c-.47,2-1.5,2-2,2a2.89,2.89,0,0,1-1.6-.53A1.43,1.43,0,1,0,127,19.15h0a5.74,5.74,0,0,0,3.32,1.12c1.28,0,4.32-.51,4.91-5.28,0-.27.05-.54.07-.8a5.58,5.58,0,0,1,2.46,1.09,3.66,3.66,0,0,1,1.35,4.16l-.76,2.22,2.32-.37a9.44,9.44,0,0,1,1.5-.09A13,13,0,0,1,151,24.52c3.7,3.47,2.39,8.26,2,9.52-.15.31-2.1,4.31-4.84,4.44a1.92,1.92,0,0,1-1.45-.33,1.31,1.31,0,0,1-.15-.93,1.4,1.4,0,0,0-2.73-.66h0a3.76,3.76,0,0,0,2.56,4.66,3.68,3.68,0,0,0,1.58.11h.36c3.32-.15,5.59-3.14,6.64-4.89,2,.34,7.19,1.81,7.86,8A7,7,0,0,1,159.38,51Z" transform="translate(0 0)" style="fill:#b8c4e0"/><path id="Tracé_91" data-name="Tracé 91" d="M136.65,32.35a8.11,8.11,0,0,0-1.9-7.22c-4.53-5.46-11.4-4.25-15.66-2.32a9.85,9.85,0,0,0-6.67-7.48c-5.15-1.76-9.12,1.71-11,3.83A12.86,12.86,0,0,0,92,15.74a8.64,8.64,0,0,0-7.62,6,7.4,7.4,0,0,0,2.4,8.48A8.61,8.61,0,0,0,98.2,30a1.4,1.4,0,1,0-1.64-2.27,1.79,1.79,0,0,0-.28.27,5.79,5.79,0,0,1-7.74.15,4.71,4.71,0,0,1-1.48-5.39,5.84,5.84,0,0,1,5-4.12c5.83-.12,8.16,3.42,8.25,3.57a1.41,1.41,0,0,0,1.94.45,1.29,1.29,0,0,0,.44-.43c0-.06,3.83-5.86,8.82-4.16a7.16,7.16,0,0,1,5,7,1.42,1.42,0,0,0,1.32,1.49,1.51,1.51,0,0,0,.83-.21c.36-.23,8.89-5.41,14,.69A5.39,5.39,0,0,1,134,31.82a5.76,5.76,0,0,1-2.82,3.74c-1.83.83-4.13-.39-4.15-.4a1.41,1.41,0,0,0-1.91.56,1.4,1.4,0,0,0,.56,1.9,9.52,9.52,0,0,0,3.45,1,6.4,6.4,0,0,0,3.2-.5A8.55,8.55,0,0,0,136.65,32.35Z" transform="translate(0 0)" style="fill:#b8c4e0"/><path id="Tracé_92" data-name="Tracé 92" d="M75.65,52.09a6.43,6.43,0,0,0-.33-3.6h0a7.51,7.51,0,0,0,2.4-.4,6.42,6.42,0,0,0,4.09-4.6,8.89,8.89,0,0,0-1.52-7.81c-2.59-3.06-6.62-2.29-8.39-1.46a1.4,1.4,0,0,0,1.2,2.54s3.19-1.46,5,.73a6,6,0,0,1,1,5.25,3.69,3.69,0,0,1-2.3,2.69,5.39,5.39,0,0,1-4.28-.51,11.94,11.94,0,0,0-1.63-1.1l-.14-.13a1.41,1.41,0,0,0-2,2h0s.19.18.44.39h0A10.93,10.93,0,0,0,71,47.28a4.62,4.62,0,0,1,1.9,4.3c-.57,3.08-2.85,3.23-3.12,3.24a1.41,1.41,0,0,0,0,2.81C71.45,57.63,74.83,56.47,75.65,52.09Z" transform="translate(0 0)" style="fill:#b8c4e0"/><path id="Tracé_93" data-name="Tracé 93" d="M81.34,57.84A8.37,8.37,0,0,0,73.93,63a1.4,1.4,0,1,0,2.62,1,5.63,5.63,0,0,1,4.88-3.35c3.08-.09,3.41,3.36,3.44,3.75a1.4,1.4,0,0,0,1.4,1.32h.09a1.4,1.4,0,0,0,1.31-1.48h0C87.53,62,86,57.69,81.34,57.84Z" transform="translate(0 0)" style="fill:#b8c4e0"/><path id="Tracé_94" data-name="Tracé 94" d="M143.38,46.52c-2.26-1.9-5.67-1.34-5.81-1.31a1.28,1.28,0,0,0,.43,2.52h0s2.4-.37,3.73.75a3.17,3.17,0,0,1,1,2.58,3.88,3.88,0,0,1-1,3,4.39,4.39,0,0,1-3,.93,1.29,1.29,0,0,0-1.39,1.16h0a1.48,1.48,0,0,0,0,.42A4.52,4.52,0,0,1,137,59.7a2,2,0,0,1-1.53.72,2.69,2.69,0,0,1-2.2-.58,3.27,3.27,0,0,1-.73-2.31A1.29,1.29,0,0,0,130,57.3a5.81,5.81,0,0,0,1.46,4.31,4.85,4.85,0,0,0,3.6,1.36h.62a4.35,4.35,0,0,0,3.4-1.77,6,6,0,0,0,.94-3.74,5.87,5.87,0,0,0,5.22-6.37A5.62,5.62,0,0,0,143.38,46.52Z" transform="translate(0 0)" style="fill:#b8c4e0"/></g></g></g></g><g id="Groupe_10736" data-name="Groupe 10736"><g id="Groupe_10734" data-name="Groupe 10734"><g id="Groupe_29" data-name="Groupe 29"><path id="Tracé_97" data-name="Tracé 97" d="M127.1,45.38a7.87,7.87,0,1,1-7.87-7.87,7.87,7.87,0,0,1,7.87,7.87Z" transform="translate(0 0)" style="fill:none;stroke:#8595ba;stroke-width:3px"/><path id="Tracé_98" data-name="Tracé 98" d="M122.25,48.49a3.09,3.09,0,1,1-3.1-3.09h0A3.1,3.1,0,0,1,122.25,48.49Z" transform="translate(0 0)" style="fill:#8595ba;stroke:#8595ba;stroke-width:3px"/></g></g><g id="Groupe_10742" data-name="Groupe 10742"><g id="Groupe_29-2" data-name="Groupe 29-2"><path id="Tracé_97-2" data-name="Tracé 97-2" d="M98.73,45.38a7.87,7.87,0,1,1-7.87-7.87,7.87,7.87,0,0,1,7.87,7.87Z" transform="translate(0 0)" style="fill:none;stroke:#8595ba;stroke-width:3px"/><path id="Tracé_98-2" data-name="Tracé 98-2" d="M93.88,48.49a3.09,3.09,0,1,1-3.09-3.09h0A3.11,3.11,0,0,1,93.88,48.49Z" transform="translate(0 0)" style="fill:#8595ba;stroke:#8595ba;stroke-width:3px"/></g></g></g></g><path id="Tracé_22520" data-name="Tracé 22520" d="M99.64,62.26a4.9,4.9,0,0,1,3.8-2.8c2.92-.46,7.86,1,7.86,1" transform="translate(0 0)" style="fill:none;stroke:#8595ba;stroke-linecap:round;stroke-linejoin:bevel;stroke-width:3px"/><g id="Groupe_10808" data-name="Groupe 10808"><path id="Tracé_22521" data-name="Tracé 22521" d="M79.4,33.8A5.18,5.18,0,0,1,83,30.28c3-.92,8.44-.15,8.44-.15" transform="translate(0 0)" style="fill:none;stroke:#8595ba;stroke-linecap:round;stroke-linejoin:bevel;stroke-width:3px"/><path id="Tracé_22522" data-name="Tracé 22522" d="M112.71,34.67a5.38,5.38,0,0,1,3.08-4.34c3-1.63,9.14-2.19,9.14-2.19" transform="translate(0 0)" style="fill:none;stroke:#8595ba;stroke-linecap:round;stroke-linejoin:bevel;stroke-width:3px"/></g></g></g></g></g></svg>