<svg id="Calque_1" data-name="Calque 1" xmlns="http://www.w3.org/2000/svg" viewBox="0 0 35.79 37.5"><title>target</title><g id="target"><path id="Tracé_24508" data-name="Tracé 24508" d="M17.89,37.5a17.89,17.89,0,1,1,12.66-5.24A17.89,17.89,0,0,1,17.89,37.5Z" transform="translate(0 0)" style="fill:#2d3e50"/><path id="Tracé_24509" data-name="Tracé 24509" d="M17.89,33.52A13.92,13.92,0,1,1,31.81,19.6h0A13.93,13.93,0,0,1,17.89,33.52Z" transform="translate(0 0)" style="fill:#e0e0e0"/><path id="Tracé_24510" data-name="Tracé 24510" d="M17.89,9.66a9.95,9.95,0,1,0,9.94,9.94h0A10,10,0,0,0,17.89,9.66Zm0,15.91a6,6,0,1,1,6-6h0A6,6,0,0,1,17.89,25.57Z" transform="translate(0 0)" style="fill:#496582"/><path id="Tracé_24511" data-name="Tracé 24511" d="M17.89,21.59a2,2,0,1,1,2-2A2,2,0,0,1,17.89,21.59Z" transform="translate(0 0)" style="fill:#e24c3f"/><path id="Tracé_24512" data-name="Tracé 24512" d="M29.55,31.53,26,30.85h0c-1.44-2-2.93-4-3.86-5.3L18,19.91a.27.27,0,0,0-.38-.05.26.26,0,0,0-.06.37l1.52,2.08,6.47,8.86-.43,3.61.7.95a18,18,0,0,0,4.49-3.16Z" transform="translate(0 0)" style="fill:#5d5d5d;opacity:0.20000000298023224;isolation:isolate"/><path id="Tracé_24513" data-name="Tracé 24513" d="M18,20.17l4.11-5.63,6.57-9,1.51-2.08a.25.25,0,0,0-.07-.37.27.27,0,0,0-.37,0L25.66,8.79l-6.57,9-1.51,2.07a.26.26,0,0,0,.07.38.27.27,0,0,0,.37-.06Z" transform="translate(0 0)" style="fill:#f3c40f"/><path id="Tracé_24514" data-name="Tracé 24514" d="M29.66,3.3,29,0,25.13,5.3l.43,3.61Z" transform="translate(0 0)" style="fill:#a6382e"/><path id="Tracé_24515" data-name="Tracé 24515" d="M30.1,3.62l3.35-.38-3.88,5.3L26,9.23Z" transform="translate(0 0)" style="fill:#a6382e"/></g></svg>