<svg xmlns="http://www.w3.org/2000/svg" width="212.07" height="111.421" viewBox="0 0 212.07 111.421"><defs><style>.a{fill:#dfe4f4;}.b,.f{fill:#8595ba;}.c{fill:#f3f6fe;}.d{fill:#b8c4e0;}.e,.g{fill:none;}.e,.f,.g{stroke:#8595ba;stroke-width:3px;}.g{stroke-linecap:round;stroke-linejoin:bevel;}</style></defs><g transform="translate(0 0.002)"><path class="a" d="M183.1,92.54c-11.06,6.55-20.16,7.93-26.56,7.93-16.37-.07-38.35-9.17-46.72-9.75a113.392,113.392,0,0,0-12.23.07c-8,.29-13.61,1-18.41,1.53-6,.65-14.85,1.46-25.91,2-.87.14-20,2.47-29.84-11.36C22.71,82,15.5,71.5,19,62.7c1.9-4.8,7.79-11.13,14.41-14.77,1.6-.87,2.62-1.24,3-2.4C37.92,40.8,24,35.71,22.56,27.19c-.73-4.29,1.38-10.91,15.07-21.1C47.09,1.65,60.48-2.57,73.8,1.94,85.15,5.8,86.17,12.42,96.57,14.46c13.18,2.48,16.74-7.13,39.3-10.84,9.47-1.6,19.5-3.06,29.48,2.25,2,1.1,13.68,7.28,15.28,18,1.89,12.88-15,18.63-13.1,29.26,2,11.79,23.8,13,25.11,24.08C193.36,82.93,188.27,88.39,183.1,92.54Z" transform="translate(0 -0.01)"/><circle class="a" cx="7.35" cy="7.35" r="7.35" transform="translate(197.37 3.81)"/><circle class="a" cx="3.64" cy="3.64" r="3.64" transform="translate(188.12 20.62)"/><circle class="a" cx="5.75" cy="5.75" r="5.75" transform="translate(0 73.68)"/><circle class="a" cx="5.75" cy="5.75" r="5.75" transform="translate(194.38 57.45)"/><circle class="a" cx="5.75" cy="5.75" r="5.75" transform="translate(11.42 2.79)"/><path class="b" d="M162.72,50c5.07,1.71,12.35-6.31,12.61-10.82s-1.43-7.42-3.75-11.58c-2.18-3.92-5.14-5.29-8.76-7.06-.16-.67-9.52,2.17-9.52,2.17a3.73,3.73,0,0,1-2.3-6.57,11.73,11.73,0,0,1-2-.16,50.2,50.2,0,0,0-5.72.83c-2.18-2.21,3.4-2.92,4.6-3a61.139,61.139,0,0,1,7.29-.16c.42.06,11.05,2.64,17.38,10.58,2.35,3,4.68,6.88,5.05,10.53A17.94,17.94,0,0,1,175,45.9c-4.18,6.12-12.76,7.85-15.51,6.93A25.27,25.27,0,0,0,162.72,50Z" transform="translate(0 -0.01)"/><path class="b" d="M50.15,38.68S34.37,45.5,34.61,56.16s6.64,13.59,9.88,13.89c3.59.33,3.35-.62,3-2.21v-.17s1.2,1.59,2.16,1-.4-2.33-2.78-4.89c-.91-1-2.35,1.75-4.53,1.47-2.81-.35-6.34-4.12-5.1-11,2-11.06,17.88-10.72,17.4-13.47S50.15,38.68,50.15,38.68Z" transform="translate(0 -0.01)"/><path class="b" d="M88.79,67.46s2.5,38.9,1.25,40.06-8.13.12-9.39,2.26,10.51,2,12,.7,0-43,0-43Z" transform="translate(0 -0.01)"/><path class="b" d="M124.4,66.53s-2.5,38.91-1.25,40.06,8.13.12,9.38,2.26-10.51,2-12,.7,0-43,0-43Z" transform="translate(0 -0.01)"/><path class="c" d="M132.92,75.69c1.2.51,5.26,2,8.55-.16,3.9-2.5,3.9-5.46,3.9-5.46a11.35,11.35,0,0,0,11.39-2.65c5.47-5,3-15,3-15s5.12-2.66,4.53-8.15c-1-8.86-10-9.36-10-9.36s2.81-6.71-2.19-11.4A14.67,14.67,0,0,0,140.53,20a5.14,5.14,0,0,0-1.87-5.77c-3.12-2.19-5.61-.88-5.61-.88s.53-7.1-5.93-9.52a13.28,13.28,0,0,0-11.41,1.34s-3.9-4.21-9.52-3.43a17.39,17.39,0,0,0-8.74,3.59A10,10,0,0,0,87.77,3.1a9,9,0,0,0-6.56,7.19s-10-2.8-15.48,4.07S62.92,27,62.92,27s-9-1.23-11.83,7.35a15.16,15.16,0,0,0,2.34,14.37S46.09,56,49.21,64s10.6,6.28,10.6,6.28a8.27,8.27,0,0,0,8,7.3c7.33.46,10.45-2.19,10.45-2.19s6.4,5.3,12.65,4.68,8.58-3.12,8.58-3.12,5.94,3.38,11.71,3.18S121.64,76,121.64,76a6.2,6.2,0,0,0,5.78,2.81C131.31,78.41,132.7,75.6,132.92,75.69Z" transform="translate(0 -0.01)"/><path class="d" d="M165.66,44.16c-.74-6.78-5.88-9.57-9.57-10.37A11.38,11.38,0,0,0,153,22.53a15.77,15.77,0,0,0-10.78-4.08h-.08A6.27,6.27,0,0,0,139.46,13a7.81,7.81,0,0,0-4.3-1.62,8.75,8.75,0,0,0-.95-2.57,11.21,11.21,0,0,0-6.6-6.37,13,13,0,0,0-4.7-.85,14.53,14.53,0,0,0-4.62.76h0l-.34.12-.19.07h0a13.15,13.15,0,0,0-1.8.8A13.2,13.2,0,0,0,107.58.2,10.62,10.62,0,0,0,106,.31a19.94,19.94,0,0,0-8.5,3.18,11.41,11.41,0,0,0-6.73-2.23,12.44,12.44,0,0,0-3.38.49,10.33,10.33,0,0,0-7.22,6.9C77.08,8.2,69.68,7.86,65,13.77c-3.15,3.95-3.91,7.3-3.93,9.63h0a10.14,10.14,0,0,0,.1,1.46,13,13,0,0,0-11.39,9,16.66,16.66,0,0,0,1.8,14.63l-.28.31a1.47,1.47,0,0,0-.25.52c-2.14,2.78-5.64,8.7-3.12,15.15,2.27,5.79,6.76,6.65,9.24,6.65A11.871,11.871,0,0,0,58.83,71c.72,3.22,3.14,7.57,8.88,7.94.6,0,1.21.06,1.79.06a17.73,17.73,0,0,0,8.69-1.93c1.87,1.36,6.64,4.42,11.67,4.42a9.16,9.16,0,0,0,1.18-.05,18.93,18.93,0,0,0,7.74-2.29,4.869,4.869,0,0,0,1-.52,26.59,26.59,0,0,0,11,2.87h.56a20.14,20.14,0,0,0,10.14-3.57,3.71,3.71,0,0,0,.5.47.39.39,0,0,0,.11.06,7.27,7.27,0,0,0,4.77,1.78h.81a8.84,8.84,0,0,0,5.72-2.88,13,13,0,0,0,4.14.71,8.76,8.76,0,0,0,4.8-1.32,9.82,9.82,0,0,0,4.19-4.93,12.05,12.05,0,0,0,2.4.23,13,13,0,0,0,8.9-3.57c5-4.56,4.1-12.51,3.59-15.32a9.7,9.7,0,0,0,4.25-9ZM159.38,51c-.75-.23-1.67-.48-2.79-.76a5.52,5.52,0,0,0-5.59,1.5,4.74,4.74,0,0,0-.9,4.87,4,4,0,0,0,4.06,2.64,6.55,6.55,0,0,0,2.1-.34,1.271,1.271,0,1,0-.68-2.45h-.14c-.1,0-2.38.8-2.95-.77a2.22,2.22,0,0,1,.4-2.3,3,3,0,0,1,3.07-.69q1.5.375,2.52.69c.4,2.15,1.36,9.25-2.68,12.94a10.11,10.11,0,0,1-7,2.84,9.13,9.13,0,0,1-2.8-.41l-2.53-4.87a1.41,1.41,0,1,0-2.5,1.3l2.85,5.47a6.92,6.92,0,0,1-3.13,3.65,5.92,5.92,0,0,1-3.28.89,10.81,10.81,0,0,1-4-.84l-.27-.12h-.29a1.81,1.81,0,0,0-1.4.82,6.1,6.1,0,0,1-4.23,2.32h-.52a4.69,4.69,0,0,1-3.67-1.84,4.49,4.49,0,0,1-.67-2.65,2.31,2.31,0,0,1,1-1.92c1.8-1,2.67-.15,2.89.15a1.411,1.411,0,0,0,2.31-1.62c-.81-1.18-3.23-2.91-6.6-1a5,5,0,0,0-2.45,4.15A7.15,7.15,0,0,0,120,75.5a17.61,17.61,0,0,1-8.83,3.21,22.69,22.69,0,0,1-9.64-2.33h0a9.06,9.06,0,0,0-.56-7.1c-1.79-4-6.1-3.85-8.13-3.22a1.41,1.41,0,0,0,.83,2.69h0c.14,0,3.51-1,4.74,1.69a6.48,6.48,0,0,1,.52,4.88,3.609,3.609,0,0,1-.22.44l-.22.21s-2.17,2.15-7.71,2.7h-.9c-4.22,0-8.46-2.77-10-3.92l.35-4.26a1.41,1.41,0,0,0-2.8-.23L77,74.53a14.47,14.47,0,0,1-7.52,1.68H67.87c-5.82-.37-6.43-6.3-6.48-6.87a3.83,3.83,0,0,1,2.08-3.07,3,3,0,0,1,1.86-.51h-.1l1.1-2.58c-.27-.12-1.75-.63-4.17.64a6.57,6.57,0,0,0-3.43,4.45,8.58,8.58,0,0,1-1.6.15c-3.12,0-5.35-1.64-6.61-4.86-2.63-6.69,3.27-13.13,3.85-13.74A7.14,7.14,0,0,1,59,48.13a4.34,4.34,0,0,1,4,2.69,1.4,1.4,0,0,0,1.33,1,1.76,1.76,0,0,0,.45-.07,1.41,1.41,0,0,0,.88-1.78A7.11,7.11,0,0,0,59,45.32a9.67,9.67,0,0,0-5.26,1.43,14,14,0,0,1-1.33-12A10.4,10.4,0,0,1,62,27.63a6.74,6.74,0,0,0,5.28,3.78,6.46,6.46,0,0,0,1.08.08A7.76,7.76,0,0,0,75.13,27a1.4,1.4,0,0,0-2.55-1.18c-.06.14-1.59,3.29-4.9,2.81a3.92,3.92,0,0,1-2.88-1.8l-.58-1.24a2,2,0,0,1-.08-.21,6.62,6.62,0,0,1-.28-1.87c0-.05,0-.09,0-.13,0-1.76.63-4.48,3.32-7.86,4.18-5.24,11.23-4.35,13.18-4l2,4.45a1.41,1.41,0,1,0,2.57-1.14h0L82.76,10a.26.26,0,0,0-.05-.09,7.6,7.6,0,0,1,5.45-5.5,9.19,9.19,0,0,1,2.6-.38,8.5,8.5,0,0,1,5.68,2.18l.31.33a3.83,3.83,0,0,1,.54,3.8,3.15,3.15,0,0,1-3,2,1.41,1.41,0,0,0-.26,2.8h.32a6,6,0,0,0,5.43-3.57,6.37,6.37,0,0,0-.39-6,17.2,17.2,0,0,1,7-2.5,8.06,8.06,0,0,1,1.2-.08,10.32,10.32,0,0,1,6.2,2.29,6.6,6.6,0,0,0-1.48,2.92,5.74,5.74,0,0,0,4,6.93,1.86,1.86,0,0,0,.34,0,1.42,1.42,0,0,0,1.41-1.4A1.4,1.4,0,0,0,117,12.41a2.91,2.91,0,0,1-1.9-3.6c.52-2.4,3.37-3.51,3.92-3.7a12.06,12.06,0,0,1,3.94-.69,10.57,10.57,0,0,1,3.73.68,8.5,8.5,0,0,1,5,4.79v.1a10.31,10.31,0,0,1,.76,3.14V15.5c-.47,2-1.5,2-2,2a2.94,2.94,0,0,1-1.6-.53A1.433,1.433,0,1,0,127,19.16h0a5.79,5.79,0,0,0,3.32,1.12c1.28,0,4.32-.51,4.91-5.28,0-.27.05-.54.07-.8a5.58,5.58,0,0,1,2.46,1.09,3.66,3.66,0,0,1,1.35,4.16l-.76,2.22,2.32-.37a9.44,9.44,0,0,1,1.5-.09,13,13,0,0,1,8.86,3.32c3.7,3.47,2.39,8.26,2,9.52-.15.31-2.1,4.31-4.84,4.44a1.92,1.92,0,0,1-1.45-.33,1.31,1.31,0,0,1-.15-.93,1.4,1.4,0,1,0-2.73-.66h0A3.76,3.76,0,0,0,148,41.34h.36c3.32-.15,5.59-3.14,6.64-4.89,2,.34,7.19,1.81,7.86,8a7.027,7.027,0,0,1-3.48,6.58Z" transform="translate(0 -0.01)"/><path class="d" d="M136.65,32.36a8.1,8.1,0,0,0-1.9-7.22c-4.53-5.46-11.4-4.25-15.66-2.32a9.83,9.83,0,0,0-6.67-7.48c-5.15-1.76-9.12,1.71-11,3.83A12.85,12.85,0,0,0,92,15.75a8.62,8.62,0,0,0-7.62,6,7.4,7.4,0,0,0,2.4,8.48A8.61,8.61,0,0,0,98.2,30a1.4,1.4,0,1,0-1.92-2,5.79,5.79,0,0,1-7.74.15,4.71,4.71,0,0,1-1.48-5.39,5.84,5.84,0,0,1,5-4.12c5.83-.12,8.16,3.42,8.25,3.57a1.41,1.41,0,0,0,1.94.45,1.39,1.39,0,0,0,.44-.43c0-.06,3.83-5.86,8.82-4.16a7.16,7.16,0,0,1,5,7,1.42,1.42,0,0,0,1.32,1.49,1.51,1.51,0,0,0,.83-.21c.36-.23,8.89-5.41,14,.69a5.39,5.39,0,0,1,1.33,4.79,5.76,5.76,0,0,1-2.82,3.74c-1.83.83-4.13-.39-4.15-.4a1.4,1.4,0,0,0-1.35,2.46,9.4,9.4,0,0,0,3.45,1,6.4,6.4,0,0,0,3.2-.5,8.54,8.54,0,0,0,4.33-5.77Z" transform="translate(0 -0.01)"/><path class="d" d="M75.65,52.1a6.41,6.41,0,0,0-.33-3.6h0a7.51,7.51,0,0,0,2.4-.4,6.43,6.43,0,0,0,4.09-4.6,8.89,8.89,0,0,0-1.52-7.81c-2.59-3.06-6.62-2.29-8.39-1.46a1.4,1.4,0,1,0,1.2,2.54s3.19-1.46,5,.73a6,6,0,0,1,1,5.25,3.69,3.69,0,0,1-2.3,2.69,5.4,5.4,0,0,1-4.28-.51,11.35,11.35,0,0,0-1.63-1.1l-.14-.13a1.414,1.414,0,0,0-2,2s.19.18.44.39h0A11.33,11.33,0,0,0,71,47.29a4.62,4.62,0,0,1,1.9,4.3c-.57,3.08-2.85,3.23-3.12,3.24a1.41,1.41,0,0,0,0,2.81C71.45,57.64,74.83,56.48,75.65,52.1Z" transform="translate(0 -0.01)"/><path class="d" d="M81.34,57.85A8.36,8.36,0,0,0,73.93,63a1.4,1.4,0,0,0,2.62,1.01,5.6,5.6,0,0,1,4.88-3.35c3.08-.09,3.41,3.36,3.44,3.75a1.4,1.4,0,0,0,1.4,1.32h.09a1.4,1.4,0,0,0,1.31-1.49C87.53,62,86,57.7,81.34,57.85Z" transform="translate(0 -0.01)"/><path class="d" d="M143.38,46.53c-2.26-1.9-5.67-1.34-5.81-1.31a1.28,1.28,0,0,0,.43,2.52h0s2.4-.37,3.73.75a3.16,3.16,0,0,1,1,2.58,3.88,3.88,0,0,1-1,3,4.43,4.43,0,0,1-3,.93,1.28,1.28,0,0,0-1.39,1.16,1.49,1.49,0,0,0,0,.42,4.52,4.52,0,0,1-.32,3.13,2,2,0,0,1-1.53.72,2.69,2.69,0,0,1-2.2-.58,3.27,3.27,0,0,1-.73-2.31,1.287,1.287,0,0,0-2.56-.23,5.81,5.81,0,0,0,1.46,4.31,4.85,4.85,0,0,0,3.6,1.36h.62a4.38,4.38,0,0,0,3.4-1.77,5.93,5.93,0,0,0,.94-3.74,5.87,5.87,0,0,0,5.22-6.37A5.6,5.6,0,0,0,143.38,46.53Z" transform="translate(0 -0.01)"/><path class="e" d="M127.1,45.39a7.87,7.87,0,1,1-7.87-7.87,7.87,7.87,0,0,1,7.87,7.87Z" transform="translate(0 -0.01)"/><path class="f" d="M122.25,48.5a3.09,3.09,0,1,1-3.1-3.09h0a3.1,3.1,0,0,1,3.1,3.09Z" transform="translate(0 -0.01)"/><path class="e" d="M98.73,45.39a7.87,7.87,0,1,1-7.87-7.87,7.87,7.87,0,0,1,7.87,7.87Z" transform="translate(0 -0.01)"/><path class="f" d="M93.88,48.5a3.09,3.09,0,1,1-3.09-3.09h0a3.1,3.1,0,0,1,3.09,3.09Z" transform="translate(0 -0.01)"/><path class="g" d="M99.64,62.27a4.88,4.88,0,0,1,3.8-2.8c2.92-.46,7.86,1,7.86,1" transform="translate(0 -0.01)"/><path class="g" d="M79.4,33.81A5.18,5.18,0,0,1,83,30.29c3-.92,8.44-.15,8.44-.15" transform="translate(0 -0.01)"/><path class="g" d="M112.71,34.68a5.38,5.38,0,0,1,3.08-4.34c3-1.63,9.14-2.19,9.14-2.19" transform="translate(0 -0.01)"/></g></svg>