<svg xmlns="http://www.w3.org/2000/svg" width="20.337" height="28.225" viewBox="0 0 20.337 28.225">
  <g id="_001---Degree" data-name="001---Degree" transform="translate(8.736 28.225) rotate(-110)">
    <path id="Shape" d="M24.265,31a.416.416,0,0,0-.076.007,71.281,71.281,0,0,1-11.418.845,71.281,71.281,0,0,1-11.418-.845A.48.48,0,0,0,1.277,31C.979,31,0,31.338,0,35.683s.979,4.683,1.277,4.683a.485.485,0,0,0,.076-.008,66.579,66.579,0,0,1,8.77-.8l-.831,1.993a.848.848,0,0,0,1.125,1.093l.326-.139.141.324a.847.847,0,0,0,.783.516h.011a.848.848,0,0,0,.78-.531l.739-1.77.737,1.763a.851.851,0,0,0,.783.538h.013a.845.845,0,0,0,.78-.511l.142-.327.321.138a.848.848,0,0,0,1.128-1.1l-.815-1.954a64.91,64.91,0,0,1,7.906.766.416.416,0,0,0,.074.006c.3,0,1.277-.338,1.277-4.683S24.563,31,24.265,31ZM14.134,32.69a8.965,8.965,0,0,1,.307,1.991,2.954,2.954,0,0,0-2.963.275,11.5,11.5,0,0,0-.292-2.27q.774.016,1.587.016C13.237,32.7,13.688,32.7,14.134,32.69ZM13.2,39.514a2.129,2.129,0,1,1,2.129-2.129A2.129,2.129,0,0,1,13.2,39.514Zm-11.92-7.45A11.94,11.94,0,0,1,1.7,35.683,11.94,11.94,0,0,1,1.277,39.3a11.94,11.94,0,0,1-.426-3.619A11.94,11.94,0,0,1,1.277,32.064Zm.86,7.309a11.888,11.888,0,0,0,.417-3.691,11.882,11.882,0,0,0-.418-3.692,74.694,74.694,0,0,0,8.159.674,10.959,10.959,0,0,1,.347,3.018c0,.062,0,.12,0,.18a2.949,2.949,0,0,0-.137,2.789l-.019.045a74.142,74.142,0,0,0-8.347.678Zm9.53,3.12-.311-.715a.426.426,0,0,0-.558-.221l-.716.317,1-2.393a2.977,2.977,0,0,0,1.5.822Zm3.928-.937a.426.426,0,0,0-.558.221l-.315.708L13.81,40.3a2.98,2.98,0,0,0,1.5-.822l1,2.384Zm8.585-2.065a68.944,68.944,0,0,0-8.259-.766l-.03-.073a2.963,2.963,0,0,0-.574-3.357,11.849,11.849,0,0,0-.3-2.623,71.06,71.06,0,0,0,9.167-.8,10.042,10.042,0,0,1,.511,3.811A10.086,10.086,0,0,1,24.18,39.493Z" transform="translate(0 -31)"/>
  </g>
</svg>
