<svg xmlns="http://www.w3.org/2000/svg" width="53.347" height="69.567" viewBox="0 0 53.347 69.567"><defs><style>.a{fill:#d4d4d4;}.b{fill:#f5f5f5;}.c{fill:#e6e6e6;}.d{fill:#b8c4e0;}.e{fill:#9f9f9f;}.f{fill:#8595ba;}</style></defs><path class="a" d="M138.4,106.845H94.251a2.3,2.3,0,0,1-2.3-2.3V46.081a2.3,2.3,0,0,1,2.3-2.3H138.4a2.3,2.3,0,0,1,2.3,2.3v58.467A2.3,2.3,0,0,1,138.4,106.845Z" transform="translate(-87.354 -37.278)"/><path class="b" d="M107.45,63.062H63.3a2.3,2.3,0,0,1-2.3-2.3V2.3A2.3,2.3,0,0,1,63.3,0H107.45a2.3,2.3,0,0,1,2.3,2.3V60.764a2.3,2.3,0,0,1-2.3,2.3Z" transform="translate(-61 0)"/><path class="c" d="M358.143,0V63.062h2.3a2.3,2.3,0,0,0,2.3-2.3V2.3a2.3,2.3,0,0,0-2.3-2.3Z" transform="translate(-313.994)"/><path class="d" d="M121.891,125.079h-7.959a.612.612,0,0,1-.612-.612v-7.959a.612.612,0,0,1,.612-.612h7.959a.612.612,0,0,1,.612.612v7.959A.612.612,0,0,1,121.891,125.079Z" transform="translate(-105.546 -98.675)"/><path class="d" d="M121.891,225.007h-7.959a.612.612,0,0,1-.612-.612v-7.959a.612.612,0,0,1,.612-.612h7.959a.612.612,0,0,1,.612.612v7.959A.612.612,0,0,1,121.891,225.007Z" transform="translate(-105.546 -183.756)"/><path class="d" d="M121.891,324.934h-7.959a.612.612,0,0,1-.612-.612v-7.959a.612.612,0,0,1,.612-.612h7.959a.612.612,0,0,1,.612.612v7.959A.612.612,0,0,1,121.891,324.934Z" transform="translate(-105.546 -268.836)"/><g transform="translate(21.506 17.942)"><path class="e" d="M206.862,122.987H225.23a1.114,1.114,0,0,0,0-2.229H206.862a1.114,1.114,0,1,0,0,2.229Z" transform="translate(-205.748 -120.758)"/><path class="e" d="M225.23,153.724H206.862a1.114,1.114,0,1,0,0,2.229H225.23a1.114,1.114,0,0,0,0-2.229Z" transform="translate(-205.748 -148.826)"/><path class="e" d="M225.23,220.686H206.862a1.114,1.114,0,1,0,0,2.229H225.23a1.114,1.114,0,1,0,0-2.229Z" transform="translate(-205.748 -205.839)"/><path class="e" d="M225.23,253.651H206.862a1.114,1.114,0,1,0,0,2.229H225.23a1.114,1.114,0,1,0,0-2.229Z" transform="translate(-205.748 -233.906)"/><path class="e" d="M225.23,320.612H206.862a1.114,1.114,0,1,0,0,2.229H225.23a1.114,1.114,0,1,0,0-2.229Z" transform="translate(-205.748 -290.918)"/><path class="e" d="M225.23,353.578H206.862a1.114,1.114,0,1,0,0,2.229H225.23a1.114,1.114,0,1,0,0-2.229Z" transform="translate(-205.748 -318.986)"/></g><path class="f" d="M161.33,41.929H140.208a2.679,2.679,0,0,1,0-5.357H161.33a2.679,2.679,0,1,1,0,5.357Z" transform="translate(-126.158 -31.138)"/><path class="f" d="M141.648,107.241a1.114,1.114,0,0,0-1.571-.124l-5.46,4.661-1.11-1.2a1.114,1.114,0,0,0-1.638,1.512l1.837,1.99a1.114,1.114,0,0,0,1.542.092l6.276-5.357A1.114,1.114,0,0,0,141.648,107.241Z" transform="translate(-121.088 -90.975)"/></svg>