<svg xmlns="http://www.w3.org/2000/svg" width="13.5" height="16.669" viewBox="0 0 13.5 16.669"><defs><style>.a{fill:#fff;}</style></defs><g transform="translate(-0.5 0.001)"><path class="a" d="M13.487,7.116A1.646,1.646,0,0,0,11.94,6.83a1.423,1.423,0,0,0-.378.2,10.383,10.383,0,0,0-1.447,1.491v-4.9a1.575,1.575,0,0,0-.469-1.116,1.513,1.513,0,0,0-1.62-.336V1.693A1.714,1.714,0,0,0,7.515.478,1.641,1.641,0,0,0,6.326,0a1.678,1.678,0,0,0-1.64,1.62,1.609,1.609,0,0,0-.618-.143,1.7,1.7,0,0,0-1.226.479,1.6,1.6,0,0,0-.5,1.157v.464A1.405,1.405,0,0,0,.5,4.911v7.15a6.308,6.308,0,0,0,.581,2.377,3.7,3.7,0,0,0,1.248,1.443,5.9,5.9,0,0,0,3.318.787,5.232,5.232,0,0,0,4.615-2.549c.107-.173.391-.619.7-1.1s.575-.9.819-1.28l.363-.565c.4-.618.816-1.217,1.252-1.781.162-.209.211-.266.223-.278a1.446,1.446,0,0,0,.371-.788A1.319,1.319,0,0,0,13.487,7.116ZM13.019,8.2a.474.474,0,0,1-.123.257c-.035.039-.1.113-.275.341-.453.587-.891,1.21-1.3,1.852l-.362.564c-.245.381-.522.814-.821,1.283-.313.492-.6.947-.709,1.118l-.011.019A4.254,4.254,0,0,1,5.649,15.69a5.025,5.025,0,0,1-2.773-.621,3.738,3.738,0,0,1-1.4-3.06v-7.1a.428.428,0,0,1,.856,0V7.574c0,.008,0,.016,0,.023s0,.017,0,.026,0,.015,0,.023,0,.017,0,.026,0,.015.006.023,0,.016.006.024.005.015.008.022.005.015.008.023l.01.021.01.021.012.02.012.02.014.019.014.019.016.017.016.018.017.015.018.016.018.014.019.014.019.012L2.59,8l.02.01.022.011.022.008.023.009.023.006.024.006.024,0,.024,0h.051l.05,0,.021,0,.027,0,.028-.007.019,0L3,8.03l.015-.005.029-.014L3.056,8l.026-.016L3.1,7.98l.023-.017.015-.011.02-.018.015-.013L3.186,7.9,3.2,7.885l.014-.019.014-.018.012-.02.012-.02.01-.021.01-.022c0-.007.005-.015.008-.022s.006-.015.009-.023,0-.015.006-.023,0-.016.006-.024,0-.016,0-.024,0-.017,0-.025,0-.016,0-.024,0-.017,0-.025l.011-4.461a.636.636,0,0,1,.2-.456.715.715,0,0,1,.516-.2.678.678,0,0,1,.64.685l.006,4.409c0,.009,0,.018,0,.026s0,.016,0,.023,0,.018,0,.027,0,.015,0,.022,0,.019.007.028l0,.018c0,.01.007.02.011.03l.005.015c0,.011.01.021.015.031l.006.012c.006.011.012.021.019.031l.006.01.021.029.007.009.026.029.005.006.029.026.005.005.031.023.007,0,.033.02.007,0,.036.017.007,0,.038.014.007,0,.039.01.008,0a.492.492,0,0,0,.1.01h.05l.026,0,.022,0L5.3,8.02l.021-.005L5.346,8,5.365,8l.026-.012.017-.008.025-.015.016-.01.022-.017.015-.011.02-.018.014-.013.018-.02.013-.015.015-.02.013-.017L5.593,7.8,5.6,7.78l.01-.021c0-.007.007-.014.01-.021s.005-.014.008-.022.006-.015.009-.023,0-.015.006-.023,0-.016.006-.024,0-.016,0-.024,0-.016,0-.024,0-.017,0-.025,0-.016,0-.025V1.67a.7.7,0,0,1,.68-.692.675.675,0,0,1,.486.2.731.731,0,0,1,.218.517V7.574c0,.009,0,.018,0,.026s0,.016,0,.023,0,.017,0,.026,0,.016,0,.023,0,.017.006.025,0,.014.006.022.006.018.01.027l.007.018c0,.009.009.018.013.027l.008.016c0,.009.01.018.016.026l.009.014.019.025.009.012.023.025.009.01.025.023.009.009.03.023.008.006L7.3,8,7.3,8l.039.019,0,0,.043.016h0a.485.485,0,0,0,.095.019h0l.05,0h.05l.027,0,.022,0,.028-.007.019,0,.029-.011.016-.006.029-.014L7.771,8,7.8,7.987l.013-.008.026-.02.011-.008.025-.023.01-.009.023-.025.009-.01.02-.026.008-.011L7.96,7.82l.008-.013c.005-.009.009-.019.014-.029l.007-.014c0-.01.007-.019.011-.029L8,7.719c0-.009,0-.019.007-.029s0-.012,0-.018,0-.019,0-.029,0-.013,0-.02,0-.018,0-.027,0-.015,0-.023V3.538a.56.56,0,0,1,.544-.494.543.543,0,0,1,.391.16.591.591,0,0,1,.177.419V9.416a.694.694,0,0,0,1.294.345l0-.005a9.433,9.433,0,0,1,1.707-1.939.443.443,0,0,1,.118-.061.658.658,0,0,1,.608.119A.361.361,0,0,1,13.019,8.2Zm0,0" transform="translate(0 0)"/></g></svg>