<svg xmlns="http://www.w3.org/2000/svg" width="9.893" height="8.739" viewBox="0 0 9.893 8.739"><defs><style>.a{fill:#fff;}</style></defs><g transform="translate(1.813 -66.033)"><g transform="translate(-1.813 66.033)"><g transform="translate(0 0)"><path class="a" d="M9.461,20.633c-.446-.24-.944.223-1.236.5-.67.652-1.236,1.408-1.872,2.095-.7.755-1.356,1.511-2.078,2.249a6.2,6.2,0,0,0-1.133,1.374,22.538,22.538,0,0,0-1.837-1.786c-.5-.378-1.322-.652-1.3.258.034,1.185,1.082,2.455,1.854,3.262a1.961,1.961,0,0,0,1.253.721c.6.034,1.219-.687,1.58-1.082.635-.687,1.15-1.459,1.734-2.163.755-.927,1.528-1.837,2.266-2.782C9.152,22.693,10.612,21.251,9.461,20.633ZM.756,25.252a.13.13,0,0,0-.069.017A.836.836,0,0,1,.5,25.2h0Q.576,25.149.756,25.252Z" transform="translate(-0.001 -20.566)"/></g></g></g></svg>