<svg id="Calque_1" data-name="Calque 1" xmlns="http://www.w3.org/2000/svg" viewBox="0 0 172.72 139"><title>searchingneo</title><g id="Groupe_10827" data-name="Groupe 10827"><g id="Groupe_10826" data-name="Groupe 10826"><g id="Groupe_10825" data-name="Groupe 10825"><g id="Groupe_10824" data-name="Groupe 10824"><g id="Groupe_10823" data-name="Groupe 10823"><g id="Groupe_10822" data-name="Groupe 10822"><g id="Groupe_10821" data-name="Groupe 10821"><g id="Groupe_10109" data-name="Groupe 10109"><path id="iconmonstr-star-3" d="M107.75,0,130,46.09l50.42,7L143.68,88.58,152.63,139l-44.88-24.16L62.87,139l9-50.41L35.14,53.1l50.42-7Z" transform="translate(-8.18 0)" style="fill:#8bdee1"/><g id="Objects"><g id="Groupe_43" data-name="Groupe 43"><path id="Tracé_32" data-name="Tracé 32" d="M139.28,131.7c0,1.24-14.75,2.24-32.95,2.24s-32.95-1-32.95-2.24,14.75-2.23,33-2.23S139.28,130.47,139.28,131.7Z" transform="translate(-8.18 0)" style="fill:#fff;opacity:0.75;isolation:isolate"/><g id="Groupe_41" data-name="Groupe 41" style="opacity:0.75"><path id="Tracé_67" data-name="Tracé 67" d="M58.78,47.5c0,2.18-1,3.14-3.14,3.14,2.18,0,3.14,1,3.14,3.14,0-2.17,1-3.14,3.14-3.14C59.75,50.64,58.78,49.68,58.78,47.5Z" transform="translate(-8.18 0)" style="fill:#fff"/><path id="Tracé_68" data-name="Tracé 68" d="M52.17,55.25c0,3-1.35,4.38-4.38,4.38,3,0,4.38,1.35,4.38,4.38,0-3,1.34-4.38,4.38-4.38C53.51,59.63,52.17,58.29,52.17,55.25Z" transform="translate(-8.18 0)" style="fill:#fff"/><path id="Tracé_69" data-name="Tracé 69" d="M61.12,56.5a.67.67,0,1,1-.67-.66h0A.67.67,0,0,1,61.12,56.5Z" transform="translate(-8.18 0)" style="fill:#fff"/><path id="Tracé_70" data-name="Tracé 70" d="M51.25,51A1.09,1.09,0,1,1,50.16,50,1.09,1.09,0,0,1,51.25,51Z" transform="translate(-8.18 0)" style="fill:#fff"/><path id="Tracé_71" data-name="Tracé 71" d="M58.51,62.46a.65.65,0,1,1-.65-.65h0A.65.65,0,0,1,58.51,62.46Z" transform="translate(-8.18 0)" style="fill:#fff"/></g><g id="Groupe_42" data-name="Groupe 42" style="opacity:0.7480000257492065"><path id="Tracé_72" data-name="Tracé 72" d="M156.16,58.25c0,2.18,1,3.15,3.14,3.15-2.17,0-3.14,1-3.14,3.14,0-2.18-1-3.14-3.14-3.14C155.2,61.4,156.16,60.43,156.16,58.25Z" transform="translate(-8.18 0)" style="fill:#fff"/><path id="Tracé_73" data-name="Tracé 73" d="M162.78,66c0,3,1.34,4.39,4.38,4.39-3,0-4.38,1.34-4.38,4.38,0-3-1.35-4.38-4.39-4.38C161.43,70.39,162.78,69,162.78,66Z" transform="translate(-8.18 0)" style="fill:#fff"/><path id="Tracé_74" data-name="Tracé 74" d="M153.82,67.26a.67.67,0,1,0,.67-.67A.67.67,0,0,0,153.82,67.26Z" transform="translate(-8.18 0)" style="fill:#fff"/><path id="Tracé_75" data-name="Tracé 75" d="M163.7,61.8a1.09,1.09,0,1,0,1.09-1.09h0A1.09,1.09,0,0,0,163.7,61.8Z" transform="translate(-8.18 0)" style="fill:#fff"/><path id="Tracé_76" data-name="Tracé 76" d="M156.44,73.21a.64.64,0,0,0,1.28,0,.64.64,0,0,0-.64-.64h0A.64.64,0,0,0,156.44,73.21Z" transform="translate(-8.18 0)" style="fill:#fff"/></g></g></g></g><g id="Groupe_10802" data-name="Groupe 10802"><g id="Groupe_10796" data-name="Groupe 10796"><g id="Groupe_10794" data-name="Groupe 10794"><g id="Groupe_10771" data-name="Groupe 10771"><g id="Groupe_10768" data-name="Groupe 10768"><g id="Groupe_10740" data-name="Groupe 10740"><g id="Groupe_10740-2" data-name="Groupe 10740-2"><g id="Groupe_10738" data-name="Groupe 10738"><g id="Groupe_34" data-name="Groupe 34"><path id="Tracé_101" data-name="Tracé 101" d="M166.18,79.49c5,1.7,12.23-6.25,12.49-10.7s-1.43-7.35-3.72-11.47c-2.15-3.88-5.08-5.23-8.67-7-.15-.66-9.42,2.15-9.42,2.15a3.69,3.69,0,0,1-3.56-3.82A3.73,3.73,0,0,1,154.54,46a11.49,11.49,0,0,1-2-.15,49.15,49.15,0,0,0-5.66.82c-2.16-2.19,3.36-2.89,4.55-3a59.8,59.8,0,0,1,7.21-.16c.41.06,10.93,2.62,17.2,10.47,2.32,2.92,4.63,6.81,5,10.42a17.77,17.77,0,0,1-2.49,11c-4.13,6.06-12.63,7.77-15.35,6.86A24.87,24.87,0,0,0,166.18,79.49Z" transform="translate(-8.18 0)" style="fill:#8595ba"/><path id="Tracé_22540" data-name="Tracé 22540" d="M59.44,84.89c-6.12-.84-11.91,1.91-18.18,1-12.7-1.9-24.5-7.45-25.82-8.4-3.31-2.4-2.79-4.75-.19-5.22S21,75.12,21,75.12s-.25-1.23,1.56-1.3,1.34,3.36,3.77,3.54c.76,0,7.38,4.13,15.17,4.7,5.31.39,10.88-2.81,17-2.31A14.29,14.29,0,0,0,59.44,84.89Z" transform="translate(-8.18 0)" style="fill:#8595ba"/><g id="Groupe_11" data-name="Groupe 11"><path id="Tracé_48" data-name="Tracé 48" d="M130.06,89.52s-2.81,43.77-1.4,45.07,9.14.14,10.55,2.55-11.82,2.27-13.51.79,0-48.41,0-48.41Z" transform="translate(-8.18 0)" style="fill:#8595ba"/><path id="Tracé_49" data-name="Tracé 49" d="M92.66,95.56s-23,37.39-24.85,37.63-7.55-5.16-10.09-4,8.35,8.68,10.58,8.44S96.22,98.08,96.22,98.08Z" transform="translate(-8.18 0)" style="fill:#8595ba"/></g><g id="Groupe_27" data-name="Groupe 27"><path id="Tracé_89" data-name="Tracé 89" d="M136.7,105c1.19.5,5.21,1.92,8.46-.16,3.86-2.47,3.86-5.4,3.86-5.4a11.25,11.25,0,0,0,11.27-2.63c5.41-4.94,2.94-14.8,2.94-14.8s5.07-2.63,4.48-8.06c-1-8.77-9.89-9.27-9.89-9.27s2.78-6.64-2.16-11.28a14.55,14.55,0,0,0-11.43-3.55,5.11,5.11,0,0,0-1.86-5.72c-3.08-2.16-5.55-.87-5.55-.87s.53-7-5.86-9.41a13.09,13.09,0,0,0-11.29,1.33s-3.86-4.17-9.42-3.4a17.16,17.16,0,0,0-8.65,3.55A9.83,9.83,0,0,0,92,33.13a8.9,8.9,0,0,0-6.49,7.1s-9.91-2.76-15.32,4-2.78,12.48-2.78,12.48S58.5,55.53,55.72,64A15,15,0,0,0,58,78.23s-7.26,7.26-4.17,15.14a9.24,9.24,0,0,0,10.49,6.21,8.18,8.18,0,0,0,7.89,7.23c7.26.46,10.35-2.16,10.35-2.16s6.33,5.24,12.51,4.63,8.5-3.09,8.5-3.09,5.87,3.34,11.58,3.14,10.35-4.07,10.35-4.07a6.09,6.09,0,0,0,5.72,2.78C135.11,107.65,136.47,104.87,136.7,105Z" transform="translate(-8.18 0)" style="fill:#f3f6fe"/><g id="Groupe_26" data-name="Groupe 26"><path id="Tracé_90" data-name="Tracé 90" d="M169.09,73.76a11.57,11.57,0,0,0-9.46-10.27,11.3,11.3,0,0,0-3-11.14,15.67,15.67,0,0,0-10.67-4h-.08A6.21,6.21,0,0,0,143.17,43a7.82,7.82,0,0,0-4.25-1.6,9.32,9.32,0,0,0-.94-2.55,11.17,11.17,0,0,0-6.53-6.3,13.24,13.24,0,0,0-4.66-.84,14.55,14.55,0,0,0-4.57.76h0a1.84,1.84,0,0,0-.34.11l-.19.07h0a16.61,16.61,0,0,0-1.78.79,13.13,13.13,0,0,0-8.23-3.16,11.72,11.72,0,0,0-1.57.11,19.74,19.74,0,0,0-8.41,3.15A11.28,11.28,0,0,0,95,31.31a12.16,12.16,0,0,0-3.34.49,10.2,10.2,0,0,0-7.15,6.83c-3-.45-10.37-.78-15,5.07-3.11,3.9-3.87,7.22-3.88,9.52v0a7.86,7.86,0,0,0,.1,1.45,12.85,12.85,0,0,0-11.28,8.9A16.45,16.45,0,0,0,56.2,78.07l-.28.31a1.28,1.28,0,0,0-.25.51c-2.11,2.76-5.59,8.61-3.08,15,2.24,5.73,6.68,6.58,9.13,6.58a11.62,11.62,0,0,0,1.67-.12c.71,3.19,3.1,7.5,8.78,7.86.6,0,1.2.06,1.78.06a17.48,17.48,0,0,0,8.6-1.91c1.85,1.35,6.57,4.37,11.55,4.37.39,0,.78,0,1.16,0a19,19,0,0,0,7.67-2.26,4.71,4.71,0,0,0,.93-.52,26.1,26.1,0,0,0,10.84,2.84h.56a20,20,0,0,0,10-3.53,4.33,4.33,0,0,0,.5.46l.12.07a7.14,7.14,0,0,0,4.71,1.75h0a7,7,0,0,0,.8,0,8.66,8.66,0,0,0,5.66-2.85,12.76,12.76,0,0,0,4.1.71,8.64,8.64,0,0,0,4.75-1.31,9.74,9.74,0,0,0,4.15-4.87,12.52,12.52,0,0,0,2.37.22,12.84,12.84,0,0,0,8.81-3.53c4.94-4.52,4.06-12.38,3.55-15.17A9.56,9.56,0,0,0,169.09,73.76Zm-6.21,6.81c-.74-.23-1.65-.48-2.76-.76a5.5,5.5,0,0,0-5.52,1.44,4.7,4.7,0,0,0-.89,4.82,4,4,0,0,0,4,2.62,6.43,6.43,0,0,0,2.08-.34,1.26,1.26,0,0,0-.75-2.4L159,86c-.1,0-2.35.79-2.92-.76a2.21,2.21,0,0,1,.4-2.27,3,3,0,0,1,3-.69c1,.25,1.82.48,2.5.68.4,2.13,1.34,9.16-2.65,12.81a10,10,0,0,1-6.93,2.8,8.93,8.93,0,0,1-2.77-.4l-2.5-4.82a1.39,1.39,0,1,0-2.47,1.29L147.5,100a6.77,6.77,0,0,1-3.09,3.61,5.89,5.89,0,0,1-3.25.88,10.74,10.74,0,0,1-3.91-.83l-.28-.11h-.28a1.79,1.79,0,0,0-1.39.8,6,6,0,0,1-4.18,2.29l-.52,0h0a4.67,4.67,0,0,1-3.63-1.82,4.47,4.47,0,0,1-.67-2.62,2.28,2.28,0,0,1,1-1.9c1.78-1,2.64-.16,2.86.14a1.39,1.39,0,1,0,2.28-1.59c-.8-1.17-3.2-2.88-6.53-1a5,5,0,0,0-2.43,4.11,7,7,0,0,0,.36,2.72,17.29,17.29,0,0,1-8.74,3.18,22.55,22.55,0,0,1-9.54-2.3h0a9,9,0,0,0-.55-7c-1.78-3.94-6-3.81-8-3.19a1.39,1.39,0,1,0,.82,2.65h0c.14,0,3.47-1,4.69,1.68a6.4,6.4,0,0,1,.52,4.83,2.89,2.89,0,0,1-.22.43l-.21.22s-2.16,2.12-7.64,2.67a8.7,8.7,0,0,1-.89,0c-4.18,0-8.37-2.74-9.94-3.87l.35-4.22a1.4,1.4,0,0,0-2.78-.23l-.34,4.18a14.24,14.24,0,0,1-7.43,1.67c-.52,0-1.06,0-1.6,0-5.76-.37-6.37-6.24-6.42-6.8a3.81,3.81,0,0,1,2.06-3,2.93,2.93,0,0,1,1.84-.5l-.1,0,1.09-2.56c-.27-.11-1.73-.62-4.13.64a6.47,6.47,0,0,0-3.39,4.41,9.28,9.28,0,0,1-1.58.14c-3.1,0-5.3-1.62-6.55-4.81-2.6-6.61,3.23-13,3.81-13.6a7.07,7.07,0,0,1,4.54-1.58,4.3,4.3,0,0,1,4,2.66,1.4,1.4,0,0,0,1.32.94,1.31,1.31,0,0,0,.44-.07,1.38,1.38,0,0,0,.87-1.76,7,7,0,0,0-6.6-4.55,9.65,9.65,0,0,0-5.2,1.41A13.85,13.85,0,0,1,57,64.45a10.3,10.3,0,0,1,9.48-7.05,6.64,6.64,0,0,0,5.22,3.74,7.59,7.59,0,0,0,1.07.08,7.7,7.7,0,0,0,6.7-4.45A1.39,1.39,0,0,0,77,55.61c-.07.13-1.58,3.25-4.85,2.78a3.93,3.93,0,0,1-2.85-1.78l-.58-1.23s0-.09-.08-.21a6.78,6.78,0,0,1-.27-1.85s0-.08,0-.13c0-1.74.63-4.43,3.29-7.77,4.13-5.19,11.11-4.31,13-4l2,4.41a1.38,1.38,0,0,0,1.27.82,1.34,1.34,0,0,0,.56-.12,1.39,1.39,0,0,0,.71-1.83h0L87.06,40a.41.41,0,0,0,0-.09,7.52,7.52,0,0,1,5.4-5.44A9.35,9.35,0,0,1,95,34.08a8.44,8.44,0,0,1,5.62,2.17l.31.32a3.82,3.82,0,0,1,.53,3.77,3.12,3.12,0,0,1-2.92,2,1.39,1.39,0,0,0-.26,2.77h.31a5.89,5.89,0,0,0,5.37-3.53,6.27,6.27,0,0,0-.39-6,17.26,17.26,0,0,1,6.89-2.47,9.51,9.51,0,0,1,1.19-.08,10.22,10.22,0,0,1,6.14,2.27,6.47,6.47,0,0,0-1.47,2.89A5.67,5.67,0,0,0,120.22,45a1.24,1.24,0,0,0,.33,0,1.39,1.39,0,0,0,.34-2.74A2.87,2.87,0,0,1,119,38.78c.51-2.37,3.33-3.47,3.88-3.66a12,12,0,0,1,3.9-.68,10.46,10.46,0,0,1,3.68.66,8.45,8.45,0,0,1,4.93,4.75l0,.1a10,10,0,0,1,.76,3.1l0,2.34c-.46,2-1.49,2-2,2a3,3,0,0,1-1.58-.52,1.39,1.39,0,0,0-1.7,2.2,5.69,5.69,0,0,0,3.28,1.1c1.27,0,4.28-.51,4.86-5.22,0-.27,0-.54.06-.79a5.48,5.48,0,0,1,2.44,1.07,3.63,3.63,0,0,1,1.34,4.12l-.76,2.2,2.3-.37a9.25,9.25,0,0,1,1.49-.09,12.85,12.85,0,0,1,8.77,3.29c3.66,3.43,2.37,8.17,1.94,9.42-.15.31-2.08,4.26-4.8,4.39a1.92,1.92,0,0,1-1.43-.32,1.35,1.35,0,0,1-.15-.92,1.39,1.39,0,0,0-2.7-.65,3.71,3.71,0,0,0,4,4.67H152c3.28-.15,5.52-3.11,6.56-4.84,2,.34,7.11,1.79,7.78,7.93.4,3.78-2.51,5.94-3.45,6.53Z" transform="translate(-8.18 0)" style="fill:#b8c4e0"/><path id="Tracé_91" data-name="Tracé 91" d="M140.39,62.08a8,8,0,0,0-1.88-7.15c-4.49-5.4-11.28-4.2-15.5-2.29a9.74,9.74,0,0,0-6.6-7.4c-5.1-1.74-9,1.69-10.85,3.79a12.74,12.74,0,0,0-9.34-3.39,8.52,8.52,0,0,0-7.54,6A7.33,7.33,0,0,0,91.06,60a8.51,8.51,0,0,0,11.29-.3,1.39,1.39,0,0,0-1.9-2,5.71,5.71,0,0,1-7.66.15,4.64,4.64,0,0,1-1.47-5.32,5.79,5.79,0,0,1,5-4.09c5.77-.11,8.08,3.39,8.17,3.53a1.37,1.37,0,0,0,1.91.45,1.29,1.29,0,0,0,.44-.43c0-.06,3.79-5.79,8.72-4.11a7.08,7.08,0,0,1,4.91,6.9,1.41,1.41,0,0,0,1.31,1.47,1.48,1.48,0,0,0,.82-.21c.35-.22,8.8-5.35,13.81.69a5.32,5.32,0,0,1,1.32,4.74,5.75,5.75,0,0,1-2.79,3.7c-1.81.82-4.09-.39-4.11-.4a1.39,1.39,0,0,0-1.33,2.44h0a9.44,9.44,0,0,0,3.41,1,6.39,6.39,0,0,0,3.17-.5A8.47,8.47,0,0,0,140.39,62.08Z" transform="translate(-8.18 0)" style="fill:#b8c4e0"/><path id="Tracé_92" data-name="Tracé 92" d="M80,81.62a6.4,6.4,0,0,0-.33-3.57h0a7.43,7.43,0,0,0,2.38-.4,6.39,6.39,0,0,0,4-4.56,8.78,8.78,0,0,0-1.5-7.73c-2.56-3-6.55-2.26-8.3-1.44a1.39,1.39,0,0,0,1.18,2.52s3.15-1.45,5,.72a6,6,0,0,1,1,5.19A3.68,3.68,0,0,1,81.18,75a5.38,5.38,0,0,1-4.24-.51,11.1,11.1,0,0,0-1.61-1.09l-.14-.12a1.39,1.39,0,1,0-2,1.94l.06.05a3.43,3.43,0,0,0,.44.38h0a11.32,11.32,0,0,0,1.72,1.17,4.57,4.57,0,0,1,1.87,4.26c-.57,3-2.82,3.2-3.09,3.21a1.39,1.39,0,0,0,0,2.77C75.87,87.1,79.22,86,80,81.62Z" transform="translate(-8.18 0)" style="fill:#b8c4e0"/><path id="Tracé_93" data-name="Tracé 93" d="M85.65,87.3a8.31,8.31,0,0,0-7.33,5.09,1.39,1.39,0,1,0,2.59,1h0a5.53,5.53,0,0,1,4.83-3.31c3.06-.1,3.38,3.32,3.41,3.71a1.38,1.38,0,0,0,1.39,1.3h.08a1.38,1.38,0,0,0,1.3-1.47C91.79,91.37,90.3,87.15,85.65,87.3Z" transform="translate(-8.18 0)" style="fill:#b8c4e0"/><path id="Tracé_94" data-name="Tracé 94" d="M147.05,76.1c-2.24-1.88-5.61-1.32-5.75-1.3a1.27,1.27,0,0,0,.43,2.5s2.36-.37,3.68.74a3.1,3.1,0,0,1,1,2.55,3.88,3.88,0,0,1-1,2.94,4.34,4.34,0,0,1-2.92.92A1.27,1.27,0,0,0,141,85.6a1.39,1.39,0,0,0,0,.41,4.43,4.43,0,0,1-.32,3.1,1.89,1.89,0,0,1-1.51.71,2.68,2.68,0,0,1-2.18-.57,3.25,3.25,0,0,1-.72-2.28,1.27,1.27,0,0,0-2.53-.2A5.79,5.79,0,0,0,135.26,91a4.8,4.8,0,0,0,3.56,1.34l.62,0a4.4,4.4,0,0,0,3.37-1.75,5.91,5.91,0,0,0,.93-3.7,5.82,5.82,0,0,0,5.16-6.31A5.59,5.59,0,0,0,147.05,76.1Z" transform="translate(-8.18 0)" style="fill:#b8c4e0"/></g></g></g></g></g></g></g></g></g><g id="Groupe_10795" data-name="Groupe 10795"><g id="Groupe_10736" data-name="Groupe 10736"><g id="Groupe_10734" data-name="Groupe 10734"><g id="Groupe_29" data-name="Groupe 29"><path id="Tracé_97" data-name="Tracé 97" d="M88,73.66a7.79,7.79,0,1,0,7.79-7.78A7.79,7.79,0,0,0,88,73.66Z" transform="translate(-8.18 0)" style="fill:none;stroke:#8595ba;stroke-width:2px"/><path id="Tracé_98" data-name="Tracé 98" d="M89.12,71.61a3.06,3.06,0,1,0,3.06-3h0A3.07,3.07,0,0,0,89.12,71.61Z" transform="translate(-8.18 0)" style="fill:#8595ba;stroke:#8595ba;stroke-width:2px"/></g></g><g id="Groupe_10742" data-name="Groupe 10742"><g id="Groupe_29-2" data-name="Groupe 29-2"><path id="Tracé_97-2" data-name="Tracé 97-2" d="M116,73.66a7.79,7.79,0,1,0,7.79-7.78A7.79,7.79,0,0,0,116,73.66Z" transform="translate(-8.18 0)" style="fill:none;stroke:#8595ba;stroke-width:2px"/><path id="Tracé_98-2" data-name="Tracé 98-2" d="M117.69,71.61a3.06,3.06,0,1,0,3.06-3h0A3.07,3.07,0,0,0,117.69,71.61Z" transform="translate(-8.18 0)" style="fill:#8595ba;stroke:#8595ba;stroke-width:2px"/></g></g></g><path id="Tracé_22520" data-name="Tracé 22520" d="M104.42,90.37a11.25,11.25,0,0,0,5.65.78,16.67,16.67,0,0,0,5.89-2.6" transform="translate(-8.18 0)" style="fill:none;stroke:#8595ba;stroke-linecap:round;stroke-linejoin:bevel;stroke-width:7px"/><g id="Groupe_10806" data-name="Groupe 10806"><path id="Tracé_22521" data-name="Tracé 22521" d="M84.39,62.2A5.16,5.16,0,0,1,88,58.72c3-.91,8.36-.15,8.36-.15" transform="translate(-8.18 0)" style="fill:none;stroke:#8595ba;stroke-linecap:round;stroke-linejoin:bevel;stroke-width:2px"/><path id="Tracé_22522" data-name="Tracé 22522" d="M117.36,63.07a5.31,5.31,0,0,1,3-4.3c3-1.61,9-2.17,9-2.17" transform="translate(-8.18 0)" style="fill:none;stroke:#8595ba;stroke-linecap:round;stroke-linejoin:bevel;stroke-width:2px"/></g></g><g id="Groupe_21" data-name="Groupe 21"><circle id="Ellipse_1" data-name="Ellipse 1" cx="53.41" cy="39.62" r="20.87" style="fill:#fff;opacity:0.6000000238418579;isolation:isolate"/><path id="Tracé_54" data-name="Tracé 54" d="M46.62,25.08a21.77,21.77,0,0,1,2.82-2.43L81.5,45.9a20.7,20.7,0,0,1-4.93,8.26c-.17.19-.36.36-.54.54L43.12,29.91A20.84,20.84,0,0,1,46.62,25.08Z" transform="translate(-8.18 0)" style="fill:#fff;opacity:0.6000000238418579;isolation:isolate"/><path id="Tracé_55" data-name="Tracé 55" d="M41.82,32.93,72.67,57.32a20.46,20.46,0,0,1-2.53,1.35L41,36.13A20.52,20.52,0,0,1,41.82,32.93Z" transform="translate(-8.18 0)" style="fill:#fff;opacity:0.6000000238418579;isolation:isolate"/><path id="Tracé_56" data-name="Tracé 56" d="M45.79,55.9a22.69,22.69,0,1,0-.47-32.09A22.69,22.69,0,0,0,45.79,55.9ZM74.88,26a19.06,19.06,0,1,1-27,.4h0A19.09,19.09,0,0,1,74.88,26Z" transform="translate(-8.18 0)" style="fill:#8595ba"/><path id="Tracé_57" data-name="Tracé 57" d="M45.75,53.33,9.17,88.93a3.26,3.26,0,0,0,4.54,4.67l.13-.13L48.35,55.86a1.81,1.81,0,0,0-2.6-2.53Z" transform="translate(-8.18 0)" style="fill:#8595ba"/></g></g></g></g></g></g></g></g></g></g></svg>