<svg id="Calque_1" data-name="Calque 1" xmlns="http://www.w3.org/2000/svg" xmlns:xlink="http://www.w3.org/1999/xlink" viewBox="0 0 13.31 17.85"><defs><radialGradient id="Dégradé_sans_nom" cx="-5123.12" cy="2540.08" r="0.5" gradientTransform="matrix(11.64, 0, 0, -4.47, 59657.71, 11356.32)" gradientUnits="userSpaceOnUse"><stop offset="0" stop-color="#1da2f7"/><stop offset="1" stop-color="#1d62f1"/></radialGradient><radialGradient id="Dégradé_sans_nom_2" cx="-4643.05" cy="2539.76" r="0.5" gradientTransform="matrix(5.83, 0, 0, -4.46, 27077.19, 11349.84)" xlink:href="#Dégradé_sans_nom"/></defs><title>flask</title><g id="flask"><g id="Groupe_10084" data-name="Groupe 10084"><path id="Tracé_22434" data-name="Tracé 22434" d="M13,15.26,8.33,8.12v-7H5v7L.28,15.26a1.65,1.65,0,0,0,.48,2.31,1.58,1.58,0,0,0,.92.28h10a1.66,1.66,0,0,0,1.67-1.68A1.64,1.64,0,0,0,13,15.26Z" transform="translate(0 0)" style="fill:#aeefff"/></g><g id="Groupe_10085" data-name="Groupe 10085"><path id="Tracé_22435" data-name="Tracé 22435" d="M6.66,1.12H5v7L.28,15.26a1.65,1.65,0,0,0,.48,2.31,1.58,1.58,0,0,0,.92.28h5Z" transform="translate(0 0)" style="fill:#4cd7ff"/></g><g id="Groupe_10086" data-name="Groupe 10086"><path id="Tracé_22436" data-name="Tracé 22436" d="M12.34,15.72l-2-3a.28.28,0,0,0-.23-.13H3.22a.28.28,0,0,0-.24.13l-2,3a.84.84,0,0,0,.24,1.16.86.86,0,0,0,.46.14h10a.84.84,0,0,0,.84-.84.86.86,0,0,0-.14-.46Z" transform="translate(0 0)" style="fill:url(#Dégradé_sans_nom)"/></g><g id="Groupe_10087" data-name="Groupe 10087"><path id="Tracé_22437" data-name="Tracé 22437" d="M10.34,12.68a.29.29,0,0,0-.24-.13H6.65V17h5a.85.85,0,0,0,.84-.84.83.83,0,0,0-.14-.46Z" transform="translate(0 0)" style="fill:url(#Dégradé_sans_nom_2)"/></g><g id="Groupe_10088" data-name="Groupe 10088"><path id="Tracé_22438" data-name="Tracé 22438" d="M8.33,1.12H5A.56.56,0,0,1,4.43.56h0A.56.56,0,0,1,5,0H8.33a.56.56,0,0,1,.56.56h0a.56.56,0,0,1-.56.56Z" transform="translate(0 0)" style="fill:#4bb9ec"/></g><g id="Groupe_10089" data-name="Groupe 10089"><circle id="Ellipse_432" data-name="Ellipse 432" cx="4.7" cy="14.51" r="0.56" style="fill:#ff4f19"/></g><g id="Groupe_10090" data-name="Groupe 10090"><circle id="Ellipse_433" data-name="Ellipse 433" cx="9.17" cy="15.06" r="0.56" style="fill:#e3001e"/></g><g id="Groupe_10092" data-name="Groupe 10092"><g id="Groupe_10091" data-name="Groupe 10091"><path id="Tracé_22439" data-name="Tracé 22439" d="M7.5,14.51a.28.28,0,0,1-.2-.08.28.28,0,0,1,0-.4.27.27,0,0,1,.39,0,.28.28,0,0,1,0,.39h0A.27.27,0,0,1,7.5,14.51Z" transform="translate(0 0)" style="fill:#e3001e"/></g></g><g id="Groupe_10094" data-name="Groupe 10094"><g id="Groupe_10093" data-name="Groupe 10093"><path id="Tracé_22440" data-name="Tracé 22440" d="M5.81,11.44a.32.32,0,0,1-.2-.08A.28.28,0,0,1,6,11a.28.28,0,0,1,.08.2.28.28,0,0,1-.27.28Z" transform="translate(0 0)" style="fill:#aeefff"/></g></g><g id="Groupe_10096" data-name="Groupe 10096"><g id="Groupe_10095" data-name="Groupe 10095"><path id="Tracé_22441" data-name="Tracé 22441" d="M7.49,9.21a.25.25,0,0,1-.2-.09.28.28,0,1,1,.39,0,.28.28,0,0,1-.2.08Z" transform="translate(0 0)" style="fill:#4cd7ff"/></g></g><g id="Groupe_10098" data-name="Groupe 10098"><g id="Groupe_10097" data-name="Groupe 10097"><path id="Tracé_22442" data-name="Tracé 22442" d="M5.81,7.25a.32.32,0,0,1-.2-.08A.28.28,0,0,1,5.53,7a.3.3,0,0,1,.08-.2.3.3,0,0,1,.4,0,.27.27,0,0,1,0,.39.27.27,0,0,1-.2.09Z" transform="translate(0 0)" style="fill:#aeefff"/></g></g><g id="Groupe_10100" data-name="Groupe 10100"><g id="Groupe_10099" data-name="Groupe 10099"><path id="Tracé_22443" data-name="Tracé 22443" d="M5.81,16.18a.32.32,0,0,1-.2-.08.28.28,0,0,1,.4-.4.27.27,0,0,1,0,.39.3.3,0,0,1-.2.08Z" transform="translate(0 0)" style="fill:#ff4f19"/></g></g><g id="Groupe_10102" data-name="Groupe 10102"><g id="Groupe_10101" data-name="Groupe 10101"><path id="Tracé_22444" data-name="Tracé 22444" d="M3,15.9a.32.32,0,0,1-.2-.08.28.28,0,0,1,0-.4.3.3,0,0,1,.4,0,.29.29,0,0,1-.2.48Z" transform="translate(0 0)" style="fill:#ff4f19"/></g></g></g></svg>