<svg xmlns="http://www.w3.org/2000/svg" width="58.785" height="58.787" viewBox="0 0 58.785 58.787"><defs><style>.a{fill:#fff;}</style></defs><g transform="translate(-0.159 0.011)"><path class="a" d="M37.18,38a16.31,16.31,0,1,0-11.547-4.791A16.31,16.31,0,0,0,37.18,38Zm0-30.32a14,14,0,1,1-14,14,14,14,0,0,1,14-14Z" transform="translate(0.06 0.04)"/><path class="a" d="M37,43.65a21.85,21.85,0,1,0-18-9.51l-3.57,3.57-.49-.48a1.14,1.14,0,0,0-1.62,0h0L1.72,48.83a5.86,5.86,0,0,0,8.15,8.41,1.591,1.591,0,0,0,.13-.13l11.6-11.6a1.14,1.14,0,0,0,0-1.62l-.49-.49,3.57-3.57A21.77,21.77,0,0,0,37,43.65ZM37,2.3A19.53,19.53,0,1,1,17.48,21.827v0A19.54,19.54,0,0,1,37,2.3ZM8.38,55.49a3.56,3.56,0,0,1-5-5L14.13,39.66l.49.49h0l4.55,4.55ZM19.49,41.77l-2.44-2.43L20.41,36a21.62,21.62,0,0,0,2.44,2.44Z" transform="translate(0.06 0.04)"/><path class="a" d="M33.24,18.63a1.14,1.14,0,0,0,1.15-1.15,2.79,2.79,0,1,1,4.14,2.44A4.8,4.8,0,0,0,36,24.09v1.64a1.15,1.15,0,1,0,2.3,0V24.09a2.53,2.53,0,0,1,1.33-2.17,5.08,5.08,0,1,0-7.56-4.44,1.14,1.14,0,0,0,1.17,1.15Z" transform="translate(0.06 0.04)"/><path class="a" d="M37.17,29.06a1.147,1.147,0,1,0,1.15,1.15,1.13,1.13,0,0,0-1.15-1.15Z" transform="translate(0.06 0.04)"/></g></svg>