<svg xmlns="http://www.w3.org/2000/svg" width="33.606" height="33.996" viewBox="0 0 33.606 33.996"><defs><style>.a{fill:#e70020;}</style></defs><g transform="translate(0)"><path class="a" d="M32.486,15.865H31.323A14.672,14.672,0,0,0,17.923,2.31V1.133a1.12,1.12,0,1,0-2.24,0V2.31a14.672,14.672,0,0,0-13.4,13.555H1.12a1.133,1.133,0,0,0,0,2.266H2.283a14.672,14.672,0,0,0,13.4,13.555v1.176a1.12,1.12,0,1,0,2.24,0V31.687a14.672,14.672,0,0,0,13.4-13.555h1.163a1.133,1.133,0,0,0,0-2.266Zm-16.8,13.547A12.415,12.415,0,0,1,4.532,18.131h6.782a5.651,5.651,0,0,0,4.368,4.419Zm0-9.209a3.4,3.4,0,0,1-2.048-2.072h2.048Zm0-4.338H13.635a3.4,3.4,0,0,1,2.048-2.072Zm0-4.419a5.651,5.651,0,0,0-4.368,4.419H4.532A12.415,12.415,0,0,1,15.683,4.585v6.861Zm2.24,2.347a3.4,3.4,0,0,1,2.048,2.072H17.923Zm0,4.338h2.048A3.4,3.4,0,0,1,17.923,20.2Zm0,11.28V22.55a5.651,5.651,0,0,0,4.368-4.419h6.782A12.415,12.415,0,0,1,17.923,29.412Zm4.368-13.547a5.651,5.651,0,0,0-4.368-4.419V4.585a12.415,12.415,0,0,1,11.151,11.28H22.291Z" transform="translate(0)"/></g></svg>