<svg xmlns="http://www.w3.org/2000/svg" width="26.515" height="26.515" viewBox="0 0 26.515 26.515"><defs><style>.a{fill:#9f9f9f;}</style></defs><path class="a" d="M25.891,10.239,23.853,9.8A11.091,11.091,0,0,0,23.2,8.214l1.128-1.755a.792.792,0,0,0-.106-.989L21.045,2.3a.792.792,0,0,0-.989-.106L18.3,3.318a11.091,11.091,0,0,0-1.582-.656L16.277.624A.792.792,0,0,0,15.5,0h-4.49a.792.792,0,0,0-.774.624L9.8,2.662a11.091,11.091,0,0,0-1.582.656L6.459,2.189A.792.792,0,0,0,5.47,2.3L2.3,5.47a.792.792,0,0,0-.106.989L3.318,8.214A11.091,11.091,0,0,0,2.662,9.8l-2.038.443A.792.792,0,0,0,0,11.013V15.5a.792.792,0,0,0,.624.774l2.038.443A11.091,11.091,0,0,0,3.318,18.3L2.189,20.056a.792.792,0,0,0,.106.989L5.47,24.219a.792.792,0,0,0,.989.106L8.214,23.2a11.091,11.091,0,0,0,1.582.656l.443,2.038a.792.792,0,0,0,.774.624H15.5a.792.792,0,0,0,.774-.624l.443-2.038A11.091,11.091,0,0,0,18.3,23.2l1.755,1.128a.792.792,0,0,0,.989-.106l3.175-3.175a.792.792,0,0,0,.106-.989L23.2,18.3a11.091,11.091,0,0,0,.656-1.582l2.038-.443a.792.792,0,0,0,.624-.774v-4.49A.792.792,0,0,0,25.891,10.239Zm-7.88,3.019A4.754,4.754,0,1,1,13.258,8.5,4.759,4.759,0,0,1,18.011,13.258Zm0,0"/></svg>