<svg xmlns="http://www.w3.org/2000/svg" width="33.417" height="33.417" viewBox="0 0 33.417 33.417"><defs><style>.a{fill:#da2328;}</style></defs><g transform="translate(0 0)"><g transform="translate(0 0)"><path class="a" d="M28.817,8.786,33.13,4.479a.979.979,0,0,0-.692-1.672H30.48V.979A.979.979,0,0,0,28.8.3L24.621,4.612a.979.979,0,0,0-.276.681V7.561a14.664,14.664,0,1,0,1.512,1.512h2.268A.979.979,0,0,0,28.817,8.786ZM23.744,27.738a12.767,12.767,0,1,1-.718-18.73l-1.39,1.39a10.754,10.754,0,1,0,1.384,1.385l1.39-1.39A12.791,12.791,0,0,1,23.744,27.738Zm-9-12a2.93,2.93,0,1,0,2.651,1.67l1.432-1.432a4.887,4.887,0,1,1-1.384-1.385l-1.432,1.432A2.93,2.93,0,0,0,14.744,15.737Zm.978,2.936a.978.978,0,1,1-.978-.978A.975.975,0,0,1,15.722,18.674Zm3.126-5.488a6.844,6.844,0,1,0,1.384,1.385l1.4-1.4a8.8,8.8,0,1,1-1.384-1.385ZM26.3,7.115V5.689L28.522,3.4v.388a.979.979,0,0,0,.979.979h.571L27.72,7.115Z" transform="translate(0 0)"/></g></g></svg>