<svg xmlns="http://www.w3.org/2000/svg" width="24.862" height="22.119" viewBox="0 0 24.862 22.119"><defs><style>.a{fill:#d0021b;}</style></defs><path class="a" d="M22.89,2.165A6.685,6.685,0,0,0,17.917,0,6.254,6.254,0,0,0,14.01,1.348,7.992,7.992,0,0,0,12.431,3a7.988,7.988,0,0,0-1.579-1.649A6.254,6.254,0,0,0,6.945,0,6.686,6.686,0,0,0,1.972,2.165,7.771,7.771,0,0,0,0,7.472a9.254,9.254,0,0,0,2.466,6.057,52.579,52.579,0,0,0,6.173,5.794c.855.729,1.825,1.555,2.831,2.435a1.46,1.46,0,0,0,1.922,0c1.007-.88,1.977-1.707,2.832-2.436A52.555,52.555,0,0,0,22.4,13.529a9.253,9.253,0,0,0,2.466-6.057A7.77,7.77,0,0,0,22.89,2.165Zm0,0"/></svg>