<svg id="Capa_1" data-name="Capa 1" xmlns="http://www.w3.org/2000/svg" viewBox="0 0 512 512"><title>menu (3)</title><path d="M176.79,0H59.21A59.28,59.28,0,0,0,0,59.21V176.79A59.28,59.28,0,0,0,59.21,236H176.79A59.28,59.28,0,0,0,236,176.79V59.21A59.28,59.28,0,0,0,176.79,0ZM196,176.79A19.23,19.23,0,0,1,176.79,196H59.21A19.23,19.23,0,0,1,40,176.79V59.21A19.23,19.23,0,0,1,59.21,40H176.79A19.23,19.23,0,0,1,196,59.21Z" transform="translate(0 0)"/><path d="M452,0H336a60.07,60.07,0,0,0-60,60V176a60.07,60.07,0,0,0,60,60H452a60.07,60.07,0,0,0,60-60V60A60.07,60.07,0,0,0,452,0Zm20,176a20,20,0,0,1-20,20H336a20,20,0,0,1-20-20V60a20,20,0,0,1,20-20H452a20,20,0,0,1,20,20Z" transform="translate(0 0)"/><path d="M176.79,276H59.21A59.28,59.28,0,0,0,0,335.21V452.79A59.28,59.28,0,0,0,59.21,512H176.79A59.28,59.28,0,0,0,236,452.79V335.21A59.28,59.28,0,0,0,176.79,276ZM196,452.79A19.23,19.23,0,0,1,176.79,472H59.21A19.23,19.23,0,0,1,40,452.79V335.21A19.23,19.23,0,0,1,59.21,316H176.79A19.23,19.23,0,0,1,196,335.21Z" transform="translate(0 0)"/><path d="M452,276H336a60.07,60.07,0,0,0-60,60V452a60.07,60.07,0,0,0,60,60H452a60.07,60.07,0,0,0,60-60V336A60.07,60.07,0,0,0,452,276Zm20,176a20,20,0,0,1-20,20H336a20,20,0,0,1-20-20V336a20,20,0,0,1,20-20H452a20,20,0,0,1,20,20Z" transform="translate(0 0)"/></svg>