<svg id="Calque_1" data-name="Calque 1" xmlns="http://www.w3.org/2000/svg" xmlns:xlink="http://www.w3.org/1999/xlink" viewBox="0 0 19.2 18.01"><defs><linearGradient id="Dégradé_sans_nom" x1="-5148.89" y1="3017.63" x2="-5148.89" y2="3016.63" gradientTransform="matrix(12.38, 0, 0, -12.95, 63737.62, 39076.79)" gradientUnits="userSpaceOnUse"><stop offset="0" stop-color="#fec36d"/><stop offset="1" stop-color="#fd8567"/></linearGradient><linearGradient id="Dégradé_sans_nom_2" x1="-4696.52" y1="3017.41" x2="-4696.52" y2="3016.41" gradientTransform="matrix(6.19, 0, 0, -12.94, 29085.19, 39039.28)" xlink:href="#Dégradé_sans_nom"/><linearGradient id="Dégradé_sans_nom_3" x1="-3152" y1="378.91" x2="-3152" y2="377.91" gradientTransform="matrix(2.29, 0, 0, -1.13, 7209.77, 431.9)" xlink:href="#Dégradé_sans_nom"/><linearGradient id="Dégradé_sans_nom_4" x1="-2414.34" y1="3627.95" x2="-2414.34" y2="3626.95" gradientTransform="matrix(1.69, 1.13, 0.62, -0.94, 1810.26, 6116.11)" xlink:href="#Dégradé_sans_nom"/><linearGradient id="Dégradé_sans_nom_5" x1="-434.84" y1="4676.89" x2="-434.84" y2="4675.89" gradientTransform="matrix(0.62, 0.94, 1.69, -1.13, -7601.2, 5673.85)" xlink:href="#Dégradé_sans_nom"/><linearGradient id="Dégradé_sans_nom_6" x1="-3151.99" y1="378.91" x2="-3151.99" y2="377.91" gradientTransform="matrix(2.29, 0, 0, -1.13, 7226.62, 431.9)" xlink:href="#Dégradé_sans_nom"/><linearGradient id="Dégradé_sans_nom_7" x1="-2414.34" y1="3627.95" x2="-2414.34" y2="3626.95" gradientTransform="matrix(1.69, 1.13, 0.62, -0.94, 1826.57, 6121.74)" xlink:href="#Dégradé_sans_nom"/><linearGradient id="Dégradé_sans_nom_8" x1="-434.84" y1="4676.89" x2="-434.84" y2="4675.89" gradientTransform="matrix(0.62, 0.94, 1.69, -1.13, -7617.51, 5679.48)" xlink:href="#Dégradé_sans_nom"/></defs><title>lightbulb (1)</title><path d="M12.42,14.62l-.42.49.42.64V18H6.79V15.75l.49-.52-.49-.6V12.94l2.81-.69,2.82.69Z" transform="translate(0 0.01)" style="fill:#19a2ed"/><path d="M12.41,14.62l-.41.49.41.64V18H9.6V12.25l2.81.69Z" transform="translate(0 0.01)" style="fill:#19a2ed"/><path d="M13.15,11.24a1.64,1.64,0,0,0-.74,1.32v.38H6.79v-.38a1.67,1.67,0,0,0-.74-1.32,6.21,6.21,0,1,1,7.1,0Z" transform="translate(0 0.01)" style="fill:url(#Dégradé_sans_nom)"/><path d="M13.15,11.24a1.67,1.67,0,0,0-.74,1.32v.38H9.6V0a6.18,6.18,0,0,1,3.55,11.24Z" transform="translate(0 0.01)" style="fill:url(#Dégradé_sans_nom_2)"/><path d="M6.79,14.62H9v1.13H6.79Z" transform="translate(0 0.01)" style="fill:#1d8df5"/><path d="M10.16,14.62h2.25v1.13H10.16Z" transform="translate(0 0.01)" style="fill:#1d8df5"/><path d="M9,5.62h1.12V9H9Z" transform="translate(0 0.01)" style="fill:#e6ffff"/><path d="M9,3.37h1.12V4.5H9Z" transform="translate(0 0.01)" style="fill:#e6ffff"/><path d="M0,5.62H2.29V6.75H0Z" transform="translate(0 0.01)" style="fill:url(#Dégradé_sans_nom_3)"/><path d="M.91,2.34,2.6,3.47,2,4.41.29,3.28Z" transform="translate(0 0.01)" style="fill:url(#Dégradé_sans_nom_4)"/><path d="M18.29,2.34l.63.94L17.23,4.41l-.62-.94Z" transform="translate(0 0.01)" style="fill:url(#Dégradé_sans_nom_5)"/><path d="M16.91,5.62H19.2V6.75H16.91Z" transform="translate(0 0.01)" style="fill:url(#Dégradé_sans_nom_6)"/><path d="M17.22,8,18.91,9.1l-.63.94L16.6,8.91Z" transform="translate(0 0.01)" style="fill:url(#Dégradé_sans_nom_7)"/><path d="M2,8l.62.94L.91,10,.29,9.1Z" transform="translate(0 0.01)" style="fill:url(#Dégradé_sans_nom_8)"/><path d="M9.6,3.37h.56V4.5H9.6Z" transform="translate(0 0.01)" style="fill:#d9f2ff"/><path d="M9.6,5.62h.56V9H9.6Z" transform="translate(0 0.01)" style="fill:#d9f2ff"/></svg>