<svg xmlns="http://www.w3.org/2000/svg" width="17.446" height="17.237" viewBox="0 0 17.446 17.237"><defs><style>.a{fill:#fff;}</style></defs><path class="a" d="M5.452,14.241H3.067V6.632H5.452ZM5.69,4.208a1.4,1.4,0,1,0-1.4,1.38A1.389,1.389,0,0,0,5.69,4.208Zm8.689,5.847c0-2.042-.437-3.557-2.852-3.557A2.482,2.482,0,0,0,9.27,7.667h0V6.632H6.951v7.609H9.268V10.463c0-.989.255-1.948,1.5-1.948,1.224,0,1.264,1.131,1.264,2.011v3.715h2.351Zm3.067,5.162V2.02A2.035,2.035,0,0,0,15.4,0H2.044A2.035,2.035,0,0,0,0,2.02v13.2a2.035,2.035,0,0,0,2.044,2.02H15.4A2.035,2.035,0,0,0,17.446,15.217ZM15.4,1.347a.678.678,0,0,1,.681.673v13.2a.678.678,0,0,1-.681.673H2.044a.678.678,0,0,1-.681-.673V2.02a.678.678,0,0,1,.681-.673Zm0,0" transform="translate(0 0)"/></svg>