<svg xmlns="http://www.w3.org/2000/svg" xmlns:xlink="http://www.w3.org/1999/xlink" width="105.718" height="105.718" viewBox="0 0 105.718 105.718"><defs><style>.a{fill:url(#a);}.b{fill:#f8f8f8;}</style><linearGradient id="a" x1="0.874" y1="0.801" x2="0.208" y2="0.207" gradientUnits="objectBoundingBox"><stop offset="0" stop-color="#1da2f7"/><stop offset="1" stop-color="#1d62f1"/></linearGradient></defs><g transform="translate(-103 -38.365)"><path class="a" d="M108.7,29.165l24.6,24.6a28.191,28.191,0,0,1,0,39.934l-24.6,24.6a28.191,28.191,0,0,1-39.934,0l-24.6-24.6a28.191,28.191,0,0,1,0-39.934l24.6-24.6A28.191,28.191,0,0,1,108.7,29.165Z" transform="translate(67.125 17.49)"/><g transform="translate(131.114 62.794)"><path class="b" d="M419.561,105.006c-.243-.357-.287-.443-.433-.66a1.184,1.184,0,0,0,.3-2.347,2.229,2.229,0,0,0-2.515,2.363,3.31,3.31,0,0,0,.687,1.969,2.331,2.331,0,0,1,.5,1.579c0,.925-.352,1.622-4.922,2.385-3.126.508-10.454,3.137-10.454,5.9a1.249,1.249,0,0,0,1.168,1.276,1.082,1.082,0,0,0,1.168-1.082c.416-.844,4.619-3.115,8.507-3.748,2.915-.476,6.906-1.13,6.906-4.716A4.672,4.672,0,0,0,419.561,105.006Z" transform="translate(-374.321 -60.582)"/><path class="b" d="M399.9,59.734c0-1.677-3.456-7.864-5.181-10.849a31.623,31.623,0,0,0,.449-5.711c0-5.051-6.685-17.744-22.477-17.744-15.505,0-22.477,11.763-22.477,20.113,0,5.906,3.488,11.958,6.29,16.814,1.622,2.834,3.175,5.506,3.175,6.847,0,3.012-4.9,8.983-6.782,11.027a1.188,1.188,0,1,0,1.736,1.622c.757-.822,7.415-8.156,7.415-12.634,0-1.974-1.536-4.646-3.488-8.026-2.661-4.619-5.949-10.362-5.949-15.635,0-5.792,4.916-17.744,20.113-17.744,15.046-.022,20.1,12.1,20.1,15.359a26.865,26.865,0,0,1-.481,5.635,1.2,1.2,0,0,0,.124.882c2.38,4.089,5,9.1,5.089,10.032a4.838,4.838,0,0,1-2.612,1.228,1.184,1.184,0,0,0-.882,1.531l.925,2.85L394.32,66a1.184,1.184,0,1,0,1.671,1.671l1.184-1.184a1.184,1.184,0,0,0,.287-1.211l-.79-2.369C398.035,62.433,399.9,61.47,399.9,59.734Z" transform="translate(-350.21 -25.43)"/><path class="b" d="M381.2,66.264l-6.749-6.755V55.756l2.017-2.023a1.184,1.184,0,0,0-1.671-1.671l-2.363,2.363a1.191,1.191,0,0,0-.346.838v4.743a1.191,1.191,0,0,0,.346.838l6.75,6.733V93.116a1.184,1.184,0,0,0,2.363,0V67.1A1.185,1.185,0,0,0,381.2,66.264Z" transform="translate(-360.257 -37.525)"/><path class="b" d="M400.882,62.743H384.819L382.8,60.726a1.184,1.184,0,1,0-1.671,1.671l2.363,2.363a1.19,1.19,0,0,0,.838.346h16.555a1.184,1.184,0,0,0,0-2.363Z" transform="translate(-364.219 -41.451)"/><path class="b" d="M409.88,52.017a1.184,1.184,0,0,0-1.671,0l-2.017,2h-6.609a1.184,1.184,0,0,0,0,2.363h7.1a1.184,1.184,0,0,0,.838-.346l2.363-2.363A1.184,1.184,0,0,0,409.88,52.017Z" transform="translate(-372.374 -37.48)"/><path class="b" d="M401.117,43.267a1.184,1.184,0,0,0-1.671,0l-2.012,2.023h-4.24a1.185,1.185,0,0,0-.838.346L389.992,48a1.184,1.184,0,0,0,1.671,1.671l1.985-2.017h4.24a1.184,1.184,0,0,0,.838-.346l2.363-2.363a1.184,1.184,0,0,0,.027-1.677Z" transform="translate(-368.343 -33.462)"/><path class="b" d="M377.194,41.26,374.831,38.9a1.19,1.19,0,0,0-.838-.346H369.26a1.19,1.19,0,0,0-.838.346l-4.716,4.732a1.189,1.189,0,0,0-.346.838V56.294a1.183,1.183,0,0,0,.346.833l6.755,6.755V87.051a1.184,1.184,0,0,0,2.363,0V63.4a1.185,1.185,0,0,0-.346-.833l-6.766-6.755V44.953l4.04-4.04h3.753l2.023,2.017A1.184,1.184,0,1,0,377.2,41.26Z" transform="translate(-356.248 -31.454)"/><path class="b" d="M376.629,49.49a2.363,2.363,0,1,0,2.358,2.363A2.363,2.363,0,0,0,376.629,49.49Z" transform="translate(-361.253 -36.478)"/><path class="b" d="M405.483,73.9a1.184,1.184,0,0,0-1.671,0l-2.022,2.023h-3.753L396.013,73.9a1.184,1.184,0,0,0-1.671,1.671l2.385,2.363a1.19,1.19,0,0,0,.838.346H402.3a1.184,1.184,0,0,0,.838-.346l2.363-2.363a1.184,1.184,0,0,0-.016-1.677Z" transform="translate(-370.34 -47.527)"/><path class="b" d="M398.36,101.295l-2.023-2.023v-8.48l2.017-2.023A1.184,1.184,0,0,0,396.7,87.1l-2.363,2.363a1.189,1.189,0,0,0-.346.838v9.464a1.189,1.189,0,0,0,.346.838l2.363,2.363a1.184,1.184,0,0,0,1.677-1.671Z" transform="translate(-370.313 -53.632)"/><path class="b" d="M414.179,78.267a1.184,1.184,0,0,0-1.671,0l-9.464,9.464a1.19,1.19,0,0,0-.346.838V93.3a1.184,1.184,0,1,0,2.363,0V89.057l9.118-9.118A1.184,1.184,0,0,0,414.179,78.267Z" transform="translate(-374.31 -49.533)"/><path class="b" d="M398.513,110.73a2.363,2.363,0,1,0,2.364,2.363,2.363,2.363,0,0,0-2.364-2.363Z" transform="translate(-371.305 -64.598)"/><path class="b" d="M415.841,95.767a1.184,1.184,0,0,0-1.671,0l-2.363,2.363a1.19,1.19,0,0,0-.346.838V103.7a1.184,1.184,0,0,0,2.363,0v-4.24l2.017-2.023A1.184,1.184,0,0,0,415.841,95.767Z" transform="translate(-378.335 -57.569)"/><path class="b" d="M407.263,40.74a2.363,2.363,0,1,0,2.363,2.363A2.363,2.363,0,0,0,407.263,40.74Z" transform="translate(-375.322 -32.46)"/></g></g></svg>