<svg id="Calque_1" data-name="Calque 1" xmlns="http://www.w3.org/2000/svg" viewBox="0 0 21.18 19.94"><title>logout</title><g id="logout"><path id="Tracé_22629" data-name="Tracé 22629" d="M14.85,8.63H5.72V6.71L.64,10l5.08,3.27V11.32h9.13Z" transform="translate(0 0)" style="fill:#fee187"/><g id="Groupe_10264" data-name="Groupe 10264"><path id="Tracé_22630" data-name="Tracé 22630" d="M5.72,13.88a.68.68,0,0,1-.35-.1L.3,10.51a.63.63,0,0,1-.19-.88.61.61,0,0,1,.19-.2L5.37,6.17a.64.64,0,0,1,1,.54V8h8.5a.65.65,0,0,1,.64.65h0v2.69a.64.64,0,0,1-.64.64H6.36v1.27a.65.65,0,0,1-.64.65ZM1.83,10l3.24,2.09v-.74a.65.65,0,0,1,.65-.65h8.49V9.27H5.72a.64.64,0,0,1-.65-.64h0V7.89Z" transform="translate(0 0)" style="fill:#ffc61b"/><path id="Tracé_22631" data-name="Tracé 22631" d="M20.54,19.94H5.59A.64.64,0,0,1,5,19.3V16.05a.65.65,0,0,1,1.29,0v2.61H19.9V1.29H6.24v2.6A.65.65,0,1,1,5,3.89V.64A.64.64,0,0,1,5.59,0h15a.65.65,0,0,1,.65.64h0V19.3A.64.64,0,0,1,20.54,19.94Z" transform="translate(0 0)" style="fill:#ffc61b"/></g></g></svg>