<svg id="Calque_1" data-name="Calque 1" xmlns="http://www.w3.org/2000/svg" viewBox="0 0 63.51 59.16"><title>PROFIL-onboarding-Copy</title><g id="PROFIL-onboarding-Copy"><g id="Group-2"><g id="experiences-01"><path id="Path" d="M54.14,27.68c12.44,7.2,12.51,18.86.15,26.06S21.82,61,9.38,53.74-3.14,34.88,9.23,27.68,41.7,20.48,54.14,27.68Z" transform="translate(0 0)" style="fill:#a6f2ff"/><path id="Path-2" d="M48.08,22A.06.06,0,0,1,48,22v0h0a.08.08,0,0,1,0-.09,3,3,0,0,0,.37-.34,0,0,0,0,1,.07,0h0a.09.09,0,0,1,0,.1,2.5,2.5,0,0,1-.38.35Z" transform="translate(0 0)" style="fill:#262c60"/><path id="Shape" d="M27,38.2h0c-.3.08-.6.15-.9.2a.06.06,0,0,1-.06-.06h0a8.63,8.63,0,0,0,.88-.2H27v.06Zm-1.8.31h-.92a.06.06,0,0,1-.06,0v-.06h.9a.06.06,0,0,1,.06.06h0v.05Zm-1.81-.07h0c-.3,0-.61-.11-.9-.18,0,0,0,0,0-.07h.07a8.55,8.55,0,0,0,.88.17.09.09,0,0,1,0,.07h-.05ZM21.61,38h-.05l-.22-.09c-.2-.09-.41-.18-.62-.29a0,0,0,0,1,0-.07h.07l.6.29.22.08a.06.06,0,0,1,0,.08ZM20,37.16h-.06a7.74,7.74,0,0,1-.73-.55,0,0,0,0,1,0-.07h0a.06.06,0,0,1,.08,0h0a5.51,5.51,0,0,0,.73.54.06.06,0,0,1,0,.08ZM18.6,36a0,0,0,0,1-.07,0q-.32-.33-.6-.69a0,0,0,0,1,0-.07h0a.06.06,0,0,1,.08,0h0a5.51,5.51,0,0,0,.6.68,0,0,0,0,1,0,.07h0Zm-1.13-1.4a0,0,0,0,1-.07,0,6.3,6.3,0,0,1-.45-.8.05.05,0,0,1,0-.08.06.06,0,0,1,.08,0h0a7.59,7.59,0,0,0,.44.79v.07h0ZM49,21a.06.06,0,0,1-.07,0,.06.06,0,0,1,0-.07,4,4,0,0,0,.4-.8.06.06,0,0,1,.08,0l0,0h0A4.52,4.52,0,0,1,49,21ZM16.66,33h0a.06.06,0,0,1-.08,0h0c-.08-.25-.17-.52-.26-.85a.09.09,0,0,1,0-.07h.07c.09.32.17.59.26.84h0a.06.06,0,0,1,0,.07Zm33-13.63a.06.06,0,0,1-.08,0h0a4.51,4.51,0,0,0,0-.9h.12a4.69,4.69,0,0,1-.06.92h0ZM16.17,31.2h0a0,0,0,0,1-.07,0c-.08-.31-.16-.6-.23-.88a.06.06,0,0,1,.08,0l0,0c.08.28.16.56.23.88A0,0,0,0,1,16.17,31.2ZM49.55,17.51h0a0,0,0,0,1-.07,0,6.59,6.59,0,0,0-.24-.87,0,0,0,0,1,0-.07h0a.06.06,0,0,1,.08,0,6.74,6.74,0,0,1,.24.88S49.57,17.5,49.55,17.51ZM15.66,29.45h0a.06.06,0,0,1-.08,0l-.06-.16a5,5,0,0,0-.31-.66.06.06,0,0,1,.08-.08h0a5,5,0,0,1,.32.66.18.18,0,0,0,.07.17.09.09,0,0,1,0,.07ZM49,15.79h-.08c-.13-.27-.27-.54-.42-.8v-.08a0,0,0,0,1,.07,0h0c.16.28.3.54.43.81a0,0,0,0,1,0,.07ZM14.75,27.88a0,0,0,0,1-.07,0,6.25,6.25,0,0,0-.64-.62.06.06,0,0,1,0-.08h.07a5,5,0,0,1,.66.64.06.06,0,0,1,0,.08h0Zm33.3-13.67a0,0,0,0,1-.07,0l-.3-.45-.21-.31a0,0,0,0,1,0-.07.06.06,0,0,1,.08,0h0l.21.31q.16.22.3.45a.06.06,0,0,1,0,.08h0ZM13.38,26.7a.06.06,0,0,1-.06,0l-.77-.48a.05.05,0,0,1,0-.08.06.06,0,0,1,.08,0h0l.77.49v.08h0ZM47,12.71a0,0,0,0,1-.07,0c-.21-.31-.37-.54-.51-.76a0,0,0,0,1,0-.07h.07l.5.76v.07Zm-35.21,13h0L11,25.27a0,0,0,0,1,0-.07h.08c.22.15.45.3.78.49v.07h0ZM46,11.18a0,0,0,0,1-.07,0c-.15-.28-.3-.54-.42-.8a.05.05,0,0,1,0-.08,0,0,0,0,1,.07,0h0c.12.26.26.52.42.8v.07ZM10.32,24.73h-.06a8,8,0,0,1-.66-.64.06.06,0,0,1,0-.08h.07a4.16,4.16,0,0,0,.64.62.06.06,0,0,1,0,.08h0Zm35-15.19h0a0,0,0,0,1-.07,0A6.28,6.28,0,0,1,45,8.67s0-.06.05-.07h.06c.08.31.17.6.26.87a0,0,0,0,1,0,.07ZM9.15,23.35H9.08a2.65,2.65,0,0,1-.23-.48c0-.12-.09-.24-.13-.37s0-.06,0-.07h.07a2.6,2.6,0,0,0,.13.36,3.88,3.88,0,0,0,.22.46v.1ZM44.81,7.78h-.06c-.06-.31-.12-.61-.17-.89a.06.06,0,0,1,0-.06h.06a5.38,5.38,0,0,0,.17.89A.06.06,0,0,1,44.81,7.78ZM8.61,21.63h0a.06.06,0,0,1-.06,0h0a7.06,7.06,0,0,1,0-.92.06.06,0,0,1,.06-.05v.05a6.76,6.76,0,0,0,0,.9,0,0,0,0,1,0,.07ZM44.48,6h-.07c-.07-.35-.12-.63-.18-.89a0,0,0,0,1,0-.07h.07c.06.26.12.54.18.89A.09.09,0,0,1,44.48,6ZM8.68,19.82a.06.06,0,0,1-.08,0h0a6.74,6.74,0,0,1,.24-.88.06.06,0,0,1,.08,0,0,0,0,0,1,0,.07H9a6.59,6.59,0,0,0-.24.87ZM44.07,4.22h0a0,0,0,0,1-.07,0h0c-.09-.3-.19-.59-.3-.86a0,0,0,0,1,0-.07h0a0,0,0,0,1,.07,0c.12.29.22.58.31.87a0,0,0,0,1,0,.07ZM9.28,18.11H9.21c.14-.25.29-.5.45-.73v-.05a0,0,0,0,1,.07,0h0a.09.09,0,0,1,0,.07h0v.05a5.16,5.16,0,0,0-.43.71h0Zm1.06-1.48h-.07v-.06q.32-.33.66-.63a0,0,0,0,1,0,0,0,0,0,0,1,.06,0A.05.05,0,0,1,11,16c-.23.2-.44.41-.65.63Zm13.33-5.44a0,0,0,0,1-.07,0,.09.09,0,0,1,0-.07l.83-.37a0,0,0,0,1,.07,0h0a.06.06,0,0,1,0,.08h0l-.83.37Zm-.84.33h0l-.83.3h0a0,0,0,0,1-.07-.07h0l.82-.29a.09.09,0,0,1,.07,0v.06Zm2.49-1.12a0,0,0,0,1-.07,0v-.06c.27-.14.53-.29.79-.44a.06.06,0,0,1,.08,0,0,0,0,0,1,0,.07h0c-.26.16-.53.3-.8.44ZM21.1,12.1h0l-.88.25a.06.06,0,0,1,0-.08l0,0h0L21.1,12a.08.08,0,0,1,.07,0h0a.06.06,0,0,1,0,.06Zm-1.76.47h0l-.62.15-.26.07a.06.06,0,0,1-.08,0,0,0,0,0,1,0-.07h0l.26-.07.62-.15h.07v.06Zm7.55-3.09a.05.05,0,0,1-.08,0,.05.05,0,0,1,0-.08h0c.26-.15.51-.33.76-.5h.08a.06.06,0,0,1,0,.08l-.75.5ZM11.72,15.43h-.08a.06.06,0,0,1,0-.08c.24-.17.5-.33.77-.5a.06.06,0,0,1,.08,0v.07c-.27.16-.52.33-.76.5ZM43.38,2.53h-.07a7.52,7.52,0,0,0-.5-.75.06.06,0,0,1,0-.08,0,0,0,0,1,.07,0h0a4.83,4.83,0,0,1,.5.77,0,0,0,0,1,0,.07h0ZM17.57,13h0l-.88.23a0,0,0,0,1-.07,0,.09.09,0,0,1,0-.07h0l.88-.24a.08.08,0,0,1,.07,0v0ZM28.39,8.45a.05.05,0,0,1-.08,0,.05.05,0,0,1,0-.08h0L29,7.79a.07.07,0,0,1,.08,0,0,0,0,0,1,0,0h0l-.71.56ZM15.83,13.52h0l-.44.14L15,13.8a.05.05,0,1,1,0-.1h0l.42-.15.45-.15h.07a.09.09,0,0,1,0,.07Zm-2.54,1h-.06v0c.26-.14.54-.26.83-.39h.07a0,0,0,0,1,0,.07l-.82.38ZM29.78,7.29h-.07a.06.06,0,0,1,0-.06l.66-.62a.06.06,0,0,1,.08,0,.09.09,0,0,1,0,.07C30.23,6.89,30,7.1,29.78,7.29ZM31.08,6H31l.62-.68a.06.06,0,0,1,.08,0,0,0,0,0,1,0,.07h0l-.59.6h0ZM42.25,1.11h-.06a4.24,4.24,0,0,0-.65-.46L41.46.59a0,0,0,0,1,0-.07.06.06,0,0,1,.08,0h0l.09,0a5.14,5.14,0,0,1,.67.48.06.06,0,0,1,0,.08h0Zm-10,3.55a0,0,0,0,1-.07,0V4.6l.06-.07.53-.62a.05.05,0,0,1,.08,0,0,0,0,0,1,0,0l-.54.62-.06.07ZM33.46,3.3a.06.06,0,0,1-.08,0V3.24c.23-.25.44-.46.64-.66a.06.06,0,0,1,.08,0v.07c-.2.2-.41.41-.63.65h0Zm7.16-3h0a4.4,4.4,0,0,0-.88-.16.06.06,0,0,1,0-.06h0a4.67,4.67,0,0,1,.91.15.06.06,0,0,1,0,.08h0ZM34.81,2a0,0,0,0,1-.07,0h0a.06.06,0,0,1,0-.08c.23-.2.47-.38.72-.56h.07v.07c-.23.17-.47.36-.7.56Zm4-1.9h0a5.33,5.33,0,0,0-.81.2.06.06,0,0,1-.08,0,.06.06,0,0,1,0-.08,0,0,0,0,1,0,0h0A5.3,5.3,0,0,1,38.9,0S39,0,39,0v0a0,0,0,0,1,0,.05ZM36.28,1a0,0,0,0,1-.07,0,.06.06,0,0,1,0-.06A7.77,7.77,0,0,1,37,.52h0a.06.06,0,0,1,0,.08l0,0h0A7,7,0,0,0,36.3,1Z" transform="translate(0 0)" style="fill:#262c60"/><path id="Path-3" d="M28,38h-.07v0h0l.37-.14h.06L28,38Z" transform="translate(0 0)" style="fill:#262c60"/><path id="Path-4" d="M36.12,38.21h0c-.62-.39-1.64.24-2.27,1.4A3,3,0,0,0,33.46,41a1,1,0,0,0,.38.91c.41.26,1.07-.16,1.48-.92a2.07,2.07,0,0,0,.25-.91.69.69,0,0,0-.25-.6.48.48,0,0,0-.5,0,1.54,1.54,0,0,0-.66,1.17.48.48,0,0,0,.17.4c.19.12.48-.07.67-.41a.88.88,0,0,0,.11-.42A.32.32,0,0,0,35,40a.24.24,0,0,0-.23,0,.67.67,0,0,0-.23.27.62.62,0,0,0-.09.29.22.22,0,0,0,.09.19.11.11,0,0,0,.1-.06c0-.06,0-.05,0-.07v-.05a.09.09,0,0,1,0-.1.17.17,0,0,1,0-.14.37.37,0,0,1,.13-.15.15.15,0,0,1,.13,0,.21.21,0,0,1,.07.18.6.6,0,0,1-.07.27c-.13.24-.34.37-.47.29a.34.34,0,0,1-.13-.3,1.06,1.06,0,0,1,.13-.46c.22-.41.57-.63.79-.49a.57.57,0,0,1,.21.5,1.66,1.66,0,0,1-.21.76c-.35.66-.93,1-1.29.8a.94.94,0,0,1-.34-.81,2.67,2.67,0,0,1,.34-1.23C34.5,38.6,35.43,38,36,38.39a.11.11,0,0,0,.1-.06A.11.11,0,0,0,36.12,38.21Z" transform="translate(0 0)" style="fill:#fff"/><path id="Path-5" d="M24.13,36.47h0" transform="translate(0 0)" style="fill:none"/></g><g id="linkedin"><path id="Path-6" d="M44.82,13.71,24.34,1.83A3.29,3.29,0,0,0,21,1.51L15.24,4.88h0a3.27,3.27,0,0,0-1.36,3l-.07,23.64a10.25,10.25,0,0,0,4.64,8.07L38.94,51.46a3.2,3.2,0,0,0,3.38.28l-.07,0L48,48.41a3.27,3.27,0,0,0,1.36-3l.07-23.63A10.28,10.28,0,0,0,44.82,13.71Z" transform="translate(0 0)" style="fill:#005ecf"/><g id="Group"><path id="Path-7" d="M48,48.24,42.23,51.6a3.27,3.27,0,0,0,1.36-3l5.76-3.36A3.24,3.24,0,0,1,48,48.24Z" transform="translate(0 0)" style="fill:#016ef1"/><g id="Path-8"><path id="Tracé_23933" data-name="Tracé 23933" d="M15.31,4.87l5.77-3.36a3.26,3.26,0,0,1,3.31.32L18.62,5.19A3.28,3.28,0,0,0,15.31,4.87Z" transform="translate(0 0)" style="fill:#2487ff"/><path id="Tracé_23934" data-name="Tracé 23934" d="M43.69,25.06l5.76-3.36-.06,23.55-5.77,3.36Z" transform="translate(0 0)" style="fill:#2487ff"/></g><path id="Path-9" d="M18.62,5.19l5.77-3.36L44.82,13.66,39.06,17Z" transform="translate(0 0)" style="fill:#59a4ff"/><path id="Path-10" d="M39.05,17l5.77-3.36a10.23,10.23,0,0,1,4.63,8L43.68,25A10.25,10.25,0,0,0,39.05,17Z" transform="translate(0 0)" style="fill:#9bc9fd"/></g><g id="Group-2-2"><path id="Shape-2" d="M19.45,34.09V19.68l4,2.3V36.39l-3.92-2.25m10.16-6.62h.05c.53-.84,1.81-1.3,3.71-.2,4,2.28,4.69,5.68,4.67,9.56v7.9l-3.91-2.25v-7c0-1.67,0-3.84-2-5s-2.36.47-2.36,2.35V40L25.9,37.76V23.35l3.76,2.16v2m-8.15-8.63A5,5,0,0,1,19.2,15c0-1.44,1-2,2.27-1.29a4.92,4.92,0,0,1,2.26,3.9c0,1.43-1,2-2.27,1.29" transform="translate(0 0)" style="fill:#0065a1"/><g id="Groupe_11795" data-name="Groupe 11795"><path id="Shape-3" d="M23.41,22l-3.92-2.3V34.09l3.92,2.25V21.93m-1.94-8.28c-1.25-.73-2.27-.15-2.27,1.28a4.92,4.92,0,0,0,2.26,3.9c1.25.72,2.27.15,2.27-1.29a5,5,0,0,0-2.26-3.89" transform="translate(0 0)" style="fill:#fff"/><path id="Path-11" d="M33.37,27.3c-1.9-1.1-3.18-.64-3.71.2h-.05v-2l-3.76-2.16V37.75L29.73,40V32.86c0-1.88.32-3.52,2.36-2.35s2,3.32,2,5v7L38,44.76v-7.9c0-3.88-.71-7.28-4.67-9.56" transform="translate(0 0)" style="fill:#fff"/></g></g></g></g></g></svg>