<svg id="Calque_1" data-name="Calque 1" xmlns="http://www.w3.org/2000/svg" xmlns:xlink="http://www.w3.org/1999/xlink" viewBox="0 0 105.71 105.71"><defs><linearGradient id="Dégradé_sans_nom" x1="-5505.56" y1="3281.53" x2="-5506.22" y2="3282.12" gradientTransform="matrix(105.71, 0, 0, -105.71, 582104.6, 346989.9)" gradientUnits="userSpaceOnUse"><stop offset="0" stop-color="#1da2f7"/><stop offset="1" stop-color="#1d62f1"/></linearGradient></defs><title>Groupe 9908</title><g id="Groupe_9908" data-name="Groupe 9908"><path id="Tracé_20771" data-name="Tracé 20771" d="M72.82,8.29l24.61,24.6a28.2,28.2,0,0,1,.06,39.87l-.06.06-24.6,24.6A28.19,28.19,0,0,1,33,97.49l-.07-.07L8.29,72.82A28.17,28.17,0,0,1,8.23,33l.06-.07,24.6-24.6a28.19,28.19,0,0,1,39.87-.07Z" transform="translate(0 0)" style="fill:url(#Dégradé_sans_nom)"/><g id="Calque_2" data-name="Calque 2"><path id="Tracé_390" data-name="Tracé 390" d="M73.35,68.85c-.24-.35-.28-.44-.43-.66a1.18,1.18,0,0,0,.3-2.34,2.22,2.22,0,0,0-2.5,1.91,2.26,2.26,0,0,0,0,.45,3.35,3.35,0,0,0,.68,2,2.27,2.27,0,0,1,.5,1.58c0,.92-.35,1.62-4.92,2.38-3.13.51-10.45,3.14-10.45,5.9a1.25,1.25,0,0,0,1.16,1.28,1.09,1.09,0,0,0,1.17-1v-.09c.42-.85,4.62-3.12,8.51-3.75,2.91-.48,6.91-1.13,6.91-4.72A4.66,4.66,0,0,0,73.35,68.85Z" transform="translate(0 0)" style="fill:#f8f8f8"/><path id="Tracé_391" data-name="Tracé 391" d="M77.8,58.73c0-1.67-3.45-7.86-5.18-10.85a30.27,30.27,0,0,0,.45-5.71c0-5.05-6.68-17.74-22.47-17.74-15.51,0-22.48,11.76-22.48,20.11,0,5.91,3.49,12,6.29,16.82,1.62,2.83,3.17,5.5,3.17,6.84,0,3-4.9,9-6.78,11a1.19,1.19,0,1,0,1.72,1.64l0,0C33.29,80,40,72.7,40,68.22c0-2-1.53-4.65-3.49-8-2.66-4.62-5.95-10.36-5.95-15.63,0-5.8,4.92-17.75,20.12-17.75,15,0,20.1,12.1,20.1,15.36a26.7,26.7,0,0,1-.48,5.64,1.18,1.18,0,0,0,.12.88c2.38,4.09,5,9.1,5.09,10A4.88,4.88,0,0,1,72.85,60a1.19,1.19,0,0,0-.92,1.4.65.65,0,0,0,0,.13l.92,2.85-.67.67a1.19,1.19,0,0,0,1.57,1.78l.11-.11,1.18-1.18a1.2,1.2,0,0,0,.29-1.22l-.79-2.36C75.94,61.43,77.8,60.47,77.8,58.73Z" transform="translate(0 0)" style="fill:#f8f8f8"/><path id="Tracé_392" data-name="Tracé 392" d="M49.06,53.17l-6.75-6.76V42.66l2-2A1.19,1.19,0,0,0,42.65,39l-2.36,2.36a1.18,1.18,0,0,0-.34.84v4.74a1.2,1.2,0,0,0,.34.84L47,54.48V80a1.18,1.18,0,0,0,2.36,0V54A1.17,1.17,0,0,0,49.06,53.17Z" transform="translate(0 0)" style="fill:#f8f8f8"/><path id="Tracé_393" data-name="Tracé 393" d="M64.78,45.72H48.71l-2-2a1.18,1.18,0,1,0-1.77,1.57l.1.1,2.37,2.37a1.18,1.18,0,0,0,.84.34H64.78a1.18,1.18,0,0,0,0-2.36Z" transform="translate(0 0)" style="fill:#f8f8f8"/><path id="Tracé_394" data-name="Tracé 394" d="M65.62,39A1.18,1.18,0,0,0,64,39l-2,2H55.32a1.18,1.18,0,0,0,0,2.36h7.1a1.19,1.19,0,0,0,.84-.35l2.36-2.36A1.18,1.18,0,0,0,65.62,39Z" transform="translate(0 0)" style="fill:#f8f8f8"/><path id="Tracé_395" data-name="Tracé 395" d="M60.89,34.23a1.18,1.18,0,0,0-1.67,0l-2,2H53a1.18,1.18,0,0,0-.84.34L49.76,39a1.18,1.18,0,0,0,1.67,1.67l2-2h4.24a1.18,1.18,0,0,0,.84-.35l2.36-2.36a1.18,1.18,0,0,0,0-1.67Z" transform="translate(0 0)" style="fill:#f8f8f8"/><path id="Tracé_396" data-name="Tracé 396" d="M49.06,34.23,46.7,31.87a1.21,1.21,0,0,0-.84-.34H41.13a1.18,1.18,0,0,0-.84.34l-4.72,4.74a1.17,1.17,0,0,0-.34.83V49.27a1.17,1.17,0,0,0,.34.83l6.76,6.76V80a1.18,1.18,0,0,0,2.36,0V56.37a1.18,1.18,0,0,0-.35-.83l-6.76-6.75V37.93l4-4h3.75l2,2a1.18,1.18,0,1,0,1.78-1.56l-.1-.11Z" transform="translate(0 0)" style="fill:#f8f8f8"/><path id="Tracé_397" data-name="Tracé 397" d="M43.49,37.44a2.37,2.37,0,1,0,2.36,2.37h0A2.36,2.36,0,0,0,43.49,37.44Z" transform="translate(0 0)" style="fill:#f8f8f8"/><path id="Tracé_398" data-name="Tracé 398" d="M63.26,50.8a1.18,1.18,0,0,0-1.67,0l-2,2H55.81l-2-2a1.19,1.19,0,0,0-1.67.11,1.16,1.16,0,0,0,0,1.56l2.38,2.37a1.18,1.18,0,0,0,.84.34h4.73a1.18,1.18,0,0,0,.84-.34l2.37-2.37a1.18,1.18,0,0,0,0-1.67Z" transform="translate(0 0)" style="fill:#f8f8f8"/><path id="Tracé_399" data-name="Tracé 399" d="M56.16,72.09l-2-2V61.59l2-2A1.18,1.18,0,0,0,54.5,57.9l-2.36,2.36a1.19,1.19,0,0,0-.35.84v9.46a1.19,1.19,0,0,0,.35.84l2.36,2.36a1.19,1.19,0,0,0,1.68,0,1.2,1.2,0,0,0,0-1.64Z" transform="translate(0 0)" style="fill:#f8f8f8"/><path id="Tracé_400" data-name="Tracé 400" d="M68,53.16a1.18,1.18,0,0,0-1.67,0l-9.46,9.47a1.18,1.18,0,0,0-.35.83V68.2a1.19,1.19,0,0,0,2.37.15V64L68,54.83A1.18,1.18,0,0,0,68,53.16Z" transform="translate(0 0)" style="fill:#f8f8f8"/><path id="Tracé_401" data-name="Tracé 401" d="M55.32,70.56a2.37,2.37,0,1,0,2.37,2.36,2.36,2.36,0,0,0-2.37-2.36Z" transform="translate(0 0)" style="fill:#f8f8f8"/><path id="Tracé_402" data-name="Tracé 402" d="M65.62,62.63a1.18,1.18,0,0,0-1.67,0L61.59,65a1.15,1.15,0,0,0-.35.84v4.73a1.18,1.18,0,0,0,2.36,0V66.32l2-2A1.18,1.18,0,0,0,65.62,62.63Z" transform="translate(0 0)" style="fill:#f8f8f8"/><path id="Tracé_403" data-name="Tracé 403" d="M60.06,32.71a2.36,2.36,0,1,0,2.36,2.36,2.37,2.37,0,0,0-2.36-2.36Z" transform="translate(0 0)" style="fill:#f8f8f8"/></g></g></svg>