<svg xmlns="http://www.w3.org/2000/svg" width="20.423" height="16.389" viewBox="0 0 20.423 16.389"><defs><style>.a{fill:#fff;}</style></defs><path class="a" d="M.992,12.815a1.776,1.776,0,0,0,.486.156l-.264.372a.589.589,0,0,0-.1.252L.719,16.211a.588.588,0,0,0,.249.571.6.6,0,0,0,.628.036l2.217-1.186a1.806,1.806,0,0,0,2.768.465,1.8,1.8,0,0,0,2.992-1.321v-.226a8.327,8.327,0,0,0,3.59.817,8.417,8.417,0,0,0,3.67-.837v1.429a.59.59,0,0,0,.284.5.6.6,0,0,0,.582.026L20.092,15.3a.591.591,0,0,0,.331-.529V7.681a.6.6,0,0,0-.6-.591h-4.13L11.474,5.049l1.6-2.263a.587.587,0,0,0-.147-.823L10.97.606a.6.6,0,0,0-.833.145L8.015,3.746a1.805,1.805,0,0,0-1.453-.093l-2.277.977a1.783,1.783,0,0,0-.8.675L.219,10.382a1.732,1.732,0,0,0-.128,1.407A1.769,1.769,0,0,0,.992,12.815Zm1.087,2.4.2-1.308.535-.755a2.4,2.4,0,0,0,.907.782l-.462.651Zm3.306.152a.6.6,0,0,1-.6-.591v-.289l.214-.3h.982v.591A.6.6,0,0,1,5.384,15.367Zm2.393,0a.6.6,0,0,1-.6-.591v-.591h1.2v.591A.6.6,0,0,1,7.778,15.367Zm11.448-.957L18.03,15V8.272h1.2Zm-3.933-6.2a.605.605,0,0,0,.263.06h1.276V13.22a7.932,7.932,0,0,1-3.67.965,8.15,8.15,0,0,1-3.921-1.12A.611.611,0,0,0,8.975,13H4.786A1.193,1.193,0,0,1,3.6,11.959a.584.584,0,0,0,0-.258,1.193,1.193,0,0,1,1.191-1.064H8.479a4.682,4.682,0,0,0,3.312-1.356.586.586,0,0,0,0-.836.6.6,0,0,0-.846,0A3.486,3.486,0,0,1,8.479,9.455H8.352L10.779,6.03ZM9.4,3.851l.98.678L6.891,9.455H5.43Zm1.373-1.937.98.678-.687.969-.98-.678ZM1.248,10.986,4.5,5.939a.594.594,0,0,1,.267-.225l2.248-.965a.608.608,0,0,1,.3-.01L3.829,9.652a2.376,2.376,0,0,0-1.407,1.8.692.692,0,0,1-.895.3A.588.588,0,0,1,1.248,10.986Zm0,0" transform="translate(0 -0.5)"/></svg>