<svg id="Calque_1" data-name="Calque 1" xmlns="http://www.w3.org/2000/svg" viewBox="0 0 142.87 187.1"><title>medal2</title><g id="Groupe_10215" data-name="Groupe 10215"><g id="Groupe_10191" data-name="Groupe 10191"><g id="Groupe_55" data-name="Groupe 55"><g id="Groupe_38" data-name="Groupe 38"><path id="Tracé_58-2" data-name="Tracé 58-2" d="M106.22,187.1,74.07,170.46,38.36,187.1V76.38h67.86Z" transform="translate(0 0)" style="fill:#3598db"/><path id="Tracé_59-2" data-name="Tracé 59-2" d="M54.43,76.38H38.36V187.1l16.07-7.49Z" transform="translate(0 0)" style="fill:#1c6d9b"/><path id="Tracé_60-2" data-name="Tracé 60-2" d="M91.63,179.55l14.59,7.55V76.38H91.63Z" transform="translate(0 0)" style="fill:#1c6d9b"/></g><g id="Groupe_54" data-name="Groupe 54"><g id="Groupe_51" data-name="Groupe 51"><g id="Groupe_39" data-name="Groupe 39"><rect id="Rectangle_38" data-name="Rectangle 38" x="56.89" width="29.08" height="31.63" style="fill:#ec4d44"/><rect id="Rectangle_39" data-name="Rectangle 39" x="81.64" width="4.34" height="31.63" style="fill:#d93539"/><rect id="Rectangle_40" data-name="Rectangle 40" x="56.89" width="4.59" height="31.63" style="fill:#d93539"/></g><g id="Groupe_40" data-name="Groupe 40"><rect id="Rectangle_41" data-name="Rectangle 41" x="56.89" y="111.23" width="29.08" height="31.63" style="fill:#ec4d44"/><rect id="Rectangle_42" data-name="Rectangle 42" x="81.64" y="111.23" width="4.34" height="31.63" style="fill:#d93539"/><rect id="Rectangle_43" data-name="Rectangle 43" x="56.89" y="111.23" width="4.59" height="31.63" style="fill:#d93539"/></g><g id="Groupe_41" data-name="Groupe 41"><rect id="Rectangle_44" data-name="Rectangle 44" y="56.89" width="31.63" height="29.08" style="fill:#ec4d44"/><rect id="Rectangle_45" data-name="Rectangle 45" y="56.89" width="31.63" height="4.34" style="fill:#d93539"/><rect id="Rectangle_46" data-name="Rectangle 46" y="81.38" width="31.63" height="4.59" style="fill:#d93539"/></g><g id="Groupe_42" data-name="Groupe 42"><rect id="Rectangle_47" data-name="Rectangle 47" x="111.23" y="56.89" width="31.63" height="29.08" style="fill:#ec4d44"/><rect id="Rectangle_48" data-name="Rectangle 48" x="111.23" y="56.89" width="31.63" height="4.34" style="fill:#d93539"/><rect id="Rectangle_49" data-name="Rectangle 49" x="111.23" y="81.38" width="31.63" height="4.59" style="fill:#d93539"/></g><g id="Groupe_43" data-name="Groupe 43"><rect id="Rectangle_50" data-name="Rectangle 50" x="8.73" y="27.81" width="29.08" height="31.63" transform="translate(-26.15 41.96) rotate(-60)" style="fill:#ec4d44"/><rect id="Rectangle_51" data-name="Rectangle 51" x="27.29" y="17.09" width="4.34" height="31.63" transform="translate(-13.77 41.96) rotate(-60)" style="fill:#d93539"/><rect id="Rectangle_52" data-name="Rectangle 52" x="14.85" y="38.41" width="4.59" height="31.63" transform="translate(-38.39 41.97) rotate(-60)" style="fill:#d93539"/></g><g id="Groupe_44" data-name="Groupe 44"><rect id="Rectangle_53" data-name="Rectangle 53" x="105.06" y="83.42" width="29.08" height="31.63" transform="translate(-26.15 153.19) rotate(-60)" style="fill:#ec4d44"/><rect id="Rectangle_54" data-name="Rectangle 54" x="123.62" y="72.71" width="4.34" height="31.63" transform="translate(-13.77 153.19) rotate(-60)" style="fill:#d93539"/><rect id="Rectangle_55" data-name="Rectangle 55" x="111.18" y="94.03" width="4.59" height="31.63" transform="translate(-38.39 153.2) rotate(-60)" style="fill:#d93539"/></g><g id="Groupe_45" data-name="Groupe 45"><rect id="Rectangle_56" data-name="Rectangle 56" x="29.08" y="7.45" width="29.08" height="31.63" transform="translate(-5.79 24.93) rotate(-30)" style="fill:#ec4d44"/><rect id="Rectangle_57" data-name="Rectangle 57" x="52.17" y="1.26" width="4.34" height="31.63" transform="translate(-1.26 29.46) rotate(-30)" style="fill:#d93539"/><rect id="Rectangle_58" data-name="Rectangle 58" x="30.72" y="13.57" width="4.59" height="31.63" transform="translate(-10.27 20.45) rotate(-30)" style="fill:#d93539"/></g><g id="Groupe_46" data-name="Groupe 46"><rect id="Rectangle_59" data-name="Rectangle 59" x="84.7" y="103.78" width="29.08" height="31.63" transform="translate(-46.5 65.64) rotate(-30)" style="fill:#ec4d44"/><rect id="Rectangle_60" data-name="Rectangle 60" x="107.79" y="97.59" width="4.34" height="31.64" transform="translate(-41.97 70.17) rotate(-30)" style="fill:#d93539"/><rect id="Rectangle_61" data-name="Rectangle 61" x="86.34" y="109.9" width="4.59" height="31.63" transform="translate(-50.98 61.16) rotate(-30)" style="fill:#d93539"/></g><g id="Groupe_47" data-name="Groupe 47"><rect id="Rectangle_62" data-name="Rectangle 62" x="7.45" y="84.7" width="31.63" height="29.08" transform="translate(-46.5 24.93) rotate(-30)" style="fill:#ec4d44"/><rect id="Rectangle_63" data-name="Rectangle 63" x="1.26" y="86.36" width="31.63" height="4.34" transform="translate(-41.98 20.4) rotate(-30)" style="fill:#d93539"/><rect id="Rectangle_64" data-name="Rectangle 64" x="13.57" y="107.55" width="31.63" height="4.59" transform="translate(-50.98 29.41) rotate(-30)" style="fill:#d93539"/></g><g id="Groupe_48" data-name="Groupe 48"><rect id="Rectangle_65" data-name="Rectangle 65" x="103.78" y="29.09" width="31.63" height="29.08" transform="translate(-5.79 65.64) rotate(-30)" style="fill:#ec4d44"/><rect id="Rectangle_66" data-name="Rectangle 66" x="97.59" y="30.74" width="31.63" height="4.34" transform="translate(-1.26 61.12) rotate(-30)" style="fill:#d93539"/><rect id="Rectangle_67" data-name="Rectangle 67" x="109.9" y="51.94" width="31.63" height="4.59" transform="translate(-10.27 70.12) rotate(-30)" style="fill:#d93539"/></g><g id="Groupe_49" data-name="Groupe 49"><rect id="Rectangle_68" data-name="Rectangle 68" x="27.81" y="105.06" width="31.63" height="29.08" transform="translate(-81.76 97.58) rotate(-60)" style="fill:#ec4d44"/><rect id="Rectangle_69" data-name="Rectangle 69" x="17.09" y="111.24" width="31.64" height="4.34" transform="translate(-81.76 85.21) rotate(-60)" style="fill:#d93539"/><rect id="Rectangle_70" data-name="Rectangle 70" x="38.41" y="123.42" width="31.64" height="4.59" transform="translate(-81.76 109.83) rotate(-60)" style="fill:#d93539"/></g><g id="Groupe_50" data-name="Groupe 50"><rect id="Rectangle_71" data-name="Rectangle 71" x="83.42" y="8.73" width="31.63" height="29.08" transform="translate(29.47 97.58) rotate(-60)" style="fill:#ec4d44"/><rect id="Rectangle_72" data-name="Rectangle 72" x="72.71" y="14.91" width="31.63" height="4.34" transform="translate(29.47 85.21) rotate(-60)" style="fill:#d93539"/><rect id="Rectangle_73" data-name="Rectangle 73" x="94.03" y="27.1" width="31.63" height="4.59" transform="translate(29.46 109.82) rotate(-60)" style="fill:#d93539"/></g></g><g id="Groupe_52" data-name="Groupe 52"><path id="Tracé_61" data-name="Tracé 61" d="M71,15.56a57.25,57.25,0,1,0,57.25,57.25A57.25,57.25,0,0,0,71,15.56Z" transform="translate(0 0)" style="fill:#ffd869"/><path id="Tracé_62-2" data-name="Tracé 62-2" d="M71,26.89a45.92,45.92,0,1,0,45.92,45.92A45.92,45.92,0,0,0,71,26.89Z" transform="translate(0 0)" style="fill:#fabd3a"/><path id="Tracé_63" data-name="Tracé 63" d="M71,23.31a49.5,49.5,0,1,0,49.5,49.5h0A49.56,49.56,0,0,0,71,23.31Zm0,94.53a45,45,0,1,1,45-45h0A45.08,45.08,0,0,1,71,117.84Z" transform="translate(0 0)" style="fill:#ffb827"/><path id="Tracé_64-2" data-name="Tracé 64-2" d="M71,15.56v114.5a57.25,57.25,0,0,0,0-114.5Z" transform="translate(0 0)" style="fill:#e2940a;opacity:0.5;isolation:isolate"/></g><g id="Groupe_53" data-name="Groupe 53"><path id="Tracé_65" data-name="Tracé 65" d="M54,103.86l4.29-21.68L42,67.29,63.9,64.67,73,44.54,82.29,64.6l22,2.45L88,82.07l4.45,21.64L73.2,92.94Z" transform="translate(0 0)" style="fill:#e2940a;opacity:0.5;isolation:isolate"/><path id="Tracé_66" data-name="Tracé 66" d="M52.46,101.31l4.29-21.68L40.42,64.74l21.95-2.62L71.49,42l9.27,20.06,22,2.45-16.21,15L91,101.16,71.67,90.39Z" transform="translate(0 0)" style="fill:#ffd869"/></g></g></g></g></g></svg>