<svg id="Calque_1" data-name="Calque 1" xmlns="http://www.w3.org/2000/svg" xmlns:xlink="http://www.w3.org/1999/xlink" viewBox="0 0 51.87 52.01"><defs><linearGradient id="Dégradé_sans_nom" x1="-4504.2" y1="2899.87" x2="-4504.12" y2="2899.85" gradientTransform="matrix(2.36, 0, 0, -5.67, 7643.46, 15383.31)" gradientUnits="userSpaceOnUse"><stop offset="0.16" stop-color="#4edaf7"/><stop offset="1" stop-color="#505cc8"/></linearGradient><linearGradient id="Dégradé_sans_nom_2" x1="-4605.95" y1="2577.52" x2="-4605.44" y2="2577.52" gradientTransform="matrix(2.38, 0, 0, -4.57, 7724.57, 11785.06)" xlink:href="#Dégradé_sans_nom"/><linearGradient id="Dégradé_sans_nom_3" x1="-5275.07" y1="2628.9" x2="-5274.8" y2="2628.9" gradientTransform="matrix(4.2, 0, 0, -4.93, 17895.59, 12963.83)" xlink:href="#Dégradé_sans_nom"/><linearGradient id="Dégradé_sans_nom_4" x1="-5361.14" y1="2629.73" x2="-5360.91" y2="2629.73" gradientTransform="matrix(4.93, 0, 0, -4.93, 21969.48, 12987.8)" xlink:href="#Dégradé_sans_nom"/><linearGradient id="Dégradé_sans_nom_5" x1="-5343.55" y1="2764.45" x2="-5343.31" y2="2764.45" gradientTransform="matrix(4.75, 0, 0, -6.21, 20979.36, 17186.15)" xlink:href="#Dégradé_sans_nom"/><linearGradient id="Dégradé_sans_nom_6" x1="-5127.37" y1="2440.17" x2="-5127.12" y2="2440.17" gradientTransform="matrix(3.46, 0, 0, -3.83, 13785.5, 9346.18)" xlink:href="#Dégradé_sans_nom"/><linearGradient id="Dégradé_sans_nom_7" x1="-5341.54" y1="2548.01" x2="-5341.36" y2="2548.01" gradientTransform="matrix(4.73, 0, 0, -4.39, 20863.03, 11189.51)" xlink:href="#Dégradé_sans_nom"/><linearGradient id="Dégradé_sans_nom_8" x1="-5359.39" y1="2652.46" x2="-5359.22" y2="2652.46" gradientTransform="matrix(4.91, 0, 0, -5.11, 21878.17, 13572.32)" xlink:href="#Dégradé_sans_nom"/><linearGradient id="Dégradé_sans_nom_9" x1="-5390.36" y1="2604.45" x2="-5390.2" y2="2604.45" gradientTransform="matrix(5.29, 0, 0, -4.75, 23995.83, 12391.28)" xlink:href="#Dégradé_sans_nom"/><linearGradient id="Dégradé_sans_nom_10" x1="-4268.38" y1="1756.35" x2="-4268.31" y2="1756.44" gradientTransform="matrix(2.74, 0, 0, -5.48, 9750.04, 14788.72)" gradientUnits="userSpaceOnUse"><stop offset="0.01" stop-color="#ca79e1"/><stop offset="0.42" stop-color="#c878df"/><stop offset="0.59" stop-color="#c174da"/><stop offset="0.72" stop-color="#b56dd0"/><stop offset="0.82" stop-color="#a363c3"/><stop offset="0.92" stop-color="#8c56b2"/><stop offset="1" stop-color="#71479c"/><stop offset="1" stop-color="#6f469b"/></linearGradient><linearGradient id="Dégradé_sans_nom_11" x1="-5214.05" y1="2354.45" x2="-5213.93" y2="2354.45" gradientTransform="matrix(3.84, 0, 0, -3.47, 15874.05, 8194.98)" xlink:href="#Dégradé_sans_nom_10"/><linearGradient id="Dégradé_sans_nom_12" x1="-5416.61" y1="2245.24" x2="-5416.54" y2="2245.24" gradientTransform="matrix(5.66, 0, 0, -3.11, 26076.94, 6999.51)" xlink:href="#Dégradé_sans_nom_10"/><linearGradient id="Dégradé_sans_nom_13" x1="-5453.52" y1="2179.84" x2="-5453.45" y2="2179.84" gradientTransform="matrix(6.41, 0, 0, -2.93, 30228.23, 6398.23)" xlink:href="#Dégradé_sans_nom_10"/><linearGradient id="Dégradé_sans_nom_14" x1="-5467.02" y1="2479.81" x2="-5466.95" y2="2479.81" gradientTransform="matrix(6.76, 0, 0, -4.02, 32211.76, 9982.17)" xlink:href="#Dégradé_sans_nom_10"/><linearGradient id="Dégradé_sans_nom_15" x1="-4214.25" y1="2604.53" x2="-4213.14" y2="2604.53" gradientTransform="matrix(2.01, 0, 0, -4.75, 5661.45, 12388.96)" xlink:href="#Dégradé_sans_nom_10"/><linearGradient id="Dégradé_sans_nom_16" x1="-4938.47" y1="2713.82" x2="-4937.77" y2="2713.82" gradientTransform="matrix(2.92, 0, 0, -5.66, 10734.23, 15377.86)" xlink:href="#Dégradé_sans_nom_10"/><linearGradient id="Dégradé_sans_nom_17" x1="-4938.09" y1="2764.05" x2="-4937.34" y2="2764.05" gradientTransform="matrix(2.92, 0, 0, -6.21, 10747.13, 17173.43)" xlink:href="#Dégradé_sans_nom_10"/><linearGradient id="Dégradé_sans_nom_18" x1="-5073.19" y1="2748.28" x2="-5072.6" y2="2748.28" gradientTransform="matrix(3.28, 0, 0, -6.02, 12756.02, 16577.49)" xlink:href="#Dégradé_sans_nom_10"/><linearGradient id="Dégradé_sans_nom_19" x1="-5575.08" y1="3027.05" x2="-5575.04" y2="3027.05" gradientTransform="matrix(22.03, 0, 0, -12.53, 117466.51, 37951.32)" gradientUnits="userSpaceOnUse"><stop offset="0" stop-color="#49e0fb"/><stop offset="0.33" stop-color="#41abf8"/><stop offset="0.41" stop-color="#8bc1f8"/><stop offset="1" stop-color="#1fb7ff"/></linearGradient><linearGradient id="Dégradé_sans_nom_20" x1="-5559.94" y1="3029.05" x2="-5559.87" y2="3029.05" gradientTransform="matrix(14.22, 0, 0, -12.63, 73889.55, 38273.27)" xlink:href="#Dégradé_sans_nom_19"/><linearGradient id="Dégradé_sans_nom_21" x1="-5574.68" y1="2850.08" x2="-5574.63" y2="2850.08" gradientTransform="matrix(21.53, 0, 0, -7.43, 114686.32, 21208.23)" xlink:href="#Dégradé_sans_nom"/><linearGradient id="Dégradé_sans_nom_22" x1="-5575.36" y1="2865.05" x2="-5575.31" y2="2865.05" gradientTransform="matrix(22.27, 0, 0, -7.7, 118848.85, 22084.47)" xlink:href="#Dégradé_sans_nom"/><linearGradient id="Dégradé_sans_nom_23" x1="-5575.35" y1="3033.67" x2="-5575.3" y2="3033.67" gradientTransform="matrix(22.27, 0, 0, -12.86, 118814.45, 39033.72)" xlink:href="#Dégradé_sans_nom"/><linearGradient id="Dégradé_sans_nom_24" x1="-5493.49" y1="2691.79" x2="-5493.35" y2="2691.79" gradientTransform="matrix(7.35, 0, 0, -5.45, 35525.78, 14704.42)" xlink:href="#Dégradé_sans_nom"/><linearGradient id="Dégradé_sans_nom_25" x1="-5546.65" y1="2910.88" x2="-5546.56" y2="2910.88" gradientTransform="matrix(11.34, 0, 0, -8.64, 57806.73, 25187)" xlink:href="#Dégradé_sans_nom"/><linearGradient id="Dégradé_sans_nom_26" x1="-5022.35" y1="2454.88" x2="-5022.03" y2="2454.88" gradientTransform="matrix(3.11, 0, 0, -3.89, 11830.25, 9601.26)" xlink:href="#Dégradé_sans_nom"/></defs><title>cv</title><g id="frontoffice"><g id="PROFIL-onboarding-Copy"><g id="CV-01-2"><g id="CV-01"><path id="Path" d="M44.27,26.65c10.08,5.82,10.14,15.24.11,21S18.06,53.52,8,47.7s-10.15-15.23-.13-21S34.18,20.84,44.27,26.65Z" transform="translate(0 0)" style="fill:#78f1ff"/><path id="Path-2" d="M24.44,5.67S20.81.45,23.89,0C23.89,0,26-.41,24.44,5.67Z" transform="translate(0 0)" style="fill:url(#Dégradé_sans_nom)"/><path id="Path-3" d="M24.85,8.23s-.31-5.32,2-4.48C26.84,3.75,28.49,4.24,24.85,8.23Z" transform="translate(0 0)" style="fill:url(#Dégradé_sans_nom_2)"/><path id="Path-4" d="M24.66,11.7s1.52-6.43,3.94-4.6C28.6,7.1,30.37,8.27,24.66,11.7Z" transform="translate(0 0)" style="fill:url(#Dégradé_sans_nom_3)"/><path id="Path-5" d="M24.84,15.17s2.33-6.71,4.71-4.48C29.55,10.69,31.31,12.14,24.84,15.17Z" transform="translate(0 0)" style="fill:url(#Dégradé_sans_nom_4)"/><path id="Path-6" d="M24.47,20.65s1.33-7.9,4.39-5.88C28.86,14.77,31.09,16,24.47,20.65Z" transform="translate(0 0)" style="fill:url(#Dégradé_sans_nom_5)"/><path id="Path-7" d="M24.66,9.14s-1.32-5-3.27-3.57C21.39,5.57,20,6.51,24.66,9.14Z" transform="translate(0 0)" style="fill:url(#Dégradé_sans_nom_6)"/><path id="Path-8" d="M25,13.53S22.57,7.46,20.44,9.6C20.46,9.6,18.87,11,25,13.53Z" transform="translate(0 0)" style="fill:url(#Dégradé_sans_nom_7)"/><path id="Path-9" d="M24.66,17.54S22.51,10.69,20,12.85C20,12.85,18.11,14.25,24.66,17.54Z" transform="translate(0 0)" style="fill:url(#Dégradé_sans_nom_8)"/><path id="Path-10" d="M24.48,20.47s-2.3-6.64-5-4.22C19.44,16.25,17.44,17.83,24.48,20.47Z" transform="translate(0 0)" style="fill:url(#Dégradé_sans_nom_9)"/><path id="Path-11" d="M26.67,9.24a.16.16,0,0,0,0-.22h0a.16.16,0,0,0-.22,0h0c-.05.06-1,1.26-1.57,2.05,0-.67-.06-1.32-.1-1.93h0A11.25,11.25,0,0,1,25.9,5.47a.16.16,0,0,0,0-.22.14.14,0,0,0-.21,0h0a9.85,9.85,0,0,0-1,2.63c-.24-2.72-.58-4.48-.58-4.52a.16.16,0,0,0-.18-.12h0a.16.16,0,0,0-.12.18,50.58,50.58,0,0,1,.63,5.22L23,7.14a.16.16,0,0,0-.22,0,.14.14,0,0,0,0,.19h0l1.7,1.84c.07,1.12.12,2.37.12,3.7a14.43,14.43,0,0,0-2-1.83.15.15,0,0,0-.21.07.17.17,0,0,0,0,.18,10.63,10.63,0,0,1,2.16,2.13,28.85,28.85,0,0,1-.15,3.71c-1.22-1.35-2.17-2.33-2.18-2.34a.15.15,0,0,0-.22,0A.17.17,0,0,0,22,15h0s1,1,2.3,2.49h.07c-.07.71-.15,1.42-.25,2.15a10.19,10.19,0,0,0-2.35-2.33.15.15,0,0,0-.21.06.15.15,0,0,0,0,.2c1,.7,2.3,1.92,2.45,2.62l-.06.39a.33.33,0,0,0,0,.14.83.83,0,0,1-.07.41.17.17,0,0,0,.13.18.15.15,0,0,0,.17-.12,2.11,2.11,0,0,1,.08-.45,42.64,42.64,0,0,0,2.43-3.54.16.16,0,0,0-.05-.22.15.15,0,0,0-.11,0,.17.17,0,0,0-.1.07c-.63,1-1.57,2.36-2.07,3.08.21-1.5.36-3,.43-4.52a6.56,6.56,0,0,1,2-2.43.16.16,0,1,0-.22-.22h0a8.29,8.29,0,0,0-1.74,1.9V11.62A28.45,28.45,0,0,1,26.67,9.24Z" transform="translate(0 0)" style="fill:#505cc8"/><path id="Path-12" d="M31.12,13.34s-.68-6.27,2.18-5.4C33.3,8,35.33,8.44,31.12,13.34Z" transform="translate(0 0)" style="fill:url(#Dégradé_sans_nom_10)"/><path id="Path-13" d="M30.5,15.72s2-4.85,3.7-3.09C34.2,12.63,35.43,13.79,30.5,15.72Z" transform="translate(0 0)" style="fill:url(#Dégradé_sans_nom_11)"/><path id="Path-14" d="M28.68,18.82s4.23-5,5.6-2.32C34.28,16.5,35.35,18.31,28.68,18.82Z" transform="translate(0 0)" style="fill:url(#Dégradé_sans_nom_12)"/><path id="Path-15" d="M27,21.91s5.18-5,6.35-1.9C33.38,20,34.34,22.1,27,21.91Z" transform="translate(0 0)" style="fill:url(#Dégradé_sans_nom_13)"/><path id="Path-16" d="M24.47,26.49s4.77-6.23,6.66-3.17C31.13,23.32,32.59,25.38,24.47,26.49Z" transform="translate(0 0)" style="fill:url(#Dégradé_sans_nom_14)"/><path id="Path-17" d="M29.69,16.45s1.12-5.2-1.27-4.72C28.42,11.73,26.74,12,29.69,16.45Z" transform="translate(0 0)" style="fill:url(#Dégradé_sans_nom_15)"/><path id="Path-18" d="M28.08,20.28s.57-6.54-2.39-5.56C25.7,14.72,23.6,15.27,28.08,20.28Z" transform="translate(0 0)" style="fill:url(#Dégradé_sans_nom_16)"/><path id="Path-19" d="M26.1,23.75s1.17-6.95-2.1-6.14C24,17.61,21.66,18,26.1,23.75Z" transform="translate(0 0)" style="fill:url(#Dégradé_sans_nom_17)"/><path id="Path-20" d="M24.54,26.31s.95-6.9-2.56-5.93C22,20.38,19.5,20.92,24.54,26.31Z" transform="translate(0 0)" style="fill:url(#Dégradé_sans_nom_18)"/><path id="Path-21" d="M28.13,24.72a.15.15,0,0,0,.06-.21.14.14,0,0,0-.21-.06c-1,.57-2.45,1.41-3.22,1.83.88-1.27,1.68-2.57,2.39-3.84A6.45,6.45,0,0,1,30,21.14a.18.18,0,0,0,.12-.1.15.15,0,0,0,0-.16.17.17,0,0,0-.15-.05,8.28,8.28,0,0,0-2.39.92c.23-.43.45-.85.66-1.27s.52-1.05.76-1.56a27.83,27.83,0,0,1,2.67-1.35.15.15,0,0,0,.08-.2.14.14,0,0,0-.2-.08h0a22.42,22.42,0,0,0-2.31,1.13c.28-.62.54-1.21.77-1.78h0a11,11,0,0,1,2.65-2.78.17.17,0,0,0-.06-.29h-.12a10.05,10.05,0,0,0-2,1.91A44.36,44.36,0,0,0,32,11.19a.13.13,0,0,0-.09-.19.15.15,0,0,0-.19.1h0A50.49,50.49,0,0,1,29.87,16l-.6-2a.13.13,0,0,0-.16-.11h0a.14.14,0,0,0-.1.18h0l.7,2.39c-.43,1-.94,2.18-1.53,3.37a15,15,0,0,0-.95-2.52.16.16,0,0,0-.19-.12.16.16,0,0,0-.12.2l0,.06a11.11,11.11,0,0,1,1,2.87c-.54,1.06-1.13,2.16-1.79,3.25-.49-1.75-.9-3.06-.91-3.07a.15.15,0,0,0-.18-.11h0s-.07,0-.09.08a.13.13,0,0,0,0,.12s.45,1.4,1,3.25a.06.06,0,0,0,0,.06c-.37.61-.76,1.22-1.17,1.82a10.45,10.45,0,0,0-1.07-3.13.15.15,0,0,0-.21-.06.14.14,0,0,0-.08.18v0h0c.54,1.05,1.21,2.75,1,3.45l-.22.32a.27.27,0,0,0-.08.1l-.25.35a.16.16,0,0,0,0,.22h.05a.16.16,0,0,0,.17-.05l.27-.38A39.16,39.16,0,0,0,28.13,24.72Z" transform="translate(0 0)" style="fill:#7c49c2"/><path id="Path-22" d="M46.19,33.08c1.67.81,2.47,1.84,1.79,2.3L32.08,46c-.69.46-2.6.17-4.27-.65L3.32,33.42c-1.68-.81-2.48-1.84-1.8-2.3L17.42,20.5c.69-.46,2.6-.17,4.27.65Z" transform="translate(0 0)" style="fill:#e5dbff"/><path id="Path-23" d="M45.46,33.08c1.67.81,2.47,1.84,1.78,2.3L31.34,46c-.68.46-2.6.17-4.26-.65L2.58,33.42C.91,32.61.11,31.58.79,31.12L16.69,20.5c.69-.45,2.6-.16,4.27.65Z" transform="translate(0 0)" style="fill:#fff"/><path id="Path-24" d="M45,33.21c1.61.92,2.34,2,1.63,2.41L30.1,45.15c-.71.41-2.6,0-4.21-.93L2.27,30.73c-1.62-.92-2.35-2-1.63-2.41L17.21,18.8c.71-.41,2.6,0,4.21.92Z" transform="translate(0 0)" style="fill:#cbc3e3"/><path id="Path-25" d="M44.67,32.3c1.61.92,2.35,2,1.63,2.41L29.73,44.23c-.71.41-2.6,0-4.21-.92L1.9,29.83c-1.61-.92-2.34-2-1.63-2.42l16.57-9.52c.71-.41,2.6,0,4.21.92Z" transform="translate(0 0)" style="fill:#e5dbff"/><path id="Path-26" d="M44.67,31.57c1.61.92,2.35,2,1.63,2.41L29.73,43.5c-.71.41-2.6,0-4.21-.92L1.9,29.09c-1.61-.92-2.34-2-1.63-2.41l16.57-9.53c.71-.41,2.6,0,4.21.93Z" transform="translate(0 0)" style="fill:#fff"/><path id="Path-27" d="M19,19.3a28.4,28.4,0,0,1-4.11,2.63l-4.67,2.72A32.87,32.87,0,0,1,5.7,27l-1.13-.66a27.94,27.94,0,0,1,4.1-2.62L13.34,21a32.71,32.71,0,0,1,4.53-2.4Z" transform="translate(0 0)" style="fill:#e5dbff"/><path id="Path-28" d="M15.16,24.45a27.85,27.85,0,0,1-2.85,1.79l-3.2,1.87a32.35,32.35,0,0,1-3.06,1.67l-.57-.33a25.57,25.57,0,0,1,2.85-1.78l3.2-1.88a30.39,30.39,0,0,1,3.07-1.67Z" transform="translate(0 0)" style="fill:#e5dbff"/><path id="Path-29" d="M16.44,27.56A20.49,20.49,0,0,1,14.12,29L11.5,30.48A22.83,22.83,0,0,1,9,31.79l-.58-.33A16.07,16.07,0,0,1,10.71,30l2.62-1.49a20.85,20.85,0,0,1,2.52-1.32Z" transform="translate(0 0)" style="fill:#e5dbff"/><path id="Path-30" d="M25.2,32.67a16.15,16.15,0,0,1-2.31,1.43l-2.62,1.49a21.49,21.49,0,0,1-2.52,1.31l-.58-.33a17.34,17.34,0,0,1,2.31-1.43l2.62-1.49a20.07,20.07,0,0,1,2.52-1.31Z" transform="translate(0 0)" style="fill:#e5dbff"/><path id="Path-31" d="M19.36,24.26c.06,0-1.59,1-3.68,2.2l-4.1,2.33A40.11,40.11,0,0,1,7.7,30.87l-.58-.32s1.59-1,3.68-2.2L14.9,26c2.09-1.19,3.83-2.12,3.88-2.09Z" transform="translate(0 0)" style="fill:#e5dbff"/><path id="Path-32" d="M20.82,31.2a15.3,15.3,0,0,1-2,1.26l-2.3,1.3a18,18,0,0,1-2.23,1.14l-.57-.33a13.38,13.38,0,0,1,2-1.25L18,32a15.61,15.61,0,0,1,2.23-1.14Z" transform="translate(0 0)" style="fill:#e5dbff"/><path id="Path-33" d="M24.29,27.18a41.1,41.1,0,0,1-3.68,2.2l-4.1,2.33c-2.09,1.18-3.82,2.11-3.88,2.08l-.57-.32a41.41,41.41,0,0,1,3.67-2.2L19.83,29c2.09-1.18,3.83-2.12,3.89-2.09Z" transform="translate(0 0)" style="fill:#e5dbff"/><path id="Path-34" d="M27.58,29.19c.06,0-1.59,1-3.68,2.2l-4.1,2.33C17.71,34.9,16,35.83,15.92,35.8l-.58-.32c-.05,0,1.59-1,3.68-2.2L23.12,31C25.21,29.77,27,28.84,27,28.87Z" transform="translate(0 0)" style="fill:#e5dbff"/><g id="Group" style="opacity:0.18000000715255737"><path id="Path-35" d="M32.35,23.42c4.31,2.45,4.33,6.41,0,8.85a17.35,17.35,0,0,1-15.54,0c-4.31-2.44-4.33-6.4,0-8.84A17.36,17.36,0,0,1,32.35,23.42Z" transform="translate(0 0)" style="fill:url(#Dégradé_sans_nom_19)"/></g><path id="Path-36" d="M32.35,23.39a15.55,15.55,0,0,0-7-1.83,14.3,14.3,0,0,1,4.58,1.57c4.32,2.47,4.34,6.46.05,8.93a16.5,16.5,0,0,1-8.59,1.83,17.29,17.29,0,0,0,11-1.57C36.71,29.85,36.68,25.85,32.35,23.39Z" transform="translate(0 0)" style="opacity:0.20999999344348907;isolation:isolate;fill:url(#Dégradé_sans_nom_20)"/><g id="Group-2"><path id="Path-37" d="M32.37,22.56a5,5,0,0,0-.8-.41L31.29,22c-.16-.07-.32-.15-.48-.21h-.09l-.19-.07-.66-.22-.22-.07H29.5l-.67-.17h-.14l-.32-.07H28.1l-.58-.1H27L26.5,21H23.6a3.08,3.08,0,0,0-.74.06h-.35l-.76.1h-.28l-.34.07-.6.13-.43.11-.56.16h-.12a5.75,5.75,0,0,0-.66.23h-.09c-.23.09-.47.19-.7.3l-.2.09c-.25.13-.5.25-.73.38l-.12.08-.12.08-.2.12-.17.12-.18.13-.16.12-.17.12-.15.13-.16.14-.06.05-.05,0a2,2,0,0,0-.25.25l-.08.08-.28.33h0a.56.56,0,0,0-.05.08l-.16.21-.07.11-.13.2h0v.08l-.09.16-.06.14-.07.16v.14a.75.75,0,0,0,0,.16L14,26v.87A.14.14,0,0,0,14,27v.54a.33.33,0,0,0,0-.14v-.16l.06-.14.06-.16.07-.14a.8.8,0,0,1,.08-.16.57.57,0,0,1,.08-.13l.12-.19.08-.12c0-.07.1-.14.15-.21l.07-.09a3,3,0,0,1,.28-.33l.08-.08c.08-.08.16-.17.24-.24l.12-.11.16-.14.14-.12.17-.13.16-.13.19-.12.17-.12.2-.13L17,24c.23-.14.48-.26.73-.38l.2-.09c.23-.11.46-.21.7-.3h.08c.25-.1.52-.18.78-.26l.56-.16.43-.12.6-.12.44-.09h.18l.76-.11h.21l.88-.08h2.9l.55.07.48.06.58.1.59.12h.14c.28.06.55.14.82.22l.22.07c.23.07.45.14.66.22l.19.07.57.24.28.13c.28.13.54.27.8.41a6.75,6.75,0,0,1,2.74,2.66,3.87,3.87,0,0,1,.25.59,1.71,1.71,0,0,0,.09.3,3.82,3.82,0,0,1,.11.9V27C35.56,25.4,34.5,23.79,32.37,22.56Z" transform="translate(0 0)" style="fill:url(#Dégradé_sans_nom_21)"/><path id="Path-38" d="M35.86,27a.67.67,0,0,1,0,.2v.31a.48.48,0,0,1,0,.17v.45a.48.48,0,0,1,0,.17.58.58,0,0,0,0,.14l-.08.17-.06.14-.09.16c0,.06,0,.09-.07.14l-.13.2-.08.12-.16.22a.35.35,0,0,0-.06.09l-.29.33-.09.09-.25.25-.12.11-.16.14-.15.13-.18.13-.16.13-.19.13-.18.12-.2.12-.25.16q-.36.21-.75.39l-.2.1-.72.31H31.1c-.26.1-.53.18-.8.27l-.57.16-.44.12-.62.13-.45.09H28l-.77.11H27l-.9.08H22.92l-.55-.07-.5-.07-.6-.1-.6-.12h-.15c-.29-.06-.57-.14-.84-.22l-.23-.07-.68-.23-.2-.07L18,32.08,17.69,32c-.28-.13-.55-.28-.82-.43-2.18-1.27-3.28-2.93-3.28-4.59v1.49c0,1.66,1.09,3.32,3.28,4.58l.82.43.29.12.5.22h.09l.2.07c.22.09.44.16.67.23l.24.08h.15c.23.07.45.13.69.18h.14l.33.08.28.05.59.1h.5l.56.06h3l.77,0H27a4.92,4.92,0,0,0,.77-.11h.29l.36-.08.61-.12.44-.12c.19-.05.38-.1.57-.17h.13c.23-.07.45-.15.67-.24H31l.72-.31.2-.1c.25-.13.51-.25.75-.39l.14-.08.12-.08.2-.13.18-.12.19-.12.16-.13.18-.13.15-.13.16-.14.07-.06v-.05l.25-.25.09-.09.29-.33h0l0-.07c.06-.07.11-.15.16-.22l.08-.12.13-.2v-.13l.09-.17.06-.14.08-.17v-.14a.43.43,0,0,0,0-.16.17.17,0,0,1,0-.15c.05-.05,0-.11,0-.16v-.15a.48.48,0,0,0,0-.17.33.33,0,0,0,0-.14v-.27a.17.17,0,0,0,0-.1h0Z" transform="translate(0 0)" style="fill:url(#Dégradé_sans_nom_22)"/><path id="Shape" d="M32.58,22.43c4.36,2.51,4.38,6.6.05,9.1a17.48,17.48,0,0,1-15.75,0c-4.36-2.51-4.38-6.59-.05-9.1A17.41,17.41,0,0,1,32.58,22.43Zm-15.49,9a17,17,0,0,0,15.33,0c4.21-2.44,4.19-6.41-.05-8.85a17,17,0,0,0-15.33,0c-4.21,2.43-4.18,6.43.05,8.83Z" transform="translate(0 0)" style="fill:url(#Dégradé_sans_nom_23)"/></g><g id="Group-3"><path id="Path-39" d="M39.49,35.22h.38l-6.51-3.76H33l-.11.05-.15.1h0l-.07.06h0l-.06.07h0v.14h0v.18h0v.58a.57.57,0,0,0,.23.51l6.5,3.76a.55.55,0,0,1-.22-.51v-.18h0v-.17h0a.75.75,0,0,1,.07-.18h0a.77.77,0,0,1,.1-.18h0a1,1,0,0,1,.11-.17h0a1.71,1.71,0,0,1,.11-.14h0l.1-.09h0l.15-.1a.34.34,0,0,1,.15-.07Z" transform="translate(0 0)" style="fill:url(#Dégradé_sans_nom_24)"/><path id="Path-40" d="M39.32,35.29c.44-.25.8,0,.8.45a1.73,1.73,0,0,1-.8,1.36.48.48,0,0,1-.68-.08.46.46,0,0,1-.11-.37A1.71,1.71,0,0,1,39.32,35.29Z" transform="translate(0 0)" style="fill:#aaa"/></g><g id="Group-4"><path id="Path-41" d="M45.68,37.76h.68l-9-5.1h-.9l-.2.1L36,33l-.09.08-.14.12v.06l-.06.06-.06.06-.12.15v0h0v.06l-.09.13-.08.12h0l-.06.11-.07.13-.06.11h0v.13a.53.53,0,0,0,0,.15v.07h0a0,0,0,0,1,0,.05.22.22,0,0,1-.05.17s0,.07,0,.1v.06h0a1.5,1.5,0,0,0,0,.3,1.17,1.17,0,0,0,.26.82.9.9,0,0,0,.19.15l9,5.1a1.07,1.07,0,0,1-.45-1A2,2,0,0,1,44,40V39.9a1.14,1.14,0,0,1,.08-.33h0a1.11,1.11,0,0,1,.13-.36h0a3.9,3.9,0,0,1,.19-.35h0l.21-.32h0l.22-.27h0a1.12,1.12,0,0,1,.2-.18l-.07,0,.29-.2.2-.1h.06A.14.14,0,0,1,45.68,37.76Z" transform="translate(0 0)" style="fill:url(#Dégradé_sans_nom_25)"/><path id="Path-42" d="M45.32,37.91c.85-.48,1.55-.1,1.55.86a3.32,3.32,0,0,1-1.55,2.62c-.86.48-1.56.1-1.56-.86A3.34,3.34,0,0,1,45.32,37.91Z" transform="translate(0 0)" style="fill:url(#Dégradé_sans_nom_26)"/></g></g></g></g></g></svg>