<svg id="Calque_1" data-name="Calque 1" xmlns="http://www.w3.org/2000/svg" viewBox="0 0 24.78 24.54"><title>note</title><path d="M24.64,3.85A.92.92,0,0,0,24,3.4L10,0A1,1,0,0,0,8.9.63L3.55,14.22l1.79.65L10.4,1.94,22.6,5.06c-.76,2.36-2.57,7.28-4.31,11.87-1.52,4-2.39,5.38-4,5.66h0c-3.39.47-3.33-3.84-3.33-3.84L.1,14.37c-.77,4.87,3,6,3,6L11,24a6.18,6.18,0,0,0,2.58.53c3.62-.09,4.9-2.72,6.49-6.93,2.3-6.1,4.65-12.92,4.67-13A.94.94,0,0,0,24.64,3.85Z" transform="translate(0 0)" style="fill:#da2328"/><path d="M18.25,9.33a.95.95,0,0,0,.51-1.83h0L14.63,6.22a1,1,0,0,0-.5,1.84Z" transform="translate(0 0)" style="fill:#da2328"/><path d="M11.81,10.7a1,1,0,0,0,.6,1.2l4.1,1.46a1,1,0,0,0,.3.05,1,1,0,0,0,1-.94.94.94,0,0,0-.64-.91L13,10.1a1,1,0,0,0-1.21.6Z" transform="translate(0 0)" style="fill:#da2328"/><path d="M11.45,14.07a.94.94,0,0,0-1.23.53,1,1,0,0,0,.53,1.23l.11,0L15,17.32a.79.79,0,0,0,.3.05.94.94,0,0,0,1-.94,1,1,0,0,0-.66-.91Z" transform="translate(0 0)" style="fill:#da2328"/><path d="M11.3,5.12a1,1,0,0,1-.06,2.05,1,1,0,0,1-1-1,1,1,0,0,1,1.06-1Z" transform="translate(0 0)" style="fill:#da2328"/><path d="M9.81,8.93a1,1,0,1,1-1.06,1,1,1,0,0,1,1.05-1Z" transform="translate(0 0)" style="fill:#da2328"/><path d="M8.22,12.86a1,1,0,0,1,1,1.05,1,1,0,0,1-2.05,0,1,1,0,0,1,1.06-1Z" transform="translate(0 0)" style="fill:#da2328"/></svg>