<svg xmlns="http://www.w3.org/2000/svg" width="26.986" height="30.901" viewBox="0 0 26.986 30.901"><defs><style>.a{fill:#f8f8f8;}</style></defs><g transform="translate(0)"><path class="a" d="M411.867,103.626c-.132-.194-.156-.241-.235-.358a.643.643,0,0,0,.162-1.275,1.211,1.211,0,0,0-1.366,1.284,1.8,1.8,0,0,0,.373,1.069,1.266,1.266,0,0,1,.27.858c0,.5-.191.881-2.673,1.3-1.7.276-5.678,1.7-5.678,3.2a.679.679,0,0,0,.634.693.588.588,0,0,0,.635-.587c.226-.458,2.509-1.692,4.621-2.036,1.583-.258,3.751-.614,3.751-2.561A2.538,2.538,0,0,0,411.867,103.626Z" transform="translate(-387.295 -79.498)"/><path class="a" d="M377.2,44.062c0-.911-1.877-4.271-2.814-5.893a17.174,17.174,0,0,0,.244-3.1c0-2.744-3.631-9.638-12.208-9.638-8.422,0-12.208,6.389-12.208,10.924,0,3.208,1.895,6.495,3.416,9.133.881,1.539,1.724,2.99,1.724,3.719,0,1.636-2.661,4.879-3.684,5.989a.645.645,0,1,0,.943.881c.411-.446,4.027-4.43,4.027-6.862,0-1.072-.834-2.523-1.895-4.359-1.445-2.509-3.231-5.628-3.231-8.492,0-3.146,2.67-9.638,10.924-9.638,8.172-.012,10.919,6.574,10.919,8.342a14.592,14.592,0,0,1-.261,3.061.652.652,0,0,0,.068.479,34.8,34.8,0,0,1,2.764,5.449,2.628,2.628,0,0,1-1.419.667.643.643,0,0,0-.479.831l.5,1.548-.361.361a.643.643,0,1,0,.908.908l.643-.643a.643.643,0,0,0,.156-.658l-.429-1.287C376.186,45.528,377.2,45.005,377.2,44.062Z" transform="translate(-350.21 -25.43)"/><path class="a" d="M377.04,59.642l-3.666-3.669V53.935l1.1-1.1a.643.643,0,0,0-.908-.908l-1.284,1.284a.647.647,0,0,0-.188.455v2.576a.647.647,0,0,0,.188.455l3.666,3.657V74.227a.643.643,0,0,0,1.284,0V60.095A.643.643,0,0,0,377.04,59.642Z" transform="translate(-365.663 -44.033)"/><path class="a" d="M391.671,61.636h-8.724l-1.1-1.1a.643.643,0,1,0-.908.908l1.284,1.284a.646.646,0,0,0,.455.188h8.992a.643.643,0,0,0,0-1.284Z" transform="translate(-371.758 -50.071)"/><path class="a" d="M404.671,51.86a.643.643,0,0,0-.908,0l-1.1,1.084h-3.589a.643.643,0,0,0,0,1.284h3.854a.643.643,0,0,0,.455-.188l1.284-1.284A.643.643,0,0,0,404.671,51.86Z" transform="translate(-384.3 -43.964)"/><path class="a" d="M395.9,43.109a.643.643,0,0,0-.908,0l-1.093,1.1h-2.3a.643.643,0,0,0-.455.188l-1.284,1.284a.643.643,0,0,0,.908.908l1.078-1.1h2.3a.643.643,0,0,0,.455-.188l1.284-1.284a.643.643,0,0,0,.015-.911Z" transform="translate(-378.1 -37.784)"/><path class="a" d="M370.874,40.022l-1.284-1.284a.646.646,0,0,0-.455-.188h-2.57a.646.646,0,0,0-.455.188l-2.561,2.57a.646.646,0,0,0-.188.455v6.424a.643.643,0,0,0,.188.452l3.669,3.669V64.893a.643.643,0,0,0,1.284,0V52.045a.643.643,0,0,0-.188-.452l-3.675-3.669v-5.9l2.194-2.194h2.039l1.1,1.1a.643.643,0,1,0,.908-.908Z" transform="translate(-359.497 -34.696)"/><path class="a" d="M375.547,49.49a1.284,1.284,0,1,0,1.281,1.284A1.284,1.284,0,0,0,375.547,49.49Z" transform="translate(-367.195 -42.423)"/><path class="a" d="M400.26,73.739a.643.643,0,0,0-.908,0l-1.1,1.1h-2.039l-1.1-1.1a.643.643,0,0,0-.908.908l1.3,1.284a.646.646,0,0,0,.455.188h2.57a.643.643,0,0,0,.455-.188l1.284-1.284a.643.643,0,0,0-.009-.911Z" transform="translate(-381.172 -59.417)"/><path class="a" d="M396.363,94.695l-1.1-1.1V88.99l1.1-1.1a.643.643,0,0,0-.9-.908l-1.284,1.284a.646.646,0,0,0-.188.455v5.141a.646.646,0,0,0,.188.455l1.284,1.284a.643.643,0,0,0,.911-.908Z" transform="translate(-381.13 -68.807)"/><path class="a" d="M408.933,78.11a.643.643,0,0,0-.908,0l-5.141,5.141a.646.646,0,0,0-.188.455v2.57a.643.643,0,1,0,1.284,0V83.97l4.953-4.953A.643.643,0,0,0,408.933,78.11Z" transform="translate(-387.278 -62.503)"/><path class="a" d="M397.434,110.73a1.284,1.284,0,1,0,1.284,1.284,1.284,1.284,0,0,0-1.284-1.284Z" transform="translate(-382.655 -85.674)"/><path class="a" d="M413.839,95.609a.643.643,0,0,0-.908,0l-1.284,1.284a.646.646,0,0,0-.188.455v2.57a.643.643,0,0,0,1.284,0v-2.3l1.1-1.1A.643.643,0,0,0,413.839,95.609Z" transform="translate(-393.468 -74.862)"/><path class="a" d="M406.184,40.74a1.284,1.284,0,1,0,1.284,1.284A1.284,1.284,0,0,0,406.184,40.74Z" transform="translate(-388.835 -36.243)"/></g></svg>