<svg xmlns="http://www.w3.org/2000/svg" width="182.828" height="116.972" viewBox="0 0 182.828 116.972"><defs><style>.a{fill:#8595ba;}.b{fill:#f3f6fe;}.c{fill:#b8c4e0;}.d{fill:none;stroke:#8595ba;stroke-linecap:round;stroke-linejoin:bevel;stroke-width:4px;}</style></defs><g transform="translate(-0.063 0.04)"><g transform="translate(0.063 38.932)"><path class="a" d="M41.9,203.232c-.055.11-5.638,11.067-17.455,9.654-4.767-.57-8.288-3.216-10.464-7.868a22.73,22.73,0,0,1-1.9-6.573c1.429-.753,3.026-2.338,3.9-5.657,1.629-6.193-4.705-5.212-5.275-3.015a1.383,1.383,0,0,0-2-1.321c-2.11.652-2.532,3.2-2.167,5.6a3.765,3.765,0,0,1-.4-4.642c1.58-2.743,2.021-3.834,1.034-4.556-1.118-.827-5.988,3.669-2.574,9.354A4.876,4.876,0,0,1,2.8,189.289c.66-3.23.739-4.334-.357-4.621-1.688-.443-6.507,12.35,5.657,14.285a26.655,26.655,0,0,0,2.173,7.651c2.768,5.988,7.51,9.546,13.7,10.287a21.34,21.34,0,0,0,2.568.154,20.269,20.269,0,0,0,13.787-5.44,24.548,24.548,0,0,0,5.2-6.579ZM8.743,192.448c.7-1.762,1.553-.783,1.933-2.222h0a1.3,1.3,0,0,0,.093.359s.179.764,1.794.58.479,4.077-.66,4.334S7.6,195.341,8.743,192.448Z" transform="translate(-0.073 -184.657)"/></g><g transform="translate(137.424 38.935)"><path class="a" d="M651.05,205.034a24.514,24.514,0,0,0,5.2,6.581,20.254,20.254,0,0,0,13.785,5.44,21.754,21.754,0,0,0,2.568-.154c6.2-.741,10.936-4.3,13.715-10.289a26.755,26.755,0,0,0,2.173-7.649c12.162-1.937,7.354-14.728,5.655-14.285-1.093.285-1.017,1.388-.357,4.621a4.864,4.864,0,0,1-1.811,4.921c3.416-5.7-1.456-10.181-2.574-9.365-.99.72-.547,1.8,1.034,4.554a3.758,3.758,0,0,1-.405,4.642c.367-2.4-.055-4.952-2.167-5.6a1.382,1.382,0,0,0-2,1.319c-.574-2.194-6.908-3.178-5.275,3.015.873,3.319,2.473,4.906,3.9,5.659a22.765,22.765,0,0,1-1.882,6.577c-2.186,4.653-5.712,7.3-10.474,7.871-11.817,1.414-17.4-9.544-17.457-9.654Zm33.616-9.535c-1.137-.255-2.277-4.518-.66-4.332s1.8-.58,1.8-.58a1.317,1.317,0,0,0,.091-.359h0c.38,1.437,1.234.458,1.933,2.222C688.968,195.349,685.8,195.762,684.666,195.5Z" transform="translate(-651.05 -184.667)"/></g><g transform="translate(22.838 -0.04)"><g transform="translate(0 0)"><g transform="translate(32.25 79.55)"><g transform="translate(0 0.006)"><path class="a" d="M282.614,376.992s-22.327,5.737-21.755,18.425c.376,8.339,17.068,6.088,29.661,8.343,0,0,1.011,9.97,4.516,10.626s2.321-15.813,2.321-15.813-27.621-.673-27.661-3.165c-.211-12.871,17.547-18.419,17.547-18.419Z" transform="translate(-260.849 -376.99)"/></g><g transform="translate(40.176)"><path class="a" d="M466.18,376.968s22.333,5.731,21.761,18.419c-.376,8.339-17.068,6.088-29.661,8.343,0,0-1.013,9.97-4.516,10.626s-2.321-15.813-2.321-15.813,27.621-.673,27.661-3.165c.211-12.871-17.549-18.419-17.549-18.419Z" transform="translate(-451.251 -376.96)"/></g></g><path class="b" d="M216.611,96.2c1.433.6,6.267,2.321,10.181-.188,4.642-2.979,4.642-6.51,4.642-6.51a13.541,13.541,0,0,0,13.574-3.165c6.507-5.955,3.532-17.815,3.532-17.815s6.1-3.165,5.4-9.706c-1.146-10.55-11.9-11.158-11.9-11.158s3.344-8-2.6-13.574S225.669,29.8,225.669,29.8s1.477-4.275-2.232-6.881-6.683-1.055-6.683-1.055.633-8.459-7.056-11.337c-7.333-2.743-13.6,1.6-13.6,1.6s-4.642-5.011-11.337-4.081a20.786,20.786,0,0,0-10.413,4.277,11.834,11.834,0,0,0-11.532-2.6,10.706,10.706,0,0,0-7.807,8.565s-11.939-3.328-18.446,4.853-3.349,15.022-3.349,15.022-10.749-1.464-14.1,8.761a18.069,18.069,0,0,0,2.79,17.108s-8.74,8.74-5.02,18.223,12.631,7.482,12.631,7.482a9.843,9.843,0,0,0,9.5,8.7c8.738.557,12.46-2.6,12.46-2.6s7.624,6.32,15.062,5.579,10.23-3.718,10.23-3.718,7.067,4.022,13.945,3.779,12.46-4.9,12.46-4.9a7.352,7.352,0,0,0,6.881,3.347C214.695,99.439,216.341,96.079,216.611,96.2Z" transform="translate(-114.291 -6.251)"/><path class="c" d="M249.323,52.34c-.876-8.075-7-11.407-11.394-12.357.717-3.032,1.222-8.862-3.629-13.414a18.833,18.833,0,0,0-12.844-4.853h-.093a7.472,7.472,0,0,0-3.241-6.444A9.32,9.32,0,0,0,213,13.348a10.93,10.93,0,0,0-1.133-3.07,13.449,13.449,0,0,0-7.86-7.6A15.952,15.952,0,0,0,198.4,1.669a17.529,17.529,0,0,0-5.5.912h-.046c-.034.011-.186.059-.407.141l-.228.084H192.2a18.9,18.9,0,0,0-2.146.952,15.774,15.774,0,0,0-9.917-3.8,13.786,13.786,0,0,0-1.888.131,23.785,23.785,0,0,0-10.128,3.8A13.551,13.551,0,0,0,160.1,1.23a14.525,14.525,0,0,0-4.024.587,12.283,12.283,0,0,0-8.6,8.229c-3.667-.536-12.487-.943-18.092,6.1-3.741,4.71-4.657,8.7-4.672,11.462v.038a9.979,9.979,0,0,0,.116,1.739C121.18,29.809,114,31.708,111.256,40.1A19.841,19.841,0,0,0,113.4,57.525c-.19.211-.308.346-.331.376a1.688,1.688,0,0,0-.306.618c-2.532,3.313-6.721,10.367-3.71,18.045,2.7,6.892,8.052,7.919,11,7.919a13.606,13.606,0,0,0,2.009-.148c.857,3.838,3.735,9.029,10.574,9.466.72.046,1.439.07,2.133.07a21.046,21.046,0,0,0,10.35-2.3c2.235,1.625,7.917,5.275,13.905,5.275.473,0,.945-.023,1.405-.068a22.573,22.573,0,0,0,9.225-2.722,5.847,5.847,0,0,0,1.125-.622c2.254,1.112,7.584,3.425,13.044,3.425.226,0,.449,0,.673-.013a24.05,24.05,0,0,0,12.07-4.252,5.521,5.521,0,0,0,.6.555,1.238,1.238,0,0,0,.137.074,8.624,8.624,0,0,0,5.678,2.11h0c.321,0,.633-.017.962-.049a10.466,10.466,0,0,0,6.822-3.431,15.615,15.615,0,0,0,4.935.855,10.434,10.434,0,0,0,5.708-1.585,11.662,11.662,0,0,0,4.995-5.862,15.227,15.227,0,0,0,2.853.27,15.513,15.513,0,0,0,10.605-4.252c5.948-5.438,4.883-14.9,4.277-18.256C246.109,61.637,249.951,58.145,249.323,52.34Zm-7.48,8.2c-.89-.27-1.986-.578-3.315-.912a6.593,6.593,0,0,0-6.649,1.739,5.638,5.638,0,0,0-1.072,5.8,4.767,4.767,0,0,0,4.834,3.15,7.968,7.968,0,0,0,2.507-.409,1.514,1.514,0,0,0-.983-2.863c-.116.04-2.832.95-3.515-.916a2.667,2.667,0,0,1,.483-2.743,3.588,3.588,0,0,1,3.661-.825c1.2.3,2.19.578,3,.823.479,2.557,1.618,11.023-3.195,15.42a12.1,12.1,0,0,1-8.345,3.376,11.225,11.225,0,0,1-3.334-.485l-3.013-5.8a1.673,1.673,0,0,0-2.969,1.545h0l3.376,6.518A8.226,8.226,0,0,1,219.6,88.3a7.115,7.115,0,0,1-3.91,1.055,12.8,12.8,0,0,1-4.71-.994l-.327-.135h-.342a2.144,2.144,0,0,0-1.671.971,7.222,7.222,0,0,1-5.039,2.758c-.211.021-.422.032-.62.032h0A5.6,5.6,0,0,1,198.6,89.8a5.414,5.414,0,0,1-.8-3.165,2.743,2.743,0,0,1,1.253-2.283c2.144-1.234,3.178-.186,3.448.175a1.675,1.675,0,0,0,2.743-1.916c-.969-1.412-3.855-3.469-7.866-1.163a5.957,5.957,0,0,0-2.92,4.944,8.617,8.617,0,0,0,.422,3.275,20.838,20.838,0,0,1-10.521,3.826c-4.482.158-9.124-1.673-11.479-2.771h0c.962-2.357.726-5.362-.669-8.457-2.135-4.741-7.273-4.587-9.689-3.84a1.675,1.675,0,0,0,.975,3.205h.027c.171-.053,4.184-1.249,5.653,2.015,1,2.22,1.224,4.34.62,5.817a3.365,3.365,0,0,1-.266.521l-.253.255c-.023.025-2.593,2.557-9.187,3.216a10.715,10.715,0,0,1-1.072.051c-5.033,0-10.086-3.292-11.975-4.659l.422-5.064a1.675,1.675,0,0,0-3.338-.274l-.422,5.033c-1,.6-3.847,2.007-8.949,2.007-.633,0-1.266-.023-1.92-.061-6.934-.443-7.666-7.51-7.721-8.183a4.573,4.573,0,0,1,2.473-3.665,3.592,3.592,0,0,1,2.22-.6.525.525,0,0,1-.118-.044L131,74.908c-.325-.135-2.085-.747-4.967.768a7.807,7.807,0,0,0-4.085,5.3,10.341,10.341,0,0,1-1.9.177c-3.724,0-6.377-1.948-7.883-5.792-3.123-7.966,3.9-15.642,4.589-16.368a8.512,8.512,0,0,1,5.463-1.9,5.191,5.191,0,0,1,4.853,3.2,1.671,1.671,0,0,0,1.58,1.129,1.621,1.621,0,0,0,.532-.084,1.673,1.673,0,0,0,1.055-2.11,8.475,8.475,0,0,0-7.947-5.471,11.5,11.5,0,0,0-6.265,1.688,16.671,16.671,0,0,1-1.591-14.281c2.334-7.132,8.807-8.309,11.409-8.491a8.014,8.014,0,0,0,6.282,4.507,9.151,9.151,0,0,0,1.293.093,9.252,9.252,0,0,0,8.065-5.353,1.675,1.675,0,0,0-3.043-1.4c-.076.16-1.9,3.914-5.834,3.347a4.737,4.737,0,0,1-3.433-2.14l-.69-1.477c0-.021-.049-.11-.1-.249a8.188,8.188,0,0,1-.34-2.254v-.158c.019-2.093.755-5.332,3.958-9.358C136.974,12,145.38,13.051,147.7,13.473l2.359,5.3a1.688,1.688,0,0,0,1.53.994,1.64,1.64,0,0,0,.679-.146,1.675,1.675,0,0,0,.844-2.209l-2.541-5.72c-.017-.04-.042-.07-.061-.106A9.022,9.022,0,0,1,157,5.05,11.129,11.129,0,0,1,160.1,4.6,10.185,10.185,0,0,1,166.861,7.2l.374.388a4.572,4.572,0,0,1,.633,4.532,3.752,3.752,0,0,1-3.524,2.365,1.673,1.673,0,1,0-.312,3.332h0c.124,0,.251.015.376.015a7.154,7.154,0,0,0,6.48-4.258,7.567,7.567,0,0,0-.466-7.191,20.679,20.679,0,0,1,8.3-2.973,10.408,10.408,0,0,1,1.426-.1,12.242,12.242,0,0,1,7.385,2.743,7.877,7.877,0,0,0-1.766,3.484,6.826,6.826,0,0,0,4.714,8.244,1.656,1.656,0,0,0,.407.051,1.673,1.673,0,0,0,.4-3.309,3.467,3.467,0,0,1-2.258-4.288c.618-2.855,4.009-4.178,4.674-4.41a14.408,14.408,0,0,1,4.695-.817,12.582,12.582,0,0,1,4.431.8,10.187,10.187,0,0,1,5.929,5.71l.051.127a11.952,11.952,0,0,1,.9,3.739l-.025,2.819C209.136,20.6,207.9,20.6,207.33,20.6a3.587,3.587,0,0,1-1.9-.633,1.676,1.676,0,0,0-2.049,2.652,6.887,6.887,0,0,0,3.956,1.329c1.526,0,5.149-.612,5.847-6.284.04-.327.063-.633.078-.954a6.593,6.593,0,0,1,2.937,1.289,4.38,4.38,0,0,1,1.61,4.961L216.9,25.61l2.766-.443a12.091,12.091,0,0,1,1.789-.11A15.45,15.45,0,0,1,232,29.012c4.408,4.136,2.853,9.846,2.338,11.342-.177.376-2.509,5.136-5.773,5.29a2.3,2.3,0,0,1-1.718-.388,1.576,1.576,0,0,1-.179-1.106,1.673,1.673,0,0,0-3.243-.785,4.859,4.859,0,0,0,.844,4.009,4.943,4.943,0,0,0,4.026,1.614h.422c3.95-.184,6.651-3.75,7.9-5.828,2.42.4,8.563,2.154,9.362,9.548.492,4.53-3.013,7.119-4.151,7.833Z" transform="translate(-108.008 0.04)"/><path class="c" d="M379.166,103.6a9.654,9.654,0,0,0-2.27-8.607c-5.4-6.5-13.58-5.064-18.655-2.762a11.721,11.721,0,0,0-7.94-8.913c-6.138-2.089-10.865,2.04-13.059,4.566a15.3,15.3,0,0,0-11.259-4.068c-3.942.078-7.67,3.034-9.073,7.189a8.819,8.819,0,0,0,2.859,10.1,10.244,10.244,0,0,0,13.593-.354,1.673,1.673,0,0,0-2.289-2.441h0a6.88,6.88,0,0,1-9.221.177,5.574,5.574,0,0,1-1.766-6.4c.943-2.8,3.452-4.853,5.969-4.914,6.944-.15,9.725,4.07,9.833,4.239a1.688,1.688,0,0,0,2.306.542,1.72,1.72,0,0,0,.527-.519c.044-.07,4.556-6.963,10.5-4.946a8.507,8.507,0,0,1,5.908,8.3,1.675,1.675,0,0,0,2.555,1.519c.422-.268,10.593-6.444,16.632.825a6.4,6.4,0,0,1,1.585,5.712,6.886,6.886,0,0,1-3.353,4.448c-2.188.983-4.927-.464-4.948-.477a1.675,1.675,0,0,0-1.612,2.935,11.258,11.258,0,0,0,4.106,1.194,7.7,7.7,0,0,0,3.821-.6A10.217,10.217,0,0,0,379.166,103.6Z" transform="translate(-272.398 -65.276)"/><path class="c" d="M236.96,210.041a7.67,7.67,0,0,0-.4-4.3h.019a8.679,8.679,0,0,0,2.859-.479,7.674,7.674,0,0,0,4.87-5.486,10.606,10.606,0,0,0-1.815-9.3c-3.083-3.642-7.879-2.728-9.987-1.734a1.674,1.674,0,1,0,1.426,3.028h0c.04-.019,3.8-1.747,6.005.869a7.242,7.242,0,0,1,1.144,6.254,4.429,4.429,0,0,1-2.743,3.207,6.451,6.451,0,0,1-5.1-.614,13.842,13.842,0,0,0-1.943-1.306l-.169-.148a1.673,1.673,0,1,0-2.378,2.353l.04.04c.036.034.224.211.53.466l.011.011a13.883,13.883,0,0,0,2.072,1.4c1.266,1.085,2.684,2.842,2.258,5.127-.684,3.667-3.4,3.855-3.718,3.864a1.673,1.673,0,1,0,.019,3.347C231.961,216.646,235.993,215.266,236.96,210.041Z" transform="translate(-202.867 -148.208)"/><path class="c" d="M268.257,325.453a10,10,0,0,0-8.829,6.119,1.674,1.674,0,0,0,3.123,1.2,6.657,6.657,0,0,1,5.813-3.986c3.678-.112,4.066,4.009,4.1,4.463a1.675,1.675,0,0,0,1.667,1.574h.105a1.675,1.675,0,0,0,1.566-1.773C275.638,330.346,273.853,325.273,268.257,325.453Z" transform="translate(-227.389 -256.768)"/><path class="c" d="M592.329,255.311c-2.686-2.264-6.752-1.6-6.921-1.561a1.524,1.524,0,1,0,.519,3c.027,0,2.849-.447,4.431.893a3.764,3.764,0,0,1,1.146,3.07,4.636,4.636,0,0,1-1.241,3.534,5.171,5.171,0,0,1-3.515,1.108,1.53,1.53,0,0,0-1.654,1.388,1.51,1.51,0,0,0,.038.5c.15.62.407,2.635-.386,3.735a2.284,2.284,0,0,1-1.823.844,3.225,3.225,0,0,1-2.623-.686,3.933,3.933,0,0,1-.871-2.743,1.526,1.526,0,1,0-3.041-.238,6.887,6.887,0,0,0,1.741,5.132,5.8,5.8,0,0,0,4.29,1.618c.243,0,.49-.013.745-.032a5.266,5.266,0,0,0,4.051-2.11,7.092,7.092,0,0,0,1.12-4.454,6.993,6.993,0,0,0,6.214-7.592A6.7,6.7,0,0,0,592.329,255.311Z" transform="translate(-477.542 -200.105)"/></g></g><g transform="translate(61.474 30.524)"><path class="d" d="M505,145.072s7.265-1.125,11.979,1.266,6.877,8.284,6.877,8.284" transform="translate(-459.868 -144.807)"/><path class="d" d="M309.968,145.072s-7.265-1.125-11.979,1.266-6.879,8.284-6.879,8.284" transform="translate(-291.11 -144.807)"/></g><g transform="translate(65.309 49.796)"><g transform="translate(22.687 21.854)"><path class="a" d="M430.328,340.828a3.557,3.557,0,0,1-1.213,2.568,6.866,6.866,0,0,1-2.777,1.526,9.951,9.951,0,0,1-5.545,0,6.866,6.866,0,0,1-2.781-1.536,3.558,3.558,0,0,1-1.211-2.568c0-1.813,1.608-.983,3.927-.4a10.3,10.3,0,0,0,5.676,0C428.718,339.834,430.328,339,430.328,340.828Z" transform="translate(-416.8 -339.712)"/><path class="a" d="M441.265,353.772a9.917,9.917,0,0,1-5.545,0,2.8,2.8,0,0,1,5.545,0Z" transform="translate(-431.728 -348.905)"/></g><path class="a" d="M329.021,236.767s.015.112.044.325c.013.105.03.236.048.39,0,.078.021.156.027.249s0,.211,0,.319c0,.224,0,.479-.019.753s-.072.544-.116.844-.141.618-.224.96a10.4,10.4,0,0,1-.367,1.036,7.007,7.007,0,0,1-.549,1.076,10.034,10.034,0,0,1-2.785,3.024c-.211.137-.411.279-.633.422s-.445.241-.671.363l-.344.175-.359.148c-.243.093-.483.2-.734.274a10.415,10.415,0,0,1-1.542.359,5.9,5.9,0,0,1-.793.093l-.4.023-.2.011h-.289l-.671-.038-.167-.011a1.39,1.39,0,0,1-.188-.019l-.422-.061a6.6,6.6,0,0,1-.829-.154l-.762-.211c-.249-.078-.492-.181-.734-.274l-.359-.148-.342-.175c-.228-.122-.458-.228-.671-.363s-.422-.276-.633-.422a10.078,10.078,0,0,1-2.785-3.022c-.211-.365-.386-.728-.546-1.078a6.367,6.367,0,0,1-.369-1.036c-.089-.338-.173-.656-.224-.96s-.089-.589-.116-.844-.011-.506-.015-.724v-.306a2.546,2.546,0,0,1,.025-.27c.019-.167.034-.308.046-.422.03-.228.044-.348.044-.348a.673.673,0,0,1,1.317-.084l.021.084.078.3a8.234,8.234,0,0,0,.211.812l.186.561c.091.2.173.409.266.633s.234.445.354.682.3.466.445.713a5.474,5.474,0,0,0,.553.711,8.109,8.109,0,0,0,.66.686,8.464,8.464,0,0,0,1.612,1.2,9.071,9.071,0,0,0,1.952.812l.525.12a1.619,1.619,0,0,0,.249.044l.236.034.236.038a.688.688,0,0,0,.148.015h.169l.671.03a.741.741,0,1,1-.08,0h.276l.274-.013a3.112,3.112,0,0,0,.54-.057c.177-.034.361-.034.534-.084l.525-.118a9.076,9.076,0,0,0,1.952-.812,8.54,8.54,0,0,0,1.612-1.2,8.1,8.1,0,0,0,.66-.686c.211-.234.376-.481.553-.711a5.3,5.3,0,0,0,.445-.713c.129-.236.257-.46.354-.682s.173-.437.266-.633a4.28,4.28,0,0,0,.181-.53c.027-.082.055-.16.08-.232a2.348,2.348,0,0,0,.057-.241c.034-.152.063-.279.086-.384l.078-.319a.682.682,0,0,1,1.336.068Z" transform="translate(-309.284 -236.143)"/><path class="a" d="M500.611,236.767s.015.112.044.325c.013.105.03.236.049.39,0,.078.021.156.027.249s0,.211,0,.319c0,.224,0,.479-.021.753s-.072.544-.114.844-.143.618-.226.96a10.408,10.408,0,0,1-.367,1.036,7.182,7.182,0,0,1-.547,1.076,10.089,10.089,0,0,1-2.785,3.024c-.211.137-.422.279-.633.422a7.573,7.573,0,0,1-.671.363l-.344.175-.359.148c-.243.093-.483.2-.734.274a10.424,10.424,0,0,1-1.542.359,5.863,5.863,0,0,1-.791.093l-.4.023-.2.011h-.289l-.671-.038-.169-.011a1.454,1.454,0,0,1-.188-.019l-.422-.061a6.521,6.521,0,0,1-.829-.154l-.762-.211c-.251-.078-.492-.181-.734-.274l-.359-.148-.344-.175c-.226-.122-.458-.228-.671-.363s-.422-.276-.633-.422a10.051,10.051,0,0,1-2.785-3.022c-.211-.365-.386-.728-.547-1.078a6.378,6.378,0,0,1-.369-1.036c-.089-.338-.173-.656-.224-.96s-.089-.589-.116-.844-.013-.506-.017-.724v-.306a2.533,2.533,0,0,1,.027-.27c.017-.167.034-.308.046-.422.027-.228.044-.348.044-.348a.673.673,0,0,1,1.317-.084l.021.084s.025.1.076.3a7.03,7.03,0,0,0,.222.812c.055.169.118.357.186.561s.173.409.266.633.232.445.354.682.3.466.445.713a5.649,5.649,0,0,0,.551.711,8.536,8.536,0,0,0,4.224,2.7l.527.12a1.617,1.617,0,0,0,.249.044l.236.034.236.038a.681.681,0,0,0,.146.015h.169l.673.03a.745.745,0,1,1-.08,0h.264l.272-.013a3.087,3.087,0,0,0,.54-.057c.177-.034.361-.034.536-.084l.525-.118a9.076,9.076,0,0,0,1.95-.812,8.333,8.333,0,0,0,1.614-1.2,8.431,8.431,0,0,0,.66-.684c.211-.234.373-.481.551-.713a5.411,5.411,0,0,0,.445-.711c.129-.236.26-.46.355-.682s.175-.437.266-.633a5.377,5.377,0,0,0,.184-.53c.027-.082.055-.16.08-.232s.038-.167.057-.241c.034-.152.063-.279.086-.384l.078-.319a.682.682,0,0,1,1.336.068Z" transform="translate(-444.663 -236.143)"/></g></g></svg>