<svg xmlns="http://www.w3.org/2000/svg" width="88.719" height="17.76" viewBox="0 0 88.719 17.76">
  <g id="neobrain_blue_Plan_de_travail_1" data-name="neobrain_blue_Plan de travail 1" transform="translate(-9.85 -24.32)">
    <g id="Calque_1" data-name="Calque 1" transform="translate(9.85 24.32)">
      <path id="Tracé_383" data-name="Tracé 383" d="M12.306,30.266V42.834H9.85V25.47h3.423l2.8,10.4V25.478h2.431V42.842H15.7Z" transform="translate(-9.85 -25.28)" fill="#1d8df5"/>
      <path id="Tracé_384" data-name="Tracé 384" d="M85.029,32.837h3.746v2.481H85.029V40.4h4.713v2.481H82.3V25.52h7.442V28H85.029Z" transform="translate(-70.319 -25.322)" fill="#1d8df5"/>
      <path id="Tracé_385" data-name="Tracé 385" d="M144.4,28.686c0-2.8,1.464-4.366,4.134-4.366s4.134,1.563,4.134,4.366v9.029c0,2.8-1.464,4.366-4.134,4.366s-4.134-1.563-4.134-4.366Zm2.729,9.2c0,1.265.546,1.712,1.414,1.712s1.414-.45,1.414-1.713V28.512c0-1.265-.546-1.712-1.414-1.712s-1.414.443-1.414,1.712Z" transform="translate(-122.15 -24.32)" fill="#1d8df5"/>
      <path id="Tracé_386" data-name="Tracé 386" d="M217.516,25.52c2.853,0,4.043,1.315,4.043,3.994v.62c0,1.786-.546,2.927-1.761,3.5,1.488.571,2.034,1.86,2.034,3.721v1.414c0,2.679-1.389,4.118-4.134,4.118h-4.3V25.52ZM216.127,28v4.589h1.067c1.017,0,1.637-.446,1.637-1.836v-.967c0-1.265-.422-1.786-1.389-1.786Zm0,7.069V40.4h1.563c.918,0,1.414-.422,1.414-1.712V37.175c0-1.612-.5-2.108-1.761-2.108Z" transform="translate(-179.739 -25.322)" fill="#1d8df5"/>
      <path id="Tracé_387" data-name="Tracé 387" d="M288.205,42.874c-.025-.124-.074-.223-.1-.322a2.659,2.659,0,0,1-.124-.943c-.025-.223-.025-.521-.025-.868V38.012c0-1.612-.521-2.208-1.786-2.208h-.943v7.069H282.5V25.51h4.118c2.853,0,4.043,1.315,4.043,3.994v1.364c0,1.786-.6,2.952-1.786,3.522,1.389.571,1.819,1.885,1.819,3.7v2.679a5.114,5.114,0,0,0,.3,2.108Zm-2.977-14.883v5.335H286.3c1.017,0,1.637-.446,1.637-1.836V29.778c0-1.265-.422-1.786-1.389-1.786Z" transform="translate(-237.413 -25.313)" fill="#1d8df5"/>
      <path id="Tracé_388" data-name="Tracé 388" d="M457.44,25.5h2.729V42.864H457.44Z" transform="translate(-383.423 -25.305)" fill="#1d8df5"/>
      <path id="Tracé_389" data-name="Tracé 389" d="M496.462,30.287V42.855H494V25.5h3.423l2.8,10.393V25.5h2.431V42.864h-2.8Z" transform="translate(-413.937 -25.305)" fill="#1d8df5"/>
    </g>
    <g id="Calque_2" data-name="Calque 2" transform="translate(66.134 24.504)">
      <path id="Tracé_390" data-name="Tracé 390" d="M407.869,102.909c-.074-.109-.088-.136-.132-.2a.362.362,0,0,0,.091-.718.682.682,0,0,0-.769.723,1.012,1.012,0,0,0,.21.6.713.713,0,0,1,.152.483c0,.283-.107.5-1.5.729-.956.155-3.2.959-3.2,1.8a.382.382,0,0,0,.357.39.331.331,0,0,0,.357-.331,5.289,5.289,0,0,1,2.6-1.146c.891-.146,2.112-.346,2.112-1.442A1.429,1.429,0,0,0,407.869,102.909Z" transform="translate(-394.036 -89.326)" fill="#1d8df5"/>
      <path id="Tracé_391" data-name="Tracé 391" d="M365.4,35.919a14.684,14.684,0,0,0-1.584-3.317,9.668,9.668,0,0,0,.137-1.746c0-1.545-2.044-5.426-6.873-5.426a6.461,6.461,0,0,0-6.873,6.15c0,1.806,1.067,3.656,1.923,5.141a6.648,6.648,0,0,1,.971,2.094c0,.921-1.5,2.747-2.074,3.372a.363.363,0,1,0,.531.5c.232-.251,2.267-2.494,2.267-3.863a6.221,6.221,0,0,0-1.067-2.454c-.814-1.412-1.819-3.168-1.819-4.781a5.756,5.756,0,0,1,6.15-5.426,5.857,5.857,0,0,1,6.147,4.7,8.215,8.215,0,0,1-.147,1.723.367.367,0,0,0,.038.27,19.586,19.586,0,0,1,1.556,3.068,1.479,1.479,0,0,1-.8.375.362.362,0,0,0-.27.468l.283.871-.2.2a.362.362,0,1,0,.511.511l.362-.362a.362.362,0,0,0,.088-.37l-.241-.724C364.833,36.744,365.4,36.45,365.4,35.919Z" transform="translate(-350.21 -25.43)" fill="#1d8df5"/>
      <path id="Tracé_392" data-name="Tracé 392" d="M374.876,56.2l-2.064-2.065V52.989l.617-.618a.362.362,0,0,0-.511-.511l-.723.723a.364.364,0,0,0-.106.256v1.45a.364.364,0,0,0,.106.256L374.26,56.6v7.809a.362.362,0,0,0,.723,0V56.456A.362.362,0,0,0,374.876,56.2Z" transform="translate(-368.472 -47.414)" fill="#1d8df5"/>
      <path id="Tracé_393" data-name="Tracé 393" d="M386.885,61.061h-4.911l-.618-.617a.362.362,0,1,0-.511.511l.723.723a.364.364,0,0,0,.256.106h5.062a.362.362,0,0,0,0-.723Z" transform="translate(-375.674 -54.55)" fill="#1d8df5"/>
      <path id="Tracé_394" data-name="Tracé 394" d="M401.964,51.778a.362.362,0,0,0-.511,0l-.617.61h-2.021a.362.362,0,0,0,0,.723h2.17a.362.362,0,0,0,.256-.106l.723-.723A.362.362,0,0,0,401.964,51.778Z" transform="translate(-390.496 -47.333)" fill="#1d8df5"/>
      <path id="Tracé_395" data-name="Tracé 395" d="M393.191,43.028a.362.362,0,0,0-.511,0l-.615.618h-1.3a.362.362,0,0,0-.256.106l-.723.723a.362.362,0,0,0,.511.511l.607-.617h1.3a.362.362,0,0,0,.256-.106l.723-.723a.362.362,0,0,0,.008-.513Z" transform="translate(-383.17 -40.029)" fill="#1d8df5"/>
      <path id="Tracé_396" data-name="Tracé 396" d="M367.59,39.378l-.723-.723a.364.364,0,0,0-.256-.106h-1.447a.364.364,0,0,0-.256.106L363.466,40.1a.364.364,0,0,0-.106.256v3.617a.362.362,0,0,0,.106.255l2.065,2.065V53.38a.362.362,0,0,0,.723,0V46.147a.362.362,0,0,0-.106-.255l-2.069-2.065V40.508l1.235-1.235h1.148l.618.617a.362.362,0,1,0,.511-.511Z" transform="translate(-361.185 -36.38)" fill="#1d8df5"/>
      <path id="Tracé_397" data-name="Tracé 397" d="M374.984,49.49a.723.723,0,1,0,.721.723A.723.723,0,0,0,374.984,49.49Z" transform="translate(-370.283 -45.511)" fill="#1d8df5"/>
      <path id="Tracé_398" data-name="Tracé 398" d="M397.546,73.658a.362.362,0,0,0-.511,0l-.618.618h-1.148l-.618-.617a.362.362,0,0,0-.511.511l.729.723a.364.364,0,0,0,.256.106h1.447a.362.362,0,0,0,.256-.106l.723-.723a.362.362,0,0,0,0-.513Z" transform="translate(-386.8 -65.594)" fill="#1d8df5"/>
      <path id="Tracé_399" data-name="Tracé 399" d="M395.326,91.266l-.618-.618V88.054l.617-.618a.362.362,0,0,0-.506-.511l-.723.723a.364.364,0,0,0-.106.256V90.8a.364.364,0,0,0,.106.256l.723.723a.362.362,0,0,0,.513-.511Z" transform="translate(-386.75 -76.692)" fill="#1d8df5"/>
      <path id="Tracé_400" data-name="Tracé 400" d="M406.207,78.028a.362.362,0,0,0-.511,0L402.8,80.922a.364.364,0,0,0-.106.256v1.447a.362.362,0,1,0,.723,0v-1.3l2.788-2.788A.362.362,0,0,0,406.207,78.028Z" transform="translate(-394.016 -69.242)" fill="#1d8df5"/>
      <path id="Tracé_401" data-name="Tracé 401" d="M396.873,110.73a.723.723,0,1,0,.723.723.723.723,0,0,0-.723-.723Z" transform="translate(-388.553 -96.624)" fill="#1d8df5"/>
      <path id="Tracé_402" data-name="Tracé 402" d="M412.8,95.528a.362.362,0,0,0-.511,0l-.723.723a.364.364,0,0,0-.106.256v1.447a.362.362,0,0,0,.723,0v-1.3l.617-.618A.362.362,0,0,0,412.8,95.528Z" transform="translate(-401.331 -83.848)" fill="#1d8df5"/>
      <path id="Tracé_403" data-name="Tracé 403" d="M405.623,40.74a.723.723,0,1,0,.723.723A.723.723,0,0,0,405.623,40.74Z" transform="translate(-395.856 -38.208)" fill="#1d8df5"/>
    </g>
  </g>
</svg>
