<svg id="Calque_1" data-name="Calque 1" xmlns="http://www.w3.org/2000/svg" viewBox="0 0 22.53 25.79"><title>neobrainlogo</title><g id="Calque_2" data-name="Calque 2"><path id="Tracé_390" data-name="Tracé 390" d="M20.51,20.14l-.2-.3a.55.55,0,0,0,.58-.5.53.53,0,0,0-.44-.56,1,1,0,0,0-1.14.86.74.74,0,0,0,0,.21,1.46,1.46,0,0,0,.31.89,1,1,0,0,1,.22.72c0,.41-.16.73-2.23,1.08-1.41.23-4.74,1.42-4.74,2.67a.56.56,0,0,0,.53.58.49.49,0,0,0,.53-.45v0a7.89,7.89,0,0,1,3.86-1.7c1.32-.22,3.13-.51,3.13-2.14A2.09,2.09,0,0,0,20.51,20.14Z" transform="translate(0 0)" style="fill:#1d8df5"/><path id="Tracé_391" data-name="Tracé 391" d="M22.53,15.55c0-.76-1.57-3.56-2.35-4.92A14.92,14.92,0,0,0,20.38,8c0-2.29-3-8-10.19-8S0,5.33,0,9.12c0,2.68,1.58,5.42,2.85,7.62a9.86,9.86,0,0,1,1.44,3.1c0,1.37-2.22,4.07-3.08,5a.53.53,0,0,0,0,.76.54.54,0,0,0,.76,0l0,0c.34-.38,3.36-3.7,3.36-5.73,0-.9-.7-2.11-1.58-3.64-1.21-2.09-2.7-4.7-2.7-7.09,0-2.62,2.23-8,9.12-8s9.11,5.48,9.11,7a11.61,11.61,0,0,1-.22,2.56.57.57,0,0,0,.06.4,29.35,29.35,0,0,1,2.31,4.54,2.13,2.13,0,0,1-1.19.56.54.54,0,0,0-.41.64.43.43,0,0,0,0,.05l.42,1.3-.3.3a.53.53,0,0,0,0,.75.52.52,0,0,0,.75.05l.05-.05.54-.53a.56.56,0,0,0,.13-.55L21.06,17C21.68,16.78,22.53,16.34,22.53,15.55Z" transform="translate(0 0)" style="fill:#1d8df5"/><path id="Tracé_392" data-name="Tracé 392" d="M9.5,13,6.44,10V8.27l.91-.92a.54.54,0,0,0,0-.76.55.55,0,0,0-.72,0L5.52,7.66A.59.59,0,0,0,5.36,8v2.15a.59.59,0,0,0,.16.38l3.06,3V25.2a.55.55,0,0,0,.57.51.54.54,0,0,0,.5-.51V13.4A.51.51,0,0,0,9.5,13Z" transform="translate(0 0)" style="fill:#1d8df5"/><path id="Tracé_393" data-name="Tracé 393" d="M16.62,9.65H9.34l-.92-.91a.53.53,0,1,0-.8.71l0,.05,1.08,1.07a.52.52,0,0,0,.38.15h7.5a.53.53,0,0,0,.5-.57.54.54,0,0,0-.5-.5Z" transform="translate(0 0)" style="fill:#1d8df5"/><path id="Tracé_394" data-name="Tracé 394" d="M17,6.59a.53.53,0,0,0-.75,0l-.92.9h-3a.54.54,0,0,0,0,1.07h3.23a.51.51,0,0,0,.38-.16L17,7.33A.53.53,0,0,0,17,6.59Z" transform="translate(0 0)" style="fill:#1d8df5"/><path id="Tracé_395" data-name="Tracé 395" d="M14.86,4.45a.54.54,0,0,0-.76,0l-.91.91H11.27a.53.53,0,0,0-.38.16L9.82,6.59a.53.53,0,0,0,.75.76l.9-.92H13.4a.54.54,0,0,0,.38-.15l1.07-1.07a.54.54,0,0,0,0-.76Z" transform="translate(0 0)" style="fill:#1d8df5"/><path id="Tracé_396" data-name="Tracé 396" d="M9.5,4.44,8.42,3.37A.52.52,0,0,0,8,3.22H5.9a.54.54,0,0,0-.38.15L3.38,5.52a.59.59,0,0,0-.16.38v5.36a.59.59,0,0,0,.16.38L6.44,14.7V25.2a.54.54,0,0,0,1.08,0V14.48a.55.55,0,0,0-.16-.38L4.29,11V6.12L6.12,4.29h1.7l.92.91a.53.53,0,0,0,.76,0,.55.55,0,0,0,.05-.76s0,0-.05,0Z" transform="translate(0 0)" style="fill:#1d8df5"/><path id="Tracé_397" data-name="Tracé 397" d="M7,5.9A1.07,1.07,0,1,0,8,7H8A1.07,1.07,0,0,0,7,5.9Z" transform="translate(0 0)" style="fill:#1d8df5"/><path id="Tracé_398" data-name="Tracé 398" d="M15.93,12a.54.54,0,0,0-.76,0l-.91.91h-1.7L11.64,12a.54.54,0,0,0-.76,0,.55.55,0,0,0,0,.72L12,13.79a.54.54,0,0,0,.38.15h2.15a.5.5,0,0,0,.38-.15l1.07-1.07a.53.53,0,0,0,0-.76Z" transform="translate(0 0)" style="fill:#1d8df5"/><path id="Tracé_399" data-name="Tracé 399" d="M12.72,21.61l-.92-.92V16.85l.91-.92a.53.53,0,0,0-.08-.75.54.54,0,0,0-.67,0l-1.07,1.07a.54.54,0,0,0-.15.38v4.29a.54.54,0,0,0,.15.38L12,22.36a.55.55,0,0,0,.76,0,.53.53,0,0,0,0-.74Z" transform="translate(0 0)" style="fill:#1d8df5"/><path id="Tracé_400" data-name="Tracé 400" d="M18.07,13a.53.53,0,0,0-.75,0L13,17.32a.51.51,0,0,0-.16.38v2.14a.54.54,0,0,0,.5.57.53.53,0,0,0,.57-.5v-2l4.13-4.14A.53.53,0,0,0,18.07,13Z" transform="translate(0 0)" style="fill:#1d8df5"/><path id="Tracé_401" data-name="Tracé 401" d="M12.34,20.91A1.08,1.08,0,1,0,13.41,22a1.08,1.08,0,0,0-1.07-1.08Z" transform="translate(0 0)" style="fill:#1d8df5"/><path id="Tracé_402" data-name="Tracé 402" d="M17,17.32a.53.53,0,0,0-.75,0l-1.08,1.07a.54.54,0,0,0-.15.38v2.14a.54.54,0,0,0,1.07,0V19l.91-.91A.54.54,0,0,0,17,17.32Z" transform="translate(0 0)" style="fill:#1d8df5"/><path id="Tracé_403" data-name="Tracé 403" d="M14.48,3.75a1.08,1.08,0,1,0,1.07,1.07,1.07,1.07,0,0,0-1.07-1.07Z" transform="translate(0 0)" style="fill:#1d8df5"/></g></svg>