<svg id="Calque_1" data-name="Calque 1" xmlns="http://www.w3.org/2000/svg" xmlns:xlink="http://www.w3.org/1999/xlink" viewBox="0 0 171 198.95"><defs><linearGradient id="Dégradé_sans_nom" x1="-5494.18" y1="3341.21" x2="-5494.18" y2="3340.21" gradientTransform="matrix(171, 0, 0, -171, 939590, 571371.29)" gradientUnits="userSpaceOnUse"><stop offset="0" stop-color="#159beb"/><stop offset="1" stop-color="#3beaff"/></linearGradient></defs><title>readingneo</title><g id="Groupe_10892" data-name="Groupe 10892"><circle id="Ellipse_436" data-name="Ellipse 436" cx="85.5" cy="110.65" r="85.5" style="opacity:0.4860000014305115;isolation:isolate;fill:url(#Dégradé_sans_nom)"/><g id="Groupe_10891" data-name="Groupe 10891"><g id="Groupe_40" data-name="Groupe 40"><g id="Groupe_39" data-name="Groupe 39"><circle id="Ellipse_1" data-name="Ellipse 1" cx="85.19" cy="43.26" r="1.39" style="fill:#ef7668"/><g id="Groupe_31" data-name="Groupe 31"><path id="Tracé_58" data-name="Tracé 58" d="M108.37,23.17A23.18,23.18,0,1,1,85.19,0a23.17,23.17,0,0,1,23.18,23.18Z" transform="translate(0 0.01)" style="fill:#fff;opacity:0.10000000149011612;isolation:isolate"/><path id="Tracé_59" data-name="Tracé 59" d="M105.85,23.17A20.66,20.66,0,1,1,85.19,2.52a20.66,20.66,0,0,1,20.66,20.65Z" transform="translate(0 0.01)" style="fill:#fff;opacity:0.10000000149011612;isolation:isolate"/><path id="Tracé_60" data-name="Tracé 60" d="M102.42,23.17A17.23,17.23,0,1,1,85.19,6,17.22,17.22,0,0,1,102.42,23.17Z" transform="translate(0 0.01)" style="fill:#fff;opacity:0.10000000149011612;isolation:isolate"/></g><path id="Tracé_61" data-name="Tracé 61" d="M96.23,23.17a11,11,0,1,1-11-11h0A11,11,0,0,1,96.23,23.17Z" transform="translate(0 0.01)" style="fill:#fff"/><g id="Groupe_34" data-name="Groupe 34"><rect id="Rectangle_2" data-name="Rectangle 2" x="79.74" y="33.48" width="10.9" height="9.77" rx="3.86" ry="3.86" style="fill:#81c7ed"/><g id="Groupe_32" data-name="Groupe 32" style="opacity:0.4000000059604645"><path id="Tracé_62" data-name="Tracé 62" d="M90.65,37.4V38a39.91,39.91,0,0,1-5.13.3A50.78,50.78,0,0,1,79.74,38v-.63A48,48,0,0,0,90.65,37.4Z" transform="translate(0 0.01)" style="fill:#fff"/></g><g id="Groupe_33" data-name="Groupe 33" style="opacity:0.4000000059604645"><path id="Tracé_63" data-name="Tracé 63" d="M90.65,40.35V41a41.79,41.79,0,0,1-5.13.29,50.78,50.78,0,0,1-5.78-.33v-.63A46.84,46.84,0,0,0,90.65,40.35Z" transform="translate(0 0.01)" style="fill:#fff"/></g></g><g id="Groupe_38" data-name="Groupe 38"><g id="Groupe_37" data-name="Groupe 37"><g id="Groupe_35" data-name="Groupe 35"><path id="Tracé_64" data-name="Tracé 64" d="M81.92,34.68a.16.16,0,0,1-.16-.14L80.62,23.19a.16.16,0,0,1,.31-.05v0l1.14,11.35a.16.16,0,0,1-.14.17h0Z" transform="translate(0 0.01)" style="fill:#441165"/></g><g id="Groupe_36" data-name="Groupe 36"><path id="Tracé_65" data-name="Tracé 65" d="M88.47,34.68h0a.15.15,0,0,1-.14-.17h0l1.14-11.35a.16.16,0,0,1,.31,0h0L88.63,34.54A.16.16,0,0,1,88.47,34.68Z" transform="translate(0 0.01)" style="fill:#441165"/></g></g><path id="Tracé_66" data-name="Tracé 66" d="M89,23.12a2,2,0,0,1-2.56,0,2,2,0,0,1-2.57,0,2,2,0,0,1-2.56,0,.16.16,0,0,0-.15.16.17.17,0,0,0,.15.15,1.85,1.85,0,0,1,1.1.38,2.25,2.25,0,0,0-.76,1.6c0,.82.47,1.19.94,1.19s.94-.31.94-1.19a2.31,2.31,0,0,0-.64-1.59,1.76,1.76,0,0,1,1-.39,1.81,1.81,0,0,1,1.1.38,2.24,2.24,0,0,0-.75,1.6c0,.82.47,1.19.94,1.19s.94-.31.94-1.19a2.35,2.35,0,0,0-.64-1.59,1.76,1.76,0,0,1,1-.39,1.83,1.83,0,0,1,1.1.38,2.29,2.29,0,0,0-.76,1.6c0,.82.47,1.19.94,1.19s.94-.32.94-1.19a2.34,2.34,0,0,0-.63-1.59,1.66,1.66,0,0,1,1-.39.16.16,0,0,0,.15-.17.17.17,0,0,0-.15-.15Zm-5.78,2.3c0,.56-.23.87-.63.87S82,26,82,25.42A2,2,0,0,1,82.69,24a2,2,0,0,1,.57,1.38Zm2.56,0c0,.56-.22.87-.63.87s-.62-.34-.62-.87A2,2,0,0,1,85.25,24a2,2,0,0,1,.57,1.38Zm2.57,0c0,.56-.23.87-.63.87s-.63-.34-.63-.87A2,2,0,0,1,87.81,24a2,2,0,0,1,.58,1.38Z" transform="translate(0 0.01)" style="fill:#81c7ed"/></g></g></g><g id="Groupe_10791" data-name="Groupe 10791"><g id="Groupe_10784" data-name="Groupe 10784"><g id="Groupe_10765" data-name="Groupe 10765"><g id="Groupe_10764" data-name="Groupe 10764"><g id="Groupe_10738" data-name="Groupe 10738"><g id="Groupe_34-2" data-name="Groupe 34-2"><g id="Groupe_25" data-name="Groupe 25"><path id="Tracé_87" data-name="Tracé 87" d="M60.58,138.45S64,192,62.3,193.55s-11.19.17-12.91,3.11,14.46,2.78,16.53,1,0-59.18,0-59.18Z" transform="translate(0 0.01)" style="fill:#8595ba"/><path id="Tracé_88" data-name="Tracé 88" d="M109.56,137.17s-3.44,53.51-1.72,55.1,11.18.17,12.91,3.11-14.46,2.79-16.53,1,0-59.18,0-59.18Z" transform="translate(0 0.01)" style="fill:#8595ba"/></g><g id="Groupe_27" data-name="Groupe 27"><path id="Tracé_89" data-name="Tracé 89" d="M121.9,154.72c1.65.7,7.23,2.68,11.75-.21C139,151.07,139,147,139,147a15.63,15.63,0,0,0,15.67-3.65c7.52-6.87,4.08-20.57,4.08-20.57s7-3.66,6.23-11.21c-1.32-12.18-13.74-12.88-13.74-12.88s3.86-9.23-3-15.67-15.89-4.94-15.89-4.94,1.72-4.94-2.57-7.95-7.72-1.21-7.72-1.21.74-9.76-8.15-13.09c-8.46-3.16-15.7,1.85-15.7,1.85s-5.37-5.8-13.1-4.72a24,24,0,0,0-12,4.94,13.67,13.67,0,0,0-13.31-3,12.34,12.34,0,0,0-9,9.88S37,60.92,29.47,70.36,25.6,87.7,25.6,87.7,13.19,86,9.33,97.82a20.85,20.85,0,0,0,3.23,19.76s-10.09,10.09-5.8,21,14.58,8.64,14.58,8.64.88,9.4,11,10,14.38-3,14.38-3,8.8,7.3,17.39,6.44,11.81-4.29,11.81-4.29,8.16,4.64,16.1,4.36,14.39-5.65,14.39-5.65a8.49,8.49,0,0,0,7.94,3.86C119.68,158.46,121.58,154.59,121.9,154.72Z" transform="translate(0 0.01)" style="fill:#f3f6fe"/><g id="Groupe_26" data-name="Groupe 26"><path id="Tracé_90" data-name="Tracé 90" d="M166.92,111.35c-1-9.32-8.08-13.17-13.16-14.26.83-3.5,1.41-10.24-4.19-15.49A21.71,21.71,0,0,0,134.74,76h-.1a8.66,8.66,0,0,0-3.75-7.44A10.83,10.83,0,0,0,125,66.32a12.79,12.79,0,0,0-1.31-3.54A15.45,15.45,0,0,0,114.6,54a18.39,18.39,0,0,0-6.48-1.17,20.18,20.18,0,0,0-6.35,1h0l-.47.16-.26.1h0a24.76,24.76,0,0,0-2.47,1.1A18.25,18.25,0,0,0,87,50.88a17.76,17.76,0,0,0-2.18.16,27.5,27.5,0,0,0-11.7,4.38,15.59,15.59,0,0,0-9.26-3.07,16.66,16.66,0,0,0-4.65.68,14.19,14.19,0,0,0-9.93,9.5c-4.23-.62-14.41-1.09-20.88,7-4.32,5.43-5.38,10-5.4,13.24v0a11.32,11.32,0,0,0,.13,2C19,85.34,10.67,87.54,7.5,97.23A22.91,22.91,0,0,0,10,117.35a5.45,5.45,0,0,0-.38.43,1.91,1.91,0,0,0-.36.71c-2.93,3.83-7.76,12-4.28,20.84,3.12,8,9.3,9.14,12.7,9.14A15,15,0,0,0,20,148.3c1,4.43,4.31,10.43,12.21,10.93.83.06,1.66.08,2.46.08,6.2,0,10.08-1.6,12-2.65,2.58,1.87,9.14,6.08,16,6.08.55,0,1.1,0,1.63-.08a26.11,26.11,0,0,0,10.65-3.14,6.61,6.61,0,0,0,1.3-.72c2.6,1.28,8.75,3.95,15.06,3.95h.78c6.16-.22,11.4-3.2,13.93-4.91a6,6,0,0,0,.7.64s.1.05.15.09a10,10,0,0,0,6.56,2.44h0a10.32,10.32,0,0,0,1.11-.06,12,12,0,0,0,7.87-4,17.88,17.88,0,0,0,5.7,1,12,12,0,0,0,6.6-1.83,13.56,13.56,0,0,0,5.77-6.77,17.3,17.3,0,0,0,3.29.31A17.86,17.86,0,0,0,156,144.77c6.86-6.28,5.63-17.2,4.93-21.07C163.21,122.09,167.65,118.06,166.92,111.35Zm-8.64,9.47c-1-.31-2.29-.67-3.82-1a7.61,7.61,0,0,0-7.68,2,6.53,6.53,0,0,0-1.24,6.7,5.5,5.5,0,0,0,5.58,3.64,9.22,9.22,0,0,0,2.9-.47,1.75,1.75,0,0,0-1.14-3.31h0c-.13,0-3.27,1.1-4.06-1.05a3.09,3.09,0,0,1,.56-3.17,4.17,4.17,0,0,1,4.23-1c1.38.35,2.53.67,3.47,1,.55,3,1.86,12.73-3.69,17.8a14,14,0,0,1-9.64,3.9,12.91,12.91,0,0,1-3.85-.56l-3.48-6.7a1.93,1.93,0,0,0-3.43,1.78l3.91,7.53a9.52,9.52,0,0,1-4.29,5,8.35,8.35,0,0,1-4.52,1.22,14.78,14.78,0,0,1-5.44-1.16l-.38-.16h-.39A2.52,2.52,0,0,0,120,153.9a8.38,8.38,0,0,1-5.82,3.19c-.24,0-.48,0-.71,0h0a6.5,6.5,0,0,1-5.06-2.53,6.33,6.33,0,0,1-.92-3.65,3.17,3.17,0,0,1,1.45-2.64c2.47-1.42,3.67-.21,4,.2A1.93,1.93,0,0,0,116,146.3c-1.12-1.63-4.45-4-9.08-1.34a6.88,6.88,0,0,0-3.37,5.71,9.91,9.91,0,0,0,.5,3.78c-2,1.41-6.74,4.22-12.15,4.42-5.17.18-10.53-1.94-13.26-3.2v0c1.11-2.72.84-6.19-.77-9.76-2.47-5.48-8.4-5.3-11.19-4.44a1.94,1.94,0,1,0,1.14,3.7h0c.2-.06,4.83-1.44,6.52,2.33,1.16,2.56,1.42,5,.72,6.71a3.41,3.41,0,0,1-.31.6l-.29.3s-3,2.95-10.61,3.71c-.41,0-.82.06-1.24.06-5.8,0-11.64-3.8-13.82-5.38l.49-5.86a1.94,1.94,0,0,0-3.86-.31L45,153.12c-1.15.7-4.44,2.31-10.33,2.31-.72,0-1.47,0-2.22-.07-8-.51-8.85-8.67-8.91-9.45a5.3,5.3,0,0,1,2.85-4.23A4.26,4.26,0,0,1,29,141a.34.34,0,0,1-.14,0l1.51-3.55c-.37-.16-2.41-.87-5.73.88a9,9,0,0,0-4.72,6.13,12.42,12.42,0,0,1-2.2.2c-4.3,0-7.36-2.25-9.1-6.69-3.61-9.2,4.5-18.06,5.3-18.9a9.85,9.85,0,0,1,6.31-2.19,6,6,0,0,1,5.6,3.7,1.93,1.93,0,0,0,1.83,1.3,2.11,2.11,0,0,0,.61-.1,1.94,1.94,0,0,0,1.22-2.45,9.79,9.79,0,0,0-9.18-6.32,13.34,13.34,0,0,0-7.23,2,19.26,19.26,0,0,1-1.84-16.49c2.7-8.23,10.17-9.59,13.18-9.8a9.23,9.23,0,0,0,7.25,5.2,10.56,10.56,0,0,0,1.49.11c5.09,0,8.28-3.92,9.31-6.18a1.93,1.93,0,0,0-3.51-1.62h0c-.09.19-2.19,4.52-6.74,3.87a5.49,5.49,0,0,1-4-2.47l-.8-1.71s-.06-.13-.11-.29A9,9,0,0,1,26.92,83a1.1,1.1,0,0,0,0-.18c0-2.42.88-6.16,4.58-10.8,5.73-7.22,15.44-6,18.12-5.49l2.72,6.12a1.94,1.94,0,0,0,1.77,1.15,1.89,1.89,0,0,0,.78-.17,1.94,1.94,0,0,0,1-2.55l-2.94-6.61a1.27,1.27,0,0,0-.07-.12,10.43,10.43,0,0,1,7.5-7.57,12.69,12.69,0,0,1,3.57-.52,11.75,11.75,0,0,1,7.81,3l.43.45c.72,1.08,1.75,3.15.74,5.23a4.33,4.33,0,0,1-4.07,2.73,1.93,1.93,0,0,0-.36,3.85,3.09,3.09,0,0,0,.43,0,8.21,8.21,0,0,0,7.47-4.9,8.75,8.75,0,0,0-.54-8.3,23.84,23.84,0,0,1,9.58-3.43,12.82,12.82,0,0,1,1.65-.11,14.29,14.29,0,0,1,8.53,3.15,9.09,9.09,0,0,0-2,4A7.88,7.88,0,0,0,99,71.45a2.42,2.42,0,0,0,.47,0,1.93,1.93,0,0,0,.47-3.8,4,4,0,0,1-2.61-5c.71-3.3,4.64-4.83,5.4-5.1a16.65,16.65,0,0,1,5.42-.94,14.45,14.45,0,0,1,5.12.93,11.77,11.77,0,0,1,6.85,6.59l.06.14a14,14,0,0,1,1,4.32l0,3.25c-.63,2.76-2.07,2.77-2.72,2.77a4.2,4.2,0,0,1-2.19-.72A1.93,1.93,0,0,0,113.89,77a8,8,0,0,0,4.57,1.54c1.76,0,6-.71,6.75-7.26a10.62,10.62,0,0,0,.09-1.1,7.57,7.57,0,0,1,3.39,1.49,5.06,5.06,0,0,1,1.86,5.73l-1.05,3,3.19-.51a14.39,14.39,0,0,1,2.07-.13A17.91,17.91,0,0,1,147,84.42c5.09,4.77,3.29,11.37,2.7,13.1-.21.43-2.9,5.93-6.67,6.11a2.63,2.63,0,0,1-2-.45,1.79,1.79,0,0,1-.21-1.28A1.93,1.93,0,0,0,137,101a5.62,5.62,0,0,0,1,4.64,5.72,5.72,0,0,0,4.65,1.86h.5c4.56-.21,7.68-4.33,9.12-6.73,2.8.47,9.89,2.49,10.82,11,.54,5.23-3.5,8.21-4.82,9Z" transform="translate(0 0.01)" style="fill:#b8c4e0"/><path id="Tracé_91" data-name="Tracé 91" d="M127,95.12a11.14,11.14,0,0,0-2.62-9.94c-6.23-7.5-15.68-5.84-21.54-3.19A13.55,13.55,0,0,0,93.7,71.7C86.61,69.29,81.16,74.06,78.62,77a17.69,17.69,0,0,0-13-4.7c-4.55.09-8.85,3.5-10.47,8.3a10.2,10.2,0,0,0,3.3,11.67,11.83,11.83,0,0,0,15.7-.41A1.93,1.93,0,1,0,71.51,89h0a8,8,0,0,1-10.65.2,6.48,6.48,0,0,1-2-7.4c1.09-3.23,4-5.61,6.9-5.67,8-.17,11.23,4.7,11.35,4.9a1.94,1.94,0,0,0,3.28,0c0-.08,5.26-8,12.12-5.71a9.84,9.84,0,0,1,6.83,9.59,1.93,1.93,0,0,0,1.82,2,2,2,0,0,0,1.13-.29c.5-.31,12.23-7.44,19.2,1a7.4,7.4,0,0,1,1.83,6.59,8,8,0,0,1-3.87,5.14c-2.53,1.13-5.69-.54-5.72-.56a1.93,1.93,0,0,0-1.86,3.39,12.94,12.94,0,0,0,4.75,1.38,8.9,8.9,0,0,0,4.41-.69A11.82,11.82,0,0,0,127,95.12Z" transform="translate(0 0.01)" style="fill:#b8c4e0"/><path id="Tracé_92" data-name="Tracé 92" d="M43.12,122.28a8.79,8.79,0,0,0-.46-5h0a9.81,9.81,0,0,0,3.3-.55,8.86,8.86,0,0,0,5.62-6.33,12.24,12.24,0,0,0-2.1-10.74c-3.56-4.21-9.1-3.15-11.53-2a1.93,1.93,0,0,0,1.65,3.5s4.38-2,6.93,1a8.34,8.34,0,0,1,1.32,7.22,5.12,5.12,0,0,1-3.16,3.7,7.43,7.43,0,0,1-5.88-.71,16.08,16.08,0,0,0-2.25-1.51l-.19-.17a1.93,1.93,0,0,0-2.73,2.73l0,0s.26.25.61.54h0a16.73,16.73,0,0,0,2.39,1.62c1.47,1.25,3.1,3.28,2.61,5.92C38.53,125.8,35.4,126,35,126a1.93,1.93,0,1,0,0,3.86C37.35,129.89,42,128.3,43.12,122.28Z" transform="translate(0 0.01)" style="fill:#b8c4e0"/><path id="Tracé_93" data-name="Tracé 93" d="M50.94,130.18a11.52,11.52,0,0,0-10.19,7.07,1.93,1.93,0,0,0,3.59,1.44v-.05a7.71,7.71,0,0,1,6.72-4.6c4.24-.13,4.69,4.62,4.73,5.15A1.94,1.94,0,0,0,57.73,141h.12a1.93,1.93,0,0,0,1.81-2C59.47,135.83,57.41,130,50.94,130.18Z" transform="translate(0 0.01)" style="fill:#b8c4e0"/><path id="Tracé_94" data-name="Tracé 94" d="M136.28,114.61c-3.1-2.61-7.79-1.84-8-1.8a1.76,1.76,0,1,0,.6,3.47s3.29-.52,5.12,1a4.38,4.38,0,0,1,1.33,3.55,5.35,5.35,0,0,1-1.43,4.08,6.1,6.1,0,0,1-4.07,1.28,1.76,1.76,0,0,0-1.91,1.6,1.81,1.81,0,0,0,0,.57c.17.72.47,3.05-.45,4.32a2.67,2.67,0,0,1-2.1,1,3.76,3.76,0,0,1-3-.79,4.58,4.58,0,0,1-1-3.18,1.76,1.76,0,0,0-3.51-.28,8,8,0,0,0,2,5.93,6.7,6.7,0,0,0,4.95,1.87,8.38,8.38,0,0,0,.86,0,6.07,6.07,0,0,0,4.68-2.43,8.23,8.23,0,0,0,1.3-5.15,8.07,8.07,0,0,0,7.17-8.76A7.73,7.73,0,0,0,136.28,114.61Z" transform="translate(0 0.01)" style="fill:#b8c4e0"/></g></g></g></g><g id="Groupe_23" data-name="Groupe 23"><g id="Groupe_22" data-name="Groupe 22"><path id="Tracé_51" data-name="Tracé 51" d="M92.14,134.62a9.94,9.94,0,0,1-1.4,5.13,8.2,8.2,0,0,1-3.22,3.07,6.9,6.9,0,0,1-6.4,0,8.24,8.24,0,0,1-3.21-3.07,9.94,9.94,0,0,1-1.4-5.13c0-3.62,1.86-2,4.54-.8a7.08,7.08,0,0,0,6.55,0C90.27,132.66,92.14,131,92.14,134.62Z" transform="translate(0 0.01)" style="fill:#8595ba"/></g><path id="Tracé_52" data-name="Tracé 52" d="M90,139.27a11.42,11.42,0,0,1-6.4,0,3.23,3.23,0,0,1,6.4,0Z" transform="translate(0 0.01)" style="fill:#8595ba"/></g><g id="Groupe_10762" data-name="Groupe 10762"><path id="Tracé_43" data-name="Tracé 43" d="M86.38,139l31.39-6.89-6.68,42.59-29.07,6Z" transform="translate(0 0.01)" style="fill:#b8c4e0"/><path id="Tracé_44" data-name="Tracé 44" d="M86.38,139l-33-6.89,1.73,43L82,180.69Z" transform="translate(0 0.01)" style="fill:#b8c4e0"/></g><path id="Tracé_22526" data-name="Tracé 22526" d="M17.13,123.26a9.62,9.62,0,0,1,.73,1.07A180.23,180.23,0,0,0,8.6,143.4c-2.79,6.89,25.78,6.68,34.41,6.27,1.63-.08,4.17-5.52,5.76-4.8s-.73,2.94-.73,2.94,3.28-1.77,4.37-1.2,5.57,4.7,1.11,6.93-46.84-.28-49.27-5.23c-1.87-3.8,4.93-19.23,8.19-26.2C14.07,122.13,16.21,122.08,17.13,123.26Z" transform="translate(0 0.01)" style="fill:#8595ba"/><g id="Groupe_10758" data-name="Groupe 10758"><path id="Tracé_22522" data-name="Tracé 22522" d="M100.48,86.47s8.38-1.3,13.83,1.46,7.94,9.56,7.94,9.56" transform="translate(0 0.01)" style="fill:none;stroke:#8595ba;stroke-linecap:round;stroke-linejoin:bevel;stroke-width:4px"/><path id="Tracé_22523" data-name="Tracé 22523" d="M70.14,86.47s-8.39-1.3-13.83,1.46-7.94,9.56-7.94,9.56" transform="translate(0 0.01)" style="fill:none;stroke:#8595ba;stroke-linecap:round;stroke-linejoin:bevel;stroke-width:4px"/></g><g id="Groupe_10736" data-name="Groupe 10736"><g id="Groupe_10734" data-name="Groupe 10734"><g id="Groupe_29" data-name="Groupe 29"><path id="Tracé_97" data-name="Tracé 97" d="M117.6,113a10.82,10.82,0,1,1-10.82-10.82A10.82,10.82,0,0,1,117.6,113Z" transform="translate(0 0.01)" style="fill:none;stroke:#8595ba;stroke-width:4px"/><path id="Tracé_98" data-name="Tracé 98" d="M111,117.07a4.25,4.25,0,1,1-4.26-4.25h0A4.26,4.26,0,0,1,111,117.07Z" transform="translate(0 0.01)" style="fill:#8595ba;stroke:#8595ba;stroke-width:4px"/></g></g><g id="Groupe_10742" data-name="Groupe 10742"><g id="Groupe_29-2" data-name="Groupe 29-2"><path id="Tracé_97-2" data-name="Tracé 97-2" d="M74.87,113a10.82,10.82,0,1,1-10.82-10.82A10.82,10.82,0,0,1,74.87,113Z" transform="translate(0 0.01)" style="fill:none;stroke:#8595ba;stroke-width:4px"/><path id="Tracé_98-2" data-name="Tracé 98-2" d="M68.22,117.07A4.25,4.25,0,1,1,64,112.82h0A4.26,4.26,0,0,1,68.22,117.07Z" transform="translate(0 0.01)" style="fill:#8595ba;stroke:#8595ba;stroke-width:4px"/></g></g></g><path id="Tracé_22524" data-name="Tracé 22524" d="M128.56,102H92.16a1.56,1.56,0,0,0-.78.22,10.11,10.11,0,0,0-11.6,0A1.55,1.55,0,0,0,79,102H42.56a1.39,1.39,0,0,0-.15,2.77h2.14v15.09a5.53,5.53,0,0,0,5.35,5.69H74.7a5.53,5.53,0,0,0,5.35-5.69V106.19a1,1,0,0,0,.17-.25,6,6,0,0,1,5.38-2.74c2.47,0,4.66,1.18,5.46,2.94v13.74a5.55,5.55,0,0,0,5.36,5.69h24.8a5.55,5.55,0,0,0,5.35-5.69V104.79h2a1.39,1.39,0,0,0,.14-2.77ZM74.7,122.8H49.9a2.73,2.73,0,0,1-2.46-2.92V104.79H77.17v15.09a2.73,2.73,0,0,1-2.46,2.92Zm49-2.92a2.73,2.73,0,0,1-2.47,2.92H96.42A2.73,2.73,0,0,1,94,119.88V104.79h29.73Z" transform="translate(0 0.01)" style="fill:#8595ba"/></g><path id="Tracé_22527" data-name="Tracé 22527" d="M144,123.26a11.21,11.21,0,0,0-.73,1.07,180.23,180.23,0,0,1,9.26,19.07c2.79,6.89-25.78,6.68-34.41,6.27-1.63-.08-4.17-5.52-5.76-4.8s.73,2.94.73,2.94-3.28-1.77-4.37-1.2-5.57,4.7-1.11,6.93,46.84-.28,49.27-5.23c1.87-3.8-4.93-19.23-8.19-26.2C147.07,122.13,144.93,122.08,144,123.26Z" transform="translate(0 0.01)" style="fill:#8595ba"/></g><g id="Groupe_10773" data-name="Groupe 10773"><path id="Tracé_22528" data-name="Tracé 22528" d="M17.13,123.26a9.62,9.62,0,0,1,.73,1.07A180.23,180.23,0,0,0,8.6,143.4c-2.79,6.89,25.78,6.68,34.41,6.27,1.63-.08,4.17-5.52,5.76-4.8s-.73,2.94-.73,2.94,3.28-1.77,4.37-1.2,5.57,4.7,1.11,6.93-46.84-.28-49.27-5.23c-1.87-3.8,4.93-19.23,8.19-26.2C14.07,122.13,16.21,122.08,17.13,123.26Z" transform="translate(0 0.01)" style="fill:#8595ba"/><path id="Tracé_22529" data-name="Tracé 22529" d="M144,124.2a10.21,10.21,0,0,0-.73,1.08,179.29,179.29,0,0,1,9.26,19.07c2.79,6.89-25.78,6.68-34.41,6.26-1.63-.07-4.17-5.51-5.76-4.79s.73,2.93.73,2.93-3.28-1.76-4.37-1.2-5.57,4.71-1.11,6.94,46.84-.29,49.27-5.23c1.87-3.8-4.93-19.24-8.19-26.2C147.07,123.08,144.93,123,144,124.2Z" transform="translate(0 0.01)" style="fill:#8595ba"/></g></g></g></g></g></svg>