<svg id="Calque_1" data-name="Calque 1" xmlns="http://www.w3.org/2000/svg" viewBox="0 0 212.07 125.86"><title>noofferNeo</title><g id="Groupe_12325" data-name="Groupe 12325"><g id="Groupe_11172" data-name="Groupe 11172"><g id="fusee"><g id="OBJECTS"><g id="Groupe_10733" data-name="Groupe 10733"><path id="Tracé_20852" data-name="Tracé 20852" d="M183.1,117.93c-11.06,6.55-20.16,7.93-26.56,7.93-16.37-.07-38.35-9.17-46.72-9.75a116,116,0,0,0-12.23.07c-8,.29-13.61,1-18.41,1.53-6,.65-14.85,1.46-25.91,2-.87.14-20,2.47-29.84-11.36-.72-1-7.93-11.46-4.43-20.26,1.9-4.8,7.79-11.13,14.41-14.77,1.6-.87,2.62-1.24,3-2.4C37.92,66.19,24,61.1,22.56,52.58c-.73-4.29,1.38-10.91,15.07-21.1C47.09,27,60.48,22.82,73.8,27.33c11.35,3.86,12.37,10.48,22.77,12.52,13.18,2.48,16.74-7.13,39.3-10.84,9.47-1.6,19.5-3.06,29.48,2.25,2,1.1,13.68,7.28,15.28,18,1.89,12.88-15,18.63-13.1,29.26,2,11.79,23.8,13,25.11,24.08C193.36,108.32,188.27,113.78,183.1,117.93Z" transform="translate(0 0)" style="fill:#dfe4f4"/><circle id="Ellipse_392" data-name="Ellipse 392" cx="204.72" cy="36.56" r="7.35" style="fill:#dfe4f4"/><circle id="Ellipse_393" data-name="Ellipse 393" cx="191.76" cy="49.66" r="3.64" style="fill:#dfe4f4"/><circle id="Ellipse_394" data-name="Ellipse 394" cx="5.75" cy="104.83" r="5.75" style="fill:#dfe4f4"/><circle id="Ellipse_395" data-name="Ellipse 395" cx="200.13" cy="88.6" r="5.75" style="fill:#dfe4f4"/><circle id="Ellipse_396" data-name="Ellipse 396" cx="17.17" cy="33.94" r="5.75" style="fill:#dfe4f4"/></g></g></g></g><g id="Groupe_10791" data-name="Groupe 10791"><g id="Groupe_10784" data-name="Groupe 10784"><g id="Groupe_10765" data-name="Groupe 10765"><g id="Groupe_10764" data-name="Groupe 10764"><g id="Groupe_10738" data-name="Groupe 10738"><g id="Groupe_34" data-name="Groupe 34"><g id="Groupe_25" data-name="Groupe 25"><path id="Tracé_87" data-name="Tracé 87" d="M85.42,74.28s2.93,45.38,1.47,46.72-9.49.14-11,2.64,12.26,2.36,14,.82,0-50.19,0-50.19Z" transform="translate(0 0)" style="fill:#8595ba"/><path id="Tracé_88" data-name="Tracé 88" d="M127,73.2s-2.92,45.38-1.46,46.73,9.48.14,11,2.64-12.26,2.36-14,.82,0-50.19,0-50.19Z" transform="translate(0 0)" style="fill:#8595ba"/></g><g id="Groupe_27" data-name="Groupe 27"><path id="Tracé_89" data-name="Tracé 89" d="M137.44,88.08c1.4.59,6.14,2.27,10-.18C152,85,152,81.53,152,81.53a13.26,13.26,0,0,0,13.29-3.1C171.62,72.6,168.71,61,168.71,61s6-3.1,5.28-9.5c-1.12-10.34-11.65-10.93-11.65-10.93s3.28-7.82-2.55-13.29-13.48-4.19-13.48-4.19a6,6,0,0,0-2.18-6.74c-3.64-2.55-6.55-1-6.55-1s.63-8.28-6.91-11.1c-7.17-2.68-13.31,1.57-13.31,1.57s-4.55-4.93-11.11-4A20.33,20.33,0,0,0,96.05,6,11.55,11.55,0,0,0,84.77,3.42a10.49,10.49,0,0,0-7.65,8.37S65.43,8.54,59.05,16.53s-3.27,14.71-3.27,14.71S45.25,29.81,42,39.82a17.65,17.65,0,0,0,2.73,16.75s-8.56,8.56-4.92,17.85,12.36,7.33,12.36,7.33a9.65,9.65,0,0,0,9.3,8.52c8.56.54,12.22-2.55,12.22-2.55s7.46,6.19,14.75,5.46,10-3.64,10-3.64,6.92,3.94,13.65,3.69,12.19-4.78,12.19-4.78A7.2,7.2,0,0,0,131,91.73C135.56,91.26,137.17,88,137.44,88.08Z" transform="translate(0 0)" style="fill:#f3f6fe"/><g id="Groupe_26" data-name="Groupe 26"><path id="Tracé_90" data-name="Tracé 90" d="M175.62,51.3c-.86-7.91-6.85-11.17-11.16-12.1.7-3,1.2-8.68-3.55-13.13a18.38,18.38,0,0,0-12.58-4.76h-.09A7.32,7.32,0,0,0,145.07,15a9.12,9.12,0,0,0-5-1.89,10.73,10.73,0,0,0-1.11-3,13.12,13.12,0,0,0-7.7-7.43,15.55,15.55,0,0,0-5.49-1,17.24,17.24,0,0,0-5.38.89h0l-.41.14-.22.08h0a19.7,19.7,0,0,0-2.1.93A15.49,15.49,0,0,0,107.88,0,14.23,14.23,0,0,0,106,.13a23.35,23.35,0,0,0-9.92,3.72,13.32,13.32,0,0,0-7.86-2.6,14.23,14.23,0,0,0-3.94.58A12,12,0,0,0,75.9,9.88c-3.59-.53-12.23-.93-17.71,6-3.67,4.62-4.57,8.54-4.58,11.24v0a8.78,8.78,0,0,0,.11,1.7c-3.57.41-10.6,2.28-13.29,10.49a19.38,19.38,0,0,0,2.1,17.06c-.19.2-.3.34-.33.37a1.74,1.74,0,0,0-.3.61C39.41,60.59,35.31,67.5,38.26,75c2.65,6.75,7.89,7.76,10.77,7.76a13,13,0,0,0,2-.15c.84,3.76,3.66,8.84,10.36,9.27.7,0,1.4.07,2.09.07a20.6,20.6,0,0,0,10.13-2.25c2.19,1.59,7.75,5.15,13.62,5.15.46,0,.92,0,1.37-.06a22.28,22.28,0,0,0,9-2.67,5.84,5.84,0,0,0,1.09-.61c2.21,1.09,7.43,3.35,12.78,3.35h.65A23.54,23.54,0,0,0,124,90.72a6,6,0,0,0,.58.54l.14.07a8.4,8.4,0,0,0,5.56,2.07h0c.31,0,.63,0,.94,0A10.23,10.23,0,0,0,137.85,90a15.34,15.34,0,0,0,4.84.84,10.27,10.27,0,0,0,5.6-1.57,11.5,11.5,0,0,0,4.89-5.74,15,15,0,0,0,13.18-3.9c5.82-5.32,4.78-14.6,4.18-17.87A11.26,11.26,0,0,0,175.62,51.3Zm-7.32,8c-.88-.27-2-.57-3.25-.89a6.43,6.43,0,0,0-6.51,1.7,5.52,5.52,0,0,0-1,5.68,4.65,4.65,0,0,0,4.73,3.08,7.6,7.6,0,0,0,2.46-.41,1.48,1.48,0,0,0-.93-2.81h0c-.12,0-2.77.93-3.44-.9a2.6,2.6,0,0,1,.47-2.68,3.51,3.51,0,0,1,3.58-.81c1.18.3,2.15.57,2.95.81.47,2.5,1.58,10.79-3.13,15.1a11.85,11.85,0,0,1-8.17,3.3,11,11,0,0,1-3.27-.47l-3-5.67a1.64,1.64,0,0,0-2.91,1.51l3.31,6.38a8.06,8.06,0,0,1-3.64,4.26,7,7,0,0,1-3.83,1,12.65,12.65,0,0,1-4.62-1l-.32-.14h-.33a2.13,2.13,0,0,0-1.64.95,7.06,7.06,0,0,1-4.94,2.7c-.2,0-.41,0-.61,0h0A5.52,5.52,0,0,1,126,88a5.24,5.24,0,0,1-.79-3.09,2.69,2.69,0,0,1,1.23-2.24c2.1-1.21,3.11-.18,3.38.17a1.64,1.64,0,0,0,2.79-1.73l-.09-.13c-.95-1.38-3.77-3.4-7.7-1.14a5.86,5.86,0,0,0-2.87,4.84,8.51,8.51,0,0,0,.42,3.21A20.5,20.5,0,0,1,112,91.61c-4.39.15-8.93-1.64-11.24-2.72h0c.94-2.3.71-5.25-.66-8.28C98,76,93,76.12,90.64,76.85A1.64,1.64,0,0,0,91.52,80h0l.08,0c.17,0,4.1-1.23,5.53,2a7.54,7.54,0,0,1,.62,5.7,4.09,4.09,0,0,1-.26.51l-.26.24s-2.54,2.5-9,3.15c-.35,0-.7,0-1,0-4.93,0-9.88-3.23-11.72-4.57l.41-5a1.65,1.65,0,0,0-3.28-.35v.09l-.41,4.93c-1,.59-3.77,2-8.77,2-.61,0-1.24,0-1.88-.06-6.76-.43-7.48-7.35-7.54-8A4.47,4.47,0,0,1,56.41,77a3.48,3.48,0,0,1,2.17-.59l-.11,0,1.28-3c-.32-.14-2-.74-4.86.75a7.61,7.61,0,0,0-4,5.19A9.78,9.78,0,0,1,49,79.5c-3.65,0-6.24-1.9-7.72-5.67-3-7.8,3.82-15.31,4.49-16a8.39,8.39,0,0,1,5.35-1.86,5.08,5.08,0,0,1,4.75,3.14,1.64,1.64,0,0,0,1.55,1.1A1.53,1.53,0,0,0,58,60.1,1.64,1.64,0,0,0,59,58a8.31,8.31,0,0,0-7.79-5.35,11.23,11.23,0,0,0-6.13,1.66,16.32,16.32,0,0,1-1.56-14c2.3-7,8.64-8.14,11.19-8.31a7.84,7.84,0,0,0,6.15,4.41,8.79,8.79,0,0,0,1.26.09A9.07,9.07,0,0,0,70,31.29a1.64,1.64,0,1,0-3-1.38h0c-.08.16-1.86,3.84-5.72,3.28A4.61,4.61,0,0,1,58,31.1l-.67-1.46a2.44,2.44,0,0,1-.1-.24,8.05,8.05,0,0,1-.33-2.18v-.15c0-2.05.74-5.23,3.88-9.17,4.87-6.12,13.1-5.08,15.37-4.66l2.31,5.2a1.64,1.64,0,0,0,1.5,1,1.7,1.7,0,0,0,.66-.14,1.63,1.63,0,0,0,.83-2.16L78.92,11.5l-.06-.1A8.85,8.85,0,0,1,85.21,5a10.68,10.68,0,0,1,3-.44A10,10,0,0,1,94.87,7.1l.37.38a4.53,4.53,0,0,1,.63,4.44,3.71,3.71,0,0,1-3.46,2.32,1.64,1.64,0,0,0-.3,3.25h.37a7,7,0,0,0,6.33-4.16,7.4,7.4,0,0,0-.46-7,20.38,20.38,0,0,1,8.13-2.91,9.32,9.32,0,0,1,1.4-.1A12.11,12.11,0,0,1,115.11,6a7.59,7.59,0,0,0-1.73,3.41A6.68,6.68,0,0,0,118,17.45a1.64,1.64,0,1,0,.8-3.18h0a3.39,3.39,0,0,1-2.21-4.2c.61-2.8,3.93-4.1,4.57-4.32a14.17,14.17,0,0,1,4.6-.8,12.4,12.4,0,0,1,4.35.79,10,10,0,0,1,5.8,5.59.61.61,0,0,0,.05.12,11.82,11.82,0,0,1,.89,3.66l0,2.76c-.54,2.34-1.76,2.34-2.31,2.34a3.45,3.45,0,0,1-1.86-.62,1.65,1.65,0,0,0-2,2.6,6.72,6.72,0,0,0,3.88,1.3c1.5,0,5-.6,5.73-6.15,0-.32.06-.63.07-.93a6.3,6.3,0,0,1,2.87,1.26,4.29,4.29,0,0,1,1.58,4.86l-.89,2.6,2.71-.44a12.9,12.9,0,0,1,1.76-.11,15.16,15.16,0,0,1,10.33,3.88c4.32,4,2.79,9.64,2.29,11.1-.17.37-2.46,5-5.65,5.18a2.21,2.21,0,0,1-1.69-.38,1.51,1.51,0,0,1-.17-1.08,1.64,1.64,0,0,0-3.19-.77A4.39,4.39,0,0,0,155,48h.42c3.87-.18,6.51-3.68,7.74-5.71,2.37.4,8.38,2.11,9.17,9.35.48,4.44-3,7-4.07,7.67Z" transform="translate(0 0)" style="fill:#b8c4e0"/><path id="Tracé_91" data-name="Tracé 91" d="M141.79,37.53a9.48,9.48,0,0,0-2.22-8.42c-5.29-6.37-13.3-5-18.27-2.7a11.49,11.49,0,0,0-7.78-8.73c-6-2-10.64,2-12.79,4.47a15,15,0,0,0-11-4c-3.86.07-7.51,3-8.88,7a8.62,8.62,0,0,0,2.8,9.89,10,10,0,0,0,13.31-.35,1.64,1.64,0,0,0-2.18-2.44l-.06,0a6.74,6.74,0,0,1-9,.17,5.47,5.47,0,0,1-1.73-6.28c.92-2.74,3.38-4.76,5.84-4.81,6.8-.14,9.53,4,9.63,4.16a1.64,1.64,0,0,0,2.26.53,1.74,1.74,0,0,0,.51-.5c0-.07,4.46-6.83,10.29-4.85a8.34,8.34,0,0,1,5.78,8.13,1.64,1.64,0,0,0,1.55,1.73,1.67,1.67,0,0,0,1-.24c.42-.27,10.38-6.31,16.29.82a6.25,6.25,0,0,1,1.55,5.59,6.71,6.71,0,0,1-3.28,4.35c-2.14,1-4.82-.45-4.84-.46a1.64,1.64,0,1,0-1.72,2.79l.14.08a11.15,11.15,0,0,0,4,1.17,7.65,7.65,0,0,0,3.75-.59A10.05,10.05,0,0,0,141.79,37.53Z" transform="translate(0 0)" style="fill:#b8c4e0"/><path id="Tracé_92" data-name="Tracé 92" d="M70.62,60.57a7.39,7.39,0,0,0-.39-4.21h0a8.57,8.57,0,0,0,2.8-.47,7.51,7.51,0,0,0,4.77-5.37A10.34,10.34,0,0,0,76,41.41c-3-3.57-7.71-2.67-9.78-1.7a1.64,1.64,0,1,0,1.4,3s3.72-1.71,5.89.85a7.13,7.13,0,0,1,1.12,6.13A4.37,4.37,0,0,1,72,52.79a6.34,6.34,0,0,1-5-.6,12.9,12.9,0,0,0-1.9-1.28l-.16-.15A1.64,1.64,0,1,0,62.56,53l.08.07s.22.2.52.46h0a12.68,12.68,0,0,0,2,1.37,5.42,5.42,0,0,1,2.21,5c-.67,3.59-3.33,3.78-3.64,3.79a1.64,1.64,0,0,0,0,3.28C65.73,67,69.67,65.68,70.62,60.57Z" transform="translate(0 0)" style="fill:#b8c4e0"/><path id="Tracé_93" data-name="Tracé 93" d="M77.26,67.26a9.8,9.8,0,0,0-8.65,6,1.64,1.64,0,1,0,3,1.36.36.36,0,0,1,0-.09l0-.09a6.51,6.51,0,0,1,5.7-3.89c3.6-.11,4,3.92,4,4.37A1.64,1.64,0,0,0,83,76.46h.1a1.63,1.63,0,0,0,1.53-1.73C84.49,72.06,82.74,67.09,77.26,67.26Z" transform="translate(0 0)" style="fill:#b8c4e0"/><path id="Tracé_94" data-name="Tracé 94" d="M149.63,54.07c-2.63-2.22-6.61-1.56-6.78-1.53a1.49,1.49,0,0,0,.46,3h.05s2.79-.44,4.35.87a3.69,3.69,0,0,1,1.12,3,4.55,4.55,0,0,1-1.21,3.46,5.15,5.15,0,0,1-3.44,1.09,1.49,1.49,0,0,0-1.62,1.37,1.26,1.26,0,0,0,0,.47c.15.61.41,2.58-.38,3.66a2.26,2.26,0,0,1-1.78.83,3.15,3.15,0,0,1-2.57-.67,3.86,3.86,0,0,1-.85-2.69,1.49,1.49,0,1,0-3-.24,6.77,6.77,0,0,0,1.7,5,5.68,5.68,0,0,0,4.2,1.58l.73,0a5.15,5.15,0,0,0,4-2.07,6.92,6.92,0,0,0,1.1-4.36,6.85,6.85,0,0,0,6.09-7.43A6.55,6.55,0,0,0,149.63,54.07Z" transform="translate(0 0)" style="fill:#b8c4e0"/></g></g></g></g><path id="Tracé_22526" data-name="Tracé 22526" d="M48.58,61.4a9.13,9.13,0,0,1,.62.91,152.74,152.74,0,0,0-7.86,16.18C39,84.33,63.22,84.15,70.53,83.8c1.39-.07,3.54-4.68,4.89-4.07s-.62,2.49-.62,2.49,2.79-1.5,3.71-1,4.73,4,.95,5.88-39.73-.24-41.8-4.44c-1.58-3.21,4.18-16.3,7-22.21C46,60.44,47.8,60.4,48.58,61.4Z" transform="translate(0 0)" style="fill:#8595ba"/><g id="Groupe_10758" data-name="Groupe 10758"><path id="Tracé_22522" data-name="Tracé 22522" d="M119.27,30.2s7.11-1.1,11.73,1.23,6.73,8.11,6.73,8.11" transform="translate(0 0)" style="fill:none;stroke:#8595ba;stroke-linecap:round;stroke-linejoin:bevel;stroke-width:4px"/><path id="Tracé_22523" data-name="Tracé 22523" d="M93.54,30.2s-7.11-1.1-11.73,1.23-6.73,8.11-6.73,8.11" transform="translate(0 0)" style="fill:none;stroke:#8595ba;stroke-linecap:round;stroke-linejoin:bevel;stroke-width:4px"/></g><g id="Groupe_10736" data-name="Groupe 10736"><g id="Groupe_10734" data-name="Groupe 10734"><g id="Groupe_29" data-name="Groupe 29"><path id="Tracé_97" data-name="Tracé 97" d="M133.8,52.74a9.18,9.18,0,1,1-9.18-9.18,9.18,9.18,0,0,1,9.18,9.18Z" transform="translate(0 0)" style="fill:none;stroke:#8595ba;stroke-width:3px"/><path id="Tracé_98" data-name="Tracé 98" d="M128.15,56.15a3.6,3.6,0,1,1-3.61-3.6h0A3.61,3.61,0,0,1,128.15,56.15Z" transform="translate(0 0)" style="fill:#8595ba;stroke:#8595ba;stroke-width:3px"/></g></g><g id="Groupe_10742" data-name="Groupe 10742"><g id="Groupe_29-2" data-name="Groupe 29-2"><path id="Tracé_97-2" data-name="Tracé 97-2" d="M97.55,52.74a9.18,9.18,0,1,1-9.18-9.18,9.18,9.18,0,0,1,9.18,9.18Z" transform="translate(0 0)" style="fill:none;stroke:#8595ba;stroke-width:3px"/><path id="Tracé_98-2" data-name="Tracé 98-2" d="M91.9,56.15a3.6,3.6,0,1,1-3.6-3.6h0A3.6,3.6,0,0,1,91.9,56.15Z" transform="translate(0 0)" style="fill:#8595ba;stroke:#8595ba;stroke-width:3px"/></g></g></g><path id="Tracé_22524" data-name="Tracé 22524" d="M143.09,43.39H112.21a1.28,1.28,0,0,0-.66.18,8.61,8.61,0,0,0-9.84,0,1.26,1.26,0,0,0-.7-.2H70.15A1.17,1.17,0,1,0,70,45.74h1.88V58.54a4.68,4.68,0,0,0,4.54,4.82h21A4.68,4.68,0,0,0,102,58.54V46.92a1.49,1.49,0,0,0,.15-.2,5.08,5.08,0,0,1,4.55-2.32,5,5,0,0,1,4.64,2.5V58.54a4.69,4.69,0,0,0,4.54,4.83h21a4.7,4.7,0,0,0,4.54-4.83V45.74h1.69a1.17,1.17,0,0,0,.1-2.34ZM97.41,61h-21a2.31,2.31,0,0,1-2.08-2.48V45.73h25.2v12.8A2.31,2.31,0,0,1,97.41,61ZM139,58.54A2.3,2.3,0,0,1,136.87,61h-21a2.31,2.31,0,0,1-2.09-2.47V45.74H139Z" transform="translate(0 0)" style="fill:#8595ba"/><g id="Groupe_11092" data-name="Groupe 11092"><g id="Groupe_22" data-name="Groupe 22"><path id="Tracé_51" data-name="Tracé 51" d="M112.24,73.89a2.84,2.84,0,0,0-1-2.07A5.5,5.5,0,0,0,109,70.59a8.05,8.05,0,0,0-4.46,0,5.5,5.5,0,0,0-2.23,1.23,2.84,2.84,0,0,0-1,2.07c0,1.45,1.29.78,3.15.32a8.22,8.22,0,0,1,4.56,0C111,74.68,112.24,75.34,112.24,73.89Z" transform="translate(0 0)" style="fill:#8595ba"/></g><path id="Tracé_52" data-name="Tracé 52" d="M109,70.86a8.05,8.05,0,0,0-4.46,0,2.25,2.25,0,0,0,4.46,0Z" transform="translate(0 0)" style="fill:#8595ba"/></g><g id="Groupe_10762" data-name="Groupe 10762"><path id="Tracé_43" data-name="Tracé 43" d="M107.31,74.78l26.63-5.85-5.67,36.12-24.65,5.06Z" transform="translate(0 0)" style="fill:#b8c4e0"/><path id="Tracé_44" data-name="Tracé 44" d="M107.31,74.78,79.36,68.93l1.46,36.51,22.8,4.67Z" transform="translate(0 0)" style="fill:#b8c4e0"/></g></g><path id="Tracé_22527" data-name="Tracé 22527" d="M156.19,61.4a9,9,0,0,0-.61.91,154.63,154.63,0,0,1,7.85,16.18c2.36,5.84-21.87,5.66-29.19,5.31-1.38-.07-3.54-4.68-4.88-4.07s.61,2.49.61,2.49-2.78-1.5-3.71-1-4.73,4-.94,5.88,39.73-.24,41.8-4.43c1.58-3.22-4.19-16.31-7-22.22C158.79,60.44,157,60.4,156.19,61.4Z" transform="translate(0 0)" style="fill:#8595ba"/></g><g id="Groupe_10773" data-name="Groupe 10773"><path id="Tracé_22528" data-name="Tracé 22528" d="M48.58,61.4a9.13,9.13,0,0,1,.62.91,154.71,154.71,0,0,0-7.86,16.18C39,84.33,63.22,84.15,70.53,83.8c1.39-.07,3.54-4.68,4.89-4.07s-.62,2.49-.62,2.49,2.78-1.5,3.71-1,4.73,4,.95,5.88-39.73-.24-41.8-4.44c-1.58-3.2,4.18-16.3,7-22.21C46,60.44,47.8,60.4,48.58,61.4Z" transform="translate(0 0)" style="fill:#8595ba"/><path id="Tracé_22529" data-name="Tracé 22529" d="M156.19,62.2a8,8,0,0,0-.61.91,153.52,153.52,0,0,1,7.85,16.17c2.37,5.85-21.86,5.67-29.18,5.32-1.39-.07-3.54-4.68-4.89-4.07S130,83,130,83s-2.79-1.5-3.71-1-4.73,4-1,5.88,39.73-.24,41.79-4.43c1.59-3.22-4.18-16.31-6.94-22.22C158.79,61.24,157,61.2,156.19,62.2Z" transform="translate(0 0)" style="fill:#8595ba"/></g></g></g></g></svg>