<svg id="Calque_1" data-name="Calque 1" xmlns="http://www.w3.org/2000/svg" viewBox="0 0 194.71 148.82"><title>partyneo2</title><g id="Groupe_11165" data-name="Groupe 11165"><g id="Groupe_11160" data-name="Groupe 11160"><g id="Groupe_10778" data-name="Groupe 10778"><g id="Groupe_10775" data-name="Groupe 10775"><path id="Tracé_22528" data-name="Tracé 22528" d="M28.37,69.42a10.07,10.07,0,0,0-.65-1A168.94,168.94,0,0,1,7.85,69C.88,68.8,12,44.4,15.61,37.16c.69-1.36,6.32-1.47,6.31-3.1s-2.79-.5-2.79-.5,2.76-2.13,2.69-3.28-1.9-6.57-5.52-3.6S-1.33,66.92,2,70.89c2.54,3,18.36,3.12,25.58,3C28.16,72.47,29,70.66,28.37,69.42Z" transform="translate(-1.48 0)" style="fill:#8595ba"/></g><g id="Groupe_10740" data-name="Groupe 10740"><g id="Groupe_10740-2" data-name="Groupe 10740-2"><g id="Groupe_10738" data-name="Groupe 10738"><g id="Groupe_34" data-name="Groupe 34"><g id="Groupe_25" data-name="Groupe 25"><path id="Tracé_87" data-name="Tracé 87" d="M74.94,90s3.35,52.05,1.68,53.6-10.88.16-12.56,3,14.06,2.7,16.08.94,0-57.57,0-57.57Z" transform="translate(-1.48 0)" style="fill:#8595ba"/><path id="Tracé_88" data-name="Tracé 88" d="M122.59,88.74s-3.35,52.05-1.67,53.6,10.87.16,12.55,3-14.06,2.71-16.07.95,0-57.57,0-57.57Z" transform="translate(-1.48 0)" style="fill:#8595ba"/></g><g id="Groupe_27" data-name="Groupe 27"><path id="Tracé_89" data-name="Tracé 89" d="M134,101c1.61.68,7,2.6,11.43-.21,5.22-3.34,5.22-7.31,5.22-7.31a15.22,15.22,0,0,0,15.25-3.55c7.31-6.68,4-20,4-20s6.85-3.56,6-10.9c-1.28-11.85-13.36-12.53-13.36-12.53s3.76-9-2.93-15.25-15.45-4.8-15.45-4.8,1.67-4.79-2.51-7.72-7.5-1.18-7.5-1.18.71-9.5-7.93-12.73C118,1.73,111,6.61,111,6.61S105.74,1,98.23,2a23.26,23.26,0,0,0-11.7,4.8,13.3,13.3,0,0,0-13-2.93,12,12,0,0,0-8.77,9.61S51.4,9.76,44.09,19s-3.76,16.87-3.76,16.87S28.26,34.17,24.5,45.66a20.32,20.32,0,0,0,3.13,19.21S17.82,74.69,22,85.34s14.18,8.4,14.18,8.4.85,9.14,10.67,9.77,14-2.93,14-2.93,8.56,7.1,16.91,6.27,11.49-4.18,11.49-4.18,7.94,4.52,15.66,4.25,14-5.5,14-5.5a8.22,8.22,0,0,0,7.72,3.75C131.83,104.64,133.68,100.87,134,101Z" transform="translate(-1.48 0)" style="fill:#f3f6fe"/><g id="Groupe_26" data-name="Groupe 26"><path id="Tracé_90" data-name="Tracé 90" d="M177.78,58.82c-1-9.07-7.86-12.81-12.8-13.88.8-3.41,1.37-10-4.08-15.06a21.1,21.1,0,0,0-14.42-5.47h-.1a8.4,8.4,0,0,0-3.64-7.23A10.47,10.47,0,0,0,137,15a12.45,12.45,0,0,0-1.27-3.45,15,15,0,0,0-8.83-8.52,17.87,17.87,0,0,0-6.3-1.14,20,20,0,0,0-6.18,1h0l-.46.16-.25.1h0a23.55,23.55,0,0,0-2.41,1.07A17.7,17.7,0,0,0,100.08,0,15.11,15.11,0,0,0,98,.15,26.64,26.64,0,0,0,86.59,4.42a15.18,15.18,0,0,0-9-3,16,16,0,0,0-4.52.66,13.79,13.79,0,0,0-9.66,9.23c-4.12-.6-14-1.06-20.32,6.85-4.2,5.29-5.23,9.77-5.25,12.88v0A10.6,10.6,0,0,0,38,33c-4.1.47-12.16,2.61-15.25,12a22.3,22.3,0,0,0,2.41,19.57l-.37.42a1.9,1.9,0,0,0-.34.7C21.56,69.48,16.86,77.4,20.24,86c3,7.74,9,8.9,12.36,8.9a15.49,15.49,0,0,0,2.25-.17c1,4.31,4.2,10.14,11.88,10.63.81.05,1.61.08,2.4.08,6,0,9.8-1.56,11.62-2.58,2.51,1.82,8.89,5.91,15.62,5.91.53,0,1.06,0,1.57-.07a25.44,25.44,0,0,0,10.36-3.06,6.3,6.3,0,0,0,1.27-.7c2.53,1.25,8.51,3.85,14.65,3.85l.75,0A27,27,0,0,0,118.53,104a6.56,6.56,0,0,0,.67.62.8.8,0,0,0,.16.08,9.62,9.62,0,0,0,6.37,2.38h0c.37,0,.73,0,1.08,0a11.76,11.76,0,0,0,7.66-3.86,17.39,17.39,0,0,0,5.54,1,11.64,11.64,0,0,0,6.42-1.78A13.06,13.06,0,0,0,152,95.79a17.17,17.17,0,0,0,3.2.3,17.43,17.43,0,0,0,11.91-4.77c6.68-6.11,5.48-16.74,4.8-20.5C174.17,69.26,178.49,65.34,177.78,58.82Zm-8.4,9.2c-1-.3-2.23-.65-3.72-1a7.41,7.41,0,0,0-7.47,2,6.34,6.34,0,0,0-1.2,6.52A5.35,5.35,0,0,0,162.42,79a8.89,8.89,0,0,0,2.81-.45,1.7,1.7,0,1,0-1-3.25l-.08,0c-.13,0-3.18,1.07-3.94-1a3,3,0,0,1,.54-3.08,4,4,0,0,1,4.11-.92c1.34.34,2.46.65,3.37.92.54,2.88,1.82,12.38-3.59,17.32a13.56,13.56,0,0,1-9.37,3.79,12.45,12.45,0,0,1-3.74-.54l-3.39-6.52A1.88,1.88,0,1,0,144.79,87l3.8,7.32a9.31,9.31,0,0,1-4.18,4.88,8,8,0,0,1-4.39,1.18,14.13,14.13,0,0,1-5.29-1.12l-.37-.15H134a2.42,2.42,0,0,0-1.87,1.09,8.15,8.15,0,0,1-5.66,3.1l-.7,0h0a6.32,6.32,0,0,1-4.92-2.45,6.18,6.18,0,0,1-.9-3.55,3.09,3.09,0,0,1,1.41-2.57c2.41-1.38,3.57-.21,3.87.2a1.88,1.88,0,0,0,3.09-2.15c-1.09-1.58-4.33-3.9-8.83-1.3a6.73,6.73,0,0,0-3.29,5.55,9.81,9.81,0,0,0,.49,3.68c-2,1.37-6.56,4.1-11.82,4.3-5,.17-10.24-1.88-12.89-3.12h0c1.08-2.64.81-6-.75-9.5C88.8,87.1,83,87.27,80.32,88.11a1.88,1.88,0,0,0,1.1,3.59c.2-.06,4.7-1.4,6.35,2.27,1.12,2.49,1.38,4.87.7,6.53a3.19,3.19,0,0,1-.3.58l-.28.29S85,104.24,77.57,105a12.1,12.1,0,0,1-1.21.06c-5.65,0-11.32-3.7-13.44-5.23l.47-5.7a1.88,1.88,0,0,0-3.75-.31l-.47,5.65c-1.11.68-4.31,2.25-10.05,2.25-.7,0-1.42,0-2.15-.07-7.79-.5-8.61-8.43-8.67-9.19a5.13,5.13,0,0,1,2.77-4.11,4.1,4.1,0,0,1,2.5-.68l-.14-.05,1.47-3.46c-.36-.15-2.34-.84-5.57.86a8.77,8.77,0,0,0-4.59,6,11.84,11.84,0,0,1-2.14.2c-4.18,0-7.16-2.19-8.86-6.5-3.5-9,4.38-17.57,5.16-18.38A9.56,9.56,0,0,1,35,64.14a5.82,5.82,0,0,1,5.45,3.6A1.87,1.87,0,0,0,42.25,69a1.72,1.72,0,0,0,.6-.1A1.88,1.88,0,0,0,44,66.53a9.49,9.49,0,0,0-8.93-6.14,12.81,12.81,0,0,0-7,1.9,18.71,18.71,0,0,1-1.79-16c2.62-8,9.89-9.33,12.81-9.54a9,9,0,0,0,7.06,5.06,10,10,0,0,0,1.45.11c5,0,8-3.81,9.06-6a1.88,1.88,0,0,0-3.42-1.57h0c-.09.18-2.13,4.4-6.55,3.76a5.3,5.3,0,0,1-3.86-2.4L42.07,34A1.88,1.88,0,0,1,42,33.7a9.17,9.17,0,0,1-.37-2.5c0-.06,0-.11,0-.17,0-2.35.84-6,4.44-10.51,5.58-7,15-5.83,17.63-5.34l2.65,5.95A1.89,1.89,0,0,0,68,22.25a1.82,1.82,0,0,0,.76-.16,1.88,1.88,0,0,0,1-2.48l-2.86-6.43a1.27,1.27,0,0,0-.07-.12A10.16,10.16,0,0,1,74.1,5.7a12.79,12.79,0,0,1,3.48-.51,11.41,11.41,0,0,1,7.59,2.93l.42.44a5.16,5.16,0,0,1,.72,5.09,4.22,4.22,0,0,1-4,2.65A1.88,1.88,0,0,0,82,20a3,3,0,0,0,.43,0,8,8,0,0,0,7.26-4.77,8.48,8.48,0,0,0-.53-8.07,23.22,23.22,0,0,1,9.32-3.34,10.76,10.76,0,0,1,1.6-.11,13.79,13.79,0,0,1,8.3,3.06,8.85,8.85,0,0,0-2,3.92A7.67,7.67,0,0,0,111.7,20a2.3,2.3,0,0,0,.45,0A1.88,1.88,0,0,0,114,18.17a1.9,1.9,0,0,0-1.41-1.81,3.89,3.89,0,0,1-2.54-4.81c.7-3.21,4.52-4.69,5.25-5a16.11,16.11,0,0,1,5.28-.92,14.15,14.15,0,0,1,5,.9A11.43,11.43,0,0,1,132.24,13a.58.58,0,0,0,0,.14,13.32,13.32,0,0,1,1,4.2l0,3.17c-.62,2.68-2,2.69-2.64,2.69a4.07,4.07,0,0,1-2.14-.7,1.88,1.88,0,1,0-2.31,3A7.82,7.82,0,0,0,130.64,27c1.71,0,5.78-.69,6.56-7,.05-.37.07-.73.09-1.08a7.44,7.44,0,0,1,3.3,1.45,4.92,4.92,0,0,1,1.81,5.57l-1,3,3.11-.5a13.56,13.56,0,0,1,2-.12,17.41,17.41,0,0,1,11.86,4.44c4.94,4.64,3.2,11.06,2.62,12.74-.2.42-2.82,5.77-6.48,5.94a2.55,2.55,0,0,1-1.93-.44,1.68,1.68,0,0,1-.2-1.24,1.88,1.88,0,1,0-3.66-.88h0a5,5,0,0,0,5.47,6.32h.49c4.44-.2,7.47-4.21,8.87-6.55,2.72.46,9.62,2.42,10.52,10.73.54,5.07-3.39,8-4.67,8.78Z" transform="translate(-1.48 0)" style="fill:#b8c4e0"/><path id="Tracé_91" data-name="Tracé 91" d="M139,43a10.82,10.82,0,0,0-2.55-9.67c-6.06-7.3-15.25-5.69-21-3.1a13.16,13.16,0,0,0-8.92-10c-6.89-2.34-12.2,2.29-14.66,5.13a17.18,17.18,0,0,0-12.65-4.57c-4.42.09-8.61,3.41-10.18,8.07a9.9,9.9,0,0,0,3.21,11.35,11.5,11.5,0,0,0,15.26-.4A1.88,1.88,0,1,0,85,37.09h0a7.73,7.73,0,0,1-10.35.2,6.28,6.28,0,0,1-2-7.2c1.06-3.14,3.87-5.46,6.7-5.52,7.8-.16,10.92,4.58,11,4.77A1.88,1.88,0,0,0,93,30a2.07,2.07,0,0,0,.6-.58c0-.08,5.11-7.83,11.79-5.56A9.58,9.58,0,0,1,112,33.13a1.88,1.88,0,0,0,1.77,2,2,2,0,0,0,1.1-.28c.48-.3,11.9-7.24,18.68.93a7.21,7.21,0,0,1,1.78,6.41,7.74,7.74,0,0,1-3.77,5c-2.46,1.1-5.53-.52-5.55-.53a1.88,1.88,0,1,0-1.81,3.3h0a12.77,12.77,0,0,0,4.61,1.34,8.76,8.76,0,0,0,4.29-.67A11.5,11.5,0,0,0,139,43Z" transform="translate(-1.48 0)" style="fill:#b8c4e0"/><path id="Tracé_92" data-name="Tracé 92" d="M57.37,69.44a8.67,8.67,0,0,0-.45-4.83h0a9.74,9.74,0,0,0,3.21-.53,8.63,8.63,0,0,0,5.47-6.16,11.87,11.87,0,0,0-2-10.45c-3.46-4.09-8.84-3.07-11.21-1.95a1.88,1.88,0,0,0,1.6,3.4s4.26-2,6.74,1a8.11,8.11,0,0,1,1.29,7,5,5,0,0,1-3.08,3.6,7.25,7.25,0,0,1-5.72-.69A15.17,15.17,0,0,0,51,58.37l-.18-.17a1.88,1.88,0,1,0-2.69,2.63l.06.05s.25.25.59.53h0A15.24,15.24,0,0,0,51.13,63c1.43,1.22,3,3.19,2.54,5.76-.77,4.12-3.82,4.33-4.18,4.34a1.88,1.88,0,0,0,0,3.76h0C51.75,76.85,56.27,75.3,57.37,69.44Z" transform="translate(-1.48 0)" style="fill:#b8c4e0"/><path id="Tracé_93" data-name="Tracé 93" d="M65,77.13A11.21,11.21,0,0,0,55.06,84a1.88,1.88,0,1,0,3.51,1.35h0a7.47,7.47,0,0,1,6.53-4.48c4.13-.12,4.56,4.5,4.6,5a1.87,1.87,0,0,0,1.87,1.76h.12a1.88,1.88,0,0,0,1.76-2C73.26,82.62,71.26,76.93,65,77.13Z" transform="translate(-1.48 0)" style="fill:#b8c4e0"/><path id="Tracé_94" data-name="Tracé 94" d="M148,62c-3-2.54-7.58-1.79-7.78-1.76a1.72,1.72,0,0,0,.59,3.38s3.2-.5,5,1a4.2,4.2,0,0,1,1.29,3.45,5.2,5.2,0,0,1-1.39,4,5.87,5.87,0,0,1-3.95,1.24,1.71,1.71,0,0,0-1.86,1.56,1.77,1.77,0,0,0,0,.56c.17.7.46,3-.43,4.19a2.62,2.62,0,0,1-2.05,1,3.69,3.69,0,0,1-2.95-.77,4.44,4.44,0,0,1-1-3.09,1.72,1.72,0,1,0-3.42-.27,7.76,7.76,0,0,0,2,5.76A6.51,6.51,0,0,0,136.85,84a8.13,8.13,0,0,0,.84,0,5.87,5.87,0,0,0,4.55-2.37,7.94,7.94,0,0,0,1.26-5,7.85,7.85,0,0,0,7-8.52A7.51,7.51,0,0,0,148,62Z" transform="translate(-1.48 0)" style="fill:#b8c4e0"/></g></g></g></g></g></g><g id="Groupe_10805" data-name="Groupe 10805"><path id="Tracé_22522" data-name="Tracé 22522" d="M116.27,39.52s8-1.23,13.11,1.38S136.91,50,136.91,50" transform="translate(-1.48 0)" style="fill:none;stroke:#8595ba;stroke-linecap:round;stroke-linejoin:bevel;stroke-width:4px"/><path id="Tracé_22523" data-name="Tracé 22523" d="M87.51,39.52s-8-1.23-13.12,1.38S66.86,50,66.86,50" transform="translate(-1.48 0)" style="fill:none;stroke:#8595ba;stroke-linecap:round;stroke-linejoin:bevel;stroke-width:4px"/></g><g id="Groupe_24" data-name="Groupe 24"><path id="Tracé_53" data-name="Tracé 53" d="M92.67,69.56l0-.36c0-.12,0-.26,0-.43a2,2,0,0,0,0-.27c0-.1,0-.23,0-.35s0-.52,0-.82-.08-.6-.13-.94a9.55,9.55,0,0,0-.24-1,12,12,0,0,0-.4-1.14c-.18-.38-.37-.78-.6-1.18a11.21,11.21,0,0,0-3-3.31l-.68-.45c-.24-.15-.49-.26-.74-.4l-.38-.19-.39-.16c-.26-.1-.53-.22-.8-.3a10.92,10.92,0,0,0-1.69-.4,8.08,8.08,0,0,0-.86-.1l-.44,0h-.53l-.74,0h-.18l-.21,0-.47.07a8.93,8.93,0,0,0-.9.17l-.84.23c-.27.09-.54.2-.8.3l-.39.16-.38.2a7.43,7.43,0,0,0-.73.4l-.69.45a10.93,10.93,0,0,0-3,3.31,13.15,13.15,0,0,0-.6,1.18,10.29,10.29,0,0,0-.4,1.13c-.1.37-.19.72-.25,1.05s-.1.65-.13.93,0,.56,0,.79v.34c0,.11,0,.2,0,.3s0,.34.06.46l0,.38a.73.73,0,0,0,.82.64.75.75,0,0,0,.63-.54l0-.1.08-.32a9,9,0,0,1,.25-.89l.2-.62c.1-.21.19-.44.29-.69s.25-.49.39-.75.32-.51.48-.78.39-.52.6-.77A7.4,7.4,0,0,1,75.7,64a8.71,8.71,0,0,1,1.76-1.32,9.77,9.77,0,0,1,2.14-.89l.57-.13a1.26,1.26,0,0,1,.28,0l.26,0,.25,0,.16,0h.19l.73,0a.83.83,0,0,0,.79-.87.83.83,0,0,0-1.66.09.82.82,0,0,0,.79.78h.59a4.12,4.12,0,0,1,.59.07,3.69,3.69,0,0,1,.58.09l.58.13a9.7,9.7,0,0,1,2.13.89A8.77,8.77,0,0,1,88.2,64a6.38,6.38,0,0,1,.72.75c.22.25.41.52.6.77s.35.53.49.78.28.5.39.75.19.48.29.69l.2.58.09.26.06.26c0,.17.07.31.1.42l.08.35a.76.76,0,0,0,.91.55.78.78,0,0,0,.56-.62Z" transform="translate(-1.48 0)" style="fill:#8595ba"/><path id="Tracé_54" data-name="Tracé 54" d="M132.31,69.56s0-.13.05-.36l0-.43a2,2,0,0,0,0-.27c0-.1,0-.23,0-.35s0-.52,0-.82-.08-.6-.13-.94a9.55,9.55,0,0,0-.24-1,12,12,0,0,0-.4-1.14c-.18-.38-.37-.78-.6-1.18A11.09,11.09,0,0,0,128,59.72l-.68-.45c-.24-.15-.49-.26-.74-.4l-.38-.19-.39-.16c-.26-.1-.53-.22-.8-.3a10.66,10.66,0,0,0-1.69-.4,8.08,8.08,0,0,0-.86-.1l-.44,0h-.53l-.74,0h-.18l-.21,0-.47.07a8.93,8.93,0,0,0-.9.17l-.84.23c-.27.09-.54.2-.8.3l-.39.16-.38.2a7.43,7.43,0,0,0-.73.4l-.69.45a10.93,10.93,0,0,0-3,3.31,13.15,13.15,0,0,0-.6,1.18,10.29,10.29,0,0,0-.4,1.13c-.1.37-.19.72-.25,1.05s-.1.65-.13.93,0,.56,0,.79v.34a2.77,2.77,0,0,0,0,.3c0,.18,0,.34,0,.46l0,.38a.74.74,0,0,0,1.44.1l0-.1.08-.32a8.28,8.28,0,0,1,.25-.89l.2-.62c.1-.21.19-.44.29-.69s.25-.49.39-.75.32-.51.48-.78.39-.52.6-.77a8.56,8.56,0,0,1,.72-.75,9.48,9.48,0,0,1,1.77-1.32,9.77,9.77,0,0,1,2.14-.89l.57-.13a1.26,1.26,0,0,1,.28,0l.25,0,.26,0,.16,0H121l.73,0a.83.83,0,0,0-.08-1.66.83.83,0,0,0,0,1.66h.58a4.09,4.09,0,0,1,.6.07,3.69,3.69,0,0,1,.58.09l.58.13a9.7,9.7,0,0,1,2.13.89A9.16,9.16,0,0,1,127.84,64a6.38,6.38,0,0,1,.72.75c.22.25.41.52.6.77s.35.53.49.78.28.5.39.75.19.48.29.69l.2.58.09.26a2.44,2.44,0,0,1,.06.26c0,.17.07.31.1.42l.09.35a.73.73,0,0,0,.89.55.75.75,0,0,0,.57-.62Z" transform="translate(-1.48 0)" style="fill:#8595ba"/></g></g></g><g id="Groupe_11162" data-name="Groupe 11162"><g id="Groupe_11161" data-name="Groupe 11161"><path id="Tracé_51" data-name="Tracé 51" d="M106.68,79.84a8.39,8.39,0,0,1-1,4,6.12,6.12,0,0,1-2.21,2.39,4.32,4.32,0,0,1-4.42,0,6.05,6.05,0,0,1-2.21-2.39,8.4,8.4,0,0,1-1-4c0-2.81,1.28-1.52,3.13-.62a4.41,4.41,0,0,0,4.52,0C105.4,78.32,106.68,77,106.68,79.84Z" transform="translate(-1.48 0)" style="fill:#8595ba"/></g></g><g id="trumpet"><path id="Tracé_22987" data-name="Tracé 22987" d="M103.69,76.92l2.91,6.32s24.65-13.57,48.64-9.9l-12.4-26.93C130,67,103.69,76.92,103.69,76.92Z" transform="translate(-1.48 0)" style="fill:#6dc1d8"/><path id="Tracé_22988" data-name="Tracé 22988" d="M144.45,49.92l-1.61-3.51C130,67,103.69,76.92,103.69,76.92L105,79.85C109.91,77.84,131.89,68,144.45,49.92Z" transform="translate(-1.48 0)" style="fill:#6dc1d8"/><g id="Groupe_11159" data-name="Groupe 11159"><path id="Tracé_22989" data-name="Tracé 22989" d="M162.57,53.81a1.29,1.29,0,0,1,.62-1.71l21.9-10.21a1.29,1.29,0,0,1,1.09,2.33l-21.9,10.22a1.29,1.29,0,0,1-1.71-.62Z" transform="translate(-1.48 0)" style="fill:#6dc1d8"/><path id="Tracé_22990" data-name="Tracé 22990" d="M163.05,58.1a1.28,1.28,0,0,1,1.09-1.45c.51-.07,12.6-1.74,23,1.61a1.29,1.29,0,0,1-.78,2.45c-9.86-3.17-21.77-1.53-21.89-1.51A1.28,1.28,0,0,1,163.05,58.1Z" transform="translate(-1.48 0)" style="fill:#6dc1d8"/><path id="Tracé_22991" data-name="Tracé 22991" d="M176.74,71.45a1.16,1.16,0,0,1-.5-.32,23,23,0,0,0-13.67-7.33,1.29,1.29,0,0,1,.18-2.57c.33,0,8.27.63,15.36,8.13a1.28,1.28,0,0,1-.05,1.82A1.27,1.27,0,0,1,176.74,71.45Z" transform="translate(-1.48 0)" style="fill:#6dc1d8"/><path id="Tracé_22992" data-name="Tracé 22992" d="M159.64,50.8a1.28,1.28,0,0,1,.1-1.82c.11-.1,9-8.16,12.91-17.74a1.28,1.28,0,1,1,2.38,1v0c-4.14,10.15-13.19,18.33-13.58,18.68A1.28,1.28,0,0,1,159.64,50.8Z" transform="translate(-1.48 0)" style="fill:#6dc1d8"/><path id="Tracé_22993" data-name="Tracé 22993" d="M155.26,49.3a1.29,1.29,0,0,1-.29-1.8h0a23.06,23.06,0,0,0,3.17-15.19A1.29,1.29,0,0,1,160.7,32c1.18,10.25-3.45,16.73-3.65,17A1.28,1.28,0,0,1,155.26,49.3Z" transform="translate(-1.48 0)" style="fill:#6dc1d8"/></g><path id="Tracé_22994" data-name="Tracé 22994" d="M195.64,41.68a2.86,2.86,0,1,1-.63-4h0A2.87,2.87,0,0,1,195.64,41.68Z" transform="translate(-1.48 0)" style="fill:#6dc2d2"/><path id="Tracé_22995" data-name="Tracé 22995" d="M195.46,38.08a2.86,2.86,0,1,0-1.72,4.74,2.86,2.86,0,0,1,.23-4A3,3,0,0,1,195.46,38.08Z" transform="translate(-1.48 0)" style="fill:#6dc2d2"/><circle id="Ellipse_454" data-name="Ellipse 454" cx="186.39" cy="51.18" r="1.81" style="fill:#77cec1"/><circle id="Ellipse_455" data-name="Ellipse 455" cx="157.19" cy="27.13" r="1.81" style="fill:#f7b069"/><path id="Tracé_22996" data-name="Tracé 22996" d="M186.74,34.52l-.46-2.85,2.09-2a.43.43,0,0,0,0-.6.44.44,0,0,0-.24-.13l-2.85-.45c-1.34-2.79-1.27-2.84-1.62-2.84s-.3.07-1.69,2.8l-2.86.39a.42.42,0,0,0-.37.47.53.53,0,0,0,.12.25l2,2-.52,2.85a.39.39,0,0,0,.17.41c.28.21.28.12,3-1.27L186.12,35a.42.42,0,0,0,.57-.18A.4.4,0,0,0,186.74,34.52Z" transform="translate(-1.48 0)" style="fill:#f6a568"/><path id="Tracé_22997" data-name="Tracé 22997" d="M183.48,32.36c-2.19-2.19-2.25-2.15-2.14-2.48s.16-.26,3.2-.66l.56-1.11L184,25.9a.42.42,0,0,0-.56-.2.39.39,0,0,0-.19.19L182,28.46c-3.08.42-3.1.34-3.21.67a.45.45,0,0,0,.1.44l2,2-.52,2.84a.42.42,0,0,0,.34.49.43.43,0,0,0,.27,0l2.22-1.13Z" transform="translate(-1.48 0)" style="fill:#f6a568"/><path id="Tracé_22998" data-name="Tracé 22998" d="M126.78,63.64l11.77,9.57a67,67,0,0,1,10.31-.46L132.12,59.14C130.37,60.75,128.57,62.25,126.78,63.64Z" transform="translate(-1.48 0)" style="fill:#6dc1d8"/><path id="Tracé_22999" data-name="Tracé 22999" d="M129.26,65.66c1.79-1.4,3.57-2.91,5.31-4.52l-2.45-2c-1.57,1.45-3.39,3-5.34,4.5Z" transform="translate(-1.48 0)" style="fill:#6dc1d8"/><path id="Tracé_23000" data-name="Tracé 23000" d="M120,77.56c2.43-.83,5.1-1.65,8-2.37l-8.17-6.63c-2.22,1.42-4.36,2.66-6.3,3.72Z" transform="translate(-1.48 0)" style="fill:#6dc1d8"/><path id="Tracé_23001" data-name="Tracé 23001" d="M116.1,74.41c2-1.1,4.06-2.36,6.23-3.78l-2.55-2.07c-2,1.3-4.15,2.55-6.3,3.72Z" transform="translate(-1.48 0)" style="fill:#6dc1d8"/><path id="Tracé_23002" data-name="Tracé 23002" d="M161.7,74.4,146.24,40.81a2.2,2.2,0,0,0-2.92-1.07l-1.16.53a2.21,2.21,0,0,0-1.08,2.92l15.47,33.58a2.2,2.2,0,0,0,2.91,1.08l1.16-.54A2.19,2.19,0,0,0,161.7,74.4Z" transform="translate(-1.48 0)" style="fill:#6ad0c1"/><path id="Tracé_23003" data-name="Tracé 23003" d="M159,75.5,143.52,41.92a2.23,2.23,0,0,1,.33-2.35,7.68,7.68,0,0,0-1.69.7,2.21,2.21,0,0,0-1.08,2.92l15.47,33.58a2.2,2.2,0,0,0,2.91,1.08l1.16-.54a2.08,2.08,0,0,0,.75-.56A2.21,2.21,0,0,1,159,75.5Z" transform="translate(-1.48 0)" style="fill:#6cc5d1"/><path id="Tracé_23004" data-name="Tracé 23004" d="M100.92,75.58l-1.17.53A2.2,2.2,0,0,0,98.68,79l3.06,6.64a2.19,2.19,0,0,0,2.91,1.08l1.17-.53a2.2,2.2,0,0,0,1.07-2.92l-3.06-6.65A2.19,2.19,0,0,0,100.92,75.58Z" transform="translate(-1.48 0)" style="fill:#8595ba"/><path id="Tracé_23005" data-name="Tracé 23005" d="M104.08,84.46,101,77.81a2.17,2.17,0,0,1,.36-2.38,1.9,1.9,0,0,0-.46.15l-1.17.53A2.2,2.2,0,0,0,98.68,79l3.06,6.64a2.19,2.19,0,0,0,2.91,1.08c1.26-.58,1.52-.65,1.88-1.07A2.19,2.19,0,0,1,104.08,84.46Z" transform="translate(-1.48 0)" style="fill:#8595ba"/></g><path id="Tracé_23007" data-name="Tracé 23007" d="M157.94,95.52c.27,8.27-.34,10-1.65,10.64-2.39,1.17-8.14-.31-15.87-2.7-15.8-4.9-19.2-7.66-25.71-11.56S102.48,83,101.16,90.48s50.32,21,57.74,21c4.87,0,5.35-7.54,5-18.31A35.12,35.12,0,0,1,157.94,95.52Z" transform="translate(-1.48 0)" style="fill:#8595ba"/></g></svg>