<svg id="Calque_1" data-name="Calque 1" xmlns="http://www.w3.org/2000/svg" viewBox="0 0 261.08 157.68"><title>partyneo</title><g id="Groupe_11165" data-name="Groupe 11165"><path id="Tracé_23007" data-name="Tracé 23007" d="M165.81,92.46c4.83,4.63,6.19,5.21,7.29,4.77,2-.81,4.22-5.07,7-11,5.61-12.16,5.79-15.7,7-21.73s1.24-12.18,6.48-8.91-14.63,41.62-18.63,46.1c-2.62,2.94-7.43-.86-13.75-6.87A28.75,28.75,0,0,0,165.81,92.46Z" transform="translate(-1.48 -1.36)" style="fill:#8595ba"/><g id="Groupe_11160" data-name="Groupe 11160"><g id="Groupe_10778" data-name="Groupe 10778"><g id="Groupe_10775" data-name="Groupe 10775"><path id="Tracé_22528" data-name="Tracé 22528" d="M28.37,79.63a9.93,9.93,0,0,0-.65-1,171.12,171.12,0,0,1-19.87.65C.88,79,12,54.61,15.61,47.38c.69-1.37,6.32-1.47,6.31-3.11s-2.79-.49-2.79-.49,2.76-2.14,2.69-3.29-1.9-6.57-5.52-3.6S-1.33,77.13,2,81.11c2.54,3,18.36,3.11,25.58,3C28.16,82.68,29,80.87,28.37,79.63Z" transform="translate(-1.48 -1.36)" style="fill:#8595ba"/></g><g id="Groupe_10740" data-name="Groupe 10740"><g id="Groupe_10740-2" data-name="Groupe 10740-2"><g id="Groupe_10738" data-name="Groupe 10738"><g id="Groupe_34" data-name="Groupe 34"><g id="Groupe_25" data-name="Groupe 25"><path id="Tracé_87" data-name="Tracé 87" d="M74.94,100.2s3.35,52.05,1.68,53.59-10.88.16-12.56,3,14.06,2.7,16.08.94,0-57.56,0-57.56Z" transform="translate(-1.48 -1.36)" style="fill:#8595ba"/><path id="Tracé_88" data-name="Tracé 88" d="M122.59,99s-3.35,52.05-1.67,53.59,10.87.16,12.55,3-14.06,2.7-16.07.94,0-57.56,0-57.56Z" transform="translate(-1.48 -1.36)" style="fill:#8595ba"/></g><g id="Groupe_27" data-name="Groupe 27"><path id="Tracé_89" data-name="Tracé 89" d="M134,111.21c1.61.68,7,2.6,11.43-.21,5.22-3.34,5.22-7.31,5.22-7.31a15.22,15.22,0,0,0,15.25-3.55c7.31-6.68,4-20,4-20s6.85-3.56,6-10.9c-1.28-11.85-13.36-12.53-13.36-12.53s3.76-9-2.93-15.24-15.45-4.8-15.45-4.8,1.67-4.8-2.51-7.73-7.5-1.18-7.5-1.18.71-9.5-7.93-12.73C118,11.94,111,16.82,111,16.82s-5.23-5.64-12.74-4.59A23.26,23.26,0,0,0,86.53,17a13.3,13.3,0,0,0-13-2.93,12,12,0,0,0-8.77,9.61S51.4,20,44.09,29.16,40.33,46,40.33,46,28.26,44.39,24.5,55.87a20.35,20.35,0,0,0,3.13,19.22S17.82,84.9,22,95.55,36.18,104,36.18,104s.85,9.14,10.67,9.77,14-2.92,14-2.92,8.56,7.1,16.91,6.26,11.49-4.18,11.49-4.18,7.94,4.52,15.66,4.25,14-5.5,14-5.5a8.25,8.25,0,0,0,7.72,3.76C131.83,114.85,133.68,111.08,134,111.21Z" transform="translate(-1.48 -1.36)" style="fill:#f3f6fe"/><g id="Groupe_26" data-name="Groupe 26"><path id="Tracé_90" data-name="Tracé 90" d="M177.78,69c-1-9.07-7.86-12.81-12.8-13.88.8-3.4,1.37-10-4.08-15.06a21,21,0,0,0-14.42-5.46h-.1a8.4,8.4,0,0,0-3.64-7.24A10.47,10.47,0,0,0,137,25.23a12.45,12.45,0,0,0-1.27-3.45,15.08,15.08,0,0,0-8.83-8.52,18.09,18.09,0,0,0-6.3-1.14,19.68,19.68,0,0,0-6.18,1h0l-.46.15-.25.1,0,0a19.87,19.87,0,0,0-2.41,1.07,17.59,17.59,0,0,0-11.13-4.28,15.11,15.11,0,0,0-2.12.15,26.5,26.5,0,0,0-11.37,4.26,15.25,15.25,0,0,0-9-3,16.42,16.42,0,0,0-4.52.66,13.79,13.79,0,0,0-9.66,9.23c-4.12-.6-14-1.06-20.32,6.86-4.2,5.28-5.23,9.76-5.25,12.87v0a10.54,10.54,0,0,0,.13,2c-4.1.48-12.16,2.62-15.25,12a22.28,22.28,0,0,0,2.41,19.56c-.21.23-.34.39-.37.43a1.79,1.79,0,0,0-.34.69c-2.85,3.72-7.55,11.64-4.17,20.27,3,7.73,9,8.89,12.36,8.89a15.49,15.49,0,0,0,2.25-.17c1,4.31,4.2,10.14,11.88,10.63.81.06,1.61.08,2.4.08,6,0,9.8-1.56,11.62-2.58,2.51,1.83,8.89,5.92,15.62,5.92.53,0,1.06,0,1.57-.08a25.44,25.44,0,0,0,10.36-3.06,6.3,6.3,0,0,0,1.27-.7c2.53,1.25,8.51,3.85,14.65,3.85H105a27,27,0,0,0,13.56-4.78,5.59,5.59,0,0,0,.67.62.83.83,0,0,0,.16.09,9.67,9.67,0,0,0,6.37,2.37h0a9.54,9.54,0,0,0,1.08,0,11.79,11.79,0,0,0,7.66-3.85,17.67,17.67,0,0,0,5.54,1,11.72,11.72,0,0,0,6.42-1.78A13.12,13.12,0,0,0,152,106a16.36,16.36,0,0,0,3.2.3,17.38,17.38,0,0,0,11.91-4.77c6.68-6.11,5.48-16.74,4.8-20.5C174.17,79.47,178.49,75.55,177.78,69Zm-8.4,9.21c-1-.3-2.23-.65-3.72-1a7.41,7.41,0,0,0-7.47,2,6.35,6.35,0,0,0-1.2,6.52,5.36,5.36,0,0,0,5.43,3.54,8.9,8.9,0,0,0,2.81-.46,1.7,1.7,0,1,0-1-3.24l-.08,0c-.13,0-3.18,1.07-3.94-1a3,3,0,0,1,.54-3.07,4,4,0,0,1,4.11-.93c1.34.34,2.46.65,3.37.93.54,2.87,1.82,12.38-3.59,17.31a13.57,13.57,0,0,1-9.37,3.8,12.78,12.78,0,0,1-3.74-.55l-3.39-6.51a1.88,1.88,0,1,0-3.33,1.73l3.8,7.32a9.31,9.31,0,0,1-4.18,4.88,8.08,8.08,0,0,1-4.39,1.19,14.34,14.34,0,0,1-5.29-1.13l-.37-.15H134a2.42,2.42,0,0,0-1.87,1.09,8.15,8.15,0,0,1-5.66,3.1c-.24,0-.47,0-.7,0h0a6.33,6.33,0,0,1-4.92-2.46,6.14,6.14,0,0,1-.9-3.55,3.11,3.11,0,0,1,1.41-2.57c2.41-1.38,3.57-.2,3.87.2a1.88,1.88,0,0,0,3.09-2.14c-1.09-1.59-4.33-3.9-8.83-1.31a6.73,6.73,0,0,0-3.29,5.55,9.76,9.76,0,0,0,.49,3.68c-2,1.37-6.56,4.11-11.82,4.3-5,.18-10.24-1.88-12.89-3.11h0c1.08-2.65.81-6-.75-9.5-2.4-5.33-8.17-5.16-10.88-4.32a1.88,1.88,0,0,0,1.1,3.6c.2-.06,4.7-1.4,6.35,2.26,1.12,2.49,1.38,4.87.7,6.53a3.27,3.27,0,0,1-.3.59l-.28.29S85,114.46,77.57,115.2c-.4,0-.8,0-1.21,0-5.65,0-11.32-3.7-13.44-5.23l.47-5.7a1.88,1.88,0,1,0-3.75-.31l-.47,5.65c-1.11.68-4.31,2.26-10.05,2.26-.7,0-1.42,0-2.15-.07-7.79-.5-8.61-8.44-8.67-9.19a5.15,5.15,0,0,1,2.77-4.12,4.1,4.1,0,0,1,2.5-.68.39.39,0,0,1-.14,0l1.47-3.46c-.36-.15-2.34-.84-5.57.87a8.75,8.75,0,0,0-4.59,6,11.84,11.84,0,0,1-2.14.2c-4.18,0-7.16-2.19-8.86-6.5-3.5-8.94,4.38-17.56,5.16-18.38A9.5,9.5,0,0,1,35,74.36,5.79,5.79,0,0,1,40.48,78a1.88,1.88,0,0,0,1.77,1.26,1.72,1.72,0,0,0,.6-.1A1.88,1.88,0,0,0,44,76.74a9.51,9.51,0,0,0-8.93-6.14,12.81,12.81,0,0,0-7,1.9,18.71,18.71,0,0,1-1.79-16c2.62-8,9.89-9.33,12.81-9.53A9,9,0,0,0,46.16,52a10,10,0,0,0,1.45.1c5,0,8-3.81,9.06-6a1.88,1.88,0,0,0-3.42-1.58h0c-.09.18-2.13,4.4-6.55,3.76a5.3,5.3,0,0,1-3.86-2.4l-.77-1.66s-.06-.13-.11-.28a9.22,9.22,0,0,1-.37-2.5c0-.06,0-.12,0-.18,0-2.35.84-6,4.44-10.51,5.58-7,15-5.83,17.63-5.34l2.65,6A1.88,1.88,0,0,0,68,32.46a1.82,1.82,0,0,0,.76-.16,1.88,1.88,0,0,0,1-2.48l-2.86-6.43-.07-.12a10.16,10.16,0,0,1,7.29-7.36,12.79,12.79,0,0,1,3.48-.51,11.51,11.51,0,0,1,7.59,2.93l.42.44a5.16,5.16,0,0,1,.72,5.09,4.2,4.2,0,0,1-4,2.65A1.88,1.88,0,0,0,82,30.26a3.05,3.05,0,0,0,.43,0,8,8,0,0,0,7.26-4.77,8.48,8.48,0,0,0-.53-8.07,23.22,23.22,0,0,1,9.32-3.34,12.29,12.29,0,0,1,1.6-.11,13.74,13.74,0,0,1,8.3,3.07,8.76,8.76,0,0,0-2,3.91,7.67,7.67,0,0,0,5.3,9.26,2.32,2.32,0,0,0,.45.06,1.88,1.88,0,0,0,.46-3.7,3.91,3.91,0,0,1-2.54-4.82c.7-3.21,4.52-4.69,5.25-5a16.11,16.11,0,0,1,5.28-.92,14.15,14.15,0,0,1,5,.9,11.49,11.49,0,0,1,6.66,6.41.58.58,0,0,0,0,.14,13.32,13.32,0,0,1,1,4.2l0,3.17c-.62,2.68-2,2.69-2.64,2.69a4,4,0,0,1-2.14-.7,1.88,1.88,0,0,0-2.31,3,7.67,7.67,0,0,0,4.45,1.49c1.71,0,5.78-.68,6.56-7,.05-.37.07-.73.09-1.08a7.55,7.55,0,0,1,3.3,1.45,4.92,4.92,0,0,1,1.81,5.57l-1,3,3.11-.5a13.56,13.56,0,0,1,2-.12,17.41,17.41,0,0,1,11.86,4.44c4.94,4.65,3.2,11.06,2.62,12.74-.2.42-2.82,5.77-6.48,5.94a2.55,2.55,0,0,1-1.93-.44,1.68,1.68,0,0,1-.2-1.24A1.88,1.88,0,1,0,148.7,59h0a5.5,5.5,0,0,0,1,4.51,5.57,5.57,0,0,0,4.52,1.82,4.1,4.1,0,0,0,.49,0c4.44-.2,7.47-4.21,8.87-6.54,2.72.45,9.62,2.42,10.52,10.72.54,5.08-3.39,8-4.67,8.79Z" transform="translate(-1.48 -1.36)" style="fill:#b8c4e0"/><path id="Tracé_91" data-name="Tracé 91" d="M139,53.24a10.82,10.82,0,0,0-2.55-9.67c-6.06-7.3-15.25-5.68-21-3.1a13.15,13.15,0,0,0-8.92-10c-6.89-2.35-12.2,2.29-14.66,5.12A17.26,17.26,0,0,0,79.25,31c-4.42.09-8.61,3.41-10.18,8.08a9.89,9.89,0,0,0,3.21,11.34A11.5,11.5,0,0,0,87.54,50,1.88,1.88,0,1,0,85,47.3h0a7.72,7.72,0,0,1-10.35.2,6.27,6.27,0,0,1-2-7.2c1.06-3.14,3.87-5.46,6.7-5.52,7.8-.16,10.92,4.58,11,4.77a1.87,1.87,0,0,0,2.59.61,1.84,1.84,0,0,0,.6-.58c0-.08,5.11-7.83,11.79-5.55A9.56,9.56,0,0,1,112,43.35a1.88,1.88,0,0,0,1.77,2,1.8,1.8,0,0,0,1.1-.28c.48-.3,11.9-7.23,18.68.93a7.21,7.21,0,0,1,1.78,6.41,7.72,7.72,0,0,1-3.77,5c-2.46,1.1-5.53-.52-5.55-.53a1.88,1.88,0,1,0-1.81,3.3h0a12.57,12.57,0,0,0,4.61,1.34,8.65,8.65,0,0,0,4.29-.67A11.48,11.48,0,0,0,139,53.24Z" transform="translate(-1.48 -1.36)" style="fill:#b8c4e0"/><path id="Tracé_92" data-name="Tracé 92" d="M57.37,79.65a8.63,8.63,0,0,0-.45-4.82h0a9.75,9.75,0,0,0,3.21-.54,8.61,8.61,0,0,0,5.47-6.16,11.87,11.87,0,0,0-2-10.45c-3.46-4.09-8.84-3.06-11.21-2a1.88,1.88,0,0,0,1.6,3.4s4.26-2,6.74,1a8.12,8.12,0,0,1,1.29,7,5,5,0,0,1-3.08,3.6A7.21,7.21,0,0,1,53.2,70,15.17,15.17,0,0,0,51,68.58l-.18-.17A1.88,1.88,0,0,0,48.14,71l.06.06s.25.24.59.52h0a15.24,15.24,0,0,0,2.32,1.57c1.43,1.22,3,3.2,2.54,5.76-.77,4.12-3.82,4.33-4.18,4.34a1.88,1.88,0,0,0,0,3.76h0C51.75,87.06,56.27,85.51,57.37,79.65Z" transform="translate(-1.48 -1.36)" style="fill:#b8c4e0"/><path id="Tracé_93" data-name="Tracé 93" d="M65,87.34a11.21,11.21,0,0,0-9.92,6.88,1.88,1.88,0,1,0,3.51,1.35h0a7.47,7.47,0,0,1,6.53-4.48c4.13-.12,4.56,4.5,4.6,5a1.87,1.87,0,0,0,1.87,1.76h.12a1.89,1.89,0,0,0,1.76-2C73.26,92.83,71.26,87.14,65,87.34Z" transform="translate(-1.48 -1.36)" style="fill:#b8c4e0"/><path id="Tracé_94" data-name="Tracé 94" d="M148,72.2c-3-2.54-7.58-1.79-7.78-1.75a1.71,1.71,0,0,0,.59,3.37s3.2-.5,5,1a4.2,4.2,0,0,1,1.29,3.45,5.2,5.2,0,0,1-1.39,4,5.87,5.87,0,0,1-3.95,1.24A1.72,1.72,0,0,0,139.86,85a1.75,1.75,0,0,0,0,.56c.17.7.46,3-.43,4.19a2.59,2.59,0,0,1-2.05,1,3.62,3.62,0,0,1-2.95-.77,4.42,4.42,0,0,1-1-3.09,1.72,1.72,0,0,0-3.42-.27,7.78,7.78,0,0,0,2,5.77,6.5,6.5,0,0,0,4.81,1.81l.84,0a5.93,5.93,0,0,0,4.55-2.37,8,8,0,0,0,1.26-5,7.86,7.86,0,0,0,7-8.53A7.51,7.51,0,0,0,148,72.2Z" transform="translate(-1.48 -1.36)" style="fill:#b8c4e0"/></g></g></g></g></g></g><g id="Groupe_10805" data-name="Groupe 10805"><path id="Tracé_22522" data-name="Tracé 22522" d="M116.27,49.73s8-1.23,13.11,1.39,7.53,9.06,7.53,9.06" transform="translate(-1.48 -1.36)" style="fill:none;stroke:#8595ba;stroke-linecap:round;stroke-linejoin:bevel;stroke-width:5px"/><path id="Tracé_22523" data-name="Tracé 22523" d="M87.51,49.73s-8-1.23-13.12,1.39-7.53,9.06-7.53,9.06" transform="translate(-1.48 -1.36)" style="fill:none;stroke:#8595ba;stroke-linecap:round;stroke-linejoin:bevel;stroke-width:5px"/></g><g id="Groupe_24" data-name="Groupe 24"><path id="Tracé_53" data-name="Tracé 53" d="M92.67,79.77l0-.36c0-.11,0-.26,0-.42a2.4,2.4,0,0,0,0-.28c0-.1,0-.22,0-.35s0-.52,0-.82-.08-.6-.13-.93a9.7,9.7,0,0,0-.24-1,12,12,0,0,0-.4-1.14c-.18-.38-.37-.78-.6-1.18a11.05,11.05,0,0,0-3-3.3c-.22-.16-.45-.31-.68-.46s-.49-.26-.74-.4l-.38-.19-.39-.16c-.26-.1-.53-.22-.8-.3a10.92,10.92,0,0,0-1.69-.4,8.08,8.08,0,0,0-.86-.1l-.44,0h-.53l-.74,0-.18,0-.21,0-.47.06a8.93,8.93,0,0,0-.9.17l-.84.23c-.27.09-.54.2-.8.3l-.39.17-.38.19c-.24.13-.5.25-.73.4l-.69.45a10.93,10.93,0,0,0-3,3.31,13.15,13.15,0,0,0-.6,1.18,10.29,10.29,0,0,0-.4,1.13c-.1.37-.19.72-.25,1s-.1.65-.13.94,0,.55,0,.79v.33c0,.11,0,.2,0,.3s0,.34.06.47l0,.38a.73.73,0,0,0,.82.63.74.74,0,0,0,.63-.54l0-.09.08-.33A9,9,0,0,1,73,78.6l.2-.61c.1-.22.19-.45.29-.7s.25-.48.39-.74.32-.51.48-.78.39-.52.6-.78a8.62,8.62,0,0,1,.73-.75,9.1,9.1,0,0,1,1.76-1.32A9.77,9.77,0,0,1,79.6,72l.57-.13.28-.05.26,0,.25,0h.35l.73,0a.83.83,0,1,0-.87-.79.83.83,0,0,0,.79.79h.29l.3,0a3,3,0,0,1,.59.06c.19,0,.4,0,.58.09l.58.13a9.7,9.7,0,0,1,2.13.89,9.16,9.16,0,0,1,1.77,1.32,7.27,7.27,0,0,1,.72.75c.22.26.41.52.6.78s.35.52.49.78.28.5.39.74.19.48.29.7l.2.58.09.25.06.26c0,.17.07.31.1.42l.08.35a.75.75,0,0,0,1.47-.07Z" transform="translate(-1.48 -1.36)" style="fill:#8595ba"/><path id="Tracé_54" data-name="Tracé 54" d="M132.31,79.77s0-.12.05-.36l0-.42a2.4,2.4,0,0,0,0-.28c0-.1,0-.22,0-.35s0-.52,0-.82-.08-.6-.13-.93a9.7,9.7,0,0,0-.24-1,12,12,0,0,0-.4-1.14c-.18-.38-.37-.78-.6-1.18a11.05,11.05,0,0,0-3.05-3.3c-.22-.16-.45-.31-.68-.46s-.49-.26-.74-.4l-.38-.19-.39-.16c-.26-.1-.53-.22-.8-.3a10.66,10.66,0,0,0-1.69-.4,8.08,8.08,0,0,0-.86-.1l-.44,0h-.53l-.74,0-.18,0-.21,0-.47.06a8.93,8.93,0,0,0-.9.17l-.84.23c-.27.09-.54.2-.8.3l-.39.17-.38.19c-.24.13-.5.25-.73.4l-.69.45a10.93,10.93,0,0,0-3,3.31,13.15,13.15,0,0,0-.6,1.18,10.29,10.29,0,0,0-.4,1.13c-.1.37-.19.72-.25,1s-.1.65-.13.94,0,.55,0,.79v.33a2.77,2.77,0,0,0,0,.3c0,.19,0,.34,0,.47l0,.38a.74.74,0,0,0,1.44.09l0-.09.08-.33a8.28,8.28,0,0,1,.25-.89l.2-.61c.1-.22.19-.45.29-.7s.25-.48.39-.74.32-.51.48-.78.39-.52.6-.78a10.24,10.24,0,0,1,.72-.75,9.48,9.48,0,0,1,1.77-1.32,9.77,9.77,0,0,1,2.14-.89l.57-.13.28-.05.25,0,.26,0H121l.73,0a.83.83,0,1,0-.08,0h.29l.29,0a3.05,3.05,0,0,1,.6.06c.19,0,.4,0,.58.09l.58.13a9.7,9.7,0,0,1,2.13.89,9.16,9.16,0,0,1,1.77,1.32,7.27,7.27,0,0,1,.72.75c.22.26.41.52.6.78s.35.52.49.78.28.5.39.74.19.48.29.7l.2.58.09.25a2.44,2.44,0,0,1,.06.26c0,.17.07.31.1.42l.09.35a.73.73,0,0,0,.89.55.75.75,0,0,0,.57-.62Z" transform="translate(-1.48 -1.36)" style="fill:#8595ba"/></g></g></g><g id="Groupe_23" data-name="Groupe 23"><g id="Groupe_22" data-name="Groupe 22"><path id="Tracé_51" data-name="Tracé 51" d="M115.9,89.48a7.67,7.67,0,0,1-2.63,5.57,14.81,14.81,0,0,1-6,3.33,21.59,21.59,0,0,1-12,0,14.84,14.84,0,0,1-6-3.33,7.69,7.69,0,0,1-2.62-5.57c0-3.93,3.49-2.13,8.52-.87a22.21,22.21,0,0,0,12.31,0C112.41,87.35,115.9,85.55,115.9,89.48Z" transform="translate(-1.48 -1.36)" style="fill:#8595ba"/></g><path id="Tracé_52" data-name="Tracé 52" d="M107.24,97.64a21.59,21.59,0,0,1-12,0,6.08,6.08,0,0,1,12,0Z" transform="translate(-1.48 -1.36)" style="fill:#f3f6fe"/></g><g id="trumpet"><path id="Tracé_22987" data-name="Tracé 22987" d="M137.14,80.66l4.67,8.53s33.06-21.33,66.87-18.55L188.76,34.28C172.91,64.27,137.14,80.66,137.14,80.66Z" transform="translate(-1.48 -1.36)" style="fill:#6dc1d8"/><path id="Tracé_22988" data-name="Tracé 22988" d="M191.36,39l-2.6-4.74c-15.85,30-51.62,46.38-51.62,46.38l2.17,4C145.91,81.34,175.6,65.52,191.36,39Z" transform="translate(-1.48 -1.36)" style="fill:#6dc1d8"/><g id="Groupe_11159" data-name="Groupe 11159"><path id="Tracé_22989" data-name="Tracé 22989" d="M217,42.68a1.79,1.79,0,0,1,.7-2.44l29.54-16.38A1.8,1.8,0,0,1,249.11,27L249,27,219.45,43.39A1.8,1.8,0,0,1,217,42.68Z" transform="translate(-1.48 -1.36)" style="fill:#6dc1d8"/><path id="Tracé_22990" data-name="Tracé 22990" d="M218.09,48.63a1.8,1.8,0,0,1,1.39-2.14c.7-.15,17.4-3.66,32.28,0a1.8,1.8,0,0,1-.86,3.5c-14.06-3.46-30.5,0-30.67,0A1.8,1.8,0,0,1,218.09,48.63Z" transform="translate(-1.48 -1.36)" style="fill:#6dc1d8"/><path id="Tracé_22991" data-name="Tracé 22991" d="M238.49,65.91a1.83,1.83,0,0,1-.72-.4c-9.54-8.77-19.68-8.9-19.78-8.9a1.8,1.8,0,0,1,0-3.6c.46,0,11.6.08,22.22,9.85a1.8,1.8,0,0,1-1.72,3Z" transform="translate(-1.48 -1.36)" style="fill:#6dc1d8"/><path id="Tracé_22992" data-name="Tracé 22992" d="M212.63,38.77a1.81,1.81,0,0,1,0-2.55c.14-.14,11.76-12.25,16.27-26a1.8,1.8,0,1,1,3.42,1.13h0c-4.78,14.56-16.6,26.86-17.1,27.38a1.81,1.81,0,0,1-2.55,0Z" transform="translate(-1.48 -1.36)" style="fill:#6dc1d8"/><path id="Tracé_22993" data-name="Tracé 22993" d="M206.37,37.11a1.8,1.8,0,0,1-.57-2.49h0c0-.08,5.32-8.75,2.94-21.49a1.8,1.8,0,0,1,3.52-.75s0,.06,0,.09c2.66,14.18-3.17,23.67-3.42,24.07a1.81,1.81,0,0,1-2.48.57Z" transform="translate(-1.48 -1.36)" style="fill:#6dc1d8"/></g><path id="Tracé_22994" data-name="Tracé 22994" d="M262,22.54A4,4,0,1,1,260.69,17h0A4,4,0,0,1,262,22.54Z" transform="translate(-1.48 -1.36)" style="fill:#6dc2d2"/><path id="Tracé_22995" data-name="Tracé 22995" d="M261.35,17.54a4,4,0,1,0-1.94,6.78,4,4,0,0,1-.08-5.66A4.06,4.06,0,0,1,261.35,17.54Z" transform="translate(-1.48 -1.36)" style="fill:#6dc2d2"/><circle id="Ellipse_454" data-name="Ellipse 454" cx="250.56" cy="35.2" r="2.53" style="fill:#77cec1"/><circle id="Ellipse_455" data-name="Ellipse 455" cx="207.49" cy="4.5" r="2.53" style="fill:#f7b069"/><path id="Tracé_22996" data-name="Tracé 22996" d="M248.83,13.42l-.91-3.93,2.72-3a.59.59,0,0,0,0-.83.56.56,0,0,0-.35-.15l-4-.35c-2.14-3.76-2-3.84-2.54-3.81s-.41.13-2.09,4.08l-3.95.81a.59.59,0,0,0-.46.7.58.58,0,0,0,.19.33l3.05,2.64-.45,4a.6.6,0,0,0,.27.56c.41.26.41.14,4.08-2.08L248,14.09a.59.59,0,0,0,.79-.29A.62.62,0,0,0,248.83,13.42Z" transform="translate(-1.48 -1.36)" style="fill:#f6a568"/><path id="Tracé_22997" data-name="Tracé 22997" d="M244.08,10.72c-3.27-2.83-3.35-2.77-3.23-3.24s.2-.38,4.41-1.24l.67-1.6-1.69-3a.6.6,0,0,0-.81-.22.62.62,0,0,0-.25.28l-1.57,3.72c-4.25.87-4.29.77-4.41,1.24a.59.59,0,0,0,.18.6l3.05,2.64-.45,4a.6.6,0,0,0,.52.65.65.65,0,0,0,.38-.09l3-1.79Z" transform="translate(-1.48 -1.36)" style="fill:#f6a568"/><path id="Tracé_22998" data-name="Tracé 22998" d="M168.05,59.89l17.34,12.2a93.58,93.58,0,0,1,14.35-1.65L175.06,53.09C172.77,55.51,170.41,57.78,168.05,59.89Z" transform="translate(-1.48 -1.36)" style="fill:#6dc1d8"/><path id="Tracé_22999" data-name="Tracé 22999" d="M171.7,62.46c2.36-2.13,4.7-4.41,7-6.82l-3.63-2.55c-2.05,2.17-4.42,4.5-7,6.8Z" transform="translate(-1.48 -1.36)" style="fill:#6dc1d8"/><path id="Tracé_23000" data-name="Tracé 23000" d="M159.92,80c3.31-1.39,7-2.79,10.88-4.07l-12-8.46c-3,2.2-5.82,4.14-8.43,5.8Z" transform="translate(-1.48 -1.36)" style="fill:#6dc1d8"/><path id="Tracé_23001" data-name="Tracé 23001" d="M154.21,76c2.61-1.73,5.42-3.7,8.31-5.89l-3.75-2.63c-2.7,2-5.55,4-8.43,5.8Z" transform="translate(-1.48 -1.36)" style="fill:#6dc1d8"/><path id="Tracé_23002" data-name="Tracé 23002" d="M217.81,71.48,193,26.15a3.07,3.07,0,0,0-4.17-1.22h0l-1.57.86A3.07,3.07,0,0,0,186,30l24.84,45.33A3.06,3.06,0,0,0,215,76.51l1.58-.86a3.08,3.08,0,0,0,1.22-4.17Z" transform="translate(-1.48 -1.36)" style="fill:#6ad0c1"/><path id="Tracé_23003" data-name="Tracé 23003" d="M214.13,73.29,189.29,28a3,3,0,0,1,.23-3.3,9.84,9.84,0,0,0-2.3,1.14A3.07,3.07,0,0,0,186,30l24.84,45.33A3.06,3.06,0,0,0,215,76.51l1.58-.86a3.16,3.16,0,0,0,1-.87A3.07,3.07,0,0,1,214.13,73.29Z" transform="translate(-1.48 -1.36)" style="fill:#6cc5d1"/><path id="Tracé_23004" data-name="Tracé 23004" d="M133.14,79.06l-1.57.86a3.06,3.06,0,0,0-1.21,4.16h0l4.91,9a3.08,3.08,0,0,0,4.17,1.22l1.57-.86a3.08,3.08,0,0,0,1.22-4.17h0l-4.92-9a3.07,3.07,0,0,0-4.17-1.21Z" transform="translate(-1.48 -1.36)" style="fill:#8595ba"/><path id="Tracé_23005" data-name="Tracé 23005" d="M138.42,91.14l-4.92-9a3.09,3.09,0,0,1,.27-3.36,2.89,2.89,0,0,0-.63.26l-1.57.86a3.06,3.06,0,0,0-1.21,4.16l4.91,9a3.08,3.08,0,0,0,4.17,1.22h0c1.7-.93,2-1,2.52-1.67A3.09,3.09,0,0,1,138.42,91.14Z" transform="translate(-1.48 -1.36)" style="fill:#8595ba"/></g></g></svg>