<svg id="Calque_1" data-name="Calque 1" xmlns="http://www.w3.org/2000/svg" viewBox="0 0 209.28 200.31"><title>alreadydonequizzneo</title><g id="Groupe_10826" data-name="Groupe 10826"><g id="Groupe_10825" data-name="Groupe 10825"><g id="Groupe_10824" data-name="Groupe 10824"><g id="Groupe_10823" data-name="Groupe 10823"><g id="Groupe_10822" data-name="Groupe 10822"><g id="Groupe_10821" data-name="Groupe 10821"><g id="Groupe_10109" data-name="Groupe 10109"><path id="iconmonstr-star-3" d="M104.64,0l32,66.41,72.66,10.1L156.4,127.66l12.91,72.65L104.64,165.5,40,200.31l12.92-72.65L0,76.51l72.65-10.1Z" transform="translate(0 0)" style="fill:#8bdee1"/><g id="Objects"><g id="Groupe_43" data-name="Groupe 43"><path id="Tracé_32" data-name="Tracé 32" d="M150.07,189.8c0,1.78-21.26,3.22-47.48,3.22S55.1,191.58,55.1,189.8s21.26-3.22,47.49-3.22S150.07,188,150.07,189.8Z" transform="translate(0 0)" style="fill:#fff;opacity:0.75;isolation:isolate"/><g id="Groupe_41" data-name="Groupe 41" style="opacity:0.75"><path id="Tracé_67" data-name="Tracé 67" d="M34.07,68.45c0,3.14-1.39,4.53-4.53,4.53,3.14,0,4.53,1.39,4.53,4.52,0-3.13,1.39-4.52,4.52-4.52C35.46,73,34.07,71.59,34.07,68.45Z" transform="translate(0 0)" style="fill:#fff"/><path id="Tracé_68" data-name="Tracé 68" d="M24.54,79.62c0,4.37-1.94,6.31-6.32,6.31,4.38,0,6.32,1.94,6.32,6.32,0-4.38,1.94-6.32,6.31-6.32C26.48,85.93,24.54,84,24.54,79.62Z" transform="translate(0 0)" style="fill:#fff"/><path id="Tracé_69" data-name="Tracé 69" d="M37.44,81.43a1,1,0,1,1-1-1h0A1,1,0,0,1,37.44,81.43Z" transform="translate(0 0)" style="fill:#fff"/><path id="Tracé_70" data-name="Tracé 70" d="M23.21,73.56A1.57,1.57,0,1,1,21.64,72,1.57,1.57,0,0,1,23.21,73.56Z" transform="translate(0 0)" style="fill:#fff"/><path id="Tracé_71" data-name="Tracé 71" d="M33.67,90a.93.93,0,1,1-.92-.92.93.93,0,0,1,.92.92Z" transform="translate(0 0)" style="fill:#fff"/></g><g id="Groupe_42" data-name="Groupe 42" style="opacity:0.7480000257492065"><path id="Tracé_72" data-name="Tracé 72" d="M174.4,84c0,3.14,1.39,4.53,4.52,4.53-3.13,0-4.52,1.39-4.52,4.52,0-3.13-1.39-4.52-4.53-4.52C173,88.48,174.4,87.09,174.4,84Z" transform="translate(0 0)" style="fill:#fff"/><path id="Tracé_73" data-name="Tracé 73" d="M183.93,95.12c0,4.37,1.94,6.31,6.31,6.31-4.37,0-6.31,1.94-6.31,6.32,0-4.38-1.94-6.32-6.32-6.32C182,101.43,183.93,99.49,183.93,95.12Z" transform="translate(0 0)" style="fill:#fff"/><path id="Tracé_74" data-name="Tracé 74" d="M171,96.92a1,1,0,1,0,1.92,0,1,1,0,0,0-1.92,0Z" transform="translate(0 0)" style="fill:#fff"/><path id="Tracé_75" data-name="Tracé 75" d="M185.26,89.05a1.57,1.57,0,1,0,1.56-1.57h0A1.57,1.57,0,0,0,185.26,89.05Z" transform="translate(0 0)" style="fill:#fff"/><path id="Tracé_76" data-name="Tracé 76" d="M174.79,105.5a.93.93,0,0,0,.93.93.93.93,0,0,0,0-1.85h0A.93.93,0,0,0,174.79,105.5Z" transform="translate(0 0)" style="fill:#fff"/></g></g></g></g></g></g></g></g><g id="Groupe_10811" data-name="Groupe 10811"><g id="Groupe_10788" data-name="Groupe 10788"><g id="Groupe_10778" data-name="Groupe 10778"><g id="Groupe_10774" data-name="Groupe 10774"><path id="Tracé_22528" data-name="Tracé 22528" d="M153.31,102.46a8.13,8.13,0,0,1,1.08-.38,156.45,156.45,0,0,0,14,12.12c5.18,3.91,11.45-20.23,13.06-27.6.3-1.39-3.71-4.76-2.75-5.94S181,81.94,181,81.94s-.74-3.16,0-4,5.23-3.64,6.1.63S176.25,118,171.53,119c-3.62.71-15.1-8.51-20.24-12.83C151.67,104.78,152.11,103,153.31,102.46Z" transform="translate(0 0)" style="fill:#8595ba"/></g><g id="Groupe_10775" data-name="Groupe 10775"><path id="Tracé_22528-2" data-name="Tracé 22528-2" d="M36.57,111.37a8.72,8.72,0,0,0-.6-1,156.36,156.36,0,0,1-18.49.61c-6.5-.22,3.82-22.93,7.22-29.66.64-1.28,5.88-1.37,5.87-2.89S28,78,28,78s2.58-2,2.51-3.06-1.77-6.11-5.13-3.35S8.93,109,12,112.74c2.37,2.83,17.09,2.9,23.8,2.77C36.38,114.21,37.18,112.52,36.57,111.37Z" transform="translate(0 0)" style="fill:#8595ba"/></g><g id="Groupe_10740" data-name="Groupe 10740"><g id="Groupe_10740-2" data-name="Groupe 10740-2"><g id="Groupe_10738" data-name="Groupe 10738"><g id="Groupe_34" data-name="Groupe 34"><g id="Groupe_25" data-name="Groupe 25"><path id="Tracé_87" data-name="Tracé 87" d="M79.91,130.5s3.12,48.44,1.56,49.88-10.13.15-11.68,2.82,13.08,2.51,14.95.87,0-53.57,0-53.57Z" transform="translate(0 0)" style="fill:#8595ba"/><path id="Tracé_88" data-name="Tracé 88" d="M124.25,129.35s-3.11,48.44-1.55,49.87,10.12.15,11.68,2.82-13.09,2.52-15,.88,0-53.57,0-53.57Z" transform="translate(0 0)" style="fill:#8595ba"/></g><g id="Groupe_27" data-name="Groupe 27"><path id="Tracé_89" data-name="Tracé 89" d="M134.86,140.76c1.5.63,6.55,2.42,10.64-.2,4.86-3.12,4.86-6.8,4.86-6.8a14.18,14.18,0,0,0,14.19-3.3c6.8-6.22,3.69-18.62,3.69-18.62s6.38-3.31,5.64-10.14c-1.2-11-12.44-11.67-12.44-11.67s3.5-8.35-2.72-14.18-14.38-4.47-14.38-4.47,1.55-4.47-2.34-7.2-7-1.1-7-1.1.67-8.84-7.38-11.84c-7.66-2.87-14.2,1.67-14.2,1.67s-4.86-5.25-11.86-4.28A21.7,21.7,0,0,0,90.7,53.1a12.37,12.37,0,0,0-12-2.72,11.19,11.19,0,0,0-8.16,8.94S58,55.85,51.21,64.39s-3.5,15.7-3.5,15.7S36.47,78.56,33,89.25a18.86,18.86,0,0,0,2.91,17.88s-9.14,9.13-5.25,19.05S43.84,134,43.84,134a10.29,10.29,0,0,0,9.93,9.08c9.13.59,13-2.71,13-2.71s8,6.6,15.74,5.82,10.69-3.88,10.69-3.88,7.38,4.2,14.57,3.95,13-5.12,13-5.12a7.68,7.68,0,0,0,7.19,3.5C132.86,144.14,134.58,140.64,134.86,140.76Z" transform="translate(0 0)" style="fill:#f3f6fe"/><g id="Groupe_26" data-name="Groupe 26"><path id="Tracé_90" data-name="Tracé 90" d="M175.61,101.5c-.91-8.44-7.31-11.92-11.91-12.92.75-3.17,1.28-9.26-3.79-14a19.67,19.67,0,0,0-13.42-5.08h-.1A7.81,7.81,0,0,0,143,62.75a9.71,9.71,0,0,0-5.34-2,11.94,11.94,0,0,0-1.19-3.21,14,14,0,0,0-8.21-7.93,16.78,16.78,0,0,0-5.86-1.06,18.11,18.11,0,0,0-5.75,1h-.05l-.43.14-.23.09h0a21.26,21.26,0,0,0-2.24,1,16.51,16.51,0,0,0-10.36-4,14.39,14.39,0,0,0-2,.14,24.82,24.82,0,0,0-10.59,4,14.05,14.05,0,0,0-8.38-2.78,15,15,0,0,0-4.21.61,12.88,12.88,0,0,0-9,8.6c-3.83-.56-13.05-1-18.9,6.38-3.91,4.91-4.87,9.09-4.89,12v0a11.06,11.06,0,0,0,.12,1.82C41.69,78,34.18,80,31.31,88.72a20.75,20.75,0,0,0,2.25,18.21l-.35.39a1.72,1.72,0,0,0-.32.65c-2.65,3.46-7,10.83-3.88,18.86,2.83,7.2,8.42,8.28,11.5,8.28a13.32,13.32,0,0,0,2.1-.16c.9,4,3.9,9.44,11.06,9.9.75,0,1.5.07,2.23.07a22,22,0,0,0,10.81-2.4c2.34,1.7,8.28,5.5,14.54,5.5a14.33,14.33,0,0,0,1.47-.07,23.7,23.7,0,0,0,9.64-2.84,5.82,5.82,0,0,0,1.17-.65c2.36,1.16,7.93,3.58,13.64,3.58l.7,0a25.08,25.08,0,0,0,12.61-4.44,6.87,6.87,0,0,0,.63.58s.1.05.14.08a9.07,9.07,0,0,0,5.94,2.21h0c.33,0,.67,0,1,0a11,11,0,0,0,7.13-3.59,16.17,16.17,0,0,0,5.15.9,11,11,0,0,0,6-1.66,12.2,12.2,0,0,0,5.22-6.13,15.68,15.68,0,0,0,3,.29,16.21,16.21,0,0,0,11.08-4.45c6.22-5.68,5.1-15.57,4.47-19.08C172.25,111.22,176.27,107.57,175.61,101.5Zm-7.81,8.57c-.93-.29-2.08-.6-3.47-1a6.91,6.91,0,0,0-7,1.82,5.92,5.92,0,0,0-1.12,6.06,5,5,0,0,0,5.06,3.3,8.55,8.55,0,0,0,2.61-.43,1.58,1.58,0,0,0-1-3h0c-.12,0-3,1-3.68-1a2.79,2.79,0,0,1,.5-2.86,3.76,3.76,0,0,1,3.83-.87c1.25.32,2.29.6,3.14.86.5,2.68,1.69,11.52-3.34,16.12a12.59,12.59,0,0,1-8.72,3.53,11.41,11.41,0,0,1-3.48-.51L148,126.12a1.75,1.75,0,0,0-3.18,1.46.71.71,0,0,0,.08.15l3.54,6.81a8.65,8.65,0,0,1-3.89,4.55,7.55,7.55,0,0,1-4.09,1.1,13.44,13.44,0,0,1-4.92-1.05l-.35-.14h-.35a2.26,2.26,0,0,0-1.75,1,7.6,7.6,0,0,1-5.27,2.89l-.65,0h0a5.86,5.86,0,0,1-4.57-2.29,5.64,5.64,0,0,1-.83-3.3,2.84,2.84,0,0,1,1.31-2.38c2.24-1.29,3.32-.2,3.6.18a1.75,1.75,0,0,0,2.87-2c-1-1.48-4-3.63-8.22-1.22a6.25,6.25,0,0,0-3.06,5.17,9,9,0,0,0,.45,3.42,21.76,21.76,0,0,1-11,4c-4.68.17-9.53-1.75-12-2.9h0c1-2.46.76-5.6-.7-8.84-2.23-4.95-7.6-4.79-10.12-4a1.75,1.75,0,1,0,1,3.34c.18-.05,4.37-1.3,5.9,2.11,1,2.32,1.28,4.53.65,6.08a3.45,3.45,0,0,1-.28.54l-.26.27s-2.71,2.67-9.6,3.36a10.49,10.49,0,0,1-1.12.05c-5.26,0-10.54-3.44-12.52-4.87l.44-5.3a1.75,1.75,0,0,0-3.49-.28l-.43,5.25c-1,.64-4,2.1-9.35,2.1-.65,0-1.33,0-2-.06-7.24-.46-8-7.85-8.07-8.55A4.77,4.77,0,0,1,48.39,129a3.72,3.72,0,0,1,2.32-.63l-.13-.05L52,125.06c-.34-.14-2.18-.78-5.19.8a8.17,8.17,0,0,0-4.27,5.54,10.24,10.24,0,0,1-2,.19c-3.89,0-6.67-2-8.24-6-3.27-8.33,4.07-16.35,4.8-17.11a8.9,8.9,0,0,1,5.71-2,5.41,5.41,0,0,1,5.06,3.35A1.76,1.76,0,0,0,49.49,111a1.71,1.71,0,0,0,.55-.09,1.74,1.74,0,0,0,1.1-2.21,8.84,8.84,0,0,0-8.3-5.72,12,12,0,0,0-6.55,1.77,17.42,17.42,0,0,1-1.66-14.93c2.44-7.45,9.2-8.68,11.92-8.87a8.38,8.38,0,0,0,6.56,4.71,8.8,8.8,0,0,0,1.36.1c4.6,0,7.49-3.55,8.42-5.6a1.75,1.75,0,0,0-3.17-1.46c-.08.17-2,4.09-6.1,3.5A4.92,4.92,0,0,1,50,79.93l-.72-1.55a2.4,2.4,0,0,1-.1-.26,8.69,8.69,0,0,1-.35-2.32,1,1,0,0,0,0-.17c0-2.19.79-5.57,4.14-9.78,5.2-6.53,14-5.42,16.41-5l2.46,5.54a1.74,1.74,0,0,0,1.6,1,1.71,1.71,0,0,0,.71-.15A1.76,1.76,0,0,0,75.06,65L72.4,59l-.06-.11a9.45,9.45,0,0,1,6.78-6.85,11.44,11.44,0,0,1,3.24-.47,10.63,10.63,0,0,1,7.06,2.72l.4.41a4.82,4.82,0,0,1,.67,4.74,4,4,0,0,1-3.69,2.47,1.75,1.75,0,0,0-.32,3.48l.39,0A7.44,7.44,0,0,0,93.63,61a7.94,7.94,0,0,0-.49-7.52,21.54,21.54,0,0,1,8.67-3.11,12.29,12.29,0,0,1,1.49-.1A12.93,12.93,0,0,1,111,53.12a8.23,8.23,0,0,0-1.84,3.64,7.14,7.14,0,0,0,4.92,8.62,2.1,2.1,0,0,0,.43.05A1.75,1.75,0,0,0,115,62a3.64,3.64,0,0,1-2.36-4.48c.65-3,4.2-4.37,4.89-4.61a14.86,14.86,0,0,1,4.9-.86,13.1,13.1,0,0,1,4.64.84,10.66,10.66,0,0,1,6.2,6s0,.09.05.13a12.25,12.25,0,0,1,.95,3.9l0,2.95c-.57,2.5-1.87,2.5-2.46,2.5a3.84,3.84,0,0,1-2-.66,1.75,1.75,0,0,0-2.15,2.77,7.19,7.19,0,0,0,4.14,1.38c1.6,0,5.38-.63,6.11-6.56,0-.34.07-.68.08-1A6.85,6.85,0,0,1,141,65.61a4.57,4.57,0,0,1,1.68,5.18l-.95,2.77,2.89-.47a13,13,0,0,1,1.87-.11,16.12,16.12,0,0,1,11,4.13c4.61,4.32,3,10.29,2.45,11.85-.19.4-2.62,5.37-6,5.53a2.36,2.36,0,0,1-1.8-.41,1.59,1.59,0,0,1-.18-1.15,1.75,1.75,0,0,0-3.4-.82,5.08,5.08,0,0,0,.88,4.2A5.19,5.19,0,0,0,153.63,98a3.46,3.46,0,0,0,.45,0c4.13-.19,6.95-3.91,8.26-6.09,2.53.42,8.95,2.25,9.78,10,.53,4.74-3.13,7.45-4.32,8.2Z" transform="translate(0 0)" style="fill:#b8c4e0"/><path id="Tracé_91" data-name="Tracé 91" d="M139.51,86.8a10.08,10.08,0,0,0-2.38-9c-5.64-6.79-14.19-5.29-19.5-2.89a12.26,12.26,0,0,0-8.3-9.31c-6.41-2.19-11.35,2.13-13.65,4.77a16,16,0,0,0-11.76-4.25c-4.12.08-8,3.17-9.48,7.51a9.23,9.23,0,0,0,3,10.56,10.71,10.71,0,0,0,14.21-.37,1.75,1.75,0,0,0-2.39-2.56,7.19,7.19,0,0,1-9.64.19,5.85,5.85,0,0,1-1.85-6.7c1-2.92,3.61-5.08,6.24-5.13,7.26-.15,10.17,4.26,10.28,4.44a1.75,1.75,0,0,0,2.41.56,1.67,1.67,0,0,0,.55-.54c0-.07,4.76-7.29,11-5.17a8.89,8.89,0,0,1,6.17,8.67,1.75,1.75,0,0,0,2.67,1.59c.45-.28,11.08-6.73,17.39.87a6.67,6.67,0,0,1,1.65,6,7.16,7.16,0,0,1-3.5,4.65c-2.28,1-5.15-.48-5.17-.5a1.75,1.75,0,0,0-1.68,3.07A11.73,11.73,0,0,0,130,94.48a8.08,8.08,0,0,0,4-.62A10.73,10.73,0,0,0,139.51,86.8Z" transform="translate(0 0)" style="fill:#b8c4e0"/><path id="Tracé_92" data-name="Tracé 92" d="M63.56,111.39a8,8,0,0,0-.42-4.49h0a9.2,9.2,0,0,0,3-.5,8.05,8.05,0,0,0,5.09-5.74,11.07,11.07,0,0,0-1.9-9.72c-3.22-3.81-8.24-2.85-10.44-1.81a1.75,1.75,0,1,0,1.49,3.16s4-1.82,6.28.91a7.57,7.57,0,0,1,1.2,6.53A4.68,4.68,0,0,1,65,103.09a6.73,6.73,0,0,1-5.33-.65,15.29,15.29,0,0,0-2-1.36l-.18-.16a1.75,1.75,0,0,0-2.44,2.5h0a5.46,5.46,0,0,0,.55.49h0a15.31,15.31,0,0,0,2.17,1.47c1.33,1.13,2.8,3,2.36,5.35-.72,3.84-3.55,4-3.89,4a1.75,1.75,0,1,0,0,3.5C58.33,118.28,62.54,116.84,63.56,111.39Z" transform="translate(0 0)" style="fill:#b8c4e0"/><path id="Tracé_93" data-name="Tracé 93" d="M70.64,118.54a10.43,10.43,0,0,0-9.23,6.4,1.75,1.75,0,1,0,3.23,1.33l0-.07A7,7,0,0,1,70.75,122c3.84-.12,4.25,4.18,4.28,4.66a1.75,1.75,0,0,0,1.75,1.65h.11a1.76,1.76,0,0,0,1.64-1.85C78.35,123.65,76.49,118.35,70.64,118.54Z" transform="translate(0 0)" style="fill:#b8c4e0"/><path id="Tracé_94" data-name="Tracé 94" d="M147.88,104.45c-2.81-2.37-7-1.66-7.23-1.63a1.59,1.59,0,0,0,.54,3.14s3-.47,4.64.93a3.93,3.93,0,0,1,1.2,3.21,4.83,4.83,0,0,1-1.3,3.69,5.49,5.49,0,0,1-3.68,1.16,1.61,1.61,0,0,0-1.73,1.46,1.76,1.76,0,0,0,0,.51c.16.65.43,2.75-.4,3.9a2.4,2.4,0,0,1-1.9.89,3.36,3.36,0,0,1-2.74-.72,4.08,4.08,0,0,1-.91-2.87,1.59,1.59,0,1,0-3.18-.25h0a7.27,7.27,0,0,0,1.82,5.36,6,6,0,0,0,4.49,1.69l.77,0a5.49,5.49,0,0,0,4.24-2.2,7.38,7.38,0,0,0,1.17-4.66,7.3,7.3,0,0,0,6.5-7.93A7,7,0,0,0,147.88,104.45Z" transform="translate(0 0)" style="fill:#b8c4e0"/></g></g></g></g></g></g><g id="Groupe_10805" data-name="Groupe 10805"><path id="Tracé_22522" data-name="Tracé 22522" d="M118.37,83.54s7.4-1.14,12.2,1.29,7,8.44,7,8.44" transform="translate(0 0)" style="fill:none;stroke:#8595ba;stroke-linecap:round;stroke-linejoin:bevel;stroke-width:3px"/><path id="Tracé_22523" data-name="Tracé 22523" d="M91.61,83.54S84.2,82.4,79.4,84.83s-7,8.44-7,8.44" transform="translate(0 0)" style="fill:none;stroke:#8595ba;stroke-linecap:round;stroke-linejoin:bevel;stroke-width:3px"/></g><g id="Groupe_24" data-name="Groupe 24"><path id="Tracé_53" data-name="Tracé 53" d="M96.4,111.49l0-.33c0-.11,0-.24,0-.4l0-.25v-.33c0-.22,0-.48,0-.76s-.07-.56-.12-.87a8.54,8.54,0,0,0-.23-1,11.11,11.11,0,0,0-.37-1c-.17-.36-.35-.73-.56-1.1a10.19,10.19,0,0,0-2.84-3.08c-.21-.14-.42-.29-.63-.42s-.46-.25-.69-.37l-.35-.18-.36-.15c-.25-.1-.5-.2-.75-.28a10.83,10.83,0,0,0-1.57-.37,7.46,7.46,0,0,0-.81-.1l-.41,0h-.49l-.68,0h-.17l-.19,0-.44.06a6.21,6.21,0,0,0-.84.16l-.78.21c-.25.08-.5.19-.75.28l-.36.15-.35.18c-.23.12-.47.23-.69.37s-.42.28-.63.42a10.19,10.19,0,0,0-2.84,3.08c-.21.37-.39.74-.56,1.1s-.28.71-.37,1.06a7.94,7.94,0,0,0-.23,1q-.08.47-.12.87c0,.27,0,.52,0,.74v.31a2,2,0,0,0,0,.27c0,.17,0,.32,0,.43s0,.36,0,.36a.68.68,0,0,0,.76.59.67.67,0,0,0,.58-.51l0-.08.08-.3a7.84,7.84,0,0,1,.23-.83l.19-.57c.09-.2.17-.42.27-.65s.24-.45.36-.7.3-.47.45-.72.36-.49.56-.73a9,9,0,0,1,.68-.7,8.52,8.52,0,0,1,1.64-1.22,9.11,9.11,0,0,1,2-.83l.53-.12.26,0,.24,0,.24,0,.15,0h.17l.68,0a.75.75,0,0,0-.08-1.5.75.75,0,0,0,0,1.5h.27l.28,0a3.41,3.41,0,0,1,.55,0c.18,0,.37,0,.55.09l.53.12a9.11,9.11,0,0,1,2,.83,8.52,8.52,0,0,1,1.64,1.22,9,9,0,0,1,.68.7c.2.24.38.49.56.73s.32.48.45.72.26.47.36.7.18.45.27.65l.19.54.08.24.06.24.09.39.08.33a.69.69,0,0,0,.86.47A.67.67,0,0,0,96.4,111.49Z" transform="translate(0 0)" style="fill:#8595ba"/><path id="Tracé_54" data-name="Tracé 54" d="M133.3,111.49s0-.11,0-.33,0-.24,0-.4a1.9,1.9,0,0,0,0-.25c0-.1,0-.21,0-.33s0-.48,0-.76-.07-.56-.11-.87-.15-.63-.23-1a9,9,0,0,0-.38-1,10,10,0,0,0-3.39-4.18c-.21-.14-.42-.29-.64-.42s-.45-.25-.68-.37l-.35-.18-.37-.15c-.25-.1-.49-.2-.75-.28a10.53,10.53,0,0,0-1.57-.37,7.46,7.46,0,0,0-.81-.1l-.4,0h-.49l-.69,0h-.17l-.19,0-.43.06a6.07,6.07,0,0,0-.85.16l-.77.21c-.26.08-.5.19-.75.28l-.37.15-.35.18c-.23.12-.46.23-.68.37s-.43.28-.64.42a10.32,10.32,0,0,0-2.84,3.08c-.21.37-.39.74-.55,1.1a10.49,10.49,0,0,0-.38,1.06c-.09.34-.18.66-.23,1s-.09.6-.11.87a6.37,6.37,0,0,0,0,.74v.31a2,2,0,0,0,0,.27c0,.17,0,.32,0,.43l0,.36a.68.68,0,0,0,.76.59.7.7,0,0,0,.58-.51l0-.08.08-.3c.06-.28.14-.56.22-.83l.19-.57c.1-.2.18-.42.27-.65s.24-.45.37-.7a8.4,8.4,0,0,1,.45-.72c.18-.24.36-.49.56-.73s.44-.48.67-.7a8.59,8.59,0,0,1,1.65-1.22,9.4,9.4,0,0,1,2-.83l.53-.12.26,0,.24,0,.24,0,.15,0h.17l.68,0a.75.75,0,0,0,.71-.79.74.74,0,0,0-.79-.71.75.75,0,0,0,0,1.5h.27l.28,0a3.41,3.41,0,0,1,.55,0c.18,0,.37,0,.54.09l.54.12a9.11,9.11,0,0,1,2,.83,9,9,0,0,1,2.31,1.92c.2.24.38.49.57.73s.32.48.45.72.26.47.36.7.18.45.27.65l.19.54.08.24.06.24c0,.15.06.28.08.39l.08.33a.7.7,0,0,0,.84.51.68.68,0,0,0,.52-.58Z" transform="translate(0 0)" style="fill:#8595ba"/></g><g id="Groupe_23" data-name="Groupe 23"><g id="Groupe_22" data-name="Groupe 22"><path id="Tracé_51" data-name="Tracé 51" d="M117.73,122a7,7,0,0,1-2.37,5,13.37,13.37,0,0,1-5.45,3,19.44,19.44,0,0,1-10.85,0,13.3,13.3,0,0,1-5.45-3,7,7,0,0,1-2.37-5c0-3.54,3.15-1.92,7.69-.78a20,20,0,0,0,11.11,0C114.58,120.06,117.73,118.44,117.73,122Z" transform="translate(0 0)" style="fill:#8595ba"/></g><path id="Tracé_52" data-name="Tracé 52" d="M109.91,129.35a19.47,19.47,0,0,1-10.86,0,5.49,5.49,0,0,1,10.86,0Z" transform="translate(0 0)" style="fill:#f3f6fe"/></g></g></g><g id="trophy"><path id="Tracé_22545" data-name="Tracé 22545" d="M174,76.73l-7.74,2.07a9.13,9.13,0,0,1-8.71-2.25c-.34-.32-.67-.66-1-1a48.76,48.76,0,0,1-10.36-15.72l-.77-1.91,11.47-3.08.95,3.53-7.44,2A45.51,45.51,0,0,0,159.14,73c.31.32.62.63.94.93a5.46,5.46,0,0,0,5.21,1.34L173,73.2l.95,3.53Z" transform="translate(0 0)" style="fill:#b8c4e0"/><path id="Tracé_22546" data-name="Tracé 22546" d="M195.83,40.86h0a113.2,113.2,0,0,0-42.58,11.42h0c3.36,12.53,14.07,23.56,26.26,26.94l2.76,10.29,7.06-1.9-2.76-10.29C195.43,68.3,199.19,53.39,195.83,40.86Z" transform="translate(0 0)" style="fill:#b8c4e0"/><path id="Tracé_22547" data-name="Tracé 22547" d="M197.85,70.33l-7.78,2.08-.95-3.52,7.79-2.09A5.48,5.48,0,0,0,200.75,63c.12-.42.23-.85.34-1.27a45.51,45.51,0,0,0,1.27-15.33l-7.44,2L194,44.89l11.47-3.07.29,2a48.77,48.77,0,0,1-1.11,18.79c-.11.46-.24.92-.36,1.37A9.17,9.17,0,0,1,197.85,70.33Z" transform="translate(0 0)" style="fill:#8595ba"/><path id="Tracé_22548" data-name="Tracé 22548" d="M195.83,40.86A113,113,0,0,0,174,44.48L185.8,88.56l3.53-1-2.76-10.29C195.43,68.3,199.19,53.39,195.83,40.86Z" transform="translate(0 0)" style="fill:#8595ba"/><path id="Tracé_22549" data-name="Tracé 22549" d="M201,100.52l-22.35,6-4.41-16.46,22.35-6Z" transform="translate(0 0)" style="fill:#dfe4f4"/><path id="Tracé_22550" data-name="Tracé 22550" d="M201,100.52l-11.17,3-4.42-16.47,11.18-3Z" transform="translate(0 0)" style="fill:#dfe4f4"/><g id="Groupe_10809" data-name="Groupe 10809"><path id="Tracé_22551" data-name="Tracé 22551" d="M180.34,94.08l12.94-3.47.95,3.53-12.94,3.47Z" transform="translate(0 0)" style="fill:#dfe4f4"/><rect id="Rectangle_1716" data-name="Rectangle 1716" x="173.82" y="101.1" width="31.66" height="3.65" transform="translate(-20.19 52.63) rotate(-15.01)" style="fill:#b8c4e0"/></g><g id="Groupe_10810" data-name="Groupe 10810"><rect id="Rectangle_1717" data-name="Rectangle 1717" x="189.38" y="99.05" width="15.83" height="3.65" transform="matrix(0.97, -0.26, 0.26, 0.97, -19.39, 54.53)" style="fill:#8595ba"/><rect id="Rectangle_1718" data-name="Rectangle 1718" x="187.17" y="91.41" width="6.7" height="3.65" transform="translate(-17.65 52.52) rotate(-15.01)" style="fill:#dfe4f4"/></g></g></g></g></g></svg>