<svg id="Calque_1" data-name="Calque 1" xmlns="http://www.w3.org/2000/svg" viewBox="0 0 212.07 124.12"><title>nofavorite</title><g id="Groupe_12323" data-name="Groupe 12323"><g id="Groupe_11172" data-name="Groupe 11172"><g id="fusee"><g id="OBJECTS"><g id="Groupe_10733" data-name="Groupe 10733"><path id="Tracé_20852" data-name="Tracé 20852" d="M183.1,116.19c-11.06,6.55-20.16,7.93-26.56,7.93-16.37-.07-38.35-9.17-46.72-9.75a116,116,0,0,0-12.23.07c-8,.29-13.61,1-18.41,1.53-6,.65-14.85,1.46-25.91,2-.87.14-20,2.47-29.84-11.36-.72-1-7.93-11.46-4.43-20.26,1.9-4.8,7.79-11.13,14.41-14.77,1.6-.87,2.62-1.24,3-2.4C37.92,64.45,24,59.36,22.56,50.84c-.73-4.29,1.38-10.91,15.07-21.1,9.46-4.44,22.85-8.66,36.17-4.15,11.35,3.86,12.37,10.48,22.77,12.52,13.18,2.48,16.74-7.13,39.3-10.84,9.47-1.6,19.5-3.06,29.48,2.25,2,1.1,13.68,7.28,15.28,18,1.89,12.88-15,18.63-13.1,29.26,2,11.79,23.8,13,25.11,24.08C193.36,106.58,188.27,112,183.1,116.19Z" transform="translate(0 0)" style="fill:#dfe4f4"/><circle id="Ellipse_392" data-name="Ellipse 392" cx="204.72" cy="34.82" r="7.35" style="fill:#dfe4f4"/><circle id="Ellipse_393" data-name="Ellipse 393" cx="191.76" cy="47.92" r="3.64" style="fill:#dfe4f4"/><circle id="Ellipse_394" data-name="Ellipse 394" cx="5.75" cy="103.09" r="5.75" style="fill:#dfe4f4"/><circle id="Ellipse_395" data-name="Ellipse 395" cx="200.13" cy="86.86" r="5.75" style="fill:#dfe4f4"/><circle id="Ellipse_396" data-name="Ellipse 396" cx="17.17" cy="32.2" r="5.75" style="fill:#dfe4f4"/></g></g></g></g><g id="Groupe_12226" data-name="Groupe 12226"><g id="Groupe_12225" data-name="Groupe 12225"><g id="Groupe_11094" data-name="Groupe 11094"><path id="Tracé_22938" data-name="Tracé 22938" d="M157.86,70.4c4.46,3.33,9.6,7,10.46,6.78,1.57-.37,3-2.94,4.67-6.55,3.44-7.39,3.23-9.65,3.61-13.43s-.18-7.73,4.48-5.25-8,25.64-10.83,28.22c-1.88,1.69-10.67-4.3-16.5-8.63A26.33,26.33,0,0,0,157.86,70.4Z" transform="translate(0 0)" style="fill:#8595ba"/><g id="Groupe_11093" data-name="Groupe 11093"><g id="Groupe_11090" data-name="Groupe 11090"><path id="Tracé_22543" data-name="Tracé 22543" d="M55.17,53.83s-6.84,26.77-6.6,37.55.22,13.94,3.49,14.24c4.4.4,2.69-5.18,2.69-5.18s1.21,1.61,2.18,1-.4-2.36-2.81-4.94-3.66-3-1.63-14.22S60.13,58.77,59.65,56,55.17,53.83,55.17,53.83Z" transform="translate(0 0)" style="fill:#8595ba"/><g id="Groupe_10797" data-name="Groupe 10797"><path id="Tracé_87" data-name="Tracé 87" d="M87.1,74.36s2.83,43.88,1.41,45.18-9.17.13-10.58,2.55,11.85,2.28,13.55.79,0-48.52,0-48.52Z" transform="translate(0 0)" style="fill:#8595ba"/><path id="Tracé_88" data-name="Tracé 88" d="M127.27,73.32s-2.82,43.88-1.41,45.18,9.17.13,10.58,2.55-11.85,2.28-13.55.79,0-48.52,0-48.52Z" transform="translate(0 0)" style="fill:#8595ba"/></g><g id="Groupe_10793" data-name="Groupe 10793"><g id="Groupe_10771" data-name="Groupe 10771"><g id="Groupe_10768" data-name="Groupe 10768"><g id="Groupe_10740" data-name="Groupe 10740"><g id="Groupe_10740-2" data-name="Groupe 10740-2"><g id="Groupe_10738" data-name="Groupe 10738"><g id="Groupe_34" data-name="Groupe 34"><g id="Groupe_27" data-name="Groupe 27"><path id="Tracé_89" data-name="Tracé 89" d="M136.88,85.15c1.36.57,5.93,2.19,9.64-.18,4.4-2.82,4.4-6.16,4.4-6.16a12.81,12.81,0,0,0,12.85-3c6.16-5.63,3.34-16.86,3.34-16.86s5.78-3,5.11-9.19C171.14,39.76,161,39.2,161,39.2s3.17-7.57-2.46-12.86-13-4-13-4a5.83,5.83,0,0,0-2.11-6.52c-3.52-2.46-6.33-1-6.33-1s.61-8-6.68-10.74c-6.94-2.59-12.87,1.52-12.87,1.52S113.07.82,106.73,1.7a19.7,19.7,0,0,0-9.86,4.05A11.21,11.21,0,0,0,86,3.28a10.16,10.16,0,0,0-7.4,8.1S67.26,8.23,61.1,16,57.93,30.2,57.93,30.2s-10.18-1.39-13.34,8.29a17.07,17.07,0,0,0,2.64,16.2S39,63,42.47,72s12,7.08,12,7.08a9.33,9.33,0,0,0,9,8.23c8.28.53,11.8-2.46,11.8-2.46s7.22,6,14.26,5.28,9.69-3.52,9.69-3.52,6.69,3.81,13.2,3.58,11.8-4.64,11.8-4.64a7,7,0,0,0,6.51,3.17C135.06,88.21,136.62,85,136.88,85.15Z" transform="translate(0 0)" style="fill:#f3f6fe"/><g id="Groupe_26" data-name="Groupe 26"><path id="Tracé_90" data-name="Tracé 90" d="M173.8,49.58c-.83-7.64-6.63-10.8-10.79-11.7.68-2.87,1.15-8.4-3.44-12.7a17.83,17.83,0,0,0-12.16-4.6h-.09a7.09,7.09,0,0,0-3.06-6.1,8.92,8.92,0,0,0-4.85-1.82,10.44,10.44,0,0,0-1.07-2.9,12.7,12.7,0,0,0-7.45-7.19,15.2,15.2,0,0,0-5.3-1,16.46,16.46,0,0,0-5.21.87h0l-.38.14-.22.08h0a15.89,15.89,0,0,0-2,.9A14.93,14.93,0,0,0,108.3,0a13.34,13.34,0,0,0-1.79.12,22.58,22.58,0,0,0-9.59,3.6,12.83,12.83,0,0,0-7.6-2.52,14,14,0,0,0-3.81.55,11.66,11.66,0,0,0-8.14,7.79C73.9,9,65.55,8.65,60.24,15.32c-3.54,4.45-4.41,8.23-4.42,10.85v0a9,9,0,0,0,.11,1.65c-3.46.4-10.25,2.2-12.85,10.14a18.76,18.76,0,0,0,2,16.5l-.31.36a1.44,1.44,0,0,0-.29.58C42.1,58.57,38.14,65.25,41,72.52,43.55,79,48.62,80,51.41,80a13.39,13.39,0,0,0,1.9-.14c.81,3.63,3.54,8.55,10,9,.68,0,1.36.07,2,.07a20,20,0,0,0,9.8-2.18c2.12,1.54,7.5,5,13.17,5,.44,0,.9,0,1.33-.07a21.42,21.42,0,0,0,8.73-2.57,5.75,5.75,0,0,0,1.06-.59c2.14,1.05,7.18,3.24,12.36,3.24h.63a22.85,22.85,0,0,0,11.43-4,4.11,4.11,0,0,0,.57.53l.12.07a8.26,8.26,0,0,0,5.38,2h0c.3,0,.61,0,.91-.05A9.85,9.85,0,0,0,137.28,87a14.66,14.66,0,0,0,4.68.81,9.77,9.77,0,0,0,5.41-1.5,11.08,11.08,0,0,0,4.73-5.55,14.36,14.36,0,0,0,2.7.26,14.72,14.72,0,0,0,10-4c5.63-5.15,4.62-14.11,4-17.28A10.92,10.92,0,0,0,173.8,49.58Zm-7.08,7.76c-.85-.25-1.89-.54-3.14-.86a6.26,6.26,0,0,0-6.3,1.65,5.33,5.33,0,0,0-1,5.49,4.5,4.5,0,0,0,4.57,3,7.59,7.59,0,0,0,2.37-.38,1.44,1.44,0,1,0-.93-2.72c-.1,0-2.68.9-3.32-.86a2.54,2.54,0,0,1,.45-2.6,3.42,3.42,0,0,1,3.47-.78c1.13.29,2.07.55,2.84.78.46,2.42,1.54,10.44-3,14.6a11.45,11.45,0,0,1-7.9,3.2,10.6,10.6,0,0,1-3.16-.46l-2.85-5.49A1.58,1.58,0,1,0,146,73.35h0l3.2,6.17a7.87,7.87,0,0,1-3.52,4.12,6.8,6.8,0,0,1-3.7,1,12.47,12.47,0,0,1-4.47-1l-.31-.13h-.32a2,2,0,0,0-1.58.92,6.87,6.87,0,0,1-4.77,2.61l-.59,0h0a5.3,5.3,0,0,1-4.14-2.07,5.17,5.17,0,0,1-.76-3,2.63,2.63,0,0,1,1.19-2.17c2-1.16,3-.17,3.26.17a1.58,1.58,0,0,0,2.6-1.81c-.91-1.34-3.64-3.29-7.44-1.1a5.65,5.65,0,0,0-2.77,4.68,8.36,8.36,0,0,0,.41,3.1,19.79,19.79,0,0,1-10,3.62c-4.24.15-8.64-1.58-10.87-2.62h0c.91-2.23.69-5.08-.63-8-2-4.49-6.89-4.34-9.18-3.63a1.58,1.58,0,0,0,.94,3c.16,0,4-1.18,5.35,1.91a7.34,7.34,0,0,1,.59,5.51,2.87,2.87,0,0,1-.26.49l-.24.25s-2.45,2.42-8.7,3c-.33,0-.67,0-1,0-4.77,0-9.55-3.12-11.34-4.41l.4-4.8a1.59,1.59,0,0,0-3.16-.26l-.39,4.76c-.94.57-3.64,1.9-8.47,1.9-.6,0-1.2,0-1.82-.06-6.57-.42-7.26-7.11-7.31-7.74a4.31,4.31,0,0,1,2.34-3.47,3.42,3.42,0,0,1,2.1-.58.21.21,0,0,1-.11,0l1.24-2.91c-.31-.13-2-.71-4.7.72a7.41,7.41,0,0,0-3.87,5,10,10,0,0,1-1.81.17c-3.52,0-6-1.84-7.46-5.48-3-7.54,3.69-14.81,4.34-15.5a8.09,8.09,0,0,1,5.18-1.8,4.87,4.87,0,0,1,4.58,3,1.59,1.59,0,0,0,1.5,1.07,1.69,1.69,0,0,0,.5-.08,1.59,1.59,0,0,0,1-2,8,8,0,0,0-7.52-5.18,10.87,10.87,0,0,0-5.93,1.6A15.8,15.8,0,0,1,46.08,39c2.21-6.75,8.34-7.87,10.8-8a7.6,7.6,0,0,0,5.95,4.27,8.25,8.25,0,0,0,1.22.09,8.78,8.78,0,0,0,7.64-5.07,1.58,1.58,0,0,0-2.88-1.32c-.07.15-1.8,3.7-5.53,3.16a4.46,4.46,0,0,1-3.25-2l-.65-1.4-.09-.24a7.47,7.47,0,0,1-.31-2.1c0-.06,0-.1,0-.15,0-2,.71-5.05,3.75-8.86,4.7-5.92,12.66-4.92,14.86-4.5l2.23,5a1.59,1.59,0,0,0,1.45.94,1.59,1.59,0,0,0,1.44-2.23l-2.41-5.42-.06-.1a8.57,8.57,0,0,1,6.15-6.2,10.39,10.39,0,0,1,2.93-.43,9.65,9.65,0,0,1,6.4,2.47l.35.37a4.31,4.31,0,0,1,.61,4.29,3.54,3.54,0,0,1-3.33,2.23A1.59,1.59,0,0,0,93,16.9h.35a6.73,6.73,0,0,0,6.13-4,7.17,7.17,0,0,0-.45-6.81,19.6,19.6,0,0,1,7.86-2.81,8.75,8.75,0,0,1,1.35-.09,11.64,11.64,0,0,1,7,2.58,7.56,7.56,0,0,0-1.67,3.3,6.48,6.48,0,0,0,4.46,7.81,1.74,1.74,0,0,0,.39.05,1.59,1.59,0,0,0,.38-3.13,3.28,3.28,0,0,1-2.13-4.06c.58-2.7,3.8-3.95,4.42-4.17a13.22,13.22,0,0,1,4.45-.77,11.85,11.85,0,0,1,4.2.75A9.7,9.7,0,0,1,135.38,11a.61.61,0,0,0,.05.12,11.62,11.62,0,0,1,.86,3.54l0,2.67c-.52,2.26-1.7,2.26-2.23,2.26a3.33,3.33,0,0,1-1.8-.59,1.58,1.58,0,1,0-2,2.43l.08.07A6.5,6.5,0,0,0,134,22.71c1.44,0,4.87-.58,5.53-5.95,0-.31.06-.61.08-.9a6.29,6.29,0,0,1,2.8,1.22,4.15,4.15,0,0,1,1.53,4.7l-.87,2.5,2.62-.42a10.65,10.65,0,0,1,1.69-.1,14.61,14.61,0,0,1,10,3.74c4.17,3.92,2.7,9.32,2.21,10.74-.17.35-2.37,4.86-5.47,5a2.18,2.18,0,0,1-1.62-.37,1.43,1.43,0,0,1-.17-1.05,1.58,1.58,0,0,0-3.08-.74h0a4.24,4.24,0,0,0,4.61,5.33h.41c3.74-.18,6.3-3.55,7.48-5.52,2.29.38,8.11,2,8.87,9,.46,4.29-2.86,6.74-3.94,7.41Z" transform="translate(0 0)" style="fill:#b8c4e0"/><path id="Tracé_91" data-name="Tracé 91" d="M141.09,36.27a9.16,9.16,0,0,0-2.15-8.15c-5.11-6.15-12.86-4.79-17.66-2.61a11.11,11.11,0,0,0-7.52-8.44c-5.81-2-10.29,1.93-12.36,4.32a14.49,14.49,0,0,0-10.66-3.85,9.69,9.69,0,0,0-8.59,6.81,8.35,8.35,0,0,0,2.7,9.56,9.69,9.69,0,0,0,12.87-.34,1.58,1.58,0,1,0-2.16-2.31,6.51,6.51,0,0,1-8.73.17,5.31,5.31,0,0,1-1.68-6.07,6.58,6.58,0,0,1,5.65-4.65c6.58-.14,9.21,3.86,9.31,4a1.6,1.6,0,0,0,2.19.51,1.56,1.56,0,0,0,.5-.49c0-.06,4.31-6.6,9.94-4.68a8.07,8.07,0,0,1,5.6,7.86,1.59,1.59,0,0,0,2.42,1.44c.4-.26,10-6.1,15.74.78a6,6,0,0,1,1.5,5.4,6.53,6.53,0,0,1-3.17,4.22c-2.07.93-4.66-.44-4.68-.46a1.59,1.59,0,1,0-1.53,2.78h0a10.39,10.39,0,0,0,3.89,1.13,7.24,7.24,0,0,0,3.62-.56A9.74,9.74,0,0,0,141.09,36.27Z" transform="translate(0 0)" style="fill:#b8c4e0"/><path id="Tracé_92" data-name="Tracé 92" d="M72.29,58.54a7.35,7.35,0,0,0-.38-4.07h0A8.37,8.37,0,0,0,74.64,54a7.29,7.29,0,0,0,4.61-5.19A10.07,10.07,0,0,0,77.53,40c-2.92-3.45-7.46-2.59-9.46-1.65a1.59,1.59,0,0,0-.7,2.13,1.58,1.58,0,0,0,2,.74s3.6-1.65,5.69.82A6.87,6.87,0,0,1,76.19,48a4.2,4.2,0,0,1-2.59,3,6.11,6.11,0,0,1-4.82-.58,14.11,14.11,0,0,0-1.84-1.24l-.16-.14a1.59,1.59,0,0,0-2.27,2.22l0,0s.21.2.5.44h0a12.93,12.93,0,0,0,2,1.32A5.2,5.2,0,0,1,69.17,58c-.65,3.47-3.22,3.65-3.52,3.66a1.58,1.58,0,0,0,0,3.16C67.55,64.78,71.36,63.48,72.29,58.54Z" transform="translate(0 0)" style="fill:#b8c4e0"/><path id="Tracé_93" data-name="Tracé 93" d="M78.7,65a9.44,9.44,0,0,0-8.36,5.8,1.59,1.59,0,1,0,3,1.14,6.31,6.31,0,0,1,5.5-3.78c3.48-.1,3.85,3.79,3.89,4.23a1.58,1.58,0,0,0,1.57,1.49h.1a1.58,1.58,0,0,0,1.49-1.67C85.69,69.65,84,64.85,78.7,65Z" transform="translate(0 0)" style="fill:#b8c4e0"/><path id="Tracé_94" data-name="Tracé 94" d="M148.67,52.26c-2.54-2.15-6.39-1.51-6.55-1.48a1.44,1.44,0,0,0,.49,2.84s2.7-.42,4.2.85a3.55,3.55,0,0,1,1.09,2.9,4.41,4.41,0,0,1-1.18,3.35,4.94,4.94,0,0,1-3.33,1.05,1.45,1.45,0,0,0-1.57,1.31,1.47,1.47,0,0,0,0,.47c.14.59.39,2.5-.36,3.54a2.23,2.23,0,0,1-1.73.81,3.08,3.08,0,0,1-2.48-.65,3.73,3.73,0,0,1-.83-2.6,1.44,1.44,0,1,0-2.88-.23,6.6,6.6,0,0,0,1.65,4.86,5.48,5.48,0,0,0,4.06,1.53l.71,0a5,5,0,0,0,3.84-2,6.75,6.75,0,0,0,1.06-4.22,6.62,6.62,0,0,0,5.88-7.18A6.33,6.33,0,0,0,148.67,52.26Z" transform="translate(0 0)" style="fill:#b8c4e0"/></g></g></g></g></g></g></g><g id="Groupe_10769" data-name="Groupe 10769"><path id="Tracé_22523" data-name="Tracé 22523" d="M97.7,33.32a57.38,57.38,0,0,1-8.34,5.35,54.33,54.33,0,0,1-9.07,3.46" transform="translate(0 0)" style="fill:none;stroke:#8595ba;stroke-linecap:round;stroke-linejoin:bevel;stroke-width:2px"/><path id="Tracé_22935" data-name="Tracé 22935" d="M135.34,42.13A55.74,55.74,0,0,0,127,36.78a52.53,52.53,0,0,0-9.06-3.46" transform="translate(0 0)" style="fill:none;stroke:#8595ba;stroke-linecap:round;stroke-linejoin:bevel;stroke-width:2px"/></g><g id="Groupe_11091" data-name="Groupe 11091"><g id="Groupe_10734" data-name="Groupe 10734"><g id="Groupe_29" data-name="Groupe 29"><path id="Tracé_97" data-name="Tracé 97" d="M131.3,53.47a7.78,7.78,0,1,1-7.78-7.77,7.78,7.78,0,0,1,7.78,7.77Z" transform="translate(0 0)" style="fill:none;stroke:#8595ba;stroke-width:2px"/><path id="Tracé_98" data-name="Tracé 98" d="M129.63,55.92a3.06,3.06,0,1,1-3.06-3.05A3.06,3.06,0,0,1,129.63,55.92Z" transform="translate(0 0)" style="fill:#8595ba;stroke:#8595ba;stroke-width:2px"/></g></g><g id="Groupe_10742" data-name="Groupe 10742"><g id="Groupe_29-2" data-name="Groupe 29-2"><path id="Tracé_97-2" data-name="Tracé 97-2" d="M103.26,53.47a7.78,7.78,0,1,1-7.78-7.77,7.79,7.79,0,0,1,7.78,7.77Z" transform="translate(0 0)" style="fill:none;stroke:#8595ba;stroke-width:2px"/><path id="Tracé_98-2" data-name="Tracé 98-2" d="M101.58,55.92a3.05,3.05,0,1,1-3-3.05A3,3,0,0,1,101.58,55.92Z" transform="translate(0 0)" style="fill:#8595ba;stroke:#8595ba;stroke-width:2px"/></g></g></g></g></g></g><g id="Groupe_11092" data-name="Groupe 11092"><g id="Groupe_22" data-name="Groupe 22"><path id="Tracé_51" data-name="Tracé 51" d="M115.89,72.46a3.25,3.25,0,0,0-1.1-2.33,6.13,6.13,0,0,0-2.52-1.39,9,9,0,0,0-5,0,6.2,6.2,0,0,0-2.52,1.39,3.25,3.25,0,0,0-1.1,2.33c0,1.64,1.46.89,3.56.36a9.21,9.21,0,0,1,5.15,0C114.43,73.34,115.89,74.09,115.89,72.46Z" transform="translate(0 0)" style="fill:#8595ba"/></g><path id="Tracé_52" data-name="Tracé 52" d="M112.27,69a8.93,8.93,0,0,0-5,0,2.54,2.54,0,0,0,5,0Z" transform="translate(0 0)" style="fill:#8595ba"/></g></g></g></g><g id="shapes"><path id="Tracé_24414" data-name="Tracé 24414" d="M165.4,64.21a1.89,1.89,0,0,1,.2-.84l4.84-9.68-9.79-6.53a1.85,1.85,0,0,1-.52-2.57,2,2,0,0,1,.52-.52l8.83-5.89-8.83-5.89a1.86,1.86,0,0,1-.52-2.58,2,2,0,0,1,.22-.27l5.05-5.16V21.09a19.16,19.16,0,0,0-10.69-3.36c-9.65,0-17.2,7.12-17.2,16.2,0,12.48,22.53,27.83,27.89,31.3Z" transform="translate(0 0)" style="fill:#8595ba"/><path id="Tracé_24415" data-name="Tracé 24415" d="M179.8,17.73a19.19,19.19,0,0,0-10.69,3.36V25a1.86,1.86,0,0,1-.53,1.3l-4,4.1,9.3,6.19a1.86,1.86,0,0,1,.51,2.58,1.9,1.9,0,0,1-.51.51L165,45.61l8.84,5.89a1.86,1.86,0,0,1,.63,2.38l-5.38,10.76v.59C179.89,58.43,197,44.77,197,33.93,197,24.85,189.45,17.73,179.8,17.73Z" transform="translate(0 0)" style="fill:#8595ba"/></g></g></g></svg>