<svg id="Calque_1" data-name="Calque 1" xmlns="http://www.w3.org/2000/svg" xmlns:xlink="http://www.w3.org/1999/xlink" viewBox="0 0 370.07 281.27"><defs><linearGradient id="Dégradé_sans_nom" x1="-5396.5" y1="3371.17" x2="-5396.5" y2="3370.18" gradientTransform="matrix(180.9, 0, 0, -104.45, 976470.84, 352140.64)" gradientUnits="userSpaceOnUse"><stop offset="0" stop-color="#fff" stop-opacity="0"/><stop offset="1" stop-color="#6a7ea3"/></linearGradient><linearGradient id="Dégradé_sans_nom_2" x1="-5151.18" y1="3338.9" x2="-5149.63" y2="3338.9" gradientTransform="matrix(19.65, 0, 0, -50.89, 101517.64, 170014.21)" gradientUnits="userSpaceOnUse"><stop offset="0" stop-color="#aabecc"/><stop offset="1" stop-color="#fff" stop-opacity="0"/></linearGradient><linearGradient id="Dégradé_sans_nom_3" x1="-5371.26" y1="3375.72" x2="-5370.7" y2="3375.98" gradientTransform="matrix(97.31, 0, 0, -128.6, 522873.66, 434236.44)" xlink:href="#Dégradé_sans_nom_2"/><linearGradient id="Dégradé_sans_nom_4" x1="-4728.99" y1="3142.4" x2="-4728.99" y2="3141.4" gradientTransform="matrix(7.78, 0, 0, -12.08, 36982.04, 38006.05)" gradientUnits="userSpaceOnUse"><stop offset="0" stop-color="#fec36d"/><stop offset="1" stop-color="#fd8567"/></linearGradient><linearGradient id="Dégradé_sans_nom_5" x1="-5320.18" y1="3351.05" x2="-5320.18" y2="3350.05" gradientTransform="matrix(51.04, 0, 0, -62.83, 271760.07, 210638.54)" xlink:href="#Dégradé_sans_nom_4"/><linearGradient id="Dégradé_sans_nom_6" x1="-4810.71" y1="3126.56" x2="-4810.71" y2="3125.56" gradientTransform="matrix(8.81, 0, 0, -11.38, 42602.66, 35641.53)" xlink:href="#Dégradé_sans_nom_4"/><linearGradient id="Dégradé_sans_nom_7" x1="-5361.38" y1="3370" x2="-5361.38" y2="3369" gradientTransform="matrix(83.34, 0, 0, -101.64, 446988.08, 342592.14)" xlink:href="#Dégradé_sans_nom_4"/><linearGradient id="Dégradé_sans_nom_8" x1="-5361.33" y1="3369.59" x2="-5361.56" y2="3369.17" gradientTransform="matrix(83.34, 0, 0, -101.64, 447006.41, 342592.9)" xlink:href="#Dégradé_sans_nom_4"/><linearGradient id="Dégradé_sans_nom_9" x1="-5366.28" y1="3379.55" x2="-5366.76" y2="3380.11" gradientTransform="matrix(90.45, 0, 0, -153.06, 485678.31, 517509.91)" xlink:href="#Dégradé_sans_nom"/><linearGradient id="Dégradé_sans_nom_10" x1="-5366.58" y1="3379.5" x2="-5366.42" y2="3380.1" gradientTransform="matrix(90.45, 0, 0, -153.06, 485582.4, 517509.86)" xlink:href="#Dégradé_sans_nom"/><linearGradient id="Dégradé_sans_nom_11" x1="-5223.5" y1="3381.03" x2="-5223.5" y2="3380.03" gradientTransform="matrix(26.73, 0, 0, -158.73, 139922.18, 536759.99)" xlink:href="#Dégradé_sans_nom_4"/><linearGradient id="Dégradé_sans_nom_12" x1="-5217.77" y1="3381.06" x2="-5217.77" y2="3380.06" gradientTransform="matrix(26, 0, 0, -158.93, 135965.94, 537445.97)" xlink:href="#Dégradé_sans_nom_4"/><linearGradient id="Dégradé_sans_nom_13" x1="-5244.07" y1="3228.94" x2="-5244.07" y2="3227.94" gradientTransform="matrix(29.75, 0, 0, -18.16, 156275.53, 58733.89)" xlink:href="#Dégradé_sans_nom_4"/><linearGradient id="Dégradé_sans_nom_14" x1="-5243.86" y1="3229" x2="-5243.86" y2="3228" gradientTransform="matrix(29.71, 0, 0, -18.17, 156092.58, 58768.59)" xlink:href="#Dégradé_sans_nom_4"/><linearGradient id="Dégradé_sans_nom_15" x1="-5243.26" y1="3228.66" x2="-5243.26" y2="3227.66" gradientTransform="matrix(29.62, 0, 0, -18.13, 155566.04, 58658.44)" xlink:href="#Dégradé_sans_nom_4"/><linearGradient id="Dégradé_sans_nom_16" x1="-5242.88" y1="3228.53" x2="-5242.88" y2="3227.53" gradientTransform="matrix(29.56, 0, 0, -18.12, 155241.3, 58626.42)" xlink:href="#Dégradé_sans_nom_4"/><linearGradient id="Dégradé_sans_nom_17" x1="-5242.43" y1="3228.33" x2="-5242.43" y2="3227.33" gradientTransform="matrix(29.48, 0, 0, -18.1, 154851.4, 58564.83)" xlink:href="#Dégradé_sans_nom_4"/><linearGradient id="Dégradé_sans_nom_18" x1="-5242.59" y1="3228.72" x2="-5242.59" y2="3227.72" gradientTransform="matrix(29.51, 0, 0, -18.14, 154990.23, 58718.21)" xlink:href="#Dégradé_sans_nom_4"/><linearGradient id="Dégradé_sans_nom_19" x1="-5242.2" y1="3228.52" x2="-5242.2" y2="3227.52" gradientTransform="matrix(29.45, 0, 0, -18.12, 154653.33, 58658.8)" xlink:href="#Dégradé_sans_nom_4"/><linearGradient id="Dégradé_sans_nom_20" x1="-5241.77" y1="3228.35" x2="-5241.77" y2="3227.35" gradientTransform="matrix(29.38, 0, 0, -18.1, 154283.46, 58611.01)" xlink:href="#Dégradé_sans_nom_4"/><linearGradient id="Dégradé_sans_nom_21" x1="-5240.72" y1="3227.62" x2="-5240.72" y2="3226.62" gradientTransform="matrix(29.21, 0, 0, -18.02, 153384.94, 58365.78)" xlink:href="#Dégradé_sans_nom_4"/><linearGradient id="Dégradé_sans_nom_22" x1="-5240.96" y1="3228.02" x2="-5240.96" y2="3227.02" gradientTransform="matrix(29.25, 0, 0, -18.06, 153586.96, 58518.64)" xlink:href="#Dégradé_sans_nom_4"/><linearGradient id="Dégradé_sans_nom_23" x1="-5240.49" y1="3227.81" x2="-5240.49" y2="3226.81" gradientTransform="matrix(29.18, 0, 0, -18.04, 153195.89, 58456.43)" xlink:href="#Dégradé_sans_nom_4"/><linearGradient id="Dégradé_sans_nom_24" x1="-5239.89" y1="3227.47" x2="-5239.89" y2="3226.47" gradientTransform="matrix(29.08, 0, 0, -18.01, 152683.27, 58348.98)" xlink:href="#Dégradé_sans_nom_4"/></defs><title>onboarding5</title><g id="Groupe_9961" data-name="Groupe 9961"><g id="Groupe_9960" data-name="Groupe 9960"><path id="Tracé_2" data-name="Tracé 2" d="M370.07,195.56H288.89l-40.32,47.59-1.71-.07L220.06,89.41,0,201l69.64,47.86,20.46-8.47,42.73,29.41c10.85,7.47,19,11.47,32.16,11.47l20-14.9h61.72l11.78-7c30.62.31,62.9,1,62.9,1l27.73-16.83-65.67.87Z" transform="translate(0 0)" style="fill:#1d8df5;opacity:0.17900000512599945;isolation:isolate"/><g id="Groupe_18" data-name="Groupe 18"><path id="Tracé_4" data-name="Tracé 4" d="M216.87,176.09l90.45-52.23L216.87,71.64l-90.45,52.22Z" transform="translate(0 0)" style="fill:#7b1fa2"/><path id="Tracé_5" data-name="Tracé 5" d="M216.87,176.09l90.45-52.23L216.87,71.64l-90.45,52.22Z" transform="translate(0 0)" style="fill:url(#Dégradé_sans_nom)"/><g id="Groupe_5" data-name="Groupe 5"><g id="Groupe_2" data-name="Groupe 2"><path id="Tracé_6" data-name="Tracé 6" d="M312.84,118l-19.65-12.17v44.85L215.54,105.8v-75c0-7.83,5.54-11,12.32-7.12l73,42.15c9.34,5.39,12,18.62,12,29.4Z" transform="translate(0 0)" style="fill:#fff"/><path id="Tracé_7" data-name="Tracé 7" d="M293.19,105.78,312.84,118V92.09c0-9.08-.51-19.62-7.32-23.55h0c-6.81-3.93-12.33.24-12.33,9.32Z" transform="translate(0 0)" style="fill:#d1dde8"/><path id="Tracé_8" data-name="Tracé 8" d="M293.19,105.78,312.84,118V92.09c0-9.08-.51-19.62-7.32-23.55h0c-6.81-3.93-12.33.24-12.33,9.32Z" transform="translate(0 0)" style="fill:url(#Dégradé_sans_nom_2)"/></g><line id="Ligne_1" data-name="Ligne 1" x1="223.1" y1="34.48" x2="283.06" y2="69.1" style="fill:none;stroke:#aabecc;stroke-linecap:round;stroke-miterlimit:10;stroke-width:1.1200000047683716px"/><line id="Ligne_2" data-name="Ligne 2" x1="223.1" y1="91.87" x2="283.06" y2="126.49" style="fill:none;stroke:#aabecc;stroke-linecap:round;stroke-miterlimit:10;stroke-width:1.1200000047683716px"/><line id="Ligne_3" data-name="Ligne 3" x1="223.1" y1="97.79" x2="283.06" y2="132.41" style="fill:none;stroke:#aabecc;stroke-linecap:round;stroke-miterlimit:10;stroke-width:1.1200000047683716px"/><line id="Ligne_4" data-name="Ligne 4" x1="223.1" y1="40.92" x2="283.06" y2="75.53" style="fill:none;stroke:#aabecc;stroke-linecap:round;stroke-miterlimit:10;stroke-width:1.1200000047683716px"/><line id="Ligne_5" data-name="Ligne 5" x1="223.1" y1="47.36" x2="260.38" y2="68.88" style="fill:none;stroke:#aabecc;stroke-linecap:round;stroke-miterlimit:10;stroke-width:1.1200000047683716px"/><line id="Ligne_6" data-name="Ligne 6" x1="223.1" y1="53.36" x2="251.09" y2="69.52" style="fill:none;stroke:#aabecc;stroke-linecap:round;stroke-miterlimit:10;stroke-width:1.1200000047683716px"/><line id="Ligne_7" data-name="Ligne 7" x1="223.1" y1="59.45" x2="243.53" y2="71.24" style="fill:none;stroke:#aabecc;stroke-linecap:round;stroke-miterlimit:10;stroke-width:1.1200000047683716px"/><g id="Groupe_3" data-name="Groupe 3"><path id="Tracé_9" data-name="Tracé 9" d="M312.84,118l-19.65-12.17v44.85L215.54,105.8v-75c0-7.83,5.54-11,12.32-7.12" transform="translate(0 0)" style="fill:url(#Dégradé_sans_nom_3)"/></g><g id="Groupe_4" data-name="Groupe 4"><path id="Tracé_10" data-name="Tracé 10" d="M224,81.42l10.31-6,9.82,17,16-9.22,5.47,9.47,15.33-8.86" transform="translate(0 0)" style="fill:none;stroke:#e96fcc;stroke-linecap:round;stroke-linejoin:round;stroke-width:4.239999771118164px"/><path id="Tracé_11" data-name="Tracé 11" d="M272.49,77.36l10.08,5.82V94.34" transform="translate(0 0)" style="fill:none;stroke:#e96fcc;stroke-linecap:round;stroke-linejoin:round;stroke-width:4.239999771118164px"/></g></g><g id="Groupe_6" data-name="Groupe 6"><path id="Tracé_12" data-name="Tracé 12" d="M216.26,114.39l-44,40c-2.21,2-4.59.9-5.32-2.46L151.53,80.79c-.73-3.36.46-7.72,2.67-9.72l44-39.95c2.21-2,4.59-.9,5.32,2.46l15.45,71.09C219.66,108,218.47,112.38,216.26,114.39Z" transform="translate(0 0)" style="fill:#fff"/><path id="Tracé_13" data-name="Tracé 13" d="M209.85,100.84l-38.17,34.69c-1.51,1.37-3.13.62-3.63-1.68L156.62,81.24a7.65,7.65,0,0,1,1.82-6.63l38.17-34.68c1.5-1.37,3.13-.62,3.63,1.67l11.43,52.61A7.63,7.63,0,0,1,209.85,100.84Z" transform="translate(0 0)" style="fill:#1d8df5"/><path id="Tracé_14" data-name="Tracé 14" d="M188.94,80l-10.55-2.2c-1.18-.25-2.61,1.07-3.3,3C172,90,163.74,114,163.87,114.65l4.55,20.91a1.32,1.32,0,0,0,1.34,1.3,1.35,1.35,0,0,0,1.05-.54l39.91-36.27a4.8,4.8,0,0,0,1.33-4.14l-6.1-28-7.7-1.43c-1.15-.21-2.52,1-3.22,2.92l-2.84,7.72C191.49,79,190.1,80.28,188.94,80Z" transform="translate(0 0)" style="fill:#7b1fa2"/><path id="Tracé_15" data-name="Tracé 15" d="M192,60.88a9.72,9.72,0,0,1-2.68,8.39c-2.08,1.89-4.25,1.2-4.85-1.55a9.74,9.74,0,0,1,2.69-8.4C189.23,57.44,191.4,58.13,192,60.88Z" transform="translate(0 0)" style="fill:url(#Dégradé_sans_nom_4)"/></g><g id="Groupe_7" data-name="Groupe 7"><path id="Tracé_16" data-name="Tracé 16" d="M222.57,128.05l-51.44,29.7c-2.58,1.49-4.68-.09-4.68-3.54V81.47c0-3.44,2.1-7.44,4.68-8.93l51.44-29.7c2.58-1.49,4.68.09,4.68,3.53v72.74C227.25,122.56,225.15,126.56,222.57,128.05Z" transform="translate(0 0)" style="fill:#fff"/><path id="Tracé_17" data-name="Tracé 17" d="M219.18,113.45l-44.66,25.79c-1.76,1-3.19-.06-3.19-2.41V83a7.64,7.64,0,0,1,3.19-6.09l44.66-25.79c1.76-1,3.19.06,3.19,2.41v53.84A7.61,7.61,0,0,1,219.18,113.45Z" transform="translate(0 0)" style="fill:#1d8df5"/><path id="Tracé_18" data-name="Tracé 18" d="M203.17,88.68l-9.84-4.4c-1.11-.5-2.78.5-3.87,2.29-5,8.27-18.13,30-18.13,30.6v21.4c0,1.39,1,2,2.17,1.26l46.7-27a4.82,4.82,0,0,0,2.17-3.77V80.44l-7.23-3c-1.08-.46-2.68.47-3.76,2.17L207,86.52C205.87,88.24,204.25,89.16,203.17,88.68Z" transform="translate(0 0)" style="fill:url(#Dégradé_sans_nom_5)"/><path id="Tracé_19" data-name="Tracé 19" d="M210.22,70.6a9.73,9.73,0,0,1-4.41,7.64c-2.43,1.4-4.4.26-4.4-2.55a9.75,9.75,0,0,1,4.4-7.63C208.25,66.65,210.22,67.79,210.22,70.6Z" transform="translate(0 0)" style="fill:url(#Dégradé_sans_nom_6)"/></g><g id="Groupe_15" data-name="Groupe 15"><circle id="Ellipse_1" data-name="Ellipse 1" cx="249.72" cy="145.6" r="52.87" style="fill:#04015b"/><g id="Groupe_10" data-name="Groupe 10"><g id="Groupe_8" data-name="Groupe 8"><path id="Tracé_20" data-name="Tracé 20" d="M204.5,155.81a.92.92,0,0,1-.89-.73,47.56,47.56,0,0,1-.27-17.56.91.91,0,0,1,1.8.31,45.84,45.84,0,0,0,.26,16.88.91.91,0,0,1-.71,1.08h0Z" transform="translate(0 0)" style="fill:#229"/></g><g id="Groupe_9" data-name="Groupe 9"><path id="Tracé_21" data-name="Tracé 21" d="M207.2,128.55a.92.92,0,0,1-.92-.92.84.84,0,0,1,.07-.35,47.06,47.06,0,0,1,73.87-17.53.91.91,0,0,1-1.19,1.39h0A45.26,45.26,0,0,0,208,128,.91.91,0,0,1,207.2,128.55Z" transform="translate(0 0)" style="fill:#229"/></g></g><circle id="Ellipse_2" data-name="Ellipse 2" cx="249.72" cy="145.6" r="23.12" style="fill:#e96fcc"/><path id="Tracé_25" data-name="Tracé 25" d="M252.26,145.6a2.54,2.54,0,1,1-2.54-2.54,2.53,2.53,0,0,1,2.54,2.54Z" transform="translate(0 0)" style="fill:#04015b"/></g><g id="Groupe_17" data-name="Groupe 17"><path id="Tracé_26" data-name="Tracé 26" d="M208.62,182,143.8,144.55c-2.23-1.29-4-4.74-4-7.72l10.45-52.47c0-3,1.8-4.34,4-3l64.81,37.42c2.23,1.29,4,4.74,4,7.72l-10.44,52.47C212.66,181.9,210.85,183.26,208.62,182Z" transform="translate(0 0)" style="fill:url(#Dégradé_sans_nom_7)"/><path id="Tracé_27" data-name="Tracé 27" d="M205.34,173.5l-68.18-39.36a5.65,5.65,0,0,1-2.36-4.51l10.45-56.95c0-1.74,1.05-2.54,2.35-1.79l68.18,39.37a5.63,5.63,0,0,1,2.36,4.5l-10.44,57C207.7,173.46,206.64,174.25,205.34,173.5Z" transform="translate(0 0)" style="fill:#fff"/><path id="Tracé_28" data-name="Tracé 28" d="M199.87,176.93,135.06,139.5c-2.23-1.28-4-4.74-4-7.72l10.44-52.47c0-3,1.81-4.34,4-3l64.82,37.42c2.23,1.29,4,4.75,4,7.72l-10.44,52.47C203.91,176.85,202.11,178.21,199.87,176.93Z" transform="translate(0 0)" style="fill:#ffca28"/><path id="Tracé_29" data-name="Tracé 29" d="M207.72,117.22l-14.46-8.35v-6.14c0-2,1.25-3,2.78-2.1l8.9,5.14a6.68,6.68,0,0,1,2.79,5.31Z" transform="translate(0 0)" style="fill:#ffca28"/><g id="Groupe_16" data-name="Groupe 16"><path id="Tracé_30" data-name="Tracé 30" d="M184.57,131c-1.81,9.92-8.6,14.47-15.16,10.16S159,125.35,160.8,115.43,169.4,101,176,105.27,186.39,121.11,184.57,131Z" transform="translate(0 0)" style="fill:#7b1fa2"/><path id="Tracé_31" data-name="Tracé 31" d="M167.88,127.85,170.41,114c.2-1.08,1.11-1.22,1.61-.24l5.92,11.66c.47.9.24,2.14-.42,2.31l-8.46,2.22C168.35,130.1,167.68,128.93,167.88,127.85Z" transform="translate(0 0)" style="fill:#fff"/></g><path id="Tracé_32" data-name="Tracé 32" d="M199.87,176.93,135.06,139.5c-2.23-1.28-4-4.74-4-7.72l10.44-52.47c0-3,1.81-4.34,4-3l64.82,37.42c2.23,1.29,4,4.75,4,7.72l-10.44,52.47C203.91,176.85,202.11,178.21,199.87,176.93Z" transform="translate(0 0)" style="fill:url(#Dégradé_sans_nom_8)"/></g><path id="Tracé_33" data-name="Tracé 33" d="M307.32,123.86V224.7l-90.45,52.22V176.09Z" transform="translate(0 0)" style="fill:#1d8df5"/><path id="Tracé_34" data-name="Tracé 34" d="M307.32,126.86V227.7l-90.45,52.22V179.09Z" transform="translate(0 0)" style="fill:url(#Dégradé_sans_nom_9)"/><path id="Tracé_35" data-name="Tracé 35" d="M307.32,123.86l26.56,35.33-90.45,52.23-26.56-35.33Z" transform="translate(0 0)" style="fill:#1d8df5"/><path id="Tracé_36" data-name="Tracé 36" d="M216.87,276.92V176.09l-90.46-52.22V224.7Z" transform="translate(0 0)" style="fill:#1d8df5"/><path id="Tracé_37" data-name="Tracé 37" d="M216.87,279.92V179.09l-90.46-52.22V227.7Z" transform="translate(0 0)" style="fill:url(#Dégradé_sans_nom_10)"/><path id="Tracé_38" data-name="Tracé 38" d="M126.41,123.86,99.85,159.19l90.46,52.23,26.56-35.33Z" transform="translate(0 0)" style="fill:#1d8df5"/></g><g id="Groupe_22" data-name="Groupe 22"><g id="Groupe_20" data-name="Groupe 20"><path id="Tracé_39" data-name="Tracé 39" d="M286.21,260.38a1.5,1.5,0,0,1-1.48-1.27L261,103.35a1.5,1.5,0,0,1,3-.45L287.7,258.66a1.51,1.51,0,0,1-1.26,1.71Z" transform="translate(0 0)" style="fill:url(#Dégradé_sans_nom_11)"/><path id="Tracé_40" data-name="Tracé 40" d="M312.46,245.27A1.5,1.5,0,0,1,311,244L288,88.06a1.52,1.52,0,0,1,1.27-1.71,1.5,1.5,0,0,1,1.7,1.27l23,155.93a1.49,1.49,0,0,1-1.26,1.7A.86.86,0,0,1,312.46,245.27Z" transform="translate(0 0)" style="fill:url(#Dégradé_sans_nom_12)"/><g id="Groupe_19" data-name="Groupe 19"><path id="Tracé_41" data-name="Tracé 41" d="M263.62,112.11a1.51,1.51,0,0,1-1.51-1.5,1.48,1.48,0,0,1,.76-1.3l26.75-15.16a1.5,1.5,0,1,1,1.48,2.61l-26.74,15.16A1.48,1.48,0,0,1,263.62,112.11Z" transform="translate(0 0)" style="fill:url(#Dégradé_sans_nom_13)"/><path id="Tracé_42" data-name="Tracé 42" d="M265.57,124.91a1.5,1.5,0,0,1-.74-2.8L291.51,107a1.5,1.5,0,0,1,1.56,2.57l-.08,0-26.68,15.15A1.48,1.48,0,0,1,265.57,124.91Z" transform="translate(0 0)" style="fill:url(#Dégradé_sans_nom_14)"/><path id="Tracé_43" data-name="Tracé 43" d="M267.52,137.71a1.5,1.5,0,0,1-.74-2.8l26.62-15.13a1.5,1.5,0,1,1,1.48,2.6h0l-26.62,15.13A1.49,1.49,0,0,1,267.52,137.71Z" transform="translate(0 0)" style="fill:url(#Dégradé_sans_nom_15)"/><path id="Tracé_44" data-name="Tracé 44" d="M269.47,150.51a1.5,1.5,0,0,1-.74-2.8l26.56-15.12a1.5,1.5,0,0,1,1.48,2.61l-26.56,15.11A1.49,1.49,0,0,1,269.47,150.51Z" transform="translate(0 0)" style="fill:url(#Dégradé_sans_nom_16)"/><path id="Tracé_45" data-name="Tracé 45" d="M271.42,163.31a1.5,1.5,0,0,1-.74-2.8l26.5-15.1a1.5,1.5,0,0,1,1.48,2.6l-26.5,15.1A1.47,1.47,0,0,1,271.42,163.31Z" transform="translate(0 0)" style="fill:url(#Dégradé_sans_nom_17)"/><path id="Tracé_46" data-name="Tracé 46" d="M273.37,176.11a1.5,1.5,0,0,1-.74-2.8l26.44-15.1a1.5,1.5,0,0,1,1.63,2.52l-.15.08-26.44,15.1A1.47,1.47,0,0,1,273.37,176.11Z" transform="translate(0 0)" style="fill:url(#Dégradé_sans_nom_18)"/><path id="Tracé_47" data-name="Tracé 47" d="M275.32,188.9a1.5,1.5,0,0,1-1.5-1.5,1.53,1.53,0,0,1,.76-1.3L301,171a1.5,1.5,0,0,1,1.62,2.52l-.13.08-26.39,15.08A1.36,1.36,0,0,1,275.32,188.9Z" transform="translate(0 0)" style="fill:url(#Dégradé_sans_nom_19)"/><path id="Tracé_48" data-name="Tracé 48" d="M277.27,201.7a1.5,1.5,0,0,1-.75-2.8l26.32-15.06a1.5,1.5,0,1,1,1.62,2.53l-.13.07L278,201.5A1.47,1.47,0,0,1,277.27,201.7Z" transform="translate(0 0)" style="fill:url(#Dégradé_sans_nom_20)"/><path id="Tracé_49" data-name="Tracé 49" d="M279.22,214.5a1.5,1.5,0,0,1-.75-2.8l26.26-15a1.51,1.51,0,0,1,2,.63,1.49,1.49,0,0,1-.53,2L280,214.3A1.53,1.53,0,0,1,279.22,214.5Z" transform="translate(0 0)" style="fill:url(#Dégradé_sans_nom_21)"/><path id="Tracé_50" data-name="Tracé 50" d="M281.17,227.3a1.5,1.5,0,0,1-.75-2.8l26.2-15a1.5,1.5,0,0,1,1.6,2.54l-.1.06-26.2,15A1.53,1.53,0,0,1,281.17,227.3Z" transform="translate(0 0)" style="fill:url(#Dégradé_sans_nom_22)"/><path id="Tracé_51" data-name="Tracé 51" d="M283.12,240.1a1.5,1.5,0,0,1-.75-2.8l26.14-15a1.52,1.52,0,0,1,2.07.49,1.5,1.5,0,0,1-.5,2.06l-.07,0-26.14,15A1.53,1.53,0,0,1,283.12,240.1Z" transform="translate(0 0)" style="fill:url(#Dégradé_sans_nom_23)"/><path id="Tracé_52" data-name="Tracé 52" d="M285.07,252.9a1.5,1.5,0,0,1-.75-2.8l26.08-15a1.5,1.5,0,0,1,1.5,2.6l-26.08,15A1.48,1.48,0,0,1,285.07,252.9Z" transform="translate(0 0)" style="fill:url(#Dégradé_sans_nom_24)"/></g></g><g id="Groupe_21" data-name="Groupe 21"><path id="Tracé_53" data-name="Tracé 53" d="M288.48,198.62s1.13,2.95-.52,3.72c-2.15,1-10.22-3.63-9.23-5.37s6.41.3,6.41.3Z" transform="translate(0 0)" style="fill:#111638"/><path id="Tracé_54" data-name="Tracé 54" d="M307.85,220.92s2.29,1.55,1.59,3.22c-.91,2.2-9.44,4.09-9.89,2.13s4.93-4.11,4.93-4.11Z" transform="translate(0 0)" style="fill:#111638"/><path id="Tracé_55" data-name="Tracé 55" d="M301.84,162.88,292.71,165s.6,24.82,11.66,57.14c0,0,3.67.88,4.65-1,0,0-5.2-28.66-5.28-33.69C303.62,178.65,304,167.18,301.84,162.88Z" transform="translate(0 0)" style="fill:#1c224c"/><path id="Tracé_56" data-name="Tracé 56" d="M299.89,207.38A229,229,0,0,1,292.71,165l5.24-1.21C294.06,171.27,299.86,207.18,299.89,207.38Z" transform="translate(0 0)" style="fill:#111638"/><path id="Tracé_57" data-name="Tracé 57" d="M288,162.94s-14.45-5.13-15.3-.85,11.64,37.15,11.64,37.15,2.74,1.14,4.47-.7l-7.57-28.64s19.88,11.61,17-4.67Z" transform="translate(0 0)" style="fill:#1c224c"/><path id="Tracé_58" data-name="Tracé 58" d="M288,162.94a2.63,2.63,0,0,0,.54.46c1.74,1,6.09,2.61,12.76-1.93a1.49,1.49,0,0,0,.38-.37l.3,1.17a.68.68,0,0,1-.14.61c-4.73,5.47-11.47,3.36-12.9,2a6,6,0,0,1-.54-.46Z" transform="translate(0 0)" style="fill:#111638"/><path id="Tracé_59" data-name="Tracé 59" d="M293.33,110.28s-3.21-1.52-3.08-2,1.17.19,1.17.19-2.22-1.49-1.85-2c.14-.17,1.5.76,1.5.76s-1.57-1.29-1.29-1.56,1.67,1,1.67,1-1.1-1.08-.88-1.33,1.37.85,1.37.85-.57-.73-.42-1,1.48.69,3.22,3.46Z" transform="translate(0 0)" style="fill:#f6f6f6"/><path id="Tracé_60" data-name="Tracé 60" d="M297.39,135s-3.13,8.25,2.26,8.85c0,0,19.66-11-5-35.33l-.1.08a5.51,5.51,0,0,0-1.45,1.63h0S306.7,130.14,297.39,135Z" transform="translate(0 0)" style="fill:#7b93ba"/><path id="Tracé_61" data-name="Tracé 61" d="M294.24,144.68s-7.63,13.63-10.77,15.63h-2.28l.13-2.76s2.87-5.06,12.32-13.53Z" transform="translate(0 0)" style="fill:#25284c"/><rect id="Rectangle_4" data-name="Rectangle 4" x="289.28" y="135.58" width="3.87" height="5.46" transform="translate(-24.53 73.17) rotate(-13.75)" style="fill:#f6f6f6"/><path id="Tracé_62" data-name="Tracé 62" d="M297.39,135a1.34,1.34,0,0,1,1.39.1,3.09,3.09,0,0,1,1.51,2.47l1.59,22.56a2.55,2.55,0,0,1-.53,1.7c-1.23,1.61-4.72,4.66-12.6,2.84a1.36,1.36,0,0,1-1-1l-5-18.4a2.58,2.58,0,0,1,1-2.79Z" transform="translate(0 0)" style="fill:#6a7ea3"/><path id="Tracé_63" data-name="Tracé 63" d="M285.26,128.88s-.65,5.27.92,8.37,6.64-.38,7.53-1.52,3.6-8.91-2.82-10.29C286.73,124.55,285.45,127,285.26,128.88Z" transform="translate(0 0)" style="fill:#f6f6f6"/><path id="Tracé_64" data-name="Tracé 64" d="M290.77,133.42a8.82,8.82,0,0,1-2.1-4.74s-.41-.39-3.5,1.27c0,0-3-.63-.93-3.47s8.55-5.6,10.64-1.9c0,0,5.4.23,3,6.78-3.2,8.62-7.06,6.28-7.68,4S290.77,133.42,290.77,133.42Z" transform="translate(0 0)" style="fill:#25284c"/><path id="Tracé_65" data-name="Tracé 65" d="M289.63,132.09s1.23-1.51,1.72-.35-.8,3-2.41,3Z" transform="translate(0 0)" style="fill:#f6f6f6"/><path id="Tracé_66" data-name="Tracé 66" d="M267.94,123.88s1.26-3.33.83-3.57-.7.94-.7.94.56-2.61,0-2.68c-.21,0-.54,1.59-.54,1.59s.23-2-.16-2-.54,1.86-.54,1.86,0-1.54-.29-1.58-.39,1.57-.39,1.57-.1-.93-.39-1-.58,1.52.08,4.72Z" transform="translate(0 0)" style="fill:#f6f6f6"/><path id="Tracé_67" data-name="Tracé 67" d="M283.8,142.51a5.46,5.46,0,0,1,.28,7.66s-21.39,7-18.33-26.61h.12a5.47,5.47,0,0,1,2.17.16h0S268.84,146.7,283.8,142.51Z" transform="translate(0 0)" style="fill:#7b93ba"/><path id="Tracé_68" data-name="Tracé 68" d="M281.24,169.9l-4.14-2.24s-2.05,2,2.95,2.21C280.41,169.89,280.81,169.9,281.24,169.9Z" transform="translate(0 0)" style="fill:#111638"/></g></g></g><g id="Groupe_9937" data-name="Groupe 9937"><g id="Tracé_84" data-name="Tracé 84"><path d="M126.14,69.15a6.29,6.29,0,1,1-6.29-6.29h0A6.29,6.29,0,0,1,126.14,69.15Z" transform="translate(0 0)" style="fill:none"/><path d="M119.85,62.86a6.29,6.29,0,1,0,6.29,6.29,6.29,6.29,0,0,0-6.29-6.29m0-2a8.29,8.29,0,1,1-8.29,8.29A8.29,8.29,0,0,1,119.85,60.86Z" transform="translate(0 0)" style="fill:#fff"/></g><g id="Tracé_85" data-name="Tracé 85"><path d="M362.63,150.28a6.29,6.29,0,1,1-6.29-6.29,6.29,6.29,0,0,1,6.29,6.29Z" transform="translate(0 0)" style="fill:none"/><path d="M356.34,144a6.29,6.29,0,1,0,6.29,6.29,6.29,6.29,0,0,0-6.29-6.29m0-2a8.29,8.29,0,1,1-8.29,8.29A8.3,8.3,0,0,1,356.34,142Z" transform="translate(0 0)" style="fill:#fff"/></g><circle id="Ellipse_6" data-name="Ellipse 6" cx="105.69" cy="86.15" r="3.14" style="fill:#fff"/><circle id="Ellipse_7" data-name="Ellipse 7" cx="348.73" cy="172.12" r="3.14" style="fill:#fff"/><g id="Groupe_34" data-name="Groupe 34"><g id="Groupe_30" data-name="Groupe 30"><line id="Ligne_8" data-name="Ligne 8" x1="145.91" y1="1" x2="145.91" y2="8.3" style="fill:none;stroke:#fff;stroke-linecap:round;stroke-miterlimit:10;stroke-width:2px"/><line id="Ligne_9" data-name="Ligne 9" x1="145.91" y1="20.92" x2="145.91" y2="28.22" style="fill:none;stroke:#fff;stroke-linecap:round;stroke-miterlimit:10;stroke-width:2px"/></g><g id="Groupe_31" data-name="Groupe 31"><line id="Ligne_10" data-name="Ligne 10" x1="159.52" y1="14.61" x2="152.22" y2="14.61" style="fill:none;stroke:#fff;stroke-linecap:round;stroke-miterlimit:10;stroke-width:2px"/><line id="Ligne_11" data-name="Ligne 11" x1="139.6" y1="14.61" x2="132.3" y2="14.61" style="fill:none;stroke:#fff;stroke-linecap:round;stroke-miterlimit:10;stroke-width:2px"/></g><g id="Groupe_32" data-name="Groupe 32"><line id="Ligne_12" data-name="Ligne 12" x1="136.29" y1="4.99" x2="141.45" y2="10.15" style="fill:none;stroke:#fff;stroke-linecap:round;stroke-miterlimit:10;stroke-width:2px"/><line id="Ligne_13" data-name="Ligne 13" x1="150.37" y1="19.07" x2="155.53" y2="24.23" style="fill:none;stroke:#fff;stroke-linecap:round;stroke-miterlimit:10;stroke-width:2px"/></g><g id="Groupe_33" data-name="Groupe 33"><line id="Ligne_14" data-name="Ligne 14" x1="155.53" y1="4.99" x2="150.37" y2="10.15" style="fill:none;stroke:#fff;stroke-linecap:round;stroke-miterlimit:10;stroke-width:2px"/><line id="Ligne_15" data-name="Ligne 15" x1="141.45" y1="19.07" x2="136.29" y2="24.23" style="fill:none;stroke:#fff;stroke-linecap:round;stroke-miterlimit:10;stroke-width:2px"/></g></g><g id="Groupe_39" data-name="Groupe 39"><g id="Groupe_35" data-name="Groupe 35"><line id="Ligne_16" data-name="Ligne 16" x1="127.4" y1="92.91" x2="127.4" y2="95.54" style="fill:none;stroke:#fff;stroke-linecap:round;stroke-miterlimit:10;stroke-width:2px"/><line id="Ligne_17" data-name="Ligne 17" x1="127.4" y1="100.09" x2="127.4" y2="102.72" style="fill:none;stroke:#fff;stroke-linecap:round;stroke-miterlimit:10;stroke-width:2px"/></g><g id="Groupe_36" data-name="Groupe 36"><line id="Ligne_18" data-name="Ligne 18" x1="132.3" y1="97.81" x2="129.68" y2="97.81" style="fill:none;stroke:#fff;stroke-linecap:round;stroke-miterlimit:10;stroke-width:2px"/><line id="Ligne_19" data-name="Ligne 19" x1="125.13" y1="97.81" x2="122.5" y2="97.81" style="fill:none;stroke:#fff;stroke-linecap:round;stroke-miterlimit:10;stroke-width:2px"/></g><g id="Groupe_37" data-name="Groupe 37"><line id="Ligne_20" data-name="Ligne 20" x1="123.94" y1="94.35" x2="125.8" y2="96.21" style="fill:none;stroke:#fff;stroke-linecap:round;stroke-miterlimit:10;stroke-width:2px"/><line id="Ligne_21" data-name="Ligne 21" x1="129.01" y1="99.42" x2="130.87" y2="101.28" style="fill:none;stroke:#fff;stroke-linecap:round;stroke-miterlimit:10;stroke-width:2px"/></g><g id="Groupe_38" data-name="Groupe 38"><line id="Ligne_22" data-name="Ligne 22" x1="130.87" y1="94.35" x2="129.01" y2="96.21" style="fill:none;stroke:#fff;stroke-linecap:round;stroke-miterlimit:10;stroke-width:2px"/><line id="Ligne_23" data-name="Ligne 23" x1="125.8" y1="99.42" x2="123.94" y2="101.28" style="fill:none;stroke:#fff;stroke-linecap:round;stroke-miterlimit:10;stroke-width:2px"/></g></g><g id="Groupe_44" data-name="Groupe 44"><g id="Groupe_40" data-name="Groupe 40"><line id="Ligne_24" data-name="Ligne 24" x1="216.72" y1="247.33" x2="216.72" y2="249.96" style="fill:none;stroke:#fff;stroke-linecap:round;stroke-miterlimit:10;stroke-width:2px"/><line id="Ligne_25" data-name="Ligne 25" x1="216.72" y1="254.5" x2="216.72" y2="257.13" style="fill:none;stroke:#fff;stroke-linecap:round;stroke-miterlimit:10;stroke-width:2px"/></g><g id="Groupe_41" data-name="Groupe 41"><line id="Ligne_26" data-name="Ligne 26" x1="221.63" y1="252.23" x2="219" y2="252.23" style="fill:none;stroke:#fff;stroke-linecap:round;stroke-miterlimit:10;stroke-width:2px"/><line id="Ligne_27" data-name="Ligne 27" x1="214.45" y1="252.23" x2="211.82" y2="252.23" style="fill:none;stroke:#fff;stroke-linecap:round;stroke-miterlimit:10;stroke-width:2px"/></g><g id="Groupe_42" data-name="Groupe 42"><line id="Ligne_28" data-name="Ligne 28" x1="213.26" y1="248.76" x2="215.12" y2="250.62" style="fill:none;stroke:#fff;stroke-linecap:round;stroke-miterlimit:10;stroke-width:2px"/><line id="Ligne_29" data-name="Ligne 29" x1="218.33" y1="253.84" x2="220.19" y2="255.69" style="fill:none;stroke:#fff;stroke-linecap:round;stroke-miterlimit:10;stroke-width:2px"/></g><g id="Groupe_43" data-name="Groupe 43"><line id="Ligne_30" data-name="Ligne 30" x1="220.19" y1="248.76" x2="218.33" y2="250.62" style="fill:none;stroke:#fff;stroke-linecap:round;stroke-miterlimit:10;stroke-width:2px"/><line id="Ligne_31" data-name="Ligne 31" x1="215.12" y1="253.84" x2="213.26" y2="255.69" style="fill:none;stroke:#fff;stroke-linecap:round;stroke-miterlimit:10;stroke-width:2px"/></g></g></g></g></svg>