<svg id="Calque_1" data-name="Calque 1" xmlns="http://www.w3.org/2000/svg" xmlns:xlink="http://www.w3.org/1999/xlink" viewBox="0 0 329.07 384.78"><defs><linearGradient id="Dégradé_sans_nom" x1="-5423.79" y1="3426.87" x2="-5423.78" y2="3427.94" gradientTransform="matrix(239.77, 0, 0, -124, 1300669.52, 425321.16)" gradientUnits="userSpaceOnUse"><stop offset="0" stop-color="#9ab5ff"/><stop offset="1" stop-color="#cdffff"/></linearGradient><linearGradient id="Dégradé_sans_nom_2" x1="-4928.99" y1="3389.03" x2="-4928.99" y2="3390.04" gradientTransform="matrix(10.53, 0, 0, -48.91, 51945.13, 165933.97)" gradientUnits="userSpaceOnUse"><stop offset="0.01" stop-color="#838bff"/><stop offset="1" stop-color="#8693ff"/></linearGradient><linearGradient id="Dégradé_sans_nom_3" x1="-4876.39" y1="3388.46" x2="-4876.39" y2="3389.47" gradientTransform="matrix(9.55, 0, 0, -48.47, 46655.39, 164401.55)" gradientUnits="userSpaceOnUse"><stop offset="0" stop-color="#b0c2ff"/><stop offset="1" stop-color="#caffff"/></linearGradient><linearGradient id="Dégradé_sans_nom_4" x1="-4343.05" y1="3302.06" x2="-4343.05" y2="3303.06" gradientTransform="matrix(4.52, 0, 0, -25.17, 19702.35, 83306.33)" xlink:href="#Dégradé_sans_nom_2"/><linearGradient id="Dégradé_sans_nom_5" x1="-4603.79" y1="3327.65" x2="-4603.79" y2="3328.67" gradientTransform="matrix(6.46, 0, 0, -24.71, 29828.5, 82423.32)" xlink:href="#Dégradé_sans_nom_3"/><linearGradient id="Dégradé_sans_nom_6" x1="-5211.17" y1="3433.38" x2="-5211.17" y2="3434.39" gradientTransform="matrix(23.15, 0, 0, -167.47, 120699.41, 575360.7)" gradientUnits="userSpaceOnUse"><stop offset="0" stop-color="#ca90ff"/><stop offset="1"/></linearGradient><linearGradient id="Dégradé_sans_nom_7" x1="-5416.73" y1="3430.38" x2="-5416.73" y2="3431.38" gradientTransform="matrix(182.98, 0, 0, -143.96, 991331.27, 494214.64)" gradientUnits="userSpaceOnUse"><stop offset="0" stop-color="#7a97ef"/><stop offset="0.38" stop-color="#a3aef6"/><stop offset="0.79" stop-color="#c8c2fd"/><stop offset="1" stop-color="#d6caff"/></linearGradient><linearGradient id="Dégradé_sans_nom_8" x1="-5067.79" y1="2626.91" x2="-5067.79" y2="2627.97" gradientTransform="matrix(14.38, 0, 0, -3.71, 72995.63, 9996.73)" gradientUnits="userSpaceOnUse"><stop offset="0"/><stop offset="1" stop-color="#fff"/></linearGradient></defs><title>Groupe 9938</title><g id="Groupe_9938" data-name="Groupe 9938"><g id="_1" data-name=" 1"><g id="smart_contract" data-name="smart contract"><path id="Tracé_21120" data-name="Tracé 21120" d="M43.67,62.25,203.73,77.8a7.59,7.59,0,0,1,6.81,6.58l29.38,223.88a7.62,7.62,0,0,1-5.11,8.2L86,366.77A7.61,7.61,0,0,1,76.34,362a6.88,6.88,0,0,1-.33-1.41L35.38,70.88a7.6,7.6,0,0,1,6.46-8.59A7.48,7.48,0,0,1,43.67,62.25Z" transform="translate(0 0)" style="fill:#b8c4e0"/><path id="Tracé_21121" data-name="Tracé 21121" d="M56.08,90.49s.66-11.82,15.12-11l44.25,303.72s-15.44,6.3-21.34-6.36Z" transform="translate(0 0)" style="fill:#dfe4f4"/><path id="Tracé_21122" data-name="Tracé 21122" d="M70.81,79.49,230.9,95a7.63,7.63,0,0,1,6.77,6.59l29.42,223.91a7.6,7.6,0,0,1-5.11,8.19L113.17,384a7.64,7.64,0,0,1-10-6.15L62.55,88.08a7.62,7.62,0,0,1,6.54-8.56A8.26,8.26,0,0,1,70.81,79.49Z" transform="translate(0 0)" style="fill:#dfe4f4"/><path id="Tracé_21123" data-name="Tracé 21123" d="M236.25,109.63l27.26,208a7.14,7.14,0,0,1-5,7.64L114.67,372.74a7.56,7.56,0,0,1-2.58.39,7.15,7.15,0,0,1-7-6.06L67.2,98a7.15,7.15,0,0,1,5.17-7.78,7.46,7.46,0,0,1,2.85-.29l154.45,13.67A7.13,7.13,0,0,1,236.25,109.63Z" transform="translate(0 0)" style="fill:#b8c4e0"/><path id="Tracé_21124" data-name="Tracé 21124" d="M233.9,110l27.26,208a7.13,7.13,0,0,1-5,7.64L112.28,373.06l-.25.07a7.17,7.17,0,0,1-7-6.06L67.2,98a7.15,7.15,0,0,1,5.17-7.78h.52l154.48,13.69A7.14,7.14,0,0,1,233.9,110Z" transform="translate(0 0)" style="fill:#b8c4e0"/><path id="Tracé_21125" data-name="Tracé 21125" d="M85.37,227.15S103.76,330.49,137,375.91L154.67,370Z" transform="translate(0 0)" style="fill:#1455d7;opacity:0.5;isolation:isolate"/><path id="Tracé_21126" data-name="Tracé 21126" d="M329.07,328.92s-67.28-11.58-163.91,50.3c0,0-43.3-14.24-75.86-124Z" transform="translate(0 0)" style="fill:url(#Dégradé_sans_nom)"/><path id="Tracé_21127" data-name="Tracé 21127" d="M69.16,163.83h0a2.26,2.26,0,0,1-2.49-1.94l-6-44.4A2.27,2.27,0,0,1,62.62,115h0a2.26,2.26,0,0,1,2.54,1.94h0l6,44.35a2.28,2.28,0,0,1-1.92,2.58Z" transform="translate(0 0)" style="fill:url(#Dégradé_sans_nom_2)"/><path id="Tracé_21128" data-name="Tracé 21128" d="M68.48,163.92h0a1.74,1.74,0,0,1-2-1.44v0L60.41,117a1.71,1.71,0,0,1,1.4-2h.08a1.74,1.74,0,0,1,2,1.44v0L70,161.92a1.74,1.74,0,0,1-1.43,2Z" transform="translate(0 0)" style="fill:#f3f6fe"/><path id="Tracé_21129" data-name="Tracé 21129" d="M61.88,115.05a1.77,1.77,0,0,0-1.43,1.23,1.76,1.76,0,0,1,.88-.39,1.74,1.74,0,0,1,2,1.44v0l6.11,45.4a1.75,1.75,0,0,1-.06.72,1.75,1.75,0,0,0,.62-1.56l-6.13-45.4a1.74,1.74,0,0,0-1.95-1.5Z" transform="translate(0 0)" style="fill:url(#Dégradé_sans_nom_3)"/><rect id="Rectangle_17298" data-name="Rectangle 17298" x="69.52" y="170.54" width="4.52" height="25.17" rx="2.11" ry="2.11" transform="matrix(0.99, -0.13, 0.13, 0.99, -23.86, 11.25)" style="fill:url(#Dégradé_sans_nom_4)"/><path id="Tracé_21130" data-name="Tracé 21130" d="M72.76,195.69h0a1.72,1.72,0,0,1-2-1.4.22.22,0,0,1,0-.08l-2.91-21.5a1.74,1.74,0,0,1,1.45-2h0a1.74,1.74,0,0,1,2,1.44v0l2.9,21.5a1.72,1.72,0,0,1-1.43,2Z" transform="translate(0 0)" style="fill:#f3f6fe"/><path id="Tracé_21131" data-name="Tracé 21131" d="M69.4,170.74a2.2,2.2,0,0,0-1.5.73,2.78,2.78,0,0,1,.88-.26c1-.13,1.77.16,1.84.65L73.74,195a.57.57,0,0,1-.09.38c.45-.22.75-.54.7-.85l-3.12-23.19C71.16,170.9,70.34,170.61,69.4,170.74Z" transform="translate(0 0)" style="fill:url(#Dégradé_sans_nom_5)"/><path id="Tracé_21132" data-name="Tracé 21132" d="M93.48,372.16s-23-167.27-22-167.47S93.82,359,93.82,359,95.77,372.24,93.48,372.16Z" transform="translate(0 0)" style="fill:url(#Dégradé_sans_nom_6)"/><path id="Tracé_21133" data-name="Tracé 21133" d="M329.07,328.92c-19.48-3.08-40.61-.86-61,4-54.07,12.84-103,44.13-103,44.13-35-18.7-63.66-82.71-75.71-121.83l-3.12-22.13L66.78,95.6v-.06A6,6,0,0,1,72,88.86a5.7,5.7,0,0,1,1.24,0l155.16,14.9a5.93,5.93,0,0,1,5.29,5,.61.61,0,0,1,0,.19c.66,5,1.64,12.54,2.8,21.42l1,7.75.31,2.3c.77,5.82,1.58,12,2.4,18.24l2,15c.2,1.66.44,3.32.65,5l5.07,38.75c.87,6.6,1.43,10.84,1.51,11.43C277.67,291.49,329.07,328.92,329.07,328.92Z" transform="translate(0 0)" style="fill:#f3f6fe"/><path id="Tracé_21134" data-name="Tracé 21134" d="M122.92,112l2.3,14.13a4.6,4.6,0,0,0,4.34,3.87l65.19,2.91a4.61,4.61,0,0,0,4.8-4.4,4.52,4.52,0,0,0,0-.9l-1.92-12.51a4.61,4.61,0,0,0-4.24-3.9l-65.57-4.54a4.62,4.62,0,0,0-4.91,4.3,4.51,4.51,0,0,0,0,1Z" transform="translate(0 0)" style="fill:#b8c4e0"/><g id="Groupe_9931" data-name="Groupe 9931" style="opacity:0.20000000298023224"><rect id="Rectangle_17299" data-name="Rectangle 17299" x="93.67" y="174.38" width="133.38" height="0.86" transform="translate(-6.59 6.28) rotate(-2.2)" style="fill:#1455d7"/></g><g id="Groupe_9932" data-name="Groupe 9932" style="opacity:0.20000000298023224"><rect id="Rectangle_17300" data-name="Rectangle 17300" x="100.22" y="221.02" width="144.18" height="0.86" transform="translate(-18.36 15.59) rotate(-4.92)" style="fill:#1455d7"/></g><g id="Groupe_9933" data-name="Groupe 9933" style="opacity:0.20000000298023224"><path id="Tracé_21135" data-name="Tracé 21135" d="M115.67,277.75l-.24-.83c1-.29,101.86-28.73,145.65-23.33l-.11.86C217.4,249.09,116.67,277.49,115.67,277.75Z" transform="translate(0 0)" style="fill:#1455d7"/></g><path id="Tracé_21136" data-name="Tracé 21136" d="M105.67,149.49l1,8.59a4.3,4.3,0,0,0,4.36,3.8l7.67-.18a4.3,4.3,0,0,0,4.19-4.4c0-.15,0-.3,0-.45l-1.08-8.12A4.28,4.28,0,0,0,117.7,145l-7.59-.3a4.29,4.29,0,0,0-4.46,4.12A5,5,0,0,0,105.67,149.49Z" transform="translate(0 0)" style="fill:#1d8df5"/><path id="Tracé_21137" data-name="Tracé 21137" d="M111.06,196.4l.92,7.8a4.73,4.73,0,0,0,5.14,4.16l7-.66a4.72,4.72,0,0,0,4.26-5.14,1.1,1.1,0,0,1,0-.18l-1-7.42a4.74,4.74,0,0,0-4.88-4.1l-7,.27a4.74,4.74,0,0,0-4.49,5C111.05,196.21,111.05,196.3,111.06,196.4Z" transform="translate(0 0)" style="fill:#1d8df5"/><path id="Tracé_21138" data-name="Tracé 21138" d="M119.4,244.49a65.31,65.31,0,0,0,5.27,12.7,2.8,2.8,0,0,0,3.18,1.27c2.37-.65,6.37-1.76,9.61-2.69a2.82,2.82,0,0,0,1.94-3.5,1.18,1.18,0,0,0-.07-.2c-1.08-2.93-2.74-7.48-3.78-10.5a2.83,2.83,0,0,0-3-1.89l-10.76,1.14a2.85,2.85,0,0,0-2.5,3.14A3.12,3.12,0,0,0,119.4,244.49Z" transform="translate(0 0)" style="fill:#1455d7;opacity:0.20000000298023224;isolation:isolate"/><path id="Tracé_21139" data-name="Tracé 21139" d="M147.07,318.39a64.93,64.93,0,0,0,7.6,11.46,2.81,2.81,0,0,0,3.37.64c2.2-1.1,5.91-2.95,8.91-4.49a2.84,2.84,0,0,0,1.22-3.83l-.1-.17c-1.62-2.66-4.14-6.81-5.74-9.57a2.82,2.82,0,0,0-3.28-1.28l-10.34,3.19a2.86,2.86,0,0,0-1.64,4.05Z" transform="translate(0 0)" style="fill:#1455d7;opacity:0.20000000298023224;isolation:isolate"/><path id="Tracé_21140" data-name="Tracé 21140" d="M233.67,108.7l2.86,21.61,1,7.75.31,2.3,2.39,18.24,2,15,.65,5L248,217.35c.53,4,1,7.1,1.21,9.08l.31,2.35L232.12,115.17a8.69,8.69,0,0,0-7.92-7.34L66.78,95.6v-.06A6,6,0,0,1,72,88.86a5.7,5.7,0,0,1,1.24,0l155.16,14.9A5.91,5.91,0,0,1,233.67,108.7Z" transform="translate(0 0)" style="fill:#b8c4e0"/><path id="Tracé_21141" data-name="Tracé 21141" d="M203.48,101.23s-.29-13.24-1.72-23.61a4.5,4.5,0,0,1,3.88-5,4.3,4.3,0,0,1,1.34,0c5,.88,11.8,2.15,16.18,3.2a4.46,4.46,0,0,1,3.34,3.47c1.08,5.4,3.18,17.5,1.91,24.48Z" transform="translate(0 0)" style="fill:#1d8df5"/><g id="Groupe_9934" data-name="Groupe 9934" style="opacity:0.20000000298023224"><path id="Tracé_21142" data-name="Tracé 21142" d="M118.59,272.8a5,5,0,0,1-4.72-3.41c-2.33-7.13-6.62-20.64-9.1-31a5.05,5.05,0,0,1,.79-4.06,4.94,4.94,0,0,1,3.56-2l129-12.43a5,5,0,0,1,4.93,2.73l10.49,21a5,5,0,0,1-2.32,6.68,4.85,4.85,0,0,1-2,.5c-16.25.41-61.36,3.36-129.38,21.78A4.64,4.64,0,0,1,118.59,272.8Zm120.08-52.06a2.54,2.54,0,0,0-.39,0l-129,12.39a4.11,4.11,0,0,0-2.94,1.69,4.17,4.17,0,0,0-.65,3.36c2.47,10.32,6.75,23.8,9.09,30.92h0a4.09,4.09,0,0,0,5,2.68c68.09-18.45,113.3-21.4,129.59-21.82a4.1,4.1,0,0,0,4-4.19,4.18,4.18,0,0,0-.44-1.73l-10.48-21A4.11,4.11,0,0,0,238.67,220.74Z" transform="translate(0 0)" style="fill:#1455d7"/></g><g id="Groupe_9935" data-name="Groupe 9935" style="opacity:0.20000000298023224"><path id="Tracé_21143" data-name="Tracé 21143" d="M107,223.16a5.23,5.23,0,0,1-5.15-4.47l-4.79-33.64a5.21,5.21,0,0,1,4.42-5.88,4.57,4.57,0,0,1,.52,0L227.67,174a5.19,5.19,0,0,1,5.37,4.51L236.9,207a5.19,5.19,0,0,1-4.44,5.85l-.29,0L107.42,223.15Zm120.92-48.33h-.24L102,180a4.33,4.33,0,0,0-4.14,4.52,3,3,0,0,0,0,.43l4.8,33.64a4.35,4.35,0,0,0,4.66,3.71L232.07,212a4.33,4.33,0,0,0,4-4.67,2.08,2.08,0,0,0,0-.23l-3.85-28.55a4.31,4.31,0,0,0-4.26-3.76Z" transform="translate(0 0)" style="fill:#1455d7"/></g><g id="Groupe_9936" data-name="Groupe 9936" style="opacity:0.20000000298023224"><path id="Tracé_21144" data-name="Tracé 21144" d="M101.67,174.61a6.12,6.12,0,0,1-6.11-5.41L91.8,138.58a6.15,6.15,0,0,1,5.33-6.87,7,7,0,0,1,1,0l124.15,4.91a6.15,6.15,0,0,1,5.86,5.33l2.92,21.73a6.16,6.16,0,0,1-5.25,7l-.66,0-123.3,4Zm-5.25-5.51a5.28,5.28,0,0,0,5.43,4.65l123.31-4a5.3,5.3,0,0,0,5.12-5.47c0-.18,0-.35,0-.53L227.32,142a5.3,5.3,0,0,0-5-4.59L98.08,132.49a5.29,5.29,0,0,0-5.51,5.09,6.24,6.24,0,0,0,0,.86Z" transform="translate(0 0)" style="fill:#1455d7"/></g><path id="Tracé_21145" data-name="Tracé 21145" d="M114.26,156.39a.74.74,0,0,1-.52-.22L111,153.1a.7.7,0,0,1,0-1l0,0a.72.72,0,0,1,1,0l2.15,2.37,3.13-5.2a.69.69,0,0,1,.94-.28l.06,0a.7.7,0,0,1,.27.95.13.13,0,0,1,0,.05l-3.6,6a.71.71,0,0,1-.53.33Z" transform="translate(0 0)" style="fill:#fff"/><path id="Tracé_21146" data-name="Tracé 21146" d="M119.53,202.91a.71.71,0,0,1-.52-.23l-2.78-3.06a.7.7,0,0,1,0-1,.69.69,0,0,1,1,0h0l2.14,2.37,3.14-5.2a.68.68,0,0,1,.94-.24h0a.7.7,0,0,1,.27,1l0,0-3.61,6a.72.72,0,0,1-.53.34Z" transform="translate(0 0)" style="fill:#fff"/><path id="Tracé_21147" data-name="Tracé 21147" d="M160.25,322.49a1.84,1.84,0,0,1-.41-.05l-4-.93a1.84,1.84,0,0,1,.82-3.58l4,.94a1.83,1.83,0,0,1-.41,3.62Z" transform="translate(0 0)" style="fill:#fff"/><path id="Tracé_21148" data-name="Tracé 21148" d="M152.35,320.49a2,2,0,0,1-.47-.06l-.68-.18a1.83,1.83,0,0,1,.93-3.54l.68.17a1.83,1.83,0,0,1-.46,3.61Z" transform="translate(0 0)" style="fill:#fff"/><path id="Tracé_21149" data-name="Tracé 21149" d="M162.13,322.33l.62-2.29,1.26,1.78Z" transform="translate(0 0)" style="fill:#fff"/><path id="Tracé_21150" data-name="Tracé 21150" d="M269.22,331.91l-1.15,1C214,345.75,165.07,377,165.07,377c-35-18.7-63.66-82.71-75.71-121.83l-3.12-22.13C95.81,241.37,188.37,319.58,269.22,331.91Z" transform="translate(0 0)" style="opacity:0.20000000298023224;isolation:isolate;fill:url(#Dégradé_sans_nom_7)"/><path id="Tracé_21151" data-name="Tracé 21151" d="M46.88,217.91l84.84-2.66a8.07,8.07,0,0,1,8.5,7.11L156,272c.53,4.41-12.55,7.63-16.95,8.19L46.15,292a8.08,8.08,0,0,1-9-6.77l-8.57-54.87C31.51,220.63,39.52,218,46.88,217.91Z" transform="translate(0 0)" style="fill:#dfe4f4"/><path id="Tracé_21152" data-name="Tracé 21152" d="M46.88,217.91l95.65-5.74a8.07,8.07,0,0,1,8.51,7.11l5.81,48.83a8.08,8.08,0,0,1-7,9L57,288.87a8.1,8.1,0,0,1-9-6.77l-8.57-54.87A8.11,8.11,0,0,1,46.13,218c.25,0,.5-.06.75-.08Z" transform="translate(0 0)" style="fill:#b8c4e0"/><path id="Tracé_21153" data-name="Tracé 21153" d="M47.37,216.49s1.61,7.06,5.41,28.82l97.23-8.2s-2.13-25.41-7.84-26.21Z" transform="translate(0 0)" style="fill:#b8c4e0"/><path id="Tracé_21154" data-name="Tracé 21154" d="M52.77,245.33l-2.9.7L45.28,218.1l-2.44.52,4.53-2.13S51.84,236.13,52.77,245.33Z" transform="translate(0 0)" style="fill:#dfe4f4"/><path id="Tracé_21155" data-name="Tracé 21155" d="M61.13,217.85a2.59,2.59,0,0,1-2.58-2.4,11.32,11.32,0,0,1,10.5-12.07h.06l30.27-1.89a11.31,11.31,0,0,1,11.77,9l.28,1.39a2.59,2.59,0,0,1-5.07,1l-.28-1.39a6.14,6.14,0,0,0-6.38-4.9l-30.27,1.87a6.13,6.13,0,0,0-5.77,6.47.76.76,0,0,1,0,.15,2.59,2.59,0,0,1-2.4,2.76Z" transform="translate(0 0)" style="fill:#dfe4f4"/><path id="Tracé_21156" data-name="Tracé 21156" d="M150,237.13l-1.67.73L49.88,246l2.89-.7Z" transform="translate(0 0)" style="fill:#dfe4f4"/><path id="Tracé_21157" data-name="Tracé 21157" d="M96.06,238.7l1.32,10,15.5-1.9.27-.46-1.92-8.87-14.38.4Z" transform="translate(0 0)" style="fill:#b8c4e0"/><path id="Tracé_21158" data-name="Tracé 21158" d="M96.85,237.9l1.67,10,14.63-1.53L112,236.7Z" transform="translate(0 0)" style="fill:#dfe4f4"/><path id="Tracé_21159" data-name="Tracé 21159" d="M97.41,238.22l14.38-1.15s.34,3.35-6,3.69C99.9,241.08,97.41,238.22,97.41,238.22Z" transform="translate(0 0)" style="opacity:0.5;isolation:isolate;fill:url(#Dégradé_sans_nom_8)"/><path id="Tracé_21160" data-name="Tracé 21160" d="M238.94,314.92h0A1.54,1.54,0,0,1,238,313h0l2-5.55a1.54,1.54,0,0,1,1.95-.92h0a1.55,1.55,0,0,1,.94,2v0l-2,5.55a1.53,1.53,0,0,1-2,.87Z" transform="translate(0 0)" style="fill:#1d84f4"/><rect id="Rectangle_17301" data-name="Rectangle 17301" x="213.09" y="200.12" width="127.07" height="20.47" rx="9.14" ry="9.14" transform="translate(-15.62 398.4) rotate(-70.01)" style="fill:#1d84f4"/><path id="Tracé_21161" data-name="Tracé 21161" d="M235.53,294.22S234,305.22,240,312a23,23,0,0,0,14.45-10.84Z" transform="translate(0 0)" style="fill:#1d84f4"/><path id="Tracé_21162" data-name="Tracé 21162" d="M257.32,301.49a31.13,31.13,0,0,1-4.3.33,25.43,25.43,0,0,1-8.74-1.33l-.16-.06c-5.89-2.17-10.59-7.67-10.59-7.67a142,142,0,0,0,13.69-45.27l5.81-.63c1.34,3,7.63,5.9,8.42,6.24s7.46,2.07,10.43.63l4.06,4.21A141.61,141.61,0,0,0,257.32,301.49Z" transform="translate(0 0)" style="fill:#1c83f4"/><path id="Tracé_21163" data-name="Tracé 21163" d="M301.19,153.49c-.24.64-2,.59-3.84-.09s-3.23-1.76-3-2.39,1.95-.6,3.84.09S301.41,152.86,301.19,153.49Z" transform="translate(0 0)" style="fill:#1d84f4"/><path id="Tracé_21164" data-name="Tracé 21164" d="M276,257.91c-15.85,2.32-28.73-10.42-28.73-10.42l5.81-.63c1.34,3,7.63,5.9,8.42,6.24s7.46,2.07,10.43.63Z" transform="translate(0 0)" style="fill:#1d84f4;opacity:0.5799999833106995;isolation:isolate"/><path id="Tracé_21165" data-name="Tracé 21165" d="M286.41,154.66l-31.13,92.73a16.66,16.66,0,0,0,6.43,4l34.64-91.95S288,157,286.41,154.66Z" transform="translate(0 0)" style="fill:#1d84f4;opacity:0.17000000178813934;isolation:isolate"/><path id="Tracé_21166" data-name="Tracé 21166" d="M287.07,154.37s2.74-3.16,5.94-3.46c0,0,.74,1.45,4.43,3.15a23.8,23.8,0,0,1-.85,4.74A24.45,24.45,0,0,1,287.07,154.37Z" transform="translate(0 0)" style="fill:#1d84f4;opacity:0.3100000023841858;isolation:isolate"/></g></g><g id="Groupe_9937" data-name="Groupe 9937"><g id="Tracé_84" data-name="Tracé 84"><path d="M23.6,69.15a6.29,6.29,0,1,1-6.29-6.29h0A6.29,6.29,0,0,1,23.6,69.15Z" transform="translate(0 0)" style="fill:none"/><path d="M17.31,62.86a6.29,6.29,0,1,0,6.29,6.29,6.29,6.29,0,0,0-6.29-6.29m0-2A8.29,8.29,0,1,1,9,69.15,8.3,8.3,0,0,1,17.31,60.86Z" transform="translate(0 0)" style="fill:#fff"/></g><g id="Tracé_85" data-name="Tracé 85"><path d="M260.08,150.28a6.29,6.29,0,1,1-6.29-6.29,6.29,6.29,0,0,1,6.29,6.29Z" transform="translate(0 0)" style="fill:none"/><path d="M253.79,144a6.29,6.29,0,1,0,6.29,6.29,6.29,6.29,0,0,0-6.29-6.29m0-2a8.29,8.29,0,1,1-8.29,8.29A8.3,8.3,0,0,1,253.79,142Z" transform="translate(0 0)" style="fill:#fff"/></g><circle id="Ellipse_6" data-name="Ellipse 6" cx="3.14" cy="86.15" r="3.14" style="fill:#fff"/><circle id="Ellipse_7" data-name="Ellipse 7" cx="246.18" cy="172.12" r="3.14" style="fill:#fff"/><g id="Groupe_34" data-name="Groupe 34"><g id="Groupe_30" data-name="Groupe 30"><line id="Ligne_8" data-name="Ligne 8" x1="43.37" y1="1" x2="43.37" y2="8.3" style="fill:none;stroke:#fff;stroke-linecap:round;stroke-miterlimit:10;stroke-width:2px"/><line id="Ligne_9" data-name="Ligne 9" x1="43.37" y1="20.92" x2="43.37" y2="28.22" style="fill:none;stroke:#fff;stroke-linecap:round;stroke-miterlimit:10;stroke-width:2px"/></g><g id="Groupe_31" data-name="Groupe 31"><line id="Ligne_10" data-name="Ligne 10" x1="56.97" y1="14.61" x2="49.68" y2="14.61" style="fill:none;stroke:#fff;stroke-linecap:round;stroke-miterlimit:10;stroke-width:2px"/><line id="Ligne_11" data-name="Ligne 11" x1="37.06" y1="14.61" x2="29.76" y2="14.61" style="fill:none;stroke:#fff;stroke-linecap:round;stroke-miterlimit:10;stroke-width:2px"/></g><g id="Groupe_32" data-name="Groupe 32"><line id="Ligne_12" data-name="Ligne 12" x1="33.74" y1="4.99" x2="38.9" y2="10.15" style="fill:none;stroke:#fff;stroke-linecap:round;stroke-miterlimit:10;stroke-width:2px"/><line id="Ligne_13" data-name="Ligne 13" x1="47.83" y1="19.07" x2="52.99" y2="24.23" style="fill:none;stroke:#fff;stroke-linecap:round;stroke-miterlimit:10;stroke-width:2px"/></g><g id="Groupe_33" data-name="Groupe 33"><line id="Ligne_14" data-name="Ligne 14" x1="52.99" y1="4.99" x2="47.83" y2="10.15" style="fill:none;stroke:#fff;stroke-linecap:round;stroke-miterlimit:10;stroke-width:2px"/><line id="Ligne_15" data-name="Ligne 15" x1="38.9" y1="19.07" x2="33.74" y2="24.23" style="fill:none;stroke:#fff;stroke-linecap:round;stroke-miterlimit:10;stroke-width:2px"/></g></g><g id="Groupe_39" data-name="Groupe 39"><g id="Groupe_35" data-name="Groupe 35"><line id="Ligne_16" data-name="Ligne 16" x1="24.86" y1="92.91" x2="24.86" y2="95.54" style="fill:none;stroke:#fff;stroke-linecap:round;stroke-miterlimit:10;stroke-width:2px"/><line id="Ligne_17" data-name="Ligne 17" x1="24.86" y1="100.09" x2="24.86" y2="102.72" style="fill:none;stroke:#fff;stroke-linecap:round;stroke-miterlimit:10;stroke-width:2px"/></g><g id="Groupe_36" data-name="Groupe 36"><line id="Ligne_18" data-name="Ligne 18" x1="29.76" y1="97.81" x2="27.13" y2="97.81" style="fill:none;stroke:#fff;stroke-linecap:round;stroke-miterlimit:10;stroke-width:2px"/><line id="Ligne_19" data-name="Ligne 19" x1="22.58" y1="97.81" x2="19.95" y2="97.81" style="fill:none;stroke:#fff;stroke-linecap:round;stroke-miterlimit:10;stroke-width:2px"/></g><g id="Groupe_37" data-name="Groupe 37"><line id="Ligne_20" data-name="Ligne 20" x1="21.39" y1="94.35" x2="23.25" y2="96.21" style="fill:none;stroke:#fff;stroke-linecap:round;stroke-miterlimit:10;stroke-width:2px"/><line id="Ligne_21" data-name="Ligne 21" x1="26.46" y1="99.42" x2="28.32" y2="101.28" style="fill:none;stroke:#fff;stroke-linecap:round;stroke-miterlimit:10;stroke-width:2px"/></g><g id="Groupe_38" data-name="Groupe 38"><line id="Ligne_22" data-name="Ligne 22" x1="28.32" y1="94.35" x2="26.46" y2="96.21" style="fill:none;stroke:#fff;stroke-linecap:round;stroke-miterlimit:10;stroke-width:2px"/><line id="Ligne_23" data-name="Ligne 23" x1="23.25" y1="99.42" x2="21.39" y2="101.28" style="fill:none;stroke:#fff;stroke-linecap:round;stroke-miterlimit:10;stroke-width:2px"/></g></g></g></g></svg>