<svg id="Calque_1" data-name="Calque 1" xmlns="http://www.w3.org/2000/svg" xmlns:xlink="http://www.w3.org/1999/xlink" viewBox="0 0 342.34 281.92"><defs><radialGradient id="Dégradé_sans_nom" cx="4469.09" cy="5747.44" r="22.43" gradientTransform="matrix(0.41, 0.41, 0.41, -0.41, -5341.33, 1023.79)" gradientUnits="userSpaceOnUse"><stop offset="0.01" stop-color="#2c35a2"/><stop offset="0.16" stop-color="#252c88"/><stop offset="0.4" stop-color="#1b2167"/><stop offset="0.62" stop-color="#15194f"/><stop offset="0.83" stop-color="#101540"/><stop offset="1" stop-color="#0f133b"/></radialGradient></defs><title>onboarding4</title><g id="Groupe_9939" data-name="Groupe 9939"><g id="_3" data-name=" 3"><path id="Tracé_21167" data-name="Tracé 21167" d="M109.93,279.57,1.75,217.13c-2.58-1.49-2.25-4.09.72-5.81L222.36,84.37c3-1.72,7.48-1.91,10.06-.42l108.14,62.44c2.58,1.49,2.26,4.09-.72,5.81l-219.91,127C116.93,280.87,112.47,281.05,109.93,279.57Z" transform="translate(0 0)" style="fill:#bcbcbc;opacity:0.6000000238418579;isolation:isolate"/><path id="Tracé_21168" data-name="Tracé 21168" d="M342.3,123.54l-5.51,3.32L232.42,66.6c-2.58-1.49-7.08-1.31-10.06.41L5.93,192,0,189.35v8.06H0a3,3,0,0,0,1.73,2.39l108.19,62.41c2.58,1.49,7.08,1.3,10.06-.42l219.89-127c1.67-1,2.51-2.21,2.46-3.38h0Z" transform="translate(0 0)" style="fill:#b8c4e0"/><path id="Tracé_21169" data-name="Tracé 21169" d="M5.93,192,0,189.35v8.06H0a3,3,0,0,0,1.73,2.39l.23.13a2.48,2.48,0,0,1-.52-1.35h0v-8.06l5.92,2.65,8.36-4.83c-.38-.45-.78-.89-1.18-1.32Z" transform="translate(0 0)" style="fill:#f3f6fe"/><path id="Tracé_21170" data-name="Tracé 21170" d="M336.79,126.86,285.56,97.28l-1.55,1L335.39,128l5.52-3.31v7.91h0a3.14,3.14,0,0,1-1,2.22c1.6-1,2.4-2.17,2.35-3.31h0v-7.92Z" transform="translate(0 0)" style="fill:#6ee8fc"/><path id="Tracé_21171" data-name="Tracé 21171" d="M109.93,254.23,1.75,191.79c-2.58-1.49-2.25-4.08.72-5.8L222.36,59c3-1.71,7.48-1.9,10.06-.41L340.56,121c2.58,1.49,2.26,4.09-.72,5.81l-219.91,127C116.93,255.53,112.47,255.72,109.93,254.23Z" transform="translate(0 0)" style="fill:#b8c4e0"/><path id="Tracé_21172" data-name="Tracé 21172" d="M111.39,254.23,3.25,191.79C.67,190.3,1,187.71,4,186L223.86,59a11.27,11.27,0,0,1,5-1.39A11.86,11.86,0,0,0,222.38,59L2.47,186c-3,1.72-3.3,4.31-.72,5.8l108.18,62.43a9.56,9.56,0,0,0,5.07,1,8.45,8.45,0,0,1-3.61-1Z" transform="translate(0 0)" style="fill:#f3f6fe"/><path id="Tracé_21173" data-name="Tracé 21173" d="M340.56,121.05,232.42,58.62a9.28,9.28,0,0,0-5.07-1,8.35,8.35,0,0,1,3.62,1l108.15,62.43c2.57,1.49,2.25,4.09-.73,5.81l-219.89,127a11.55,11.55,0,0,1-5,1.4,11.91,11.91,0,0,0,6.44-1.4l219.9-127C342.82,125.14,343.14,122.54,340.56,121.05Z" transform="translate(0 0)" style="fill:#f3f6fe"/><path id="Tracé_21174" data-name="Tracé 21174" d="M122.23,250.39,8.4,184.67,218.76,63.22l113.82,65.72Z" transform="translate(0 0)" style="fill:#dfe4f4"/><path id="Tracé_21175" data-name="Tracé 21175" d="M133.85,227.85,47.45,178,207.13,85.77l86.41,49.88Z" transform="translate(0 0)" style="fill:#f3f6fe"/><path id="Tracé_21176" data-name="Tracé 21176" d="M286.25,97.06,273.93,90c-.46-.27-.4-.74.13-1h0a2,2,0,0,1,1.81-.07L288.14,96c.47.27.41.74-.13,1h0a2,2,0,0,1-1.76,0Z" transform="translate(0 0)" style="fill:url(#Dégradé_sans_nom)"/><path id="Tracé_21177" data-name="Tracé 21177" d="M103.93,106.48s5.28-58.31,16.59-51.76,5.84,40.37,17.58,47.14c11.54,6.67,5.25-96.56,22.69-86.5,12.51,7.23,8.51,85.63,19.68,92.08,12.54,7.24,8.95-22.29,20.06-21,6.38.77,9.73,20,18.77,24.28s4.74-78.76,19-70.5C252.83,48.58,257,194.9,257,194.9Z" transform="translate(0 0)" style="fill:#1d8df5;opacity:0.800000011920929;isolation:isolate"/><path id="Tracé_21178" data-name="Tracé 21178" d="M121,54.17a2.41,2.41,0,1,1-2.42-2.4h0A2.41,2.41,0,0,1,121,54.17Z" transform="translate(0 0)" style="fill:#fff"/><path id="Tracé_21179" data-name="Tracé 21179" d="M160.93,14.67a2.41,2.41,0,1,1-2.42-2.4h0A2.41,2.41,0,0,1,160.93,14.67Z" transform="translate(0 0)" style="fill:#fff"/><path id="Tracé_21180" data-name="Tracé 21180" d="M202.63,86.3a2.41,2.41,0,1,1-.7-1.7A2.4,2.4,0,0,1,202.63,86.3Z" transform="translate(0 0)" style="fill:#fff"/><path id="Tracé_21181" data-name="Tracé 21181" d="M238.93,39.44a2.39,2.39,0,1,1-2.38-2.4,2.37,2.37,0,0,1,1.68.7A2.4,2.4,0,0,1,238.93,39.44Z" transform="translate(0 0)" style="fill:#fff"/><path id="Tracé_21182" data-name="Tracé 21182" d="M68.84,123.81s3.94-57.93,12.38-53,4.36,38.81,13.12,43.86,3.92-84.08,16.93-76.57c9.34,5.4,6.36,35.2,14.69,40,9.36,5.41,7.74-9.41,15-5.23s7.26,23,14,26.06,3.54-64.46,14.21-58.29S183.1,189.87,183.1,189.87Z" transform="translate(0 0)" style="fill:#e96fcc;opacity:0.800000011920929;isolation:isolate"/><path id="Tracé_21183" data-name="Tracé 21183" d="M82.93,70.52a2.41,2.41,0,1,1-2.42-2.4h0A2.41,2.41,0,0,1,82.93,70.52Z" transform="translate(0 0)" style="fill:#fff"/><path id="Tracé_21184" data-name="Tracé 21184" d="M112.26,37.62a2.4,2.4,0,1,1-2.4-2.4h0A2.39,2.39,0,0,1,112.26,37.62Z" transform="translate(0 0)" style="fill:#fff"/><path id="Tracé_21185" data-name="Tracé 21185" d="M141,72.24a2.41,2.41,0,1,1-2.42-2.4h0A2.41,2.41,0,0,1,141,72.24Z" transform="translate(0 0)" style="fill:#fff"/><path id="Tracé_21186" data-name="Tracé 21186" d="M170.12,40.41a2.41,2.41,0,1,1-.7-1.7A2.4,2.4,0,0,1,170.12,40.41Z" transform="translate(0 0)" style="fill:#fff"/><path id="Tracé_21187" data-name="Tracé 21187" d="M115.28,194.31l-17.3-10,6-3.5,17.29,10Z" transform="translate(0 0)" style="fill:#1d8df5;opacity:0.800000011920929;isolation:isolate"/><path id="Tracé_21188" data-name="Tracé 21188" d="M126.05,188.18l-17.29-10,6-3.49,17.29,10Z" transform="translate(0 0)" style="fill:#e96fcc;opacity:0.800000011920929;isolation:isolate"/><path id="Tracé_21189" data-name="Tracé 21189" d="M80.53,131.07a.5.5,0,0,1-.5-.5v-60a.5.5,0,0,1,1,0v60A.52.52,0,0,1,80.53,131.07Z" transform="translate(0 0)" style="fill:#fff;opacity:0.4000000059604645;isolation:isolate"/><path id="Tracé_21190" data-name="Tracé 21190" d="M109.86,148a.5.5,0,0,1-.5-.5V37.62a.5.5,0,1,1,1,0v109.9A.5.5,0,0,1,109.86,148Z" transform="translate(0 0)" style="fill:#fff;opacity:0.4000000059604645;isolation:isolate"/><path id="Tracé_21191" data-name="Tracé 21191" d="M138.64,164.66a.5.5,0,0,1-.5-.5V72.24a.5.5,0,0,1,1,0v91.92A.52.52,0,0,1,138.64,164.66Z" transform="translate(0 0)" style="fill:#fff;opacity:0.4000000059604645;isolation:isolate"/><path id="Tracé_21192" data-name="Tracé 21192" d="M167.72,181.34a.5.5,0,0,1-.5-.5V40.62a.5.5,0,0,1,1,0V180.84A.5.5,0,0,1,167.72,181.34Z" transform="translate(0 0)" style="fill:#fff;opacity:0.4000000059604645;isolation:isolate"/><path id="Tracé_21193" data-name="Tracé 21193" d="M45.1,96.11a.5.5,0,0,1-.5-.49.46.46,0,0,1,.21-.41L80.19,70.15l29.3-32.86a.52.52,0,0,1,.38-.17.49.49,0,0,1,.37.18l28.41,34.18,28.7-31.41L201.42.18a.51.51,0,0,1,.71-.06.49.49,0,0,1,.06.69h0L168.1,40.73,139,72.58a.59.59,0,0,1-.38.16.53.53,0,0,1-.38-.18l-28.4-34.17L80.93,70.85l-.08.08L45.39,96a.57.57,0,0,1-.29.11Z" transform="translate(0 0)" style="fill:#fff"/></g><g id="Groupe_9937" data-name="Groupe 9937"><g id="Tracé_84" data-name="Tracé 84"><path d="M27,92.94a6.29,6.29,0,1,1-6.29-6.29h0A6.29,6.29,0,0,1,27,92.94Z" transform="translate(0 0)" style="fill:none"/><path d="M20.73,86.65A6.29,6.29,0,1,0,27,92.94a6.29,6.29,0,0,0-6.29-6.29m0-2a8.29,8.29,0,1,1-8.29,8.29A8.3,8.3,0,0,1,20.73,84.65Z" transform="translate(0 0)" style="fill:#fff"/></g><g id="Tracé_85" data-name="Tracé 85"><path d="M288.51,186.07a6.29,6.29,0,1,1-6.29-6.29,6.29,6.29,0,0,1,6.29,6.29Z" transform="translate(0 0)" style="fill:none"/><path d="M282.22,179.78a6.29,6.29,0,1,0,6.29,6.29,6.28,6.28,0,0,0-6.29-6.29m0-2a8.29,8.29,0,1,1-8.29,8.29A8.3,8.3,0,0,1,282.22,177.78Z" transform="translate(0 0)" style="fill:#fff"/></g><circle id="Ellipse_6" data-name="Ellipse 6" cx="6.57" cy="109.94" r="3.14" style="fill:#fff"/><circle id="Ellipse_7" data-name="Ellipse 7" cx="249.61" cy="195.9" r="3.14" style="fill:#fff"/><g id="Groupe_34" data-name="Groupe 34"><g id="Groupe_30" data-name="Groupe 30"><line id="Ligne_8" data-name="Ligne 8" x1="46.79" y1="24.79" x2="46.79" y2="32.09" style="fill:none;stroke:#fff;stroke-linecap:round;stroke-miterlimit:10;stroke-width:2px"/><line id="Ligne_9" data-name="Ligne 9" x1="46.79" y1="44.71" x2="46.79" y2="52.01" style="fill:none;stroke:#fff;stroke-linecap:round;stroke-miterlimit:10;stroke-width:2px"/></g><g id="Groupe_31" data-name="Groupe 31"><line id="Ligne_10" data-name="Ligne 10" x1="60.4" y1="38.4" x2="53.1" y2="38.4" style="fill:none;stroke:#fff;stroke-linecap:round;stroke-miterlimit:10;stroke-width:2px"/><line id="Ligne_11" data-name="Ligne 11" x1="40.48" y1="38.4" x2="33.18" y2="38.4" style="fill:none;stroke:#fff;stroke-linecap:round;stroke-miterlimit:10;stroke-width:2px"/></g><g id="Groupe_32" data-name="Groupe 32"><line id="Ligne_12" data-name="Ligne 12" x1="37.17" y1="28.78" x2="42.33" y2="33.94" style="fill:none;stroke:#fff;stroke-linecap:round;stroke-miterlimit:10;stroke-width:2px"/><line id="Ligne_13" data-name="Ligne 13" x1="51.25" y1="42.86" x2="56.41" y2="48.02" style="fill:none;stroke:#fff;stroke-linecap:round;stroke-miterlimit:10;stroke-width:2px"/></g><g id="Groupe_33" data-name="Groupe 33"><line id="Ligne_14" data-name="Ligne 14" x1="56.41" y1="28.78" x2="51.25" y2="33.94" style="fill:none;stroke:#fff;stroke-linecap:round;stroke-miterlimit:10;stroke-width:2px"/><line id="Ligne_15" data-name="Ligne 15" x1="42.33" y1="42.86" x2="37.17" y2="48.02" style="fill:none;stroke:#fff;stroke-linecap:round;stroke-miterlimit:10;stroke-width:2px"/></g></g><g id="Groupe_39" data-name="Groupe 39"><g id="Groupe_35" data-name="Groupe 35"><line id="Ligne_16" data-name="Ligne 16" x1="28.28" y1="116.7" x2="28.28" y2="119.33" style="fill:none;stroke:#fff;stroke-linecap:round;stroke-miterlimit:10;stroke-width:2px"/><line id="Ligne_17" data-name="Ligne 17" x1="28.28" y1="123.88" x2="28.28" y2="126.51" style="fill:none;stroke:#fff;stroke-linecap:round;stroke-miterlimit:10;stroke-width:2px"/></g><g id="Groupe_36" data-name="Groupe 36"><line id="Ligne_18" data-name="Ligne 18" x1="33.18" y1="121.6" x2="30.55" y2="121.6" style="fill:none;stroke:#fff;stroke-linecap:round;stroke-miterlimit:10;stroke-width:2px"/><line id="Ligne_19" data-name="Ligne 19" x1="26.01" y1="121.6" x2="23.38" y2="121.6" style="fill:none;stroke:#fff;stroke-linecap:round;stroke-miterlimit:10;stroke-width:2px"/></g><g id="Groupe_37" data-name="Groupe 37"><line id="Ligne_20" data-name="Ligne 20" x1="24.81" y1="118.14" x2="26.67" y2="120" style="fill:none;stroke:#fff;stroke-linecap:round;stroke-miterlimit:10;stroke-width:2px"/><line id="Ligne_21" data-name="Ligne 21" x1="29.89" y1="123.21" x2="31.75" y2="125.07" style="fill:none;stroke:#fff;stroke-linecap:round;stroke-miterlimit:10;stroke-width:2px"/></g><g id="Groupe_38" data-name="Groupe 38"><line id="Ligne_22" data-name="Ligne 22" x1="31.75" y1="118.14" x2="29.89" y2="120" style="fill:none;stroke:#fff;stroke-linecap:round;stroke-miterlimit:10;stroke-width:2px"/><line id="Ligne_23" data-name="Ligne 23" x1="26.67" y1="123.21" x2="24.81" y2="125.07" style="fill:none;stroke:#fff;stroke-linecap:round;stroke-miterlimit:10;stroke-width:2px"/></g></g><g id="Groupe_44" data-name="Groupe 44"><g id="Groupe_40" data-name="Groupe 40"><line id="Ligne_24" data-name="Ligne 24" x1="117.6" y1="271.12" x2="117.6" y2="273.75" style="fill:none;stroke:#fff;stroke-linecap:round;stroke-miterlimit:10;stroke-width:2px"/><line id="Ligne_25" data-name="Ligne 25" x1="117.6" y1="278.29" x2="117.6" y2="280.92" style="fill:none;stroke:#fff;stroke-linecap:round;stroke-miterlimit:10;stroke-width:2px"/></g><g id="Groupe_41" data-name="Groupe 41"><line id="Ligne_26" data-name="Ligne 26" x1="122.5" y1="276.02" x2="119.88" y2="276.02" style="fill:none;stroke:#fff;stroke-linecap:round;stroke-miterlimit:10;stroke-width:2px"/><line id="Ligne_27" data-name="Ligne 27" x1="115.33" y1="276.02" x2="112.7" y2="276.02" style="fill:none;stroke:#fff;stroke-linecap:round;stroke-miterlimit:10;stroke-width:2px"/></g><g id="Groupe_42" data-name="Groupe 42"><line id="Ligne_28" data-name="Ligne 28" x1="114.14" y1="272.55" x2="116" y2="274.41" style="fill:none;stroke:#fff;stroke-linecap:round;stroke-miterlimit:10;stroke-width:2px"/><line id="Ligne_29" data-name="Ligne 29" x1="119.21" y1="277.63" x2="121.07" y2="279.48" style="fill:none;stroke:#fff;stroke-linecap:round;stroke-miterlimit:10;stroke-width:2px"/></g><g id="Groupe_43" data-name="Groupe 43"><line id="Ligne_30" data-name="Ligne 30" x1="121.07" y1="272.55" x2="119.21" y2="274.41" style="fill:none;stroke:#fff;stroke-linecap:round;stroke-miterlimit:10;stroke-width:2px"/><line id="Ligne_31" data-name="Ligne 31" x1="116" y1="277.63" x2="114.14" y2="279.48" style="fill:none;stroke:#fff;stroke-linecap:round;stroke-miterlimit:10;stroke-width:2px"/></g></g></g></g></svg>