<svg xmlns="http://www.w3.org/2000/svg" width="39" height="35.668" viewBox="0 0 39 35.668"><defs><style>.a{fill:#9f9f9f;}.b{fill:#23b8f2;}.c{fill:#1d78f2;}</style></defs><g transform="translate(0 -21.874)"><g transform="translate(0 26.209)"><path class="a" d="M21.376,79.927a1.146,1.146,0,0,1-1.146,1.146H1.146a1.146,1.146,0,0,1,0-2.292H20.23A1.146,1.146,0,0,1,21.376,79.927Z" transform="translate(0 -78.781)"/><path class="a" d="M23.645,143.744A1.146,1.146,0,0,1,22.5,144.89H1.146a1.146,1.146,0,1,1,0-2.292H22.5A1.146,1.146,0,0,1,23.645,143.744Z" transform="translate(0 -137.737)"/><path class="a" d="M20.45,206.819a1.146,1.146,0,0,1-1.146,1.146H1.146a1.146,1.146,0,0,1,0-2.292H19.3A1.145,1.145,0,0,1,20.45,206.819Z" transform="translate(0 -196.007)"/><path class="a" d="M23.015,270.736a1.146,1.146,0,0,1-1.146,1.146H1.146a1.146,1.146,0,1,1,0-2.292H21.869A1.146,1.146,0,0,1,23.015,270.736Z" transform="translate(0 -255.056)"/><path class="a" d="M15.681,333.811a1.146,1.146,0,0,1-1.146,1.146H1.146a1.146,1.146,0,0,1,0-2.292H14.535A1.145,1.145,0,0,1,15.681,333.811Z" transform="translate(0 -313.326)"/><path class="a" d="M17.9,397.868a1.145,1.145,0,0,1-1.146,1.146H1.146a1.146,1.146,0,0,1,0-2.292h15.6A1.146,1.146,0,0,1,17.9,397.868Z" transform="translate(0 -372.504)"/></g><path class="b" d="M280.271,47.975a3.75,3.75,0,0,1-1.105,2.669l-5.639,5.639a1.143,1.143,0,0,1-.128.154,3.755,3.755,0,0,1-2.417,1.094c-.081.006-.163.011-.246.011H270.7a3.747,3.747,0,0,1-2.668-1.105,1.161,1.161,0,0,1-.128-.154l-5.639-5.64a3.773,3.773,0,0,1,4.693-5.852V25.647a3.773,3.773,0,0,1,7.546,0v19.12a3.774,3.774,0,0,1,5.762,3.208Z" transform="translate(-241.271)"/><path class="c" d="M396.358,47.975a3.75,3.75,0,0,1-1.105,2.669l-5.639,5.639a1.136,1.136,0,0,1-.128.154,3.755,3.755,0,0,1-2.417,1.094c-.081.006-.163.011-.246.011V21.874a3.777,3.777,0,0,1,3.773,3.773v19.12a3.774,3.774,0,0,1,5.762,3.208Z" transform="translate(-357.358 0)"/></g></svg>