<svg id="Calque_1" data-name="Calque 1" xmlns="http://www.w3.org/2000/svg" xmlns:xlink="http://www.w3.org/1999/xlink" viewBox="0 0 300.91 347.41"><defs><radialGradient id="Dégradé_sans_nom" cx="7731.69" cy="-14424.3" r="153.46" gradientTransform="matrix(0.42, 0, 0, -0.17, -3049.53, -2174.55)" gradientUnits="userSpaceOnUse"><stop offset="0.19" stop-color="#5f5c5d"/><stop offset="1" stop-color="#fff"/></radialGradient><radialGradient id="Dégradé_sans_nom_2" cx="-5349.75" cy="3308.89" r="0.5" gradientTransform="matrix(48.88, 0, 0, -24.62, 261499.72, 81633.65)" gradientUnits="userSpaceOnUse"><stop offset="0" stop-color="#1da2f7"/><stop offset="1" stop-color="#1d62f1"/></radialGradient><radialGradient id="Dégradé_sans_nom_3" cx="-5335.8" cy="3323.67" r="0.5" gradientTransform="matrix(43.45, 0, 0, -27.92, 231874.56, 92940.1)" xlink:href="#Dégradé_sans_nom_2"/><radialGradient id="Dégradé_sans_nom_4" cx="-5343.86" cy="3275.88" r="0.5" gradientTransform="matrix(46.43, 0, 0, -19.49, 248147.47, 64014.27)" xlink:href="#Dégradé_sans_nom_2"/><radialGradient id="Dégradé_sans_nom_5" cx="-5343.86" cy="3275.88" r="0.5" gradientTransform="matrix(46.43, 0, 0, -19.49, 248148.2, 64014.37)" xlink:href="#Dégradé_sans_nom_2"/><radialGradient id="Dégradé_sans_nom_6" cx="-5364" cy="3236.27" r="0.5" gradientTransform="matrix(56.02, 0, 0, -15.59, 300608.71, 50635.4)" xlink:href="#Dégradé_sans_nom_2"/></defs><title>onboarding2</title><g id="Groupe_9963" data-name="Groupe 9963"><g id="_2" data-name=" 2"><ellipse id="Ellipse_407" data-name="Ellipse 407" cx="166.85" cy="320.86" rx="63.83" ry="26.55" style="fill:url(#Dégradé_sans_nom)"/><g id="Groupe_9945" data-name="Groupe 9945"><g id="Groupe_9944" data-name="Groupe 9944"><path id="Tracé_21216" data-name="Tracé 21216" d="M198,310.33c-19.79,19.8-40.65,26.94-58.51,22.69-.58-.1-8.4-2-8.88-2.12-18.06-5.12,4-12.36-3.38-40.07-15-55.72,5.79-133.74,46.34-174.29,20.09-20.08,1.64-38.72,19.7-34.09.49.1,10.91,3.87,11.4,4.06C222.4,91.82,237,108.72,244.32,136,259.19,191.76,238.53,269.78,198,310.33Z" transform="translate(-0.03 0)" style="fill:#b8c4e0"/><path id="Tracé_21217" data-name="Tracé 21217" d="M237.86,134.31c-7.15-26.75-21.25-43.45-38.34-49.15,13.62,7.72,24.62,23.17,30.71,45.77,15,55.71-5.8,133.73-46.35,174.28-21.15,21.15-43.36,27.81-62,21.63,20,11.2,45.57,5.8,69.71-18.25C232.06,268,252.82,190,237.86,134.31Z" transform="translate(-0.03 0)" style="fill:#b8c4e0"/></g><ellipse id="Ellipse_408" data-name="Ellipse 408" cx="161.44" cy="206.18" rx="127.94" ry="73.87" transform="translate(-78.98 310.05) rotate(-75.31)" style="fill:#b8c4e0"/><ellipse id="Ellipse_409" data-name="Ellipse 409" cx="161.43" cy="206.18" rx="122.05" ry="70.49" transform="translate(-78.98 310.05) rotate(-75.31)" style="fill:#b8c4e0"/><ellipse id="Ellipse_410" data-name="Ellipse 410" cx="161.43" cy="206.18" rx="104.67" ry="60.44" transform="translate(-78.98 310.05) rotate(-75.31)" style="fill:#f3f6fe"/><ellipse id="Ellipse_411" data-name="Ellipse 411" cx="161.43" cy="206.18" rx="87.19" ry="50.31" transform="translate(-78.98 310.05) rotate(-75.31)" style="fill:#b8c4e0"/><ellipse id="Ellipse_412" data-name="Ellipse 412" cx="161.44" cy="206.18" rx="69.81" ry="40.26" transform="translate(-78.98 310.05) rotate(-75.31)" style="fill:#f3f6fe"/><ellipse id="Ellipse_413" data-name="Ellipse 413" cx="161.44" cy="206.18" rx="52.33" ry="30.22" transform="matrix(0.25, -0.97, 0.97, 0.25, -78.98, 310.05)" style="fill:#b8c4e0"/><ellipse id="Ellipse_414" data-name="Ellipse 414" cx="161.43" cy="206.18" rx="34.86" ry="20.18" transform="matrix(0.25, -0.97, 0.97, 0.25, -78.98, 310.05)" style="fill:#f3f6fe"/><path id="Tracé_21218" data-name="Tracé 21218" d="M102.67,265.53c-12.26-45.77,4.83-109.79,38-143a80.39,80.39,0,0,1,16.42-12.85,76.63,76.63,0,0,0-18,13.72c-33.31,33.31-50.3,97.33-38,143,10.23,38.23,37.75,51.56,66,35.43C139.46,316.61,112.72,303.09,102.67,265.53Z" transform="translate(-0.03 0)" style="fill:#f3f6fe"/><path id="Tracé_21219" data-name="Tracé 21219" d="M122.76,245.44c-8.21-30.51,3.18-73.19,25.39-95.3a51.68,51.68,0,0,1,10.43-8.2A49.28,49.28,0,0,0,146.7,151c-22.2,22.21-33.5,64.89-25.39,95.3,6.86,25.78,25.49,34.57,44.51,23.27C147.28,279.53,129.52,270.55,122.76,245.44Z" transform="translate(-0.03 0)" style="fill:#d1d3d4"/><path id="Tracé_21220" data-name="Tracé 21220" d="M142.84,225.36c-4.05-15.26,1.64-36.6,12.65-47.7a23.2,23.2,0,0,1,5-4,25.72,25.72,0,0,0-6.47,4.83c-11.1,11.1-16.8,32.44-12.65,47.7,3.48,12.94,12.94,17.38,22.5,11.49C154.82,242.26,146.13,237.72,142.84,225.36Z" transform="translate(-0.03 0)" style="fill:#d1d3d4"/><ellipse id="Ellipse_415" data-name="Ellipse 415" cx="161.43" cy="206.18" rx="17.48" ry="10.04" transform="translate(-78.98 310.05) rotate(-75.31)" style="fill:#b8c4e0"/><path id="Tracé_21221" data-name="Tracé 21221" d="M231.68,135.85c-5.12-19.21-14.1-33.12-25.2-41.13,10.52,8.11,18.92,21.63,23.85,40.07,14.29,53.3-5.6,128-44.42,166.85-24.82,24.82-51.37,29-71,14.78,19.79,15.35,46.92,11.58,72.32-13.81C226.08,263.89,246,189.25,231.68,135.85Z" transform="translate(-0.03 0)" style="fill:#b8c4e0"/><path id="Tracé_21222" data-name="Tracé 21222" d="M211.59,155.94c-3.67-13.72-10-23.56-18-29.26,7.24,5.79,13.13,15.35,16.61,28.29,10.23,38.14-4,91.44-31.67,119.15-17.77,17.77-36.69,20.67-50.79,10.53,14.19,11.39,33.8,8.78,52-9.47C207.63,247.38,221.83,194.08,211.59,155.94Z" transform="translate(-0.03 0)" style="fill:#b8c4e0"/><path id="Tracé_21223" data-name="Tracé 21223" d="M191.5,176c-2.31-8.5-6.27-14.48-11.2-17.86,4.35,3.47,7.82,9.17,9.85,16.9,6.09,22.88-2.41,54.84-19,71.55C160.7,257,149.5,259,141.1,253.17c8.5,7,20.28,5.41,31.38-5.6C189.19,230.86,197.69,198.9,191.5,176Z" transform="translate(-0.03 0)" style="fill:#f3f6fe"/><path id="Tracé_21224" data-name="Tracé 21224" d="M171.42,196.1c-.87-3.09-2.31-5.11-4.15-6.18a10.31,10.31,0,0,1,2.8,5.22c2,7.63-.77,18.25-6.37,23.85-3.28,3.28-6.86,4-9.56,2.41,2.9,2.7,7.05,2.42,10.91-1.45C170.65,214.35,173.55,203.73,171.42,196.1Z" transform="translate(-0.03 0)" style="fill:#b8c4e0"/></g><g id="Groupe_9952" data-name="Groupe 9952"><g id="Groupe_9951" data-name="Groupe 9951"><path id="Tracé_21237" data-name="Tracé 21237" d="M146.71,199.48l17.38,5.41-18.06-4Z" transform="translate(-0.03 0)" style="fill:#1d8df5"/><path id="Tracé_21238" data-name="Tracé 21238" d="M6,163.37.9,156.61a4.26,4.26,0,0,1,5.5-6.27l42.49,24.23Z" transform="translate(-0.03 0)" style="fill:#1d8df5"/><path id="Tracé_21239" data-name="Tracé 21239" d="M6.89,163l-5.12-6.75a4.36,4.36,0,0,1,.91-6.09,4.17,4.17,0,0,1,.44-.29A4.26,4.26,0,0,0,.3,155.16a4.39,4.39,0,0,0,.7,1.36l5.12,6.75L49,174.47l-1.84-1.06Z" transform="translate(-0.03 0)" style="fill:url(#Dégradé_sans_nom_2)"/><g id="Groupe_9949" data-name="Groupe 9949"><path id="Tracé_21240" data-name="Tracé 21240" d="M148.15,201.41a.7.7,0,0,1-.38.2s-7.63,1.16-20.18-2.13c-17.87-4.73-20.18-6.18-20.18-6.18-.49-.1.1-.29-.1-1.06a5.48,5.48,0,0,1,1.15-4.54c.49-.48,0-1,.49-.87,0,0,2.6,0,20.47,4.83C142,195,148.05,200,148.05,200s.2.1.29.29A1,1,0,0,1,148.15,201.41Z" transform="translate(-0.03 0)" style="fill:#1d8df5"/><ellipse id="Ellipse_416" data-name="Ellipse 416" cx="108.26" cy="190.03" rx="3.28" ry="1.93" transform="translate(-103.05 246.56) rotate(-75.31)" style="fill:#1d8df5"/></g><g id="Groupe_9950" data-name="Groupe 9950"><path id="Tracé_21241" data-name="Tracé 21241" d="M108.56,192.34a1.59,1.59,0,0,1-1.44.58S3.22,165,3.12,165c-.48-.1.1-.29-.1-1a4.87,4.87,0,0,1,1.16-4.35c.49-.48,0-1,.49-.87l104,28c.48.1.77.58,1,1.26A4.65,4.65,0,0,1,108.56,192.34Z" transform="translate(-0.03 0)" style="fill:#b8c4e0"/><path id="Tracé_21242" data-name="Tracé 21242" d="M4.57,164.34a1.39,1.39,0,0,1-1.94.31,1.41,1.41,0,0,1-.57-1,4.85,4.85,0,0,1,1.16-4.35A1.39,1.39,0,0,1,5.16,159a1.43,1.43,0,0,1,.57,1A5,5,0,0,1,4.57,164.34Z" transform="translate(-0.03 0)" style="fill:#b8c4e0"/></g><path id="Tracé_21243" data-name="Tracé 21243" d="M7.18,160.18l43.45,11.68L30.84,148.6a13.14,13.14,0,0,0-23.08,6.85Z" transform="translate(-0.03 0)" style="fill:url(#Dégradé_sans_nom_3)"/><path id="Tracé_21244" data-name="Tracé 21244" d="M7.76,160.57l43.45,11.68L31.42,149a13.15,13.15,0,0,0-23.08,6.86Z" transform="translate(-0.03 0)" style="fill:#1d8df5"/><path id="Tracé_21245" data-name="Tracé 21245" d="M8.63,156.42a13.15,13.15,0,0,1,23.07-6.86l19.22,22.6.38.1L31.51,149a13.15,13.15,0,0,0-23.08,6.85l-.58,4.73.29.1Z" transform="translate(-0.03 0)" style="fill:#1d8df5"/><path id="Tracé_21246" data-name="Tracé 21246" d="M5.73,165.21,4,168.3a11,11,0,0,0,12,16.12l33-7.34Z" transform="translate(-0.03 0)" style="fill:url(#Dégradé_sans_nom_4)"/><path id="Tracé_21247" data-name="Tracé 21247" d="M6.5,165.3l-1.74,3.09a11,11,0,0,0,12,16.13l33-7.34Z" transform="translate(-0.03 0)" style="fill:#1d8df5"/><path id="Tracé_21248" data-name="Tracé 21248" d="M17.42,184.32a11,11,0,0,1-12-16.12L7,165.4l-.49-.1-1.74,3.09a11,11,0,0,0,12,16.13l33-7.34h-.1Z" transform="translate(-0.03 0)" style="fill:url(#Dégradé_sans_nom_5)"/><path id="Tracé_21249" data-name="Tracé 21249" d="M139.46,196.78c-.39,1.64-13.32-.19-28.77-4.15S83.07,184,83.46,182.39s13.32.2,28.77,4.15S139.85,195,139.46,196.78Z" transform="translate(-0.03 0)" style="fill:url(#Dégradé_sans_nom_6)"/></g></g></g><g id="Groupe_9953" data-name="Groupe 9953"><g id="Groupe_9937" data-name="Groupe 9937"><g id="Tracé_84" data-name="Tracé 84"><path d="M62.46,69.15a6.29,6.29,0,1,1-6.29-6.29h0A6.29,6.29,0,0,1,62.46,69.15Z" transform="translate(-0.03 0)" style="fill:none"/><path d="M56.17,62.86a6.29,6.29,0,1,0,6.29,6.29,6.29,6.29,0,0,0-6.29-6.29m0-2a8.29,8.29,0,1,1-8.29,8.29A8.3,8.3,0,0,1,56.17,60.86Z" transform="translate(-0.03 0)" style="fill:#fff"/></g><g id="Tracé_85" data-name="Tracé 85"><path d="M298.94,150.28a6.29,6.29,0,1,1-6.29-6.29,6.29,6.29,0,0,1,6.29,6.29Z" transform="translate(-0.03 0)" style="fill:none"/><path d="M292.65,144a6.29,6.29,0,1,0,6.29,6.29,6.29,6.29,0,0,0-6.29-6.29m0-2a8.29,8.29,0,1,1-8.29,8.29A8.3,8.3,0,0,1,292.65,142Z" transform="translate(-0.03 0)" style="fill:#fff"/></g><circle id="Ellipse_6" data-name="Ellipse 6" cx="41.97" cy="86.15" r="3.14" style="fill:#fff"/><circle id="Ellipse_7" data-name="Ellipse 7" cx="285.01" cy="172.12" r="3.14" style="fill:#fff"/><g id="Groupe_34" data-name="Groupe 34"><g id="Groupe_30" data-name="Groupe 30"><line id="Ligne_8" data-name="Ligne 8" x1="82.19" y1="1" x2="82.19" y2="8.3" style="fill:none;stroke:#fff;stroke-linecap:round;stroke-miterlimit:10;stroke-width:2px"/><line id="Ligne_9" data-name="Ligne 9" x1="82.19" y1="20.92" x2="82.19" y2="28.22" style="fill:none;stroke:#fff;stroke-linecap:round;stroke-miterlimit:10;stroke-width:2px"/></g><g id="Groupe_31" data-name="Groupe 31"><line id="Ligne_10" data-name="Ligne 10" x1="95.8" y1="14.61" x2="88.5" y2="14.61" style="fill:none;stroke:#fff;stroke-linecap:round;stroke-miterlimit:10;stroke-width:2px"/><line id="Ligne_11" data-name="Ligne 11" x1="75.88" y1="14.61" x2="68.58" y2="14.61" style="fill:none;stroke:#fff;stroke-linecap:round;stroke-miterlimit:10;stroke-width:2px"/></g><g id="Groupe_32" data-name="Groupe 32"><line id="Ligne_12" data-name="Ligne 12" x1="72.57" y1="4.99" x2="77.73" y2="10.15" style="fill:none;stroke:#fff;stroke-linecap:round;stroke-miterlimit:10;stroke-width:2px"/><line id="Ligne_13" data-name="Ligne 13" x1="86.65" y1="19.07" x2="91.81" y2="24.23" style="fill:none;stroke:#fff;stroke-linecap:round;stroke-miterlimit:10;stroke-width:2px"/></g><g id="Groupe_33" data-name="Groupe 33"><line id="Ligne_14" data-name="Ligne 14" x1="91.81" y1="4.99" x2="86.65" y2="10.15" style="fill:none;stroke:#fff;stroke-linecap:round;stroke-miterlimit:10;stroke-width:2px"/><line id="Ligne_15" data-name="Ligne 15" x1="77.73" y1="19.07" x2="72.57" y2="24.23" style="fill:none;stroke:#fff;stroke-linecap:round;stroke-miterlimit:10;stroke-width:2px"/></g></g><g id="Groupe_39" data-name="Groupe 39"><g id="Groupe_35" data-name="Groupe 35"><line id="Ligne_16" data-name="Ligne 16" x1="63.68" y1="92.91" x2="63.68" y2="95.54" style="fill:none;stroke:#fff;stroke-linecap:round;stroke-miterlimit:10;stroke-width:2px"/><line id="Ligne_17" data-name="Ligne 17" x1="63.68" y1="100.09" x2="63.68" y2="102.72" style="fill:none;stroke:#fff;stroke-linecap:round;stroke-miterlimit:10;stroke-width:2px"/></g><g id="Groupe_36" data-name="Groupe 36"><line id="Ligne_18" data-name="Ligne 18" x1="68.58" y1="97.81" x2="65.95" y2="97.81" style="fill:none;stroke:#fff;stroke-linecap:round;stroke-miterlimit:10;stroke-width:2px"/><line id="Ligne_19" data-name="Ligne 19" x1="61.41" y1="97.81" x2="58.78" y2="97.81" style="fill:none;stroke:#fff;stroke-linecap:round;stroke-miterlimit:10;stroke-width:2px"/></g><g id="Groupe_37" data-name="Groupe 37"><line id="Ligne_20" data-name="Ligne 20" x1="60.21" y1="94.35" x2="62.07" y2="96.21" style="fill:none;stroke:#fff;stroke-linecap:round;stroke-miterlimit:10;stroke-width:2px"/><line id="Ligne_21" data-name="Ligne 21" x1="65.29" y1="99.42" x2="67.15" y2="101.28" style="fill:none;stroke:#fff;stroke-linecap:round;stroke-miterlimit:10;stroke-width:2px"/></g><g id="Groupe_38" data-name="Groupe 38"><line id="Ligne_22" data-name="Ligne 22" x1="67.15" y1="94.35" x2="65.29" y2="96.21" style="fill:none;stroke:#fff;stroke-linecap:round;stroke-miterlimit:10;stroke-width:2px"/><line id="Ligne_23" data-name="Ligne 23" x1="62.07" y1="99.42" x2="60.21" y2="101.28" style="fill:none;stroke:#fff;stroke-linecap:round;stroke-miterlimit:10;stroke-width:2px"/></g></g><g id="Groupe_44" data-name="Groupe 44"><g id="Groupe_40" data-name="Groupe 40"><line id="Ligne_24" data-name="Ligne 24" x1="153" y1="247.33" x2="153" y2="249.96" style="fill:none;stroke:#fff;stroke-linecap:round;stroke-miterlimit:10;stroke-width:2px"/><line id="Ligne_25" data-name="Ligne 25" x1="153" y1="254.5" x2="153" y2="257.13" style="fill:none;stroke:#fff;stroke-linecap:round;stroke-miterlimit:10;stroke-width:2px"/></g><g id="Groupe_41" data-name="Groupe 41"><line id="Ligne_26" data-name="Ligne 26" x1="157.9" y1="252.23" x2="155.28" y2="252.23" style="fill:none;stroke:#fff;stroke-linecap:round;stroke-miterlimit:10;stroke-width:2px"/><line id="Ligne_27" data-name="Ligne 27" x1="150.73" y1="252.23" x2="148.1" y2="252.23" style="fill:none;stroke:#fff;stroke-linecap:round;stroke-miterlimit:10;stroke-width:2px"/></g><g id="Groupe_42" data-name="Groupe 42"><line id="Ligne_28" data-name="Ligne 28" x1="149.54" y1="248.76" x2="151.4" y2="250.62" style="fill:none;stroke:#fff;stroke-linecap:round;stroke-miterlimit:10;stroke-width:2px"/><line id="Ligne_29" data-name="Ligne 29" x1="154.61" y1="253.84" x2="156.47" y2="255.69" style="fill:none;stroke:#fff;stroke-linecap:round;stroke-miterlimit:10;stroke-width:2px"/></g><g id="Groupe_43" data-name="Groupe 43"><line id="Ligne_30" data-name="Ligne 30" x1="156.47" y1="248.76" x2="154.61" y2="250.62" style="fill:none;stroke:#fff;stroke-linecap:round;stroke-miterlimit:10;stroke-width:2px"/><line id="Ligne_31" data-name="Ligne 31" x1="151.4" y1="253.84" x2="149.54" y2="255.69" style="fill:none;stroke:#fff;stroke-linecap:round;stroke-miterlimit:10;stroke-width:2px"/></g></g></g></g></g></svg>