<svg id="Calque_1" data-name="Calque 1" xmlns="http://www.w3.org/2000/svg" xmlns:xlink="http://www.w3.org/1999/xlink" viewBox="0 0 278.06 419.45"><defs><clipPath id="clip-path" transform="translate(0 -0.94)"><path d="M211.76,330.16l-.06,19.5c0,10.92-7.21,21.82-21.54,30.15-28.86,16.77-75.81,16.77-104.85,0-14.62-8.44-21.92-19.51-21.89-30.57l.06-19.5c0,11.06,7.27,22.13,21.88,30.57,29.05,16.77,76,16.77,104.85,0C204.55,352,211.72,341.08,211.76,330.16Z" style="fill:none"/></clipPath><linearGradient id="Dégradé_sans_nom" x1="-5037.53" y1="3212.47" x2="-5036.53" y2="3212.47" gradientTransform="matrix(12.57, 0, 0, -12.57, 63495.3, 40690.91)" gradientUnits="userSpaceOnUse"><stop offset="0" stop-color="#86f5bb"/><stop offset="1" stop-color="#8dd9ea"/></linearGradient><linearGradient id="Dégradé_sans_nom_2" x1="-5037.53" y1="3212.47" x2="-5036.53" y2="3212.47" gradientTransform="matrix(12.57, 0, 0, -12.57, 63387.58, 40649.45)" xlink:href="#Dégradé_sans_nom"/><linearGradient id="Dégradé_sans_nom_3" x1="-5037.53" y1="3212.47" x2="-5036.53" y2="3212.47" gradientTransform="matrix(12.57, 0, 0, -12.57, 63380.08, 40680.43)" xlink:href="#Dégradé_sans_nom"/><linearGradient id="Dégradé_sans_nom_4" x1="-5395.84" y1="3396.89" x2="-5394.84" y2="3396.89" gradientTransform="matrix(70.93, 0, 0, -51.66, 382787.17, 175767.6)" xlink:href="#Dégradé_sans_nom"/><linearGradient id="Dégradé_sans_nom_5" x1="-5393.87" y1="3395.38" x2="-5392.87" y2="3395.38" gradientTransform="matrix(69.17, 0, 0, -50.38, 373190.64, 171332.97)" xlink:href="#Dégradé_sans_nom"/><linearGradient id="Dégradé_sans_nom_6" x1="-5413.48" y1="3245.36" x2="-5412.48" y2="3245.36" gradientTransform="matrix(20.24, -20.24, -20.24, -20.24, 175381.12, -43572.48)" xlink:href="#Dégradé_sans_nom"/><linearGradient id="Dégradé_sans_nom_7" x1="-5409.31" y1="3406.27" x2="-5409.29" y2="3406.87" gradientTransform="matrix(86.6, 0, 0, -61.8, 468562.05, 210835.75)" xlink:href="#Dégradé_sans_nom"/><linearGradient id="Dégradé_sans_nom_8" x1="-5242.48" y1="3327.17" x2="-5241.48" y2="3327.17" gradientTransform="matrix(23.74, 0, 0, -23.74, 124627.43, 79328.96)" xlink:href="#Dégradé_sans_nom"/><linearGradient id="Dégradé_sans_nom_9" x1="-5037.53" y1="3212.47" x2="-5036.53" y2="3212.47" gradientTransform="matrix(12.57, 0, 0, -12.57, 63465.67, 40649.45)" xlink:href="#Dégradé_sans_nom"/><linearGradient id="Dégradé_sans_nom_10" x1="-5159.5" y1="3280.74" x2="-5158.5" y2="3280.74" gradientTransform="matrix(17.46, 0, 0, -17.46, 90134.23, 57575.99)" xlink:href="#Dégradé_sans_nom"/><linearGradient id="Dégradé_sans_nom_11" x1="-5037.6" y1="3212.51" x2="-5036.6" y2="3212.51" gradientTransform="matrix(12.57, 0, 0, -12.57, 63470.78, 40697.15)" xlink:href="#Dégradé_sans_nom"/><linearGradient id="Dégradé_sans_nom_12" x1="-5242.48" y1="3327.17" x2="-5241.48" y2="3327.17" gradientTransform="matrix(23.74, 0, 0, -23.74, 124618.52, 79287.63)" xlink:href="#Dégradé_sans_nom"/><linearGradient id="Dégradé_sans_nom_13" x1="-5396.77" y1="3370.77" x2="-5395.77" y2="3370.77" gradientTransform="matrix(71.74, 0, 0, -35.86, 387279.06, 121208.44)" xlink:href="#Dégradé_sans_nom"/><linearGradient id="Dégradé_sans_nom_14" x1="-5270.54" y1="3420.94" x2="-5270.54" y2="3419.94" gradientTransform="matrix(27.1, 0, 0, -85.68, 142970.45, 293331.54)" gradientUnits="userSpaceOnUse"><stop offset="0" stop-color="#fec36d"/><stop offset="1" stop-color="#fd8567"/></linearGradient><radialGradient id="Dégradé_sans_nom_15" cx="26023.8" cy="71526.82" r="105.15" gradientTransform="translate(-4592.57 -3202.84) scale(0.17 0.05)" gradientUnits="userSpaceOnUse"><stop offset="0.01" stop-color="#b8c4e0"/><stop offset="0.22" stop-color="#bec9e3"/><stop offset="0.49" stop-color="#ced7ea"/><stop offset="0.8" stop-color="#eaedf6"/><stop offset="1" stop-color="#fff"/></radialGradient><linearGradient id="Dégradé_sans_nom_16" x1="-5359.43" y1="3383.92" x2="-5358.4" y2="3383.92" gradientTransform="matrix(48.18, 0, 0, -42.38, 258319.29, 143517.83)" gradientUnits="userSpaceOnUse"><stop offset="0" stop-color="#0031ba"/><stop offset="1" stop-color="#0089f9"/></linearGradient><linearGradient id="Dégradé_sans_nom_17" x1="-5251.83" y1="3381.23" x2="-5252.75" y2="3380.73" gradientTransform="matrix(24.64, 0, 0, -41.38, 129479.34, 140059.2)" xlink:href="#Dégradé_sans_nom_16"/><linearGradient id="Dégradé_sans_nom_18" x1="-5358.9" y1="3384.42" x2="-5358.9" y2="3383.42" gradientTransform="matrix(48.18, 0, 0, -42.38, 258319.29, 143517.83)" xlink:href="#Dégradé_sans_nom"/></defs><title>onboarding3</title><g id="Groupe_9962" data-name="Groupe 9962"><g id="Groupe_9958" data-name="Groupe 9958"><g id="Groupe_1722" data-name="Groupe 1722"><g id="Groupe_1721" data-name="Groupe 1721"><g id="Groupe_363" data-name="Groupe 363"><g id="Groupe_362" data-name="Groupe 362"><g id="Groupe_360" data-name="Groupe 360"><path id="Tracé_384" data-name="Tracé 384" d="M211.76,330.16l-.06,19.5c0,10.92-7.21,21.82-21.54,30.15-28.86,16.77-75.81,16.77-104.85,0-14.62-8.44-21.92-19.51-21.89-30.57l.06-19.5c0,11.06,7.27,22.13,21.88,30.57,29.05,16.77,76,16.77,104.85,0C204.55,352,211.72,341.08,211.76,330.16Z" transform="translate(0 -0.94)" style="fill:#b8c4e0"/><g style="clip-path:url(#clip-path)"><g id="Groupe_359" data-name="Groupe 359"><path id="Tracé_385" data-name="Tracé 385" d="M211.74,358.81a25.26,25.26,0,0,1-.48,4.25,27.36,27.36,0,0,1-1.2,4.18,29.9,29.9,0,0,1-2,4.21,34.66,34.66,0,0,1-3,4.43,43.08,43.08,0,0,1-4.6,4.95,57.44,57.44,0,0,1-9.39,6.95l-.9.53A83,83,0,0,1,174,395.45a107.35,107.35,0,0,1-14,3.5c-3.11.56-6.27,1-9.46,1.32-2.73.27-5.48.45-8.23.54q-3.8.13-7.6,0c-2.44-.06-4.88-.19-7.3-.39s-4.83-.47-7.21-.8-4.93-.78-7.35-1.28c-2.62-.54-5.2-1.18-7.73-1.9q-4.65-1.32-9-3a79.62,79.62,0,0,1-10.7-5.13c-14.62-8.44-21.92-19.52-21.89-30.58l0,19.5c0,11.06,7.26,22.14,21.88,30.58A81.33,81.33,0,0,0,96,412.94c2.9,1.14,5.91,2.15,9,3,2.53.71,5.11,1.35,7.74,1.9q3.61.75,7.35,1.27c2.38.34,4.78.6,7.21.8s4.85.34,7.3.4,5.06,0,7.6,0c2.75-.09,5.49-.28,8.22-.55,3.19-.31,6.35-.75,9.46-1.31a107.89,107.89,0,0,0,14-3.5,84,84,0,0,0,16.25-7.14l.9-.54a57.87,57.87,0,0,0,9.39-6.95,43.05,43.05,0,0,0,4.6-4.94,35.74,35.74,0,0,0,3-4.43,28.41,28.41,0,0,0,2-4.22,26.15,26.15,0,0,0,1.2-4.17,24.28,24.28,0,0,0,.49-4.25c0-.22,0-.44,0-.66l.06-19.5C211.76,358.38,211.75,358.59,211.74,358.81Z" transform="translate(0 -0.94)" style="fill:#b8c4e0"/></g></g></g><g id="Groupe_361" data-name="Groupe 361"><ellipse id="Ellipse_10" data-name="Ellipse 10" cx="137.62" cy="329.95" rx="42.94" ry="74.14" transform="translate(-192.72 465.69) rotate(-89.84)" style="fill:#dfe4f4"/></g></g></g><g id="Groupe_428" data-name="Groupe 428"><g id="Groupe_368" data-name="Groupe 368"><path id="Tracé_388" data-name="Tracé 388" d="M196.07,316.6a6.29,6.29,0,1,1-6.28-6.29,6.28,6.28,0,0,1,6.28,6.29Z" transform="translate(0 -0.94)" style="fill:url(#Dégradé_sans_nom)"/><path id="Tracé_389" data-name="Tracé 389" d="M88.35,275.15a6.28,6.28,0,1,1-6.28-6.29,6.28,6.28,0,0,1,6.28,6.29Z" transform="translate(0 -0.94)" style="fill:url(#Dégradé_sans_nom_2)"/><path id="Tracé_390" data-name="Tracé 390" d="M80.85,306.12a6.28,6.28,0,1,1-6.28-6.28,6.29,6.29,0,0,1,6.28,6.28Z" transform="translate(0 -0.94)" style="fill:url(#Dégradé_sans_nom_3)"/><path id="Tracé_391" data-name="Tracé 391" d="M86.7,302.33a8.9,8.9,0,1,0,14,4.56,9.82,9.82,0,0,0,12.56-1.22,8.87,8.87,0,0,0,9.26,3.42,8.9,8.9,0,1,0,17.08.3,14.46,14.46,0,0,0-8.84-27.54,14.69,14.69,0,0,0-3.63,1.76,12.88,12.88,0,0,0,.22-1.75,12.24,12.24,0,0,0-24.23-3,14.46,14.46,0,1,0-19.88,21,14.13,14.13,0,0,0,3.49,2.44Zm28.21-8.87-.29.23-.15-.24h.44Z" transform="translate(0 -0.94)" style="opacity:0.6399999856948853;isolation:isolate;fill:url(#Dégradé_sans_nom_4)"/><path id="Tracé_392" data-name="Tracé 392" d="M122.67,296.19a8.67,8.67,0,1,0,13.62,4.44,9.57,9.57,0,0,0,12.25-1.2,8.69,8.69,0,0,0,9,3.35,8.68,8.68,0,1,0,16.57,5.16,8.15,8.15,0,0,0,.38-2.13,8.46,8.46,0,0,0-.3-2.74,14.1,14.1,0,1,0-12.16-25.15,12.1,12.1,0,0,0,.21-1.71,11.93,11.93,0,0,0-23.63-2.89,14.1,14.1,0,1,0-16,22.86Zm27.51-8.66a3.11,3.11,0,0,1-.28.23c0-.08-.1-.16-.15-.24h.43Z" transform="translate(0 -0.94)" style="opacity:0.6399999856948853;isolation:isolate;fill:url(#Dégradé_sans_nom_5)"/><circle id="Ellipse_11" data-name="Ellipse 11" cx="97.66" cy="309.74" r="14.31" style="opacity:0.2669999897480011;isolation:isolate;fill:url(#Dégradé_sans_nom_6)"/><path id="Tracé_393" data-name="Tracé 393" d="M161.77,306.35a10.82,10.82,0,1,0-17.24-4.66A12,12,0,0,0,129.35,304a10.83,10.83,0,0,0-11.47-3.59,10.83,10.83,0,0,0-21-5.39,11.22,11.22,0,0,0-.34,2.7,10.84,10.84,0,0,0,.55,3.39,17.59,17.59,0,1,0,16.74,30.55,15.29,15.29,0,0,0-.15,2.14,14.88,14.88,0,0,0,29.61,2.09,17.59,17.59,0,1,0,22.86-26.73A17.86,17.86,0,0,0,161.77,306.35Zm-33.71,12.53.33-.3c.07.1.14.19.2.29h-.53Z" transform="translate(0 -0.94)" style="opacity:0.7089999914169312;isolation:isolate;fill:url(#Dégradé_sans_nom_7)"/><circle id="Ellipse_12" data-name="Ellipse 12" cx="172.33" cy="335.21" r="11.87" style="fill:url(#Dégradé_sans_nom_8)"/><path id="Tracé_394" data-name="Tracé 394" d="M166.44,275.15a6.29,6.29,0,1,1-6.28-6.29,6.28,6.28,0,0,1,6.28,6.29Z" transform="translate(0 -0.94)" style="fill:url(#Dégradé_sans_nom_9)"/><path id="Tracé_395" data-name="Tracé 395" d="M77,300.89a8.73,8.73,0,1,1-8.73-8.73h0A8.74,8.74,0,0,1,77,300.89Z" transform="translate(0 -0.94)" style="fill:url(#Dégradé_sans_nom_10)"/><path id="Tracé_396" data-name="Tracé 396" d="M160.7,315.88a6.29,6.29,0,1,1-6.28-6.29,6.28,6.28,0,0,1,6.28,6.29Z" transform="translate(0 -0.94)" style="fill:url(#Dégradé_sans_nom_11)"/><circle id="Ellipse_13" data-name="Ellipse 13" cx="163.42" cy="293.88" r="11.87" style="fill:url(#Dégradé_sans_nom_12)"/></g></g></g><path id="Tracé_2149" data-name="Tracé 2149" d="M160.22,317.31a14.61,14.61,0,0,0-13.32,7.48,35.8,35.8,0,0,0-6.76-.91A33.39,33.39,0,0,0,129,325.32a14.63,14.63,0,1,0-6.63,22.4c4.08,3.09,10,5.16,16.73,5.41,8.46.32,15.95-2.35,20.06-6.57h0a14.64,14.64,0,1,0,1.09-29.25Z" transform="translate(0 -0.94)" style="opacity:0.5509999990463257;isolation:isolate;fill:url(#Dégradé_sans_nom_13)"/></g><g id="fusee"><g id="OBJECTS"><circle id="Ellipse_417" data-name="Ellipse 417" cx="179.04" cy="267.56" r="6.16" style="fill:#f3f6fe"/><path id="Tracé_21255" data-name="Tracé 21255" d="M109.92,256.05a2.88,2.88,0,1,1-2.87-2.88h0A2.89,2.89,0,0,1,109.92,256.05Z" transform="translate(0 -0.94)" style="fill:#f3f6fe"/><path id="Tracé_21256" data-name="Tracé 21256" d="M152.22,239.49c0-13.28-6-24.09-13.55-24.09s-13.55,10.81-13.55,24.09,13.55,61.59,13.55,61.59S152.22,252.63,152.22,239.49Z" transform="translate(0 -0.94)" style="fill:url(#Dégradé_sans_nom_14)"/><path id="Tracé_21257" data-name="Tracé 21257" d="M117.18,207.46a53.28,53.28,0,0,0,4.24,15.19c9.44,5.06,23.82,5.06,33.26.14a53.2,53.2,0,0,0,4.38-15.33Z" transform="translate(0 -0.94)" style="fill:#f3f6fe"/><path id="Tracé_21258" data-name="Tracé 21258" d="M118.27,213.21c4.24,2.46,11.5,4.1,19.57,4.1,8.49,0,16-1.78,20.26-4.51a16,16,0,0,1,.55-2.47c-12.05,5.34-28.88,5.34-40.93-.14C117.85,211.21,118,212.21,118.27,213.21Z" transform="translate(0 -0.94)" style="fill:url(#Dégradé_sans_nom_15)"/><g id="Groupe_9954" data-name="Groupe 9954"><path id="Tracé_21259" data-name="Tracé 21259" d="M180.14,206.5c-.41-5.06-2.33-7.67-4.52-9l-3.15-1.78c2.19,1.37,4.11,4,4.52,9a1.93,1.93,0,0,0,.82,1.64l3.15,1.78A1.93,1.93,0,0,1,180.14,206.5Z" transform="translate(0 -0.94)" style="fill:#b8c4e0"/><path id="Tracé_21260" data-name="Tracé 21260" d="M165.9,179.54c19.17-2.19,18.76,25.86,18.76,27.37l-1.65,1c-1.5,1-2.73.27-2.87-1.37-1.1-14-13.41-9.58-14.1-9.31Z" transform="translate(0 -0.94)" style="fill:#b8c4e0"/><path id="Tracé_21261" data-name="Tracé 21261" d="M171.65,179.26h-.27L171,179l-.14-.14-.54-.27h-.14l-.55-.14h-.13l-.55-.14h-.14l-.68-.13H168l-.55-.14h-4.24l-.68.14,3.14,1.78h4l.55.13h.14l.54.14H171l.68.14h.14l.55.13h.14c.13,0,.27.14.54.14h.14l.55.27.13.14.41.28.28.13Z" transform="translate(0 -0.94)" style="fill:#b8c4e0"/><path id="Tracé_21262" data-name="Tracé 21262" d="M166,197.19l-3.15-1.78-.13-17.79,3.14,1.92Z" transform="translate(0 -0.94)" style="fill:#b8c4e0"/></g><g id="Groupe_9955" data-name="Groupe 9955"><path id="Tracé_21263" data-name="Tracé 21263" d="M92.13,206.5c.41-5.06,2.33-7.67,4.52-9l3.14-1.78c-2.19,1.37-4.1,4-4.51,9a2,2,0,0,1-.82,1.64l-3.15,1.78A1.93,1.93,0,0,0,92.13,206.5Z" transform="translate(0 -0.94)" style="fill:#b8c4e0"/><path id="Tracé_21264" data-name="Tracé 21264" d="M106.36,179.54c-19.16-2.19-18.75,25.86-18.75,27.37l1.64,1c1.51,1,2.74.27,2.88-1.37,1.09-14,13.41-9.58,14.1-9.31Z" transform="translate(0 -0.94)" style="fill:#b8c4e0"/><path id="Tracé_21265" data-name="Tracé 21265" d="M106.23,197.19l3.15-1.78.13-17.79-3.15,1.92Z" transform="translate(0 -0.94)" style="fill:#b8c4e0"/></g><path id="Tracé_21266" data-name="Tracé 21266" d="M173.43,177.89a88.2,88.2,0,0,1-7.66,29.57c-15.6,8.21-39.7,8.21-55.3-.14a88.16,88.16,0,0,1-7.67-29.56c-1.91-20.67,2.33-42.3,8.49-59.13,1.64-4.66,3.56-9.17,5.61-13.69,8.21-16.7,17.25-28.33,20.26-30.8a1.86,1.86,0,0,1,2.05,0c3,2.46,12,14.23,20.26,30.8a132.43,132.43,0,0,1,5.75,13.69C171.1,135.74,175.21,157.22,173.43,177.89Z" transform="translate(0 -0.94)" style="fill:#f3f6fe"/><path id="Tracé_21267" data-name="Tracé 21267" d="M162.34,111.51q-1.43-3.49-2.87-6.57c-8.21-16.56-17.25-28.33-20.26-30.8a1.86,1.86,0,0,0-2.05,0c-3,2.46-12,14.23-20.12,30.8-1,2-1.91,4.24-2.87,6.43C128.27,117.81,148.11,117.81,162.34,111.51Z" transform="translate(0 -0.94)" style="fill:url(#Dégradé_sans_nom_16)"/><path id="Tracé_21268" data-name="Tracé 21268" d="M138.67,73.87a270.86,270.86,0,0,0-12.46,41.33A49.41,49.41,0,0,1,114,111.5c.27-.68.68-1.5,1-2.19s.82-1.77,1.23-2.73a14.69,14.69,0,0,1,.82-1.51c8.08-16.7,17.11-28.47,20.12-30.93a1.43,1.43,0,0,1,1.23-.28Z" transform="translate(0 -0.94)" style="fill:url(#Dégradé_sans_nom_17)"/><path id="Tracé_21269" data-name="Tracé 21269" d="M138.67,73.87a1.91,1.91,0,0,0-1.51.27c-3,2.47-12,14.24-20.12,30.8a119.89,119.89,0,0,0-5.61,13.69c-6,17-10.26,38.46-8.48,59.13a85,85,0,0,0,7.66,29.56,57.47,57.47,0,0,0,15.47,5.2C109.92,152.3,132.51,89.06,138.67,73.87Z" transform="translate(0 -0.94)" style="fill:#b8c4e0;opacity:0.3799999952316284;isolation:isolate"/><path id="Tracé_21270" data-name="Tracé 21270" d="M120.33,170a71.35,71.35,0,0,1-17.66-5.47c0-.55-.14-1.1-.14-1.64h0a17.36,17.36,0,0,1,.14-2.6,72.33,72.33,0,0,0,17.66,5.88h0Z" transform="translate(0 -0.94)" style="fill:#0031ba;opacity:0.5299999713897705;isolation:isolate"/><path id="Tracé_21271" data-name="Tracé 21271" d="M120.73,179.4a75.23,75.23,0,0,1-18.06-5.61c-.14-1.37-.14-2.88-.14-4.25v-.13a70.29,70.29,0,0,0,18.06,6A19.54,19.54,0,0,0,120.73,179.4Z" transform="translate(0 -0.94)" style="fill:#0031ba;opacity:0.5299999713897705;isolation:isolate"/><path id="Tracé_21272" data-name="Tracé 21272" d="M96.24,245.23c0-1.77-.69-35.17,22.44-59.12l-4,.13s-21.07,19.3-20.94,57.63Z" transform="translate(0 -0.94)" style="fill:#b8c4e0"/><path id="Tracé_21273" data-name="Tracé 21273" d="M118.82,186c-23.13,23.95-22.45,57.49-22.45,59.26L98.43,244a8.13,8.13,0,0,0,3.56-5.75c1.23-18.47,17.93-31.61,18.75-32.16Z" transform="translate(0 -0.94)" style="fill:#b8c4e0"/><path id="Tracé_21274" data-name="Tracé 21274" d="M177.4,245.23c0-1.77.69-35.17-22.45-59.12l4,.13s21.08,19.3,20.94,57.63Z" transform="translate(0 -0.94)" style="fill:#b8c4e0"/><path id="Tracé_21275" data-name="Tracé 21275" d="M155,186c23.14,23.95,22.45,57.49,22.45,59.26L175.35,244a8.07,8.07,0,0,1-3.56-5.75c-1.23-18.47-17.93-31.61-18.75-32.16Z" transform="translate(0 -0.94)" style="fill:#b8c4e0"/><path id="Tracé_21276" data-name="Tracé 21276" d="M123.47,129.85c6.71,3.83,12.19,13.28,12.19,21.08s-5.48,10.81-12.19,7-12.18-13.28-12.18-21.08S116.77,126,123.47,129.85Z" transform="translate(0 -0.94)" style="fill:#b8c4e0"/><path id="Tracé_21277" data-name="Tracé 21277" d="M123.47,133.14a20.57,20.57,0,0,1,9.45,16.28c0,6-4.25,8.35-9.45,5.34A20.56,20.56,0,0,1,114,138.47C114,132.45,118.27,130.12,123.47,133.14Z" transform="translate(0 -0.94)" style="fill:#b8c4e0"/><path id="Tracé_21278" data-name="Tracé 21278" d="M128.26,137.38l-11.08,11.09a19.58,19.58,0,0,1-2.6-6l9.17-9.17A18.39,18.39,0,0,1,128.26,137.38Z" transform="translate(0 -0.94)" style="fill:#b8c4e0"/><path id="Tracé_21279" data-name="Tracé 21279" d="M132.37,145.59l-9.17,9a16.23,16.23,0,0,1-4.52-4.1l11.09-11.09A24.73,24.73,0,0,1,132.37,145.59Z" transform="translate(0 -0.94)" style="fill:#b8c4e0"/><path id="Tracé_21280" data-name="Tracé 21280" d="M138.26,148.88V147.1a.82.82,0,0,0-.14-.55h0c0-.14-.14-.41-.14-.55a5.1,5.1,0,0,1-.13-.68v-.69l-.14-.68c0-.14-.14-.27-.14-.41v-.28c0-.27-.14-.41-.14-.68l-.13-.55v-.27l-.14-.41a1,1,0,0,0-.27-.55.49.49,0,0,1-.14-.41h0v-.14c-.14-.27-.14-.41-.27-.54s-.14-.41-.28-.69v-.27c-.14-.14-.14-.28-.27-.55l-.41-.68-.14-.28v-.13l-.27-.55a3,3,0,0,0-.55-.82.13.13,0,0,0-.13-.14h0l-.82-1.09h0c-.14-.28-.41-.42-.55-.69a2,2,0,0,0-.41-.55h0l-.41-.54-.55-.55-.13-.14-.14-.13-.27-.28-.55-.55-.14-.13-.14-.14-.27-.27-.55-.41-.27-.28-.14-.14-.14-.13-.54-.41-.41-.28h-.14l-.55-.27-.55-.27h-.13l-.41-.28-.55-.27-.27-.14h-.28c-.14-.14-.27-.14-.55-.27l-.54-.14h-.28l-.27-.14-.55-.13h.14l-.55-.14h-1.78l-.68.14h-.14c-.27,0-.41.13-.68.13H119l-.82.41h0l-2.73,1.65.82-.41h.14c.27-.14.54-.14.82-.28h.13c.28,0,.55-.14,1-.14h.55c.27,0,.68.14,1,.14h.13c.41.14.69.14,1.1.28h.14l1.23.41h.14a5.28,5.28,0,0,1,1.23.68l1.23.82h0a8.06,8.06,0,0,1,1.1.82l.14.14a6.7,6.7,0,0,1,1.1,1l.14.13,1,1,.13.14a4.22,4.22,0,0,0,1.1,1.09h0c.28.42.69.83,1,1.24h0l.82,1.23.55.82c.14.27.27.41.41.68l.14.28a7.37,7.37,0,0,1,.54,1.09v.14c.28.41.42,1,.69,1.37h0c.14.41.41,1,.55,1.37v.54a10.05,10.05,0,0,0,.54,1.51v.14c.14.41.28,1,.41,1.37v.13c.14.41.14,1,.28,1.37h0c0,.41.13,1,.13,1.37v3c0,.41-.13.82-.13,1.1v.13a1.91,1.91,0,0,1-.28,1v.14a2,2,0,0,0-.27.82v.14a7.66,7.66,0,0,1-.55,1l-.14.13a1,1,0,0,1-.54.55l-.14.27-.41.41-.14.14a2.42,2.42,0,0,0-.68.55h0l2.74-1.51a2.39,2.39,0,0,0,.68-.54l.14-.14.41-.41.13-.28a2.77,2.77,0,0,0,.42-.68l.13-.14h0l.41-.82h0v-.14c.14-.13.14-.41.28-.54s.13-.14.13-.28a.13.13,0,0,1,.14-.13h0v-.14l.14-.55v-.68a.83.83,0,0,1,.14-.55.2.2,0,0,0,0-.27h0V149.7h0C138.26,149.29,138.26,149,138.26,148.88Z" transform="translate(0 -0.94)" style="fill:#b8c4e0"/><path id="Tracé_21281" data-name="Tracé 21281" d="M128.26,137.38l-11.08,11.09a19.58,19.58,0,0,1-2.6-6l9.17-9.17A18.39,18.39,0,0,1,128.26,137.38Z" transform="translate(0 -0.94)" style="fill:#f3f6fe"/><path id="Tracé_21282" data-name="Tracé 21282" d="M132.37,145.59l-9.17,9a16.23,16.23,0,0,1-4.52-4.1l11.09-11.09A24.73,24.73,0,0,1,132.37,145.59Z" transform="translate(0 -0.94)" style="fill:#f3f6fe"/><path id="Tracé_21283" data-name="Tracé 21283" d="M162.34,111.51q-1.43-3.49-2.87-6.57c-8.21-16.56-17.25-28.33-20.26-30.8a1.86,1.86,0,0,0-2.05,0c-3,2.46-12,14.23-20.12,30.8-1,2-1.91,4.24-2.87,6.43C128.27,117.81,148.11,117.81,162.34,111.51Z" transform="translate(0 -0.94)" style="opacity:0.8059999942779541;isolation:isolate;fill:url(#Dégradé_sans_nom_18)"/><path id="Tracé_21284" data-name="Tracé 21284" d="M138.67,73.87a270.86,270.86,0,0,0-12.46,41.33A49.41,49.41,0,0,1,114,111.5c.27-.68.68-1.5,1-2.19s.82-1.77,1.23-2.73a14.69,14.69,0,0,1,.82-1.51c8.08-16.7,17.11-28.47,20.12-30.93a1.43,1.43,0,0,1,1.23-.28Z" transform="translate(0 -0.94)" style="fill:#1d8df5;opacity:0.0010000000474974513;isolation:isolate"/><path id="Tracé_21285" data-name="Tracé 21285" d="M173.71,173.1c0-1.5.13-3,.13-4.38-9.85,5.34-22.58,8.21-36.27,8.21-13.14,0-25.46-2.73-35-7.66,0,1.51.14,2.87.14,4.38C123.47,183.5,153.31,183.23,173.71,173.1Z" transform="translate(0 -0.94)" style="fill:#b8c4e0"/><path id="Tracé_21286" data-name="Tracé 21286" d="M173.71,163.8c0-1.51.13-3,.13-4.38-9.85,5.33-22.58,8.34-36.27,8.34-13.14,0-25.46-2.73-35-7.66,0,1.51.14,2.87.14,4.38C123.47,174.06,153.31,173.79,173.71,163.8Z" transform="translate(0 -0.94)" style="fill:#b8c4e0"/><g id="Groupe_9957" data-name="Groupe 9957" style="opacity:0.5299999713897705"><g id="Groupe_9956" data-name="Groupe 9956" style="opacity:0.4000000059604645"><path id="Tracé_21287" data-name="Tracé 21287" d="M120.73,179.4a75.23,75.23,0,0,1-18.06-5.61c-.14-1.37-.14-2.88-.14-4.25v-.13a70.29,70.29,0,0,0,18.06,6A19.54,19.54,0,0,0,120.73,179.4Z" transform="translate(0 -0.94)" style="fill:#0031ba"/></g><path id="Tracé_21288" data-name="Tracé 21288" d="M120.32,170a71.41,71.41,0,0,1-17.65-5.47c0-.55-.14-1.1-.14-1.64h0c0-1-.14-1.78-.14-2.74h.28A72.85,72.85,0,0,0,120.32,166h0Z" transform="translate(0 -0.94)" style="fill:#0031ba;opacity:0.4000000059604645;isolation:isolate"/></g></g></g></g><g id="Groupe_9959" data-name="Groupe 9959"><g id="Groupe_9937" data-name="Groupe 9937"><g id="Tracé_85" data-name="Tracé 85"><path d="M276.06,283.11a6.29,6.29,0,1,1-6.29-6.29,6.29,6.29,0,0,1,6.29,6.29Z" transform="translate(0 -0.94)" style="fill:none"/><path d="M269.77,276.82a6.29,6.29,0,1,0,6.29,6.29,6.29,6.29,0,0,0-6.29-6.29m0-2a8.29,8.29,0,1,1-8.29,8.29A8.29,8.29,0,0,1,269.77,274.82Z" transform="translate(0 -0.94)" style="fill:#fff"/></g><circle id="Ellipse_7" data-name="Ellipse 7" cx="237.16" cy="292" r="3.14" style="fill:#fff"/><g id="Groupe_44" data-name="Groupe 44"><g id="Groupe_40" data-name="Groupe 40"><line id="Ligne_24" data-name="Ligne 24" x1="105.16" y1="367.22" x2="105.16" y2="369.84" style="fill:none;stroke:#fff;stroke-linecap:round;stroke-miterlimit:10;stroke-width:2px"/><line id="Ligne_25" data-name="Ligne 25" x1="105.16" y1="374.39" x2="105.16" y2="377.02" style="fill:none;stroke:#fff;stroke-linecap:round;stroke-miterlimit:10;stroke-width:2px"/></g><g id="Groupe_41" data-name="Groupe 41"><line id="Ligne_26" data-name="Ligne 26" x1="110.06" y1="372.12" x2="107.43" y2="372.12" style="fill:none;stroke:#fff;stroke-linecap:round;stroke-miterlimit:10;stroke-width:2px"/><line id="Ligne_27" data-name="Ligne 27" x1="102.89" y1="372.12" x2="100.26" y2="372.12" style="fill:none;stroke:#fff;stroke-linecap:round;stroke-miterlimit:10;stroke-width:2px"/></g><g id="Groupe_42" data-name="Groupe 42"><line id="Ligne_28" data-name="Ligne 28" x1="101.69" y1="368.65" x2="103.55" y2="370.51" style="fill:none;stroke:#fff;stroke-linecap:round;stroke-miterlimit:10;stroke-width:2px"/><line id="Ligne_29" data-name="Ligne 29" x1="106.77" y1="373.72" x2="108.63" y2="375.58" style="fill:none;stroke:#fff;stroke-linecap:round;stroke-miterlimit:10;stroke-width:2px"/></g><g id="Groupe_43" data-name="Groupe 43"><line id="Ligne_30" data-name="Ligne 30" x1="108.63" y1="368.65" x2="106.77" y2="370.51" style="fill:none;stroke:#fff;stroke-linecap:round;stroke-miterlimit:10;stroke-width:2px"/><line id="Ligne_31" data-name="Ligne 31" x1="103.55" y1="373.72" x2="101.69" y2="375.58" style="fill:none;stroke:#fff;stroke-linecap:round;stroke-miterlimit:10;stroke-width:2px"/></g></g></g><g id="Groupe_9953" data-name="Groupe 9953"><g id="Groupe_9937-2" data-name="Groupe 9937-2"><g id="Tracé_84" data-name="Tracé 84"><path d="M14.58,101a6.29,6.29,0,1,1-6.29-6.29h0A6.29,6.29,0,0,1,14.58,101Z" transform="translate(0 -0.94)" style="fill:none"/><path d="M8.29,94.69A6.29,6.29,0,1,0,14.58,101a6.29,6.29,0,0,0-6.29-6.29m0-2A8.29,8.29,0,1,1,0,101,8.3,8.3,0,0,1,8.29,92.69Z" transform="translate(0 -0.94)" style="fill:#fff"/></g><g id="Tracé_85-2" data-name="Tracé 85-2"><path d="M251.06,182.11a6.29,6.29,0,1,1-6.29-6.29,6.29,6.29,0,0,1,6.29,6.29Z" transform="translate(0 -0.94)" style="fill:none"/><path d="M244.77,175.82a6.29,6.29,0,1,0,6.29,6.29,6.29,6.29,0,0,0-6.29-6.29m0-2a8.29,8.29,0,1,1-8.29,8.29A8.29,8.29,0,0,1,244.77,173.82Z" transform="translate(0 -0.94)" style="fill:#fff"/></g><g id="Groupe_34" data-name="Groupe 34"><g id="Groupe_30" data-name="Groupe 30"><line id="Ligne_8" data-name="Ligne 8" x1="34.35" y1="31.89" x2="34.35" y2="39.19" style="fill:none;stroke:#fff;stroke-linecap:round;stroke-miterlimit:10;stroke-width:2px"/><line id="Ligne_9" data-name="Ligne 9" x1="34.35" y1="51.81" x2="34.35" y2="59.11" style="fill:none;stroke:#fff;stroke-linecap:round;stroke-miterlimit:10;stroke-width:2px"/></g><g id="Groupe_31" data-name="Groupe 31"><line id="Ligne_10" data-name="Ligne 10" x1="47.96" y1="45.5" x2="40.66" y2="45.5" style="fill:none;stroke:#fff;stroke-linecap:round;stroke-miterlimit:10;stroke-width:2px"/><line id="Ligne_11" data-name="Ligne 11" x1="28.04" y1="45.5" x2="20.74" y2="45.5" style="fill:none;stroke:#fff;stroke-linecap:round;stroke-miterlimit:10;stroke-width:2px"/></g><g id="Groupe_32" data-name="Groupe 32"><line id="Ligne_12" data-name="Ligne 12" x1="24.72" y1="35.87" x2="29.89" y2="41.04" style="fill:none;stroke:#fff;stroke-linecap:round;stroke-miterlimit:10;stroke-width:2px"/><line id="Ligne_13" data-name="Ligne 13" x1="38.81" y1="49.96" x2="43.97" y2="55.12" style="fill:none;stroke:#fff;stroke-linecap:round;stroke-miterlimit:10;stroke-width:2px"/></g><g id="Groupe_33" data-name="Groupe 33"><line id="Ligne_14" data-name="Ligne 14" x1="43.97" y1="35.87" x2="38.81" y2="41.04" style="fill:none;stroke:#fff;stroke-linecap:round;stroke-miterlimit:10;stroke-width:2px"/><line id="Ligne_15" data-name="Ligne 15" x1="29.89" y1="49.96" x2="24.72" y2="55.12" style="fill:none;stroke:#fff;stroke-linecap:round;stroke-miterlimit:10;stroke-width:2px"/></g></g><g id="Groupe_44-2" data-name="Groupe 44-2"><g id="Groupe_40-2" data-name="Groupe 40-2"><line id="Ligne_24-2" data-name="Ligne 24-2" x1="105.16" y1="278.22" x2="105.16" y2="280.84" style="fill:none;stroke:#fff;stroke-linecap:round;stroke-miterlimit:10;stroke-width:2px"/><line id="Ligne_25-2" data-name="Ligne 25-2" x1="105.16" y1="285.39" x2="105.16" y2="288.02" style="fill:none;stroke:#fff;stroke-linecap:round;stroke-miterlimit:10;stroke-width:2px"/></g><g id="Groupe_41-2" data-name="Groupe 41-2"><line id="Ligne_26-2" data-name="Ligne 26-2" x1="110.06" y1="283.12" x2="107.43" y2="283.12" style="fill:none;stroke:#fff;stroke-linecap:round;stroke-miterlimit:10;stroke-width:2px"/><line id="Ligne_27-2" data-name="Ligne 27-2" x1="102.89" y1="283.12" x2="100.26" y2="283.12" style="fill:none;stroke:#fff;stroke-linecap:round;stroke-miterlimit:10;stroke-width:2px"/></g><g id="Groupe_42-2" data-name="Groupe 42-2"><line id="Ligne_28-2" data-name="Ligne 28-2" x1="101.69" y1="279.65" x2="103.55" y2="281.51" style="fill:none;stroke:#fff;stroke-linecap:round;stroke-miterlimit:10;stroke-width:2px"/><line id="Ligne_29-2" data-name="Ligne 29-2" x1="106.77" y1="284.72" x2="108.63" y2="286.58" style="fill:none;stroke:#fff;stroke-linecap:round;stroke-miterlimit:10;stroke-width:2px"/></g><g id="Groupe_43-2" data-name="Groupe 43-2"><line id="Ligne_30-2" data-name="Ligne 30-2" x1="108.63" y1="279.65" x2="106.77" y2="281.51" style="fill:none;stroke:#fff;stroke-linecap:round;stroke-miterlimit:10;stroke-width:2px"/><line id="Ligne_31-2" data-name="Ligne 31-2" x1="103.55" y1="284.72" x2="101.69" y2="286.58" style="fill:none;stroke:#fff;stroke-linecap:round;stroke-miterlimit:10;stroke-width:2px"/></g></g></g></g></g><g id="Groupe_9953-2" data-name="Groupe 9953-2"><g id="Groupe_9937-3" data-name="Groupe 9937-3"><g id="Tracé_84-2" data-name="Tracé 84-2"><path d="M192.41,51.72a6.29,6.29,0,1,0,2.15-8.63h0A6.28,6.28,0,0,0,192.41,51.72Z" transform="translate(0 -0.94)" style="fill:none"/><path d="M194.56,43.09a6.29,6.29,0,1,0,8.63,2.15,6.28,6.28,0,0,0-8.63-2.15m-1-1.72a8.29,8.29,0,1,1-2.84,11.38A8.29,8.29,0,0,1,193.53,41.37Z" transform="translate(0 -0.94)" style="fill:#fff"/></g><circle id="Ellipse_6" data-name="Ellipse 6" cx="218.69" cy="54.81" r="3.14" style="fill:#fff"/><circle id="Ellipse_7-2" data-name="Ellipse 7-2" cx="54.64" cy="253.67" r="3.14" style="fill:#fff"/><g id="Groupe_34-2" data-name="Groupe 34-2"><g id="Groupe_30-2" data-name="Groupe 30-2"><line id="Ligne_8-2" data-name="Ligne 8-2" x1="140.36" y1="2.54" x2="144.12" y2="8.8" style="fill:none;stroke:#fff;stroke-linecap:round;stroke-miterlimit:10;stroke-width:2px"/><line id="Ligne_9-2" data-name="Ligne 9-2" x1="150.62" y1="19.61" x2="154.38" y2="25.87" style="fill:none;stroke:#fff;stroke-linecap:round;stroke-miterlimit:10;stroke-width:2px"/></g><g id="Groupe_31-2" data-name="Groupe 31-2"><line id="Ligne_10-2" data-name="Ligne 10-2" x1="135.7" y1="21.21" x2="141.96" y2="17.45" style="fill:none;stroke:#fff;stroke-linecap:round;stroke-miterlimit:10;stroke-width:2px"/><line id="Ligne_11-2" data-name="Ligne 11-2" x1="152.78" y1="10.95" x2="159.03" y2="7.2" style="fill:none;stroke:#fff;stroke-linecap:round;stroke-miterlimit:10;stroke-width:2px"/></g><g id="Groupe_32-2" data-name="Groupe 32-2"><line id="Ligne_12-2" data-name="Ligne 12-2" x1="150.66" y1="1" x2="148.9" y2="8.08" style="fill:none;stroke:#fff;stroke-linecap:round;stroke-miterlimit:10;stroke-width:2px"/><line id="Ligne_13-2" data-name="Ligne 13-2" x1="145.84" y1="20.33" x2="144.08" y2="27.41" style="fill:none;stroke:#fff;stroke-linecap:round;stroke-miterlimit:10;stroke-width:2px"/></g><g id="Groupe_33-2" data-name="Groupe 33-2"><line id="Ligne_14-2" data-name="Ligne 14-2" x1="134.16" y1="10.91" x2="141.25" y2="12.68" style="fill:none;stroke:#fff;stroke-linecap:round;stroke-miterlimit:10;stroke-width:2px"/><line id="Ligne_15-2" data-name="Ligne 15-2" x1="153.49" y1="15.73" x2="160.57" y2="17.5" style="fill:none;stroke:#fff;stroke-linecap:round;stroke-miterlimit:10;stroke-width:2px"/></g></g></g></g></g></svg>