<svg id="Calque_1" data-name="Calque 1" xmlns="http://www.w3.org/2000/svg" viewBox="0 0 28 28"><title>PENCIL</title><g id="Groupe_10227" data-name="Groupe 10227"><g id="Tracé_22600" data-name="Tracé 22600"><path d="M14,27.5a13.51,13.51,0,0,1-9.55-23,13.51,13.51,0,0,1,19.1,19.1A13.41,13.41,0,0,1,14,27.5Z" transform="translate(0 0)" style="fill:#ccc"/><path d="M14,1A13,13,0,0,0,1,14,13,13,0,0,0,14,27,13,13,0,0,0,27,14,13,13,0,0,0,14,1m0-1A14,14,0,1,1,0,14,14,14,0,0,1,14,0Z" transform="translate(0 0)" style="fill:#fff"/></g><path id="iconmonstr-pencil-9" d="M19,12l1,1-9,9L6,23,7,18l9-9,1,1L8.32,18.65l-.51,2.54,2.54-.51Zm0-6L17,8l4,4,2-2L19,6ZM10.24,19.26l8-8-.5-.5-8,8,.5.5Z" transform="translate(0 0)" style="fill:#fff"/></g></svg>