<svg id="Calque_1" data-name="Calque 1" xmlns="http://www.w3.org/2000/svg" xmlns:xlink="http://www.w3.org/1999/xlink" viewBox="0 0 38 38"><defs><linearGradient id="Dégradé_sans_nom" x1="-5445.32" y1="3193.4" x2="-5445.32" y2="3192.4" gradientTransform="matrix(38, 0, 0, -38, 206941, 121349.03)" gradientUnits="userSpaceOnUse"><stop offset="0" stop-color="#ec1b24"/><stop offset="1" stop-color="#8e2b2f"/></linearGradient></defs><title>plus</title><g id="Groupe_11820" data-name="Groupe 11820"><g id="Groupe_11873" data-name="Groupe 11873"><path id="Tracé_24067" data-name="Tracé 24067" d="M19,0A19,19,0,1,1,0,19,19,19,0,0,1,19,0Z" transform="translate(0 0)" style="fill:url(#Dégradé_sans_nom)"/><g id="Groupe_11752" data-name="Groupe 11752"><g id="Groupe_11351" data-name="Groupe 11351"><path id="Tracé_20784" data-name="Tracé 20784" d="M25.83,17.29H20.48V11.94a1.34,1.34,0,0,0-2.67,0v5.35H12.46a1.34,1.34,0,0,0,0,2.67h5.35v5.35a1.34,1.34,0,0,0,2.67.07V20h5.34a1.34,1.34,0,1,0,0-2.67Z" transform="translate(0 0)" style="fill:#fff"/></g></g></g></g></svg>