<svg id="Calque_1" data-name="Calque 1" xmlns="http://www.w3.org/2000/svg" viewBox="0 0 23.6 23.6"><title>help</title><g id="question"><path id="Tracé_22621" data-name="Tracé 22621" d="M23.6,11.8A11.8,11.8,0,1,0,11.8,23.6h0A11.8,11.8,0,0,0,23.6,11.8Z" transform="translate(0 0)" style="fill:#25b7d3"/><path id="Tracé_22622" data-name="Tracé 22622" d="M6.57,8.25a3.82,3.82,0,0,1,.64-2A4.86,4.86,0,0,1,9.07,4.56a5.68,5.68,0,0,1,2.85-.67,6,6,0,0,1,2.68.56A4.32,4.32,0,0,1,16.39,6,3.75,3.75,0,0,1,17,8.06a3.21,3.21,0,0,1-.36,1.55,4.43,4.43,0,0,1-.86,1.16c-.33.32-.92.87-1.78,1.63a7.66,7.66,0,0,0-.57.57,2.83,2.83,0,0,0-.32.45,2.9,2.9,0,0,0-.16.41c0,.13-.09.37-.17.72a1.15,1.15,0,0,1-1.23,1.08h0a1.31,1.31,0,0,1-.92-.35,1.43,1.43,0,0,1-.37-1.06,3.72,3.72,0,0,1,1-2.65,14.65,14.65,0,0,1,1.21-1.15c.44-.39.77-.69,1-.88a2.72,2.72,0,0,0,.5-.67,1.46,1.46,0,0,0,.2-.79,1.8,1.8,0,0,0-.62-1.41,2.29,2.29,0,0,0-1.6-.58,2.24,2.24,0,0,0-1.69.58,4.66,4.66,0,0,0-.92,1.71C9.07,9.17,8.62,9.56,8,9.56A1.39,1.39,0,0,1,6.57,8.25Zm5.1,11.46a1.64,1.64,0,0,1-1.11-.42,1.43,1.43,0,0,1-.48-1.15A1.49,1.49,0,0,1,10.54,17a1.59,1.59,0,0,1,1.13-.45,1.54,1.54,0,0,1,1.56,1.52v0a1.47,1.47,0,0,1-.47,1.15,1.63,1.63,0,0,1-1.09.42Z" transform="translate(0 0)" style="fill:#fff"/></g></svg>