<svg id="Calque_1" data-name="Calque 1" xmlns="http://www.w3.org/2000/svg" viewBox="0 0 49.16 44.58"><title>Groupe 10808</title><g id="Groupe_10808" data-name="Groupe 10808"><g id="Groupe_10765" data-name="Groupe 10765"><g id="Groupe_10764" data-name="Groupe 10764"><g id="Groupe_10738" data-name="Groupe 10738"><g id="Groupe_34" data-name="Groupe 34"><g id="Groupe_25" data-name="Groupe 25"><path id="Tracé_87" data-name="Tracé 87" d="M17.11,26.36s1.05,16.11.53,16.6-3.37,0-3.9.93,4.36.84,5,.3,0-17.83,0-17.83Z" transform="translate(0 0)" style="fill:#8595ba"/><path id="Tracé_88" data-name="Tracé 88" d="M31.87,26s-1,16.11-.52,16.6,3.37,0,3.89.93-4.36.84-5,.3,0-17.83,0-17.83Z" transform="translate(0 0)" style="fill:#8595ba"/></g><g id="Groupe_27" data-name="Groupe 27"><path id="Tracé_89" data-name="Tracé 89" d="M35.58,31.26a4,4,0,0,0,3.54-.08,3,3,0,0,0,1.62-2.25,4.69,4.69,0,0,0,4.71-1.1c2.26-2.07,1.23-6.18,1.23-6.18a3.6,3.6,0,0,0,1.89-3.38c-.39-3.67-4.14-3.87-4.14-3.87a4.42,4.42,0,0,0-.91-4.71A6.07,6.07,0,0,0,38.73,8.2,2.13,2.13,0,0,0,38,5.81a2.37,2.37,0,0,0-2.33-.37,4,4,0,0,0-2.46-3.95,5.52,5.52,0,0,0-4.73.56A4.89,4.89,0,0,0,24.48.63a7.23,7.23,0,0,0-3.61,1.49,4.14,4.14,0,0,0-4-.91,3.69,3.69,0,0,0-2.72,3S10,3,7.73,5.89,6.58,11.1,6.58,11.1a4.52,4.52,0,0,0-4.9,3,6.28,6.28,0,0,0,1,5.94s-3,3-1.76,6.34A3.9,3.9,0,0,0,5.3,29a3.43,3.43,0,0,0,3.31,3c3,.19,4.34-.91,4.34-.91s2.64,2.2,5.23,1.93a5.83,5.83,0,0,0,3.56-1.28,10.83,10.83,0,0,0,4.84,1.33,8.11,8.11,0,0,0,4.34-1.7,2.56,2.56,0,0,0,2.39,1.15A3.59,3.59,0,0,0,35.58,31.26Z" transform="translate(0 0)" style="fill:#f3f6fe"/><g id="Groupe_26" data-name="Groupe 26"><path id="Tracé_90" data-name="Tracé 90" d="M49.14,18.2a4.84,4.84,0,0,0-4-4.3,4.72,4.72,0,0,0-1.27-4.66,6.56,6.56,0,0,0-4.48-1.7h0A2.62,2.62,0,0,0,38.29,5.3a3.41,3.41,0,0,0-1.79-.67,3.62,3.62,0,0,0-.4-1A4.72,4.72,0,0,0,33.37.93a5.28,5.28,0,0,0-2-.35,6.16,6.16,0,0,0-1.91.31h0L29.32,1s-.06,0-.08,0h0a5.4,5.4,0,0,0-.74.33A5.51,5.51,0,0,0,25.06,0c-.23,0-.45,0-.66,0a8.21,8.21,0,0,0-3.52,1.32A4.65,4.65,0,0,0,18.09.43a5.15,5.15,0,0,0-1.4.2,4.29,4.29,0,0,0-3,2.87c-1.27-.19-4.34-.34-6.3,2.12a6.43,6.43,0,0,0-1.61,4v0a3,3,0,0,0,0,.6A5.36,5.36,0,0,0,1.11,14,6.88,6.88,0,0,0,1.85,20c-.08.07-.11.11-.11.13a.39.39,0,0,0-.11.22C.76,21.5-.69,23.94.37,26.62a4,4,0,0,0,3.82,2.76,4,4,0,0,0,.69-.06,4,4,0,0,0,3.67,3.3c.24,0,.5,0,.75,0a7.25,7.25,0,0,0,3.6-.8,9.06,9.06,0,0,0,4.84,1.83l.48,0a7.86,7.86,0,0,0,3.21-.95,2.65,2.65,0,0,0,.39-.23,11.07,11.07,0,0,0,4.54,1.2h.25a8.57,8.57,0,0,0,4.19-1.48.61.61,0,0,0,.2.19l.05,0a2.92,2.92,0,0,0,2,.73h0l.33,0a3.63,3.63,0,0,0,2.37-1.2,5,5,0,0,0,1.71.3,3.62,3.62,0,0,0,2-.55,4,4,0,0,0,1.73-2,6.39,6.39,0,0,0,1,.1,5.44,5.44,0,0,0,3.69-1.47c2.06-1.9,1.7-5.18,1.49-6.36A3.94,3.94,0,0,0,49.14,18.2Zm-2.6,2.85-1.16-.32a2.33,2.33,0,0,0-2.31.6,2,2,0,0,0-.37,2,1.64,1.64,0,0,0,1.68,1.1,2.88,2.88,0,0,0,.87-.14.53.53,0,0,0-.33-1h0s-1,.33-1.23-.32a.92.92,0,0,1,.17-.95,1.24,1.24,0,0,1,1.26-.28l1,.28c.17.89.56,3.84-1.12,5.36a4.25,4.25,0,0,1-2.91,1.18A4.05,4.05,0,0,1,41,28.39l-1-2a.58.58,0,0,0-1,.54h0l1.17,2.27a2.88,2.88,0,0,1-1.28,1.51,2.7,2.7,0,0,1-1.36.37,4.38,4.38,0,0,1-1.64-.35l-.11-.06h-.1A.82.82,0,0,0,35,31a2.5,2.5,0,0,1-1.75.95L33,32h0a2,2,0,0,1-1.53-.77,1.84,1.84,0,0,1-.27-1.1,1,1,0,0,1,.42-.8c.75-.43,1.1-.06,1.2.06a.59.59,0,0,0,.82.14.6.6,0,0,0,.15-.82h0a2,2,0,0,0-2.74-.41,2.12,2.12,0,0,0-1,1.72,3.09,3.09,0,0,0,.15,1.13,7.17,7.17,0,0,1-3.65,1.33,9.2,9.2,0,0,1-4-1h0a3.76,3.76,0,0,0-.22-2.94A2.72,2.72,0,0,0,19,27.2a.58.58,0,1,0,.33,1.12h0c.06,0,1.45-.43,2,.71a2.71,2.71,0,0,1,.22,2,.76.76,0,0,1-.09.18l-.1.1a5.38,5.38,0,0,1-3.18,1.11,2.42,2.42,0,0,1-.38,0,7.79,7.79,0,0,1-4.15-1.62l.15-1.77A.59.59,0,0,0,12.55,29h0l-.15,1.75a6.09,6.09,0,0,1-3.11.69c-.22,0-.44,0-.67,0a3,3,0,0,1-2.68-2.85,1.6,1.6,0,0,1,.87-1.27,1.33,1.33,0,0,1,.76-.2s0,0,0,0L8,26a2.07,2.07,0,0,0-1.73.26A2.7,2.7,0,0,0,4.83,28.1a3.78,3.78,0,0,1-.67,0,2.77,2.77,0,0,1-2.74-2C.34,23.37,2.78,20.7,3,20.44a3,3,0,0,1,1.9-.65A1.76,1.76,0,0,1,6.6,20.9a.55.55,0,0,0,.56.39.39.39,0,0,0,.18,0,.59.59,0,0,0,.37-.74A2.92,2.92,0,0,0,5,18.61a3.9,3.9,0,0,0-2.18.6,5.79,5.79,0,0,1-.56-5,4.36,4.36,0,0,1,4-2.89,2.79,2.79,0,0,0,2.19,1.57l.44,0a3.25,3.25,0,0,0,2.81-1.87.55.55,0,0,0-.28-.75h0a.58.58,0,0,0-.76.28,2,2,0,0,1-2,1.15A1.61,1.61,0,0,1,7.36,11l-.24-.52a.3.3,0,0,1,0-.1A2.54,2.54,0,0,1,7,9.61v0A5.3,5.3,0,0,1,8.35,6.3C10.08,4.12,13,4.49,13.81,4.64l.81,1.84a.62.62,0,0,0,.54.36.61.61,0,0,0,.59-.61A.54.54,0,0,0,15.7,6h0l-.89-2s0,0,0,0a3.15,3.15,0,0,1,2.26-2.28,3.62,3.62,0,0,1,3.42.77l.13.13a1.61,1.61,0,0,1,.23,1.58A1.3,1.3,0,0,1,19.6,5a.59.59,0,0,0-.63.55.59.59,0,0,0,.52.62h.13a2.45,2.45,0,0,0,2.25-1.47,2.59,2.59,0,0,0-.17-2.5,7.31,7.31,0,0,1,2.89-1,3.81,3.81,0,0,1,3.07.91,2.78,2.78,0,0,0-.61,1.21,2.37,2.37,0,0,0,1.64,2.87.32.32,0,0,0,.14,0,.57.57,0,0,0,.58-.57A.58.58,0,0,0,29,5.06a1.21,1.21,0,0,1-.78-1.49A2.53,2.53,0,0,1,29.8,2.05a4.83,4.83,0,0,1,1.64-.28A4.34,4.34,0,0,1,33,2.05a3.53,3.53,0,0,1,2.07,2,0,0,0,0,0,0,0,4.41,4.41,0,0,1,.31,1.3l0,1c-.18.84-.61.84-.82.84A1.11,1.11,0,0,1,33.9,7a.58.58,0,0,0-.82.1.59.59,0,0,0,.1.82h0a2.44,2.44,0,0,0,1.38.47c.52,0,1.79-.2,2-2.18a2,2,0,0,0,0-.34,2.28,2.28,0,0,1,1,.45A1.51,1.51,0,0,1,38.19,8l-.32.91,1-.15a3.18,3.18,0,0,1,.62,0,5.36,5.36,0,0,1,3.67,1.38A3.79,3.79,0,0,1,44,14.08c-.06.13-.88,1.79-2,1.85a.8.8,0,0,1-.6-.13.49.49,0,0,1,0-.39.59.59,0,0,0-1.14-.28,1.71,1.71,0,0,0,.3,1.4,1.73,1.73,0,0,0,1.4.56H42a3.71,3.71,0,0,0,2.74-2A3.7,3.7,0,0,1,48,18.37a3,3,0,0,1-1.45,2.68Z" transform="translate(0 0)" style="fill:#b8c4e0"/><path id="Tracé_91" data-name="Tracé 91" d="M37.13,13.3a3.39,3.39,0,0,0-.78-3c-1.88-2.25-4.72-1.77-6.49-1a4,4,0,0,0-2.75-3.09,4.26,4.26,0,0,0-4.54,1.58,5.35,5.35,0,0,0-3.92-1.41,3.54,3.54,0,0,0-3.15,2.5,3.11,3.11,0,0,0,1,3.52,3.57,3.57,0,0,0,4.73-.13.58.58,0,0,0-.76-.88l0,0h0a2.39,2.39,0,0,1-3.21,0,1.93,1.93,0,0,1-.61-2.24,2.42,2.42,0,0,1,2.06-1.71A3.91,3.91,0,0,1,22.09,9a.57.57,0,0,0,.79.19h0A.58.58,0,0,0,23.08,9s1.58-2.42,3.65-1.71a2.91,2.91,0,0,1,2.05,2.89.57.57,0,0,0,.54.61.52.52,0,0,0,.34-.09c.15-.09,3.69-2.23,5.77.28A2.25,2.25,0,0,1,36,13a2.31,2.31,0,0,1-1.17,1.55,2.29,2.29,0,0,1-1.72-.17.59.59,0,0,0-.78.22.6.6,0,0,0,.22.79A3.84,3.84,0,0,0,34,15.8a2.82,2.82,0,0,0,1.32-.2A3.35,3.35,0,0,0,37.13,13.3Z" transform="translate(0 0)" style="fill:#b8c4e0"/><path id="Tracé_92" data-name="Tracé 92" d="M11.85,21.48A2.7,2.7,0,0,0,11.72,20h0a3,3,0,0,0,1-.17,2.67,2.67,0,0,0,1.7-1.9,3.69,3.69,0,0,0-.64-3.24,2.92,2.92,0,0,0-3.46-.6.59.59,0,0,0-.26.79.58.58,0,0,0,.74.27s1.32-.61,2.09.3a2.47,2.47,0,0,1,.39,2.18,1.56,1.56,0,0,1-.95,1.12,2.24,2.24,0,0,1-1.77-.2,7.83,7.83,0,0,0-.67-.45L9.82,18a.58.58,0,0,0-.82.82H9l.19.17h0a3.92,3.92,0,0,0,.72.48,1.88,1.88,0,0,1,.79,1.79c-.25,1.26-1.18,1.34-1.29,1.34a.58.58,0,0,0,0,1.15h0A2.62,2.62,0,0,0,11.85,21.48Z" transform="translate(0 0)" style="fill:#b8c4e0"/><path id="Tracé_93" data-name="Tracé 93" d="M14.22,23.86A3.52,3.52,0,0,0,11.14,26a.58.58,0,0,0,.31.76.59.59,0,0,0,.76-.31s0,0,0,0a2.29,2.29,0,0,1,2-1.38c1.29,0,1.42,1.4,1.44,1.54a.57.57,0,0,0,.57.54h0a.57.57,0,0,0,.54-.61,2.62,2.62,0,0,0-2.61-2.63Z" transform="translate(0 0)" style="fill:#b8c4e0"/><path id="Tracé_94" data-name="Tracé 94" d="M39.9,19.17a3.24,3.24,0,0,0-2.4-.54.54.54,0,0,0-.42.61.52.52,0,0,0,.61.43,2.28,2.28,0,0,1,1.55.32,1.35,1.35,0,0,1,.39,1.06,1.64,1.64,0,0,1-.43,1.23,1.88,1.88,0,0,1-1.23.39.54.54,0,0,0-.58.49.44.44,0,0,0,0,.16,1.83,1.83,0,0,1-.13,1.3.83.83,0,0,1-.63.3,1.13,1.13,0,0,1-.92-.24,1.39,1.39,0,0,1-.3-.95.54.54,0,0,0-.48-.58.54.54,0,0,0-.58.47v0h0a2.5,2.5,0,0,0,.6,1.79,2,2,0,0,0,1.49.56l.26,0a1.88,1.88,0,0,0,1.42-.73,2.55,2.55,0,0,0,.39-1.55,2.45,2.45,0,0,0,2.16-2.64A2.31,2.31,0,0,0,39.9,19.17Z" transform="translate(0 0)" style="fill:#b8c4e0"/></g></g></g></g><g id="Groupe_23" data-name="Groupe 23"><g id="Groupe_22" data-name="Groupe 22"><path id="Tracé_51" data-name="Tracé 51" d="M26.63,25.2a3.12,3.12,0,0,1-.43,1.55,2.48,2.48,0,0,1-1,.93,2,2,0,0,1-1.92,0,2.29,2.29,0,0,1-1-.93,3,3,0,0,1-.43-1.55c0-1.1.56-.59,1.36-.24a2.16,2.16,0,0,0,2,0C26.07,24.61,26.63,24.1,26.63,25.2Z" transform="translate(0 0)" style="fill:#8595ba"/></g><path id="Tracé_52" data-name="Tracé 52" d="M26,26.6a3.3,3.3,0,0,1-1.92,0,1,1,0,0,1,1.1-.82h0A.94.94,0,0,1,26,26.6Z" transform="translate(0 0)" style="fill:#8595ba"/></g><g id="Groupe_10762" data-name="Groupe 10762"><path id="Tracé_43" data-name="Tracé 43" d="M24.89,26.54l9.44-2.09-2,12.83-8.75,1.79Z" transform="translate(0 0)" style="fill:#b8c4e0"/><path id="Tracé_44" data-name="Tracé 44" d="M24.89,26.54,15,24.45l.52,13,8.09,1.65Z" transform="translate(0 0)" style="fill:#b8c4e0"/></g><path id="Tracé_22526" data-name="Tracé 22526" d="M4,21.77l.23.31a56.33,56.33,0,0,0-2.8,5.74c-.84,2.07,7.77,2,10.36,1.88.48,0,1.25-1.65,1.73-1.45s-.22.9-.22.9,1-.54,1.32-.36,1.68,1.42.34,2.09S.89,30.78.14,29.29c-.56-1.13,1.49-5.79,2.46-7.88C3.1,21.43,3.75,21.41,4,21.77Z" transform="translate(0 0)" style="fill:#8595ba"/><g id="Groupe_10758" data-name="Groupe 10758"><path id="Tracé_22522" data-name="Tracé 22522" d="M29.12,10.7a8.27,8.27,0,0,1,4.18.45A5.8,5.8,0,0,1,35.68,14" transform="translate(0 0)" style="fill:none;stroke:#8595ba;stroke-linecap:round;stroke-linejoin:bevel;stroke-width:2px"/><path id="Tracé_22523" data-name="Tracé 22523" d="M20,10.7a8.24,8.24,0,0,0-4.17.45A5.8,5.8,0,0,0,13.44,14" transform="translate(0 0)" style="fill:none;stroke:#8595ba;stroke-linecap:round;stroke-linejoin:bevel;stroke-width:2px"/></g><g id="Groupe_10736" data-name="Groupe 10736"><g id="Groupe_10734" data-name="Groupe 10734"><g id="Groupe_29" data-name="Groupe 29"><path id="Tracé_97" data-name="Tracé 97" d="M34.29,18.7A3.26,3.26,0,1,1,31,15.44a3.26,3.26,0,0,1,3.26,3.26Z" transform="translate(0 0)" style="fill:none;stroke:#8595ba"/><path id="Tracé_98" data-name="Tracé 98" d="M32.28,19.91a1.29,1.29,0,1,1-2.57,0A1.28,1.28,0,0,1,31,18.63h0A1.29,1.29,0,0,1,32.28,19.91Z" transform="translate(0 0)" style="fill:#8595ba;stroke:#8595ba"/></g></g><g id="Groupe_10742" data-name="Groupe 10742"><g id="Groupe_29-2" data-name="Groupe 29-2"><path id="Tracé_97-2" data-name="Tracé 97-2" d="M21.42,18.7a3.26,3.26,0,1,1-3.26-3.26,3.26,3.26,0,0,1,3.26,3.26Z" transform="translate(0 0)" style="fill:none;stroke:#8595ba"/><path id="Tracé_98-2" data-name="Tracé 98-2" d="M19.41,19.91a1.29,1.29,0,1,1-2.57,0,1.28,1.28,0,0,1,1.28-1.28h0A1.28,1.28,0,0,1,19.41,19.91Z" transform="translate(0 0)" style="fill:#8595ba;stroke:#8595ba"/></g></g></g><path id="Tracé_22524" data-name="Tracé 22524" d="M37.58,15.38H26.63a.4.4,0,0,0-.24.07,3.05,3.05,0,0,0-3.5,0,.43.43,0,0,0-.25-.07h-11a.4.4,0,0,0-.43.37v0a.42.42,0,0,0,.39.43h.63v4.54a1.69,1.69,0,0,0,1.62,1.72h7.47A1.7,1.7,0,0,0,23,20.76V16.64l.05-.07a2,2,0,0,1,3.26.07v4.14a1.67,1.67,0,0,0,1.62,1.71H35.4A1.67,1.67,0,0,0,37,20.78V16.22h.6a.41.41,0,0,0,.43-.4.4.4,0,0,0-.39-.42h0a.11.11,0,0,0-.08,0Zm-16.2,6.26H13.91a.82.82,0,0,1-.75-.88V16.22h9v4.54a.83.83,0,0,1-.74.88Zm14.75-.88a.82.82,0,0,1-.75.88H27.91a.82.82,0,0,1-.74-.88V16.22h9Z" transform="translate(0 0)" style="fill:#8595ba"/></g><path id="Tracé_22527" data-name="Tracé 22527" d="M42.24,21.77l-.23.31a56.33,56.33,0,0,1,2.8,5.74c.84,2.07-7.77,2-10.36,1.88-.48,0-1.25-1.65-1.73-1.45s.22.9.22.9-1-.54-1.32-.36-1.68,1.42-.34,2.09,14.1-.1,14.85-1.59c.56-1.13-1.49-5.79-2.46-7.88C43.17,21.43,42.52,21.41,42.24,21.77Z" transform="translate(0 0)" style="fill:#8595ba"/></g></g></svg>