<svg xmlns="http://www.w3.org/2000/svg" width="42.105" height="54.908" viewBox="0 0 42.105 54.908"><defs><style>.a{fill:#d4d4d4;}.b{fill:#f5f5f5;}.c{fill:#e6e6e6;}.d{fill:#b8c4e0;}.e{fill:#9f9f9f;}.f{fill:#8595ba;}</style></defs><path class="a" d="M128.616,93.557H93.767a1.813,1.813,0,0,1-1.813-1.813V45.6a1.814,1.814,0,0,1,1.813-1.813h34.849a1.814,1.814,0,0,1,1.813,1.813V91.743A1.813,1.813,0,0,1,128.616,93.557Z" transform="translate(-88.323 -38.649)"/><path class="b" d="M97.663,49.774H62.814A1.813,1.813,0,0,1,61,47.961V1.814A1.814,1.814,0,0,1,62.814,0H97.663a1.814,1.814,0,0,1,1.813,1.813V47.96a1.813,1.813,0,0,1-1.813,1.814Z" transform="translate(-61 0)"/><path class="c" d="M358.143,0V49.774h1.815a1.814,1.814,0,0,0,1.815-1.812V1.812A1.814,1.814,0,0,0,359.958,0Z" transform="translate(-323.297)"/><path class="d" d="M120.085,123.144H113.8a.483.483,0,0,1-.483-.483v-6.282a.483.483,0,0,1,.483-.483h6.282a.483.483,0,0,1,.483.483v6.282A.483.483,0,0,1,120.085,123.144Z" transform="translate(-107.184 -102.304)"/><path class="d" d="M120.085,223.072H113.8a.483.483,0,0,1-.483-.483v-6.282a.483.483,0,0,1,.483-.483h6.282a.483.483,0,0,1,.483.483v6.282A.483.483,0,0,1,120.085,223.072Z" transform="translate(-107.184 -190.513)"/><path class="d" d="M120.085,323H113.8a.483.483,0,0,1-.483-.483v-6.282a.483.483,0,0,1,.483-.483h6.282a.483.483,0,0,1,.483.483v6.282A.483.483,0,0,1,120.085,323Z" transform="translate(-107.184 -278.722)"/><g transform="translate(16.975 14.161)"><path class="e" d="M206.628,122.517h14.5a.88.88,0,0,0,0-1.759h-14.5a.88.88,0,1,0,0,1.759Z" transform="translate(-205.748 -120.758)"/><path class="e" d="M221.125,153.724h-14.5a.88.88,0,1,0,0,1.759h14.5a.88.88,0,1,0,0-1.759Z" transform="translate(-205.748 -149.858)"/><path class="e" d="M221.125,220.686h-14.5a.88.88,0,1,0,0,1.759h14.5a.88.88,0,1,0,0-1.759Z" transform="translate(-205.748 -208.967)"/><path class="e" d="M221.125,253.651h-14.5a.88.88,0,1,0,0,1.759h14.5a.88.88,0,1,0,0-1.759Z" transform="translate(-205.748 -238.067)"/><path class="e" d="M221.125,320.612h-14.5a.88.88,0,1,0,0,1.759h14.5a.88.88,0,1,0,0-1.759Z" transform="translate(-205.748 -297.175)"/><path class="e" d="M221.125,353.578h-14.5a.88.88,0,1,0,0,1.759h14.5a.88.88,0,1,0,0-1.759Z" transform="translate(-205.748 -326.275)"/></g><path class="f" d="M156.315,40.8H139.643a2.114,2.114,0,0,1,0-4.228h16.672a2.114,2.114,0,1,1,0,4.228Z" transform="translate(-128.554 -32.283)"/><path class="f" d="M139.525,107.159a.88.88,0,0,0-1.24-.1l-4.31,3.679-.876-.949a.88.88,0,0,0-1.293,1.193l1.45,1.571a.88.88,0,0,0,1.217.072l4.953-4.228A.879.879,0,0,0,139.525,107.159Z" transform="translate(-123.297 -94.32)"/></svg>