<svg id="Calque_1" data-name="Calque 1" xmlns="http://www.w3.org/2000/svg" viewBox="0 0 21.31 23.63"><title>arrows</title><g id="arrows"><path id="Tracé_22623" data-name="Tracé 22623" d="M12.72,3.38V1.15a.23.23,0,0,0-.23-.23.2.2,0,0,0-.16.07L10,3.31a10.2,10.2,0,1,0,2.71.07ZM11.11,20.57A7.13,7.13,0,0,1,9.62,6.47l2.71,2.71A.23.23,0,0,0,12.72,9V6.49a7.13,7.13,0,0,1-1.61,14.08Z" transform="translate(0 0)" style="fill:#e6e7e8"/><path id="Tracé_22624" data-name="Tracé 22624" d="M11.57,2.66V.23L9.19,2.61a10,10,0,1,0,2.38.05ZM10.19,19.88A7.36,7.36,0,0,1,8.77,5.3l2.8,2.8V5.29a7.36,7.36,0,0,1-1.38,14.59Z" transform="translate(0 0)" style="fill:#fff"/><path id="Tracé_22625" data-name="Tracé 22625" d="M11.57,2.66V.23l-2.5,2.5a10,10,0,0,0,1.46,19.75,10,10,0,0,0,1-19.82Zm-.69,17.22h-.69A7.36,7.36,0,0,1,8.77,5.3l2.8,2.8V5.2a7.36,7.36,0,0,1-.69,14.69Z" transform="translate(0 0)" style="fill:#fa759e"/><g id="Groupe_10262" data-name="Groupe 10262"><path id="Tracé_22626" data-name="Tracé 22626" d="M14.12,18.47a5.77,5.77,0,0,1-.68.4.24.24,0,0,0-.1.31.22.22,0,0,0,.31.1h0c.25-.13.49-.27.73-.42a.24.24,0,0,0,0-.33.23.23,0,0,0-.3-.06Z" transform="translate(0 0)" style="fill:#3a2c60"/><path id="Tracé_22627" data-name="Tracé 22627" d="M11.8,2.46V.23A.23.23,0,0,0,11.57,0a.2.2,0,0,0-.16.07L9.08,2.39a10.2,10.2,0,1,0,2.72.07ZM10.19,22.25A9.73,9.73,0,0,1,8.54,2.93L7.48,4a.24.24,0,0,0,0,.33h0l.84.84a7.59,7.59,0,1,0,3.76,14.71,7.83,7.83,0,0,0,.78-.25.23.23,0,0,0,.14-.29.24.24,0,0,0-.3-.14h0a7.13,7.13,0,1,1-5-13.35,8.57,8.57,0,0,1,1-.3l2.71,2.71a.22.22,0,0,0,.32,0,.2.2,0,0,0,.07-.16V5.57a7.14,7.14,0,0,1,3,12.37.24.24,0,0,0,0,.33.25.25,0,0,0,.33,0A7.59,7.59,0,0,0,11.57,5.06h0a.23.23,0,0,0-.23.23V7.54L8,4.16,11.34.79V2.65a.23.23,0,0,0,.23.23h0a9.73,9.73,0,0,1-1.38,19.37Z" transform="translate(0 0)" style="fill:#3a2c60"/></g></g></svg>