<svg id="Calque_1" data-name="Calque 1" xmlns="http://www.w3.org/2000/svg" xmlns:xlink="http://www.w3.org/1999/xlink" viewBox="0 0 176.73 215.6"><defs><linearGradient id="Dégradé_sans_nom" x1="-5280.67" y1="3411.17" x2="-5280.67" y2="3410.17" gradientTransform="matrix(14.27, 20.35, 64.35, -45.1, -144102.75, 261491.13)" gradientUnits="userSpaceOnUse"><stop offset="0" stop-color="#fec36d"/><stop offset="1" stop-color="#fd8567"/></linearGradient><radialGradient id="Dégradé_sans_nom_2" cx="-4640.24" cy="1820.18" r="2.57" gradientTransform="matrix(3.75, 5.35, -1.39, 0.97, 20013.32, 22950.42)" gradientUnits="userSpaceOnUse"><stop offset="0.01" stop-color="#b8c4e0"/><stop offset="0.22" stop-color="#bec9e3"/><stop offset="0.49" stop-color="#ced7ea"/><stop offset="0.8" stop-color="#eaedf6"/><stop offset="1" stop-color="#fff"/></radialGradient><linearGradient id="Dégradé_sans_nom_3" x1="-5382.18" y1="3445.91" x2="-5381.15" y2="3445.91" gradientTransform="matrix(25.36, 36.18, 31.83, -22.31, 26966.58, 271702.19)" gradientUnits="userSpaceOnUse"><stop offset="0" stop-color="#0031ba"/><stop offset="1" stop-color="#0089f9"/></linearGradient><linearGradient id="Dégradé_sans_nom_4" x1="-5259.05" y1="3446.67" x2="-5259.97" y2="3446.16" gradientTransform="matrix(12.97, 18.5, 31.07, -21.78, -38787.42, 172454.2)" xlink:href="#Dégradé_sans_nom_3"/><linearGradient id="Dégradé_sans_nom_5" x1="-5381.66" y1="3446.41" x2="-5381.66" y2="3445.41" gradientTransform="matrix(25.36, 36.18, 31.83, -22.31, 26966.58, 271702.19)" gradientUnits="userSpaceOnUse"><stop offset="0" stop-color="#86f5bb"/><stop offset="1" stop-color="#8dd9ea"/></linearGradient></defs><title>rocketneo</title><g id="Groupe_11097" data-name="Groupe 11097"><g id="fusee"><g id="OBJECTS"><circle id="Ellipse_417" data-name="Ellipse 417" cx="51.72" cy="209.95" r="5.65" style="fill:#f3f6fe"/><path id="Tracé_21255" data-name="Tracé 21255" d="M30.28,166.37a2.65,2.65,0,0,1-3.67-.64,2.64,2.64,0,0,1,4.32-3h0A2.65,2.65,0,0,1,30.28,166.37Z" transform="translate(-5.59 -14.89)" style="fill:#f3f6fe"/><path id="Tracé_21256" data-name="Tracé 21256" d="M65,189.42c10-7,14.92-17.2,11-22.86s-15.25-4.48-25.22,2.51-39.13,42.59-39.13,42.59S55.11,196.34,65,189.42Z" transform="translate(-5.59 -14.89)" style="fill:url(#Dégradé_sans_nom)"/><path id="Tracé_21257" data-name="Tracé 21257" d="M70.59,146.24a49.4,49.4,0,0,0-9.18,11.19c1.17,9.76,8.74,20.55,17.41,25a48.75,48.75,0,0,0,13.82-4.78Z" transform="translate(-5.59 -14.89)" style="fill:#f3f6fe"/><path id="Tracé_21258" data-name="Tracé 21258" d="M66.85,150.09c.38,4.49,3,10.8,7.22,16.86,4.47,6.38,9.76,11.09,14.05,12.84a15.34,15.34,0,0,1,2.14-.89C79.91,172.67,71.05,160,68.82,148.1A26.42,26.42,0,0,0,66.85,150.09Z" transform="translate(-5.59 -14.89)" style="fill:url(#Dégradé_sans_nom_2)"/><g id="Groupe_9954" data-name="Groupe 9954"><path id="Tracé_21259" data-name="Tracé 21259" d="M104.45,193c3.59-3,4.53-5.79,4.41-8.15l-.32-3.3c.12,2.36-.82,5.17-4.41,8.15a1.77,1.77,0,0,0-.8,1.48l.32,3.3A1.77,1.77,0,0,1,104.45,193Z" transform="translate(-5.59 -14.89)" style="fill:#b8c4e0"/><path id="Tracé_21260" data-name="Tracé 21260" d="M117.21,168.14c11.73,13.24-9.56,27.71-10.69,28.5l-1.58-.73c-1.51-.63-1.65-1.91-.49-2.88,9.91-8.17.14-15.12-.43-15.49Z" transform="translate(-5.59 -14.89)" style="fill:#b8c4e0"/><path id="Tracé_21261" data-name="Tracé 21261" d="M120.44,172.32l-.14-.21v-.45l0-.18-.08-.55-.08-.11-.18-.48-.07-.1-.19-.48-.07-.11-.26-.58-.07-.1-.19-.49-2.23-3.19-.46-.44.32,3.3,2.09,3,.18.49.07.1.19.48.07.1.26.59.07.1.18.49.08.1c.07.1,0,.28.18.48l.07.11.09.55,0,.18v.45l0,.28Z" transform="translate(-5.59 -14.89)" style="fill:#b8c4e0"/><path id="Tracé_21262" data-name="Tracé 21262" d="M104,177.54l-.32-3.3L117,164.77l.22,3.37Z" transform="translate(-5.59 -14.89)" style="fill:#b8c4e0"/></g><g id="Groupe_9955" data-name="Groupe 9955"><path id="Tracé_21263" data-name="Tracé 21263" d="M58.13,126.93c4-2.36,7-2.29,9.16-1.36l3,1.42c-2.18-.92-5.14-1-9.16,1.37a1.81,1.81,0,0,1-1.67.25l-3-1.43A1.81,1.81,0,0,0,58.13,126.93Z" transform="translate(-5.59 -14.89)" style="fill:#b8c4e0"/><path id="Tracé_21264" data-name="Tracé 21264" d="M85.87,123.43c-8.44-15.55-29.3-.47-30.43.32l.15,1.74c.07,1.64,1.23,2.2,2.54,1.44,11.05-6.53,14.25,5,14.41,5.69Z" transform="translate(-5.59 -14.89)" style="fill:#b8c4e0"/><path id="Tracé_21265" data-name="Tracé 21265" d="M72.54,132.62l3,1.43L89,124.78l-3.1-1.35Z" transform="translate(-5.59 -14.89)" style="fill:#b8c4e0"/></g><path id="Tracé_21266" data-name="Tracé 21266" d="M122.41,172.93a81,81,0,0,1-26.24,9.81c-14.38-7.4-27.06-25.49-29-41.6a80.94,80.94,0,0,1,18.17-21.32c14.52-12.32,33-20.52,48.88-24.75,4.36-1.22,8.76-2.16,13.23-3,16.87-2.62,30.36-2,33.79-1a1.7,1.7,0,0,1,1.08,1.54c-.26,3.56-4.35,16.54-12.46,31.43a119.83,119.83,0,0,1-7.26,11.52C152.84,149,138.86,163.39,122.41,172.93Z" transform="translate(-5.59 -14.89)" style="fill:#f3f6fe"/><path id="Tracé_21267" data-name="Tracé 21267" d="M166.43,129.66q1.86-2.91,3.42-5.61c8.11-14.89,12.2-27.87,12.46-31.43a1.7,1.7,0,0,0-1.08-1.54c-3.43-1-17-1.55-33.72,1.1-2,.36-4.19.8-6.34,1.23C143.76,107.38,154.2,122.29,166.43,129.66Z" transform="translate(-5.59 -14.89)" style="fill:url(#Dégradé_sans_nom_3)"/><path id="Tracé_21268" data-name="Tracé 21268" d="M182.23,92.07a248.86,248.86,0,0,0-37.6,12.4A46.21,46.21,0,0,1,141,93.38c.66-.16,1.5-.28,2.15-.44s1.77-.32,2.71-.51a13.8,13.8,0,0,1,1.56-.18c16.79-2.72,30.39-2.13,33.82-1.17a1.29,1.29,0,0,1,.86.78Z" transform="translate(-5.59 -14.89)" style="fill:url(#Dégradé_sans_nom_4)"/><path id="Tracé_21269" data-name="Tracé 21269" d="M182.23,92.07a1.74,1.74,0,0,0-1-1c-3.43-1-17-1.55-33.72,1.1a108.62,108.62,0,0,0-13.23,3c-15.92,4.41-34.29,12.54-48.87,24.75a78,78,0,0,0-18.18,21.32,52.56,52.56,0,0,0,4.24,14.35C108.2,111.76,167.58,95.44,182.23,92.07Z" transform="translate(-5.59 -14.89)" style="fill:#b8c4e0;opacity:0.3799999952316284;isolation:isolate"/><path id="Tracé_21270" data-name="Tracé 21270" d="M100.42,128.87a65.43,65.43,0,0,1-5.19-16.14c.41-.29.75-.68,1.16-1h0a16.41,16.41,0,0,1,2-1.27,66.29,66.29,0,0,0,4.87,16.36h0Z" transform="translate(-5.59 -14.89)" style="fill:#0031ba;opacity:0.5299999713897705;isolation:isolate"/><path id="Tracé_21271" data-name="Tracé 21271" d="M93.54,134.15a68.5,68.5,0,0,1-5.3-16.52c1-.83,2.09-1.62,3.12-2.34l.1-.07a64.07,64.07,0,0,0,5,16.74A17.32,17.32,0,0,0,93.54,134.15Z" transform="translate(-5.59 -14.89)" style="fill:#0031ba;opacity:0.5299999713897705;isolation:isolate"/><path id="Tracé_21272" data-name="Tracé 21272" d="M31.2,150.4c1.33-.93,26.05-19,56.22-14.26l-2.19-2.92s-25.59-5.66-54.3,14.61Z" transform="translate(-5.59 -14.89)" style="fill:#b8c4e0"/><path id="Tracé_21273" data-name="Tracé 21273" d="M87.6,136.17c-30.17-4.77-55,13.4-56.33,14.33l2,.9a7.41,7.41,0,0,0,6.19-.36c14.52-8.8,33.18-3.17,34-2.84Z" transform="translate(-5.59 -14.89)" style="fill:#b8c4e0"/><path id="Tracé_21274" data-name="Tracé 21274" d="M73.92,211.36c1.34-.94,26.78-18,32.59-48l2,3.05s-3.4,26-32.26,46.06Z" transform="translate(-5.59 -14.89)" style="fill:#b8c4e0"/><path id="Tracé_21275" data-name="Tracé 21275" d="M106.61,163.31c-5.81,30-31.35,47.11-32.69,48.05l-.16-2.19a7.43,7.43,0,0,1,2.45-5.7c13.23-10.65,14.31-30.11,14.29-31Z" transform="translate(-5.59 -14.89)" style="fill:#b8c4e0"/><path id="Tracé_21276" data-name="Tracé 21276" d="M132.19,110.12c.65,7.06-3.56,16.14-9.42,20.25s-11,1.58-11.65-5.48,3.56-16.13,9.42-20.24S131.54,103.07,132.19,110.12Z" transform="translate(-5.59 -14.89)" style="fill:#b8c4e0"/><path id="Tracé_21277" data-name="Tracé 21277" d="M129.73,111.85a18.91,18.91,0,0,1-7.26,15.67c-4.53,3.17-8.51,1.2-9-4.29a18.88,18.88,0,0,1,7.25-15.66C125.27,104.4,129.25,106.36,129.73,111.85Z" transform="translate(-5.59 -14.89)" style="fill:#b8c4e0"/><path id="Tracé_21278" data-name="Tracé 21278" d="M129.06,117.68l-14.16-2.49a17.91,17.91,0,0,1,3.15-5.12l11.71,2.06A16.77,16.77,0,0,1,129.06,117.68Z" transform="translate(-5.59 -14.89)" style="fill:#b8c4e0"/><path id="Tracé_21279" data-name="Tracé 21279" d="M125.05,125.09,113.44,123a14.72,14.72,0,0,1,.71-5.55l14.16,2.49A22.23,22.23,0,0,1,125.05,125.09Z" transform="translate(-5.59 -14.89)" style="fill:#b8c4e0"/><path id="Tracé_21280" data-name="Tracé 21280" d="M125.68,131.24l1.34-.94a.77.77,0,0,0,.34-.39h0c.1-.07.23-.32.33-.39s.29-.31.45-.46l.51-.36.44-.46c.11-.08.14-.25.24-.32l.21-.15c.2-.14.23-.32.44-.46l.33-.39.21-.14.24-.32a1,1,0,0,0,.26-.5.47.47,0,0,1,.24-.31h0l.11-.08c.13-.25.23-.32.26-.49s.24-.32.37-.57l.21-.14c0-.18.13-.25.26-.5l.3-.67.14-.24.1-.07.27-.5a3.06,3.06,0,0,0,.33-.84.13.13,0,0,0,0-.17h0l.38-1.19h0c.14-.25.1-.53.23-.77a1.62,1.62,0,0,0,.19-.6h0l.2-.6.12-.69,0-.18,0-.17.06-.35.13-.7,0-.17,0-.18.06-.35,0-.63.06-.35,0-.17,0-.18,0-.62V113l-.08-.11-.08-.55-.08-.55-.07-.11v-.47l-.08-.55,0-.28-.14-.2c0-.18,0-.28-.08-.56l-.19-.48-.14-.21,0-.28-.19-.48.07.1-.18-.48-.94-1.34-.46-.44-.07-.1c-.15-.21-.32-.24-.47-.44l-.14-.21-.74-.4h0l-2.68-1.19.74.4.08.1c.24.14.39.34.63.48l.08.1c.14.2.39.34.6.65l.29.41c.15.2.26.58.4.79l.07.1c.12.38.26.59.37,1l.07.11.34,1.14.08.1a5,5,0,0,1,.13,1.29l0,1.35h0a6.64,6.64,0,0,1,0,1.26l0,.17a6,6,0,0,1-.15,1.33l0,.17-.21,1.23,0,.17a3.92,3.92,0,0,0-.25,1.39h0c-.16.43-.25.95-.42,1.37h0l-.49,1.27-.33.84c-.14.25-.17.42-.3.67l-.13.24a7.29,7.29,0,0,1-.54,1l-.1.07c-.16.42-.5.81-.67,1.24h0c-.23.31-.5.81-.74,1.13l-.41.28a9.93,9.93,0,0,0-.84,1.2l-.1.08c-.24.31-.58.71-.82,1l-.1.08c-.23.32-.65.6-.88.92h0c-.31.22-.65.61-1,.83l-2.27,1.59c-.31.21-.69.33-.89.47l-.1.07a1.93,1.93,0,0,1-.87.3l-.1.07a1.82,1.82,0,0,0-.76.23l-.1.07a6.91,6.91,0,0,1-1,.1l-.17,0a1,1,0,0,1-.7-.13l-.28,0-.52-.09-.18,0a2.29,2.29,0,0,0-.77-.23h0l2.57,1.27a2.07,2.07,0,0,0,.77.22l.18,0,.52.09.28,0a3,3,0,0,0,.73-.06l.18,0h0l.83-.12h0l.1-.07c.18,0,.38-.12.56-.08s.17,0,.27,0a.14.14,0,0,1,.18,0h0l.1-.08.48-.18.52-.36a.7.7,0,0,1,.48-.18.18.18,0,0,0,.2-.14h0l1-.72h0Z" transform="translate(-5.59 -14.89)" style="fill:#b8c4e0"/><path id="Tracé_21281" data-name="Tracé 21281" d="M129.06,117.68l-14.16-2.49a17.91,17.91,0,0,1,3.15-5.12l11.71,2.06A16.77,16.77,0,0,1,129.06,117.68Z" transform="translate(-5.59 -14.89)" style="fill:#f3f6fe"/><path id="Tracé_21282" data-name="Tracé 21282" d="M125.05,125.09,113.44,123a14.72,14.72,0,0,1,.71-5.55l14.16,2.49A22.23,22.23,0,0,1,125.05,125.09Z" transform="translate(-5.59 -14.89)" style="fill:#f3f6fe"/><path id="Tracé_21283" data-name="Tracé 21283" d="M166.43,129.66q1.86-2.91,3.42-5.61c8.11-14.89,12.2-27.87,12.46-31.43a1.7,1.7,0,0,0-1.08-1.54c-3.43-1-17-1.55-33.72,1.1-2,.36-4.19.8-6.34,1.23C143.76,107.38,154.2,122.29,166.43,129.66Z" transform="translate(-5.59 -14.89)" style="opacity:0.8059999942779541;isolation:isolate;fill:url(#Dégradé_sans_nom_5)"/><path id="Tracé_21284" data-name="Tracé 21284" d="M182.23,92.07a248.86,248.86,0,0,0-37.6,12.4A46.21,46.21,0,0,1,141,93.38c.66-.16,1.5-.28,2.15-.44s1.77-.32,2.71-.51a13.8,13.8,0,0,1,1.56-.18c16.79-2.72,30.39-2.13,33.82-1.17a1.29,1.29,0,0,1,.86.78Z" transform="translate(-5.59 -14.89)" style="fill:#19a2ed;opacity:0.0010000000474974513;isolation:isolate"/><path id="Tracé_21285" data-name="Tracé 21285" d="M126.15,170.62c1.13-.8,2.33-1.49,3.36-2.21-9.2-4.58-18.06-12.63-25.26-22.91-6.92-9.87-11.35-20.56-12.69-30.36-1.13.8-2.08,1.62-3.21,2.41C91.89,138.36,107.81,160.63,126.15,170.62Z" transform="translate(-5.59 -14.89)" style="fill:#b8c4e0"/><path id="Tracé_21286" data-name="Tracé 21286" d="M133.14,165.72c1.13-.8,2.33-1.48,3.36-2.21-9.2-4.58-18.16-12.56-25.36-22.84-6.92-9.87-11.35-20.56-12.69-30.35-1.13.79-2.09,1.61-3.22,2.41C99,133.39,114.9,155.66,133.14,165.72Z" transform="translate(-5.59 -14.89)" style="fill:#b8c4e0"/><g id="Groupe_9957" data-name="Groupe 9957" style="opacity:0.5299999713897705"><g id="Groupe_9956" data-name="Groupe 9956" style="opacity:0.4000000059604645"><path id="Tracé_21287" data-name="Tracé 21287" d="M93.54,134.15a68.5,68.5,0,0,1-5.3-16.52c1-.83,2.09-1.62,3.12-2.34l.1-.07a64.07,64.07,0,0,0,5,16.74A17.32,17.32,0,0,0,93.54,134.15Z" transform="translate(-5.59 -14.89)" style="fill:#0031ba"/></g><path id="Tracé_21288" data-name="Tracé 21288" d="M100.41,128.87a66,66,0,0,1-5.18-16.14c.41-.29.75-.68,1.16-1h0c.72-.5,1.27-1,2-1.54l.14.2a66.72,66.72,0,0,0,4.87,16.36h0Z" transform="translate(-5.59 -14.89)" style="fill:#0031ba;opacity:0.4000000059604645;isolation:isolate"/></g></g></g><g id="Groupe_11096" data-name="Groupe 11096"><g id="Groupe_10811" data-name="Groupe 10811"><g id="Groupe_10788" data-name="Groupe 10788"><g id="Groupe_10778" data-name="Groupe 10778"><g id="Groupe_10774" data-name="Groupe 10774"><path id="Tracé_22528" data-name="Tracé 22528" d="M135.3,59.45a8.56,8.56,0,0,1,.94-.63,158.07,158.07,0,0,0,16.62,8.06c6,2.43,5.82-22.46,5.45-30-.07-1.43-4.81-3.63-4.18-5s2.56.64,2.56.64-1.54-2.85-1.05-3.81,4.1-4.85,6-1-.23,40.8-4.54,42.92c-3.31,1.63-16.76-4.29-22.83-7.13C134.32,62.12,134.28,60.25,135.3,59.45Z" transform="translate(-5.59 -14.89)" style="fill:#8595ba"/></g><g id="Groupe_10740" data-name="Groupe 10740"><g id="Groupe_10740-2" data-name="Groupe 10740-2"><g id="Groupe_10738" data-name="Groupe 10738"><g id="Groupe_34" data-name="Groupe 34"><g id="Groupe_25" data-name="Groupe 25"><path id="Tracé_87" data-name="Tracé 87" d="M70.21,105.89S89,115.24,93,133c2.71,12.07-10.41,21.53-9.41,22.05,2.38,1.25,5.74,1,8.53,3.74S73.73,163.4,70.9,162c-1.25-.62,20.91-13.22,17.2-27.81-4.44-17.46-23.8-26.72-23.8-26.72Z" transform="translate(-5.59 -14.89)" style="fill:#8595ba"/></g><g id="Groupe_27" data-name="Groupe 27"><path id="Tracé_89" data-name="Tracé 89" d="M127.41,101.15c1.61.22,6.94.64,10.21-2.94,3.88-4.26,2.93-7.82,2.93-7.82a14.13,14.13,0,0,0,12.82-6.85c4.95-7.75-1.25-18.91-1.25-18.91s5.29-4.84,2.81-11.23c-4-10.33-15-8-15-8s1.21-9-6.3-13-15-.59-15-.59.34-4.71-4.11-6.33-7,.75-7,.75-1.64-8.7-10.17-9.52C89.18,15.92,84.05,22,84.05,22s-6-3.8-12.54-1.06a21.75,21.75,0,0,0-9.34,7.12,12.36,12.36,0,0,0-12.32.5,11.15,11.15,0,0,0-5.56,10.73S31.36,39.15,27,49.15s.69,16,.69,16S16.47,66.62,15.86,77.83A18.84,18.84,0,0,0,23.3,94.31s-6.45,11.17-.14,19.72,14.75,4.13,14.75,4.13a10.26,10.26,0,0,0,11.92,6.19c9-1.79,11.85-6,11.85-6s9.39,4.3,16.69,1.55,9.3-6.51,9.3-6.51,8.21,2.15,15.07,0,11.24-8.3,11.24-8.3a7.68,7.68,0,0,0,7.84,1.51C126.35,104.93,127.11,101.11,127.41,101.15Z" transform="translate(-5.59 -14.89)" style="fill:#f3f6fe"/><g id="Groupe_26" data-name="Groupe 26"><path id="Tracé_90" data-name="Tracé 90" d="M156.56,52.76c-3.07-7.9-10.14-9.6-14.82-9.37-.1-3.25-1.17-9.26-7.28-12.53a19.61,19.61,0,0,0-14.26-1.43l-.1,0a7.79,7.79,0,0,0-5-5.62,9.68,9.68,0,0,0-5.68-.55,11.29,11.29,0,0,0-2-2.79,14,14,0,0,0-10-5.52,16.66,16.66,0,0,0-5.92.49,18.48,18.48,0,0,0-5.29,2.41.05.05,0,0,0,0,0l-.38.25-.2.15h0a18.91,18.91,0,0,0-1.91,1.54,16.44,16.44,0,0,0-11-1.16,15.12,15.12,0,0,0-1.86.64,24.74,24.74,0,0,0-9.18,6.57,14.07,14.07,0,0,0-8.81-.51,15.1,15.1,0,0,0-3.9,1.67A12.83,12.83,0,0,0,42.5,37.66c-3.84.45-12.84,2.43-16.58,11-2.5,5.75-2.35,10-1.61,12.81v0a10.27,10.27,0,0,0,.59,1.72c-3.56,1.41-10.28,5.27-10.79,14.47a20.69,20.69,0,0,0,6.88,17,4,4,0,0,0-.23.47,1.71,1.71,0,0,0-.15.71c-1.66,4-4,12.26,1.14,19.18,4.59,6.22,10.26,5.81,13.23,5a14.07,14.07,0,0,0,2-.69c1.9,3.63,6.21,8.09,13.21,6.68.74-.15,1.47-.32,2.17-.51a22,22,0,0,0,9.81-5.11c2.69,1,9.4,3.17,15.44,1.55.48-.12,1-.28,1.4-.44a23.8,23.8,0,0,0,8.56-5.24,5.63,5.63,0,0,0,1-.93c2.57.51,8.57,1.4,14.07-.07l.68-.2a25.08,25.08,0,0,0,11-7.54,5.34,5.34,0,0,0,.75.39l.16,0a9,9,0,0,0,6.3.6h0c.32-.09.64-.19,1-.31a10.86,10.86,0,0,0,5.94-5.29,16.34,16.34,0,0,0,5.21-.48,10.92,10.92,0,0,0,5.33-3.14,12.26,12.26,0,0,0,3.45-7.26,15.45,15.45,0,0,0,2.94-.5,16.15,16.15,0,0,0,9.54-7.15c4.53-7.08.9-16.34-.62-19.55C155.83,63,158.76,58.44,156.56,52.76ZM151.24,63c-1,0-2.16,0-3.59,0a6.87,6.87,0,0,0-6.23,3.55,5.89,5.89,0,0,0,.48,6.14,5,5,0,0,0,5.72,1.87A8.25,8.25,0,0,0,150,73.49a1.58,1.58,0,0,0-1.76-2.62c-.11.07-2.6,1.72-3.79,0a2.79,2.79,0,0,1-.26-2.89,3.75,3.75,0,0,1,3.47-1.82c1.29,0,2.36,0,3.25,0,1.17,2.45,4.61,10.67.94,16.4a12.59,12.59,0,0,1-7.49,5.66,11.79,11.79,0,0,1-3.49.41l-4.61-5A1.74,1.74,0,1,0,133.73,86l5.17,5.65A8.54,8.54,0,0,1,136.32,97a7.28,7.28,0,0,1-3.65,2.12,13.27,13.27,0,0,1-5,.27l-.37,0-.34.09a2.25,2.25,0,0,0-1.42,1.43,7.58,7.58,0,0,1-4.34,4.14,4.82,4.82,0,0,1-.61.2h0a5.81,5.81,0,0,1-5-1,5.59,5.59,0,0,1-1.66-3,2.85,2.85,0,0,1,.64-2.64c1.83-1.82,3.15-1,3.53-.76a1.75,1.75,0,0,0,2.25-2.67c-1.36-1.16-4.82-2.46-8.24,1a6.22,6.22,0,0,0-1.6,5.78,8.89,8.89,0,0,0,1.31,3.18,21.72,21.72,0,0,1-9.57,6.7c-4.47,1.37-9.64.78-12.31.31h0c.33-2.63-.71-5.6-3-8.34-3.43-4.2-8.56-2.66-10.8-1.25a1.74,1.74,0,1,0,1.78,3l.08,0c.16-.09,3.88-2.38,6.24.5,1.61,2,2.41,4,2.2,5.7a3.22,3.22,0,0,1-.13.6l-.18.32s-1.92,3.28-8.39,5.72a10.28,10.28,0,0,1-1.07.35c-5.07,1.36-11.05-.6-13.32-1.46l-1-5.23a1.75,1.75,0,0,0-3.44.62l.94,5.19c-.84.87-3.33,3.06-8.47,4.44-.63.17-1.29.32-1.95.45-7.11,1.43-9.76-5.49-10-6.16a4.77,4.77,0,0,1,1.5-4.36,3.78,3.78,0,0,1,2.07-1.21.29.29,0,0,1-.13,0l.49-3.45c-.37,0-2.31-.19-4.8,2.11A8.14,8.14,0,0,0,36,116a11.48,11.48,0,0,1-1.88.7c-3.75,1-6.95-.25-9.51-3.71-5.3-7.18-.3-16.82.2-17.74a9,9,0,0,1,5-3.39,5.39,5.39,0,0,1,5.75,1.92,1.73,1.73,0,0,0,1.89.71,1.62,1.62,0,0,0,.52-.23,1.75,1.75,0,0,0,.49-2.42,8.85,8.85,0,0,0-9.49-3.37,12.06,12.06,0,0,0-5.86,3.4,17.4,17.4,0,0,1-5.46-14c.42-7.82,6.63-10.75,9.2-11.64a8.36,8.36,0,0,0,7.55,2.85,8.68,8.68,0,0,0,1.33-.26c4.43-1.19,6.3-5.35,6.68-7.57a1.75,1.75,0,0,0-3.45-.59c0,.18-.85,4.46-5,4.95a5,5,0,0,1-4-1.23l-1.09-1.31a1.24,1.24,0,0,1-.17-.22,8.54,8.54,0,0,1-.93-2.15,1.42,1.42,0,0,1-.05-.16c-.55-2.12-.68-5.58,1.46-10.5,3.32-7.64,12.08-8.85,14.53-9l3.81,4.7a1.76,1.76,0,0,0,1.82.59,1.78,1.78,0,0,0,.64-.33,1.75,1.75,0,0,0,.26-2.45l-4.11-5.08L46,38.4A9.43,9.43,0,0,1,50.76,30a11.66,11.66,0,0,1,3-1.29,10.6,10.6,0,0,1,7.52.8l.48.29a4.8,4.8,0,0,1,1.87,4.39,3.93,3.93,0,0,1-2.91,3.34A1.74,1.74,0,0,0,61.29,41a2.74,2.74,0,0,0,.39-.09,7.42,7.42,0,0,0,5.37-6,7.9,7.9,0,0,0-2.41-7.12,21.53,21.53,0,0,1,7.55-5.24,11.7,11.7,0,0,1,1.41-.48,12.88,12.88,0,0,1,8.19.76,8.22,8.22,0,0,0-.84,4,7.12,7.12,0,0,0,7,7,1.52,1.52,0,0,0,.42-.06,1.75,1.75,0,0,0-.48-3.43,3.63,3.63,0,0,1-3.44-3.71c-.14-3.05,2.93-5.3,3.52-5.71a15.12,15.12,0,0,1,4.52-2.09,13.18,13.18,0,0,1,4.68-.39,10.61,10.61,0,0,1,7.52,4.15l.09.11a12.88,12.88,0,0,1,1.92,3.53l.73,2.85c.1,2.55-1.15,2.89-1.72,3.05A3.72,3.72,0,0,1,103.6,32,1.75,1.75,0,1,0,102,35.14l.22.09a7.19,7.19,0,0,0,4.35.27c1.53-.41,5-2,4.19-7.91q-.07-.51-.18-1a7,7,0,0,1,3.31.51,4.57,4.57,0,0,1,3,4.56l-.21,2.91,2.67-1.19a13.79,13.79,0,0,1,1.78-.6,16.15,16.15,0,0,1,11.7,1.15c5.56,3,5.53,9.15,5.42,10.79-.08.43-1.14,5.86-4.39,6.89a2.4,2.4,0,0,1-1.84.08,1.67,1.67,0,0,1-.47-1.07,1.75,1.75,0,0,0-1.79-1.7,1.73,1.73,0,0,0-1.7,1.79A5.09,5.09,0,0,0,130,54.54a5.19,5.19,0,0,0,4.5.54l.43-.13c3.93-1.25,5.69-5.58,6.39-8,2.55-.25,9.21-.14,12,7.09,1.72,4.43-1.11,8-2.06,9Z" transform="translate(-5.59 -14.89)" style="fill:#b8c4e0"/><path id="Tracé_91" data-name="Tracé 91" d="M117.94,47.93a10.06,10.06,0,0,0-4.61-8.06c-7.19-5.09-15-1.43-19.54,2.26A12.24,12.24,0,0,0,83.38,35.3c-6.75-.46-10.4,5-11.93,8.12A16,16,0,0,0,59,42.36c-3.95,1.15-6.91,5.13-7.2,9.7a9.19,9.19,0,0,0,5.61,9.41,10.69,10.69,0,0,0,13.6-4,1.75,1.75,0,0,0-3-1.85,7.17,7.17,0,0,1-9.24,2.67,5.83,5.83,0,0,1-3.52-6c.2-3.07,2.17-5.83,4.69-6.56,7-2,10.9,1.48,11.06,1.62a1.74,1.74,0,0,0,2.47-.08,1.78,1.78,0,0,0,.39-.66c0-.09,2.71-8.26,9.25-7.82a8.89,8.89,0,0,1,8.2,6.76,1.74,1.74,0,0,0,2.06,1.36,1.81,1.81,0,0,0,.92-.52c.36-.38,8.93-9.35,17-3.66a6.68,6.68,0,0,1,3.14,5.33,7.15,7.15,0,0,1-2.18,5.39c-1.94,1.58-5.09.86-5.11.85a1.75,1.75,0,0,0-.83,3.4,12,12,0,0,0,4.46.09,8,8,0,0,0,3.69-1.64A10.65,10.65,0,0,0,117.94,47.93Z" transform="translate(-5.59 -14.89)" style="fill:#b8c4e0"/><path id="Tracé_92" data-name="Tracé 92" d="M51.07,91.27A8.09,8.09,0,0,0,49.51,87h0a9,9,0,0,0,2.75-1.26,8,8,0,0,0,3.42-6.84,11,11,0,0,0-4.34-8.88c-4.09-2.84-8.68-.63-10.53.94a1.75,1.75,0,0,0,2.25,2.67s3.35-2.79,6.29-.75a7.57,7.57,0,0,1,2.84,6,4.63,4.63,0,0,1-1.89,4,6.76,6.76,0,0,1-5.3.76,14.64,14.64,0,0,0-2.31-.79l-.21-.11a1.75,1.75,0,1,0-1.71,3h0s.28.15.66.32h0a14.42,14.42,0,0,0,2.47.85c1.57.75,3.47,2.14,3.66,4.56.3,3.88-2.38,4.8-2.7,4.9a1.75,1.75,0,1,0,.92,3.37C47.81,99.26,51.5,96.79,51.07,91.27Z" transform="translate(-5.59 -14.89)" style="fill:#b8c4e0"/><path id="Tracé_93" data-name="Tracé 93" d="M59.74,96.33a10.42,10.42,0,0,0-7.24,8.56,1.75,1.75,0,0,0,3.47.41v0a7,7,0,0,1,4.79-5.59c3.67-1.11,5.18,2.94,5.33,3.39a1.75,1.75,0,0,0,2.11,1.13.38.38,0,0,0,.1,0A1.74,1.74,0,0,0,69.4,102C68.5,99.27,65.34,94.64,59.74,96.33Z" transform="translate(-5.59 -14.89)" style="fill:#b8c4e0"/><path id="Tracé_94" data-name="Tracé 94" d="M130.58,62.78c-3.32-1.55-7.23.22-7.4.3A1.59,1.59,0,0,0,124.52,66s2.75-1.22,4.71-.3a4,4,0,0,1,2,2.78,4.83,4.83,0,0,1-.3,3.9,5.46,5.46,0,0,1-3.24,2.07,1.58,1.58,0,0,0-1.12,2.34c.32.58,1.12,2.54.62,3.87a2.41,2.41,0,0,1-1.6,1.35,3.37,3.37,0,0,1-2.83,0,4.07,4.07,0,0,1-1.63-2.53A1.59,1.59,0,1,0,118,80h0a7.28,7.28,0,0,0,3.14,4.7,6.09,6.09,0,0,0,4.76.47l.75-.24a5.48,5.48,0,0,0,3.51-3.22,7.35,7.35,0,0,0-.08-4.79,7.3,7.3,0,0,0,4.22-9.33A7,7,0,0,0,130.58,62.78Z" transform="translate(-5.59 -14.89)" style="fill:#b8c4e0"/></g></g></g></g></g></g><g id="Groupe_10805" data-name="Groupe 10805"><path id="Tracé_22522" data-name="Tracé 22522" d="M96.72,50.25s6.84-3,12.1-1.92,8.94,6.33,8.94,6.33" transform="translate(-5.59 -14.89)" style="fill:none;stroke:#8595ba;stroke-linecap:round;stroke-linejoin:bevel;stroke-width:4px"/><path id="Tracé_22523" data-name="Tracé 22523" d="M70.92,57.17s-7.44.81-11.44,4.39-4.57,10-4.57,10" transform="translate(-5.59 -14.89)" style="fill:none;stroke:#8595ba;stroke-linecap:round;stroke-linejoin:bevel;stroke-width:4px"/></g><g id="Groupe_24" data-name="Groupe 24"><path id="Tracé_53" data-name="Tracé 53" d="M82.77,82.88l0-.34c0-.1,0-.24-.06-.39s0-.16,0-.26-.06-.2-.09-.31-.13-.47-.22-.73A8.64,8.64,0,0,0,82,80c-.13-.29-.31-.57-.47-.88a10.2,10.2,0,0,0-.64-.92c-.25-.3-.52-.61-.82-.92a10.17,10.17,0,0,0-3.54-2.23l-.72-.24c-.24-.08-.5-.12-.75-.18l-.39-.08-.39,0c-.26,0-.53-.07-.79-.08a10.79,10.79,0,0,0-1.61.06,4.5,4.5,0,0,0-.81.11l-.39.09-.2,0-.1,0,0,0h0s.08,0-.1,0l-.66.21-.16,0-.18.07-.4.18a5.56,5.56,0,0,0-.78.37l-.69.4c-.22.14-.43.31-.65.46l-.31.24-.29.27a7,7,0,0,0-.56.53c-.18.19-.34.38-.51.57a10.13,10.13,0,0,0-1.5,2.46,10.73,10.73,0,0,0-.44,1.24,11.69,11.69,0,0,0-.25,1.2,9.18,9.18,0,0,0-.09,1.12c0,.35,0,.69,0,1s.07.61.11.87.12.5.17.71l.08.31c0,.09.07.17.1.26s.11.29.15.4l.14.33a.68.68,0,0,0,.89.37.67.67,0,0,0,.42-.64v-.39c0-.29,0-.58,0-.86l0-.6c0-.22.06-.45.09-.69s.12-.5.17-.77.17-.53.25-.81.22-.57.36-.85a8.68,8.68,0,0,1,.46-.85,9.38,9.38,0,0,1,1.27-1.61,9.75,9.75,0,0,1,1.7-1.31l.49-.25a1,1,0,0,1,.23-.11l.23-.1.22-.1.14-.05.16,0,.65-.21a.77.77,0,1,0-.47-1.47.78.78,0,0,0-.5,1,.77.77,0,0,0,.9.51h.05l.07,0,.14,0,.27-.06a5.07,5.07,0,0,1,.54-.09c.19,0,.37-.06.55-.06l.55,0a9,9,0,0,1,2.13.29,8.67,8.67,0,0,1,1.9.76,7.61,7.61,0,0,1,.83.5c.26.18.5.38.73.56s.44.38.63.58.37.39.52.58.29.38.43.55l.32.47.14.21a2.39,2.39,0,0,1,.12.22l.19.35c.1.2.16.3.16.3a.69.69,0,0,0,1.29-.42Z" transform="translate(-5.59 -14.89)" style="fill:#8595ba"/><path id="Tracé_54" data-name="Tracé 54" d="M118.34,73.34s0-.12,0-.33,0-.24-.06-.4,0-.16,0-.25a2.14,2.14,0,0,0-.08-.32c-.06-.22-.13-.47-.22-.73a8.64,8.64,0,0,0-.33-.81c-.13-.28-.31-.57-.48-.88s-.41-.6-.63-.92-.52-.61-.82-.91a10.35,10.35,0,0,0-3.54-2.24l-.72-.24c-.25-.08-.5-.12-.76-.18l-.38-.08-.39,0-.79-.08a10.79,10.79,0,0,0-1.61.06,7.5,7.5,0,0,0-.81.11l-.39.09-.2,0-.1,0h-.08l-.1,0-.66.2-.16.06-.18.07-.4.17a7,7,0,0,0-.78.37l-.69.4c-.23.14-.44.31-.65.46l-.31.25-.29.26c-.19.18-.39.34-.56.53s-.34.38-.51.57a10.39,10.39,0,0,0-1.94,3.71c-.11.41-.19.81-.26,1.2s-.09.76-.09,1.11,0,.69,0,1,.07.6.11.86.12.5.17.72l.08.3c0,.09.07.18.1.26l.15.4.14.33a.67.67,0,0,0,.89.37.66.66,0,0,0,.42-.63v-.4c0-.2,0-.49,0-.86l0-.6c0-.22.06-.45.09-.69s.12-.5.17-.77.17-.53.25-.81.22-.56.36-.85.29-.57.46-.85a8.77,8.77,0,0,1,3-2.92l.49-.25a1,1,0,0,1,.23-.11l.23-.1.22-.1.14,0,.16,0,.65-.2a.78.78,0,1,0-.48-1.48.78.78,0,0,0,.4,1.5h.06l.07,0,.14,0,.27-.06a3.35,3.35,0,0,1,.54-.08,3.55,3.55,0,0,1,.55-.06l.55,0a9,9,0,0,1,2.13.28A9.62,9.62,0,0,1,113.81,70c.26.18.49.37.73.55s.44.39.63.58.37.39.52.58.29.38.43.55l.32.48.14.2c0,.07.08.16.12.22l.19.36.16.29a.69.69,0,0,0,1.29-.42Z" transform="translate(-5.59 -14.89)" style="fill:#8595ba"/></g><g id="Groupe_23" data-name="Groupe 23"><g id="Groupe_22" data-name="Groupe 22"><path id="Tracé_51" data-name="Tracé 51" d="M106,87.48a6.89,6.89,0,0,1-1,5.46,13.35,13.35,0,0,1-4.47,4.31,19.25,19.25,0,0,1-5,2.14,18.88,18.88,0,0,1-5.44.67,13.47,13.47,0,0,1-6-1.49,7,7,0,0,1-3.58-4.24c-.92-3.42,2.54-2.67,7.21-2.74a20.16,20.16,0,0,0,10.71-2.88C102.51,86.44,105.13,84.06,106,87.48Z" transform="translate(-5.59 -14.89)" style="fill:#8595ba"/></g><path id="Tracé_52" data-name="Tracé 52" d="M100.41,96.6a19.46,19.46,0,0,1-10.47,2.81,5.48,5.48,0,0,1,10.47-2.81Z" transform="translate(-5.59 -14.89)" style="fill:#f3f6fe"/></g><g id="Groupe_10775" data-name="Groupe 10775"><path id="Tracé_22528-2" data-name="Tracé 22528-2" d="M23.89,93.1a8.37,8.37,0,0,1,.26,1.1,157.72,157.72,0,0,0-13.48,12.63c-4.42,4.73,18.89,13.47,26,15.83,1.36.45,5.12-3.19,6.18-2.11s-1.51,2.16-1.51,2.16,3.22-.41,3.93.39,3.07,5.57-1.26,6S6,114.25,5.6,109.47c-.34-3.68,10-14.12,14.84-18.77C21.76,91.23,23.51,91.85,23.89,93.1Z" transform="translate(-5.59 -14.89)" style="fill:#8595ba"/></g></g></g></g></g></g></svg>