<svg id="Calque_1" data-name="Calque 1" xmlns="http://www.w3.org/2000/svg" viewBox="0 0 29.08 29.06"><title>key (1)</title><g id="key"><path id="Tracé_23026" data-name="Tracé 23026" d="M29.07,1a1,1,0,0,0-1-1H23.15a.57.57,0,0,0-.36.2L11.91,11.08A9.2,9.2,0,1,0,18,17.15l1.09-1.08a.38.38,0,0,0,.09-.25l-.25-2.66a.32.32,0,0,1,.28-.34h.06l2.43.23a.32.32,0,0,0,.34-.29v0l-.23-2.44a.31.31,0,0,1,.29-.33h.05l2.44.22a.33.33,0,0,0,.34-.29.11.11,0,0,0,0,0l-.22-2.44A.3.3,0,0,1,25,7.05H25l2.68.24a.34.34,0,0,0,.24-.09l1-1a.5.5,0,0,0,.14-.35ZM8.33,24.2a2.45,2.45,0,1,1,0-3.47h0a2.47,2.47,0,0,1,0,3.47Z" transform="translate(0 0)" style="fill:#f29c1f"/><path id="Tracé_23027" data-name="Tracé 23027" d="M28.71.24,8.27,20.68a2.44,2.44,0,0,0-3.46,3.45L2.64,26.31A9.29,9.29,0,0,1,2,25.57a9.19,9.19,0,0,1,9.92-14.49L22.79.2a.57.57,0,0,1,.36-.2h4.91a1,1,0,0,1,.65.23Z" transform="translate(0 0)" style="fill:#f0c419"/><g id="Groupe_11236" data-name="Groupe 11236"><path id="Tracé_23028" data-name="Tracé 23028" d="M14,13a.51.51,0,0,1-.36-.86l7.8-7.8a.51.51,0,0,1,.71,0,.5.5,0,0,1,0,.71l-7.8,7.8A.47.47,0,0,1,14,13Z" transform="translate(0 0)" style="fill:#fff"/><path id="Tracé_23029" data-name="Tracé 23029" d="M23.57,3.49a.5.5,0,0,0-.5-.5.5.5,0,0,0-.5.5.5.5,0,0,0,.5.5A.51.51,0,0,0,23.57,3.49Z" transform="translate(0 0)" style="fill:#fff"/></g></g></svg>