<svg xmlns="http://www.w3.org/2000/svg" width="17.965" height="15.789" viewBox="0 0 17.965 15.789"><path d="M17.442,2.105H12.667V1.579A1.581,1.581,0,0,0,11.088,0H6.877A1.581,1.581,0,0,0,5.3,1.579v.526H.526A.528.528,0,0,0,0,2.632V14.21a1.581,1.581,0,0,0,1.579,1.579H16.386a1.581,1.581,0,0,0,1.579-1.579V2.641A.511.511,0,0,0,17.442,2.105ZM6.351,1.579a.527.527,0,0,1,.526-.526h4.211a.527.527,0,0,1,.526.526v.526H6.351ZM16.708,3.158l-1.634,4.9a.525.525,0,0,1-.5.36H11.614V7.895a.526.526,0,0,0-.526-.526H6.877a.526.526,0,0,0-.526.526v.526H3.39a.525.525,0,0,1-.5-.36l-1.634-4.9ZM10.561,8.421V9.474H7.4V8.421Zm6.351,5.789a.527.527,0,0,1-.526.526H1.579a.527.527,0,0,1-.526-.526V5.875l.84,2.519a1.577,1.577,0,0,0,1.5,1.08H6.351V10a.526.526,0,0,0,.526.526h4.211A.526.526,0,0,0,11.614,10V9.474h2.961a1.577,1.577,0,0,0,1.5-1.08l.84-2.519Zm0,0"/></svg>