<svg xmlns="http://www.w3.org/2000/svg" width="38.886" height="8.899" viewBox="0 0 38.886 8.899">
    <defs>
        <style>.a{fill:#fff;fill-rule:evenodd;}</style>
    </defs>
    <g transform="translate(-101.22 -371.58)">
        <g transform="translate(101.22 371.58)">
            <g transform="translate(0 0)">
                <g transform="translate(0 0.213)">
                    <g transform="translate(0 0)">
                        <path class="a"
                              d="M311.883-231.388c0-.489-.361-.827-1.118-.827h-1.517v1.667H310.8C311.435-230.548,311.883-230.774,311.883-231.388Zm-.273-3.309a.764.764,0,0,0-.808-.8h-1.554v1.579h1.517A.8.8,0,0,0,311.61-234.7Zm2.535,3.547a2.521,2.521,0,0,1-2.648,2.369H307.16v-8.486h3.977c1.53,0,2.635.764,2.635,2.331a1.84,1.84,0,0,1-1.167,1.742,2.092,2.092,0,0,1,1.54,2.043"
                              transform="translate(-307.16 237.267)"/>
                    </g>
                </g>
                <g transform="translate(7.762 0)">
                    <g transform="translate(0)">
                        <path class="a"
                              d="M435.5-236.177c0-1.329-.609-2.407-1.814-2.407s-1.8,1.078-1.8,2.407.6,2.419,1.8,2.419S435.5-234.835,435.5-236.177Zm2.088,0c0,2.494-1.429,4.45-3.9,4.45s-3.9-1.955-3.9-4.45,1.442-4.45,3.9-4.45,3.9,1.968,3.9,4.45"
                              transform="translate(-429.781 240.626)"/>
                    </g>
                </g>
                <g transform="translate(16.044 0)">
                    <g transform="translate(0)">
                        <path class="a"
                              d="M567.447-234.5c0,1.868-1.69,2.77-3.28,2.77a4.146,4.146,0,0,1-3.53-1.592l1.354-1.329a2.671,2.671,0,0,0,2.151,1.091c.683,0,1.143-.338,1.143-.84,0-.539-.406-.707-1.517-.94l-.3-.063c-1.337-.281-2.436-1.04-2.436-2.557,0-1.667,1.355-2.67,3.146-2.67a3.969,3.969,0,0,1,3.095,1.328l-1.318,1.3a2.423,2.423,0,0,0-1.74-.79c-.484,0-1.032.226-1.032.79,0,.514.569.7,1.292.852l.3.063c1.21.254,2.671.627,2.671,2.582"
                              transform="translate(-560.637 240.626)"/>
                    </g>
                </g>
                <g transform="translate(23.643 0.012)">
                    <path class="a"
                          d="M687.962-233.387a3.561,3.561,0,0,1-3.355,1.843c-2.385,0-3.927-1.98-3.927-4.5,0-2.394,1.392-4.387,3.952-4.387a3.627,3.627,0,0,1,3.269,1.843l-1.715,1.141a1.654,1.654,0,0,0-1.542-.953c-.944,0-1.852.844-1.852,2.356,0,1.694.982,2.469,1.915,2.469a1.634,1.634,0,0,0,1.528-.978l1.727,1.166"
                          transform="translate(-680.679 240.431)"/>
                </g>
                <g transform="translate(31.851 0.213)">
                    <g transform="translate(0 0)">
                        <path class="a"
                              d="M817.4-228.781h-2.237v-3.347h-2.573v3.347h-2.224v-8.486h2.224v3.121h2.573v-3.121H817.4v8.486"
                              transform="translate(-810.366 237.267)"/>
                    </g>
                </g>
            </g>
        </g>
    </g>
</svg>