<svg xmlns="http://www.w3.org/2000/svg" width="19.516" height="19.517" viewBox="0 0 19.516 19.517"><g transform="translate(-0.009)"><g transform="translate(0.009 0)"><path d="M19.146,8.674,16.777,6.305a2.939,2.939,0,1,0-2.787-4.93,2.915,2.915,0,0,0-.771,1.373L10.851.379a1.3,1.3,0,0,0-1.838,0L5.53,3.864a.36.36,0,0,0,0,.51l.417.417a.36.36,0,0,0,.326.1A1.75,1.75,0,1,1,4.865,6.607,1.706,1.706,0,0,1,4.9,6.265a.362.362,0,0,0-.1-.326l-.418-.417a.361.361,0,0,0-.51,0L.388,9.006a1.3,1.3,0,0,0,0,1.837l2.368,2.368a2.942,2.942,0,1,0,3.557,3.557l2.368,2.368a1.3,1.3,0,0,0,1.837,0L14,15.654a.361.361,0,0,0,0-.51l-.417-.417a.361.361,0,0,0-.326-.1,1.749,1.749,0,1,1,1.375-1.374.36.36,0,0,0,.1.325l.417.417a.361.361,0,0,0,.511,0l3.484-3.484a1.3,1.3,0,0,0,0-1.837ZM18.635,10l-3.228,3.228-.034-.034a2.505,2.505,0,0,0,.018-.285A2.487,2.487,0,1,0,13.2,15.364l.034.034-3.228,3.228a.58.58,0,0,1-.817,0l-2.9-2.9a.361.361,0,0,0-.616.26c0,.028,0,.052,0,.073a2.22,2.22,0,1,1-2.218-2.218H3.53A.361.361,0,0,0,3.8,13.23l-2.9-2.9a.581.581,0,0,1,0-.817L4.127,6.289l.034.034a2.521,2.521,0,0,0-.018.285A2.489,2.489,0,1,0,6.331,4.154L6.3,4.119,9.525.891a.58.58,0,0,1,.817,0l2.9,2.9a.361.361,0,0,0,.616-.27q0-.029,0-.064a2.22,2.22,0,1,1,2.218,2.218H16a.361.361,0,0,0-.266.616l2.9,2.9a.581.581,0,0,1,0,.817Z" transform="translate(-0.009 0)"/></g></g></svg>