<svg id="Calque_1" data-name="Calque 1" xmlns="http://www.w3.org/2000/svg" viewBox="0 0 145.23 139"><title>boomerneo</title><g id="Groupe_10827" data-name="Groupe 10827"><g id="Groupe_10826" data-name="Groupe 10826"><g id="Groupe_10825" data-name="Groupe 10825"><g id="Groupe_10824" data-name="Groupe 10824"><g id="Groupe_10823" data-name="Groupe 10823"><g id="Groupe_10822" data-name="Groupe 10822"><g id="Groupe_10821" data-name="Groupe 10821"><g id="Groupe_10109" data-name="Groupe 10109"><path id="iconmonstr-star-3" d="M72.61,0l22.2,46.09,50.42,7L108.54,88.58,117.49,139,72.61,114.84,27.73,139l9-50.41L0,53.1l50.42-7Z" transform="translate(0 0)" style="fill:#8bdee1"/><g id="Objects"><g id="Groupe_43" data-name="Groupe 43"><path id="Tracé_32" data-name="Tracé 32" d="M104.14,131.7c0,1.24-14.75,2.24-32.95,2.24s-32.95-1-32.95-2.24,14.75-2.23,32.95-2.23S104.14,130.47,104.14,131.7Z" transform="translate(0 0)" style="fill:#fff;opacity:0.75;isolation:isolate"/><g id="Groupe_41" data-name="Groupe 41" style="opacity:0.75"><path id="Tracé_67" data-name="Tracé 67" d="M23.64,47.5c0,2.18-1,3.14-3.14,3.14,2.18,0,3.14,1,3.14,3.14,0-2.17,1-3.14,3.14-3.14C24.6,50.64,23.64,49.68,23.64,47.5Z" transform="translate(0 0)" style="fill:#fff"/><path id="Tracé_68" data-name="Tracé 68" d="M17,55.25c0,3-1.35,4.38-4.39,4.38C15.68,59.63,17,61,17,64c0-3,1.34-4.38,4.38-4.38C18.37,59.63,17,58.29,17,55.25Z" transform="translate(0 0)" style="fill:#fff"/><path id="Tracé_69" data-name="Tracé 69" d="M26,56.5a.67.67,0,1,1-.67-.66h0A.67.67,0,0,1,26,56.5Z" transform="translate(0 0)" style="fill:#fff"/><path id="Tracé_70" data-name="Tracé 70" d="M16.1,51A1.09,1.09,0,1,1,15,50,1.08,1.08,0,0,1,16.1,51Z" transform="translate(0 0)" style="fill:#fff"/><path id="Tracé_71" data-name="Tracé 71" d="M23.36,62.46a.64.64,0,0,1-.64.64.65.65,0,0,1,0-1.29h0A.64.64,0,0,1,23.36,62.46Z" transform="translate(0 0)" style="fill:#fff"/></g><g id="Groupe_42" data-name="Groupe 42" style="opacity:0.7480000257492065"><path id="Tracé_72" data-name="Tracé 72" d="M121,58.25c0,2.18,1,3.15,3.14,3.15-2.18,0-3.14,1-3.14,3.14,0-2.18-1-3.14-3.14-3.14C120.05,61.4,121,60.43,121,58.25Z" transform="translate(0 0)" style="fill:#fff"/><path id="Tracé_73" data-name="Tracé 73" d="M127.63,66c0,3,1.35,4.39,4.39,4.39-3,0-4.39,1.34-4.39,4.38,0-3-1.34-4.38-4.38-4.38C126.29,70.39,127.63,69,127.63,66Z" transform="translate(0 0)" style="fill:#fff"/><path id="Tracé_74" data-name="Tracé 74" d="M118.68,67.26a.67.67,0,1,0,.67-.67A.67.67,0,0,0,118.68,67.26Z" transform="translate(0 0)" style="fill:#fff"/><path id="Tracé_75" data-name="Tracé 75" d="M128.55,61.8a1.09,1.09,0,1,0,1.09-1.09h0A1.1,1.1,0,0,0,128.55,61.8Z" transform="translate(0 0)" style="fill:#fff"/><path id="Tracé_76" data-name="Tracé 76" d="M121.29,73.21a.65.65,0,0,0,.65.64.64.64,0,0,0,.64-.64.64.64,0,0,0-.64-.64h0A.65.65,0,0,0,121.29,73.21Z" transform="translate(0 0)" style="fill:#fff"/></g></g></g></g><g id="Groupe_10789" data-name="Groupe 10789"><g id="Groupe_10771" data-name="Groupe 10771"><g id="Groupe_10768" data-name="Groupe 10768"><g id="Groupe_10740" data-name="Groupe 10740"><g id="Groupe_10740-2" data-name="Groupe 10740-2"><g id="Groupe_10738" data-name="Groupe 10738"><g id="Groupe_34" data-name="Groupe 34"><path id="Tracé_101" data-name="Tracé 101" d="M129.64,74.2c5.11,1.73,12.46-6.37,12.72-10.91s-1.45-7.49-3.79-11.69c-2.2-4-5.18-5.34-8.84-7.12-.15-.68-9.6,2.19-9.6,2.19a3.76,3.76,0,0,1-2.36-6.58,11.15,11.15,0,0,1-2.08-.16,50.91,50.91,0,0,0-5.76.84c-2.2-2.23,3.42-2.94,4.63-3a60.13,60.13,0,0,1,7.35-.17c.43.07,11.15,2.67,17.54,10.68,2.37,3,4.72,6.94,5.1,10.62A18.13,18.13,0,0,1,142,70.12c-4.21,6.17-12.88,7.92-15.65,7A25.86,25.86,0,0,0,129.64,74.2Z" transform="translate(0 0)" style="fill:#8595ba"/><path id="Tracé_86" data-name="Tracé 86" d="M16.07,62.83S.14,69.71.38,80.47s6.71,13.71,10,14c3.61.33,3.37-.63,3-2.23l0-.17s1.22,1.61,2.18,1-.4-2.35-2.8-4.94c-.92-1-2.38,1.78-4.57,1.49C5.29,89.27,1.73,85.48,3,78.57,5,67.41,21,67.75,20.54,65S16.07,62.83,16.07,62.83Z" transform="translate(0 0)" style="fill:#8595ba"/><g id="Groupe_25" data-name="Groupe 25"><path id="Tracé_87" data-name="Tracé 87" d="M55,91.87s2.53,39.25,1.27,40.41-8.2.12-9.47,2.29,10.6,2,12.12.7,0-43.4,0-43.4Z" transform="translate(0 0)" style="fill:#8595ba"/><path id="Tracé_88" data-name="Tracé 88" d="M91,90.93s-2.53,39.25-1.27,40.42,8.2.12,9.47,2.28-10.6,2-12.12.71,0-43.41,0-43.41Z" transform="translate(0 0)" style="fill:#8595ba"/></g><g id="Groupe_27" data-name="Groupe 27"><path id="Tracé_89" data-name="Tracé 89" d="M99.57,100.17c1.22.52,5.31,2,8.63-.15,3.93-2.53,3.93-5.52,3.93-5.52a11.46,11.46,0,0,0,11.5-2.68c5.52-5,3-15.08,3-15.08s5.16-2.69,4.56-8.22c-1-8.94-10.08-9.45-10.08-9.45s2.84-6.77-2.2-11.5A14.8,14.8,0,0,0,107.25,44a5.21,5.21,0,0,0-1.89-5.83c-3.15-2.2-5.66-.89-5.66-.89s.54-7.16-6-9.6A13.37,13.37,0,0,0,82.21,29s-3.94-4.25-9.61-3.47a17.63,17.63,0,0,0-8.82,3.63A10,10,0,0,0,54,26.94a9.08,9.08,0,0,0-6.62,7.25S37.29,31.37,31.78,38.3,29,51,29,51,19.85,49.78,17,58.44a15.32,15.32,0,0,0,2.36,14.49s-7.4,7.4-4.25,15.43,10.7,6.34,10.7,6.34a8.33,8.33,0,0,0,8,7.36c7.4.48,10.55-2.2,10.55-2.2s6.46,5.36,12.76,4.73,8.66-3.15,8.66-3.15,6,3.4,11.81,3.2,10.56-4.15,10.56-4.15A6.22,6.22,0,0,0,94,103.33C98,102.92,99.35,100.08,99.57,100.17Z" transform="translate(0 0)" style="fill:#f3f6fe"/><g id="Groupe_26" data-name="Groupe 26"><path id="Tracé_90" data-name="Tracé 90" d="M132.6,68.36c-.75-6.84-5.93-9.66-9.65-10.46a11.51,11.51,0,0,0-3.08-11.36A15.87,15.87,0,0,0,109,42.42h-.08A6.34,6.34,0,0,0,106.17,37a8,8,0,0,0-4.33-1.63,9.38,9.38,0,0,0-1-2.6,11.34,11.34,0,0,0-6.65-6.43,13.75,13.75,0,0,0-4.75-.85,15.07,15.07,0,0,0-4.66.77h0l-.34.12-.2.07h0a17.31,17.31,0,0,0-1.82.8A13.35,13.35,0,0,0,74,24a10.67,10.67,0,0,0-1.6.11,20.21,20.21,0,0,0-8.58,3.21A11.55,11.55,0,0,0,57,25.08a12.61,12.61,0,0,0-3.41.5,10.42,10.42,0,0,0-7.29,7c-3.1-.46-10.57-.8-15.32,5.16-3.17,4-3.94,7.37-4,9.71v0a10.41,10.41,0,0,0,.1,1.48A13.11,13.11,0,0,0,15.66,58a16.81,16.81,0,0,0,1.82,14.76l-.28.31a1.54,1.54,0,0,0-.26.53c-2.15,2.8-5.69,8.78-3.14,15.28,2.29,5.84,6.82,6.71,9.31,6.71a10.72,10.72,0,0,0,1.7-.13c.73,3.25,3.17,7.65,9,8,.61,0,1.22.06,1.81.06a17.77,17.77,0,0,0,8.76-2c1.89,1.38,6.7,4.46,11.78,4.46.4,0,.8,0,1.19,0a19.31,19.31,0,0,0,7.81-2.31,4.63,4.63,0,0,0,.95-.53,26.8,26.8,0,0,0,11.05,2.9h.57a20.33,20.33,0,0,0,10.22-3.6,4.51,4.51,0,0,0,.51.47l.12.06a7.32,7.32,0,0,0,4.81,1.8h0a7.34,7.34,0,0,0,.81,0,8.82,8.82,0,0,0,5.77-2.9,13.27,13.27,0,0,0,4.18.73,8.85,8.85,0,0,0,4.85-1.35,9.81,9.81,0,0,0,4.22-5,13,13,0,0,0,11.4-3.37c5-4.61,4.14-12.62,3.63-15.46A9.79,9.79,0,0,0,132.6,68.36Zm-6.34,7c-.75-.23-1.68-.49-2.81-.78A5.59,5.59,0,0,0,117.82,76a4.76,4.76,0,0,0-.9,4.91A4,4,0,0,0,121,83.59a6.64,6.64,0,0,0,2.12-.35,1.28,1.28,0,1,0-.83-2.42c-.1,0-2.4.8-3-.78a2.26,2.26,0,0,1,.41-2.32,3,3,0,0,1,3.1-.7c1,.25,1.86.49,2.55.7.4,2.17,1.37,9.34-2.71,13.06a10.24,10.24,0,0,1-7.07,2.86,9.3,9.3,0,0,1-2.82-.41l-2.55-4.91a1.42,1.42,0,1,0-2.52,1.3l2.87,5.52a7,7,0,0,1-3.15,3.68,6,6,0,0,1-3.31.9,10.77,10.77,0,0,1-4-.84l-.27-.12h-.29a1.85,1.85,0,0,0-1.42.82,6.12,6.12,0,0,1-4.27,2.34,4.53,4.53,0,0,1-.52,0h0a4.72,4.72,0,0,1-3.7-1.86A4.57,4.57,0,0,1,89,97.42,2.36,2.36,0,0,1,90,95.48c1.82-1,2.69-.15,2.92.15A1.42,1.42,0,0,0,95.28,94c-.82-1.2-3.27-2.94-6.66-1a5.09,5.09,0,0,0-2.48,4.19,7.23,7.23,0,0,0,.37,2.77,17.55,17.55,0,0,1-8.92,3.24,22.8,22.8,0,0,1-9.72-2.34h0a9.2,9.2,0,0,0-.56-7.16c-1.81-4-6.16-3.89-8.21-3.26a1.42,1.42,0,1,0,.84,2.71c.14,0,3.54-1,4.78,1.71a6.56,6.56,0,0,1,.53,4.93,2.64,2.64,0,0,1-.23.44l-.21.22s-2.2,2.16-7.78,2.72c-.31,0-.61,0-.91,0-4.26,0-8.54-2.79-10.14-3.94l.35-4.3a1.42,1.42,0,1,0-2.82-.24h0L43.16,99a14.8,14.8,0,0,1-7.58,1.7c-.53,0-1.08,0-1.63-.06-5.87-.37-6.49-6.36-6.54-6.93a3.88,3.88,0,0,1,2.1-3.1,3,3,0,0,1,1.88-.51l-.1,0,1.1-2.61c-.27-.11-1.76-.63-4.2.65a6.62,6.62,0,0,0-3.46,4.5,10.83,10.83,0,0,1-1.61.15c-3.16,0-5.4-1.65-6.68-4.91C13.79,81.1,19.74,74.6,20.33,74A7.18,7.18,0,0,1,25,72.38a4.37,4.37,0,0,1,4.1,2.71,1.43,1.43,0,0,0,1.34,1,1.38,1.38,0,0,0,.45-.08,1.41,1.41,0,0,0,.9-1.79h0A7.18,7.18,0,0,0,25,69.54,9.74,9.74,0,0,0,19.7,71a14.15,14.15,0,0,1-1.35-12.1A10.51,10.51,0,0,1,28,51.69a6.78,6.78,0,0,0,5.31,3.82,8.14,8.14,0,0,0,1.1.08,7.84,7.84,0,0,0,6.83-4.54,1.42,1.42,0,0,0-2.57-1.19c-.07.14-1.61,3.32-4.95,2.84a4,4,0,0,1-2.9-1.81l-.59-1.26s0-.09-.08-.21a7.07,7.07,0,0,1-.28-1.88.66.66,0,0,0,0-.14c0-1.77.64-4.51,3.36-7.92,4.21-5.29,11.33-4.4,13.29-4l2,4.49a1.43,1.43,0,0,0,1.3.84,1.47,1.47,0,0,0,.58-.12,1.43,1.43,0,0,0,.72-1.87L49,33.94a.41.41,0,0,1,0-.09,7.66,7.66,0,0,1,5.5-5.55A9.28,9.28,0,0,1,57,27.92a8.58,8.58,0,0,1,5.72,2.21l.32.33a3.86,3.86,0,0,1,.54,3.83,3.16,3.16,0,0,1-3,2,1.42,1.42,0,1,0-.27,2.83h.32a6,6,0,0,0,5.48-3.6,6.43,6.43,0,0,0-.4-6.09,17.49,17.49,0,0,1,7-2.52,9.67,9.67,0,0,1,1.2-.08,10.43,10.43,0,0,1,6.26,2.31,6.69,6.69,0,0,0-1.5,3,5.79,5.79,0,0,0,4,7,2.09,2.09,0,0,0,.35,0,1.42,1.42,0,0,0,.34-2.79,3,3,0,0,1-1.91-3.64c.52-2.42,3.4-3.54,4-3.73a12.19,12.19,0,0,1,4-.69,10.69,10.69,0,0,1,3.76.68,8.62,8.62,0,0,1,5,4.83l.05.11a10.15,10.15,0,0,1,.76,3.16l0,2.39c-.47,2-1.52,2-2,2A3,3,0,0,1,95.42,41a1.42,1.42,0,0,0-1.74,2.24h0A5.84,5.84,0,0,0,97,44.32c1.29,0,4.36-.52,5-5.33a7.41,7.41,0,0,0,.07-.8,5.62,5.62,0,0,1,2.5,1.09,3.71,3.71,0,0,1,1.36,4.2l-.77,2.24,2.34-.37a11,11,0,0,1,1.52-.1,13.17,13.17,0,0,1,8.94,3.35c3.73,3.5,2.41,8.34,2,9.61-.15.32-2.13,4.35-4.89,4.48a1.94,1.94,0,0,1-1.46-.33,1.34,1.34,0,0,1-.15-.94,1.41,1.41,0,0,0-2.75-.66,4.1,4.1,0,0,0,.71,3.4,4.18,4.18,0,0,0,3.41,1.36h.37c3.34-.15,5.63-3.17,6.69-4.93,2.05.34,7.25,1.82,7.93,8.08.41,3.85-2.55,6-3.52,6.64Z" transform="translate(0 0)" style="fill:#b8c4e0"/><path id="Tracé_91" data-name="Tracé 91" d="M103.34,56.45a8.14,8.14,0,0,0-1.92-7.28c-4.57-5.5-11.5-4.29-15.8-2.34a9.93,9.93,0,0,0-6.73-7.55c-5.2-1.77-9.2,1.73-11.06,3.86A13,13,0,0,0,58.3,39.7a8.68,8.68,0,0,0-7.68,6.09A7.46,7.46,0,0,0,53,54.34,8.67,8.67,0,0,0,64.55,54,1.42,1.42,0,1,0,62.61,52a5.82,5.82,0,0,1-7.81.15,4.74,4.74,0,0,1-1.5-5.43,5.91,5.91,0,0,1,5.06-4.16c5.88-.12,8.24,3.46,8.33,3.6a1.41,1.41,0,0,0,2,.46,1.35,1.35,0,0,0,.45-.44c0-.06,3.86-5.9,8.89-4.19a7.23,7.23,0,0,1,5,7,1.41,1.41,0,0,0,1.33,1.5,1.39,1.39,0,0,0,.83-.21c.37-.23,9-5.46,14.09.7a5.43,5.43,0,0,1,1.34,4.84,5.79,5.79,0,0,1-2.84,3.76c-1.85.83-4.17-.39-4.19-.4a1.41,1.41,0,1,0-1.36,2.48,9.38,9.38,0,0,0,3.48,1,6.51,6.51,0,0,0,3.23-.5A8.63,8.63,0,0,0,103.34,56.45Z" transform="translate(0 0)" style="fill:#b8c4e0"/><path id="Tracé_92" data-name="Tracé 92" d="M41.79,76.37a6.47,6.47,0,0,0-.34-3.64h0a7.4,7.4,0,0,0,2.42-.4A6.49,6.49,0,0,0,48,67.68a9,9,0,0,0-1.53-7.88c-2.61-3.08-6.67-2.31-8.46-1.47a1.42,1.42,0,0,0,1.21,2.57s3.21-1.48,5.08.73a6.08,6.08,0,0,1,1,5.3A3.75,3.75,0,0,1,43,69.65a5.49,5.49,0,0,1-4.32-.52A12.14,12.14,0,0,0,37,68l-.14-.13a1.42,1.42,0,0,0-2,2l.06.06s.19.18.45.39h0a11.48,11.48,0,0,0,1.75,1.19A4.64,4.64,0,0,1,39,75.86c-.58,3.1-2.87,3.26-3.15,3.27a1.42,1.42,0,0,0,0,2.84C37.56,82,41,80.79,41.79,76.37Z" transform="translate(0 0)" style="fill:#b8c4e0"/><path id="Tracé_93" data-name="Tracé 93" d="M47.53,82.17a8.46,8.46,0,0,0-7.48,5.19,1.42,1.42,0,1,0,2.64,1h0A5.65,5.65,0,0,1,47.62,85c3.11-.09,3.44,3.39,3.47,3.78a1.41,1.41,0,0,0,1.41,1.33h.09a1.42,1.42,0,0,0,1.33-1.5C53.78,86.31,52.27,82,47.53,82.17Z" transform="translate(0 0)" style="fill:#b8c4e0"/><path id="Tracé_94" data-name="Tracé 94" d="M110.12,70.75c-2.27-1.91-5.71-1.35-5.86-1.32A1.29,1.29,0,0,0,104.7,72s2.41-.38,3.76.76a3.2,3.2,0,0,1,1,2.6,3.88,3.88,0,0,1-1.05,3,4.4,4.4,0,0,1-3,.94,1.29,1.29,0,0,0-1.4,1.17,1.53,1.53,0,0,0,0,.43,4.54,4.54,0,0,1-.32,3.16,2,2,0,0,1-1.55.73,2.74,2.74,0,0,1-2.22-.59,3.32,3.32,0,0,1-.74-2.33,1.29,1.29,0,0,0-2.57-.2A5.87,5.87,0,0,0,98.1,86a4.91,4.91,0,0,0,3.63,1.37l.64,0a4.45,4.45,0,0,0,3.43-1.78,6.06,6.06,0,0,0,1-3.77A5.93,5.93,0,0,0,112,75.34,5.67,5.67,0,0,0,110.12,70.75Z" transform="translate(0 0)" style="fill:#b8c4e0"/></g></g></g></g></g></g></g><g id="Groupe_10769" data-name="Groupe 10769"><path id="Tracé_22522" data-name="Tracé 22522" d="M86.21,53.81s6-.93,9.89,1,5.68,6.84,5.68,6.84" transform="translate(0 0)" style="fill:none;stroke:#8595ba;stroke-linecap:round;stroke-linejoin:bevel;stroke-width:4px"/><path id="Tracé_22523" data-name="Tracé 22523" d="M64.52,53.81s-6-.93-9.89,1S49,61.69,49,61.69" transform="translate(0 0)" style="fill:none;stroke:#8595ba;stroke-linecap:round;stroke-linejoin:bevel;stroke-width:4px"/></g><g id="Groupe_10770" data-name="Groupe 10770"><g id="Groupe_24" data-name="Groupe 24"><path id="Tracé_53" data-name="Tracé 53" d="M68.41,76.46l0-.27c0-.09,0-.2,0-.32a1.36,1.36,0,0,0,0-.21,2.25,2.25,0,0,0,0-.26c0-.18,0-.4,0-.62s-.06-.45-.1-.7-.12-.51-.19-.79a8,8,0,0,0-.3-.86c-.13-.29-.28-.59-.45-.89a8.45,8.45,0,0,0-2.3-2.5l-.52-.34c-.17-.11-.36-.2-.55-.3l-.28-.15-.3-.12c-.2-.07-.4-.16-.61-.22a7.1,7.1,0,0,0-1.27-.3,5,5,0,0,0-.66-.08l-.33,0h-.4l-.55,0h-.14l-.16,0-.35,0c-.23,0-.46.07-.68.12l-.63.18c-.21.06-.41.15-.61.22l-.3.13-.28.14c-.19.1-.38.19-.56.3l-.51.34a8.32,8.32,0,0,0-2.3,2.5c-.17.3-.32.6-.45.89a6.81,6.81,0,0,0-.3.86c-.07.28-.15.54-.19.79s-.07.49-.1.7a4.09,4.09,0,0,0,0,.6v.25a1.64,1.64,0,0,0,0,.23c0,.13,0,.25,0,.34l0,.29a.56.56,0,0,0,1.09.07l0-.07.06-.24c0-.23.11-.45.18-.68l.16-.46.22-.52a5,5,0,0,1,.29-.56,6.36,6.36,0,0,1,.37-.59c.14-.19.29-.4.45-.59a5.9,5.9,0,0,1,.55-.57,7.18,7.18,0,0,1,1.33-1,7.31,7.31,0,0,1,1.61-.67l.43-.1.21,0,.2,0,.2,0h.26l.55,0h.38a2.28,2.28,0,0,1,.45,0c.14,0,.3,0,.44.07l.43.1a7.82,7.82,0,0,1,1.61.67,6.81,6.81,0,0,1,1.33,1,5.83,5.83,0,0,1,.55.56l.45.59c.13.2.26.39.37.59a6,6,0,0,1,.29.56l.22.53.15.43.07.19c0,.07,0,.14.05.21l.07.31.06.26a.56.56,0,0,0,1.1-.05Z" transform="translate(0 0)" style="fill:#8595ba"/><path id="Tracé_54" data-name="Tracé 54" d="M98.31,76.46l0-.27,0-.32c0-.07,0-.13,0-.21V75.4c0-.18,0-.4,0-.62a6.54,6.54,0,0,0-.1-.7c0-.25-.12-.51-.18-.79s-.2-.56-.3-.86-.28-.59-.45-.89a8.45,8.45,0,0,0-2.3-2.5l-.52-.34c-.18-.11-.37-.2-.56-.3l-.28-.15-.3-.12c-.2-.07-.4-.16-.6-.22a7.2,7.2,0,0,0-1.28-.3,4.62,4.62,0,0,0-.65-.08l-.33,0h-.4l-.56,0h-.14l-.15,0-.35,0c-.24,0-.46.07-.69.12l-.63.18c-.21.06-.4.15-.6.22l-.3.13-.29.14c-.18.1-.38.19-.55.3l-.52.34a8.45,8.45,0,0,0-2.3,2.5c-.17.3-.32.6-.45.89a8.87,8.87,0,0,0-.3.86c-.07.28-.14.54-.18.79a6.92,6.92,0,0,0-.1.7c0,.22,0,.42,0,.6v.25c0,.08,0,.16,0,.23s0,.25,0,.34,0,.29,0,.29a.55.55,0,0,0,.62.48.57.57,0,0,0,.47-.41v-.07l.07-.24a6.52,6.52,0,0,1,.18-.68l.15-.46c.08-.16.15-.34.22-.52s.2-.37.29-.56.25-.39.37-.59.29-.4.46-.59a7,7,0,0,1,1.88-1.56,6.93,6.93,0,0,1,1.61-.67l.43-.1.21,0,.2,0,.2,0h.25l.56,0h.38a2.12,2.12,0,0,1,.44,0c.15,0,.3,0,.44.07l.44.1a7.82,7.82,0,0,1,1.61.67,6.81,6.81,0,0,1,1.33,1,5.73,5.73,0,0,1,.54.56c.17.2.31.4.46.59s.26.39.37.59a6,6,0,0,1,.29.56c.08.19.14.36.22.53l.15.43.07.19a1.55,1.55,0,0,1,0,.21l.08.31.06.26a.56.56,0,0,0,.68.41.57.57,0,0,0,.42-.46Z" transform="translate(0 0)" style="fill:#8595ba"/></g><g id="Groupe_23" data-name="Groupe 23"><g id="Groupe_22" data-name="Groupe 22"><path id="Tracé_51" data-name="Tracé 51" d="M85.7,85A5.67,5.67,0,0,1,83.77,89a10.88,10.88,0,0,1-4.41,2.43,15.68,15.68,0,0,1-8.8,0A10.88,10.88,0,0,1,66.15,89,5.67,5.67,0,0,1,64.22,85c0-2.87,2.56-1.56,6.24-.63a16.39,16.39,0,0,0,9,0C83.14,83.4,85.7,82.09,85.7,85Z" transform="translate(0 0)" style="fill:#8595ba"/></g><path id="Tracé_52" data-name="Tracé 52" d="M79.36,90.93a15.68,15.68,0,0,1-8.8,0,4.44,4.44,0,0,1,8.8,0Z" transform="translate(0 0)" style="fill:#f3f6fe"/></g></g></g></g></g></g></g></g></g></g></g></svg>