<svg xmlns="http://www.w3.org/2000/svg" width="13.739" height="16.819" viewBox="0 0 13.739 16.819"><defs><style>.a{fill:#fff;}</style></defs><path class="a" d="M9.419,5.974H5.9L8.939.635A.425.425,0,0,0,8.57,0h-5.1a.425.425,0,0,0-.4.291L.522,7.964a.425.425,0,0,0,.4.559h3.6l-2.3,5.383a.425.425,0,0,0,.709.448l6.8-7.673A.425.425,0,0,0,9.419,5.974ZM4.042,11.831,5.563,8.265a.425.425,0,0,0-.391-.591H1.513L3.78.849H7.84L4.8,6.189a.425.425,0,0,0,.369.635h3.3Zm0,0" transform="translate(4.488 -0.171) rotate(20)"/></svg>