<svg xmlns="http://www.w3.org/2000/svg" width="17.797" height="8.559" viewBox="0 0 17.797 8.559"><defs><style>.a{fill:none;}.b{fill:#707070;}</style></defs><g transform="translate(-1.873 -33.081)"><g transform="translate(1.873 33.081)"><g transform="translate(0.148 0.148)"><path class="a" d="M18.379,37.664l-2.43-3.219a.915.915,0,0,0-.73-.363H3.788A.915.915,0,0,0,2.873,35v6.434a.915.915,0,0,0,.915.915H15.215a.914.914,0,0,0,.729-.363l2.434-3.216A.914.914,0,0,0,18.379,37.664Zm-2.817,1.521a.971.971,0,1,1,.971-.971A.971.971,0,0,1,15.562,39.185Z" transform="translate(-2.873 -34.082)"/></g><g transform="translate(0.148 0.148)"><path class="b" d="M3.317,41.43V35a.915.915,0,0,1,.915-.915H3.788A.915.915,0,0,0,2.873,35V41.43a.915.915,0,0,0,.915.915h.444A.915.915,0,0,1,3.317,41.43Z" transform="translate(-2.873 -34.081)"/></g><path class="b" d="M58.739,88.918H57.712a.148.148,0,1,0,0,.3h1.027a.148.148,0,1,0,0-.3Z" transform="translate(-49.322 -80.655)"/><path class="b" d="M17.12,35.822c-.051,0-.1,0-.151,0L15.215,33.5a1.068,1.068,0,0,0-.848-.422H2.936a1.064,1.064,0,0,0-1.063,1.063v6.434A1.064,1.064,0,0,0,2.936,41.64h6.7a.148.148,0,1,0,0-.3h-6.7a.768.768,0,0,1-.767-.767V34.144a.767.767,0,0,1,.767-.767H14.367a.771.771,0,0,1,.612.3l2.43,3.219a.769.769,0,0,1,0,.924l-.576.761a3.154,3.154,0,0,1-1.369-.4,1.124,1.124,0,1,0-.273.184,3.167,3.167,0,0,0,1.43.494l-1.647,2.177a.771.771,0,0,1-.612.3h-2.4a.148.148,0,1,0,0,.3h2.4a1.069,1.069,0,0,0,.848-.421l1.764-2.331c.048,0,.1,0,.145,0,1.43,0,2.55-.675,2.55-1.535S18.55,35.822,17.12,35.822Zm-1.586,1.539a.822.822,0,0,1-.317.648.783.783,0,0,1-.007-1.3A.822.822,0,0,1,15.534,37.361Zm-1.647,0a.821.821,0,0,1,1.041-.793,1.118,1.118,0,0,0-.358.79,1.13,1.13,0,0,0,.362.8.821.821,0,0,1-1.044-.793Zm3.31,1.234L17.645,38a1.065,1.065,0,0,0,0-1.281l-.454-.6c1.19.022,2.183.579,2.183,1.237S18.384,38.571,17.2,38.594Z" transform="translate(-1.873 -33.081)"/></g></g></svg>