<svg id="Calque_1" data-name="Calque 1" xmlns="http://www.w3.org/2000/svg" xmlns:xlink="http://www.w3.org/1999/xlink" viewBox="0 0 159 152"><defs><linearGradient id="Dégradé_sans_nom" x1="-5496.1" y1="3314.74" x2="-5496.1" y2="3313.74" gradientTransform="matrix(152, 0, 0, -152, 835483.84, 503841.35)" gradientUnits="userSpaceOnUse"><stop offset="0" stop-color="#159beb"/><stop offset="1" stop-color="#3beaff"/></linearGradient></defs><title>umbrellaneo</title><g id="Groupe_11097" data-name="Groupe 11097"><g id="Groupe_11088" data-name="Groupe 11088"><g id="Groupe_10157" data-name="Groupe 10157"><path id="Soustraction_1" data-name="Soustraction 1" d="M76,152A75.93,75.93,0,0,1,0,76c0-.65,0-1.3,0-2,.71-.65.48-2.57.33-2.79L.16,71A76,76,0,0,1,25.42,19.27l2.81,5.79a4.27,4.27,0,0,0,2.3,1.19.77.77,0,0,0,.34-.08,1.33,1.33,0,0,0,.55-.9,4.11,4.11,0,0,0-.07-2l-3.89-5.75A75.8,75.8,0,0,1,60,1.68a3.47,3.47,0,0,0,1.51.56.71.71,0,0,0,.35-.07,1.38,1.38,0,0,0,.55-1A76.67,76.67,0,0,1,90.6,1.4a4,4,0,0,0,1.94.84.61.61,0,0,0,.34-.08.75.75,0,0,0,.25-.22,75.52,75.52,0,0,1,21.92,8.84.84.84,0,0,0-.19,1.14l6.37,13.14a4.25,4.25,0,0,0,2.3,1.18.57.57,0,0,0,.34-.08,1.31,1.31,0,0,0,.55-.9,4.11,4.11,0,0,0-.07-2L116.5,11.68A75.87,75.87,0,0,1,151.24,65.2l-4.09-6a1,1,0,0,0-.77-.48.62.62,0,0,0-.54.3.94.94,0,0,0,0,.93l6.06,12.5c.05,1.19.08,2.39.08,3.58a76.72,76.72,0,0,1-1.07,12.75l-3.78-5.58a1,1,0,0,0-.77-.48.62.62,0,0,0-.54.3.94.94,0,0,0,0,.93l4.29,8.84a76.09,76.09,0,0,1-29.64,44.85l-4.36-6.44a1,1,0,0,0-.77-.48.62.62,0,0,0-.54.3,1,1,0,0,0,0,.93l3.5,7.2A75.63,75.63,0,0,1,76,152Zm8.38-21.31a.63.63,0,0,0-.54.3.94.94,0,0,0,0,.93l6.37,13.14a4.25,4.25,0,0,0,2.3,1.18.57.57,0,0,0,.34-.08,1.31,1.31,0,0,0,.55-.9,4,4,0,0,0-.07-2l-8.2-12.09a1,1,0,0,0-.77-.48Zm-31,0a.62.62,0,0,0-.54.3.94.94,0,0,0,0,.93l6.37,13.14a4.19,4.19,0,0,0,2.3,1.18.57.57,0,0,0,.34-.08,1.31,1.31,0,0,0,.55-.9,4.11,4.11,0,0,0-.07-2l-8.2-12.09A1,1,0,0,0,53.38,130.69Zm62-24a.62.62,0,0,0-.54.3.94.94,0,0,0,0,.93l6.37,13.14a4.25,4.25,0,0,0,2.3,1.18.57.57,0,0,0,.34-.08,1.31,1.31,0,0,0,.55-.9,4.11,4.11,0,0,0-.07-2l-8.2-12.09A1,1,0,0,0,115.38,106.69Zm-31,0a.63.63,0,0,0-.54.3.94.94,0,0,0,0,.93l6.37,13.14a4.25,4.25,0,0,0,2.3,1.18.57.57,0,0,0,.34-.08,1.31,1.31,0,0,0,.55-.9,4.11,4.11,0,0,0-.07-2l-8.2-12.09a1,1,0,0,0-.77-.48Zm-31,0a.62.62,0,0,0-.54.3.94.94,0,0,0,0,.93l6.37,13.14a4.19,4.19,0,0,0,2.3,1.18.57.57,0,0,0,.34-.08,1.31,1.31,0,0,0,.55-.9,4.11,4.11,0,0,0-.07-2l-8.2-12.09A1,1,0,0,0,53.38,106.69Zm-31,0a.62.62,0,0,0-.54.3.94.94,0,0,0,0,.93l6.37,13.14a4.25,4.25,0,0,0,2.3,1.18.57.57,0,0,0,.34-.08,1.31,1.31,0,0,0,.55-.9,4.11,4.11,0,0,0-.07-2l-8.2-12.09A1,1,0,0,0,22.38,106.69Zm93-24a.62.62,0,0,0-.54.3.94.94,0,0,0,0,.93l6.37,13.14a4.25,4.25,0,0,0,2.3,1.18.57.57,0,0,0,.34-.08,1.31,1.31,0,0,0,.55-.9,4.11,4.11,0,0,0-.07-2l-8.2-12.09A1,1,0,0,0,115.38,82.69Zm-31,0a.63.63,0,0,0-.54.3.94.94,0,0,0,0,.93l6.37,13.14a4.19,4.19,0,0,0,2.3,1.18.65.65,0,0,0,.34-.07,1.35,1.35,0,0,0,.55-.9,4.1,4.1,0,0,0-.07-2l-8.2-12.1A1,1,0,0,0,84.38,82.69Zm-31,0a.62.62,0,0,0-.54.3.94.94,0,0,0,0,.93l6.37,13.14a4.25,4.25,0,0,0,2.3,1.18.57.57,0,0,0,.34-.08,1.31,1.31,0,0,0,.55-.9,4.11,4.11,0,0,0-.07-2l-8.2-12.09A1,1,0,0,0,53.38,82.69Zm-31,0a.62.62,0,0,0-.54.3.94.94,0,0,0,0,.93l6.37,13.14a4.19,4.19,0,0,0,2.3,1.18.65.65,0,0,0,.34-.07,1.35,1.35,0,0,0,.55-.9,4.1,4.1,0,0,0-.07-2l-8.2-12.1A1,1,0,0,0,22.38,82.69Zm93-24a.62.62,0,0,0-.54.3.94.94,0,0,0,0,.93l6.37,13.14a4.25,4.25,0,0,0,2.3,1.18.57.57,0,0,0,.34-.08,1.31,1.31,0,0,0,.55-.9,4.11,4.11,0,0,0-.07-2l-8.2-12.09A1,1,0,0,0,115.38,58.69Zm-31,0a.63.63,0,0,0-.54.3.94.94,0,0,0,0,.93l6.37,13.14a4.19,4.19,0,0,0,2.3,1.18.65.65,0,0,0,.34-.07,1.35,1.35,0,0,0,.55-.9,4.1,4.1,0,0,0-.07-2l-8.2-12.1a1,1,0,0,0-.77-.48Zm-31,0a.62.62,0,0,0-.54.3.94.94,0,0,0,0,.93l6.37,13.14a4.19,4.19,0,0,0,2.3,1.18.57.57,0,0,0,.34-.08,1.31,1.31,0,0,0,.55-.9,4.11,4.11,0,0,0-.07-2l-8.2-12.09A1,1,0,0,0,53.38,58.69Zm-31,0a.62.62,0,0,0-.54.3.94.94,0,0,0,0,.93l6.37,13.14a4.19,4.19,0,0,0,2.3,1.18.65.65,0,0,0,.34-.07,1.35,1.35,0,0,0,.55-.9,4.1,4.1,0,0,0-.07-2l-8.2-12.1A1,1,0,0,0,22.38,58.69Zm93-24a.62.62,0,0,0-.54.3.94.94,0,0,0,0,.93l6.37,13.14a4.25,4.25,0,0,0,2.3,1.18.57.57,0,0,0,.34-.08,1.31,1.31,0,0,0,.55-.9,4.11,4.11,0,0,0-.07-2l-8.2-12.09A1,1,0,0,0,115.38,34.69Zm-31,0a.63.63,0,0,0-.54.3.94.94,0,0,0,0,.93l6.37,13.14a4.19,4.19,0,0,0,2.3,1.18.57.57,0,0,0,.34-.08,1.31,1.31,0,0,0,.55-.9,4.11,4.11,0,0,0-.07-2l-8.2-12.09a1,1,0,0,0-.77-.48Zm-31,0a.62.62,0,0,0-.54.3.94.94,0,0,0,0,.93l6.37,13.14a4.25,4.25,0,0,0,2.3,1.18.57.57,0,0,0,.34-.08,1.31,1.31,0,0,0,.55-.9,4.11,4.11,0,0,0-.07-2l-8.2-12.09A1,1,0,0,0,53.38,34.69Zm-31,0a.62.62,0,0,0-.54.3.94.94,0,0,0,0,.93l6.37,13.14a4.19,4.19,0,0,0,2.3,1.18.57.57,0,0,0,.34-.08,1.31,1.31,0,0,0,.55-.9,4.11,4.11,0,0,0-.07-2l-8.2-12.09A1,1,0,0,0,22.38,34.69Zm62-24a.63.63,0,0,0-.54.3.94.94,0,0,0,0,.93l6.37,13.14a4.19,4.19,0,0,0,2.3,1.18.65.65,0,0,0,.34-.07,1.35,1.35,0,0,0,.55-.9,4.1,4.1,0,0,0-.07-2l-8.2-12.1A1,1,0,0,0,84.38,10.69Zm-31,0a.62.62,0,0,0-.54.3.94.94,0,0,0,0,.93l6.37,13.14a4.25,4.25,0,0,0,2.3,1.18.57.57,0,0,0,.34-.08,1.31,1.31,0,0,0,.55-.9,4.11,4.11,0,0,0-.07-2l-8.2-12.09A1,1,0,0,0,53.38,10.69Z" transform="translate(0 0)" style="opacity:0.4860000014305115;isolation:isolate;fill:url(#Dégradé_sans_nom)"/><g id="Groupe_11095" data-name="Groupe 11095"><g id="Groupe_11094" data-name="Groupe 11094"><path id="Tracé_22938" data-name="Tracé 22938" d="M115.7,84c3.65,2.73,7.87,5.73,8.57,5.56,1.3-.3,2.46-2.41,3.84-5.37,2.81-6.06,2.65-7.92,3-11s-.15-6.34,3.67-4.3-6.53,21-8.88,23.15c-1.54,1.39-8.75-3.53-13.53-7.08A21.09,21.09,0,0,0,115.7,84Z" transform="translate(0 0)" style="fill:#8595ba"/><g id="Groupe_11093" data-name="Groupe 11093"><g id="Groupe_11090" data-name="Groupe 11090"><path id="Tracé_22543" data-name="Tracé 22543" d="M31.45,70.46s-5.62,22-5.42,30.8.18,11.44,2.86,11.68c3.61.33,2.2-4.25,2.2-4.25s1,1.32,1.79.82-.33-1.93-2.3-4.06-3-2.49-1.33-11.66,6.26-19.29,5.87-21.57S31.45,70.46,31.45,70.46Z" transform="translate(0 0)" style="fill:#8595ba"/><g id="Groupe_10797" data-name="Groupe 10797"><path id="Tracé_87" data-name="Tracé 87" d="M57.64,87.3s2.32,36,1.16,37.06-7.52.11-8.68,2.1,9.72,1.87,11.11.65,0-39.81,0-39.81Z" transform="translate(0 0)" style="fill:#8595ba"/><path id="Tracé_88" data-name="Tracé 88" d="M90.6,86.44s-2.32,36-1.16,37.06,7.52.12,8.68,2.1-9.72,1.87-11.11.65,0-39.81,0-39.81Z" transform="translate(0 0)" style="fill:#8595ba"/></g><g id="Groupe_10793" data-name="Groupe 10793"><g id="Groupe_10771" data-name="Groupe 10771"><g id="Groupe_10768" data-name="Groupe 10768"><g id="Groupe_10740" data-name="Groupe 10740"><g id="Groupe_10740-2" data-name="Groupe 10740-2"><g id="Groupe_10738" data-name="Groupe 10738"><g id="Groupe_34" data-name="Groupe 34"><g id="Groupe_27" data-name="Groupe 27"><path id="Tracé_89" data-name="Tracé 89" d="M98.48,96.14c1.11.47,4.87,1.8,7.91-.15,3.61-2.31,3.61-5,3.61-5a10.5,10.5,0,0,0,10.54-2.46c5.06-4.62,2.75-13.83,2.75-13.83s4.74-2.47,4.19-7.54c-.89-8.2-9.25-8.67-9.25-8.67s2.6-6.21-2-10.54a13.56,13.56,0,0,0-10.69-3.33,4.78,4.78,0,0,0-1.73-5.34c-2.89-2-5.19-.82-5.19-.82s.5-6.57-5.49-8.8a12.28,12.28,0,0,0-10.55,1.24s-3.62-3.9-8.82-3.18A16.2,16.2,0,0,0,65.66,31a9.19,9.19,0,0,0-9-2,8.31,8.31,0,0,0-6.06,6.65S41.36,33,36.31,39.39s-2.6,11.67-2.6,11.67-8.35-1.14-10.95,6.8a14,14,0,0,0,2.17,13.29S18.14,77.94,21,85.3a8.62,8.62,0,0,0,9.81,5.81,7.65,7.65,0,0,0,7.37,6.76c6.79.43,9.68-2,9.68-2s5.92,4.91,11.7,4.33,8-2.89,8-2.89,5.49,3.13,10.83,2.94a18.06,18.06,0,0,0,9.68-3.8A5.7,5.7,0,0,0,93.39,99C97,98.66,98.27,96.05,98.48,96.14Z" transform="translate(0 0)" style="fill:#f3f6fe"/><g id="Groupe_26" data-name="Groupe 26"><path id="Tracé_90" data-name="Tracé 90" d="M128.77,67a10.82,10.82,0,0,0-8.85-9.6,10.57,10.57,0,0,0-2.82-10.42,14.57,14.57,0,0,0-10-3.77h-.07a5.79,5.79,0,0,0-2.52-5,7.25,7.25,0,0,0-4-1.49,8.8,8.8,0,0,0-.88-2.39,10.44,10.44,0,0,0-6.11-5.89,12.45,12.45,0,0,0-4.35-.79,13.81,13.81,0,0,0-4.28.71h0l-.32.11-.17.06h0a14.62,14.62,0,0,0-1.67.74,12.24,12.24,0,0,0-7.7-3,11.8,11.8,0,0,0-1.46.1,18.56,18.56,0,0,0-7.87,2.95,10.51,10.51,0,0,0-6.23-2.06,11.07,11.07,0,0,0-3.13.45,9.55,9.55,0,0,0-6.68,6.39c-2.85-.42-9.7-.73-14,4.74C32.7,42.5,32,45.6,32,47.75v0a7.66,7.66,0,0,0,.09,1.35,12,12,0,0,0-10.54,8.32A15.4,15.4,0,0,0,23.2,71a3.53,3.53,0,0,0-.26.3,1.35,1.35,0,0,0-.24.48c-2,2.57-5.22,8-2.88,14,2.1,5.36,6.26,6.15,8.55,6.15a10,10,0,0,0,1.55-.11c.67,3,2.9,7,8.22,7.35.56,0,1.12.06,1.66.06a16.35,16.35,0,0,0,8-1.79c1.74,1.26,6.15,4.09,10.8,4.09.37,0,.74,0,1.1,0a17.51,17.51,0,0,0,7.16-2.11,4.59,4.59,0,0,0,.87-.48,24.67,24.67,0,0,0,10.13,2.66h.52a18.62,18.62,0,0,0,9.38-3.3,4.68,4.68,0,0,0,.46.43l.11.06a6.67,6.67,0,0,0,4.41,1.64h0a6.28,6.28,0,0,0,.75,0,8.15,8.15,0,0,0,5.3-2.66,11.86,11.86,0,0,0,3.83.66,8.09,8.09,0,0,0,4.44-1.23A9.05,9.05,0,0,0,111,92.54a11.76,11.76,0,0,0,2.22.21,12,12,0,0,0,8.23-3.3c4.62-4.22,3.8-11.58,3.32-14.18A9,9,0,0,0,128.77,67ZM123,73.33c-.69-.21-1.54-.45-2.58-.71A5.13,5.13,0,0,0,115.22,74a4.38,4.38,0,0,0-.83,4.51,3.69,3.69,0,0,0,3.75,2.45,6.18,6.18,0,0,0,2-.32,1.18,1.18,0,0,0-.77-2.23h0c-.09,0-2.2.74-2.73-.71a2.08,2.08,0,0,1,.38-2.13,2.8,2.8,0,0,1,2.84-.64c.93.24,1.7.45,2.34.64.37,2,1.25,8.56-2.49,12a9.33,9.33,0,0,1-6.48,2.62,8.77,8.77,0,0,1-2.59-.37l-2.34-4.51a1.3,1.3,0,1,0-2.3,1.2l2.62,5.06a6.38,6.38,0,0,1-2.88,3.38,5.54,5.54,0,0,1-3,.82A10,10,0,0,1,99,94.94l-.26-.1h-.26a1.67,1.67,0,0,0-1.3.75,5.63,5.63,0,0,1-3.92,2.14,3.87,3.87,0,0,1-.48,0h0a4.36,4.36,0,0,1-3.4-1.7,4.25,4.25,0,0,1-.62-2.46,2.15,2.15,0,0,1,1-1.77c1.67-1,2.47-.14,2.68.14a1.3,1.3,0,0,0,2.14-1.49c-.75-1.1-3-2.7-6.11-.9a4.65,4.65,0,0,0-2.27,3.84A6.84,6.84,0,0,0,86.49,96a16.07,16.07,0,0,1-8.17,3,20.87,20.87,0,0,1-8.91-2.15h0a8.44,8.44,0,0,0-.52-6.57c-1.66-3.69-5.65-3.57-7.53-3a1.3,1.3,0,1,0,.72,2.5h.05c.13,0,3.25-1,4.39,1.56A6,6,0,0,1,67,95.79a2.52,2.52,0,0,1-.21.4l-.2.2s-2,2-7.13,2.5a7.81,7.81,0,0,1-.83,0c-3.91,0-7.84-2.55-9.3-3.62l.32-3.94a1.3,1.3,0,0,0-2.59-.21h0l-.32,3.9a13.32,13.32,0,0,1-7,1.56c-.49,0-1,0-1.49-.05-5.39-.34-6-5.83-6-6.35a3.55,3.55,0,0,1,1.92-2.85,2.82,2.82,0,0,1,1.72-.47l-.09,0,1-2.4c-.26-.1-1.62-.58-3.86.6a6.06,6.06,0,0,0-3.17,4.12,8.24,8.24,0,0,1-1.48.14c-2.9,0-5-1.51-6.13-4.5-2.42-6.19,3-12.15,3.57-12.71A6.62,6.62,0,0,1,30,70.64a4,4,0,0,1,3.76,2.49A1.31,1.31,0,0,0,35,74a1.54,1.54,0,0,0,.42-.07,1.31,1.31,0,0,0,.82-1.65h0A6.58,6.58,0,0,0,30.09,68a9,9,0,0,0-4.86,1.32A12.94,12.94,0,0,1,24,58.27a9.61,9.61,0,0,1,8.86-6.59,6.25,6.25,0,0,0,4.88,3.5,8.4,8.4,0,0,0,1,.07A7.19,7.19,0,0,0,45,51.09,1.3,1.3,0,0,0,42.64,50c0,.13-1.47,3-4.53,2.6a3.62,3.62,0,0,1-2.66-1.66l-.54-1.15a1.4,1.4,0,0,1-.07-.19,6,6,0,0,1-.26-1.73s0-.08,0-.12c0-1.63.59-4.15,3.08-7.27,3.86-4.86,10.39-4,12.19-3.7l1.83,4.12a1.31,1.31,0,0,0,1.19.77,1.1,1.1,0,0,0,.53-.11,1.3,1.3,0,0,0,.66-1.71h0l-2-4.45a.56.56,0,0,0,0-.08,7,7,0,0,1,5-5.09,8.45,8.45,0,0,1,2.4-.35,7.88,7.88,0,0,1,5.25,2l.29.3a3.57,3.57,0,0,1,.5,3.52,2.92,2.92,0,0,1-2.74,1.84,1.3,1.3,0,0,0-.24,2.59h.29a5.54,5.54,0,0,0,5-3.3,5.88,5.88,0,0,0-.37-5.59A16.19,16.19,0,0,1,73.93,29a8,8,0,0,1,1.1-.07A9.53,9.53,0,0,1,80.77,31a6,6,0,0,0-1.37,2.71,5.3,5.3,0,0,0,3.66,6.4,1.75,1.75,0,0,0,.32,0,1.3,1.3,0,0,0,1.3-1.3,1.32,1.32,0,0,0-1-1.27,2.69,2.69,0,0,1-1.75-3.33c.48-2.22,3.12-3.24,3.63-3.42a11,11,0,0,1,3.65-.64,9.66,9.66,0,0,1,3.44.63,7.92,7.92,0,0,1,4.61,4.43.42.42,0,0,0,0,.1,9.62,9.62,0,0,1,.7,2.9l0,2.19c-.43,1.86-1.39,1.86-1.83,1.86a2.89,2.89,0,0,1-1.48-.48,1.3,1.3,0,0,0-1.6,2.05,5.42,5.42,0,0,0,3.08,1c1.18,0,4-.47,4.54-4.88,0-.25,0-.5.06-.74a5.09,5.09,0,0,1,2.28,1,3.41,3.41,0,0,1,1.25,3.85l-.71,2.06,2.15-.35a9.18,9.18,0,0,1,1.39-.08,12,12,0,0,1,8.2,3.07c3.42,3.21,2.22,7.65,1.82,8.81-.14.29-2,4-4.49,4.11a1.78,1.78,0,0,1-1.33-.3,1.14,1.14,0,0,1-.14-.86,1.3,1.3,0,0,0-2.53-.61,3.78,3.78,0,0,0,.66,3.12,3.82,3.82,0,0,0,3.13,1.25h.34c3.07-.14,5.16-2.91,6.13-4.52a8.24,8.24,0,0,1,7.28,7.41A6.51,6.51,0,0,1,123,73.33Z" transform="translate(0 0)" style="fill:#b8c4e0"/><path id="Tracé_91" data-name="Tracé 91" d="M101.94,56a7.52,7.52,0,0,0-1.77-6.68c-4.19-5-10.55-3.93-14.49-2.15a9.1,9.1,0,0,0-6.17-6.92c-4.76-1.62-8.43,1.59-10.14,3.55a11.86,11.86,0,0,0-8.75-3.16,8,8,0,0,0-7,5.58,6.84,6.84,0,0,0,2.22,7.85,8,8,0,0,0,10.56-.28,1.3,1.3,0,1,0-1.78-1.9h0a5.33,5.33,0,0,1-7.16.14,4.35,4.35,0,0,1-1.38-5,5.41,5.41,0,0,1,4.64-3.82c5.4-.11,7.56,3.17,7.64,3.3a1.3,1.3,0,0,0,2.2,0c0-.05,3.54-5.41,8.16-3.84a6.63,6.63,0,0,1,4.59,6.45,1.3,1.3,0,0,0,1.22,1.37,1.27,1.27,0,0,0,.76-.19c.34-.21,8.23-5,12.92.64a5,5,0,0,1,1.23,4.43,5.31,5.31,0,0,1-2.6,3.46c-1.7.76-3.83-.36-3.84-.37a1.3,1.3,0,1,0-1.25,2.28h0a8.89,8.89,0,0,0,3.19.93,6,6,0,0,0,3-.47A8,8,0,0,0,101.94,56Z" transform="translate(0 0)" style="fill:#b8c4e0"/><path id="Tracé_92" data-name="Tracé 92" d="M45.49,74.31A5.92,5.92,0,0,0,45.18,71h0a6.79,6.79,0,0,0,2.23-.38,6,6,0,0,0,3.78-4.26,8.23,8.23,0,0,0-1.41-7.22C47.39,56.29,43.67,57,42,57.77a1.3,1.3,0,0,0,1.11,2.35h0s3-1.35,4.66.68a5.6,5.6,0,0,1,.89,4.85,3.44,3.44,0,0,1-2.12,2.5,5,5,0,0,1-4-.48,10.74,10.74,0,0,0-1.51-1L41,66.54a1.3,1.3,0,1,0-1.88,1.8l.06.06s.17.16.41.36h0a10.29,10.29,0,0,0,1.61,1.08,4.29,4.29,0,0,1,1.75,4c-.53,2.84-2.64,3-2.89,3a1.3,1.3,0,0,0,0,2.6A5.78,5.78,0,0,0,45.49,74.31Z" transform="translate(0 0)" style="fill:#b8c4e0"/><path id="Tracé_93" data-name="Tracé 93" d="M50.75,79.63a7.75,7.75,0,0,0-6.86,4.76,1.3,1.3,0,1,0,2.4,1l0-.07a5.18,5.18,0,0,1,4.52-3.1c2.85-.09,3.15,3.11,3.18,3.47a1.3,1.3,0,0,0,1.3,1.22h.08a1.31,1.31,0,0,0,1.22-1.38C56.48,83.43,55.1,79.49,50.75,79.63Z" transform="translate(0 0)" style="fill:#b8c4e0"/><path id="Tracé_94" data-name="Tracé 94" d="M108.16,69.16c-2.09-1.76-5.24-1.24-5.38-1.21a1.18,1.18,0,0,0,.4,2.33s2.21-.35,3.45.69a2.93,2.93,0,0,1,.89,2.39,3.6,3.6,0,0,1-1,2.74,4,4,0,0,1-2.74.86A1.19,1.19,0,0,0,102.54,78a1.29,1.29,0,0,0,0,.39,4.16,4.16,0,0,1-.3,2.9,1.81,1.81,0,0,1-1.42.66,2.51,2.51,0,0,1-2-.53,3.07,3.07,0,0,1-.68-2.14A1.19,1.19,0,0,0,97,78.07a1.17,1.17,0,0,0-1.24,1.06,5.39,5.39,0,0,0,1.35,4,4.53,4.53,0,0,0,3.33,1.26l.58,0a4.1,4.1,0,0,0,3.15-1.64,5.48,5.48,0,0,0,.87-3.46,5.43,5.43,0,0,0,4.83-5.9A5.2,5.2,0,0,0,108.16,69.16Z" transform="translate(0 0)" style="fill:#b8c4e0"/></g></g></g></g></g></g></g><g id="Groupe_10769" data-name="Groupe 10769"><path id="Tracé_22523" data-name="Tracé 22523" d="M66.33,53.62A45.73,45.73,0,0,1,59.49,58a43.61,43.61,0,0,1-7.43,2.84" transform="translate(0 0)" style="fill:none;stroke:#8595ba;stroke-linecap:round;stroke-linejoin:bevel;stroke-width:2px"/><path id="Tracé_22935" data-name="Tracé 22935" d="M97.22,60.85a46.77,46.77,0,0,0-6.84-4.39,44,44,0,0,0-7.44-2.84" transform="translate(0 0)" style="fill:none;stroke:#8595ba;stroke-linecap:round;stroke-linejoin:bevel;stroke-width:2px"/></g><g id="Groupe_11091" data-name="Groupe 11091"><g id="Groupe_10734" data-name="Groupe 10734"><g id="Groupe_29" data-name="Groupe 29"><path id="Tracé_97" data-name="Tracé 97" d="M93.9,70.16a6.38,6.38,0,1,1-6.38-6.38,6.38,6.38,0,0,1,6.38,6.38Z" transform="translate(0 0)" style="fill:none;stroke:#8595ba;stroke-width:2px"/><path id="Tracé_98" data-name="Tracé 98" d="M92.54,72.17A2.51,2.51,0,1,1,90,69.67h0A2.51,2.51,0,0,1,92.54,72.17Z" transform="translate(0 0)" style="fill:#8595ba;stroke:#8595ba;stroke-width:2px"/></g></g><g id="Groupe_10742" data-name="Groupe 10742"><g id="Groupe_29-2" data-name="Groupe 29-2"><path id="Tracé_97-2" data-name="Tracé 97-2" d="M70.89,70.16a6.38,6.38,0,1,1-6.38-6.38,6.38,6.38,0,0,1,6.38,6.38Z" transform="translate(0 0)" style="fill:none;stroke:#8595ba;stroke-width:2px"/><path id="Tracé_98-2" data-name="Tracé 98-2" d="M69.53,72.17A2.51,2.51,0,1,1,67,69.67h0A2.51,2.51,0,0,1,69.53,72.17Z" transform="translate(0 0)" style="fill:#8595ba;stroke:#8595ba;stroke-width:2px"/></g></g></g></g></g></g><g id="Groupe_11092" data-name="Groupe 11092"><g id="Groupe_22" data-name="Groupe 22"><path id="Tracé_51" data-name="Tracé 51" d="M81.26,85.73a2.59,2.59,0,0,0-.9-1.91,5,5,0,0,0-2.07-1.14,7.22,7.22,0,0,0-4.12,0,5,5,0,0,0-2.07,1.14,2.67,2.67,0,0,0-.9,1.91c0,1.34,1.2.73,2.92.3a7.57,7.57,0,0,1,4.22,0C80.06,86.46,81.26,87.07,81.26,85.73Z" transform="translate(0 0)" style="fill:#8595ba"/></g><path id="Tracé_52" data-name="Tracé 52" d="M78.29,82.93a7.4,7.4,0,0,0-4.12,0,2.08,2.08,0,0,0,4.12,0Z" transform="translate(0 0)" style="fill:#8595ba"/></g></g></g><g id="umbrella"><path id="Tracé_22936" data-name="Tracé 22936" d="M138.2,23.11v46.8a3.47,3.47,0,1,1-6.93,0" transform="translate(0 0)" style="fill:none;stroke:#8595ba;stroke-linecap:round;stroke-miterlimit:10;stroke-width:2px"/><path id="Tracé_22937" data-name="Tracé 22937" d="M138.2,46.51a6.51,6.51,0,0,1,9.1-1.3,6.41,6.41,0,0,1,1.3,1.3,6.51,6.51,0,0,1,9.1-1.3,6.41,6.41,0,0,1,1.3,1.3,20.8,20.8,0,0,0-41.6,0,6.51,6.51,0,0,1,9.1-1.3,6.41,6.41,0,0,1,1.3,1.3,6.51,6.51,0,0,1,9.1-1.3A6.41,6.41,0,0,1,138.2,46.51Z" transform="translate(0 0)" style="fill:#b8c4e0"/></g></g></g></g></g></svg>