<svg id="Calque_1" data-name="Calque 1" xmlns="http://www.w3.org/2000/svg" viewBox="0 0 315.36 172.13"><title>icecreamNEO</title><g id="Groupe_12394" data-name="Groupe 12394"><g id="Groupe_12855" data-name="Groupe 12855"><g id="Groupe_11172" data-name="Groupe 11172"><g id="fusee"><g id="OBJECTS"><g id="Groupe_10733" data-name="Groupe 10733"><path id="Tracé_20852" data-name="Tracé 20852" d="M272.28,148.65c-16.45,9.74-30,11.79-39.5,11.79-24.34-.1-57-13.64-69.48-14.5a169.62,169.62,0,0,0-18.18.1c-11.9.43-20.24,1.49-27.38,2.28-8.92,1-22.08,2.17-38.53,3-1.29.21-29.74,3.67-44.37-16.89-1.07-1.43-11.79-17.05-6.59-30.13,2.83-7.13,11.59-16.55,21.43-22,2.38-1.29,3.9-1.84,4.46-3.57,2.25-7-18.45-14.6-20.59-27.27C32.46,45.09,35.6,35.24,56,20.09c14.07-6.6,34-12.88,53.79-6.17,16.87,5.74,18.39,15.58,33.86,18.62,19.6,3.69,24.89-10.6,58.44-16.12,14.08-2.38,29-4.55,43.84,3.34,3,1.64,20.34,10.83,22.72,26.77C271.42,65.69,246.3,74.24,249.13,90c3,17.53,35.39,19.33,37.34,35.81C287.54,134.36,280,142.48,272.28,148.65Z" transform="translate(0 0)" style="fill:#dfe4f4"/><circle id="Ellipse_392" data-name="Ellipse 392" cx="304.43" cy="27.65" r="10.93" style="fill:#dfe4f4"/><circle id="Ellipse_393" data-name="Ellipse 393" cx="285.16" cy="47.13" r="5.41" style="fill:#dfe4f4"/><circle id="Ellipse_394" data-name="Ellipse 394" cx="8.55" cy="129.17" r="8.55" style="fill:#dfe4f4"/><circle id="Ellipse_395" data-name="Ellipse 395" cx="297.61" cy="105.03" r="8.55" style="fill:#dfe4f4"/><circle id="Ellipse_396" data-name="Ellipse 396" cx="25.53" cy="23.75" r="8.55" style="fill:#dfe4f4"/></g></g></g></g><g id="Groupe_12853" data-name="Groupe 12853"><g id="Groupe_12852" data-name="Groupe 12852"><g id="Groupe_10757" data-name="Groupe 10757"><path id="Tracé_34" data-name="Tracé 34" d="M90.44,89.94c-.07.16-8,15.74-24.83,13.73-6.78-.81-11.79-4.57-14.88-11.19A32.15,32.15,0,0,1,48,83.13c2-1.07,4.3-3.33,5.54-8,2.32-8.81-6.69-7.42-7.5-4.29,0-1.06-.71-2.54-2.85-1.88-3,.93-3.6,4.56-3.08,8a5.37,5.37,0,0,1-.58-6.6c2.25-3.9,2.88-5.45,1.48-6.48-1.6-1.17-8.52,5.22-3.67,13.31a7,7,0,0,1-2.55-7c0-.17.07-.34.17-.83.78-3.88.82-5.35-.68-5.74-2.4-.63-9.25,17.57,8,20.32a38.16,38.16,0,0,0,3.09,10.88c3.94,8.52,10.69,13.58,19.5,14.64a32.09,32.09,0,0,0,3.66.22,28.87,28.87,0,0,0,19.61-7.74,35.1,35.1,0,0,0,7.39-9.36ZM43.27,74.6c1-2.51,2.21-1.12,2.75-3.16h0a1.91,1.91,0,0,0,.13.51s.26,1.08,2.55.82.68,5.8-.94,6.17S41.64,78.71,43.27,74.6Z" transform="translate(0 0)" style="fill:#8595ba"/></g><g id="Groupe_12849" data-name="Groupe 12849"><path id="Tracé_24564" data-name="Tracé 24564" d="M54.1,42.64l-5.81,40.6a2.17,2.17,0,0,1-2.46,1.84A2.13,2.13,0,0,1,44.23,84L24.88,47.79Z" transform="translate(0 0)" style="fill:#fdeaaf"/><path id="Tracé_24565" data-name="Tracé 24565" d="M30.54,46.79,45,83.82c.37,1,1,1.34,1.51,1.25A2.13,2.13,0,0,1,44.22,84L24.87,47.79Z" transform="translate(0 0)" style="fill:#f8cc7c"/><path id="Tracé_24566" data-name="Tracé 24566" d="M56,27.62l-38.1,6.72,1.3,7.34a8,8,0,0,0,9.31,6.52L50.8,44.28A8,8,0,0,0,57.32,35Z" transform="translate(0 0)" style="fill:#fdeaaf"/><path id="Tracé_24567" data-name="Tracé 24567" d="M22.37,33.55l1.29,7.35A8,8,0,0,0,33,47.42l-4.44.78a8,8,0,0,1-9.31-6.52l-1.3-7.35Z" transform="translate(0 0)" style="fill:#f8cc7c"/><g id="Groupe_12845" data-name="Groupe 12845"><path id="Tracé_24569" data-name="Tracé 24569" d="M44.88,75.88a1,1,0,0,0-1.2-.84,27.83,27.83,0,0,1-3.52.37.89.89,0,0,0-.45.12l1,1.92a28,28,0,0,0,3.3-.37A1,1,0,0,0,44.88,75.88Z" transform="translate(0 0)" style="fill:#f8cc7c"/><path id="Tracé_24570" data-name="Tracé 24570" d="M28.21,54A30.16,30.16,0,0,0,40,54.35a1,1,0,0,0,.85-1.2,1,1,0,0,0-1.2-.84h0a27.17,27.17,0,0,1-11.83-.55,1,1,0,0,0-.8.07Z" transform="translate(0 0)" style="fill:#f8cc7c"/><path id="Tracé_24571" data-name="Tracé 24571" d="M42.21,60.73A1.05,1.05,0,0,0,41,59.88a29.12,29.12,0,0,1-8.89.12,1.08,1.08,0,0,0-.64.11l1.09,2a31.72,31.72,0,0,0,8.81-.22A1,1,0,0,0,42.21,60.73Z" transform="translate(0 0)" style="fill:#f8cc7c"/><path id="Tracé_24572" data-name="Tracé 24572" d="M36.2,67.83a1.12,1.12,0,0,0-.54.12l1.06,2a31.56,31.56,0,0,0,6-.42,1,1,0,0,0-.36-2A29.38,29.38,0,0,1,36.2,67.83Z" transform="translate(0 0)" style="fill:#f8cc7c"/><path id="Tracé_24573" data-name="Tracé 24573" d="M28,47.3a1.06,1.06,0,0,1,.34-.12l11.8-2.08a1,1,0,0,1,1.21.83,1,1,0,0,1-.84,1.21h0l-11.8,2.08a1,1,0,0,1-.7-1.91Z" transform="translate(0 0)" style="fill:#f8cc7c"/></g></g></g><g id="Groupe_12848" data-name="Groupe 12848"><g id="Groupe_10785" data-name="Groupe 10785"><g id="Groupe_10779" data-name="Groupe 10779"><path id="Tracé_22535" data-name="Tracé 22535" d="M230.7,60.61s10,39.05,9.63,54.79-.32,20.32-5.08,20.77c-6.43.58-3.93-7.56-3.93-7.56s-1.78,2.35-3.18,1.45.58-3.43,4.1-7.2,5.33-4.43,2.38-20.75S223.48,67.8,224.18,63.77,230.7,60.61,230.7,60.61Z" transform="translate(0 0)" style="fill:#8595ba"/><g id="Groupe_10740" data-name="Groupe 10740"><g id="Groupe_10740-2" data-name="Groupe 10740-2"><g id="Groupe_10738" data-name="Groupe 10738"><g id="Groupe_34" data-name="Groupe 34"><g id="Groupe_25" data-name="Groupe 25"><path id="Tracé_87" data-name="Tracé 87" d="M127.67,104.1s3.88,60.19,1.92,62-12.58.2-14.51,3.5,16.27,3.13,18.59,1.08,0-66.57,0-66.57Z" transform="translate(0 0)" style="fill:#8595ba"/><path id="Tracé_88" data-name="Tracé 88" d="M182.78,102.68s-3.88,60.19-1.93,62,12.59.17,14.51,3.5-16.26,3.13-18.59,1.1,0-66.57,0-66.57h6Z" transform="translate(0 0)" style="fill:#8595ba"/></g><path id="Tracé_22536" data-name="Tracé 22536" d="M80.19,101.38c-7.81,2.66-5.21,7.84,5,4.43A38.09,38.09,0,0,1,80.19,101.38Z" transform="translate(0 0)" style="fill:#8595ba"/><g id="Groupe_27" data-name="Groupe 27"><path id="Tracé_89" data-name="Tracé 89" d="M196,116.85c1.86.77,8.14,3,13.22-.25,6.05-3.86,6.05-8.44,6.05-8.44a17.55,17.55,0,0,0,17.62-4.1c8.44-7.73,4.58-23.15,4.58-23.15s7.94-4.1,7-12.61C243,54.59,229,53.81,229,53.81s4.36-10.38-3.37-17.62-17.87-5.55-17.87-5.55,1.92-5.56-2.9-8.94-8.67-1.38-8.67-1.38S197,9.33,187,5.6c-9.51-3.55-17.64,2.08-17.64,2.08s-6.06-6.51-14.74-5.3S141.1,7.93,141.1,7.93a15.44,15.44,0,0,0-15-3.38A13.9,13.9,0,0,0,116,15.67S100.45,11.34,92,22s-4.35,19.52-4.35,19.52-14-1.9-18.29,11.39A23.49,23.49,0,0,0,73,75.1S61.64,86.44,66.47,98.78s16.42,9.71,16.42,9.71,1,10.56,12.34,11.29,16.19-3.38,16.19-3.38,9.91,8.21,19.57,7.23,13.29-4.83,13.29-4.83,9.18,5.23,18.12,4.91,16.19-6.36,16.19-6.36a9.52,9.52,0,0,0,8.93,4.35C193.48,121.05,195.61,116.7,196,116.85Z" transform="translate(0 0)" style="fill:#f3f6fe"/><g id="Groupe_26" data-name="Groupe 26"><path id="Tracé_90" data-name="Tracé 90" d="M246.61,68.07c-1.12-10.48-9.08-14.81-14.79-16,.93-3.93,1.58-11.51-4.7-17.42a24.34,24.34,0,0,0-16.7-6.31h-.12a9.66,9.66,0,0,0-4.2-8.36,12.29,12.29,0,0,0-6.66-2.5,14.56,14.56,0,0,0-1.47-4A17.38,17.38,0,0,0,187.75,3.6a20.85,20.85,0,0,0-7.28-1.33,22.5,22.5,0,0,0-7.14,1.18h-.05c-.05,0-.25.07-.52.17-.1,0-.2.08-.3.1h0A29.76,29.76,0,0,0,169.65,5,20.41,20.41,0,0,0,156.79,0a16.72,16.72,0,0,0-2.45.17A31.26,31.26,0,0,0,141.17,5.1a17.56,17.56,0,0,0-10.4-3.45,19.8,19.8,0,0,0-5.24.75,16,16,0,0,0-11.16,10.69c-4.75-.7-16.21-1.23-23.5,7.93C86,27.13,84.82,32.31,84.82,35.91V36A10.56,10.56,0,0,0,85,38.21c-4.73.56-14.07,3-17.62,13.92a25.77,25.77,0,0,0,2.78,22.62l-.43.48a2.23,2.23,0,0,0-.4.8c-3.35,4.35-8.78,13.54-4.88,23.5,3.5,9,10.46,10.29,14.29,10.29a18.85,18.85,0,0,0,2.6-.2c1.1,5,4.86,11.73,13.74,12.28.93,0,1.88.1,2.78.1,7,0,11.34-1.8,13.44-3,2.9,2.1,10.28,6.83,18.07,6.83.62,0,1.22,0,1.82-.08a29.52,29.52,0,0,0,12-3.53,7.32,7.32,0,0,0,1.45-.8c2.93,1.46,9.86,4.46,17,4.46a8.43,8.43,0,0,0,.87,0c6.94-.25,12.82-3.6,15.67-5.53.25.25.5.5.78.73l.17.1a11.25,11.25,0,0,0,7.38,2.75h0a10.64,10.64,0,0,0,1.26-.07,13.7,13.7,0,0,0,8.85-4.46,20.6,20.6,0,0,0,6.41,1.1,13.72,13.72,0,0,0,7.43-2,15.11,15.11,0,0,0,6.49-7.61,19.86,19.86,0,0,0,17.46-5.18c7.73-7.06,6.33-19.34,5.56-23.7C242.43,80.13,247.44,75.6,246.61,68.07ZM236.9,78.71c-1.15-.35-2.58-.75-4.3-1.18A8.55,8.55,0,0,0,224,79.78a7.35,7.35,0,0,0-1.4,7.54c1.15,3.17,3.85,4.08,6.28,4.08a10.25,10.25,0,0,0,3.25-.53,2,2,0,1,0-1.2-3.75l-.07,0h0c-.15,0-3.68,1.23-4.56-1.2a3.46,3.46,0,0,1,.63-3.55,4.68,4.68,0,0,1,4.75-1.08c1.56.4,2.86.75,3.9,1.08.63,3.33,2.1,14.31-4.15,20a15.76,15.76,0,0,1-10.84,4.38,15.17,15.17,0,0,1-4.33-.63l-3.93-7.51a2.18,2.18,0,0,0-3.88,2v0l4.4,8.45c-.4,1.28-1.52,3.53-4.83,5.66a9.09,9.09,0,0,1-5.08,1.38,17,17,0,0,1-6.13-1.3l-.42-.18h-.45a2.91,2.91,0,0,0-2.18,1.25,9.48,9.48,0,0,1-6.56,3.58,7.47,7.47,0,0,1-.8,0h0a7.25,7.25,0,0,1-5.68-2.85,6.89,6.89,0,0,1-1-4.1,3.49,3.49,0,0,1,1.62-2.95c2.78-1.6,4.13-.25,4.48.22a2.18,2.18,0,0,0,3.58-2.5c-1.25-1.83-5-4.5-10.21-1.5a7.84,7.84,0,0,0-3.8,6.43,11.4,11.4,0,0,0,.55,4.26c-2.27,1.57-7.58,4.75-13.66,5-5.81.2-11.84-2.18-14.92-3.6v0c1.25-3.05.95-7-.87-11-2.78-6.15-9.44-6-12.59-5a2.18,2.18,0,0,0,1.3,4.16h0c.22-.08,5.43-1.63,7.33,2.62,1.3,2.88,1.6,5.64.8,7.56a3.65,3.65,0,0,1-.35.68l-.32.32s-3.38,3.33-11.94,4.18a13.14,13.14,0,0,1-1.4.08c-6.53,0-13.09-4.28-15.54-6.06l.55-6.58a2.17,2.17,0,0,0-4.33-.38h0l-.55,6.54c-1.3.77-5,2.6-11.61,2.6-.8,0-1.66,0-2.5-.08-9-.57-10-9.76-10-10.63a6,6,0,0,1,3.2-4.76c1.93-1,2.88-.8,2.88-.78a.25.25,0,0,1-.15-.05l1.7-4c-.43-.17-2.7-1-6.46,1a10.14,10.14,0,0,0-5.3,6.89,13.78,13.78,0,0,1-2.48.22c-4.83,0-8.29-2.53-10.24-7.53-4-10.34,5.13-20.3,6-21.25a11.08,11.08,0,0,1,7.11-2.48,6.68,6.68,0,0,1,6.28,4.15,2.17,2.17,0,0,0,2.05,1.48,2.32,2.32,0,0,0,.7-.1A2.2,2.2,0,0,0,92,77a11,11,0,0,0-10.31-7.11,15.06,15.06,0,0,0-8.14,2.2,21.68,21.68,0,0,1-2.07-18.54c3-9.26,11.43-10.78,14.81-11a10.4,10.4,0,0,0,8.16,5.86,13.57,13.57,0,0,0,1.68.13c5.73,0,9.31-4.4,10.46-7a2.17,2.17,0,1,0-3.9-1.91l0,.11c-.1.2-2.45,5.08-7.58,4.35a6.08,6.08,0,0,1-4.46-2.77l-.9-1.93a.93.93,0,0,1-.12-.33,10.34,10.34,0,0,1-.43-2.87.44.44,0,0,0,0-.2c0-2.73,1-6.94,5.13-12.17,6.48-8.13,17.42-6.78,20.42-6.2l3.05,6.88a2.2,2.2,0,0,0,2,1.3,2.26,2.26,0,0,0,.88-.2,2.17,2.17,0,0,0,1.11-2.85v0l-3.3-7.43a.57.57,0,0,0-.08-.13,11.77,11.77,0,0,1,8.42-8.51,15.93,15.93,0,0,1,4-.6,13.31,13.31,0,0,1,8.79,3.38l.48.5c.82,1.23,2,3.55.82,5.88a4.88,4.88,0,0,1-4.58,3.08,2.17,2.17,0,0,0-.4,4.33,2.83,2.83,0,0,0,.5,0,9.26,9.26,0,0,0,8.41-5.5,9.81,9.81,0,0,0-.6-9.34,26.91,26.91,0,0,1,10.79-3.85,16.27,16.27,0,0,1,1.85-.13A15.85,15.85,0,0,1,166.33,8a10.45,10.45,0,0,0-2.3,4.53,8.86,8.86,0,0,0,6.13,10.72,1.81,1.81,0,0,0,.52.07,2.17,2.17,0,0,0,.53-4.28,4.47,4.47,0,0,1-2.93-5.55c.8-3.7,5.23-5.43,6.08-5.73a17.93,17.93,0,0,1,6.11-1,16,16,0,0,1,5.75,1,13.27,13.27,0,0,1,7.71,7.41.89.89,0,0,1,.08.17,15.37,15.37,0,0,1,1.17,4.86l-.05,3.65c-.72,3.1-2.33,3.1-3,3.1a4.77,4.77,0,0,1-2.48-.8,2.18,2.18,0,0,0-2.68,3.43h0a8.87,8.87,0,0,0,5.13,1.73c2,0,6.68-.8,7.59-8.16.05-.43.07-.83.1-1.25a8.51,8.51,0,0,1,3.8,1.67,5.72,5.72,0,0,1,2.1,6.43l-1.18,3.43,3.6-.57a18.11,18.11,0,0,1,2.33-.15,20.15,20.15,0,0,1,13.71,5.13c5.73,5.38,3.7,12.79,3,14.74-.23.47-3.25,6.68-7.51,6.86a3,3,0,0,1-2.23-.5,1.89,1.89,0,0,1-.22-1.43,2.17,2.17,0,0,0-1.61-2.6h0a2.19,2.19,0,0,0-2.6,1.58,6.28,6.28,0,0,0,1.1,5.2,6.37,6.37,0,0,0,5.23,2.1,3.33,3.33,0,0,0,.55,0c5.13-.23,8.64-4.88,10.27-7.56,3.15.52,11.11,2.8,12.16,12.39.68,5.88-3.87,9.23-5.35,10.16Z" transform="translate(0 0)" style="fill:#b8c4e0"/><path id="Tracé_91" data-name="Tracé 91" d="M201.74,49.8a12.57,12.57,0,0,0-3-11.18c-7-8.44-17.65-6.59-24.23-3.58a15.19,15.19,0,0,0-10.31-11.57c-8-2.7-14.12,2.66-17,5.94-2.38-2.28-7-5.44-14.61-5.29-5.13.1-10,4-11.79,9.34a11.44,11.44,0,0,0,3.7,13.11,13.28,13.28,0,0,0,17.64-.45A2.17,2.17,0,1,0,139.27,43a9,9,0,0,1-12,.22,7.28,7.28,0,0,1-2.3-8.33c1.23-3.63,4.48-6.31,7.76-6.39,9-.17,12.64,5.31,12.79,5.51a2.17,2.17,0,0,0,3,.72,2.3,2.3,0,0,0,.7-.69c0-.1,5.9-9.06,13.64-6.44a11.1,11.1,0,0,1,7.68,10.79,2.18,2.18,0,0,0,2.05,2.3,2.07,2.07,0,0,0,1.28-.33c.55-.35,13.76-8.35,21.6,1.08a8.28,8.28,0,0,1,2,7.41,9,9,0,0,1-4.35,5.78c-2.86,1.28-6.41-.6-6.44-.63a2.17,2.17,0,0,0-2.1,3.8h0A15,15,0,0,0,190,59.31a9.92,9.92,0,0,0,5-.78A13.08,13.08,0,0,0,201.74,49.8Z" transform="translate(0 0)" style="fill:#b8c4e0"/><path id="Tracé_92" data-name="Tracé 92" d="M107.36,80.36a9.86,9.86,0,0,0-.52-5.58h0a11.06,11.06,0,0,0,3.7-.63A10,10,0,0,0,116.9,67a13.82,13.82,0,0,0-2.36-12.09c-4-4.73-10.23-3.55-13-2.25a2.18,2.18,0,1,0,1.88,3.93h0c.05,0,4.93-2.28,7.8,1.12a9.36,9.36,0,0,1,1.48,8.11A5.71,5.71,0,0,1,109.19,70a8.41,8.41,0,0,1-6.63-.8A20.33,20.33,0,0,0,100,67.5l-.23-.2a2.18,2.18,0,0,0-3.17,3l.12.12h0l.68.6,0,0a21.13,21.13,0,0,0,2.68,1.83c1.65,1.4,3.48,3.68,2.93,6.66-.9,4.75-4.4,5-4.83,5a2.18,2.18,0,1,0,0,4.35h0C100.86,88.92,106.09,87.14,107.36,80.36Z" transform="translate(0 0)" style="fill:#b8c4e0"/><path id="Tracé_93" data-name="Tracé 93" d="M116.15,89.24a13,13,0,0,0-11.46,8A2.16,2.16,0,1,0,108.61,99a1.42,1.42,0,0,0,.08-.18s0,0,0-.1a8.69,8.69,0,0,1,7.56-5.18c4.78-.15,5.28,5.21,5.33,5.81a2.19,2.19,0,0,0,2.18,2.05h.15a2.17,2.17,0,0,0,2-2.29h0C125.73,95.6,123.43,89,116.15,89.24Z" transform="translate(0 0)" style="fill:#b8c4e0"/><path id="Tracé_94" data-name="Tracé 94" d="M212.15,71.73c-3.48-2.93-8.76-2.08-9-2a2,2,0,0,0,.65,3.9s3.7-.58,5.75,1.15a4.9,4.9,0,0,1,1.48,4,6.05,6.05,0,0,1-1.6,4.58,6.93,6.93,0,0,1-4.58,1.45,2,2,0,0,0-2.15,1.78v0a2,2,0,0,0,.05.65c.2.8.52,3.43-.5,4.86a3,3,0,0,1-2.38,1.1,4.14,4.14,0,0,1-3.4-.9,5.1,5.1,0,0,1-1.12-3.58,2,2,0,0,0-4-.3,9.11,9.11,0,0,0,2.24,6.66,7.51,7.51,0,0,0,5.58,2.1c.33,0,.63,0,1-.05a6.77,6.77,0,0,0,5.25-2.73,9.15,9.15,0,0,0,1.46-5.78,9.58,9.58,0,0,0,5.15-2.33,9.73,9.73,0,0,0,2.9-7.53A8.5,8.5,0,0,0,212.15,71.73Z" transform="translate(0 0)" style="fill:#b8c4e0"/></g></g></g></g><g id="Groupe_10736" data-name="Groupe 10736"><g id="Groupe_10734" data-name="Groupe 10734"><g id="Groupe_29" data-name="Groupe 29"><g id="Groupe_10803" data-name="Groupe 10803"><path id="Tracé_97" data-name="Tracé 97" d="M187,70A12.18,12.18,0,1,1,174.77,57.8,12.17,12.17,0,0,1,187,70Z" transform="translate(0 0)" style="fill:none;stroke:#8595ba;stroke-width:4px"/><path id="Tracé_98" data-name="Tracé 98" d="M175,74.3a3.58,3.58,0,1,1-3.58-3.57h0A3.57,3.57,0,0,1,175,74.3Z" transform="translate(0 0)" style="fill:#8595ba;stroke:#8595ba;stroke-width:4px"/></g></g></g></g><g id="Groupe_10804" data-name="Groupe 10804"><g id="Groupe_10734-2" data-name="Groupe 10734-2"><g id="Groupe_29-2" data-name="Groupe 29-2"><g id="Groupe_10803-2" data-name="Groupe 10803-2"><path id="Tracé_97-2" data-name="Tracé 97-2" d="M147.42,70A12.18,12.18,0,1,1,135.23,57.8,12.17,12.17,0,0,1,147.42,70Z" transform="translate(0 0)" style="fill:none;stroke:#8595ba;stroke-width:4px"/><path id="Tracé_98-2" data-name="Tracé 98-2" d="M134.39,75.41a3.58,3.58,0,1,1-3.58-3.58h0a3.58,3.58,0,0,1,3.58,3.58Z" transform="translate(0 0)" style="fill:#8595ba;stroke:#8595ba;stroke-width:4px"/></g></g></g></g></g><path id="Tracé_22520" data-name="Tracé 22520" d="M145,97.15a8.07,8.07,0,0,1,6.3-4.64c4.83-.76,13,1.6,13,1.6" transform="translate(0 0)" style="fill:none;stroke:#8595ba;stroke-linecap:round;stroke-linejoin:bevel;stroke-width:3px"/></g></g><g id="Groupe_10807" data-name="Groupe 10807"><path id="Tracé_22533" data-name="Tracé 22533" d="M111.86,53.4s9.19,1.42,15.17-1.6,8.71-10.49,8.71-10.49" transform="translate(0 0)" style="fill:none;stroke:#8595ba;stroke-linecap:round;stroke-linejoin:bevel;stroke-width:5px"/><path id="Tracé_22534" data-name="Tracé 22534" d="M193.51,53.4s-9.19,1.42-15.17-1.6-8.71-10.49-8.71-10.49" transform="translate(0 0)" style="fill:none;stroke:#8595ba;stroke-linecap:round;stroke-linejoin:bevel;stroke-width:5px"/></g></g><g id="food-and-restaurant"><g id="Groupe_12850" data-name="Groupe 12850"><path id="Tracé_24561" data-name="Tracé 24561" d="M17.79,167.49a8.53,8.53,0,0,1,8.09-5.8h4.35a1.39,1.39,0,0,0,1.36-1.09,5.14,5.14,0,0,1,4.22-4c0-.12,0-.23,0-.35a17,17,0,1,1,33.56,3.48,2.07,2.07,0,0,0,1.35,2.39A8.58,8.58,0,0,1,76,167.47a2.09,2.09,0,0,1-1.3,2.65,2.19,2.19,0,0,1-.67.11H19.77a2.07,2.07,0,0,1-2-2.74Z" transform="translate(0 0)" style="fill:#e25fbb"/><g id="Groupe_12844" data-name="Groupe 12844"><path id="Tracé_24562" data-name="Tracé 24562" d="M76,167.46a8.56,8.56,0,0,0-5.33-5.32,2.08,2.08,0,0,1-1.35-2.4,17,17,0,0,0-16.6-20.43,16.65,16.65,0,0,0-2,.12,17,17,0,0,1,14.85,18.83c-.06.5-.14,1-.24,1.48a2.08,2.08,0,0,0,1.34,2.4,8.55,8.55,0,0,1,5.34,5.32,2.09,2.09,0,0,1-1.3,2.65,1.92,1.92,0,0,1-.67.11h4a2.07,2.07,0,0,0,2.09-2.08A2,2,0,0,0,76,167.46Z" transform="translate(0 0)" style="fill:#f18dd5"/><path id="Tracé_24563" data-name="Tracé 24563" d="M69.36,159.74a2.19,2.19,0,0,0,0,.57L37.55,148.75a17,17,0,0,1,31.81,11Z" transform="translate(0 0)" style="fill:#f18dd5"/></g><path id="Tracé_24568" data-name="Tracé 24568" d="M35.81,156.6l.32,0a4.11,4.11,0,0,1,4.1,4.1h0a1,1,0,1,0,2.07,0,6.18,6.18,0,0,0-6.17-6.17h-.24a17.09,17.09,0,0,0-.09,1.75C35.8,156.38,35.81,156.49,35.81,156.6Z" transform="translate(0 0)" style="fill:#f18dd5"/></g></g></g></g></g></g></svg>