<svg id="Calque_1" data-name="Calque 1" xmlns="http://www.w3.org/2000/svg" xmlns:xlink="http://www.w3.org/1999/xlink" viewBox="0 0 393.37 422.9"><defs><linearGradient id="Dégradé_sans_nom_3" x1="145.02" y1="479.78" x2="458.85" y2="479.78" gradientTransform="translate(-101.31 -380.94)" gradientUnits="userSpaceOnUse"><stop offset="0" stop-color="#3796d3"/><stop offset="1" stop-color="#70c8e3"/></linearGradient><linearGradient id="Dégradé_sans_nom_3-2" x1="454.51" y1="344.43" x2="458.86" y2="344.43" gradientTransform="matrix(1, 0, 0, -1, -101.31, 633.06)" xlink:href="#Dégradé_sans_nom_3"/><linearGradient id="Dégradé_sans_nom_3-3" x1="237.88" y1="455.47" x2="360.76" y2="455.47" gradientTransform="translate(0 -171.89)" xlink:href="#Dégradé_sans_nom_3"/></defs><polygon points="0.79 42.92 0 264.61 309.5 422.9 310.28 201.21 0.79 42.92" style="fill:#114369"/><polygon points="0.79 42.92 83.87 0 393.37 158.29 310.28 201.21 0.79 42.92" style="fill:#0f2d43"/><polygon points="310.28 201.21 393.37 158.29 392.58 379.98 309.5 422.9 310.28 201.21" style="fill:#0f2d43"/><polygon points="48.04 18.51 43.71 20.87 353.2 179.16 357.53 176.8 48.04 18.51" style="fill:url(#Dégradé_sans_nom_3)"/><polygon points="353.2 400.46 357.53 398.09 357.53 176.8 353.2 179.16 353.2 400.46" style="fill:url(#Dégradé_sans_nom_3-2)"/><path d="M343.08,268.11l-72.45-37a14.1,14.1,0,0,0-12.6-1.18l-15.36,7.88a14.2,14.2,0,0,0-5.12,9.06V282.7l12.6,6.69,15.75-7.88v-24L327.72,289a10.19,10.19,0,0,1,5.12,7.88v35l12.6,6.3,15.78-7.86v-35A34.3,34.3,0,0,0,343.08,268.11Z" transform="translate(-101.31 -209.05)" style="fill:url(#Dégradé_sans_nom_3-3)"/></svg>