<svg id="Calque_1" data-name="Calque 1" xmlns="http://www.w3.org/2000/svg" viewBox="0 0 38.42 38.42"><title>joyful</title><g id="Groupe_9" data-name="Groupe 9"><circle id="Ellipse_34" data-name="Ellipse 34" cx="19.21" cy="19.21" r="19.21" style="fill:#fdd835"/><path id="Tracé_22421" data-name="Tracé 22421" d="M19.21,0A19.21,19.21,0,1,1,0,19.21,19.21,19.21,0,0,1,19.21,0Z" transform="translate(0 0)" style="fill:#ccc"/><path id="Tracé_28" data-name="Tracé 28" d="M10.67,22.86H27.88s-.19,7.33-8.61,7.33S10.67,22.86,10.67,22.86Z" transform="translate(0 0)" style="fill:#212121"/><path id="Tracé_29" data-name="Tracé 29" d="M15,29.33a11.39,11.39,0,0,0,8.66,0c-.3-1.22-2.12-2.16-4.33-2.16S15.25,28.11,15,29.33Z" transform="translate(0 0)" style="fill:#ff5252"/><path id="Tracé_30" data-name="Tracé 30" d="M8.51,19.39s2.9-4.08,7.19,0" transform="translate(0 0)" style="fill:none;stroke:#212121;stroke-linecap:round;stroke-linejoin:round;stroke-width:3px"/><path id="Tracé_31" data-name="Tracé 31" d="M30,19.39s-2.9-4.08-7.19,0" transform="translate(0 0)" style="fill:none;stroke:#212121;stroke-linecap:round;stroke-linejoin:round;stroke-width:3px"/><path id="Tracé_32" data-name="Tracé 32" d="M11.55,17.35a3.29,3.29,0,0,1,2.58.66" transform="translate(0 0)" style="fill:none;stroke:#7e7e7e;stroke-linecap:round;stroke-linejoin:round;stroke-width:2px"/><path id="Tracé_33" data-name="Tracé 33" d="M26.25,17.35a3.3,3.3,0,0,1,2.59.66" transform="translate(0 0)" style="fill:none;stroke:#7e7e7e;stroke-linecap:round;stroke-linejoin:round;stroke-width:2px"/></g></svg>