<svg xmlns="http://www.w3.org/2000/svg" width="60.602" height="61.558" viewBox="0 0 60.602 61.558"><defs><style>.a{fill:#fff;}</style></defs><g transform="translate(-3.978)"><g transform="translate(3.978)"><g transform="translate(0)"><path class="a" d="M43.774,0A20.819,20.819,0,0,0,24.316,28.188L4.422,48.084a1.517,1.517,0,0,0-.444,1.072V60.042a1.516,1.516,0,0,0,1.516,1.516h8.971a1.516,1.516,0,0,0,1.071-.443L18.56,58.1A1.516,1.516,0,0,0,19,57.023V53.311h3.708a1.516,1.516,0,0,0,1.516-1.516V50.309h1.486a1.516,1.516,0,0,0,1.516-1.516V45.53h3.263a1.517,1.517,0,0,0,1.072-.444l4.824-4.824A20.808,20.808,0,1,0,43.774,0Zm0,38.579a17.638,17.638,0,0,1-7.134-1.49,1.516,1.516,0,0,0-1.668.3l-.014.013L29.866,42.5H25.715A1.516,1.516,0,0,0,24.2,44.014v3.263H22.713A1.516,1.516,0,0,0,21.2,48.793v1.486H17.489a1.516,1.516,0,0,0-1.516,1.516v4.6l-2.134,2.131H7.011V56.383L25.543,37.851a1.365,1.365,0,1,0-1.93-1.93l-16.6,16.6V49.784L27.173,29.62l.012-.013a1.516,1.516,0,0,0,.3-1.668,17.777,17.777,0,1,1,16.285,10.64Z" transform="translate(-3.978)"/></g></g><g transform="translate(44.427 8.794)"><path class="a" d="M346.08,73.144a5.679,5.679,0,1,0,5.679,5.679A5.686,5.686,0,0,0,346.08,73.144Zm0,8.326a2.647,2.647,0,1,1,2.647-2.647A2.65,2.65,0,0,1,346.08,81.47Z" transform="translate(-340.401 -73.144)"/></g></g></svg>