<svg xmlns="http://www.w3.org/2000/svg" width="11.843" height="15.562" viewBox="0 0 11.843 15.562"><defs><style>.a{fill:#9f9f9f;}</style></defs><path class="a" d="M8.836,10a.9.9,0,0,1-.456.771v1.964H7.468V10.773A.9.9,0,0,1,7.012,10a.912.912,0,0,1,1.823,0Zm4.983-2.29v6.455a1.369,1.369,0,0,1-1.368,1.368H3.344a1.369,1.369,0,0,1-1.368-1.368V7.711A1.369,1.369,0,0,1,3.344,6.343h.022V4.531a4.559,4.559,0,0,1,9.117,0V6.347a1.366,1.366,0,0,1,1.336,1.364ZM4.277,6.343h7.294V4.531a3.647,3.647,0,1,0-7.294,0Zm8.63,1.368a.453.453,0,0,0-.424-.449v0H3.365v-.01H3.344a.457.457,0,0,0-.456.456v6.455a.457.457,0,0,0,.456.456h9.107a.457.457,0,0,0,.456-.456V7.711Z" transform="translate(-1.976 0.028)"/></svg>