<svg id="Calque_1" data-name="Calque 1" xmlns="http://www.w3.org/2000/svg" viewBox="0 0 162.75 148.11"><title>Groupe 10121</title><circle cx="37.5" cy="37.5" r="37.5" style="fill:#f24f56"/><g style="isolation:isolate"><text transform="translate(13.8 51)" style="isolation:isolate;font-size:37px;fill:#fff;font-family:Muli-SemiBold, Muli;font-weight:700">21</text></g><path d="M117.39,83.17h15.48A28.47,28.47,0,0,0,108.66,59V74.44h-7.85V59A28.45,28.45,0,0,0,76.6,83.17H92.08V91H76.6a28.47,28.47,0,0,0,24.2,24.21V99.75h7.86v15.48A28.49,28.49,0,0,0,132.87,91H117.39Zm-12.66,8.18A4.26,4.26,0,1,1,109,87.09h0a4.26,4.26,0,0,1-4.26,4.26Z" transform="translate(-9 -6)" style="fill:#e70020"/><path d="M62,83.17h6.71a36.33,36.33,0,0,1,32.13-32.12V36.46A50.85,50.85,0,0,0,54.1,83.17Z" transform="translate(-9 -6)" style="fill:#e70020"/><path d="M155.37,83.17H140.78a36.32,36.32,0,0,0-32.12-32.12V36.46A50.86,50.86,0,0,1,155.37,83.17Z" transform="translate(-9 -6)" style="fill:#e70020"/><path d="M100.81,129.85v-6.71A36.33,36.33,0,0,1,68.68,91H54.1a50.85,50.85,0,0,0,46.71,46.71Z" transform="translate(-9 -6)" style="fill:#e70020"/><path d="M155.37,91a50.86,50.86,0,0,1-46.71,46.71V123.14A36.32,36.32,0,0,0,140.78,91Z" transform="translate(-9 -6)" style="fill:#e70020"/><path d="M108.66,20.07V36.46c-1.3-.11-2.6-.16-3.93-.16s-2.63.06-3.92.16V20.07Z" transform="translate(-9 -6)" style="fill:#e70020"/><path d="M108.66,137.73v16.38h-7.85V137.73c1.29.1,2.6.15,3.92.15S107.36,137.83,108.66,137.73Z" transform="translate(-9 -6)" style="fill:#e70020"/><path d="M171.75,83.17V91H155.37c.1-1.3.15-2.6.15-3.93s-.05-2.63-.15-3.92Z" transform="translate(-9 -6)" style="fill:#e70020"/><path d="M54.1,83.17H37.71V91H54.1c-.11-1.3-.16-2.6-.16-3.93S54,84.46,54.1,83.17Z" transform="translate(-9 -6)" style="fill:#e70020"/><path d="M117.39,91h15.48a28.49,28.49,0,0,1-24.21,24.21V99.75h-3.93v-8.4a4.26,4.26,0,1,0,0-8.51h0v-8.4h3.93V59a28.47,28.47,0,0,1,24.21,24.21H117.39Z" transform="translate(-9 -6)" style="fill:#e70020"/><path d="M108.66,20.07V36.46c-1.3-.11-2.61-.16-3.93-.16V20.07Z" transform="translate(-9 -6)" style="fill:#e70020"/><path d="M104.73,137.88q2,0,3.93-.15v16.38h-3.93Z" transform="translate(-9 -6)" style="fill:#e70020"/><path d="M140.78,91h14.59a50.86,50.86,0,0,1-46.71,46.71V123.14A36.32,36.32,0,0,0,140.78,91Z" transform="translate(-9 -6)" style="fill:#e70020"/><path d="M155.37,83.17H140.78a36.32,36.32,0,0,0-32.12-32.12V36.46A50.86,50.86,0,0,1,155.37,83.17Z" transform="translate(-9 -6)" style="fill:#e70020"/><path d="M171.75,83.17V91H155.37c.1-1.3.15-2.6.15-3.93s-.05-2.63-.15-3.92Z" transform="translate(-9 -6)" style="fill:#e70020"/></svg>