<svg xmlns="http://www.w3.org/2000/svg" xmlns:xlink="http://www.w3.org/1999/xlink" width="110.431" height="110.431" viewBox="0 0 110.431 110.431"><defs><style>.a{opacity:0.75;}.b{fill:url(#a);}.c{fill:#f8f8f8;}</style><linearGradient id="a" x1="0.5" x2="0.5" y2="1" gradientUnits="objectBoundingBox"><stop offset="0" stop-color="#1da2f7"/><stop offset="1" stop-color="#1d62f1"/></linearGradient></defs><g transform="translate(-124.39 -55)"><g class="a" transform="translate(124.39 55)"><circle class="b" cx="55.216" cy="55.216" r="55.216" transform="translate(0 0)"/></g><g transform="translate(152.869 76.367)"><path class="c" d="M421.828,105.412c-.276-.4-.325-.5-.491-.749a1.344,1.344,0,0,0,.337-2.663,2.529,2.529,0,0,0-2.853,2.681,3.756,3.756,0,0,0,.779,2.234,2.645,2.645,0,0,1,.564,1.792c0,1.049-.4,1.841-5.584,2.706-3.547.577-11.861,3.559-11.861,6.694a1.417,1.417,0,0,0,1.325,1.448,1.227,1.227,0,0,0,1.326-1.227c.472-.957,5.24-3.534,9.652-4.252,3.307-.54,7.836-1.282,7.836-5.351A5.3,5.3,0,0,0,421.828,105.412Z" transform="translate(-370.499 -55.01)"/><path class="c" d="M406.582,64.351c0-1.9-3.921-8.922-5.878-12.309a35.884,35.884,0,0,0,.509-6.48c0-5.731-7.584-20.132-25.5-20.132-17.592,0-25.5,13.346-25.5,22.82,0,6.7,3.958,13.567,7.136,19.077,1.841,3.215,3.6,6.247,3.6,7.768,0,3.418-5.559,10.192-7.695,12.511a1.348,1.348,0,1,0,1.97,1.841c.859-.933,8.413-9.253,8.413-14.334,0-2.24-1.743-5.271-3.958-9.106-3.019-5.24-6.75-11.757-6.75-17.739,0-6.572,5.578-20.132,22.82-20.132,17.071-.025,22.808,13.733,22.808,17.426a30.48,30.48,0,0,1-.546,6.394,1.363,1.363,0,0,0,.141,1c2.7,4.639,5.676,10.327,5.774,11.382-.123.368-1.516,1.086-2.964,1.393a1.344,1.344,0,0,0-1,1.737l1.049,3.234-.755.755a1.344,1.344,0,1,0,1.9,1.9l1.344-1.344a1.344,1.344,0,0,0,.325-1.374l-.9-2.688C404.471,67.413,406.582,66.321,406.582,64.351Z" transform="translate(-350.21 -25.43)"/><path class="c" d="M382.429,68.215l-7.658-7.664V56.292L377.06,54a1.344,1.344,0,0,0-1.9-1.9l-2.682,2.681a1.35,1.35,0,0,0-.393.951v5.381a1.351,1.351,0,0,0,.393.951l7.658,7.639V98.68a1.344,1.344,0,0,0,2.682,0V69.16A1.345,1.345,0,0,0,382.429,68.215Z" transform="translate(-358.664 -35.608)"/><path class="c" d="M403.6,63.069H385.371l-2.295-2.289a1.344,1.344,0,1,0-1.9,1.9l2.681,2.681a1.35,1.35,0,0,0,.951.393H403.6a1.344,1.344,0,0,0,0-2.681Z" transform="translate(-361.999 -38.911)"/><path class="c" d="M411.414,52.064a1.344,1.344,0,0,0-1.9,0l-2.289,2.264h-7.5a1.344,1.344,0,0,0,0,2.681h8.051a1.344,1.344,0,0,0,.951-.393l2.681-2.681A1.344,1.344,0,0,0,411.414,52.064Z" transform="translate(-368.861 -35.57)"/><path class="c" d="M402.653,43.314a1.344,1.344,0,0,0-1.9,0l-2.283,2.295h-4.811a1.344,1.344,0,0,0-.951.393l-2.681,2.681a1.344,1.344,0,0,0,1.9,1.9l2.252-2.289h4.811a1.344,1.344,0,0,0,.951-.393l2.681-2.681a1.344,1.344,0,0,0,.031-1.9Z" transform="translate(-365.469 -32.189)"/><path class="c" d="M379.056,41.624l-2.681-2.681a1.35,1.35,0,0,0-.951-.393h-5.369a1.35,1.35,0,0,0-.951.393l-5.351,5.369a1.349,1.349,0,0,0-.393.951v13.42a1.342,1.342,0,0,0,.393.945l7.664,7.664V93.578a1.344,1.344,0,0,0,2.681,0V66.739a1.344,1.344,0,0,0-.393-.945l-7.676-7.664V45.815l4.584-4.584h4.258l2.295,2.289a1.344,1.344,0,1,0,1.9-1.9Z" transform="translate(-355.291 -30.499)"/><path class="c" d="M376.948,49.49a2.681,2.681,0,1,0,2.675,2.681A2.681,2.681,0,0,0,376.948,49.49Z" transform="translate(-359.503 -34.727)"/><path class="c" d="M407.022,73.944a1.344,1.344,0,0,0-1.9,0l-2.295,2.295h-4.259l-2.295-2.289a1.344,1.344,0,0,0-1.9,1.9l2.706,2.681a1.35,1.35,0,0,0,.951.393h5.369a1.344,1.344,0,0,0,.951-.393l2.681-2.681a1.344,1.344,0,0,0-.018-1.9Z" transform="translate(-367.149 -44.024)"/><path class="c" d="M398.948,103.239l-2.295-2.295V91.323l2.289-2.295a1.344,1.344,0,0,0-1.878-1.9l-2.681,2.681a1.349,1.349,0,0,0-.393.951V101.5a1.349,1.349,0,0,0,.393.951l2.681,2.681a1.344,1.344,0,0,0,1.9-1.9Z" transform="translate(-367.126 -49.162)"/><path class="c" d="M415.725,78.314a1.344,1.344,0,0,0-1.9,0L403.091,89.052A1.35,1.35,0,0,0,402.7,90v5.369a1.344,1.344,0,1,0,2.681,0V90.555L415.725,80.21A1.344,1.344,0,0,0,415.725,78.314Z" transform="translate(-370.49 -45.713)"/><path class="c" d="M398.831,110.73a2.681,2.681,0,1,0,2.682,2.681,2.681,2.681,0,0,0-2.682-2.681Z" transform="translate(-367.961 -58.389)"/><path class="c" d="M416.43,95.814a1.344,1.344,0,0,0-1.9,0l-2.681,2.681a1.35,1.35,0,0,0-.393.951v5.369a1.344,1.344,0,0,0,2.681,0V100l2.289-2.295A1.344,1.344,0,0,0,416.43,95.814Z" transform="translate(-373.877 -52.474)"/><path class="c" d="M407.582,40.74a2.681,2.681,0,1,0,2.681,2.681A2.681,2.681,0,0,0,407.582,40.74Z" transform="translate(-371.342 -31.346)"/></g></g></svg>