<svg id="Calque_1" data-name="Calque 1" xmlns="http://www.w3.org/2000/svg" xmlns:xlink="http://www.w3.org/1999/xlink" viewBox="0 0 1192.99 670.76"><defs><clipPath id="clip-path" transform="translate(400.98 190.78)"><rect width="375" height="406" style="fill:none"/></clipPath><linearGradient id="Dégradé_sans_nom" x1="-5417.06" y1="3464.66" x2="-5417.82" y2="3463.76" gradientTransform="matrix(597.33, 577.4, 595.77, -616.35, 1172327.27, 5263315.43)" gradientUnits="userSpaceOnUse"><stop offset="0" stop-color="#1da0f7"/><stop offset="1" stop-color="#1d71f2"/></linearGradient></defs><title>backgroun1</title><g style="clip-path:url(#clip-path)"><g id="Groupe_de_masques_29" data-name="Groupe de masques 29"><path id="Tracé_24159" data-name="Tracé 24159" d="M194-190.78-401,398.66-317.39,476c63.57,9.07,130.2,2.33,195.15-18,47.65-14.94,92.3-36.95,135.89-62,44.55-25.61,89.42-53.46,139-66.63,51.93-13.79,102.12-4.28,148.81,12.22,53,18.73,102.66,43.86,155.17,63.54,47.24,17.71,96.92,30.81,149.62,31.3,46.94.44,98.59-11.4,140.19-38.05A221.11,221.11,0,0,0,792,359.6Z" transform="translate(400.98 190.78)" style="fill:url(#Dégradé_sans_nom)"/></g></g></svg>