<svg xmlns="http://www.w3.org/2000/svg" width="273.624" height="298.124" viewBox="0 0 273.624 298.124">
  <g id="Groupe_12780" data-name="Groupe 12780" transform="translate(-64.507 70.021)">
    <g id="Groupe_12770" data-name="Groupe 12770" transform="translate(214.657 31.73)">
      <g id="Groupe_12043" data-name="Groupe 12043" transform="translate(0 0)">
        <ellipse id="Ellipse_509" data-name="Ellipse 509" cx="31.795" cy="55.071" rx="31.795" ry="55.071" transform="translate(0 31.797) rotate(-30.001)" fill="#fcfcfd"/>
        <path id="Tracé_24249" data-name="Tracé 24249" d="M1437.725,344.077c-7.522-13.028-17.915-24.4-29.394-31.029-10.673-6.162-20.405-7.131-27.766-3.745,7.123-2.5,16.164-1.237,26.011,4.447,11.479,6.627,21.871,18,29.393,31.03s12.176,27.716,12.176,40.969-4.653,22.568-12.176,26.911c-.527.3-1.072.578-1.627.834a19.949,19.949,0,0,0,3.383-1.536c7.522-4.343,12.175-13.657,12.175-26.911S1445.247,357.107,1437.725,344.077Z" transform="translate(-1351.463 -298.5)" fill="#e44c74" fill-rule="evenodd"/>
        <path id="Tracé_24250" data-name="Tracé 24250" d="M1391.7,351.511c-5.216-3.012-9.445-.571-9.445,5.452s4.229,13.347,9.445,16.359,9.445.571,9.445-5.453-4.229-13.346-9.445-16.358Zm0-31.58c10.162,5.867,19.361,15.933,26.019,27.464s10.775,24.532,10.775,36.264-4.119,19.978-10.775,23.821-15.857,3.288-26.019-2.579-19.361-15.934-26.018-27.464-10.776-24.532-10.776-36.264,4.119-19.977,10.776-23.821,15.858-3.287,26.018,2.579Zm-29.394-8.426c7.523-4.343,17.915-3.716,29.394,2.911s21.871,18,29.393,31.03,12.176,27.716,12.176,40.969-4.653,22.568-12.176,26.911-17.915,3.716-29.393-2.911-21.871-18-29.394-31.03-12.176-27.716-12.176-40.97,4.654-22.567,12.176-26.91Zm29.394,20.518c7.27,4.2,13.852,11.4,18.613,19.647s7.708,17.549,7.708,25.942-2.946,14.292-7.708,17.042-11.344,2.352-18.613-1.845-13.851-11.4-18.613-19.647-7.709-17.549-7.709-25.943,2.947-14.292,7.709-17.041,11.344-2.352,18.613,1.846Zm-21.989-7.692c5.627-3.249,13.4-2.779,21.989,2.178s16.361,13.466,21.988,23.212,9.109,20.734,9.109,30.648-3.482,16.883-9.109,20.131-13.4,2.78-21.988-2.178-16.362-13.466-21.989-23.213-9.108-20.734-9.108-30.649,3.481-16.883,9.108-20.131Zm21.989,20.2a34.224,34.224,0,0,1,15.488,26.825c0,4.939-1.733,8.41-4.535,10.028s-6.675,1.384-10.953-1.086a34.226,34.226,0,0,1-15.488-26.826c0-4.94,1.734-8.411,4.536-10.028s6.676-1.383,10.953,1.087Zm-14.328-6.933c3.667-2.116,8.734-1.811,14.328,1.419s10.662,8.775,14.328,15.126,5.935,13.51,5.935,19.97-2.269,11-5.935,13.117-8.734,1.812-14.328-1.419-10.661-8.775-14.328-15.126-5.936-13.51-5.936-19.971S1373.71,339.716,1377.376,337.6Z" transform="translate(-1336.592 -299.167)" fill="#ff698a" fill-rule="evenodd"/>
        <path id="Tracé_24251" data-name="Tracé 24251" d="M1366.661,312.032c7.523-4.342,17.916-3.715,29.395,2.912s21.871,18,29.393,31.03,12.176,27.716,12.176,40.969c0,8.2-1.783,14.879-4.92,19.818,3.352-4.986,5.271-11.851,5.271-20.345,0-13.253-4.653-27.94-12.176-40.969s-17.915-24.4-29.393-31.03-21.871-7.254-29.394-2.911a21.118,21.118,0,0,0-7.256,7.094A20.977,20.977,0,0,1,1366.661,312.032Z" transform="translate(-1341.293 -299.167)" fill="#ffeaf3" fill-rule="evenodd"/>
      </g>
      <g id="Groupe_12044" data-name="Groupe 12044" transform="translate(17.759 65.458)">
        <path id="Tracé_24252" data-name="Tracé 24252" d="M1369.353,453.5v2.426l-9.571,5.6-1.026-1.821Z" transform="translate(-1358.564 -435.372)" fill="#2f393f"/>
        <path id="Tracé_24253" data-name="Tracé 24253" d="M1412.022,419.35l-31.933,19.213v-2.84l31.138-17.53Z" transform="translate(-1368.989 -418.115)" fill="#2f393f"/>
        <path id="Tracé_24254" data-name="Tracé 24254" d="M1379.362,444.58l-3.484,5.953-7.526,6.7-1.8-.056,3.91-7.159-3.91-2.992,8.894-4.393Z" transform="translate(-1362.376 -430.058)" fill="#72abef"/>
        <path id="Tracé_24255" data-name="Tracé 24255" d="M1381.844,447.311l-3.192,5.106-9.322,6.641,3.91-7.159-3.91-2.992,8.657-4.253,3.111.97Z" transform="translate(-1363.732 -431.047)" fill="#72abef"/>
        <path id="Tracé_24256" data-name="Tracé 24256" d="M1441.819,418.96c0,.314-.22.441-.492.284a1.088,1.088,0,0,1-.492-.852c0-.314.22-.441.492-.284A1.088,1.088,0,0,1,1441.819,418.96Z" transform="translate(-1398.676 -418.041)" fill="#2f393f"/>
        <path id="Tracé_24257" data-name="Tracé 24257" d="M1359.853,466.9c0,.47-.33.66-.736.425a1.628,1.628,0,0,1-.736-1.276c0-.469.33-.66.736-.425A1.628,1.628,0,0,1,1359.853,466.9Z" transform="translate(-1358.38 -441.245)" fill="#4a555c"/>
        <path id="Tracé_24258" data-name="Tracé 24258" d="M1366.557,461.373l1.418.894,3.91-7.159-3.91-2.992-1.418-.894,3.91,2.992Z" transform="translate(-1362.376 -434.257)" fill="#4a90e5"/>
        <ellipse id="Ellipse_510" data-name="Ellipse 510" cx="0.62" cy="1.074" rx="0.62" ry="1.074" transform="translate(7.213 20.215) rotate(-30.001)" fill="#2f393f"/>
        <path id="Tracé_24259" data-name="Tracé 24259" d="M1392.517,447.3c0,.551-.387.774-.864.5a1.909,1.909,0,0,1-.864-1.5c0-.551.387-.774.864-.5A1.908,1.908,0,0,1,1392.517,447.3Z" transform="translate(-1374.219 -431.552)" fill="#72abef"/>
        <path id="Tracé_24260" data-name="Tracé 24260" d="M1373.06,459.352l-2.829,1.6.863-2.2,1.22-.631Z" transform="translate(-1364.172 -437.626)" fill="#2f393f"/>
        <path id="Tracé_24261" data-name="Tracé 24261" d="M1368.076,447.912l8.557-4.247-1.181-1.034-8.895,4.393Z" transform="translate(-1362.376 -430.058)" fill="#a5d4fb"/>
        <path id="Tracé_24262" data-name="Tracé 24262" d="M1393.938,446a1.909,1.909,0,0,0-.864-1.5.613.613,0,0,0-.584-.066c-.007-.014-1.234.692-1.234.692l.014.033a.614.614,0,0,1,.571.069,1.91,1.91,0,0,1,.864,1.5.746.746,0,0,1-.132.415.868.868,0,0,0-.094.159l1.2-.712A.648.648,0,0,0,1393.938,446Z" transform="translate(-1374.447 -430.917)" fill="#84c2f7"/>
      </g>
      <g id="Groupe_12045" data-name="Groupe 12045" transform="translate(45.114 71.694)">
        <path id="Tracé_24263" data-name="Tracé 24263" d="M1422.853,465.7v2.426l-9.571,5.6-1.026-1.821Z" transform="translate(-1412.064 -447.568)" fill="#2f393f"/>
        <path id="Tracé_24264" data-name="Tracé 24264" d="M1465.523,431.547,1433.59,450.76v-2.84l31.138-17.53Z" transform="translate(-1422.49 -430.312)" fill="#2f393f"/>
        <path id="Tracé_24265" data-name="Tracé 24265" d="M1432.863,456.776l-3.483,5.954-7.527,6.7-1.795-.057,3.91-7.159-3.91-2.992,8.894-4.393Z" transform="translate(-1415.877 -442.254)" fill="#72abef"/>
        <path id="Tracé_24266" data-name="Tracé 24266" d="M1435.345,459.508l-3.192,5.106-9.322,6.641,3.91-7.159-3.91-2.992,8.657-4.252,3.112.97Z" transform="translate(-1417.232 -443.244)" fill="#72abef"/>
        <path id="Tracé_24267" data-name="Tracé 24267" d="M1495.32,431.157c0,.313-.22.441-.492.284a1.086,1.086,0,0,1-.492-.852c0-.313.22-.441.492-.284A1.086,1.086,0,0,1,1495.32,431.157Z" transform="translate(-1452.176 -430.238)" fill="#2f393f"/>
        <path id="Tracé_24268" data-name="Tracé 24268" d="M1413.353,479.095c0,.469-.33.66-.736.425a1.628,1.628,0,0,1-.737-1.275c0-.47.33-.66.737-.425A1.628,1.628,0,0,1,1413.353,479.095Z" transform="translate(-1411.88 -453.442)" fill="#4a555c"/>
        <path id="Tracé_24269" data-name="Tracé 24269" d="M1420.057,473.57l1.418.894,3.91-7.159-3.91-2.992-1.418-.894,3.91,2.992Z" transform="translate(-1415.876 -446.453)" fill="#4a90e5"/>
        <path id="Tracé_24270" data-name="Tracé 24270" d="M1428.122,470.486c0,.484-.34.681-.759.439a1.679,1.679,0,0,1-.76-1.315c0-.484.34-.68.76-.438A1.678,1.678,0,0,1,1428.122,470.486Z" transform="translate(-1419.075 -449.214)" fill="#2f393f"/>
        <path id="Tracé_24271" data-name="Tracé 24271" d="M1446.017,459.5c0,.551-.386.774-.863.5a1.908,1.908,0,0,1-.864-1.5c0-.551.387-.774.864-.5A1.909,1.909,0,0,1,1446.017,459.5Z" transform="translate(-1427.719 -443.749)" fill="#72abef"/>
        <path id="Tracé_24272" data-name="Tracé 24272" d="M1426.561,471.548l-2.829,1.6.863-2.2,1.221-.631Z" transform="translate(-1417.672 -449.822)" fill="#2f393f"/>
        <path id="Tracé_24273" data-name="Tracé 24273" d="M1421.576,460.109l8.557-4.247-1.181-1.035-8.895,4.393Z" transform="translate(-1415.876 -442.255)" fill="#a5d4fb"/>
        <path id="Tracé_24274" data-name="Tracé 24274" d="M1447.438,458.195a1.909,1.909,0,0,0-.864-1.5.612.612,0,0,0-.583-.067c-.008-.014-1.234.692-1.234.692l.014.033a.615.615,0,0,1,.571.068,1.91,1.91,0,0,1,.864,1.5.749.749,0,0,1-.131.416.847.847,0,0,0-.1.158l1.2-.712A.647.647,0,0,0,1447.438,458.195Z" transform="translate(-1427.947 -443.114)" fill="#84c2f7"/>
      </g>
      <g id="Groupe_12046" data-name="Groupe 12046" transform="translate(6.541 46.429)">
        <path id="Tracé_24275" data-name="Tracé 24275" d="M1347.411,416.286v2.426l-9.57,5.6-1.026-1.821Z" transform="translate(-1336.623 -398.154)" fill="#2f393f"/>
        <path id="Tracé_24276" data-name="Tracé 24276" d="M1390.082,382.133l-31.933,19.213v-2.84l31.138-17.53Z" transform="translate(-1347.049 -380.898)" fill="#2f393f"/>
        <path id="Tracé_24277" data-name="Tracé 24277" d="M1357.421,407.362l-3.483,5.953-7.526,6.7-1.8-.056,3.911-7.159-3.911-2.992,8.895-4.393Z" transform="translate(-1340.435 -392.84)" fill="#72abef"/>
        <path id="Tracé_24278" data-name="Tracé 24278" d="M1359.9,410.093l-3.192,5.106-9.321,6.641,3.91-7.159-3.91-2.992,8.657-4.253,3.111.971Z" transform="translate(-1341.791 -393.829)" fill="#72abef"/>
        <path id="Tracé_24279" data-name="Tracé 24279" d="M1419.878,381.742c0,.313-.22.441-.492.284a1.088,1.088,0,0,1-.492-.852c0-.314.221-.441.492-.284A1.086,1.086,0,0,1,1419.878,381.742Z" transform="translate(-1376.735 -380.823)" fill="#2f393f"/>
        <path id="Tracé_24280" data-name="Tracé 24280" d="M1337.912,429.681c0,.469-.329.66-.736.425a1.627,1.627,0,0,1-.736-1.275c0-.47.33-.66.736-.425A1.627,1.627,0,0,1,1337.912,429.681Z" transform="translate(-1336.439 -404.027)" fill="#4a555c"/>
        <path id="Tracé_24281" data-name="Tracé 24281" d="M1344.616,424.156l1.418.894,3.91-7.159-3.91-2.992-1.418-.894,3.91,2.992Z" transform="translate(-1340.435 -397.039)" fill="#4a90e5"/>
        <path id="Tracé_24282" data-name="Tracé 24282" d="M1352.68,421.072c0,.484-.34.68-.759.438a1.677,1.677,0,0,1-.759-1.315c0-.484.339-.68.759-.438A1.677,1.677,0,0,1,1352.68,421.072Z" transform="translate(-1343.634 -399.8)" fill="#2f393f"/>
        <path id="Tracé_24283" data-name="Tracé 24283" d="M1370.576,410.084c0,.551-.387.774-.864.5a1.908,1.908,0,0,1-.864-1.5c0-.551.386-.774.864-.5A1.91,1.91,0,0,1,1370.576,410.084Z" transform="translate(-1352.277 -394.334)" fill="#72abef"/>
        <path id="Tracé_24284" data-name="Tracé 24284" d="M1351.119,422.134l-2.829,1.6.862-2.2,1.221-.631Z" transform="translate(-1342.23 -400.408)" fill="#2f393f"/>
        <path id="Tracé_24285" data-name="Tracé 24285" d="M1346.135,410.695l8.557-4.247-1.181-1.035-8.895,4.393Z" transform="translate(-1340.435 -392.84)" fill="#a5d4fb"/>
        <path id="Tracé_24286" data-name="Tracé 24286" d="M1372,408.78a1.91,1.91,0,0,0-.864-1.5.613.613,0,0,0-.583-.066c-.008-.014-1.235.692-1.235.692l.015.033a.616.616,0,0,1,.572.069,1.91,1.91,0,0,1,.863,1.5.746.746,0,0,1-.132.416.869.869,0,0,0-.094.158l1.2-.712A.647.647,0,0,0,1372,408.78Z" transform="translate(-1352.505 -393.699)" fill="#84c2f7"/>
      </g>
    </g>
    <g id="Groupe_12768" data-name="Groupe 12768" transform="translate(64.507 -70.021)">
      <path id="Tracé_24160" data-name="Tracé 24160" d="M1128.048,622.509v28.765l-38.01-21.943-.034-19.6Z" transform="translate(-1043.317 -402.377)" fill="#88c0ea"/>
      <path id="Tracé_24161" data-name="Tracé 24161" d="M1201.317,609.8l-.016,19.566-38.112,22.011-.113-.068V622.54l.113.034Z" transform="translate(-1078.345 -402.409)" fill="#7fb3ea"/>
      <path id="Tracé_24162" data-name="Tracé 24162" d="M1128.191,611.522l-38.12-22.009,38.119-22.008,38.12,22.009Z" transform="translate(-1043.349 -382.136)" fill="#a1d6f7"/>
      <path id="Tracé_24163" data-name="Tracé 24163" d="M1129.847,589.291l-5.948,13.49a8.783,8.783,0,0,1-3.1-7.136c.275-2.984,6.876-11.99,6.876-11.99h.181A5.773,5.773,0,0,0,1129.847,589.291Z" transform="translate(-1058.065 -389.877)" fill="#f7ae46"/>
      <path id="Tracé_24164" data-name="Tracé 24164" d="M1162.734,605.4c-8.47,4.891-22.2,4.891-30.668,0-.34-.2-.674-.4-.985-.609l6.064-13.563c5.781,3.224,14.99,3.187,20.692-.1,3.3-1.906,4.7-4.477,4.231-6.955h.3s6.376,8.68,6.68,11.636C1169.4,599.246,1167.291,602.767,1162.734,605.4Z" transform="translate(-1063.008 -390.125)" fill="#f7ae46"/>
      <path id="Tracé_24165" data-name="Tracé 24165" d="M1125.857,649.123l-1.259.725-18.825-12.32-1.206-7.348,1.206-.768,20.084,11.6Z" transform="translate(-1050.298 -411.811)" fill="#ea687e"/>
      <path id="Tracé_24166" data-name="Tracé 24166" d="M1124.629,650.571l-20.084-11.6v-8.117l20.084,11.6Z" transform="translate(-1050.288 -412.506)" fill="#ff7384"/>
      <g id="Groupe_12009" data-name="Groupe 12009" transform="translate(3.178 4.088)">
        <path id="Tracé_24167" data-name="Tracé 24167" d="M1044.919,233.82c-10.333-13.264-22.086-17.024-29.854-12.937-.566.3-4.754,2.792-4.754,2.792a36.191,36.191,0,0,0-3.511,10.551c-1.182,7.774.5,19.183,5.145,28.359,5.412,10.693,13.536,15.355,21.68,19.951,4.04,2.28,10.349,6.015,12.926,11.744,1.577,3.507,2.182,8.092.792,10.1-.749,1.086-2.585,2.3-4.328.594-1.769-1.73-2.263-5.618.266-4.121,2.392,1.417,2.393-2.874,0-4.291-3.274-1.938-6.021,0-5.649,4.022.381,4.123,4.043,8.516,7.189,9.641,8.867,3.171,8.763-12,2.374-20.8-7.719-10.635-17.962-11.106-25.971-21.105-8.925-11.144-13.1-26.464-9.627-35.6,4.656-12.252,17.992-12.145,30.257,3.6,2.046,2.627,5.1.113,3.063-2.5Z" transform="translate(-1006.436 -219.315)" fill="#f9bb58"/>
      </g>
      <g id="Groupe_12010" data-name="Groupe 12010" transform="translate(0 6.009)">
        <path id="Tracé_24168" data-name="Tracé 24168" d="M1038.727,237.511c-15.946-20.47-35.275-18.305-38.119.406-1.182,7.774,1.526,17.586,6.171,26.761a48.944,48.944,0,0,0,20.654,21.549c4.04,2.279,10.349,6.015,12.926,11.744,1.577,3.507,2.181,8.092.792,10.1-.749,1.086-2.585,2.3-4.328.594-1.768-1.73-2.263-5.618.266-4.121,2.393,1.416,2.394-2.874,0-4.291-3.273-1.938-6.021,0-5.648,4.022.381,4.123,4.043,8.516,7.189,9.641,8.867,3.171,8.763-12,2.374-20.8-7.719-10.634-17.962-11.106-25.971-21.106-8.925-11.143-13.1-26.464-9.627-35.6,4.656-12.252,19.179-12.028,31.444,3.716,2.046,2.626,3.916,0,1.876-2.622Z" transform="translate(-1000.331 -223.006)" fill="#ffd483"/>
      </g>
      <ellipse id="Ellipse_506" data-name="Ellipse 506" cx="14.766" cy="8.525" rx="14.766" ry="8.525" transform="translate(69.625 186.446)" fill="#ffd483"/>
      <g id="Groupe_12011" data-name="Groupe 12011" transform="translate(78.876 155.004)">
        <path id="Tracé_24169" data-name="Tracé 24169" d="M1162.868,513.842a2.965,2.965,0,0,1-1.616-.369,8.623,8.623,0,0,0-7.805,0,3.191,3.191,0,0,1-1.613.39s0,35.727,0,35.941a2.707,2.707,0,0,0,1.615,2.315,8.626,8.626,0,0,0,7.805,0,2.817,2.817,0,0,0,1.612-2.13C1162.882,549.727,1162.868,513.842,1162.868,513.842Z" transform="translate(-1151.83 -510.792)" fill="#3f3c44"/>
        <path id="Tracé_24170" data-name="Tracé 24170" d="M1161.252,514.622a8.626,8.626,0,0,1-7.805,0c-2.155-1.244-2.155-3.262,0-4.506a8.626,8.626,0,0,1,7.805,0C1163.407,511.36,1163.407,513.378,1161.252,514.622Z" transform="translate(-1151.83 -509.182)" fill="#a1ceff"/>
      </g>
      <path id="Tracé_24171" data-name="Tracé 24171" d="M1139.3,507.844s1.841,3.665,3.517,2.7c4.7-2.715,12.328-2.715,17.031,0,1.714.99,3.528-2.746,3.528-2.746s.029,7.359-.009,7.93c-.112,1.689-1.285,3.359-3.519,4.649-4.7,2.715-12.328,2.715-17.032,0-2.411-1.392-3.585-3.227-3.525-5.051C1139.312,514.858,1139.3,507.844,1139.3,507.844Z" transform="translate(-1066.944 -353.514)" fill="#f7ae46"/>
      <path id="Tracé_24172" data-name="Tracé 24172" d="M1159.853,505.893c-4.7,2.716-12.328,2.715-17.031,0s-4.7-7.118,0-9.833,12.328-2.715,17.031,0S1164.556,503.178,1159.853,505.893Z" transform="translate(-1066.944 -346.912)" fill="#ffd483"/>
      <path id="Tracé_24173" data-name="Tracé 24173" d="M1167.033,277.2H1047.517s-5.505,85.825,51.1,118.7a8.371,8.371,0,0,0,1.284.9,16.22,16.22,0,0,0,14.675,0,8.5,8.5,0,0,0,1.175-.818C1172.6,364.128,1167.033,277.2,1167.033,277.2Z" transform="translate(-1022.88 -242.973)" fill="#f7ae46"/>
      <g id="Groupe_12013" data-name="Groupe 12013" transform="translate(110.072 64.812)">
        <g id="Groupe_12012" data-name="Groupe 12012" transform="translate(3.89)">
          <path id="Tracé_24174" data-name="Tracé 24174" d="M1228.645,343.665c11.966-7.32,25.362-2.63,32.447,9.292,6.477,10.9,7.143,23.787-2.292,32.344a22.519,22.519,0,0,1-16.519,5.67c-4.579-.167-9.667.005-14.017,1.6-.337.124-.923.341-1.246.495-.285.135-3.711,1.525-3.711,1.525s-5.7,9.615-3.635,15.4c.762,2.129,2.75,3.717,4.919,5.156a20.8,20.8,0,0,1,3.12,2.594s4.388-1.767,5.063-2.136a6.22,6.22,0,0,0,2.762-3.02c1.808-4.155-1.718-8.991-6.089-8.936a5.2,5.2,0,0,0-1.852.561c-.409.18-3.062,1.3-3.062,1.3s3.191,2.456,4.914,2.434c.917-.011,1,.831,1.306,1.537.37.845.814,1.627,0,2.306-1.266,1.05-3.082.331-4.178-.545-2.827-2.259-3.115-5.636-2.156-8.873,1.714-5.785,7.325-6.657,12.637-7.04,4.381-.315,8.707.329,13.034-.683a27.8,27.8,0,0,0,21.624-28.84c-.354-9.392-6.218-18.57-13.669-24.2-8.422-6.368-18.537-7.1-28.065-3.484-1.42.539-4.952,2.049-4.952,2.049l-.784,5.315s3.211-1.329,3.495-1.44a6.121,6.121,0,0,0,.911-.381Z" transform="translate(-1219.219 -335.949)" fill="#f9bb58"/>
        </g>
        <path id="Tracé_24175" data-name="Tracé 24175" d="M1264.1,368.858c-.355-9.391-6.421-18.494-13.871-24.128a27.268,27.268,0,0,0-28.843-3.1c-.223,1.713-.479,3.474-.763,5.266.071-.034.14-.059.212-.1,11.966-7.32,26.739-2.822,33.824,9.1,6.477,10.9,5.766,23.978-3.67,32.535a22.517,22.517,0,0,1-16.519,5.67c-4.579-.166-9.668.006-14.017,1.6-8.952,3.289-12.35,16.821-3.674,22.576,3.55,2.354,9.094,1.693,10.945-2.56,1.808-4.155-1.718-8.992-6.089-8.936-2.759.035-2.766,4.327,0,4.292a2.169,2.169,0,0,1,1.3,3.843c-1.266,1.05-3.082.332-4.178-.544-2.827-2.258-3.115-5.637-2.156-8.874,1.714-5.785,7.325-6.657,12.637-7.04,4.38-.316,8.706.328,13.034-.683a26.545,26.545,0,0,0,11.75-6.312C1260.142,385.877,1264.417,377.221,1264.1,368.858Z" transform="translate(-1211.748 -337.345)" fill="#ffd483"/>
      </g>
      <path id="Tracé_24176" data-name="Tracé 24176" d="M1159.865,512.518c-4.7,2.715-12.329,2.715-17.032,0-2.245-1.3-3.406-2.976-3.507-4.675-.111,1.859,1.049,3.739,3.507,5.158,4.7,2.716,12.329,2.716,17.032,0,2.458-1.419,3.618-3.3,3.508-5.158C1163.27,509.541,1162.109,511.222,1159.865,512.518Z" transform="translate(-1066.956 -353.536)" fill="#ffe4b4"/>
      <path id="Tracé_24177" data-name="Tracé 24177" d="M1095.746,391.131c-8.1-26.062-6.609-45.35-7.076-60.013-3.111-.8-6.252-2.811-9.014-4.276C1080.426,340.05,1087.7,382.558,1095.746,391.131Z" transform="translate(-1038.357 -266.771)" fill="#ffe4b4"/>
      <ellipse id="Ellipse_507" data-name="Ellipse 507" cx="59.669" cy="34.45" rx="59.669" ry="34.45" transform="translate(24.688 0)" fill="#ffd483"/>
      <ellipse id="Ellipse_508" data-name="Ellipse 508" cx="53.648" cy="30.974" rx="53.648" ry="30.974" transform="translate(30.708 3.476)" fill="#f7ae46"/>
      <path id="Tracé_24178" data-name="Tracé 24178" d="M1149.625,302.96c-23.3,13.453-61.082,13.453-84.384,0-11.187-6.459-16.988-14.844-17.433-23.306-.483,9.165,5.317,18.419,17.433,25.414,23.3,13.454,61.082,13.454,84.384,0,12.115-6.995,17.916-16.249,17.432-25.413C1166.611,288.117,1160.811,296.5,1149.625,302.96Z" transform="translate(-1023.076 -244.151)" fill="#ffe4b4"/>
      <path id="Tracé_24179" data-name="Tracé 24179" d="M1075.032,229.868c20.95-12.1,54.918-12.1,75.869,0,9.891,5.71,15.107,13.1,15.659,20.575.618-8.364-4.6-16.845-15.659-23.231-20.951-12.1-54.919-12.1-75.869,0-11.061,6.385-16.276,14.865-15.658,23.228C1059.926,242.962,1065.142,235.577,1075.032,229.868Z" transform="translate(-1028.611 -214.663)" fill="#ffe4b4"/>
      <path id="Tracé_24180" data-name="Tracé 24180" d="M1135.083,596.169l-6.064,13.563a15.79,15.79,0,0,1-2.239-1.761l5.948-13.49a11.561,11.561,0,0,0,2.166,1.586C1134.96,596.1,1135.018,596.14,1135.083,596.169Z" transform="translate(-1060.946 -395.067)" fill="#ffe4b4"/>
      <path id="Tracé_24181" data-name="Tracé 24181" d="M1161.124,577.6c3.366,3.272,2.629,7.56-2.245,10.374-5.766,3.329-15.116,3.329-20.882,0-4.874-2.814-5.612-7.1-2.246-10.374-3.893,3.4-3.245,8.395,1.946,11.392,5.931,3.425,15.549,3.425,21.481,0C1164.369,586,1165.017,581,1161.124,577.6Z" transform="translate(-1064.046 -386.975)" fill="#ffe4b4"/>
      <path id="Tracé_24182" data-name="Tracé 24182" d="M1128.178,631.787l-38.133-22.007.014,1.226,38.12,22.008,38.122-22.007.009-1.228Z" transform="translate(-1043.336 -402.401)" fill="#a5d3ef"/>
      <g id="Groupe_12034" data-name="Groupe 12034" transform="translate(15.285 89.473)">
        <rect id="Rectangle_17740" data-name="Rectangle 17740" width="1.562" height="47.994" fill="#b3cbff"/>
      </g>
      <g id="Groupe_12035" data-name="Groupe 12035" transform="translate(11.12 88.692)">
        <path id="Tracé_24242" data-name="Tracé 24242" d="M1022.794,387.585l-1.1-1.1,4.436-4.436a.781.781,0,0,1,1.1,0l4.351,4.351-1.1,1.1-3.8-3.8Z" transform="translate(-1021.69 -381.816)" fill="#b3cbff"/>
      </g>
      <path id="Tracé_24549" data-name="Tracé 24549" d="M1062.977,496.3h-1.562v-2.335h1.562Zm0-5.836h-1.562v-2.334h1.562Zm0-5.836h-1.562v-2.334h1.562Zm0-5.835h-1.562v-2.334h1.562Zm0-5.836h-1.562v-2.334h1.562Zm0-5.836h-1.562v-2.335h1.562Zm0-5.836h-1.562v-2.334h1.562Z" transform="translate(-1029.613 -330.1)" fill="#b3cbff"/>
    </g>
    <g id="Groupe_12771" data-name="Groupe 12771" transform="translate(208.861 152.525)">
      <g id="Groupe_12015" data-name="Groupe 12015" transform="translate(0 0)">
        <path id="Tracé_24183" data-name="Tracé 24183" d="M1126.849,702.553l-74.171,42.823v.51c.006,0,55.1,31.555,55.1,31.555l74.171-42.823Z" transform="translate(-1052.678 -701.863)" opacity="0.1" style="mix-blend-mode: multiply;isolation: isolate"/>
        <rect id="Rectangle_17738" data-name="Rectangle 17738" width="0.505" height="0.496" transform="translate(2.351 42.551) rotate(180)" fill="#dbdbdb"/>
        <rect id="Rectangle_17739" data-name="Rectangle 17739" width="0.505" height="0.496" transform="translate(127.769 31.136) rotate(180)" fill="#dbdbdb"/>
        <path id="Tracé_24184" data-name="Tracé 24184" d="M1131.511,701.929,1184.6,732.58l-72.833,42.05-53.089-30.651Z" transform="translate(-1056.832 -701.431)" fill="#dbdbdb"/>
        <path id="Tracé_24185" data-name="Tracé 24185" d="M1131.511,700.311l53.089,30.651-72.833,42.05-53.089-30.651Z" transform="translate(-1056.832 -700.311)" fill="#fff"/>
        <path id="Tracé_24186" data-name="Tracé 24186" d="M1115.272,758.219l20.083,11.484-1.43.826-20.083-11.484Zm4.909-2.834-1.431.826,38.657,22.319,1.431-.826Zm4.908-2.834-1.431.826,38.657,22.319,1.431-.826Zm4.908-2.834-1.431.826,18.394,10.539,1.431-.826ZM1151.39,762l-1.431.826,5.243,3.046,1.431-.826Zm29.472-11.335-1.431.826,5.242,3.046,1.431-.826Zm-45.957-3.785-1.431.826,38.657,22.318,1.431-.826Zm4.908-2.834-1.431.826,32.405,18.734,1.431-.826Zm4.908-2.834-1.431.826,18.358,10.516,1.43-.826Zm4.908-2.834-1.431.826,38.657,22.318,1.431-.826Zm4.909-2.834-1.43.826,23.276,13.42,1.431-.826Zm4.908-2.834-1.43.826,38.657,22.319,1.431-.826Zm4.909-2.834-1.431.826,38.657,22.318,1.431-.826Zm4.908-2.834-1.43.826,18.116,10.445,1.431-.826Z" transform="translate(-1095.025 -718.821)" fill="#e1edfc"/>
      </g>
      <g id="Groupe_12133" data-name="Groupe 12133" transform="translate(1.36 10.464)">
        <path id="Tracé_24530" data-name="Tracé 24530" d="M1122.481,758.141l-8.85-5.11-15.691-9.058c-9.339-5.392-24.482-5.392-33.821,0-4.7,2.714-7.032,6.275-7,9.831-.011.007-.011,1.973-.011,4.032l-.006,3.956c0,.116,0,.233.006.349v.33c-.071,3.586,2.266,7.185,7,9.921l15.628,9.018,8.92,5.146,7.688-4.439v-8.885s-8.9-5.145-8.9-5.145l-15.637-9.027a10.987,10.987,0,0,1-1.309-.881,11.034,11.034,0,0,1,1.3-.875c5.1-2.942,13.355-2.943,18.449,0,10.469,6.047,24.545,14.162,24.545,14.162l7.7-4.444v-8.888Z" transform="translate(-1057.099 -738.205)" fill="#193e6b" opacity="0.2" style="mix-blend-mode: multiply;isolation: isolate"/>
        <path id="Tracé_24531" data-name="Tracé 24531" d="M1060.48,757.848l7.7-4.667s16.372-8.467,25.479-3.209l24.51,16.646V775.5s-14.077-8.116-24.545-14.162c-5.094-2.943-13.354-2.942-18.449,0s-5.094,7.708,0,10.649l16.86,9.715v8.888l-24.548-14.164c-4.739-2.736-7.075-6.334-7-9.921Z" transform="translate(-1059.439 -743.966)" fill="#ff6374"/>
        <path id="Tracé_24532" data-name="Tracé 24532" d="M1067.515,738.369c9.339-5.392,24.481-5.392,33.821,0l24.541,14.169-7.689,4.439s-14.067-8.122-24.536-14.169c-5.094-2.942-13.354-2.942-18.449,0s-5.093,7.708,0,10.649l24.541,14.169-7.689,4.439-24.541-14.169C1058.175,752.5,1058.175,743.76,1067.515,738.369Z" transform="translate(-1059.461 -734.324)" fill="#ff8da0"/>
        <path id="Tracé_24533" data-name="Tracé 24533" d="M1142.032,772.722c-1.865-1.077-14.666-8.068-24.348-13.66a19.922,19.922,0,0,0-17.985,0c-2.183,1.26-3.725,2.736-3.85,4.469-.1,1.453.477,3,2.373,4.581.449-.547,4.4-3.321,10.463-3.228a20.343,20.343,0,0,1,9.455,2.269c9.087,5.25,20.893,12.057,23.85,13.762Z" transform="translate(-1083.919 -749.966)" fill="#e6596e"/>
        <path id="Tracé_24534" data-name="Tracé 24534" d="M1091.461,808.1,1066.6,793.743c-3.107-1.794-5.946-4.818-6.129-7.815l-.01,5.988c-.072,3.661,2.066,7.482,6.6,10.1l24.4,14.076Z" transform="translate(-1059.424 -770.052)" fill="#e6596e"/>
        <path id="Tracé_24535" data-name="Tracé 24535" d="M1247.994,806.835l7.7-4.444V793.5l-7.7,4.444Z" transform="translate(-1189.265 -775.297)" fill="#ececec"/>
        <path id="Tracé_24536" data-name="Tracé 24536" d="M1256.4,803.761v-8.1l-7.046,4.083v8.1Z" transform="translate(-1190.21 -776.789)" fill="#d9d9e6"/>
        <path id="Tracé_24537" data-name="Tracé 24537" d="M1163.042,855.892l7.688-4.439v-8.888L1163.042,847Z" transform="translate(-1130.449 -809.265)" fill="#ececec"/>
        <path id="Tracé_24538" data-name="Tracé 24538" d="M1172.063,853.462v-7.818l-6.762,3.9v7.818Z" transform="translate(-1132.013 -811.396)" fill="#d9d9e6"/>
        <path id="Tracé_24539" data-name="Tracé 24539" d="M1099.513,768.108l-23.906-13.81c-2.633-1.52-4.083-3.57-4.083-5.771s1.45-4.251,4.084-5.771a21.007,21.007,0,0,1,19.062,0c9.758,5.636,22.488,12.995,24.368,14.081l6.815-3.935-23.906-13.811a37.212,37.212,0,0,0-33.621,0c-4.4,2.541-6.827,5.893-6.827,9.436s2.425,6.894,6.826,9.436l24.373,14.081Z" transform="translate(-1060.145 -734.846)" fill="#ff6374"/>
        <g id="Groupe_12131" data-name="Groupe 12131" transform="translate(23.674 13.102)">
          <path id="Tracé_24540" data-name="Tracé 24540" d="M1226.756,776.913l8.852,5.111-7.688,4.439s-3.83-2.215-8.922-5.155Z" transform="translate(-1192.864 -776.913)" fill="#f8f8f8"/>
          <path id="Tracé_24541" data-name="Tracé 24541" d="M1141.755,825.852l8.907,5.143-7.689,4.439-8.923-5.152Z" transform="translate(-1134.051 -810.796)" fill="#f8f8f8"/>
        </g>
        <g id="Groupe_12132" data-name="Groupe 12132" transform="translate(23.674 13.228)">
          <path id="Tracé_24542" data-name="Tracé 24542" d="M1228.019,777.322l8.36,4.83-6.816,3.935-8.425-4.869Z" transform="translate(-1194.346 -777.322)" fill="#d9d9e6"/>
          <path id="Tracé_24543" data-name="Tracé 24543" d="M1142.339,826.647l8.415,4.861-6.815,3.935-8.429-4.87Z" transform="translate(-1135.061 -811.472)" fill="#d9d9e6"/>
          <path id="Tracé_24544" data-name="Tracé 24544" d="M1134.051,840.25l8.921,5.151v8.888l-8.919-5.146Z" transform="translate(-1134.051 -820.89)" fill="#d9d9e6"/>
        </g>
        <path id="Tracé_24545" data-name="Tracé 24545" d="M1134.051,842.295l8.362,4.828v8l-8.361-4.824Z" transform="translate(-1110.377 -809.077)" fill="#b2b2c9"/>
        <path id="Tracé_24546" data-name="Tracé 24546" d="M1219,791.2l8.921,5.151v8.888L1219,800.09Z" transform="translate(-1169.19 -773.7)" fill="#d9d9e6"/>
        <path id="Tracé_24547" data-name="Tracé 24547" d="M1219,793.242l8.532,4.933v8L1219,801.3Z" transform="translate(-1169.19 -775.116)" fill="#b2b2c9"/>
      </g>
    </g>
  </g>
</svg>
