<svg id="Calque_1" data-name="Calque 1" xmlns="http://www.w3.org/2000/svg" xmlns:xlink="http://www.w3.org/1999/xlink" viewBox="0 0 229.78 299.16"><defs><linearGradient id="Dégradé_sans_nom" x1="-5356.32" y1="3330.2" x2="-5355.96" y2="3329.45" gradientTransform="matrix(39.15, 0, 0, -39.15, 209846.67, 130597.87)" gradientUnits="userSpaceOnUse"><stop offset="0" stop-color="#fff"/><stop offset="1" stop-color="#d4e5f6"/></linearGradient><linearGradient id="Dégradé_sans_nom_2" x1="-5539.99" y1="3259.4" x2="-5540.35" y2="3258.53" gradientTransform="matrix(9.27, -39.26, -39.26, -9.27, 179394.09, -187058.88)" xlink:href="#Dégradé_sans_nom"/><linearGradient id="Dégradé_sans_nom_3" x1="-5428.73" y1="3372.86" x2="-5428.74" y2="3372.11" gradientTransform="matrix(81.12, 0, 0, -84.11, 440522.04, 283884.78)" xlink:href="#Dégradé_sans_nom"/></defs><title>2</title><g id="Groupe_12765" data-name="Groupe 12765"><g id="Groupe_12764" data-name="Groupe 12764"><g id="Groupe_12516" data-name="Groupe 12516"><path id="Tracé_25698" data-name="Tracé 25698" d="M63.64,30l-16.1-9.22-15-8.58L83.21,0Z" transform="translate(0 0)" style="fill:#70e8e8"/><path id="Tracé_25699" data-name="Tracé 25699" d="M83.22,0,44.06,18.76l4.74,12,.34-9.12Z" transform="translate(0 0)" style="fill:#3db5c1"/><path id="Tracé_25700" data-name="Tracé 25700" d="M55.13,25.1l-6-3.47-.33,9.11Z" transform="translate(0 0)" style="fill:#37aaaf"/></g><g id="Groupe_12517" data-name="Groupe 12517"><path id="Tracé_25701" data-name="Tracé 25701" d="M187.58,41.27l42.21,10.14-12.47,7.15L203.9,66.24Z" transform="translate(0 0)" style="fill:#70e8e8"/><path id="Tracé_25702" data-name="Tracé 25702" d="M187.58,41.27,220.22,56.9l-4,10-.28-7.6Z" transform="translate(0 0)" style="fill:#3db5c1"/><path id="Tracé_25703" data-name="Tracé 25703" d="M211,62.18l5-2.89.28,7.6Z" transform="translate(0 0)" style="fill:#37aaaf"/></g><g id="Groupe_12525" data-name="Groupe 12525"><ellipse id="Ellipse_526" data-name="Ellipse 526" cx="126.6" cy="263.83" rx="47.24" ry="27.27" style="opacity:0.10000000149011612;isolation:isolate"/><circle id="Ellipse_527" data-name="Ellipse 527" cx="133.71" cy="224.65" r="19.58" style="fill:url(#Dégradé_sans_nom)"/><circle id="Ellipse_528" data-name="Ellipse 528" cx="117.51" cy="231.55" r="20.17" style="fill:url(#Dégradé_sans_nom_2)"/><path id="Tracé_25704" data-name="Tracé 25704" d="M156.53,245.18a12.41,12.41,0,0,0-11.47-17.11c-.32,0-.64,0-.95.05v-35H111.57v44.47a20.27,20.27,0,1,0,9.7,32.21,16.3,16.3,0,0,0,14.51-.69,16.58,16.58,0,1,0,20.75-23.93Z" transform="translate(0 0)" style="fill:url(#Dégradé_sans_nom_3)"/><path id="Tracé_25705" data-name="Tracé 25705" d="M154.59,185.36c-.18-4.29,0-17.17,0-17.17H98.88s.07,13.3,0,17.73c0,4.2,2.61,8.41,8.16,11.62,10.88,6.28,28.53,6.28,39.41,0C152.26,194.19,154.78,189.75,154.59,185.36Z" transform="translate(0 0)" style="fill:#f9b226"/><path id="Tracé_25706" data-name="Tracé 25706" d="M170,102.29A105,105,0,0,0,168,82.44c-5.92-30.51-24-54.46-34.13-65.95a9.53,9.53,0,0,0-13.46-.83,10.83,10.83,0,0,0-.83.83c-10.11,11.43-28,35.19-34,65.48a104.27,104.27,0,0,0-2,20.32c0,19,5.49,55.7,9.69,70.7h.13c.07,4.71,3.33,9.41,9.78,13,13,7.27,34.19,7.27,47.24,0,6.45-3.6,9.7-8.3,9.77-13h.13C164.47,158,170,121.34,170,102.29Z" transform="translate(0 0)" style="fill:#2bd4d8"/><path id="Tracé_25707" data-name="Tracé 25707" d="M126.6,123.76c-18.2,0-33-13.14-33-29.29s14.82-29.3,33-29.3,33,13.14,33,29.3S144.81,123.76,126.6,123.76Z" transform="translate(0 0)" style="fill:#0abcc5"/><path id="Tracé_25708" data-name="Tracé 25708" d="M133.89,16.49a9.53,9.53,0,0,0-13.46-.83,9.29,9.29,0,0,0-.83.83,163.07,163.07,0,0,0-13.51,17.58c.09,3,2.1,6,6.07,8.27,8.1,4.67,21.23,4.67,29.32,0,3.87-2.23,5.89-5.13,6.06-8.05A163.64,163.64,0,0,0,133.89,16.49Z" transform="translate(0 0)" style="fill:#0abcc5"/><g id="Groupe_12518" data-name="Groupe 12518"><path id="Tracé_25709" data-name="Tracé 25709" d="M127.28,299.16v-1.74c.77,0,1.54,0,2.3-.05l.06,1.75C128.85,299.14,128.07,299.16,127.28,299.16Zm-3.52,0q-1.17,0-2.34-.09l.09-1.74c.77,0,1.53.07,2.3.09Zm9.39-.17-.12-1.74c.77,0,1.54-.11,2.3-.18l.16,1.74-2.34.18Zm-15.24-.16-2.34-.23.2-1.74c.76.09,1.52.16,2.29.23Zm21.08-.4-.22-1.73c.77-.09,1.53-.2,2.28-.32l.27,1.73C140.55,298.19,139.77,298.29,139,298.39Zm-26.91-.3c-.78-.11-1.55-.24-2.32-.37l.3-1.72,2.28.37Zm32.71-.62-.33-1.71c.76-.15,1.51-.3,2.26-.47l.37,1.7c-.76.18-1.53.34-2.3.48ZM106.31,297c-.77-.17-1.53-.34-2.29-.53l.41-1.69c.75.18,1.49.35,2.25.51Zm44.21-.87-.44-1.69c.75-.19,1.49-.4,2.22-.61l.49,1.67c-.75.22-1.5.44-2.27.64Zm-49.91-.57c-.75-.22-1.51-.45-2.24-.69l.53-1.66c.72.23,1.46.46,2.2.67Zm55.54-1.13-.57-1.65c.73-.25,1.46-.52,2.16-.79l.63,1.63c-.72.29-1.47.56-2.22.81ZM95,293.74q-1.11-.42-2.19-.87l.67-1.61c.7.29,1.42.57,2.14.85Zm66.6-1.42-.7-1.6c.7-.31,1.4-.63,2.08-1l.76,1.57c-.69.34-1.41.68-2.13,1Zm-72-.9c-.71-.34-1.42-.7-2.1-1.07l.82-1.54c.66.36,1.35.7,2,1Zm77.3-1.73-.85-1.52.52-.3L168,287l.92,1.48-1.5.9-.54.31Zm-82.48-1.1c-.67-.41-1.34-.85-2-1.28l1-1.44c.62.42,1.26.83,1.92,1.24Zm87.47-2.08-1-1.42c.63-.45,1.24-.92,1.81-1.38l1.1,1.35c-.6.49-1.23,1-1.88,1.45Zm-92.31-1.32c-.63-.5-1.23-1-1.81-1.54L79,282.36c.55.5,1.13,1,1.73,1.47Zm-4.34-4.07c-.54-.6-1.06-1.21-1.53-1.83l1.38-1.07c.45.58.94,1.17,1.45,1.73Z" transform="translate(0 0)" style="fill:#0fbcbc"/></g><path id="Tracé_25710" data-name="Tracé 25710" d="M159.69,170.35c-1.09,3.72-4.19,7.29-9.33,10.15-13,7.27-34.19,7.27-47.24,0-5.14-2.86-8.24-6.43-9.33-10.15h-.41c.36,4.49,3.6,8.92,9.74,12.35,13,7.27,34.2,7.27,47.24,0,6.15-3.43,9.39-7.86,9.74-12.35Z" transform="translate(0 0)" style="fill:#ffd552"/><ellipse id="Ellipse_529" data-name="Ellipse 529" cx="126.6" cy="94.47" rx="25.76" ry="24.07" style="fill:#2051a4"/><ellipse id="Ellipse_530" data-name="Ellipse 530" cx="126.83" cy="95.07" rx="19.02" ry="17.32" style="fill:#ffd552"/><path id="Tracé_25711" data-name="Tracé 25711" d="M126.83,110c-9,0-16.34-6.68-16.34-14.89s7.33-14.88,16.34-14.88,16.34,6.68,16.34,14.88S135.84,110,126.83,110Z" transform="translate(0 0)" style="fill:#fff"/><path id="Tracé_25712" data-name="Tracé 25712" d="M142.41,26.73c-.79-1.35-11.52-15.28-15.62-15.33-4.36-.06-14.94,14-15.73,15.36-1.91,3.32-.58,7.12,4,9.77,6.46,3.72,16.92,3.72,23.37,0C143,33.88,144.34,30.06,142.41,26.73Z" transform="translate(0 0)" style="fill:#2051a4"/><g id="Groupe_12519" data-name="Groupe 12519"><path id="Tracé_25713" data-name="Tracé 25713" d="M157.3,175.12,181,193.81l3.48-2.11s18.38-62.16-19.73-72.38l-3.47,2.15Z" transform="translate(0 0)" style="fill:#ef3a54"/><path id="Tracé_25714" data-name="Tracé 25714" d="M153.82,177.24l11.23,23.48a1.87,1.87,0,0,0,2.49.88l.13-.07L181,193.82s18.38-62.16-19.73-72.39Z" transform="translate(0 0)" style="fill:#ff97c3"/><path id="Tracé_25715" data-name="Tracé 25715" d="M154.5,177.51l7.35-54.85a28.16,28.16,0,0,1,17.27,13.67c10.13,18.08,3.95,47.12,1.87,55.41a4.84,4.84,0,0,1-2.3,3l-11.09,6.4a1.49,1.49,0,0,1-2-.54l-.05-.1Z" transform="translate(0 0)" style="fill:#ff5071"/></g><g id="Groupe_12520" data-name="Groupe 12520"><path id="Tracé_25716" data-name="Tracé 25716" d="M100.25,175.78,73.44,195.13,70,193s-18.38-62.16,19.73-72.39l3.47,2.16Z" transform="translate(0 0)" style="fill:#ef3a54"/><path id="Tracé_25717" data-name="Tracé 25717" d="M100.31,175.92,97,174.67l-7.22-53.9,3.47,2.15Z" transform="translate(0 0)" style="fill:#ef3a54"/><path id="Tracé_25718" data-name="Tracé 25718" d="M100.64,178.55,89.27,202.34a1.56,1.56,0,0,1-2.08.73l-.1-.06-13.65-7.88S55.06,133,93.16,122.75Z" transform="translate(0 0)" style="fill:#ff97c3"/><path id="Tracé_25719" data-name="Tracé 25719" d="M76.32,196.55a6.23,6.23,0,0,1-2.95-3.94c-2.21-9-7.87-37.14,2-54.8a28.18,28.18,0,0,1,17.26-13.67L100,179,89,202a1.52,1.52,0,0,1-2,.72l-.11-.06Z" transform="translate(0 0)" style="fill:#ff5071"/></g><g id="Groupe_12521" data-name="Groupe 12521"><rect id="Rectangle_17757" data-name="Rectangle 17757" x="126.16" y="123.76" width="1.16" height="61.79" style="fill:#0fbcbc"/></g><g id="Groupe_12522" data-name="Groupe 12522"><rect id="Rectangle_17758" data-name="Rectangle 17758" x="126.16" y="45.29" width="1.16" height="19.89" style="fill:#0fbcbc"/></g><circle id="Ellipse_531" data-name="Ellipse 531" cx="104.23" cy="94.51" r="0.85" style="fill:#429df3"/><path id="Tracé_25720" data-name="Tracé 25720" d="M149.86,94.43a.86.86,0,0,1-.85.85.85.85,0,0,1,0-1.69.85.85,0,0,1,.85.84Z" transform="translate(0 0)" style="fill:#429df3"/><path id="Tracé_25721" data-name="Tracé 25721" d="M142.52,109.53a.85.85,0,0,1-1.69,0,.85.85,0,1,1,1.69,0Z" transform="translate(0 0)" style="fill:#429df3"/><path id="Tracé_25722" data-name="Tracé 25722" d="M127.43,73.74a.85.85,0,1,1-.85-.84.85.85,0,0,1,.85.84Z" transform="translate(0 0)" style="fill:#429df3"/><path id="Tracé_25723" data-name="Tracé 25723" d="M112.32,109.62a.85.85,0,1,1-1.69,0,.85.85,0,0,1,1.69,0Z" transform="translate(0 0)" style="fill:#429df3"/><path id="Tracé_25724" data-name="Tracé 25724" d="M123.46,127.12a.85.85,0,1,1-1.69,0,.85.85,0,0,1,1.69,0Z" transform="translate(0 0)" style="fill:#08b0b8"/><path id="Tracé_25725" data-name="Tracé 25725" d="M131.18,127.12a.84.84,0,0,1-.84.85.85.85,0,0,1-.85-.85.84.84,0,0,1,.85-.84.83.83,0,0,1,.84.84Z" transform="translate(0 0)" style="fill:#08b0b8"/><circle id="Ellipse_532" data-name="Ellipse 532" cx="122.61" cy="62.25" r="0.85" style="fill:#08b0b8"/><path id="Tracé_25726" data-name="Tracé 25726" d="M131.18,62.25a.83.83,0,0,1-.84.84.84.84,0,0,1-.85-.84.85.85,0,0,1,.85-.85.84.84,0,0,1,.84.85Z" transform="translate(0 0)" style="fill:#08b0b8"/><circle id="Ellipse_533" data-name="Ellipse 533" cx="141.77" cy="79.28" r="0.85" style="fill:#429df3"/><path id="Tracé_25727" data-name="Tracé 25727" d="M112.22,79.27a.84.84,0,0,1-.84.84.85.85,0,1,1,.84-.84Z" transform="translate(0 0)" style="fill:#429df3"/><path id="Tracé_25728" data-name="Tracé 25728" d="M126.08,114.66a.84.84,0,0,1,1.19,1.19.85.85,0,0,1-1.19,0,.86.86,0,0,1,0-1.2Z" transform="translate(0 0)" style="fill:#429df3"/><g id="Groupe_12523" data-name="Groupe 12523"><path id="Tracé_25729" data-name="Tracé 25729" d="M157.37,84.42a.6.6,0,0,1-.59-.58.58.58,0,0,1,.27-.49c5.46-3.59,6.76-10,6.21-14.43a.58.58,0,0,1,.51-.65.6.6,0,0,1,.65.5c.59,4.75-.82,11.67-6.73,15.55A.63.63,0,0,1,157.37,84.42Z" transform="translate(0 0)" style="fill:#0fbcbc"/></g><g id="Groupe_12524" data-name="Groupe 12524"><path id="Tracé_25730" data-name="Tracé 25730" d="M96.3,84.2a.63.63,0,0,1-.32-.1c-4.48-2.93-7.31-8.65-7.2-14.56a.59.59,0,0,1,.57-.6.6.6,0,0,1,.6.57.09.09,0,0,1,0,0c-.1,5.52,2.52,10.85,6.67,13.57a.57.57,0,0,1,.17.8.53.53,0,0,1-.48.26Z" transform="translate(0 0)" style="fill:#0fbcbc"/></g></g></g><g id="Groupe_12405" data-name="Groupe 12405"><g id="Groupe_12403" data-name="Groupe 12403"><g id="Groupe_12402" data-name="Groupe 12402"><path id="Tracé_25375" data-name="Tracé 25375" d="M56.7,131.05l8-14.34-1.61-3.53s-.2.09-.24,1c0,.27.61,1.3.49,1.57s0,1.63-.44,1.93c-3.23,2.11-8.44,4.64-11.13,8.08C47.44,131.33,56.66,131.34,56.7,131.05Z" transform="translate(0 0)" style="fill:#e9d6b8"/><path id="Tracé_25376" data-name="Tracé 25376" d="M33.81,166.64s-1.58-6.42,6.16-22.26C47.88,128.19,48.73,129,48.73,129l2.63-3.12L58,129.28,43.44,165.07Z" transform="translate(0 0)" style="fill:#d1dbea"/><path id="Tracé_25377" data-name="Tracé 25377" d="M51.05,129.53l4.05,2.4,1.1.47,1.63-3-5.09-1.67Z" transform="translate(0 0)" style="fill:#b0bfde"/></g><path id="Tracé_25378" data-name="Tracé 25378" d="M60.29,112.89c.1-1.27,0-3.59.72-3.12l.28,4.15.92,1.82,1.53.58-.7,1.19c.1.51.13.9-.72,1l-.28.51a9.35,9.35,0,0,1-1.47-2.21l-.36-1.95A8.47,8.47,0,0,1,60.29,112.89Z" transform="translate(0 0)" style="fill:#e9d6b8"/></g><path id="Tracé_25379" data-name="Tracé 25379" d="M26.12,205.47s8.29,29.36,14.93,39.88,9-3.17,9-3.17l-8.25-48.83-19.29-.12S23,194.23,26.12,205.47Z" transform="translate(0 0)" style="fill:#3c463b"/><path id="Tracé_25380" data-name="Tracé 25380" d="M35.28,193.34s-5.56,48.17-6.35,50.59c-2.69,8.19-8.84,2.9-9.78.17s-2.54-22.92-2.22-37.66.32-13.77.32-13.77Z" transform="translate(0 0)" style="fill:#3c463b"/><path id="Tracé_25381" data-name="Tracé 25381" d="M18.35,287.92c-.28.35-.07,1.26-.07,1.26s5,.56,6.6.18a8.83,8.83,0,0,0,1.79-.84c.11-.06.31-.45.42-.51s.3.08.47,0a5.77,5.77,0,0,0,.77-.52c.44-2.3-.15-3.22-.15-3.22s-4.25-1.41-5.05-.43C21.25,286.13,19,287.17,18.35,287.92Z" transform="translate(0 0)" style="fill:#161711"/><path id="Tracé_25382" data-name="Tracé 25382" d="M49.42,285.87l.71,3.72h3.8s.21-.53.53-.53.62.53,1,.53H65.1s.17-.78,0-1a3.9,3.9,0,0,0-1.17-.5c-2-.55-7.57-2.27-8.55-4.14C54.16,281.62,49.42,285.87,49.42,285.87Z" transform="translate(0 0)" style="fill:#161711"/><path id="Tracé_25383" data-name="Tracé 25383" d="M25.7,140.89c.3,1.2-.12,2.32-.93,2.53h0c-.81.19-1.71-.6-2-1.8l-.37-1.5c-.3-1.2.12-2.33.93-2.53h0c.81-.2,1.71.6,2,1.8Z" transform="translate(0 0)" style="fill:#e9d6b8"/><path id="Tracé_25384" data-name="Tracé 25384" d="M33.17,152.06c-.18,2.15-1.33,4-2.55,4.1H27.17c-1.22-.09-2.38-1.95-2.56-4.1q-.42-5.31-.85-10.63c-.18-2.12.65-6.39,2.49-7.65a4.57,4.57,0,0,1,5.3,0c1.84,1.25,2.67,5.53,2.48,7.65C33.74,145,33.46,148.52,33.17,152.06Z" transform="translate(0 0)" style="fill:#e2c59c"/><path id="Tracé_25385" data-name="Tracé 25385" d="M7.33,186.38,19.67,199s-14.88-3.41-15.54-9.57S7.33,186.38,7.33,186.38Z" transform="translate(0 0)" style="fill:#e9d6b8"/><path id="Tracé_25386" data-name="Tracé 25386" d="M46.31,155.39,40,147.85l-11,6.72-6.67-.76L15,157s-3.33,3.19-.24,13.44,1.9,26.32,1.9,26.32l26.18,1.17a161.26,161.26,0,0,0,.91-28.56C43.15,160.62,45.15,157.92,46.31,155.39Z" transform="translate(0 0)" style="fill:#d1dbea"/><path id="Tracé_25387" data-name="Tracé 25387" d="M19.72,157.46s-4.08-3.2-8.06,2.73A111.19,111.19,0,0,0,.74,181.38c-.71,2.05-1.66,8.2,1.19,10l2.85,1.83,5.93-3.65-1-1.82-.48-1.14s3.32-7.29,6.88-13.9S19.72,157.46,19.72,157.46Z" transform="translate(0 0)" style="fill:#d1dbea"/><path id="Tracé_25388" data-name="Tracé 25388" d="M35,146.59c-.55,2-1.38,2.48-2.84,2.7s-1.73.28-3.13.42-3-1.89-3.32-3.68c-.55-2.94-2.15-5.37-2.7-8.31-.35-1.77.4-3.35,2.55-4.63,2-1.14,4.3-3.48,6.4-2.74,2.3.84,3.56,4.33,3.45,6.14C35.24,139.51,35.11,143.58,35,146.59Z" transform="translate(0 0)" style="fill:#e9d6b8"/><path id="Tracé_25389" data-name="Tracé 25389" d="M28.93,154.61l-2.2,3.6-4.33-4.79,1.91-2.06Z" transform="translate(0 0)" style="fill:#b0bfde"/><path id="Tracé_25390" data-name="Tracé 25390" d="M33.49,151.3,30.87,154l1.75,3.12L34.77,153Z" transform="translate(0 0)" style="fill:#b0bfde"/><path id="Tracé_25391" data-name="Tracé 25391" d="M30.33,223.38s-1.23,18.27-1,27.94a327.23,327.23,0,0,1-1,33.14c-.07.74-6,.18-6,.18s-4-45.54-4.62-53S25.59,218.05,30.33,223.38Z" transform="translate(0 0)" style="fill:#3c463b"/><path id="Tracé_25392" data-name="Tracé 25392" d="M48,243.61a68.06,68.06,0,0,1-7,.82c-2.41.21,7,42.15,7,42.15l7.47-3.22L49.88,241.1Z" transform="translate(0 0)" style="fill:#323b31"/><path id="Tracé_25393" data-name="Tracé 25393" d="M21.9,135.42l1.08,2.3s2.28-2.57,3.88-4.67c.51-.67,5.71-.72,7-.49.94.16,1,1.37,1.27,2.07.77,2.5-.33-4.22-.33-4.22S33,127.25,29.73,127c-1.83-.15-2.68.92-3.38,2.3-.16.32,2-.53,1.64-.58a22,22,0,0,0-2.3,2,11.84,11.84,0,0,1-1.14,2.06C22.78,135.16,21.9,135.42,21.9,135.42Z" transform="translate(0 0)" style="fill:#163f59"/><path id="Tracé_25394" data-name="Tracé 25394" d="M29.69,136.8l1.43.2-.39.87,1.14.43L33,142.71l-1.88.14-.29-2.7-1.14-1.36-2.89-.26Z" transform="translate(0 0)" style="fill:#e2c59c"/><path id="Tracé_25395" data-name="Tracé 25395" d="M4.64,192.07l5.12-4.31,2,2.73-5,4.09Z" transform="translate(0 0)" style="fill:#d1dbea"/><g id="Groupe_12404" data-name="Groupe 12404"><path id="Tracé_25396" data-name="Tracé 25396" d="M16,194.18c.82.25.78.2.78.2a3.16,3.16,0,0,0,.6,1.9c.33.4,1.53,1.52,1.53,1.52l1.76,1.69.88.71s.53.37.58.57c.15.56-.33.47-.33.47l-3.65-2.49L20.91,202s.29.47.11.69-.28.09-.28.09l-4-2.9L18,201.67s.26.46.11.7-.22.32-.22.32l-3-3.35S15.19,193.94,16,194.18Z" transform="translate(0 0)" style="fill:#e9d6b8"/><path id="Tracé_25397" data-name="Tracé 25397" d="M17.77,199.44l1.81,2.37a2.62,2.62,0,0,1,.54.85.41.41,0,0,1-.27.5h0l-3.07-3.31Z" transform="translate(0 0)" style="fill:#e9d6b8"/></g><path id="Tracé_25398" data-name="Tracé 25398" d="M28.75,197.21h2.76a104.51,104.51,0,0,0-.42-43.42l-2.5,1A100,100,0,0,1,28.75,197.21Z" transform="translate(0 0)" style="fill:#b0bfde"/></g></g></svg>