<svg id="Calque_1" data-name="Calque 1" xmlns="http://www.w3.org/2000/svg" viewBox="0 0 186.82 244.65"><title>medal</title><path d="M138.89,244.65l-42-21.76-46.7,21.76V99.86H138.9Z" transform="translate(0 0)" style="fill:#3598db"/><path d="M71.17,99.86h-21V244.65l21-9.79Z" transform="translate(0 0)" style="fill:#1c6d9b"/><path d="M119.82,234.77l19.08,9.88V99.86H119.83Z" transform="translate(0 0)" style="fill:#1c6d9b"/><rect x="74.39" width="38.03" height="41.37" style="fill:#ec4d44"/><rect x="106.75" width="5.67" height="41.37" style="fill:#d93539"/><rect x="74.39" width="6.01" height="41.37" style="fill:#d93539"/><rect x="74.39" y="145.45" width="38.03" height="41.37" style="fill:#ec4d44"/><rect x="106.75" y="145.45" width="5.67" height="41.37" style="fill:#d93539"/><rect x="74.39" y="145.45" width="6.01" height="41.37" style="fill:#d93539"/><rect y="74.39" width="41.37" height="38.03" style="fill:#ec4d44"/><rect y="74.39" width="41.37" height="5.67" style="fill:#d93539"/><rect y="106.42" width="41.37" height="6.01" style="fill:#d93539"/><rect x="145.45" y="74.39" width="41.37" height="38.03" style="fill:#ec4d44"/><rect x="145.45" y="74.39" width="41.37" height="5.67" style="fill:#d93539"/><rect x="145.45" y="106.42" width="41.37" height="6.01" style="fill:#d93539"/><rect x="11.41" y="36.36" width="38.03" height="41.37" transform="translate(-34.19 54.87) rotate(-60)" style="fill:#ec4d44"/><rect x="35.68" y="22.35" width="5.67" height="41.37" transform="translate(-18.01 54.87) rotate(-60)" style="fill:#d93539"/><rect x="19.42" y="50.23" width="6.01" height="41.37" transform="translate(-50.2 54.88) rotate(-60)" style="fill:#d93539"/><rect x="137.38" y="109.09" width="38.03" height="41.37" transform="translate(-34.19 200.32) rotate(-60)" style="fill:#ec4d44"/><rect x="161.65" y="95.07" width="5.67" height="41.37" transform="translate(-18.01 200.32) rotate(-60)" style="fill:#d93539"/><rect x="145.38" y="122.96" width="6.01" height="41.37" transform="translate(-50.2 200.33) rotate(-60)" style="fill:#d93539"/><rect x="38.03" y="9.74" width="38.03" height="41.37" transform="translate(-7.57 32.6) rotate(-30)" style="fill:#ec4d44"/><rect x="68.22" y="1.66" width="5.67" height="41.37" transform="translate(-1.65 38.52) rotate(-30)" style="fill:#d93539"/><rect x="40.18" y="17.75" width="6" height="41.37" transform="translate(-13.43 26.74) rotate(-30)" style="fill:#d93539"/><rect x="110.76" y="135.71" width="38.03" height="41.37" transform="translate(-60.81 85.84) rotate(-30)" style="fill:#ec4d44"/><rect x="140.95" y="127.62" width="5.67" height="41.37" transform="translate(-54.89 91.76) rotate(-30)" style="fill:#d93539"/><rect x="112.9" y="143.71" width="6.01" height="41.37" transform="translate(-66.67 79.97) rotate(-30)" style="fill:#d93539"/><rect x="9.74" y="110.76" width="41.37" height="38.03" transform="translate(-60.81 32.6) rotate(-30)" style="fill:#ec4d44"/><rect x="1.65" y="112.93" width="41.37" height="5.67" transform="translate(-54.89 26.68) rotate(-30)" style="fill:#d93539"/><rect x="17.75" y="140.64" width="41.37" height="6.01" transform="translate(-66.67 38.46) rotate(-30)" style="fill:#d93539"/><rect x="135.71" y="38.03" width="41.37" height="38.03" transform="translate(-7.57 85.84) rotate(-30)" style="fill:#ec4d44"/><rect x="127.62" y="40.2" width="41.37" height="5.67" transform="translate(-1.65 79.92) rotate(-30)" style="fill:#d93539"/><rect x="143.71" y="67.91" width="41.37" height="6.01" transform="translate(-13.43 91.69) rotate(-30)" style="fill:#d93539"/><rect x="36.36" y="137.38" width="41.37" height="38.03" transform="translate(-106.92 127.6) rotate(-60)" style="fill:#ec4d44"/><rect x="22.35" y="145.47" width="41.37" height="5.67" transform="translate(-106.92 111.42) rotate(-60)" style="fill:#d93539"/><rect x="50.23" y="161.4" width="41.37" height="6.01" transform="translate(-106.92 143.62) rotate(-60)" style="fill:#d93539"/><rect x="109.09" y="11.41" width="41.36" height="38.03" transform="translate(38.53 127.6) rotate(-60)" style="fill:#ec4d44"/><rect x="95.08" y="19.5" width="41.37" height="5.67" transform="translate(38.54 111.42) rotate(-60)" style="fill:#d93539"/><rect x="122.96" y="35.43" width="41.37" height="6" transform="translate(38.53 143.6) rotate(-60)" style="fill:#d93539"/><path d="M92.8,20.35a74.86,74.86,0,1,0,74.86,74.86A74.87,74.87,0,0,0,92.8,20.35Z" transform="translate(0 0)" style="fill:#ffd869"/><path d="M92.81,35.16a60.05,60.05,0,1,0,60.05,60.05h0A60.12,60.12,0,0,0,92.81,35.16Z" transform="translate(0 0)" style="fill:#fabd3a"/><path d="M92.8,30.48a64.73,64.73,0,1,0,64.73,64.73h0A64.8,64.8,0,0,0,92.8,30.48Zm0,123.61a58.89,58.89,0,1,1,58.89-58.88h0A58.94,58.94,0,0,1,92.8,154.09Z" transform="translate(0 0)" style="fill:#ffb827"/><path d="M92.81,20.35V170.07a74.86,74.86,0,0,0,0-149.72Z" transform="translate(0 0)" style="fill:#e2940a;opacity:0.5;isolation:isolate"/><path d="M70.6,135.81l5.61-28.35L54.86,88l28.69-3.43L95.48,58.24l12.13,26.23,28.71,3.21-21.2,19.64,5.83,28.3-25.23-14.1Z" transform="translate(0 0)" style="fill:#e2940a;opacity:0.5;isolation:isolate"/><path d="M68.6,132.47l5.61-28.34L52.86,84.65l28.69-3.42L93.48,54.91,105.6,81.14l28.72,3.2L113.12,104l5.83,28.3L93.72,118.19Z" transform="translate(0 0)" style="fill:#ffd869"/></svg>