<svg id="Calque_1" data-name="Calque 1" xmlns="http://www.w3.org/2000/svg" viewBox="0 0 38.42 38.42"><title>meh</title><g id="Groupe_4" data-name="Groupe 4"><circle id="Ellipse_15" data-name="Ellipse 15" cx="19.21" cy="19.21" r="19.21" style="fill:#fdd835"/><path id="Tracé_22420" data-name="Tracé 22420" d="M19.21,0A19.21,19.21,0,1,1,0,19.21,19.21,19.21,0,0,1,19.21,0Z" transform="translate(0 0)" style="fill:#fdd835"/><circle id="Ellipse_17" data-name="Ellipse 17" cx="11.21" cy="18.49" r="3.31" style="fill:#212121"/><circle id="Ellipse_18" data-name="Ellipse 18" cx="27.21" cy="18.49" r="3.31" style="fill:#212121"/><line id="Ligne_1" data-name="Ligne 1" x1="14.51" y1="24.51" x2="23.9" y2="24.51" style="fill:none;stroke:#212121;stroke-linecap:round;stroke-miterlimit:10;stroke-width:3px"/><path id="Tracé_7" data-name="Tracé 7" d="M12.85,16.91a.81.81,0,1,1-.81-.82h0A.82.82,0,0,1,12.85,16.91Z" transform="translate(0 0)" style="fill:#feeb98"/><path id="Tracé_8" data-name="Tracé 8" d="M28.86,16.91a.82.82,0,1,1-.82-.82.82.82,0,0,1,.82.82Z" transform="translate(0 0)" style="fill:#feeb98"/></g></svg>