<svg id="Calque_1" data-name="Calque 1" xmlns="http://www.w3.org/2000/svg" viewBox="0 0 38.42 38.42"><title>mourning</title><g id="Groupe_8" data-name="Groupe 8"><circle id="Ellipse_30" data-name="Ellipse 30" cx="19.21" cy="19.21" r="19.21" style="fill:#fdd835"/><path id="Tracé_22419" data-name="Tracé 22419" d="M19.21,0A19.21,19.21,0,1,1,0,19.21,19.21,19.21,0,0,1,19.21,0Z" transform="translate(0 0)" style="fill:#fdd835"/><path id="Tracé_21" data-name="Tracé 21" d="M14.47,26.28s4.44-7.07,9.42,0" transform="translate(0 0)" style="fill:none;stroke:#212121;stroke-linecap:round;stroke-linejoin:round;stroke-width:3px"/><circle id="Ellipse_32" data-name="Ellipse 32" cx="11.18" cy="18.49" r="3.31" style="fill:#212121"/><circle id="Ellipse_33" data-name="Ellipse 33" cx="27.18" cy="18.49" r="3.31" style="fill:#212121"/><path id="Tracé_22" data-name="Tracé 22" d="M12.81,16.91a.82.82,0,1,1-.82-.82.82.82,0,0,1,.82.82Z" transform="translate(0 0)" style="fill:#feeb98"/><path id="Tracé_23" data-name="Tracé 23" d="M28.81,16.91a.82.82,0,1,1-.81-.82h0A.82.82,0,0,1,28.81,16.91Z" transform="translate(0 0)" style="fill:#feeb98"/><path id="Tracé_24" data-name="Tracé 24" d="M10.54,12a5.26,5.26,0,0,1-4,3.51" transform="translate(0 0)" style="fill:none;stroke:#212121;stroke-linecap:round;stroke-linejoin:round;stroke-width:3px"/><path id="Tracé_25" data-name="Tracé 25" d="M27.88,12a5.26,5.26,0,0,0,4,3.51" transform="translate(0 0)" style="fill:none;stroke:#212121;stroke-linecap:round;stroke-linejoin:round;stroke-width:3px"/><path id="Tracé_26" data-name="Tracé 26" d="M30.11,20s-3.61,3.66-2.93,6.68,2.93,2.95,2.93,2.95,2.25.06,2.93-2.95S30.11,20,30.11,20Z" transform="translate(0 0)" style="fill:#00b8d4"/><path id="Tracé_27" data-name="Tracé 27" d="M30.12,20.45s-2.31,2.34-1.87,4.26,1.87,1.89,1.87,1.89,1.43,0,1.87-1.89S30.12,20.45,30.12,20.45Z" transform="translate(0 0)" style="fill:#00b8d4"/></g></svg>