<svg id="Calque_1" data-name="Calque 1" xmlns="http://www.w3.org/2000/svg" viewBox="0 0 109.8 101.72"><title>neosad</title><g id="Groupe_11811" data-name="Groupe 11811"><path id="Tracé_24048" data-name="Tracé 24048" d="M89.72,47.17s5.61,22,5.41,30.8S95,89.41,92.27,89.65c-3.61.33-2.2-4.25-2.2-4.25s-1,1.33-1.79.82.33-1.93,2.3-4,3-2.49,1.34-11.67S85.65,51.21,86,48.93,89.72,47.17,89.72,47.17Z" transform="translate(0 0)" style="fill:#8595ba"/><g id="Groupe_11803" data-name="Groupe 11803"><g id="Groupe_11100" data-name="Groupe 11100"><g id="Groupe_11099" data-name="Groupe 11099"><g id="Groupe_11095" data-name="Groupe 11095"><g id="Groupe_11094" data-name="Groupe 11094"><g id="Groupe_11093" data-name="Groupe 11093"><g id="Groupe_11090" data-name="Groupe 11090"><path id="Tracé_22543" data-name="Tracé 22543" d="M12.44,44.17S6.83,66.13,7,75,7.2,86.41,9.89,86.65c3.61.33,2.2-4.25,2.2-4.25s1,1.33,1.79.82-.33-1.93-2.3-4-3-2.49-1.34-11.67,6.27-19.29,5.88-21.57S12.44,44.17,12.44,44.17Z" transform="translate(0 0)" style="fill:#8595ba"/><g id="Groupe_10797" data-name="Groupe 10797"><path id="Tracé_87" data-name="Tracé 87" d="M38.64,61S41,97,39.8,98.08s-7.52.11-8.68,2.1,9.72,1.87,11.11.65,0-39.81,0-39.81Z" transform="translate(0 0)" style="fill:#8595ba"/><path id="Tracé_88" data-name="Tracé 88" d="M71.6,60.15s-2.32,36-1.16,37.07,7.52.11,8.68,2.09S69.4,101.18,68,100s0-39.81,0-39.81Z" transform="translate(0 0)" style="fill:#8595ba"/></g><g id="Groupe_10793" data-name="Groupe 10793"><g id="Groupe_10771" data-name="Groupe 10771"><g id="Groupe_10768" data-name="Groupe 10768"><g id="Groupe_10740" data-name="Groupe 10740"><g id="Groupe_10740-2" data-name="Groupe 10740-2"><g id="Groupe_10738" data-name="Groupe 10738"><g id="Groupe_34" data-name="Groupe 34"><g id="Groupe_27" data-name="Groupe 27"><path id="Tracé_89" data-name="Tracé 89" d="M79.48,69.85c1.11.47,4.87,1.8,7.91-.14C91,67.4,91,64.65,91,64.65a10.52,10.52,0,0,0,10.54-2.45c5.06-4.62,2.75-13.84,2.75-13.84s4.73-2.46,4.19-7.54c-.89-8.2-9.25-8.67-9.25-8.67s2.6-6.21-2-10.54a13.6,13.6,0,0,0-10.69-3.32,4.79,4.79,0,0,0-1.73-5.35c-2.89-2-5.2-.81-5.2-.81s.5-6.57-5.48-8.81A12.27,12.27,0,0,0,63.55,4.57S59.94.67,54.74,1.39a16.13,16.13,0,0,0-8.09,3.32,9.19,9.19,0,0,0-8.95-2,8.31,8.31,0,0,0-6.07,6.64S22.36,6.75,17.31,13.1s-2.6,11.67-2.6,11.67-8.35-1.14-11,6.8A14,14,0,0,0,5.92,44.86S-.86,51.65,2,59a8.66,8.66,0,0,0,9.82,5.81,7.64,7.64,0,0,0,7.37,6.75c6.79.44,9.68-2,9.68-2s5.92,4.91,11.7,4.33S48.53,71,48.53,71,54,74.13,59.37,73.94A18,18,0,0,0,69,70.14a5.72,5.72,0,0,0,5.35,2.6C78,72.37,79.27,69.76,79.48,69.85Z" transform="translate(0 0)" style="fill:#f3f6fe"/><g id="Groupe_26" data-name="Groupe 26"><path id="Tracé_90" data-name="Tracé 90" d="M109.77,40.68a10.82,10.82,0,0,0-8.85-9.6A10.55,10.55,0,0,0,98.1,20.66a14.65,14.65,0,0,0-10-3.78h-.07a5.84,5.84,0,0,0-2.52-5,7.28,7.28,0,0,0-4-1.49A8.42,8.42,0,0,0,80.67,8a10.38,10.38,0,0,0-6.1-5.9,12.45,12.45,0,0,0-4.36-.78A13.23,13.23,0,0,0,65.94,2h0l-.32.11-.18.07h0A13.06,13.06,0,0,0,63.73,3,12.21,12.21,0,0,0,56,0a10.14,10.14,0,0,0-1.46.1A18.3,18.3,0,0,0,46.7,3.05,10.54,10.54,0,0,0,40.47,1a11.44,11.44,0,0,0-3.13.45,9.57,9.57,0,0,0-6.68,6.39c-2.85-.41-9.7-.73-14,4.74C13.7,16.22,13,19.32,13,21.46v0a7.6,7.6,0,0,0,.09,1.35A12,12,0,0,0,2.53,31.16,15.42,15.42,0,0,0,4.19,44.7L3.94,45a1.28,1.28,0,0,0-.24.48c-2,2.57-5.22,8.05-2.88,14,2.1,5.35,6.25,6.15,8.54,6.15a10.25,10.25,0,0,0,1.56-.12c.67,3,2.9,7,8.22,7.36.55,0,1.11.05,1.65.05a16.25,16.25,0,0,0,8-1.79c1.74,1.27,6.15,4.1,10.8,4.1a9.69,9.69,0,0,0,1.09-.06,17.65,17.65,0,0,0,7.16-2.1,4.21,4.21,0,0,0,.88-.49,24.48,24.48,0,0,0,10.13,2.66h.52a18.62,18.62,0,0,0,9.38-3.3,3.72,3.72,0,0,0,.46.43l.11.06a6.68,6.68,0,0,0,4.41,1.65h0c.25,0,.5,0,.75,0a8.07,8.07,0,0,0,5.29-2.67,12.26,12.26,0,0,0,3.84.67,8.09,8.09,0,0,0,4.44-1.23A9.12,9.12,0,0,0,92,66.25a11.73,11.73,0,0,0,2.21.21,12,12,0,0,0,8.24-3.3c4.62-4.22,3.79-11.57,3.32-14.18A8.93,8.93,0,0,0,109.77,40.68ZM104,47c-.7-.21-1.55-.45-2.58-.7a5.08,5.08,0,0,0-5.16,1.35,4.36,4.36,0,0,0-.84,4.5,3.71,3.71,0,0,0,3.76,2.45,6.18,6.18,0,0,0,2-.32,1.17,1.17,0,1,0-.77-2.22h0c-.09,0-2.2.73-2.73-.71A2.07,2.07,0,0,1,98,49.26a2.78,2.78,0,0,1,2.84-.64c.93.23,1.7.45,2.33.64.38,2,1.26,8.56-2.48,12a9.38,9.38,0,0,1-6.48,2.63,8.73,8.73,0,0,1-2.59-.38L89.25,59a1.3,1.3,0,0,0-2.31,1.2l2.63,5.07a6.37,6.37,0,0,1-2.89,3.37,5.49,5.49,0,0,1-3,.82A10,10,0,0,1,80,68.66l-.26-.11h-.26a1.67,1.67,0,0,0-1.3.75,5.67,5.67,0,0,1-3.92,2.15l-.48,0h0a4.32,4.32,0,0,1-3.4-1.7,4.14,4.14,0,0,1-.62-2.45,2.13,2.13,0,0,1,1-1.78c1.67-1,2.47-.14,2.68.14a1.3,1.3,0,1,0,2.14-1.49c-.75-1.1-3-2.7-6.11-.9a4.65,4.65,0,0,0-2.27,3.84,6.87,6.87,0,0,0,.33,2.55,16.28,16.28,0,0,1-8.17,3A21.06,21.06,0,0,1,50.4,70.5h0a8.4,8.4,0,0,0-.52-6.57c-1.65-3.68-5.64-3.56-7.52-3a1.3,1.3,0,0,0-.89,1.61,1.29,1.29,0,0,0,1.6.89l.06,0c.13,0,3.24-1,4.39,1.57A6,6,0,0,1,48,69.51a3,3,0,0,1-.21.4l-.2.2s-2,2-7.13,2.5a7.87,7.87,0,0,1-.84,0c-3.91,0-7.83-2.56-9.3-3.62l.33-3.94a1.3,1.3,0,1,0-2.59-.22h0l-.32,3.91a13.56,13.56,0,0,1-6.95,1.56c-.49,0-1,0-1.49,0-5.39-.35-6-5.84-6-6.36a3.53,3.53,0,0,1,1.91-2.84,2.8,2.8,0,0,1,1.73-.47l-.09,0,1-2.39c-.25-.11-1.62-.58-3.85.6a6.07,6.07,0,0,0-3.18,4.12A8.07,8.07,0,0,1,9.35,63c-2.89,0-4.95-1.51-6.12-4.5C.8,52.36,6.26,46.4,6.79,45.83A6.62,6.62,0,0,1,11,44.36a4,4,0,0,1,3.76,2.48,1.29,1.29,0,0,0,1.23.88,1.14,1.14,0,0,0,.41-.07A1.29,1.29,0,0,0,17.26,46h0a6.57,6.57,0,0,0-6.17-4.25,8.87,8.87,0,0,0-4.86,1.32A13,13,0,0,1,5,32a9.65,9.65,0,0,1,8.87-6.59,6.19,6.19,0,0,0,4.87,3.5,6.86,6.86,0,0,0,1,.07A7.18,7.18,0,0,0,26,24.81a1.3,1.3,0,1,0-2.36-1.09c-.06.12-1.47,3-4.53,2.6a3.72,3.72,0,0,1-2.67-1.66l-.53-1.16a1.09,1.09,0,0,1-.08-.19,6.29,6.29,0,0,1-.25-1.73s0-.08,0-.12c0-1.63.59-4.14,3.07-7.27,3.86-4.85,10.4-4,12.2-3.69l1.83,4.12a1.3,1.3,0,0,0,1.19.77A1.3,1.3,0,0,0,35,13.56h0l-2-4.45A.35.35,0,0,1,33,9a7,7,0,0,1,5-5.09,8.5,8.5,0,0,1,2.4-.35,7.94,7.94,0,0,1,5.26,2l.29.3a3.57,3.57,0,0,1,.5,3.52,2.91,2.91,0,0,1-2.74,1.83,1.3,1.3,0,0,0-.24,2.59h.29a5.5,5.5,0,0,0,5-3.3A5.86,5.86,0,0,0,48.48,5a16.05,16.05,0,0,1,6.44-2.31A8.29,8.29,0,0,1,56,2.6a9.62,9.62,0,0,1,5.74,2.12A6.12,6.12,0,0,0,60.4,7.43a5.29,5.29,0,0,0,3.66,6.4,1.12,1.12,0,0,0,.32,0,1.3,1.3,0,0,0,.31-2.56A2.69,2.69,0,0,1,62.94,8c.48-2.22,3.12-3.25,3.63-3.43a11,11,0,0,1,3.64-.63,9.88,9.88,0,0,1,3.45.62A7.88,7.88,0,0,1,78.26,9l0,.1A9.48,9.48,0,0,1,79,12l0,2.19C78.56,16,77.59,16,77.16,16a2.81,2.81,0,0,1-1.48-.49,1.3,1.3,0,1,0-1.6,2.05,5.33,5.33,0,0,0,3.07,1c1.19,0,4-.48,4.54-4.88,0-.26,0-.5.07-.75A5.2,5.2,0,0,1,84,14a3.44,3.44,0,0,1,1.25,3.86l-.71,2.05,2.15-.34a9.19,9.19,0,0,1,1.39-.09,12,12,0,0,1,8.2,3.07c3.42,3.21,2.21,7.65,1.81,8.81-.13.29-1.95,4-4.48,4.11a1.77,1.77,0,0,1-1.34-.3,1.17,1.17,0,0,1-.13-.86,1.3,1.3,0,0,0-2.53-.61,3.78,3.78,0,0,0,.66,3.12,3.86,3.86,0,0,0,3.13,1.26h.33c3.07-.14,5.17-2.91,6.14-4.53A8.27,8.27,0,0,1,107.19,41,6.52,6.52,0,0,1,104,47.05Z" transform="translate(0 0)" style="fill:#b8c4e0"/><path id="Tracé_91" data-name="Tracé 91" d="M82.93,29.76a7.5,7.5,0,0,0-1.76-6.69C77,18,70.62,19.14,66.68,20.93A9.13,9.13,0,0,0,60.51,14c-4.76-1.62-8.44,1.59-10.14,3.55a11.87,11.87,0,0,0-8.75-3.16,8,8,0,0,0-7,5.59,6.83,6.83,0,0,0,2.22,7.84,7.94,7.94,0,0,0,10.55-.27,1.3,1.3,0,1,0-1.77-1.9h0a5.36,5.36,0,0,1-7.17.13,4.33,4.33,0,0,1-1.37-5A5.39,5.39,0,0,1,41.68,17c5.4-.11,7.55,3.16,7.64,3.3a1.3,1.3,0,0,0,1.79.42,1.34,1.34,0,0,0,.41-.41c0-.05,3.54-5.41,8.15-3.84a6.64,6.64,0,0,1,4.6,6.45,1.3,1.3,0,0,0,2,1.18c.33-.21,8.23-5,12.92.64a5,5,0,0,1,1.23,4.44,5.35,5.35,0,0,1-2.6,3.45c-1.7.77-3.83-.36-3.84-.37a1.31,1.31,0,0,0-1.77.52,1.29,1.29,0,0,0,.51,1.76h0a8.74,8.74,0,0,0,3.2.93,6,6,0,0,0,3-.46A8,8,0,0,0,82.93,29.76Z" transform="translate(0 0)" style="fill:#b8c4e0"/><path id="Tracé_92" data-name="Tracé 92" d="M26.49,48a6,6,0,0,0-.31-3.34h0a6.94,6.94,0,0,0,2.22-.37,6,6,0,0,0,3.79-4.26,8.25,8.25,0,0,0-1.41-7.23C28.39,30,24.67,30.71,23,31.48a1.3,1.3,0,0,0,1.11,2.36h0s2.94-1.36,4.66.67a5.62,5.62,0,0,1,.89,4.86,3.45,3.45,0,0,1-2.12,2.49,5,5,0,0,1-4-.48,10.74,10.74,0,0,0-1.51-1c-.09-.07-.13-.11-.13-.12a1.31,1.31,0,0,0-1.84,0,1.29,1.29,0,0,0,0,1.83l.06.06a3.44,3.44,0,0,0,.41.36h0a11.57,11.57,0,0,0,1.6,1.09,4.28,4.28,0,0,1,1.76,4c-.53,2.85-2.64,3-2.89,3a1.3,1.3,0,1,0,0,2.6A5.79,5.79,0,0,0,26.49,48Z" transform="translate(0 0)" style="fill:#b8c4e0"/><path id="Tracé_93" data-name="Tracé 93" d="M31.75,53.34a7.76,7.76,0,0,0-6.86,4.76,1.3,1.3,0,1,0,2.4,1l0-.07a5.18,5.18,0,0,1,4.51-3.1C34.69,55.85,35,59,35,59.4a1.3,1.3,0,0,0,1.3,1.22h.08a1.3,1.3,0,0,0,1.22-1.37C37.48,57.14,36.1,53.2,31.75,53.34Z" transform="translate(0 0)" style="fill:#b8c4e0"/><path id="Tracé_94" data-name="Tracé 94" d="M89.16,42.87c-2.09-1.76-5.25-1.24-5.38-1.21a1.18,1.18,0,0,0,.4,2.33,5,5,0,0,1,3.45.7,2.93,2.93,0,0,1,.89,2.38,3.59,3.59,0,0,1-1,2.75,4.06,4.06,0,0,1-2.73.86,1.17,1.17,0,0,0-1.28,1.08,1.2,1.2,0,0,0,0,.38,4.22,4.22,0,0,1-.3,2.9,1.78,1.78,0,0,1-1.42.66,2.51,2.51,0,0,1-2-.53A3.05,3.05,0,0,1,79.14,53a1.18,1.18,0,0,0-2.36-.18,5.34,5.34,0,0,0,1.35,4,4.48,4.48,0,0,0,3.33,1.26l.58,0a4.13,4.13,0,0,0,3.15-1.64A5.56,5.56,0,0,0,86.06,53a5.44,5.44,0,0,0,4.83-5.9A5.26,5.26,0,0,0,89.16,42.87Z" transform="translate(0 0)" style="fill:#b8c4e0"/></g></g></g></g></g></g></g><g id="Groupe_10769" data-name="Groupe 10769"><path id="Tracé_22523" data-name="Tracé 22523" d="M47.33,27.33a46.77,46.77,0,0,1-6.84,4.39,43.93,43.93,0,0,1-7.43,2.84" transform="translate(0 0)" style="fill:none;stroke:#8595ba;stroke-linecap:round;stroke-linejoin:bevel;stroke-width:2px"/><path id="Tracé_22935" data-name="Tracé 22935" d="M78.22,34.56a46.71,46.71,0,0,0-6.84-4.38,43.24,43.24,0,0,0-7.44-2.85" transform="translate(0 0)" style="fill:none;stroke:#8595ba;stroke-linecap:round;stroke-linejoin:bevel;stroke-width:2px"/></g><g id="Groupe_11091" data-name="Groupe 11091"><g id="Groupe_10734" data-name="Groupe 10734"><g id="Groupe_29" data-name="Groupe 29"><path id="Tracé_97" data-name="Tracé 97" d="M74.9,43.87a6.39,6.39,0,1,1-6.38-6.38,6.38,6.38,0,0,1,6.38,6.38Z" transform="translate(0 0)" style="fill:none;stroke:#8595ba;stroke-width:2px"/><path id="Tracé_98" data-name="Tracé 98" d="M74.53,43.88A2.51,2.51,0,1,1,72,41.38h0A2.5,2.5,0,0,1,74.53,43.88Z" transform="translate(0 0)" style="fill:#8595ba;stroke:#8595ba;stroke-width:2px"/></g></g><g id="Groupe_10742" data-name="Groupe 10742"><g id="Groupe_29-2" data-name="Groupe 29-2"><path id="Tracé_97-2" data-name="Tracé 97-2" d="M51.89,43.87a6.38,6.38,0,1,1-6.38-6.38,6.38,6.38,0,0,1,6.38,6.38Z" transform="translate(0 0)" style="fill:none;stroke:#8595ba;stroke-width:2px"/><path id="Tracé_98-2" data-name="Tracé 98-2" d="M51.52,43.88A2.51,2.51,0,1,1,49,41.38h0A2.5,2.5,0,0,1,51.52,43.88Z" transform="translate(0 0)" style="fill:#8595ba;stroke:#8595ba;stroke-width:2px"/></g></g></g></g></g></g><g id="Groupe_11092" data-name="Groupe 11092"><g id="Groupe_22" data-name="Groupe 22"><path id="Tracé_51" data-name="Tracé 51" d="M62.26,59.44a2.66,2.66,0,0,0-.9-1.91,5,5,0,0,0-2.07-1.14,7.4,7.4,0,0,0-4.12,0,5.14,5.14,0,0,0-2.07,1.14,2.66,2.66,0,0,0-.9,1.91c0,1.35,1.2.73,2.92.3a7.57,7.57,0,0,1,4.22,0C61.06,60.17,62.26,60.79,62.26,59.44Z" transform="translate(0 0)" style="fill:#8595ba"/></g><path id="Tracé_52" data-name="Tracé 52" d="M59.29,56.64a7.4,7.4,0,0,0-4.12,0,2.08,2.08,0,0,0,4.12,0Z" transform="translate(0 0)" style="fill:#8595ba"/></g></g></g></g></g></g></g></g></svg>