<svg id="Calque_1" data-name="Calque 1" xmlns="http://www.w3.org/2000/svg" viewBox="0 0 146.66 101.74"><title>neotrash</title><g id="Groupe_11810" data-name="Groupe 11810"><g id="Groupe_11809" data-name="Groupe 11809"><path id="Tracé_24049" data-name="Tracé 24049" d="M88.77,48.53s21.82,6.12,29.38,10.71,9.82,5.87,8.68,8.32c-1.52,3.29-4.77-.22-4.77-.22s.64,1.53-.19,2-1.51-1.25-2.36-4-.66-3.84-9.44-7-19.84-4.22-21.61-5.7S88.77,48.53,88.77,48.53Z" transform="translate(0 0)" style="fill:#8595ba"/><g id="Groupe_11805" data-name="Groupe 11805"><g id="Groupe_11803" data-name="Groupe 11803"><g id="Groupe_11100" data-name="Groupe 11100"><g id="Groupe_11099" data-name="Groupe 11099"><g id="Groupe_11095" data-name="Groupe 11095"><g id="Groupe_11094" data-name="Groupe 11094"><g id="Groupe_11093" data-name="Groupe 11093"><g id="Groupe_11090" data-name="Groupe 11090"><path id="Tracé_22543" data-name="Tracé 22543" d="M12.44,44.17S6.83,66.13,7,75s.2,11.41,2.89,11.65c3.61.33,2.2-4.24,2.2-4.24s1,1.32,1.79.81-.33-1.93-2.3-4-3-2.49-1.34-11.67S16.51,48.26,16.12,46,12.44,44.17,12.44,44.17Z" transform="translate(0 0)" style="fill:#8595ba"/><g id="Groupe_10797" data-name="Groupe 10797"><path id="Tracé_87" data-name="Tracé 87" d="M38.64,61S41,97,39.8,98.08s-7.53.11-8.68,2.1,9.72,1.87,11.11.65,0-39.81,0-39.81Z" transform="translate(0 0)" style="fill:#8595ba"/><path id="Tracé_88" data-name="Tracé 88" d="M71.6,60.15s-2.32,36-1.16,37.07,7.52.11,8.68,2.09S69.4,101.18,68,100s0-39.81,0-39.81Z" transform="translate(0 0)" style="fill:#8595ba"/></g><g id="Groupe_10793" data-name="Groupe 10793"><g id="Groupe_10771" data-name="Groupe 10771"><g id="Groupe_10768" data-name="Groupe 10768"><g id="Groupe_10740" data-name="Groupe 10740"><g id="Groupe_10740-2" data-name="Groupe 10740-2"><g id="Groupe_10738" data-name="Groupe 10738"><g id="Groupe_34" data-name="Groupe 34"><g id="Groupe_27" data-name="Groupe 27"><path id="Tracé_89" data-name="Tracé 89" d="M79.48,69.85c1.11.47,4.87,1.8,7.91-.14C91,67.4,91,64.65,91,64.65a10.52,10.52,0,0,0,10.54-2.45c5.06-4.62,2.75-13.84,2.75-13.84s4.73-2.46,4.19-7.54c-.89-8.2-9.25-8.67-9.25-8.67s2.6-6.21-2-10.54a13.6,13.6,0,0,0-10.69-3.32,4.79,4.79,0,0,0-1.73-5.35,5.21,5.21,0,0,0-5.2-.81s.5-6.57-5.48-8.81A12.24,12.24,0,0,0,63.55,4.57S59.94.67,54.74,1.39a16.13,16.13,0,0,0-8.09,3.32,9.2,9.2,0,0,0-8.95-2,8.3,8.3,0,0,0-6.07,6.64S22.36,6.75,17.3,13.1s-2.6,11.67-2.6,11.67-8.34-1.14-10.94,6.8A14,14,0,0,0,5.92,44.86S-.87,51.65,2,59a8.65,8.65,0,0,0,9.81,5.81,7.66,7.66,0,0,0,7.38,6.75c6.79.44,9.68-2,9.68-2s5.92,4.91,11.7,4.33,8-2.89,8-2.89S54,74.13,59.37,73.94A18.06,18.06,0,0,0,69,70.14a5.72,5.72,0,0,0,5.35,2.6C78,72.37,79.27,69.76,79.48,69.85Z" transform="translate(0 0)" style="fill:#f3f6fe"/><g id="Groupe_26" data-name="Groupe 26"><path id="Tracé_90" data-name="Tracé 90" d="M109.77,40.68a10.83,10.83,0,0,0-8.85-9.6A10.55,10.55,0,0,0,98.1,20.66a14.7,14.7,0,0,0-10-3.78H88a5.87,5.87,0,0,0-2.52-5,7.3,7.3,0,0,0-4-1.49A8.5,8.5,0,0,0,80.67,8a10.38,10.38,0,0,0-6.1-5.9,12.49,12.49,0,0,0-4.36-.78A13.16,13.16,0,0,0,65.94,2h0l-.32.11-.18.07h0A13.42,13.42,0,0,0,63.73,3,12.23,12.23,0,0,0,56,0a10.37,10.37,0,0,0-1.47.1A18.45,18.45,0,0,0,46.7,3.05a10.55,10.55,0,0,0-6.24-2,11.71,11.71,0,0,0-3.12.45,9.55,9.55,0,0,0-6.68,6.39c-2.85-.41-9.7-.73-14,4.74-3,3.64-3.66,6.74-3.66,8.88h0a7.66,7.66,0,0,0,.09,1.35A12,12,0,0,0,2.53,31.16,15.42,15.42,0,0,0,4.19,44.7l-.25.3a1.09,1.09,0,0,0-.24.48c-2,2.57-5.22,8.05-2.88,14,2.1,5.35,6.25,6.15,8.54,6.15a10.25,10.25,0,0,0,1.56-.12c.67,3,2.9,7,8.22,7.36.55,0,1.11,0,1.65,0a16.24,16.24,0,0,0,8-1.79c1.74,1.27,6.15,4.1,10.8,4.1a10,10,0,0,0,1.09-.06,17.65,17.65,0,0,0,7.16-2.1,4.48,4.48,0,0,0,.88-.49,24.48,24.48,0,0,0,10.13,2.66h.52a18.62,18.62,0,0,0,9.38-3.3,3.12,3.12,0,0,0,.46.43l.11.06a6.68,6.68,0,0,0,4.41,1.65h.75a8.07,8.07,0,0,0,5.29-2.67,12.21,12.21,0,0,0,3.84.67,8.09,8.09,0,0,0,4.44-1.23,9.17,9.17,0,0,0,4-4.6,11.73,11.73,0,0,0,2.21.21,12,12,0,0,0,8.24-3.3c4.62-4.22,3.79-11.57,3.32-14.18A8.92,8.92,0,0,0,109.77,40.68ZM104,47c-.7-.21-1.55-.45-2.58-.7a5.08,5.08,0,0,0-5.16,1.35,4.34,4.34,0,0,0-.84,4.5,3.71,3.71,0,0,0,3.76,2.45,6.12,6.12,0,0,0,1.94-.32,1.17,1.17,0,0,0-.76-2.22h0c-.09,0-2.2.73-2.73-.71A2.07,2.07,0,0,1,98,49.26a2.78,2.78,0,0,1,2.84-.64c.93.23,1.7.45,2.33.64.38,2,1.26,8.56-2.48,12a9.38,9.38,0,0,1-6.48,2.63,8.73,8.73,0,0,1-2.59-.38L89.25,59a1.3,1.3,0,1,0-2.31,1.2l2.63,5.07a6.42,6.42,0,0,1-2.89,3.37,5.47,5.47,0,0,1-3,.82,9.89,9.89,0,0,1-3.68-.8l-.25-.11h-.27a1.68,1.68,0,0,0-1.3.76,5.67,5.67,0,0,1-3.91,2.14h-.48a4.32,4.32,0,0,1-3.4-1.7,4.07,4.07,0,0,1-.62-2.45,2.12,2.12,0,0,1,1-1.78c1.66-1,2.47-.14,2.68.14a1.3,1.3,0,0,0,2.14-1.49c-.75-1.1-3-2.7-6.11-.9a4.65,4.65,0,0,0-2.27,3.84,6.89,6.89,0,0,0,.33,2.55,16.32,16.32,0,0,1-8.17,3,21.15,21.15,0,0,1-9-2.16h0a8.4,8.4,0,0,0-.52-6.57c-1.65-3.68-5.64-3.56-7.52-3A1.3,1.3,0,0,0,43,63.45l.08,0h0c.14,0,3.25-1,4.39,1.57A6,6,0,0,1,48,69.51a3,3,0,0,1-.21.4l-.2.2s-2,2-7.13,2.5q-.42,0-.84,0c-3.91,0-7.83-2.56-9.3-3.62l.33-3.94a1.3,1.3,0,0,0-2.59-.28v.06h0l-.32,3.91a13.56,13.56,0,0,1-6.95,1.56h-1.5c-5.38-.35-5.95-5.84-6-6.36a3.55,3.55,0,0,1,1.92-2.84,2.8,2.8,0,0,1,1.73-.47h-.09l1-2.39c-.25-.11-1.62-.58-3.85.6A6.07,6.07,0,0,0,10.82,63a8,8,0,0,1-1.47,0c-2.89,0-4.95-1.51-6.12-4.5-2.43-6.14,3-12.1,3.56-12.67A6.64,6.64,0,0,1,11,44.36a4,4,0,0,1,3.76,2.48,1.29,1.29,0,0,0,1.23.88,1.14,1.14,0,0,0,.41-.07,1.29,1.29,0,0,0,.87-1.6v0h0a6.57,6.57,0,0,0-6.17-4.25,8.85,8.85,0,0,0-4.86,1.32A13,13,0,0,1,5,32a9.65,9.65,0,0,1,8.87-6.59,6.18,6.18,0,0,0,4.87,3.5,6.63,6.63,0,0,0,1,.07A7.2,7.2,0,0,0,26,24.81a1.3,1.3,0,1,0-2.34-1.13l0,0c-.06.12-1.47,3-4.53,2.6a3.72,3.72,0,0,1-2.67-1.66l-.53-1.16a1.08,1.08,0,0,1-.08-.19,5.94,5.94,0,0,1-.25-1.73v-.12c0-1.63.59-4.14,3.07-7.27,3.86-4.85,10.4-4,12.2-3.69l1.83,4.12A1.28,1.28,0,1,0,35,13.56h0L33,9.11A.21.21,0,0,1,33,9a7,7,0,0,1,5-5.09,8.5,8.5,0,0,1,2.4-.35,7.91,7.91,0,0,1,5.26,2l.29.3a3.57,3.57,0,0,1,.5,3.52,2.91,2.91,0,0,1-2.74,1.83,1.3,1.3,0,1,0-.24,2.59h.29a5.51,5.51,0,0,0,5-3.3A5.86,5.86,0,0,0,48.48,5a15.94,15.94,0,0,1,6.44-2.31A9.83,9.83,0,0,1,56,2.6a9.62,9.62,0,0,1,5.74,2.12A6.07,6.07,0,0,0,60.4,7.43a5.29,5.29,0,0,0,3.66,6.4.86.86,0,0,0,.32,0,1.3,1.3,0,0,0,.31-2.56A2.69,2.69,0,0,1,62.94,8c.48-2.22,3.12-3.25,3.63-3.43a11,11,0,0,1,3.64-.63,9.93,9.93,0,0,1,3.45.62A7.89,7.89,0,0,1,78.26,9v.1A9.39,9.39,0,0,1,79,12v2.19C78.56,16,77.59,16,77.16,16a2.81,2.81,0,0,1-1.48-.49,1.3,1.3,0,1,0-1.6,2h0a5.36,5.36,0,0,0,3.07,1c1.19,0,4-.48,4.54-4.88a2.73,2.73,0,0,1,.07-.75A5.23,5.23,0,0,1,84,14a3.44,3.44,0,0,1,1.25,3.86l-.71,2.05,2.15-.34a8.05,8.05,0,0,1,1.39-.09,12,12,0,0,1,8.2,3.07c3.42,3.21,2.21,7.65,1.81,8.81-.13.29-2,4-4.48,4.11a1.77,1.77,0,0,1-1.34-.3,1.18,1.18,0,0,1-.13-.86,1.3,1.3,0,0,0-2.53-.61h0a3.78,3.78,0,0,0,.66,3.12,3.86,3.86,0,0,0,3.13,1.26h.33c3.07-.14,5.17-2.91,6.14-4.53A8.25,8.25,0,0,1,107.18,41a6.5,6.5,0,0,1-3.18,6Z" transform="translate(0 0)" style="fill:#b8c4e0"/><path id="Tracé_91" data-name="Tracé 91" d="M82.93,29.76a7.5,7.5,0,0,0-1.76-6.69C77,18,70.62,19.14,66.68,20.93A9.13,9.13,0,0,0,60.51,14c-4.77-1.62-8.44,1.59-10.14,3.55a11.89,11.89,0,0,0-8.75-3.16,8,8,0,0,0-7,5.59,6.83,6.83,0,0,0,2.22,7.84,7.94,7.94,0,0,0,10.55-.27,1.3,1.3,0,0,0-1.77-1.9h0a5.36,5.36,0,0,1-7.17.13,4.32,4.32,0,0,1-1.37-5A5.37,5.37,0,0,1,41.68,17c5.4-.11,7.55,3.16,7.64,3.3a1.3,1.3,0,0,0,1.79.42h0a1.42,1.42,0,0,0,.41-.4c0-.06,3.54-5.42,8.15-3.85a6.61,6.61,0,0,1,4.59,6.45A1.32,1.32,0,0,0,65.5,24.3a1.36,1.36,0,0,0,.76-.2c.33-.21,8.23-5,12.92.64a5,5,0,0,1,1.23,4.44,5.38,5.38,0,0,1-2.6,3.45c-1.7.77-3.83-.36-3.84-.37a1.31,1.31,0,0,0-1.77.52,1.28,1.28,0,0,0,.5,1.75h0a8.74,8.74,0,0,0,3.2.93,6,6,0,0,0,3-.46A8,8,0,0,0,82.93,29.76Z" transform="translate(0 0)" style="fill:#b8c4e0"/><path id="Tracé_92" data-name="Tracé 92" d="M26.49,48a6,6,0,0,0-.31-3.34h0a7,7,0,0,0,2.22-.37A6,6,0,0,0,32.18,40a8.21,8.21,0,0,0-1.4-7.23C28.39,30,24.67,30.71,23,31.48a1.3,1.3,0,1,0,1.11,2.36h0s2.94-1.36,4.66.67a5.62,5.62,0,0,1,.89,4.86,3.46,3.46,0,0,1-2.13,2.49,5,5,0,0,1-4-.48,10.13,10.13,0,0,0-1.51-1l0-.13a1.3,1.3,0,0,0-1.87,1.8l.06.06a2.86,2.86,0,0,0,.41.36h0a11.57,11.57,0,0,0,1.6,1.09,4.29,4.29,0,0,1,1.76,4c-.53,2.85-2.64,3-2.89,3a1.3,1.3,0,0,0,0,2.6A5.8,5.8,0,0,0,26.49,48Z" transform="translate(0 0)" style="fill:#b8c4e0"/><path id="Tracé_93" data-name="Tracé 93" d="M31.75,53.34a7.75,7.75,0,0,0-6.86,4.76,1.3,1.3,0,1,0,2.4,1V59a5.15,5.15,0,0,1,4.51-3.09C34.69,55.85,35,59,35,59.4a1.3,1.3,0,0,0,1.3,1.22h.08a1.3,1.3,0,0,0,1.22-1.37C37.48,57.14,36.1,53.2,31.75,53.34Z" transform="translate(0 0)" style="fill:#b8c4e0"/><path id="Tracé_94" data-name="Tracé 94" d="M89.15,42.87c-2.08-1.75-5.24-1.24-5.37-1.21a1.18,1.18,0,1,0,.4,2.33,5,5,0,0,1,3.45.7,2.94,2.94,0,0,1,.89,2.38,3.59,3.59,0,0,1-1,2.75,4.09,4.09,0,0,1-2.73.86,1.17,1.17,0,0,0-1.28,1v0a1.21,1.21,0,0,0,0,.38,4.22,4.22,0,0,1-.3,2.9,1.78,1.78,0,0,1-1.42.66,2.49,2.49,0,0,1-2-.53A3,3,0,0,1,79.14,53a1.19,1.19,0,0,0-2.37-.18,5.38,5.38,0,0,0,1.36,4,4.48,4.48,0,0,0,3.33,1.26H82a4.13,4.13,0,0,0,3.15-1.64A5.57,5.57,0,0,0,86.06,53a5.44,5.44,0,0,0,4.83-5.9A5.23,5.23,0,0,0,89.15,42.87Z" transform="translate(0 0)" style="fill:#b8c4e0"/></g></g></g></g></g></g></g><g id="Groupe_10769" data-name="Groupe 10769"><path id="Tracé_22523" data-name="Tracé 22523" d="M47.33,27.33a46.77,46.77,0,0,1-6.84,4.39,43.93,43.93,0,0,1-7.43,2.84" transform="translate(0 0)" style="fill:none;stroke:#8595ba;stroke-linecap:round;stroke-linejoin:bevel;stroke-width:2px"/><path id="Tracé_22935" data-name="Tracé 22935" d="M78.22,34.56a46.71,46.71,0,0,0-6.84-4.38,43.24,43.24,0,0,0-7.44-2.85" transform="translate(0 0)" style="fill:none;stroke:#8595ba;stroke-linecap:round;stroke-linejoin:bevel;stroke-width:2px"/></g><g id="Groupe_11091" data-name="Groupe 11091"><g id="Groupe_10734" data-name="Groupe 10734"><g id="Groupe_29" data-name="Groupe 29"><path id="Tracé_97" data-name="Tracé 97" d="M74.9,43.87a6.39,6.39,0,1,1-6.4-6.38h0A6.4,6.4,0,0,1,74.9,43.87Z" transform="translate(0 0)" style="fill:none;stroke:#8595ba;stroke-width:2px"/><path id="Tracé_98" data-name="Tracé 98" d="M74.53,43.88A2.51,2.51,0,1,1,72,41.38h0a2.5,2.5,0,0,1,2.53,2.47Z" transform="translate(0 0)" style="fill:#8595ba;stroke:#8595ba;stroke-width:2px"/></g></g><g id="Groupe_10742" data-name="Groupe 10742"><g id="Groupe_29-2" data-name="Groupe 29-2"><path id="Tracé_97-2" data-name="Tracé 97-2" d="M51.89,43.87a6.38,6.38,0,1,1-6.38-6.38,6.38,6.38,0,0,1,6.38,6.38Z" transform="translate(0 0)" style="fill:none;stroke:#8595ba;stroke-width:2px"/><path id="Tracé_98-2" data-name="Tracé 98-2" d="M51.52,43.88A2.51,2.51,0,1,1,49,41.38h0a2.5,2.5,0,0,1,2.52,2.48Z" transform="translate(0 0)" style="fill:#8595ba;stroke:#8595ba;stroke-width:2px"/></g></g></g></g></g></g><g id="Groupe_11092" data-name="Groupe 11092"><g id="Groupe_22" data-name="Groupe 22"><path id="Tracé_51" data-name="Tracé 51" d="M62.26,59.44a2.7,2.7,0,0,0-.9-1.91,5,5,0,0,0-2.07-1.14,7.4,7.4,0,0,0-4.12,0,5,5,0,0,0-2.07,1.14,2.66,2.66,0,0,0-.9,1.91c0,1.35,1.2.73,2.92.3a7.57,7.57,0,0,1,4.22,0C61.06,60.17,62.26,60.79,62.26,59.44Z" transform="translate(0 0)" style="fill:#8595ba"/></g><path id="Tracé_52" data-name="Tracé 52" d="M59.29,56.64a7.4,7.4,0,0,0-4.12,0,2.08,2.08,0,0,0,4.12,0Z" transform="translate(0 0)" style="fill:#8595ba"/></g></g></g></g></g></g></g></g><g id="trash"><path id="Tracé_24050" data-name="Tracé 24050" d="M112,72.15h23l-10.9-10.9a.74.74,0,0,1,0-1l2.08-2.09a2.27,2.27,0,0,1,3.14,0L131,59.8l-1,1-1.69-1.68a.76.76,0,0,0-1,0l-1.57,1.56,17.77,17.77L145,76.92a.74.74,0,0,0,0-1l-13.6-13.6,1-1,1,1,1-1a2.22,2.22,0,0,1,3.14,0h0l5.22,5.22a2.22,2.22,0,0,1,0,3.14h0l-1,1L146,74.84A2.22,2.22,0,0,1,146,78l0,0h0l-2.09,2.09a.74.74,0,0,1-1,0L139,76.16l-3.11,23.66a2.22,2.22,0,0,1-2.2,1.92H117a2.21,2.21,0,0,1-2.2-1.92L112.24,80.4l1.47-.19,2.55,19.41a.75.75,0,0,0,.74.65h16.62a.75.75,0,0,0,.73-.65l3.26-24.78-1.18-1.19H112.86l.47,3.6-1.47.2L111.28,73a.74.74,0,0,1,.63-.83Zm29.82-3.59a.76.76,0,0,0,0-1l-5.23-5.23a.74.74,0,0,0-1,0l-1,1.05,6.27,6.27Z" transform="translate(0 0)" style="fill:#8595ba"/><path id="Tracé_24055" data-name="Tracé 24055" d="M115.12,65.37l.71-1.42a.75.75,0,0,1,.81-.4l3.7.74a.75.75,0,0,1,.59.73v1.65l-.74,3a.74.74,0,0,1-.72.56h-.09l-5.91-.74a.74.74,0,0,1-.64-.83h0a.64.64,0,0,1,.14-.35Zm3.77,3.27.56-2.23v-.79l-2.55-.51-.49,1-.07.11-1.45,1.94Z" transform="translate(0 0)" style="fill:#8595ba"/><path id="Tracé_24057" data-name="Tracé 24057" d="M112.94,63l-.9,1.17a7.18,7.18,0,0,0-5.75-1.34l-.3-1.44A8.65,8.65,0,0,1,112.94,63Z" transform="translate(0 0)" style="fill:#8595ba"/><path id="Tracé_24058" data-name="Tracé 24058" d="M109.84,65.76h-1.48v1.47h1.48Z" transform="translate(0 0)" style="fill:#8595ba"/></g></g></g></svg>