<svg id="Calque_1" data-name="Calque 1" xmlns="http://www.w3.org/2000/svg" xmlns:xlink="http://www.w3.org/1999/xlink" viewBox="0 0 123.11 120.28"><defs><radialGradient id="Dégradé_sans_nom" cx="-5427.72" cy="3278.4" r="0.5" gradientTransform="matrix(45.57, 0, 0, -78.46, 247441.84, 257281.72)" gradientUnits="userSpaceOnUse"><stop offset="0" stop-color="#1da2f7"/><stop offset="1" stop-color="#1d62f1"/></radialGradient></defs><title>noaction</title><g id="Groupe_10109" data-name="Groupe 10109"><path id="iconmonstr-star-3" d="M61.55,2.44,80.37,41.51l42.74,5.94L92,77.54l7.6,42.73-38-20.47-38,20.47,7.6-42.73L0,47.45l42.74-5.94Z" transform="translate(0 0)" style="fill:#8bdee1"/><g id="Objects"><g id="Groupe_43" data-name="Groupe 43"><path id="Tracé_32" data-name="Tracé 32" d="M88.28,114.09c0,1-12.51,1.9-27.93,1.9s-27.94-.85-27.94-1.9,12.51-1.89,27.94-1.89S88.28,113,88.28,114.09Z" transform="translate(0 0)" style="fill:#fff;opacity:0.75;isolation:isolate"/><g id="Groupe_40" data-name="Groupe 40"><g id="Groupe_30" data-name="Groupe 30"><g id="Groupe_29" data-name="Groupe 29"><g id="Groupe_5" data-name="Groupe 5"><path id="Tracé_33" data-name="Tracé 33" d="M104.18,71.89c-.8.21-.75,1-.26,3.38a3.56,3.56,0,0,1-1.33,3.61c2.5-4.17-1.06-7.46-1.88-6.86s-.4,1.32.76,3.33a2.79,2.79,0,0,1-.3,3.41c.27-1.76,0-3.63-1.59-4.11a1,1,0,0,0-1.36.45,1,1,0,0,0-.11.52c-.42-1.61-5.06-2.33-3.87,2.21A6.1,6.1,0,0,0,97.1,82a16.47,16.47,0,0,1-1.38,4.81,9.37,9.37,0,0,1-7.67,5.77c-6.78.81-10.76-3.94-12.18-6.08l1.92-1.11a.92.92,0,0,0,.34-1.25,1.33,1.33,0,0,0-.14-.19l-1.43-1.47a16.31,16.31,0,0,0,3.12-.36c2.82-.57,6.52-2.06,8.18-5.88a9.83,9.83,0,0,0,.78-3.86,7.59,7.59,0,0,0,4.51-7.12,13.08,13.08,0,0,0-.71-4.34A5.6,5.6,0,0,0,93.11,59a9.33,9.33,0,0,0-1.59-7.15l-.12-.11c0-.17.07-.34.1-.51a9.85,9.85,0,0,0-5.4-10.61c-.54-3.21-2.85-5.5-6.71-6.63a20.23,20.23,0,0,0-5.47-.76c-.18-.16-.36-.34-.54-.53a13.71,13.71,0,0,0-3.06-2.51,10.1,10.1,0,0,0-5.19-1.26C63.48,28.89,62,30,60.91,32a10.15,10.15,0,0,0-.57,1.26A10.08,10.08,0,0,0,59.78,32c-1.07-2-2.57-3.06-4.23-3.06a10.13,10.13,0,0,0-5.19,1.26,13.89,13.89,0,0,0-3,2.51c-.19.19-.36.37-.54.53A20.23,20.23,0,0,0,41.3,34c-3.86,1.14-6.18,3.42-6.71,6.63a9.84,9.84,0,0,0-5.4,10.61c0,.17.06.34.1.51a.43.43,0,0,0-.12.11A9.33,9.33,0,0,0,27.58,59a5.6,5.6,0,0,0,.67,1.94,13.08,13.08,0,0,0-.71,4.34,7.58,7.58,0,0,0,4.51,7.12,9.65,9.65,0,0,0,.78,3.86C34.49,80,38.19,81.53,41,82.1a16.5,16.5,0,0,0,3.13.36L42.7,83.93a.92.92,0,0,0,0,1.31.83.83,0,0,0,.18.13l1.92,1.11c-1.42,2.14-5.4,6.89-12.18,6.08A9.37,9.37,0,0,1,25,86.79,16.47,16.47,0,0,1,23.59,82a6.12,6.12,0,0,0,2.85-4.15c1.2-4.54-3.44-3.82-3.86-2.21a1,1,0,0,0-.95-1.07,1,1,0,0,0-.52.1c-1.55.48-1.86,2.35-1.59,4.11a2.77,2.77,0,0,1-.3-3.41c1.16-2,1.48-2.8.76-3.33s-4.39,2.69-1.89,6.86a3.58,3.58,0,0,1-1.32-3.61c.48-2.36.54-3.17-.26-3.38-1.25-.33-4.77,9,4.14,10.46A19.83,19.83,0,0,0,22.24,88a12.32,12.32,0,0,0,10,7.54,16.79,16.79,0,0,0,1.88.11,14.85,14.85,0,0,0,10.1-4A18.77,18.77,0,0,0,47.38,88l1.78,1-1.55,9.58c-3.38,0-7.15.3-8,1.34-1.54,2,18,3.52,18,3.52s.86,3.92,1.8,3.92,0-5.64,0-5.64l-5.78-.7H67.06l-5.78.7s-.94,5.64,0,5.64,1.8-3.92,1.8-3.92,19.51-1.55,18-3.52c-.82-1-4.59-1.31-8-1.34L71.53,89l1.78-1a18.77,18.77,0,0,0,3.12,3.65,14.85,14.85,0,0,0,10.1,4,16.93,16.93,0,0,0,1.88-.11,12.32,12.32,0,0,0,10-7.54,19.83,19.83,0,0,0,1.59-5.6C109,80.93,105.42,71.56,104.18,71.89Zm-83,5.7c.51-1.29,1.14-.58,1.41-1.63a1.11,1.11,0,0,0,.07.26s.13.56,1.31.43.35,3-.48,3.17-3.15-.12-2.31-2.23Zm76.1,2.23c-.84-.19-1.67-3.31-.49-3.17s1.32-.43,1.32-.43a2,2,0,0,0,.07-.26c.27,1.06.9.34,1.41,1.63.84,2.11-1.47,2.42-2.31,2.23Z" transform="translate(0 0)" style="fill:none"/></g><g id="Groupe_25" data-name="Groupe 25"><g id="Groupe_12" data-name="Groupe 12"><g id="Groupe_8" data-name="Groupe 8"><path id="Tracé_34" data-name="Tracé 34" d="M45.42,85.48c0,.09-4.13,8.11-12.78,7.08A9.38,9.38,0,0,1,25,86.79,16.85,16.85,0,0,1,23.58,82a6.06,6.06,0,0,0,2.86-4.14c1.2-4.54-3.44-3.82-3.86-2.21a1,1,0,0,0-.95-1.07,1,1,0,0,0-.52.1c-1.55.48-1.86,2.35-1.59,4.11a2.76,2.76,0,0,1-.3-3.41c1.16-2,1.48-2.8.76-3.33s-4.39,2.69-1.89,6.86a3.57,3.57,0,0,1-1.32-3.6c.48-2.37.54-3.18-.26-3.39-1.25-.32-4.77,9,4.14,10.47A19.6,19.6,0,0,0,22.24,88a12.33,12.33,0,0,0,10,7.53,16.79,16.79,0,0,0,1.88.12,14.85,14.85,0,0,0,10.1-4,18.12,18.12,0,0,0,3.8-4.82Zm-24.29-7.9c.51-1.29,1.14-.57,1.42-1.62h0a.77.77,0,0,0,.07.26s.13.56,1.31.42.35,3-.48,3.18-3.15-.12-2.31-2.23Z" transform="translate(0 0)" style="fill:#ef7668"/><g id="Groupe_7" data-name="Groupe 7"><g id="Groupe_6" data-name="Groupe 6"><path id="Tracé_35" data-name="Tracé 35" d="M50.89,78.32,49.4,87l-4.55-2.63,5.89-6Z" transform="translate(0 0)" style="fill:#83cff8"/><path id="Tracé_36" data-name="Tracé 36" d="M52.69,76.8a.91.91,0,0,1,.2.76l-1.9,11a.91.91,0,0,1-.52.68,1,1,0,0,1-.39.08.83.83,0,0,1-.46-.12L42.9,85.37a.92.92,0,0,1-.34-1.26.62.62,0,0,1,.14-.18l7-7.17a.91.91,0,0,1,.66-.28H52A1,1,0,0,1,52.69,76.8ZM49.4,87l1.49-8.67h-.15l-5.89,6Z" transform="translate(0 0)" style="fill:#81c7ed"/></g></g></g><g id="Groupe_11" data-name="Groupe 11"><path id="Tracé_37" data-name="Tracé 37" d="M72.62,86.8a18.12,18.12,0,0,0,3.8,4.82,14.84,14.84,0,0,0,10.1,4,16.79,16.79,0,0,0,1.88-.11,12.32,12.32,0,0,0,10-7.54,19.41,19.41,0,0,0,1.59-5.6c8.91-1.41,5.39-10.78,4.15-10.46-.8.21-.75,1-.27,3.39a3.58,3.58,0,0,1-1.32,3.6c2.5-4.17-1.06-7.46-1.88-6.86s-.4,1.31.75,3.33a2.76,2.76,0,0,1-.3,3.41c.27-1.76,0-3.63-1.58-4.11a1,1,0,0,0-1.37.45.94.94,0,0,0-.1.52c-.42-1.61-5.06-2.33-3.87,2.21A6.06,6.06,0,0,0,97.1,82a16.85,16.85,0,0,1-1.38,4.82,9.37,9.37,0,0,1-7.67,5.76c-8.66,1-12.75-7-12.79-7.07Zm24.62-7c-.83-.19-1.67-3.31-.48-3.18s1.31-.42,1.31-.42a.77.77,0,0,0,.07-.26h0c.28,1.05.9.33,1.41,1.63.84,2.11-1.47,2.42-2.31,2.23Z" transform="translate(0 0)" style="fill:#ef7668"/><g id="Groupe_10" data-name="Groupe 10"><g id="Groupe_9" data-name="Groupe 9"><path id="Tracé_38" data-name="Tracé 38" d="M69.8,78.32,71.29,87l4.55-2.63-5.89-6Z" transform="translate(0 0)" style="fill:#83cff8"/><path id="Tracé_39" data-name="Tracé 39" d="M68.71,76.48h1.63a1,1,0,0,1,.66.27l7,7.18a.91.91,0,0,1,0,1.3.62.62,0,0,1-.18.14l-6.72,3.88a.93.93,0,0,1-.46.12,1,1,0,0,1-.39-.08.93.93,0,0,1-.52-.68l-1.9-11a.92.92,0,0,1,.75-1.07Zm7.13,7.88-5.89-6H69.8L71.3,87Z" transform="translate(0 0)" style="fill:#81c7ed"/></g></g></g></g><g id="Groupe_21" data-name="Groupe 21"><g id="Groupe_13" data-name="Groupe 13"><path id="Tracé_40" data-name="Tracé 40" d="M81,99.9c-.81-1-4.58-1.31-8-1.34L69.34,75.48a.92.92,0,0,0-.91-.78H52.26a.92.92,0,0,0-.91.78L47.62,98.56c-3.38,0-7.16.3-8,1.35-1.54,2,18,3.51,18,3.51s.85,3.93,1.8,3.93,0-5.65,0-5.65l-5.78-.7H67.06l-5.78.7s-.94,5.65,0,5.65,1.8-3.93,1.8-3.93S82.58,101.87,81,99.9Zm-28-23.35H67.64l3.13,19.31H49.93Z" transform="translate(0 0)" style="fill:#83cff8"/><path id="Tracé_41" data-name="Tracé 41" d="M70.77,95.86H49.93l2.34-14.52.78-4.79H67.64l.81,5Z" transform="translate(0 0)" style="fill:#83cff8"/><path id="Tracé_42" data-name="Tracé 42" d="M68.45,81.54c-7.68,5-15.39.3-16.17-.2l.77-4.79H67.64Z" transform="translate(0 0)" style="fill:#83cff8"/></g><g id="Groupe_20" data-name="Groupe 20"><path id="Tracé_43" data-name="Tracé 43" d="M67.1,77.64a10.44,10.44,0,0,1-13.5,0,.93.93,0,0,1,0-.1l.09-.19c.06-.13.11-.25.16-.38a1.67,1.67,0,0,0,.08-.2,1.07,1.07,0,0,0,.07-.19l.06-.19.06-.2.09-.4,0-.16c0-.21.06-.41.08-.62s0-.25,0-.38a4.54,4.54,0,0,0,1.63.31,5.49,5.49,0,0,0,2.83-.86,3.71,3.71,0,0,0,1.51-1.67,3.65,3.65,0,0,0,1.51,1.67,5.43,5.43,0,0,0,2.82.86,4.5,4.5,0,0,0,1.63-.31c0,.13,0,.26,0,.38s0,.41.07.62a.94.94,0,0,0,0,.16,3.24,3.24,0,0,0,.09.4c0,.06,0,.13,0,.2a6.61,6.61,0,0,0,.38,1Z" transform="translate(0 0)" style="fill:#ef7668"/><g id="Groupe_19" data-name="Groupe 19"><g id="Groupe_15" data-name="Groupe 15"><g id="Groupe_14" data-name="Groupe 14"><path id="Tracé_44" data-name="Tracé 44" d="M51.4,78.16c-1,1.15-4,3.7-10.1,2.46-8.42-1.72-7.75-8.37-7.72-8.65a.73.73,0,0,0-.46-.79c-4.9-2-4.28-6.79-3.7-9a5.37,5.37,0,0,0,2.72.95A12.21,12.21,0,0,0,36.53,71c3.62,2.87,9,3.64,15.93,2.3l.25.25A5.08,5.08,0,0,1,51.4,78.16Z" transform="translate(0 0)" style="fill:#ef7668"/><path id="Tracé_45" data-name="Tracé 45" d="M57.31,65.74a.75.75,0,0,1,.31-.5c.09-.06,2-1.5,1.21-4.83A6.66,6.66,0,0,1,55,63.09a7.07,7.07,0,0,1-5.58-1.5c-1.62-1.48-2.38-3.84-2.25-7.05-3,.48-7.72.15-8.91-4a.75.75,0,0,1,1.45-.42c1.26,4.35,8,2.72,8.1,2.7a.76.76,0,0,1,.92.56.65.65,0,0,1,0,.24c-.3,3.22.27,5.51,1.69,6.8a5.39,5.39,0,0,0,4.27,1.13A5.32,5.32,0,0,0,58,58.84c2.17-4,.59-10.33-1.2-15.08C55,43.64,53.27,42,52.42,41a7.76,7.76,0,0,1-4.13,2.56.71.71,0,0,1-.2,0,.76.76,0,0,1-.77-.75.77.77,0,0,1,.57-.74c5.22-1.43,4.48-6,4.45-6.25A.74.74,0,0,1,53,35a.75.75,0,0,1,.88.61h0a7.58,7.58,0,0,1-.29,3.31,5.84,5.84,0,0,1-.29.73c.72.9,2.38,2.65,3.78,2.65h0a1.94,1.94,0,0,0,1.54-1.06c1.2-1.82,1.46-5.52-.16-8.52a5.71,5.71,0,0,0-1.08-1.45,2.66,2.66,0,0,0-1.82-.82c-3.88,0-5.63,1.77-7.17,3.32-.27.28-.53.54-.79.78a.71.71,0,0,1-.55.2,19,19,0,0,0-5.35.7c-3.41,1-5.31,2.94-5.65,5.73,0,.46.19,3.95,3.16,3.95h0a.76.76,0,0,1,0,1.52h0a4.18,4.18,0,0,1-3-1.2,5.88,5.88,0,0,1-1.5-3.14,8.23,8.23,0,0,0-4,8.67c.38,2.34,1.64,4.14,3,4.28a.75.75,0,0,1,.69.82.77.77,0,0,1-.77.69h-.07c-1.52-.15-2.85-1.37-3.66-3.21a8.12,8.12,0,0,0-.8,5.19,3.34,3.34,0,0,0,3.67,3h.13c3.08.16,4.24-1.08,4.28-1.13a.75.75,0,0,1,1.06-.09h0a.77.77,0,0,1,.08,1.08c-.06.07-1.39,1.58-4.62,1.67a10.76,10.76,0,0,0,3.81,6.67c3.33,2.63,8.41,3.27,15.1,1.9a.76.76,0,0,1,.77.3,3.28,3.28,0,0,0,.43.48.79.79,0,0,1,.17.14,3.32,3.32,0,0,0,4.09.1,2.11,2.11,0,0,0,1.05-1.43c.36-1.74-1.08-4.23-1.66-5A.75.75,0,0,1,57.31,65.74Zm-9.44,4.2h0A3.3,3.3,0,0,1,45.63,69a10,10,0,0,1-1.34.12,4.18,4.18,0,0,1-3-1.08c-1.69-1.63-1.24-4.45-1.21-4.56a.76.76,0,0,1,1.49.25s-.34,2.15.78,3.22a2.92,2.92,0,0,0,2.29.64A7.28,7.28,0,0,1,44,65.72a.75.75,0,1,1,1.49-.24h0s.52,2.91,2.39,3a.75.75,0,0,1,.72.79.76.76,0,0,1-.74.72Z" transform="translate(0 0)" style="fill:#ef7668"/></g></g><g id="Groupe_17" data-name="Groupe 17"><g id="Groupe_16" data-name="Groupe 16"><path id="Tracé_46" data-name="Tracé 46" d="M87.56,71.18a.77.77,0,0,0-.46.79c0,.28.7,6.93-7.72,8.65-6.09,1.24-9.09-1.3-10.1-2.46A5.08,5.08,0,0,1,68,73.58a2.94,2.94,0,0,0,.25-.25c7,1.35,12.32.57,15.93-2.3a12.15,12.15,0,0,0,4.39-7.87,5.31,5.31,0,0,0,2.72-.95C91.85,64.39,92.46,69.14,87.56,71.18Z" transform="translate(0 0)" style="fill:#ef7668"/><path id="Tracé_47" data-name="Tracé 47" d="M90.82,53.52c-.81,1.84-2.14,3-3.65,3.21h-.08A.76.76,0,0,1,87,55.21c1.35-.13,2.61-1.93,3-4.27a8.26,8.26,0,0,0-4-8.67,6,6,0,0,1-1.5,3.13,4.12,4.12,0,0,1-3.06,1.2h0a.76.76,0,0,1,0-1.51h0c3,0,3.15-3.5,3.16-4-.35-2.79-2.25-4.72-5.66-5.73a18.88,18.88,0,0,0-5.34-.7.72.72,0,0,1-.55-.2c-.27-.24-.52-.5-.8-.78-1.54-1.56-3.29-3.32-7.17-3.32a2.67,2.67,0,0,0-1.82.81,6,6,0,0,0-1.07,1.45c-1.63,3-1.36,6.7-.16,8.53a2,2,0,0,0,1.54,1.06h0c1.4,0,3.06-1.74,3.77-2.65a6.46,6.46,0,0,1-.28-.73,7.73,7.73,0,0,1-.3-3.31.76.76,0,1,1,1.5.26h0c0,.2-.78,4.82,4.45,6.25a.76.76,0,0,1-.2,1.49l-.2,0A7.7,7.7,0,0,1,68.27,41c-.86,1-2.57,2.67-4.41,2.78-1.79,4.76-3.37,11.1-1.2,15.09a5.33,5.33,0,0,0,3.27,2.75,5.46,5.46,0,0,0,4.28-1.13c1.41-1.29,2-3.57,1.68-6.8a.77.77,0,0,1,.69-.82.69.69,0,0,1,.25,0c.07,0,6.84,1.64,8.1-2.7a.76.76,0,0,1,1.46.42c-1.19,4.1-5.9,4.44-8.92,4,.13,3.2-.62,5.57-2.24,7a7,7,0,0,1-5.58,1.5,6.64,6.64,0,0,1-3.8-2.68c-.77,3.35,1.13,4.78,1.21,4.84a.76.76,0,0,1,.19,1.06h0c-.58.82-2,3.31-1.66,5a2.11,2.11,0,0,0,1.05,1.43,3.32,3.32,0,0,0,4.09-.1.58.58,0,0,1,.17-.14,3.89,3.89,0,0,0,.43-.48.77.77,0,0,1,.77-.3c6.69,1.37,11.77.73,15.1-1.9A10.76,10.76,0,0,0,87,63.2c-3.23-.09-4.56-1.6-4.62-1.67a.77.77,0,0,1,.08-1.08.76.76,0,0,1,1.06.08h0c0,.05,1.2,1.29,4.28,1.13h.11a3.33,3.33,0,0,0,3.69-2.93v0A8.08,8.08,0,0,0,90.82,53.52ZM79.41,68.05a4.17,4.17,0,0,1-3,1.08A10,10,0,0,1,75.06,69a3.24,3.24,0,0,1-2.22.93h0a.76.76,0,0,1-.74-.78.77.77,0,0,1,.73-.74c1.87,0,2.38-2.91,2.38-3a.76.76,0,0,1,1.5.25h0a7.71,7.71,0,0,1-.63,1.88,2.94,2.94,0,0,0,2.3-.64c1.11-1.06.78-3.2.77-3.22a.77.77,0,0,1,.65-.86.76.76,0,0,1,.85.61C80.65,63.61,81.1,66.42,79.41,68.05Z" transform="translate(0 0)" style="fill:#ef7668"/></g></g><g id="Groupe_18" data-name="Groupe 18"><path id="Tracé_48" data-name="Tracé 48" d="M47.89,68.42a.76.76,0,0,1,0,1.52h0A3.26,3.26,0,0,1,45.63,69a10,10,0,0,1-1.33.12,4.19,4.19,0,0,1-3-1.08c-1.69-1.63-1.23-4.44-1.21-4.56a.76.76,0,0,1,1.49.25s-.34,2.16.78,3.22a3,3,0,0,0,2.29.65A7.78,7.78,0,0,1,44,65.72a.77.77,0,0,1,.63-.87.76.76,0,0,1,.87.63h0S46,68.39,47.89,68.42Z" transform="translate(0 0)" style="fill:#ef564b"/><path id="Tracé_49" data-name="Tracé 49" d="M72.81,68.42a.76.76,0,0,0,0,1.52h0A3.24,3.24,0,0,0,75.06,69a10,10,0,0,0,1.34.12,4.17,4.17,0,0,0,3-1.08c1.69-1.63,1.24-4.44,1.22-4.56a.78.78,0,0,0-.9-.6.77.77,0,0,0-.6.85s.34,2.16-.77,3.22a3,3,0,0,1-2.3.65,7.78,7.78,0,0,0,.63-1.89.76.76,0,1,0-1.5-.24h0S74.68,68.39,72.81,68.42Z" transform="translate(0 0)" style="fill:#ef564b"/><path id="Tracé_50" data-name="Tracé 50" d="M93.11,59a9.3,9.3,0,0,0-1.59-7.14.57.57,0,0,0-.11-.11c0-.17.06-.34.1-.51a9.86,9.86,0,0,0-5.4-10.61c-.54-3.21-2.85-5.5-6.71-6.63a20.3,20.3,0,0,0-5.48-.76c-.17-.17-.35-.34-.53-.53a14.18,14.18,0,0,0-3.06-2.51,10.13,10.13,0,0,0-5.19-1.26C63.48,28.89,62,30,60.91,32a11.79,11.79,0,0,0-.56,1.26A10.15,10.15,0,0,0,59.78,32c-1.06-2-2.56-3.06-4.22-3.06a10.1,10.1,0,0,0-5.19,1.26,13.94,13.94,0,0,0-3.06,2.51c-.18.19-.36.36-.53.53A20.3,20.3,0,0,0,41.3,34c-3.86,1.13-6.17,3.42-6.71,6.63a9.86,9.86,0,0,0-5.4,10.61c0,.17.06.34.1.51a.57.57,0,0,0-.11.11A9.3,9.3,0,0,0,27.58,59a5.6,5.6,0,0,0,.68,1.95,12.8,12.8,0,0,0-.72,4.34,7.59,7.59,0,0,0,4.52,7.12,9.6,9.6,0,0,0,.78,3.85C34.49,80,38.2,81.53,41,82.1a17.15,17.15,0,0,0,3.43.37,10.45,10.45,0,0,0,8.11-3.31l.12-.13A12.1,12.1,0,0,0,68,79l0,0,.14.18a10.45,10.45,0,0,0,8.12,3.31,17.05,17.05,0,0,0,3.42-.37c2.82-.57,6.52-2.06,8.18-5.89a9.78,9.78,0,0,0,.78-3.85,7.59,7.59,0,0,0,4.51-7.12,13,13,0,0,0-.71-4.34A5.56,5.56,0,0,0,93.11,59ZM60.35,72.41a3.6,3.6,0,0,0,1.51,1.67,5.43,5.43,0,0,0,2.82.86,4.3,4.3,0,0,0,1.63-.31c0,.13,0,.26,0,.39s0,.41.07.61a1.36,1.36,0,0,0,0,.17,2.74,2.74,0,0,0,.09.39c0,.06,0,.13,0,.2a6.61,6.61,0,0,0,.38,1c.06.13.12.25.19.38l0,0a.08.08,0,0,1,0,0,10.42,10.42,0,0,1-13.5,0,.41.41,0,0,0-.05.09l.1-.19.09-.19c.06-.12.11-.25.16-.37s.06-.14.08-.2l.07-.2.06-.19.06-.2.09-.39,0-.17c0-.2.06-.41.08-.61s0-.26,0-.39A4.34,4.34,0,0,0,56,75a5.38,5.38,0,0,0,2.83-.87,3.71,3.71,0,0,0,1.51-1.67ZM29.87,53.52c.81,1.84,2.14,3,3.66,3.21h.07a.76.76,0,0,0,.77-.75.75.75,0,0,0-.69-.76c-1.35-.14-2.61-1.94-3-4.28a8.23,8.23,0,0,1,4-8.67,5.81,5.81,0,0,0,1.5,3.13,4.1,4.1,0,0,0,3.05,1.2h0a.76.76,0,0,0,0-1.51h0c-3,0-3.14-3.5-3.15-4,.34-2.79,2.24-4.72,5.65-5.73a19,19,0,0,1,5.35-.7.75.75,0,0,0,.55-.2c.26-.24.52-.5.79-.78,1.54-1.55,3.29-3.32,7.17-3.32a2.66,2.66,0,0,1,1.82.82,5.84,5.84,0,0,1,1.08,1.44c1.62,3,1.36,6.7.16,8.53a1.94,1.94,0,0,1-1.54,1.06h0c-1.4,0-3.06-1.74-3.78-2.65a6.52,6.52,0,0,0,.29-.73,7.58,7.58,0,0,0,.29-3.31.76.76,0,0,0-1.49.26h0c0,.2.77,4.82-4.45,6.25a.76.76,0,0,0,.2,1.49l.2,0A7.77,7.77,0,0,0,52.43,41c.85,1,2.56,2.67,4.41,2.78,1.78,4.76,3.37,11.1,1.2,15.09a5.35,5.35,0,0,1-3.28,2.75,5.47,5.47,0,0,1-4.27-1.13c-1.42-1.29-2-3.57-1.69-6.8a.75.75,0,0,0-.69-.82.71.71,0,0,0-.25,0c-.07,0-6.84,1.64-8.1-2.7a.75.75,0,1,0-1.45.42c1.18,4.1,5.89,4.44,8.91,4-.13,3.2.63,5.57,2.25,7a7,7,0,0,0,5.58,1.5,6.62,6.62,0,0,0,3.79-2.68c.77,3.35-1.12,4.78-1.21,4.84a.77.77,0,0,0-.18,1.06h0c.58.82,2,3.31,1.66,5a2.08,2.08,0,0,1-1,1.43,3.32,3.32,0,0,1-4.09-.1.54.54,0,0,0-.16-.14,4,4,0,0,1-.44-.48.75.75,0,0,0-.76-.3c-6.7,1.37-11.78.73-15.1-1.9A10.71,10.71,0,0,1,33.7,63.2c3.23-.09,4.55-1.6,4.61-1.67a.76.76,0,1,0-1.14-1h0c-.05.05-1.21,1.29-4.28,1.13h-.12a3.32,3.32,0,0,1-3.68-2.93v0a8.14,8.14,0,0,1,.79-5.2ZM51.41,78.16c-1,1.15-4,3.7-10.1,2.46-8.43-1.72-7.76-8.37-7.72-8.65a.76.76,0,0,0-.47-.79c-4.9-2-4.28-6.79-3.7-9a5.37,5.37,0,0,0,2.72.95A12.21,12.21,0,0,0,36.53,71c3.62,2.87,9,3.65,15.93,2.3l.26.25a5.13,5.13,0,0,1-1.31,4.58Zm36.15-7a.77.77,0,0,0-.46.79c0,.28.7,6.93-7.72,8.65-6.09,1.24-9.09-1.3-10.1-2.46A5.08,5.08,0,0,1,68,73.58a2.94,2.94,0,0,0,.25-.25c7,1.35,12.32.57,15.93-2.3a12.15,12.15,0,0,0,4.39-7.87,5.31,5.31,0,0,0,2.72-.95c.59,2.18,1.21,6.93-3.7,9Zm4.06-12.47a3.33,3.33,0,0,1-3.66,3h-.14c-3.08.16-4.23-1.08-4.28-1.13a.75.75,0,0,0-1.06-.09h0a.78.78,0,0,0-.08,1.08c.06.07,1.39,1.58,4.62,1.67a10.76,10.76,0,0,1-3.81,6.67c-3.33,2.63-8.41,3.27-15.1,1.9a.77.77,0,0,0-.77.3,3.89,3.89,0,0,1-.43.48l-.17.14a3.32,3.32,0,0,1-4.09.1,2.11,2.11,0,0,1-1-1.43c-.35-1.74,1.08-4.23,1.66-5a.77.77,0,0,0-.17-1.07h0c-.08-.06-2-1.5-1.21-4.84a6.7,6.7,0,0,0,3.8,2.69,7.1,7.1,0,0,0,5.58-1.5c1.62-1.48,2.37-3.85,2.24-7.05,3,.48,7.73.15,8.92-4a.76.76,0,0,0-1.46-.42c-1.26,4.35-8,2.72-8.1,2.7a.76.76,0,0,0-.92.55,1.1,1.1,0,0,0,0,.25c.3,3.22-.27,5.51-1.69,6.8a5.43,5.43,0,0,1-4.27,1.13,5.3,5.3,0,0,1-3.27-2.75c-2.18-4-.59-10.33,1.2-15.08,1.84-.12,3.55-1.79,4.41-2.79a7.7,7.7,0,0,0,4.13,2.57l.2,0a.76.76,0,0,0,.2-1.49c-5.23-1.43-4.49-6-4.45-6.25a.76.76,0,0,0-1.5-.26,7.73,7.73,0,0,0,.3,3.31,5.8,5.8,0,0,0,.28.73c-.72.9-2.38,2.65-3.77,2.65h-.05a1.92,1.92,0,0,1-1.53-1.06c-1.2-1.82-1.47-5.52.15-8.52a6,6,0,0,1,1.08-1.45,2.68,2.68,0,0,1,1.82-.82c3.88,0,5.63,1.77,7.17,3.32.27.28.53.54.79.78a.71.71,0,0,0,.55.2,19,19,0,0,1,5.35.7c3.41,1,5.31,2.94,5.66,5.73,0,.46-.2,3.95-3.16,3.95h0a.76.76,0,0,0,0,1.52h0a4.2,4.2,0,0,0,3.06-1.2,6,6,0,0,0,1.5-3.14,8.26,8.26,0,0,1,4,8.67c-.39,2.34-1.65,4.14-3,4.28a.76.76,0,0,0,.08,1.51h.07c1.52-.15,2.85-1.37,3.66-3.21a8.15,8.15,0,0,1,.79,5.2Z" transform="translate(0 0)" style="fill:#ef564b"/></g></g></g></g><g id="Groupe_23" data-name="Groupe 23"><g id="Groupe_22" data-name="Groupe 22"><path id="Tracé_51" data-name="Tracé 51" d="M67.69,73.06a3.86,3.86,0,0,1-1.32,2.78,7.34,7.34,0,0,1-3,1.67,10.78,10.78,0,0,1-6,0,7.31,7.31,0,0,1-3-1.67A3.81,3.81,0,0,1,53,73.06c0-2,1.74-1.07,4.25-.43a11.31,11.31,0,0,0,6.16,0C65.94,72,67.69,71.09,67.69,73.06Z" transform="translate(0 0)" style="fill:#81c7ed"/></g><path id="Tracé_52" data-name="Tracé 52" d="M63.35,77.14a10.78,10.78,0,0,1-6,0,3,3,0,0,1,6,0Z" transform="translate(0 0)" style="fill:#ef564b"/></g><g id="Groupe_24" data-name="Groupe 24"><path id="Tracé_53" data-name="Tracé 53" d="M55.78,65.07l0,.18,0,.22a.69.69,0,0,0,0,.13v.18c0,.12,0,.26,0,.41a4.11,4.11,0,0,1-.07.47c0,.17-.08.35-.12.53a5,5,0,0,1-.2.58c-.09.19-.19.39-.3.59A5.47,5.47,0,0,1,53.61,70l-.34.23-.37.2-.19.1-.2.08c-.14,0-.27.11-.41.15a5,5,0,0,1-.85.2,2.2,2.2,0,0,1-.44.05l-.22,0h-.27L50,71h-.19l-.24,0a3.73,3.73,0,0,1-.46-.09l-.42-.11c-.14,0-.27-.1-.4-.15l-.2-.08-.19-.1c-.13-.07-.26-.13-.37-.2L47.13,70a5.7,5.7,0,0,1-1.54-1.67q-.17-.3-.3-.6c-.07-.2-.15-.38-.2-.57s-.1-.36-.12-.53,0-.32-.06-.47a2.74,2.74,0,0,1,0-.4v-.17c0-.05,0-.1,0-.15l0-.23,0-.19a.37.37,0,0,1,.73,0v0l0,.16c0,.15.08.31.13.45L46,66a3.65,3.65,0,0,1,.14.35,3.48,3.48,0,0,0,.2.38c.07.13.17.26.25.39s.19.27.3.4a4.17,4.17,0,0,0,.36.37,4.83,4.83,0,0,0,.89.67,5.36,5.36,0,0,0,1.08.45l.29.06.14,0,.13,0,.13,0h.8l.3,0,.3,0,.29-.07a5.61,5.61,0,0,0,1.08-.45,4.77,4.77,0,0,0,.89-.66,4.32,4.32,0,0,0,.34-.39q.16-.2.3-.39l.25-.39.2-.38.14-.35.1-.29.05-.13,0-.13,0-.22L55,65a.38.38,0,0,1,.45-.28.38.38,0,0,1,.29.31Z" transform="translate(0 0)" style="fill:#81c7ed"/><path id="Tracé_54" data-name="Tracé 54" d="M75.78,65.07l0,.18,0,.22a.69.69,0,0,0,0,.13v.18c0,.12,0,.26,0,.41s0,.3-.07.47-.08.35-.12.53-.13.38-.2.58-.19.39-.3.59A5.59,5.59,0,0,1,73.61,70l-.35.23c-.11.07-.24.13-.37.2l-.19.1-.2.08-.4.15a5.23,5.23,0,0,1-.85.2,2.28,2.28,0,0,1-.44.05l-.22,0h-.27L70,71h-.2l-.23,0a3.4,3.4,0,0,1-.46-.09l-.42-.11c-.14,0-.27-.1-.41-.15l-.2-.08-.19-.1-.37-.2L67.13,70a5.46,5.46,0,0,1-1.54-1.67,5.59,5.59,0,0,1-.3-.6,4.87,4.87,0,0,1-.2-.57,3.64,3.64,0,0,1-.12-.53c0-.17,0-.32-.07-.47s0-.28,0-.4v-.17a.77.77,0,0,1,0-.15c0-.09,0-.17,0-.23l0-.19a.36.36,0,0,1,.41-.32.39.39,0,0,1,.32.27v0l0,.16a3.93,3.93,0,0,0,.12.45L66,66l.15.35a3.48,3.48,0,0,0,.2.38,4.25,4.25,0,0,0,.25.39c.1.13.19.27.3.4a4.17,4.17,0,0,0,.36.37,4.83,4.83,0,0,0,.89.67,5.13,5.13,0,0,0,1.08.45l.29.06.14,0,.13,0,.13,0h.8l.3,0,.3,0,.29-.07a5.28,5.28,0,0,0,1.07-.45,4.47,4.47,0,0,0,.89-.66c.13-.12.25-.25.37-.38s.21-.27.3-.39a4.23,4.23,0,0,0,.24-.4,2.72,2.72,0,0,0,.2-.37c.06-.13.1-.24.15-.35l.1-.3,0-.13,0-.13,0-.21,0-.18a.38.38,0,0,1,.74,0Z" transform="translate(0 0)" style="fill:#81c7ed"/></g></g><g id="Groupe_28" data-name="Groupe 28"><g id="Groupe_26" data-name="Groupe 26"><path id="Tracé_55" data-name="Tracé 55" d="M46.8,51.82A.83.83,0,0,1,46,51a.55.55,0,0,1,0-.18,9.85,9.85,0,0,1,8.62-7.23.83.83,0,1,1,.17,1.65,8.16,8.16,0,0,0-7.17,5.94A.83.83,0,0,1,46.8,51.82Z" transform="translate(0 0)" style="fill:#81c7ed"/></g><g id="Groupe_27" data-name="Groupe 27"><path id="Tracé_56" data-name="Tracé 56" d="M73.9,51.82a.82.82,0,0,1-.81-.64,8.07,8.07,0,0,0-7.17-6,.83.83,0,1,1,.17-1.65h0a9.86,9.86,0,0,1,8.62,7.23.84.84,0,0,1-.63,1Z" transform="translate(0 0)" style="fill:#81c7ed"/></g></g></g><path id="Tracé_57" data-name="Tracé 57" d="M104.18,71.89c-.8.21-.75,1-.26,3.38a3.58,3.58,0,0,1-1.32,3.61c2.5-4.17-1.07-7.46-1.89-6.86s-.4,1.32.76,3.33a2.77,2.77,0,0,1-.3,3.41c.27-1.76,0-3.63-1.59-4.11a1,1,0,0,0-1.36.45,1,1,0,0,0-.11.52c-.42-1.61-5.06-2.33-3.86,2.21A6.09,6.09,0,0,0,97.1,82a16.47,16.47,0,0,1-1.38,4.81,9.37,9.37,0,0,1-7.67,5.77c-6.78.81-10.76-3.94-12.18-6.08l1.92-1.11a.93.93,0,0,0,.34-1.26,1.24,1.24,0,0,0-.14-.18l-1.43-1.47a16.31,16.31,0,0,0,3.12-.36c2.82-.57,6.52-2.06,8.18-5.88a9.83,9.83,0,0,0,.78-3.86,7.59,7.59,0,0,0,4.51-7.12,13.08,13.08,0,0,0-.71-4.34A5.6,5.6,0,0,0,93.11,59a9.33,9.33,0,0,0-1.59-7.15.63.63,0,0,0-.12-.11c0-.17.07-.34.1-.51a9.83,9.83,0,0,0-5.4-10.61c-.53-3.21-2.84-5.5-6.7-6.63a20.36,20.36,0,0,0-5.48-.76l-.54-.53a13.89,13.89,0,0,0-3-2.51,10.13,10.13,0,0,0-5.19-1.26C63.48,28.89,62,30,60.91,32a7.92,7.92,0,0,0-.56,1.26V101h6.71l-5.78.7s-.94,5.64,0,5.64,1.8-3.92,1.8-3.92,19.5-1.55,18-3.52c-.82-1-4.59-1.31-8-1.34L71.53,89l1.78-1a18.16,18.16,0,0,0,3.12,3.65,14.8,14.8,0,0,0,10.1,4,16.93,16.93,0,0,0,1.88-.11,12.32,12.32,0,0,0,10-7.54,19.74,19.74,0,0,0,1.59-5.6C109,80.94,105.42,71.56,104.18,71.89Zm-6.94,7.93c-.83-.19-1.67-3.31-.48-3.18s1.31-.42,1.31-.42a.77.77,0,0,0,.07-.26c.28,1.05.9.33,1.42,1.63.83,2.12-1.48,2.42-2.31,2.23Z" transform="translate(0 0)" style="opacity:0.20000000298023224;isolation:isolate;fill:url(#Dégradé_sans_nom)"/></g><g id="Groupe_39" data-name="Groupe 39"><circle id="Ellipse_1" data-name="Ellipse 1" cx="60.35" cy="23.2" r="0.75" style="fill:#ef7668"/><g id="Groupe_31" data-name="Groupe 31"><path id="Tracé_58" data-name="Tracé 58" d="M72.78,12.43A12.43,12.43,0,1,1,60.35,0,12.43,12.43,0,0,1,72.78,12.43Z" transform="translate(0 0)" style="fill:#fff;opacity:0.10000000149011612;isolation:isolate"/><path id="Tracé_59" data-name="Tracé 59" d="M71.43,12.43A11.08,11.08,0,1,1,60.35,1.35h0A11.09,11.09,0,0,1,71.43,12.43Z" transform="translate(0 0)" style="fill:#fff;opacity:0.10000000149011612;isolation:isolate"/><path id="Tracé_60" data-name="Tracé 60" d="M69.59,12.43a9.24,9.24,0,1,1-9.24-9.24h0A9.24,9.24,0,0,1,69.59,12.43Z" transform="translate(0 0)" style="fill:#fff;opacity:0.10000000149011612;isolation:isolate"/></g><path id="Tracé_61" data-name="Tracé 61" d="M66.26,12.43a5.92,5.92,0,1,1-5.92-5.92,5.92,5.92,0,0,1,5.92,5.92Z" transform="translate(0 0)" style="fill:#fff"/><g id="Groupe_34" data-name="Groupe 34"><path id="Rectangle_2" data-name="Rectangle 2" d="M60,18h.61a2.62,2.62,0,0,1,2.62,2.62h0a2.62,2.62,0,0,1-2.62,2.62H60a2.62,2.62,0,0,1-2.62-2.62h0A2.62,2.62,0,0,1,60,18Z" transform="translate(0 0)" style="fill:#81c7ed"/><g id="Groupe_32" data-name="Groupe 32" style="opacity:0.4000000059604645"><path id="Tracé_62" data-name="Tracé 62" d="M63.27,20.06v.34a22.93,22.93,0,0,1-2.75.16,26.85,26.85,0,0,1-3.1-.18V20A25.43,25.43,0,0,0,63.27,20.06Z" transform="translate(0 0)" style="fill:#fff"/></g><g id="Groupe_33" data-name="Groupe 33" style="opacity:0.4000000059604645"><path id="Tracé_63" data-name="Tracé 63" d="M63.27,21.64V22a22.93,22.93,0,0,1-2.75.16,26.85,26.85,0,0,1-3.1-.18v-.34A24.89,24.89,0,0,0,63.27,21.64Z" transform="translate(0 0)" style="fill:#fff"/></g></g><g id="Groupe_38" data-name="Groupe 38"><g id="Groupe_37" data-name="Groupe 37"><g id="Groupe_35" data-name="Groupe 35"><path id="Tracé_64" data-name="Tracé 64" d="M58.59,18.6a.1.1,0,0,1-.09-.08l-.61-6.09a.1.1,0,0,1,.07-.09.08.08,0,0,1,.1.07h0l.61,6.08a.09.09,0,0,1-.07.1Z" transform="translate(0 0)" style="fill:#441165"/></g><g id="Groupe_36" data-name="Groupe 36"><path id="Tracé_65" data-name="Tracé 65" d="M62.1,18.6h0s-.08-.05-.07-.09l.61-6.09a.09.09,0,0,1,.09-.08.1.1,0,0,1,.08.1l-.61,6.08A.09.09,0,0,1,62.1,18.6Z" transform="translate(0 0)" style="fill:#441165"/></g></g><path id="Tracé_66" data-name="Tracé 66" d="M62.41,12.4a1,1,0,0,1-1.38,0,1,1,0,0,1-1.37,0,1,1,0,0,1-1.38,0,.08.08,0,0,0-.08.08.08.08,0,0,0,.08.09,1,1,0,0,1,.59.2,1.23,1.23,0,0,0-.41.86c0,.44.26.64.5.64s.5-.17.5-.64a1.22,1.22,0,0,0-.34-.85.92.92,0,0,1,.53-.21,1,1,0,0,1,.59.2,1.2,1.2,0,0,0-.41.86c0,.44.25.64.5.64s.5-.17.5-.64a1.22,1.22,0,0,0-.34-.85.92.92,0,0,1,.52-.21.94.94,0,0,1,.59.2,1.22,1.22,0,0,0-.4.86c0,.44.25.64.5.64s.5-.17.5-.64a1.27,1.27,0,0,0-.34-.85.92.92,0,0,1,.52-.21.09.09,0,0,0,.09-.09.09.09,0,0,0-.09-.08h0Zm-3.1,1.23c0,.3-.12.47-.34.47s-.34-.18-.34-.47a1.08,1.08,0,0,1,.37-.74,1.1,1.1,0,0,1,.31.74Zm1.38,0c0,.3-.12.47-.34.47s-.34-.18-.34-.47a1.08,1.08,0,0,1,.37-.74,1.15,1.15,0,0,1,.31.74Zm1.37,0c0,.3-.12.47-.34.47s-.33-.18-.33-.47a1.07,1.07,0,0,1,.36-.74,1.05,1.05,0,0,1,.31.74Z" transform="translate(0 0)" style="fill:#81c7ed"/></g></g></g><g id="Groupe_41" data-name="Groupe 41" style="opacity:0.75"><path id="Tracé_67" data-name="Tracé 67" d="M20,42.71c0,1.84-.82,2.66-2.67,2.66,1.85,0,2.67.82,2.67,2.66,0-1.84.81-2.66,2.66-2.66C20.86,45.38,20,44.55,20,42.71Z" transform="translate(0 0)" style="fill:#fff"/><path id="Tracé_68" data-name="Tracé 68" d="M14.43,49.28c0,2.57-1.14,3.71-3.71,3.71,2.57,0,3.71,1.14,3.71,3.72,0-2.58,1.14-3.72,3.72-3.72C15.57,53,14.43,51.85,14.43,49.28Z" transform="translate(0 0)" style="fill:#fff"/><path id="Tracé_69" data-name="Tracé 69" d="M22,50.34a.57.57,0,1,1-1.13,0,.57.57,0,0,1,1.13,0Z" transform="translate(0 0)" style="fill:#fff"/><path id="Tracé_70" data-name="Tracé 70" d="M13.65,45.71a.92.92,0,1,1-.92-.92.92.92,0,0,1,.92.92Z" transform="translate(0 0)" style="fill:#fff"/><path id="Tracé_71" data-name="Tracé 71" d="M19.8,55.39a.54.54,0,1,1-1.08,0,.55.55,0,0,1,.54-.55h0A.55.55,0,0,1,19.8,55.39Z" transform="translate(0 0)" style="fill:#fff"/></g><g id="Groupe_42" data-name="Groupe 42" style="opacity:0.7480000257492065"><path id="Tracé_72" data-name="Tracé 72" d="M102.59,51.82c0,1.85.82,2.67,2.66,2.67-1.84,0-2.66.82-2.66,2.66,0-1.84-.82-2.66-2.67-2.66C101.77,54.49,102.59,53.67,102.59,51.82Z" transform="translate(0 0)" style="fill:#fff"/><path id="Tracé_73" data-name="Tracé 73" d="M108.2,58.39c0,2.58,1.14,3.72,3.71,3.72-2.57,0-3.71,1.14-3.71,3.71,0-2.57-1.15-3.71-3.72-3.71C107.05,62.11,108.2,61,108.2,58.39Z" transform="translate(0 0)" style="fill:#fff"/><path id="Tracé_74" data-name="Tracé 74" d="M100.61,59.46a.56.56,0,0,0,.56.56.57.57,0,0,0,.57-.56.58.58,0,0,0-.57-.57.57.57,0,0,0-.56.57Z" transform="translate(0 0)" style="fill:#fff"/><path id="Tracé_75" data-name="Tracé 75" d="M109,54.83a.92.92,0,1,0,.92-.93h0A.93.93,0,0,0,109,54.83Z" transform="translate(0 0)" style="fill:#fff"/><path id="Tracé_76" data-name="Tracé 76" d="M102.82,64.5a.55.55,0,1,0,1.09,0,.55.55,0,0,0-1.09,0Z" transform="translate(0 0)" style="fill:#fff"/></g></g></g></g></svg>