<svg id="Calque_1" data-name="Calque 1" xmlns="http://www.w3.org/2000/svg" viewBox="0 0 212.07 132.34"><title>neosearch</title><g id="Groupe_12394" data-name="Groupe 12394"><g id="Groupe_11172" data-name="Groupe 11172"><g id="fusee"><g id="OBJECTS"><g id="Groupe_10733" data-name="Groupe 10733"><path id="Tracé_20852" data-name="Tracé 20852" d="M183.1,122.87c-11.06,6.55-20.16,7.93-26.56,7.93-16.37-.07-38.35-9.17-46.72-9.75a110.88,110.88,0,0,0-12.23.07c-8,.29-13.61,1-18.41,1.53-6,.65-14.85,1.46-25.91,2-.87.14-20,2.47-29.84-11.36-.72-1-7.93-11.46-4.43-20.26,1.9-4.8,7.79-11.13,14.41-14.77,1.6-.87,2.62-1.24,3-2.4C37.92,71.13,24,66,22.56,57.52c-.73-4.29,1.38-10.91,15.07-21.1C47.09,32,60.48,27.76,73.8,32.27c11.35,3.86,12.37,10.48,22.77,12.52,13.18,2.48,16.74-7.13,39.3-10.84,9.47-1.6,19.5-3.06,29.48,2.25,2,1.1,13.68,7.28,15.28,18,1.89,12.88-15,18.63-13.1,29.26,2,11.79,23.8,13,25.11,24.08C193.36,113.26,188.27,118.72,183.1,122.87Z" transform="translate(0 0)" style="fill:#dfe4f4"/><circle id="Ellipse_392" data-name="Ellipse 392" cx="204.72" cy="41.5" r="7.35" style="fill:#dfe4f4"/><circle id="Ellipse_393" data-name="Ellipse 393" cx="191.76" cy="54.6" r="3.64" style="fill:#dfe4f4"/><circle id="Ellipse_394" data-name="Ellipse 394" cx="5.75" cy="109.77" r="5.75" style="fill:#dfe4f4"/><circle id="Ellipse_395" data-name="Ellipse 395" cx="200.13" cy="93.54" r="5.75" style="fill:#dfe4f4"/><circle id="Ellipse_396" data-name="Ellipse 396" cx="17.17" cy="38.88" r="5.75" style="fill:#dfe4f4"/></g></g></g></g><g id="Groupe_10802" data-name="Groupe 10802"><g id="Groupe_10796" data-name="Groupe 10796"><g id="Groupe_10794" data-name="Groupe 10794"><g id="Groupe_10771" data-name="Groupe 10771"><g id="Groupe_10768" data-name="Groupe 10768"><g id="Groupe_10740" data-name="Groupe 10740"><g id="Groupe_10740-2" data-name="Groupe 10740-2"><g id="Groupe_10738" data-name="Groupe 10738"><g id="Groupe_34" data-name="Groupe 34"><path id="Tracé_101" data-name="Tracé 101" d="M172.81,67.81c5.44,1.84,13.26-6.77,13.53-11.6s-1.54-8-4-12.43c-2.34-4.2-5.51-5.67-9.4-7.57-.17-.72-10.22,2.33-10.22,2.33a4,4,0,0,1-2.51-7,12.58,12.58,0,0,1-2.21-.16,50.86,50.86,0,0,0-6.13.89c-2.34-2.38,3.65-3.13,4.94-3.23a61.64,61.64,0,0,1,7.81-.17c.45.06,11.86,2.83,18.65,11.35,2.52,3.16,5,7.38,5.42,11.3A19.2,19.2,0,0,1,186,63.47c-4.48,6.57-13.69,8.43-16.64,7.44A26.23,26.23,0,0,0,172.81,67.81Z" transform="translate(0 0)" style="fill:#8595ba"/><path id="Tracé_22540" data-name="Tracé 22540" d="M57.08,73.68c-6.64-.92-12.91,2.07-19.71,1-13.76-2-26.55-8.07-28-9.1-3.6-2.6-3-5.15-.21-5.66s6.24,3.11,6.24,3.11-.27-1.33,1.7-1.41,1.45,3.66,4.08,3.84c.83,0,8,4.48,16.44,5.1,5.76.41,11.8-3,18.45-2.51A15.67,15.67,0,0,0,57.08,73.68Z" transform="translate(0 0)" style="fill:#8595ba"/><g id="Groupe_11" data-name="Groupe 11"><path id="Tracé_48" data-name="Tracé 48" d="M133.65,78.69s-3.06,47.46-1.53,48.86,9.92.15,11.45,2.77-12.82,2.46-14.66.85,0-52.47,0-52.47Z" transform="translate(0 0)" style="fill:#8595ba"/><path id="Tracé_49" data-name="Tracé 49" d="M93.09,85.25s-24.87,40.54-26.93,40.8-8.19-5.6-10.95-4.35,9.05,9.41,11.48,9.15S97,88,97,88Z" transform="translate(0 0)" style="fill:#8595ba"/></g><g id="Groupe_27" data-name="Groupe 27"><path id="Tracé_89" data-name="Tracé 89" d="M140.84,95.43c1.29.54,5.65,2.09,9.17-.17,4.19-2.68,4.19-5.86,4.19-5.86a12.2,12.2,0,0,0,12.23-2.85c5.86-5.36,3.18-16,3.18-16s5.5-2.86,4.85-8.74c-1-9.51-10.71-10.05-10.71-10.05s3-7.2-2.35-12.23A15.75,15.75,0,0,0,149,35.64a5.54,5.54,0,0,0-2-6.2c-3.35-2.35-6-.94-6-.94s.58-7.62-6.35-10.21a14.18,14.18,0,0,0-12.24,1.44s-4.19-4.52-10.21-3.68a18.83,18.83,0,0,0-9.4,3.85,10.69,10.69,0,0,0-10.39-2.35,9.64,9.64,0,0,0-7,7.7s-10.75-3-16.6,4.37-3,13.53-3,13.53S56.06,41.83,53.05,51a16.28,16.28,0,0,0,2.51,15.4S47.68,74.31,51,82.86,62.41,89.6,62.41,89.6A8.87,8.87,0,0,0,71,97.44c7.87.5,11.22-2.35,11.22-2.35s6.87,5.69,13.57,5S105,96.77,105,96.77s6.36,3.62,12.56,3.4,11.22-4.41,11.22-4.41a6.6,6.6,0,0,0,6.2,3C139.12,98.35,140.6,95.33,140.84,95.43Z" transform="translate(0 0)" style="fill:#f3f6fe"/><g id="Groupe_26" data-name="Groupe 26"><path id="Tracé_90" data-name="Tracé 90" d="M176,61.61c-.78-7.28-6.3-10.28-10.26-11.13a12.24,12.24,0,0,0-3.27-12.08A16.87,16.87,0,0,0,150.86,34h-.08a6.72,6.72,0,0,0-2.92-5.81,8.39,8.39,0,0,0-4.61-1.73,9.82,9.82,0,0,0-1-2.77,12.06,12.06,0,0,0-7.08-6.84A14.47,14.47,0,0,0,130.1,16a16.36,16.36,0,0,0-4.95.83h0l-.37.13-.21.08h0a15.78,15.78,0,0,0-1.93.86,14.21,14.21,0,0,0-8.92-3.43,13.86,13.86,0,0,0-1.7.11A21.63,21.63,0,0,0,102.83,18a12.12,12.12,0,0,0-7.22-2.39,13.07,13.07,0,0,0-3.62.55,11.08,11.08,0,0,0-7.74,7.4C81,23,73,22.66,68,29c-3.37,4.23-4.2,7.83-4.21,10.32v0a9.09,9.09,0,0,0,.1,1.56c-3.29.38-9.75,2.1-12.22,9.65a17.9,17.9,0,0,0,1.93,15.69l-.3.34a1.73,1.73,0,0,0-.28.56c-2.28,3-6,9.33-3.34,16.25,2.44,6.2,7.25,7.13,9.9,7.13a12.15,12.15,0,0,0,1.81-.13c.77,3.45,3.37,8.13,9.53,8.52.64,0,1.3.06,1.92.06a18.75,18.75,0,0,0,9.32-2.07c2,1.46,7.13,4.75,12.52,4.75.43,0,.85,0,1.27-.06a20.53,20.53,0,0,0,8.3-2.46,4.62,4.62,0,0,0,1-.56A28.46,28.46,0,0,0,117,101.69h.6a21.66,21.66,0,0,0,10.87-3.83,6.39,6.39,0,0,0,.54.5l.12.07a7.82,7.82,0,0,0,5.12,1.9h0a8.46,8.46,0,0,0,.87,0,9.41,9.41,0,0,0,6.13-3.08,14,14,0,0,0,4.45.76,9.38,9.38,0,0,0,5.15-1.42,10.58,10.58,0,0,0,4.5-5.28,13.7,13.7,0,0,0,2.56.24,13.91,13.91,0,0,0,9.55-3.83c5.35-4.9,4.4-13.42,3.85-16.44A10.38,10.38,0,0,0,176,61.61ZM169.23,69c-.8-.25-1.79-.52-3-.83a6,6,0,0,0-6,1.56,5.09,5.09,0,0,0-1,5.23,4.28,4.28,0,0,0,4.35,2.84,7.53,7.53,0,0,0,2.26-.37,1.37,1.37,0,0,0-.87-2.59h0c-.1,0-2.55.86-3.16-.83a2.42,2.42,0,0,1,.43-2.47,3.26,3.26,0,0,1,3.3-.74c1.08.27,2,.52,2.7.74.43,2.3,1.45,9.93-2.88,13.9a10.9,10.9,0,0,1-7.51,3,9.82,9.82,0,0,1-3-.44l-2.71-5.22a1.51,1.51,0,0,0-2.68,1.39l3.05,5.87A7.39,7.39,0,0,1,149.2,94a6.37,6.37,0,0,1-3.53,1,11.72,11.72,0,0,1-4.24-.9l-.3-.13h-.31a2,2,0,0,0-1.5.88,6.51,6.51,0,0,1-4.54,2.49,5.07,5.07,0,0,1-.55,0h0a5.06,5.06,0,0,1-3.94-2,4.86,4.86,0,0,1-.72-2.85,2.47,2.47,0,0,1,1.12-2.06c1.93-1.11,2.87-.16,3.11.16a1.51,1.51,0,0,0,2.48-1.72c-.87-1.28-3.47-3.13-7.08-1a5.38,5.38,0,0,0-2.64,4.45,7.77,7.77,0,0,0,.39,3,18.76,18.76,0,0,1-9.48,3.44c-4,.15-8.21-1.5-10.33-2.48h0a9.81,9.81,0,0,0-.6-7.62c-1.91-4.29-6.54-4.14-8.73-3.48A1.51,1.51,0,0,0,98.67,88h0c.16,0,3.77-1.12,5.09,1.82a6.9,6.9,0,0,1,.56,5.23,2.31,2.31,0,0,1-.24.47l-.23.23s-2.33,2.3-8.27,2.9c-.32,0-.64.05-1,.05-4.53,0-9.08-3-10.78-4.2l.38-4.57a1.51,1.51,0,0,0-3-.25l-.37,4.54C80,94.74,77.39,96,72.8,96c-.57,0-1.15,0-1.73-.06-6.25-.4-6.9-6.76-6.95-7.37a4.09,4.09,0,0,1,2.22-3.3,3.16,3.16,0,0,1,2-.54l-.11,0,1.18-2.78c-.29-.12-1.88-.67-4.47.7a7,7,0,0,0-3.68,4.77,9.83,9.83,0,0,1-1.72.16c-3.35,0-5.74-1.76-7.1-5.22C49.63,75.16,56,68.24,56.58,67.59a7.58,7.58,0,0,1,4.93-1.72,4.62,4.62,0,0,1,4.36,2.88,1.51,1.51,0,0,0,2.85-1,7.62,7.62,0,0,0-7.15-4.93,10.37,10.37,0,0,0-5.64,1.53,15,15,0,0,1-1.44-12.86c2.1-6.43,7.93-7.49,10.28-7.65a7.23,7.23,0,0,0,5.65,4.06,7.67,7.67,0,0,0,1.17.08,8.31,8.31,0,0,0,7.26-4.82,1.51,1.51,0,1,0-2.74-1.26c-.07.15-1.71,3.53-5.25,3A4.23,4.23,0,0,1,67.77,43l-.63-1.34a2,2,0,0,0-.09-.22,7.51,7.51,0,0,1-.3-2v-.14c0-1.89.68-4.8,3.57-8.43,4.48-5.63,12.05-4.68,14.14-4.28l2.12,4.77a1.53,1.53,0,0,0,1.38.9,1.43,1.43,0,0,0,.61-.14,1.51,1.51,0,0,0,.77-2L87,25,87,24.9A8.15,8.15,0,0,1,92.83,19a10.19,10.19,0,0,1,2.79-.42A9.18,9.18,0,0,1,101.7,21l.34.36a4.11,4.11,0,0,1,.58,4.08,3.4,3.4,0,0,1-3.18,2.13,1.5,1.5,0,1,0-.41,3l.13,0h.34a6.39,6.39,0,0,0,5.83-3.83,6.85,6.85,0,0,0-.42-6.47,18.7,18.7,0,0,1,7.47-2.68,9.18,9.18,0,0,1,1.28-.09,11.15,11.15,0,0,1,6.66,2.46,7.12,7.12,0,0,0-1.6,3.14A6.16,6.16,0,0,0,123,30.49a1.51,1.51,0,0,0,.73-2.93,3.11,3.11,0,0,1-2-3.86c.56-2.57,3.62-3.76,4.21-4a13,13,0,0,1,4.23-.74,11.41,11.41,0,0,1,4,.72,9.2,9.2,0,0,1,5.34,5.14l0,.11a10.94,10.94,0,0,1,.82,3.37l0,2.54c-.5,2.15-1.61,2.15-2.12,2.15a3.2,3.2,0,0,1-1.71-.56,1.51,1.51,0,0,0-1.87,2.37h0a6.17,6.17,0,0,0,3.56,1.2c1.37,0,4.64-.55,5.26-5.65,0-.3.06-.59.08-.87a6,6,0,0,1,2.64,1.17,4,4,0,0,1,1.45,4.46l-.83,2.39,2.48-.4a9.67,9.67,0,0,1,1.61-.1,13.89,13.89,0,0,1,9.51,3.56c4,3.73,2.57,8.86,2.1,10.21-.16.34-2.26,4.63-5.2,4.77a2,2,0,0,1-1.54-.35,1.35,1.35,0,0,1-.16-1,1.51,1.51,0,0,0-2.94-.7A4,4,0,0,0,157,58.6h.39c3.56-.17,6-3.38,7.12-5.25,2.18.36,7.71,1.94,8.43,8.6.45,4.08-2.7,6.41-3.73,7Z" transform="translate(0 0)" style="fill:#b8c4e0"/><path id="Tracé_91" data-name="Tracé 91" d="M144.85,48.94a8.68,8.68,0,0,0-2-7.75c-4.86-5.85-12.23-4.56-16.8-2.49a10.54,10.54,0,0,0-7.15-8c-5.52-1.88-9.78,1.83-11.76,4.11A13.8,13.8,0,0,0,97,31.12a9.24,9.24,0,0,0-8.17,6.48,8,8,0,0,0,2.58,9.1,9.22,9.22,0,0,0,12.24-.32,1.51,1.51,0,0,0-2.06-2.19,6.2,6.2,0,0,1-8.3.16,5,5,0,0,1-1.6-5.78A6.26,6.26,0,0,1,97,34.15c6.26-.13,8.77,3.67,8.86,3.82a1.51,1.51,0,0,0,2.08.49,1.59,1.59,0,0,0,.47-.46c0-.07,4.1-6.28,9.46-4.46A7.69,7.69,0,0,1,123.21,41a1.5,1.5,0,0,0,1.41,1.59,1.55,1.55,0,0,0,.89-.22c.38-.24,9.54-5.81,15,.74a5.76,5.76,0,0,1,1.43,5.15,6.19,6.19,0,0,1-3,4c-2,.89-4.44-.41-4.45-.43A1.51,1.51,0,0,0,133,54.49a10.23,10.23,0,0,0,3.7,1.07,6.87,6.87,0,0,0,3.44-.54A9.2,9.2,0,0,0,144.85,48.94Z" transform="translate(0 0)" style="fill:#b8c4e0"/><path id="Tracé_92" data-name="Tracé 92" d="M79.4,70.13A7,7,0,0,0,79,66.25h0a7.56,7.56,0,0,0,2.58-.43A6.87,6.87,0,0,0,86,60.88a9.58,9.58,0,0,0-1.63-8.38c-2.78-3.28-7.1-2.45-9-1.56a1.51,1.51,0,0,0,1.27,2.74h0s3.41-1.57,5.41.78a6.54,6.54,0,0,1,1,5.63A3.94,3.94,0,0,1,80.66,63a5.81,5.81,0,0,1-4.59-.55,13.75,13.75,0,0,0-1.75-1.18l-.15-.13A1.51,1.51,0,1,0,72,63.22l0,0s.21.2.48.42h0A12.16,12.16,0,0,0,74.4,65a5,5,0,0,1,2,4.62c-.62,3.3-3.06,3.47-3.35,3.48a1.51,1.51,0,0,0-.09,3h.11C74.9,76.06,78.52,74.82,79.4,70.13Z" transform="translate(0 0)" style="fill:#b8c4e0"/><path id="Tracé_93" data-name="Tracé 93" d="M85.5,76.29a9,9,0,0,0-8,5.51,1.51,1.51,0,0,0,2.81,1.09A6,6,0,0,1,85.6,79.3c3.32-.1,3.66,3.6,3.69,4a1.52,1.52,0,0,0,1.5,1.42h.1a1.52,1.52,0,0,0,1.41-1.6h0C92.15,80.69,90.54,76.13,85.5,76.29Z" transform="translate(0 0)" style="fill:#b8c4e0"/><path id="Tracé_94" data-name="Tracé 94" d="M152.06,64.15c-2.42-2-6.07-1.44-6.23-1.41a1.37,1.37,0,0,0,.47,2.7s2.56-.4,4,.8a3.43,3.43,0,0,1,1,2.77,4.2,4.2,0,0,1-1.12,3.18,4.72,4.72,0,0,1-3.17,1,1.37,1.37,0,0,0-1.48,1.26,1.29,1.29,0,0,0,0,.44,4.82,4.82,0,0,1-.35,3.36,2.08,2.08,0,0,1-1.64.77,2.91,2.91,0,0,1-2.36-.62,3.54,3.54,0,0,1-.79-2.48,1.38,1.38,0,1,0-2.74-.25v0h0a6.26,6.26,0,0,0,1.56,4.62,5.25,5.25,0,0,0,3.87,1.45l.67,0a4.73,4.73,0,0,0,3.65-1.9,6.36,6.36,0,0,0,1-4,6.29,6.29,0,0,0,5.6-6.83A6,6,0,0,0,152.06,64.15Z" transform="translate(0 0)" style="fill:#b8c4e0"/></g></g></g></g></g></g></g></g></g><g id="Groupe_10795" data-name="Groupe 10795"><g id="Groupe_10736" data-name="Groupe 10736"><g id="Groupe_10734" data-name="Groupe 10734"><g id="Groupe_29" data-name="Groupe 29"><path id="Tracé_97" data-name="Tracé 97" d="M88,61.5a8.44,8.44,0,1,0,8.44-8.44A8.44,8.44,0,0,0,88,61.5Z" transform="translate(0 0)" style="fill:none;stroke:#8595ba;stroke-width:4px"/><path id="Tracé_98" data-name="Tracé 98" d="M89.26,59.28A3.32,3.32,0,1,0,92.58,56h0a3.32,3.32,0,0,0-3.32,3.32Z" transform="translate(0 0)" style="fill:#8595ba;stroke:#8595ba;stroke-width:4px"/></g></g><g id="Groupe_10742" data-name="Groupe 10742"><g id="Groupe_29-2" data-name="Groupe 29-2"><path id="Tracé_97-2" data-name="Tracé 97-2" d="M118.43,61.5a8.44,8.44,0,1,0,8.44-8.44,8.44,8.44,0,0,0-8.44,8.44Z" transform="translate(0 0)" style="fill:none;stroke:#8595ba;stroke-width:4px"/><path id="Tracé_98-2" data-name="Tracé 98-2" d="M120.24,59.28A3.32,3.32,0,1,0,123.56,56h0A3.31,3.31,0,0,0,120.24,59.28Z" transform="translate(0 0)" style="fill:#8595ba;stroke:#8595ba;stroke-width:4px"/></g></g></g><path id="Tracé_22520" data-name="Tracé 22520" d="M119.36,81.6a12.14,12.14,0,0,0-6.13-.85,18,18,0,0,0-6.39,2.82" transform="translate(0 0)" style="fill:none;stroke:#8595ba;stroke-linecap:round;stroke-linejoin:bevel;stroke-width:7px"/><g id="Groupe_10806" data-name="Groupe 10806"><path id="Tracé_22521" data-name="Tracé 22521" d="M84.13,49.07A5.54,5.54,0,0,1,88,45.3c3.24-1,9.06-.17,9.06-.17" transform="translate(0 0)" style="fill:none;stroke:#8595ba;stroke-linecap:round;stroke-linejoin:bevel;stroke-width:4px"/><path id="Tracé_22522" data-name="Tracé 22522" d="M119.87,50a5.77,5.77,0,0,1,3.3-4.65C126.45,43.6,133,43,133,43" transform="translate(0 0)" style="fill:none;stroke:#8595ba;stroke-linecap:round;stroke-linejoin:bevel;stroke-width:4px"/></g></g><g id="Ellipse_425" data-name="Ellipse 425"><ellipse id="Ellipse_581" data-name="Ellipse 581" cx="96.91" cy="61.48" rx="14" ry="13.79" style="fill:none"/><ellipse id="Ellipse_582" data-name="Ellipse 582" cx="96.91" cy="61.48" rx="13.07" ry="12.86" style="fill:none;stroke:#8595ba;stroke-width:3px"/></g><path id="Tracé_22541" data-name="Tracé 22541" d="M87.7,69.62S83.39,94,72.81,95.93C64.13,97.49,53.27,85.67,49.58,81.3c-.67-.8-.33-3.85-.33-3.85" transform="translate(0 0)" style="fill:none;stroke:#8595ba;stroke-width:3px"/><g id="Groupe_21" data-name="Groupe 21"><circle id="Ellipse_1" data-name="Ellipse 1" cx="59.42" cy="24.6" r="22.63" style="fill:#fff;opacity:0.6000000238418579;isolation:isolate"/><path id="Tracé_54" data-name="Tracé 54" d="M43.18,8.83A22.48,22.48,0,0,1,46.24,6.2L81,31.4a22.49,22.49,0,0,1-5.35,9c-.19.2-.39.38-.59.57L39.39,14.06a22.19,22.19,0,0,1,3.79-5.23Z" transform="translate(0 0)" style="fill:#fff;opacity:0.6000000238418579;isolation:isolate"/><path id="Tracé_55" data-name="Tracé 55" d="M38,17.34,71.42,43.78a22.5,22.5,0,0,1-2.74,1.46L37.11,20.81A20.73,20.73,0,0,1,38,17.34Z" transform="translate(0 0)" style="fill:#fff;opacity:0.6000000238418579;isolation:isolate"/><path id="Tracé_56" data-name="Tracé 56" d="M42.28,42.24a24.6,24.6,0,1,0-.49-34.79l0,0A24.61,24.61,0,0,0,42.28,42.24ZM73.81,9.77a20.66,20.66,0,1,1-29.22.42,20.65,20.65,0,0,1,29.22-.42Z" transform="translate(0 0)" style="fill:#8595ba"/><path id="Tracé_57" data-name="Tracé 57" d="M42.24,39.46,2.57,78.06A3.53,3.53,0,0,0,7.42,83.2l.08-.08L7.64,83,45.06,42.2a2,2,0,1,0-2.82-2.74Z" transform="translate(0 0)" style="fill:#8595ba"/></g></g></g></g></svg>