<svg xmlns="http://www.w3.org/2000/svg" xmlns:xlink="http://www.w3.org/1999/xlink" width="267.893" height="254.597" viewBox="0 0 267.893 254.597">
  <defs>
    <radialGradient id="radial-gradient" cx="0.5" cy="0.5" r="0.5" gradientUnits="objectBoundingBox">
      <stop offset="0" stop-color="#1da2f7"/>
      <stop offset="1" stop-color="#1d62f1"/>
    </radialGradient>
  </defs>
  <g id="Groupe_10155" data-name="Groupe 10155" transform="translate(-54 -129)">
    <g id="Groupe_10154" data-name="Groupe 10154" transform="translate(-10 7)">
      <g id="atom" transform="translate(64 109.295)" opacity="0.18">
        <path id="Tracé_21320" data-name="Tracé 21320" d="M210.812,259.566a29.235,29.235,0,1,1,29.235-29.235A29.268,29.268,0,0,1,210.812,259.566Z" transform="translate(-86.571 -89.82)" fill="#006dd3"/>
        <path id="Tracé_21321" data-name="Tracé 21321" d="M210.672,104.151l-.179-.093c0-.067.007-.135.009-.2.973-27.592-7.6-48.049-24.14-57.6s-38.54-6.746-61.95,7.892l-.17.109-.17-.109c-23.41-14.639-45.412-17.443-61.95-7.892s-25.113,30-24.14,57.6c0,.067.007.135.009.2l-.179.093C13.428,117.1,0,134.757,0,153.855s13.428,36.75,37.811,49.7l.179.093c0,.067-.007.135-.009.2-.973,27.592,7.6,48.049,24.14,57.6a42.579,42.579,0,0,0,21.585,5.567c12.316,0,26.079-4.526,40.365-13.46l.17-.109.17.109c14.288,8.935,28.048,13.46,40.365,13.46a42.587,42.587,0,0,0,21.585-5.567c16.539-9.548,25.113-30,24.14-57.6,0-.067-.007-.135-.009-.2l.179-.093c24.382-12.954,37.811-30.606,37.811-49.7S235.054,117.1,210.672,104.151Zm-37.188,78.134a212.624,212.624,0,0,1-17.745,26.125,212.628,212.628,0,0,1-31.5,2.3,212.708,212.708,0,0,1-31.5-2.3,216.32,216.32,0,0,1-31.5-54.555A216.337,216.337,0,0,1,92.744,99.3a216.368,216.368,0,0,1,62.995,0,212.5,212.5,0,0,1,17.745,26.125,212.591,212.591,0,0,1,13.752,28.431A212.622,212.622,0,0,1,173.484,182.285Zm19.484-11.56a148.852,148.852,0,0,1,5.051,25.726,148.907,148.907,0,0,1-24.8,8.489q5.584-7.991,10.614-16.682C187.168,182.473,190.216,176.612,192.968,170.725Zm-68.728,68.322a148.865,148.865,0,0,1-19.754-17.238c6.475.56,13.074.851,19.754.851s13.28-.29,19.754-.851A148.8,148.8,0,0,1,124.241,239.047ZM75.268,204.94a148.891,148.891,0,0,1-24.8-8.489,148.912,148.912,0,0,1,5.051-25.726c2.752,5.887,5.8,11.748,9.14,17.532S71.545,199.612,75.268,204.94ZM55.514,136.985a148.853,148.853,0,0,1-5.051-25.726,148.9,148.9,0,0,1,24.805-8.489q-5.585,7.991-10.614,16.682C61.314,125.237,58.266,131.1,55.514,136.985Zm68.726-68.322A148.823,148.823,0,0,1,143.994,85.9c-6.475-.56-13.074-.851-19.753-.851s-13.28.29-19.753.851A148.9,148.9,0,0,1,124.241,68.663Zm59.587,50.789q-5.01-8.677-10.614-16.682a148.9,148.9,0,0,1,24.805,8.489,148.911,148.911,0,0,1-5.051,25.726C190.216,131.1,187.168,125.237,183.828,119.452ZM164.716,52.638A30.905,30.905,0,0,1,180.39,56.6c11.617,6.707,18.007,21.5,18.232,41.919a175.882,175.882,0,0,0-36.5-10.281,175.907,175.907,0,0,0-27.151-26.469C145.733,55.716,155.838,52.638,164.716,52.638ZM68.093,56.6a30.9,30.9,0,0,1,15.674-3.965c8.876,0,18.983,3.079,29.744,9.135A175.883,175.883,0,0,0,86.36,88.241a175.811,175.811,0,0,0-36.5,10.281C50.086,78.1,56.476,63.31,68.093,56.6ZM11.945,153.855c0-13.415,9.613-26.343,27.186-36.748a175.906,175.906,0,0,0,9.346,36.748A175.857,175.857,0,0,0,39.131,190.6C21.558,180.2,11.945,167.27,11.945,153.855Zm56.148,97.252c-11.617-6.707-18.007-21.5-18.232-41.919a175.841,175.841,0,0,0,36.5,10.28,175.935,175.935,0,0,0,27.152,26.469C95.714,255.953,79.71,257.814,68.093,251.106Zm112.3,0c-11.618,6.708-27.621,4.846-45.418-5.171a175.862,175.862,0,0,0,27.152-26.469,175.856,175.856,0,0,0,36.5-10.28C198.4,229.61,192.006,244.4,180.39,251.106Zm28.962-60.5a175.886,175.886,0,0,0-9.346-36.748,175.86,175.86,0,0,0,9.346-36.748c17.574,10.405,27.186,23.334,27.186,36.748S226.924,180.2,209.351,190.6Z" transform="translate(0 -13.343)" fill="#006dd3"/>
        <path id="Tracé_21322" data-name="Tracé 21322" d="M266.686,230.332A29.269,29.269,0,0,0,237.451,201.1h0v58.469h0A29.267,29.267,0,0,0,266.686,230.332Z" transform="translate(-113.21 -89.82)" fill="#006dd3"/>
        <path id="Tracé_21323" data-name="Tracé 21323" d="M323.882,104.151l-.18-.093c0-.067.007-.135.01-.2.973-27.592-7.6-48.049-24.14-57.6s-38.54-6.746-61.95,7.892l-.17.109h0v14.4h0A148.831,148.831,0,0,1,257.205,85.9c-6.475-.56-13.074-.851-19.753-.851h0V96.994h0a212.7,212.7,0,0,1,31.5,2.3,216.325,216.325,0,0,1,31.5,54.556,216.309,216.309,0,0,1-31.5,54.555,212.706,212.706,0,0,1-31.5,2.3h0V222.66h0c6.68,0,13.28-.29,19.754-.851a148.867,148.867,0,0,1-19.754,17.238h0v14.4h0l.17.109c14.288,8.935,28.048,13.46,40.365,13.46a42.587,42.587,0,0,0,21.585-5.567c16.539-9.548,25.113-30,24.14-57.6,0-.067-.007-.135-.009-.2l.179-.093c24.382-12.954,37.811-30.606,37.811-49.7S348.264,117.1,323.882,104.151Zm-26.844,15.3q-5.009-8.677-10.614-16.682a148.908,148.908,0,0,1,24.805,8.489,148.893,148.893,0,0,1-5.051,25.726C303.426,131.1,300.378,125.237,297.038,119.452Zm0,68.8c3.34-5.785,6.388-11.645,9.14-17.532a148.86,148.86,0,0,1,5.051,25.726,148.89,148.89,0,0,1-24.8,8.489Q292.009,196.95,297.038,188.257Zm-3.438,62.85c-11.618,6.708-27.621,4.846-45.418-5.171a175.868,175.868,0,0,0,27.152-26.469,175.851,175.851,0,0,0,36.5-10.28C311.607,229.61,305.216,244.4,293.6,251.107ZM275.333,88.242a175.9,175.9,0,0,0-27.151-26.469c10.762-6.057,20.868-9.134,29.745-9.134A30.9,30.9,0,0,1,293.6,56.6c11.617,6.707,18.007,21.5,18.232,41.919A175.789,175.789,0,0,0,275.333,88.242ZM322.561,190.6a175.89,175.89,0,0,0-9.346-36.748,175.867,175.867,0,0,0,9.346-36.748c17.574,10.405,27.186,23.334,27.186,36.748S340.134,180.2,322.561,190.6Z" transform="translate(-113.21 -13.343)" fill="#006dd3"/>
        <circle id="Ellipse_421" data-name="Ellipse 421" cx="25.382" cy="25.382" r="25.382" transform="translate(217.129 115.127)" fill="#006dd3"/>
        <circle id="Ellipse_422" data-name="Ellipse 422" cx="25.382" cy="25.382" r="25.382" transform="translate(40.315 216.539)" fill="#006dd3"/>
        <circle id="Ellipse_423" data-name="Ellipse 423" cx="25.382" cy="25.382" r="25.382" transform="translate(39.729 12.705)" fill="#006dd3"/>
      </g>
      <g id="Groupe_10153" data-name="Groupe 10153" transform="translate(0 -2)">
        <g id="Groupe_10" data-name="Groupe 10" transform="translate(-29.268 30.732)">
          <g id="Groupe_3" data-name="Groupe 3" transform="translate(177.256 253.357)">
            <path id="Tracé_29" data-name="Tracé 29" d="M199.081,278.609s3.422,53.146,1.712,54.723-11.108.166-12.818,3.092,14.356,2.762,16.41.961,0-58.775,0-58.775Z" transform="translate(-187.847 -277.35)" fill="#81c7ed"/>
            <path id="Tracé_30" data-name="Tracé 30" d="M261.485,277.028s-3.421,53.145-1.711,54.722,11.108.166,12.818,3.093-14.357,2.762-16.41.96,0-58.775,0-58.775Z" transform="translate(-201.597 -277.028)" fill="#81c7ed"/>
          </g>
          <g id="Groupe_5" data-name="Groupe 5" transform="translate(135.914 160.956)">
            <path id="Tracé_31" data-name="Tracé 31" d="M253.745,264.575c1.642.692,7.187,2.656,11.675-.216,5.331-3.413,5.331-7.464,5.331-7.464a15.533,15.533,0,0,0,15.566-3.624c7.463-6.823,4.05-20.429,4.05-20.429s7-3.636,6.185-11.131c-1.312-12.105-13.646-12.794-13.646-12.794s3.838-9.169-2.986-15.566-15.78-4.9-15.78-4.9,1.706-4.9-2.559-7.89-7.665-1.2-7.665-1.2.732-9.7-8.092-13c-8.406-3.144-15.589,1.835-15.589,1.835s-5.331-5.758-13.007-4.692a23.852,23.852,0,0,0-11.943,4.9,13.572,13.572,0,0,0-13.22-2.985,12.28,12.28,0,0,0-8.955,9.81s-13.69-3.816-21.154,5.566-3.838,17.225-3.838,17.225-12.326-1.68-16.164,10.047a20.713,20.713,0,0,0,3.2,19.618s-10.022,10.022-5.757,20.9,14.485,8.578,14.485,8.578.868,9.333,10.89,9.973,14.286-2.985,14.286-2.985,8.742,7.249,17.272,6.4,11.729-4.264,11.729-4.264,8.1,4.616,15.993,4.333S238.339,265,238.339,265a8.434,8.434,0,0,0,7.889,3.839C251.545,268.29,253.436,264.444,253.745,264.575Z" transform="translate(-136.408 -161.448)" fill="#ef7668"/>
            <g id="Groupe_4" data-name="Groupe 4">
              <path id="Tracé_32" data-name="Tracé 32" d="M297.965,221.013c-1-9.263-8.028-13.082-13.067-14.17.821-3.479,1.4-10.169-4.161-15.383a21.564,21.564,0,0,0-14.729-5.575H265.9a8.581,8.581,0,0,0-3.715-7.392,10.74,10.74,0,0,0-5.874-2.207,12.538,12.538,0,0,0-1.3-3.52,15.37,15.37,0,0,0-9.012-8.7,18.3,18.3,0,0,0-6.43-1.162,20.133,20.133,0,0,0-6.3,1.046c-.018,0-.037.006-.056.011-.04.012-.22.068-.484.166-.062.022-.119.046-.18.068l-.122.049a21.528,21.528,0,0,0-2.43,1.081,18.061,18.061,0,0,0-11.365-4.369,15.8,15.8,0,0,0-2.164.15,27.291,27.291,0,0,0-11.615,4.352,15.548,15.548,0,0,0-9.2-3.047,16.594,16.594,0,0,0-4.613.671,14.085,14.085,0,0,0-9.863,9.431c-4.2-.615-14.32-1.082-20.746,7-4.292,5.4-5.342,9.976-5.356,13.146,0,.014,0,.027,0,.041a11.552,11.552,0,0,0,.131,1.993c-4.184.482-12.415,2.669-15.562,12.285a22.759,22.759,0,0,0,2.461,19.981c-.22.235-.353.4-.38.43a1.91,1.91,0,0,0-.353.708c-2.913,3.8-7.7,11.889-4.251,20.693,3.1,7.9,9.232,9.08,12.613,9.08a16.02,16.02,0,0,0,2.3-.167c.983,4.4,4.284,10.352,12.126,10.853.828.052,1.65.079,2.446.079,6.159,0,10.007-1.591,11.869-2.636,2.562,1.863,9.078,6.042,15.945,6.042.543,0,1.086-.026,1.611-.079a25.979,25.979,0,0,0,10.58-3.121,6.575,6.575,0,0,0,1.289-.715c2.586,1.278,8.7,3.928,14.96,3.928.257,0,.514,0,.771-.014a27.56,27.56,0,0,0,13.84-4.875,6.386,6.386,0,0,0,.689.636,1.942,1.942,0,0,0,.263.174,9.881,9.881,0,0,0,6.408,2.339h0a10.827,10.827,0,0,0,1.1-.058,12,12,0,0,0,7.814-3.931,17.943,17.943,0,0,0,5.659.98,11.948,11.948,0,0,0,6.555-1.819,13.409,13.409,0,0,0,5.727-6.721,17.488,17.488,0,0,0,3.27.309,17.776,17.776,0,0,0,12.161-4.876c6.822-6.237,5.6-17.088,4.905-20.933C294.281,231.672,298.686,227.667,297.965,221.013Zm-8.577,9.4c-1.022-.31-2.277-.664-3.8-1.046a7.562,7.562,0,0,0-7.622,1.994,6.465,6.465,0,0,0-1.23,6.654,5.465,5.465,0,0,0,5.543,3.613,9.132,9.132,0,0,0,2.873-.468,1.736,1.736,0,1,0-1.127-3.284c-.132.045-3.246,1.086-4.028-1.053a3.047,3.047,0,0,1,.551-3.138,4.114,4.114,0,0,1,4.2-.947c1.376.344,2.514.662,3.447.943.549,2.934,1.855,12.639-3.664,17.685a13.876,13.876,0,0,1-9.57,3.87,12.779,12.779,0,0,1-3.825-.558l-3.452-6.65a1.919,1.919,0,1,0-3.406,1.769l3.882,7.476a9.449,9.449,0,0,1-4.265,4.982,8.191,8.191,0,0,1-4.486,1.213,14.735,14.735,0,0,1-5.4-1.147l-.377-.157h-.391a2.48,2.48,0,0,0-1.915,1.112,8.308,8.308,0,0,1-5.779,3.163,6.979,6.979,0,0,1-.712.038h0a6.435,6.435,0,0,1-5.018-2.51,6.23,6.23,0,0,1-.917-3.624,3.145,3.145,0,0,1,1.438-2.62c2.458-1.415,3.644-.212,3.954.2a1.92,1.92,0,0,0,3.149-2.2c-1.109-1.618-4.419-3.978-9.018-1.333a6.85,6.85,0,0,0-3.351,5.67,9.934,9.934,0,0,0,.494,3.755c-2.018,1.4-6.693,4.192-12.066,4.386-5.139.181-10.463-1.919-13.163-3.176l0-.009c1.1-2.7.833-6.149-.766-9.7-2.447-5.44-8.339-5.261-11.11-4.405a1.919,1.919,0,1,0,1.13,3.668c.2-.061,4.8-1.429,6.48,2.313,1.146,2.543,1.4,4.976.712,6.672a3.756,3.756,0,0,1-.306.6l-.29.294c-.029.029-2.973,2.928-10.536,3.684-.4.04-.814.06-1.23.06-5.77,0-11.566-3.773-13.73-5.346l.48-5.816a1.919,1.919,0,0,0-3.826-.316l-.476,5.768c-1.139.7-4.409,2.3-10.262,2.3-.714,0-1.455-.024-2.2-.072-7.954-.507-8.792-8.616-8.852-9.382a5.239,5.239,0,0,1,2.832-4.2,4.167,4.167,0,0,1,2.547-.694.475.475,0,0,1-.136-.049l1.5-3.532c-.373-.158-2.392-.857-5.7.877a8.95,8.95,0,0,0-4.682,6.085,12.163,12.163,0,0,1-2.188.2c-4.27,0-7.312-2.236-9.039-6.645-3.58-9.127,4.462-17.927,5.259-18.767a9.782,9.782,0,0,1,6.269-2.18,5.923,5.923,0,0,1,5.556,3.672,1.919,1.919,0,0,0,3.635-1.235,9.71,9.71,0,0,0-9.114-6.275,13.217,13.217,0,0,0-7.183,1.945,19.109,19.109,0,0,1-1.825-16.376c2.676-8.179,10.1-9.53,13.084-9.737a9.193,9.193,0,0,0,7.2,5.167,10.242,10.242,0,0,0,1.485.109c5.049,0,8.218-3.89,9.247-6.139a1.919,1.919,0,0,0-3.487-1.606c-.088.184-2.178,4.492-6.693,3.838a5.441,5.441,0,0,1-3.937-2.452l-.79-1.7c-.013-.026-.056-.127-.111-.286a9.4,9.4,0,0,1-.379-2.553c0-.057-.009-.111-.012-.168.019-2.4.861-6.116,4.54-10.743,5.7-7.165,15.343-5.952,18-5.455l2.705,6.083a1.919,1.919,0,1,0,3.508-1.56l-2.92-6.565c-.02-.044-.048-.08-.07-.122a10.367,10.367,0,0,1,7.449-7.512,12.765,12.765,0,0,1,3.546-.521,11.676,11.676,0,0,1,7.756,2.992l.427.444c.72,1.073,1.741,3.133.735,5.2a4.3,4.3,0,0,1-4.04,2.713,1.919,1.919,0,0,0-.358,3.822c.034,0,.186.017.432.017a8.158,8.158,0,0,0,7.416-4.869,8.69,8.69,0,0,0-.534-8.248A23.669,23.669,0,0,1,217,164.908a11.991,11.991,0,0,1,1.634-.114,14.124,14.124,0,0,1,8.472,3.134,9.057,9.057,0,0,0-2.027,4,7.83,7.83,0,0,0,5.409,9.454,1.963,1.963,0,0,0,.466.057,1.919,1.919,0,0,0,.464-3.781,3.983,3.983,0,0,1-2.588-4.917c.73-3.373,4.849-4.883,5.427-5.079l.016-.006.053-.018.009,0a16.4,16.4,0,0,1,5.238-.889,14.473,14.473,0,0,1,5.085.92,11.692,11.692,0,0,1,6.8,6.549c.017.048.036.094.057.14a13.822,13.822,0,0,1,1.043,4.288l-.033,3.235c-.632,2.737-2.055,2.746-2.7,2.746a4.132,4.132,0,0,1-2.18-.715,1.919,1.919,0,1,0-2.356,3.029,7.893,7.893,0,0,0,4.536,1.524c1.749,0,5.9-.7,6.7-7.2.046-.378.075-.744.092-1.1a7.667,7.667,0,0,1,3.367,1.485,5.03,5.03,0,0,1,1.847,5.688l-1.048,3.032,3.171-.509a14.351,14.351,0,0,1,2.054-.127,17.736,17.736,0,0,1,12.1,4.537c5.05,4.736,3.274,11.277,2.684,13-.188.4-2.865,5.893-6.623,6.068a2.617,2.617,0,0,1-1.97-.443,1.765,1.765,0,0,1-.2-1.271,1.919,1.919,0,0,0-3.732-.9,5.592,5.592,0,0,0,.97,4.605,5.662,5.662,0,0,0,4.616,1.851q.244,0,.5-.011c4.53-.211,7.628-4.3,9.061-6.685,2.777.464,9.819,2.472,10.738,10.948C294.713,226.625,290.692,229.591,289.388,230.411Z" transform="translate(-135.914 -160.956)" fill="#ef564b"/>
              <path id="Tracé_33" data-name="Tracé 33" d="M269.892,215.5a11.066,11.066,0,0,0-2.6-9.87c-6.191-7.451-15.573-5.806-21.393-3.168a13.449,13.449,0,0,0-9.1-10.218c-7.04-2.4-12.46,2.341-14.976,5.235a17.544,17.544,0,0,0-12.911-4.666c-4.519.093-8.8,3.482-10.4,8.243a10.116,10.116,0,0,0,3.278,11.585,11.745,11.745,0,0,0,15.587-.407,1.919,1.919,0,0,0-2.625-2.8,7.9,7.9,0,0,1-10.575.2,6.412,6.412,0,0,1-2.029-7.353c1.081-3.2,3.959-5.572,6.844-5.631,7.969-.163,11.158,4.675,11.279,4.869a1.921,1.921,0,0,0,3.25.029c.051-.08,5.224-8,12.042-5.671a9.764,9.764,0,0,1,6.778,9.516,1.921,1.921,0,0,0,2.93,1.743c.492-.306,12.147-7.39,19.072.947a7.339,7.339,0,0,1,1.817,6.551,7.891,7.891,0,0,1-3.843,5.1c-2.51,1.126-5.651-.535-5.674-.548a1.92,1.92,0,0,0-1.848,3.365,12.957,12.957,0,0,0,4.713,1.369,8.819,8.819,0,0,0,4.382-.685A11.72,11.72,0,0,0,269.892,215.5Z" transform="translate(-148.55 -167.203)" fill="#ef564b"/>
              <path id="Tracé_34" data-name="Tracé 34" d="M182.487,243.506a8.8,8.8,0,0,0-.453-4.927h.017a10.006,10.006,0,0,0,3.28-.552,8.8,8.8,0,0,0,5.584-6.289,12.156,12.156,0,0,0-2.081-10.669c-3.535-4.178-9.037-3.127-11.452-1.989a1.919,1.919,0,1,0,1.638,3.472c.043-.02,4.349-2,6.885,1a8.289,8.289,0,0,1,1.31,7.173,5.09,5.09,0,0,1-3.136,3.677,7.4,7.4,0,0,1-5.834-.7A15.622,15.622,0,0,0,176,232.2c-.121-.1-.188-.167-.193-.171a1.919,1.919,0,0,0-2.684,2.744,15.169,15.169,0,0,0,3,2.156c1.458,1.242,3.074,3.257,2.586,5.876-.783,4.2-3.894,4.42-4.264,4.43a1.919,1.919,0,0,0,.021,3.838C176.754,251.07,181.369,249.49,182.487,243.506Z" transform="translate(-143.385 -172.603)" fill="#ef564b"/>
              <path id="Tracé_35" data-name="Tracé 35" d="M192.164,259.878a11.456,11.456,0,0,0-10.125,7.025,1.919,1.919,0,0,0,3.581,1.381,7.629,7.629,0,0,1,6.668-4.569c4.217-.129,4.663,4.587,4.7,5.117a1.918,1.918,0,0,0,1.912,1.8c.041,0,.08,0,.122,0a1.918,1.918,0,0,0,1.8-2.033C200.625,265.488,198.581,259.672,192.164,259.878Z" transform="translate(-145.294 -181.128)" fill="#ef564b"/>
              <path id="Tracé_36" data-name="Tracé 36" d="M296.566,239.971c-3.081-2.6-7.737-1.827-7.935-1.793a1.749,1.749,0,0,0,.595,3.446c.032,0,3.267-.512,5.089,1.022a4.317,4.317,0,0,1,1.314,3.52,5.294,5.294,0,0,1-1.42,4.053,5.984,5.984,0,0,1-4.032,1.275,1.748,1.748,0,0,0-1.854,2.157c.173.712.466,3.023-.444,4.284a2.657,2.657,0,0,1-2.087.979,3.72,3.72,0,0,1-3.01-.787,4.524,4.524,0,0,1-1-3.154,1.749,1.749,0,0,0-3.487-.277,7.969,7.969,0,0,0,2,5.889,6.654,6.654,0,0,0,4.919,1.851c.276,0,.561-.012.854-.034a6.046,6.046,0,0,0,4.647-2.417A8.124,8.124,0,0,0,292,254.876a8.031,8.031,0,0,0,7.13-8.709A7.68,7.68,0,0,0,296.566,239.971Z" transform="translate(-164.946 -176.677)" fill="#ef564b"/>
            </g>
          </g>
          <g id="Groupe_8" data-name="Groupe 8" transform="translate(186.912 219.138)">
            <g id="Groupe_6" data-name="Groupe 6" transform="translate(0 0)">
              <path id="Tracé_37" data-name="Tracé 37" d="M211.089,239.6a5.556,5.556,0,1,1-5.556-5.556A5.555,5.555,0,0,1,211.089,239.6Z" transform="translate(-199.977 -234.043)" fill="#81c7ed"/>
              <path id="Tracé_38" data-name="Tracé 38" d="M204.76,238.342a1.771,1.771,0,1,1-1.771-1.772A1.772,1.772,0,0,1,204.76,238.342Z" transform="translate(-200.23 -234.558)" fill="#fff"/>
            </g>
            <g id="Groupe_7" data-name="Groupe 7" transform="translate(56.776 0)">
              <path id="Tracé_39" data-name="Tracé 39" d="M282.41,239.6a5.556,5.556,0,1,1-5.556-5.556A5.556,5.556,0,0,1,282.41,239.6Z" transform="translate(-271.298 -234.043)" fill="#81c7ed"/>
              <path id="Tracé_40" data-name="Tracé 40" d="M276.081,238.342a1.772,1.772,0,1,1-1.771-1.772A1.772,1.772,0,0,1,276.081,238.342Z" transform="translate(-271.551 -234.558)" fill="#fff"/>
            </g>
            <path id="Tracé_41" data-name="Tracé 41" d="M230.356,257.921s2.171,7.814,9.29,7.9,9.636-7.9,9.636-7.9Z" transform="translate(-206.172 -238.912)" fill="#fff"/>
          </g>
          <path id="Tracé_42" data-name="Tracé 42" d="M274.537,221.715H236.5a1.507,1.507,0,0,0-.816.242,10.221,10.221,0,0,0-12.127.034,1.5,1.5,0,0,0-.866-.276h-38.01a1.509,1.509,0,1,0,0,3.019h2.077v16.456c0,3.42,2.508,6.2,5.592,6.2h25.914c3.082,0,5.591-2.782,5.591-6.2V226.26a1.515,1.515,0,0,0,.179-.271A6.2,6.2,0,0,1,229.652,223a6.113,6.113,0,0,1,5.713,3.207v14.982c0,3.42,2.507,6.2,5.59,6.2h25.914c3.083,0,5.592-2.782,5.592-6.2V224.734h2.077a1.509,1.509,0,0,0,0-3.019Zm-56.269,22.658H192.355c-1.419,0-2.573-1.428-2.573-3.183V224.734H220.84v16.456C220.84,242.944,219.686,244.373,218.268,244.373Zm51.173-3.183c0,1.755-1.154,3.183-2.573,3.183H240.955c-1.418,0-2.572-1.428-2.572-3.183V224.734h31.059Z" transform="translate(-9.638 -12.037)" fill="#81c7ed"/>
          <path id="Tracé_45" data-name="Tracé 45" d="M297.774,269.114a7.929,7.929,0,0,0-.729.777,148.79,148.79,0,0,1,5.053,16.643c1.38,5.944-21.745,2.106-28.686.664-1.315-.273-2.675-5.007-4.054-4.628s.217,2.476.217,2.476-2.431-1.854-3.39-1.534-5.118,3.1-1.792,5.478,38,5.779,40.6,2.083c2-2.839-1.529-16.22-3.276-22.283C300.4,268.6,298.67,268.277,297.774,269.114Z" transform="matrix(0.819, -0.574, 0.574, 0.819, -135.483, 191.909)" fill="#81c7ed"/>
          <path id="Tracé_46" data-name="Tracé 46" d="M182.362,269.9a8.031,8.031,0,0,1,.73.777,148.41,148.41,0,0,0-5.054,16.643c-1.38,5.944,21.745,2.106,28.687.663,1.314-.272,2.674-5.007,4.054-4.628s-.217,2.476-.217,2.476,2.431-1.854,3.389-1.534,5.12,3.1,1.793,5.477-38,5.78-40.6,2.084c-2-2.838,1.528-16.22,3.276-22.283C179.739,269.378,181.467,269.06,182.362,269.9Z" transform="matrix(0.899, 0.438, -0.438, 0.899, 134.302, -76.446)" fill="#81c7ed"/>
        </g>
        <g id="flask" transform="translate(85.956 268.259)">
          <g id="Groupe_10084" data-name="Groupe 10084" transform="translate(65.044 3.068)">
            <path id="Tracé_22434" data-name="Tracé 22434" d="M100.9,70.889,87.956,51.256V32h-9.2V51.256L65.811,70.889a4.6,4.6,0,0,0,3.843,7.135h27.4A4.6,4.6,0,0,0,100.9,70.889Z" transform="translate(-65.044 -32)" fill="#aeefff"/>
          </g>
          <g id="Groupe_10085" data-name="Groupe 10085" transform="translate(65.044 3.068)">
            <path id="Tracé_22435" data-name="Tracé 22435" d="M83.333,32H78.751V51.256L65.811,70.889a4.6,4.6,0,0,0,3.843,7.135H83.333V32Z" transform="translate(-65.044 -32)" fill="#4cd7ff"/>
          </g>
          <g id="Groupe_10086" data-name="Groupe 10086" transform="translate(67.347 34.518)">
            <path id="Tracé_22436" data-name="Tracé 22436" d="M120.686,368.705l-5.51-8.361a.767.767,0,0,0-.641-.345H95.6a.767.767,0,0,0-.64.345l-5.51,8.36a2.3,2.3,0,0,0,1.921,3.568h27.4a2.3,2.3,0,0,0,1.921-3.568Z" transform="translate(-89.058 -360)" fill="url(#radial-gradient)"/>
          </g>
          <g id="Groupe_10087" data-name="Groupe 10087" transform="translate(83.333 34.518)">
            <path id="Tracé_22437" data-name="Tracé 22437" d="M265.912,360.345a.767.767,0,0,0-.64-.345h-9.491v12.273H269.5a2.3,2.3,0,0,0,1.921-3.568Z" transform="translate(-255.781 -360)" fill="url(#radial-gradient)"/>
          </g>
          <g id="Groupe_10088" data-name="Groupe 10088" transform="translate(77.217)">
            <path id="Tracé_22438" data-name="Tracé 22438" d="M202.739,3.068h-9.2A1.534,1.534,0,0,1,192,1.534h0A1.534,1.534,0,0,1,193.534,0h9.2a1.534,1.534,0,0,1,1.534,1.534h0A1.534,1.534,0,0,1,202.739,3.068Z" transform="translate(-192)" fill="#4bb9ec"/>
          </g>
          <g id="Groupe_10089" data-name="Groupe 10089" transform="translate(76.45 38.353)">
            <circle id="Ellipse_432" data-name="Ellipse 432" cx="1.534" cy="1.534" r="1.534" transform="translate(0)" fill="#81c7ed"/>
          </g>
          <g id="Groupe_10090" data-name="Groupe 10090" transform="translate(88.723 39.888)">
            <circle id="Ellipse_433" data-name="Ellipse 433" cx="1.534" cy="1.534" r="1.534" fill="#81c7ed"/>
          </g>
          <g id="Groupe_10092" data-name="Groupe 10092" transform="translate(84.89 38.363)">
            <g id="Groupe_10091" data-name="Groupe 10091">
              <path id="Tracé_22439" data-name="Tracé 22439" d="M272.789,401.624a.8.8,0,0,1-.545-.223.78.78,0,0,1,0-1.089.793.793,0,0,1,1.082,0,.767.767,0,0,1-.536,1.312Z" transform="translate(-272.022 -400.099)" fill="#81c7ed"/>
            </g>
          </g>
          <g id="Groupe_10094" data-name="Groupe 10094" transform="translate(80.264 29.925)">
            <g id="Groupe_10093" data-name="Groupe 10093">
              <path id="Tracé_22440" data-name="Tracé 22440" d="M224.547,313.624A.8.8,0,0,1,224,313.4a.78.78,0,0,1,0-1.089.793.793,0,0,1,1.082,0,.779.779,0,0,1,.231.545.76.76,0,0,1-.767.767Z" transform="translate(-223.78 -312.099)" fill="#aeefff"/>
            </g>
          </g>
          <g id="Groupe_10096" data-name="Groupe 10096" transform="translate(84.867 23.789)">
            <g id="Groupe_10095" data-name="Groupe 10095" transform="translate(0)">
              <path id="Tracé_22441" data-name="Tracé 22441" d="M272.547,249.624A.8.8,0,0,1,272,249.4a.78.78,0,0,1,0-1.089.793.793,0,0,1,1.082,0,.767.767,0,0,1-.536,1.312Z" transform="translate(-271.78 -248.099)" fill="#4cd7ff"/>
            </g>
          </g>
          <g id="Groupe_10098" data-name="Groupe 10098" transform="translate(80.264 18.419)">
            <g id="Groupe_10097" data-name="Groupe 10097">
              <path id="Tracé_22442" data-name="Tracé 22442" d="M224.547,193.624a.756.756,0,0,1-.545-.23.742.742,0,0,1-.222-.537.773.773,0,0,1,.222-.545.793.793,0,0,1,1.082,0,.767.767,0,0,1-.536,1.312Z" transform="translate(-223.78 -192.099)" fill="#aeefff"/>
            </g>
          </g>
          <g id="Groupe_10100" data-name="Groupe 10100" transform="translate(80.264 42.956)">
            <g id="Groupe_10099" data-name="Groupe 10099">
              <path id="Tracé_22443" data-name="Tracé 22443" d="M224.547,449.524A.8.8,0,0,1,224,449.3a.78.78,0,0,1,0-1.089.793.793,0,0,1,1.082,0,.767.767,0,0,1-.536,1.312Z" transform="translate(-223.78 -447.999)" fill="#81c7ed"/>
            </g>
          </g>
          <g id="Groupe_10102" data-name="Groupe 10102" transform="translate(72.617 42.198)">
            <g id="Groupe_10101" data-name="Groupe 10101">
              <path id="Tracé_22444" data-name="Tracé 22444" d="M144.789,441.624a.781.781,0,0,1-.545-.223.78.78,0,0,1,0-1.089.794.794,0,0,1,1.082,0,.767.767,0,0,1-.536,1.312Z" transform="translate(-144.022 -440.099)" fill="#81c7ed"/>
            </g>
          </g>
        </g>
      </g>
    </g>
  </g>
</svg>
