<svg id="Calque_1" data-name="Calque 1" xmlns="http://www.w3.org/2000/svg" xmlns:xlink="http://www.w3.org/1999/xlink" viewBox="0 0 305.69 202"><defs><linearGradient id="Dégradé_sans_nom" x1="-5431.48" y1="3345.05" x2="-5431.48" y2="3344.05" gradientTransform="matrix(202, 0, 0, -202, 1097294, 675699.38)" gradientUnits="userSpaceOnUse"><stop offset="0" stop-color="#159beb"/><stop offset="1" stop-color="#3beaff"/></linearGradient></defs><title>emptystate</title><g id="Groupe_10148" data-name="Groupe 10148"><circle id="Ellipse_436" data-name="Ellipse 436" cx="136" cy="101" r="101" style="opacity:0.4860000014305115;isolation:isolate;fill:url(#Dégradé_sans_nom)"/><g id="_676_R0lVIEpFTiAzMTItMDU_Converti_" data-name=" 676 R0lVIEpFTiAzMTItMDU Converti "><g id="Capa_1" data-name="Capa 1"><path id="Tracé_22458" data-name="Tracé 22458" d="M275.83,141.77c-8.95,3.07-18.65,5.39-28,2.73a33.62,33.62,0,0,1-13.63-7.7c-4.05-3.77-6.6-8.89-8.73-14v0c-.95,2-1.94,4-2.9,6.08a41.4,41.4,0,0,0,7.68,11.17,37.54,37.54,0,0,0,15.62,9.23c10.72,3.21,21.68.82,32-2.74C281,145.43,279,140.69,275.83,141.77Z" transform="translate(0 0)" style="fill:#cc1417"/><path id="Tracé_22460" data-name="Tracé 22460" d="M278.32,144.61c6.44,6.12,16.31,2.51,23.33-.69,2.1-1,5.17-3.42,3.6-6.09s-5.74-1.46-8.2-1.41a1,1,0,0,0-1,1.06,1,1,0,0,0,1,1c1.85-.05,3.67-.45,5.52-.14,3.19.53-1.83,3.7-2,3.79a29.52,29.52,0,0,1-4.1,1.6c-5.4,1.88-12,3.9-16.7-.59-1-.92-2.46.54-1.46,1.46Z" transform="translate(0 0)" style="fill:#81c7ed"/><path id="Tracé_22461" data-name="Tracé 22461" d="M301.81,138c2-.65,3.29-1.81,3.52-3.92a2.79,2.79,0,0,0-1.83-3c-2.69-.91-6,.54-8.46,1.56-1.21.51-.68,2.5.55,2a26.45,26.45,0,0,1,5.08-1.65c.65-.12,1.81-.32,2.38.14,1.25,1-1,2.58-1.79,2.85-1.25.42-.72,2.41.55,2Z" transform="translate(0 0)" style="fill:#81c7ed"/><path id="Tracé_22462" data-name="Tracé 22462" d="M300.64,133c2.78-1,4.92-5.18,1.07-6.34-2.82-.86-6.24,1.69-8.64,2.82-1.21.55-.16,2.33,1,1.78,1.48-.69,2.88-1.52,4.4-2.11a7.33,7.33,0,0,1,2.31-.53c1.92-.06.22,2-.72,2.4-1.24.44-.71,2.46.54,2Z" transform="translate(0 0)" style="fill:#81c7ed"/><path id="Tracé_22463" data-name="Tracé 22463" d="M295.6,130.48c2.34-1.26,5.66-2.88,5.4-6a2.7,2.7,0,0,0-2.78-2.63,2.66,2.66,0,0,0-.28,0c-3.92.31-7.39,3.95-10.38,6.15-1.06.78,0,2.57,1,1.79,2-1.46,3.87-3,6-4.36,1-.63,2.61-1.71,3.9-1.53,1,.14.13,2,0,2.2-.93,1.17-2.59,1.88-3.88,2.57S294.42,131.1,295.6,130.48Z" transform="translate(0 0)" style="fill:#81c7ed"/><path id="Tracé_22464" data-name="Tracé 22464" d="M278.53,141c-3.87-6.57,1.8-9.54,5.66-13.83.71-.82,1.4-1.59,2.11-2.36.15-.15,3.78-3,3.39-1a12.87,12.87,0,0,1-2.36,4.5c-.78,1.08,1,2.11,1.78,1,1.38-1.94,3.28-4.78,2.57-7.29s-4.22-1-5.4,0a47.83,47.83,0,0,0-4.23,4.43c-1.49,1.65-3.55,2.67-4.87,4.48-2.62,3.57-2.66,7.32-.44,11.1a1,1,0,1,0,1.81-1l0,0Z" transform="translate(0 0)" style="fill:#cc1417"/><path id="Tracé_22465" data-name="Tracé 22465" d="M275.79,141.12a21.76,21.76,0,0,0,3.34,4.62,10.27,10.27,0,0,1-3,1.58,9.65,9.65,0,0,1-3.28-4.43,7.12,7.12,0,0,1,2.94-1.8m1.16-2.32a9.4,9.4,0,0,0-3.92,1.31,7.38,7.38,0,0,0-2.42,2.36c.48,2.6,3,6.33,5.43,7.06,2.26-.72,4.72-1.88,6-4a18.7,18.7,0,0,1-5.08-6.77Z" transform="translate(0 0)" style="fill:#cc1417"/><path id="Tracé_22466" data-name="Tracé 22466" d="M50.05,121.64c.05-.12.09-.23.14-.33a31.75,31.75,0,0,1-28.78-12.67,45.72,45.72,0,0,1-9.1-28.43,4,4,0,0,1-2.11,0,7,7,0,0,1-3-2,50.67,50.67,0,0,0,10.4,34,38.4,38.4,0,0,0,14.71,11.65,36.11,36.11,0,0,0,17.05,2.8A12.44,12.44,0,0,1,50.05,121.64Z" transform="translate(0 0)" style="fill:#81c7ed"/><path id="Tracé_22470" data-name="Tracé 22470" d="M12.65,55.47c0-.65.42-3.14,1.55-2.25.66.51.7,1.77.75,2.52a52.93,52.93,0,0,1-.24,5.35c-.05,1.33,2,1.32,2.06,0,.12-2.81.9-6.14-.6-8.72a2.8,2.8,0,0,0-3.38-1.18,4.4,4.4,0,0,0-2.21,4.28c.08,1.33,2.15,1.33,2.07,0Z" transform="translate(0 0)" style="fill:#81c7ed"/><g id="Groupe_10147" data-name="Groupe 10147"><path id="Tracé_22469" data-name="Tracé 22469" d="M7.49,56.36c-.1-1.21.17-2.86,1.65-3,.68,0,1,1.26,1.16,1.74a19.57,19.57,0,0,1,.58,5.66,1,1,0,0,0,2.07,0c0-2.62,0-6-1.58-8.2a2.81,2.81,0,0,0-3.42-1,4.39,4.39,0,0,0-2.56,4.76c.1,1.32,2.17,1.33,2.06,0Z" transform="translate(0 0)" style="fill:#81c7ed"/><path id="Tracé_22471" data-name="Tracé 22471" d="M16.89,59.43a20.61,20.61,0,0,1,.68-4C17.7,55,19,53.11,19.73,54s.33,2.7.22,3.73a65.27,65.27,0,0,1-1.76,7.59c-.31,1.29,1.68,1.84,2,.55.91-3.78,2.61-8,1.76-11.89a2.73,2.73,0,0,0-3.21-2.14,1.77,1.77,0,0,0-.31.08c-3.16.68-3.35,4.92-3.59,7.48C14.7,60.76,16.77,60.74,16.89,59.43Z" transform="translate(0 0)" style="fill:#81c7ed"/><g id="Groupe_10146" data-name="Groupe 10146"><path id="Tracé_22468" data-name="Tracé 22468" d="M9.38,78.85C3.85,76.45,2.45,70,2.3,64.48a37.31,37.31,0,0,1,0-7Q2.48,55,5.17,56.38a12.48,12.48,0,0,1,.82,2c.3.82.53,1.73.86,2.56.49,1.23,2.47.69,2-.55-.78-2-1.32-6.21-3.81-6.93C2,52.55.41,55.49.18,58.09c-.65,7.63.08,19,8.2,22.54,1.21.52,2.27-1.26,1-1.78Z" transform="translate(0 0)" style="fill:#81c7ed"/><path id="Tracé_22472" data-name="Tracé 22472" d="M11.32,81.12C21,82.55,22.6,73.24,25.65,66.23c.9-2.06,1.73-5.65-1.1-6.56-2.46-.82-5.2,3.65-6.2,5.26-.7,1.13,1.09,2.18,1.79,1a13.13,13.13,0,0,1,3.61-4.1c1.7-1.13-.5,4.76-.26,4.21-.51,1.18-1.12,2.32-1.64,3.48-.91,2-1.16,4.1-2.15,6-1.54,3-4.65,4-7.81,3.55-1.3-.19-1.86,1.8-.55,2Z" transform="translate(0 0)" style="fill:#81c7ed"/></g></g><path id="Tracé_22473" data-name="Tracé 22473" d="M13.22,86.11a9.69,9.69,0,0,1-5.9-1.85A10.05,10.05,0,0,1,8,79a19.66,19.66,0,0,0,7,1.71,9.44,9.44,0,0,1,.07,3A9,9,0,0,1,14.33,86,8.32,8.32,0,0,1,13.22,86.11Z" transform="translate(0 0)" style="fill:#abdcf3"/><path id="Tracé_22474" data-name="Tracé 22474" d="M7.13,80.38a21.74,21.74,0,0,0,5.56,1.3,9.19,9.19,0,0,1,0,1.89,9.94,9.94,0,0,1-.45,1.5h-.45a9.29,9.29,0,0,1-4.93-1.32,10.67,10.67,0,0,1,.3-3.38m-1-2.74c-1.42,2-1.55,4.7-1.34,7.06,1.3,1.56,4.4,2.46,6.91,2.46a8.09,8.09,0,0,0,1.7-.16,7.37,7.37,0,0,0,1.24-3.15,9.48,9.48,0,0,0-.3-4.1h0a18.61,18.61,0,0,1-8.2-2.06Z" transform="translate(0 0)" style="fill:#81c7ed"/><path id="Tracé_22475" data-name="Tracé 22475" d="M108.11,146.16c9,15.68,6.76,34.58.27,50.74-2,4.92,6,7.08,8,2.2,7.32-18.22,8.91-39.58-1.11-57.11C112.6,137.36,105.46,141.52,108.11,146.16Z" transform="translate(0 0)" style="fill:#81c7ed"/><path id="Tracé_22476" data-name="Tracé 22476" d="M140.24,148.11c9,14.77,8.25,30.62,4.16,46.84-1.3,5.16,6.67,7.39,8,2.19,4.61-18.32,5.15-36.57-5-53.2C144.59,139.41,137.45,143.55,140.24,148.11Z" transform="translate(0 0)" style="fill:#81c7ed"/><path id="Tracé_22477" data-name="Tracé 22477" d="M206.53,145.05c1.15-3.69,2.21-7.38,3.28-11.18a119.87,119.87,0,0,1,4.1-11.64,58.49,58.49,0,0,1,6-18.49A36,36,0,0,1,221,100.2a3.58,3.58,0,0,1,1.84-2c-.44-.46-.9-.9-1.39-1.32a1,1,0,0,1-.15-1.39,19.29,19.29,0,0,0-13.49-30.68,1,1,0,0,1-.82-.57,8.92,8.92,0,0,0-8.07-5,1,1,0,0,1-1-1v-.68a12.39,12.39,0,0,0-19.43-10.2,1,1,0,0,1-.58.18,1,1,0,0,1-.6-.19,8.94,8.94,0,0,0-11.65,1.07,1,1,0,0,1-.74.31,1,1,0,0,1-.59-.18,12.39,12.39,0,0,0-19.41,9.18,1.05,1.05,0,0,1-.57.82,1.14,1.14,0,0,1-1,0,19.29,19.29,0,0,0-29.45,16.41,20.82,20.82,0,0,0,.23,2.95,1,1,0,0,1-.86,1.18h-.39a8.95,8.95,0,0,0-4.17,16.86,1,1,0,0,1,.55.91,1,1,0,0,1-.54.92,12.39,12.39,0,0,0,5.87,23.3h.51a1.06,1.06,0,0,1,1,1.06.76.76,0,0,1,0,.21,19.28,19.28,0,0,0,26.34,22,1,1,0,0,1,1.36.55,12.39,12.39,0,0,0,20.88,3,1,1,0,0,1,.82-.37h.23a12,12,0,0,0,2.87.34,12.46,12.46,0,0,0,10-5,1,1,0,0,1,.82-.42h0a1,1,0,0,1,.82.45,19.24,19.24,0,0,0,24.9,6Z" transform="translate(0 0)" style="fill:#ef7668"/><path id="Tracé_22478" data-name="Tracé 22478" d="M123.26,56.61a18.19,18.19,0,0,1,9.63,2.74,2.06,2.06,0,0,0,2.84-.65,2.1,2.1,0,0,0,.31-.94,11.35,11.35,0,0,1,17.76-8.44,2,2,0,0,0,1.17.36,2.09,2.09,0,0,0,1.49-.63,7.9,7.9,0,0,1,10.3-.95,2.1,2.1,0,0,0,2.38,0A11.37,11.37,0,0,1,187,57.47v.58a2,2,0,0,0,.57,1.53,2.09,2.09,0,0,0,1.51.64,7.88,7.88,0,0,1,7.12,4.45,2.06,2.06,0,0,0,1.64,1.16,18.25,18.25,0,0,1,12.77,29,2,2,0,0,0,.31,2.8,18.26,18.26,0,0,1,6.28,11.94c.37-1.42.76-2.83,1.22-4.22a20.34,20.34,0,0,0-6.14-9.29A20.32,20.32,0,0,0,198,63.77a10,10,0,0,0-9-5.61h0v-.69a13.43,13.43,0,0,0-21.12-11,10,10,0,0,0-13,1.2,13.43,13.43,0,0,0-21,10A20.34,20.34,0,0,0,103.16,78h-.23a10,10,0,0,0-4.65,18.81A13.42,13.42,0,0,0,104.65,122h.51a20.26,20.26,0,0,0,15.24,24.27l.41.09c0-.7,0-1.4,0-2.11a18.27,18.27,0,0,1-14.14-17.76,19.69,19.69,0,0,1,.51-4.05,2,2,0,0,0-.42-1.77,2.13,2.13,0,0,0-1.59-.75h-.51a11.36,11.36,0,0,1-5.38-21.33,2.06,2.06,0,0,0,0-3.64A7.92,7.92,0,0,1,103,80.05h.23a2.06,2.06,0,0,0,2.07-2,1.84,1.84,0,0,0,0-.33,18.52,18.52,0,0,1-.21-2.79,18.27,18.27,0,0,1,18.22-18.27Z" transform="translate(0 0)" style="fill:#ef564b"/><path id="Tracé_22479" data-name="Tracé 22479" d="M211,127.89a3.23,3.23,0,0,1,.61-1.72,20.2,20.2,0,0,0,1.8-3.41,18.4,18.4,0,0,1-7.63,5.7,2.05,2.05,0,0,0-1.3,2c0,.51,0,.93,0,1.3a18.24,18.24,0,0,1-33.28,10.34,2.05,2.05,0,0,0-1.64-.88h0a2.06,2.06,0,0,0-1.65.82,11.39,11.39,0,0,1-11.8,4.34,1.83,1.83,0,0,0-.47-.05,2.06,2.06,0,0,0-1.59.74,11.35,11.35,0,0,1-19.18-2.81,2.1,2.1,0,0,0-1.9-1.26,2,2,0,0,0-.82.18,18.32,18.32,0,0,1-4.3,1.2v2.11a20,20,0,0,0,5.13-1.42,13.43,13.43,0,0,0,22.69,3.27,13.43,13.43,0,0,0,13.93-5.14,20.3,20.3,0,0,0,37-11.54,11.56,11.56,0,0,0-.06-1.44A20.33,20.33,0,0,0,211,127.89Z" transform="translate(0 0)" style="fill:#ef564b"/><path id="Tracé_22480" data-name="Tracé 22480" d="M111.56,96C104.35,99.49,94.26,94.8,95.27,86c.15-1.33-1.92-1.31-2.06,0-1.2,10.47,10.9,15.9,19.39,11.84C113.8,97.25,112.76,95.47,111.56,96Z" transform="translate(0 0)" style="fill:#cc1417"/><path id="Tracé_22481" data-name="Tracé 22481" d="M103.52,80c2.78-.07,6.2.49,7,3.66a1,1,0,1,0,2-.51v0c-1-4.1-5.27-5.27-9-5.18a1,1,0,0,0-1.07,1,1,1,0,0,0,1,1.06Z" transform="translate(0 0)" style="fill:#cc1417"/><path id="Tracé_22482" data-name="Tracé 22482" d="M141.61,69.21c-6.62-1.49-6.35-10.44-4.5-15.34.47-1.25-1.53-1.78-2-.55-2.26,6-1.78,16.15,5.94,17.88C142.35,71.49,142.9,69.5,141.61,69.21Z" transform="translate(0 0)" style="fill:#cc1417"/><path id="Tracé_22486" data-name="Tracé 22486" d="M197.05,94.68c4,4,9.77,4.37,14.64,1.93,1.19-.59.15-2.38-1-1.78-4.05,2-8.84,1.7-12.14-1.64a1,1,0,0,0-1.46,1.46Z" transform="translate(0 0)" style="fill:#ef564b"/><path id="Tracé_22487" data-name="Tracé 22487" d="M136.93,147.66c-3.79-5.14-2.64-12.21,3.28-15.19,1.19-.6.15-2.38-1-1.78-6.83,3.45-8.43,12-4,18.05.82,1.06,2.58,0,1.79-1Z" transform="translate(0 0)" style="fill:#cc1417"/><path id="Tracé_22488" data-name="Tracé 22488" d="M152.52,151.29a10.17,10.17,0,0,0,4.3-8.81c0-1.33-2.11-1.33-2.07,0a8,8,0,0,1-3.28,7c-1.05.82,0,2.58,1.05,1.79Z" transform="translate(0 0)" style="fill:#ef564b"/><path id="Tracé_22489" data-name="Tracé 22489" d="M168.05,135.62c-.49,5.58,2.09,9.28,6.34,12.64,1,.82,2.51-.63,1.46-1.46-3.84-3-6.18-6.11-5.74-11.18C170.22,134.3,168.16,134.31,168.05,135.62Z" transform="translate(0 0)" style="fill:#ef564b"/><path id="Tracé_22490" data-name="Tracé 22490" d="M106.8,127.62c0-5.38,1.31-9.51,5.5-13,1-.82-.45-2.31-1.46-1.46-4.59,3.85-6.1,8.6-6.1,14.5a1,1,0,0,0,1,1.06,1,1,0,0,0,1.07-1v-.06Z" transform="translate(0 0)" style="fill:#cc1417"/><path id="Tracé_22491" data-name="Tracé 22491" d="M206.48,133.4c0-4.38,0-8.09-2.72-11.75-.82-1.06-2.58,0-1.79,1,2.5,3.37,2.46,6.7,2.46,10.71a1,1,0,0,0,2.07,0Z" transform="translate(0 0)" style="fill:#ef564b"/><path id="Tracé_22492" data-name="Tracé 22492" d="M119.86,73c-.16-4.1,2.75-8.13,6.11-10.2,1.7-1,.15-3.72-1.56-2.68-4.26,2.63-7.85,7.71-7.65,12.87.07,2,3.17,2,3.1,0Z" transform="translate(0 0)" style="fill:#fff"/><path id="Tracé_22493" data-name="Tracé 22493" d="M121.51,83.9c-.63-3.77,3.44-6.66,6.8-7,1.32-.11,1.33-2.17,0-2.06-4.81.42-9.67,4.38-8.8,9.57.22,1.31,2.21.75,2-.55Z" transform="translate(0 0)" style="fill:#cc1417"/><path id="Tracé_22494" data-name="Tracé 22494" d="M98.51,155.39a12.35,12.35,0,0,1-11.39-7.5,1,1,0,0,0-1.35-.55,19.28,19.28,0,0,1-26.35-22,1,1,0,0,0-.22-.88,1,1,0,0,0-.82-.37h-.5A12.39,12.39,0,0,1,52,100.79,1,1,0,0,0,52,99,9,9,0,0,1,56.16,82.1h.2a1.06,1.06,0,0,0,.82-.34,1,1,0,0,0,.28-.82A19.27,19.27,0,0,1,86.68,61.59a1,1,0,0,0,1.42-.34,1,1,0,0,0,.15-.48,12.41,12.41,0,0,1,19.38-9.22,1,1,0,0,0,1.33-.13,9,9,0,0,1,11.64-1.07,1,1,0,0,0,.6.2,1,1,0,0,0,.59-.19,12.39,12.39,0,0,1,19.43,10.2v.64a1,1,0,0,0,1,1.08h.07a8.92,8.92,0,0,1,8.07,5,1,1,0,0,0,.82.58,19.28,19.28,0,0,1,13.48,30.67,1,1,0,0,0,.16,1.4,19.27,19.27,0,0,1-5.4,32.54,1,1,0,0,0-.65,1c0,.45.06.9.06,1.37a19.27,19.27,0,0,1-35.16,11,1,1,0,0,0-.82-.44h0a1,1,0,0,0-.82.42,12.49,12.49,0,0,1-10,5.08,12.65,12.65,0,0,1-2.87-.34h-.23a1,1,0,0,0-.82.38,12.43,12.43,0,0,1-9.55,4.43Z" transform="translate(0 0)" style="fill:#ef7668"/><path id="Tracé_22496" data-name="Tracé 22496" d="M54.94,99.14c-7.2,3.45-17.3-1.24-16.29-10.06.15-1.32-1.91-1.3-2.07,0C35.39,99.55,47.5,105,56,100.93,57.18,100.36,56.13,98.58,54.94,99.14Z" transform="translate(0 0)" style="fill:#ef564b"/><path id="Tracé_22497" data-name="Tracé 22497" d="M46.9,83.08c2.78-.07,6.21.49,7,3.66a1,1,0,0,0,1.28.69,1,1,0,0,0,.71-1.24c-1-4.1-5.26-5.27-9-5.17a1,1,0,0,0,0,2.06Z" transform="translate(0 0)" style="fill:#ef564b"/><g id="Groupe_10144" data-name="Groupe 10144"><path id="Tracé_22483" data-name="Tracé 22483" d="M153.62,49.25a12.62,12.62,0,0,1,3.84,7.64c.13,1.32,2.2,1.32,2,0a15.27,15.27,0,0,0-1.24-4.78,15,15,0,0,0-3.18-4.32C154.17,46.83,152.71,48.29,153.62,49.25Z" transform="translate(0 0)" style="fill:#ef564b"/><path id="Tracé_22484" data-name="Tracé 22484" d="M176.8,62.42a13,13,0,0,0,11.8-2.79c1-.92-.5-2.38-1.47-1.46a10.86,10.86,0,0,1-9.78,2.26,1,1,0,0,0-.59,2Z" transform="translate(0 0)" style="fill:#ef564b"/><path id="Tracé_22485" data-name="Tracé 22485" d="M196.16,64.66c1.55,3.61-.45,6.9-2.46,9.84-.75,1.11,1,2.13,1.78,1,2.52-3.7,4.34-7.54,2.46-11.92-.52-1.22-2.3-.16-1.79,1.05Z" transform="translate(0 0)" style="fill:#ef564b"/><path id="Tracé_22495" data-name="Tracé 22495" d="M147.79,136.6a18.24,18.24,0,0,1-33.19,8.68,2.06,2.06,0,0,0-1.64-.89h0a2.07,2.07,0,0,0-1.64.82,11.32,11.32,0,0,1-11.8,4.34,1.75,1.75,0,0,0-.51,0,2.05,2.05,0,0,0-1.58.74,11.35,11.35,0,0,1-19.18-2.81,2.09,2.09,0,0,0-2.72-1.08,18.23,18.23,0,0,1-24.92-20.83A2.08,2.08,0,0,0,49,123.08a2,2,0,0,0-.42,0h-.48A11.35,11.35,0,0,1,42.7,101.7a2.07,2.07,0,0,0,.84-2.81,2,2,0,0,0-.84-.84,7.92,7.92,0,0,1,3.64-15h.24a2,2,0,0,0,1.57-.66,2,2,0,0,0,.49-1.64,18.51,18.51,0,0,1-.2-2.79,18.24,18.24,0,0,1,27.89-15.5,2,2,0,0,0,1.09.32,2.16,2.16,0,0,0,.93-.23,2,2,0,0,0,1.13-1.68A11.4,11.4,0,0,1,90.79,50.46a11.23,11.23,0,0,1,6.44,2,2.09,2.09,0,0,0,2.67-.27,7.92,7.92,0,0,1,10.3-.95,2,2,0,0,0,1.2.38,2.08,2.08,0,0,0,1.18-.36,11.24,11.24,0,0,1,6.45-2,11.38,11.38,0,0,1,11.35,11.36v.59a2.06,2.06,0,0,0,2,2.16h.12a7.89,7.89,0,0,1,7.1,4.46A2.06,2.06,0,0,0,141.13,69c-.2-.71-.4-1.41-.57-2.14a3.43,3.43,0,0,1-.05-1.39,10,10,0,0,0-8.08-4.1h0v-.69a13.42,13.42,0,0,0-21.11-11.11,10,10,0,0,0-13,1.2,13.41,13.41,0,0,0-21,10A20.31,20.31,0,0,0,46.56,81.06h-.24a10,10,0,0,0-4.65,18.81,13.43,13.43,0,0,0,6.38,25.24h.5a20.3,20.3,0,0,0,27.76,23.18A13.43,13.43,0,0,0,99,151.57a13.48,13.48,0,0,0,14-5.13,20.3,20.3,0,0,0,36.92-9.6Z" transform="translate(0 0)" style="fill:#ef564b"/><path id="Tracé_22500" data-name="Tracé 22500" d="M120.18,65.52A13,13,0,0,0,132,62.73c1-.91-.49-2.37-1.46-1.46a10.89,10.89,0,0,1-9.79,2.26,1,1,0,0,0-1.25.75,1,1,0,0,0,.7,1.24Z" transform="translate(0 0)" style="fill:#ef564b"/></g><g id="Groupe_10145" data-name="Groupe 10145"><path id="Tracé_22498" data-name="Tracé 22498" d="M85,72.31c-6.62-1.48-6.35-10.44-4.5-15.34.46-1.25-1.53-1.78-2-.55-2.25,6-1.77,16.15,6,17.88C85.74,74.59,86.29,72.6,85,72.31Z" transform="translate(0 0)" style="fill:#ef564b"/><path id="Tracé_22499" data-name="Tracé 22499" d="M97,52.35A12.55,12.55,0,0,1,100.83,60c.15,1.32,2.22,1.33,2.07,0a15.92,15.92,0,0,0-1.25-4.78,15,15,0,0,0-3.19-4.32C97.54,49.93,96.09,51.39,97,52.35Z" transform="translate(0 0)" style="fill:#ef564b"/><path id="Tracé_22501" data-name="Tracé 22501" d="M139.55,67.76c1.54,3.61-.46,6.9-2.46,9.85-.76,1.1,1,2.14,1.78,1,2.52-3.7,4.34-7.54,2.46-11.93-.53-1.22-2.3-.16-1.78,1Z" transform="translate(0 0)" style="fill:#ef564b"/></g><path id="Tracé_22503" data-name="Tracé 22503" d="M80.31,150.77c-3.79-5.15-2.64-12.22,3.28-15.2,1.19-.6.14-2.37-1-1.77-6.84,3.45-8.43,12-4,18,.82,1.06,2.57,0,1.78-1Z" transform="translate(0 0)" style="fill:#ef564b"/><path id="Tracé_22504" data-name="Tracé 22504" d="M95.91,154.39a10.22,10.22,0,0,0,4.3-8.81,1,1,0,0,0-2.07,0,8,8,0,0,1-3.28,7c-1.06.82,0,2.59,1,1.79Z" transform="translate(0 0)" style="fill:#ef564b"/><path id="Tracé_22505" data-name="Tracé 22505" d="M111.43,138.73c-.48,5.57,2.09,9.27,6.35,12.64,1,.82,2.46-.64,1.46-1.46-3.84-3-6.18-6.12-5.75-11.18C113.61,137.4,111.54,137.41,111.43,138.73Z" transform="translate(0 0)" style="fill:#ef564b"/><path id="Tracé_22506" data-name="Tracé 22506" d="M50.18,130.73c0-5.39,1.32-9.52,5.5-13,1-.86-.45-2.31-1.46-1.46-4.58,3.86-6.06,8.61-6.06,14.5a1,1,0,1,0,2.06.06v-.06Z" transform="translate(0 0)" style="fill:#ef564b"/><path id="Tracé_22507" data-name="Tracé 22507" d="M149.88,136.51c0-4.38,0-8.1-2.73-11.76-.82-1-2.57,0-1.78,1,2.5,3.36,2.46,6.69,2.46,10.71a1,1,0,0,0,2.07,0Z" transform="translate(0 0)" style="fill:#cc1417"/><path id="Tracé_22508" data-name="Tracé 22508" d="M64.89,87c-.64-3.77,3.45-6.66,6.81-7C73,79.9,73,77.84,71.7,78c-4.81.42-9.68,4.38-8.8,9.57C63.11,88.83,65.11,88.27,64.89,87Z" transform="translate(0 0)" style="fill:#ef564b"/><circle id="Ellipse_434" data-name="Ellipse 434" cx="109.65" cy="101.98" r="8.02" style="fill:#81c7ed"/><circle id="Ellipse_435" data-name="Ellipse 435" cx="187.86" cy="101.97" r="8.02" style="fill:#81c7ed"/><path id="Tracé_22509" data-name="Tracé 22509" d="M147.83,94s-.58-10.32,3-18.77A12.13,12.13,0,0,0,152,70.65a10.9,10.9,0,0,0-.82-3.78c2.46-3.07,16.59,4.51,17.12,2.71,0,0,18.94,52.38,6.77,61.31S155.22,141.32,152,133.4,147.83,94,147.83,94Z" transform="translate(0 0)" style="fill:#ef7668"/><path id="Tracé_22510" data-name="Tracé 22510" d="M145.35,125.8c3.09,4.25,3.35,11,1.29,15.82-.51,1.21,1.26,2.26,1.78,1,2.35-5.53,2.29-13-1.3-17.91C146.36,123.7,144.56,124.75,145.35,125.8Z" transform="translate(0 0)" style="fill:#ef564b"/><path id="Tracé_22511" data-name="Tracé 22511" d="M142.42,113c.11,4,2.56,7.38,6.88,7.21s6.43-3.91,5.63-7.85c-.4-2-3.38-1.13-3,.82a3,3,0,0,1-2,3.8,2.86,2.86,0,0,1-.66.13c-2.58.31-3.71-1.85-3.78-4.1-.06-2-3.15-2-3.1,0Z" transform="translate(0 0)" style="fill:#81c7ed"/><g id="Groupe_10142" data-name="Groupe 10142"><path id="Tracé_22512" data-name="Tracé 22512" d="M115.49,111.6a19.92,19.92,0,0,0-5.42,1.28,6.88,6.88,0,0,1-3.63,0c-2.73-.59-5.52-1.59-8.35-1.46-3.81.18-7.26,4.6-5.14,8.2,2,3.34,6.16,5.29,10,5.3a22.39,22.39,0,0,0,5.74-.9c2.33-.6,4.72-.36,7.06-.82,2.87-.59,6.11-2.77,6.33-6C122.28,113.77,118.5,111.55,115.49,111.6Z" transform="translate(0 0)" style="fill:#ef7668"/></g><g id="Groupe_10143" data-name="Groupe 10143"><path id="Tracé_22513" data-name="Tracé 22513" d="M200.34,110.1c-1.83-.09-3.6,1-5.28,1.53a14,14,0,0,1-6.33.23c-2.71-.38-5.57-1.3-8.31-.9-3,.44-4.28,2.92-3.71,5.68.72,3.4,4.23,5.75,7.57,6.2,3.63.53,7.56-.47,11-1.64,3.14-1.06,6.56-2.7,8.52-5.5S203.27,110.26,200.34,110.1Z" transform="translate(0 0)" style="fill:#ef7668"/></g><path id="Tracé_22514" data-name="Tracé 22514" d="M62.69,109.17c4.15-2.85,8.15,1.06,10.11,4.6,2.35,4.22-1.06,8.2-2.3,12.16-1.87,6,3.4,11,8.88,11.6,1.32.15,1.3-1.92,0-2.06a7.49,7.49,0,0,1-7.08-7c-.31-2.73,1.64-5.08,2.54-7.49a9.68,9.68,0,0,0-.25-8.28c-2.19-4.76-8.09-8.68-12.94-5.35-1.09.75-.06,2.54,1,1.78Z" transform="translate(0 0)" style="fill:#ef564b"/><path id="Tracé_22515" data-name="Tracé 22515" d="M74.67,120.82c2-.45,3.46,1.2,3.51,3.13a1,1,0,1,0,2.06.06V124c-.09-3.33-2.76-5.86-6.12-5.13C72.82,119.1,73.36,121.09,74.67,120.82Z" transform="translate(0 0)" style="fill:#ef564b"/><path id="Tracé_22516" data-name="Tracé 22516" d="M177.61,130.14c2.23,3.28,8.2,5.18,11.74,3.12a1,1,0,0,0-1-1.78c-2.52,1.46-7.33,0-8.92-2.39C178.66,128,176.87,129,177.61,130.14Z" transform="translate(0 0)" style="fill:#ef564b"/><path id="Tracé_22517" data-name="Tracé 22517" d="M153,141.53a3.54,3.54,0,0,0,5,.58,1.55,1.55,0,0,0,.27-.24c1-.9-.48-2.36-1.46-1.46-.82.76-1.64.4-2.33-.34C153.56,139.08,152.1,140.55,153,141.53Z" transform="translate(0 0)" style="fill:#ef564b"/><rect id="Rectangle_17350" data-name="Rectangle 17350" x="213.15" y="105.58" width="79.62" height="67.71" transform="translate(42.97 337.77) rotate(-72.23)" style="fill:#c9b7da"/><path id="Tracé_22518" data-name="Tracé 22518" d="M237.93,95.52l.08-.32-5-1.59,0,.08a2.69,2.69,0,0,1-.27.32,9.63,9.63,0,0,1-.42,1l5.84,1.86a1.73,1.73,0,0,1-.22-1.35Z" transform="translate(0 0)" style="fill:#cc1417"/><path id="Tracé_22519" data-name="Tracé 22519" d="M247.64,98.29l-5.4-1.72-.08.13a1.81,1.81,0,0,1-.9.64,1.51,1.51,0,0,1-.54.36l7,2.25A1.65,1.65,0,0,1,247.64,98.29Z" transform="translate(0 0)" style="fill:#cc1417"/><path id="Tracé_22520" data-name="Tracé 22520" d="M257.48,102.23l.13-.74-4.93-1.59c-.13.41-.26.82-.4,1.23a1.22,1.22,0,0,1-.1.24l5.41,1.73a2,2,0,0,1-.11-.87Z" transform="translate(0 0)" style="fill:#cc1417"/><path id="Tracé_22521" data-name="Tracé 22521" d="M267.24,105a3.12,3.12,0,0,0,.15-.39l-5.1-1.64a3.44,3.44,0,0,1-.82,1.37l5.66,1.81a1.81,1.81,0,0,1,.11-1.15Z" transform="translate(0 0)" style="fill:#cc1417"/><path id="Tracé_22522" data-name="Tracé 22522" d="M277.72,109.05a4.52,4.52,0,0,1-.26-1.2l-5.12-1.64a9.51,9.51,0,0,1-.65,1.22.57.57,0,0,1-.12.15l6.56,2.1A1.68,1.68,0,0,1,277.72,109.05Z" transform="translate(0 0)" style="fill:#cc1417"/><path id="Tracé_22523" data-name="Tracé 22523" d="M282.09,109.33c-.11.19-.23.37-.35.55a1.78,1.78,0,0,1-.82.69l5.65,1.81-23.83,74.35-63-20.2,23.83-74.35,4,1.28a10.39,10.39,0,0,1,.24-1.55l-5.23-1.64-24.81,77.3,66,21.14,24.8-77.32Z" transform="translate(0 0)" style="fill:#cc1417"/><rect id="Rectangle_17351" data-name="Rectangle 17351" x="214.02" y="102.92" width="79.62" height="67.71" transform="translate(46.11 336.74) rotate(-72.23)" style="fill:#f29497"/><path id="Tracé_22524" data-name="Tracé 22524" d="M238.66,92.46l-4.29-1.38c-.21.51-.44,1-.66,1.41L238.3,94C238.4,93.46,238.52,92.93,238.66,92.46Z" transform="translate(0 0)" style="fill:#cc1417"/><path id="Tracé_22525" data-name="Tracé 22525" d="M248.32,95.54l-5-1.6a7.75,7.75,0,0,1-.45,1.49l5.21,1.64C248.16,96.58,248.22,96.06,248.32,95.54Z" transform="translate(0 0)" style="fill:#cc1417"/><path id="Tracé_22526" data-name="Tracé 22526" d="M258.21,98.72l-4.78-1.53c-.12.5-.26,1-.41,1.49l4.82,1.54C258,99.72,258.07,99.22,258.21,98.72Z" transform="translate(0 0)" style="fill:#cc1417"/><path id="Tracé_22527" data-name="Tracé 22527" d="M283.37,106.79a15,15,0,0,1-.64,1.42l4.68,1.5-23.79,74.35-63-20.21L224.4,89.51l3.7,1.18c.13-.47.27-1,.39-1.42V89.2l-5.11-1.64-24.77,77.28L264.56,186l24.78-77.29Z" transform="translate(0 0)" style="fill:#cc1417"/><path id="Tracé_22528" data-name="Tracé 22528" d="M277.85,105l-4.69-1.5a11,11,0,0,1-.38,1.5l4.7,1.5A7.15,7.15,0,0,1,277.85,105Z" transform="translate(0 0)" style="fill:#cc1417"/><path id="Tracé_22529" data-name="Tracé 22529" d="M268.06,101.88l-5.18-1.64a5.07,5.07,0,0,1-.09.54c0,.18-.11.64-.18,1l5.13,1.65C267.85,102.89,268,102.38,268.06,101.88Z" transform="translate(0 0)" style="fill:#cc1417"/><rect id="Rectangle_17352" data-name="Rectangle 17352" x="214.38" y="100.82" width="79.61" height="66.8" transform="translate(48.81 335.34) rotate(-72.24)" style="fill:#f6f6d4"/><path id="Tracé_22530" data-name="Tracé 22530" d="M239.53,90l-4.35-1.39c-.13.5-.28,1-.45,1.47L239,91.47A13.38,13.38,0,0,1,239.53,90Z" transform="translate(0 0)" style="fill:#cc1417"/><path id="Tracé_22531" data-name="Tracé 22531" d="M259,96.29l-5.09-1.64c-.07.51-.16,1-.26,1.52l4.83,1.55C258.65,97.25,258.81,96.76,259,96.29Z" transform="translate(0 0)" style="fill:#cc1417"/><path id="Tracé_22532" data-name="Tracé 22532" d="M268.94,99.49l-5.67-1.83c0,.52-.13,1-.21,1.55l5.25,1.69A6,6,0,0,1,268.94,99.49Z" transform="translate(0 0)" style="fill:#cc1417"/><path id="Tracé_22533" data-name="Tracé 22533" d="M278.29,104.08a8.74,8.74,0,0,1,.82-1.34l-5.8-1.86a9,9,0,0,1,0,1.64Z" transform="translate(0 0)" style="fill:#cc1417"/><path id="Tracé_22534" data-name="Tracé 22534" d="M284,104.29a8.81,8.81,0,0,1-.27,1.52l3.67,1.18-23.84,74.36-62.17-19.93,23.84-74.36,3.53,1.13a2.15,2.15,0,0,1,.12-.5,7,7,0,0,0,.1-.92v-.11l-4.77-1.54-24.78,77.3,65.1,20.87L289.25,106Z" transform="translate(0 0)" style="fill:#ef564b"/><path id="Tracé_22535" data-name="Tracé 22535" d="M248.5,94.46a7.34,7.34,0,0,1,.56-1.36l-5-1.64a8.32,8.32,0,0,1-.45,1.47l4.89,1.63A.34.34,0,0,1,248.5,94.46Z" transform="translate(0 0)" style="fill:#cc1417"/><rect id="Rectangle_17353" data-name="Rectangle 17353" x="246.85" y="76.63" width="9.98" height="68.36" transform="translate(69.46 316.82) rotate(-72.23)" style="fill:#ef564b"/><rect id="Rectangle_17354" data-name="Rectangle 17354" x="254.13" y="70.87" width="18.69" height="68.61" transform="translate(82.91 323.98) rotate(-72.23)" style="fill:#81c7ed"/><path id="Tracé_22536" data-name="Tracé 22536" d="M239.53,90l-4.35-1.39q-.19.75-.45,1.47L239,91.47A13.38,13.38,0,0,1,239.53,90Z" transform="translate(0 0)" style="fill:#ef564b"/><path id="Tracé_22537" data-name="Tracé 22537" d="M259,96.29l-5.09-1.64c-.07.51-.16,1-.26,1.52l4.83,1.55C258.65,97.25,258.81,96.76,259,96.29Z" transform="translate(0 0)" style="fill:#ef564b"/><path id="Tracé_22538" data-name="Tracé 22538" d="M268.94,99.49l-5.67-1.83c0,.52-.13,1-.21,1.55l5.25,1.69A6,6,0,0,1,268.94,99.49Z" transform="translate(0 0)" style="fill:#ef564b"/><path id="Tracé_22539" data-name="Tracé 22539" d="M278.28,104.08a9.6,9.6,0,0,1,.82-1.34l-5.8-1.86a9,9,0,0,1,0,1.64Z" transform="translate(0 0)" style="fill:#ef564b"/><path id="Tracé_22540" data-name="Tracé 22540" d="M284,104.29a8.83,8.83,0,0,1-.28,1.52l4.52,1.45L283,123.6l-63.86-20.51,5.24-16.33,4.38,1.4a2.15,2.15,0,0,1,.12-.5c0-.31.09-.61.11-.92a.24.24,0,0,1,0-.12l-5.63-1.8-6.16,19.29,66.79,21.41,6.22-19.26Z" transform="translate(0 0)" style="fill:#ef564b"/><path id="Tracé_22541" data-name="Tracé 22541" d="M248.5,94.46a7.34,7.34,0,0,1,.56-1.36l-5-1.64a8.32,8.32,0,0,1-.45,1.47l4.89,1.63A.34.34,0,0,1,248.5,94.46Z" transform="translate(0 0)" style="fill:#ef564b"/><path id="Tracé_22542" data-name="Tracé 22542" d="M240.48,95.79a2.17,2.17,0,0,1-.62-.1l-1.34-.43a2,2,0,0,1-1.32-2.57l2.67-8.31a2,2,0,0,1,2.56-1.31h0l1.33.43A2,2,0,0,1,245.08,86v0l-2.66,8.31a2,2,0,0,1-1.94,1.41Z" transform="translate(0 0)" style="fill:#9aacc0"/><path id="Tracé_22543" data-name="Tracé 22543" d="M232,83.74h0a1.34,1.34,0,0,1,.4.06l1.33.43a1.27,1.27,0,0,1,.82,1.6l-2.66,8.31a1.28,1.28,0,0,1-1.22.88,1.21,1.21,0,0,1-.38-.06l-1.34-.43a1.28,1.28,0,0,1-.83-1.61v0l2.67-8.31a1.26,1.26,0,0,1,1.2-.88m0-1.54a2.82,2.82,0,0,0-2.67,2l-2.66,8.31a2.81,2.81,0,0,0,1.8,3.53h0l1.34.43a2.88,2.88,0,0,0,.82.14,2.83,2.83,0,0,0,2.68-2L236,86.3a2.81,2.81,0,0,0-1.82-3.53h0l-1.32-.43a2.83,2.83,0,0,0-.87-.14Z" transform="translate(0 0)" style="fill:#ef564b"/><path id="Tracé_22544" data-name="Tracé 22544" d="M250.42,99a2.17,2.17,0,0,1-.62-.1l-1.33-.44a1.94,1.94,0,0,1-1.19-1,2,2,0,0,1-.13-1.56l2.66-8.31a2.05,2.05,0,0,1,1.94-1.42,2.17,2.17,0,0,1,.62.1l1.34.43A2.05,2.05,0,0,1,255,89.25l-2.67,8.31A2,2,0,0,1,250.42,99Z" transform="translate(0 0)" style="fill:#9aacc0"/><path id="Tracé_22545" data-name="Tracé 22545" d="M241.9,86.93h0a1.08,1.08,0,0,1,.4.06l1.33.43a1.28,1.28,0,0,1,.82,1.59l-2.69,8.31a1.28,1.28,0,0,1-1.22.89,1.21,1.21,0,0,1-.38-.06l-1.34-.43a1.25,1.25,0,0,1-.74-.63,1.3,1.3,0,0,1-.08-1l2.67-8.31a1.26,1.26,0,0,1,1.2-.88m0-1.54a2.8,2.8,0,0,0-2.66,2l-2.67,8.31a2.78,2.78,0,0,0,1.79,3.51h0l1.34.43a2.51,2.51,0,0,0,.82.13,2.78,2.78,0,0,0,2.67-1.94l2.67-8.32A2.83,2.83,0,0,0,244,86l-1.34-.42a2.82,2.82,0,0,0-.86-.14Z" transform="translate(0 0)" style="fill:#ef564b"/><path id="Tracé_22546" data-name="Tracé 22546" d="M260.37,102.16a1.87,1.87,0,0,1-.62-.1l-1.34-.43a2,2,0,0,1-1.32-2.56l2.66-8.31a2,2,0,0,1,1.94-1.42,2.17,2.17,0,0,1,.62.1l1.34.43A2,2,0,0,1,265,92.43l-2.66,8.32a2,2,0,0,1-1.94,1.41Z" transform="translate(0 0)" style="fill:#9aacc0"/><path id="Tracé_22547" data-name="Tracé 22547" d="M251.85,90.12a1.74,1.74,0,0,1,.39,0l1.33.43a1.28,1.28,0,0,1,.84,1.59l0,0-2.67,8.31a1.25,1.25,0,0,1-1.2.88,1.34,1.34,0,0,1-.4-.06l-1.33-.42a1.28,1.28,0,0,1-.82-1.6L250.63,91a1.27,1.27,0,0,1,1.21-.88m0-1.54a2.8,2.8,0,0,0-2.67,1.95l-2.66,8.31a2.79,2.79,0,0,0,1.8,3.52h0l1.34.42a2.72,2.72,0,0,0,.86.14,2.79,2.79,0,0,0,2.66-2l2.67-8.31a2.8,2.8,0,0,0-1.8-3.52h0l-1.34-.42A2.82,2.82,0,0,0,251.84,88.62Z" transform="translate(0 0)" style="fill:#ef564b"/><path id="Tracé_22548" data-name="Tracé 22548" d="M270.31,105.35a1.87,1.87,0,0,1-.62-.1l-1.34-.43a2,2,0,0,1-1.32-2.56L269.7,94a2,2,0,0,1,1.94-1.41,1.64,1.64,0,0,1,.62.09l1.33.43a2,2,0,0,1,1.33,2.56h0l-2.66,8.31a2,2,0,0,1-1.94,1.42Z" transform="translate(0 0)" style="fill:#9aacc0"/><path id="Tracé_22549" data-name="Tracé 22549" d="M261.8,93.3h0a1.22,1.22,0,0,1,.38.07l1.34.42a1.28,1.28,0,0,1,.82,1.6l-2.66,8.31a1.28,1.28,0,0,1-1.21.88,1.23,1.23,0,0,1-.39-.06l-1.33-.43a1.25,1.25,0,0,1-.83-1.57v0l2.7-8.31a1.27,1.27,0,0,1,1.21-.89m0-1.53a2.78,2.78,0,0,0-2.67,1.94L256.5,102a2.83,2.83,0,0,0,1.81,3.53l1.34.42a2.79,2.79,0,0,0,3.53-1.81l2.66-8.32a2.79,2.79,0,0,0-1.79-3.51h0l-1.34-.43a2.81,2.81,0,0,0-.82-.13Z" transform="translate(0 0)" style="fill:#ef564b"/><path id="Tracé_22550" data-name="Tracé 22550" d="M280.26,108.51a2,2,0,0,1-.63-.1L278.3,108a2,2,0,0,1-1.32-2.56h0l2.66-8.31a2.05,2.05,0,0,1,1.95-1.42,2.51,2.51,0,0,1,.61.1l1.34.43a2,2,0,0,1,1.32,2.56l-2.67,8.32a2,2,0,0,1-1.93,1.41Z" transform="translate(0 0)" style="fill:#9aacc0"/><path id="Tracé_22551" data-name="Tracé 22551" d="M271.74,96.49h0a1.32,1.32,0,0,1,.39.06l1.33.43a1.28,1.28,0,0,1,.82,1.6l-2.66,8.29a1.29,1.29,0,0,1-1.21.89,1.22,1.22,0,0,1-.38-.07l-1.34-.43a1.26,1.26,0,0,1-.82-1.6h0l2.66-8.31a1.26,1.26,0,0,1,1.21-.87m0-1.55a2.81,2.81,0,0,0-2.67,2l-2.7,8.34a2.81,2.81,0,0,0,1.82,3.53h0l1.33.42a2.5,2.5,0,0,0,.86.14,2.79,2.79,0,0,0,2.66-1.95l2.67-8.31a2.8,2.8,0,0,0-1.8-3.53h0l-1.34-.42a2.57,2.57,0,0,0-.82-.14Z" transform="translate(0 0)" style="fill:#ef564b"/><path id="Tracé_22552" data-name="Tracé 22552" d="M290.2,111.73a2.17,2.17,0,0,1-.62-.1l-1.34-.43a2,2,0,0,1-1.31-2.57l2.65-8.33a2,2,0,0,1,1.95-1.41,2.17,2.17,0,0,1,.62.1l1.33.43A2,2,0,0,1,294.8,102h0l-2.66,8.31a2.06,2.06,0,0,1-1.94,1.44Z" transform="translate(0 0)" style="fill:#9aacc0"/><path id="Tracé_22553" data-name="Tracé 22553" d="M281.68,99.67h0a1.59,1.59,0,0,1,.39.07l1.34.43a1.28,1.28,0,0,1,.82,1.6l-2.67,8.31a1.27,1.27,0,0,1-1.2.88,1.23,1.23,0,0,1-.39-.06l-1.34-.44a1.27,1.27,0,0,1-.82-1.59l2.67-8.31a1.26,1.26,0,0,1,1.2-.88m0-1.54a2.82,2.82,0,0,0-2.67,2l-2.67,8.31a2.82,2.82,0,0,0,1.83,3.53l1.32.43a2.82,2.82,0,0,0,.87.13,2.79,2.79,0,0,0,2.66-1.94l2.67-8.31a2.82,2.82,0,0,0-1.81-3.53h0l-1.33-.43a2.57,2.57,0,0,0-.82-.14Z" transform="translate(0 0)" style="fill:#ef564b"/><path id="Tracé_22554" data-name="Tracé 22554" d="M240.87,94.56a1.87,1.87,0,0,1-.62-.1L238.91,94a2,2,0,0,1-1.31-2.56h0l2.66-8.31a2,2,0,0,1,2.55-1.33h0l1.33.42a2,2,0,0,1,1.33,2.54v0l-2.66,8.31a2,2,0,0,1-1.94,1.41Z" transform="translate(0 0)" style="fill:#9aacc0"/><path id="Tracé_22555" data-name="Tracé 22555" d="M232.35,82.52a1.23,1.23,0,0,1,.39.06l1.34.43a1.27,1.27,0,0,1,.82,1.59h0l-2.67,8.31a1.25,1.25,0,0,1-1.2.89,1,1,0,0,1-.39-.07l-1.34-.42a1.28,1.28,0,0,1-.82-1.59l2.66-8.32a1.27,1.27,0,0,1,1.21-.88m0-1.53a2.8,2.8,0,0,0-2.67,1.94L227,91.28a2.8,2.8,0,0,0,1.8,3.53h0l1.34.44a3.26,3.26,0,0,0,.82.13,2.81,2.81,0,0,0,2.67-2l2.66-8.31a2.79,2.79,0,0,0-1.8-3.52h0l-1.34-.43a2.81,2.81,0,0,0-.82-.13Z" transform="translate(0 0)" style="fill:#ef564b"/><path id="Tracé_22556" data-name="Tracé 22556" d="M250.78,97.76a2.59,2.59,0,0,1-.62-.1l-1.34-.43a2.1,2.1,0,0,1-1.16-1,2,2,0,0,1-.12-1.56l2.66-8.28a2,2,0,0,1,2.57-1.31l1.33.42a2,2,0,0,1,1.19,1,2,2,0,0,1,.13,1.55l-2.67,8.31a2,2,0,0,1-2,1.41Z" transform="translate(0 0)" style="fill:#9aacc0"/><path id="Tracé_22557" data-name="Tracé 22557" d="M242.3,85.71h0a1.21,1.21,0,0,1,.38.06l1.34.43a1.25,1.25,0,0,1,.74.63,1.22,1.22,0,0,1,.08,1l-2.66,8.31a1.3,1.3,0,0,1-1.63.86l-1.34-.43a1.28,1.28,0,0,1-.83-1.61v0l2.67-8.31a1.26,1.26,0,0,1,1.2-.88m0-1.54a2.8,2.8,0,0,0-2.67,2l-2.66,8.31A2.82,2.82,0,0,0,238.74,98h0l1.33.43a2.79,2.79,0,0,0,3.52-1.77v-.05l2.66-8.31a2.8,2.8,0,0,0-1.8-3.52h0l-1.34-.43a2.52,2.52,0,0,0-.82-.14Z" transform="translate(0 0)" style="fill:#ef564b"/><path id="Tracé_22558" data-name="Tracé 22558" d="M260.76,101a2.67,2.67,0,0,1-.63-.1l-1.33-.44a2,2,0,0,1-1.32-2.55h0l2.67-8.31a2,2,0,0,1,2.54-1.33h0l1.34.43a2.08,2.08,0,0,1,1.19,1,2.06,2.06,0,0,1,.12,1.56l-2.66,8.31A2,2,0,0,1,260.76,101Z" transform="translate(0 0)" style="fill:#9aacc0"/><path id="Tracé_22559" data-name="Tracé 22559" d="M252.24,88.9a1.74,1.74,0,0,1,.39,0l1.33.44a1.19,1.19,0,0,1,.75.62,1.31,1.31,0,0,1,.08,1l-2.67,8.31a1.24,1.24,0,0,1-1.21.88,1.21,1.21,0,0,1-.38-.06l-1.34-.43a1.27,1.27,0,0,1-.82-1.59L251,89.77a1.26,1.26,0,0,1,1.2-.88m0-1.53a2.77,2.77,0,0,0-2.66,1.94l-2.67,8.31a2.82,2.82,0,0,0,1.81,3.54l1.34.43a2.82,2.82,0,0,0,3.53-1.82l2.66-8.31a2.81,2.81,0,0,0-1.82-3.53l-1.33-.43a2.92,2.92,0,0,0-.82-.13Z" transform="translate(0 0)" style="fill:#ef564b"/><path id="Tracé_22560" data-name="Tracé 22560" d="M270.7,104.13a2,2,0,0,1-.63-.1l-1.32-.44a2.06,2.06,0,0,1-1.33-2.56l2.67-8.31a2,2,0,0,1,2.54-1.33h0l1.34.42a2.06,2.06,0,0,1,1.32,2.56l-2.67,8.31a2,2,0,0,1-1.94,1.44Z" transform="translate(0 0)" style="fill:#9aacc0"/><path id="Tracé_22561" data-name="Tracé 22561" d="M262.18,92.1h0a1.4,1.4,0,0,1,.4.07l1.32.43a1.27,1.27,0,0,1,.84,1.6l0,0-2.66,8.31a1.26,1.26,0,0,1-1.21.87,1,1,0,0,1-.38,0l-1.34-.43a1.25,1.25,0,0,1-.74-.63,1.22,1.22,0,0,1-.08-1L261,93a1.27,1.27,0,0,1,1.2-.93m0-1.53a2.79,2.79,0,0,0-2.66,2l-2.67,8.31a2.8,2.8,0,0,0,1.8,3.53h0l1.34.43a3.2,3.2,0,0,0,.82.14,2.81,2.81,0,0,0,2.67-2l2.67-8.31a2.81,2.81,0,0,0-1.82-3.52L263,90.71a2.82,2.82,0,0,0-.86-.14Z" transform="translate(0 0)" style="fill:#ef564b"/><path id="Tracé_22562" data-name="Tracé 22562" d="M280.64,107.32a1.87,1.87,0,0,1-.62-.1l-1.33-.43a2,2,0,0,1-1.32-2.56L280,95.92A2,2,0,0,1,282,94.5a1.87,1.87,0,0,1,.62.1l1.34.43a2,2,0,0,1,1.32,2.56l-2.66,8.31A2,2,0,0,1,280.64,107.32Z" transform="translate(0 0)" style="fill:#9aacc0"/><path id="Tracé_22563" data-name="Tracé 22563" d="M272.11,95.27h0a1,1,0,0,1,.39.07l1.33.42a1.25,1.25,0,0,1,.82,1.59h0L272,105.67a1.29,1.29,0,0,1-1.22.88,1.21,1.21,0,0,1-.38-.06l-1.33-.44a1.28,1.28,0,0,1-.82-1.59l2.67-8.31a1.26,1.26,0,0,1,1.21-.89m0-1.53a2.8,2.8,0,0,0-2.67,2L266.79,104a2.81,2.81,0,0,0,1.82,3.53l1.33.43a3.34,3.34,0,0,0,.82.13,2.8,2.8,0,0,0,2.68-2l2.7-8.28a2.83,2.83,0,0,0-1.81-3.53L273,93.89a3.31,3.31,0,0,0-.88-.15Z" transform="translate(0 0)" style="fill:#ef564b"/><path id="Tracé_22564" data-name="Tracé 22564" d="M290.59,110.5a1.87,1.87,0,0,1-.62-.1l-1.34-.42a2,2,0,0,1-1.32-2.56h0L290,99.11a2,2,0,0,1,1.93-1.42,1.93,1.93,0,0,1,.63.1l1.33.42a2.06,2.06,0,0,1,1.33,2.56l-2.67,8.32A2,2,0,0,1,290.59,110.5Z" transform="translate(0 0)" style="fill:#9aacc0"/><path id="Tracé_22565" data-name="Tracé 22565" d="M282.07,98.46h0a1.27,1.27,0,0,1,.39.06l1.34.42a1.29,1.29,0,0,1,.82,1.61l-2.67,8.3a1.26,1.26,0,0,1-1.2.89,1.34,1.34,0,0,1-.4-.06l-1.32-.43a1.26,1.26,0,0,1-.84-1.59l0,0,2.66-8.31a1.27,1.27,0,0,1,1.21-.88m0-1.54a2.8,2.8,0,0,0-2.67,2l-2.66,8.31a2.79,2.79,0,0,0,1.8,3.52h0l1.34.42a2.52,2.52,0,0,0,.82.14,2.8,2.8,0,0,0,2.66-2l2.68-8.27a2.8,2.8,0,0,0-1.81-3.52h0l-1.33-.42a2.82,2.82,0,0,0-.86-.14Z" transform="translate(0 0)" style="fill:#ef564b"/><rect id="Rectangle_17355" data-name="Rectangle 17355" x="247.39" y="93.97" width="1.53" height="56.61" transform="translate(55.97 321.28) rotate(-72.23)" style="fill:#ef564b"/><rect id="Rectangle_17356" data-name="Rectangle 17356" x="245.72" y="103.25" width="1.53" height="56.61" transform="translate(44.96 325.07) rotate(-71.93)" style="fill:#ef564b"/><rect id="Rectangle_17357" data-name="Rectangle 17357" x="242.38" y="109.58" width="1.53" height="56.61" transform="translate(37.63 327.35) rotate(-72.23)" style="fill:#ef564b"/><rect id="Rectangle_17358" data-name="Rectangle 17358" x="239.88" y="117.38" width="1.53" height="56.61" transform="translate(28.47 330.39) rotate(-72.23)" style="fill:#ef564b"/><rect id="Rectangle_17359" data-name="Rectangle 17359" x="237.38" y="125.19" width="1.53" height="56.61" transform="translate(19.3 333.43) rotate(-72.23)" style="fill:#ef564b"/><rect id="Rectangle_17360" data-name="Rectangle 17360" x="234.87" y="132.99" width="1.53" height="56.61" transform="translate(10.13 336.47) rotate(-72.23)" style="fill:#ef564b"/><path id="Tracé_22566" data-name="Tracé 22566" d="M273.18,176.81c.73-2.28,1.45-4.56,2.18-6.83.3-.94-1.17-1.34-1.48-.41l-2.19,6.83C271.39,177.35,272.87,177.74,273.18,176.81Z" transform="translate(0 0)" style="fill:#fff"/><path id="Tracé_22567" data-name="Tracé 22567" d="M276.58,166.6l.74-2.31c.3-.94-1.18-1.34-1.48-.41-.25.77-.5,1.55-.74,2.32C274.79,167.14,276.28,167.54,276.58,166.6Z" transform="translate(0 0)" style="fill:#fff"/></g></g><g id="Groupe_40" data-name="Groupe 40"><g id="Groupe_39" data-name="Groupe 39"><circle id="Ellipse_1" data-name="Ellipse 1" cx="138.48" cy="34.46" r="1" style="fill:#ef7668"/><g id="Groupe_31" data-name="Groupe 31"><path id="Tracé_58" data-name="Tracé 58" d="M155.2,20A16.72,16.72,0,1,1,138.48,3.26h0A16.72,16.72,0,0,1,155.2,20Z" transform="translate(0 0)" style="fill:#fff;opacity:0.10000000149011612;isolation:isolate"/><path id="Tracé_59" data-name="Tracé 59" d="M153.38,20a14.9,14.9,0,1,1-14.9-14.9h0A14.9,14.9,0,0,1,153.38,20Z" transform="translate(0 0)" style="fill:#fff;opacity:0.10000000149011612;isolation:isolate"/><path id="Tracé_60" data-name="Tracé 60" d="M150.91,20A12.43,12.43,0,1,1,138.48,7.55h0A12.44,12.44,0,0,1,150.91,20Z" transform="translate(0 0)" style="fill:#fff;opacity:0.10000000149011612;isolation:isolate"/></g><path id="Tracé_61" data-name="Tracé 61" d="M146.44,20a8,8,0,1,1-8-8,8,8,0,0,1,8,8Z" transform="translate(0 0)" style="fill:#fff"/><g id="Groupe_34" data-name="Groupe 34"><rect id="Rectangle_2" data-name="Rectangle 2" x="134.55" y="27.41" width="7.86" height="7.05" rx="3.53" ry="3.53" style="fill:#81c7ed"/><g id="Groupe_32" data-name="Groupe 32" style="opacity:0.4000000059604645"><path id="Tracé_62" data-name="Tracé 62" d="M142.41,30.24v.45a28.53,28.53,0,0,1-3.69.21,38.56,38.56,0,0,1-4.17-.23v-.46A34.44,34.44,0,0,0,142.41,30.24Z" transform="translate(0 0)" style="fill:#fff"/></g><g id="Groupe_33" data-name="Groupe 33" style="opacity:0.4000000059604645"><path id="Tracé_63" data-name="Tracé 63" d="M142.41,32.37v.45a28.53,28.53,0,0,1-3.69.21,36.18,36.18,0,0,1-4.17-.24v-.45A34.44,34.44,0,0,0,142.41,32.37Z" transform="translate(0 0)" style="fill:#fff"/></g></g><g id="Groupe_38" data-name="Groupe 38"><g id="Groupe_37" data-name="Groupe 37"><g id="Groupe_35" data-name="Groupe 35"><path id="Tracé_64" data-name="Tracé 64" d="M136.11,28.28a.13.13,0,0,1-.11-.1L135.18,20a.12.12,0,0,1,.1-.13.13.13,0,0,1,.13.11l.82,8.18a.13.13,0,0,1-.1.13Z" transform="translate(0 0)" style="fill:#441165"/></g><g id="Groupe_36" data-name="Groupe 36"><path id="Tracé_65" data-name="Tracé 65" d="M140.84,28.28h0a.13.13,0,0,1-.1-.13l.83-8.18a.11.11,0,1,1,.22,0L141,28.18A.13.13,0,0,1,140.84,28.28Z" transform="translate(0 0)" style="fill:#441165"/></g></g><path id="Tracé_66" data-name="Tracé 66" d="M141.25,19.94a1.41,1.41,0,0,1-1.85,0,1.41,1.41,0,0,1-1.85,0,1.41,1.41,0,0,1-1.85,0,.11.11,0,0,0,0,.22,1.36,1.36,0,0,1,.8.28,1.64,1.64,0,0,0-.55,1.15c0,.59.34.86.68.86s.68-.23.68-.86a1.71,1.71,0,0,0-.46-1.15,1.3,1.3,0,0,1,.71-.28,1.36,1.36,0,0,1,.79.28,1.64,1.64,0,0,0-.55,1.15c0,.59.34.86.68.86s.68-.23.68-.86a1.71,1.71,0,0,0-.46-1.15,1.3,1.3,0,0,1,.71-.28,1.36,1.36,0,0,1,.79.28,1.64,1.64,0,0,0-.55,1.15c0,.59.34.86.68.86s.68-.23.68-.86a1.71,1.71,0,0,0-.46-1.15,1.3,1.3,0,0,1,.71-.28.11.11,0,0,0,0-.22h0Zm-4.17,1.65c0,.41-.16.63-.45.63s-.45-.24-.45-.63a1.46,1.46,0,0,1,.49-1,1.5,1.5,0,0,1,.41,1Zm1.85,0c0,.41-.16.63-.45.63S138,22,138,21.59a1.46,1.46,0,0,1,.49-1,1.45,1.45,0,0,1,.41,1Zm1.85,0c0,.41-.16.63-.45.63s-.45-.24-.45-.63a1.46,1.46,0,0,1,.49-1,1.5,1.5,0,0,1,.41,1Z" transform="translate(0 0)" style="fill:#81c7ed"/></g></g></g></g></svg>