<svg xmlns="http://www.w3.org/2000/svg" width="247.111" height="236.56" viewBox="0 0 247.111 236.56">
  <g id="Groupe_10151" data-name="Groupe 10151" transform="translate(-63.875 -253.586)">
    <path id="iconmonstr-star-3_2_" data-name="iconmonstr-star-3 (2)" d="M123.556.587l37.767,78.419,85.789,11.927-62.437,60.389,15.239,85.786L123.556,196,47.188,237.107l15.249-85.786L0,90.932,85.789,79.006Z" transform="translate(63.875 252.999)" fill="#006dd3" opacity="0.181"/>
    <g id="Groupe_10150" data-name="Groupe 10150" transform="translate(4 135)">
      <g id="Groupe_38" data-name="Groupe 38" transform="translate(71.368 177.918)">
        <ellipse id="Ellipse_18" data-name="Ellipse 18" cx="53.515" cy="6.053" rx="53.515" ry="6.053" transform="translate(57.842 165.121)" fill="#88d1d0" opacity="0.3"/>
        <rect id="Rectangle_27" data-name="Rectangle 27" width="27.607" height="9.358" transform="translate(11.945 10.807)" fill="#4d4d4d"/>
        <rect id="Rectangle_28" data-name="Rectangle 28" width="27.607" height="3.224" transform="translate(11.945 16.941)" fill="#333"/>
        <rect id="Rectangle_29" data-name="Rectangle 29" width="14.505" height="30.972" rx="4.987" fill="gray"/>
        <rect id="Rectangle_30" data-name="Rectangle 30" width="14.505" height="30.972" rx="4.987" transform="translate(36.991)" fill="gray"/>
        <rect id="Rectangle_31" data-name="Rectangle 31" width="14.505" height="23.017" rx="4.299" transform="translate(0 3.977)" fill="#999"/>
        <rect id="Rectangle_32" data-name="Rectangle 32" width="14.505" height="23.017" rx="4.299" transform="translate(36.991 3.977)" fill="#999"/>
        <path id="Tracé_126" data-name="Tracé 126" d="M83.137,184.166h-.208V201.5a2.736,2.736,0,0,1-2.737,2.737H71.368v.208a2.736,2.736,0,0,0,2.737,2.737h9.032a2.736,2.736,0,0,0,2.737-2.737V186.9A2.737,2.737,0,0,0,83.137,184.166Z" transform="translate(-71.368 -180.189)" fill="#b3b3b3" opacity="0.3"/>
        <path id="Tracé_127" data-name="Tracé 127" d="M141.246,184.166h-.208V201.5a2.736,2.736,0,0,1-2.737,2.737h-8.824v.208a2.736,2.736,0,0,0,2.737,2.737h9.032a2.736,2.736,0,0,0,2.737-2.737V186.9A2.737,2.737,0,0,0,141.246,184.166Z" transform="translate(-92.486 -180.189)" fill="#b3b3b3" opacity="0.3"/>
        <rect id="Rectangle_33" data-name="Rectangle 33" width="27.607" height="9.358" transform="translate(185.067 10.807)" fill="#4d4d4d"/>
        <rect id="Rectangle_34" data-name="Rectangle 34" width="27.607" height="3.224" transform="translate(185.067 16.941)" fill="#333"/>
        <rect id="Rectangle_35" data-name="Rectangle 35" width="14.505" height="30.972" rx="4.987" transform="translate(173.122)" fill="gray"/>
        <rect id="Rectangle_36" data-name="Rectangle 36" width="14.505" height="30.972" rx="4.987" transform="translate(210.113)" fill="gray"/>
        <rect id="Rectangle_37" data-name="Rectangle 37" width="14.505" height="23.017" rx="4.299" transform="translate(173.122 3.977)" fill="#999"/>
        <rect id="Rectangle_38" data-name="Rectangle 38" width="14.505" height="23.017" rx="4.299" transform="translate(210.113 3.977)" fill="#999"/>
        <path id="Tracé_128" data-name="Tracé 128" d="M355.091,184.166h-.207V201.5a2.737,2.737,0,0,1-2.737,2.737h-8.824v.208a2.736,2.736,0,0,0,2.737,2.737h9.031a2.737,2.737,0,0,0,2.737-2.737V186.9A2.737,2.737,0,0,0,355.091,184.166Z" transform="translate(-170.201 -180.189)" fill="#b3b3b3" opacity="0.3"/>
        <path id="Tracé_129" data-name="Tracé 129" d="M413.2,184.166h-.208V201.5a2.736,2.736,0,0,1-2.737,2.737h-8.824v.208a2.736,2.736,0,0,0,2.737,2.737H413.2a2.737,2.737,0,0,0,2.737-2.737V186.9A2.737,2.737,0,0,0,413.2,184.166Z" transform="translate(-191.319 -180.189)" fill="#b3b3b3" opacity="0.3"/>
        <path id="Tracé_130" data-name="Tracé 130" d="M76.345,189.168a1.582,1.582,0,1,1-.887-2.343A1.8,1.8,0,0,1,76.345,189.168Z" transform="translate(-72.073 -181.136)" fill="#f2f2f2" opacity="0.3"/>
        <path id="Tracé_131" data-name="Tracé 131" d="M99.74,198.243c-1.642.049-2.988-.445-3.007-1.1s1.295-1.231,2.937-1.28,2.987.445,3.007,1.1S101.381,198.194,99.74,198.243Z" transform="translate(-80.586 -184.437)" fill="#f2f2f2" opacity="0.3"/>
        <path id="Tracé_132" data-name="Tracé 132" d="M134.064,189.168a1.582,1.582,0,1,1-.887-2.343A1.8,1.8,0,0,1,134.064,189.168Z" transform="translate(-93.049 -181.136)" fill="#f2f2f2" opacity="0.3"/>
        <path id="Tracé_133" data-name="Tracé 133" d="M371.283,198.243c-1.641.049-2.988-.445-3.007-1.1s1.295-1.231,2.937-1.28,2.988.445,3.007,1.1S372.925,198.194,371.283,198.243Z" transform="translate(-179.269 -184.437)" fill="#f2f2f2" opacity="0.3"/>
        <path id="Tracé_134" data-name="Tracé 134" d="M405.607,189.168a1.582,1.582,0,1,1-.887-2.343A1.8,1.8,0,0,1,405.607,189.168Z" transform="translate(-191.732 -181.136)" fill="#f2f2f2" opacity="0.3"/>
        <path id="Tracé_135" data-name="Tracé 135" d="M347.888,189.168a1.582,1.582,0,1,1-.887-2.343A1.8,1.8,0,0,1,347.888,189.168Z" transform="translate(-170.756 -181.136)" fill="#f2f2f2" opacity="0.3"/>
        <path id="Tracé_136" data-name="Tracé 136" d="M113.242,201.287S85.253,260.05,147.035,260.05" transform="translate(-84.287 -186.411)" fill="none" stroke="#81c7ed" stroke-linecap="round" stroke-linejoin="round" stroke-width="10.457"/>
        <path id="Tracé_137" data-name="Tracé 137" d="M360.582,201.287s27.989,58.763-33.794,58.763" transform="translate(-164.192 -186.411)" fill="none" stroke="#81c7ed" stroke-linecap="round" stroke-linejoin="round" stroke-width="10.457"/>
        <path id="Tracé_138" data-name="Tracé 138" d="M211.757,367.717s-12.267,27.871,2.354,46.848H198.925" transform="translate(-117.724 -246.894)" fill="none" stroke="#81c7ed" stroke-linecap="round" stroke-linejoin="round" stroke-width="13.042"/>
        <path id="Tracé_139" data-name="Tracé 139" d="M272.168,367.717s12.266,27.871-2.354,46.848H285" transform="translate(-143.486 -246.894)" fill="none" stroke="#81c7ed" stroke-linecap="round" stroke-linejoin="round" stroke-width="13.042"/>
        <g id="Groupe_37" data-name="Groupe 37" transform="translate(45.338 13.853)">
          <g id="Groupe_34" data-name="Groupe 34">
            <path id="Tracé_140" data-name="Tracé 140" d="M195.851,199.679a12.759,12.759,0,0,0-11.744,7.768,13.147,13.147,0,0,0-18.949,9.351,5.787,5.787,0,0,0-7.128,7.739c-5.046,1.8-7.179,7.773-5.045,12.646a10.773,10.773,0,0,0-5.352,15.225,16.433,16.433,0,0,0,1.517,24.985,9.73,9.73,0,0,0,4.683,14.932,15.123,15.123,0,0,0,19.788,16.758,18.806,18.806,0,0,0,34.985-9.586V212.435A12.756,12.756,0,0,0,195.851,199.679Z" transform="translate(-142.589 -199.679)" fill="#ef7668"/>
            <path id="Tracé_141" data-name="Tracé 141" d="M204.824,200.112a15.489,15.489,0,0,1,4.685,11.031v37.671a14.652,14.652,0,0,1-24.288-.08,14.477,14.477,0,0,1,1.345,5.667,18.933,18.933,0,0,0,3.511,3.561,10.4,10.4,0,0,0,4.674,2.636c1.149.216,2.313.369,3.428.547a18.9,18.9,0,0,0,5.466.315,8.881,8.881,0,0,1,1.814-.632c.177-.031.355-.057.532-.083a6.467,6.467,0,0,0,.7-.406c.98-.659,1.816-1.543,2.813-2.183V292.3a15.525,15.525,0,0,1-30.818,2.681,10.045,10.045,0,0,1-18.684,1.005,15.12,15.12,0,0,0,19.945,13.255,18.806,18.806,0,0,0,34.985-9.586V212.593A12.76,12.76,0,0,0,204.824,200.112Z" transform="translate(-148.919 -199.836)" fill="#c94b59" opacity="0.2"/>
            <path id="Tracé_142" data-name="Tracé 142" d="M160.141,345.215a15.123,15.123,0,0,0,19.788,16.758" transform="translate(-148.895 -252.569)" fill="none" stroke="#ef564b" stroke-miterlimit="10" stroke-width="4.022"/>
            <path id="Tracé_143" data-name="Tracé 143" d="M224.8,219.718v87.061a18.806,18.806,0,0,1-34.985,9.586l-2.668-4.983" transform="translate(-158.782 -206.962)" fill="none" stroke="#ff6a6b" stroke-miterlimit="10" stroke-width="4.022"/>
            <path id="Tracé_144" data-name="Tracé 144" d="M147.634,282.51a16.433,16.433,0,0,0,1.517,24.985" transform="translate(-142.589 -229.781)" fill="none" stroke="#ef564b" stroke-miterlimit="10" stroke-width="4.022"/>
            <path id="Tracé_145" data-name="Tracé 145" d="M163.492,238.728c-3.765,1.117-7.606,7.432-5.045,12.646" transform="translate(-148.05 -213.87)" fill="none" stroke="#ef564b" stroke-miterlimit="10" stroke-width="3.217"/>
            <path id="Tracé_146" data-name="Tracé 146" d="M196.992,211.05a13.147,13.147,0,0,0-18.949,9.351" transform="translate(-155.474 -203.283)" fill="none" stroke="#ef564b" stroke-miterlimit="10" stroke-width="4.022"/>
            <path id="Tracé_147" data-name="Tracé 147" d="M206.219,212.435a12.756,12.756,0,1,1,25.513,0V299.5" transform="translate(-165.713 -199.679)" fill="none" stroke="#ef564b" stroke-miterlimit="10" stroke-width="4.022"/>
            <path id="Tracé_148" data-name="Tracé 148" d="M169.412,237.326a5.912,5.912,0,1,1,6.942-9.407" transform="translate(-151.193 -209.313)" fill="none" stroke="#ef564b" stroke-miterlimit="10" stroke-width="4.022"/>
            <path id="Tracé_149" data-name="Tracé 149" d="M151.954,276.314a11.14,11.14,0,0,1,7.617-19.271" transform="translate(-144.712 -220.526)" fill="none" stroke="#ef564b" stroke-miterlimit="10" stroke-width="4.022"/>
            <path id="Tracé_150" data-name="Tracé 150" d="M160.089,335.378a10.015,10.015,0,0,1-4.266-19.075" transform="translate(-145.31 -242.062)" fill="none" stroke="#ef564b" stroke-miterlimit="10" stroke-width="4.022"/>
            <path id="Tracé_151" data-name="Tracé 151" d="M224.634,347.237A18.973,18.973,0,1,1,195.052,331.5" transform="translate(-158.615 -247.586)" fill="none" stroke="#ef564b" stroke-miterlimit="10" stroke-width="4.709"/>
            <path id="Tracé_152" data-name="Tracé 152" d="M199.487,273.126a14.977,14.977,0,0,0,24.757,11.343" transform="translate(-163.267 -226.371)" fill="none" stroke="#ef564b" stroke-miterlimit="10" stroke-width="4.709"/>
            <path id="Tracé_153" data-name="Tracé 153" d="M179.58,277.457a10.175,10.175,0,0,0,16.819,7.706" transform="translate(-156.032 -227.945)" fill="none" stroke="#ef564b" stroke-miterlimit="10" stroke-width="5.63"/>
            <path id="Tracé_154" data-name="Tracé 154" d="M205.722,226.945a10.175,10.175,0,0,0,16.819,7.706" transform="translate(-165.533 -209.588)" fill="none" stroke="#ef564b" stroke-miterlimit="10" stroke-width="5.63"/>
            <path id="Tracé_155" data-name="Tracé 155" d="M196.738,310.65a10.174,10.174,0,0,0,16.818,7.706" transform="translate(-162.268 -240.008)" fill="none" stroke="#ef564b" stroke-miterlimit="10" stroke-width="4.709"/>
            <path id="Tracé_156" data-name="Tracé 156" d="M191.4,317.683a10.175,10.175,0,0,1-17.341-6.443" transform="translate(-154.026 -240.222)" fill="none" stroke="#ef564b" stroke-miterlimit="10" stroke-width="5.63"/>
          </g>
          <g id="Groupe_36" data-name="Groupe 36" transform="translate(66.019)">
            <path id="Tracé_157" data-name="Tracé 157" d="M259.054,199.679a12.758,12.758,0,0,1,11.743,7.768,13.148,13.148,0,0,1,18.95,9.351,5.786,5.786,0,0,1,7.127,7.739c5.046,1.8,7.179,7.773,5.045,12.646a10.773,10.773,0,0,1,5.352,15.225,16.432,16.432,0,0,1-1.518,24.985,9.729,9.729,0,0,1-4.683,14.932,15.123,15.123,0,0,1-19.789,16.758A18.806,18.806,0,0,1,246.3,299.5V212.435A12.756,12.756,0,0,1,259.054,199.679Z" transform="translate(-246.297 -199.679)" fill="#ef7668"/>
            <path id="Tracé_158" data-name="Tracé 158" d="M303.122,277.826a8.838,8.838,0,0,1-7.855,4.949,8.744,8.744,0,0,1-6.282-2.709c-.067.169-.133.339-.208.5-.8,1.786-2.422,3.057-3.177,4.844-.363.858,2.392,1.733,3.1,1.931a14.65,14.65,0,0,0,5.189.468,8.7,8.7,0,0,1,4.678-1.792,3.314,3.314,0,0,1,.656-.547c2.43-1.548,3.713-4.627,3.9-7.433C303.122,277.969,303.12,277.9,303.122,277.826Z" transform="translate(-260.569 -228.079)" fill="#c94b59" opacity="0.3"/>
            <path id="Tracé_159" data-name="Tracé 159" d="M301.911,315.823a8.794,8.794,0,0,1-7.1-3.689,20.9,20.9,0,0,1-.824,4.781,5.19,5.19,0,0,1-.878,1.565c.02.011.039.018.059.03,2.7,1.521,6.308,2.9,9.43,1.775a11.125,11.125,0,0,0,4.152-2.574,14.5,14.5,0,0,0,1.94-3.234,2.352,2.352,0,0,1,.14-1.01c.172-.455.181-.94.335-1.393.046-.136.1-.269.154-.4A8.815,8.815,0,0,1,301.911,315.823Z" transform="translate(-263.31 -240.379)" fill="#c94b59" opacity="0.3"/>
            <path id="Tracé_160" data-name="Tracé 160" d="M313.42,296.891a16.34,16.34,0,0,0-1.761-7.4,17.151,17.151,0,0,1,.105,1.879,17.742,17.742,0,0,1-8.826,15.2,8.169,8.169,0,0,1,2.271,5.614A8.291,8.291,0,0,1,297,320.4c-.032,0-.062,0-.094-.005a7.455,7.455,0,0,1-14.764-.188,18,18,0,0,0-3.159-2.879,7.41,7.41,0,0,1-1.138-.488,18.859,18.859,0,0,1,1.706,7.82,19.454,19.454,0,0,1-19.274,19.274,19.033,19.033,0,0,1-10.939-3.488,18.806,18.806,0,0,0,33.052,1.28,15.123,15.123,0,0,0,19.789-16.758,9.729,9.729,0,0,0,4.683-14.932A16.412,16.412,0,0,0,313.42,296.891Z" transform="translate(-247.401 -232.319)" fill="#c94b59" opacity="0.2"/>
            <g id="Groupe_35" data-name="Groupe 35" transform="translate(35.996 7.515)" opacity="0.3">
              <path id="Tracé_161" data-name="Tracé 161" d="M304.505,212.407a13.164,13.164,0,0,0-1.662-.923c.108.389.2.785.274,1.187A5.818,5.818,0,0,1,304.505,212.407Z" transform="translate(-302.843 -211.484)" fill="#c94b59"/>
            </g>
            <path id="Tracé_162" data-name="Tracé 162" d="M321.044,345.215a15.123,15.123,0,0,1-19.789,16.758" transform="translate(-266.27 -252.569)" fill="none" stroke="#ef564b" stroke-miterlimit="10" stroke-width="4.022"/>
            <path id="Tracé_163" data-name="Tracé 163" d="M246.3,219.718v87.061a18.806,18.806,0,0,0,34.985,9.586l2.668-4.983" transform="translate(-246.297 -206.962)" fill="none" stroke="#ff6a6b" stroke-miterlimit="10" stroke-width="4.022"/>
            <path id="Tracé_164" data-name="Tracé 164" d="M341.215,282.51a16.432,16.432,0,0,1-1.518,24.985" transform="translate(-280.24 -229.781)" fill="none" stroke="#ef564b" stroke-miterlimit="10" stroke-width="4.022"/>
            <path id="Tracé_165" data-name="Tracé 165" d="M325.748,238.728c3.766,1.117,7.607,7.432,5.045,12.646" transform="translate(-275.171 -213.87)" fill="none" stroke="#ef564b" stroke-miterlimit="10" stroke-width="3.217"/>
            <path id="Tracé_166" data-name="Tracé 166" d="M284.784,211.05a13.148,13.148,0,0,1,18.95,9.351" transform="translate(-260.284 -203.283)" fill="none" stroke="#ef564b" stroke-miterlimit="10" stroke-width="4.022"/>
            <path id="Tracé_167" data-name="Tracé 167" d="M271.811,212.435a12.757,12.757,0,0,0-25.514,0V299.5" transform="translate(-246.297 -199.679)" fill="none" stroke="#ef564b" stroke-miterlimit="10" stroke-width="4.022"/>
            <path id="Tracé_168" data-name="Tracé 168" d="M317.423,237.326a5.912,5.912,0,1,0-6.943-9.407" transform="translate(-269.622 -209.313)" fill="none" stroke="#ef564b" stroke-miterlimit="10" stroke-width="4.022"/>
            <path id="Tracé_169" data-name="Tracé 169" d="M334.281,276.314a11.141,11.141,0,0,0-7.617-19.271" transform="translate(-275.504 -220.526)" fill="none" stroke="#ef564b" stroke-miterlimit="10" stroke-width="4.022"/>
            <path id="Tracé_170" data-name="Tracé 170" d="M326.788,335.378a10.015,10.015,0,0,0,4.266-19.075" transform="translate(-275.549 -242.062)" fill="none" stroke="#ef564b" stroke-miterlimit="10" stroke-width="4.022"/>
            <path id="Tracé_171" data-name="Tracé 171" d="M246.3,347.237A18.974,18.974,0,1,0,275.879,331.5" transform="translate(-246.297 -247.586)" fill="none" stroke="#ef564b" stroke-miterlimit="10" stroke-width="4.709"/>
            <path id="Tracé_172" data-name="Tracé 172" d="M278.975,273.126a14.977,14.977,0,0,1-24.757,11.343" transform="translate(-249.176 -226.371)" fill="none" stroke="#ef564b" stroke-miterlimit="10" stroke-width="4.709"/>
            <path id="Tracé_173" data-name="Tracé 173" d="M303.414,277.457a10.175,10.175,0,0,1-16.819,7.706" transform="translate(-260.942 -227.945)" fill="none" stroke="#ef564b" stroke-miterlimit="10" stroke-width="5.63"/>
            <path id="Tracé_174" data-name="Tracé 174" d="M277.272,226.945a10.175,10.175,0,0,1-16.819,7.706" transform="translate(-251.442 -209.588)" fill="none" stroke="#ef564b" stroke-miterlimit="10" stroke-width="5.63"/>
            <path id="Tracé_175" data-name="Tracé 175" d="M286.256,310.65a10.175,10.175,0,0,1-16.819,7.706" transform="translate(-254.706 -240.008)" fill="none" stroke="#ef564b" stroke-miterlimit="10" stroke-width="4.709"/>
            <path id="Tracé_176" data-name="Tracé 176" d="M291.293,317.683a10.175,10.175,0,0,0,17.341-6.443" transform="translate(-262.649 -240.222)" fill="none" stroke="#ef564b" stroke-miterlimit="10" stroke-width="5.63"/>
          </g>
        </g>
        <path id="Tracé_177" data-name="Tracé 177" d="M174.754,234.268a1.582,1.582,0,1,1-.887-2.343A1.8,1.8,0,0,1,174.754,234.268Z" transform="translate(-107.836 -197.526)" fill="#f2f2f2" opacity="0.3"/>
        <path id="Tracé_178" data-name="Tracé 178" d="M158.182,324.153a1.582,1.582,0,1,1-.887-2.343A1.8,1.8,0,0,1,158.182,324.153Z" transform="translate(-101.814 -230.192)" fill="#f2f2f2" opacity="0.3"/>
        <path id="Tracé_179" data-name="Tracé 179" d="M285.93,277.887a1.582,1.582,0,1,1-.887-2.343A1.8,1.8,0,0,1,285.93,277.887Z" transform="translate(-148.24 -213.378)" fill="#f2f2f2" opacity="0.3"/>
        <path id="Tracé_180" data-name="Tracé 180" d="M157.5,268.2c-.756,2.488-2.024,4.306-2.832,4.061s-.85-2.462-.095-4.95,2.024-4.306,2.833-4.06S158.256,265.717,157.5,268.2Z" transform="translate(-101.409 -208.923)" fill="#f2f2f2" opacity="0.3"/>
        <path id="Tracé_181" data-name="Tracé 181" d="M216.557,212.2c-1.24,2.019-2.987,3.2-3.9,2.638s-.654-2.655.586-4.674,2.987-3.2,3.9-2.638S217.8,210.181,216.557,212.2Z" transform="translate(-122.515 -188.627)" fill="#f2f2f2" opacity="0.3"/>
        <path id="Tracé_182" data-name="Tracé 182" d="M258.668,211.267c-1.239,2.019-2.987,3.2-3.9,2.638s-.654-2.655.586-4.674,2.987-3.2,3.9-2.638S259.907,209.248,258.668,211.267Z" transform="translate(-137.818 -188.288)" fill="#f2f2f2" opacity="0.3"/>
      </g>
      <g id="Groupe_10149" data-name="Groupe 10149" transform="translate(148.986 211.454)">
        <g id="Groupe_23" data-name="Groupe 23" transform="translate(17.804 61.925)">
          <g id="Groupe_22" data-name="Groupe 22">
            <path id="Tracé_51" data-name="Tracé 51" d="M388.44,475.342a8.436,8.436,0,0,1-2.877,6.093,16.291,16.291,0,0,1-6.6,3.646,23.581,23.581,0,0,1-13.159,0,16.333,16.333,0,0,1-6.6-3.646,8.453,8.453,0,0,1-2.874-6.093c0-4.3,3.818-2.333,9.322-.949a24.362,24.362,0,0,0,13.467,0C384.618,473.009,388.44,471.041,388.44,475.342Z" transform="translate(-356.325 -472.719)" fill="#81c7ed"/>
          </g>
          <path id="Tracé_52" data-name="Tracé 52" d="M395.259,494.325a23.575,23.575,0,0,1-13.159,0,6.646,6.646,0,0,1,13.159,0Z" transform="translate(-372.624 -482.773)" fill="#ef564b"/>
        </g>
        <g id="Groupe_24" data-name="Groupe 24" transform="translate(0 35.488)">
          <path id="Tracé_53" data-name="Tracé 53" d="M331.759,443.365l.055-.393c.016-.128.035-.286.058-.472.01-.094.027-.189.034-.3s0-.248,0-.384c0-.271-.007-.58-.024-.911-.032-.317-.087-.659-.139-1.028s-.173-.748-.27-1.16-.288-.814-.446-1.255c-.2-.421-.41-.861-.661-1.3a12.187,12.187,0,0,0-3.367-3.654c-.249-.167-.5-.337-.757-.5s-.539-.291-.811-.437l-.415-.213-.434-.178c-.294-.111-.585-.236-.888-.33a12.244,12.244,0,0,0-1.866-.435,7.166,7.166,0,0,0-.958-.113l-.482-.027-.241-.013-.121-.006-.06,0h-.046c-.052,0,.1,0-.121,0l-.812.047-.2.012a1.9,1.9,0,0,0-.227.022l-.516.075a8.007,8.007,0,0,0-1,.188l-.922.255c-.3.094-.594.22-.888.33l-.434.178-.415.213c-.273.146-.553.275-.811.437s-.508.335-.757.5a12.2,12.2,0,0,0-3.367,3.654c-.251.439-.466.879-.661,1.3-.158.44-.339.846-.446,1.255s-.21.793-.27,1.16-.108.711-.14,1.028c-.014.32-.014.613-.02.875q0,.2,0,.371c.006.117.022.226.031.327.022.2.041.372.056.51.035.275.054.421.054.421a.812.812,0,0,0,1.591.1l.026-.1.093-.359a10.167,10.167,0,0,1,.266-.985l.224-.677c.111-.237.21-.5.322-.766s.283-.538.429-.825.356-.563.538-.861c.215-.28.425-.577.668-.861a9.971,9.971,0,0,1,.8-.828,10.173,10.173,0,0,1,1.951-1.456,10.853,10.853,0,0,1,2.358-.982l.635-.145a1.591,1.591,0,0,1,.3-.053l.286-.041.286-.048a.921.921,0,0,1,.177-.017l.2-.008.812-.035c-.21.005-.052,0-.1,0h.01l.021,0,.041,0,.082,0,.165.007.33.014a3.954,3.954,0,0,1,.654.068c.214.041.437.042.646.1l.636.145a10.823,10.823,0,0,1,2.358.982,10.178,10.178,0,0,1,1.951,1.456,10.026,10.026,0,0,1,.8.828c.243.283.452.58.667.861.182.3.382.577.538.861s.312.557.429.825.211.528.322.766l.22.641.1.282c.027.1.047.2.068.29l.106.463c.061.252.094.386.094.386a.823.823,0,0,0,1.615-.082Z" transform="translate(-307.897 -430.244)" fill="#81c7ed"/>
          <path id="Tracé_54" data-name="Tracé 54" d="M450.851,443.365s.019-.136.055-.393c.016-.128.035-.286.058-.472.01-.094.027-.189.034-.3s0-.248,0-.384c-.005-.271-.007-.58-.024-.911-.032-.317-.087-.659-.139-1.028s-.173-.748-.271-1.16-.288-.814-.446-1.255c-.2-.421-.41-.861-.661-1.3a12.18,12.18,0,0,0-3.367-3.654c-.249-.167-.5-.337-.757-.5s-.538-.291-.811-.437l-.415-.213-.435-.178c-.293-.111-.585-.236-.888-.33a12.245,12.245,0,0,0-1.866-.435,7.167,7.167,0,0,0-.958-.113l-.483-.027-.241-.013-.12-.006-.061,0h-.045c-.053,0,.1,0-.122,0l-.812.047-.2.012a1.9,1.9,0,0,0-.227.022l-.516.075a8.014,8.014,0,0,0-1,.188c-.308.085-.615.171-.921.255s-.594.22-.888.33l-.434.178-.415.213c-.273.146-.553.275-.811.437s-.507.335-.756.5a12.154,12.154,0,0,0-3.367,3.654c-.251.439-.466.879-.661,1.3-.159.44-.339.846-.447,1.255s-.209.793-.27,1.16-.107.711-.139,1.028c-.014.32-.014.613-.02.875q0,.2,0,.371c.006.117.022.226.032.327.022.2.04.372.056.51.035.275.055.421.055.421a.812.812,0,0,0,1.591.1l.027-.1.093-.359c.067-.23.116-.572.267-.985.068-.2.143-.431.224-.677.111-.237.21-.5.322-.766s.282-.538.428-.825.356-.563.538-.861c.215-.28.425-.577.668-.861a9.921,9.921,0,0,1,.8-.828,10.187,10.187,0,0,1,1.952-1.456,10.867,10.867,0,0,1,2.358-.982l.636-.145a1.589,1.589,0,0,1,.3-.053l.286-.041.286-.048a.917.917,0,0,1,.176-.017l.2-.008.813-.035c-.21.005-.052,0-.1,0h.01l.021,0,.041,0,.083,0,.164.007.33.014a3.951,3.951,0,0,1,.653.068c.215.041.437.042.647.1l.635.145a10.817,10.817,0,0,1,2.359.982,10.18,10.18,0,0,1,1.951,1.456,9.956,9.956,0,0,1,.8.828c.243.283.453.58.667.861.182.3.382.577.538.861s.312.557.428.825.211.528.322.766l.221.641c.035.1.067.193.1.282s.047.2.068.29c.041.182.077.337.105.463.061.252.095.386.095.386a.823.823,0,0,0,1.615-.082Z" transform="translate(-383.205 -430.244)" fill="#81c7ed"/>
        </g>
        <g id="Groupe_28" data-name="Groupe 28" transform="translate(2.381 0)">
          <g id="Groupe_26" data-name="Groupe 26">
            <path id="Tracé_55" data-name="Tracé 55" d="M316.195,322.346a1.82,1.82,0,0,1-1.778-2.215c.032-.142,3.35-14.248,18.872-15.839a1.82,1.82,0,1,1,.371,3.62,17.826,17.826,0,0,0-15.691,13.011A1.82,1.82,0,0,1,316.195,322.346Z" transform="translate(-314.373 -304.282)" fill="#81c7ed"/>
          </g>
          <g id="Groupe_27" data-name="Groupe 27" transform="translate(42.041)">
            <path id="Tracé_56" data-name="Tracé 56" d="M447.825,322.346a1.821,1.821,0,0,1-1.774-1.418,17.643,17.643,0,0,0-15.692-13.016,1.82,1.82,0,0,1,.371-3.62c15.521,1.591,18.84,15.7,18.872,15.839a1.821,1.821,0,0,1-1.778,2.215Z" transform="translate(-428.725 -304.282)" fill="#81c7ed"/>
          </g>
        </g>
      </g>
    </g>
  </g>
</svg>
