<svg id="Calque_1" data-name="Calque 1" xmlns="http://www.w3.org/2000/svg" viewBox="0 0 342 266.53"><title>4</title><g id="Groupe_12776" data-name="Groupe 12776"><g id="Groupe_12773" data-name="Groupe 12773"><g id="Groupe_12772" data-name="Groupe 12772"><g id="Groupe_12753" data-name="Groupe 12753"><path id="Tracé_26312" data-name="Tracé 26312" d="M251.05,132.42a.39.39,0,0,1,.17-.29.17.17,0,0,1,.1,0l2.79.38,2.39.33a.86.86,0,0,1,.44.15l45.8,27.87.1.06h0l2.34,1.4a1.2,1.2,0,0,1,.5,1.14,3.75,3.75,0,0,1-1.78,2.93,1.22,1.22,0,0,1-1.14.13l-.12-.07-2.4-1.42-45.82-27.89a.81.81,0,0,1-.3-.25s-1.5-2.13-1.5-2.13l-1.59-2.26A.22.22,0,0,1,251.05,132.42Z" transform="translate(0 0)" style="opacity:0.10000000149011612;isolation:isolate"/><g id="Groupe_12724" data-name="Groupe 12724" style="opacity:0.10000000149011612"><path id="Tracé_26313" data-name="Tracé 26313" d="M303.28,151.25,336.6,133l-32.12-19.81-33.4,18.26Z" transform="translate(0 0)"/></g><path id="Tracé_26314" data-name="Tracé 26314" d="M304.08,118.49l30.83-16.86-30-18.28-30.84,16.87Z" transform="translate(0 0)" style="fill:#e5f7ff"/><g id="Groupe_12737" data-name="Groupe 12737"><g id="Groupe_12725" data-name="Groupe 12725"><path id="Tracé_26315" data-name="Tracé 26315" d="M303.34,148.38l30.84-16.86.69-30L304,118.42Z" transform="translate(0 0)" style="fill:#c5dcfc"/></g><g id="Groupe_12726" data-name="Groupe 12726"><path id="Tracé_26316" data-name="Tracé 26316" d="M304,121l30.78-16.83v-.38L304,120.61Z" transform="translate(0 0)" style="fill:#bbd1f4"/></g><g id="Groupe_12727" data-name="Groupe 12727"><path id="Tracé_26317" data-name="Tracé 26317" d="M313,118.07l18.91-10.35v-.38L313,117.69Z" transform="translate(0 0)" style="fill:#bbd1f4"/></g><g id="Groupe_12728" data-name="Groupe 12728"><path id="Tracé_26318" data-name="Tracé 26318" d="M303.88,125.08l30.78-16.84v-.38l-30.78,16.83Z" transform="translate(0 0)" style="fill:#bbd1f4"/></g><g id="Groupe_12729" data-name="Groupe 12729"><path id="Tracé_26319" data-name="Tracé 26319" d="M303.84,127.12l30.78-16.83v-.38l-30.78,16.83Z" transform="translate(0 0)" style="fill:#bbd1f4"/></g><g id="Groupe_12730" data-name="Groupe 12730"><path id="Tracé_26320" data-name="Tracé 26320" d="M303.79,129.16l30.78-16.83V112L303.8,128.78Z" transform="translate(0 0)" style="fill:#bbd1f4"/></g><g id="Groupe_12731" data-name="Groupe 12731"><path id="Tracé_26321" data-name="Tracé 26321" d="M307.33,129.24l19.5-10.67v-.38l-19.5,10.67Z" transform="translate(0 0)" style="fill:#bbd1f4"/></g><g id="Groupe_12732" data-name="Groupe 12732"><path id="Tracé_26322" data-name="Tracé 26322" d="M303.7,133.24l30.77-16.83V116L303.7,132.86Z" transform="translate(0 0)" style="fill:#bbd1f4"/></g><g id="Groupe_12733" data-name="Groupe 12733"><path id="Tracé_26323" data-name="Tracé 26323" d="M303.6,137.33l30.78-16.83v-.38L303.61,137Z" transform="translate(0 0)" style="fill:#bbd1f4"/></g><g id="Groupe_12734" data-name="Groupe 12734"><path id="Tracé_26324" data-name="Tracé 26324" d="M305,138.59l25.33-13.85v-.38L305,138.21Z" transform="translate(0 0)" style="fill:#bbd1f4"/></g><g id="Groupe_12735" data-name="Groupe 12735"><path id="Tracé_26325" data-name="Tracé 26325" d="M303.51,141.41l30.78-16.83v-.38L303.51,141Z" transform="translate(0 0)" style="fill:#bbd1f4"/></g><g id="Groupe_12736" data-name="Groupe 12736"><path id="Tracé_26326" data-name="Tracé 26326" d="M303.41,145.49l30.78-16.83v-.38l-30.78,16.83Z" transform="translate(0 0)" style="fill:#bbd1f4"/></g></g><g id="Groupe_12750" data-name="Groupe 12750"><g id="Groupe_12738" data-name="Groupe 12738"><path id="Tracé_26327" data-name="Tracé 26327" d="M273.36,130.21l30,18.27.7-30-30-18.27Z" transform="translate(0 0)" style="fill:#bbd1f4"/></g><g id="Groupe_12739" data-name="Groupe 12739"><path id="Tracé_26328" data-name="Tracé 26328" d="M274,102.82l30,18.24v-.38l-30-18.24Z" transform="translate(0 0)" style="fill:#a9bfec"/></g><g id="Groupe_12740" data-name="Groupe 12740"><path id="Tracé_26329" data-name="Tracé 26329" d="M282.79,110.24l18.42,11.21v-.38L282.8,109.86Z" transform="translate(0 0)" style="fill:#a9bfec"/></g><g id="Groupe_12741" data-name="Groupe 12741"><path id="Tracé_26330" data-name="Tracé 26330" d="M273.9,106.9l30,18.24v-.38l-30-18.24Z" transform="translate(0 0)" style="fill:#a9bfec"/></g><g id="Groupe_12742" data-name="Groupe 12742"><path id="Tracé_26331" data-name="Tracé 26331" d="M273.86,108.94l30,18.24v-.38l-30-18.24Z" transform="translate(0 0)" style="fill:#a9bfec"/></g><g id="Groupe_12743" data-name="Groupe 12743"><path id="Tracé_26332" data-name="Tracé 26332" d="M273.81,111l30,18.24v-.38l-30-18.24Z" transform="translate(0 0)" style="fill:#a9bfec"/></g><g id="Groupe_12744" data-name="Groupe 12744"><path id="Tracé_26333" data-name="Tracé 26333" d="M277.25,115.15l19,11.56v-.38l-19-11.56Z" transform="translate(0 0)" style="fill:#a9bfec"/></g><g id="Groupe_12745" data-name="Groupe 12745"><path id="Tracé_26334" data-name="Tracé 26334" d="M273.71,115.07l30,18.24v-.38l-30-18.24Z" transform="translate(0 0)" style="fill:#a9bfec"/></g><g id="Groupe_12746" data-name="Groupe 12746"><path id="Tracé_26335" data-name="Tracé 26335" d="M273.62,119.15l30,18.24V137l-30-18.24Z" transform="translate(0 0)" style="fill:#a9bfec"/></g><g id="Groupe_12747" data-name="Groupe 12747"><path id="Tracé_26336" data-name="Tracé 26336" d="M275,122l24.67,15v-.38l-24.66-15Z" transform="translate(0 0)" style="fill:#a9bfec"/></g><g id="Groupe_12748" data-name="Groupe 12748"><path id="Tracé_26337" data-name="Tracé 26337" d="M273.53,123.23l30,18.24v-.38l-30-18.24Z" transform="translate(0 0)" style="fill:#a9bfec"/></g><g id="Groupe_12749" data-name="Groupe 12749"><path id="Tracé_26338" data-name="Tracé 26338" d="M273.43,127.32l30,18.24v-.38l-30-18.24Z" transform="translate(0 0)" style="fill:#a9bfec"/></g></g><path id="Tracé_26339" data-name="Tracé 26339" d="M304.89,83.35l19.52,11.89-.05,12.11-20.28,11.14-30-18.27Z" transform="translate(0 0)" style="fill:#e5f7ff"/><path id="Tracé_26340" data-name="Tracé 26340" d="M324.27,107.4l-.1-12.31,9,1.41Z" transform="translate(0 0)" style="fill:#d1e7fc"/><path id="Tracé_26341" data-name="Tracé 26341" d="M297.76,106.52a2.81,2.81,0,0,0,1.08-.08c.43-.14.63-.44.48-.7l-.88.12s0,.07-.11.1a1.36,1.36,0,0,1-.53,0,3.29,3.29,0,0,1-2.36-1.12,1.16,1.16,0,0,1,.3-1.61h0a26.87,26.87,0,0,0,6.77,1.08,9,9,0,0,0,3.76-.47l0,0a.92.92,0,0,0,.61-.67.74.74,0,0,0-.18-.55h0a1.59,1.59,0,0,0,.72-.05c.35-.12.43-.39.21-.71a5.85,5.85,0,0,0-1.69-1.52c.34,0,.69,0,1.05,0h1c.71,0,1.16-.22,1.15-.52a.53.53,0,0,0-.24-.36,6.13,6.13,0,0,0-1.1-.72,7.15,7.15,0,0,1-.88-.54l0,0a1.48,1.48,0,0,1,.42,0l2.53.23.13-.53c-2.66-.51-5.41-.84-8.07-1.17-1.84-.22-3.74-.45-5.58-.74l-.47-.07c-.29,0-.33-.19-.34-.23s0-.18.25-.23c.56-.08,1.13-.13,1.7-.16a68.52,68.52,0,0,1,8.23.16c2.46.55,5,1,7.47,1.44a31,31,0,0,0,5.18.5c.64,0,1-.17,1-.45v-.16l-.24-.09a16.56,16.56,0,0,0-3.32-.8c-1.28-.21-2.65-.37-4.08-.49l-1.55-.14-4.37-.35c-1.45-.33-2.88-.69-4.3-1.06l-.49-.13a33.23,33.23,0,0,0-3.55-.83l-.16.52a32.68,32.68,0,0,1,3.39.79l.49.13,1.56.41c-1.84-.07-3.67-.09-5.48,0a16.32,16.32,0,0,0-1.85.18c-.56.09-.9.39-.84.74s.5.66,1.11.76l.46.07c1.88.29,3.79.52,5.64.75,1.43.17,2.88.35,4.33.56a.35.35,0,0,0-.2.34.61.61,0,0,0,.27.36,7.93,7.93,0,0,0,1,.62,6,6,0,0,1,1,.61l0,0a1.63,1.63,0,0,1-.31,0h-1c-.61,0-1.22,0-1.82,0A17.15,17.15,0,0,0,300,98a16.26,16.26,0,0,0-6.84.14A3.68,3.68,0,0,0,291,99.27c-.4.6-.18,1.38.57,2a9.06,9.06,0,0,0,2.87,1.5l.45.16a1.48,1.48,0,0,0-.31,2A4.41,4.41,0,0,0,297.76,106.52Zm12.36-10.74h.13l1.55.13c1.39.12,2.72.28,4,.48.72.11,1.44.26,2.15.44a30.67,30.67,0,0,1-4.49-.48C312.32,96.18,311.22,96,310.12,95.78Zm-6,5.31c-.21-.15-.37-.35-.28-.43a.67.67,0,0,1,.23-.1,6.64,6.64,0,0,1,.87-.16l.4.25a5.12,5.12,0,0,1,1.53,1.36.3.3,0,0,1,0,.08h0A6,6,0,0,1,304.08,101.09Zm-7.68,1.77a9.3,9.3,0,0,1,3-.57,36.37,36.37,0,0,1,4.67,0,3.85,3.85,0,0,1,1.7.39.37.37,0,0,1,.19.35c0,.13-.12.25-.33.33a7.69,7.69,0,0,1-3.2.38,25.33,25.33,0,0,1-6.06-.93Zm-4.07-1.8c-.57-.51-.75-1.1-.46-1.54a3.07,3.07,0,0,1,1.71-.9,14.68,14.68,0,0,1,6.19-.12,16.35,16.35,0,0,1,4.31,1.45,4.87,4.87,0,0,0-.52.12,2.19,2.19,0,0,0-.33.12.74.74,0,0,0-.22.14c-.31.28-.18.68.37,1.08a5.73,5.73,0,0,0,.62.38,39.62,39.62,0,0,0-4.75,0,9.48,9.48,0,0,0-3.78.82l-.6-.2a8.35,8.35,0,0,1-2.53-1.31Z" transform="translate(0 0)" style="fill:#7bbff4"/><g id="Groupe_12752" data-name="Groupe 12752"><path id="Tracé_26342" data-name="Tracé 26342" d="M251.05,130c0,.11.07.15.16.1a.38.38,0,0,0,.18-.29c0-.1-.07-.15-.17-.1A.39.39,0,0,0,251.05,130Z" transform="translate(0 0)" style="fill:#160000"/><path id="Tracé_26343" data-name="Tracé 26343" d="M251.07,130.05l1.58,2.26,1.46-2.26-2.79-.38Z" transform="translate(0 0)"/><path id="Tracé_26344" data-name="Tracé 26344" d="M252.5,132.09l1.65,2.36,2.39-4.06-2.73-.37Z" transform="translate(0 0)" style="fill:#f9f8f8"/><path id="Tracé_26345" data-name="Tracé 26345" d="M254.46,131.82l47.16,28.62,1.25-2-45.93-27.94a1.16,1.16,0,0,0-1.25.07A3.42,3.42,0,0,0,254.46,131.82Z" transform="translate(0 0)" style="fill:#fbc467"/><path id="Tracé_26346" data-name="Tracé 26346" d="M252.38,131.63c0,.56.38.8.87.53a2,2,0,0,0,.93-1.52c0-.56-.38-.8-.88-.53A2,2,0,0,0,252.38,131.63Z" transform="translate(0 0)" style="fill:#f9f8f8"/><path id="Tracé_26347" data-name="Tracé 26347" d="M253.9,133.52a1.17,1.17,0,0,0,.55,1.16l45.82,27.89,1.35-2.13-47.16-28.62A3.57,3.57,0,0,0,253.9,133.52Z" transform="translate(0 0)" style="fill:#eb9a2a"/><g id="Groupe_12751" data-name="Groupe 12751"><path id="Tracé_26348" data-name="Tracé 26348" d="M299.8,161.45c0,1.09.73,1.55,1.69,1a3.82,3.82,0,0,0,1.79-2.93c0-1.1-.74-1.56-1.7-1A3.75,3.75,0,0,0,299.8,161.45Z" transform="translate(0 0)" style="fill:#f9f8f8"/><path id="Tracé_26349" data-name="Tracé 26349" d="M305.25,159.89l-2.38-1.42-2.6,4.1,2.51,1.5Z" transform="translate(0 0)" style="fill:#f9f8f8"/><path id="Tracé_26350" data-name="Tracé 26350" d="M301.58,158.52a1.11,1.11,0,0,1,1.35,0,1.34,1.34,0,0,0-1,.17,3.79,3.79,0,0,0-1.78,2.94,1.26,1.26,0,0,0,.34,1,1.09,1.09,0,0,1-.66-1.2A3.79,3.79,0,0,1,301.58,158.52Z" transform="translate(0 0)" style="fill:#efefef"/><path id="Tracé_26351" data-name="Tracé 26351" d="M302.23,162.91c0,1.09.74,1.55,1.7,1a3.79,3.79,0,0,0,1.78-2.94c0-1.09-.73-1.55-1.69-1A3.83,3.83,0,0,0,302.23,162.91Z" transform="translate(0 0)" style="fill:#fefefe"/></g></g></g></g></g><g id="Groupe_10788" data-name="Groupe 10788"><g id="Groupe_10778" data-name="Groupe 10778"><path id="Tracé_22543" data-name="Tracé 22543" d="M9.55,94.64S-.34,133.31,0,148.9s.32,20.14,5,20.57c6.35.58,3.87-7.48,3.87-7.48s1.76,2.33,3.15,1.44S11.49,160,8,156.28s-5.29-4.38-2.35-20.55,11-34,10.34-38S9.55,94.64,9.55,94.64Z" transform="translate(0 0)" style="fill:#8595ba"/><g id="Groupe_10774" data-name="Groupe 10774"><path id="Tracé_22528" data-name="Tracé 22528" d="M188.78,88.61a14,14,0,0,1,.82-1.33,217,217,0,0,0,25.37.84c8.9-.32-5.25-31.45-9.91-40.69-.88-1.75-8.06-1.88-8.05-4s3.57-.62,3.57-.62-3.53-2.73-3.46-4.2,2.43-8.39,7-4.6,22.5,51.37,18.28,56.44c-3.25,3.89-23.44,4-32.65,3.8C189,92.5,187.94,90.18,188.78,88.61Z" transform="translate(0 0)" style="fill:#8595ba"/></g><g id="Groupe_10740" data-name="Groupe 10740"><g id="Groupe_10740-2" data-name="Groupe 10740-2"><g id="Groupe_10738" data-name="Groupe 10738"><g id="Groupe_34" data-name="Groupe 34"><g id="Groupe_25" data-name="Groupe 25"><path id="Tracé_87" data-name="Tracé 87" d="M76,114.86s4.28,66.43,2.14,68.41-13.89.2-16,3.86,18,3.46,20.52,1.2,0-73.47,0-73.47Z" transform="translate(0 0)" style="fill:#8595ba"/><path id="Tracé_88" data-name="Tracé 88" d="M136.77,113.28s-4.27,66.44-2.13,68.41,13.88.2,16,3.86-17.95,3.46-20.52,1.2,0-73.48,0-73.48Z" transform="translate(0 0)" style="fill:#8595ba"/></g><g id="Groupe_27" data-name="Groupe 27"><path id="Tracé_89" data-name="Tracé 89" d="M151.32,128.92c2.06.87,9,3.33,14.6-.27,6.67-4.26,6.67-9.32,6.67-9.32a19.44,19.44,0,0,0,19.46-4.54c9.33-8.53,5.06-25.54,5.06-25.54s8.75-4.54,7.73-13.91c-1.64-15.13-17.06-16-17.06-16s4.8-11.46-3.73-19.46-19.73-6.13-19.73-6.13,2.12-6.12-3.2-9.85-9.58-1.5-9.58-1.5.92-12.12-10.11-16.25c-10.51-3.94-19.49,2.29-19.49,2.29s-6.67-7.2-16.26-5.86S90.75,8.7,90.75,8.7A17,17,0,0,0,74.22,5,15.35,15.35,0,0,0,63,17.23S45.9,12.46,36.58,24.17s-4.81,21.55-4.81,21.55-15.41-2.1-20.2,12.56a25.88,25.88,0,0,0,4,24.52S3.05,95.33,8.38,108.93s18.1,10.72,18.1,10.72,1.09,11.67,13.62,12.46S58,128.38,58,128.38s10.93,9.06,21.59,8,14.66-5.33,14.66-5.33,10.13,5.76,20,5.41,17.87-7,17.87-7a10.51,10.51,0,0,0,9.86,4.8C148.58,133.56,150.94,128.76,151.32,128.92Z" transform="translate(0 0)" style="fill:#f3f6fe"/><g id="Groupe_26" data-name="Groupe 26"><path id="Tracé_90" data-name="Tracé 90" d="M207.22,75.08c-1.25-11.58-10-16.35-16.32-17.71,1-4.35,1.75-12.72-5.2-19.23a27,27,0,0,0-18.42-7h-.13a10.7,10.7,0,0,0-4.65-9.23,13.33,13.33,0,0,0-7.34-2.76,15.74,15.74,0,0,0-1.62-4.4A19.31,19.31,0,0,0,142.27,3.89a23,23,0,0,0-8-1.45,25.13,25.13,0,0,0-7.88,1.3h-.07l-.58.2-.32.13h0a26.28,26.28,0,0,0-3.07,1.36A22.86,22.86,0,0,0,108.05,0a19,19,0,0,0-2.71.19A33.91,33.91,0,0,0,90.83,5.63a19.38,19.38,0,0,0-11.5-3.81,20.81,20.81,0,0,0-5.77.84A17.58,17.58,0,0,0,61.23,14.44c-5.26-.77-17.9-1.35-25.94,8.74-5.36,6.75-6.68,12.47-6.7,16.44v.05a14.82,14.82,0,0,0,.17,2.49c-5.23.6-15.52,3.34-19.46,15.36a28.44,28.44,0,0,0,3.07,25c-.27.29-.44.5-.47.54a2.28,2.28,0,0,0-.44.88c-3.64,4.75-9.64,14.87-5.32,25.87,3.87,9.89,11.54,11.38,15.77,11.38a19.69,19.69,0,0,0,2.87-.21c1.23,5.5,5.36,12.94,15.16,13.56,1,.07,2.07.1,3.06.1,7.7,0,12.51-2,14.84-3.3,3.2,2.33,11.35,7.56,19.93,7.56.68,0,1.36,0,2-.1A32.54,32.54,0,0,0,93,134.88a8.69,8.69,0,0,0,1.61-.89c3.23,1.59,10.87,4.91,18.7,4.91.32,0,.63,0,1,0,7.64-.29,14.16-4,17.3-6.1a9.15,9.15,0,0,0,.86.79l.2.11a12.36,12.36,0,0,0,8.14,3h0a12.75,12.75,0,0,0,1.38-.07,15,15,0,0,0,9.77-4.91A22.75,22.75,0,0,0,159,133a15,15,0,0,0,8.19-2.27,16.81,16.81,0,0,0,7.16-8.4,22,22,0,0,0,19.28-5.71c8.54-7.8,7-21.38,6.14-26.17C202.62,88.41,208.12,83.4,207.22,75.08ZM196.5,86.83c-1.28-.39-2.85-.83-4.75-1.31a9.44,9.44,0,0,0-9.53,2.5,8.08,8.08,0,0,0-1.54,8.31c1.28,3.51,4.26,4.52,6.93,4.52a11.26,11.26,0,0,0,3.59-.59,2.17,2.17,0,0,0-1.41-4.1h0c-.16.06-4.06,1.36-5-1.31a3.83,3.83,0,0,1,.69-3.93c1.17-1.29,3.08-1.72,5.25-1.18,1.72.43,3.14.83,4.31,1.18.69,3.67,2.32,15.8-4.58,22.1a17.29,17.29,0,0,1-12,4.84,15.81,15.81,0,0,1-4.78-.7l-4.32-8.32A2.4,2.4,0,0,0,165.1,111h0l0,0L170,120.4c-.43,1.41-1.69,3.9-5.33,6.23a10.22,10.22,0,0,1-5.61,1.52,18.49,18.49,0,0,1-6.76-1.44l-.47-.19h-.49a3.1,3.1,0,0,0-2.4,1.39,10.41,10.41,0,0,1-7.22,4,8.65,8.65,0,0,1-.88,0h0a8,8,0,0,1-6.28-3.14,7.78,7.78,0,0,1-1.15-4.53,3.93,3.93,0,0,1,1.8-3.27c3.08-1.77,4.56-.27,4.95.25a2.4,2.4,0,1,0,4-2.64l-.08-.11c-1.38-2-5.52-5-11.27-1.66a8.53,8.53,0,0,0-4.19,7.08,12.47,12.47,0,0,0,.63,4.7c-2.51,1.75-8.37,5.24-15.08,5.48-6.43.23-13.08-2.4-16.46-4v0c1.38-3.37,1-7.68-1-12.12-3.06-6.8-10.42-6.57-13.89-5.5A2.4,2.4,0,1,0,84,117.12l.22-.06h0c.25-.07,6-1.79,8.1,2.89,1.44,3.18,1.76,6.22.89,8.34a4.4,4.4,0,0,1-.38.75l-.36.36s-3.72,3.67-13.17,4.61a13.13,13.13,0,0,1-1.54.07c-7.22,0-14.46-4.7-17.16-6.68l.6-7.27a2.4,2.4,0,0,0-4.79-.39h0L55.83,127c-1.42.87-5.51,2.87-12.83,2.87-.89,0-1.82,0-2.75-.08-9.94-.63-11-10.77-11.07-11.73a6.6,6.6,0,0,1,3.54-5.28c2.11-1.11,3.17-.87,3.18-.86l-.17-.06,1.88-4.42c-.46-.2-3-1.08-7.12,1.1a11.16,11.16,0,0,0-5.85,7.6,14.78,14.78,0,0,1-2.74.25c-5.33,0-9.14-2.79-11.3-8.3-4.47-11.42,5.59-22.42,6.6-23.46A12.19,12.19,0,0,1,25,81.86a7.41,7.41,0,0,1,7,4.59,2.4,2.4,0,0,0,4.54-1.54,12.13,12.13,0,0,0-11.39-7.85,16.55,16.55,0,0,0-9,2.43A23.91,23.91,0,0,1,13.86,59c3.35-10.23,12.63-11.91,16.36-12.17a11.5,11.5,0,0,0,9,6.46,12.73,12.73,0,0,0,1.86.13c6.31,0,10.27-4.86,11.56-7.67a2.4,2.4,0,0,0-4.36-2c-.11.23-2.73,5.61-8.37,4.8A6.78,6.78,0,0,1,35,45.5l-1-2.13a3,3,0,0,1-.14-.36,11.84,11.84,0,0,1-.47-3.19V39.6c0-3,1.08-7.64,5.68-13.42,7.12-8.95,19.18-7.44,22.5-6.82L65,27a2.41,2.41,0,0,0,2.2,1.43,2.32,2.32,0,0,0,1-.21A2.39,2.39,0,0,0,69.34,25l-3.67-8.21s-.06-.1-.08-.15A12.94,12.94,0,0,1,74.9,7.27a15.47,15.47,0,0,1,4.43-.65A14.6,14.6,0,0,1,89,10.36l.54.56c.9,1.32,2.18,3.91.92,6.49a5.37,5.37,0,0,1-5,3.39,2.4,2.4,0,0,0-.54,4.77H85l.54,0a10.19,10.19,0,0,0,9.27-6.09A10.86,10.86,0,0,0,94.11,9.2,29.67,29.67,0,0,1,106,4.94a14,14,0,0,1,2-.14,17.62,17.62,0,0,1,10.59,3.92,11.23,11.23,0,0,0-2.53,5,9.78,9.78,0,0,0,6.76,11.82,2.8,2.8,0,0,0,.58.08,2.4,2.4,0,0,0,.58-4.74,5,5,0,0,1-3.24-6.14c.89-4.1,5.77-6,6.7-6.32a20.64,20.64,0,0,1,6.73-1.19,17.91,17.91,0,0,1,6.36,1.16,14.58,14.58,0,0,1,8.5,8.18l.08.18a17.61,17.61,0,0,1,1.3,5.35l0,4.06c-.79,3.43-2.57,3.43-3.38,3.43a5.15,5.15,0,0,1-2.73-.89,2.4,2.4,0,0,0-3,3.77l0,0a9.91,9.91,0,0,0,5.67,1.91c2.2,0,7.38-.88,8.38-9,.06-.47.09-.92.11-1.37a9.46,9.46,0,0,1,4.21,1.85A6.28,6.28,0,0,1,162.06,33l-1.31,3.79,4-.63a20,20,0,0,1,2.57-.16,22.21,22.21,0,0,1,15.13,5.67c6.31,5.93,4.08,14.13,3.35,16.26-.26.54-3.6,7.37-8.28,7.59a3.26,3.26,0,0,1-2.46-.56,2.26,2.26,0,0,1-.26-1.59,2.4,2.4,0,0,0-4.63-1.24l0,.12h0a6.41,6.41,0,0,0,7,8.07h.63c5.65-.27,9.54-5.38,11.33-8.36,3.45.58,12.27,3.09,13.42,13.69.7,6.5-4.32,10.2-6,11.23Z" transform="translate(0 0)" style="fill:#b8c4e0"/><path id="Tracé_91" data-name="Tracé 91" d="M157.7,54.93c.69-3,.7-7.58-3.26-12.33-7.74-9.32-19.46-7.26-26.74-4a16.8,16.8,0,0,0-11.38-12.78c-8.79-3-15.58,2.92-18.72,6.54-2.62-2.51-7.78-6-16.14-5.83-5.65.11-11,4.36-13,10.31a12.63,12.63,0,0,0,4.1,14.48A14.67,14.67,0,0,0,92,50.85a2.4,2.4,0,0,0-3.28-3.5,9.85,9.85,0,0,1-13.21.25A8,8,0,0,1,73,38.41c1.35-4,5-7,8.55-7,10-.2,14,5.85,14.1,6.09a2.4,2.4,0,0,0,3.31.78,2.47,2.47,0,0,0,.76-.75c.06-.1,6.52-10,15.06-7.08a12.25,12.25,0,0,1,8.48,11.9,2.39,2.39,0,0,0,2.25,2.53,2.33,2.33,0,0,0,1.41-.36c.63-.38,15.19-9.23,23.84,1.19A9.2,9.2,0,0,1,153,53.85a9.89,9.89,0,0,1-4.81,6.38c-3.14,1.41-7.06-.67-7.09-.68a2.4,2.4,0,1,0-2.38,4.17l.05,0h0a16.25,16.25,0,0,0,5.89,1.71,11,11,0,0,0,5.48-.86A14.66,14.66,0,0,0,157.7,54.93Z" transform="translate(0 0)" style="fill:#b8c4e0"/><path id="Tracé_92" data-name="Tracé 92" d="M53.52,88.64A11,11,0,0,0,53,82.48h0a12.47,12.47,0,0,0,4.1-.69,11,11,0,0,0,7-7.85,15.18,15.18,0,0,0-2.6-13.33C57,55.38,50.15,56.7,47.14,58.12a2.4,2.4,0,0,0,2,4.34c.06,0,5.44-2.51,8.61,1.26a10.28,10.28,0,0,1,1.64,9,6.34,6.34,0,0,1-3.92,4.6,9.26,9.26,0,0,1-7.31-.88,18.67,18.67,0,0,0-2.79-1.88l-.24-.22a2.4,2.4,0,1,0-3.6,3.18,1.88,1.88,0,0,0,.25.24h0a8.09,8.09,0,0,0,.76.67h0a19.36,19.36,0,0,0,3,2c1.82,1.55,3.84,4.08,3.23,7.35-1,5.26-4.87,5.53-5.33,5.54a2.4,2.4,0,1,0,0,4.8C46.35,98.1,52.12,96.12,53.52,88.64Z" transform="translate(0 0)" style="fill:#b8c4e0"/><path id="Tracé_93" data-name="Tracé 93" d="M63.23,98.45c-9.28.29-12.52,8.43-12.65,8.79A2.4,2.4,0,0,0,55,109.13l.06-.15h0a9.51,9.51,0,0,1,8.33-5.71c5.27-.17,5.83,5.74,5.88,6.4a2.4,2.4,0,0,0,2.39,2.25h.15a2.4,2.4,0,0,0,2.25-2.54C73.81,105.47,71.25,98.19,63.23,98.45Z" transform="translate(0 0)" style="fill:#b8c4e0"/><path id="Tracé_94" data-name="Tracé 94" d="M169.18,79.13c-3.85-3.25-9.67-2.29-9.92-2.24a2.2,2.2,0,0,0,.74,4.3s4.08-.63,6.37,1.28A5.43,5.43,0,0,1,168,86.86a6.62,6.62,0,0,1-1.78,5.07,7.51,7.51,0,0,1-5,1.59,2.2,2.2,0,0,0-2.37,2,2.3,2.3,0,0,0,.05.69c.22.88.59,3.76-.55,5.35a3.34,3.34,0,0,1-2.61,1.22,4.66,4.66,0,0,1-3.77-1,5.7,5.7,0,0,1-1.26-4,2.19,2.19,0,0,0-2.26-2.13,2.22,2.22,0,0,0-2.1,1.79c0,.46-.28,4.57,2.5,7.36A8.36,8.36,0,0,0,155,107.2c.35,0,.7,0,1.07,0a7.52,7.52,0,0,0,5.81-3,10.16,10.16,0,0,0,1.6-6.39,10.82,10.82,0,0,0,5.7-2.57c2.14-2,3.22-4.75,3.22-8.31C172.38,83.52,171.31,80.92,169.18,79.13Z" transform="translate(0 0)" style="fill:#b8c4e0"/></g></g></g></g></g></g><g id="Groupe_10805" data-name="Groupe 10805"><path id="Tracé_22522" data-name="Tracé 22522" d="M128.71,50.45s10.14-1.57,16.73,1.76,9.61,11.57,9.61,11.57" transform="translate(0 0)" style="fill:none;stroke:#8595ba;stroke-linecap:round;stroke-linejoin:bevel;stroke-width:4px"/><path id="Tracé_22523" data-name="Tracé 22523" d="M92,50.44s-10.15-1.57-16.74,1.77-9.61,11.57-9.61,11.57" transform="translate(0 0)" style="fill:none;stroke:#8595ba;stroke-linecap:round;stroke-linejoin:bevel;stroke-width:4px"/></g><g id="Groupe_24" data-name="Groupe 24"><path id="Tracé_53" data-name="Tracé 53" d="M98.58,88.79l.06-.46c0-.15,0-.33.07-.55s0-.22,0-.34,0-.29,0-.45,0-.67,0-1-.1-.76-.16-1.19-.2-.86-.31-1.34-.32-1-.52-1.45a9.6,9.6,0,0,0-.76-1.5,14.12,14.12,0,0,0-3.89-4.22l-.88-.58c-.3-.19-.63-.34-.94-.51l-.48-.24-.5-.2c-.34-.13-.68-.28-1-.39a14.28,14.28,0,0,0-2.15-.5A8.39,8.39,0,0,0,86,73.69l-.56,0h-.68l-.94.06h-.24l-.26,0-.6.08a9.12,9.12,0,0,0-1.16.22l-1.06.3c-.35.11-.69.25-1,.38L79,75l-.48.24c-.31.17-.63.32-.94.51s-.59.39-.88.58a14.13,14.13,0,0,0-3.89,4.22c-.29.51-.53,1-.76,1.5a9.27,9.27,0,0,0-.52,1.45c-.12.47-.24.92-.31,1.34s-.13.82-.16,1.19,0,.66,0,1v.43c0,.12,0,.25,0,.37s0,.43.06.59l.07.49a.94.94,0,0,0,1.06.8A1,1,0,0,0,73,89l0-.12.11-.41a10.62,10.62,0,0,1,.31-1.14l.26-.79c.13-.27.24-.57.37-.88a9.26,9.26,0,0,1,.49-.94c.18-.32.42-.65.63-1a8.31,8.31,0,0,1,.77-1,13.66,13.66,0,0,1,3.18-2.64,13,13,0,0,1,2.73-1.13l.73-.17.35-.06.33,0,.34,0a.65.65,0,0,1,.2,0h.23l.94,0a1,1,0,1,0-.11,0h.75a4.76,4.76,0,0,1,.75.07c.25.05.51.05.75.12l.73.17A12.78,12.78,0,0,1,90.62,80a12,12,0,0,1,2.26,1.69c.32.3.63.62.92,1s.52.67.77,1a9.35,9.35,0,0,1,.63,1c.19.33.36.65.49.94s.25.61.38.89a6.44,6.44,0,0,1,.25.74l.11.31a2.09,2.09,0,0,1,.08.34q.08.32.12.54l.11.44a.94.94,0,0,0,1.87-.09Z" transform="translate(0 0)" style="fill:#8595ba"/><path id="Tracé_54" data-name="Tracé 54" d="M149.17,88.79l.06-.46c0-.15.05-.33.07-.55s0-.22,0-.34,0-.29,0-.45,0-.67,0-1-.1-.76-.16-1.19-.2-.86-.31-1.34-.32-1-.52-1.45a9.6,9.6,0,0,0-.76-1.5,13.88,13.88,0,0,0-3.89-4.22l-.87-.58c-.3-.19-.63-.34-1-.51l-.48-.24-.5-.2c-.33-.13-.67-.28-1-.39a14.69,14.69,0,0,0-2.16-.5,10,10,0,0,0-1.1-.13l-.56,0h-.66l-1,.06h-.23a1.15,1.15,0,0,0-.26,0l-.6.08a9.12,9.12,0,0,0-1.16.22l-1.06.3c-.35.11-.69.25-1,.38l-.5.21-.48.24c-.31.17-.63.32-.94.51s-.59.39-.87.58a13.88,13.88,0,0,0-3.89,4.22c-.3.51-.54,1-.77,1.5a8.36,8.36,0,0,0-.52,1.45c-.12.47-.24.92-.31,1.34s-.12.82-.16,1.19a8.79,8.79,0,0,0,0,1v.43a2.45,2.45,0,0,0,0,.38c0,.23,0,.43.06.59l.06.48a.94.94,0,0,0,1.84.12l0-.12.11-.41a10.62,10.62,0,0,1,.31-1.14l.26-.78c.13-.27.25-.57.37-.89a10.54,10.54,0,0,1,.5-.94l.63-1a8.2,8.2,0,0,1,.77-1,10.54,10.54,0,0,1,.93-1,11.57,11.57,0,0,1,2.25-1.68,12.81,12.81,0,0,1,2.73-1.14l.73-.16a2,2,0,0,1,.35-.07l.33,0,.33-.06.2,0h.24l.94,0a1,1,0,1,0-.11,0h.73a4.9,4.9,0,0,1,.76.08c.24.05.5.05.74.12l.74.16a12.24,12.24,0,0,1,2.72,1.14,11.64,11.64,0,0,1,2.26,1.68,10.43,10.43,0,0,1,.92,1c.28.31.52.67.77,1a6.47,6.47,0,0,1,.63,1c.19.33.36.64.5.94s.25.61.37.88l.26.74c0,.12.07.23.11.32a2,2,0,0,1,.08.33q.07.31.12.54l.11.45a.94.94,0,0,0,1.88-.1Z" transform="translate(0 0)" style="fill:#8595ba"/></g><g id="Groupe_23" data-name="Groupe 23"><g id="Groupe_22" data-name="Groupe 22"><path id="Tracé_51" data-name="Tracé 51" d="M127.83,103.18a9.63,9.63,0,0,1-3.26,6.9,18.46,18.46,0,0,1-7.47,4.13,26.74,26.74,0,0,1-14.89,0,18.4,18.4,0,0,1-7.47-4.13,9.51,9.51,0,0,1-3.25-6.9c0-4.87,4.31-2.64,10.54-1.08a27.61,27.61,0,0,0,15.24,0C123.5,100.54,127.83,98.31,127.83,103.18Z" transform="translate(0 0)" style="fill:#8595ba"/></g><path id="Tracé_52" data-name="Tracé 52" d="M117.1,113.28a26.56,26.56,0,0,1-14.89,0,7.53,7.53,0,0,1,14.89,0Z" transform="translate(0 0)" style="fill:#f3f6fe"/></g></g></g><g id="Groupe_12775" data-name="Groupe 12775"><g id="Groupe_12774" data-name="Groupe 12774"><g id="Groupe_12617" data-name="Groupe 12617"><path id="Tracé_26183" data-name="Tracé 26183" d="M281.58,174.44,200,221.67l60.68,34.89,81.33-47Z" transform="translate(0 0)" style="opacity:0.10000000149011612;isolation:isolate"/><rect id="Rectangle_17770" data-name="Rectangle 17770" x="202.26" y="219.8" width="0.55" height="0.54" style="fill:#dbdbdb"/><rect id="Rectangle_17771" data-name="Rectangle 17771" x="339.8" y="207.28" width="0.55" height="0.54" style="fill:#dbdbdb"/><path id="Tracé_26184" data-name="Tracé 26184" d="M282.14,174.23l58.21,33.61L260.48,254l-58.21-33.61Z" transform="translate(0 0)" style="fill:#dbdbdb"/><path id="Tracé_26185" data-name="Tracé 26185" d="M282.14,173.68l58.21,33.61-79.87,46.12-58.21-33.62Z" transform="translate(0 0)" style="fill:#edf5f6"/><path id="Tracé_26186" data-name="Tracé 26186" d="M222.45,216.89l22,12.59-1.57.91-22-12.6Zm5.38-3.11-1.57.9,42.39,24.48,1.57-.9Zm5.38-3.11-1.57.91L274,236.05l1.57-.9Zm5.38-3.11-1.56.91L257.2,220l1.56-.91ZM262.05,221l-1.56.9,5.74,3.34,1.57-.9Zm32.32-12.43-1.57.9,5.75,3.34,1.57-.9ZM244,204.46l-1.57.9,42.4,24.48,1.56-.91Zm5.39-3.11-1.57.9,35.53,20.55,1.57-.91Zm5.38-3.11-1.57.91,20.13,11.53,1.57-.91Zm5.38-3.11-1.57.91,42.39,24.47,1.57-.9Zm5.38-3.1-1.57.9,25.53,14.72,1.57-.91Zm5.39-3.11-1.57.9,42.39,24.48,1.57-.91Zm5.38-3.11-1.57.91,42.39,24.47,1.57-.91Zm5.38-3.11-1.57.91L300,195.06l1.57-.9Z" transform="translate(0 0)" style="fill:#dbe9fb"/></g><g id="Groupe_12642" data-name="Groupe 12642"><g id="Groupe_12639" data-name="Groupe 12639"><g id="Groupe_12618" data-name="Groupe 12618" style="opacity:0.07999999821186066"><path id="Tracé_26187" data-name="Tracé 26187" d="M195.5,261.37l-58.9-34c-.78-.45-.68-1.24.22-1.76l76.89-44.39a3.37,3.37,0,0,1,3-.13l58.91,34c.77.45.68,1.23-.22,1.75l-76.89,44.4A3.39,3.39,0,0,1,195.5,261.37Z" transform="translate(0 0)" style="opacity:0.10000000149011612;isolation:isolate"/></g><path id="Tracé_26188" data-name="Tracé 26188" d="M138.76,222.59v0Z" transform="translate(0 0)" style="fill:#3f3c44"/><path id="Tracé_26189" data-name="Tracé 26189" d="M195.5,255.89a1.78,1.78,0,0,0,.4.17V259a1.78,1.78,0,0,1-.4-.17l-56.24-32.47a.85.85,0,0,1-.49-.67s0-3,0-3a.85.85,0,0,0,.5.73Z" transform="translate(0 0)" style="fill:#393b4f"/><path id="Tracé_26190" data-name="Tracé 26190" d="M272.52,212.39v3a1.22,1.22,0,0,1-.71.94l-73.42,42.39a3.16,3.16,0,0,1-.6.25V256a3.2,3.2,0,0,0,.6-.26l73.42-42.39a1.16,1.16,0,0,0,.7-1Z" transform="translate(0 0)" style="fill:#393b4f"/><g id="Groupe_12619" data-name="Groupe 12619"><path id="Tracé_26191" data-name="Tracé 26191" d="M195.49,255.89l-56.24-32.47c-.74-.43-.65-1.18.21-1.68l73.42-42.38a3.19,3.19,0,0,1,2.9-.12L272,211.71c.74.43.65,1.18-.21,1.67l-73.42,42.38A3.22,3.22,0,0,1,195.49,255.89Z" transform="translate(0 0)" style="fill:#656285"/></g><path id="Tracé_26192" data-name="Tracé 26192" d="M264.27,211.07v.18L217.09,184l-64.85,37.44h-1V222l48,27.7,65.8-38v-.55Z" transform="translate(0 0)" style="fill:#dbdbdb"/><g id="Groupe_12621" data-name="Groupe 12621"><g id="Groupe_12620" data-name="Groupe 12620"><path id="Tracé_26193" data-name="Tracé 26193" d="M199.25,249.15l-48-27.69,65.8-38,48,27.69Z" transform="translate(0 0)" style="fill:#fff"/></g></g><g id="Groupe_12624" data-name="Groupe 12624"><ellipse id="Ellipse_536" data-name="Ellipse 536" cx="246.5" cy="192.9" rx="4.4" ry="2.47" style="fill:#c9547d"/><path id="Tracé_26194" data-name="Tracé 26194" d="M261.58,202.52v-.89l-2.33,0-6-3.47a4.51,4.51,0,0,0,2.43-3.59.66.66,0,0,0,0-.14v-1.59h-.46a5.92,5.92,0,0,0-2.28-2.16,14.74,14.74,0,0,0-12.94-.16l-8-4.6a1.91,1.91,0,0,0-1.77,0l-4.49,2.59v-.41h-1.6v1a.66.66,0,0,0,.36.52l29.18,16.84a1.91,1.91,0,0,0,1.77,0l5.73-3.31a.63.63,0,0,0,.36-.46v-.09ZM249,195.91a5.72,5.72,0,0,1-5.16,0c-1.42-.83-1.42-2.16,0-3a5.72,5.72,0,0,1,5.16,0C250.39,193.75,250.39,195.08,249,195.91Z" transform="translate(0 0)" style="fill:#e15b8f"/><g id="Groupe_12622" data-name="Groupe 12622"><path id="Tracé_26195" data-name="Tracé 26195" d="M261.21,201.12l-8-4.6c3.35-2.12,3.26-5.41-.3-7.47a14.72,14.72,0,0,0-12.93-.17l-8-4.6a2,2,0,0,0-1.77,0l-5.73,3.31a.54.54,0,0,0,0,1l29.18,16.85a2,2,0,0,0,1.77,0l5.73-3.31a.54.54,0,0,0,.35-.68A.51.51,0,0,0,261.21,201.12Zm-17.4-6.8c-1.42-.82-1.42-2.15,0-3a5.7,5.7,0,0,1,5.15,0c1.43.82,1.43,2.15,0,3a5.68,5.68,0,0,1-5.14,0Z" transform="translate(0 0)" style="fill:#ec85b0"/></g><g id="Groupe_12623" data-name="Groupe 12623"><path id="Tracé_26196" data-name="Tracé 26196" d="M253.18,196.28l.21.13c1.85-1.24,2.58-2.83,2.18-4.35C255.84,193.55,255.05,195.1,253.18,196.28Z" transform="translate(0 0)" style="fill:#f2a8c9"/><path id="Tracé_26197" data-name="Tracé 26197" d="M243.81,191.34a5.72,5.72,0,0,1,5.16,0,2.15,2.15,0,0,1,1,1.07,1.94,1.94,0,0,0-1.05-1.3,5.72,5.72,0,0,0-5.16,0c-.9.52-1.22,1.24-1,1.91A1.71,1.71,0,0,1,243.81,191.34Z" transform="translate(0 0)" style="fill:#f2a8c9"/><path id="Tracé_26198" data-name="Tracé 26198" d="M261.51,201.42a.61.61,0,0,1-.36.49l-5.73,3.31a2,2,0,0,1-1.77,0l-29.18-16.85a.72.72,0,0,1-.3-.3.61.61,0,0,0,.36.53l29.18,16.85a2,2,0,0,0,1.77,0l5.73-3.31C261.55,201.94,261.65,201.67,261.51,201.42Z" transform="translate(0 0)" style="fill:#f2a8c9"/></g></g><path id="Tracé_26199" data-name="Tracé 26199" d="M271.81,212.79l-73.42,42.39a3.22,3.22,0,0,1-2.9.12l-56.24-32.47a1,1,0,0,1-.43-.45.78.78,0,0,0,.41,1h0l56.24,32.47a3.22,3.22,0,0,0,2.9-.12l73.42-42.39c.61-.35.82-.82.64-1.23A1.42,1.42,0,0,1,271.81,212.79Z" transform="translate(0 0)" style="fill:#8280a3"/><path id="Tracé_26200" data-name="Tracé 26200" d="M197.79,256V259a3.47,3.47,0,0,1-1.89,0v-2.95A3.38,3.38,0,0,0,197.79,256Z" transform="translate(0 0)" style="fill:#4e506a"/><g id="Groupe_12638" data-name="Groupe 12638"><g id="Groupe_12625" data-name="Groupe 12625"><path id="Tracé_26201" data-name="Tracé 26201" d="M227.54,199.79l-14-8.11,1.25-.71,14,8.1Z" transform="translate(0 0)" style="fill:#e1edfc"/></g><g id="Groupe_12626" data-name="Groupe 12626"><path id="Tracé_26202" data-name="Tracé 26202" d="M245.15,215.46l-36.42-21,1.24-.72,36.43,21Z" transform="translate(0 0)" style="fill:#e1edfc"/></g><g id="Groupe_12627" data-name="Groupe 12627"><path id="Tracé_26203" data-name="Tracé 26203" d="M240.38,218.22l-36.42-21,1.24-.72,36.43,21Z" transform="translate(0 0)" style="fill:#e1edfc"/></g><g id="Groupe_12628" data-name="Groupe 12628"><path id="Tracé_26204" data-name="Tracé 26204" d="M220.18,212.06l-6.28-3.63,1.25-.72,6.28,3.63Z" transform="translate(0 0)" style="fill:#e1edfc"/></g><g id="Groupe_12629" data-name="Groupe 12629"><path id="Tracé_26205" data-name="Tracé 26205" d="M209.7,206l-10.51-6.07,1.24-.72,10.51,6.06Z" transform="translate(0 0)" style="fill:#e1edfc"/></g><g id="Groupe_12630" data-name="Groupe 12630"><path id="Tracé_26206" data-name="Tracé 26206" d="M230.85,223.72l-36.43-21,1.25-.71,36.42,21Z" transform="translate(0 0)" style="fill:#e1edfc"/></g><g id="Groupe_12631" data-name="Groupe 12631"><path id="Tracé_26207" data-name="Tracé 26207" d="M219.55,222.7l-29.89-17.25,1.24-.72L220.8,222Z" transform="translate(0 0)" style="fill:#e1edfc"/></g><g id="Groupe_12632" data-name="Groupe 12632"><path id="Tracé_26208" data-name="Tracé 26208" d="M196.92,215.14l-12-6.94,1.24-.72,12,6.94Z" transform="translate(0 0)" style="fill:#e1edfc"/></g><g id="Groupe_12633" data-name="Groupe 12633"><path id="Tracé_26209" data-name="Tracé 26209" d="M216.55,232l-36.43-21,1.25-.72,36.42,21Z" transform="translate(0 0)" style="fill:#e1edfc"/></g><g id="Groupe_12634" data-name="Groupe 12634"><path id="Tracé_26210" data-name="Tracé 26210" d="M204.11,230.3l-5.84-3.37,1.24-.72,5.84,3.38Z" transform="translate(0 0)" style="fill:#e1edfc"/></g><g id="Groupe_12635" data-name="Groupe 12635"><path id="Tracé_26211" data-name="Tracé 26211" d="M194,224.46,175.35,213.7l1.25-.71,18.64,10.76Z" transform="translate(0 0)" style="fill:#e1edfc"/></g><g id="Groupe_12636" data-name="Groupe 12636"><path id="Tracé_26212" data-name="Tracé 26212" d="M207,237.48l-36.42-21,1.24-.72,36.43,21Z" transform="translate(0 0)" style="fill:#e1edfc"/></g><g id="Groupe_12637" data-name="Groupe 12637"><path id="Tracé_26213" data-name="Tracé 26213" d="M193.57,235.24l-27.75-16,1.24-.72,27.75,16Z" transform="translate(0 0)" style="fill:#e1edfc"/></g></g></g><g id="Groupe_12641" data-name="Groupe 12641"><path id="Tracé_26214" data-name="Tracé 26214" d="M275.14,229.69a.45.45,0,0,0-.19-.33.2.2,0,0,0-.11,0l-3.11.36-2.67.31a.91.91,0,0,0-.49.15l-51.62,30-.11.07h0l-2.63,1.5a1.32,1.32,0,0,0-.59,1.25,4.23,4.23,0,0,0,1.92,3.31,1.4,1.4,0,0,0,1.27.17.57.57,0,0,0,.13-.08l2.7-1.53,51.64-30a1.22,1.22,0,0,0,.33-.27l1.72-2.33,1.81-2.49A.11.11,0,0,0,275.14,229.69Z" transform="translate(0 0)" style="opacity:0.10000000149011612;isolation:isolate"/><path id="Tracé_26215" data-name="Tracé 26215" d="M275.17,226.74c0,.12-.08.17-.18.11a.45.45,0,0,1-.19-.33c0-.12.09-.16.19-.1A.38.38,0,0,1,275.17,226.74Z" transform="translate(0 0)" style="fill:#3f3c44"/><path id="Tracé_26216" data-name="Tracé 26216" d="M275.16,226.82l-1.83,2.49-1.57-2.56,3.12-.36Z" transform="translate(0 0)" style="fill:#3f3c44"/><path id="Tracé_26217" data-name="Tracé 26217" d="M273.51,229.07l-1.91,2.58-2.55-4.59,3.05-.34Z" transform="translate(0 0)" style="fill:#e4e7ea"/><path id="Tracé_26218" data-name="Tracé 26218" d="M271.33,228.72,218,259.4l-1.34-2.22,51.92-30a1.28,1.28,0,0,1,1.39.11A3.86,3.86,0,0,1,271.33,228.72Z" transform="translate(0 0)" style="fill:#f4756e"/><path id="Tracé_26219" data-name="Tracé 26219" d="M273.65,228.55c0,.63-.44.89-1,.57a2.21,2.21,0,0,1-1-1.71c0-.63.44-.89,1-.57A2.19,2.19,0,0,1,273.65,228.55Z" transform="translate(0 0)" style="fill:#e4e7ea"/><path id="Tracé_26220" data-name="Tracé 26220" d="M271.9,230.63a1.31,1.31,0,0,1-.64,1.28l-51.8,29.9L218,259.4l53.32-30.68A3.91,3.91,0,0,1,271.9,230.63Z" transform="translate(0 0)" style="fill:#ce595e"/><g id="Groupe_12640" data-name="Groupe 12640"><path id="Tracé_26221" data-name="Tracé 26221" d="M220,260.57c0,1.22-.86,1.72-1.92,1.11a4.23,4.23,0,0,1-1.91-3.32c0-1.22.86-1.71,1.91-1.1A4.25,4.25,0,0,1,220,260.57Z" transform="translate(0 0)" style="fill:#c1d9f4"/><path id="Tracé_26222" data-name="Tracé 26222" d="M214,258.7l2.69-1.52,2.79,4.63-2.84,1.6Z" transform="translate(0 0)" style="fill:#c1d9f4"/><path id="Tracé_26223" data-name="Tracé 26223" d="M218.1,257.26a1.23,1.23,0,0,0-1.5,0,1.48,1.48,0,0,1,1.14.21,4.24,4.24,0,0,1,1.92,3.32,1.47,1.47,0,0,1-.41,1.13c.47-.14.77-.6.77-1.33A4.25,4.25,0,0,0,218.1,257.26Z" transform="translate(0 0)" style="fill:#9bb1c6"/><path id="Tracé_26224" data-name="Tracé 26224" d="M217.26,262.14c0,1.22-.85,1.71-1.91,1.1a4.23,4.23,0,0,1-1.91-3.32c0-1.22.85-1.71,1.91-1.1A4.23,4.23,0,0,1,217.26,262.14Z" transform="translate(0 0)" style="fill:#e9f4ff"/></g></g></g></g></g></g></svg>