<svg id="Calque_1" data-name="Calque 1" xmlns="http://www.w3.org/2000/svg" viewBox="0 0 137.37 99.68"><title>Intersection 2</title><path id="Intersection_2" data-name="Intersection 2" d="M100.13,99.68H95.74V81.37a56.85,56.85,0,0,1-52.2-52.2h16.3a40.6,40.6,0,0,0,35.9,35.89V81.37c1.45.11,2.91.17,4.38.17s2.94-.06,4.39-.17V99.68Zm4.39-34.61h0a40.62,40.62,0,0,0,32.85-24.33V67.58a56.48,56.48,0,0,1-32.85,13.79Zm0-26.14H95.74v17.3a31.8,31.8,0,0,1-27-27H86V20.4H68.69A31.75,31.75,0,0,1,80.32,0H95.74V10.64h8.78V0h15.42a31.75,31.75,0,0,1,11.63,20.4h-17.3v8.78h17.3a31.83,31.83,0,0,1-26.07,26.9l-1,.15ZM95.38,24.78a4.75,4.75,0,0,0,4.75,4.76h.25a4.75,4.75,0,1,0-5-4.75ZM25.24,29.17V20.4H43.55c-.12,1.45-.17,2.91-.17,4.39s0,2.94.17,4.39ZM52.35,20.4h-8.8c.1-1.35.25-2.68.44-4a43.2,43.2,0,0,1-9.62,1.09A42.44,42.44,0,0,1,0,0H68.75a44.59,44.59,0,0,1-3.52,4.23A40.21,40.21,0,0,0,59.85,20.4ZM132.16,0h5.21V8.83A40.46,40.46,0,0,0,132.16,0Z" transform="translate(0 0)" style="fill:#f24f56"/></svg>