<svg id="online" xmlns="http://www.w3.org/2000/svg" width="42.105" height="54.908" viewBox="0 0 42.105 54.908">
  <path id="Path_24348" data-name="Path 24348" d="M128.616,93.557H93.767a1.813,1.813,0,0,1-1.813-1.813V45.6a1.814,1.814,0,0,1,1.813-1.813h34.849a1.814,1.814,0,0,1,1.813,1.813V91.743A1.813,1.813,0,0,1,128.616,93.557Z" transform="translate(-88.323 -38.649)" fill="#d4d4d4"/>
  <path id="Path_24349" data-name="Path 24349" d="M97.663,49.774H62.814A1.813,1.813,0,0,1,61,47.961V1.814A1.814,1.814,0,0,1,62.814,0H97.663a1.814,1.814,0,0,1,1.813,1.813V47.96a1.813,1.813,0,0,1-1.813,1.814Z" transform="translate(-61 0)" fill="#f5f5f5"/>
  <path id="Path_24350" data-name="Path 24350" d="M358.143,0V49.774h1.815a1.814,1.814,0,0,0,1.815-1.812V1.812A1.814,1.814,0,0,0,359.958,0Z" transform="translate(-323.297)" fill="#e6e6e6"/>
  <path id="Path_24351" data-name="Path 24351" d="M120.085,123.144H113.8a.483.483,0,0,1-.483-.483v-6.282a.483.483,0,0,1,.483-.483h6.282a.483.483,0,0,1,.483.483v6.282A.483.483,0,0,1,120.085,123.144Z" transform="translate(-107.184 -102.304)" fill="#b8c4e0"/>
  <path id="Path_24352" data-name="Path 24352" d="M120.085,223.072H113.8a.483.483,0,0,1-.483-.483v-6.282a.483.483,0,0,1,.483-.483h6.282a.483.483,0,0,1,.483.483v6.282A.483.483,0,0,1,120.085,223.072Z" transform="translate(-107.184 -190.513)" fill="#b8c4e0"/>
  <path id="Path_24353" data-name="Path 24353" d="M120.085,323H113.8a.483.483,0,0,1-.483-.483v-6.282a.483.483,0,0,1,.483-.483h6.282a.483.483,0,0,1,.483.483v6.282A.483.483,0,0,1,120.085,323Z" transform="translate(-107.184 -278.722)" fill="#b8c4e0"/>
  <g id="Group_12208" data-name="Group 12208" transform="translate(16.975 14.161)">
    <path id="Path_24354" data-name="Path 24354" d="M206.628,122.517h14.5a.88.88,0,0,0,0-1.759h-14.5a.88.88,0,1,0,0,1.759Z" transform="translate(-205.748 -120.758)" fill="#9f9f9f"/>
    <path id="Path_24355" data-name="Path 24355" d="M221.125,153.724h-14.5a.88.88,0,1,0,0,1.759h14.5a.88.88,0,1,0,0-1.759Z" transform="translate(-205.748 -149.858)" fill="#9f9f9f"/>
    <path id="Path_24356" data-name="Path 24356" d="M221.125,220.686h-14.5a.88.88,0,1,0,0,1.759h14.5a.88.88,0,1,0,0-1.759Z" transform="translate(-205.748 -208.967)" fill="#9f9f9f"/>
    <path id="Path_24357" data-name="Path 24357" d="M221.125,253.651h-14.5a.88.88,0,1,0,0,1.759h14.5a.88.88,0,1,0,0-1.759Z" transform="translate(-205.748 -238.067)" fill="#9f9f9f"/>
    <path id="Path_24358" data-name="Path 24358" d="M221.125,320.612h-14.5a.88.88,0,1,0,0,1.759h14.5a.88.88,0,1,0,0-1.759Z" transform="translate(-205.748 -297.175)" fill="#9f9f9f"/>
    <path id="Path_24359" data-name="Path 24359" d="M221.125,353.578h-14.5a.88.88,0,1,0,0,1.759h14.5a.88.88,0,1,0,0-1.759Z" transform="translate(-205.748 -326.275)" fill="#9f9f9f"/>
  </g>
  <path id="Path_24360" data-name="Path 24360" d="M156.315,40.8H139.643a2.114,2.114,0,0,1,0-4.228h16.672a2.114,2.114,0,1,1,0,4.228Z" transform="translate(-128.554 -32.283)" fill="#8595ba"/>
  <path id="Path_24361" data-name="Path 24361" d="M139.525,107.159a.88.88,0,0,0-1.24-.1l-4.31,3.679-.876-.949a.88.88,0,0,0-1.293,1.193l1.45,1.571a.88.88,0,0,0,1.217.072l4.953-4.228A.879.879,0,0,0,139.525,107.159Z" transform="translate(-123.297 -94.32)" fill="#8595ba"/>
</svg>
