<svg id="Calque_1" data-name="Calque 1" xmlns="http://www.w3.org/2000/svg" xmlns:xlink="http://www.w3.org/1999/xlink" viewBox="0 0 133.5 125.94"><defs><linearGradient id="Dégradé_sans_nom" x1="-5175.27" y1="3255.35" x2="-5175.27" y2="3254.35" gradientTransform="matrix(15.02, 0, 0, -47.48, 77800.06, 154645.85)" gradientUnits="userSpaceOnUse"><stop offset="0" stop-color="#159beb"/><stop offset="1" stop-color="#3beaff"/></linearGradient><radialGradient id="Dégradé_sans_nom_2" cx="25893.5" cy="74800.22" r="58.27" gradientTransform="translate(-5088.29 -3905.44) scale(0.17 0.05)" gradientUnits="userSpaceOnUse"><stop offset="0.01" stop-color="#b8c4e0"/><stop offset="0.22" stop-color="#bec9e3"/><stop offset="0.49" stop-color="#ced7ea"/><stop offset="0.8" stop-color="#eaedf6"/><stop offset="1" stop-color="#fff"/></radialGradient><linearGradient id="Dégradé_sans_nom_3" x1="-5337.34" y1="3186.05" x2="-5336.31" y2="3186.05" gradientTransform="matrix(26.7, 0, 0, -23.49, 142570.64, 74836.81)" gradientUnits="userSpaceOnUse"><stop offset="0" stop-color="#0031ba"/><stop offset="1" stop-color="#0089f9"/></linearGradient><linearGradient id="Dégradé_sans_nom_4" x1="-5139.77" y1="3181.83" x2="-5140.68" y2="3181.32" gradientTransform="matrix(13.65, 0, 0, -22.93, 70213.84, 72995.75)" xlink:href="#Dégradé_sans_nom_3"/><linearGradient id="Dégradé_sans_nom_5" x1="-5336.82" y1="3186.55" x2="-5336.82" y2="3185.55" gradientTransform="matrix(26.7, 0, 0, -23.49, 142570.64, 74836.81)" xlink:href="#Dégradé_sans_nom"/></defs><title>rocket</title><g id="Groupe_9962" data-name="Groupe 9962"><g id="Groupe_9958" data-name="Groupe 9958"><g id="fusee"><g id="OBJECTS"><circle id="Ellipse_417" data-name="Ellipse 417" cx="100.11" cy="107.88" r="3.41" style="fill:#f3f6fe"/><path id="Tracé_21255" data-name="Tracé 21255" d="M62,101.07a1.6,1.6,0,1,1-1.6-1.59h0A1.6,1.6,0,0,1,62,101.07Z" transform="translate(-0.17 -0.09)" style="fill:#f3f6fe"/><path id="Tracé_21256" data-name="Tracé 21256" d="M85.41,91.89c0-7.36-3.33-13.35-7.51-13.35s-7.51,6-7.51,13.35S77.9,126,77.9,126,85.41,99.17,85.41,91.89Z" transform="translate(-0.17 -0.09)" style="fill:url(#Dégradé_sans_nom)"/><path id="Tracé_21257" data-name="Tracé 21257" d="M66,74.14a29.32,29.32,0,0,0,2.35,8.42,21.51,21.51,0,0,0,18.43.08,29.33,29.33,0,0,0,2.42-8.5Z" transform="translate(-0.17 -0.09)" style="fill:#f3f6fe"/><path id="Tracé_21258" data-name="Tracé 21258" d="M66.6,77.33C69,78.69,73,79.6,77.44,79.6c4.7,0,8.88-1,11.23-2.5a8.07,8.07,0,0,1,.3-1.36,29.72,29.72,0,0,1-22.67-.08A15.79,15.79,0,0,0,66.6,77.33Z" transform="translate(-0.17 -0.09)" style="fill:url(#Dégradé_sans_nom_2)"/><g id="Groupe_9954" data-name="Groupe 9954"><path id="Tracé_21259" data-name="Tracé 21259" d="M100.89,73.61c-.23-2.8-1.29-4.25-2.5-5l-1.75-1c1.21.76,2.27,2.2,2.5,5a1.09,1.09,0,0,0,.45.91l1.75,1A1.09,1.09,0,0,1,100.89,73.61Z" transform="translate(-0.17 -0.09)" style="fill:#b8c4e0"/><path id="Tracé_21260" data-name="Tracé 21260" d="M93,58.67c10.62-1.22,10.39,14.33,10.39,15.17l-.91.53c-.84.53-1.52.15-1.59-.76-.61-7.74-7.44-5.31-7.82-5.16Z" transform="translate(-0.17 -0.09)" style="fill:#b8c4e0"/><path id="Tracé_21261" data-name="Tracé 21261" d="M96.18,58.52H96l-.23-.15-.07-.08-.3-.15h-.08l-.3-.08H95l-.3-.07H94.6l-.38-.08h-.08l-.3-.08H91.49l-.38.08,1.75,1h2.2l.3.07h.08l.3.08h.07l.38.07h.08l.3.08h.07c.08,0,.15.08.3.08H97l.3.15.07.07.23.16.15.07Z" transform="translate(-0.17 -0.09)" style="fill:#b8c4e0"/><path id="Tracé_21262" data-name="Tracé 21262" d="M93.07,68.45l-1.74-1-.08-9.86L93,58.67Z" transform="translate(-0.17 -0.09)" style="fill:#b8c4e0"/></g><g id="Groupe_9955" data-name="Groupe 9955"><path id="Tracé_21263" data-name="Tracé 21263" d="M52.11,73.61c.23-2.8,1.29-4.25,2.5-5l1.75-1c-1.21.76-2.28,2.2-2.5,5a1.07,1.07,0,0,1-.46.91l-1.74,1A1.09,1.09,0,0,0,52.11,73.61Z" transform="translate(-0.17 -0.09)" style="fill:#b8c4e0"/><path id="Tracé_21264" data-name="Tracé 21264" d="M60,58.67C49.38,57.46,49.61,73,49.61,73.84l.91.53c.84.53,1.52.15,1.6-.76.6-7.74,7.43-5.31,7.81-5.16Z" transform="translate(-0.17 -0.09)" style="fill:#b8c4e0"/><path id="Tracé_21265" data-name="Tracé 21265" d="M59.93,68.45l1.74-1,.08-9.86L60,58.67Z" transform="translate(-0.17 -0.09)" style="fill:#b8c4e0"/></g><path id="Tracé_21266" data-name="Tracé 21266" d="M97.17,57.76a48.72,48.72,0,0,1-4.25,16.38c-8.65,4.55-22,4.55-30.64-.07A48.83,48.83,0,0,1,58,57.68C57,46.23,59.32,34.25,62.73,24.92c.91-2.58,2-5.09,3.11-7.59C70.39,8.08,75.4,1.63,77.07.27a1,1,0,0,1,1.13,0c1.67,1.36,6.68,7.88,11.23,17.06a72,72,0,0,1,3.18,7.59C95.88,34.4,98.16,46.31,97.17,57.76Z" transform="translate(-0.17 -0.09)" style="fill:#f3f6fe"/><path id="Tracé_21267" data-name="Tracé 21267" d="M91,21c-.54-1.29-1.07-2.5-1.6-3.64C84.88,8.15,79.88,1.63,78.21.27a1,1,0,0,0-1.14,0C75.4,1.63,70.39,8.15,65.92,17.33c-.53,1.14-1.06,2.35-1.59,3.57C72.14,24.46,83.14,24.46,91,21Z" transform="translate(-0.17 -0.09)" style="fill:url(#Dégradé_sans_nom_3)"/><path id="Tracé_21268" data-name="Tracé 21268" d="M77.9.11A151.05,151.05,0,0,0,71,23,27.69,27.69,0,0,1,64.25,21c.15-.38.38-.83.53-1.21s.46-1,.69-1.52a7.45,7.45,0,0,1,.45-.83C70.4,8.15,75.4,1.63,77.07.27a.77.77,0,0,1,.68-.16Z" transform="translate(-0.17 -0.09)" style="fill:url(#Dégradé_sans_nom_4)"/><path id="Tracé_21269" data-name="Tracé 21269" d="M77.9.11a1.06,1.06,0,0,0-.83.16C75.4,1.63,70.39,8.15,65.92,17.33a66.78,66.78,0,0,0-3.11,7.59c-3.34,9.4-5.69,21.31-4.7,32.76a47.29,47.29,0,0,0,4.25,16.39A32,32,0,0,0,70.93,77C62,43.58,74.49,8.53,77.9.11Z" transform="translate(-0.17 -0.09)" style="fill:#b8c4e0;opacity:0.3799999952316284;isolation:isolate"/><path id="Tracé_21270" data-name="Tracé 21270" d="M67.74,53.36a39.35,39.35,0,0,1-9.78-3c0-.3-.08-.61-.08-.91h0A8.76,8.76,0,0,1,58,48a40.06,40.06,0,0,0,9.78,3.27h0Z" transform="translate(-0.17 -0.09)" style="fill:#0031ba;opacity:0.5299999713897705;isolation:isolate"/><path id="Tracé_21271" data-name="Tracé 21271" d="M68,58.59a41.23,41.23,0,0,1-10-3.11,23,23,0,0,1-.08-2.35v-.07a38.9,38.9,0,0,0,10,3.33A10.75,10.75,0,0,0,68,58.59Z" transform="translate(-0.17 -0.09)" style="fill:#0031ba;opacity:0.5299999713897705;isolation:isolate"/><path id="Tracé_21272" data-name="Tracé 21272" d="M54.39,95.08c0-1-.38-19.5,12.44-32.77l-2.2.08S53,73.08,53,94.32Z" transform="translate(-0.17 -0.09)" style="fill:#b8c4e0"/><path id="Tracé_21273" data-name="Tracé 21273" d="M66.91,62.23C54.09,75.51,54.47,94.09,54.47,95.08l1.13-.69a4.44,4.44,0,0,0,2-3.18C58.26,81,67.51,73.69,68,73.38Z" transform="translate(-0.17 -0.09)" style="fill:#b8c4e0"/><path id="Tracé_21274" data-name="Tracé 21274" d="M99.37,95.08c0-1,.38-19.5-12.44-32.77l2.2.08s11.68,10.69,11.6,31.93Z" transform="translate(-0.17 -0.09)" style="fill:#b8c4e0"/><path id="Tracé_21275" data-name="Tracé 21275" d="M86.93,62.23C99.75,75.51,99.37,94.09,99.37,95.08l-1.14-.69a4.46,4.46,0,0,1-2-3.18C95.57,81,86.32,73.69,85.87,73.38Z" transform="translate(-0.17 -0.09)" style="fill:#b8c4e0"/><path id="Tracé_21276" data-name="Tracé 21276" d="M69.48,31.14a14.84,14.84,0,0,1,6.75,11.68c0,4.32-3,6-6.75,3.86A14.84,14.84,0,0,1,62.73,35C62.73,30.68,65.77,29,69.48,31.14Z" transform="translate(-0.17 -0.09)" style="fill:#b8c4e0"/><path id="Tracé_21277" data-name="Tracé 21277" d="M69.48,33a11.41,11.41,0,0,1,5.24,9c0,3.34-2.35,4.63-5.24,3a11.42,11.42,0,0,1-5.23-9C64.25,32.58,66.6,31.29,69.48,33Z" transform="translate(-0.17 -0.09)" style="fill:#b8c4e0"/><path id="Tracé_21278" data-name="Tracé 21278" d="M72.14,35.31,66,41.45a10.69,10.69,0,0,1-1.45-3.34L69.64,33A10.44,10.44,0,0,1,72.14,35.31Z" transform="translate(-0.17 -0.09)" style="fill:#b8c4e0"/><path id="Tracé_21279" data-name="Tracé 21279" d="M74.41,39.86l-5.08,5a8.88,8.88,0,0,1-2.5-2.27L73,36.45A13.14,13.14,0,0,1,74.41,39.86Z" transform="translate(-0.17 -0.09)" style="fill:#b8c4e0"/><path id="Tracé_21280" data-name="Tracé 21280" d="M77.68,41.68v-1a.47.47,0,0,0-.08-.3h0c0-.07-.08-.22-.08-.3s0-.25-.07-.38v-.38L77.37,39c0-.08-.07-.15-.07-.23v-.15c0-.15-.08-.23-.08-.38l-.08-.3v-.15l-.07-.23a.57.57,0,0,0-.15-.3.29.29,0,0,1-.08-.23h0V36.9a1.64,1.64,0,0,0-.15-.3c-.08-.07-.08-.22-.15-.37v-.16c-.08-.08-.08-.15-.16-.3l-.22-.38-.08-.15v-.08l-.15-.3a1.54,1.54,0,0,0-.3-.45.08.08,0,0,0-.07-.08h0l-.45-.61h0c-.08-.15-.23-.23-.3-.38a1.33,1.33,0,0,0-.23-.3h0l-.23-.3-.3-.3L74,32.37l-.08-.08-.15-.15-.3-.3-.08-.08-.07-.07-.16-.15-.3-.23-.15-.15-.07-.08L72.53,31l-.3-.22L72,30.62h-.09l-.3-.15-.3-.15h-.08L71,30.17l-.3-.15-.16-.08H70.4c-.07-.08-.15-.08-.3-.15l-.3-.08h-.15l-.15-.07-.3-.08h.07l-.3-.08H68l-.38.08h-.1c-.15,0-.23.08-.38.08H67l-.46.22h0L65,30.77l.45-.22h.08c.15-.08.3-.08.45-.16h.08c.15,0,.3-.07.53-.07h.3c.15,0,.38.07.53.07h.08c.22.08.38.08.6.16h.08l.68.22H69a3.48,3.48,0,0,1,.68.38l.68.46h0a3.84,3.84,0,0,1,.61.45l.08.08a3.35,3.35,0,0,1,.6.53l.08.08.53.53.08.07a2.32,2.32,0,0,0,.6.61h0c.16.23.38.45.54.68h0l.45.69.3.45c.08.15.15.23.23.38l.07.15a3.83,3.83,0,0,1,.3.61V37c.16.23.23.54.38.76h0c.08.23.23.53.3.76v.3a5.85,5.85,0,0,0,.3.83v.08c.08.23.16.53.23.76v.07c.08.23.08.54.15.76h0c0,.23.08.53.08.76v1.66c0,.23-.08.45-.08.6v.08a1,1,0,0,1-.15.53V45a1.2,1.2,0,0,0-.15.45v.08a5.54,5.54,0,0,1-.3.53l-.08.08a.59.59,0,0,1-.3.3l-.07.15-.23.23-.08.07a1.57,1.57,0,0,0-.38.3h0l1.52-.83a1.4,1.4,0,0,0,.38-.3l.08-.08.22-.23.08-.15a1.6,1.6,0,0,0,.23-.38l.07-.07h0l.23-.46h0v-.07c.08-.08.08-.23.15-.3s.08-.08.08-.15a.08.08,0,0,1,.07-.08h0V44l.07-.3v-.38a.46.46,0,0,1,.08-.3.11.11,0,0,0,0-.15h0v-.76h0C77.67,41.91,77.68,41.76,77.68,41.68Z" transform="translate(-0.17 -0.09)" style="fill:#b8c4e0"/><path id="Tracé_21281" data-name="Tracé 21281" d="M72.14,35.31,66,41.45a10.69,10.69,0,0,1-1.45-3.34L69.64,33A10.44,10.44,0,0,1,72.14,35.31Z" transform="translate(-0.17 -0.09)" style="fill:#f3f6fe"/><path id="Tracé_21282" data-name="Tracé 21282" d="M74.41,39.86l-5.08,5a8.88,8.88,0,0,1-2.5-2.27L73,36.45A13.14,13.14,0,0,1,74.41,39.86Z" transform="translate(-0.17 -0.09)" style="fill:#f3f6fe"/><path id="Tracé_21283" data-name="Tracé 21283" d="M91,21c-.54-1.29-1.07-2.5-1.6-3.64C84.88,8.15,79.88,1.63,78.21.27a1,1,0,0,0-1.14,0C75.4,1.63,70.39,8.15,65.92,17.33c-.53,1.14-1.06,2.35-1.59,3.57C72.14,24.46,83.14,24.46,91,21Z" transform="translate(-0.17 -0.09)" style="opacity:0.8059999942779541;isolation:isolate;fill:url(#Dégradé_sans_nom_5)"/><path id="Tracé_21284" data-name="Tracé 21284" d="M77.9.11A151.05,151.05,0,0,0,71,23,27.69,27.69,0,0,1,64.25,21c.15-.38.38-.83.53-1.21s.46-1,.69-1.52a7.45,7.45,0,0,1,.45-.83C70.4,8.15,75.4,1.63,77.07.27a.77.77,0,0,1,.68-.16Z" transform="translate(-0.17 -0.09)" style="fill:#1d8df5;opacity:0.0010000000474974513;isolation:isolate"/><path id="Tracé_21285" data-name="Tracé 21285" d="M97.32,55.1c0-.83.08-1.66.08-2.42-5.46,3-12.52,4.55-20.1,4.55A43.16,43.16,0,0,1,57.88,53c0,.83.08,1.59.08,2.42C69.48,60.87,86,60.72,97.32,55.1Z" transform="translate(-0.17 -0.09)" style="fill:#b8c4e0"/><path id="Tracé_21286" data-name="Tracé 21286" d="M97.32,50c0-.84.08-1.67.08-2.43a42.78,42.78,0,0,1-20.1,4.63A43.16,43.16,0,0,1,57.88,47.9c0,.83.08,1.59.08,2.43C69.48,55.64,86,55.48,97.32,50Z" transform="translate(-0.17 -0.09)" style="fill:#b8c4e0"/><g id="Groupe_9957" data-name="Groupe 9957" style="opacity:0.5299999713897705"><g id="Groupe_9956" data-name="Groupe 9956" style="opacity:0.4000000059604645"><path id="Tracé_21287" data-name="Tracé 21287" d="M68,58.59a41.23,41.23,0,0,1-10-3.11,23,23,0,0,1-.08-2.35v-.07a38.9,38.9,0,0,0,10,3.33A10.75,10.75,0,0,0,68,58.59Z" transform="translate(-0.17 -0.09)" style="fill:#0031ba"/></g><path id="Tracé_21288" data-name="Tracé 21288" d="M67.74,53.36a39.35,39.35,0,0,1-9.78-3c0-.3-.08-.61-.08-.91h0c0-.54-.08-1-.08-1.52H58a40,40,0,0,0,9.78,3.26h0Z" transform="translate(-0.17 -0.09)" style="fill:#0031ba;opacity:0.4000000059604645;isolation:isolate"/></g></g></g></g><g id="Groupe_9959" data-name="Groupe 9959"><g id="Groupe_9937" data-name="Groupe 9937"><circle id="Ellipse_7" data-name="Ellipse 7" cx="131.26" cy="121.43" r="1.74" style="fill:#fff;stroke:#19a2ed"/></g><g id="Groupe_9953" data-name="Groupe 9953"><g id="Groupe_9937-2" data-name="Groupe 9937-2"><g id="Tracé_84" data-name="Tracé 84"><path d="M9.14,15.14a3.49,3.49,0,1,1-3.49-3.49h0A3.49,3.49,0,0,1,9.14,15.14Z" transform="translate(-0.17 -0.09)" style="fill:none"/><path d="M5.66,11.65a3.49,3.49,0,1,0,3.48,3.49,3.49,3.49,0,0,0-3.48-3.49m0-2A5.49,5.49,0,1,1,.17,15.14,5.49,5.49,0,0,1,5.66,9.65Z" transform="translate(-0.17 -0.09)" style="fill:#19a2ed"/></g><g id="Tracé_85" data-name="Tracé 85"><path d="M128.19,60.1a3.49,3.49,0,1,1-3.49-3.49h0A3.49,3.49,0,0,1,128.19,60.1Z" transform="translate(-0.17 -0.09)" style="fill:none"/><path d="M124.7,56.61a3.49,3.49,0,1,0,3.49,3.49,3.48,3.48,0,0,0-3.49-3.49m0-2a5.49,5.49,0,1,1-5.48,5.49A5.49,5.49,0,0,1,124.7,54.61Z" transform="translate(-0.17 -0.09)" style="fill:#19a2ed"/></g><g id="Groupe_44" data-name="Groupe 44"><g id="Groupe_40" data-name="Groupe 40"><line id="Ligne_24" data-name="Ligne 24" x1="59.17" y1="113.79" x2="59.17" y2="115.25" style="fill:none;stroke:#19a2ed;stroke-linecap:round;stroke-miterlimit:10;stroke-width:2px"/><line id="Ligne_25" data-name="Ligne 25" x1="59.17" y1="117.76" x2="59.17" y2="119.22" style="fill:none;stroke:#19a2ed;stroke-linecap:round;stroke-miterlimit:10;stroke-width:2px"/></g><g id="Groupe_41" data-name="Groupe 41"><line id="Ligne_26" data-name="Ligne 26" x1="61.88" y1="116.5" x2="60.43" y2="116.5" style="fill:none;stroke:#19a2ed;stroke-linecap:round;stroke-miterlimit:10;stroke-width:2px"/><line id="Ligne_27" data-name="Ligne 27" x1="57.91" y1="116.5" x2="56.45" y2="116.5" style="fill:none;stroke:#19a2ed;stroke-linecap:round;stroke-miterlimit:10;stroke-width:2px"/></g><g id="Groupe_42" data-name="Groupe 42"><line id="Ligne_28" data-name="Ligne 28" x1="57.25" y1="114.58" x2="58.28" y2="115.61" style="fill:none;stroke:#19a2ed;stroke-linecap:round;stroke-miterlimit:10;stroke-width:2px"/><line id="Ligne_29" data-name="Ligne 29" x1="60.06" y1="117.4" x2="61.09" y2="118.43" style="fill:none;stroke:#19a2ed;stroke-linecap:round;stroke-miterlimit:10;stroke-width:2px"/></g><g id="Groupe_43" data-name="Groupe 43"><line id="Ligne_30" data-name="Ligne 30" x1="61.09" y1="114.58" x2="60.06" y2="115.61" style="fill:none;stroke:#19a2ed;stroke-linecap:round;stroke-miterlimit:10;stroke-width:2px"/><line id="Ligne_31" data-name="Ligne 31" x1="58.28" y1="117.4" x2="57.25" y2="118.43" style="fill:none;stroke:#19a2ed;stroke-linecap:round;stroke-miterlimit:10;stroke-width:2px"/></g></g></g></g></g><g id="Groupe_9953-2" data-name="Groupe 9953-2"><g id="Groupe_9937-3" data-name="Groupe 9937-3"><circle id="Ellipse_7-2" data-name="Ellipse 7-2" cx="31.17" cy="100.19" r="1.74" style="fill:#fff;stroke:#1d8df5"/></g></g></g></svg>