<svg id="Calque_1" data-name="Calque 1" xmlns="http://www.w3.org/2000/svg" viewBox="0 0 38.42 38.42"><title>sad</title><g id="Groupe_6" data-name="Groupe 6"><circle id="Ellipse_21" data-name="Ellipse 21" cx="19.21" cy="19.21" r="19.21" style="fill:#fdd835"/><path id="Tracé_22418" data-name="Tracé 22418" d="M19.21,0A19.21,19.21,0,1,1,0,19.21,19.21,19.21,0,0,1,19.21,0Z" transform="translate(0 0)" style="fill:#fdd835"/><path id="Tracé_11" data-name="Tracé 11" d="M14.51,26.28a8.21,8.21,0,0,1,9.42,0" transform="translate(0 0)" style="fill:none;stroke:#212121;stroke-linecap:round;stroke-linejoin:round;stroke-width:3px"/><circle id="Ellipse_23" data-name="Ellipse 23" cx="11.22" cy="18.49" r="3.31" style="fill:#212121"/><circle id="Ellipse_24" data-name="Ellipse 24" cx="27.22" cy="18.49" r="3.31" style="fill:#212121"/><path id="Tracé_12" data-name="Tracé 12" d="M12.85,16.91a.82.82,0,0,1-.82.81.82.82,0,0,1,0-1.63h0A.82.82,0,0,1,12.85,16.91Z" transform="translate(0 0)" style="fill:#feeb98"/><path id="Tracé_13" data-name="Tracé 13" d="M28.85,16.91a.82.82,0,1,1-.82-.82.82.82,0,0,1,.82.82Z" transform="translate(0 0)" style="fill:#feeb98"/><path id="Tracé_14" data-name="Tracé 14" d="M10.58,12a5.26,5.26,0,0,1-4,3.51" transform="translate(0 0)" style="fill:none;stroke:#212121;stroke-linecap:round;stroke-linejoin:round;stroke-width:3px"/><path id="Tracé_15" data-name="Tracé 15" d="M27.92,12a5.26,5.26,0,0,0,4,3.51" transform="translate(0 0)" style="fill:none;stroke:#212121;stroke-linecap:round;stroke-linejoin:round;stroke-width:3px"/></g></svg>