<svg id="Calque_1" data-name="Calque 1" xmlns="http://www.w3.org/2000/svg" xmlns:xlink="http://www.w3.org/1999/xlink" viewBox="0 0 272.67 227"><defs><linearGradient id="Dégradé_sans_nom" x1="-5450.38" y1="3359.83" x2="-5450.38" y2="3358.83" gradientTransform="matrix(227, 0, 0, -227, 1237351.09, 762682.05)" gradientUnits="userSpaceOnUse"><stop offset="0" stop-color="#fec36d"/><stop offset="1" stop-color="#fd8567"/></linearGradient></defs><title>sadbrain</title><g id="Groupe_10158" data-name="Groupe 10158"><g id="Groupe_10157" data-name="Groupe 10157"><path id="Soustraction_1" data-name="Soustraction 1" d="M113.5,227a114,114,0,0,1-22.87-2.31A113.41,113.41,0,0,1,2.31,136.37a113.29,113.29,0,0,1,26-97.84l9.72,20a7.39,7.39,0,0,0,4,2.05,1.13,1.13,0,0,0,.6-.14,2.31,2.31,0,0,0,.95-1.56,7,7,0,0,0-.13-3.48l-13-19.23A114.12,114.12,0,0,1,56.12,15.55,112.6,112.6,0,0,1,87.26,3.05L88,4.58a7.39,7.39,0,0,0,4,2.05,1.13,1.13,0,0,0,.6-.14c1.31-.76,1.2-3.66.93-4.74A114.8,114.8,0,0,1,137,2.43l1,2.15a7.39,7.39,0,0,0,4,2.05,1.13,1.13,0,0,0,.6-.14,3.08,3.08,0,0,0,1.08-2.44,113.53,113.53,0,0,1,39.83,198.8l-4.32-6.37a1.69,1.69,0,0,0-1.33-.84,1.12,1.12,0,0,0-.95.53,1.65,1.65,0,0,0,0,1.61l3.56,7.34A113,113,0,0,1,113.5,227Zm14.35-31.36a1.1,1.1,0,0,0-.94.53,1.65,1.65,0,0,0,0,1.61L138,220.58a5.19,5.19,0,0,0,1.49,1.14h3.77a6.68,6.68,0,0,0,.15-4.26l-14.22-21a1.67,1.67,0,0,0-1.33-.84Zm-50,0a1.1,1.1,0,0,0-.94.53,1.65,1.65,0,0,0,0,1.61L88,220.58a5.14,5.14,0,0,0,1.48,1.14h3.78a6.68,6.68,0,0,0,.15-4.26l-14.22-21a1.67,1.67,0,0,0-1.34-.84Zm100-54a1.1,1.1,0,0,0-.94.53,1.65,1.65,0,0,0,0,1.61L188,166.58a7.39,7.39,0,0,0,4,2,1.13,1.13,0,0,0,.6-.14,2.29,2.29,0,0,0,.95-1.56,7,7,0,0,0-.12-3.47l-14.22-21a1.69,1.69,0,0,0-1.35-.84Zm-50,0a1.1,1.1,0,0,0-.94.53,1.65,1.65,0,0,0,0,1.61L138,166.58a7.39,7.39,0,0,0,4,2,1.13,1.13,0,0,0,.6-.14,2.31,2.31,0,0,0,.95-1.56,7.07,7.07,0,0,0-.12-3.48l-14.22-21a1.69,1.69,0,0,0-1.34-.84Zm-50,0a1.1,1.1,0,0,0-.94.53,1.65,1.65,0,0,0,0,1.61L88,166.58a7.39,7.39,0,0,0,4,2,1.13,1.13,0,0,0,.6-.14,2.29,2.29,0,0,0,1-1.56,7,7,0,0,0-.12-3.47l-14.23-21a1.67,1.67,0,0,0-1.34-.84Zm-50,0a1.1,1.1,0,0,0-.94.53,1.65,1.65,0,0,0,0,1.61L38,166.58a7.39,7.39,0,0,0,4,2,1.13,1.13,0,0,0,.6-.14,2.31,2.31,0,0,0,.95-1.56,7,7,0,0,0-.13-3.48l-14.22-21a1.66,1.66,0,0,0-1.34-.84Zm150-54a1.1,1.1,0,0,0-.94.53,1.65,1.65,0,0,0,0,1.61L188,112.58a7.39,7.39,0,0,0,4,2,1.13,1.13,0,0,0,.6-.14,2.29,2.29,0,0,0,.95-1.56,7,7,0,0,0-.12-3.47l-14.23-21a1.67,1.67,0,0,0-1.34-.84Zm-50,0a1.1,1.1,0,0,0-.94.53,1.65,1.65,0,0,0,0,1.61L138,112.58a7.39,7.39,0,0,0,4,2,1.13,1.13,0,0,0,.6-.14,2.31,2.31,0,0,0,.95-1.56,7.07,7.07,0,0,0-.12-3.48l-14.22-21a1.69,1.69,0,0,0-1.34-.84Zm-50,0a1.1,1.1,0,0,0-.94.53,1.65,1.65,0,0,0,0,1.61L88,112.58a7.39,7.39,0,0,0,4,2,1.13,1.13,0,0,0,.6-.14,2.29,2.29,0,0,0,1-1.56,7,7,0,0,0-.12-3.47l-14.23-21a1.67,1.67,0,0,0-1.34-.84Zm-50,0a1.1,1.1,0,0,0-.94.53,1.65,1.65,0,0,0,0,1.61L38,112.58a7.39,7.39,0,0,0,4,2,1.13,1.13,0,0,0,.6-.14,2.31,2.31,0,0,0,.95-1.56,7,7,0,0,0-.13-3.48l-14.22-21a1.67,1.67,0,0,0-1.34-.84Zm150-54a1.1,1.1,0,0,0-.94.53,1.65,1.65,0,0,0,0,1.61L188,58.58a7.39,7.39,0,0,0,4,2.05,1.13,1.13,0,0,0,.6-.14,2.29,2.29,0,0,0,.95-1.56,7,7,0,0,0-.12-3.47l-14.23-21a1.67,1.67,0,0,0-1.34-.84Zm-50,0a1.1,1.1,0,0,0-.94.53,1.65,1.65,0,0,0,0,1.61L138,58.58a7.39,7.39,0,0,0,4,2.05,1.13,1.13,0,0,0,.6-.14,2.31,2.31,0,0,0,.95-1.56,7.07,7.07,0,0,0-.12-3.48l-14.22-21a1.69,1.69,0,0,0-1.34-.84Zm-50,0a1.1,1.1,0,0,0-.94.53,1.65,1.65,0,0,0,0,1.61L88,58.58a7.39,7.39,0,0,0,4,2.05,1.13,1.13,0,0,0,.6-.14,2.29,2.29,0,0,0,1-1.56,7,7,0,0,0-.12-3.47l-14.23-21a1.67,1.67,0,0,0-1.34-.84Z" transform="translate(0 0)" style="opacity:0.4860000014305115;isolation:isolate;fill:url(#Dégradé_sans_nom)"/><g id="Groupe_10156" data-name="Groupe 10156"><g id="Groupe_34" data-name="Groupe 34"><path id="Tracé_86" data-name="Tracé 86" d="M42.61,134s-7.46,29.16-7.2,40.91.24,15.19,3.8,15.51c4.8.44,2.93-5.64,2.93-5.64s1.33,1.76,2.38,1.09-.44-2.57-3.06-5.39-4-3.31-1.78-15.49,8.32-25.62,7.8-28.65S42.61,134,42.61,134Z" transform="translate(0 0)" style="fill:#83c8ed"/><g id="Groupe_25" data-name="Groupe 25"><path id="Tracé_87" data-name="Tracé 87" d="M83.4,147s3.83,59.46,1.92,61.23-12.43.18-14.35,3.46,16.07,3.09,18.36,1.07,0-65.76,0-65.76Z" transform="translate(0 0)" style="fill:#81c7ed"/><path id="Tracé_88" data-name="Tracé 88" d="M137.84,145.55S134,205,135.93,206.78s12.43.18,14.34,3.46-16.06,3.09-18.36,1.07,0-65.76,0-65.76Z" transform="translate(0 0)" style="fill:#81c7ed"/></g><g id="Groupe_27" data-name="Groupe 27"><path id="Tracé_89" data-name="Tracé 89" d="M155.86,157.55c1.84.77,8,3,13.07-.24,6-3.82,6-8.35,6-8.35a17.39,17.39,0,0,0,17.42-4.06c8.35-7.63,4.53-22.86,4.53-22.86s7.83-4.06,6.92-12.45C202.29,96,188.49,95.27,188.49,95.27s4.3-10.26-3.34-17.42-17.65-5.48-17.65-5.48,1.9-5.49-2.87-8.83-8.57-1.35-8.57-1.35.82-10.85-9.06-14.54c-9.4-3.52-17.44,2.05-17.44,2.05s-6-6.44-14.56-5.25a26.78,26.78,0,0,0-13.36,5.49A15.17,15.17,0,0,0,86.85,46.6a13.74,13.74,0,0,0-10,11S61.51,53.31,53.16,63.8s-4.3,19.28-4.3,19.28S35.07,81.2,30.78,94.32a23.17,23.17,0,0,0,3.57,22s-11.21,11.21-6.44,23.38,16.21,9.6,16.21,9.6,1,10.45,12.19,11.16,16-3.34,16-3.34,9.78,8.11,19.32,7.15,13.12-4.77,13.12-4.77,9.07,5.17,17.9,4.85,16-6.28,16-6.28a9.45,9.45,0,0,0,8.83,4.3C153.4,161.71,155.52,157.4,155.86,157.55Z" transform="translate(0 0)" style="fill:#ef7668"/><g id="Groupe_26" data-name="Groupe 26"><path id="Tracé_90" data-name="Tracé 90" d="M205.9,109.36c-1.13-10.37-9-14.64-14.62-15.86.92-3.89,1.56-11.38-4.66-17.21a24.16,24.16,0,0,0-16.48-6.24H170a9.6,9.6,0,0,0-4.16-8.27,12,12,0,0,0-6.57-2.47,13.94,13.94,0,0,0-1.45-3.94,17.19,17.19,0,0,0-10.09-9.73,20.51,20.51,0,0,0-7.19-1.3,22.33,22.33,0,0,0-7.06,1.17h-.06l-.52.18-.29.11h0A25,25,0,0,0,129.85,47a20.24,20.24,0,0,0-12.72-4.89,19.55,19.55,0,0,0-2.42.17,30.62,30.62,0,0,0-13,4.88,17.37,17.37,0,0,0-10.3-3.42,18.72,18.72,0,0,0-5.16.75,15.79,15.79,0,0,0-11,10.56c-4.7-.69-16-1.21-23.21,7.83-4.8,6-6,11.16-6,14.7v0a12.73,12.73,0,0,0,.14,2.23c-4.68.54-13.89,3-17.41,13.75A25.47,25.47,0,0,0,31.48,116c-.24.26-.39.44-.42.48a2.09,2.09,0,0,0-.39.79c-3.26,4.25-8.63,13.3-4.76,23.16C29.38,149.28,36.24,150.6,40,150.6a18.55,18.55,0,0,0,2.58-.19c1.1,4.92,4.79,11.58,13.57,12.14.92.06,1.84.09,2.73.09,6.89,0,11.2-1.78,13.28-2.95,2.87,2.09,10.16,6.76,17.84,6.76.61,0,1.22,0,1.8-.08a29.16,29.16,0,0,0,11.84-3.5,7.24,7.24,0,0,0,1.44-.8c2.89,1.43,9.73,4.4,16.74,4.4l.87,0c6.84-.24,12.67-3.55,15.48-5.45a8.63,8.63,0,0,0,.77.71l.18.1a11.07,11.07,0,0,0,7.28,2.71h0c.42,0,.83,0,1.24-.06a13.41,13.41,0,0,0,8.74-4.4,20.12,20.12,0,0,0,6.34,1.1,13.37,13.37,0,0,0,7.33-2,15.07,15.07,0,0,0,6.41-7.52,19.55,19.55,0,0,0,3.66.34,19.93,19.93,0,0,0,13.61-5.45c7.63-7,6.26-19.13,5.48-23.43C201.78,121.28,206.71,116.8,205.9,109.36Zm-9.6,10.51c-1.15-.34-2.55-.74-4.26-1.17a8.48,8.48,0,0,0-8.53,2.23,7.25,7.25,0,0,0-1.37,7.45c1.14,3.14,3.81,4,6.2,4a10.28,10.28,0,0,0,3.21-.52,1.94,1.94,0,0,0-1.26-3.68c-.15.05-3.63,1.22-4.51-1.17a3.43,3.43,0,0,1,.62-3.52,4.6,4.6,0,0,1,4.7-1.06c1.54.39,2.81.74,3.86,1.06.61,3.28,2.07,14.14-4.1,19.78a15.57,15.57,0,0,1-10.71,4.34,14.13,14.13,0,0,1-4.28-.63L172,139.58a2.15,2.15,0,1,0-3.81,2l4.35,8.36c-.39,1.26-1.52,3.49-4.78,5.58a9.14,9.14,0,0,1-5,1.36,16.32,16.32,0,0,1-6-1.29l-.42-.17h-.44a2.82,2.82,0,0,0-2.15,1.24,9.28,9.28,0,0,1-6.46,3.54,7.31,7.31,0,0,1-.8,0h0a7.25,7.25,0,0,1-5.62-2.81,7,7,0,0,1-1-4.06,3.51,3.51,0,0,1,1.62-2.93c2.75-1.58,4.08-.23,4.42.23a2.15,2.15,0,0,0,3.53-2.46c-1.24-1.81-5-4.45-10.1-1.49a7.64,7.64,0,0,0-3.74,6.34,11.06,11.06,0,0,0,.55,4.2c-2.26,1.57-7.49,4.7-13.5,4.91-5.75.2-11.71-2.15-14.73-3.55v0c1.24-3,.94-6.87-.85-10.85-2.74-6.08-9.34-5.88-12.44-4.92A2.15,2.15,0,0,0,95.66,147l.16-.05c.22-.07,5.37-1.6,7.25,2.58,1.28,2.85,1.57,5.57.8,7.47a4.12,4.12,0,0,1-.34.66l-.33.33s-3.32,3.28-11.78,4.13a12.74,12.74,0,0,1-1.38.06c-6.45,0-12.94-4.22-15.36-6l.54-6.51a2.15,2.15,0,0,0-4.29-.35l-.53,6.46c-1.27.77-4.93,2.57-11.48,2.57-.8,0-1.63,0-2.46-.08-8.9-.56-9.84-9.63-9.9-10.5a5.87,5.87,0,0,1,3.17-4.7,4.64,4.64,0,0,1,2.85-.77.49.49,0,0,1-.17-.06l1.68-3.95c-.42-.18-2.68-1-6.37,1a10,10,0,0,0-5.24,6.81,14.41,14.41,0,0,1-2.45.23c-4.78,0-8.18-2.5-10.12-7.44-4-10.22,5-20.07,5.89-21a11,11,0,0,1,7-2.43A6.61,6.61,0,0,1,49,119.54a2.15,2.15,0,0,0,2,1.44,2,2,0,0,0,.68-.11,2.15,2.15,0,0,0,1.36-2.72,10.89,10.89,0,0,0-10.2-7,14.77,14.77,0,0,0-8,2.18,21.35,21.35,0,0,1-2-18.33c3-9.15,11.3-10.66,14.64-10.89a10.26,10.26,0,0,0,8,5.78,11.62,11.62,0,0,0,1.67.12c5.65,0,9.2-4.35,10.34-6.86a2.15,2.15,0,0,0-3.9-1.8c-.1.2-2.43,5-7.49,4.29a6.09,6.09,0,0,1-4.4-2.75L50.85,81l-.13-.32a10.51,10.51,0,0,1-.42-2.85c0-.07,0-.13,0-.2,0-2.69,1-6.84,5.08-12,6.38-8,17.16-6.66,20.14-6.1l3,6.81a2.14,2.14,0,0,0,2,1.27,2,2,0,0,0,.87-.18,2.15,2.15,0,0,0,1.09-2.84L79.2,57.21a1,1,0,0,1-.08-.14,11.6,11.6,0,0,1,8.33-8.41,14.83,14.83,0,0,1,4-.58,13.14,13.14,0,0,1,8.68,3.35l.48.5c.8,1.2,1.94,3.5.82,5.81a4.82,4.82,0,0,1-4.52,3,2.14,2.14,0,0,0-.4,4.27,3.85,3.85,0,0,0,.48,0,9.12,9.12,0,0,0,8.3-5.45,9.71,9.71,0,0,0-.6-9.23,26.48,26.48,0,0,1,10.65-3.81,13.83,13.83,0,0,1,1.83-.13A15.83,15.83,0,0,1,126.61,50a10.26,10.26,0,0,0-2.26,4.47A8.76,8.76,0,0,0,130.4,65a2.24,2.24,0,0,0,.52.06,2.15,2.15,0,0,0,.52-4.23,4.45,4.45,0,0,1-2.9-5.5c.79-3.66,5.16-5.36,6-5.66a18.45,18.45,0,0,1,6-1,16,16,0,0,1,5.69,1A13.09,13.09,0,0,1,153.86,57l.07.16a15.61,15.61,0,0,1,1.16,4.8l0,3.61c-.71,3.07-2.3,3.08-3,3.08a4.6,4.6,0,0,1-2.43-.8A2.15,2.15,0,1,0,147,71.23h0a8.82,8.82,0,0,0,5.07,1.7c2,0,6.61-.78,7.5-8.06a10.54,10.54,0,0,0,.1-1.23,8.55,8.55,0,0,1,3.77,1.66,5.64,5.64,0,0,1,2.07,6.36l-1.18,3.4,3.55-.57a16.14,16.14,0,0,1,2.3-.14,19.89,19.89,0,0,1,13.55,5.07c5.65,5.31,3.66,12.63,3,14.55-.23.49-3.22,6.59-7.41,6.79a2.88,2.88,0,0,1-2.2-.5,2,2,0,0,1-.23-1.42,2.14,2.14,0,1,0-4.17-1,6.23,6.23,0,0,0,1.08,5.15,6.35,6.35,0,0,0,5.17,2.07h.55c5.07-.24,8.54-4.81,10.14-7.48,3.11.52,11,2.76,12,12.25.62,5.81-3.88,9.14-5.34,10.05Z" transform="translate(0 0)" style="fill:#ef564b"/><path id="Tracé_91" data-name="Tracé 91" d="M160.35,96.2a12.37,12.37,0,0,0-2.92-11c-6.92-8.34-17.42-6.5-23.93-3.55a15.07,15.07,0,0,0-10.19-11.43c-7.88-2.68-13.94,2.61-16.76,5.85-2.34-2.26-7-5.37-14.45-5.21-5,.1-9.84,3.89-11.64,9.22a11.32,11.32,0,0,0,3.67,13,13.14,13.14,0,0,0,17.44-.45,2.15,2.15,0,0,0-2.93-3.14,8.83,8.83,0,0,1-11.83.23,7.18,7.18,0,0,1-2.28-8.23c1.21-3.59,4.43-6.23,7.66-6.3,8.92-.18,12.49,5.24,12.62,5.45a2.16,2.16,0,0,0,3,.7,2.07,2.07,0,0,0,.68-.67c.06-.09,5.85-8.94,13.48-6.34a10.93,10.93,0,0,1,7.58,10.65,2.15,2.15,0,0,0,2,2.27,2.24,2.24,0,0,0,1.26-.32c.55-.35,13.59-8.27,21.34,1.06a8.22,8.22,0,0,1,2,7.32,8.84,8.84,0,0,1-4.3,5.71c-2.81,1.26-6.33-.6-6.35-.61a2.15,2.15,0,0,0-2.07,3.76,14.31,14.31,0,0,0,5.27,1.54,9.9,9.9,0,0,0,4.9-.77A13.17,13.17,0,0,0,160.35,96.2Z" transform="translate(0 0)" style="fill:#ef564b"/><path id="Tracé_92" data-name="Tracé 92" d="M68.32,121.5a9.82,9.82,0,0,0-.51-5.52h0a11.44,11.44,0,0,0,3.67-.61,9.85,9.85,0,0,0,6.24-7,13.59,13.59,0,0,0-2.32-11.94c-4-4.67-10.11-3.5-12.82-2.23a2.15,2.15,0,0,0,1.83,3.89s4.87-2.24,7.7,1.11a9.25,9.25,0,0,1,1.47,8,5.68,5.68,0,0,1-3.51,4.11,8.28,8.28,0,0,1-6.54-.78,18.11,18.11,0,0,0-2.49-1.68l-.22-.19a2.15,2.15,0,0,0-3,3l0,0s.29.28.68.6h0a17.65,17.65,0,0,0,2.65,1.8c1.63,1.39,3.45,3.65,2.9,6.58-.88,4.7-4.36,5-4.77,5a2.15,2.15,0,0,0,0,4.29C61.91,130,67.07,128.19,68.32,121.5Z" transform="translate(0 0)" style="fill:#ef564b"/><path id="Tracé_93" data-name="Tracé 93" d="M77,130.27c-8.3.27-11.21,7.56-11.33,7.86a2.14,2.14,0,1,0,4,1.55,8.58,8.58,0,0,1,7.47-5.12c4.71-.14,5.21,5.14,5.26,5.73a2.14,2.14,0,0,0,2.14,2h.13a2.15,2.15,0,0,0,2-2.27C86.49,136.55,84.2,130.05,77,130.27Z" transform="translate(0 0)" style="fill:#ef564b"/><path id="Tracé_94" data-name="Tracé 94" d="M171.84,113c-3.44-2.9-8.65-2-8.88-2a2,2,0,0,0,.67,3.85s3.66-.57,5.7,1.15a4.81,4.81,0,0,1,1.47,3.94,5.92,5.92,0,0,1-1.59,4.53,6.69,6.69,0,0,1-4.51,1.42,2,2,0,0,0-2.13,1.78,2.28,2.28,0,0,0,.05.64c.2.8.53,3.38-.5,4.79a2.94,2.94,0,0,1-2.33,1.1,4.18,4.18,0,0,1-3.37-.88,5,5,0,0,1-1.12-3.53,2,2,0,0,0-3.9-.31,8.89,8.89,0,0,0,2.24,6.59,7.4,7.4,0,0,0,5.5,2.07c.31,0,.63,0,1,0a6.78,6.78,0,0,0,5.2-2.7,9.11,9.11,0,0,0,1.43-5.72,9,9,0,0,0,8-9.74A8.59,8.59,0,0,0,171.84,113Z" transform="translate(0 0)" style="fill:#ef564b"/></g></g><path id="Tracé_101" data-name="Tracé 101" d="M188.7,131c7.07,2.4,15.14,4.87,16.11,4.09,1.77-1.44,2.3-6,2.66-12.33.74-12.85-.58-16.07-1.91-21.87s-3.88-11.3,3-10.27,2.31,42.36,0,47.79c-1.51,3.57-15.2-.3-24.43-3.38A35.37,35.37,0,0,0,188.7,131Z" transform="translate(0 0)" style="fill:#83c8ed"/><g id="Groupe_10154" data-name="Groupe 10154"><g id="Groupe_30" data-name="Groupe 30"><g id="Groupe_28" data-name="Groupe 28"><path id="Tracé_95" data-name="Tracé 95" d="M94.07,113.48a6.22,6.22,0,1,1-6.22-6.22h0a6.21,6.21,0,0,1,6.22,6.21Z" transform="translate(0 0)" style="fill:#81c7ed"/><path id="Tracé_96" data-name="Tracé 96" d="M86.71,111.49a2,2,0,1,1-2-2h0A2,2,0,0,1,86.71,111.49Z" transform="translate(0 0)" style="fill:#fff"/></g><g id="Groupe_29" data-name="Groupe 29"><path id="Tracé_97" data-name="Tracé 97" d="M157.6,113.48a6.22,6.22,0,1,1-6.22-6.22,6.21,6.21,0,0,1,6.22,6.22Z" transform="translate(0 0)" style="fill:#81c7ed"/><path id="Tracé_98" data-name="Tracé 98" d="M150.24,111.49a2,2,0,1,1-2-2h0A2,2,0,0,1,150.24,111.49Z" transform="translate(0 0)" style="fill:#fff"/></g></g><path id="Tracé_22511" data-name="Tracé 22511" d="M112.48,131.55c.13-4.73,3-8.63,8-8.42s7.52,4.57,6.58,9.17c-.47,2.29-3.95,1.31-3.49-1s-.59-4.28-3.09-4.59c-3-.36-4.34,2.16-4.42,4.79-.06,2.33-3.68,2.34-3.62,0Z" transform="translate(0 0)" style="fill:#81c7ed"/></g></g><g id="Groupe_10155" data-name="Groupe 10155"><rect id="Rectangle_2" data-name="Rectangle 2" x="181.98" y="19.95" width="65.01" height="109.59" rx="9" ry="9" transform="translate(103.56 272.96) rotate(-79.98)" style="fill:#f6f6d4"/><g id="ERREUR" style="isolation:isolate"><text transform="translate(172.01 74.94) rotate(10.02)" style="isolation:isolate;font-size:20.005008697509766px;font-family:GloriaHallelujah, Gloria Hallelujah">ERREUR</text></g></g></g></g></g></svg>