<svg xmlns="http://www.w3.org/2000/svg" width="19.5" height="26" viewBox="0 0 19.5 26">
  <g id="arrows" transform="translate(-68.891 0)">
    <path id="Tracé_23954" data-name="Tracé 23954" d="M87.579,172.228H85.141v1.625h1.625v14.625H70.516V173.853h1.625v-1.625H69.7a.812.812,0,0,0-.813.813v16.25a.812.812,0,0,0,.813.813H87.579a.812.812,0,0,0,.813-.813V173.04A.812.812,0,0,0,87.579,172.228Z" transform="translate(0 -164.103)"/>
    <path id="Tracé_23955" data-name="Tracé 23955" d="M164.688,3.11V14.625h1.625V3.11L169.8,6.6l1.149-1.149L165.5,0l-5.449,5.449L161.2,6.6Z" transform="translate(-86.859 0)"/>
  </g>
</svg>
