<svg xmlns="http://www.w3.org/2000/svg" width="62.525" height="62.525" viewBox="0 0 62.525 62.525"><defs><style>.a{fill:#fff;}</style></defs><path class="a" d="M130.732,224.346a1.359,1.359,0,0,0-1.919.106,15.122,15.122,0,0,1-22.441,0,1.359,1.359,0,0,0-2.025,1.813,17.84,17.84,0,0,0,26.492,0A1.36,1.36,0,0,0,130.732,224.346Z" transform="translate(-86.33 -185.941)"/><path class="a" d="M31.262,0A31.262,31.262,0,1,0,62.525,31.262,31.3,31.3,0,0,0,31.262,0Zm0,59.806A28.544,28.544,0,1,1,59.806,31.262,28.575,28.575,0,0,1,31.262,59.806Z"/><path class="a" d="M214.8,128a6.8,6.8,0,0,0-6.8,6.8,1.359,1.359,0,1,0,2.718,0,4.078,4.078,0,0,1,8.155,0,1.359,1.359,0,1,0,2.718,0A6.8,6.8,0,0,0,214.8,128Z" transform="translate(-172.66 -106.252)"/><path class="a" d="M90.874,134.8a1.359,1.359,0,0,0,2.718,0A6.8,6.8,0,1,0,80,134.8a1.359,1.359,0,0,0,2.718,0,4.078,4.078,0,1,1,8.155,0Z" transform="translate(-66.408 -106.252)"/></svg>