<svg id="Calque_1" data-name="Calque 1" xmlns="http://www.w3.org/2000/svg" xmlns:xlink="http://www.w3.org/1999/xlink" viewBox="0 0 133.26 153.11"><defs><radialGradient id="Dégradé_sans_nom" cx="-5306.7" cy="3008.08" r="1.2" gradientTransform="matrix(23.32, 0, 0, -9.7, 123812.87, 29323.18)" gradientUnits="userSpaceOnUse"><stop offset="0.19" stop-color="#5f5c5d"/><stop offset="1" stop-color="#fff"/></radialGradient><radialGradient id="Dégradé_sans_nom_2" cx="-5286.14" cy="3041.79" r="0.5" gradientTransform="matrix(21.46, 0, 0, -10.81, 113463.27, 32959.59)" gradientUnits="userSpaceOnUse"><stop offset="0" stop-color="#1da2f7"/><stop offset="1" stop-color="#1d62f1"/></radialGradient><radialGradient id="Dégradé_sans_nom_3" cx="-5253.88" cy="3076.58" r="0.5" gradientTransform="matrix(19.08, 0, 0, -12.26, 100256.76, 37791.84)" xlink:href="#Dégradé_sans_nom_2"/><radialGradient id="Dégradé_sans_nom_4" cx="-5272.54" cy="2964.25" r="0.5" gradientTransform="matrix(20.39, 0, 0, -8.56, 107511.58, 25445.55)" xlink:href="#Dégradé_sans_nom_2"/><radialGradient id="Dégradé_sans_nom_5" cx="-5272.54" cy="2964.25" r="0.5" gradientTransform="matrix(20.39, 0, 0, -8.56, 107511.94, 25445.59)" xlink:href="#Dégradé_sans_nom_2"/><radialGradient id="Dégradé_sans_nom_6" cx="-5319.09" cy="2871.11" r="0.5" gradientTransform="matrix(24.6, 0, 0, -6.84, 130897.49, 19733.9)" xlink:href="#Dégradé_sans_nom_2"/></defs><title>target</title><g id="Groupe_9963" data-name="Groupe 9963"><g id="_2" data-name=" 2"><ellipse id="Ellipse_407" data-name="Ellipse 407" cx="73.27" cy="141.45" rx="28.03" ry="11.66" style="fill:url(#Dégradé_sans_nom)"/><g id="Groupe_9945" data-name="Groupe 9945"><g id="Groupe_9944" data-name="Groupe 9944"><path id="Tracé_21216" data-name="Tracé 21216" d="M86.93,136.83c-8.69,8.69-17.85,11.83-25.69,10-.25,0-3.69-.89-3.9-.93-7.93-2.25,1.78-5.43-1.48-17.6C49.28,103.8,58.4,69.54,76.21,51.73c8.82-8.82.72-17,8.65-15,.21,0,4.79,1.7,5,1.78,7.8,2.34,14.2,9.76,17.42,21.75C113.81,84.76,104.74,119,86.93,136.83Z" transform="translate(-0.01 0)" style="fill:#b8c4e0"/><path id="Tracé_21217" data-name="Tracé 21217" d="M104.45,59.53C101.31,47.79,95.12,40.45,87.61,38c6,3.4,10.81,10.18,13.49,20.1,6.57,24.47-2.55,58.73-20.36,76.54-9.28,9.28-19,12.21-27.22,9.5,8.78,4.91,20,2.54,30.61-8C101.9,118.26,111,84,104.45,59.53Z" transform="translate(-0.01 0)" style="fill:#b8c4e0"/></g><ellipse id="Ellipse_408" data-name="Ellipse 408" cx="70.89" cy="91.1" rx="56.18" ry="32.44" transform="translate(-35.22 136.56) rotate(-75.31)" style="fill:#b8c4e0"/><ellipse id="Ellipse_409" data-name="Ellipse 409" cx="70.89" cy="91.1" rx="53.59" ry="30.95" transform="translate(-35.22 136.56) rotate(-75.31)" style="fill:#b8c4e0"/><ellipse id="Ellipse_410" data-name="Ellipse 410" cx="70.89" cy="91.1" rx="45.96" ry="26.54" transform="translate(-35.22 136.56) rotate(-75.31)" style="fill:#f3f6fe"/><ellipse id="Ellipse_411" data-name="Ellipse 411" cx="70.89" cy="91.1" rx="38.29" ry="22.09" transform="matrix(0.25, -0.97, 0.97, 0.25, -35.22, 136.56)" style="fill:#b8c4e0"/><ellipse id="Ellipse_412" data-name="Ellipse 412" cx="70.89" cy="91.1" rx="30.65" ry="17.68" transform="translate(-35.22 136.57) rotate(-75.31)" style="fill:#f3f6fe"/><ellipse id="Ellipse_413" data-name="Ellipse 413" cx="70.89" cy="91.1" rx="22.98" ry="13.27" transform="translate(-35.22 136.56) rotate(-75.31)" style="fill:#b8c4e0"/><ellipse id="Ellipse_414" data-name="Ellipse 414" cx="70.89" cy="91.1" rx="15.31" ry="8.86" transform="translate(-35.22 136.57) rotate(-75.31)" style="fill:#f3f6fe"/><path id="Tracé_21218" data-name="Tracé 21218" d="M45.08,117.16C39.7,97.06,47.2,69,61.79,54.36A35.49,35.49,0,0,1,69,48.72a34,34,0,0,0-7.89,6C46.48,69.37,39,97.48,44.4,117.54c4.5,16.79,16.58,22.64,29,15.56C61.24,139.59,49.49,133.65,45.08,117.16Z" transform="translate(-0.01 0)" style="fill:#f3f6fe"/><path id="Tracé_21219" data-name="Tracé 21219" d="M53.9,108.34c-3.6-13.4,1.4-32.14,11.16-41.85a22.74,22.74,0,0,1,4.57-3.6,21.74,21.74,0,0,0-5.21,4c-9.75,9.75-14.71,28.49-11.15,41.84,3,11.33,11.19,15.18,19.55,10.22C64.67,123.31,56.87,119.36,53.9,108.34Z" transform="translate(-0.01 0)" style="fill:#d1d3d4"/><path id="Tracé_21220" data-name="Tracé 21220" d="M62.72,99.52c-1.78-6.7.72-16.07,5.56-21a10.24,10.24,0,0,1,2.2-1.73A10.75,10.75,0,0,0,67.64,79c-4.88,4.87-7.38,14.24-5.56,20.94,1.53,5.68,5.68,7.63,9.88,5C68,106.93,64.16,105,62.72,99.52Z" transform="translate(-0.01 0)" style="fill:#d1d3d4"/><ellipse id="Ellipse_415" data-name="Ellipse 415" cx="70.89" cy="91.1" rx="7.67" ry="4.41" transform="translate(-35.22 136.57) rotate(-75.31)" style="fill:#b8c4e0"/><path id="Tracé_21221" data-name="Tracé 21221" d="M101.73,60.21c-2.25-8.43-6.19-14.54-11.06-18.06,4.62,3.56,8.31,9.5,10.47,17.6,6.27,23.4-2.46,56.22-19.5,73.27-10.9,10.9-22.56,12.72-31.17,6.49,8.7,6.74,20.61,5.08,31.76-6.07C99.27,116.44,108,83.66,101.73,60.21Z" transform="translate(-0.01 0)" style="fill:#b8c4e0"/><path id="Tracé_21222" data-name="Tracé 21222" d="M92.91,69C91.3,63,88.5,58.69,85,56.19c3.18,2.54,5.77,6.74,7.3,12.42,4.49,16.75-1.74,40.15-13.91,52.32-7.8,7.8-16.11,9.07-22.3,4.62,6.23,5,14.84,3.86,22.85-4.15C91.17,109.19,97.41,85.79,92.91,69Z" transform="translate(-0.01 0)" style="fill:#b8c4e0"/><path id="Tracé_21223" data-name="Tracé 21223" d="M84.09,77.85c-1-3.73-2.75-6.36-4.91-7.84a13.78,13.78,0,0,1,4.32,7.42c2.67,10-1.06,24.08-8.35,31.42-4.58,4.58-9.5,5.42-13.19,2.88,3.73,3,8.9,2.37,13.78-2.46C83.07,101.94,86.81,87.9,84.09,77.85Z" transform="translate(-0.01 0)" style="fill:#f3f6fe"/><path id="Tracé_21224" data-name="Tracé 21224" d="M75.27,86.67A4.27,4.27,0,0,0,73.45,84a4.51,4.51,0,0,1,1.23,2.29,11.91,11.91,0,0,1-2.8,10.47c-1.44,1.44-3,1.78-4.2,1.06,1.27,1.19,3.1,1.06,4.79-.64A11.78,11.78,0,0,0,75.27,86.67Z" transform="translate(-0.01 0)" style="fill:#b8c4e0"/></g><g id="Groupe_9952" data-name="Groupe 9952"><g id="Groupe_9951" data-name="Groupe 9951"><path id="Tracé_21237" data-name="Tracé 21237" d="M64.42,88.16l7.64,2.37-7.93-1.74Z" transform="translate(-0.01 0)" style="fill:#1d8df5"/><path id="Tracé_21238" data-name="Tracé 21238" d="M2.64,72.3l-2.24-3a1.87,1.87,0,0,1,2.41-2.76L21.47,77.22Z" transform="translate(-0.01 0)" style="fill:#1d8df5"/><path id="Tracé_21239" data-name="Tracé 21239" d="M3,72.13l-2.25-3a1.9,1.9,0,0,1,.4-2.67,1.37,1.37,0,0,1,.2-.13A1.86,1.86,0,0,0,.14,68.69a1.88,1.88,0,0,0,.3.6l2.25,3,18.83,4.91-.81-.46Z" transform="translate(-0.01 0)" style="fill:url(#Dégradé_sans_nom_2)"/><g id="Groupe_9949" data-name="Groupe 9949"><path id="Tracé_21240" data-name="Tracé 21240" d="M65.06,89a.32.32,0,0,1-.17.09A24.38,24.38,0,0,1,56,88.16c-7.84-2.08-8.86-2.72-8.86-2.72-.21,0,0-.13,0-.46a2.41,2.41,0,0,1,.51-2c.21-.21,0-.42.21-.38,0,0,1.15,0,9,2.12A23.55,23.55,0,0,1,65,88.37s.09,0,.13.12A.46.46,0,0,1,65.06,89Z" transform="translate(-0.01 0)" style="fill:#1d8df5"/><ellipse id="Ellipse_416" data-name="Ellipse 416" cx="47.54" cy="84.01" rx="1.44" ry="0.85" transform="translate(-45.79 108.68) rotate(-75.31)" style="fill:#1d8df5"/></g><g id="Groupe_9950" data-name="Groupe 9950"><path id="Tracé_21241" data-name="Tracé 21241" d="M47.67,85a.69.69,0,0,1-.63.25S1.41,73,1.37,73c-.21,0,0-.13,0-.43a2.13,2.13,0,0,1,.51-1.9c.21-.22,0-.43.21-.39L47.72,82.6c.21.05.33.26.42.55A2.06,2.06,0,0,1,47.67,85Z" transform="translate(-0.01 0)" style="fill:#b8c4e0"/><path id="Tracé_21242" data-name="Tracé 21242" d="M2,72.72a.62.62,0,0,1-.86.13.61.61,0,0,1-.24-.43,2.1,2.1,0,0,1,.51-1.91.61.61,0,0,1,.85-.13.64.64,0,0,1,.25.43A2.21,2.21,0,0,1,2,72.72Z" transform="translate(-0.01 0)" style="fill:#b8c4e0"/></g><path id="Tracé_21243" data-name="Tracé 21243" d="M3.15,70.9,22.23,76,13.54,65.81a5.77,5.77,0,0,0-10.13,3Z" transform="translate(-0.01 0)" style="fill:url(#Dégradé_sans_nom_3)"/><path id="Tracé_21244" data-name="Tracé 21244" d="M3.41,71.07,22.49,76.2,13.79,66A5.78,5.78,0,0,0,3.66,69Z" transform="translate(-0.01 0)" style="fill:#1d8df5"/><path id="Tracé_21245" data-name="Tracé 21245" d="M3.79,69.25a5.77,5.77,0,0,1,10.13-3l8.44,9.92.17,0L13.84,66A5.78,5.78,0,0,0,3.7,69l-.25,2.08.13,0Z" transform="translate(-0.01 0)" style="fill:#1d8df5"/><path id="Tracé_21246" data-name="Tracé 21246" d="M2.52,73.1l-.77,1.36A4.82,4.82,0,0,0,7,81.54l14.5-3.22Z" transform="translate(-0.01 0)" style="fill:url(#Dégradé_sans_nom_4)"/><path id="Tracé_21247" data-name="Tracé 21247" d="M2.85,73.15,2.09,74.5a4.81,4.81,0,0,0,5.26,7.08l14.5-3.22Z" transform="translate(-0.01 0)" style="fill:#1d8df5"/><path id="Tracé_21248" data-name="Tracé 21248" d="M7.65,81.5a4.82,4.82,0,0,1-5.26-7.08l.68-1.23-.22,0L2.09,74.5a4.81,4.81,0,0,0,5.26,7.08l14.5-3.22h0Z" transform="translate(-0.01 0)" style="fill:url(#Dégradé_sans_nom_5)"/><path id="Tracé_21249" data-name="Tracé 21249" d="M61.24,87c-.17.72-5.85-.09-12.63-1.82s-12.13-3.78-12-4.5,5.85.09,12.63,1.82S61.41,86.21,61.24,87Z" transform="translate(-0.01 0)" style="fill:url(#Dégradé_sans_nom_6)"/></g></g></g><g id="Groupe_9953" data-name="Groupe 9953"><g id="Groupe_9937" data-name="Groupe 9937"><g id="Tracé_84" data-name="Tracé 84"><path d="M27.43,30.93a2.77,2.77,0,1,1-2.77-2.77h0A2.77,2.77,0,0,1,27.43,30.93Z" transform="translate(-0.01 0)" style="fill:none"/><path d="M24.66,28.16a2.77,2.77,0,1,0,2.77,2.77,2.77,2.77,0,0,0-2.77-2.77m0-2a4.77,4.77,0,1,1-4.76,4.77A4.78,4.78,0,0,1,24.66,26.16Z" transform="translate(-0.01 0)" style="fill:#fff"/></g><g id="Tracé_85" data-name="Tracé 85"><path d="M131.27,66.55a2.77,2.77,0,1,1-2.76-2.76h0A2.77,2.77,0,0,1,131.27,66.55Z" transform="translate(-0.01 0)" style="fill:none"/><path d="M128.51,63.79a2.76,2.76,0,1,0,2.76,2.76,2.77,2.77,0,0,0-2.76-2.76m0-2a4.76,4.76,0,1,1-4.77,4.76A4.77,4.77,0,0,1,128.51,61.79Z" transform="translate(-0.01 0)" style="fill:#fff"/></g><circle id="Ellipse_6" data-name="Ellipse 6" cx="18.43" cy="38.39" r="1.38" style="fill:#fff"/><circle id="Ellipse_7" data-name="Ellipse 7" cx="125.15" cy="76.14" r="1.38" style="fill:#fff"/><g id="Groupe_34" data-name="Groupe 34"><g id="Groupe_30" data-name="Groupe 30"><line id="Ligne_8" data-name="Ligne 8" x1="36.09" y1="1" x2="36.09" y2="4.2" style="fill:none;stroke:#fff;stroke-linecap:round;stroke-miterlimit:10;stroke-width:2px"/><line id="Ligne_9" data-name="Ligne 9" x1="36.09" y1="9.75" x2="36.09" y2="12.95" style="fill:none;stroke:#fff;stroke-linecap:round;stroke-miterlimit:10;stroke-width:2px"/></g><g id="Groupe_31" data-name="Groupe 31"><line id="Ligne_10" data-name="Ligne 10" x1="42.07" y1="6.98" x2="38.86" y2="6.98" style="fill:none;stroke:#fff;stroke-linecap:round;stroke-miterlimit:10;stroke-width:2px"/><line id="Ligne_11" data-name="Ligne 11" x1="33.32" y1="6.98" x2="30.12" y2="6.98" style="fill:none;stroke:#fff;stroke-linecap:round;stroke-miterlimit:10;stroke-width:2px"/></g><g id="Groupe_32" data-name="Groupe 32"><line id="Ligne_12" data-name="Ligne 12" x1="31.87" y1="2.75" x2="34.13" y2="5.02" style="fill:none;stroke:#fff;stroke-linecap:round;stroke-miterlimit:10;stroke-width:2px"/><line id="Ligne_13" data-name="Ligne 13" x1="38.05" y1="8.93" x2="40.32" y2="11.2" style="fill:none;stroke:#fff;stroke-linecap:round;stroke-miterlimit:10;stroke-width:2px"/></g><g id="Groupe_33" data-name="Groupe 33"><line id="Ligne_14" data-name="Ligne 14" x1="40.32" y1="2.75" x2="38.05" y2="5.02" style="fill:none;stroke:#fff;stroke-linecap:round;stroke-miterlimit:10;stroke-width:2px"/><line id="Ligne_15" data-name="Ligne 15" x1="34.13" y1="8.93" x2="31.87" y2="11.2" style="fill:none;stroke:#fff;stroke-linecap:round;stroke-miterlimit:10;stroke-width:2px"/></g></g><g id="Groupe_39" data-name="Groupe 39"><g id="Groupe_35" data-name="Groupe 35"><line id="Ligne_16" data-name="Ligne 16" x1="27.96" y1="41.36" x2="27.96" y2="42.51" style="fill:none;stroke:#fff;stroke-linecap:round;stroke-miterlimit:10;stroke-width:2px"/><line id="Ligne_17" data-name="Ligne 17" x1="27.96" y1="44.51" x2="27.96" y2="45.66" style="fill:none;stroke:#fff;stroke-linecap:round;stroke-miterlimit:10;stroke-width:2px"/></g><g id="Groupe_36" data-name="Groupe 36"><line id="Ligne_18" data-name="Ligne 18" x1="30.12" y1="43.51" x2="28.96" y2="43.51" style="fill:none;stroke:#fff;stroke-linecap:round;stroke-miterlimit:10;stroke-width:2px"/><line id="Ligne_19" data-name="Ligne 19" x1="26.97" y1="43.51" x2="25.81" y2="43.51" style="fill:none;stroke:#fff;stroke-linecap:round;stroke-miterlimit:10;stroke-width:2px"/></g><g id="Groupe_37" data-name="Groupe 37"><line id="Ligne_20" data-name="Ligne 20" x1="26.44" y1="41.99" x2="27.26" y2="42.81" style="fill:none;stroke:#fff;stroke-linecap:round;stroke-miterlimit:10;stroke-width:2px"/><line id="Ligne_21" data-name="Ligne 21" x1="28.67" y1="44.22" x2="29.49" y2="45.03" style="fill:none;stroke:#fff;stroke-linecap:round;stroke-miterlimit:10;stroke-width:2px"/></g><g id="Groupe_38" data-name="Groupe 38"><line id="Ligne_22" data-name="Ligne 22" x1="29.49" y1="41.99" x2="28.67" y2="42.81" style="fill:none;stroke:#fff;stroke-linecap:round;stroke-miterlimit:10;stroke-width:2px"/><line id="Ligne_23" data-name="Ligne 23" x1="27.26" y1="44.22" x2="26.44" y2="45.03" style="fill:none;stroke:#fff;stroke-linecap:round;stroke-miterlimit:10;stroke-width:2px"/></g></g><g id="Groupe_44" data-name="Groupe 44"><g id="Groupe_40" data-name="Groupe 40"><line id="Ligne_24" data-name="Ligne 24" x1="67.19" y1="109.17" x2="67.19" y2="110.32" style="fill:none;stroke:#fff;stroke-linecap:round;stroke-miterlimit:10;stroke-width:2px"/><line id="Ligne_25" data-name="Ligne 25" x1="67.19" y1="112.32" x2="67.19" y2="113.47" style="fill:none;stroke:#fff;stroke-linecap:round;stroke-miterlimit:10;stroke-width:2px"/></g><g id="Groupe_41" data-name="Groupe 41"><line id="Ligne_26" data-name="Ligne 26" x1="69.34" y1="111.32" x2="68.18" y2="111.32" style="fill:none;stroke:#fff;stroke-linecap:round;stroke-miterlimit:10;stroke-width:2px"/><line id="Ligne_27" data-name="Ligne 27" x1="66.19" y1="111.32" x2="65.03" y2="111.32" style="fill:none;stroke:#fff;stroke-linecap:round;stroke-miterlimit:10;stroke-width:2px"/></g><g id="Groupe_42" data-name="Groupe 42"><line id="Ligne_28" data-name="Ligne 28" x1="65.66" y1="109.8" x2="66.48" y2="110.61" style="fill:none;stroke:#fff;stroke-linecap:round;stroke-miterlimit:10;stroke-width:2px"/><line id="Ligne_29" data-name="Ligne 29" x1="67.89" y1="112.02" x2="68.71" y2="112.84" style="fill:none;stroke:#fff;stroke-linecap:round;stroke-miterlimit:10;stroke-width:2px"/></g><g id="Groupe_43" data-name="Groupe 43"><line id="Ligne_30" data-name="Ligne 30" x1="68.71" y1="109.8" x2="67.89" y2="110.61" style="fill:none;stroke:#fff;stroke-linecap:round;stroke-miterlimit:10;stroke-width:2px"/><line id="Ligne_31" data-name="Ligne 31" x1="66.48" y1="112.02" x2="65.66" y2="112.84" style="fill:none;stroke:#fff;stroke-linecap:round;stroke-miterlimit:10;stroke-width:2px"/></g></g></g></g></g></svg>