<svg id="Calque_1" data-name="Calque 1" xmlns="http://www.w3.org/2000/svg" xmlns:xlink="http://www.w3.org/1999/xlink" viewBox="0 0 254.42 223.49"><defs><linearGradient id="Dégradé_sans_nom" x1="-5460.99" y1="3357.59" x2="-5460.99" y2="3356.59" gradientTransform="matrix(233.35, 0, 0, -223.35, 1274471.95, 749927.96)" gradientUnits="userSpaceOnUse"><stop offset="0" stop-color="#86f5bb"/><stop offset="1" stop-color="#8dd9ea"/></linearGradient></defs><title>thanksneo</title><g id="Groupe_11297" data-name="Groupe 11297"><g id="Groupe_11293" data-name="Groupe 11293"><path id="iconmonstr-star-3" d="M126.92,0l35.66,74.05,81,11.26-59,57,14.39,81-72.11-38.82L54.8,223.35l14.4-81-59-57,81-11.26Z" transform="translate(0.01 0)" style="fill:url(#Dégradé_sans_nom)"/><g id="Objects"><g id="Groupe_43" data-name="Groupe 43"><path id="Tracé_32" data-name="Tracé 32" d="M184.58,219.63c0,2-23.71,3.59-53,3.59s-52.95-1.61-52.95-3.59S102.39,216,131.63,216,184.58,217.64,184.58,219.63Z" transform="translate(0.01 0)" style="fill:#f3f6fe;opacity:0.75;isolation:isolate"/><g id="Groupe_41" data-name="Groupe 41" style="opacity:0.75"><path id="Tracé_67" data-name="Tracé 67" d="M55.23,84.32c0,3.5-1.55,5.05-5,5.05,3.5,0,5,1.55,5,5,0-3.5,1.55-5,5-5C56.78,89.37,55.23,87.82,55.23,84.32Z" transform="translate(0.01 0)" style="fill:#fff"/><path id="Tracé_68" data-name="Tracé 68" d="M44.6,96.78c0,4.88-2.16,7-7,7,4.88,0,7,2.16,7,7,0-4.88,2.16-7,7-7C46.76,103.82,44.6,101.66,44.6,96.78Z" transform="translate(0.01 0)" style="fill:#fff"/><path id="Tracé_69" data-name="Tracé 69" d="M59,98.79a1.08,1.08,0,1,1-1.07-1.07A1.07,1.07,0,0,1,59,98.79Z" transform="translate(0.01 0)" style="fill:#fff"/><path id="Tracé_70" data-name="Tracé 70" d="M43.12,90a1.75,1.75,0,1,1-1.75-1.75h0A1.75,1.75,0,0,1,43.12,90Z" transform="translate(0.01 0)" style="fill:#fff"/><path id="Tracé_71" data-name="Tracé 71" d="M54.78,108.36a1,1,0,1,1-1-1h0A1,1,0,0,1,54.78,108.36Z" transform="translate(0.01 0)" style="fill:#fff"/></g><g id="Groupe_42" data-name="Groupe 42" style="opacity:0.7480000257492065"><path id="Tracé_72" data-name="Tracé 72" d="M211.7,101.61c0,3.5,1.55,5,5.05,5-3.5,0-5.05,1.55-5.05,5,0-3.5-1.55-5-5-5C210.15,106.65,211.7,105.1,211.7,101.61Z" transform="translate(0.01 0)" style="fill:#fff"/><path id="Tracé_73" data-name="Tracé 73" d="M222.33,114.06c0,4.88,2.16,7,7,7-4.88,0-7,2.16-7,7,0-4.88-2.17-7-7.05-7C220.16,121.1,222.33,118.94,222.33,114.06Z" transform="translate(0.01 0)" style="fill:#fff"/><path id="Tracé_74" data-name="Tracé 74" d="M207.94,116.07A1.07,1.07,0,1,0,209,115h0A1.07,1.07,0,0,0,207.94,116.07Z" transform="translate(0.01 0)" style="fill:#fff"/><path id="Tracé_75" data-name="Tracé 75" d="M223.81,107.3a1.75,1.75,0,1,0,1.75-1.75,1.75,1.75,0,0,0-1.75,1.75Z" transform="translate(0.01 0)" style="fill:#fff"/><path id="Tracé_76" data-name="Tracé 76" d="M212.14,125.63a1,1,0,1,0,1-1h0A1,1,0,0,0,212.14,125.63Z" transform="translate(0.01 0)" style="fill:#fff"/></g></g></g></g><g id="Groupe_11239" data-name="Groupe 11239"><g id="Groupe_11237" data-name="Groupe 11237"><path id="Tracé_22528" data-name="Tracé 22528" d="M67.52,100.35a15.54,15.54,0,0,0-1.44,1.37,215.61,215.61,0,0,1,8.62,27.89c2.26,10-42.41,6.13-55.61,4.13-2.5-.38-2.25-13.21-4.92-12.48s-1.67,7.89-1.67,7.89-4.57-.15-6.43.46-10,5.57-3.78,9.4,72.45,4.54,77.67-1.89c4-4.94-1.9-27.4-4.86-37.57C72.58,99.31,69.29,98.88,67.52,100.35Z" transform="translate(0.01 0)" style="fill:#8595ba"/></g><g id="Groupe_11238" data-name="Groupe 11238"><path id="Tracé_22528-2" data-name="Tracé 22528-2" d="M186.87,103.26a16.91,16.91,0,0,1,1.45,1.36,215.61,215.61,0,0,0-8.62,27.89c-2.27,10,42.41,6.13,55.61,4.13,2.5-.38,2.25-13.21,4.91-12.48s1.67,7.89,1.67,7.89,4.58-.14,6.43.46,10,5.58,3.78,9.4-72.44,4.54-77.67-1.89c-4-4.93,1.9-27.4,4.86-37.56C181.81,102.21,185.1,101.78,186.87,103.26Z" transform="translate(0.01 0)" style="fill:#8595ba"/></g><g id="Groupe_11165" data-name="Groupe 11165"><g id="Groupe_11160" data-name="Groupe 11160"><g id="Groupe_10778" data-name="Groupe 10778"><g id="Groupe_10740" data-name="Groupe 10740"><g id="Groupe_10740-2" data-name="Groupe 10740-2"><g id="Groupe_10738" data-name="Groupe 10738"><g id="Groupe_34" data-name="Groupe 34"><g id="Groupe_25" data-name="Groupe 25"><path id="Tracé_87" data-name="Tracé 87" d="M100.39,155.33s3.88,60.29,1.94,62.08-12.6.19-14.54,3.51,16.29,3.13,18.62,1.08,0-66.67,0-66.67Z" transform="translate(0.01 0)" style="fill:#8595ba"/><path id="Tracé_88" data-name="Tracé 88" d="M155.59,153.89s-3.88,60.3-1.94,62.08,12.6.19,14.54,3.51-16.29,3.14-18.62,1.09,0-66.68,0-66.68Z" transform="translate(0.01 0)" style="fill:#8595ba"/></g><g id="Groupe_27" data-name="Groupe 27"><path id="Tracé_89" data-name="Tracé 89" d="M168.79,168.09c1.86.79,8.15,3,13.24-.24,6.05-3.88,6.05-8.47,6.05-8.47a17.65,17.65,0,0,0,17.66-4.11c8.46-7.74,4.6-23.18,4.6-23.18s7.93-4.12,7-12.62C215.86,105.73,201.87,105,201.87,105s4.35-10.4-3.39-17.66-17.9-5.56-17.9-5.56,1.94-5.56-2.9-9-8.7-1.37-8.7-1.37.84-11-9.17-14.74c-9.54-3.57-17.69,2.08-17.69,2.08s-6.05-6.53-14.76-5.32S113.82,59,113.82,59a15.41,15.41,0,0,0-15-3.39A13.92,13.92,0,0,0,88.66,66.73S73.13,62.4,64.66,73,60.3,92.59,60.3,92.59,46.32,90.68,42,104a23.47,23.47,0,0,0,3.62,22.25S34.22,137.61,39.06,150s16.44,9.73,16.44,9.73,1,10.59,12.35,11.31,16.21-3.38,16.21-3.38,9.91,8.22,19.59,7.25S117,170,117,170s9.19,5.23,18.14,4.91,16.21-6.36,16.21-6.36a9.55,9.55,0,0,0,8.95,4.35C166.29,172.3,168.44,167.94,168.79,168.09Z" transform="translate(0.01 0)" style="fill:#f3f6fe"/><g id="Groupe_26" data-name="Groupe 26"><path id="Tracé_90" data-name="Tracé 90" d="M219.51,119.23c-1.14-10.51-9.1-14.84-14.82-16.08.93-3.94,1.59-11.53-4.72-17.45a24.42,24.42,0,0,0-16.71-6.32h-.12A9.76,9.76,0,0,0,178.92,71a12.29,12.29,0,0,0-6.66-2.5,14.3,14.3,0,0,0-1.47-4,17.44,17.44,0,0,0-10.23-9.87,20.85,20.85,0,0,0-7.29-1.32,23.15,23.15,0,0,0-7.15,1.19h-.06l-.53.19-.3.11h0a23.21,23.21,0,0,0-2.79,1.24,20.48,20.48,0,0,0-12.9-5,18.23,18.23,0,0,0-2.45.17,31.18,31.18,0,0,0-13.18,4.94,17.6,17.6,0,0,0-10.44-3.46,19.28,19.28,0,0,0-5.23.76A16,16,0,0,0,87,64.21c-4.77-.7-16.24-1.22-23.53,7.94-4.87,6.12-6.06,11.32-6.08,14.91a.43.43,0,0,1,0,0,14.15,14.15,0,0,0,.15,2.26c-4.74.55-14.08,3-17.65,13.94A25.81,25.81,0,0,0,42.69,126a6.11,6.11,0,0,0-.43.49,2.08,2.08,0,0,0-.4.8c-3.3,4.31-8.74,13.48-4.82,23.47,3.51,9,10.47,10.3,14.31,10.3a17.63,17.63,0,0,0,2.61-.19c1.11,5,4.86,11.74,13.75,12.31.94.06,1.87.09,2.78.09,7,0,11.35-1.81,13.46-3,2.91,2.11,10.3,6.85,18.09,6.85.62,0,1.23,0,1.83-.08a29.43,29.43,0,0,0,12-3.55,7,7,0,0,0,1.46-.81c2.93,1.45,9.87,4.46,17,4.46l.88,0c6.94-.25,12.84-3.6,15.7-5.53a6.66,6.66,0,0,0,.78.72c.05,0,.12.06.17.1a11.22,11.22,0,0,0,7.39,2.75h0c.42,0,.84,0,1.25-.06a13.61,13.61,0,0,0,8.87-4.46,20.33,20.33,0,0,0,6.42,1.11,13.57,13.57,0,0,0,7.44-2.06,15.27,15.27,0,0,0,6.5-7.63,19.19,19.19,0,0,0,3.71.35,20.11,20.11,0,0,0,13.8-5.53c7.74-7.07,6.35-19.38,5.56-23.74C215.33,131.32,220.33,126.78,219.51,119.23Zm-9.73,10.66c-1.16-.35-2.58-.75-4.31-1.18a8.56,8.56,0,0,0-8.65,2.26,7.34,7.34,0,0,0-1.4,7.55,6.22,6.22,0,0,0,6.29,4.1,10.32,10.32,0,0,0,3.26-.54,2,2,0,1,0-1.28-3.72c-.15,0-3.68,1.23-4.57-1.19a3.5,3.5,0,0,1,.63-3.57,4.67,4.67,0,0,1,4.76-1.07c1.56.39,2.85.75,3.91,1.07.62,3.33,2.1,14.34-4.16,20.06a15.67,15.67,0,0,1-10.85,4.39,14.52,14.52,0,0,1-4.34-.63l-3.92-7.55a2.18,2.18,0,1,0-3.9,1.94.25.25,0,0,0,0,.07l4.4,8.48c-.4,1.28-1.54,3.54-4.84,5.66a9.32,9.32,0,0,1-5.09,1.37,16.55,16.55,0,0,1-6.13-1.3l-.43-.18h-.44a2.84,2.84,0,0,0-2.17,1.27,9.43,9.43,0,0,1-6.55,3.58,7.49,7.49,0,0,1-.81.05h0a7.3,7.3,0,0,1-5.69-2.85,7.08,7.08,0,0,1-1-4.11,3.55,3.55,0,0,1,1.63-3c2.79-1.6,4.13-.25,4.49.22a2.18,2.18,0,1,0,3.57-2.49c-1.26-1.83-5-4.51-10.23-1.51a7.73,7.73,0,0,0-3.8,6.43,11.2,11.2,0,0,0,.56,4.26c-2.29,1.59-7.6,4.76-13.69,5-5.83.2-11.87-2.18-14.94-3.6v0c1.25-3.06,1-7-.87-11-2.78-6.17-9.46-6-12.6-5a2.18,2.18,0,0,0,1.28,4.17h0c.22-.07,5.44-1.63,7.35,2.62,1.3,2.89,1.6,5.64.81,7.57a4.22,4.22,0,0,1-.34.67l-.33.34s-3.38,3.32-12,4.18a13.26,13.26,0,0,1-1.4.07c-6.55,0-13.13-4.29-15.58-6.07l.55-6.6a2.18,2.18,0,0,0-4.35-.35h0l-.54,6.54c-1.29.79-5,2.62-11.64,2.62-.81,0-1.65,0-2.5-.09-9-.57-10-9.76-10-10.64a6,6,0,0,1,3.22-4.77,4.67,4.67,0,0,1,2.88-.78l-.15-.06,1.7-4c-.42-.17-2.71-1-6.46,1a10.14,10.14,0,0,0-5.31,6.9,13.81,13.81,0,0,1-2.49.23c-4.84,0-8.29-2.53-10.25-7.53-4.06-10.36,5.07-20.35,6-21.3a11.13,11.13,0,0,1,7.11-2.47,6.74,6.74,0,0,1,6.3,4.17A2.17,2.17,0,0,0,62.52,131a2.38,2.38,0,0,0,.7-.11,2.19,2.19,0,0,0,1.37-2.76A11,11,0,0,0,54.25,121a15,15,0,0,0-8.15,2.2A21.7,21.7,0,0,1,44,104.66c3-9.28,11.46-10.81,14.85-11A10.43,10.43,0,0,0,67,99.48a12,12,0,0,0,1.69.12c5.73,0,9.32-4.41,10.49-7a2.18,2.18,0,0,0-4-1.82c-.1.21-2.47,5.09-7.59,4.35a6.2,6.2,0,0,1-4.46-2.78l-.9-1.93s-.06-.15-.12-.33a10.48,10.48,0,0,1-.43-2.89,1.49,1.49,0,0,0,0-.21c0-2.72,1-6.93,5.15-12.17,6.47-8.13,17.4-6.75,20.42-6.19l3.07,6.9a2.17,2.17,0,0,0,2,1.29,2.09,2.09,0,0,0,.89-.19,2.17,2.17,0,0,0,1.1-2.87l-3.31-7.45a.57.57,0,0,0-.08-.13,11.78,11.78,0,0,1,8.45-8.53,14.81,14.81,0,0,1,4-.59,13.24,13.24,0,0,1,8.8,3.4l.49.5c.82,1.22,2,3.56.83,5.9A4.87,4.87,0,0,1,109,70a2.18,2.18,0,0,0-.41,4.34l.49,0a9.26,9.26,0,0,0,8.42-5.53,9.83,9.83,0,0,0-.61-9.35,26.94,26.94,0,0,1,10.79-3.87,14.54,14.54,0,0,1,1.86-.13A16,16,0,0,1,139.13,59a10.13,10.13,0,0,0-2.3,4.53A8.88,8.88,0,0,0,143,74.27a2.39,2.39,0,0,0,.53.06A2.18,2.18,0,0,0,144,70a4.52,4.52,0,0,1-2.94-5.58c.8-3.71,5.23-5.43,6.08-5.73a19,19,0,0,1,6.11-1.07A16.28,16.28,0,0,1,159,58.71a13.23,13.23,0,0,1,7.71,7.42c0,.06.05.11.07.17A15.66,15.66,0,0,1,168,71.16l0,3.67c-.71,3.1-2.33,3.11-3.06,3.11a4.69,4.69,0,0,1-2.48-.81,2.18,2.18,0,0,0-2.67,3.44,9,9,0,0,0,5.15,1.73c2,0,6.7-.8,7.6-8.18a10.53,10.53,0,0,0,.1-1.24,8.55,8.55,0,0,1,3.82,1.68,5.68,5.68,0,0,1,2.1,6.45l-1.19,3.44,3.6-.57a15.12,15.12,0,0,1,2.33-.15A20.13,20.13,0,0,1,197,88.88c5.74,5.37,3.71,12.8,3,14.75-.23.49-3.26,6.68-7.51,6.88a2.91,2.91,0,0,1-2.23-.51,1.94,1.94,0,0,1-.23-1.43,2.18,2.18,0,0,0-4.24-1,6.35,6.35,0,0,0,1.1,5.22,6.43,6.43,0,0,0,5.24,2.1h.56c5.14-.24,8.66-4.88,10.28-7.58,3.15.52,11.14,2.8,12.19,12.42.63,5.9-3.93,9.26-5.41,10.19Z" transform="translate(0.01 0)" style="fill:#b8c4e0"/><path id="Tracé_91" data-name="Tracé 91" d="M174.57,100.94a12.56,12.56,0,0,0-3-11.2c-7-8.46-17.66-6.59-24.26-3.6A15.28,15.28,0,0,0,137,74.55c-8-2.72-14.14,2.65-17,5.94-2.38-2.29-7-5.45-14.65-5.29-5.13.1-10,4-11.8,9.35A11.46,11.46,0,0,0,97.3,97.69,13.32,13.32,0,0,0,115,97.23a2.18,2.18,0,0,0-3-3.18,9,9,0,0,1-12,.23,7.29,7.29,0,0,1-2.3-8.34c1.23-3.64,4.5-6.32,7.77-6.39,9-.18,12.66,5.3,12.8,5.53a2.17,2.17,0,0,0,3,.7,2.21,2.21,0,0,0,.69-.67c.05-.09,5.92-9.07,13.66-6.44a11.09,11.09,0,0,1,7.69,10.8,2.16,2.16,0,0,0,2.05,2.3,2.12,2.12,0,0,0,1.27-.32c.56-.35,13.78-8.38,21.64,1.08a8.31,8.31,0,0,1,2.06,7.42,9,9,0,0,1-4.36,5.79c-2.85,1.28-6.41-.6-6.44-.62a2.18,2.18,0,1,0-2.1,3.82,14.72,14.72,0,0,0,5.35,1.55,10,10,0,0,0,5-.78A13.3,13.3,0,0,0,174.57,100.94Z" transform="translate(0.01 0)" style="fill:#b8c4e0"/><path id="Tracé_92" data-name="Tracé 92" d="M80,131.54a10,10,0,0,0-.51-5.6h0a11,11,0,0,0,3.72-.62,10,10,0,0,0,6.33-7.13,13.77,13.77,0,0,0-2.35-12.1c-4-4.74-10.26-3.55-13-2.26a2.18,2.18,0,0,0,1.86,3.94c.05,0,4.93-2.27,7.81,1.13A9.44,9.44,0,0,1,85.4,117a5.8,5.8,0,0,1-3.56,4.18,8.41,8.41,0,0,1-6.63-.8,17.76,17.76,0,0,0-2.53-1.7l-.22-.2a2.17,2.17,0,1,0-3.07,3.08l0,0s.29.28.68.61h0a17.41,17.41,0,0,0,2.69,1.82c1.66,1.41,3.5,3.7,2.94,6.67-.89,4.77-4.42,5-4.84,5a2.18,2.18,0,1,0,0,4.35C73.53,140.12,78.77,138.32,80,131.54Z" transform="translate(0.01 0)" style="fill:#b8c4e0"/><path id="Tracé_93" data-name="Tracé 93" d="M88.85,140.44c-8.42.26-11.37,7.65-11.49,8a2.18,2.18,0,0,0,4,1.63s0,0,0-.07A8.66,8.66,0,0,1,89,144.79c4.78-.15,5.29,5.2,5.33,5.8a2.18,2.18,0,0,0,2.17,2h.14a2.17,2.17,0,0,0,2-2.3C98.45,146.8,96.13,140.21,88.85,140.44Z" transform="translate(0.01 0)" style="fill:#b8c4e0"/><path id="Tracé_94" data-name="Tracé 94" d="M185,122.9c-3.5-2.94-8.78-2.07-9-2a2,2,0,0,0,.68,3.91s3.7-.58,5.77,1.16a4.9,4.9,0,0,1,1.49,4,6,6,0,0,1-1.61,4.6,6.82,6.82,0,0,1-4.58,1.44,2,2,0,0,0-2.15,1.81,2.31,2.31,0,0,0,0,.64c.2.81.53,3.43-.5,4.86a3,3,0,0,1-2.37,1.11,4.2,4.2,0,0,1-3.41-.89,5.11,5.11,0,0,1-1.13-3.58,2,2,0,1,0-4-.31h0a9,9,0,0,0,2.27,6.67,7.51,7.51,0,0,0,5.58,2.1c.31,0,.63,0,1,0a6.83,6.83,0,0,0,5.27-2.74,9.19,9.19,0,0,0,1.46-5.79,9.1,9.1,0,0,0,8.08-9.88A8.72,8.72,0,0,0,185,122.9Z" transform="translate(0.01 0)" style="fill:#b8c4e0"/></g></g></g></g></g></g><g id="Groupe_10805" data-name="Groupe 10805"><path id="Tracé_22522" data-name="Tracé 22522" d="M148.26,96.88s9.21-1.43,15.19,1.6,8.72,10.5,8.72,10.5" transform="translate(0.01 0)" style="fill:none;stroke:#8595ba;stroke-linecap:round;stroke-linejoin:bevel;stroke-width:4px"/><path id="Tracé_22523" data-name="Tracé 22523" d="M115,96.88s-9.21-1.43-15.19,1.6S91,109,91,109" transform="translate(0.01 0)" style="fill:none;stroke:#8595ba;stroke-linecap:round;stroke-linejoin:bevel;stroke-width:4px"/></g><g id="Groupe_24" data-name="Groupe 24"><path id="Tracé_53" data-name="Tracé 53" d="M120.93,131.66l0-.41c0-.13,0-.3.06-.49s0-.2,0-.32,0-.26,0-.4,0-.61,0-1-.09-.69-.14-1.07-.18-.79-.29-1.22-.3-.85-.46-1.32a14.69,14.69,0,0,0-.7-1.36,12.66,12.66,0,0,0-3.53-3.83c-.26-.18-.52-.36-.79-.53s-.57-.3-.85-.46l-.44-.22-.45-.19c-.31-.11-.62-.24-.93-.34a12.12,12.12,0,0,0-2-.46,8.52,8.52,0,0,0-1-.12l-.51,0h-.62l-.86,0-.21,0-.24,0-.54.08a7.76,7.76,0,0,0-1,.2l-1,.26a9.56,9.56,0,0,0-.94.35l-.45.19-.44.22c-.28.15-.58.29-.85.46s-.53.35-.79.53a12.66,12.66,0,0,0-3.53,3.83c-.27.46-.49.92-.7,1.36s-.35.89-.46,1.32-.22.83-.29,1.21-.11.75-.14,1.08,0,.64,0,.92v.39c0,.12,0,.23,0,.34s0,.39.06.54,0,.44,0,.44a.86.86,0,0,0,1,.73.83.83,0,0,0,.71-.63l0-.1.1-.38c.08-.35.17-.69.28-1s.15-.45.24-.71.22-.52.33-.8.3-.57.45-.87.38-.59.57-.9.44-.6.7-.9a11.43,11.43,0,0,1,.84-.87,10.12,10.12,0,0,1,2-1.52,11.12,11.12,0,0,1,2.47-1l.67-.15a1.65,1.65,0,0,1,.32-.06l.3,0,.3,0a.55.55,0,0,1,.18,0h.21l.86,0a.95.95,0,0,0-.1-1.89.95.95,0,0,0,0,1.89h.33l.35,0a3.08,3.08,0,0,1,.68.07c.23,0,.46,0,.68.1l.67.16a11.12,11.12,0,0,1,2.47,1,10.47,10.47,0,0,1,2,1.52,9.78,9.78,0,0,1,.83.87c.26.3.48.61.7.9s.4.6.57.9.33.58.45.87.22.55.34.8l.23.67.1.3c0,.1.05.21.07.3s.08.35.11.48l.1.4a.85.85,0,0,0,1.05.63.84.84,0,0,0,.64-.71Z" transform="translate(0.01 0)" style="fill:#8595ba"/><path id="Tracé_54" data-name="Tracé 54" d="M166.84,131.66l.06-.41.06-.49c0-.1,0-.2,0-.32V130c0-.28,0-.61,0-1s-.09-.69-.14-1.07-.19-.79-.29-1.22a12.46,12.46,0,0,0-.47-1.32c-.2-.44-.43-.9-.69-1.36a12.66,12.66,0,0,0-3.53-3.83c-.26-.18-.52-.36-.79-.53s-.57-.3-.86-.46l-.43-.22-.46-.19c-.3-.11-.61-.24-.93-.34a12,12,0,0,0-1.95-.46,8.78,8.78,0,0,0-1-.12l-.51,0h-.62l-.85,0-.21,0-.24,0-.54.08a7.21,7.21,0,0,0-1.05.2l-1,.26c-.32.09-.62.23-.93.35l-.46.19-.43.22c-.29.15-.58.29-.85.46s-.54.35-.8.53a12.66,12.66,0,0,0-3.53,3.83c-.26.46-.49.92-.69,1.36s-.36.89-.47,1.32-.22.83-.28,1.21-.11.75-.15,1.08,0,.64,0,.92v.39a1.87,1.87,0,0,0,0,.34q0,.31.06.54c0,.28.06.44.06.44a.84.84,0,0,0,1,.73.83.83,0,0,0,.71-.63l0-.1.1-.38a10.05,10.05,0,0,1,.28-1l.24-.71c.11-.25.22-.52.33-.8s.3-.57.45-.87.38-.59.57-.9.44-.6.7-.9a11.43,11.43,0,0,1,.84-.87,10.12,10.12,0,0,1,2-1.52,11,11,0,0,1,2.48-1l.66-.15a1.8,1.8,0,0,1,.32-.06l.3,0,.3,0a.55.55,0,0,1,.18,0h.22l.85,0a1,1,0,1,0-.1,0h.33l.35,0a3.08,3.08,0,0,1,.68.07c.23,0,.46,0,.68.1l.67.16a11.12,11.12,0,0,1,2.47,1,10.47,10.47,0,0,1,2,1.52,9.78,9.78,0,0,1,.83.87c.26.3.48.61.7.9s.4.6.57.9.32.58.45.87.22.55.33.8l.23.67c0,.1.07.2.1.3s0,.21.08.3.08.35.11.48.1.4.1.4a.86.86,0,0,0,1,.64.88.88,0,0,0,.65-.72Z" transform="translate(0.01 0)" style="fill:#8595ba"/></g></g></g><g id="Groupe_23" data-name="Groupe 23"><g id="Groupe_22" data-name="Groupe 22"><path id="Tracé_51" data-name="Tracé 51" d="M144.26,142.18a7.42,7.42,0,0,1-2.53,5.36,14.33,14.33,0,0,1-5.8,3.2,20.84,20.84,0,0,1-11.56,0,14.33,14.33,0,0,1-5.8-3.2,7.42,7.42,0,0,1-2.53-5.36c0-3.78,3.36-2.05,8.19-.83a21.47,21.47,0,0,0,11.84,0C140.9,140.13,144.26,138.4,144.26,142.18Z" transform="translate(0.01 0)" style="fill:#8595ba"/></g><path id="Tracé_52" data-name="Tracé 52" d="M135.93,150a20.7,20.7,0,0,1-11.57,0,5.85,5.85,0,0,1,11.57,0Z" transform="translate(0.01 0)" style="fill:#f3f6fe"/></g></g></g></g></svg>