<svg id="Calque_1" data-name="Calque 1" xmlns="http://www.w3.org/2000/svg" viewBox="0 0 52.96 54.77"><title>thumb</title><g id="like"><path id="Tracé_24485" data-name="Tracé 24485" d="M35.92,27.29H22a1.61,1.61,0,0,1-.82-3c6.06-3.58,9.2-7.76,9.62-12.77a3.47,3.47,0,0,1,3.45-3.1A6.81,6.81,0,0,1,41,15.22h0v.54c0,4.39-1.3,7.18-3.7,10.81A1.61,1.61,0,0,1,35.92,27.29Z" transform="translate(0 0)" style="fill:#ffc380"/><path id="Tracé_24486" data-name="Tracé 24486" d="M53,29.11a5.05,5.05,0,0,0-5-5H22a1.59,1.59,0,0,0-.82.23c-1.81,1.07-3.65,2-5.13,2.67l-1.44.7a1.62,1.62,0,0,0-.89,1.44V49.68a1.62,1.62,0,0,0,.89,1.44c6.5,3.25,11.89,3.64,18.19,3.64l3,0,3.54,0h5.08a5,5,0,0,0,4.34-7.6,5,5,0,0,0,1.71-6.86,5,5,0,0,0,1.68-6.91,4.39,4.39,0,0,0-.58-.78A5,5,0,0,0,53,29.11Z" transform="translate(0 0)" style="fill:#ffcf99"/><g id="Groupe_12385" data-name="Groupe 12385"><path id="Tracé_24487" data-name="Tracé 24487" d="M49.62,15.09H46.19a1.61,1.61,0,1,1,0-3.21h3.43a1.61,1.61,0,0,1,0,3.21Z" transform="translate(0 0)" style="fill:#29ccb1"/><path id="Tracé_24488" data-name="Tracé 24488" d="M25.61,15.09H22.18a1.61,1.61,0,1,1,0-3.21h3.43a1.61,1.61,0,1,1,0,3.21Z" transform="translate(0 0)" style="fill:#29ccb1"/><path id="Tracé_24489" data-name="Tracé 24489" d="M30.76,6.18a1.59,1.59,0,0,1-1.4-.8l-1.71-3A1.61,1.61,0,1,1,30.43.8l1.72,3a1.6,1.6,0,0,1-1.39,2.41Z" transform="translate(0 0)" style="fill:#29ccb1"/><path id="Tracé_24490" data-name="Tracé 24490" d="M41,6.18a1.59,1.59,0,0,1-1.6-1.61,1.62,1.62,0,0,1,.21-.8l1.72-3a1.61,1.61,0,1,1,2.78,1.61l-1.72,3A1.58,1.58,0,0,1,41,6.18Z" transform="translate(0 0)" style="fill:#29ccb1"/></g><path id="SVGCleanerId_0" data-name="SVGCleanerId 0" d="M10.07,46.28v8.46H6.86V46.28a1.61,1.61,0,1,1,3.21,0Z" transform="translate(0 0)" style="fill:#73c3ff"/><g id="Groupe_12386" data-name="Groupe 12386"><path id="Tracé_24491" data-name="Tracé 24491" d="M49.62,15.09H46.19a1.61,1.61,0,1,1,0-3.21h3.43a1.61,1.61,0,0,1,0,3.21Z" transform="translate(0 0)" style="fill:#29ccb1"/><path id="Tracé_24492" data-name="Tracé 24492" d="M25.61,15.09H22.18a1.61,1.61,0,1,1,0-3.21h3.43a1.61,1.61,0,1,1,0,3.21Z" transform="translate(0 0)" style="fill:#29ccb1"/><path id="Tracé_24493" data-name="Tracé 24493" d="M30.76,6.18a1.59,1.59,0,0,1-1.4-.8l-1.71-3A1.61,1.61,0,1,1,30.43.8l1.72,3a1.6,1.6,0,0,1-1.39,2.41Z" transform="translate(0 0)" style="fill:#29ccb1"/><path id="Tracé_24494" data-name="Tracé 24494" d="M41,6.18a1.59,1.59,0,0,1-1.6-1.61,1.62,1.62,0,0,1,.21-.8l1.72-3a1.61,1.61,0,1,1,2.78,1.61l-1.72,3A1.58,1.58,0,0,1,41,6.18Z" transform="translate(0 0)" style="fill:#29ccb1"/></g><g id="Groupe_12387" data-name="Groupe 12387"><path id="SVGCleanerId_0-2" data-name="SVGCleanerId 0" d="M10.07,46.28v8.46H6.86V46.28a1.61,1.61,0,1,1,3.21,0Z" transform="translate(0 0)" style="fill:#73c3ff"/></g><path id="Tracé_24495" data-name="Tracé 24495" d="M15.32,24.07H1.61A1.62,1.62,0,0,0,0,25.68V53.11a1.64,1.64,0,0,0,1.61,1.63H11.9a5.1,5.1,0,0,0,4.5-2.81,5,5,0,0,0,.53-2.24v-24a1.62,1.62,0,0,0-1.6-1.62Z" transform="translate(0 0)" style="fill:#44a4ec"/><path id="Tracé_24496" data-name="Tracé 24496" d="M10.07,46.17v8.57H6.86V46.17a1.61,1.61,0,1,1,3.21,0Z" transform="translate(0 0)" style="fill:#73c3ff"/></g></svg>