<svg id="trash" xmlns="http://www.w3.org/2000/svg" viewBox="0 0 61 61"><title>trashcan</title><path id="Tracé_24472" data-name="Tracé 24472" d="M47.14,11.09H38.82V2.77A2.77,2.77,0,0,0,36.05,0H13.86a2.77,2.77,0,0,0-2.77,2.77v8.32H2.77a2.78,2.78,0,0,0,0,5.55H5.55v34.2a2.77,2.77,0,0,0,2.77,2.77h18L25.91,53l-.13-.19c-.11-.14-.21-.29-.3-.43l-.14-.21c-.13-.2-.26-.4-.38-.61h0v-20a19.57,19.57,0,0,1,4.61-5.24c.31-.24.61-.47.93-.69a19.4,19.4,0,0,1,13.87-3.29V16.64h2.77a2.78,2.78,0,0,0,.1-5.55Zm-16.64,0H16.64V5.54H33.27v5.55Z" transform="translate(0 0)" style="fill:#77757f"/><g id="Groupe_12378" data-name="Groupe 12378"><path id="Tracé_24473" data-name="Tracé 24473" d="M11.09,16.64V48.06h5.55V16.64Z" transform="translate(0 0)" style="fill:#c3c3c7"/><path id="Tracé_24474" data-name="Tracé 24474" d="M23.29,48.06a19.51,19.51,0,0,1-1.11-6.47v6.47Z" transform="translate(0 0)" style="fill:#c3c3c7"/></g><g id="Groupe_12379" data-name="Groupe 12379"><path id="Tracé_24475" data-name="Tracé 24475" d="M22.18,16.64v25A19.36,19.36,0,0,1,27.73,28V16.64Z" transform="translate(0 0)" style="fill:#a9a8ae"/><path id="Tracé_24476" data-name="Tracé 24476" d="M36.05,16.64H33.27v7.42a19.36,19.36,0,0,1,5.55-1.68V16.64Z" transform="translate(0 0)" style="fill:#a9a8ae"/></g><path id="Tracé_24477" data-name="Tracé 24477" d="M26.36,53.61a19.8,19.8,0,0,1-1.4-2v2Z" transform="translate(0 0)" style="fill:#87868d"/><g id="Groupe_12380" data-name="Groupe 12380"><path id="Tracé_24478" data-name="Tracé 24478" d="M11.09,16.64V48.06h5.55V16.64Z" transform="translate(0 0)" style="fill:#77757f"/><path id="Tracé_24479" data-name="Tracé 24479" d="M22.18,41.59v6.47h1.11a18.58,18.58,0,0,0,1.24,2.77c.13.26.28.5.42.75V16.64H22.18Z" transform="translate(0 0)" style="fill:#77757f"/></g><path id="Tracé_24480" data-name="Tracé 24480" d="M19.41,11.09H16.64V5.54H25V0H13.86a2.77,2.77,0,0,0-2.77,2.77v8.32H2.77a2.78,2.78,0,0,0,0,5.55H5.55v34.2a2.77,2.77,0,0,0,2.77,2.77H25v-2c-.14-.25-.29-.5-.42-.75a18.58,18.58,0,0,1-1.24-2.77H22.18V16.64H25V11.09Zm-2.77,37H11.09V16.64h5.55V48.06Z" transform="translate(0 0)" style="fill:#57575c"/><path id="Tracé_24481" data-name="Tracé 24481" d="M44.36,22.38a19.77,19.77,0,0,0-5.54,0,19.37,19.37,0,0,0-8.32,3.29q-.48.33-.93.69a19.4,19.4,0,1,0,14.79-4Zm3.11,21.17a2.77,2.77,0,0,1-3.85,4l-.07-.07-2-2-2,2a2.77,2.77,0,0,1-3.92-3.92l2-2-2-2a2.77,2.77,0,0,1,3.92-3.92l2,2,2-2a2.77,2.77,0,0,1,3.92,3.92l-2,2Z" transform="translate(0 0)" style="fill:#d8143a"/><path id="Tracé_24482" data-name="Tracé 24482" d="M39.63,47.47a2.77,2.77,0,0,1-3.92-3.92l2-2-2-2a2.77,2.77,0,0,1,3.92-3.92l2,2V22.18a19.74,19.74,0,0,0-2.77.2,19.32,19.32,0,0,0-8.32,3.29q-.48.33-.93.69A19.4,19.4,0,0,0,41.59,61V45.51Z" transform="translate(0 0)" style="fill:#b8002b"/><path id="Tracé_24483" data-name="Tracé 24483" d="M35.71,35.71a2.78,2.78,0,0,0,0,3.92l2,2-2,2a2.77,2.77,0,1,0,3.85,4l.07-.07,2-2,2,2a2.77,2.77,0,0,0,3.92-3.92l-2-2,2-2a2.77,2.77,0,0,0-3.85-4l-.07.07-2,2-2-2a2.78,2.78,0,0,0-3.92,0Z" transform="translate(0 0)" style="fill:#70001e"/></svg>