<svg id="Calque_1" data-name="Calque 1" xmlns="http://www.w3.org/2000/svg" viewBox="0 0 140 105.89"><title>umbrellaneo</title><g id="Groupe_11095" data-name="Groupe 11095"><g id="Groupe_11094" data-name="Groupe 11094"><path id="Tracé_22938" data-name="Tracé 22938" d="M96.7,61.93c3.65,2.73,7.87,5.73,8.57,5.56,1.3-.3,2.46-2.41,3.83-5.38,2.82-6,2.65-7.91,3-11s-.14-6.34,3.68-4.3-6.54,21-8.89,23.15c-1.53,1.39-8.75-3.53-13.53-7.08A22,22,0,0,0,96.7,61.93Z" transform="translate(0 0)" style="fill:#8595ba"/><g id="Groupe_11093" data-name="Groupe 11093"><g id="Groupe_11090" data-name="Groupe 11090"><path id="Tracé_22543" data-name="Tracé 22543" d="M12.44,48.34S6.83,70.3,7,79.15,7.2,90.58,9.89,90.83c3.61.33,2.2-4.25,2.2-4.25s1,1.32,1.79.82-.33-1.93-2.3-4.06-3-2.49-1.34-11.66,6.27-19.29,5.88-21.57S12.44,48.34,12.44,48.34Z" transform="translate(0 0)" style="fill:#8595ba"/><g id="Groupe_10797" data-name="Groupe 10797"><path id="Tracé_87" data-name="Tracé 87" d="M38.64,65.18s2.32,36,1.16,37.07-7.53.11-8.68,2.1,9.72,1.87,11.11.65,0-39.81,0-39.81Z" transform="translate(0 0)" style="fill:#8595ba"/><path id="Tracé_88" data-name="Tracé 88" d="M71.6,64.32s-2.32,36-1.16,37.07,7.52.11,8.68,2.1-9.72,1.87-11.12.65,0-39.82,0-39.82Z" transform="translate(0 0)" style="fill:#8595ba"/></g><g id="Groupe_10793" data-name="Groupe 10793"><g id="Groupe_10771" data-name="Groupe 10771"><g id="Groupe_10768" data-name="Groupe 10768"><g id="Groupe_10740" data-name="Groupe 10740"><g id="Groupe_10740-2" data-name="Groupe 10740-2"><g id="Groupe_10738" data-name="Groupe 10738"><g id="Groupe_34" data-name="Groupe 34"><g id="Groupe_27" data-name="Groupe 27"><path id="Tracé_89" data-name="Tracé 89" d="M79.48,74c1.11.47,4.87,1.8,7.91-.15,3.61-2.31,3.61-5,3.61-5a10.52,10.52,0,0,0,10.54-2.46c5.06-4.62,2.75-13.84,2.75-13.84S109,50.07,108.48,45c-.89-8.2-9.25-8.67-9.25-8.67s2.6-6.21-2-10.55a13.6,13.6,0,0,0-10.69-3.32,4.77,4.77,0,0,0-1.73-5.34c-2.89-2-5.2-.82-5.2-.82s.5-6.57-5.48-8.8A12.27,12.27,0,0,0,63.55,8.74s-3.61-3.9-8.81-3.18a16.22,16.22,0,0,0-8.09,3.32,9.19,9.19,0,0,0-8.95-2,8.33,8.33,0,0,0-6.07,6.65s-9.27-2.59-14.33,3.77-2.6,11.66-2.6,11.66S6.36,27.81,3.76,35.75A14,14,0,0,0,5.92,49S-.87,55.82,2,63.19A8.64,8.64,0,0,0,11.83,69a7.67,7.67,0,0,0,7.38,6.76c6.79.43,9.68-2,9.68-2s5.92,4.9,11.7,4.33,7.94-2.89,7.94-2.89S54,78.3,59.37,78.12A18.11,18.11,0,0,0,69,74.32a5.74,5.74,0,0,0,5.35,2.6C78,76.54,79.27,73.94,79.48,74Z" transform="translate(0 0)" style="fill:#f3f6fe"/><g id="Groupe_26" data-name="Groupe 26"><path id="Tracé_90" data-name="Tracé 90" d="M109.77,44.85a10.83,10.83,0,0,0-8.85-9.6A10.56,10.56,0,0,0,98.1,24.83a14.65,14.65,0,0,0-10-3.78h-.07a5.83,5.83,0,0,0-2.52-5,7.29,7.29,0,0,0-4-1.5,8.54,8.54,0,0,0-.88-2.38,10.39,10.39,0,0,0-6.1-5.89,12.46,12.46,0,0,0-4.36-.79,13.8,13.8,0,0,0-4.27.71h0a1.63,1.63,0,0,0-.32.11l-.18.06h0a14.62,14.62,0,0,0-1.67.74,12.26,12.26,0,0,0-7.7-3,10.37,10.37,0,0,0-1.47.1,18.57,18.57,0,0,0-7.86,3,10.55,10.55,0,0,0-6.24-2.07,11.44,11.44,0,0,0-3.12.46A9.55,9.55,0,0,0,30.66,12c-2.85-.42-9.7-.74-14,4.74C13.7,20.39,13,23.49,13,25.64v0A7.66,7.66,0,0,0,13.07,27,12,12,0,0,0,2.53,35.34,15.4,15.4,0,0,0,4.19,48.87l-.25.29a1.35,1.35,0,0,0-.24.48c-2,2.58-5.22,8.06-2.88,14,2.1,5.35,6.25,6.15,8.54,6.15a11.69,11.69,0,0,0,1.56-.11c.67,3,2.9,7,8.22,7.35.55,0,1.11,0,1.65,0a16.25,16.25,0,0,0,8-1.78c1.74,1.26,6.15,4.09,10.8,4.09.37,0,.74,0,1.09,0a17.51,17.51,0,0,0,7.16-2.11,5,5,0,0,0,.88-.48,24.63,24.63,0,0,0,10.13,2.66h.52a18.81,18.81,0,0,0,9.38-3.3,4.68,4.68,0,0,0,.46.43l.11,0a6.68,6.68,0,0,0,4.41,1.65h0a6.28,6.28,0,0,0,.75,0,8.1,8.1,0,0,0,5.29-2.66,12.24,12.24,0,0,0,3.84.66A8.12,8.12,0,0,0,88.09,75,9.14,9.14,0,0,0,92,70.43a11.73,11.73,0,0,0,2.21.21,12,12,0,0,0,8.24-3.3c4.62-4.23,3.79-11.58,3.32-14.18A9,9,0,0,0,109.77,44.85ZM104,51.22c-.7-.21-1.55-.45-2.58-.71a5.12,5.12,0,0,0-5.16,1.35,4.38,4.38,0,0,0-.84,4.51,3.7,3.7,0,0,0,3.76,2.44,6.06,6.06,0,0,0,1.94-.31,1.18,1.18,0,1,0-.76-2.23h0c-.09,0-2.2.74-2.73-.71A2.07,2.07,0,0,1,98,53.43a2.78,2.78,0,0,1,2.84-.64c.93.23,1.7.45,2.33.64.38,2,1.26,8.56-2.48,12A9.41,9.41,0,0,1,94.18,68a8.42,8.42,0,0,1-2.59-.38l-2.34-4.5a1.3,1.3,0,1,0-2.31,1.2l2.63,5.06a6.39,6.39,0,0,1-2.89,3.38,5.57,5.57,0,0,1-3,.82A10.1,10.1,0,0,1,80,72.83l-.25-.1h-.27a1.7,1.7,0,0,0-1.3.75,5.61,5.61,0,0,1-3.91,2.14l-.48,0h0a4.38,4.38,0,0,1-3.4-1.7,4.19,4.19,0,0,1-.62-2.46,2.11,2.11,0,0,1,1-1.77c1.66-1,2.47-.15,2.68.13a1.3,1.3,0,1,0,2.14-1.48c-.75-1.1-3-2.7-6.11-.9a4.64,4.64,0,0,0-2.27,3.84,6.84,6.84,0,0,0,.33,2.54,16.1,16.1,0,0,1-8.17,3,20.92,20.92,0,0,1-8.92-2.15h0a8.38,8.38,0,0,0-.52-6.56c-1.65-3.69-5.64-3.57-7.52-3a1.3,1.3,0,0,0-.89,1.61,1.29,1.29,0,0,0,1.6.89h0c.14,0,3.25-1,4.39,1.56A6,6,0,0,1,48,73.68a2.52,2.52,0,0,1-.21.4l-.2.2s-2,2-7.13,2.5a7.87,7.87,0,0,1-.84,0c-3.91,0-7.83-2.55-9.3-3.62l.33-3.94a1.31,1.31,0,0,0-1.19-1.4,1.29,1.29,0,0,0-1.4,1.19h0L27.74,73a13.37,13.37,0,0,1-6.95,1.56c-.49,0-1,0-1.5-.05-5.38-.34-5.95-5.83-6-6.35a3.58,3.58,0,0,1,1.92-2.85,2.8,2.8,0,0,1,1.73-.47l-.09,0,1-2.4c-.25-.1-1.62-.58-3.85.6a6.07,6.07,0,0,0-3.18,4.12,8.07,8.07,0,0,1-1.48.14c-2.89,0-4.95-1.52-6.12-4.5C.8,56.53,6.26,50.57,6.79,50A6.62,6.62,0,0,1,11,48.53,4,4,0,0,1,14.8,51a1.3,1.3,0,0,0,1.23.87,1.4,1.4,0,0,0,.41-.06,1.31,1.31,0,0,0,.82-1.65h0a6.58,6.58,0,0,0-6.17-4.25,9,9,0,0,0-4.86,1.32A13,13,0,0,1,5,36.16a9.65,9.65,0,0,1,8.87-6.6,6.19,6.19,0,0,0,4.87,3.5,6.87,6.87,0,0,0,1,.08A7.21,7.21,0,0,0,26,29a1.3,1.3,0,1,0-2.36-1.09c-.06.13-1.47,3-4.53,2.6a3.69,3.69,0,0,1-2.67-1.66l-.53-1.15s0-.09-.08-.2a6.28,6.28,0,0,1-.25-1.72c0-.05,0-.08,0-.13,0-1.62.59-4.14,3.07-7.27,3.86-4.85,10.4-4,12.2-3.69l1.83,4.12a1.3,1.3,0,0,0,1.19.77A1.3,1.3,0,0,0,35,17.73h0l-2-4.44a.41.41,0,0,1,0-.09,7,7,0,0,1,5-5.08,8.88,8.88,0,0,1,2.4-.36,7.94,7.94,0,0,1,5.26,2l.29.3a3.57,3.57,0,0,1,.5,3.52,2.93,2.93,0,0,1-2.74,1.84A1.3,1.3,0,0,0,43.53,18l.29,0a5.53,5.53,0,0,0,5-3.3,5.88,5.88,0,0,0-.36-5.59,16.15,16.15,0,0,1,6.44-2.31A8.27,8.27,0,0,1,56,6.78,9.56,9.56,0,0,1,61.77,8.9a6,6,0,0,0-1.37,2.7A5.29,5.29,0,0,0,64.06,18a1.12,1.12,0,0,0,.32,0,1.3,1.3,0,0,0,1.3-1.29,1.32,1.32,0,0,0-1-1.27,2.69,2.69,0,0,1-1.75-3.33c.48-2.22,3.12-3.25,3.63-3.42a11,11,0,0,1,3.64-.64,9.88,9.88,0,0,1,3.45.62,7.92,7.92,0,0,1,4.6,4.44.3.3,0,0,1,0,.1,9.34,9.34,0,0,1,.71,2.9l0,2.19c-.43,1.85-1.4,1.86-1.83,1.86a2.81,2.81,0,0,1-1.48-.49,1.3,1.3,0,1,0-1.6,2.06,5.39,5.39,0,0,0,3.07,1c1.19,0,4-.48,4.54-4.88,0-.25,0-.5.07-.74a5.09,5.09,0,0,1,2.28,1A3.42,3.42,0,0,1,85.29,22l-.71,2.06,2.15-.35a10.7,10.7,0,0,1,1.39-.09,12,12,0,0,1,8.2,3.08c3.42,3.21,2.21,7.64,1.81,8.81-.13.29-1.95,4-4.48,4.1a1.73,1.73,0,0,1-1.34-.3,1.14,1.14,0,0,1-.13-.85,1.31,1.31,0,0,0-1-1.55,1.29,1.29,0,0,0-1.53.94,3.48,3.48,0,0,0,3.79,4.37h.33c3.07-.14,5.17-2.91,6.14-4.52a8.23,8.23,0,0,1,7.27,7.41A6.5,6.5,0,0,1,104,51.22Z" transform="translate(0 0)" style="fill:#b8c4e0"/><path id="Tracé_91" data-name="Tracé 91" d="M82.93,33.93a7.48,7.48,0,0,0-1.76-6.68C77,22.2,70.62,23.31,66.68,25.1a9.1,9.1,0,0,0-6.17-6.92c-4.77-1.62-8.44,1.58-10.14,3.54a11.91,11.91,0,0,0-8.75-3.15,7.93,7.93,0,0,0-7,5.58A6.85,6.85,0,0,0,36.8,32a8,8,0,0,0,10.55-.28,1.3,1.3,0,0,0-1.77-1.9h0a5.37,5.37,0,0,1-7.17.14A4.34,4.34,0,0,1,37,25a5.4,5.4,0,0,1,4.64-3.82c5.4-.11,7.55,3.17,7.64,3.3a1.3,1.3,0,0,0,1.79.42,1.42,1.42,0,0,0,.41-.4c0-.05,3.54-5.42,8.15-3.84a6.6,6.6,0,0,1,4.59,6.44,1.3,1.3,0,0,0,2,1.18c.33-.2,8.23-5,12.92.65a5,5,0,0,1,1.23,4.43,5.37,5.37,0,0,1-2.6,3.46c-1.7.76-3.83-.36-3.84-.37a1.3,1.3,0,0,0-1.26,2.28h0a8.73,8.73,0,0,0,3.2.92,6,6,0,0,0,3-.46A7.93,7.93,0,0,0,82.93,33.93Z" transform="translate(0 0)" style="fill:#b8c4e0"/><path id="Tracé_92" data-name="Tracé 92" d="M26.49,52.2a6,6,0,0,0-.31-3.34h0a6.67,6.67,0,0,0,2.22-.37,5.93,5.93,0,0,0,3.78-4.26A8.2,8.2,0,0,0,30.79,37c-2.4-2.83-6.12-2.12-7.76-1.35A1.3,1.3,0,0,0,24.14,38h0s2.94-1.36,4.66.68a5.6,5.6,0,0,1,.89,4.85A3.4,3.4,0,0,1,27.56,46a5,5,0,0,1-4-.47,10.51,10.51,0,0,0-1.51-1L22,44.43a1.3,1.3,0,1,0-1.87,1.8l.06.05a4.12,4.12,0,0,0,.41.37h0a10.75,10.75,0,0,0,1.6,1.09,4.29,4.29,0,0,1,1.76,4c-.53,2.85-2.64,3-2.89,3a1.3,1.3,0,1,0,0,2.6A5.78,5.78,0,0,0,26.49,52.2Z" transform="translate(0 0)" style="fill:#b8c4e0"/><path id="Tracé_93" data-name="Tracé 93" d="M31.75,57.52a7.75,7.75,0,0,0-6.86,4.75,1.3,1.3,0,0,0,2.4,1l0-.07a5.16,5.16,0,0,1,4.51-3.1C34.69,60,35,63.22,35,63.58a1.3,1.3,0,0,0,1.3,1.22h.08a1.31,1.31,0,0,0,1.22-1.38C37.48,61.32,36.1,57.38,31.75,57.52Z" transform="translate(0 0)" style="fill:#b8c4e0"/><path id="Tracé_94" data-name="Tracé 94" d="M89.15,47.05c-2.08-1.76-5.24-1.24-5.37-1.22a1.19,1.19,0,0,0,.4,2.34s2.21-.35,3.45.69a3,3,0,0,1,.89,2.39,3.57,3.57,0,0,1-1,2.74,4,4,0,0,1-2.73.86,1.19,1.19,0,0,0-1.28,1.08,1.29,1.29,0,0,0,0,.39,4.22,4.22,0,0,1-.3,2.9,1.84,1.84,0,0,1-1.42.66,2.52,2.52,0,0,1-2-.54,3,3,0,0,1-.67-2.13A1.19,1.19,0,0,0,76.77,57a5.4,5.4,0,0,0,1.36,4,4.47,4.47,0,0,0,3.33,1.25l.58,0a4.1,4.1,0,0,0,3.15-1.64,5.55,5.55,0,0,0,.87-3.46,5.43,5.43,0,0,0,4.83-5.9A5.21,5.21,0,0,0,89.15,47.05Z" transform="translate(0 0)" style="fill:#b8c4e0"/></g></g></g></g></g></g></g><g id="Groupe_10769" data-name="Groupe 10769"><path id="Tracé_22523" data-name="Tracé 22523" d="M47.33,31.51a47.62,47.62,0,0,1-6.84,4.39,43.93,43.93,0,0,1-7.43,2.84" transform="translate(0 0)" style="fill:none;stroke:#8595ba;stroke-linecap:round;stroke-linejoin:bevel;stroke-width:2px"/><path id="Tracé_22935" data-name="Tracé 22935" d="M78.22,38.74a46.77,46.77,0,0,0-6.84-4.39,44,44,0,0,0-7.44-2.84" transform="translate(0 0)" style="fill:none;stroke:#8595ba;stroke-linecap:round;stroke-linejoin:bevel;stroke-width:2px"/></g><g id="Groupe_11091" data-name="Groupe 11091"><g id="Groupe_10734" data-name="Groupe 10734"><g id="Groupe_29" data-name="Groupe 29"><path id="Tracé_97" data-name="Tracé 97" d="M74.9,48.05a6.39,6.39,0,1,1-6.38-6.39,6.38,6.38,0,0,1,6.38,6.39Z" transform="translate(0 0)" style="fill:none;stroke:#8595ba;stroke-width:2px"/><path id="Tracé_98" data-name="Tracé 98" d="M73.53,50.05A2.51,2.51,0,1,1,71,47.55h0A2.51,2.51,0,0,1,73.53,50.05Z" transform="translate(0 0)" style="fill:#8595ba;stroke:#8595ba;stroke-width:2px"/></g></g><g id="Groupe_10742" data-name="Groupe 10742"><g id="Groupe_29-2" data-name="Groupe 29-2"><path id="Tracé_97-2" data-name="Tracé 97-2" d="M51.89,48.05a6.38,6.38,0,1,1-6.38-6.39,6.38,6.38,0,0,1,6.38,6.39Z" transform="translate(0 0)" style="fill:none;stroke:#8595ba;stroke-width:2px"/><path id="Tracé_98-2" data-name="Tracé 98-2" d="M50.52,50.05A2.51,2.51,0,1,1,48,47.55h0A2.51,2.51,0,0,1,50.52,50.05Z" transform="translate(0 0)" style="fill:#8595ba;stroke:#8595ba;stroke-width:2px"/></g></g></g></g></g></g><g id="Groupe_11092" data-name="Groupe 11092"><g id="Groupe_22" data-name="Groupe 22"><path id="Tracé_51" data-name="Tracé 51" d="M62.26,63.61a2.62,2.62,0,0,0-.9-1.9,5.16,5.16,0,0,0-2.07-1.15,7.4,7.4,0,0,0-4.12,0,5.16,5.16,0,0,0-2.07,1.15,2.62,2.62,0,0,0-.9,1.9c0,1.35,1.2.74,2.92.3a7.76,7.76,0,0,1,4.22,0C61.06,64.34,62.26,65,62.26,63.61Z" transform="translate(0 0)" style="fill:#8595ba"/></g><path id="Tracé_52" data-name="Tracé 52" d="M59.29,60.82a7.4,7.4,0,0,0-4.12,0,2.08,2.08,0,0,0,4.12,0Z" transform="translate(0 0)" style="fill:#8595ba"/></g></g></g><g id="umbrella"><path id="Tracé_22936" data-name="Tracé 22936" d="M119.2,1V47.8a3.47,3.47,0,1,1-6.93,0" transform="translate(0 0)" style="fill:none;stroke:#8595ba;stroke-linecap:round;stroke-miterlimit:10;stroke-width:2px"/><path id="Tracé_22937" data-name="Tracé 22937" d="M119.2,24.4a6.5,6.5,0,0,1,9.1-1.3,6.67,6.67,0,0,1,1.3,1.3,6.5,6.5,0,0,1,9.1-1.3,6.67,6.67,0,0,1,1.3,1.3,20.8,20.8,0,1,0-41.6,0,6.5,6.5,0,0,1,9.1-1.3,6.67,6.67,0,0,1,1.3,1.3,6.5,6.5,0,0,1,9.1-1.3A6.67,6.67,0,0,1,119.2,24.4Z" transform="translate(0 0)" style="fill:#b8c4e0"/></g></g></svg>