<svg xmlns="http://www.w3.org/2000/svg" width="24.044" height="19.708" viewBox="0 0 24.044 19.708">
  <g id="Group_18283" data-name="Group 18283" transform="translate(-329.983 -851.292)">
    <path id="Rectangle_18104" data-name="Rectangle 18104" d="M0,0H24a0,0,0,0,1,0,0V11a1,1,0,0,1-1,1H1a1,1,0,0,1-1-1V0A0,0,0,0,1,0,0Z" transform="translate(330 859)" fill="#f70000"/>
    <path id="Path_28285" data-name="Path 28285" d="M802.684,3803.17l6-7.542h11.431l5.828,7.568" transform="translate(-472.309 -2943.835)" fill="none" stroke="#f70000" stroke-width="1"/>
    <g id="Rectangle_18105" data-name="Rectangle 18105" transform="translate(337 854)" fill="#f70000" stroke="#f70000" stroke-linecap="round" stroke-width="1">
      <rect width="10" height="1" rx="0.5" stroke="none"/>
      <rect x="0.5" y="0.5" width="9" fill="none"/>
    </g>
    <g id="Rectangle_18106" data-name="Rectangle 18106" transform="translate(335 856)" fill="#f70000" stroke="#f70000" stroke-linecap="round" stroke-width="1">
      <rect width="14" height="1" rx="0.5" stroke="none"/>
      <rect x="0.5" y="0.5" width="13" fill="none"/>
    </g>
    <g id="Rectangle_18107" data-name="Rectangle 18107" transform="translate(338 863)" fill="none" stroke="#fff" stroke-width="1">
      <rect width="8" height="4" rx="1" stroke="none"/>
      <rect x="0.5" y="0.5" width="7" height="3" rx="0.5" fill="none"/>
    </g>
  </g>
</svg>
