<svg id="_360-degrees" data-name="360-degrees" xmlns="http://www.w3.org/2000/svg" width="24.33" height="18.046" viewBox="0 0 24.33 18.046">
  <path id="Path_28279" data-name="Path 28279" d="M308.013,152.978a.713.713,0,0,1-.089-1.42,15.569,15.569,0,0,0,5.679-1.719c1.29-.751,2-1.634,2-2.487a3,3,0,0,0-1.528-2.188.713.713,0,0,1,.808-1.174,4.208,4.208,0,0,1,2.146,3.362c0,1.4-.936,2.687-2.707,3.718a16.756,16.756,0,0,1-6.217,1.9A.758.758,0,0,1,308.013,152.978Zm0,0" transform="translate(-292.698 -137.028)" fill="#f70000"/>
  <path id="Path_28280" data-name="Path 28280" d="M11.991,146.077l-1.9-1.9a.713.713,0,0,0-1.008,1.008l.555.555A17.175,17.175,0,0,1,4.076,144.3c-1.684-.81-2.65-1.842-2.65-2.831,0-.839.692-1.711,1.947-2.455a.713.713,0,1,0-.727-1.226C.459,139.087,0,140.508,0,141.472c0,1.581,1.228,3.043,3.458,4.116a18.968,18.968,0,0,0,6.409,1.605l-.784.784a.713.713,0,0,0,1.008,1.008l1.9-1.9A.713.713,0,0,0,11.991,146.077Zm0,0" transform="translate(0 -131.148)" fill="#f70000"/>
  <path id="Path_28281" data-name="Path 28281" d="M96.47,94.746v-.172c0-.6-.37-.722-.867-.722-.307,0-.406-.271-.406-.542s.1-.542.406-.542c.343,0,.7-.045.7-.776,0-.524-.3-.65-.668-.65-.442,0-.668.108-.668.461,0,.307-.136.515-.659.515-.65,0-.731-.136-.731-.569,0-.7.505-1.616,2.058-1.616,1.147,0,2.013.415,2.013,1.634a1.586,1.586,0,0,1-.7,1.481,1.309,1.309,0,0,1,.921,1.327v.172c0,1.481-1.02,2.041-2.284,2.041-1.553,0-2.149-.948-2.149-1.706,0-.406.172-.515.668-.515.578,0,.722.126.722.47,0,.424.4.524.8.524C96.253,95.559,96.47,95.333,96.47,94.746Zm0,0" transform="translate(-89.005 -85.85)" fill="#f70000"/>
  <path id="Path_28282" data-name="Path 28282" d="M213.207,94.575v.081a2.218,2.218,0,0,1-4.433,0V92.264c0-1.553,1-2.131,2.3-2.131,1.526,0,2.131.948,2.131,1.7,0,.433-.208.569-.659.569-.388,0-.731-.1-.731-.515,0-.343-.361-.524-.785-.524-.533,0-.849.28-.849.9v.812a1.444,1.444,0,0,1,1.129-.4A1.692,1.692,0,0,1,213.207,94.575Zm-3.025.181c0,.623.307.894.813.894s.8-.271.8-.894v-.081c0-.659-.3-.912-.813-.912a.724.724,0,0,0-.8.831Zm0,0" transform="translate(-198.853 -85.85)" fill="#f70000"/>
  <path id="Path_28283" data-name="Path 28283" d="M325.055,94.656V92.264a2.218,2.218,0,0,1,4.433,0v2.393a2.218,2.218,0,0,1-4.433,0Zm3.025-2.393c0-.623-.307-.9-.812-.9s-.8.28-.8.9v2.393c0,.623.3.9.8.9s.812-.28.812-.9Zm0,0" transform="translate(-309.608 -85.85)" fill="#f70000"/>
  <path id="Path_28284" data-name="Path 28284" d="M411.49,4.277a2.138,2.138,0,1,1,2.138-2.138A2.141,2.141,0,0,1,411.49,4.277Zm0-2.851a.713.713,0,1,0,.713.713A.714.714,0,0,0,411.49,1.426Zm0,0" transform="translate(-389.899)" fill="#f70000"/>
</svg>
