<svg id="header_recta" xmlns="http://www.w3.org/2000/svg" xmlns:xlink="http://www.w3.org/1999/xlink" width="428" height="110" viewBox="0 0 428 110">
  <defs>
    <linearGradient id="linear-gradient" x1="0.984" y1="0.016" x2="0" y2="1" gradientUnits="objectBoundingBox">
      <stop offset="0" stop-color="#1bcaff"/>
      <stop offset="1" stop-color="#1b84ff"/>
    </linearGradient>
    <filter id="crop" x="-19.5" y="-19.5" width="473" height="155" filterUnits="userSpaceOnUse">
      <feOffset dx="3" dy="3" input="SourceAlpha"/>
      <feGaussianBlur stdDeviation="7.5" result="blur"/>
      <feFlood flood-color="#1bcaff" flood-opacity="0.302"/>
      <feComposite operator="in" in2="blur"/>
      <feComposite in="SourceGraphic"/>
    </filter>
    <clipPath id="clip-path">
      <g transform="matrix(1, 0, 0, 1, 0, 0)" filter="url(#crop)">
        <rect id="crop-2" data-name="crop" width="428" height="110" opacity="0.996" fill="url(#linear-gradient)"/>
      </g>
    </clipPath>
    <clipPath id="clip-path-2">
      <path id="Path_28179" data-name="Path 28179" d="M34.137,0A33.7,33.7,0,0,1,68.113,33.642a34.084,34.084,0,0,1-34.137,33.8A33.7,33.7,0,0,1,0,33.8,34.084,34.084,0,0,1,34.137,0Z" transform="matrix(0.221, -0.975, 0.975, 0.221, 0, 66.425)" fill="none"/>
    </clipPath>
    <linearGradient id="linear-gradient-3" x1="-0.166" y1="0.886" x2="0.79" y2="0.886" gradientUnits="objectBoundingBox">
      <stop offset="0" stop-color="#1d66f1"/>
      <stop offset="0.759" stop-color="#4dabfc"/>
      <stop offset="1" stop-color="#60e2f1"/>
    </linearGradient>
    <linearGradient id="linear-gradient-4" x1="0.027" y1="0.391" x2="1.048" y2="0.391" gradientUnits="objectBoundingBox">
      <stop offset="0" stop-color="#1d65ee"/>
      <stop offset="1" stop-color="#00b6ed"/>
    </linearGradient>
    <filter id="forme" x="-65.169" y="-110.525" width="291.7" height="331.605" filterUnits="userSpaceOnUse">
      <feOffset input="SourceAlpha"/>
      <feGaussianBlur stdDeviation="7.5" result="blur-2"/>
      <feFlood flood-color="#1570eb" flood-opacity="0.302"/>
      <feComposite operator="in" in2="blur-2"/>
      <feComposite in="SourceGraphic"/>
    </filter>
    <linearGradient id="linear-gradient-5" x1="0.5" y1="0.934" x2="0.5" y2="0.2" gradientUnits="objectBoundingBox">
      <stop offset="0" stop-color="#4279f6" stop-opacity="0"/>
      <stop offset="0.002" stop-color="#1b84ff" stop-opacity="0"/>
      <stop offset="1" stop-color="#1b84ff" stop-opacity="0.659"/>
    </linearGradient>
    <linearGradient id="linear-gradient-6" x1="0.856" y1="0.444" x2="0.397" y2="0.988" gradientUnits="objectBoundingBox">
      <stop offset="0" stop-color="#60e2f1" stop-opacity="0"/>
      <stop offset="1" stop-color="#60e2f1"/>
    </linearGradient>
    <linearGradient id="linear-gradient-7" x1="-0.701" y1="0.593" x2="1.241" y2="0.593" gradientUnits="objectBoundingBox">
      <stop offset="0" stop-color="#60e2f1"/>
      <stop offset="1" stop-color="#1d66f1"/>
    </linearGradient>
    <filter id="forme-2" x="115.802" y="-115.219" width="361.447" height="366.67" filterUnits="userSpaceOnUse">
      <feOffset input="SourceAlpha"/>
      <feGaussianBlur stdDeviation="5" result="blur-3"/>
      <feFlood flood-color="#116dbc" flood-opacity="0.302"/>
      <feComposite operator="in" in2="blur-3"/>
      <feComposite in="SourceGraphic"/>
    </filter>
    <clipPath id="clip-path-3">
      <path id="Path_28452" data-name="Path 28452" d="M20.933,0A20.655,20.655,0,0,1,41.762,20.627,20.907,20.907,0,0,1,20.829,41.358,20.655,20.655,0,0,1,0,20.731,20.907,20.907,0,0,1,20.933,0Z" transform="translate(0 40.589) rotate(-76.386)" fill="none"/>
    </clipPath>
    <linearGradient id="linear-gradient-8" x1="0.666" y1="-0.309" x2="0.346" y2="1.251" gradientUnits="objectBoundingBox">
      <stop offset="0" stop-color="#69aeff"/>
      <stop offset="1" stop-color="#57a4ff"/>
    </linearGradient>
    <linearGradient id="linear-gradient-9" x1="0.666" y1="-0.309" x2="0.346" y2="1.251" gradientUnits="objectBoundingBox">
      <stop offset="0" stop-color="#4279f6" stop-opacity="0"/>
      <stop offset="1" stop-color="#4394f4"/>
    </linearGradient>
    <linearGradient id="linear-gradient-10" x1="0.5" y1="0.934" x2="0.5" y2="0.2" gradientUnits="objectBoundingBox">
      <stop offset="0" stop-color="#fff350" stop-opacity="0"/>
      <stop offset="0.002" stop-color="#1b84ff" stop-opacity="0"/>
      <stop offset="1" stop-color="#4a9dff"/>
    </linearGradient>
    <linearGradient id="linear-gradient-11" x1="0.5" y1="0.934" x2="0.5" y2="0.2" gradientUnits="objectBoundingBox">
      <stop offset="0" stop-color="#fff350" stop-opacity="0"/>
      <stop offset="0.002" stop-color="#1b84ff" stop-opacity="0"/>
      <stop offset="1" stop-color="#4494f2"/>
    </linearGradient>
  </defs>
  <g id="bg">
    <rect id="bg_shadow" width="428" height="110" opacity="0.996" fill="url(#linear-gradient)"/>
    <g id="shapes" clip-path="url(#clip-path)">
      <g id="shapes-2" data-name="shapes" transform="translate(113)">
        <g id="circle_lines" transform="translate(-138.319 -24.088)" opacity="0.3" style="isolation: isolate">
          <g id="Group_14955" data-name="Group 14955" transform="translate(0 0)" clip-path="url(#clip-path-2)">
            <path id="Path_28162" data-name="Path 28162" d="M0,0,1.334.007l.9,164.376L.9,164.376Z" transform="translate(94.034 -66.262) rotate(44.999)" fill="#ace9ff"/>
            <path id="Path_28163" data-name="Path 28163" d="M0,0,1.334.007l.9,164.376L.9,164.376Z" transform="translate(94.034 -59.823) rotate(44.999)" fill="#ace9ff"/>
            <path id="Path_28164" data-name="Path 28164" d="M0,0,1.334.007l.9,164.376L.9,164.376Z" transform="translate(94.035 -53.382) rotate(45)" fill="#ace9ff"/>
            <path id="Path_28165" data-name="Path 28165" d="M0,0,1.334.007l.9,164.376L.9,164.376Z" transform="translate(94.035 -46.943) rotate(45)" fill="#ace9ff"/>
            <path id="Path_28166" data-name="Path 28166" d="M0,0,1.334.007l.9,164.376L.9,164.376Z" transform="translate(94.035 -40.503) rotate(45)" fill="#ace9ff"/>
            <path id="Path_28167" data-name="Path 28167" d="M0,0,1.334.007l.9,164.376L.9,164.376Z" transform="translate(94.034 -34.066) rotate(44.999)" fill="#ace9ff"/>
            <path id="Path_28168" data-name="Path 28168" d="M0,0,1.334.007l.9,164.376L.9,164.376Z" transform="translate(94.034 -27.626) rotate(44.999)" fill="#ace9ff"/>
            <path id="Path_28169" data-name="Path 28169" d="M0,0,1.334.007l.9,164.376L.9,164.376Z" transform="matrix(0.707, 0.707, -0.707, 0.707, 94.032, -21.188)" fill="#ace9ff"/>
            <path id="Path_28170" data-name="Path 28170" d="M0,0,1.334.007l.9,164.376L.9,164.376Z" transform="matrix(0.707, 0.707, -0.707, 0.707, 94.032, -14.749)" fill="#ace9ff"/>
            <path id="Path_28171" data-name="Path 28171" d="M0,0,1.334.007l.9,164.376L.9,164.376Z" transform="translate(94.034 -8.308) rotate(44.999)" fill="#ace9ff"/>
            <path id="Path_28172" data-name="Path 28172" d="M0,0,1.334.007l.9,164.376L.9,164.376Z" transform="translate(94.034 -1.869) rotate(44.999)" fill="#ace9ff"/>
            <path id="Path_28173" data-name="Path 28173" d="M0,0,1.334.007l.9,164.376L.9,164.376Z" transform="translate(94.035 4.572) rotate(45)" fill="#ace9ff"/>
            <path id="Path_28174" data-name="Path 28174" d="M0,0,1.334.007l.9,164.376L.9,164.376Z" transform="translate(94.035 11.011) rotate(45)" fill="#ace9ff"/>
            <path id="Path_28175" data-name="Path 28175" d="M0,0,1.334.007l.9,164.376L.9,164.376Z" transform="matrix(0.707, 0.707, -0.707, 0.707, 94.032, 17.448)" fill="#ace9ff"/>
            <path id="Path_28176" data-name="Path 28176" d="M0,0,1.334.007l.9,164.376L.9,164.376Z" transform="matrix(0.707, 0.707, -0.707, 0.707, 94.032, 23.887)" fill="#ace9ff"/>
            <path id="Path_28177" data-name="Path 28177" d="M0,0,1.334.007l.9,164.376L.9,164.376Z" transform="translate(94.034 30.328) rotate(44.999)" fill="#ace9ff"/>
            <path id="Path_28178" data-name="Path 28178" d="M0,0,1.334.007l.9,164.376L.9,164.376Z" transform="matrix(0.707, 0.707, -0.707, 0.707, 94.032, 36.765)" fill="#ace9ff"/>
          </g>
        </g>
        <path id="forme-3" data-name="forme" d="M524.622,294.892c-13.2-1.363-15.235,20.872-25.636,32.752s-15.141,24.455-27.259,31.1a67.82,67.82,0,0,1-28.364,8.447c-10.69.622-21.444.655-32.164,1.169-12.144.583-111.516-23.577-135.278-13.991-3.087,1.245-9.953-.668-9.882,7.174s13.505,6.822,13.505,6.822c1.364,1.583,60.288,11.771,62.341,12.375,7.285,2.143,18.31,1.652,24.828,2.55,17.295,2.383,36.653,5.942,43.359,6.815,9.846,1.282,32.2-6.194,39.383-5.128,16.846,2.5,40.526,5.465,55.942-2.136,13.269-6.544,18.8-14.1,18.8-26.069C524.194,343.526,537.817,296.254,524.622,294.892Z" transform="translate(-229.39 -200.288) rotate(-8)" opacity="0.539" fill="url(#linear-gradient-3)"/>
        <g transform="matrix(1, 0, 0, 1, -113, 0)" filter="url(#forme)">
          <path id="forme-4" data-name="forme" d="M239.39,121.178c-36.066,38.486-66.464,15.775-106.848-30.966S71.97,58.88,10.654,68.209C-20.831,73,23.813,20.557,62.2,3.116c36.375-16.524,20.87,37.9,84.522,41.094S275.456,82.691,239.39,121.178Z" transform="translate(-42.67 128.23) rotate(-60)" opacity="0.507" fill="url(#linear-gradient-4)"/>
        </g>
        <path id="cirlce" d="M34.069,0A33.711,33.711,0,0,1,68.031,33.608,33.969,33.969,0,0,1,33.962,67.322,33.711,33.711,0,0,1,0,33.714,33.969,33.969,0,0,1,34.069,0Z" transform="matrix(-0.866, -0.5, 0.5, -0.866, 105.68, 133.865)" fill="url(#linear-gradient-5)"/>
        <path id="circle" d="M33.331,0A32.69,32.69,0,0,1,66.318,32.873,33.52,33.52,0,0,1,32.988,66.089,32.69,32.69,0,0,1,0,33.217,33.52,33.52,0,0,1,33.331,0Z" transform="translate(309.85 64.894) rotate(-157)" fill="url(#linear-gradient-6)"/>
        <g transform="matrix(1, 0, 0, 1, -113, 0)" filter="url(#forme-2)">
          <path id="forme-5" data-name="forme" d="M334.416,348.057c-1.435-16.266,5.36-53.417,27.877-38.318,42.908,28.773,93.926,15.9,102.541-10.158s9.069-28.338,29.937-48-8.3-25.186,3.123-49.987c7.146-15.509,56.281-7.423,62.533,6.031,11.613,24.986,6.288,49.67-.058,79.54s-18.4,23.427-31.555,29.7-7.569,39.192-15.734,57.9-67.586-9.749-78.175,15.39c-13.838,32.858-4.012,67.32-60.291,62.151-35.863-3.294-57.24-35.16-57.173-58.587C317.478,381.04,335.571,361.141,334.416,348.057Z" transform="matrix(0.92, 0.39, -0.39, 0.92, 15.53, -402.03)" opacity="0.251" fill="url(#linear-gradient-7)"/>
        </g>
        <g id="circle_lines-2" data-name="circle_lines" transform="translate(43.054 76.108)" opacity="0.28" style="isolation: isolate">
          <g id="Group_18187" data-name="Group 18187" transform="translate(0 0)" clip-path="url(#clip-path-3)">
            <g id="Group_18186" data-name="Group 18186" transform="translate(-13.386 -40.408)">
              <path id="Path_28435" data-name="Path 28435" d="M0,0,.818,0,1.37,100.8l-.818,0Z" transform="translate(71.272 0) rotate(44.998)" fill="#fff"/>
              <path id="Path_28436" data-name="Path 28436" d="M0,0,.818,0,1.37,100.8l-.818,0Z" transform="translate(71.272 3.948) rotate(44.998)" fill="#fff"/>
              <path id="Path_28437" data-name="Path 28437" d="M0,0,.818,0,1.37,100.8l-.818,0Z" transform="translate(71.273 7.898) rotate(45)" fill="#fff"/>
              <path id="Path_28438" data-name="Path 28438" d="M0,0,.818,0,1.37,100.8l-.818,0Z" transform="translate(71.273 11.846) rotate(45)" fill="#fff"/>
              <path id="Path_28439" data-name="Path 28439" d="M0,0,.818,0,1.37,100.8l-.818,0Z" transform="translate(71.273 15.795) rotate(45)" fill="#fff"/>
              <path id="Path_28440" data-name="Path 28440" d="M0,0,.818,0,1.37,100.8l-.818,0Z" transform="translate(71.272 19.742) rotate(44.998)" fill="#fff"/>
              <path id="Path_28441" data-name="Path 28441" d="M0,0,.818,0,1.37,100.8l-.818,0Z" transform="translate(71.272 23.69) rotate(44.998)" fill="#fff"/>
              <path id="Path_28442" data-name="Path 28442" d="M0,0,.818,0,1.37,100.8l-.818,0Z" transform="translate(71.272 27.639) rotate(44.998)" fill="#fff"/>
              <path id="Path_28443" data-name="Path 28443" d="M0,0,.818,0,1.37,100.8l-.818,0Z" transform="translate(71.272 31.587) rotate(44.998)" fill="#fff"/>
              <path id="Path_28444" data-name="Path 28444" d="M0,0,.818,0,1.37,100.8l-.818,0Z" transform="translate(71.272 35.536) rotate(44.998)" fill="#fff"/>
              <path id="Path_28445" data-name="Path 28445" d="M0,0,.818,0,1.37,100.8l-.818,0Z" transform="translate(71.272 39.484) rotate(44.998)" fill="#fff"/>
              <path id="Path_28446" data-name="Path 28446" d="M0,0,.818,0,1.37,100.8l-.818,0Z" transform="translate(71.273 43.433) rotate(45)" fill="#fff"/>
              <path id="Path_28447" data-name="Path 28447" d="M0,0,.818,0,1.37,100.8l-.818,0Z" transform="translate(71.273 47.382) rotate(45)" fill="#fff"/>
              <path id="Path_28448" data-name="Path 28448" d="M0,0,.818,0,1.37,100.8l-.818,0Z" transform="translate(71.272 51.329) rotate(44.998)" fill="#fff"/>
              <path id="Path_28449" data-name="Path 28449" d="M0,0,.818,0,1.37,100.8l-.818,0Z" transform="translate(71.272 55.278) rotate(44.998)" fill="#fff"/>
              <path id="Path_28450" data-name="Path 28450" d="M0,0,.818,0,1.37,100.8l-.818,0Z" transform="translate(71.272 59.226) rotate(44.998)" fill="#fff"/>
              <path id="Path_28451" data-name="Path 28451" d="M0,0,.818,0,1.37,100.8l-.818,0Z" transform="translate(71.272 63.174) rotate(44.998)" fill="#fff"/>
            </g>
          </g>
        </g>
        <path id="circle-2" data-name="circle" d="M15.729,0A15.522,15.522,0,0,1,31.38,15.5,15.708,15.708,0,0,1,15.652,31.075,15.522,15.522,0,0,1,0,15.576,15.708,15.708,0,0,1,15.729,0Z" transform="translate(14.229 56.003) rotate(-76.608)" opacity="0.507" fill="url(#linear-gradient-8)"/>
        <path id="circle-3" data-name="circle" d="M15.72,0A15.558,15.558,0,0,1,31.392,15.508a15.672,15.672,0,0,1-15.72,15.555A15.558,15.558,0,0,1,0,15.555,15.672,15.672,0,0,1,15.72,0Z" transform="translate(-102.785 94.288) rotate(-82)" opacity="0.529" fill="url(#linear-gradient-9)"/>
        <path id="circle-4" data-name="circle" d="M28.027,0A27.5,27.5,0,0,1,55.783,27.617,28.152,28.152,0,0,1,27.756,55.505,27.5,27.5,0,0,1,0,27.888,28.152,28.152,0,0,1,28.027,0Z" transform="translate(-19.815 42.668) rotate(-58.571)" opacity="0.24" fill="url(#linear-gradient-10)"/>
        <path id="circle-5" data-name="circle" d="M19.387,0a19.021,19.021,0,0,1,19.2,19.1A19.473,19.473,0,0,1,19.2,38.394,19.021,19.021,0,0,1,0,19.291,19.473,19.473,0,0,1,19.387,0Z" transform="translate(275.791 94.666) rotate(-58.571)" opacity="0.24" fill="url(#linear-gradient-11)"/>
      </g>
    </g>
  </g>
</svg>
