<svg xmlns="http://www.w3.org/2000/svg" xmlns:xlink="http://www.w3.org/1999/xlink" width="107" height="106.979" viewBox="0 0 107 106.979">
  <defs>
    <filter id="Path_27742" x="0" y="-0.021" width="107" height="106.979" filterUnits="userSpaceOnUse">
      <feOffset input="SourceAlpha"/>
      <feGaussianBlur stdDeviation="5.5" result="blur"/>
      <feFlood flood-color="#f89a1e"/>
      <feComposite operator="in" in2="blur"/>
      <feComposite in="SourceGraphic"/>
    </filter>
    <filter id="bg" x="0" y="0" width="107" height="106.979" filterUnits="userSpaceOnUse">
      <feOffset input="SourceAlpha"/>
      <feGaussianBlur stdDeviation="5.5" result="blur-2"/>
      <feFlood flood-color="#1d66f1"/>
      <feComposite operator="in" in2="blur-2"/>
      <feComposite in="SourceGraphic"/>
    </filter>
    <clipPath id="clip-path">
      <g transform="matrix(1, 0, 0, 1, 0, 0)" filter="url(#Path_27742)" style="mix-blend-mode: multiply;isolation: isolate">
        <path id="Path_27742-2" data-name="Path 27742" d="M37,0A37.023,37.023,0,1,1,6.537,16.016c.5-.74,1.067-1.5,1.817-2.425.542-.673,1.282-1.515,2.059-2.326A36.791,36.791,0,0,1,37,0Z" transform="translate(0 0)" fill="#fff14e" opacity="0.464"/>
      </g>
    </clipPath>
    <linearGradient id="linear-gradient" x1="0.653" x2="0.372" y2="1" gradientUnits="objectBoundingBox">
      <stop offset="0" stop-color="#1d66f1" stop-opacity="0"/>
      <stop offset="1" stop-color="#1d66f1"/>
    </linearGradient>
  </defs>
  <g id="illustration" transform="translate(12.718 13.172)">
    <g id="illus" transform="translate(3.782 3.307)">
      <g transform="matrix(1, 0, 0, 1, -16.5, -16.48)" filter="url(#bg)" style="mix-blend-mode: multiply;isolation: isolate">
        <path id="bg-2" data-name="bg" d="M37,0A37.023,37.023,0,1,1,6.537,16.016c.5-.74,1.067-1.5,1.817-2.425.542-.673,1.282-1.515,2.059-2.326A36.791,36.791,0,0,1,37,0Z" transform="translate(16.5 16.5)" fill="#53d7ff" opacity="0.747"/>
      </g>
      <g id="Head" transform="translate(24.225 5.882)" style="isolation: isolate">
        <path id="Path_27737" data-name="Path 27737" d="M5.862,24.472C2.593,20.634.38,15.931.75,10.661c1.065-15.184,22.2-11.844,26.314-4.18s3.623,27.1-1.691,28.473c-2.119.546-6.634-.792-11.228-3.561l2.884,20.4H0Z" transform="translate(0 0)" fill="#dda069" fill-rule="evenodd"/>
      </g>
      <g id="Mask_Group_14967" data-name="Mask Group 14967" transform="translate(0 0)" clip-path="url(#clip-path)">
        <g id="Symbols" transform="translate(-14.9 41.347)">
          <g id="Body_Long-Sleeve" data-name="Body/Long-Sleeve" transform="translate(0 0)">
            <path id="Skin" d="M93.054,56.8l17.01-2.184A38.428,38.428,0,0,1,119.455,51c.8-.022,2.084.253.178,1.749s-3.84,3.15-3.5,3.949,2.112.5,2.406,1.729q.294,1.228-8.63.4l-13.8,5.151ZM39.62,60.51l9.434.033Q33.538,93.415,32.873,94.966c-1,2.326,1.113,5.868,2.015,7.771-2.938,1.238-2.625-3.346-6.332-1.723-3.383,1.482-5.957,4.166-9.865,1.9-.481-.279-1.007-1.33.265-2.151,3.17-2.046,7.738-5.627,8.355-6.806Q28.574,91.542,39.62,60.51Z" transform="translate(-18.163 -30.316)" fill="#997659" fill-rule="evenodd"/>
            <path id="Clothes-Back" d="M0,.182,7.4,0c3.162,15.276,13.886,24.161,35.7,18.927l4.675,19.619c-20.436,4.32-39.233-1.88-44.789-22.634A84.344,84.344,0,0,1,0,.182Z" transform="translate(47.313 1.847) rotate(5)" fill="#afb9c5" fill-rule="evenodd"/>
            <path id="Clothes" d="M75.613.006,86.8,2.419c0,18.12,6.132,29.682,9.276,43H65.856c-.426,4.6-.687,9.335-.823,14.195H42.4Q50.094,21.088,74.874,0h.733Z" transform="translate(-31.959)" fill="#c5cfd6" fill-rule="evenodd"/>
            <path id="Shade" d="M101.612,48.259Q100.444,65.2,102.987,74.11H96.844a131.946,131.946,0,0,1,4.769-25.851Z" transform="translate(-62.947 -28.687)" fill="rgba(0,0,0,0.1)" fill-rule="evenodd"/>
          </g>
        </g>
        <g id="hair" transform="matrix(0.995, -0.105, 0.105, 0.995, 20.272, 2.051)" style="isolation: isolate">
          <path id="Path_27739" data-name="Path 27739" d="M0,0S4.407,4.645,9.809,3.887c.04-.058-3.182-.558-4.537-2.193" transform="translate(22.778 17.842)" fill="#191847"/>
          <path id="Path_27738" data-name="Path 27738" d="M23.462,10.586c.7,3.154,7.353,7.091,11.772,8.906-4.878,1.315-12.661-.3-18.768-5.546,4.3,3.124,2.751,9.4,2.745,9.247-2.411-6.207-4.783-7.652-4.744-7.724,1.474,3.164-.3,9.112-.6,6.517S5.4,6.445,10.066,13.963s.579,15.753.579,15.753.1,1.473-.365-3.213S9.165,24.46,9.165,24.46l-.081.774S8.22,32.5,7.4,32.531a4.385,4.385,0,0,1-1.864-.2c-.7-4.694-.561-3.842-2.531-9.223C1.284,18.424-.181,15.652.019,11.866A3.942,3.942,0,0,1,3.8,7.965c.6-6.494,7.741-8.072,12.3-7.959A20.27,20.27,0,0,1,29.384,5.937c4.785,4.872,4.8,7.886,5.849,13.555-.03.092-10.988-4.291-11.772-8.906" transform="translate(0 0)" fill="#191847"/>
          <path id="Path_27740" data-name="Path 27740" d="M22.687,7.43a17.16,17.16,0,0,0-7.364-5.962C10.4-.723,2.537-1.4,0,6.261" transform="translate(3.743 1.643)" fill="#191847"/>
        </g>
      </g>
    </g>
    <ellipse id="skull_ellipse" cx="11.253" cy="11.377" rx="11.253" ry="11.377" transform="translate(4 3.964)" opacity="0.629" fill="url(#linear-gradient)"/>
    <g id="skull" transform="translate(8.471 7.577)" opacity="0.653" style="isolation: isolate">
      <path id="Tracé_390" data-name="Tracé 390" d="M17.469,19.6l-.12-.18a.331.331,0,0,0,.349-.3.319.319,0,0,0-.265-.337.6.6,0,0,0-.686.518.445.445,0,0,0,0,.126.879.879,0,0,0,.187.536.6.6,0,0,1,.132.433c0,.247-.1.439-1.343.65-.849.138-2.854.855-2.854,1.607a.337.337,0,0,0,.319.349.3.3,0,0,0,.319-.271h0a4.75,4.75,0,0,1,2.324-1.023c.795-.132,1.884-.307,1.884-1.288A1.258,1.258,0,0,0,17.469,19.6Z" transform="translate(-5.121 -7.475)" fill="#fff"/>
      <path id="Tracé_391" data-name="Tracé 391" d="M13.564,9.362A13.256,13.256,0,0,0,12.149,6.4a8.982,8.982,0,0,0,.12-1.583C12.269,3.438,10.463,0,6.135,0S0,3.209,0,5.491a9.936,9.936,0,0,0,1.716,4.587,5.936,5.936,0,0,1,.867,1.866c0,.825-1.337,2.45-1.854,3.01a.319.319,0,0,0,0,.458.325.325,0,0,0,.458,0h0c.2-.229,2.023-2.228,2.023-3.45a5.572,5.572,0,0,0-.951-2.191A9.47,9.47,0,0,1,.632,5.5,5.123,5.123,0,0,1,6.123.686,5.184,5.184,0,0,1,11.607,4.9a6.989,6.989,0,0,1-.132,1.541.343.343,0,0,0,.036.241A17.67,17.67,0,0,1,12.9,9.416a1.282,1.282,0,0,1-.716.337.325.325,0,0,0-.247.385.258.258,0,0,0,0,.03l.253.783-.18.18a.319.319,0,0,0,0,.452.313.313,0,0,0,.452.03l.03-.03.325-.319a.337.337,0,0,0,.078-.331l-.217-.7C13.052,10.1,13.564,9.837,13.564,9.362Z" transform="translate(0 0)" fill="#fff"/>
      <path id="Tracé_392" data-name="Tracé 392" d="M7.852,10.4,6.01,8.59V7.548l.548-.554a.325.325,0,0,0,0-.458.331.331,0,0,0-.433,0l-.668.644a.355.355,0,0,0-.1.2V8.68a.355.355,0,0,0,.1.229L7.3,10.715V17.74a.331.331,0,0,0,.343.307.325.325,0,0,0,.3-.307v-7.1a.307.307,0,0,0-.09-.241Z" transform="translate(-2.133 -2.569)" fill="#fff"/>
      <path id="Tracé_393" data-name="Tracé 393" d="M12.985,9.216H8.6l-.554-.548a.322.322,0,0,0-.482.427v.03l.65.644a.313.313,0,0,0,.229.09h4.515a.319.319,0,0,0,.3-.343.325.325,0,0,0-.3-.3Z" transform="translate(-2.979 -3.406)" fill="#fff"/>
      <path id="Tracé_394" data-name="Tracé 394" d="M14.948,6.528a.319.319,0,0,0-.452,0l-.554.542H12.136a.325.325,0,0,0,0,.644h1.945a.307.307,0,0,0,.229-.1l.638-.644A.319.319,0,0,0,14.948,6.528Z" transform="translate(-4.713 -2.561)" fill="#fff"/>
      <path id="Tracé_395" data-name="Tracé 395" d="M12.791,4.388a.325.325,0,0,0-.458,0l-.548.548H10.63a.319.319,0,0,0-.229.1l-.644.644a.321.321,0,0,0,.451.458l.542-.554h1.162a.325.325,0,0,0,.229-.09l.644-.644a.325.325,0,0,0,0-.458Z" transform="translate(-3.845 -1.709)" fill="#fff"/>
      <path id="Tracé_396" data-name="Tracé 396" d="M7,3.954l-.65-.644a.313.313,0,0,0-.253-.09H4.833a.325.325,0,0,0-.229.09L3.316,4.6a.355.355,0,0,0-.1.229V8.059a.355.355,0,0,0,.1.229L5.159,10.13v6.321a.325.325,0,1,0,.65,0V10a.331.331,0,0,0-.1-.229L3.864,7.9V4.965l1.1-1.1H5.989l.554.548a.319.319,0,0,0,.458,0,.331.331,0,0,0,.03-.458Z" transform="translate(-1.281 -1.281)" fill="#fff"/>
      <path id="Tracé_397" data-name="Tracé 397" d="M6.546,5.9a.644.644,0,1,0,.6.662h0A.644.644,0,0,0,6.546,5.9Z" transform="translate(-2.332 -2.347)" fill="#fff"/>
      <path id="Tracé_398" data-name="Tracé 398" d="M13.867,11.934a.325.325,0,0,0-.458,0l-.548.548H11.838l-.554-.548a.325.325,0,0,0-.458,0,.331.331,0,0,0,0,.433l.674.644a.325.325,0,0,0,.229.09h1.294a.3.3,0,0,0,.229-.09l.644-.644a.319.319,0,0,0,0-.458Z" transform="translate(-4.277 -4.71)" fill="#fff"/>
      <path id="Tracé_399" data-name="Tracé 399" d="M11.932,19l-.554-.554V16.139l.548-.554a.319.319,0,0,0-.048-.452.325.325,0,0,0-.4,0l-.644.644a.325.325,0,0,0-.09.229v2.583a.325.325,0,0,0,.09.229l.668.638a.331.331,0,0,0,.458,0,.319.319,0,0,0,0-.446Z" transform="translate(-4.275 -5.995)" fill="#fff"/>
      <path id="Tracé_400" data-name="Tracé 400" d="M15.987,12.938a.319.319,0,0,0-.452,0l-2.6,2.6a.307.307,0,0,0-.1.229v1.288a.325.325,0,0,0,.3.343.319.319,0,0,0,.343-.3v-1.2L15.969,13.4a.319.319,0,0,0,.018-.463Z" transform="translate(-5.109 -5.112)" fill="#fff"/>
      <path id="Tracé_401" data-name="Tracé 401" d="M29.8,3.263a.65.65,0,1,1,0,.006Z" transform="translate(-22.371 9.325)" fill="#fff"/>
      <path id="Tracé_402" data-name="Tracé 402" d="M16.212,17.258a.319.319,0,0,0-.452,0l-.65.644a.325.325,0,0,0-.09.229v1.288a.325.325,0,0,0,.644,0V18.27l.548-.548a.325.325,0,0,0,0-.463Z" transform="translate(-5.978 -6.831)" fill="#fff"/>
      <path id="Tracé_403" data-name="Tracé 403" d="M14.046,3.75a.65.65,0,1,0,.644.644A.65.65,0,0,0,14.046,3.75Z" transform="translate(-5.329 -1.493)" fill="#fff"/>
    </g>
  </g>
</svg>
