<svg xmlns="http://www.w3.org/2000/svg" xmlns:xlink="http://www.w3.org/1999/xlink" width="428" height="170" viewBox="0 0 428 170">
  <defs>
    <linearGradient id="linear-gradient" x1="1" x2="0" y2="1" gradientUnits="objectBoundingBox">
      <stop offset="0" stop-color="#1bcaff"/>
      <stop offset="1" stop-color="#1b84ff"/>
    </linearGradient>
    <clipPath id="clip-path">
      <path id="shape" d="M558.936,11.876c0,34.236.016,107.047.016,148.619C500,173.711,424.81,181.869,342.128,181.869c-79.494,0-153.252-9.061-211.171-21.374,0-37.216-.006-125.413-.006-148.626C187.243,11.869,497.056,11.876,558.936,11.876Z" transform="translate(-130.953 -11.878)" fill="#fff"/>
    </clipPath>
    <clipPath id="clip-path-2">
      <path id="Path_28179" data-name="Path 28179" d="M34.137,0A33.7,33.7,0,0,1,68.113,33.642a34.084,34.084,0,0,1-34.137,33.8A33.7,33.7,0,0,1,0,33.8,34.084,34.084,0,0,1,34.137,0Z" transform="matrix(0.221, -0.975, 0.975, 0.221, 0, 66.425)" fill="none"/>
    </clipPath>
    <linearGradient id="linear-gradient-2" x1="-0.166" y1="0.886" x2="0.79" y2="0.886" gradientUnits="objectBoundingBox">
      <stop offset="0" stop-color="#1d66f1"/>
      <stop offset="0.759" stop-color="#4dabfc"/>
      <stop offset="1" stop-color="#60e2f1"/>
    </linearGradient>
    <linearGradient id="linear-gradient-3" x1="0.027" y1="0.391" x2="1.048" y2="0.391" gradientUnits="objectBoundingBox">
      <stop offset="0" stop-color="#1d65ee"/>
      <stop offset="1" stop-color="#00b6ed"/>
    </linearGradient>
    <filter id="forme" x="-65.168" y="-90.516" width="291.7" height="331.605" filterUnits="userSpaceOnUse">
      <feOffset input="SourceAlpha"/>
      <feGaussianBlur stdDeviation="7.5" result="blur"/>
      <feFlood flood-color="#1570eb" flood-opacity="0.302"/>
      <feComposite operator="in" in2="blur"/>
      <feComposite in="SourceGraphic"/>
    </filter>
    <linearGradient id="linear-gradient-4" x1="0.5" y1="0.934" x2="0.5" y2="0.2" gradientUnits="objectBoundingBox">
      <stop offset="0" stop-color="#4279f6" stop-opacity="0"/>
      <stop offset="0.002" stop-color="#1b84ff" stop-opacity="0"/>
      <stop offset="1" stop-color="#1b84ff" stop-opacity="0.659"/>
    </linearGradient>
    <linearGradient id="linear-gradient-5" x1="0.856" y1="0.444" x2="0.397" y2="0.988" gradientUnits="objectBoundingBox">
      <stop offset="0" stop-color="#60e2f1" stop-opacity="0"/>
      <stop offset="1" stop-color="#60e2f1"/>
    </linearGradient>
    <linearGradient id="linear-gradient-6" x1="-0.701" y1="0.593" x2="1.241" y2="0.593" gradientUnits="objectBoundingBox">
      <stop offset="0" stop-color="#60e2f1"/>
      <stop offset="1" stop-color="#1d66f1"/>
    </linearGradient>
    <filter id="forme-2" x="77.682" y="-131.016" width="416.388" height="422.477" filterUnits="userSpaceOnUse">
      <feOffset input="SourceAlpha"/>
      <feGaussianBlur stdDeviation="5" result="blur-2"/>
      <feFlood flood-color="#116dbc" flood-opacity="0.302"/>
      <feComposite operator="in" in2="blur-2"/>
      <feComposite in="SourceGraphic"/>
    </filter>
    <clipPath id="clip-path-3">
      <path id="Path_28452" data-name="Path 28452" d="M26.427,0a26.076,26.076,0,0,1,26.3,26.04A26.394,26.394,0,0,1,26.3,52.212,26.076,26.076,0,0,1,0,26.172,26.394,26.394,0,0,1,26.427,0Z" transform="translate(0 51.241) rotate(-76.386)" fill="none"/>
    </clipPath>
    <linearGradient id="linear-gradient-7" x1="0.666" y1="-0.309" x2="0.346" y2="1.251" gradientUnits="objectBoundingBox">
      <stop offset="0" stop-color="#69aeff"/>
      <stop offset="1" stop-color="#57a4ff"/>
    </linearGradient>
    <linearGradient id="linear-gradient-8" x1="0.666" y1="-0.309" x2="0.346" y2="1.251" gradientUnits="objectBoundingBox">
      <stop offset="0" stop-color="#4279f6" stop-opacity="0"/>
      <stop offset="1" stop-color="#4394f4"/>
    </linearGradient>
    <linearGradient id="linear-gradient-9" x1="0.5" y1="0.934" x2="0.5" y2="0.2" gradientUnits="objectBoundingBox">
      <stop offset="0" stop-color="#fff350" stop-opacity="0"/>
      <stop offset="0.002" stop-color="#1b84ff" stop-opacity="0"/>
      <stop offset="1" stop-color="#4a9dff"/>
    </linearGradient>
    <linearGradient id="linear-gradient-10" x1="0.5" y1="0.934" x2="0.5" y2="0.2" gradientUnits="objectBoundingBox">
      <stop offset="0" stop-color="#fff350" stop-opacity="0"/>
      <stop offset="0.002" stop-color="#1b84ff" stop-opacity="0"/>
      <stop offset="1" stop-color="#4494f2"/>
    </linearGradient>
  </defs>
  <g id="header_rounded" transform="translate(0.001 0.009)">
    <g id="bg">
      <path id="shadow" d="M558.936,11.876c0,34.236.016,107.047.016,148.619C500,173.711,424.81,181.869,342.128,181.869c-79.494,0-153.252-9.061-211.171-21.374,0-37.216-.006-125.413-.006-148.626C187.243,11.869,497.056,11.876,558.936,11.876Z" transform="translate(-130.953 -11.878)" fill="url(#linear-gradient)"/>
      <g id="bg-2" data-name="bg" clip-path="url(#clip-path)">
        <g id="shapes" transform="translate(113)">
          <g id="circle_lines" transform="translate(-138.319 -24.088)" opacity="0.3" style="isolation: isolate">
            <g id="Group_14955" data-name="Group 14955" transform="translate(0 0)" clip-path="url(#clip-path-2)">
              <path id="Path_28162" data-name="Path 28162" d="M0,0,1.334.007l.9,164.376L.9,164.376Z" transform="translate(94.034 -66.262) rotate(44.999)" fill="#ace9ff"/>
              <path id="Path_28163" data-name="Path 28163" d="M0,0,1.334.007l.9,164.376L.9,164.376Z" transform="translate(94.034 -59.823) rotate(44.999)" fill="#ace9ff"/>
              <path id="Path_28164" data-name="Path 28164" d="M0,0,1.334.007l.9,164.376L.9,164.376Z" transform="translate(94.035 -53.382) rotate(45)" fill="#ace9ff"/>
              <path id="Path_28165" data-name="Path 28165" d="M0,0,1.334.007l.9,164.376L.9,164.376Z" transform="translate(94.035 -46.943) rotate(45)" fill="#ace9ff"/>
              <path id="Path_28166" data-name="Path 28166" d="M0,0,1.334.007l.9,164.376L.9,164.376Z" transform="translate(94.035 -40.503) rotate(45)" fill="#ace9ff"/>
              <path id="Path_28167" data-name="Path 28167" d="M0,0,1.334.007l.9,164.376L.9,164.376Z" transform="translate(94.034 -34.066) rotate(44.999)" fill="#ace9ff"/>
              <path id="Path_28168" data-name="Path 28168" d="M0,0,1.334.007l.9,164.376L.9,164.376Z" transform="translate(94.034 -27.626) rotate(44.999)" fill="#ace9ff"/>
              <path id="Path_28169" data-name="Path 28169" d="M0,0,1.334.007l.9,164.376L.9,164.376Z" transform="matrix(0.707, 0.707, -0.707, 0.707, 94.032, -21.188)" fill="#ace9ff"/>
              <path id="Path_28170" data-name="Path 28170" d="M0,0,1.334.007l.9,164.376L.9,164.376Z" transform="matrix(0.707, 0.707, -0.707, 0.707, 94.032, -14.749)" fill="#ace9ff"/>
              <path id="Path_28171" data-name="Path 28171" d="M0,0,1.334.007l.9,164.376L.9,164.376Z" transform="translate(94.034 -8.308) rotate(44.999)" fill="#ace9ff"/>
              <path id="Path_28172" data-name="Path 28172" d="M0,0,1.334.007l.9,164.376L.9,164.376Z" transform="translate(94.034 -1.869) rotate(44.999)" fill="#ace9ff"/>
              <path id="Path_28173" data-name="Path 28173" d="M0,0,1.334.007l.9,164.376L.9,164.376Z" transform="translate(94.035 4.572) rotate(45)" fill="#ace9ff"/>
              <path id="Path_28174" data-name="Path 28174" d="M0,0,1.334.007l.9,164.376L.9,164.376Z" transform="translate(94.035 11.011) rotate(45)" fill="#ace9ff"/>
              <path id="Path_28175" data-name="Path 28175" d="M0,0,1.334.007l.9,164.376L.9,164.376Z" transform="matrix(0.707, 0.707, -0.707, 0.707, 94.032, 17.448)" fill="#ace9ff"/>
              <path id="Path_28176" data-name="Path 28176" d="M0,0,1.334.007l.9,164.376L.9,164.376Z" transform="matrix(0.707, 0.707, -0.707, 0.707, 94.032, 23.887)" fill="#ace9ff"/>
              <path id="Path_28177" data-name="Path 28177" d="M0,0,1.334.007l.9,164.376L.9,164.376Z" transform="translate(94.034 30.328) rotate(44.999)" fill="#ace9ff"/>
              <path id="Path_28178" data-name="Path 28178" d="M0,0,1.334.007l.9,164.376L.9,164.376Z" transform="matrix(0.707, 0.707, -0.707, 0.707, 94.032, 36.765)" fill="#ace9ff"/>
            </g>
          </g>
          <path id="forme-3" data-name="forme" d="M548,294.9c-14.388-1.486-16.613,22.759-27.953,35.713s-16.51,26.666-29.724,33.917a73.952,73.952,0,0,1-30.928,9.211c-11.657.679-23.382.715-35.072,1.274-13.242.635-121.6-25.709-147.507-15.256-3.366,1.357-10.853-.728-10.775,7.822s14.726,7.438,14.726,7.438c1.488,1.727,65.738,12.835,67.977,13.493,7.944,2.336,19.966,1.8,27.073,2.78,18.858,2.6,39.967,6.479,47.279,7.431,10.736,1.4,35.112-6.754,42.944-5.592,18.369,2.727,44.19,5.959,61-2.329,14.469-7.136,20.495-15.379,20.495-28.426C547.532,347.928,562.386,296.383,548,294.9Z" transform="matrix(0.985, -0.174, 0.174, 0.985, -262.559, -144.54)" opacity="0.539" fill="url(#linear-gradient-2)"/>
          <g transform="matrix(1, 0, 0, 1, -113, -0.01)" filter="url(#forme)">
            <path id="forme-4" data-name="forme" d="M239.39,121.178c-36.066,38.486-66.464,15.775-106.848-30.966S71.97,58.88,10.654,68.209C-20.831,73,23.813,20.557,62.2,3.116c36.375-16.524,20.87,37.9,84.522,41.094S275.456,82.691,239.39,121.178Z" transform="translate(-42.67 148.24) rotate(-60)" opacity="0.507" fill="url(#linear-gradient-3)"/>
          </g>
          <path id="cirlce" d="M48.022,0C74.5-.041,95.935,21.168,95.894,47.372S74.352,94.853,47.872,94.894-.041,73.727,0,47.522,21.542.042,48.022,0Z" transform="matrix(-0.866, -0.5, 0.5, -0.866, 116.024, 211.675)" fill="url(#linear-gradient-4)"/>
          <path id="circle" d="M33.331,0A32.69,32.69,0,0,1,66.318,32.873,33.52,33.52,0,0,1,32.988,66.089,32.69,32.69,0,0,1,0,33.217,33.52,33.52,0,0,1,33.331,0Z" transform="translate(309.85 64.894) rotate(-157)" fill="url(#linear-gradient-5)"/>
          <g transform="matrix(1, 0, 0, 1, -113, -0.01)" filter="url(#forme-2)">
            <path id="forme-5" data-name="forme" d="M337.23,373.737c-1.673-18.962,6.248-62.271,32.5-44.669,50.02,33.543,109.5,18.536,119.538-11.842s10.573-33.035,34.9-55.962-9.681-29.361,3.641-58.272c8.331-18.079,65.61-8.653,72.9,7.031,13.538,29.128,7.331,57.9-.068,92.724s-21.447,27.31-36.785,34.623-8.824,45.688-18.342,67.5-78.789-11.365-91.133,17.941c-16.132,38.305-4.677,78.479-70.285,72.453-41.808-3.84-66.728-40.988-66.65-68.3C317.484,412.188,338.576,388.991,337.23,373.737Z" transform="matrix(0.92, 0.39, -0.39, 0.92, -5.77, -417.83)" opacity="0.251" fill="url(#linear-gradient-6)"/>
          </g>
          <g id="circle_lines-2" data-name="circle_lines" transform="translate(29.924 136.108)" opacity="0.28" style="isolation: isolate">
            <g id="Group_18187" data-name="Group 18187" clip-path="url(#clip-path-3)">
              <g id="Group_18186" data-name="Group 18186" transform="translate(-16.899 -51.014)">
                <path id="Path_28435" data-name="Path 28435" d="M0,0,1.033.006l.7,127.243L.7,127.243Z" transform="translate(89.977 0) rotate(44.998)" fill="#fff"/>
                <path id="Path_28436" data-name="Path 28436" d="M0,0,1.033.006l.7,127.243L.7,127.243Z" transform="translate(89.977 4.985) rotate(44.998)" fill="#fff"/>
                <path id="Path_28437" data-name="Path 28437" d="M0,0,1.033.006l.7,127.243L.7,127.243Z" transform="translate(89.978 9.971) rotate(45)" fill="#fff"/>
                <path id="Path_28438" data-name="Path 28438" d="M0,0,1.033.006l.7,127.243L.7,127.243Z" transform="translate(89.978 14.955) rotate(45)" fill="#fff"/>
                <path id="Path_28439" data-name="Path 28439" d="M0,0,1.033.006l.7,127.243L.7,127.243Z" transform="translate(89.978 19.94) rotate(45)" fill="#fff"/>
                <path id="Path_28440" data-name="Path 28440" d="M0,0,1.033.006l.7,127.243L.7,127.243Z" transform="translate(89.977 24.923) rotate(44.998)" fill="#fff"/>
                <path id="Path_28441" data-name="Path 28441" d="M0,0,1.033.006l.7,127.243L.7,127.243Z" transform="translate(89.977 29.908) rotate(44.998)" fill="#fff"/>
                <path id="Path_28442" data-name="Path 28442" d="M0,0,1.033.006l.7,127.243L.7,127.243Z" transform="translate(89.977 34.892) rotate(44.998)" fill="#fff"/>
                <path id="Path_28443" data-name="Path 28443" d="M0,0,1.033.006l.7,127.243L.7,127.243Z" transform="translate(89.977 39.877) rotate(44.998)" fill="#fff"/>
                <path id="Path_28444" data-name="Path 28444" d="M0,0,1.033.006l.7,127.243L.7,127.243Z" transform="translate(89.977 44.862) rotate(44.998)" fill="#fff"/>
                <path id="Path_28445" data-name="Path 28445" d="M0,0,1.033.006l.7,127.243L.7,127.243Z" transform="translate(89.977 49.846) rotate(44.998)" fill="#fff"/>
                <path id="Path_28446" data-name="Path 28446" d="M0,0,1.033.006l.7,127.243L.7,127.243Z" transform="translate(89.978 54.832) rotate(45)" fill="#fff"/>
                <path id="Path_28447" data-name="Path 28447" d="M0,0,1.033.006l.7,127.243L.7,127.243Z" transform="translate(89.978 59.817) rotate(45)" fill="#fff"/>
                <path id="Path_28448" data-name="Path 28448" d="M0,0,1.033.006l.7,127.243L.7,127.243Z" transform="translate(89.977 64.8) rotate(44.998)" fill="#fff"/>
                <path id="Path_28449" data-name="Path 28449" d="M0,0,1.033.006l.7,127.243L.7,127.243Z" transform="translate(89.977 69.785) rotate(44.998)" fill="#fff"/>
                <path id="Path_28450" data-name="Path 28450" d="M0,0,1.033.006l.7,127.243L.7,127.243Z" transform="translate(89.977 74.77) rotate(44.998)" fill="#fff"/>
                <path id="Path_28451" data-name="Path 28451" d="M0,0,1.033.006l.7,127.243L.7,127.243Z" transform="translate(89.977 79.754) rotate(44.998)" fill="#fff"/>
              </g>
            </g>
          </g>
          <path id="circle-2" data-name="circle" d="M15.729,0A15.522,15.522,0,0,1,31.38,15.5,15.708,15.708,0,0,1,15.652,31.075,15.522,15.522,0,0,1,0,15.576,15.708,15.708,0,0,1,15.729,0Z" transform="translate(14.229 56.003) rotate(-76.608)" opacity="0.507" fill="url(#linear-gradient-7)"/>
          <path id="circle-3" data-name="circle" d="M15.72,0A15.558,15.558,0,0,1,31.392,15.508a15.672,15.672,0,0,1-15.72,15.555A15.558,15.558,0,0,1,0,15.555,15.672,15.672,0,0,1,15.72,0Z" transform="translate(-102.785 94.288) rotate(-82)" opacity="0.529" fill="url(#linear-gradient-8)"/>
          <path id="circle-4" data-name="circle" d="M28.027,0A27.5,27.5,0,0,1,55.783,27.617,28.152,28.152,0,0,1,27.756,55.505,27.5,27.5,0,0,1,0,27.888,28.152,28.152,0,0,1,28.027,0Z" transform="translate(-19.815 82.668) rotate(-58.571)" opacity="0.24" fill="url(#linear-gradient-9)"/>
          <path id="circle-5" data-name="circle" d="M19.387,0a19.021,19.021,0,0,1,19.2,19.1A19.473,19.473,0,0,1,19.2,38.394,19.021,19.021,0,0,1,0,19.291,19.473,19.473,0,0,1,19.387,0Z" transform="translate(275.791 134.666) rotate(-58.571)" opacity="0.24" fill="url(#linear-gradient-10)"/>
        </g>
      </g>
    </g>
  </g>
</svg>
