<svg id="calendar" xmlns="http://www.w3.org/2000/svg" width="17.768" height="17.768" viewBox="0 0 17.768 17.768">
  <g id="Group_31" data-name="Group 31">
    <g id="Group_30" data-name="Group 30">
      <path id="Path_17" data-name="Path 17" d="M15.685,1.388h-.833V0H13.464V1.388H4.3V0H2.915V1.388H2.082A2.085,2.085,0,0,0,0,3.47V15.685a2.085,2.085,0,0,0,2.082,2.082h13.6a2.085,2.085,0,0,0,2.082-2.082V3.47A2.085,2.085,0,0,0,15.685,1.388Zm.694,14.3a.7.7,0,0,1-.694.694H2.082a.7.7,0,0,1-.694-.694V6.524H16.379Zm0-10.549H1.388V3.47a.7.7,0,0,1,.694-.694h.833V4.164H4.3V2.776h9.161V4.164h1.388V2.776h.833a.7.7,0,0,1,.694.694Z" fill="#707070"/>
    </g>
  </g>
  <g id="Group_33" data-name="Group 33" transform="translate(2 7.635)">
    <g id="Group_32" data-name="Group 32">
      <rect id="Rectangle_38" data-name="Rectangle 38" width="2" height="2" fill="#707070"/>
    </g>
  </g>
  <g id="Group_35" data-name="Group 35" transform="translate(6 7.635)">
    <g id="Group_34" data-name="Group 34">
      <rect id="Rectangle_39" data-name="Rectangle 39" width="1" height="2" fill="#707070"/>
    </g>
  </g>
  <g id="Group_37" data-name="Group 37" transform="translate(8 7.635)">
    <g id="Group_36" data-name="Group 36">
      <rect id="Rectangle_40" data-name="Rectangle 40" width="2" height="2" fill="#707070"/>
    </g>
  </g>
  <g id="Group_39" data-name="Group 39" transform="translate(11 7.635)">
    <g id="Group_38" data-name="Group 38">
      <rect id="Rectangle_41" data-name="Rectangle 41" width="1" height="2" fill="#707070"/>
    </g>
  </g>
  <g id="Group_41" data-name="Group 41" transform="translate(14 7.635)">
    <g id="Group_40" data-name="Group 40">
      <rect id="Rectangle_42" data-name="Rectangle 42" width="2" height="2" fill="#707070"/>
    </g>
  </g>
  <g id="Group_43" data-name="Group 43" transform="translate(2 10.635)">
    <g id="Group_42" data-name="Group 42">
      <rect id="Rectangle_43" data-name="Rectangle 43" width="2" height="2" fill="#707070"/>
    </g>
  </g>
  <g id="Group_45" data-name="Group 45" transform="translate(6 10.635)">
    <g id="Group_44" data-name="Group 44">
      <rect id="Rectangle_44" data-name="Rectangle 44" width="1" height="2" fill="#707070"/>
    </g>
  </g>
  <g id="Group_47" data-name="Group 47" transform="translate(8 10.635)">
    <g id="Group_46" data-name="Group 46">
      <rect id="Rectangle_45" data-name="Rectangle 45" width="2" height="2" fill="#707070"/>
    </g>
  </g>
  <g id="Group_49" data-name="Group 49" transform="translate(11 10.635)">
    <g id="Group_48" data-name="Group 48">
      <rect id="Rectangle_46" data-name="Rectangle 46" width="1" height="2" fill="#707070"/>
    </g>
  </g>
  <g id="Group_51" data-name="Group 51" transform="translate(2 13.635)">
    <g id="Group_50" data-name="Group 50">
      <rect id="Rectangle_47" data-name="Rectangle 47" width="2" height="2" fill="#707070"/>
    </g>
  </g>
  <g id="Group_53" data-name="Group 53" transform="translate(6 13.635)">
    <g id="Group_52" data-name="Group 52">
      <rect id="Rectangle_48" data-name="Rectangle 48" width="1" height="2" fill="#707070"/>
    </g>
  </g>
  <g id="Group_55" data-name="Group 55" transform="translate(8 13.635)">
    <g id="Group_54" data-name="Group 54">
      <rect id="Rectangle_49" data-name="Rectangle 49" width="2" height="2" fill="#707070"/>
    </g>
  </g>
  <g id="Group_57" data-name="Group 57" transform="translate(11 13.635)">
    <g id="Group_56" data-name="Group 56">
      <rect id="Rectangle_50" data-name="Rectangle 50" width="1" height="2" fill="#707070"/>
    </g>
  </g>
  <g id="Group_59" data-name="Group 59" transform="translate(14 10.635)">
    <g id="Group_58" data-name="Group 58">
      <rect id="Rectangle_51" data-name="Rectangle 51" width="2" height="2" fill="#707070"/>
    </g>
  </g>
</svg>
