<svg xmlns="http://www.w3.org/2000/svg" width="15.728" height="15.728" viewBox="0 0 15.728 15.728">
  <g id="Group_11557" data-name="Group 11557" transform="translate(-341.343 -45)">
    <g id="Group_11548" data-name="Group 11548" transform="translate(-4.247)">
      <g id="Group_11547" data-name="Group 11547" transform="translate(19.247 43)">
        <g id="Group_11546" data-name="Group 11546">
          <g id="Group_11545" data-name="Group 11545">
            <g id="Group_11520" data-name="Group 11520">
              <path id="close" d="M10.459,7.864,15.324,3a1.376,1.376,0,0,0,0-1.946L14.676.4A1.375,1.375,0,0,0,12.73.4L7.864,5.27,3,.4A1.376,1.376,0,0,0,1.053.4L.4,1.052A1.376,1.376,0,0,0,.4,3L5.27,7.864.4,12.73a1.375,1.375,0,0,0,0,1.946l.649.649a1.376,1.376,0,0,0,1.946,0l4.866-4.866,4.865,4.866a1.376,1.376,0,0,0,1.946,0l.649-.649a1.376,1.376,0,0,0,0-1.946Zm0,0" transform="translate(326.343 2)" fill="#151515"/>
            </g>
          </g>
        </g>
      </g>
    </g>
  </g>
</svg>
