<svg xmlns="http://www.w3.org/2000/svg" width="15.068" height="15.068" viewBox="0 0 15.068 15.068">
  <g id="Group_15780" data-name="Group 15780" transform="translate(-203 -591.544)">
    <g id="Group_15746" data-name="Group 15746" transform="translate(203 591.544)">
      <g id="Path_26596" data-name="Path 26596" transform="translate(0)" fill="#fff">
        <path d="M 7.533936500549316 14.5678768157959 C 3.655406475067139 14.5678768157959 0.4999965131282806 11.41246604919434 0.4999965131282806 7.533936500549316 C 0.4999965131282806 3.655406475067139 3.655406475067139 0.4999965131282806 7.533936500549316 0.4999965131282806 C 11.41246604919434 0.4999965131282806 14.5678768157959 3.655406475067139 14.5678768157959 7.533936500549316 C 14.5678768157959 11.41246604919434 11.41246604919434 14.5678768157959 7.533936500549316 14.5678768157959 Z" stroke="none"/>
        <path d="M 7.533936500549316 0.9999961853027344 C 3.931106567382812 0.9999961853027344 0.9999961853027344 3.931106567382812 0.9999961853027344 7.533936500549316 C 0.9999961853027344 11.13676643371582 3.931106567382812 14.0678768157959 7.533936500549316 14.0678768157959 C 11.13676643371582 14.0678768157959 14.0678768157959 11.13676643371582 14.0678768157959 7.533936500549316 C 14.0678768157959 3.931106567382812 11.13676643371582 0.9999961853027344 7.533936500549316 0.9999961853027344 M 7.533936500549316 -3.814697265625e-06 C 11.69481658935547 -3.814697265625e-06 15.0678768157959 3.373056411743164 15.0678768157959 7.533936500549316 C 15.0678768157959 11.69481658935547 11.69481658935547 15.0678768157959 7.533936500549316 15.0678768157959 C 3.373056411743164 15.0678768157959 -3.814697265625e-06 11.69481658935547 -3.814697265625e-06 7.533936500549316 C -3.814697265625e-06 3.373056411743164 3.373056411743164 -3.814697265625e-06 7.533936500549316 -3.814697265625e-06 Z" stroke="none" fill="#bdc2d1"/>
      </g>
    </g>
    <g id="Group_12048" data-name="Group 12048" transform="translate(206.038 595.587)">
      <path id="correct" d="M3.442,7.252a.459.459,0,0,1-.647,0L.2,4.66a.688.688,0,0,1,0-.974l.323-.323a.688.688,0,0,1,.974,0L3.115,4.979,7.489.608a.688.688,0,0,1,.974,0l.323.323a.688.688,0,0,1,0,.974Zm0,0" transform="translate(0.001 -0.406)" fill="#00c59a"/>
    </g>
  </g>
</svg>
