<svg xmlns="http://www.w3.org/2000/svg" width="24.153" height="24.153" viewBox="0 0 24.153 24.153">
  <g id="Group_11995" data-name="Group 11995" transform="translate(-226.092 -212.206)">
    <g id="Path_24080" data-name="Path 24080" transform="translate(226.092 212.206)" fill="#a3a3a3">
      <path d="M 12.07656383514404 23.6531982421875 C 8.984354019165039 23.6531982421875 6.077223777770996 22.44901847839355 3.890703916549683 20.26248931884766 C 1.704173803329468 18.07595825195312 0.5000038146972656 15.16881942749023 0.5000038146972656 12.07659912109375 C 0.5000038146972656 8.984378814697266 1.704173803329468 6.077239036560059 3.890703916549683 3.890709161758423 C 6.077223777770996 1.704179167747498 8.984354019165039 0.4999991357326508 12.07656383514404 0.4999991357326508 C 15.16877365112305 0.4999991357326508 18.07590293884277 1.704179167747498 20.26242446899414 3.890709161758423 C 22.44895362854004 6.077239036560059 23.65312385559082 8.984378814697266 23.65312385559082 12.07659912109375 C 23.65312385559082 15.16881942749023 22.44895362854004 18.07595825195312 20.26242446899414 20.26248931884766 C 18.07590293884277 22.44901847839355 15.16877365112305 23.6531982421875 12.07656383514404 23.6531982421875 Z" stroke="none"/>
      <path d="M 12.07656383514404 1 C 9.117903709411621 1 6.336343765258789 2.152168273925781 4.244253158569336 4.244258880615234 C 2.152164459228516 6.336349487304688 1.000003814697266 9.117929458618164 1.000003814697266 12.07659912109375 C 1.000003814697266 15.03526878356934 2.152164459228516 17.81684875488281 4.244253158569336 19.90893936157227 C 6.336343765258789 22.00102996826172 9.117903709411621 23.1531982421875 12.07656383514404 23.1531982421875 C 15.03522396087646 23.1531982421875 17.8167839050293 22.00102996826172 19.90887451171875 19.90893936157227 C 22.00096321105957 17.81684875488281 23.15312385559082 15.03526878356934 23.15312385559082 12.07659912109375 C 23.15312385559082 9.117929458618164 22.00096321105957 6.336349487304688 19.90887451171875 4.244258880615234 C 17.8167839050293 2.152168273925781 15.03522396087646 1 12.07656383514404 1 M 12.07656383514404 0 C 18.74626350402832 0 24.15312385559082 5.406879425048828 24.15312385559082 12.07659912109375 C 24.15312385559082 18.74631881713867 18.74626350402832 24.1531982421875 12.07656383514404 24.1531982421875 C 5.406864166259766 24.1531982421875 3.814697265625e-06 18.74631881713867 3.814697265625e-06 12.07659912109375 C 3.814697265625e-06 5.406879425048828 5.406864166259766 0 12.07656383514404 0 Z" stroke="none" fill="#fff"/>
    </g>
    <g id="pencil" transform="translate(231.433 217.533)">
      <g id="Group_11878" data-name="Group 11878" transform="translate(0 0)">
        <path id="Path_24080-2" data-name="Path 24080" d="M13.279,2.216,11.419.354a1.268,1.268,0,0,0-1.755,0L1.33,8.772a.312.312,0,0,0-.078.133L.011,13.25a.31.31,0,0,0,.383.384l4.341-1.241a.311.311,0,0,0,.133-.078l8.41-8.342a1.242,1.242,0,0,0,0-1.755Zm-4.966.394L9.454,3.752,3.5,9.711l-.428-.856a.31.31,0,0,0-.277-.171h-.5ZM.761,12.884l.4-1.414,1.01,1.01Zm3.579-1.023-1.484.424-1.5-1.5L1.784,9.3H2.6l.534,1.069a.31.31,0,0,0,.139.139l1.069.534v.815Zm.62-.51v-.5a.31.31,0,0,0-.171-.277l-.856-.428L9.893,4.19l1.141,1.141ZM12.842,3.54,11.475,4.9,8.75,2.17,10.1.8a.635.635,0,0,1,.877,0l1.86,1.86a.62.62,0,0,1,0,.876Z" transform="translate(0 -0.002)" fill="#fff"/>
      </g>
    </g>
  </g>
</svg>
