<svg xmlns="http://www.w3.org/2000/svg" width="10.801" height="14.401" viewBox="0 0 10.801 14.401">
  <path id="euro" d="M64.648,12.6a5.4,5.4,0,0,1-4.67-2.7h4.691V8.1h-5.34a5.022,5.022,0,0,1,0-1.8h5.34V4.5H59.978a5.373,5.373,0,0,1,6.616-2.332L66.919.49A5.562,5.562,0,0,0,64.648,0a7.209,7.209,0,0,0-6.67,4.5H56.118V6.3H57.51a7.209,7.209,0,0,0-.063.9,7.209,7.209,0,0,0,.063.9H56.118V9.9h1.859a7.209,7.209,0,0,0,6.67,4.5,5.562,5.562,0,0,0,2.271-.49l-.325-1.679a5.366,5.366,0,0,1-1.946.368Z" transform="translate(-56.118)" fill="#707070"/>
</svg>
