<svg xmlns="http://www.w3.org/2000/svg" width="17.798" height="11.344" viewBox="0 0 17.798 11.344">
  <g id="eye" transform="translate(-1 -95.835)">
    <g id="Group_11695" data-name="Group 11695" transform="translate(1 95.835)">
      <g id="Group_11694" data-name="Group 11694" transform="translate(0 0)">
        <path id="Path_23916" data-name="Path 23916" d="M17.685,98.161c-.159-.218-3.947-5.326-8.786-5.326S.272,97.943.113,98.16a.587.587,0,0,0,0,.693c.159.217,3.947,5.326,8.786,5.326s8.627-5.108,8.786-5.326A.587.587,0,0,0,17.685,98.161ZM8.9,103.005c-3.564,0-6.651-3.39-7.565-4.5.913-1.109,3.993-4.5,7.565-4.5s6.651,3.39,7.565,4.5C15.551,99.617,12.471,103.005,8.9,103.005Z" transform="translate(0 -92.835)" fill="#707070"/>
      </g>
    </g>
    <g id="Group_11697" data-name="Group 11697" transform="translate(6.378 97.986)">
      <g id="Group_11696" data-name="Group 11696" transform="translate(0 0)">
        <path id="Path_23917" data-name="Path 23917" d="M158.242,154.725a3.52,3.52,0,1,0,3.52,3.52A3.525,3.525,0,0,0,158.242,154.725Zm0,5.867a2.347,2.347,0,1,1,2.347-2.347A2.35,2.35,0,0,1,158.242,160.592Z" transform="translate(-154.722 -154.725)" fill="#707070"/>
      </g>
    </g>
  </g>
</svg>
