<svg xmlns="http://www.w3.org/2000/svg" width="12.846" height="11.429" viewBox="0 0 12.846 11.429">
  <path id="heart_2_" data-name="heart (2)" d="M11.827,1.118A3.454,3.454,0,0,0,9.257,0,3.232,3.232,0,0,0,7.239.7a4.129,4.129,0,0,0-.816.852A7.681,7.681,0,0,0,5.607.7,5.951,5.951,0,0,0,3.588,0,3.454,3.454,0,0,0,1.019,1.118,4.015,4.015,0,0,0,0,3.861,4.781,4.781,0,0,0,1.274,6.99,27.166,27.166,0,0,0,4.463,9.984c.442.377.943.8,1.463,1.258a.754.754,0,0,0,.993,0c.52-.455,1.021-.882,1.463-1.259A27.154,27.154,0,0,0,11.572,6.99a4.781,4.781,0,0,0,1.274-3.13A4.015,4.015,0,0,0,11.827,1.118Zm0,0" fill="#e70020"/>
</svg>
