<svg xmlns="http://www.w3.org/2000/svg" width="18.177" height="16.282" viewBox="0 0 18.177 16.282">
  <path id="heart_2_" data-name="heart (2)" d="M15.814,1.5A4.619,4.619,0,0,0,12.378,0a4.321,4.321,0,0,0-2.7.932A5.522,5.522,0,0,0,8.588,2.071,5.519,5.519,0,0,0,7.5.932,4.321,4.321,0,0,0,4.8,0,4.619,4.619,0,0,0,1.363,1.5,5.369,5.369,0,0,0,0,5.162,6.393,6.393,0,0,0,1.7,9.347a36.326,36.326,0,0,0,4.265,4c.591.5,1.261,1.074,1.956,1.683a1.008,1.008,0,0,0,1.328,0c.7-.608,1.366-1.179,1.957-1.683a36.309,36.309,0,0,0,4.264-4,6.393,6.393,0,0,0,1.7-4.185A5.369,5.369,0,0,0,15.814,1.5Zm0,0" transform="translate(0.5 0.5)" fill="none" stroke="#666" stroke-width="1"/>
</svg>
