<svg xmlns="http://www.w3.org/2000/svg" width="22.898" height="13.285" viewBox="0 0 22.898 13.285">
  <path id="school_1_" data-name="school (1)" d="M21.815,8.665V3.977a.681.681,0,0,0-.472-.649L11.116.032a.681.681,0,0,0-.418,0L.472,3.328a.681.681,0,0,0,0,1.3l5.119,1.65V8.833c0,.011,0,.022,0,.033.02.663.647,1.292,1.77,1.773a9.2,9.2,0,0,0,3.545.682,9.2,9.2,0,0,0,3.545-.682c1.141-.489,1.77-1.131,1.77-1.806V6.276l4.229-1.363V8.665a1.768,1.768,0,0,0-1.084,1.628V12.6a.682.682,0,0,0,.682.682h2.168A.682.682,0,0,0,22.9,12.6V10.294A1.768,1.768,0,0,0,21.815,8.665ZM13.7,9.472a8.289,8.289,0,0,1-5.589,0,2.719,2.719,0,0,1-1.158-.7V6.715L10.7,7.922a.682.682,0,0,0,.418,0L14.86,6.715V8.777A2.725,2.725,0,0,1,13.7,9.472ZM10.907,6.557l-8-2.58,8-2.58,8,2.58Zm10.628,5.364h-.8V10.294a.4.4,0,1,1,.8,0Zm0,0" transform="translate(0 0.001)"/>
</svg>
