<svg xmlns="http://www.w3.org/2000/svg" width="34.622" height="30.802" viewBox="0 0 34.622 30.802">
  <path id="heart_1_" data-name="heart (1)" d="M31.875,3.014A9.31,9.31,0,0,0,24.95,0a8.71,8.71,0,0,0-5.44,1.878,11.13,11.13,0,0,0-2.2,2.3,11.124,11.124,0,0,0-2.2-2.3A8.708,8.708,0,0,0,9.672,0,9.31,9.31,0,0,0,2.746,3.014,10.822,10.822,0,0,0,0,10.4c0,2.928,1.091,5.608,3.434,8.435a73.218,73.218,0,0,0,8.6,8.068c1.191,1.015,2.541,2.166,3.943,3.391a2.032,2.032,0,0,0,2.676,0c1.4-1.226,2.753-2.377,3.944-3.393a73.186,73.186,0,0,0,8.6-8.067c2.343-2.827,3.434-5.507,3.434-8.435A10.821,10.821,0,0,0,31.875,3.014Zm0,0" fill="#dfdfdf"/>
</svg>
