<svg xmlns="http://www.w3.org/2000/svg" width="17.827" height="23.946" viewBox="0 0 17.827 23.946">
  <g id="time-and-date" transform="translate(-63.497)">
    <path id="Path_24525" data-name="Path 24525" d="M79.738,2.979h-.667l-6.661.964-6.661-.964h-.763a1.489,1.489,0,0,1,0-2.979H79.738a1.489,1.489,0,1,1,0,2.979Z" transform="translate(0 0)" fill="#fff"/>
    <path id="Path_24526" data-name="Path 24526" d="M374.035,0H372.59a1.489,1.489,0,0,1,0,2.979h1.445a1.489,1.489,0,0,0,0-2.979Z" transform="translate(-294.201)" fill="#fff"/>
    <path id="Path_24527" data-name="Path 24527" d="M123.472,63.7v-1.87H110.246V63.7a6.663,6.663,0,0,0,4.441,6.282.893.893,0,0,1,0,1.685,6.664,6.664,0,0,0-4.441,6.282v1.87h13.226v-1.87a6.663,6.663,0,0,0-4.441-6.282.893.893,0,0,1-.6-.842h.1a.815.815,0,0,1,.5-.842A6.663,6.663,0,0,0,123.472,63.7Z" transform="translate(-44.497 -58.847)" fill="#fff"/>
    <path id="Path_24528" data-name="Path 24528" d="M110.246,61.826v.944H121.2a.925.925,0,0,1,.925.925,6.663,6.663,0,0,1-4.417,6.273.918.918,0,0,0-.611.721.894.894,0,0,0,.586.973,6.664,6.664,0,0,1,4.441,6.282v1.87h1.445v-1.87a6.663,6.663,0,0,0-4.417-6.273.918.918,0,0,1-.611-.721.894.894,0,0,1,.587-.973,6.664,6.664,0,0,0,4.441-6.282v-1.87Z" transform="translate(-44.497 -58.847)" fill="#fff"/>
    <path id="Path_24529" data-name="Path 24529" d="M79.738,419.116H64.986a1.489,1.489,0,0,1,0-2.979h.763l6.661-.964,6.661.964h.667a1.489,1.489,0,1,1,0,2.979Z" transform="translate(0 -395.171)" fill="#fff"/>
    <path id="Path_24530" data-name="Path 24530" d="M374.035,435.174H372.59a1.489,1.489,0,0,1,0,2.979h1.445a1.489,1.489,0,0,0,0-2.979Z" transform="translate(-294.201 -414.207)" fill="#fff"/>
    <path id="Path_24531" data-name="Path 24531" d="M120.116,164.942h-.7a1.546,1.546,0,0,1-1.519-1.206l-.286-1.726a1.442,1.442,0,0,1,1.423-1.678,6.681,6.681,0,0,0,3.868-3.578H110.82a6.681,6.681,0,0,0,3.868,3.578,1.442,1.442,0,0,1,1.423,1.678l-.286,1.726a1.442,1.442,0,0,1-1.423,1.206h-.8a3.35,3.35,0,0,0-3.357,3.319c0,.012,0,.025,0,.037v1.87h13.226V168.3c0-.012,0-.024,0-.037A3.35,3.35,0,0,0,120.116,164.942Z" transform="translate(-44.498 -149.201)" fill="#e4e4e4"/>
    <path id="Path_24532" data-name="Path 24532" d="M241.961,168.261a3.35,3.35,0,0,0-3.357-3.319h-.8a1.442,1.442,0,0,1-1.423-1.206l-.286-1.726a1.442,1.442,0,0,1,1.423-1.678,6.681,6.681,0,0,0,3.868-3.578h-1.445a6.681,6.681,0,0,1-3.868,3.578,1.442,1.442,0,0,0-1.423,1.678l.286,1.726a1.442,1.442,0,0,0,1.423,1.206h.8a3.35,3.35,0,0,1,3.357,3.319c0,.012,0,.025,0,.037v1.87h1.445V168.3C241.961,168.286,241.961,168.273,241.961,168.261Z" transform="translate(-162.889 -149.201)" fill="#e4e4e4"/>
  </g>
</svg>
