<svg xmlns="http://www.w3.org/2000/svg" width="20" height="20" viewBox="0 0 20 20">
  <g id="Group_15307" data-name="Group 15307" transform="translate(-189 -295)">
    <circle id="Ellipse_672" data-name="Ellipse 672" cx="10" cy="10" r="10" transform="translate(189 295)" fill="#969696" opacity="0.24"/>
    <g id="edit_1_" data-name="edit (1)" transform="translate(194 299.719)">
      <path id="Path_27057" data-name="Path 27057" d="M9.887,44.822a.267.267,0,0,0-.267.267v2.369a.8.8,0,0,1-.8.8H1.334a.8.8,0,0,1-.8-.8V40.506a.8.8,0,0,1,.8-.8H3.7a.267.267,0,1,0,0-.534H1.334A1.335,1.335,0,0,0,0,40.506v6.952a1.335,1.335,0,0,0,1.334,1.334H8.82a1.335,1.335,0,0,0,1.334-1.334V45.089A.267.267,0,0,0,9.887,44.822Zm0,0" transform="translate(0 -37.873)" fill="#969696"/>
      <path id="Path_27058" data-name="Path 27058" d="M115.351.612a1.2,1.2,0,0,0-1.7,0l-4.76,4.76a.267.267,0,0,0-.068.117l-.626,2.26a.267.267,0,0,0,.328.328l2.26-.626a.267.267,0,0,0,.117-.068l4.759-4.76a1.2,1.2,0,0,0,0-1.7Zm-5.876,4.933,3.9-3.9,1.256,1.256-3.9,3.9Zm-.251.5,1,1-1.388.385Zm6.063-3.8L115,2.529l-1.256-1.256.283-.283a.667.667,0,0,1,.943,0l.313.313A.668.668,0,0,1,115.287,2.246Zm0,0" transform="translate(-105.303 0)" fill="#969696"/>
    </g>
  </g>
</svg>
