<svg id="checked" xmlns="http://www.w3.org/2000/svg" width="29.2" height="29.2" viewBox="0 0 29.2 29.2">
  <path id="Path_27107" data-name="Path 27107" d="M14.6,0A14.6,14.6,0,1,1,0,14.6,14.6,14.6,0,0,1,14.6,0Z" fill="#00c59a"/>
  <path id="Path_27104" data-name="Path 27104" d="M188.8,164.435l7.507,7.507a14.59,14.59,0,0,0,10.823-14.093v-.415l-5.9-5.435Z" transform="translate(-177.931 -143.249)" fill="#0aa06e"/>
  <g id="Group_15319" data-name="Group 15319" transform="translate(4.905 7.208)">
    <path id="Path_27105" data-name="Path 27105" d="M95.263,205.979a1.724,1.724,0,0,1,0,2.395l-1.336,1.336a1.724,1.724,0,0,1-2.395,0l-5.849-5.9a1.724,1.724,0,0,1,0-2.395l1.336-1.336a1.724,1.724,0,0,1,2.395,0Z" transform="translate(-85.2 -195.317)" fill="#fff"/>
    <path id="Path_27106" data-name="Path 27106" d="M175.016,125.684a1.724,1.724,0,0,1,2.395,0l1.336,1.336a1.724,1.724,0,0,1,0,2.395L168.614,139.5a1.724,1.724,0,0,1-2.395,0l-1.336-1.336a1.724,1.724,0,0,1,0-2.395Z" transform="translate(-159.84 -125.2)" fill="#fff"/>
  </g>
</svg>
