<svg xmlns="http://www.w3.org/2000/svg" width="19.294" height="19.296" viewBox="0 0 19.294 19.296">
  <path id="Path_24076" data-name="Path 24076" d="M19.213.582a.565.565,0,0,0-.5-.5c-4.474-.5-8.287,1.293-11.4,4.495A23.322,23.322,0,0,0,4.995,7.4,4.489,4.489,0,0,0,1.766,8.736l-1.6,1.6a.565.565,0,0,0,.546.946,7.873,7.873,0,0,1,1.553-.242,4.366,4.366,0,0,1,.534,0c-.353.679-.623,1.247-.713,1.39a.565.565,0,0,0,.079.7l.925.925c-1.347,1.836-1.369,2.777-1.364,2.91a.568.568,0,0,0,.594.547A5.358,5.358,0,0,0,5.19,16.157l.973.973a.566.566,0,0,0,.705.076c.152-.1.687-.357,1.329-.692A13.81,13.81,0,0,1,8,18.647a.566.566,0,0,0,.959.483l1.6-1.6a4.465,4.465,0,0,0,1.267-3.2,23.344,23.344,0,0,0,2.97-2.441C17.97,8.781,19.7,5,19.213.582Zm-1.081.582a11.289,11.289,0,0,1-.286,3.544,4.978,4.978,0,0,1-1.992-1.265,4.973,4.973,0,0,1-1.267-2A11.4,11.4,0,0,1,18.132,1.164ZM2.192,9.909l.373-.373a3.57,3.57,0,0,1,1.622-.922c-.3.484-.577.946-.816,1.372A4.541,4.541,0,0,0,2.192,9.909Zm1.07,2.722c.122-.241.27-.544.542-1.057l.744.744q-.415.446-.752.847Zm2.765-.216a1.672,1.672,0,0,1,1.3-.5,1.691,1.691,0,0,1-.5,1.3A14.623,14.623,0,0,1,3.149,16.1,14.482,14.482,0,0,1,6.027,12.414Zm.636,3.617-.583-.583q.4-.339.844-.755l.792.792C7.2,15.763,6.978,15.868,6.662,16.031Zm3.1.7-.453.453a5.517,5.517,0,0,0-.028-1.256c.416-.234.867-.5,1.34-.8A3.334,3.334,0,0,1,9.761,16.731ZM8.745,14.916,7.732,13.9a3.259,3.259,0,0,0,.722-2.55.565.565,0,0,0-.565-.565,3.271,3.271,0,0,0-2.55.722l-.968-.968c2.643-4.635,5.7-7.569,9.131-8.777a6.088,6.088,0,0,0,1.552,2.478,6.092,6.092,0,0,0,2.467,1.549C16.305,9.2,13.372,12.258,8.745,14.916Zm0,0" transform="translate(-0.001 0)"/>
</svg>
