<svg xmlns="http://www.w3.org/2000/svg" width="11.479" height="13.237" viewBox="0 0 11.479 13.237">
  <g id="XMLID_1064_" transform="translate(-34)">
    <g id="XMLID_122_" transform="translate(34 0)">
      <path id="XMLID_792_" d="M193.9,138.989l-.137-.05v-.834a1.131,1.131,0,0,1,.263.148.259.259,0,0,0,.329-.4,1.615,1.615,0,0,0-.592-.29v-.127a.259.259,0,0,0-.517,0v.115c-.027.006-.055.013-.083.021a.888.888,0,0,0-.308,1.485,1.911,1.911,0,0,0,.39.228v1.093a.784.784,0,0,1-.345-.148.259.259,0,1,0-.283.433,1.252,1.252,0,0,0,.628.235v.161a.259.259,0,1,0,.517,0v-.186a1.052,1.052,0,0,0,.766-.838A.926.926,0,0,0,193.9,138.989Zm-.654-.288c-.026-.016-.05-.033-.071-.05a.332.332,0,0,1-.077-.312.373.373,0,0,1,.148-.24Zm.774,1.25a.535.535,0,0,1-.257.371v-.832A.4.4,0,0,1,194.019,139.951Z" transform="translate(-188.402 -133.632)" fill="#707070"/>
      <path id="XMLID_905_" d="M45.363,5.524,43.721,4.439V.259A.259.259,0,0,0,43.462,0h-6.2A.259.259,0,0,0,37,.259v.982h-.982a.259.259,0,0,0-.259.259v2.94L34.116,5.524A.259.259,0,0,0,34,5.739v7.239a.259.259,0,0,0,.259.259h4.318a.259.259,0,0,0,0-.517H34.883l3.769-3.769.945.624a.259.259,0,0,0,.285,0l.945-.624L44.6,12.72H40.9a.259.259,0,0,0,0,.517H45.22a.259.259,0,0,0,.259-.259V5.739a.259.259,0,0,0-.116-.216Zm-.612.216-1.03.68V5.059ZM37.516.517H43.2V6.761l-.724.478V1.5a.259.259,0,0,0-.259-.259H37.516ZM35.758,5.059V6.42l-1.03-.68Zm-1.241,7.3V6.22l3.694,2.44Zm5.222-3.305L36.275,6.761v-5h5.688V7.581ZM44.962,6.22v6.134L41.267,8.66Z" transform="translate(-34 0)" fill="#707070"/>
      <path id="XMLID_1112_" d="M246.259,492a.259.259,0,1,0,.183.076A.26.26,0,0,0,246.259,492Z" transform="translate(-240.519 -479.28)" fill="#707070"/>
    </g>
  </g>
</svg>
