<svg id="Group_105" data-name="Group 105" xmlns="http://www.w3.org/2000/svg" width="15.879" height="19.047" viewBox="0 0 15.879 19.047">
  <path id="Path_28" data-name="Path 28" d="M110.227,93.2a4.906,4.906,0,0,0-3.242,8.581,3.683,3.683,0,0,1,.687,2.449.292.292,0,0,0,.088.229.325.325,0,0,0,.211.088h4.493a.292.292,0,0,0,.211-.088.335.335,0,0,0,.088-.229,3.794,3.794,0,0,1,.687-2.449l.053-.053a4.891,4.891,0,0,0-3.277-8.528Zm2.819,8.123c-.018.018-.053.053-.053.07a4.114,4.114,0,0,0-.828,2.537h-3.894a4.094,4.094,0,0,0-.881-2.608,4.29,4.29,0,1,1,5.656,0Z" transform="translate(-102.274 -89.095)"/>
  <path id="Path_29" data-name="Path 29" d="M209.629,121.6a.3.3,0,0,0,0,.6,3.207,3.207,0,0,1,3.207,3.207.3.3,0,0,0,.6,0A3.79,3.79,0,0,0,209.629,121.6Z" transform="translate(-201.692 -116.244)"/>
  <path id="Path_30" data-name="Path 30" d="M159.581,358.4h-3.912a.74.74,0,1,0,0,1.48h3.894a.76.76,0,0,0,.758-.74A.744.744,0,0,0,159.581,358.4Zm0,.863h-3.912a.139.139,0,0,1-.141-.141.13.13,0,0,1,.141-.141h3.894a.139.139,0,0,1,.141.141A.126.126,0,0,1,159.581,359.263Z" transform="translate(-149.689 -342.613)"/>
  <path id="Path_31" data-name="Path 31" d="M171.618,398.8h-2.749a.74.74,0,1,0,0,1.48h2.749a.744.744,0,0,0,.74-.74A.733.733,0,0,0,171.618,398.8Zm0,.863h-2.749a.139.139,0,0,1-.141-.141.13.13,0,0,1,.141-.141h2.749a.141.141,0,1,1,0,.282Z" transform="translate(-162.307 -381.233)"/>
  <path id="Path_32" data-name="Path 32" d="M209.629,2.643a.3.3,0,0,0,.3-.3V.3a.3.3,0,1,0-.6,0V2.343A.309.309,0,0,0,209.629,2.643Z" transform="translate(-201.692)"/>
  <path id="Path_33" data-name="Path 33" d="M294.728,33.17a.284.284,0,0,0-.405.07l-1.128,1.692a.29.29,0,0,0,.07.423.278.278,0,0,0,.405-.088l1.128-1.692A.273.273,0,0,0,294.728,33.17Z" transform="translate(-281.805 -31.655)"/>
  <path id="Path_34" data-name="Path 34" d="M104.443,33.231a.284.284,0,0,0,.159-.053.309.309,0,0,0,.088-.423L103.6,31.046a.305.305,0,1,0-.511.335l1.092,1.709A.292.292,0,0,0,104.443,33.231Z" transform="translate(-100.084 -29.548)"/>
  <path id="Path_35" data-name="Path 35" d="M38.193,104.295l-1.78-.969a.31.31,0,0,0-.405.123.281.281,0,0,0,.123.405l1.78.969a.415.415,0,0,0,.141.035.291.291,0,0,0,.264-.159A.31.31,0,0,0,38.193,104.295Z" transform="translate(-35.966 -98.744)"/>
  <path id="Path_36" data-name="Path 36" d="M344.58,103.449a.31.31,0,0,0-.405-.123l-1.8.969a.31.31,0,0,0-.123.405.291.291,0,0,0,.264.159.332.332,0,0,0,.141-.035l1.8-.969A.31.31,0,0,0,344.58,103.449Z" transform="translate(-328.733 -98.744)"/>
</svg>
