<svg xmlns="http://www.w3.org/2000/svg" width="27.735" height="26.578" viewBox="0 0 27.735 26.578">
  <path id="star_1_" data-name="star (1)" d="M27.662,10.538a1.472,1.472,0,0,0-1.268-1.012L18.388,8.8,15.224,1.392a1.475,1.475,0,0,0-2.712,0L9.347,8.8,1.34,9.526A1.476,1.476,0,0,0,.5,12.105l6.052,5.307L4.77,25.271a1.474,1.474,0,0,0,2.193,1.594l6.9-4.128,6.9,4.128a1.475,1.475,0,0,0,2.195-1.594L21.18,17.412l6.052-5.307A1.476,1.476,0,0,0,27.662,10.538ZM14,22.657" transform="translate(0 -0.496)" fill="#fec36d"/>
</svg>
