<svg xmlns="http://www.w3.org/2000/svg" width="106.147" height="88.812" viewBox="0 0 106.147 88.812">
  <g id="under-construction" transform="translate(0 -41.807)">
    <g id="Group_14690" data-name="Group 14690" transform="translate(4.957 41.807)">
      <path id="Path_26881" data-name="Path 26881" d="M32.805,41.807H26.961a3.053,3.053,0,0,0-3.053,3.053v83.282a2.478,2.478,0,0,0,2.477,2.477H33.38a2.478,2.478,0,0,0,2.477-2.477V44.86A3.053,3.053,0,0,0,32.805,41.807Z" transform="translate(-23.908 -41.807)" fill="#d4d2d3"/>
      <path id="Path_26882" data-name="Path 26882" d="M433.5,41.807h5.844A3.053,3.053,0,0,1,442.4,44.86v83.282a2.478,2.478,0,0,1-2.477,2.477h-6.995a2.478,2.478,0,0,1-2.477-2.477V44.86A3.053,3.053,0,0,1,433.5,41.807Z" transform="translate(-346.168 -41.807)" fill="#d4d2d3"/>
    </g>
    <g id="Group_14691" data-name="Group 14691" transform="translate(0 49.511)">
      <path id="Path_26883" data-name="Path 26883" d="M15.43,78.967,5.35,83.6,0,94.4v16.649L21.044,98.121,32.079,78.967Z" transform="translate(0 -78.967)" fill="#465059"/>
      <path id="Path_26884" data-name="Path 26884" d="M82.281,78.967,55.9,98.121,43.974,117.274h16.65l24.1-15.551,14.21-22.756Z" transform="translate(-34.857 -78.967)" fill="#465059"/>
      <path id="Path_26885" data-name="Path 26885" d="M236.6,78.967l-29.554,22.756L198.3,117.274h16.65l24.193-16.393,14.114-21.914Z" transform="translate(-157.186 -78.967)" fill="#465059"/>
      <path id="Path_26886" data-name="Path 26886" d="M358.933,124.42,352.62,137.4h16.649l11.9-6.228,4.494-10.165v-16.65Z" transform="translate(-279.516 -99.096)" fill="#465059"/>
    </g>
    <g id="Group_14692" data-name="Group 14692" transform="translate(0 49.511)">
      <path id="Path_26887" data-name="Path 26887" d="M449.322,184.671v11.436a4.957,4.957,0,0,1-4.956,4.956H432.929Z" transform="translate(-343.175 -162.757)" fill="#ffcd38"/>
      <path id="Path_26888" data-name="Path 26888" d="M326.994,83.924v.308l-33.042,33.042H278.607l38.307-38.307h5.123A4.957,4.957,0,0,1,326.994,83.924Z" transform="translate(-220.847 -78.967)" fill="#ffcd38"/>
      <path id="Path_26889" data-name="Path 26889" d="M177.935,78.967l-38.307,38.307H124.284l38.307-38.307Z" transform="translate(-98.518 -78.967)" fill="#ffcd38"/>
      <path id="Path_26890" data-name="Path 26890" d="M47.424,78.967,9.117,117.274H4.956A4.957,4.957,0,0,1,0,112.318v-1.271L32.079,78.967Z" transform="translate(0 -78.967)" fill="#ffcd38"/>
      <path id="Path_26891" data-name="Path 26891" d="M15.43,78.967,0,94.4V83.924a4.957,4.957,0,0,1,4.956-4.956H15.43Z" transform="translate(0 -78.967)" fill="#ffcd38"/>
    </g>
    <g id="Group_14693" data-name="Group 14693" transform="translate(4.957 87.817)">
      <rect id="Rectangle_17925" data-name="Rectangle 17925" width="11.95" height="6.448" fill="#bab8b9"/>
      <rect id="Rectangle_17926" data-name="Rectangle 17926" width="11.95" height="6.448" transform="translate(84.283)" fill="#bab8b9"/>
    </g>
  </g>
</svg>
