<svg xmlns="http://www.w3.org/2000/svg" width="15.923" height="15.923" viewBox="0 0 15.923 15.923">
  <path id="user_1_" data-name="user (1)" d="M13.591,2.332a7.962,7.962,0,0,0-11.26,11.26,7.962,7.962,0,0,0,11.26-11.26ZM3.455,13.351A4.555,4.555,0,0,1,7.962,9.343a4.538,4.538,0,0,1,4.506,4.008,7.014,7.014,0,0,1-9.013,0ZM7.962,8.382A2.418,2.418,0,1,1,10.38,5.964,2.421,2.421,0,0,1,7.962,8.382Zm5.309,4.181A5.485,5.485,0,0,0,9.838,8.739a3.351,3.351,0,1,0-3.751,0,5.48,5.48,0,0,0-3.435,3.822,7.029,7.029,0,1,1,10.619,0Zm0,0"/>
</svg>
