<svg xmlns="http://www.w3.org/2000/svg" width="14.308" height="19.077" viewBox="0 0 14.308 19.077">
  <g id="padlock" transform="translate(-5 -1)">
    <path id="Path_27107" data-name="Path 27107" d="M12.154,1A5.343,5.343,0,0,0,6.788,6.365V8.75A1.757,1.757,0,0,0,5,10.539v7.75a1.757,1.757,0,0,0,1.788,1.788H17.519a1.757,1.757,0,0,0,1.788-1.788v-7.75A1.757,1.757,0,0,0,17.519,8.75V6.365A5.343,5.343,0,0,0,12.154,1Zm5.962,9.539v7.75a.563.563,0,0,1-.6.6H6.788a.563.563,0,0,1-.6-.6v-7.75a.563.563,0,0,1,.6-.6H17.519A.563.563,0,0,1,18.116,10.539ZM7.981,8.75V6.365a4.173,4.173,0,1,1,8.346,0V8.75Z"/>
    <path id="Path_27108" data-name="Path 27108" d="M15.788,19A1.757,1.757,0,0,0,14,20.788a1.737,1.737,0,0,0,1.192,1.669v1.312a.6.6,0,1,0,1.192,0V22.458a1.737,1.737,0,0,0,1.192-1.669A1.757,1.757,0,0,0,15.788,19Zm0,2.385a.6.6,0,1,1,.6-.6A.563.563,0,0,1,15.788,21.385Z" transform="translate(-3.635 -7.269)"/>
  </g>
</svg>
