<svg xmlns="http://www.w3.org/2000/svg" width="14.863" height="15.362" viewBox="0 0 14.863 15.362">
  <g id="Group_15256" data-name="Group 15256" transform="translate(-114.23 -48.124)">
    <g id="Calque_2" data-name="Calque 2" transform="translate(114.231 48.124)">
      <path id="Path_390" data-name="Path 390" d="M407.912,102.917c-.075-.11-.088-.137-.134-.2a.365.365,0,0,0,.092-.724.687.687,0,0,0-.775.729,1.02,1.02,0,0,0,.212.607.719.719,0,0,1,.153.487c0,.285-.108.5-1.517.735-.964.157-3.223.967-3.223,1.819a.385.385,0,0,0,.36.394.334.334,0,0,0,.36-.334,5.333,5.333,0,0,1,2.623-1.156c.9-.147,2.129-.349,2.129-1.454A1.441,1.441,0,0,0,407.912,102.917Z" transform="translate(-394.42 -91.399)"/>
      <path id="Path_391" data-name="Path 391" d="M365.073,34.691a12.443,12.443,0,0,0-1.55-2.929,7.718,7.718,0,0,0,.134-1.542c0-1.364-2-4.79-6.724-4.79-4.638,0-6.724,3.175-6.724,5.43,0,1.594,1.044,3.228,1.882,4.539a5.611,5.611,0,0,1,.95,1.848c0,.813-1.466,2.425-2.029,2.977a.3.3,0,0,0,.017.453.383.383,0,0,0,.5-.015c.227-.222,2.218-2.2,2.218-3.411a5.221,5.221,0,0,0-1.043-2.167c-.8-1.247-1.78-2.8-1.78-4.221,0-1.564,1.471-4.79,6.017-4.79,4.5-.006,6.014,3.267,6.014,4.146a6.574,6.574,0,0,1-.144,1.521.3.3,0,0,0,.037.238,16.675,16.675,0,0,1,1.522,2.708,1.51,1.51,0,0,1-.781.331.354.354,0,0,0-.234.153.293.293,0,0,0-.029.26l.277.769-.2.18a.3.3,0,0,0-.111.317.339.339,0,0,0,.26.235.378.378,0,0,0,.351-.1l.354-.32a.3.3,0,0,0,.086-.327l-.236-.639C364.517,35.419,365.073,35.159,365.073,34.691Z" transform="translate(-350.21 -25.43)"/>
      <path id="Path_392" data-name="Path 392" d="M374.9,56.239l-2.081-2.083V53l.622-.624a.365.365,0,0,0-.515-.515l-.729.729a.367.367,0,0,0-.107.258V54.31a.367.367,0,0,0,.107.258l2.081,2.076v7.874a.365.365,0,0,0,.729,0V56.5A.365.365,0,0,0,374.9,56.239Z" transform="translate(-368.576 -49.558)"/>
      <path id="Path_393" data-name="Path 393" d="M386.936,61.067h-4.953l-.624-.622a.365.365,0,1,0-.515.515l.729.729a.367.367,0,0,0,.258.107h5.1a.365.365,0,0,0,0-.729Z" transform="translate(-375.897 -55.291)"/>
      <path id="Path_394" data-name="Path 394" d="M401.994,51.779a.365.365,0,0,0-.515,0l-.622.615h-2.038a.365.365,0,0,0,0,.729h2.188a.365.365,0,0,0,.258-.107l.729-.729A.365.365,0,0,0,401.994,51.779Z" transform="translate(-390.743 -47.889)"/>
      <path id="Path_395" data-name="Path 395" d="M393.22,43.028a.365.365,0,0,0-.515,0l-.62.624h-1.307a.365.365,0,0,0-.258.107l-.729.729a.365.365,0,0,0,.515.515l.612-.622h1.307a.365.365,0,0,0,.258-.107l.729-.729a.365.365,0,0,0,.009-.517Z" transform="translate(-383.372 -40.419)"/>
      <path id="Path_396" data-name="Path 396" d="M367.626,39.266l-.729-.625a.4.4,0,0,0-.258-.092h-1.459a.4.4,0,0,0-.258.092l-1.454,1.251a.293.293,0,0,0-.107.222v3.127a.292.292,0,0,0,.107.22l2.083,1.786v6.126a.373.373,0,0,0,.729,0V45.119a.293.293,0,0,0-.107-.22l-2.086-1.786v-2.87l1.246-1.068h1.157l.624.533a.4.4,0,0,0,.362.1.343.343,0,0,0,.268-.23.287.287,0,0,0-.115-.31Z" transform="translate(-361.167 -36.362)"/>
      <path id="Path_397" data-name="Path 397" d="M374.99,49.49a.729.729,0,1,0,.727.729A.729.729,0,0,0,374.99,49.49Z" transform="translate(-370.382 -46.022)"/>
      <path id="Path_398" data-name="Path 398" d="M397.575,73.658a.365.365,0,0,0-.515,0l-.623.624h-1.157l-.624-.622a.365.365,0,0,0-.515.515l.735.729a.367.367,0,0,0,.259.107h1.459a.365.365,0,0,0,.259-.107l.729-.729a.365.365,0,0,0-.005-.517Z" transform="translate(-387.025 -66.615)"/>
      <path id="Path_399" data-name="Path 399" d="M395.337,91.3l-.624-.624V88.065l.622-.624a.365.365,0,0,0-.51-.515l-.729.729a.366.366,0,0,0-.107.258v2.918a.366.366,0,0,0,.107.258l.729.729a.365.365,0,0,0,.517-.515Z" transform="translate(-386.93 -78.787)"/>
      <path id="Path_400" data-name="Path 400" d="M406.236,78.028a.365.365,0,0,0-.515,0L402.8,80.947a.367.367,0,0,0-.107.258v1.459a.365.365,0,1,0,.729,0V81.355l2.811-2.811A.365.365,0,0,0,406.236,78.028Z" transform="translate(-394.285 -70.706)"/>
      <path id="Path_401" data-name="Path 401" d="M396.879,110.73a.729.729,0,1,0,.729.729A.729.729,0,0,0,396.879,110.73Z" transform="translate(-388.742 -98.686)"/>
      <path id="Path_402" data-name="Path 402" d="M412.811,95.528a.365.365,0,0,0-.515,0l-.729.729a.367.367,0,0,0-.107.258v1.459a.365.365,0,0,0,.729,0V96.667l.622-.624A.365.365,0,0,0,412.811,95.528Z" transform="translate(-401.583 -85.487)"/>
      <path id="Path_403" data-name="Path 403" d="M405.629,40.74a.729.729,0,1,0,.729.729A.729.729,0,0,0,405.629,40.74Z" transform="translate(-396.081 -38.187)"/>
    </g>
  </g>
</svg>
