<svg xmlns="http://www.w3.org/2000/svg" width="15.482" height="17.029" viewBox="0 0 15.482 17.029">
  <g id="Notification" transform="translate(-4 -2)">
    <path id="Path_27111" data-name="Path 27111" d="M18.062,19.159H5.419A1.419,1.419,0,0,1,4.568,16.6l.637-.478a1.156,1.156,0,0,0,.449-.74l.8-4.855a5.349,5.349,0,0,1,10.574,0l.8,4.851a1.156,1.156,0,0,0,.449.74l.638.478a1.419,1.419,0,0,1-.851,2.554ZM11.741,6.774a4.55,4.55,0,0,0-4.523,3.879l-.8,4.859a1.927,1.927,0,0,1-.748,1.234l-.638.478a.645.645,0,0,0,.387,1.161H18.062a.645.645,0,0,0,.387-1.161l-.638-.478a1.927,1.927,0,0,1-.748-1.234l-.8-4.855a4.551,4.551,0,0,0-4.522-3.883Z" transform="translate(0 -2.451)"/>
    <path id="Path_27112" data-name="Path 27112" d="M22.709,4.462a.387.387,0,0,1-.387-.387V3.548a.774.774,0,0,0-1.548,0v.526a.387.387,0,1,1-.774,0V3.548a1.548,1.548,0,0,1,3.1,0v.526A.387.387,0,0,1,22.709,4.462Z" transform="translate(-9.808)"/>
    <path id="Path_27113" data-name="Path 27113" d="M19.709,41.1A2.712,2.712,0,0,1,17,38.387a.387.387,0,1,1,.774,0,1.935,1.935,0,0,0,3.87,0,.387.387,0,1,1,.774,0A2.712,2.712,0,0,1,19.709,41.1Z" transform="translate(-7.969 -22.067)"/>
  </g>
</svg>
