<svg xmlns="http://www.w3.org/2000/svg" width="16.805" height="19.511" viewBox="0 0 16.805 19.511">
  <g id="refresh" transform="translate(-5.3 -1)">
    <g id="Group_15259" data-name="Group 15259" transform="translate(5.3 3.706)">
      <g id="Group_15258" data-name="Group 15258" transform="translate(0 0)">
        <g id="Group_15257" data-name="Group 15257">
          <path id="Path_27109" data-name="Path 27109" d="M13.7,26.405A8.421,8.421,0,0,1,5.3,18a.629.629,0,0,1,1.259,0A7.144,7.144,0,1,0,13.7,10.859a.629.629,0,1,1,0-1.259,8.4,8.4,0,0,1,0,16.805Z" transform="translate(-5.3 -9.6)"/>
        </g>
      </g>
    </g>
    <g id="Group_15262" data-name="Group 15262" transform="translate(11.563 1)">
      <g id="Group_15261" data-name="Group 15261">
        <g id="Group_15260" data-name="Group 15260">
          <path id="Path_27110" data-name="Path 27110" d="M28.6,7.8a.621.621,0,0,1-.441-.189L25.389,4.839a.608.608,0,0,1,0-.881l2.769-2.769a.608.608,0,0,1,.881,0,.608.608,0,0,1,0,.881L26.711,4.4l2.329,2.329a.608.608,0,0,1,0,.881A.528.528,0,0,1,28.6,7.8Z" transform="translate(-25.2 -1)"/>
        </g>
      </g>
    </g>
  </g>
</svg>
