<svg xmlns="http://www.w3.org/2000/svg" width="20.587" height="22.458" viewBox="0 0 20.587 22.458">
  <g id="Group_18371" data-name="Group 18371" transform="translate(-12.209 -4.701)">
    <g id="bell" transform="translate(12.209 4.701)">
      <path id="Path_28773" data-name="Path 28773" d="M358.9,25.476a.936.936,0,0,1-.936-.936,9.764,9.764,0,0,0-2.878-6.948.936.936,0,0,1,1.323-1.323,11.62,11.62,0,0,1,3.426,8.271A.936.936,0,0,1,358.9,25.476Zm0,0" transform="translate(-339.248 -15.294)" fill="#005eff"/>
      <path id="Path_28774" data-name="Path 28774" d="M.936,25.476A.936.936,0,0,1,0,24.541a11.621,11.621,0,0,1,3.426-8.271.936.936,0,0,1,1.323,1.323,9.762,9.762,0,0,0-2.877,6.948A.936.936,0,0,1,.936,25.476Zm0,0" transform="translate(0 -15.294)" fill="#005eff"/>
      <path id="Path_28775" data-name="Path 28775" d="M39.466,15.827a6.268,6.268,0,0,1-2.226-4.8V8.422a6.556,6.556,0,0,0-5.615-6.475V.936a.936.936,0,0,0-1.872,0V1.946a6.555,6.555,0,0,0-5.615,6.475v2.609a6.275,6.275,0,0,1-2.235,4.8,1.637,1.637,0,0,0,1.065,2.881H38.41a1.638,1.638,0,0,0,1.057-2.889Zm0,0" transform="translate(-20.396)" fill="#005eff"/>
      <path id="Path_28776" data-name="Path 28776" d="M159.727,450.807A3.515,3.515,0,0,0,163.165,448h-6.876A3.515,3.515,0,0,0,159.727,450.807Zm0,0" transform="translate(-149.434 -428.349)" fill="#005eff"/>
    </g>
  </g>
</svg>
