<svg xmlns="http://www.w3.org/2000/svg" xmlns:xlink="http://www.w3.org/1999/xlink" width="428" height="170" viewBox="0 0 428 170"><defs><style>.a{fill:#fff;}.b{fill:url(#a);}.c{clip-path:url(#b);}.d{fill:url(#c);}.e{fill:#636363;}.ag,.e,.f,.h,.i,.k{mix-blend-mode:overlay;}.aa,.ac,.ag,.ah,.e,.f,.g,.h,.i,.k,.l,.m,.o,.q,.r,.u,.w,.x{isolation:isolate;}.f{opacity:0.45;}.g{opacity:0.57;mix-blend-mode:lighten;}.h,.n,.o,.r{opacity:0.54;}.j{fill:#4a4a4a;}.k{opacity:0.32;fill:url(#e);}.l{opacity:0.41;fill:url(#f);}.ah,.l,.m,.q,.w{mix-blend-mode:multiply;}.m{opacity:0.72;fill:url(#g);}.o,.r,.u{mix-blend-mode:color-burn;}.o{fill:url(#h);}.p{fill:url(#i);}.q{opacity:0.36;}.r{fill:url(#j);}.s{fill:url(#k);}.t{opacity:0.7;}.u{fill:url(#l);}.v{fill:url(#m);}.w,.x{opacity:0.43;}.w{fill:url(#n);}.ac,.x{mix-blend-mode:color-dodge;}.y{fill:url(#o);}.z{fill:url(#p);}.aa{mix-blend-mode:screen;}.ab{fill:url(#q);}.ad{fill:url(#r);}.ae{opacity:0.25;}.ae,.af{fill:url(#s);}.af{opacity:0.6;}.ag{filter:url(#w);}.ah{filter:url(#t);}</style><linearGradient id="a" x1="1" x2="0" y2="1" gradientUnits="objectBoundingBox"><stop offset="0" stop-color="#f8cb96"/><stop offset="1" stop-color="#ed911e"/></linearGradient><clipPath id="b"><path class="a" d="M558.936,11.876c0,34.236.016,107.047.016,148.619C500,173.711,424.81,181.869,342.128,181.869c-79.494,0-153.252-9.061-211.171-21.374,0-37.216-.006-125.413-.006-148.626C187.243,11.869,497.056,11.876,558.936,11.876Z" transform="translate(-130.953 -11.878)"/></clipPath><linearGradient id="c" y1="0.5" x2="1" y2="0.5" gradientUnits="objectBoundingBox"><stop offset="0" stop-color="#ff8a00"/><stop offset="1" stop-color="#ffbc00"/></linearGradient><radialGradient id="e" cx="0.5" cy="0.5" r="0.5" gradientTransform="matrix(0.867, -0.498, 0.498, 0.867, -0.183, 0.314)" gradientUnits="objectBoundingBox"><stop offset="0.198" stop-color="#4d4d4d"/><stop offset="0.581" stop-color="#a9a9a9"/><stop offset="0.866" stop-color="#e6e6e6"/><stop offset="1" stop-color="#fff"/></radialGradient><linearGradient id="f" x1="0.545" y1="0.893" x2="0.545" y2="0.059" xlink:href="#c"/><linearGradient id="g" x1="0.595" y1="0.863" x2="0.595" y2="0.029" xlink:href="#c"/><radialGradient id="h" cx="0.5" cy="0.5" gradientTransform="translate(0)" xlink:href="#e"/><linearGradient id="i" x1="-8.916" y1="3.983" x2="-8.916" y2="3.149" xlink:href="#c"/><radialGradient id="j" cx="0.5" cy="0.5" gradientTransform="matrix(-0.885, -0.466, 0.466, -0.885, -6.021, 22.56)" xlink:href="#e"/><linearGradient id="k" x1="5.995" y1="8.783" x2="5.995" y2="7.949" xlink:href="#c"/><radialGradient id="l" cx="0.5" cy="0.5" gradientTransform="matrix(0.707, 0.707, -0.707, 0.707, 0.5, -0.207)" xlink:href="#e"/><linearGradient id="m" x1="0.5" y1="0.887" x2="0.5" y2="0.053" xlink:href="#c"/><linearGradient id="n" x1="0.127" y1="1.055" x2="0.127" y2="0.221" xlink:href="#c"/><linearGradient id="o" x1="-57.106" y1="0.5" x2="58.106" y2="0.5" gradientUnits="objectBoundingBox"><stop offset="0"/><stop offset="0.109" stop-color="#050505"/><stop offset="0.252" stop-color="#161616"/><stop offset="0.414" stop-color="#313131"/><stop offset="0.59" stop-color="#575757"/><stop offset="0.777" stop-color="#888"/><stop offset="0.972" stop-color="#c2c2c2"/><stop offset="1" stop-color="#ccc"/></linearGradient><linearGradient id="p" x1="-33.307" y1="0.5" x2="34.307" y2="0.5" xlink:href="#o"/><linearGradient id="q" y1="0.5" x2="1" y2="0.5" gradientUnits="objectBoundingBox"><stop offset="0" stop-color="#ccc"/><stop offset="0.028" stop-color="#c2c2c2"/><stop offset="0.223" stop-color="#888"/><stop offset="0.41" stop-color="#575757"/><stop offset="0.586" stop-color="#313131"/><stop offset="0.748" stop-color="#161616"/><stop offset="0.891" stop-color="#050505"/><stop offset="1"/></linearGradient><linearGradient id="r" x1="-7.791" y1="0.5" x2="8.791" y2="0.5" xlink:href="#q"/><linearGradient id="s" x1="0.984" y1="0.016" x2="0" y2="0.979" gradientUnits="objectBoundingBox"><stop offset="0" stop-color="#ffa62e"/><stop offset="1" stop-color="#ea4d2c"/></linearGradient><filter id="t" x="-44.999" y="-44.991" width="518" height="261.573" filterUnits="userSpaceOnUse"><feOffset input="SourceAlpha"/><feGaussianBlur stdDeviation="15" result="u"/><feFlood flood-color="#a8a8a8" flood-opacity="0.302"/><feComposite operator="in" in2="u"/><feComposite in="SourceGraphic"/></filter><filter id="w" x="96.001" y="418.009" width="270" height="304.859" filterUnits="userSpaceOnUse"><feOffset input="SourceAlpha"/><feGaussianBlur stdDeviation="15" result="x"/><feFlood flood-color="#a8a8a8" flood-opacity="0.302"/><feComposite operator="in" in2="x"/><feComposite in="SourceGraphic"/></filter></defs><g transform="translate(0.001 0.009)"><path class="b" d="M558.936,11.876c0,34.236.016,107.047.016,148.619C500,173.711,424.81,181.869,342.128,181.869c-79.494,0-153.252-9.061-211.171-21.374,0-37.216-.006-125.413-.006-148.626C187.243,11.869,497.056,11.876,558.936,11.876Z" transform="translate(-130.953 -11.878)"/><g class="c"><g transform="translate(52.092 -103.551)"><path class="d" d="M191.562,134.453c-6.027-6.222-15.057-7.313-23.807-.5-7.543,5.869-11.734,12.7-23.8,12.788-46.116.355-43.006,30.7-31.964,48.59,15.849,25.674,10.148,34.465,9.682,51.851-.326,12.158.527,22.048,9.309,31.987,13.153,14.883,32.549,13.449,45.407,2.72,6.313-5.267,12.417-12.01,16.4-15.846,10.7-10.3,16.074-12.274,32.989-20.853,32.663-17.265,31.292-47.974,3.967-59.089-23.394-9.513-25.094-9.915-29.211-28.8C198.8,149.362,198.455,141.572,191.562,134.453Z" transform="translate(-204.777 -11.866)"/><path class="d" d="M290.736,161.53c15.475,31.5,51.927,12.174,49.1-24.6-1.174-15.267-5.342-26.512,4.8-39.68,2.514-3.266,4.7-6.786,7.037-10.187,4.324-6.288,4.362-17.766-2.326-26.085C339.666,48.928,327.479,39,314.835,30.1c-16.536-11.635-35.983-15.045-46.991,2.649-6.419,10.32-7.433,20.775-19.371,24.072-6.98,1.927-11.778,3.4-16.628,9.6-8.681,11.1-8.035,7-15.514,11.222-17.973,10.156-12.239,34.9,5.953,45.295,12.12,6.926,24.974,4.135,32.242,3.9C280.783,125.987,278.178,135.965,290.736,161.53Z" transform="translate(0.01 48.638)"/><path class="e" d="M200.875,33.148c-2.9,15.324,6.351,30.125,19.14,37.805,14.467,8.686,26.934,12.205,29.949,29.185.976,5.49,2.582,13.238,5.1,18.252,9.272,18.432,30.8,12.955,46.966,12.566,15.174-.363,25.06,8.248,40.35,20.655.1.079,32.062,40.762,46.744.415,2.721-7.476,3.374-13.61,4.539-17.71,4.583-16.127,19.3-15.579,41.59-25.071,28.21-12.014,37.313-44.891,7.057-55.891-11.628-4.228-21.688-4.828-32.841-10.3-22.79-11.177-20.467-34.125-40.246-44.02-7.082-4.406-17.731-5.413-24.975-4.254-27.893,4.463-38.739,15.491-58.909,9.447-6.854-2.054-15.393-5.975-25.6-7.559C233.451-7.412,205.439,9.042,200.875,33.148Z" transform="translate(-0.624 45.366)"/><path class="e" d="M91.128,214.006c-2.9,15.325,6.351,30.126,19.14,37.806C124.735,260.5,137.2,264.017,140.216,281c.976,5.49,2.582,13.238,5.1,18.252,9.272,18.432,30.8,12.955,46.966,12.566,15.174-.365,25.06,8.248,40.35,20.655.1.079,32.063,40.76,46.744.415,2.721-7.477,3.374-13.611,4.539-17.71,4.583-16.127,19.3-15.579,41.59-25.071,28.21-12.015,37.313-44.891,7.058-55.89-11.628-4.228-21.688-4.828-32.841-10.3-22.79-11.177-20.467-34.124-40.246-44.02-7.082-4.4-17.731-5.413-24.975-4.254-27.894,4.465-38.739,15.491-58.909,9.448-6.854-2.054-15.393-5.976-25.6-7.561C123.7,173.447,95.692,189.9,91.128,214.006Z" transform="translate(-206.592 -6.109)"/><g class="f" transform="translate(78.091 94.61)"><path class="a" d="M356.174,94.156l-.183.174a36.352,36.352,0,0,1-39.473,6.292,74.279,74.279,0,0,1-6.776-3.805c-4.384-2.666-8.917-5.423-14.029-5.951-3.763-.388-7.554.477-11.22,1.313a40.423,40.423,0,0,1-9.964,1.419c-6.825-.181-12.969-3.789-18.913-7.279-6.171-3.624-12.552-7.37-19.618-7.178-10.833.3-19.143,9.623-25.171,17.716l-.7.944c-6.327,8.509-12.869,17.31-22.882,19.869a21.9,21.9,0,0,1-26.266-27.933l.264.086A21.62,21.62,0,0,0,187.171,117.4c9.918-2.536,16.431-11.295,22.729-19.767l.7-.944c6.066-8.142,14.434-17.528,25.387-17.828,7.145-.195,13.561,3.573,19.766,7.216,5.912,3.472,12.026,7.062,18.779,7.241a40.276,40.276,0,0,0,9.9-1.411c3.687-.842,7.5-1.713,11.31-1.319,5.175.535,9.735,3.308,14.145,5.989a73.928,73.928,0,0,0,6.749,3.79A35.876,35.876,0,0,0,355.8,94.129c5.007-4.722,7.682-10.445,7.368-15.705l.277-.017C363.761,83.684,361.113,89.412,356.174,94.156Z" transform="translate(-159.98 -78.407)"/></g><g class="g" transform="translate(224.681 125.649)"><path class="a" d="M371.758,209.112H371.5A36.351,36.351,0,0,1,338.68,186.3a74.339,74.339,0,0,1-2.251-7.438c-1.315-4.96-2.674-10.087-6-14.01-2.446-2.888-5.779-4.889-9-6.826a40.415,40.415,0,0,1-8.169-5.879c-4.8-4.858-6.729-11.718-8.6-18.352-1.94-6.888-3.946-14.009-9.177-18.766-8.018-7.292-20.471-6.32-30.426-4.66l-1.16.195c-10.457,1.755-21.272,3.569-30.267-1.522a21.9,21.9,0,0,1,.407-38.341l.132.244a21.621,21.621,0,0,0-.4,37.855c8.91,5.042,19.675,3.237,30.085,1.489l1.161-.194c10.015-1.671,22.551-2.644,30.659,4.729,5.288,4.809,7.305,11.971,9.257,18.9,1.858,6.6,3.78,13.425,8.527,18.232a40.269,40.269,0,0,0,8.114,5.838c3.242,1.947,6.6,3.961,9.071,6.884,3.362,3.969,4.729,9.129,6.051,14.118a74.421,74.421,0,0,0,2.242,7.41,35.88,35.88,0,0,0,32.569,22.629c6.882.062,12.777-2.211,16.194-6.224l.212.181C384.484,206.815,378.606,209.112,371.758,209.112Z" transform="translate(-222.523 -70.705)"/></g><g class="h" transform="translate(-82.191 185.184)"><path class="a" d="M240.47,266c-6.1-2.258-7.449-10.033-7.746-13.271-.125-1.361-.189-2.762-.25-4.116-.179-3.963-.365-8.059-2.11-11.622-3.308-6.75-11.277-9.542-15.731-10.606-2.671-.638-5.439-1.058-8.117-1.464a71.124,71.124,0,0,1-11.243-2.335,36.134,36.134,0,0,1-22.574-22.1c-.641-1.847-1.149-3.8-1.64-5.682-1.127-4.328-2.29-8.8-5.153-12.241-5.26-6.317-14.259-7.3-23.025-7.759-4.558-.241-9.272-.488-13.793.6-5.019,1.2-8.982,4.027-10.873,7.742l-.248-.126c1.927-3.788,5.957-6.662,11.056-7.887,4.559-1.094,9.294-.844,13.872-.6,8.828.466,17.892,1.456,23.223,7.859,2.9,3.485,4.075,7.992,5.21,12.348.49,1.881.995,3.825,1.633,5.662a35.852,35.852,0,0,0,22.4,21.925,70.836,70.836,0,0,0,11.2,2.325c2.683.406,5.458.828,8.139,1.468,7.776,1.857,13.427,5.676,15.917,10.755,1.771,3.615,1.957,7.742,2.138,11.731.061,1.352.124,2.751.249,4.1.291,3.186,1.615,10.833,7.566,13.036Z" transform="translate(-117.968 -174.321)"/></g><g class="i" transform="translate(-106.375 166.203)"><path class="j" d="M154.107,282.559a54.931,54.931,0,1,1,38.874-16.089A54.609,54.609,0,0,1,154.107,282.559Zm0-109.647A54.685,54.685,0,1,0,208.792,227.6,54.746,54.746,0,0,0,154.107,172.912Z" transform="translate(-99.145 -172.634)"/><g transform="translate(6.853 6.853)"><path class="j" d="M153.343,274.943a48.11,48.11,0,1,1,48.111-48.109A48.164,48.164,0,0,1,153.343,274.943Zm0-95.942a47.832,47.832,0,1,0,47.833,47.833A47.886,47.886,0,0,0,153.343,179Z" transform="translate(-105.234 -178.723)"/></g><g transform="translate(13.705 13.705)"><path class="j" d="M152.58,267.327a41.257,41.257,0,1,1,41.258-41.257A41.3,41.3,0,0,1,152.58,267.327Zm0-82.237a40.979,40.979,0,1,0,40.98,40.98A41.026,41.026,0,0,0,152.58,185.09Z" transform="translate(-111.323 -184.812)"/></g><g transform="translate(20.559 20.559)"><path class="j" d="M151.816,259.709a34.4,34.4,0,1,1,34.4-34.4A34.442,34.442,0,0,1,151.816,259.709Zm0-68.529a34.126,34.126,0,1,0,34.126,34.126A34.164,34.164,0,0,0,151.816,191.18Z" transform="translate(-117.413 -190.902)"/></g><g transform="translate(27.412 27.412)"><path class="j" d="M151.052,252.093a27.551,27.551,0,1,1,27.551-27.55A27.582,27.582,0,0,1,151.052,252.093Zm0-54.824a27.273,27.273,0,1,0,27.273,27.273A27.3,27.3,0,0,0,151.052,197.269Z" transform="translate(-123.502 -196.991)"/></g></g><g class="i" transform="translate(285.789 74.744)"><g transform="translate(0 0)"><path class="j" d="M331.784,135.4a54.929,54.929,0,1,1,38.873-16.088A54.613,54.613,0,0,1,331.784,135.4Zm0-109.647a54.685,54.685,0,1,0,54.684,54.685A54.747,54.747,0,0,0,331.784,25.751Z" transform="translate(-276.821 -25.473)"/></g><g transform="translate(6.853 6.853)"><path class="j" d="M331.021,127.782A48.11,48.11,0,1,1,379.13,79.673,48.165,48.165,0,0,1,331.021,127.782Zm0-95.942a47.832,47.832,0,1,0,47.831,47.833A47.886,47.886,0,0,0,331.021,31.84Z" transform="translate(-282.91 -31.562)"/></g><g transform="translate(13.705 13.706)"><path class="j" d="M330.257,120.165a41.257,41.257,0,1,1,41.257-41.257A41.3,41.3,0,0,1,330.257,120.165Zm0-82.235a40.979,40.979,0,1,0,40.979,40.979A41.026,41.026,0,0,0,330.257,37.93Z" transform="translate(-288.999 -37.652)"/></g><g transform="translate(20.559 20.559)"><path class="j" d="M329.493,112.549a34.4,34.4,0,1,1,34.4-34.4A34.443,34.443,0,0,1,329.493,112.549Zm0-68.53a34.126,34.126,0,1,0,34.125,34.126A34.164,34.164,0,0,0,329.493,44.019Z" transform="translate(-295.089 -43.741)"/></g><g transform="translate(27.412 27.412)"><path class="j" d="M328.729,104.932a27.551,27.551,0,1,1,27.55-27.55A27.582,27.582,0,0,1,328.729,104.932Zm0-54.824A27.273,27.273,0,1,0,356,77.381,27.3,27.3,0,0,0,328.729,50.108Z" transform="translate(-301.178 -49.83)"/></g></g><g transform="translate(250.507 231.013)"><ellipse class="k" cx="20.165" cy="20.165" rx="20.165" ry="20.165" transform="translate(2.781 5.046)"/><ellipse class="l" cx="15.355" cy="15.355" rx="15.355" ry="15.355" transform="translate(1.566 16.687) rotate(-29.862)"/><ellipse class="m" cx="14.736" cy="14.736" rx="14.736" ry="14.736" transform="translate(0 14.686) rotate(-29.862)"/></g><g class="n" transform="translate(184.727 136.689)"><g transform="translate(2.7 4.229)"><ellipse class="o" cx="6.144" cy="6.144" rx="6.144" ry="6.144" transform="translate(0 0.118)"/><ellipse class="p" cx="4.49" cy="4.49" rx="4.49" ry="4.49" transform="translate(1.678)"/></g><g class="q" transform="translate(0 0)"><ellipse class="r" cx="6.144" cy="6.144" rx="6.144" ry="6.144" transform="translate(0.766)"/><ellipse class="s" cx="4.49" cy="4.49" rx="4.49" ry="4.49" transform="translate(0 9.585) rotate(-62.252)"/></g></g><g class="t" transform="translate(88.94 127.124)"><circle class="u" cx="12.761" cy="12.761" r="12.761" transform="translate(0 18.058) rotate(-45)"/><ellipse class="v" cx="9.325" cy="9.325" rx="9.325" ry="9.325" transform="translate(8.77 5.052)"/><ellipse class="w" cx="9.325" cy="9.325" rx="9.325" ry="9.325" transform="translate(10.038 5.635) rotate(-14.271)"/></g><g class="x" transform="translate(66.858 193.773)"><rect class="y" width="0.556" height="88.683" transform="translate(0 0.42) rotate(-45.864)"/></g><g class="x" transform="translate(134.79 222.058)"><rect class="z" width="0.556" height="52.58" transform="translate(0 0.405) rotate(-45)"/></g><g class="aa" transform="translate(303.059 119.87)"><path class="ab" d="M322.421,96.462l-30.254-30.65.239-.242L322.66,96.22Z" transform="translate(-292.167 -65.57)"/></g><g class="ac" transform="translate(214.671 181.268)"><rect class="ad" width="0.556" height="12.477" transform="translate(0 0.396) rotate(-45)"/></g></g><g class="ah" transform="matrix(1, 0, 0, 1, 0, -0.01)"><rect class="ae" width="428" height="171.573" transform="translate(0 0.01)"/></g><g class="ag" transform="matrix(1, 0, 0, 1, 0, -0.01)"><rect class="af" width="180" height="214.859" rx="10" transform="translate(141 463.01)"/></g></g></g></svg>