<svg id="cross_searchbar" xmlns="http://www.w3.org/2000/svg" width="16.514" height="16.514" viewBox="0 0 16.514 16.514">
  <path id="Path_24408" data-name="Path 24408" d="M8.257,0A8.257,8.257,0,1,1,0,8.257,8.257,8.257,0,0,1,8.257,0Z" fill="#707070"/>
  <path id="Path_24406" data-name="Path 24406" d="M64.484,56.229a8.281,8.281,0,0,1-8.257,8.257,8.125,8.125,0,0,1-6.45-3.1,8.146,8.146,0,0,0,5.16,1.806,8.281,8.281,0,0,0,8.257-8.257,8.146,8.146,0,0,0-1.806-5.16A8.124,8.124,0,0,1,64.484,56.229Z" transform="translate(-47.971 -47.973)" fill="#707070"/>
  <path id="Path_24407" data-name="Path 24407" d="M125.1,125.1a.81.81,0,0,1-1.135,0l-2.632-2.632L118.7,125.1a.8.8,0,1,1-1.135-1.135l2.632-2.632-2.632-2.632a.8.8,0,1,1,1.135-1.135l2.632,2.632,2.632-2.632A.8.8,0,1,1,125.1,118.7l-2.632,2.632,2.632,2.632A.81.81,0,0,1,125.1,125.1Z" transform="translate(-113.077 -113.077)" fill="#fff"/>
</svg>
