<svg xmlns="http://www.w3.org/2000/svg" width="18.025" height="15.61" viewBox="0 0 18.025 15.61">
  <g id="heart_1_" data-name="heart (1)" transform="translate(0.5 0.5)">
    <path id="heart_1_2" data-name="heart (1)" d="M15.674,1.43A4.657,4.657,0,0,0,12.269,0,4.384,4.384,0,0,0,9.594.891,5.368,5.368,0,0,0,8.512,1.98,5.365,5.365,0,0,0,7.431.891,4.384,4.384,0,0,0,4.756,0,4.658,4.658,0,0,0,1.35,1.43,5.029,5.029,0,0,0,0,4.935a6,6,0,0,0,1.689,4,35.508,35.508,0,0,0,4.227,3.827c.586.481,1.25,1.027,1.939,1.609a1.027,1.027,0,0,0,1.316,0c.689-.581,1.354-1.127,1.94-1.609a35.492,35.492,0,0,0,4.227-3.827,6,6,0,0,0,1.688-4A5.029,5.029,0,0,0,15.674,1.43Zm0,0" fill="none" stroke="#595d6d" stroke-width="1"/>
  </g>
</svg>
