<svg xmlns="http://www.w3.org/2000/svg" width="19.554" height="17.507" viewBox="0 0 19.554 17.507">
  <path id="heart_1_" data-name="heart (1)" d="M17.082,1.615A4.989,4.989,0,0,0,13.371,0a4.668,4.668,0,0,0-2.915,1.006A5.965,5.965,0,0,0,9.277,2.237,5.961,5.961,0,0,0,8.1,1.006,4.667,4.667,0,0,0,5.183,0,4.99,4.99,0,0,0,1.472,1.615,5.8,5.8,0,0,0,0,5.576,6.906,6.906,0,0,0,1.84,10.1,39.239,39.239,0,0,0,6.447,14.42c.638.544,1.362,1.161,2.113,1.817a1.089,1.089,0,0,0,1.434,0c.751-.657,1.475-1.274,2.114-1.818A39.221,39.221,0,0,0,16.714,10.1a6.905,6.905,0,0,0,1.84-4.521A5.8,5.8,0,0,0,17.082,1.615Zm0,0" transform="translate(0.5 0.5)" fill="#989999" stroke="#999" stroke-width="1"/>
</svg>
