<svg id="search" xmlns="http://www.w3.org/2000/svg" width="18.875" height="18.875" viewBox="0 0 18.875 18.875">
  <g id="Group_11025" data-name="Group 11025" transform="translate(2.251 0)">
    <g id="Group_11024" data-name="Group 11024" transform="translate(0 0)">
      <path id="Path_21021" data-name="Path 21021" d="M8.312,0A8.312,8.312,0,1,1,0,8.312,8.322,8.322,0,0,1,8.312,0Zm0,15.09A6.778,6.778,0,1,0,1.535,8.312,6.785,6.785,0,0,0,8.312,15.09Z" transform="translate(0 0)" fill="rgba(110,108,129,0.67)"/>
    </g>
  </g>
  <g id="Group_11027" data-name="Group 11027" transform="translate(0 12.941)">
    <g id="Group_11026" data-name="Group 11026">
      <path id="Path_21022" data-name="Path 21022" d="M351.271,355.67l4.4-4.4a.767.767,0,0,1,1.085,1.085l-4.4,4.4a.767.767,0,0,1-1.085-1.085Z" transform="translate(-351.046 -351.046)" fill="rgba(110,108,129,0.67)"/>
    </g>
  </g>
</svg>
