<svg id="Calque_1" data-name="Calque 1" xmlns="http://www.w3.org/2000/svg" viewBox="0 0 132.49 121.05"><title>careerdev-locked</title><g id="Groupe_73" data-name="Groupe 73"><g id="Groupe_61" data-name="Groupe 61"><path id="Tracé_278" data-name="Tracé 278" d="M48,2.44v50.4h80.81V2.44A2.34,2.34,0,0,0,126.55,0H50.2A2.34,2.34,0,0,0,48,2.44Z" transform="translate(0 0)" style="fill:#acacac"/><rect id="Rectangle_5" data-name="Rectangle 5" x="43.71" y="52.9" width="88.78" height="2.43" style="fill:#acacac"/><path id="Tracé_279" data-name="Tracé 279" d="M44.8,57.92a.46.46,0,0,0,.43.29H131a.46.46,0,0,0,.43-.29l1.1-2.58H43.71Z" transform="translate(0 0)" style="fill:#acacac"/><path id="Tracé_280" data-name="Tracé 280" d="M80,54.6h15.9a.71.71,0,0,0,.73-.66v-1.1H79.31v1.1A.7.7,0,0,0,80,54.6Z" transform="translate(0 0)" style="fill:#c2c2c2"/><path id="Tracé_281" data-name="Tracé 281" d="M83.85,54.08h8.28c.21,0,.38-.12.38-.27v-.46H83.46v.46C83.46,54,83.63,54.08,83.85,54.08Z" transform="translate(0 0)" style="fill:#acacac"/><path id="Rectangle_6" data-name="Rectangle 6" d="M54.26,2.33h67a4.9,4.9,0,0,1,4.9,4.9h0V52.84H50.6V6A3.66,3.66,0,0,1,54.26,2.33Z" transform="translate(0 0)" style="fill:#e0e0e0"/><g id="Groupe_42" data-name="Groupe 42"><rect id="Rectangle_7" data-name="Rectangle 7" x="94.12" y="20.9" width="3.25" height="9.81" style="fill:#acacac"/><rect id="Rectangle_8" data-name="Rectangle 8" x="98.68" y="17.69" width="3.25" height="13.03" style="fill:#acacac"/><rect id="Rectangle_9" data-name="Rectangle 9" x="103.25" y="20.53" width="3.25" height="10.19" style="fill:#acacac"/><rect id="Rectangle_10" data-name="Rectangle 10" x="107.81" y="11.1" width="3.25" height="19.62" style="fill:#acacac"/><rect id="Rectangle_11" data-name="Rectangle 11" x="112.37" y="14.05" width="3.25" height="16.66" style="fill:#acacac"/><rect id="Rectangle_12" data-name="Rectangle 12" x="116.94" y="6.99" width="3.25" height="23.73" style="fill:#acacac"/></g><g id="Groupe_55" data-name="Groupe 55"><g id="Groupe_54" data-name="Groupe 54"><g id="Groupe_43" data-name="Groupe 43"><path id="Tracé_282" data-name="Tracé 282" d="M90.42,31.05H55.27V12H90.42Zm-35-.14H90.28V12.17H55.41Z" transform="translate(0 0)" style="fill:#acacac"/></g><g id="Groupe_44" data-name="Groupe 44"><rect id="Rectangle_13" data-name="Rectangle 13" x="55.34" y="27.76" width="35.01" height="0.15" style="fill:#acacac"/></g><g id="Groupe_45" data-name="Groupe 45"><rect id="Rectangle_14" data-name="Rectangle 14" x="55.34" y="24.61" width="35.01" height="0.15" style="fill:#acacac"/></g><g id="Groupe_46" data-name="Groupe 46"><rect id="Rectangle_15" data-name="Rectangle 15" x="55.34" y="21.46" width="35.01" height="0.15" style="fill:#acacac"/></g><g id="Groupe_47" data-name="Groupe 47"><rect id="Rectangle_16" data-name="Rectangle 16" x="55.34" y="18.32" width="35.01" height="0.15" style="fill:#acacac"/></g><g id="Groupe_48" data-name="Groupe 48"><rect id="Rectangle_17" data-name="Rectangle 17" x="55.34" y="15.17" width="35.01" height="0.15" style="fill:#acacac"/></g><g id="Groupe_49" data-name="Groupe 49"><rect id="Rectangle_18" data-name="Rectangle 18" x="84.44" y="12.09" width="0.15" height="18.89" style="fill:#acacac"/></g><g id="Groupe_50" data-name="Groupe 50"><rect id="Rectangle_19" data-name="Rectangle 19" x="78.61" y="12.09" width="0.15" height="18.89" style="fill:#acacac"/></g><g id="Groupe_51" data-name="Groupe 51"><rect id="Rectangle_20" data-name="Rectangle 20" x="72.77" y="12.09" width="0.15" height="18.89" style="fill:#acacac"/></g><g id="Groupe_52" data-name="Groupe 52"><rect id="Rectangle_21" data-name="Rectangle 21" x="66.94" y="12.09" width="0.15" height="18.89" style="fill:#acacac"/></g><g id="Groupe_53" data-name="Groupe 53"><rect id="Rectangle_22" data-name="Rectangle 22" x="61.1" y="12.09" width="0.15" height="18.89" style="fill:#acacac"/></g></g><path id="Tracé_283" data-name="Tracé 283" d="M88.77,15.47l-1.32-.16.18.41L78.69,18.1l-5.88.8-5.36,6.88-5.76-4.45-4.75,6.79.32.3,4.52-6.54,5.77,4.46,5.48-7,5.76-.78h0l9-2.4.18.4Z" transform="translate(0 0)" style="fill:#acacac"/></g><g id="Groupe_56" data-name="Groupe 56"><path id="Tracé_284" data-name="Tracé 284" d="M62,36.51l-.68,1.85a3.88,3.88,0,0,1,2.35,4.94v0l1.86.68a5.84,5.84,0,0,0-3.48-7.49Z" transform="translate(0 0)" style="fill:#acacac"/><path id="Tracé_285" data-name="Tracé 285" d="M57.5,36.7l.84,1.79a3.88,3.88,0,0,1,3-.13L62,36.51A5.93,5.93,0,0,0,57.5,36.7Z" transform="translate(0 0)" style="fill:#acacac"/><path id="Tracé_286" data-name="Tracé 286" d="M54.45,40l1.86.67a3.88,3.88,0,0,1,2-2.18L57.5,36.7A5.89,5.89,0,0,0,54.45,40Z" transform="translate(0 0)" style="fill:#acacac"/><path id="Tracé_287" data-name="Tracé 287" d="M58,47.5l.68-1.85a3.93,3.93,0,0,0,5-2.32l1.86.68A5.91,5.91,0,0,1,58,47.5Z" transform="translate(0 0)" style="fill:#acacac"/><path id="Tracé_288" data-name="Tracé 288" d="M54.64,44.47l1.8-.83a3.9,3.9,0,0,0,2.21,2L58,47.5A5.9,5.9,0,0,1,54.64,44.47Z" transform="translate(0 0)" style="fill:#acacac"/><path id="Tracé_289" data-name="Tracé 289" d="M54.45,40l1.86.67a3.87,3.87,0,0,0,.13,3l-1.8.83A5.78,5.78,0,0,1,54.45,40Z" transform="translate(0 0)" style="fill:#acacac"/></g><g id="Groupe_57" data-name="Groupe 57"><path id="Tracé_290" data-name="Tracé 290" d="M72.85,47.72l.42-1.92a3.88,3.88,0,0,1-3-4.59v0l-1.94-.41a5.84,5.84,0,0,0,4.46,6.94Z" transform="translate(0 0)" style="fill:#acacac"/><path id="Tracé_291" data-name="Tracé 291" d="M77.29,46.92l-1.07-1.65a4,4,0,0,1-3,.53l-.43,1.92A6,6,0,0,0,77.29,46.92Z" transform="translate(0 0)" style="fill:#acacac"/><path id="Tracé_292" data-name="Tracé 292" d="M79.86,43.24l-1.93-.42a3.9,3.9,0,0,1-1.71,2.44l1.07,1.66A5.85,5.85,0,0,0,79.86,43.24Z" transform="translate(0 0)" style="fill:#acacac"/><path id="Tracé_293" data-name="Tracé 293" d="M75.36,36.29l-.42,1.92a3.92,3.92,0,0,0-4.66,3l-1.94-.41A5.91,5.91,0,0,1,75.36,36.29Z" transform="translate(0 0)" style="fill:#acacac"/><path id="Tracé_294" data-name="Tracé 294" d="M79.07,38.83,77.4,39.9a3.9,3.9,0,0,0-2.46-1.69l.42-1.92A5.87,5.87,0,0,1,79.07,38.83Z" transform="translate(0 0)" style="fill:#acacac"/><path id="Tracé_295" data-name="Tracé 295" d="M79.87,43.24l-1.94-.42a3.85,3.85,0,0,0-.53-2.92l1.67-1.07A5.81,5.81,0,0,1,79.87,43.24Z" transform="translate(0 0)" style="fill:#acacac"/></g><g id="Groupe_58" data-name="Groupe 58"><path id="Tracé_296" data-name="Tracé 296" d="M88.08,47.86l0-2A3.89,3.89,0,0,1,84.31,42v0l-2,0a5.85,5.85,0,0,0,5.7,6Z" transform="translate(0 0)" style="fill:#acacac"/><path id="Tracé_297" data-name="Tracé 297" d="M92.29,46.22,90.92,44.8a4,4,0,0,1-2.79,1.08l0,2A5.9,5.9,0,0,0,92.29,46.22Z" transform="translate(0 0)" style="fill:#acacac"/><path id="Tracé_298" data-name="Tracé 298" d="M94.11,42.11l-2,0a3.9,3.9,0,0,1-1.21,2.72l1.37,1.42A5.86,5.86,0,0,0,94.11,42.11Z" transform="translate(0 0)" style="fill:#acacac"/><path id="Tracé_299" data-name="Tracé 299" d="M88.36,36.15l0,2a3.93,3.93,0,0,0-4,3.81l-2,0A5.92,5.92,0,0,1,88.36,36.15Z" transform="translate(0 0)" style="fill:#acacac"/><path id="Tracé_300" data-name="Tracé 300" d="M92.49,37.94l-1.44,1.37a3.92,3.92,0,0,0-2.73-1.19l0-2A5.89,5.89,0,0,1,92.49,37.94Z" transform="translate(0 0)" style="fill:#acacac"/><path id="Tracé_301" data-name="Tracé 301" d="M94.11,42.11l-2,0a3.81,3.81,0,0,0-1.08-2.77l1.44-1.37A5.79,5.79,0,0,1,94.11,42.11Z" transform="translate(0 0)" style="fill:#acacac"/></g><g id="Groupe_59" data-name="Groupe 59"><path id="Tracé_302" data-name="Tracé 302" d="M96.5,41.48l2,.18a3.87,3.87,0,0,1,4.16-3.56h0l.16-2a5.83,5.83,0,0,0-6.32,5.3Z" transform="translate(0 0)" style="fill:#acacac"/><path id="Tracé_303" data-name="Tracé 303" d="M97.86,45.78l1.51-1.26a3.92,3.92,0,0,1-.9-2.86l-2-.18A5.87,5.87,0,0,0,97.86,45.78Z" transform="translate(0 0)" style="fill:#acacac"/><path id="Tracé_304" data-name="Tracé 304" d="M101.84,47.87l.17-2a3.9,3.9,0,0,1-2.64-1.39l-1.51,1.27A5.82,5.82,0,0,0,101.84,47.87Z" transform="translate(0 0)" style="fill:#acacac"/><path id="Tracé_305" data-name="Tracé 305" d="M108.17,42.53l-2-.18a3.92,3.92,0,0,0-3.54-4.24l.17-2A5.92,5.92,0,0,1,108.17,42.53Z" transform="translate(0 0)" style="fill:#acacac"/><path id="Tracé_306" data-name="Tracé 306" d="M106.11,46.52,104.84,45a3.84,3.84,0,0,0,1.36-2.65l2,.18A5.8,5.8,0,0,1,106.11,46.52Z" transform="translate(0 0)" style="fill:#acacac"/><path id="Tracé_307" data-name="Tracé 307" d="M101.84,47.87l.17-2a3.85,3.85,0,0,0,2.83-.9l1.27,1.52A5.77,5.77,0,0,1,101.84,47.87Z" transform="translate(0 0)" style="fill:#acacac"/></g><g id="Groupe_60" data-name="Groupe 60"><path id="Tracé_308" data-name="Tracé 308" d="M122.06,40.33l-1.89.56a3.87,3.87,0,0,1-2.56,4.84h0l.58,1.9a5.83,5.83,0,0,0,3.91-7.27Z" transform="translate(0 0)" style="fill:#acacac"/><path id="Tracé_309" data-name="Tracé 309" d="M119.21,36.83l-.93,1.74a4,4,0,0,1,1.89,2.32l1.89-.56A6,6,0,0,0,119.21,36.83Z" transform="translate(0 0)" style="fill:#acacac"/><path id="Tracé_310" data-name="Tracé 310" d="M114.74,36.37l.58,1.9a3.82,3.82,0,0,1,3,.31l.93-1.74A5.81,5.81,0,0,0,114.74,36.37Z" transform="translate(0 0)" style="fill:#acacac"/><path id="Tracé_311" data-name="Tracé 311" d="M110.84,43.67l1.89-.56a3.91,3.91,0,0,0,4.85,2.63l.58,1.9A5.91,5.91,0,0,1,110.84,43.67Z" transform="translate(0 0)" style="fill:#acacac"/><path id="Tracé_312" data-name="Tracé 312" d="M111.27,39.2l1.74.94a3.88,3.88,0,0,0-.28,3l-1.89.56A5.84,5.84,0,0,1,111.27,39.2Z" transform="translate(0 0)" style="fill:#acacac"/><path id="Tracé_313" data-name="Tracé 313" d="M114.74,36.36l.58,1.9a3.85,3.85,0,0,0-2.3,1.88l-1.74-.94A5.79,5.79,0,0,1,114.74,36.36Z" transform="translate(0 0)" style="fill:#acacac"/></g></g><g id="Groupe_62" data-name="Groupe 62"><path id="Tracé_314" data-name="Tracé 314" d="M50.63,101.54A25.3,25.3,0,0,1,42,119.71a2.2,2.2,0,0,1-3.12.2,1.7,1.7,0,0,1-.19-.19,25.15,25.15,0,0,1-8.83-18.18S30.5,91.1,39,84.66a2.17,2.17,0,0,1,2.71,0C50,91.1,50.63,101.54,50.63,101.54Z" transform="translate(0 0)" style="fill:#acacac"/><path id="Tracé_315" data-name="Tracé 315" d="M39.27,81.7A58.28,58.28,0,0,0,8.74,90.43L2.38,98.27Q1.18,103.63,0,109l2.69,12.09L17.3,105.58a45.49,45.49,0,0,1,22-5.69Z" transform="translate(0 0)" style="fill:#acacac"/><path id="Tracé_316" data-name="Tracé 316" d="M76.15,98.28l-6.36-7.84a58.09,58.09,0,0,0-30.52-8.73V99.9a45.33,45.33,0,0,1,22,5.69l14.6,15.46L78.53,109Q77.35,103.62,76.15,98.28Z" transform="translate(0 0)" style="fill:#acacac"/><path id="Tracé_317" data-name="Tracé 317" d="M39.27,100.73a62.92,62.92,0,0,1,15.45,1.9C62,91,66.32,75.92,66.32,59.48c0-25.59-10.56-47.81-26.08-59.14a1.65,1.65,0,0,0-1.94,0C22.78,11.67,12.22,33.89,12.22,59.48c0,16.44,4.36,31.48,11.6,43.15A62.86,62.86,0,0,1,39.27,100.73Z" transform="translate(0 0)" style="fill:#c2c2c2"/><path id="Tracé_318" data-name="Tracé 318" d="M52.8,44.63c0,5.74-5.5,10.4-12.28,10.4s-12.28-4.65-12.28-10.4,5.5-10.4,12.28-10.4S52.8,38.89,52.8,44.63Z" transform="translate(0 0)" style="fill:#afafaf"/><path id="Tracé_319" data-name="Tracé 319" d="M43.94,56.45a10.55,10.55,0,1,1,7.79-12.73c.08.35.15.7.2,1.05A10.55,10.55,0,0,1,43.94,56.45Z" transform="translate(0 0)" style="fill:#e0e0e0"/><path id="Tracé_320" data-name="Tracé 320" d="M40.52,32c-7.35,0-13.3,5.64-13.3,12.6s6,12.61,13.3,12.61,13.3-5.64,13.3-12.61S47.87,32,40.52,32Zm0,23c-6.06,0-11-4.66-11-10.4s4.91-10.4,11-10.4,11,4.66,11,10.4S46.58,55,40.52,55Z" transform="translate(0 0)" style="fill:#acacac"/><path id="Tracé_321" data-name="Tracé 321" d="M21.42,54.13C21.42,33.51,26.76,14,38.67.27c0-.05-.21,0-.28,0C22.66,11.5,12.21,33.67,12.22,59.48c0,16.44,4.36,31.49,11.6,43.15a62.48,62.48,0,0,1,10.8-1.73C25.27,88.08,21.42,71.62,21.42,54.13Z" transform="translate(0 0)" style="fill:#acacac"/><path id="Tracé_322" data-name="Tracé 322" d="M57,54.13C57,33.51,51.64,14,39.74.27c-.05-.05.21,0,.27,0C55.75,11.5,66.19,33.67,66.19,59.48c0,16.44-4.37,31.49-11.6,43.15a62.63,62.63,0,0,0-10.8-1.73C53.14,88.08,57,71.62,57,54.13Z" transform="translate(0 0)" style="fill:#acacac"/></g></g></svg>