<svg id="Calque_1" data-name="Calque 1" xmlns="http://www.w3.org/2000/svg" viewBox="0 0 127.35 141.86"><title>knowledgesharing-locked</title><g id="Groupe_11250" data-name="Groupe 11250"><path id="Tracé_23377" data-name="Tracé 23377" d="M42,0H87.89a17.42,17.42,0,0,1,17.42,17.42v107a17.42,17.42,0,0,1-17.42,17.42H42a17.42,17.42,0,0,1-17.42-17.42v-107A17.42,17.42,0,0,1,42,0Z" transform="translate(0 0)" style="fill:#acacac"/><g id="Groupe_40" data-name="Groupe 40"><path id="Tracé_297" data-name="Tracé 297" d="M69.67,6.69h-13a1.07,1.07,0,0,1-1.07-1.07h0a1.07,1.07,0,0,1,1.07-1.06h13a1.07,1.07,0,0,1,1.07,1.06h0a1.07,1.07,0,0,1-1.06,1.07Z" transform="translate(0 0)" style="fill:#fff"/><path id="Tracé_298" data-name="Tracé 298" d="M74.32,5.62a1.07,1.07,0,1,1-1.07-1.06h0A1.07,1.07,0,0,1,74.32,5.62Z" transform="translate(0 0)" style="fill:#fff"/><path id="Tracé_299" data-name="Tracé 299" d="M77.8,5.62a1.07,1.07,0,1,1-1.07-1.06h0A1.07,1.07,0,0,1,77.8,5.62Z" transform="translate(0 0)" style="fill:#fff"/></g><path id="Tracé_23376" data-name="Tracé 23376" d="M38.51,10.41H91.42a9.18,9.18,0,0,1,9.19,9.19V127.41a9.19,9.19,0,0,1-9.19,9.19H38.51a9.2,9.2,0,0,1-9.19-9.19V19.6A9.18,9.18,0,0,1,38.51,10.41Z" transform="translate(0 0)" style="fill:#e0e0e0"/><g id="Groupe_50" data-name="Groupe 50"><g id="Groupe_49" data-name="Groupe 49"><g id="Groupe_41" data-name="Groupe 41"><path id="Tracé_300" data-name="Tracé 300" d="M63.05,53.81H62v-.59h.44v-.44h.59Z" transform="translate(0 0)" style="fill:#acacac"/></g><g id="Groupe_42" data-name="Groupe 42"><path id="Tracé_301" data-name="Tracé 301" d="M60.61,53.81H59.2v-.59h1.41Zm-2.82,0H56.38v-.59h1.41Zm-2.82,0H53.56v-.59H55Zm-2.82,0H50.74v-.59h1.41Zm-2.83,0h-1.4v-.59h1.41Zm-2.82,0H45.09v-.59H46.5Zm-2.82,0H42.27v-.59h1.41Zm-2.82,0H39.45v-.59h1.41Zm-2.82,0H36.63v-.59H38Z" transform="translate(0 0)" style="fill:#acacac"/></g><g id="Groupe_43" data-name="Groupe 43"><path id="Tracé_302" data-name="Tracé 302" d="M35.22,53.81h-1v-1h.59v.44h.44Z" transform="translate(0 0)" style="fill:#acacac"/></g><g id="Groupe_44" data-name="Groupe 44"><path id="Tracé_303" data-name="Tracé 303" d="M34.78,51.34h-.59V49.91h.59Zm0-2.86h-.59V47.05h.59Zm0-2.87h-.59V44.18h.59Zm0-2.86h-.59V41.31h.59Zm0-2.87h-.59V38.45h.59Zm0-2.86h-.59V35.58h.59Zm0-2.87h-.59V32.72h.59Zm0-2.86h-.59V29.85h.59Zm0-2.87h-.59V27h.59Zm0-2.86h-.59V24.12h.59Zm0-2.87h-.59V21.26h.59Zm0-2.86h-.59V18.39h.59Z" transform="translate(0 0)" style="fill:#acacac"/></g><g id="Groupe_45" data-name="Groupe 45"><path id="Tracé_304" data-name="Tracé 304" d="M34.78,17h-.59v-1h1v.59h-.44Z" transform="translate(0 0)" style="fill:#acacac"/></g><g id="Groupe_46" data-name="Groupe 46"><path id="Tracé_305" data-name="Tracé 305" d="M60.61,16.52H59.2v-.59h1.41Zm-2.82,0H56.38v-.59h1.41Zm-2.82,0H53.56v-.59H55Zm-2.82,0H50.74v-.59h1.41Zm-2.82,0H47.92v-.59h1.41Zm-2.82,0H45.09v-.59h1.42Zm-2.83,0H42.27v-.59h1.41Zm-2.82,0H39.45v-.59h1.41Zm-2.82,0H36.63v-.59H38Z" transform="translate(0 0)" style="fill:#acacac"/></g><g id="Groupe_47" data-name="Groupe 47"><path id="Tracé_306" data-name="Tracé 306" d="M63.05,17h-.59v-.44H62v-.59h1Z" transform="translate(0 0)" style="fill:#acacac"/></g><g id="Groupe_48" data-name="Groupe 48"><path id="Tracé_307" data-name="Tracé 307" d="M63.05,51.34h-.59V49.91h.59Zm0-2.86h-.59V47.05h.59Zm0-2.87h-.59V44.18h.59Zm0-2.86h-.59V41.31h.59Zm0-2.87h-.59V38.45h.59Zm0-2.86h-.59V35.58h.59Zm0-2.87h-.59V32.72h.59Zm0-2.86h-.59V29.85h.59Zm0-2.87h-.59V27h.59Zm0-2.86h-.59V24.12h.59Zm0-2.87h-.59V21.26h.59Zm0-2.86h-.59V18.39h.59Z" transform="translate(0 0)" style="fill:#acacac"/></g></g><path id="Tracé_308" data-name="Tracé 308" d="M55.48,33.46H50V28H47.21v5.45H41.77v2.82h5.44v5.45H50V36.28h5.45Z" transform="translate(0 0)" style="fill:#acacac"/></g><g id="Groupe_51" data-name="Groupe 51"><rect id="Rectangle_7" data-name="Rectangle 7" x="67.44" y="15.93" width="30.42" height="3.69" style="fill:#cacaca"/><rect id="Rectangle_8" data-name="Rectangle 8" x="67.44" y="23.83" width="30.42" height="3.69" style="fill:#cacaca"/><rect id="Rectangle_9" data-name="Rectangle 9" x="67.44" y="31.73" width="30.42" height="22.08" style="fill:#cacaca"/></g><g id="Groupe_52" data-name="Groupe 52"><path id="Tracé_309" data-name="Tracé 309" d="M95.63,125.33H93.35v-.77h1.9v.18h.38Zm-4.19,0H89.53v-.77h1.91Zm-3.81,0H85.72v-.77h1.91Zm-3.81,0H81.91v-.77h1.91Zm-3.82,0H78.1v-.77H80Zm-3.81,0H74.28v-.77h1.91Zm-3.81,0H70.47v-.77h1.91Zm-3.81,0H66.66v-.77h1.91Zm-3.82,0h-1.9v-.77h1.9Zm-3.81,0H59v-.77h1.9Zm-3.81,0H55.22v-.77h1.91Zm-3.81,0H51.41v-.77h1.91Zm-3.81,0H47.6v-.77h1.91Zm-3.82,0h-1.9v-.77h1.9Zm-3.81,0H40v-.77h1.9Zm-3.81,0H36.16v-.77h1.91Zm-3.81,0h-.6v-2.08h.76V125h-.16Zm61.37-2.5h-.76v-1.9h.76Zm-61.21-1.48h-.76v-1.91h.76ZM95.63,119h-.76v-1.9h.76Zm-61.21-1.49h-.76v-1.9h.76Zm61.21-2.32h-.76V113.3h.76Zm-61.21-1.49h-.76v-1.9h.76Zm61.21-2.32h-.76v-1.91h.76Zm-61.21-1.49h-.76V108h.76Zm61.21-2.32h-.76v-1.91h.76ZM34.42,106.1h-.76v-1.91h.76Zm61.21-2.33h-.76v-1.9h.76Zm-61.21-1.48h-.76v-1.91h.76ZM95.63,100h-.76v-1.9h.76Zm-61.2-1.49h-.77v-1.9h.77Zm61.2-2.33h-.76v-1.9h.76Zm-61.2-1.48h-.77V92.75h.77ZM94.93,93H93v-.76h1.91Zm-3.81,0h-1.9v-.76h1.9Zm-3.81,0H85.4v-.76h1.91ZM83.5,93H81.59v-.76H83.5Zm-3.81,0H77.78v-.76h1.91Zm-3.82,0H74v-.76h1.91Zm-3.81,0h-1.9v-.76h1.9Zm-3.81,0H66.34v-.76h1.91Zm-3.81,0H62.53v-.76h1.91Zm-3.82,0h-1.9v-.76h1.9Zm-3.81,0h-1.9v-.76h1.9ZM53,93H51.09v-.76H53Zm-3.81,0H47.28v-.76h1.91Zm-3.81,0H43.47v-.76h1.91Zm-3.82,0h-1.9v-.76h1.9Zm-3.81,0h-1.9v-.76h1.9Z" transform="translate(0 0)" style="fill:#acacac"/></g><path id="Tracé_310" data-name="Tracé 310" d="M71.29,108.08H65.85v-5.44H63v5.44H57.58v2.82H63v5.45h2.82V110.9h5.44Z" transform="translate(0 0)" style="fill:#acacac"/><g id="Groupe_53" data-name="Groupe 53"><path id="Tracé_311" data-name="Tracé 311" d="M94.42,85.42c-4.55-16.55.63-26.32-14-26.39C71.94,59,71.31,69.55,68,78.52,64.08,72,63.93,63,57.31,65.22c-7.46,2.56-9.7,7.92-9.76,19.62-2.25-6-3.24-11-6-10.5-5.84,1.16-3.44,5.38-6.29,12.92H94.38A6,6,0,0,0,94.42,85.42Z" transform="translate(0 0)" style="fill:#acacac"/><path id="Tracé_312" data-name="Tracé 312" d="M69.87,72.09c-7.36,0-8.69,3.34-10.1,9.89-1.43-4.46-4-10.44-9.27-8.38-8,3.15-4.72,8.47-8,13.89H82.64c0-.39.28-.81,0-1.16C76.68,77.84,82.54,72.14,69.87,72.09Z" transform="translate(0 0)" style="fill:#cacaca"/></g><g id="Groupe_55" data-name="Groupe 55" style="opacity:0.5"><path id="Tracé_313" data-name="Tracé 313" d="M75.28,88.45,46.64,60.09V42.6l74-6.13Z" transform="translate(0 0)" style="fill:#c2c2c2;fill-opacity:0"/><path id="Tracé_314" data-name="Tracé 314" d="M75.72,88.45,46.92,60.37V42.54l73.67-6.06Z" transform="translate(0 0)" style="fill:#c2c2c2;opacity:0.009999999776482582;isolation:isolate"/><path id="Tracé_315" data-name="Tracé 315" d="M76.17,88.45l-29-27.8V42.47l73.38-6Z" transform="translate(0 0)" style="fill:#c2c2c2;opacity:0.019999999552965164;isolation:isolate"/><path id="Tracé_316" data-name="Tracé 316" d="M76.62,88.45,47.49,60.93V42.41l73.1-5.94Z" transform="translate(0 0)" style="fill:#c2c2c2;opacity:0.029999999329447746;isolation:isolate"/><path id="Tracé_317" data-name="Tracé 317" d="M77.07,88.45,47.77,61.21V42.35l72.82-5.88Z" transform="translate(0 0)" style="fill:#c2c2c2;opacity:0.03999999910593033;isolation:isolate"/><path id="Tracé_318" data-name="Tracé 318" d="M77.52,88.45l-29.47-27V42.29l72.54-5.82Z" transform="translate(0 0)" style="fill:#c2c2c2;opacity:0.05000000074505806;isolation:isolate"/><path id="Tracé_319" data-name="Tracé 319" d="M78,88.45,48.34,61.77V42.24l72.25-5.76Z" transform="translate(0 0)" style="fill:#c2c2c2;opacity:0.05900000035762787;isolation:isolate"/><path id="Tracé_320" data-name="Tracé 320" d="M78.42,88.45,48.62,62.06V42.17l72-5.7Z" transform="translate(0 0)" style="fill:#c2c2c2;opacity:0.0689999982714653;isolation:isolate"/><path id="Tracé_321" data-name="Tracé 321" d="M78.86,88.45,48.91,62.34V42.11l71.68-5.64Z" transform="translate(0 0)" style="fill:#c2c2c2;opacity:0.07900000363588333;isolation:isolate"/><path id="Tracé_322" data-name="Tracé 322" d="M79.31,88.45,49.19,62.62V42.05l71.4-5.58Z" transform="translate(0 0)" style="fill:#c2c2c2;opacity:0.08900000154972076;isolation:isolate"/><path id="Tracé_323" data-name="Tracé 323" d="M79.76,88.45,49.47,62.9V42l71.12-5.52Z" transform="translate(0 0)" style="fill:#c2c2c2;opacity:0.0989999994635582;isolation:isolate"/><path id="Tracé_324" data-name="Tracé 324" d="M80.21,88.45,49.76,63.18V41.93l70.83-5.46Z" transform="translate(0 0)" style="fill:#c2c2c2;opacity:0.10899999737739563;isolation:isolate"/><path id="Tracé_325" data-name="Tracé 325" d="M80.66,88.45,50,63.45V41.87l70.55-5.4Z" transform="translate(0 0)" style="fill:#c2c2c2;opacity:0.11900000274181366;isolation:isolate"/><path id="Tracé_326" data-name="Tracé 326" d="M81.11,88.45,50.32,63.74V41.81l70.27-5.34Z" transform="translate(0 0)" style="fill:#c2c2c2;opacity:0.1289999932050705;isolation:isolate"/><path id="Tracé_327" data-name="Tracé 327" d="M81.56,88.45,50.61,64V41.75l70-5.28Z" transform="translate(0 0)" style="fill:#c2c2c2;opacity:0.13899999856948853;isolation:isolate"/><path id="Tracé_328" data-name="Tracé 328" d="M82,88.45,50.89,64.3V41.69l69.7-5.22Z" transform="translate(0 0)" style="fill:#c2c2c2;opacity:0.14900000393390656;isolation:isolate"/><path id="Tracé_329" data-name="Tracé 329" d="M82.45,88.45,51.17,64.58V41.63l69.42-5.16Z" transform="translate(0 0)" style="fill:#c2c2c2;opacity:0.15800000727176666;isolation:isolate"/><path id="Tracé_330" data-name="Tracé 330" d="M82.9,88.45,51.46,64.86V41.56l69.13-5.09Z" transform="translate(0 0)" style="fill:#c2c2c2;opacity:0.1679999977350235;isolation:isolate"/><path id="Tracé_331" data-name="Tracé 331" d="M83.35,88.45,51.74,65.14V41.5l68.85-5Z" transform="translate(0 0)" style="fill:#c2c2c2;opacity:0.17800000309944153;isolation:isolate"/><path id="Tracé_332" data-name="Tracé 332" d="M83.8,88.45,52,65.42v-24l68.57-5Z" transform="translate(0 0)" style="fill:#c2c2c2;opacity:0.18799999356269836;isolation:isolate"/><path id="Tracé_333" data-name="Tracé 333" d="M84.25,88.45,52.31,65.7V41.38l68.28-4.91Z" transform="translate(0 0)" style="fill:#c2c2c2;opacity:0.1979999989271164;isolation:isolate"/><path id="Tracé_334" data-name="Tracé 334" d="M84.7,88.45,52.59,66V41.32l68-4.85Z" transform="translate(0 0)" style="fill:#c2c2c2;opacity:0.20800000429153442;isolation:isolate"/><path id="Tracé_335" data-name="Tracé 335" d="M85.15,88.45,52.88,66.27v-25l67.71-4.79Z" transform="translate(0 0)" style="fill:#c2c2c2;opacity:0.21799999475479126;isolation:isolate"/><path id="Tracé_336" data-name="Tracé 336" d="M85.59,88.45,53.16,66.55V41.2l67.43-4.73Z" transform="translate(0 0)" style="fill:#c2c2c2;opacity:0.2280000001192093;isolation:isolate"/><path id="Tracé_337" data-name="Tracé 337" d="M86,88.45,53.44,66.83V41.14l67.15-4.67Z" transform="translate(0 0)" style="fill:#c2c2c2;opacity:0.23800000548362732;isolation:isolate"/><path id="Tracé_338" data-name="Tracé 338" d="M86.49,88.45,53.72,67.11v-26l66.86-4.61Z" transform="translate(0 0)" style="fill:#c2c2c2;opacity:0.24799999594688416;isolation:isolate"/><path id="Tracé_339" data-name="Tracé 339" d="M86.94,88.45,54,67.39V41l66.58-4.54Z" transform="translate(0 0)" style="fill:#c2c2c2;opacity:0.25699999928474426;isolation:isolate"/><path id="Tracé_340" data-name="Tracé 340" d="M87.39,88.45,54.29,67.67V41l66.29-4.49Z" transform="translate(0 0)" style="fill:#c2c2c2;opacity:0.2669999897480011;isolation:isolate"/><path id="Tracé_341" data-name="Tracé 341" d="M87.84,88.45,54.58,68V40.9l66-4.43Z" transform="translate(0 0)" style="fill:#c2c2c2;opacity:0.2770000100135803;isolation:isolate"/><path id="Tracé_342" data-name="Tracé 342" d="M88.29,88.45,54.86,68.24V40.84l65.73-4.37Z" transform="translate(0 0)" style="fill:#c2c2c2;opacity:0.28700000047683716;isolation:isolate"/><path id="Tracé_343" data-name="Tracé 343" d="M88.73,88.45,55.14,68.51V40.78l65.45-4.3Z" transform="translate(0 0)" style="fill:#c2c2c2;opacity:0.296999990940094;isolation:isolate"/><path id="Tracé_344" data-name="Tracé 344" d="M89.18,88.45,55.43,68.79V40.72l65.16-4.25Z" transform="translate(0 0)" style="fill:#c2c2c2;opacity:0.3070000112056732;isolation:isolate"/><path id="Tracé_345" data-name="Tracé 345" d="M89.63,88.45,55.71,69.08V40.66l64.88-4.19Z" transform="translate(0 0)" style="fill:#c2c2c2;opacity:0.31700000166893005;isolation:isolate"/><path id="Tracé_346" data-name="Tracé 346" d="M90.08,88.45,56,69.35V40.6l64.6-4.13Z" transform="translate(0 0)" style="fill:#c2c2c2;opacity:0.3269999921321869;isolation:isolate"/><path id="Tracé_347" data-name="Tracé 347" d="M90.53,88.45,56.28,69.64V40.54l64.31-4.06Z" transform="translate(0 0)" style="fill:#c2c2c2;opacity:0.3370000123977661;isolation:isolate"/><path id="Tracé_348" data-name="Tracé 348" d="M91,88.45,56.56,69.92V40.47l64-4Z" transform="translate(0 0)" style="fill:#c2c2c2;opacity:0.34700000286102295;isolation:isolate"/><path id="Tracé_349" data-name="Tracé 349" d="M91.43,88.45,56.85,70.2V40.41l63.74-3.94Z" transform="translate(0 0)" style="fill:#c2c2c2;opacity:0.35600000619888306;isolation:isolate"/><path id="Tracé_350" data-name="Tracé 350" d="M91.88,88.45l-34.75-18V40.35l63.46-3.88Z" transform="translate(0 0)" style="fill:#c2c2c2;opacity:0.3659999966621399;isolation:isolate"/><path id="Tracé_351" data-name="Tracé 351" d="M92.32,88.45,57.41,70.76V40.29l63.18-3.82Z" transform="translate(0 0)" style="fill:#c2c2c2;opacity:0.37599998712539673;isolation:isolate"/><path id="Tracé_352" data-name="Tracé 352" d="M92.77,88.45,57.7,71V40.24l62.89-3.76Z" transform="translate(0 0)" style="fill:#c2c2c2;opacity:0.38600000739097595;isolation:isolate"/><path id="Tracé_353" data-name="Tracé 353" d="M93.22,88.45,58,71.32V40.17l62.61-3.7Z" transform="translate(0 0)" style="fill:#c2c2c2;opacity:0.3959999978542328;isolation:isolate"/><path id="Tracé_354" data-name="Tracé 354" d="M93.67,88.45,58.26,71.6V40.11l62.33-3.64Z" transform="translate(0 0)" style="fill:#c2c2c2;opacity:0.4059999883174896;isolation:isolate"/><path id="Tracé_355" data-name="Tracé 355" d="M94.12,88.45,58.55,71.88V40.05l62-3.58Z" transform="translate(0 0)" style="fill:#c2c2c2;opacity:0.41600000858306885;isolation:isolate"/><path id="Tracé_356" data-name="Tracé 356" d="M94.57,88.45,58.83,72.16V40l61.76-3.52Z" transform="translate(0 0)" style="fill:#c2c2c2;opacity:0.4259999990463257;isolation:isolate"/><path id="Tracé_357" data-name="Tracé 357" d="M95,88.45l-35.9-16V39.93l61.47-3.46Z" transform="translate(0 0)" style="fill:#c2c2c2;opacity:0.4359999895095825;isolation:isolate"/><path id="Tracé_358" data-name="Tracé 358" d="M95.46,88.45,59.4,72.73V39.87l61.19-3.4Z" transform="translate(0 0)" style="fill:#c2c2c2;opacity:0.44600000977516174;isolation:isolate"/><path id="Tracé_359" data-name="Tracé 359" d="M95.91,88.45,59.68,73V39.81l60.91-3.34Z" transform="translate(0 0)" style="fill:#c2c2c2;opacity:0.45500001311302185;isolation:isolate"/><path id="Tracé_360" data-name="Tracé 360" d="M96.36,88.45,60,73.29V39.75l60.63-3.28Z" transform="translate(0 0)" style="fill:#c2c2c2;opacity:0.4650000035762787;isolation:isolate"/><path id="Tracé_361" data-name="Tracé 361" d="M96.81,88.45,60.25,73.57V39.69l60.34-3.22Z" transform="translate(0 0)" style="fill:#c2c2c2;opacity:0.4749999940395355;isolation:isolate"/><path id="Tracé_362" data-name="Tracé 362" d="M97.26,88.45,60.53,73.85V39.63l60.06-3.16Z" transform="translate(0 0)" style="fill:#c2c2c2;opacity:0.48500001430511475;isolation:isolate"/><path id="Tracé_363" data-name="Tracé 363" d="M97.71,88.45,60.81,74.13V39.57l59.78-3.1Z" transform="translate(0 0)" style="fill:#c2c2c2;opacity:0.4950000047683716;isolation:isolate"/><path id="Tracé_364" data-name="Tracé 364" d="M98.16,88.45l-37.06-14V39.5l59.49-3Z" transform="translate(0 0)" style="fill:#c2c2c2;opacity:0.5049999952316284;isolation:isolate"/><path id="Tracé_365" data-name="Tracé 365" d="M98.6,88.45,61.38,74.69V39.44l59.21-3Z" transform="translate(0 0)" style="fill:#c2c2c2;opacity:0.5149999856948853;isolation:isolate"/><path id="Tracé_366" data-name="Tracé 366" d="M99.05,88.45,61.66,75V39.38l58.92-2.91Z" transform="translate(0 0)" style="fill:#c2c2c2;opacity:0.5249999761581421;isolation:isolate"/><path id="Tracé_367" data-name="Tracé 367" d="M99.5,88.45,62,75.25V39.32l58.64-2.85Z" transform="translate(0 0)" style="fill:#c2c2c2;opacity:0.5350000262260437;isolation:isolate"/><path id="Tracé_368" data-name="Tracé 368" d="M100,88.45,62.23,75.54V39.26l58.36-2.79Z" transform="translate(0 0)" style="fill:#c2c2c2;opacity:0.5450000166893005;isolation:isolate"/><path id="Tracé_369" data-name="Tracé 369" d="M100.4,88.45,62.52,75.82V39.2l58.07-2.73Z" transform="translate(0 0)" style="fill:#c2c2c2;opacity:0.5540000200271606;isolation:isolate"/><path id="Tracé_370" data-name="Tracé 370" d="M100.85,88.45,62.8,76.1v-37l57.79-2.67Z" transform="translate(0 0)" style="fill:#c2c2c2;opacity:0.5640000104904175;isolation:isolate"/><path id="Tracé_371" data-name="Tracé 371" d="M101.3,88.45,63.08,76.38V39.08l57.5-2.61Z" transform="translate(0 0)" style="fill:#c2c2c2;opacity:0.5740000009536743;isolation:isolate"/><path id="Tracé_372" data-name="Tracé 372" d="M101.75,88.45,63.37,76.66V39l57.22-2.55Z" transform="translate(0 0)" style="fill:#c2c2c2;opacity:0.5839999914169312;isolation:isolate"/><path id="Tracé_373" data-name="Tracé 373" d="M102.19,88.45,63.65,76.94V39l56.94-2.49Z" transform="translate(0 0)" style="fill:#c2c2c2;opacity:0.593999981880188;isolation:isolate"/><path id="Tracé_374" data-name="Tracé 374" d="M102.64,88.45,63.93,77.22V38.9l56.66-2.43Z" transform="translate(0 0)" style="fill:#c2c2c2;opacity:0.6039999723434448;isolation:isolate"/><path id="Tracé_375" data-name="Tracé 375" d="M103.09,88.45l-38.87-11V38.84l56.37-2.37Z" transform="translate(0 0)" style="fill:#c2c2c2;opacity:0.6140000224113464;isolation:isolate"/><path id="Tracé_376" data-name="Tracé 376" d="M103.54,88.45l-39-10.67v-39l56.09-2.3Z" transform="translate(0 0)" style="fill:#c2c2c2;opacity:0.6240000128746033;isolation:isolate"/><path id="Tracé_377" data-name="Tracé 377" d="M104,88.45,64.79,78.06V38.72l55.8-2.25Z" transform="translate(0 0)" style="fill:#c2c2c2;opacity:0.6340000033378601;isolation:isolate"/><path id="Tracé_378" data-name="Tracé 378" d="M104.43,88.45,65.07,78.34V38.66l55.52-2.19Z" transform="translate(0 0)" style="fill:#c2c2c2;opacity:0.6439999938011169;isolation:isolate"/><path id="Tracé_379" data-name="Tracé 379" d="M104.89,88.45,65.35,78.63v-40l55.24-2.13Z" transform="translate(0 0)" style="fill:#c2c2c2;opacity:0.652999997138977;isolation:isolate"/><path id="Tracé_380" data-name="Tracé 380" d="M105.33,88.45l-39.7-9.54V38.54l55-2.06Z" transform="translate(0 0)" style="fill:#c2c2c2;opacity:0.6629999876022339;isolation:isolate"/><path id="Tracé_381" data-name="Tracé 381" d="M105.78,88.45,65.92,79.19V38.47l54.67-2Z" transform="translate(0 0)" style="fill:#c2c2c2;opacity:0.6729999780654907;isolation:isolate"/><path id="Tracé_382" data-name="Tracé 382" d="M106.23,88.45l-40-9V38.41l54.39-1.94Z" transform="translate(0 0)" style="fill:#c2c2c2;opacity:0.6830000281333923;isolation:isolate"/><path id="Tracé_383" data-name="Tracé 383" d="M106.68,88.45l-40.19-8.7V38.35l54.1-1.88Z" transform="translate(0 0)" style="fill:#c2c2c2;opacity:0.6930000185966492;isolation:isolate"/><path id="Tracé_384" data-name="Tracé 384" d="M107.13,88.45,66.77,80V38.29l53.82-1.82Z" transform="translate(0 0)" style="fill:#c2c2c2;opacity:0.703000009059906;isolation:isolate"/><path id="Tracé_385" data-name="Tracé 385" d="M107.58,88.45,67.05,80.31V38.24l53.54-1.76Z" transform="translate(0 0)" style="fill:#c2c2c2;opacity:0.7129999995231628;isolation:isolate"/><path id="Tracé_386" data-name="Tracé 386" d="M108,88.45,67.34,80.59V38.17l53.25-1.7Z" transform="translate(0 0)" style="fill:#c2c2c2;opacity:0.7229999899864197;isolation:isolate"/><path id="Tracé_387" data-name="Tracé 387" d="M108.47,88.45,67.62,80.87V38.11l53-1.63Z" transform="translate(0 0)" style="fill:#c2c2c2;opacity:0.7329999804496765;isolation:isolate"/><path id="Tracé_388" data-name="Tracé 388" d="M108.92,88.45l-41-7.29V38.06l52.69-1.58Z" transform="translate(0 0)" style="fill:#c2c2c2;opacity:0.7429999709129333;isolation:isolate"/><path id="Tracé_389" data-name="Tracé 389" d="M109.37,88.45l-41.18-7V38l52.4-1.52Z" transform="translate(0 0)" style="fill:#c2c2c2;opacity:0.7519999742507935;isolation:isolate"/><path id="Tracé_390" data-name="Tracé 390" d="M109.82,88.45,68.47,81.72V37.93l52.12-1.46Z" transform="translate(0 0)" style="fill:#c2c2c2;opacity:0.7620000243186951;isolation:isolate"/><path id="Tracé_391" data-name="Tracé 391" d="M110.27,88.45,68.75,82V37.87l51.84-1.4Z" transform="translate(0 0)" style="fill:#c2c2c2;opacity:0.7720000147819519;isolation:isolate"/><path id="Tracé_392" data-name="Tracé 392" d="M110.72,88.45,69,82.28V37.81l51.55-1.34Z" transform="translate(0 0)" style="fill:#c2c2c2;opacity:0.7820000052452087;isolation:isolate"/><path id="Tracé_393" data-name="Tracé 393" d="M111.17,88.45,69.32,82.56V37.75l51.27-1.28Z" transform="translate(0 0)" style="fill:#c2c2c2;opacity:0.7919999957084656;isolation:isolate"/><path id="Tracé_394" data-name="Tracé 394" d="M111.62,88.45l-42-5.61V37.69l51-1.22Z" transform="translate(0 0)" style="fill:#c2c2c2;opacity:0.8019999861717224;isolation:isolate"/><path id="Tracé_395" data-name="Tracé 395" d="M112.07,88.45,69.89,83.12V37.63l50.7-1.16Z" transform="translate(0 0)" style="fill:#c2c2c2;opacity:0.8119999766349792;isolation:isolate"/><path id="Tracé_396" data-name="Tracé 396" d="M112.51,88.45l-42.34-5V37.57l50.42-1.1Z" transform="translate(0 0)" style="fill:#c2c2c2;opacity:0.8220000267028809;isolation:isolate"/><path id="Tracé_397" data-name="Tracé 397" d="M113,88.45,70.45,83.68V37.5l50.14-1Z" transform="translate(0 0)" style="fill:#c2c2c2;opacity:0.8320000171661377;isolation:isolate"/><path id="Tracé_398" data-name="Tracé 398" d="M113.41,88.45,70.74,84V37.44l49.85-1Z" transform="translate(0 0)" style="fill:#c2c2c2;opacity:0.8420000076293945;isolation:isolate"/><path id="Tracé_399" data-name="Tracé 399" d="M113.86,88.45,71,84.24V37.38l49.57-.91Z" transform="translate(0 0)" style="fill:#c2c2c2;opacity:0.8510000109672546;isolation:isolate"/><path id="Tracé_400" data-name="Tracé 400" d="M114.31,88.45l-43-3.93V37.32l49.28-.85Z" transform="translate(0 0)" style="fill:#c2c2c2;opacity:0.8610000014305115;isolation:isolate"/><path id="Tracé_401" data-name="Tracé 401" d="M114.75,88.45,71.59,84.8V37.26l49-.79Z" transform="translate(0 0)" style="fill:#c2c2c2;opacity:0.8709999918937683;isolation:isolate"/><path id="Tracé_402" data-name="Tracé 402" d="M115.2,88.45,71.87,85.09V37.2l48.72-.73Z" transform="translate(0 0)" style="fill:#c2c2c2;opacity:0.8809999823570251;isolation:isolate"/><path id="Tracé_403" data-name="Tracé 403" d="M115.65,88.45l-43.5-3.08V37.14l48.43-.67Z" transform="translate(0 0)" style="fill:#c2c2c2;opacity:0.890999972820282;isolation:isolate"/><path id="Tracé_404" data-name="Tracé 404" d="M116.1,88.45l-43.66-2.8V37.08l48.15-.61Z" transform="translate(0 0)" style="fill:#c2c2c2;opacity:0.9010000228881836;isolation:isolate"/><path id="Tracé_405" data-name="Tracé 405" d="M116.55,88.45,72.72,85.93V37l47.87-.55Z" transform="translate(0 0)" style="fill:#c2c2c2;opacity:0.9110000133514404;isolation:isolate"/><path id="Tracé_406" data-name="Tracé 406" d="M117,88.45,73,86.21V37l47.58-.49Z" transform="translate(0 0)" style="fill:#c2c2c2;opacity:0.9210000038146973;isolation:isolate"/><path id="Tracé_407" data-name="Tracé 407" d="M117.45,88.45l-44.16-2V36.9l47.3-.43Z" transform="translate(0 0)" style="fill:#c2c2c2;opacity:0.9309999942779541;isolation:isolate"/><path id="Tracé_408" data-name="Tracé 408" d="M117.9,88.45,73.57,86.77V36.84l47-.37Z" transform="translate(0 0)" style="fill:#c2c2c2;opacity:0.9409999847412109;isolation:isolate"/><path id="Tracé_409" data-name="Tracé 409" d="M118.34,88.45,73.86,87.06V36.78l46.73-.3Z" transform="translate(0 0)" style="fill:#c2c2c2;opacity:0.949999988079071;isolation:isolate"/><path id="Tracé_410" data-name="Tracé 410" d="M118.79,88.45,74.14,87.34V36.72l46.45-.25Z" transform="translate(0 0)" style="fill:#c2c2c2;opacity:0.9599999785423279;isolation:isolate"/><path id="Tracé_411" data-name="Tracé 411" d="M119.24,88.45l-44.81-.84V36.66l46.16-.19Z" transform="translate(0 0)" style="fill:#c2c2c2;opacity:0.9700000286102295;isolation:isolate"/><path id="Tracé_412" data-name="Tracé 412" d="M119.69,88.45l-45-.56V36.59l45.88-.12Z" transform="translate(0 0)" style="fill:#c2c2c2;opacity:0.9800000190734863;isolation:isolate"/><path id="Tracé_413" data-name="Tracé 413" d="M120.14,88.45,75,88.17V36.54l45.6-.07Z" transform="translate(0 0)" style="fill:#c2c2c2;opacity:0.9900000095367432;isolation:isolate"/><rect id="Rectangle_10" data-name="Rectangle 10" x="75.28" y="36.48" width="45.31" height="51.98" style="fill:#c2c2c2"/></g><g id="Groupe_62" data-name="Groupe 62"><path id="Rectangle_11" data-name="Rectangle 11" d="M82.47,36.47H113.4a7.19,7.19,0,0,1,7.19,7.2v37.6a7.18,7.18,0,0,1-7.19,7.18H82.47a7.18,7.18,0,0,1-7.19-7.19h0V43.67a7.19,7.19,0,0,1,7.19-7.2Z" transform="translate(0 0)" style="fill:#acacac"/><g id="Groupe_56" data-name="Groupe 56"><rect id="Rectangle_12" data-name="Rectangle 12" x="78.48" y="69.89" width="28.68" height="1.99" style="fill:#cacaca"/><rect id="Rectangle_13" data-name="Rectangle 13" x="96.34" y="73.48" width="20.39" height="1.99" style="fill:#cacaca"/><rect id="Rectangle_14" data-name="Rectangle 14" x="78.48" y="73.48" width="8.86" height="1.99" style="fill:#cacaca"/><rect id="Rectangle_15" data-name="Rectangle 15" x="78.48" y="77.37" width="2.16" height="1.99" style="fill:#cacaca"/><rect id="Rectangle_16" data-name="Rectangle 16" x="81.35" y="77.37" width="2.16" height="1.99" style="fill:#cacaca"/><rect id="Rectangle_17" data-name="Rectangle 17" x="84.22" y="77.37" width="2.16" height="1.99" style="fill:#cacaca"/><rect id="Rectangle_18" data-name="Rectangle 18" x="87.09" y="77.37" width="4.62" height="1.99" style="fill:#cacaca"/><rect id="Rectangle_19" data-name="Rectangle 19" x="92.82" y="77.37" width="2.16" height="1.99" style="fill:#cacaca"/><rect id="Rectangle_20" data-name="Rectangle 20" x="89.4" y="73.48" width="2.16" height="1.99" style="fill:#cacaca"/><rect id="Rectangle_21" data-name="Rectangle 21" x="92.26" y="73.48" width="2.16" height="1.99" style="fill:#cacaca"/><rect id="Rectangle_22" data-name="Rectangle 22" x="95.69" y="77.37" width="9.4" height="1.99" style="fill:#cacaca"/></g><path id="Tracé_414" data-name="Tracé 414" d="M80.7,82.64a1,1,0,0,0-1-1,1,1,0,0,0-.81.46.91.91,0,0,0-.79-.46,1,1,0,0,0-1,1,1.14,1.14,0,0,0,0,.37,1.58,1.58,0,0,0,.49.81l1.22,1.11,1.25-1.11a1.5,1.5,0,0,0,.48-.81A1.14,1.14,0,0,0,80.7,82.64Zm-2.84-.33a.55.55,0,0,0-.08.76.06.06,0,0,1,0,.09.06.06,0,0,1-.07,0,.69.69,0,0,1,.1-1,.08.08,0,0,1,.1,0,.08.08,0,0,1,0,.09Z" transform="translate(0 0)" style="fill:#cacaca"/><g id="Groupe_57" data-name="Groupe 57"><path id="Tracé_415" data-name="Tracé 415" d="M83.38,82.91a.41.41,0,0,0,.28-.09.36.36,0,0,0,0-.5.39.39,0,0,0-.25-.1.47.47,0,0,0-.17,0l-.11.08a.57.57,0,0,0-.08.13L83,82.6a.12.12,0,0,1-.06.06l-.1,0a.16.16,0,0,1-.13-.06.2.2,0,0,1-.06-.15.35.35,0,0,1,.06-.19.7.7,0,0,1,.16-.19.72.72,0,0,1,.26-.14.83.83,0,0,1,.35,0,.78.78,0,0,1,.3,0,.7.7,0,0,1,.24.13.6.6,0,0,1,.21.45.54.54,0,0,1-.08.3,1.21,1.21,0,0,1-.21.24.91.91,0,0,1,.23.17.58.58,0,0,1,.13.2.53.53,0,0,1,0,.25.8.8,0,0,1-.06.3.83.83,0,0,1-.19.26.79.79,0,0,1-.29.18,1.19,1.19,0,0,1-.37.06.77.77,0,0,1-.37-.07.66.66,0,0,1-.27-.19.53.53,0,0,1-.16-.23.36.36,0,0,1-.06-.2.2.2,0,0,1,.07-.16.23.23,0,0,1,.16-.06.16.16,0,0,1,.09,0,.11.11,0,0,1,.06.07,1.19,1.19,0,0,0,.19.35.36.36,0,0,0,.29.12.54.54,0,0,0,.21,0,.49.49,0,0,0,.16-.16.42.42,0,0,0,.07-.24.52.52,0,0,0-.11-.32.41.41,0,0,0-.31-.11h-.2a.2.2,0,0,1-.15,0,.15.15,0,0,1-.05-.13.16.16,0,0,1,.06-.13.31.31,0,0,1,.19-.06Z" transform="translate(0 0)" style="fill:#fff"/><path id="Tracé_416" data-name="Tracé 416" d="M85.16,83.07a.72.72,0,0,1,.25-.21.7.7,0,0,1,.31-.07.76.76,0,0,1,.55.24.74.74,0,0,1,.16.27.87.87,0,0,1,.06.32,1,1,0,0,1-.11.44.84.84,0,0,1-.31.31.92.92,0,0,1-.46.11.82.82,0,0,1-.82-.56,1.77,1.77,0,0,1-.11-.68,2.3,2.3,0,0,1,.07-.58,1.11,1.11,0,0,1,.19-.43.69.69,0,0,1,.31-.25.9.9,0,0,1,.4-.09A.86.86,0,0,1,86,82a.59.59,0,0,1,.26.21.44.44,0,0,1,.08.25.18.18,0,0,1,0,.12.2.2,0,0,1-.14.06.2.2,0,0,1-.13,0,.22.22,0,0,1-.09-.13.37.37,0,0,0-.13-.17.36.36,0,0,0-.2-.06.37.37,0,0,0-.18,0,.73.73,0,0,0-.16.14A1.38,1.38,0,0,0,85.16,83.07Zm.46,1.07a.34.34,0,0,0,.29-.14.64.64,0,0,0,.12-.38.86.86,0,0,0,0-.27.5.5,0,0,0-.15-.17.37.37,0,0,0-.21-.06.36.36,0,0,0-.2.06.47.47,0,0,0-.21.41.55.55,0,0,0,.12.39.37.37,0,0,0,.29.17Z" transform="translate(0 0)" style="fill:#fff"/></g><g id="Groupe_58" data-name="Groupe 58"><path id="Tracé_417" data-name="Tracé 417" d="M114.6,84.21V82.63A1.35,1.35,0,0,1,114,83a.16.16,0,0,1-.13-.06.19.19,0,0,1,0-.13.13.13,0,0,1,0-.13.78.78,0,0,1,.2-.11,1.36,1.36,0,0,0,.34-.21,1.7,1.7,0,0,0,.22-.24l.12-.17.11,0A.2.2,0,0,1,115,82a.36.36,0,0,1,.06.2v2c0,.23-.08.35-.24.35a.22.22,0,0,1-.17-.07A.33.33,0,0,1,114.6,84.21Z" transform="translate(0 0)" style="fill:#fff"/><path id="Tracé_418" data-name="Tracé 418" d="M115.94,82.55a.67.67,0,0,1,.1-.33.69.69,0,0,1,.27-.24,1.07,1.07,0,0,1,.43-.09,1.42,1.42,0,0,1,.36,0,.61.61,0,0,1,.26.15.51.51,0,0,1,.15.21.47.47,0,0,1,0,.26.43.43,0,0,1-.08.29.6.6,0,0,1-.26.22,1,1,0,0,1,.24.15.54.54,0,0,1,.15.22.76.76,0,0,1,0,.27.8.8,0,0,1-.11.4.68.68,0,0,1-.31.27,1,1,0,0,1-.48.1.92.92,0,0,1-.49-.1.67.67,0,0,1-.31-.27.78.78,0,0,1-.1-.39.65.65,0,0,1,.44-.64A.55.55,0,0,1,115.94,82.55Zm1.24,1.15a.39.39,0,0,0-.21-.39.43.43,0,0,0-.22-.06.42.42,0,0,0-.3.12.45.45,0,0,0-.12.33.5.5,0,0,0,.06.24.38.38,0,0,0,.15.16.47.47,0,0,0,.43,0,.38.38,0,0,0,.15-.16.53.53,0,0,0,.06-.24Zm-.43-1.48a.33.33,0,0,0-.26.1.35.35,0,0,0-.1.26.31.31,0,0,0,.1.24.33.33,0,0,0,.26.1.39.39,0,0,0,.15,0l.12-.07a.41.41,0,0,0,.07-.11.42.42,0,0,0,0-.33.37.37,0,0,0-.13-.12.32.32,0,0,0-.19,0Z" transform="translate(0 0)" style="fill:#fff"/></g><g id="Groupe_59" data-name="Groupe 59"><path id="Tracé_419" data-name="Tracé 419" d="M99.38,84.21V82.63a1.41,1.41,0,0,1-.59.34.18.18,0,0,1-.13-.32,1.18,1.18,0,0,1,.19-.11,1.2,1.2,0,0,0,.34-.21,1.26,1.26,0,0,0,.22-.24l.13-.17a.2.2,0,0,1,.11,0,.19.19,0,0,1,.14.07.36.36,0,0,1,.06.2v2c0,.23-.08.35-.24.35a.23.23,0,0,1-.17-.07A.32.32,0,0,1,99.38,84.21Z" transform="translate(0 0)" style="fill:#fff"/><path id="Tracé_420" data-name="Tracé 420" d="M101.27,84h.91a.36.36,0,0,1,.2.06.18.18,0,0,1,.07.15.22.22,0,0,1,0,.14.2.2,0,0,1-.18.06H101a.26.26,0,0,1-.2-.07.24.24,0,0,1-.07-.17.33.33,0,0,1,0-.16.34.34,0,0,1,.1-.16l.41-.41.26-.23a.91.91,0,0,0,.24-.2.66.66,0,0,0,.14-.2.41.41,0,0,0,.05-.21.35.35,0,0,0-.05-.2.32.32,0,0,0-.14-.14.46.46,0,0,0-.2-.05.42.42,0,0,0-.36.2l-.06.15a.56.56,0,0,1-.09.17.18.18,0,0,1-.15.07.2.2,0,0,1-.14-.06.23.23,0,0,1-.06-.16.74.74,0,0,1,0-.25,1.19,1.19,0,0,1,.16-.23,1,1,0,0,1,.27-.17,1.07,1.07,0,0,1,.39-.07A1.17,1.17,0,0,1,102,82a.62.62,0,0,1,.21.15.74.74,0,0,1,.14.22.52.52,0,0,1,.05.27.69.69,0,0,1-.1.39,1.13,1.13,0,0,1-.22.27c-.07.07-.2.17-.37.31a2.82,2.82,0,0,0-.36.33A.44.44,0,0,1,101.27,84Z" transform="translate(0 0)" style="fill:#fff"/><path id="Tracé_421" data-name="Tracé 421" d="M104.23,82.34h-.82l-.1.56a.88.88,0,0,1,.45-.14.67.67,0,0,1,.31.07.74.74,0,0,1,.42.43.71.71,0,0,1,.07.32.93.93,0,0,1-.12.46.76.76,0,0,1-.32.32,1.08,1.08,0,0,1-1,0,.68.68,0,0,1-.27-.26.5.5,0,0,1-.08-.26.21.21,0,0,1,0-.13.2.2,0,0,1,.14-.06.25.25,0,0,1,.22.17.5.5,0,0,0,.19.24.39.39,0,0,0,.26.09.48.48,0,0,0,.23-.07.58.58,0,0,0,.16-.19.87.87,0,0,0,0-.28.67.67,0,0,0-.06-.28.4.4,0,0,0-.16-.18.33.33,0,0,0-.22,0,.39.39,0,0,0-.21,0l-.18.13a.4.4,0,0,1-.2.09.2.2,0,0,1-.15-.06.21.21,0,0,1-.07-.14s0,0,0-.12l.14-.83a.35.35,0,0,1,.1-.21.27.27,0,0,1,.21-.07h.91q.27,0,.27.21a.2.2,0,0,1-.06.14A.35.35,0,0,1,104.23,82.34Z" transform="translate(0 0)" style="fill:#fff"/></g><path id="Tracé_422" data-name="Tracé 422" d="M111.8,81.67h-2.58a.48.48,0,0,0-.48.49v1.57a.48.48,0,0,0,.48.49v.72l1-.72h1.55a.48.48,0,0,0,.48-.49V82.16A.48.48,0,0,0,111.8,81.67Zm-.12,2h-2.34v-.27h2.34Zm0-.57h-2.34v-.27h2.34Zm0-.57h-2.34v-.27h2.34Z" transform="translate(0 0)" style="fill:#cacaca"/><g id="Groupe_60" data-name="Groupe 60"><path id="Tracé_423" data-name="Tracé 423" d="M94.49,81.67a1.87,1.87,0,1,0,2.8,1.63h0A3.47,3.47,0,0,0,94.49,81.67Zm.09,2.93a1.3,1.3,0,1,1,1.21-1.39v.18a1.31,1.31,0,0,1-1.21,1.21Zm0-.41a.89.89,0,1,1,.83-1v.12a.89.89,0,0,1-.82.83Z" transform="translate(0 0)" style="fill:#cacaca"/></g><path id="Tracé_424" data-name="Tracé 424" d="M112.38,53.55A14.45,14.45,0,1,1,97.93,39.1a14.44,14.44,0,0,1,14.45,14.45Z" transform="translate(0 0)" style="fill:#cacaca"/><g id="Groupe_61" data-name="Groupe 61"><circle id="Ellipse_1" data-name="Ellipse 1" cx="97.83" cy="48.14" r="4.03" style="fill:#acacac"/><path id="Tracé_425" data-name="Tracé 425" d="M105.31,61.06c0,2.5-3.38,2.76-7.48,2.76s-7.28-.26-7.28-2.63c0-3.88,3.32-6.13,7.42-6.13S105.31,57.18,105.31,61.06Z" transform="translate(0 0)" style="fill:#acacac"/></g></g><path id="Tracé_426" data-name="Tracé 426" d="M125.6,11.4H85.94a1.74,1.74,0,0,0-1.74,1.74V23.62a1.75,1.75,0,0,0,1.74,1.75h0l2.1,3.41,2.1-3.41h35.44a1.74,1.74,0,0,0,1.74-1.75h0V13.14a1.74,1.74,0,0,0-1.74-1.74Z" transform="translate(0 0)" style="fill:#e0e0e0;opacity:0.5;isolation:isolate"/><path id="Tracé_427" data-name="Tracé 427" d="M123.45,9.67H83.79A1.76,1.76,0,0,0,82,11.42V21.9a1.75,1.75,0,0,0,1.75,1.74h0l2.1,3.42L88,23.64h35.43a1.74,1.74,0,0,0,1.75-1.74h0V11.42a1.75,1.75,0,0,0-1.75-1.75Z" transform="translate(0 0)" style="fill:#acacac"/><rect id="Rectangle_23" data-name="Rectangle 23" x="97.76" y="11.63" width="23.98" height="0.67" style="fill:#fff"/><rect id="Rectangle_24" data-name="Rectangle 24" x="97.76" y="13.6" width="23.98" height="0.67" style="fill:#fff"/><rect id="Rectangle_25" data-name="Rectangle 25" x="97.76" y="15.57" width="23.98" height="0.67" style="fill:#fff"/><rect id="Rectangle_26" data-name="Rectangle 26" x="97.76" y="17.54" width="23.98" height="0.67" style="fill:#fff"/><rect id="Rectangle_27" data-name="Rectangle 27" x="97.76" y="19.52" width="23.98" height="0.67" style="fill:#fff"/><rect id="Rectangle_28" data-name="Rectangle 28" x="97.76" y="21.49" width="23.98" height="0.67" style="fill:#fff"/><g id="Groupe_64" data-name="Groupe 64"><path id="Tracé_428" data-name="Tracé 428" d="M88.46,18.46a1.14,1.14,0,1,0-1,2.07,1.14,1.14,0,1,0,1-2.07Z" transform="translate(0 0)" style="fill:#cacaca"/><path id="Tracé_429" data-name="Tracé 429" d="M87.47,18.47a1.7,1.7,0,0,1,.32-.1A1.14,1.14,0,0,0,87.71,20a1.12,1.12,0,0,0,1,.36,1.14,1.14,0,0,1-1.61-.07,1.15,1.15,0,0,1,.07-1.62,1.12,1.12,0,0,1,.29-.19Z" transform="translate(0 0)" style="fill:#cacaca"/><path id="Tracé_430" data-name="Tracé 430" d="M91.27,12.21a.68.68,0,1,0,.5.82.68.68,0,0,0-.5-.82Z" transform="translate(0 0)" style="fill:#cacaca"/><path id="Tracé_431" data-name="Tracé 431" d="M91.27,12.21l-.1,0a.69.69,0,0,1,0,1,.67.67,0,0,1-.54.19A.68.68,0,0,0,91.77,13a.67.67,0,0,0-.5-.82Z" transform="translate(0 0)" style="fill:#cacaca"/><path id="Tracé_432" data-name="Tracé 432" d="M90.94,13.26a2.57,2.57,0,0,0-3.43,1.23l-.41.87a1.76,1.76,0,0,1-1.2,1l-.23.06a.91.91,0,0,0-.68,1.1.9.9,0,0,0,.5.62l2.23,1.06,2.9,1.36a.91.91,0,0,0,1.22-.43h0a.91.91,0,0,0,0-.79l-.1-.21a1.81,1.81,0,0,1,0-1.51l.42-.89A2.58,2.58,0,0,0,90.94,13.26Z" transform="translate(0 0)" style="fill:#cacaca"/><path id="Tracé_433" data-name="Tracé 433" d="M93.85,12.73a2.21,2.21,0,1,0,1.06,2.94,2.21,2.21,0,0,0-1.06-2.94Z" transform="translate(0 0)" style="fill:#cacaca"/><path id="Tracé_434" data-name="Tracé 434" d="M91.46,13.05a2.22,2.22,0,0,0,3.38,2.76A2.21,2.21,0,1,1,91,13.65,2.15,2.15,0,0,1,91.46,13.05Z" transform="translate(0 0)" style="fill:#cacaca"/><path id="Tracé_435" data-name="Tracé 435" d="M93.27,13.71l-.41.13a.15.15,0,0,0-.1.19.15.15,0,0,0,.19.11h0l.08,0-.64,1.35a.16.16,0,0,0,.09.2.15.15,0,0,0,.19-.07l.79-1.66a.16.16,0,0,0-.07-.21.17.17,0,0,0-.12,0Z" transform="translate(0 0)" style="fill:#e0e0e0"/></g><g id="Groupe_66" data-name="Groupe 66" style="opacity:0.5"><path id="Tracé_436" data-name="Tracé 436" d="M1.28,103.49l72,17.47V106.39L47.1,78.88Z" transform="translate(0 0)" style="fill:#cacaca;fill-opacity:0"/><path id="Tracé_437" data-name="Tracé 437" d="M1.28,103.49,73,120.79V106.12L46.65,78.88Z" transform="translate(0 0)" style="fill:#cacaca;opacity:0.009999999776482582;isolation:isolate"/><path id="Tracé_438" data-name="Tracé 438" d="M1.28,103.49l71.47,17.12V105.84l-26.56-27Z" transform="translate(0 0)" style="fill:#cacaca;opacity:0.019999999552965164;isolation:isolate"/><path id="Tracé_439" data-name="Tracé 439" d="M1.28,103.49l71.2,17V105.57L45.73,78.88Z" transform="translate(0 0)" style="fill:#cacaca;opacity:0.029999999329447746;isolation:isolate"/><path id="Tracé_440" data-name="Tracé 440" d="M1.28,103.49l71,16.78v-15L45.28,78.88Z" transform="translate(0 0)" style="fill:#cacaca;opacity:0.03999999910593033;isolation:isolate"/><path id="Tracé_441" data-name="Tracé 441" d="M1.28,103.49,72,120.09V105L44.83,78.88Z" transform="translate(0 0)" style="fill:#cacaca;opacity:0.05000000074505806;isolation:isolate"/><path id="Tracé_442" data-name="Tracé 442" d="M1.28,103.49l70.43,16.43V104.75L44.38,78.88Z" transform="translate(0 0)" style="fill:#cacaca;opacity:0.05900000035762787;isolation:isolate"/><path id="Tracé_443" data-name="Tracé 443" d="M1.28,103.49l70.17,16.26V104.48L43.92,78.88Z" transform="translate(0 0)" style="fill:#cacaca;opacity:0.0689999982714653;isolation:isolate"/><path id="Tracé_444" data-name="Tracé 444" d="M1.28,103.49l69.91,16.08V104.21L43.47,78.88Z" transform="translate(0 0)" style="fill:#cacaca;opacity:0.07900000363588333;isolation:isolate"/><path id="Tracé_445" data-name="Tracé 445" d="M1.28,103.49,70.93,119.4V103.94L43,78.88Z" transform="translate(0 0)" style="fill:#cacaca;opacity:0.08900000154972076;isolation:isolate"/><path id="Tracé_446" data-name="Tracé 446" d="M1.28,103.49l69.39,15.74V103.66L42.56,78.88Z" transform="translate(0 0)" style="fill:#cacaca;opacity:0.0989999994635582;isolation:isolate"/><path id="Tracé_447" data-name="Tracé 447" d="M1.28,103.49l69.13,15.57V103.39L42.11,78.87Z" transform="translate(0 0)" style="fill:#cacaca;opacity:0.10899999737739563;isolation:isolate"/><path id="Tracé_448" data-name="Tracé 448" d="M1.28,103.49l68.87,15.4V103.12L41.65,78.88Z" transform="translate(0 0)" style="fill:#cacaca;opacity:0.11900000274181366;isolation:isolate"/><path id="Tracé_449" data-name="Tracé 449" d="M1.28,103.49l68.61,15.22V102.85l-28.69-24Z" transform="translate(0 0)" style="fill:#cacaca;opacity:0.1289999932050705;isolation:isolate"/><path id="Tracé_450" data-name="Tracé 450" d="M1.28,103.49l68.36,15.05v-16L40.75,78.88Z" transform="translate(0 0)" style="fill:#cacaca;opacity:0.13899999856948853;isolation:isolate"/><path id="Tracé_451" data-name="Tracé 451" d="M1.28,103.49l68.1,14.88V102.31L40.29,78.88Z" transform="translate(0 0)" style="fill:#cacaca;opacity:0.14900000393390656;isolation:isolate"/><path id="Tracé_452" data-name="Tracé 452" d="M1.28,103.49l67.84,14.7V102L39.84,78.88Z" transform="translate(0 0)" style="fill:#cacaca;opacity:0.15800000727176666;isolation:isolate"/><path id="Tracé_453" data-name="Tracé 453" d="M1.28,103.49,68.86,118V101.76L39.39,78.88Z" transform="translate(0 0)" style="fill:#cacaca;opacity:0.1679999977350235;isolation:isolate"/><path id="Tracé_454" data-name="Tracé 454" d="M1.28,103.49,68.6,117.85V101.49L38.93,78.88Z" transform="translate(0 0)" style="fill:#cacaca;opacity:0.17800000309944153;isolation:isolate"/><path id="Tracé_455" data-name="Tracé 455" d="M1.28,103.49l67.06,14.18V101.21L38.48,78.88Z" transform="translate(0 0)" style="fill:#cacaca;opacity:0.18799999356269836;isolation:isolate"/><path id="Tracé_456" data-name="Tracé 456" d="M1.28,103.49l66.8,14V100.94L38,78.88Z" transform="translate(0 0)" style="fill:#cacaca;opacity:0.1979999989271164;isolation:isolate"/><path id="Tracé_457" data-name="Tracé 457" d="M1.28,103.49l66.54,13.84V100.67L37.57,78.88Z" transform="translate(0 0)" style="fill:#cacaca;opacity:0.20800000429153442;isolation:isolate"/><path id="Tracé_458" data-name="Tracé 458" d="M1.28,103.49l66.29,13.66V100.4L37.12,78.88Z" transform="translate(0 0)" style="fill:#cacaca;opacity:0.21799999475479126;isolation:isolate"/><path id="Tracé_459" data-name="Tracé 459" d="M1.28,103.49l66,13.49V100.12L36.67,78.88Z" transform="translate(0 0)" style="fill:#cacaca;opacity:0.2280000001192093;isolation:isolate"/><path id="Tracé_460" data-name="Tracé 460" d="M1.28,103.49l65.77,13.32v-17l-30.84-21Z" transform="translate(0 0)" style="fill:#cacaca;opacity:0.23800000548362732;isolation:isolate"/><path id="Tracé_461" data-name="Tracé 461" d="M1.28,103.49l65.51,13.14v-17l-31-20.7Z" transform="translate(0 0)" style="fill:#cacaca;opacity:0.24799999594688416;isolation:isolate"/><path id="Tracé_462" data-name="Tracé 462" d="M1.28,103.49l65.25,13V99.31L35.3,78.88Z" transform="translate(0 0)" style="fill:#cacaca;opacity:0.25699999928474426;isolation:isolate"/><path id="Tracé_463" data-name="Tracé 463" d="M1.28,103.49l65,12.8V99L34.85,78.88Z" transform="translate(0 0)" style="fill:#cacaca;opacity:0.2669999897480011;isolation:isolate"/><path id="Tracé_464" data-name="Tracé 464" d="M1.28,103.49,66,116.12V98.76L34.39,78.88Z" transform="translate(0 0)" style="fill:#cacaca;opacity:0.2770000100135803;isolation:isolate"/><path id="Tracé_465" data-name="Tracé 465" d="M1.28,103.49l64.47,12.45V98.49L33.94,78.88Z" transform="translate(0 0)" style="fill:#cacaca;opacity:0.28700000047683716;isolation:isolate"/><path id="Tracé_466" data-name="Tracé 466" d="M1.28,103.49l64.21,12.28V98.22l-32-19.34Z" transform="translate(0 0)" style="fill:#cacaca;opacity:0.296999990940094;isolation:isolate"/><path id="Tracé_467" data-name="Tracé 467" d="M1.28,103.49l64,12.11V98L33,78.88Z" transform="translate(0 0)" style="fill:#cacaca;opacity:0.3070000112056732;isolation:isolate"/><path id="Tracé_468" data-name="Tracé 468" d="M1.28,103.49,65,115.42V97.67L32.58,78.88Z" transform="translate(0 0)" style="fill:#cacaca;opacity:0.31700000166893005;isolation:isolate"/><path id="Tracé_469" data-name="Tracé 469" d="M1.28,103.49l63.43,11.76V97.4L32.13,78.88Z" transform="translate(0 0)" style="fill:#cacaca;opacity:0.3269999921321869;isolation:isolate"/><path id="Tracé_470" data-name="Tracé 470" d="M1.28,103.49l63.18,11.59v-18L31.68,78.88Z" transform="translate(0 0)" style="fill:#cacaca;opacity:0.3370000123977661;isolation:isolate"/><path id="Tracé_471" data-name="Tracé 471" d="M1.28,103.49,64.19,114.9v-18l-33-18Z" transform="translate(0 0)" style="fill:#cacaca;opacity:0.34700000286102295;isolation:isolate"/><path id="Tracé_472" data-name="Tracé 472" d="M1.28,103.49l62.66,11.24V96.58L30.77,78.88Z" transform="translate(0 0)" style="fill:#cacaca;opacity:0.35600000619888306;isolation:isolate"/><path id="Tracé_473" data-name="Tracé 473" d="M1.28,103.49l62.4,11.07V96.31L30.32,78.88Z" transform="translate(0 0)" style="fill:#cacaca;opacity:0.3659999966621399;isolation:isolate"/><path id="Tracé_474" data-name="Tracé 474" d="M1.28,103.49l62.14,10.9V96L29.86,78.88Z" transform="translate(0 0)" style="fill:#cacaca;opacity:0.37599998712539673;isolation:isolate"/><path id="Tracé_475" data-name="Tracé 475" d="M1.28,103.49l61.88,10.72V95.77L29.41,78.88Z" transform="translate(0 0)" style="fill:#cacaca;opacity:0.38600000739097595;isolation:isolate"/><path id="Tracé_476" data-name="Tracé 476" d="M1.28,103.49,62.9,114V95.49L29,78.88Z" transform="translate(0 0)" style="fill:#cacaca;opacity:0.3959999978542328;isolation:isolate"/><path id="Tracé_477" data-name="Tracé 477" d="M1.28,103.49l61.36,10.38V95.22L28.5,78.88Z" transform="translate(0 0)" style="fill:#cacaca;opacity:0.4059999883174896;isolation:isolate"/><path id="Tracé_478" data-name="Tracé 478" d="M1.28,103.49l61.1,10.2V95L28,78.88Z" transform="translate(0 0)" style="fill:#cacaca;opacity:0.41600000858306885;isolation:isolate"/><path id="Tracé_479" data-name="Tracé 479" d="M1.28,103.49l60.84,10V94.68L27.59,78.88Z" transform="translate(0 0)" style="fill:#cacaca;opacity:0.4259999990463257;isolation:isolate"/><path id="Tracé_480" data-name="Tracé 480" d="M1.28,103.49l60.58,9.86V94.4L27.14,78.88Z" transform="translate(0 0)" style="fill:#cacaca;opacity:0.4359999895095825;isolation:isolate"/><path id="Tracé_481" data-name="Tracé 481" d="M1.28,103.49l60.33,9.69V94.13L26.68,78.88Z" transform="translate(0 0)" style="fill:#cacaca;opacity:0.44600000977516174;isolation:isolate"/><path id="Tracé_482" data-name="Tracé 482" d="M1.28,103.49,61.35,113V93.86l-35.12-15Z" transform="translate(0 0)" style="fill:#cacaca;opacity:0.45500001311302185;isolation:isolate"/><path id="Tracé_483" data-name="Tracé 483" d="M1.28,103.49l59.81,9.34V93.59L25.78,78.88Z" transform="translate(0 0)" style="fill:#cacaca;opacity:0.4650000035762787;isolation:isolate"/><path id="Tracé_484" data-name="Tracé 484" d="M1.28,103.49l59.55,9.17V93.32L25.33,78.88Z" transform="translate(0 0)" style="fill:#cacaca;opacity:0.4749999940395355;isolation:isolate"/><path id="Tracé_485" data-name="Tracé 485" d="M1.28,103.49l59.29,9V93L24.87,78.88Z" transform="translate(0 0)" style="fill:#cacaca;opacity:0.48500001430511475;isolation:isolate"/><path id="Tracé_486" data-name="Tracé 486" d="M1.28,103.49l59,8.82V92.77L24.42,78.88Z" transform="translate(0 0)" style="fill:#cacaca;opacity:0.4950000047683716;isolation:isolate"/><path id="Tracé_487" data-name="Tracé 487" d="M1.28,103.49l58.77,8.65V92.5L24,78.88Z" transform="translate(0 0)" style="fill:#cacaca;opacity:0.5049999952316284;isolation:isolate"/><path id="Tracé_488" data-name="Tracé 488" d="M1.28,103.49,59.79,112V92.22L23.51,78.88Z" transform="translate(0 0)" style="fill:#cacaca;opacity:0.5149999856948853;isolation:isolate"/><path id="Tracé_489" data-name="Tracé 489" d="M1.28,103.49l58.25,8.3V92L23.06,78.88Z" transform="translate(0 0)" style="fill:#cacaca;opacity:0.5249999761581421;isolation:isolate"/><path id="Tracé_490" data-name="Tracé 490" d="M1.28,103.49l58,8.13V91.68L22.6,78.88Z" transform="translate(0 0)" style="fill:#cacaca;opacity:0.5350000262260437;isolation:isolate"/><path id="Tracé_491" data-name="Tracé 491" d="M1.28,103.49l57.74,8v-20L22.15,78.88Z" transform="translate(0 0)" style="fill:#cacaca;opacity:0.5450000166893005;isolation:isolate"/><path id="Tracé_492" data-name="Tracé 492" d="M1.28,103.49l57.48,7.78V91.13L21.69,78.88Z" transform="translate(0 0)" style="fill:#cacaca;opacity:0.5540000200271606;isolation:isolate"/><path id="Tracé_493" data-name="Tracé 493" d="M1.28,103.49,58.5,111.1V90.86l-37.26-12Z" transform="translate(0 0)" style="fill:#cacaca;opacity:0.5640000104904175;isolation:isolate"/><path id="Tracé_494" data-name="Tracé 494" d="M1.28,103.49l57,7.44V90.59L20.79,78.88Z" transform="translate(0 0)" style="fill:#cacaca;opacity:0.5740000009536743;isolation:isolate"/><path id="Tracé_495" data-name="Tracé 495" d="M1.28,103.49,58,110.75V90.32L20.34,78.88Z" transform="translate(0 0)" style="fill:#cacaca;opacity:0.5839999914169312;isolation:isolate"/><path id="Tracé_496" data-name="Tracé 496" d="M1.28,103.49l56.44,7.09V90.05L19.88,78.88Z" transform="translate(0 0)" style="fill:#cacaca;opacity:0.593999981880188;isolation:isolate"/><path id="Tracé_497" data-name="Tracé 497" d="M1.28,103.49l56.18,6.92V89.77l-38-10.9Z" transform="translate(0 0)" style="fill:#cacaca;opacity:0.6039999723434448;isolation:isolate"/><path id="Tracé_498" data-name="Tracé 498" d="M1.28,103.49l55.92,6.74V89.5L19,78.88Z" transform="translate(0 0)" style="fill:#cacaca;opacity:0.6140000224113464;isolation:isolate"/><path id="Tracé_499" data-name="Tracé 499" d="M1.28,103.49l55.66,6.57V89.23L18.52,78.88Z" transform="translate(0 0)" style="fill:#cacaca;opacity:0.6240000128746033;isolation:isolate"/><path id="Tracé_500" data-name="Tracé 500" d="M1.28,103.49l55.4,6.4V89L18.06,78.88Z" transform="translate(0 0)" style="fill:#cacaca;opacity:0.6340000033378601;isolation:isolate"/><path id="Tracé_501" data-name="Tracé 501" d="M1.28,103.49l55.14,6.23v-21L17.61,78.88Z" transform="translate(0 0)" style="fill:#cacaca;opacity:0.6439999938011169;isolation:isolate"/><path id="Tracé_502" data-name="Tracé 502" d="M1.28,103.49l54.89,6.05V88.41l-39-9.53Z" transform="translate(0 0)" style="fill:#cacaca;opacity:0.652999997138977;isolation:isolate"/><path id="Tracé_503" data-name="Tracé 503" d="M1.28,103.49l54.63,5.88V88.14l-39.2-9.26Z" transform="translate(0 0)" style="fill:#cacaca;opacity:0.6629999876022339;isolation:isolate"/><path id="Tracé_504" data-name="Tracé 504" d="M1.28,103.49l54.37,5.71V87.87l-39.4-9Z" transform="translate(0 0)" style="fill:#cacaca;opacity:0.6729999780654907;isolation:isolate"/><path id="Tracé_505" data-name="Tracé 505" d="M1.28,103.49,55.39,109V87.59l-39.6-8.71Z" transform="translate(0 0)" style="fill:#cacaca;opacity:0.6830000281333923;isolation:isolate"/><path id="Tracé_506" data-name="Tracé 506" d="M1.28,103.49l53.85,5.36V87.32L15.35,78.88Z" transform="translate(0 0)" style="fill:#cacaca;opacity:0.6930000185966492;isolation:isolate"/><path id="Tracé_507" data-name="Tracé 507" d="M1.28,103.49l53.59,5.19V87.05l-40-8.17Z" transform="translate(0 0)" style="fill:#cacaca;opacity:0.703000009059906;isolation:isolate"/><path id="Tracé_508" data-name="Tracé 508" d="M1.28,103.49l53.33,5V86.78l-40.17-7.9Z" transform="translate(0 0)" style="fill:#cacaca;opacity:0.7129999995231628;isolation:isolate"/><path id="Tracé_509" data-name="Tracé 509" d="M1.28,103.49l53.07,4.84V86.5L14,78.88Z" transform="translate(0 0)" style="fill:#cacaca;opacity:0.7229999899864197;isolation:isolate"/><path id="Tracé_510" data-name="Tracé 510" d="M1.28,103.49l52.81,4.67V86.23L13.53,78.88Z" transform="translate(0 0)" style="fill:#cacaca;opacity:0.7329999804496765;isolation:isolate"/><path id="Tracé_511" data-name="Tracé 511" d="M1.28,103.49,53.83,108V86L13.08,78.88Z" transform="translate(0 0)" style="fill:#cacaca;opacity:0.7429999709129333;isolation:isolate"/><path id="Tracé_512" data-name="Tracé 512" d="M1.28,103.49l52.3,4.32V85.69l-41-6.81Z" transform="translate(0 0)" style="fill:#cacaca;opacity:0.7519999742507935;isolation:isolate"/><path id="Tracé_513" data-name="Tracé 513" d="M1.28,103.49l52,4.15V85.41L12.17,78.88Z" transform="translate(0 0)" style="fill:#cacaca;opacity:0.7620000243186951;isolation:isolate"/><path id="Tracé_514" data-name="Tracé 514" d="M1.28,103.49l51.78,4V85.14L11.72,78.88Z" transform="translate(0 0)" style="fill:#cacaca;opacity:0.7720000147819519;isolation:isolate"/><path id="Tracé_515" data-name="Tracé 515" d="M1.28,103.49l51.52,3.8V84.87l-41.54-6Z" transform="translate(0 0)" style="fill:#cacaca;opacity:0.7820000052452087;isolation:isolate"/><path id="Tracé_516" data-name="Tracé 516" d="M1.28,103.49l51.26,3.63V84.6L10.81,78.88Z" transform="translate(0 0)" style="fill:#cacaca;opacity:0.7919999957084656;isolation:isolate"/><path id="Tracé_517" data-name="Tracé 517" d="M1.28,103.49l51,3.46V84.33L10.36,78.88Z" transform="translate(0 0)" style="fill:#cacaca;opacity:0.8019999861717224;isolation:isolate"/><path id="Tracé_518" data-name="Tracé 518" d="M1.28,103.49,52,106.78V84.05L9.9,78.88Z" transform="translate(0 0)" style="fill:#cacaca;opacity:0.8119999766349792;isolation:isolate"/><path id="Tracé_519" data-name="Tracé 519" d="M1.28,103.49l50.48,3.11V83.78L9.45,78.88Z" transform="translate(0 0)" style="fill:#cacaca;opacity:0.8220000267028809;isolation:isolate"/><path id="Tracé_520" data-name="Tracé 520" d="M1.28,103.49l50.22,2.94V83.51L9,78.88Z" transform="translate(0 0)" style="fill:#cacaca;opacity:0.8320000171661377;isolation:isolate"/><path id="Tracé_521" data-name="Tracé 521" d="M1.28,103.49l50,2.77v-23L8.54,78.88Z" transform="translate(0 0)" style="fill:#cacaca;opacity:0.8420000076293945;isolation:isolate"/><path id="Tracé_522" data-name="Tracé 522" d="M1.28,103.49,51,106.08V83L8.08,78.88Z" transform="translate(0 0)" style="fill:#cacaca;opacity:0.8510000109672546;isolation:isolate"/><path id="Tracé_523" data-name="Tracé 523" d="M1.28,103.49l49.45,2.42V82.69L7.63,78.87Z" transform="translate(0 0)" style="fill:#cacaca;opacity:0.8610000014305115;isolation:isolate"/><path id="Tracé_524" data-name="Tracé 524" d="M1.28,103.49l49.19,2.25V82.42L7.18,78.88Z" transform="translate(0 0)" style="fill:#cacaca;opacity:0.8709999918937683;isolation:isolate"/><path id="Tracé_525" data-name="Tracé 525" d="M1.28,103.49l48.93,2.07V82.15L6.73,78.88Z" transform="translate(0 0)" style="fill:#cacaca;opacity:0.8809999823570251;isolation:isolate"/><path id="Tracé_526" data-name="Tracé 526" d="M1.28,103.49,50,105.39V81.87l-43.68-3Z" transform="translate(0 0)" style="fill:#cacaca;opacity:0.890999972820282;isolation:isolate"/><path id="Tracé_527" data-name="Tracé 527" d="M1.28,103.49l48.41,1.73V81.6L5.82,78.88Z" transform="translate(0 0)" style="fill:#cacaca;opacity:0.9010000228881836;isolation:isolate"/><path id="Tracé_528" data-name="Tracé 528" d="M1.28,103.49l48.15,1.56V81.33L5.36,78.88Z" transform="translate(0 0)" style="fill:#cacaca;opacity:0.9110000133514404;isolation:isolate"/><path id="Tracé_529" data-name="Tracé 529" d="M1.28,103.49l47.89,1.38V81.06L4.91,78.88Z" transform="translate(0 0)" style="fill:#cacaca;opacity:0.9210000038146973;isolation:isolate"/><path id="Tracé_530" data-name="Tracé 530" d="M1.28,103.49l47.63,1.21V80.79L4.46,78.88Z" transform="translate(0 0)" style="fill:#cacaca;opacity:0.9309999942779541;isolation:isolate"/><path id="Tracé_531" data-name="Tracé 531" d="M1.28,103.49l47.37,1v-24L4,78.88Z" transform="translate(0 0)" style="fill:#cacaca;opacity:0.9409999847412109;isolation:isolate"/><path id="Tracé_532" data-name="Tracé 532" d="M1.28,103.49l47.11.86V80.24L3.55,78.88Z" transform="translate(0 0)" style="fill:#cacaca;opacity:0.949999988079071;isolation:isolate"/><path id="Tracé_533" data-name="Tracé 533" d="M1.28,103.49l46.86.69V80l-45-1.09Z" transform="translate(0 0)" style="fill:#cacaca;opacity:0.9599999785423279;isolation:isolate"/><path id="Tracé_534" data-name="Tracé 534" d="M1.28,103.49l46.6.52V79.69L2.64,78.88Z" transform="translate(0 0)" style="fill:#cacaca;opacity:0.9700000286102295;isolation:isolate"/><path id="Tracé_535" data-name="Tracé 535" d="M1.28,103.49l46.34.35V79.42L2.19,78.88Z" transform="translate(0 0)" style="fill:#cacaca;opacity:0.9800000190734863;isolation:isolate"/><path id="Tracé_536" data-name="Tracé 536" d="M1.28,103.49l46.08.17V79.15L1.73,78.88Z" transform="translate(0 0)" style="fill:#cacaca;opacity:0.9900000095367432;isolation:isolate"/><rect id="Rectangle_29" data-name="Rectangle 29" x="1.28" y="78.88" width="45.82" height="24.61" style="fill:#cacaca"/></g><g id="Groupe_71" data-name="Groupe 71"><path id="Rectangle_30" data-name="Rectangle 30" d="M0,99.54H50.31V102a2.47,2.47,0,0,1-2.47,2.46H2.47A2.46,2.46,0,0,1,0,102H0V99.54Z" transform="translate(0 0)" style="fill:#cacaca"/><g id="Groupe_68" data-name="Groupe 68"><path id="Rectangle_31" data-name="Rectangle 31" d="M5.11,78.27H45.2a5.11,5.11,0,0,1,5.11,5.11h0V99.54H0V83.38a5.11,5.11,0,0,1,5.11-5.11Z" transform="translate(0 0)" style="fill:#acacac"/><g id="Groupe_67" data-name="Groupe 67"><path id="Tracé_23378" data-name="Tracé 23378" d="M19.7,87.61a5.61,5.61,0,1,1,4.17,6.75h0A5.61,5.61,0,0,1,19.7,87.61Z" transform="translate(0 0)" style="fill:#cacaca"/><path id="Tracé_537" data-name="Tracé 537" d="M23,85.71v6.38l5.48-3.19Z" transform="translate(0 0)" style="fill:#acacac"/></g></g><g id="Groupe_69" data-name="Groupe 69"><rect id="Rectangle_32" data-name="Rectangle 32" x="3.13" y="101.79" width="42.54" height="0.44" style="fill:#acacac"/></g><g id="Groupe_70" data-name="Groupe 70"><rect id="Rectangle_33" data-name="Rectangle 33" x="13.69" y="101.79" width="31.99" height="0.44" style="fill:#acacac"/></g><path id="Tracé_538" data-name="Tracé 538" d="M49,101.6a.62.62,0,0,0-.6-.6.58.58,0,0,0-.5.29.56.56,0,0,0-.49-.29.62.62,0,0,0-.6.6.65.65,0,0,0,0,.24,1,1,0,0,0,.3.5l.76.7.78-.7a.93.93,0,0,0,.3-.5A1,1,0,0,0,49,101.6Zm-1.52-.26a.33.33,0,0,0-.33.33,0,0,0,0,1-.05,0,0,0,0,0,1,0,0h0a.42.42,0,0,1,.42-.42,0,0,0,0,1,0,0,0,0,0,0,1,0,0Z" transform="translate(0 0)" style="fill:#acacac"/><rect id="Rectangle_34" data-name="Rectangle 34" x="13.29" y="101.04" width="0.8" height="2" style="fill:#acacac"/></g></g></svg>