<svg id="Calque_1" data-name="Calque 1" xmlns="http://www.w3.org/2000/svg" viewBox="0 0 123.26 137.31"><title>knowledgesharing</title><g id="Groupe_73" data-name="Groupe 73"><g id="Groupe_54" data-name="Groupe 54"><path id="Rectangle_5" data-name="Rectangle 5" d="M41.25,0H84.51a17.42,17.42,0,0,1,17.42,17.42V119.89a17.42,17.42,0,0,1-17.42,17.42H41.25a17.42,17.42,0,0,1-17.42-17.42V17.42A17.42,17.42,0,0,1,41.25,0Z" transform="translate(0 0)" style="fill:#101e41"/><g id="Groupe_40" data-name="Groupe 40"><path id="Tracé_297" data-name="Tracé 297" d="M67.44,6.48H54.86a1,1,0,0,1-1-1h0a1,1,0,0,1,1-1H67.44a1,1,0,0,1,1,1h0a1,1,0,0,1-1,1Z" transform="translate(0 0)" style="fill:#fff"/><path id="Tracé_298" data-name="Tracé 298" d="M71.93,5.44a1,1,0,1,1-1-1h0a1,1,0,0,1,1,1Z" transform="translate(0 0)" style="fill:#fff"/><path id="Tracé_299" data-name="Tracé 299" d="M75.3,5.44a1,1,0,1,1-1-1h0A1,1,0,0,1,75.3,5.44Z" transform="translate(0 0)" style="fill:#fff"/></g><path id="Tracé_23376" data-name="Tracé 23376" d="M37.27,10.08H88.49A8.89,8.89,0,0,1,97.38,19V123.32a8.89,8.89,0,0,1-8.89,8.89H37.27a8.89,8.89,0,0,1-8.89-8.89h0V19a8.89,8.89,0,0,1,8.89-8.89Z" transform="translate(0 0)" style="fill:#e5f5ee"/><g id="Groupe_50" data-name="Groupe 50"><g id="Groupe_49" data-name="Groupe 49"><g id="Groupe_41" data-name="Groupe 41"><path id="Tracé_300" data-name="Tracé 300" d="M61,52.08H60v-.57h.43v-.43H61Z" transform="translate(0 0)" style="fill:#23399b"/></g><g id="Groupe_42" data-name="Groupe 42"><path id="Tracé_301" data-name="Tracé 301" d="M58.66,52.08H57.3v-.57h1.36Zm-2.73,0H54.57v-.57h1.36Zm-2.73,0H51.84v-.57H53.2Zm-2.73,0H49.11v-.57h1.36Zm-2.73,0H46.38v-.57h1.36Zm-2.73,0H43.64v-.57H45Zm-2.73,0H40.92v-.57h1.36Zm-2.73,0H38.19v-.57h1.36Zm-2.73,0H35.46v-.57h1.36Z" transform="translate(0 0)" style="fill:#23399b"/></g><g id="Groupe_43" data-name="Groupe 43"><path id="Tracé_302" data-name="Tracé 302" d="M34.09,52.08h-1v-1h.57v.43h.43Z" transform="translate(0 0)" style="fill:#23399b"/></g><g id="Groupe_44" data-name="Groupe 44"><path id="Tracé_303" data-name="Tracé 303" d="M33.66,49.69h-.57V48.31h.57Zm0-2.77h-.57V45.54h.57Zm0-2.77h-.57V42.76h.57Zm0-2.77h-.57V40h.57Zm0-2.78h-.57V37.22h.57Zm0-2.77h-.57V34.44h.57Zm0-2.77h-.57V31.67h.57Zm0-2.78h-.57V28.9h.57Zm0-2.77h-.57V26.13h.57Zm0-2.77h-.57V23.35h.57Zm0-2.77h-.57V20.58h.57Zm0-2.78h-.57V17.81h.57Z" transform="translate(0 0)" style="fill:#23399b"/></g><g id="Groupe_45" data-name="Groupe 45"><path id="Tracé_304" data-name="Tracé 304" d="M33.66,16.42h-.57v-1h1V16h-.43Z" transform="translate(0 0)" style="fill:#23399b"/></g><g id="Groupe_46" data-name="Groupe 46"><path id="Tracé_305" data-name="Tracé 305" d="M58.66,16H57.3v-.57h1.36Zm-2.73,0H54.57v-.57h1.36ZM53.2,16H51.84v-.57h1.37Zm-2.73,0H49.11v-.57h1.36Zm-2.73,0H46.38v-.57h1.36ZM45,16H43.65v-.57H45Zm-2.73,0H40.92v-.57h1.36Zm-2.73,0H38.19v-.57h1.36Zm-2.73,0H35.46v-.57h1.36Z" transform="translate(0 0)" style="fill:#23399b"/></g><g id="Groupe_47" data-name="Groupe 47"><path id="Tracé_306" data-name="Tracé 306" d="M61,16.42h-.57V16H60v-.57h1Z" transform="translate(0 0)" style="fill:#23399b"/></g><g id="Groupe_48" data-name="Groupe 48"><path id="Tracé_307" data-name="Tracé 307" d="M61,49.69h-.57V48.31H61Zm0-2.77h-.57V45.54H61Zm0-2.77h-.57V42.76H61Zm0-2.77h-.57V40H61Zm0-2.78h-.57V37.22H61Zm0-2.77h-.57V34.44H61Zm0-2.77h-.57V31.67H61Zm0-2.78h-.57V28.9H61Zm0-2.77h-.57V26.13H61Zm0-2.77h-.57V23.35H61ZM61,22h-.57V20.58H61Zm0-2.78h-.57V17.81H61Z" transform="translate(0 0)" style="fill:#23399b"/></g></g><path id="Tracé_308" data-name="Tracé 308" d="M53.7,32.39H48.42V27.11H45.69v5.28H40.42v2.73h5.27v5.27h2.73V35.12H53.7Z" transform="translate(0 0)" style="fill:#19a2ed"/></g><g id="Groupe_51" data-name="Groupe 51"><rect id="Rectangle_7" data-name="Rectangle 7" x="65.28" y="15.42" width="29.45" height="3.58" style="fill:#dfeafe"/><rect id="Rectangle_8" data-name="Rectangle 8" x="65.28" y="23.07" width="29.45" height="3.58" style="fill:#dfeafe"/><rect id="Rectangle_9" data-name="Rectangle 9" x="65.28" y="30.71" width="29.45" height="21.37" style="fill:#dfeafe"/></g><g id="Groupe_52" data-name="Groupe 52"><path id="Tracé_309" data-name="Tracé 309" d="M92.56,121.31H90.35v-.74H92.2v.17h.37Zm-4.06,0H86.66v-.74H88.5Zm-3.69,0H83v-.74h1.84Zm-3.68,0H79.28v-.74h1.85Zm-3.69,0H75.59v-.74h1.85Zm-3.69,0H71.9v-.74h1.84Zm-3.69,0H68.21v-.74h1.85Zm-3.69,0H64.52v-.74h1.85Zm-3.69,0H60.83v-.74h1.85Zm-3.69,0H57.14v-.74H59Zm-3.69,0H53.45v-.74H55.3Zm-3.69,0H49.76v-.74h1.85Zm-3.69,0H46.07v-.74h1.85Zm-3.69,0H42.38v-.74h1.85Zm-3.69,0H38.69v-.74h1.85Zm-3.69,0H35v-.74h1.84Zm-3.69,0h-.58v-2h.74v1.64h-.16Zm59.4-2.42h-.74v-1.84h.74Zm-59.24-1.43h-.74v-1.85h.74Zm59.24-2.25h-.74v-1.85h.74Zm-59.24-1.44h-.74v-1.85h.74Zm59.24-2.25h-.74v-1.85h.74Zm-59.24-1.44h-.74v-1.85h.74Zm59.24-2.25h-.74V106h.74Zm-59.24-1.44h-.74v-1.85h.74Zm59.24-2.25h-.74v-1.85h.74ZM33.32,102.7h-.74v-1.85h.74Zm59.24-2.25h-.74V98.6h.74ZM33.32,99h-.74V97.16h.74Zm59.24-2.25h-.74V94.91h.74ZM33.32,95.32h-.74V93.47h.74Zm59.24-2.25h-.74V91.22h.74ZM33.32,91.63h-.74V89.78h.74Zm58.57-1.58H90v-.74h1.85Zm-3.69,0H86.35v-.74H88.2Zm-3.69,0H82.66v-.74h1.85Zm-3.69,0H79v-.74h1.85Zm-3.69,0H75.28v-.74h1.85Zm-3.69,0H71.6v-.74h1.84Zm-3.69,0H67.9v-.74h1.85Zm-3.69,0H64.21v-.74h1.85Zm-3.69,0H60.52v-.74h1.85Zm-3.69,0H56.83v-.74h1.85Zm-3.69,0H53.14v-.74H55Zm-3.69,0H49.45v-.74H51.3Zm-3.69,0H45.76v-.74h1.85Zm-3.69,0H42.07v-.74h1.85Zm-3.69,0H38.39v-.74h1.84Zm-3.69,0H34.7v-.74h1.84Z" transform="translate(0 0)" style="fill:#23399b"/></g><path id="Tracé_310" data-name="Tracé 310" d="M69,104.61H63.73V99.34H61v5.27H55.73v2.73H61v5.27h2.73v-5.27H69Z" transform="translate(0 0)" style="fill:#19a2ed"/><g id="Groupe_53" data-name="Groupe 53"><path id="Tracé_311" data-name="Tracé 311" d="M91.39,82.68C87,66.66,92,57.21,77.85,57.14c-8.22,0-8.83,10.17-12,18.86C62,69.64,61.88,60.94,55.47,63.13c-7.22,2.48-9.38,7.67-9.45,19-2.17-5.79-3.14-10.7-5.84-10.16-5.66,1.12-3.33,5.21-6.09,12.5H91.35A5.6,5.6,0,0,0,91.39,82.68Z" transform="translate(0 0)" style="fill:#23399b"/><path id="Tracé_312" data-name="Tracé 312" d="M67.63,69.78c-7.13,0-8.42,3.23-9.78,9.57-1.38-4.32-3.86-10.1-9-8.11-7.8,3.05-4.57,8.2-7.74,13.44H80c0-.37.27-.78,0-1.12C74.22,75.34,79.89,69.83,67.63,69.78Z" transform="translate(0 0)" style="fill:#b3cbf9"/></g></g><g id="Groupe_63" data-name="Groupe 63"><g id="Groupe_55" data-name="Groupe 55" style="opacity:0.5"><path id="Tracé_313" data-name="Tracé 313" d="M72.86,85.62,45.14,58.16V41.23l71.58-5.93Z" transform="translate(0 0)" style="fill:#608fdf;fill-opacity:0"/><path id="Tracé_314" data-name="Tracé 314" d="M73.29,85.62,45.42,58.43V41.17l71.3-5.87Z" transform="translate(0 0)" style="fill:#608fdf;opacity:0.009999999776482582;isolation:isolate"/><path id="Tracé_315" data-name="Tracé 315" d="M73.73,85.62l-28-26.92V41.11l71-5.81Z" transform="translate(0 0)" style="fill:#608fdf;opacity:0.019999999552965164;isolation:isolate"/><path id="Tracé_316" data-name="Tracé 316" d="M74.16,85.62,46,59V41.05l70.76-5.75Z" transform="translate(0 0)" style="fill:#608fdf;opacity:0.029999999329447746;isolation:isolate"/><path id="Tracé_317" data-name="Tracé 317" d="M74.6,85.62,46.24,59.25V41l70.48-5.69Z" transform="translate(0 0)" style="fill:#608fdf;opacity:0.03999999910593033;isolation:isolate"/><path id="Tracé_318" data-name="Tracé 318" d="M75,85.62,46.51,59.52V40.94l70.2-5.64Z" transform="translate(0 0)" style="fill:#608fdf;opacity:0.05000000074505806;isolation:isolate"/><path id="Tracé_319" data-name="Tracé 319" d="M75.47,85.62,46.79,59.79V40.88l69.93-5.58Z" transform="translate(0 0)" style="fill:#608fdf;opacity:0.05900000035762787;isolation:isolate"/><path id="Tracé_320" data-name="Tracé 320" d="M75.9,85.62,47.06,60.07V40.82l69.66-5.52Z" transform="translate(0 0)" style="fill:#608fdf;opacity:0.0689999982714653;isolation:isolate"/><path id="Tracé_321" data-name="Tracé 321" d="M76.33,85.62l-29-25.29V40.76l69.39-5.46Z" transform="translate(0 0)" style="fill:#608fdf;opacity:0.07900000363588333;isolation:isolate"/><path id="Tracé_322" data-name="Tracé 322" d="M76.77,85.62l-29.16-25V40.7l69.11-5.4Z" transform="translate(0 0)" style="fill:#608fdf;opacity:0.08900000154972076;isolation:isolate"/><path id="Tracé_323" data-name="Tracé 323" d="M77.2,85.62,47.89,60.88V40.64l68.83-5.34Z" transform="translate(0 0)" style="fill:#608fdf;opacity:0.0989999994635582;isolation:isolate"/><path id="Tracé_324" data-name="Tracé 324" d="M77.64,85.62,48.16,61.15V40.58l68.56-5.28Z" transform="translate(0 0)" style="fill:#608fdf;opacity:0.10899999737739563;isolation:isolate"/><path id="Tracé_325" data-name="Tracé 325" d="M78.08,85.62,48.43,61.42V40.52l68.29-5.22Z" transform="translate(0 0)" style="fill:#608fdf;opacity:0.11900000274181366;isolation:isolate"/><path id="Tracé_326" data-name="Tracé 326" d="M78.51,85.62,48.71,61.69V40.47l68-5.17Z" transform="translate(0 0)" style="fill:#608fdf;opacity:0.1289999932050705;isolation:isolate"/><path id="Tracé_327" data-name="Tracé 327" d="M78.94,85.62,49,62V40.41l67.74-5.1Z" transform="translate(0 0)" style="fill:#608fdf;opacity:0.13899999856948853;isolation:isolate"/><path id="Tracé_328" data-name="Tracé 328" d="M79.37,85.62,49.26,62.24V40.35l67.46-5.05Z" transform="translate(0 0)" style="fill:#608fdf;opacity:0.14900000393390656;isolation:isolate"/><path id="Tracé_329" data-name="Tracé 329" d="M79.81,85.62,49.53,62.51V40.29l67.19-5Z" transform="translate(0 0)" style="fill:#608fdf;opacity:0.15800000727176666;isolation:isolate"/><path id="Tracé_330" data-name="Tracé 330" d="M80.24,85.62,49.81,62.78V40.23l66.91-4.93Z" transform="translate(0 0)" style="fill:#608fdf;opacity:0.1679999977350235;isolation:isolate"/><path id="Tracé_331" data-name="Tracé 331" d="M80.68,85.62,50.08,63.05V40.17l66.63-4.86Z" transform="translate(0 0)" style="fill:#608fdf;opacity:0.17800000309944153;isolation:isolate"/><path id="Tracé_332" data-name="Tracé 332" d="M81.11,85.62,50.36,63.33V40.12l66.36-4.81Z" transform="translate(0 0)" style="fill:#608fdf;opacity:0.18799999356269836;isolation:isolate"/><path id="Tracé_333" data-name="Tracé 333" d="M81.54,85.62l-30.91-22V40.06l66.09-4.76Z" transform="translate(0 0)" style="fill:#608fdf;opacity:0.1979999989271164;isolation:isolate"/><path id="Tracé_334" data-name="Tracé 334" d="M82,85.62,50.9,63.87V40l65.82-4.7Z" transform="translate(0 0)" style="fill:#608fdf;opacity:0.20800000429153442;isolation:isolate"/><path id="Tracé_335" data-name="Tracé 335" d="M82.41,85.62,51.18,64.14V39.94l65.54-4.63Z" transform="translate(0 0)" style="fill:#608fdf;opacity:0.21799999475479126;isolation:isolate"/><path id="Tracé_336" data-name="Tracé 336" d="M82.85,85.62l-31.4-21.2V39.88l65.27-4.58Z" transform="translate(0 0)" style="fill:#608fdf;opacity:0.2280000001192093;isolation:isolate"/><path id="Tracé_337" data-name="Tracé 337" d="M83.28,85.62,51.73,64.68V39.82l65-4.52Z" transform="translate(0 0)" style="fill:#608fdf;opacity:0.23800000548362732;isolation:isolate"/><path id="Tracé_338" data-name="Tracé 338" d="M83.72,85.62,52,65V39.77l64.72-4.46Z" transform="translate(0 0)" style="fill:#608fdf;opacity:0.24799999594688416;isolation:isolate"/><path id="Tracé_339" data-name="Tracé 339" d="M84.15,85.62,52.28,65.23V39.7l64.44-4.4Z" transform="translate(0 0)" style="fill:#608fdf;opacity:0.25699999928474426;isolation:isolate"/><path id="Tracé_340" data-name="Tracé 340" d="M84.58,85.62l-32-20.12V39.64l64.17-4.34Z" transform="translate(0 0)" style="fill:#608fdf;opacity:0.2669999897480011;isolation:isolate"/><path id="Tracé_341" data-name="Tracé 341" d="M85,85.62,52.83,65.77V39.59l63.89-4.29Z" transform="translate(0 0)" style="fill:#608fdf;opacity:0.2770000100135803;isolation:isolate"/><path id="Tracé_342" data-name="Tracé 342" d="M85.45,85.62,53.1,66V39.53l63.62-4.23Z" transform="translate(0 0)" style="fill:#608fdf;opacity:0.28700000047683716;isolation:isolate"/><path id="Tracé_343" data-name="Tracé 343" d="M85.89,85.62,53.37,66.32V39.47l63.35-4.17Z" transform="translate(0 0)" style="fill:#608fdf;opacity:0.296999990940094;isolation:isolate"/><path id="Tracé_344" data-name="Tracé 344" d="M86.32,85.62l-32.67-19V39.41l63.07-4.11Z" transform="translate(0 0)" style="fill:#608fdf;opacity:0.3070000112056732;isolation:isolate"/><path id="Tracé_345" data-name="Tracé 345" d="M86.76,85.62,53.92,66.86V39.35l62.8-4.05Z" transform="translate(0 0)" style="fill:#608fdf;opacity:0.31700000166893005;isolation:isolate"/><path id="Tracé_346" data-name="Tracé 346" d="M87.19,85.62l-33-18.49V39.29l62.52-4Z" transform="translate(0 0)" style="fill:#608fdf;opacity:0.3269999921321869;isolation:isolate"/><path id="Tracé_347" data-name="Tracé 347" d="M87.62,85.62,54.47,67.4V39.23l62.25-3.93Z" transform="translate(0 0)" style="fill:#608fdf;opacity:0.3370000123977661;isolation:isolate"/><path id="Tracé_348" data-name="Tracé 348" d="M88.06,85.62l-33.31-18V39.17l62-3.87Z" transform="translate(0 0)" style="fill:#608fdf;opacity:0.34700000286102295;isolation:isolate"/><path id="Tracé_349" data-name="Tracé 349" d="M88.49,85.62,55,68V39.12l61.7-3.82Z" transform="translate(0 0)" style="fill:#608fdf;opacity:0.35600000619888306;isolation:isolate"/><path id="Tracé_350" data-name="Tracé 350" d="M88.93,85.62,55.3,68.22V39.06l61.42-3.76Z" transform="translate(0 0)" style="fill:#608fdf;opacity:0.3659999966621399;isolation:isolate"/><path id="Tracé_351" data-name="Tracé 351" d="M89.36,85.62,55.57,68.49V39l61.15-3.7Z" transform="translate(0 0)" style="fill:#608fdf;opacity:0.37599998712539673;isolation:isolate"/><path id="Tracé_352" data-name="Tracé 352" d="M89.8,85.62l-34-16.85V38.94l60.88-3.64Z" transform="translate(0 0)" style="fill:#608fdf;opacity:0.38600000739097595;isolation:isolate"/><path id="Tracé_353" data-name="Tracé 353" d="M90.23,85.62,56.12,69V38.88l60.6-3.58Z" transform="translate(0 0)" style="fill:#608fdf;opacity:0.3959999978542328;isolation:isolate"/><path id="Tracé_354" data-name="Tracé 354" d="M90.66,85.62,56.39,69.31V38.82l60.33-3.52Z" transform="translate(0 0)" style="fill:#608fdf;opacity:0.4059999883174896;isolation:isolate"/><path id="Tracé_355" data-name="Tracé 355" d="M91.1,85.62l-34.43-16V38.77l60.05-3.47Z" transform="translate(0 0)" style="fill:#608fdf;opacity:0.41600000858306885;isolation:isolate"/><path id="Tracé_356" data-name="Tracé 356" d="M91.53,85.62,56.94,69.85V38.71l59.78-3.4Z" transform="translate(0 0)" style="fill:#608fdf;opacity:0.4259999990463257;isolation:isolate"/><path id="Tracé_357" data-name="Tracé 357" d="M92,85.62,57.22,70.12V38.65l59.5-3.35Z" transform="translate(0 0)" style="fill:#608fdf;opacity:0.4359999895095825;isolation:isolate"/><path id="Tracé_358" data-name="Tracé 358" d="M92.4,85.62,57.49,70.39V38.59l59.23-3.28Z" transform="translate(0 0)" style="fill:#608fdf;opacity:0.44600000977516174;isolation:isolate"/><path id="Tracé_359" data-name="Tracé 359" d="M92.83,85.62l-35.07-15V38.53l59-3.23Z" transform="translate(0 0)" style="fill:#608fdf;opacity:0.45500001311302185;isolation:isolate"/><path id="Tracé_360" data-name="Tracé 360" d="M93.27,85.62,58,70.94V38.47l58.68-3.17Z" transform="translate(0 0)" style="fill:#608fdf;opacity:0.4650000035762787;isolation:isolate"/><path id="Tracé_361" data-name="Tracé 361" d="M93.7,85.62,58.32,71.21V38.41l58.4-3.11Z" transform="translate(0 0)" style="fill:#608fdf;opacity:0.4749999940395355;isolation:isolate"/><path id="Tracé_362" data-name="Tracé 362" d="M94.14,85.62,58.59,71.48V38.35l58.13-3.05Z" transform="translate(0 0)" style="fill:#608fdf;opacity:0.48500001430511475;isolation:isolate"/><path id="Tracé_363" data-name="Tracé 363" d="M94.57,85.62,58.86,71.75V38.3l57.86-3Z" transform="translate(0 0)" style="fill:#608fdf;opacity:0.4950000047683716;isolation:isolate"/><path id="Tracé_364" data-name="Tracé 364" d="M95,85.62,59.14,72V38.24l57.58-2.94Z" transform="translate(0 0)" style="fill:#608fdf;opacity:0.5049999952316284;isolation:isolate"/><path id="Tracé_365" data-name="Tracé 365" d="M95.44,85.62l-36-13.32V38.18l57.31-2.88Z" transform="translate(0 0)" style="fill:#608fdf;opacity:0.5149999856948853;isolation:isolate"/><path id="Tracé_366" data-name="Tracé 366" d="M95.87,85.62,59.68,72.57V38.12l57-2.82Z" transform="translate(0 0)" style="fill:#608fdf;opacity:0.5249999761581421;isolation:isolate"/><path id="Tracé_367" data-name="Tracé 367" d="M96.3,85.62,60,72.84V38.07l56.75-2.76Z" transform="translate(0 0)" style="fill:#608fdf;opacity:0.5350000262260437;isolation:isolate"/><path id="Tracé_368" data-name="Tracé 368" d="M96.74,85.62,60.23,73.11V38l56.49-2.7Z" transform="translate(0 0)" style="fill:#608fdf;opacity:0.5450000166893005;isolation:isolate"/><path id="Tracé_369" data-name="Tracé 369" d="M97.18,85.62,60.51,73.38V37.94l56.21-2.64Z" transform="translate(0 0)" style="fill:#608fdf;opacity:0.5540000200271606;isolation:isolate"/><path id="Tracé_370" data-name="Tracé 370" d="M97.61,85.62l-36.83-12V37.89l55.94-2.59Z" transform="translate(0 0)" style="fill:#608fdf;opacity:0.5640000104904175;isolation:isolate"/><path id="Tracé_371" data-name="Tracé 371" d="M98.05,85.62l-37-11.69V37.83l55.66-2.53Z" transform="translate(0 0)" style="fill:#608fdf;opacity:0.5740000009536743;isolation:isolate"/><path id="Tracé_372" data-name="Tracé 372" d="M98.48,85.62,61.33,74.2V37.77l55.39-2.47Z" transform="translate(0 0)" style="fill:#608fdf;opacity:0.5839999914169312;isolation:isolate"/><path id="Tracé_373" data-name="Tracé 373" d="M98.91,85.62,61.61,74.47V37.71l55.11-2.4Z" transform="translate(0 0)" style="fill:#608fdf;opacity:0.593999981880188;isolation:isolate"/><path id="Tracé_374" data-name="Tracé 374" d="M99.35,85.62,61.88,74.74V37.65l54.84-2.35Z" transform="translate(0 0)" style="fill:#608fdf;opacity:0.6039999723434448;isolation:isolate"/><path id="Tracé_375" data-name="Tracé 375" d="M99.78,85.62,62.16,75V37.59l54.56-2.29Z" transform="translate(0 0)" style="fill:#608fdf;opacity:0.6140000224113464;isolation:isolate"/><path id="Tracé_376" data-name="Tracé 376" d="M100.22,85.62,62.43,75.29V37.53l54.29-2.23Z" transform="translate(0 0)" style="fill:#608fdf;opacity:0.6240000128746033;isolation:isolate"/><path id="Tracé_377" data-name="Tracé 377" d="M100.65,85.62,62.71,75.56V37.47l54-2.17Z" transform="translate(0 0)" style="fill:#608fdf;opacity:0.6340000033378601;isolation:isolate"/><path id="Tracé_378" data-name="Tracé 378" d="M101.09,85.62,63,75.83V37.42l53.74-2.12Z" transform="translate(0 0)" style="fill:#608fdf;opacity:0.6439999938011169;isolation:isolate"/><path id="Tracé_379" data-name="Tracé 379" d="M101.52,85.62,63.25,76.1V37.36l53.47-2.06Z" transform="translate(0 0)" style="fill:#608fdf;opacity:0.652999997138977;isolation:isolate"/><path id="Tracé_380" data-name="Tracé 380" d="M102,85.62,63.53,76.37V37.3l53.19-2Z" transform="translate(0 0)" style="fill:#608fdf;opacity:0.6629999876022339;isolation:isolate"/><path id="Tracé_381" data-name="Tracé 381" d="M102.39,85.62l-38.59-9V37.24l52.91-1.94Z" transform="translate(0 0)" style="fill:#608fdf;opacity:0.6729999780654907;isolation:isolate"/><path id="Tracé_382" data-name="Tracé 382" d="M102.82,85.62l-38.74-8.7V37.18l52.64-1.88Z" transform="translate(0 0)" style="fill:#608fdf;opacity:0.6830000281333923;isolation:isolate"/><path id="Tracé_383" data-name="Tracé 383" d="M103.26,85.62l-38.9-8.43V37.12l52.36-1.82Z" transform="translate(0 0)" style="fill:#608fdf;opacity:0.6930000185966492;isolation:isolate"/><path id="Tracé_384" data-name="Tracé 384" d="M103.69,85.62,64.63,77.47V37.07l52.09-1.76Z" transform="translate(0 0)" style="fill:#608fdf;opacity:0.703000009059906;isolation:isolate"/><path id="Tracé_385" data-name="Tracé 385" d="M104.13,85.62,64.9,77.73V37l51.82-1.7Z" transform="translate(0 0)" style="fill:#608fdf;opacity:0.7129999995231628;isolation:isolate"/><path id="Tracé_386" data-name="Tracé 386" d="M104.56,85.62,65.18,78V37l51.54-1.65Z" transform="translate(0 0)" style="fill:#608fdf;opacity:0.7229999899864197;isolation:isolate"/><path id="Tracé_387" data-name="Tracé 387" d="M105,85.62,65.45,78.28V36.89l51.27-1.59Z" transform="translate(0 0)" style="fill:#608fdf;opacity:0.7329999804496765;isolation:isolate"/><path id="Tracé_388" data-name="Tracé 388" d="M105.43,85.62l-39.7-7.07V36.83l51-1.53Z" transform="translate(0 0)" style="fill:#608fdf;opacity:0.7429999709129333;isolation:isolate"/><path id="Tracé_389" data-name="Tracé 389" d="M105.86,85.62,66,78.82v-42l50.72-1.47Z" transform="translate(0 0)" style="fill:#608fdf;opacity:0.7519999742507935;isolation:isolate"/><path id="Tracé_390" data-name="Tracé 390" d="M106.3,85.62l-40-6.53V36.71l50.45-1.4Z" transform="translate(0 0)" style="fill:#608fdf;opacity:0.7620000243186951;isolation:isolate"/><path id="Tracé_391" data-name="Tracé 391" d="M106.73,85.62,66.55,79.37V36.66l50.17-1.35Z" transform="translate(0 0)" style="fill:#608fdf;opacity:0.7720000147819519;isolation:isolate"/><path id="Tracé_392" data-name="Tracé 392" d="M107.16,85.62l-40.34-6v-43l49.9-1.3Z" transform="translate(0 0)" style="fill:#608fdf;opacity:0.7820000052452087;isolation:isolate"/><path id="Tracé_393" data-name="Tracé 393" d="M107.6,85.62,67.1,79.91V36.54l49.62-1.24Z" transform="translate(0 0)" style="fill:#608fdf;opacity:0.7919999957084656;isolation:isolate"/><path id="Tracé_394" data-name="Tracé 394" d="M108,85.62,67.37,80.18V36.48l49.35-1.17Z" transform="translate(0 0)" style="fill:#608fdf;opacity:0.8019999861717224;isolation:isolate"/><path id="Tracé_395" data-name="Tracé 395" d="M108.47,85.62,67.65,80.45v-44l49.07-1.12Z" transform="translate(0 0)" style="fill:#608fdf;opacity:0.8119999766349792;isolation:isolate"/><path id="Tracé_396" data-name="Tracé 396" d="M108.9,85.62l-41-4.9V36.36l48.8-1.06Z" transform="translate(0 0)" style="fill:#608fdf;opacity:0.8220000267028809;isolation:isolate"/><path id="Tracé_397" data-name="Tracé 397" d="M109.34,85.62,68.2,81V36.3l48.52-1Z" transform="translate(0 0)" style="fill:#608fdf;opacity:0.8320000171661377;isolation:isolate"/><path id="Tracé_398" data-name="Tracé 398" d="M109.77,85.62l-41.3-4.35v-45l48.25-.94Z" transform="translate(0 0)" style="fill:#608fdf;opacity:0.8420000076293945;isolation:isolate"/><path id="Tracé_399" data-name="Tracé 399" d="M110.2,85.62,68.74,81.54V36.18l48-.88Z" transform="translate(0 0)" style="fill:#608fdf;opacity:0.8510000109672546;isolation:isolate"/><path id="Tracé_400" data-name="Tracé 400" d="M110.63,85.62,69,81.81V36.13l47.7-.83Z" transform="translate(0 0)" style="fill:#608fdf;opacity:0.8610000014305115;isolation:isolate"/><path id="Tracé_401" data-name="Tracé 401" d="M111.07,85.62,69.29,82.08v-46l47.43-.77Z" transform="translate(0 0)" style="fill:#608fdf;opacity:0.8709999918937683;isolation:isolate"/><path id="Tracé_402" data-name="Tracé 402" d="M111.51,85.62,69.57,82.35V36l47.15-.7Z" transform="translate(0 0)" style="fill:#608fdf;opacity:0.8809999823570251;isolation:isolate"/><path id="Tracé_403" data-name="Tracé 403" d="M111.94,85.62l-42.1-3V36l46.88-.65Z" transform="translate(0 0)" style="fill:#608fdf;opacity:0.890999972820282;isolation:isolate"/><path id="Tracé_404" data-name="Tracé 404" d="M112.38,85.62,70.12,82.9v-47l46.6-.59Z" transform="translate(0 0)" style="fill:#608fdf;opacity:0.9010000228881836;isolation:isolate"/><path id="Tracé_405" data-name="Tracé 405" d="M112.81,85.62,70.39,83.17V35.83l46.33-.53Z" transform="translate(0 0)" style="fill:#608fdf;opacity:0.9110000133514404;isolation:isolate"/><path id="Tracé_406" data-name="Tracé 406" d="M113.24,85.62,70.66,83.44V35.77l46.06-.47Z" transform="translate(0 0)" style="fill:#608fdf;opacity:0.9210000038146973;isolation:isolate"/><path id="Tracé_407" data-name="Tracé 407" d="M113.68,85.62l-42.74-1.9v-48l45.78-.41Z" transform="translate(0 0)" style="fill:#608fdf;opacity:0.9309999942779541;isolation:isolate"/><path id="Tracé_408" data-name="Tracé 408" d="M114.11,85.62,71.21,84V35.66l45.5-.36Z" transform="translate(0 0)" style="fill:#608fdf;opacity:0.9409999847412109;isolation:isolate"/><path id="Tracé_409" data-name="Tracé 409" d="M114.55,85.62,71.49,84.26V35.6l45.23-.3Z" transform="translate(0 0)" style="fill:#608fdf;opacity:0.949999988079071;isolation:isolate"/><path id="Tracé_410" data-name="Tracé 410" d="M115,85.62,71.76,84.53v-49l45-.24Z" transform="translate(0 0)" style="fill:#608fdf;opacity:0.9599999785423279;isolation:isolate"/><path id="Tracé_411" data-name="Tracé 411" d="M115.41,85.62,72,84.8V35.48l44.68-.18Z" transform="translate(0 0)" style="fill:#608fdf;opacity:0.9700000286102295;isolation:isolate"/><path id="Tracé_412" data-name="Tracé 412" d="M115.85,85.62l-43.54-.55V35.42l44.41-.12Z" transform="translate(0 0)" style="fill:#608fdf;opacity:0.9800000190734863;isolation:isolate"/><path id="Tracé_413" data-name="Tracé 413" d="M116.28,85.62l-43.7-.28v-50l44.14-.06Z" transform="translate(0 0)" style="fill:#608fdf;opacity:0.9900000095367432;isolation:isolate"/><rect id="Rectangle_10" data-name="Rectangle 10" x="72.86" y="35.3" width="43.86" height="50.31" style="fill:#608fdf"/></g><g id="Groupe_62" data-name="Groupe 62"><path id="Rectangle_11" data-name="Rectangle 11" d="M80.05,35.3h29.48a7.19,7.19,0,0,1,7.19,7.2h0V78.42a7.2,7.2,0,0,1-7.2,7.2H80.05a7.19,7.19,0,0,1-7.19-7.2h0V42.5a7.19,7.19,0,0,1,7.19-7.2Z" transform="translate(0 0)" style="fill:#23399b"/><g id="Groupe_56" data-name="Groupe 56"><rect id="Rectangle_12" data-name="Rectangle 12" x="75.96" y="67.64" width="27.76" height="1.93" style="fill:#fff"/><rect id="Rectangle_13" data-name="Rectangle 13" x="93.24" y="71.12" width="19.74" height="1.93" style="fill:#fff"/><rect id="Rectangle_14" data-name="Rectangle 14" x="75.96" y="71.12" width="8.57" height="1.93" style="fill:#fff"/><rect id="Rectangle_15" data-name="Rectangle 15" x="75.96" y="74.89" width="2.09" height="1.93" style="fill:#fff"/><rect id="Rectangle_16" data-name="Rectangle 16" x="78.74" y="74.89" width="2.09" height="1.93" style="fill:#fff"/><rect id="Rectangle_17" data-name="Rectangle 17" x="81.51" y="74.89" width="2.09" height="1.93" style="fill:#fff"/><rect id="Rectangle_18" data-name="Rectangle 18" x="84.29" y="74.89" width="4.47" height="1.93" style="fill:#fff"/><rect id="Rectangle_19" data-name="Rectangle 19" x="89.84" y="74.89" width="2.09" height="1.93" style="fill:#fff"/><rect id="Rectangle_20" data-name="Rectangle 20" x="86.52" y="71.12" width="2.09" height="1.93" style="fill:#fff"/><rect id="Rectangle_21" data-name="Rectangle 21" x="89.3" y="71.12" width="2.09" height="1.93" style="fill:#fff"/><rect id="Rectangle_22" data-name="Rectangle 22" x="92.62" y="74.89" width="9.09" height="1.93" style="fill:#fff"/></g><path id="Tracé_414" data-name="Tracé 414" d="M78.11,80a1,1,0,0,0-.92-.94.9.9,0,0,0-.78.45.88.88,0,0,0-.77-.45,1.06,1.06,0,0,0-.92,1.16l0,.14a1.5,1.5,0,0,0,.47.78l1.19,1.08,1.2-1.08a1.57,1.57,0,0,0,.47-.78A1.1,1.1,0,0,0,78.11,80Zm-2.75-.33a.53.53,0,0,0-.07.74h0a.07.07,0,0,1,0,.09.06.06,0,0,1-.09,0,.65.65,0,0,1,.09-.92.07.07,0,0,1,.09,0,.06.06,0,0,1,0,.08Z" transform="translate(0 0)" style="fill:#59e6a8"/><g id="Groupe_57" data-name="Groupe 57"><path id="Tracé_415" data-name="Tracé 415" d="M80.7,80.25a.44.44,0,0,0,.27-.09.31.31,0,0,0,.11-.26.31.31,0,0,0-.09-.22.3.3,0,0,0-.24-.09.51.51,0,0,0-.17,0,.23.23,0,0,0-.1.07.75.75,0,0,0-.07.12s0,.1-.07.14a.09.09,0,0,1-.06.06l-.1,0a.19.19,0,0,1-.17-.2.32.32,0,0,1,0-.19.65.65,0,0,1,.15-.18.89.89,0,0,1,.25-.14,1,1,0,0,1,.34,0,1,1,0,0,1,.3,0,.58.58,0,0,1,.23.13.53.53,0,0,1,.2.43.5.5,0,0,1-.07.29.93.93,0,0,1-.21.23,1.25,1.25,0,0,1,.22.16.66.66,0,0,1,.14.2.67.67,0,0,1,0,.24.8.8,0,0,1-.06.3.72.72,0,0,1-.18.25.81.81,0,0,1-.28.17.92.92,0,0,1-.36.07.86.86,0,0,1-.36-.08.68.68,0,0,1-.26-.18A.69.69,0,0,1,80,81.3a.41.41,0,0,1,0-.19.21.21,0,0,1,.22-.22.16.16,0,0,1,.09,0,.13.13,0,0,1,.06.07,1.11,1.11,0,0,0,.18.34.38.38,0,0,0,.28.12.46.46,0,0,0,.2,0,.41.41,0,0,0,.16-.16.49.49,0,0,0,0-.54.46.46,0,0,0-.3-.11H80.6a.24.24,0,0,1-.14,0,.13.13,0,0,1,0-.13.14.14,0,0,1,.06-.13.35.35,0,0,1,.18,0Z" transform="translate(0 0)" style="fill:#fff"/><path id="Tracé_416" data-name="Tracé 416" d="M82.43,80.41a.58.58,0,0,1,.24-.2.66.66,0,0,1,.3-.07.7.7,0,0,1,.53.23.76.76,0,0,1,.16.26,1,1,0,0,1,0,.74.79.79,0,0,1-.74.4.8.8,0,0,1-.8-.54,1.64,1.64,0,0,1-.11-.66A2.1,2.1,0,0,1,82,80a1.12,1.12,0,0,1,.18-.42.78.78,0,0,1,.3-.24,1,1,0,0,1,.4-.09.85.85,0,0,1,.38.09.63.63,0,0,1,.25.21.38.38,0,0,1,.08.23.21.21,0,0,1-.05.13.17.17,0,0,1-.13,0,.18.18,0,0,1-.13,0,.18.18,0,0,1-.09-.12.43.43,0,0,0-.13-.17.31.31,0,0,0-.19-.06.41.41,0,0,0-.18,0,.47.47,0,0,0-.14.14A1.21,1.21,0,0,0,82.43,80.41Zm.45,1a.35.35,0,0,0,.28-.14.67.67,0,0,0,.11-.37.8.8,0,0,0,0-.26.57.57,0,0,0-.15-.16.36.36,0,0,0-.2-.06.46.46,0,0,0-.2.05.57.57,0,0,0-.15.16.54.54,0,0,0-.06.25.61.61,0,0,0,.12.37.37.37,0,0,0,.3.16Z" transform="translate(0 0)" style="fill:#fff"/></g><g id="Groupe_58" data-name="Groupe 58"><path id="Tracé_417" data-name="Tracé 417" d="M110.92,81.5V80a1.36,1.36,0,0,1-.57.33.14.14,0,0,1-.12-.06.16.16,0,0,1-.06-.13.14.14,0,0,1,.06-.12l.19-.1a1.55,1.55,0,0,0,.32-.2,1.21,1.21,0,0,0,.21-.24,1.83,1.83,0,0,1,.13-.16.17.17,0,0,1,.1,0,.21.21,0,0,1,.15.07.41.41,0,0,1,0,.19v1.91c0,.22-.08.34-.23.34a.24.24,0,0,1-.16-.07A.31.31,0,0,1,110.92,81.5Z" transform="translate(0 0)" style="fill:#fff"/><path id="Tracé_418" data-name="Tracé 418" d="M112.22,79.9a.66.66,0,0,1,.09-.31.69.69,0,0,1,.27-.24,1,1,0,0,1,.42-.09,1.48,1.48,0,0,1,.35,0,.73.73,0,0,1,.25.15.56.56,0,0,1,.14.2.53.53,0,0,1,.05.25.6.6,0,0,1-.08.29.72.72,0,0,1-.25.21.65.65,0,0,1,.23.15.48.48,0,0,1,.14.2.63.63,0,0,1,0,.26.76.76,0,0,1-.1.39.78.78,0,0,1-.3.27,1.24,1.24,0,0,1-.47.1,1.1,1.1,0,0,1-.47-.1.71.71,0,0,1-.3-.27.75.75,0,0,1-.1-.38.62.62,0,0,1,.42-.62A.55.55,0,0,1,112.22,79.9Zm1.2,1.11a.37.37,0,0,0,0-.23.43.43,0,0,0-.15-.15.54.54,0,0,0-.22,0,.36.36,0,0,0-.28.12.37.37,0,0,0-.12.31.59.59,0,0,0,.05.23.46.46,0,0,0,.15.16.45.45,0,0,0,.42,0,.33.33,0,0,0,.15-.16A.37.37,0,0,0,113.42,81ZM113,79.58a.35.35,0,0,0-.26.1.39.39,0,0,0-.1.25.35.35,0,0,0,.1.24.31.31,0,0,0,.26.09.22.22,0,0,0,.14,0,.41.41,0,0,0,.11-.07.23.23,0,0,0,.07-.1.4.4,0,0,0,0-.32.34.34,0,0,0-.12-.12A.41.41,0,0,0,113,79.58Z" transform="translate(0 0)" style="fill:#fff"/></g><g id="Groupe_59" data-name="Groupe 59"><path id="Tracé_419" data-name="Tracé 419" d="M96.19,81.5V80a1.32,1.32,0,0,1-.57.33.16.16,0,0,1-.13-.06.19.19,0,0,1,0-.13.15.15,0,0,1,0-.12l.19-.1a1.16,1.16,0,0,0,.32-.2,1,1,0,0,0,.22-.24l.12-.16a.2.2,0,0,1,.11,0,.19.19,0,0,1,.14.07.26.26,0,0,1,0,.19v1.91c0,.22-.07.33-.22.33a.2.2,0,0,1-.17-.06A.31.31,0,0,1,96.19,81.5Z" transform="translate(0 0)" style="fill:#fff"/><path id="Tracé_420" data-name="Tracé 420" d="M98,81.34h.88a.29.29,0,0,1,.2,0,.21.21,0,0,1,.07.15.2.2,0,0,1-.06.14.18.18,0,0,1-.16,0H97.71a.26.26,0,0,1-.2-.07.24.24,0,0,1-.07-.16.49.49,0,0,1,0-.16.54.54,0,0,1,.1-.16l.4-.4.25-.21a1.1,1.1,0,0,0,.23-.2.56.56,0,0,0,.14-.2.46.46,0,0,0,0-.2.45.45,0,0,0,0-.19.44.44,0,0,0-.14-.13.45.45,0,0,0-.19-.05.39.39,0,0,0-.35.2.69.69,0,0,0-.05.13.56.56,0,0,1-.09.17.18.18,0,0,1-.15.07.2.2,0,0,1-.14-.06.25.25,0,0,1,0-.15.69.69,0,0,1,0-.24.73.73,0,0,1,.16-.23.63.63,0,0,1,.26-.16.94.94,0,0,1,.37-.07,1.22,1.22,0,0,1,.43.08.8.8,0,0,1,.21.15.64.64,0,0,1,.14.22.7.7,0,0,1,.05.25.72.72,0,0,1-.1.38,1.39,1.39,0,0,1-.21.27l-.36.3a2.11,2.11,0,0,0-.35.32Z" transform="translate(0 0)" style="fill:#fff"/><path id="Tracé_421" data-name="Tracé 421" d="M100.88,79.69h-.8l-.1.54a1,1,0,0,1,.44-.12.77.77,0,0,1,.3.06.75.75,0,0,1,.41.41.91.91,0,0,1,0,.76.77.77,0,0,1-.31.31,1,1,0,0,1-1,0,.69.69,0,0,1-.26-.25.46.46,0,0,1-.08-.25.21.21,0,0,1,0-.13.2.2,0,0,1,.14-.06.23.23,0,0,1,.21.17.58.58,0,0,0,.18.23.44.44,0,0,0,.25.08.39.39,0,0,0,.23-.07.38.38,0,0,0,.15-.18.59.59,0,0,0,0-.27.62.62,0,0,0,0-.27.44.44,0,0,0-.16-.17.37.37,0,0,0-.21-.06.45.45,0,0,0-.2,0l-.18.12a.37.37,0,0,1-.19.09.2.2,0,0,1-.15-.06.16.16,0,0,1-.06-.13.43.43,0,0,1,0-.12l.14-.8a.32.32,0,0,1,.08-.21.27.27,0,0,1,.21-.06h.88c.18,0,.27.06.27.2a.21.21,0,0,1-.07.14A.27.27,0,0,1,100.88,79.69Z" transform="translate(0 0)" style="fill:#fff"/></g><path id="Tracé_422" data-name="Tracé 422" d="M108.21,79.05h-2.49a.48.48,0,0,0-.48.47V81a.49.49,0,0,0,.47.48v.69l1-.69h1.5a.47.47,0,0,0,.47-.48V79.52A.47.47,0,0,0,108.21,79.05ZM108.1,81h-2.27v-.26h2.27Zm0-.55h-2.27v-.26h2.27Zm0-.55h-2.27v-.26h2.27Z" transform="translate(0 0)" style="fill:#59e6a8"/><g id="Groupe_60" data-name="Groupe 60"><path id="Tracé_423" data-name="Tracé 423" d="M91.46,79.05a1.81,1.81,0,1,0,2.7,1.58h0A3.34,3.34,0,0,0,91.46,79.05Zm.08,2.83a1.25,1.25,0,0,1-1.33-1.17,1.26,1.26,0,1,1,2.51-.16v.16a1.25,1.25,0,0,1-1.17,1.17Zm0-.4a.86.86,0,1,1,.8-.91v.11a.87.87,0,0,1-.8.81Z" transform="translate(0 0)" style="fill:#59e6a8"/></g><path id="Tracé_424" data-name="Tracé 424" d="M108.78,51.83a14,14,0,1,1-14-14,14,14,0,0,1,14,14Z" transform="translate(0 0)" style="fill:#bae6d3"/><g id="Groupe_61" data-name="Groupe 61"><circle id="Ellipse_1" data-name="Ellipse 1" cx="94.69" cy="46.59" r="3.91" style="fill:#59e6a8"/><path id="Tracé_425" data-name="Tracé 425" d="M101.93,59.1c0,2.43-3.27,2.67-7.23,2.67s-7-.24-7-2.55c0-3.75,3.21-5.93,7.18-5.93S101.93,55.35,101.93,59.1Z" transform="translate(0 0)" style="fill:#59e6a8"/></g></g></g><g id="Groupe_65" data-name="Groupe 65"><path id="Tracé_426" data-name="Tracé 426" d="M121.57,11H83.18a1.69,1.69,0,0,0-1.69,1.69h0V22.86a1.69,1.69,0,0,0,1.69,1.69h0l2,3.3,2-3.3h34.3a1.69,1.69,0,0,0,1.69-1.69h0V12.72A1.69,1.69,0,0,0,121.57,11Z" transform="translate(0 0)" style="fill:#608fdf;opacity:0.5;isolation:isolate"/><path id="Tracé_427" data-name="Tracé 427" d="M119.49,9.36H81.1a1.69,1.69,0,0,0-1.69,1.69h0V21.2a1.69,1.69,0,0,0,1.69,1.69h0l2,3.3,2-3.3h34.3a1.69,1.69,0,0,0,1.69-1.69h0V11.05A1.69,1.69,0,0,0,119.49,9.36Z" transform="translate(0 0)" style="fill:#b3cbf9"/><rect id="Rectangle_23" data-name="Rectangle 23" x="94.62" y="11.26" width="23.21" height="0.65" style="fill:#fff"/><rect id="Rectangle_24" data-name="Rectangle 24" x="94.62" y="13.17" width="23.21" height="0.65" style="fill:#fff"/><rect id="Rectangle_25" data-name="Rectangle 25" x="94.62" y="15.07" width="23.21" height="0.65" style="fill:#fff"/><rect id="Rectangle_26" data-name="Rectangle 26" x="94.62" y="16.98" width="23.21" height="0.65" style="fill:#fff"/><rect id="Rectangle_27" data-name="Rectangle 27" x="94.62" y="18.89" width="23.21" height="0.65" style="fill:#fff"/><rect id="Rectangle_28" data-name="Rectangle 28" x="94.62" y="20.8" width="23.21" height="0.65" style="fill:#fff"/><g id="Groupe_64" data-name="Groupe 64"><path id="Tracé_428" data-name="Tracé 428" d="M85.63,17.87a1.1,1.1,0,1,0,.53,1.47A1.1,1.1,0,0,0,85.63,17.87Z" transform="translate(0 0)" style="fill:#608fdf"/><path id="Tracé_429" data-name="Tracé 429" d="M84.66,17.88a1.58,1.58,0,0,1,.31-.09,1.1,1.1,0,0,0,.9,1.91,1.1,1.1,0,0,1-1.48-1.64,1.27,1.27,0,0,1,.27-.18Z" transform="translate(0 0)" style="fill:#23399b"/><path id="Tracé_430" data-name="Tracé 430" d="M88.34,11.82a.65.65,0,1,0,.48.8.65.65,0,0,0-.48-.8Z" transform="translate(0 0)" style="fill:#608fdf"/><path id="Tracé_431" data-name="Tracé 431" d="M88.34,11.82l-.1,0a.65.65,0,0,1,0,.93.67.67,0,0,1-.52.18.61.61,0,0,0,.31.18.65.65,0,0,0,.35-1.26Z" transform="translate(0 0)" style="fill:#23399b"/><path id="Tracé_432" data-name="Tracé 432" d="M88,12.83A2.5,2.5,0,0,0,84.71,14l-.4.85a1.74,1.74,0,0,1-1.16.94l-.22,0a.88.88,0,0,0-.66,1.07.86.86,0,0,0,.48.6l5,2.34a.89.89,0,0,0,1.18-.42h0a.92.92,0,0,0,0-.76l-.1-.2a1.79,1.79,0,0,1,0-1.47l.41-.86A2.5,2.5,0,0,0,88,12.83Z" transform="translate(0 0)" style="fill:#608fdf"/><path id="Tracé_433" data-name="Tracé 433" d="M90.84,12.32A2.14,2.14,0,1,0,89,16.19a2.14,2.14,0,0,0,1.82-3.87Z" transform="translate(0 0)" style="fill:#59e6a8"/><path id="Tracé_434" data-name="Tracé 434" d="M88.53,12.64a2.14,2.14,0,0,0,3.26,2.66,2.14,2.14,0,0,1-3.73-2.09A2,2,0,0,1,88.53,12.64Z" transform="translate(0 0)" style="fill:#59e6a8"/><path id="Tracé_435" data-name="Tracé 435" d="M90.28,13.27l-.4.12a.16.16,0,0,0-.09.2.15.15,0,0,0,.18.09l.07,0L89.43,15a.14.14,0,0,0,.08.19.15.15,0,0,0,.19-.07l.76-1.6a.16.16,0,0,0-.07-.2.14.14,0,0,0-.11,0Z" transform="translate(0 0)" style="fill:#e3faff"/></g></g><g id="Groupe_72" data-name="Groupe 72"><g id="Groupe_66" data-name="Groupe 66" style="opacity:0.5"><path id="Tracé_436" data-name="Tracé 436" d="M1.24,100.17l69.67,16.91V103L45.59,76.35Z" transform="translate(0 0)" style="fill:#23399b;fill-opacity:0"/><path id="Tracé_437" data-name="Tracé 437" d="M1.24,100.17l69.42,16.74v-14.2L45.15,76.35Z" transform="translate(0 0)" style="fill:#23399b;opacity:0.009999999776482582;isolation:isolate"/><path id="Tracé_438" data-name="Tracé 438" d="M1.24,100.17l69.17,16.57V102.45l-25.7-26.1Z" transform="translate(0 0)" style="fill:#23399b;opacity:0.019999999552965164;isolation:isolate"/><path id="Tracé_439" data-name="Tracé 439" d="M1.24,100.17l68.92,16.4V102.18L44.27,76.35Z" transform="translate(0 0)" style="fill:#23399b;opacity:0.029999999329447746;isolation:isolate"/><path id="Tracé_440" data-name="Tracé 440" d="M1.24,100.17l68.67,16.24V101.92L43.83,76.35Z" transform="translate(0 0)" style="fill:#23399b;opacity:0.03999999910593033;isolation:isolate"/><path id="Tracé_441" data-name="Tracé 441" d="M1.24,100.17l68.42,16.07V101.66L43.39,76.35Z" transform="translate(0 0)" style="fill:#23399b;opacity:0.05000000074505806;isolation:isolate"/><path id="Tracé_442" data-name="Tracé 442" d="M1.24,100.17l68.17,15.9V101.39L43,76.35Z" transform="translate(0 0)" style="fill:#23399b;opacity:0.05900000035762787;isolation:isolate"/><path id="Tracé_443" data-name="Tracé 443" d="M1.24,100.17,69.16,115.9V101.13L42.51,76.35Z" transform="translate(0 0)" style="fill:#23399b;opacity:0.0689999982714653;isolation:isolate"/><path id="Tracé_444" data-name="Tracé 444" d="M1.24,100.17l67.67,15.57V100.87L42.07,76.35Z" transform="translate(0 0)" style="fill:#23399b;opacity:0.07900000363588333;isolation:isolate"/><path id="Tracé_445" data-name="Tracé 445" d="M1.24,100.17l67.41,15.4v-15l-27-24.25Z" transform="translate(0 0)" style="fill:#23399b;opacity:0.08900000154972076;isolation:isolate"/><path id="Tracé_446" data-name="Tracé 446" d="M1.24,100.17,68.4,115.4V100.34l-27.2-24Z" transform="translate(0 0)" style="fill:#23399b;opacity:0.0989999994635582;isolation:isolate"/><path id="Tracé_447" data-name="Tracé 447" d="M1.24,100.17l66.91,15.06V100.07L40.75,76.35Z" transform="translate(0 0)" style="fill:#23399b;opacity:0.10899999737739563;isolation:isolate"/><path id="Tracé_448" data-name="Tracé 448" d="M1.24,100.17l66.66,14.9V99.81L40.32,76.35Z" transform="translate(0 0)" style="fill:#23399b;opacity:0.11900000274181366;isolation:isolate"/><path id="Tracé_449" data-name="Tracé 449" d="M1.24,100.17,67.65,114.9V99.55L39.88,76.35Z" transform="translate(0 0)" style="fill:#23399b;opacity:0.1289999932050705;isolation:isolate"/><path id="Tracé_450" data-name="Tracé 450" d="M1.24,100.17,67.4,114.73V99.28l-28-22.93Z" transform="translate(0 0)" style="fill:#23399b;opacity:0.13899999856948853;isolation:isolate"/><path id="Tracé_451" data-name="Tracé 451" d="M1.24,100.17l65.91,14.4V99L39,76.35Z" transform="translate(0 0)" style="fill:#23399b;opacity:0.14900000393390656;isolation:isolate"/><path id="Tracé_452" data-name="Tracé 452" d="M1.24,100.17,66.9,114.4V98.76L38.56,76.35Z" transform="translate(0 0)" style="fill:#23399b;opacity:0.15800000727176666;isolation:isolate"/><path id="Tracé_453" data-name="Tracé 453" d="M1.24,100.17l65.41,14.06V98.49L38.12,76.35Z" transform="translate(0 0)" style="fill:#23399b;opacity:0.1679999977350235;isolation:isolate"/><path id="Tracé_454" data-name="Tracé 454" d="M1.24,100.17l65.16,13.9V98.23L37.68,76.35Z" transform="translate(0 0)" style="fill:#23399b;opacity:0.17800000309944153;isolation:isolate"/><path id="Tracé_455" data-name="Tracé 455" d="M1.24,100.17l64.91,13.72V98L37.25,76.35Z" transform="translate(0 0)" style="fill:#23399b;opacity:0.18799999356269836;isolation:isolate"/><path id="Tracé_456" data-name="Tracé 456" d="M1.24,100.17,65.9,113.73v-16L36.81,76.35Z" transform="translate(0 0)" style="fill:#23399b;opacity:0.1979999989271164;isolation:isolate"/><path id="Tracé_457" data-name="Tracé 457" d="M1.24,100.17l64.41,13.39V97.44L36.37,76.35Z" transform="translate(0 0)" style="fill:#23399b;opacity:0.20800000429153442;isolation:isolate"/><path id="Tracé_458" data-name="Tracé 458" d="M1.24,100.17l64.15,13.22V97.17L35.93,76.35Z" transform="translate(0 0)" style="fill:#23399b;opacity:0.21799999475479126;isolation:isolate"/><path id="Tracé_459" data-name="Tracé 459" d="M1.24,100.17l63.9,13V96.91L35.48,76.35Z" transform="translate(0 0)" style="fill:#23399b;opacity:0.2280000001192093;isolation:isolate"/><path id="Tracé_460" data-name="Tracé 460" d="M1.24,100.17l63.65,12.89V96.65L35.05,76.35Z" transform="translate(0 0)" style="fill:#23399b;opacity:0.23800000548362732;isolation:isolate"/><path id="Tracé_461" data-name="Tracé 461" d="M1.24,100.17l63.4,12.72V96.38l-30-20Z" transform="translate(0 0)" style="fill:#23399b;opacity:0.24799999594688416;isolation:isolate"/><path id="Tracé_462" data-name="Tracé 462" d="M1.24,100.17l63.15,12.55V96.12L34.17,76.35Z" transform="translate(0 0)" style="fill:#23399b;opacity:0.25699999928474426;isolation:isolate"/><path id="Tracé_463" data-name="Tracé 463" d="M1.24,100.17l62.9,12.39V95.86L33.73,76.35Z" transform="translate(0 0)" style="fill:#23399b;opacity:0.2669999897480011;isolation:isolate"/><path id="Tracé_464" data-name="Tracé 464" d="M1.24,100.17l62.65,12.22V95.59L33.29,76.34Z" transform="translate(0 0)" style="fill:#23399b;opacity:0.2770000100135803;isolation:isolate"/><path id="Tracé_465" data-name="Tracé 465" d="M1.24,100.17l62.4,12V95.33l-30.79-19Z" transform="translate(0 0)" style="fill:#23399b;opacity:0.28700000047683716;isolation:isolate"/><path id="Tracé_466" data-name="Tracé 466" d="M1.24,100.17l62.15,11.88v-17l-31-18.72Z" transform="translate(0 0)" style="fill:#23399b;opacity:0.296999990940094;isolation:isolate"/><path id="Tracé_467" data-name="Tracé 467" d="M1.24,100.17l61.9,11.72V94.8L32,76.35Z" transform="translate(0 0)" style="fill:#23399b;opacity:0.3070000112056732;isolation:isolate"/><path id="Tracé_468" data-name="Tracé 468" d="M1.24,100.17l61.65,11.55V94.54L31.54,76.35Z" transform="translate(0 0)" style="fill:#23399b;opacity:0.31700000166893005;isolation:isolate"/><path id="Tracé_469" data-name="Tracé 469" d="M1.24,100.17l61.4,11.38V94.27L31.1,76.35Z" transform="translate(0 0)" style="fill:#23399b;opacity:0.3269999921321869;isolation:isolate"/><path id="Tracé_470" data-name="Tracé 470" d="M1.24,100.17l61.15,11.21V94L30.66,76.35Z" transform="translate(0 0)" style="fill:#23399b;opacity:0.3370000123977661;isolation:isolate"/><path id="Tracé_471" data-name="Tracé 471" d="M1.24,100.17l60.9,11V93.75L30.22,76.35Z" transform="translate(0 0)" style="fill:#23399b;opacity:0.34700000286102295;isolation:isolate"/><path id="Tracé_472" data-name="Tracé 472" d="M1.24,100.17l60.65,10.88V93.48L29.78,76.35Z" transform="translate(0 0)" style="fill:#23399b;opacity:0.35600000619888306;isolation:isolate"/><path id="Tracé_473" data-name="Tracé 473" d="M1.24,100.17l60.39,10.71V93.22L29.34,76.35Z" transform="translate(0 0)" style="fill:#23399b;opacity:0.3659999966621399;isolation:isolate"/><path id="Tracé_474" data-name="Tracé 474" d="M1.24,100.17l60.14,10.54V93L28.9,76.35Z" transform="translate(0 0)" style="fill:#23399b;opacity:0.37599998712539673;isolation:isolate"/><path id="Tracé_475" data-name="Tracé 475" d="M1.24,100.17l59.89,10.38V92.69L28.46,76.35Z" transform="translate(0 0)" style="fill:#23399b;opacity:0.38600000739097595;isolation:isolate"/><path id="Tracé_476" data-name="Tracé 476" d="M1.24,100.17l59.64,10.21V92.43L28,76.35Z" transform="translate(0 0)" style="fill:#23399b;opacity:0.3959999978542328;isolation:isolate"/><path id="Tracé_477" data-name="Tracé 477" d="M1.24,100.17l59.39,10v-18L27.58,76.35Z" transform="translate(0 0)" style="fill:#23399b;opacity:0.4059999883174896;isolation:isolate"/><path id="Tracé_478" data-name="Tracé 478" d="M1.24,100.17,60.38,110V91.9L27.15,76.35Z" transform="translate(0 0)" style="fill:#23399b;opacity:0.41600000858306885;isolation:isolate"/><path id="Tracé_479" data-name="Tracé 479" d="M1.24,100.17l58.89,9.71V91.64L26.71,76.35Z" transform="translate(0 0)" style="fill:#23399b;opacity:0.4259999990463257;isolation:isolate"/><path id="Tracé_480" data-name="Tracé 480" d="M1.24,100.17l58.64,9.54V91.37l-33.61-15Z" transform="translate(0 0)" style="fill:#23399b;opacity:0.4359999895095825;isolation:isolate"/><path id="Tracé_481" data-name="Tracé 481" d="M1.24,100.17l58.39,9.37V91.11L25.83,76.35Z" transform="translate(0 0)" style="fill:#23399b;opacity:0.44600000977516174;isolation:isolate"/><path id="Tracé_482" data-name="Tracé 482" d="M1.24,100.17l58.14,9.2V90.85l-34-14.5Z" transform="translate(0 0)" style="fill:#23399b;opacity:0.45500001311302185;isolation:isolate"/><path id="Tracé_483" data-name="Tracé 483" d="M1.24,100.17l57.89,9V90.58L25,76.35Z" transform="translate(0 0)" style="fill:#23399b;opacity:0.4650000035762787;isolation:isolate"/><path id="Tracé_484" data-name="Tracé 484" d="M1.24,100.17,58.88,109V90.32l-34.37-14Z" transform="translate(0 0)" style="fill:#23399b;opacity:0.4749999940395355;isolation:isolate"/><path id="Tracé_485" data-name="Tracé 485" d="M1.24,100.17l57.39,8.7V90.06L24.07,76.35Z" transform="translate(0 0)" style="fill:#23399b;opacity:0.48500001430511475;isolation:isolate"/><path id="Tracé_486" data-name="Tracé 486" d="M1.24,100.17l57.14,8.53V89.79L23.63,76.35Z" transform="translate(0 0)" style="fill:#23399b;opacity:0.4950000047683716;isolation:isolate"/><path id="Tracé_487" data-name="Tracé 487" d="M1.24,100.17l56.88,8.37v-19L23.19,76.35Z" transform="translate(0 0)" style="fill:#23399b;opacity:0.5049999952316284;isolation:isolate"/><path id="Tracé_488" data-name="Tracé 488" d="M1.24,100.17l56.63,8.2V89.27L22.75,76.35Z" transform="translate(0 0)" style="fill:#23399b;opacity:0.5149999856948853;isolation:isolate"/><path id="Tracé_489" data-name="Tracé 489" d="M1.24,100.17l56.38,8V89L22.32,76.35Z" transform="translate(0 0)" style="fill:#23399b;opacity:0.5249999761581421;isolation:isolate"/><path id="Tracé_490" data-name="Tracé 490" d="M1.24,100.17,57.37,108V88.73L21.87,76.34Z" transform="translate(0 0)" style="fill:#23399b;opacity:0.5350000262260437;isolation:isolate"/><path id="Tracé_491" data-name="Tracé 491" d="M1.24,100.17l55.88,7.7V88.47L21.44,76.35Z" transform="translate(0 0)" style="fill:#23399b;opacity:0.5450000166893005;isolation:isolate"/><path id="Tracé_492" data-name="Tracé 492" d="M1.24,100.17l55.63,7.53V88.21L21,76.35Z" transform="translate(0 0)" style="fill:#23399b;opacity:0.5540000200271606;isolation:isolate"/><path id="Tracé_493" data-name="Tracé 493" d="M1.24,100.17l55.38,7.36V88L20.56,76.35Z" transform="translate(0 0)" style="fill:#23399b;opacity:0.5640000104904175;isolation:isolate"/><path id="Tracé_494" data-name="Tracé 494" d="M1.24,100.17l55.13,7.2V87.68L20.12,76.35Z" transform="translate(0 0)" style="fill:#23399b;opacity:0.5740000009536743;isolation:isolate"/><path id="Tracé_495" data-name="Tracé 495" d="M1.24,100.17l54.88,7V87.42L19.68,76.35Z" transform="translate(0 0)" style="fill:#23399b;opacity:0.5839999914169312;isolation:isolate"/><path id="Tracé_496" data-name="Tracé 496" d="M1.24,100.17,55.87,107V87.16L19.24,76.35Z" transform="translate(0 0)" style="fill:#23399b;opacity:0.593999981880188;isolation:isolate"/><path id="Tracé_497" data-name="Tracé 497" d="M1.24,100.17l54.38,6.7v-20L18.8,76.35Z" transform="translate(0 0)" style="fill:#23399b;opacity:0.6039999723434448;isolation:isolate"/><path id="Tracé_498" data-name="Tracé 498" d="M1.24,100.17l54.13,6.53V86.63l-37-10.28Z" transform="translate(0 0)" style="fill:#23399b;opacity:0.6140000224113464;isolation:isolate"/><path id="Tracé_499" data-name="Tracé 499" d="M1.24,100.17l53.88,6.36V86.36l-37.2-10Z" transform="translate(0 0)" style="fill:#23399b;opacity:0.6240000128746033;isolation:isolate"/><path id="Tracé_500" data-name="Tracé 500" d="M1.24,100.17l53.62,6.2V86.1L17.49,76.35Z" transform="translate(0 0)" style="fill:#23399b;opacity:0.6340000033378601;isolation:isolate"/><path id="Tracé_501" data-name="Tracé 501" d="M1.24,100.17l53.37,6V85.84L17.05,76.35Z" transform="translate(0 0)" style="fill:#23399b;opacity:0.6439999938011169;isolation:isolate"/><path id="Tracé_502" data-name="Tracé 502" d="M1.24,100.17,54.36,106V85.57L16.61,76.35Z" transform="translate(0 0)" style="fill:#23399b;opacity:0.652999997138977;isolation:isolate"/><path id="Tracé_503" data-name="Tracé 503" d="M1.24,100.17l52.87,5.69V85.31l-37.94-9Z" transform="translate(0 0)" style="fill:#23399b;opacity:0.6629999876022339;isolation:isolate"/><path id="Tracé_504" data-name="Tracé 504" d="M1.24,100.17l52.62,5.52V85.05l-38.13-8.7Z" transform="translate(0 0)" style="fill:#23399b;opacity:0.6729999780654907;isolation:isolate"/><path id="Tracé_505" data-name="Tracé 505" d="M1.24,100.17l52.37,5.35V84.78L15.29,76.35Z" transform="translate(0 0)" style="fill:#23399b;opacity:0.6830000281333923;isolation:isolate"/><path id="Tracé_506" data-name="Tracé 506" d="M1.24,100.17l52.12,5.19V84.52L14.85,76.35Z" transform="translate(0 0)" style="fill:#23399b;opacity:0.6930000185966492;isolation:isolate"/><path id="Tracé_507" data-name="Tracé 507" d="M1.24,100.17l51.87,5V84.26l-38.7-7.91Z" transform="translate(0 0)" style="fill:#23399b;opacity:0.703000009059906;isolation:isolate"/><path id="Tracé_508" data-name="Tracé 508" d="M1.24,100.17,52.86,105V84L14,76.35Z" transform="translate(0 0)" style="fill:#23399b;opacity:0.7129999995231628;isolation:isolate"/><path id="Tracé_509" data-name="Tracé 509" d="M1.24,100.17l51.37,4.68V83.73L13.53,76.35Z" transform="translate(0 0)" style="fill:#23399b;opacity:0.7229999899864197;isolation:isolate"/><path id="Tracé_510" data-name="Tracé 510" d="M1.24,100.17l51.12,4.52V83.46L13.09,76.35Z" transform="translate(0 0)" style="fill:#23399b;opacity:0.7329999804496765;isolation:isolate"/><path id="Tracé_511" data-name="Tracé 511" d="M1.24,100.17l50.87,4.35V83.2L12.66,76.35Z" transform="translate(0 0)" style="fill:#23399b;opacity:0.7429999709129333;isolation:isolate"/><path id="Tracé_512" data-name="Tracé 512" d="M1.24,100.17l50.61,4.18V82.94L12.21,76.35Z" transform="translate(0 0)" style="fill:#23399b;opacity:0.7519999742507935;isolation:isolate"/><path id="Tracé_513" data-name="Tracé 513" d="M1.24,100.17l50.36,4V82.67L11.78,76.35Z" transform="translate(0 0)" style="fill:#23399b;opacity:0.7620000243186951;isolation:isolate"/><path id="Tracé_514" data-name="Tracé 514" d="M1.24,100.17,51.35,104V82.41l-40-6.06Z" transform="translate(0 0)" style="fill:#23399b;opacity:0.7720000147819519;isolation:isolate"/><path id="Tracé_515" data-name="Tracé 515" d="M1.24,100.17l49.86,3.68V82.15l-40.2-5.8Z" transform="translate(0 0)" style="fill:#23399b;opacity:0.7820000052452087;isolation:isolate"/><path id="Tracé_516" data-name="Tracé 516" d="M1.24,100.17l49.61,3.51V81.88L10.46,76.35Z" transform="translate(0 0)" style="fill:#23399b;opacity:0.7919999957084656;isolation:isolate"/><path id="Tracé_517" data-name="Tracé 517" d="M1.24,100.17l49.36,3.34V81.62L10,76.35Z" transform="translate(0 0)" style="fill:#23399b;opacity:0.8019999861717224;isolation:isolate"/><path id="Tracé_518" data-name="Tracé 518" d="M1.24,100.17l49.11,3.18v-22l-40.77-5Z" transform="translate(0 0)" style="fill:#23399b;opacity:0.8119999766349792;isolation:isolate"/><path id="Tracé_519" data-name="Tracé 519" d="M1.24,100.17l48.86,3V81.09l-41-4.74Z" transform="translate(0 0)" style="fill:#23399b;opacity:0.8220000267028809;isolation:isolate"/><path id="Tracé_520" data-name="Tracé 520" d="M1.24,100.17,49.85,103V80.83L8.71,76.35Z" transform="translate(0 0)" style="fill:#23399b;opacity:0.8320000171661377;isolation:isolate"/><path id="Tracé_521" data-name="Tracé 521" d="M1.24,100.17l48.36,2.67V80.56L8.27,76.35Z" transform="translate(0 0)" style="fill:#23399b;opacity:0.8420000076293945;isolation:isolate"/><path id="Tracé_522" data-name="Tracé 522" d="M1.24,100.17l48.11,2.51V80.3l-41.52-4Z" transform="translate(0 0)" style="fill:#23399b;opacity:0.8510000109672546;isolation:isolate"/><path id="Tracé_523" data-name="Tracé 523" d="M1.24,100.17l47.86,2.34V80L7.39,76.35Z" transform="translate(0 0)" style="fill:#23399b;opacity:0.8610000014305115;isolation:isolate"/><path id="Tracé_524" data-name="Tracé 524" d="M1.24,100.17l47.61,2.17V79.77L7,76.35Z" transform="translate(0 0)" style="fill:#23399b;opacity:0.8709999918937683;isolation:isolate"/><path id="Tracé_525" data-name="Tracé 525" d="M1.24,100.17l47.36,2V79.51L6.51,76.35Z" transform="translate(0 0)" style="fill:#23399b;opacity:0.8809999823570251;isolation:isolate"/><path id="Tracé_526" data-name="Tracé 526" d="M1.24,100.17,48.34,102V79.25L6.06,76.35Z" transform="translate(0 0)" style="fill:#23399b;opacity:0.890999972820282;isolation:isolate"/><path id="Tracé_527" data-name="Tracé 527" d="M1.24,100.17l46.85,1.67V79L5.63,76.35Z" transform="translate(0 0)" style="fill:#23399b;opacity:0.9010000228881836;isolation:isolate"/><path id="Tracé_528" data-name="Tracé 528" d="M1.24,100.17l46.6,1.5v-23L5.19,76.35Z" transform="translate(0 0)" style="fill:#23399b;opacity:0.9110000133514404;isolation:isolate"/><path id="Tracé_529" data-name="Tracé 529" d="M1.24,100.17l46.35,1.33v-23L4.75,76.35Z" transform="translate(0 0)" style="fill:#23399b;opacity:0.9210000038146973;isolation:isolate"/><path id="Tracé_530" data-name="Tracé 530" d="M1.24,100.17l46.1,1.17V78.19l-43-1.84Z" transform="translate(0 0)" style="fill:#23399b;opacity:0.9309999942779541;isolation:isolate"/><path id="Tracé_531" data-name="Tracé 531" d="M1.24,100.17l45.85,1V77.93L3.87,76.35Z" transform="translate(0 0)" style="fill:#23399b;opacity:0.9409999847412109;isolation:isolate"/><path id="Tracé_532" data-name="Tracé 532" d="M1.24,100.17l45.6.83V77.66L3.44,76.35Z" transform="translate(0 0)" style="fill:#23399b;opacity:0.949999988079071;isolation:isolate"/><path id="Tracé_533" data-name="Tracé 533" d="M1.24,100.17l45.35.67V77.4L3,76.35Z" transform="translate(0 0)" style="fill:#23399b;opacity:0.9599999785423279;isolation:isolate"/><path id="Tracé_534" data-name="Tracé 534" d="M1.24,100.17l45.1.5V77.14L2.56,76.35Z" transform="translate(0 0)" style="fill:#23399b;opacity:0.9700000286102295;isolation:isolate"/><path id="Tracé_535" data-name="Tracé 535" d="M1.24,100.17l44.85.33V76.87l-44-.52Z" transform="translate(0 0)" style="fill:#23399b;opacity:0.9800000190734863;isolation:isolate"/><path id="Tracé_536" data-name="Tracé 536" d="M1.24,100.17l44.6.16V76.61L1.68,76.35Z" transform="translate(0 0)" style="fill:#23399b;opacity:0.9900000095367432;isolation:isolate"/><rect id="Rectangle_29" data-name="Rectangle 29" x="1.24" y="76.35" width="44.35" height="23.82" style="fill:#23399b"/></g><g id="Groupe_71" data-name="Groupe 71"><path id="Rectangle_30" data-name="Rectangle 30" d="M0,96.34H48.69v2.33a2.46,2.46,0,0,1-2.46,2.47H2.47A2.46,2.46,0,0,1,0,98.67H0V96.34Z" transform="translate(0 0)" style="fill:#608fdf"/><g id="Groupe_68" data-name="Groupe 68"><path id="Rectangle_31" data-name="Rectangle 31" d="M5.11,75.76H43.58a5.11,5.11,0,0,1,5.11,5.11h0V96.34H0V80.87a5.11,5.11,0,0,1,5.11-5.11Z" transform="translate(0 0)" style="fill:#23399b"/><g id="Groupe_67" data-name="Groupe 67"><circle id="Ellipse_2" data-name="Ellipse 2" cx="24.35" cy="86.05" r="5.43" style="fill:#59e6a8"/><path id="Tracé_537" data-name="Tracé 537" d="M22.22,83v6.18l5.3-3.09Z" transform="translate(0 0)" style="fill:#fff"/></g></g><g id="Groupe_69" data-name="Groupe 69"><rect id="Rectangle_32" data-name="Rectangle 32" x="3.03" y="98.53" width="41.18" height="0.43" style="fill:#fff"/></g><g id="Groupe_70" data-name="Groupe 70"><rect id="Rectangle_33" data-name="Rectangle 33" x="13.25" y="98.53" width="30.96" height="0.43" style="fill:#23399b"/></g><path id="Tracé_538" data-name="Tracé 538" d="M47.38,98.34a.62.62,0,0,0-.58-.59.6.6,0,0,0-.49.29.55.55,0,0,0-.47-.29.62.62,0,0,0-.58.59.6.6,0,0,0,0,.23,1,1,0,0,0,.29.49l.74.67.76-.67a1,1,0,0,0,.29-.49A.6.6,0,0,0,47.38,98.34Zm-1.47-.26a.34.34,0,0,0-.33.33s0,0,0,0a0,0,0,0,1,0,0h0a.41.41,0,0,1,.41-.41h0a0,0,0,0,1,0,0,0,0,0,0,1,0,0Z" transform="translate(0 0)" style="fill:#59e6a8"/><rect id="Rectangle_34" data-name="Rectangle 34" x="12.86" y="97.8" width="0.77" height="1.93" style="fill:#23399b"/></g></g></g></svg>