<svg xmlns="http://www.w3.org/2000/svg" xmlns:xlink="http://www.w3.org/1999/xlink" width="228.433" height="287.065" viewBox="0 0 228.433 287.065">
  <defs>
    <linearGradient id="linear-gradient" x1="1" y1="0.622" x2="0" y2="0.613" gradientUnits="objectBoundingBox">
      <stop offset="0" stop-color="#1da2f7"/>
      <stop offset="1" stop-color="#1d62f1"/>
    </linearGradient>
    <filter id="bg" x="-22.5" y="-17.5" width="273.433" height="332.065" filterUnits="userSpaceOnUse">
      <feOffset dy="5" input="SourceAlpha"/>
      <feGaussianBlur stdDeviation="7.5" result="blur"/>
      <feFlood flood-color="#5d5d5d" flood-opacity="0.184"/>
      <feComposite operator="in" in2="blur"/>
      <feComposite in="SourceGraphic"/>
    </filter>
    <filter id="Rectangle" x="-120.864" y="78.175" width="366.402" height="236.975" filterUnits="userSpaceOnUse">
      <feOffset dy="8" input="SourceAlpha"/>
      <feGaussianBlur stdDeviation="7.5" result="blur-2"/>
      <feFlood flood-color="#e7eaf0"/>
      <feComposite operator="in" in2="blur-2"/>
      <feComposite in="SourceGraphic"/>
    </filter>
    <linearGradient id="linear-gradient-2" x1="0.5" y1="0" x2="0.5" y2="1" xlink:href="#linear-gradient"/>
    <filter id="Rectangle-2" x="-120.864" y="78.175" width="371.907" height="236.975" filterUnits="userSpaceOnUse">
      <feOffset dy="8" input="SourceAlpha"/>
      <feGaussianBlur stdDeviation="7.5" result="blur-3"/>
      <feFlood flood-color="#e7eaf0"/>
      <feComposite operator="in" in2="blur-3"/>
      <feComposite in="SourceGraphic"/>
    </filter>
    <clipPath id="clip-path">
      <g transform="matrix(1, 0, 0, 1, 0, 0)" filter="url(#bg)">
        <path id="bg-2" data-name="bg" d="M12,0H216.433a12,12,0,0,1,12,12V275.065a12,12,0,0,1-12,12H12a12,12,0,0,1-12-12V12A12,12,0,0,1,12,0Z" transform="translate(37 38.11)" fill="url(#linear-gradient)"/>
      </g>
    </clipPath>
    <filter id="bg-3" x="-22.5" y="-17.5" width="273.433" height="332.065" filterUnits="userSpaceOnUse">
      <feOffset dy="5" input="SourceAlpha"/>
      <feGaussianBlur stdDeviation="7.5" result="blur-4"/>
      <feFlood flood-color="#5d5d5d" flood-opacity="0.184"/>
      <feComposite operator="in" in2="blur-4"/>
      <feComposite in="SourceGraphic"/>
    </filter>
    <clipPath id="clip-path-2">
      <g transform="matrix(1, 0, 0, 1, 0, 0)" filter="url(#Rectangle)">
        <path id="Rectangle-3" data-name="Rectangle" d="M0,0H321.4V191.975H0Z" transform="translate(0 0)" fill="#6a6a6a"/>
      </g>
    </clipPath>
    <clipPath id="clip-path-3">
      <path id="Path_26865" data-name="Path 26865" d="M5.842,0H303.767a5.771,5.771,0,0,1,5.842,5.7V208.883a5.771,5.771,0,0,1-5.842,5.7H5.842A5.771,5.771,0,0,1,0,208.883V5.7A5.771,5.771,0,0,1,5.842,0Z" fill="url(#linear-gradient-2)"/>
    </clipPath>
    <filter id="Path_26866" x="147.9" y="203.386" width="42.535" height="65.253" filterUnits="userSpaceOnUse">
      <feOffset dx="3" dy="4" input="SourceAlpha"/>
      <feGaussianBlur stdDeviation="5" result="blur-5"/>
      <feFlood flood-color="#fff" flood-opacity="0.161"/>
      <feComposite operator="in" in2="blur-5"/>
      <feComposite in="SourceGraphic"/>
    </filter>
    <clipPath id="clip-path-4">
      <g transform="matrix(1, 0, 0, 1, 0, 0)" filter="url(#Rectangle-2)">
        <path id="Rectangle-4" data-name="Rectangle" d="M0,0H326.907V191.975H0Z" fill="url(#linear-gradient-2)"/>
      </g>
    </clipPath>
  </defs>
  <g id="Group_14710" data-name="Group 14710" transform="translate(-303 -38.109)">
    <g id="Mask_Group_86" data-name="Mask Group 86" transform="translate(266)" clip-path="url(#clip-path)">
      <g id="Group_14686" data-name="Group 14686">
        <g id="Group_14681" data-name="Group 14681" transform="translate(-1515 -217)">
          <g id="Group_14680" data-name="Group 14680" transform="translate(1530 -81)">
            <g transform="matrix(1, 0, 0, 1, 22, 336.11)" filter="url(#bg-3)">
              <path id="bg-4" data-name="bg" d="M12,0H216.433a12,12,0,0,1,12,12V275.065a12,12,0,0,1-12,12H12a12,12,0,0,1-12-12V12A12,12,0,0,1,12,0Z" fill="#e0e0e0"/>
            </g>
            <g id="Group_14679" data-name="Group 14679" transform="translate(42 384.124)">
              <text id="Ma_Carrière" data-name="Ma
Carrière" transform="translate(1 -16.124)" fill="#9f9f9f" font-size="25" font-family="Muli-Bold, Muli" font-weight="700"><tspan x="0" y="25">Ma</tspan><tspan x="0" y="56">Carrière</tspan></text>
            </g>
          </g>
        </g>
        <g id="Group_14685" data-name="Group 14685" transform="translate(359.858 152.811)">
          <g id="Group_14684" data-name="Group 14684" transform="translate(-421.222 -40.849)">
            <g id="Mask_Group_84" data-name="Mask Group 84" transform="translate(18.148)" clip-path="url(#clip-path-3)">
              <path id="Path_26864" data-name="Path 26864" d="M1326.236,643.755s7.366,14.37,12.114,26.141c3.808,9.44,16.943,34.291,2.774,46.029-2.953,2.451-18.669,15.456-23.261,17.81-23.2,11.887-85.6,4.821-66.559,11.676s142.362,0,142.362,0l22.153-23.165L1382.2,724.3s-27.3-47.435-31.876-58.826-9.2-24.135-9.2-24.135Z" transform="translate(-1094.413 -524.864)" fill="#fff" stroke="#fff" stroke-width="1"/>
              <ellipse id="Ellipse_592" data-name="Ellipse 592" cx="44.146" cy="36.932" rx="44.146" ry="36.932" transform="translate(141.853 182.199)" fill="#fff"/>
              <ellipse id="Ellipse_593" data-name="Ellipse 593" cx="33.551" cy="32.008" rx="33.551" ry="32.008" transform="translate(208.956 192.047)" fill="#fff"/>
              <ellipse id="Ellipse_594" data-name="Ellipse 594" cx="43.558" cy="36.932" rx="43.558" ry="36.932" transform="translate(272.526 163.733)" fill="#fff"/>
              <ellipse id="Ellipse_595" data-name="Ellipse 595" cx="34.728" cy="32.623" rx="34.728" ry="32.623" transform="translate(192.474 182.199)" fill="#fff" opacity="0.518"/>
            </g>
            <g transform="matrix(1, 0, 0, 1, 98.36, -73.85)" filter="url(#Path_26866)">
              <path id="Path_26866-2" data-name="Path 26866" d="M1294.106,661.86c2.663,8.782,11.546,28,11.546,28v-5.094l-1.669-8.517L1295,654.733S1291.443,653.078,1294.106,661.86Z" transform="translate(-1133.22 -440.22)" fill="#fcfcfc" opacity="0.838"/>
            </g>
            <path id="Path_26867" data-name="Path 26867" d="M1299.83,653.23s1.941-6.34,6.242,1.657,10.961,30.328,10.961,30.328Z" transform="translate(-1028.158 -515.819)" fill="#fff" opacity="0.737"/>
            <g id="rocket" transform="translate(184.395 117.828) rotate(-65)">
              <path id="Path_26868" data-name="Path 26868" d="M10.1,40.6a1.53,1.53,0,0,0,.232-.06l.039-.013a1.593,1.593,0,0,0,.23-.1l.008,0,.034-.021c.032-.019.064-.038.095-.06s.042-.031.062-.046.045-.034.067-.053.051-.046.077-.071l.034-.031L11,40.114l0,0C34.939,15.622,31.672,1.883,31.521,1.31A1.723,1.723,0,0,0,29.464.049a1.671,1.671,0,0,0-1.18,2.071c.007.027-25.15,21.326-25.15,21.326a1.686,1.686,0,0,0-2.289-.7,1.706,1.706,0,0,0-.622,2.322L8.3,39.687l0,0,.018.032c0,.007.009.013.013.019a1.671,1.671,0,0,0,.1.156c.011.016.022.032.034.047a1.813,1.813,0,0,0,.124.146l.014.016s.008.006.012.011a1.694,1.694,0,0,0,.173.15l.045.034a1.777,1.777,0,0,0,.2.126l.027.013a1.683,1.683,0,0,0,.216.091l.02.007a1.615,1.615,0,0,0,.232.057l.046.007a1.639,1.639,0,0,0,.233.019h.035a1.625,1.625,0,0,0,.217-.018Z" transform="translate(36.766 56.374)" fill="#9f9f9f"/>
              <path id="Path_26869" data-name="Path 26869" d="M17.491,31.6a1.763,1.763,0,0,0-.682-2.339S37.658,3.542,37.688,3.55l-.022-.006.791-3.31C37.9.08,24.455-3.254.5,21.219l0,0-.024.025c-.011.012-.02.023-.031.035s-.047.051-.069.078-.034.045-.051.068-.031.042-.045.063-.04.064-.058.1c-.006.012-.014.023-.021.035l0,.008a1.645,1.645,0,0,0-.1.234l-.014.042a1.656,1.656,0,0,0-.058.236c0,.014,0,.027-.005.041A1.682,1.682,0,0,0,0,22.4c0,.013,0,.025,0,.038a1.74,1.74,0,0,0,.019.237c0,.016,0,.032.007.048a1.791,1.791,0,0,0,.056.237l.007.021a1.769,1.769,0,0,0,.089.22l.013.027a1.776,1.776,0,0,0,.123.207l.033.046A1.858,1.858,0,0,0,.5,23.66l.01.012.016.014a1.844,1.844,0,0,0,.143.127l.046.034a1.6,1.6,0,0,0,.153.1l.019.013.032.018,0,0,14.3,8.248A1.631,1.631,0,0,0,17.491,31.6Z" transform="translate(0 26.967)" fill="#9f9f9f"/>
              <path id="Path_26870" data-name="Path 26870" d="M.507,67.732A1.767,1.767,0,0,1,.1,65.907C4.367,54.045,21,32.895,30.861,22.809,46.623,6.694,63.579-.748,82.7.059a1.751,1.751,0,0,1,1.65,1.686c.8,19.54-6.48,36.873-22.243,52.989C52.24,64.82,31.552,81.823,19.948,86.187a1.676,1.676,0,0,1-1.786-.415Z" transform="translate(10.481 0)" fill="#c5c5c5"/>
              <path id="Path_26871" data-name="Path 26871" d="M83.841,1.741A1.751,1.751,0,0,0,82.191.055C81.15.011,80.116,0,79.088,0c-.08,18.251-7.393,34.579-22.3,49.817C46.927,59.9,26.239,76.907,14.635,81.27a1.675,1.675,0,0,1-1.785-.414L0,67.726H0l17.656,18.04a1.676,1.676,0,0,0,1.786.415C31.046,81.819,51.734,64.815,61.6,54.73,77.361,38.614,84.637,21.282,83.841,1.741Z" transform="translate(10.986 0.004)" fill="#9f9f9f"/>
              <path id="Path_26872" data-name="Path 26872" d="M3.743,0A51.768,51.768,0,0,0,.1,7.631,1.767,1.767,0,0,0,.507,9.455L18.163,27.5a1.677,1.677,0,0,0,1.785.415,49.69,49.69,0,0,0,7.464-3.725Z" transform="translate(10.481 58.276)" fill="#979797"/>
              <g id="Group_14682" data-name="Group 14682" transform="translate(12.205 67.292)">
                <path id="Path_26873" data-name="Path 26873" d="M3.542.518A1.652,1.652,0,0,0,1.17.487L0,1.683,2.4,4.138l1.17-1.2A1.742,1.742,0,0,0,3.542.518Z" transform="translate(6.409 6.549)" fill="#c5c5c5"/>
                <path id="Path_26874" data-name="Path 26874" d="M3.542.518A1.652,1.652,0,0,0,1.17.487L0,1.683,2.4,4.139l1.17-1.2A1.741,1.741,0,0,0,3.542.518Z" transform="translate(0 0)" fill="#c5c5c5"/>
              </g>
              <g id="Group_14683" data-name="Group 14683" transform="translate(38.772 22.221)">
                <path id="Path_26875" data-name="Path 26875" d="M2.367,13.586h0A8.249,8.249,0,0,1,0,7.9a7.834,7.834,0,0,1,2.22-5.627A7.494,7.494,0,0,1,7.725,0,7.9,7.9,0,0,1,13.29,2.417,8.253,8.253,0,0,1,15.656,8.1a7.831,7.831,0,0,1-2.22,5.627,7.718,7.718,0,0,1-11.069-.146Z" transform="translate(0 19.144)" fill="#9f9f9f" stroke="#fff" stroke-width="1"/>
                <path id="Path_26876" data-name="Path 26876" d="M2.363,13.581h0A8.137,8.137,0,0,1,2.217,2.267a7.719,7.719,0,0,1,11.069.146A8.252,8.252,0,0,1,15.653,8.1a7.834,7.834,0,0,1-2.22,5.627A7.719,7.719,0,0,1,2.363,13.581Z" transform="translate(18.732 0)" fill="#9f9f9f" stroke="#fff" stroke-width="1"/>
              </g>
              <path id="Path_26877" data-name="Path 26877" d="M19.441.059A60.924,60.924,0,0,0,0,2.3L18.9,21.617A64.909,64.909,0,0,0,21.091,1.745,1.751,1.751,0,0,0,19.441.059Z" transform="translate(73.737 0)" fill="#d5d5d5"/>
              <path id="Path_26878" data-name="Path 26878" d="M20.089,18.2c.123-.049.246-.1.371-.153l.161-.067.441-.191.083-.036q.257-.114.517-.235l.183-.085.357-.169.211-.1.367-.18.189-.093q.254-.128.512-.26l.259-.135.294-.154.29-.155.27-.145.305-.166.119-.066q.365-.2.736-.412l.2-.115.373-.215.184-.107.394-.23L22.1,9.818a49.692,49.692,0,0,1-7.464,3.724,1.675,1.675,0,0,1-1.785-.414L0,0H0L17.656,18.04a1.676,1.676,0,0,0,1.786.415c.164-.062.33-.127.5-.193Z" transform="translate(10.988 67.732)" fill="#9f9f9f"/>
              <path id="Path_26879" data-name="Path 26879" d="M2.241,0A64.2,64.2,0,0,1,0,16.7l4.807,4.912q.151-.551.29-1.1l.059-.238q.4-1.623.723-3.266.039-.2.076-.4c.062-.33.122-.66.178-.992.022-.128.041-.257.062-.385q.136-.833.251-1.67c.029-.214.059-.428.086-.642q.052-.409.1-.819c.031-.268.058-.536.086-.8s.056-.561.081-.842q.054-.619.1-1.242c.014-.208.026-.417.039-.626q.03-.517.053-1.035c.008-.18.016-.36.023-.54q.027-.759.037-1.523c0-.13,0-.261,0-.391q0-.631,0-1.265c0-.155,0-.311-.006-.466-.01-.538-.023-1.078-.045-1.62A1.751,1.751,0,0,0,5.344.055C4.3.011,3.269,0,2.241,0Z" transform="translate(87.834 0.004)" fill="#9f9f9f"/>
            </g>
            <g id="Mask_Group_85" data-name="Mask Group 85" transform="translate(0 18.821)" clip-path="url(#clip-path-4)">
              <ellipse id="Ellipse_596" data-name="Ellipse 596" cx="20.911" cy="40.347" rx="20.911" ry="40.347" transform="translate(241.511 165.425)" fill="#fff" opacity="0.471"/>
              <path id="Path_26880" data-name="Path 26880" d="M29.814-.561c11.861,0,13.138,16.949,13.138,37.166S33.337,73.21,21.476,73.21,0,56.821,0,36.605a63.293,63.293,0,0,1,.352-6.632c.172-1.659.411-3.281.763-5.115C3.844,10.609,20.271-.561,29.814-.561Z" transform="translate(303.113 144.682)" fill="#fff" opacity="0.471"/>
            </g>
          </g>
        </g>
      </g>
    </g>
    <g id="Group_14687" data-name="Group 14687" transform="translate(196 -211)">
      <text id="Module_indisponible" data-name="Module indisponible" transform="translate(146 373)" fill="#9f9f9f" font-size="14" font-family="Muli-SemiBold, Muli" font-weight="600"><tspan x="0" y="0">Module indisponible</tspan></text>
      <path id="lock" d="M8.836,10a.9.9,0,0,1-.456.771v1.964H7.468V10.773A.9.9,0,0,1,7.012,10a.912.912,0,0,1,1.823,0Zm4.983-2.29v6.455a1.369,1.369,0,0,1-1.368,1.368H3.344a1.369,1.369,0,0,1-1.368-1.368V7.711A1.369,1.369,0,0,1,3.344,6.343h.022V4.531a4.559,4.559,0,0,1,9.117,0V6.347a1.366,1.366,0,0,1,1.336,1.364ZM4.277,6.343h7.294V4.531a3.647,3.647,0,1,0-7.294,0Zm8.63,1.368a.453.453,0,0,0-.424-.449v0H3.365v-.01H3.344a.457.457,0,0,0-.456.456v6.455a.457.457,0,0,0,.456.456h9.107a.457.457,0,0,0,.456-.456V7.711Z" transform="translate(126.024 360.028)" fill="#9f9f9f"/>
    </g>
  </g>
</svg>
