<svg id="Calque_1" data-name="Calque 1" xmlns="http://www.w3.org/2000/svg" viewBox="0 0 100.44 156.69"><title>softskills</title><g id="Groupe_75" data-name="Groupe 75"><g id="Groupe_11270" data-name="Groupe 11270"><g id="Groupe_39" data-name="Groupe 39"><rect id="Rectangle_3" data-name="Rectangle 3" x="52.34" y="52.2" width="2.69" height="42.16" style="fill:#23399b"/><rect id="Rectangle_4" data-name="Rectangle 4" x="-7.36" y="50.24" width="96.31" height="2.41" transform="translate(-15.07 85.94) rotate(-83.29)" style="fill:#101e41"/><rect id="Rectangle_5" data-name="Rectangle 5" x="63.05" y="4.05" width="2.41" height="96.31" transform="translate(-10.03 15.65) rotate(-12.9)" style="fill:#101e41"/><path id="Tracé_248" data-name="Tracé 248" d="M36.53,60.49h41.9L68.15,2.18H26.25Z" transform="translate(0 0)" style="fill:#fff"/><path id="Tracé_249" data-name="Tracé 249" d="M40.84,55.8H72.46L63.84,6.87H32.21Z" transform="translate(0 0)" style="fill:#dee9fd"/><path id="Tracé_250" data-name="Tracé 250" d="M25.62,4.36H69.18a2.19,2.19,0,0,0,2.18-2.18h0A2.19,2.19,0,0,0,69.18,0H25.62a2.19,2.19,0,0,0-2.18,2.18h0A2.19,2.19,0,0,0,25.62,4.36Z" transform="translate(0 0)" style="fill:#101e41"/><path id="Rectangle_6" data-name="Rectangle 6" d="M78.62,62.1H37.09a1.45,1.45,0,0,1-1.45-1.45h0a1.44,1.44,0,0,1,1.45-1.44H78.62a1.44,1.44,0,0,1,1.45,1.44h0a1.46,1.46,0,0,1-1.44,1.45Z" transform="translate(0 0)" style="fill:#608fdf"/><g id="Groupe_33" data-name="Groupe 33"><path id="Tracé_251" data-name="Tracé 251" d="M61.12,26.22H41.74L39,10.67H58.38Z" transform="translate(0 0)" style="fill:#19a2ed"/><path id="Tracé_252" data-name="Tracé 252" d="M48.38,15.27A2.28,2.28,0,0,1,46.69,18a2.43,2.43,0,0,1-.6.05,3.45,3.45,0,0,1-3.26-2.77,2.26,2.26,0,0,1,1.7-2.71,1.94,1.94,0,0,1,.59-.06A3.47,3.47,0,0,1,48.38,15.27Z" transform="translate(0 0)" style="fill:#fff"/><g id="Groupe_32" data-name="Groupe 32"><path id="Tracé_253" data-name="Tracé 253" d="M44.45,24.45a.58.58,0,0,1-.41-.17.51.51,0,0,1-.07-.72l5.69-5.74,4.79,2.66,2-6.3a.45.45,0,0,1,.58-.25l.06,0a.58.58,0,0,1,.35.67l-2.32,7.29L50,19.07l-5.21,5.26A.39.39,0,0,1,44.45,24.45Z" transform="translate(0 0)" style="fill:#fff"/></g></g><g id="Groupe_38" data-name="Groupe 38"><path id="Tracé_254" data-name="Tracé 254" d="M58.2,47.62l.12.72a.91.91,0,0,1-.7,1.09l-.08,0-.07.64a.64.64,0,0,1-.68.59l-1.75,0a1,1,0,0,1-.88-.61l-.28-.65a1.43,1.43,0,0,1-1.15-1.14l-.12-.71a.56.56,0,0,1,.43-.67.38.38,0,0,1,.15,0l4.21.05A.85.85,0,0,1,58.2,47.62Z" transform="translate(0 0)" style="fill:#8883d7"/><path id="Tracé_255" data-name="Tracé 255" d="M58.2,47.62l.12.72a.92.92,0,0,1-.52,1,.55.55,0,0,0-.3.42l0,.3c0,.35-.36.83-.73.82l-1.75,0c-.37,0-.68-.49-.83-.84l-.13-.3a.84.84,0,0,0-.44-.43,1.43,1.43,0,0,1-.86-1.06l-.12-.71a.56.56,0,0,1,.43-.67.38.38,0,0,1,.15,0l4.21.05A.85.85,0,0,1,58.2,47.62Z" transform="translate(0 0)" style="fill:#19a2ed"/><path id="Tracé_256" data-name="Tracé 256" d="M59.73,37.07a5.33,5.33,0,0,1-1.47,4.14c-.66.81-.2,3.84-.18,5a.81.81,0,0,1-.79.83h-.07l-3.74,0a1.21,1.21,0,0,1-1.12-.84c-.36-1.13-.83-4-1.76-4.78-1.2-1.08-2.66-2.75-2.93-4.34-.59-3.36,2-4.08,5.34-4.06S59.18,33.73,59.73,37.07Z" transform="translate(0 0)" style="fill:#fd9068"/><g id="Groupe_34" data-name="Groupe 34"><path id="Tracé_257" data-name="Tracé 257" d="M58.23,47.78l-5.6-.13,0-.1,5.6.13Z" transform="translate(0 0)" style="fill:#fff"/></g><g id="Groupe_35" data-name="Groupe 35"><path id="Tracé_258" data-name="Tracé 258" d="M58.28,48.11,52.68,48v-.1l5.6.13Z" transform="translate(0 0)" style="fill:#fff"/></g><g id="Groupe_36" data-name="Groupe 36"><path id="Tracé_259" data-name="Tracé 259" d="M58.33,48.45l-5.6-.12v-.1l5.6.13v.09Z" transform="translate(0 0)" style="fill:#fff"/></g><path id="Tracé_260" data-name="Tracé 260" d="M55.64,43.14h0a.38.38,0,0,1-.35-.31l-.23-1.34.26-4.65-.1,0L55,41.48h-.17l0-.28h-.13L54,37.69h-.1l.65,3.51h-.16l-.6-3.52h-.1l.6,3.52h-.2l.05.28h-.17l-2.06-4.67-.09,0,2,4.64h0l.22,1.35a.25.25,0,0,1-.19.29h-.07a.25.25,0,0,0-.26.23s0,0,0,.07l.54,3.23a.38.38,0,0,0,.35.31l1.84,0a.25.25,0,0,0,.26-.24v-.06L56,43.45A.37.37,0,0,0,55.64,43.14Z" transform="translate(0 0)" style="fill:#101e41"/><g id="Groupe_37" data-name="Groupe 37"><path id="Tracé_261" data-name="Tracé 261" d="M55.22,37a.39.39,0,0,0-.29-.17.44.44,0,0,0-.23,0,.16.16,0,0,1,0,.17.15.15,0,0,1-.13,0,.14.14,0,0,1-.07-.1c0-.07.08-.1.1-.11h0a.51.51,0,0,0-.33-.28.8.8,0,0,0-.46,0l0,0a.21.21,0,0,1,0,.19.1.1,0,0,1-.12.07h0a.15.15,0,0,1-.08-.08.16.16,0,0,1,.07-.2.38.38,0,0,0-.13-.09.55.55,0,0,0-.54,0,.26.26,0,0,1,.07.1.19.19,0,0,1,0,.15s-.05.06-.08.06a.11.11,0,0,1-.11,0,.17.17,0,0,1-.07-.13.15.15,0,0,1,.06-.15.35.35,0,0,0-.26,0h0a.49.49,0,0,0-.25.17l0,0a.16.16,0,0,1,0,.15h0l-.14,0-.11-.2,0,0,0,0h0a.37.37,0,0,0-.24.1c-.08.06-.16.13-.16.22h-.07a.33.33,0,0,1,.19-.27.45.45,0,0,1,.27-.12l.07,0a.61.61,0,0,1,.29-.19h0a.45.45,0,0,1,.34,0,.6.6,0,0,1,.62,0,.5.5,0,0,1,.17.11l.06,0a.78.78,0,0,1,.5,0,.64.64,0,0,1,.4.32.49.49,0,0,1,.24,0,.47.47,0,0,1,.36.21Zm-.58-.14,0,0s-.07,0-.06.05,0,0,0,0a.06.06,0,0,0,.06,0,.11.11,0,0,0,0-.1Zm-.92-.27a.11.11,0,0,0,0,.14l0,0s.05,0,.05,0a.19.19,0,0,0,0-.13ZM53,36.48a.17.17,0,0,0-.05.12.1.1,0,0,0,0,.07l.05,0s0,0,0,0a.12.12,0,0,0,0-.1.16.16,0,0,0-.06-.08Zm-.65.17.05.1.06,0a.09.09,0,0,0,0-.07.1.1,0,0,0-.05,0Z" transform="translate(0 0)" style="fill:#fff"/></g><path id="Tracé_262" data-name="Tracé 262" d="M54,37.82h-.24a.19.19,0,0,1-.17-.15h0a.12.12,0,0,1,.09-.14h.27a.18.18,0,0,1,.17.15h0a.13.13,0,0,1-.09.14Z" transform="translate(0 0)" style="fill:#101e41"/></g></g><g id="Groupe_52" data-name="Groupe 52"><g id="Groupe_41" data-name="Groupe 41"><path id="Tracé_263" data-name="Tracé 263" d="M90,147H11.8a4.88,4.88,0,0,0,0,9.71H90v-1.43h-1.6v-6H90Z" transform="translate(0 0)" style="fill:#23399b"/><g id="Groupe_40" data-name="Groupe 40"><path id="Tracé_264" data-name="Tracé 264" d="M88.43,149.27H37.93a3,3,0,0,0,0,6h50.5Z" transform="translate(0 0)" style="fill:#fff"/></g></g><g id="Groupe_43" data-name="Groupe 43"><path id="Tracé_265" data-name="Tracé 265" d="M85.61,135.79h-81c-2.52,0-4.58,2.6-4.58,5.78s2.06,5.78,4.58,5.78h81v-1.7H84v-7.13h1.65Z" transform="translate(0 0)" style="fill:#36e0fc"/><g id="Groupe_42" data-name="Groupe 42"><path id="Tracé_266" data-name="Tracé 266" d="M84,138.52H31.68c-1.61,0-2.93,1.61-2.93,3.57s1.32,3.56,2.93,3.56H84Z" transform="translate(0 0)" style="fill:#fff"/></g></g><g id="Groupe_45" data-name="Groupe 45"><path id="Tracé_267" data-name="Tracé 267" d="M92.1,125.21h-78c-2.43,0-4.41,2.3-4.41,5.11s2,5.1,4.41,5.1h78v-1.5H90.51v-6.3H92.1Z" transform="translate(0 0)" style="fill:#23399b"/><g id="Groupe_44" data-name="Groupe 44"><path id="Tracé_268" data-name="Tracé 268" d="M90.58,127.62H40.2a3.17,3.17,0,0,0,0,6.3H90.58Z" transform="translate(0 0)" style="fill:#fff"/></g></g><g id="Groupe_47" data-name="Groupe 47"><path id="Tracé_269" data-name="Tracé 269" d="M17.87,115.75H96a4.88,4.88,0,0,1,0,9.71H17.87V124h1.6v-6h-1.6Z" transform="translate(0 0)" style="fill:#36e0fc"/><g id="Groupe_46" data-name="Groupe 46"><path id="Tracé_270" data-name="Tracé 270" d="M19.39,118.05h50.5a3,3,0,0,1,0,6H19.39Z" transform="translate(0 0)" style="fill:#36e0fc"/></g></g><g id="Groupe_49" data-name="Groupe 49"><path id="Tracé_271" data-name="Tracé 271" d="M13.37,104.56h81c2.52,0,4.58,2.6,4.58,5.78s-2.06,5.78-4.58,5.78h-81v-1.7H15v-7.13H13.37Z" transform="translate(0 0)" style="fill:#101e41"/><g id="Groupe_48" data-name="Groupe 48"><path id="Tracé_272" data-name="Tracé 272" d="M15,107.29H67.31c1.61,0,2.93,1.61,2.93,3.57s-1.32,3.57-2.93,3.57H15Z" transform="translate(0 0)" style="fill:#fff"/></g></g><g id="Groupe_51" data-name="Groupe 51"><path id="Tracé_273" data-name="Tracé 273" d="M15.72,94h78c2.42,0,4.41,2.3,4.41,5.11s-2,5.1-4.41,5.1h-78v-1.5h1.59v-6.3H15.72Z" transform="translate(0 0)" style="fill:#36e0fc"/><g id="Groupe_50" data-name="Groupe 50"><path id="Tracé_274" data-name="Tracé 274" d="M17.24,96.39H67.62a3.17,3.17,0,0,1,0,6.3H17.24Z" transform="translate(0 0)" style="fill:#fff"/></g></g></g></g></g></svg>