<svg xmlns="http://www.w3.org/2000/svg" width="22.182" height="22.182" viewBox="0 0 22.182 22.182">
  <g id="chat_4_" data-name="chat (4)" transform="translate(0 -0.007)">
    <g id="Group_18233" data-name="Group 18233" transform="translate(0 0.007)">
      <g id="Group_18232" data-name="Group 18232" transform="translate(0)">
        <path id="Path_28274" data-name="Path 28274" d="M22.025,13.274l-1.53-1.786A6.454,6.454,0,0,0,22.181,7.2c0-4.029-3.909-7.192-8.491-7.192C9.032.007,5.242,3.233,5.242,7.2c0,.1,0,.2.008.3C2.15,8.73,0,11.385,0,14.455a7.01,7.01,0,0,0,1.863,4.71l-1.7,1.946A.65.65,0,0,0,.65,22.189H9.791c.072,0,.3-.041.347-.046a9.719,9.719,0,0,0,5.624-2.388,7.116,7.116,0,0,0,2.476-5.408h3.294A.65.65,0,0,0,22.025,13.274Zm-12.1,7.583c-.057,0-.253.022-.292.032H2.082L3.236,19.57a.65.65,0,0,0-.042-.9,5.808,5.808,0,0,1-1.9-4.215c0-3.523,3.517-6.39,7.842-6.39,4.3,0,7.8,2.867,7.8,6.39C16.939,17.75,13.87,20.535,9.921,20.857Zm8.167-7.81h0C17.3,9.432,13.554,6.766,9.141,6.766a10.718,10.718,0,0,0-2.6.317c.076-3.2,3.252-5.776,7.147-5.776,3.966,0,7.192,2.643,7.192,5.892a5.265,5.265,0,0,1-1.714,3.8.65.65,0,0,0-.044.892l.995,1.161Z" transform="translate(0 -0.007)" fill="#999"/>
      </g>
    </g>
    <g id="Group_18235" data-name="Group 18235" transform="translate(3.942 13.047)">
      <g id="Group_18234" data-name="Group 18234">
        <path id="Path_28275" data-name="Path 28275" d="M92.3,301a1.3,1.3,0,1,0,1.3,1.3A1.3,1.3,0,0,0,92.3,301Z" transform="translate(-90.997 -300.999)" fill="#999"/>
      </g>
    </g>
    <g id="Group_18237" data-name="Group 18237" transform="translate(7.841 13.047)">
      <g id="Group_18236" data-name="Group 18236">
        <path id="Path_28276" data-name="Path 28276" d="M182.294,301a1.3,1.3,0,1,0,1.3,1.3A1.3,1.3,0,0,0,182.294,301Z" transform="translate(-180.994 -300.999)" fill="#999"/>
      </g>
    </g>
    <g id="Group_18239" data-name="Group 18239" transform="translate(11.74 13.047)">
      <g id="Group_18238" data-name="Group 18238">
        <path id="Path_28277" data-name="Path 28277" d="M272.291,301a1.3,1.3,0,1,0,1.3,1.3A1.3,1.3,0,0,0,272.291,301Z" transform="translate(-270.991 -300.999)" fill="#999"/>
      </g>
    </g>
  </g>
</svg>
