<svg xmlns="http://www.w3.org/2000/svg" width="31.838" height="31.415" viewBox="0 0 31.838 31.415">
  <g id="handshake_1_" data-name="handshake (1)" transform="translate(0.001 -0.5)">
    <path id="Path_26691" data-name="Path 26691" d="M31.708,106.791l-5.329-6.922a.624.624,0,0,0-.83-.146l-3.441,2.188H17.622a.619.619,0,0,0-.172.029l-3.479,1-3.61-.987L6.853,99.723a.624.624,0,0,0-.821.135l-5.894,7.3a.624.624,0,0,0,.079.865l3.089,2.659,2.772,3.735a2.2,2.2,0,0,0,1.387,3.7,2.221,2.221,0,0,0-.026.337,2.206,2.206,0,0,0,2.206,2.206h.024c0,.015,0,.03,0,.045a2.206,2.206,0,0,0,2.206,2.206,2.248,2.248,0,0,0,.344-.027,2.206,2.206,0,0,0,3.755,1.343l.337-.337.142.114a2.205,2.205,0,0,0,3.739-1.62,2.2,2.2,0,0,0,2.24-2.238,2.2,2.2,0,0,0,2.239-2.241,2.205,2.205,0,0,0,1.885-3.407l2.024-4.238,3.042-2.618A.624.624,0,0,0,31.708,106.791ZM6.653,101.076l2.522,1.6-5.487,6.685-2.2-1.893Zm.356,14.173.761-.761c.023-.023.047-.045.072-.065a.956.956,0,0,1,.52-.211h.016c.027,0,.054,0,.082,0a.952.952,0,0,1,.683.3.981.981,0,0,1-.042,1.358l-.738.738a.958.958,0,0,1-1.354-1.354Zm1.959,3.886a.957.957,0,0,1,0-1.354l1.476-1.476a.968.968,0,0,1,1.089-.188.954.954,0,0,1,.528.989,1.011,1.011,0,0,1-.285.577l-1.453,1.453a.958.958,0,0,1-1.354,0Zm2.229,2.251a.957.957,0,0,1,0-1.354l1.476-1.476a.968.968,0,0,1,1.158-.152.953.953,0,0,1,.457.968,1.012,1.012,0,0,1-.284.562l-1.453,1.453a.958.958,0,0,1-1.354,0Zm2.539,1.963a.959.959,0,0,1,0-1.354l.761-.761c.023-.023.047-.045.072-.065h0a.955.955,0,0,1,.425-.2h.011c.027,0,.054-.009.081-.011l.033,0c.022,0,.044,0,.067,0a.951.951,0,0,1,.683.3.865.865,0,0,1,.062.073.988.988,0,0,1-.108,1.289l-.734.734A.959.959,0,0,1,13.735,123.348Zm11.646-6.967a.958.958,0,0,1-1.354,0,.569.569,0,0,0-.043-.038l-4.014-4.057a.624.624,0,0,0-.888.878l4.058,4.1h0a.958.958,0,1,1-1.354,1.354l-2.715-2.743a.624.624,0,1,0-.887.878l2.673,2.7a.591.591,0,0,0,.044.049.958.958,0,1,1-1.355,1.354l-1.481-1.5a.624.624,0,0,0-.888.878l1.44,1.455a.556.556,0,0,0,.044.049.958.958,0,0,1-1.354,1.354,1.377,1.377,0,0,0-.142-.113c-.041-.031-.051-.053-.031-.1s.051-.1.072-.146.041-.114.059-.173a2.251,2.251,0,0,0,.081-.96,2.184,2.184,0,0,0-1.861-1.879,2.227,2.227,0,0,0-.535-2.009,2.19,2.19,0,0,0-1.573-.69h-.066a2.185,2.185,0,0,0-2.163-2.251,2.245,2.245,0,0,0-.533.057,2.185,2.185,0,0,0-2.141-1.873,2.211,2.211,0,0,0-1.507.567l-2.413-3.252,5.773-7.034,1.84.5-2.4,4.24a2.207,2.207,0,0,0,.832,3.007q.048.027.1.052l.008,0a2.221,2.221,0,0,0,.265.111,2.206,2.206,0,0,0,2.638-1l1.562-2.756,2.788.2,7.425,7.425A.959.959,0,0,1,25.382,116.38Zm.259-2.862-6.965-6.965a.557.557,0,0,0-.041-.038.625.625,0,0,0-.356-.143l-3.414-.242a.635.635,0,0,0-.587.315l-1.756,3.1a.958.958,0,1,1-1.666-.944l2.344-4.136.95-.273.019-.006,3.545-1.024h4.283l5.347,6.8Zm2.519-4.542-4.945-6.289,2.524-1.6,4.62,6Zm0,0" transform="translate(0 -92.961)" fill="#f70000"/>
    <path id="Path_26692" data-name="Path 26692" d="M300.769,34.384a.623.623,0,0,0,.442-.183l4.265-4.264a.624.624,0,0,0-.883-.883l-4.264,4.264a.624.624,0,0,0,.441,1.066Zm0,0" transform="translate(-281.481 -26.607)" fill="#f70000"/>
    <path id="Path_26693" data-name="Path 26693" d="M127.643,34.2a.624.624,0,1,0,.883-.883l-4.264-4.264a.624.624,0,0,0-.883.883Zm0,0" transform="translate(-115.535 -26.607)" fill="#f70000"/>
    <path id="Path_26694" data-name="Path 26694" d="M246.585,45.477a.624.624,0,0,0,.624-.624V41.323a.624.624,0,0,0-1.249,0v3.529A.624.624,0,0,0,246.585,45.477Zm0,0" transform="translate(-230.667 -37.699)" fill="#f70000"/>
    <path id="Path_26695" data-name="Path 26695" d="M246.033,1.361a.624.624,0,1,0,.956-.734.624.624,0,0,0-.956.734Zm0,0" transform="translate(-230.69)" fill="#f70000"/>
  </g>
</svg>
