<svg id="checklist" xmlns="http://www.w3.org/2000/svg" width="26.738" height="29.504" viewBox="0 0 26.738 29.504">
  <path id="Path_26599" data-name="Path 26599" d="M11.305,21H9.461A.461.461,0,0,0,9,21.461v1.844a.461.461,0,0,0,.461.461h1.844a.461.461,0,0,0,.461-.461V21.461A.461.461,0,0,0,11.305,21Zm-.461,1.844H9.922v-.922h.922Z" transform="translate(-6.234 -11.319)" fill="#f70000"/>
  <path id="Path_26600" data-name="Path 26600" d="M9.461,8.922H13.61a.461.461,0,0,0,0-.922H9.461a.461.461,0,1,0,0,.922Z" transform="translate(-6.234 -4.312)" fill="#f70000"/>
  <path id="Path_26601" data-name="Path 26601" d="M9.461,12.922h6.454a.461.461,0,1,0,0-.922H9.461a.461.461,0,1,0,0,.922Z" transform="translate(-6.234 -6.468)" fill="#f70000"/>
  <path id="Path_26602" data-name="Path 26602" d="M17,21.461a.461.461,0,0,0,.461.461H27.6a.461.461,0,0,0,0-.922H17.461A.461.461,0,0,0,17,21.461Z" transform="translate(-10.546 -11.319)" fill="#f70000"/>
  <path id="Path_26603" data-name="Path 26603" d="M17.461,25.922h5.071a.461.461,0,0,0,0-.922H17.461a.461.461,0,1,0,0,.922Z" transform="translate(-10.546 -13.475)" fill="#f70000"/>
  <path id="Path_26604" data-name="Path 26604" d="M11.305,31H9.461A.461.461,0,0,0,9,31.461v1.844a.461.461,0,0,0,.461.461h1.844a.461.461,0,0,0,.461-.461V31.461A.461.461,0,0,0,11.305,31Zm-.461,1.844H9.922v-.922h.922Z" transform="translate(-6.234 -16.709)" fill="#f70000"/>
  <path id="Path_26605" data-name="Path 26605" d="M17,31.461a.461.461,0,0,0,.461.461H28.525a.461.461,0,1,0,0-.922H17.461A.461.461,0,0,0,17,31.461Z" transform="translate(-10.546 -16.709)" fill="#f70000"/>
  <path id="Path_26606" data-name="Path 26606" d="M17.461,35a.461.461,0,1,0,0,.922h7.376a.461.461,0,1,0,0-.922Z" transform="translate(-10.546 -18.865)" fill="#f70000"/>
  <path id="Path_26607" data-name="Path 26607" d="M11.305,41H9.461A.461.461,0,0,0,9,41.461v1.844a.461.461,0,0,0,.461.461h1.844a.461.461,0,0,0,.461-.461V41.461A.461.461,0,0,0,11.305,41Zm-.461,1.844H9.922v-.922h.922Z" transform="translate(-6.234 -22.099)" fill="#f70000"/>
  <path id="Path_26608" data-name="Path 26608" d="M28.986,41.461A.461.461,0,0,0,28.525,41H17.461a.461.461,0,0,0,0,.922H28.525A.461.461,0,0,0,28.986,41.461Z" transform="translate(-10.546 -22.099)" fill="#f70000"/>
  <path id="Path_26609" data-name="Path 26609" d="M17.461,45.922h5.071a.461.461,0,0,0,0-.922H17.461a.461.461,0,1,0,0,.922Z" transform="translate(-10.546 -24.255)" fill="#f70000"/>
  <path id="Path_26610" data-name="Path 26610" d="M11.305,51H9.461A.461.461,0,0,0,9,51.461v1.844a.461.461,0,0,0,.461.461h1.844a.461.461,0,0,0,.461-.461V51.461A.461.461,0,0,0,11.305,51Zm-.461,1.844H9.922v-.922h.922Z" transform="translate(-6.234 -27.489)" fill="#f70000"/>
  <path id="Path_26611" data-name="Path 26611" d="M27.6,51H17.461a.461.461,0,1,0,0,.922H27.6a.461.461,0,1,0,0-.922Z" transform="translate(-10.546 -27.489)" fill="#f70000"/>
  <path id="Path_26612" data-name="Path 26612" d="M24.837,55H17.461a.461.461,0,1,0,0,.922h7.376a.461.461,0,1,0,0-.922Z" transform="translate(-10.546 -29.645)" fill="#f70000"/>
  <path id="Path_26613" data-name="Path 26613" d="M29.738,18.9a1.844,1.844,0,0,0-3.148-1.3l-2.384,2.384V5.071c0-.01-.005-.018-.006-.028a.45.45,0,0,0-.025-.123c-.006-.015-.009-.029-.016-.043a.445.445,0,0,0-.088-.13l0,0L19.462.135a.45.45,0,0,0-.134-.089C19.315.039,19.3.036,19.286.03a.469.469,0,0,0-.121-.024c-.01,0-.019-.006-.03-.006H4.383A1.385,1.385,0,0,0,3,1.383V28.121A1.385,1.385,0,0,0,4.383,29.5h18.44a1.385,1.385,0,0,0,1.383-1.383V25.2L29.2,20.2a1.831,1.831,0,0,0,.54-1.3ZM19.6,1.574,22.632,4.61H20.058a.461.461,0,0,1-.461-.461Zm3.226,27.008H4.383a.461.461,0,0,1-.461-.461V1.383A.461.461,0,0,1,4.383.922H18.675V4.149a1.385,1.385,0,0,0,1.383,1.383h3.226V20.9l-1.765,1.765s0,.007-.007.01a.445.445,0,0,0-.088.133.335.335,0,0,0-.012.036.44.44,0,0,0-.022.069l-.405,2.361a.461.461,0,0,0,.454.539.445.445,0,0,0,.078-.007l1.766-.3v2.615a.461.461,0,0,1-.461.461Zm-.674-4.632.7.7L22,24.79Zm6.4-4.4L23.8,24.3l-1.3-1.3,1.573-1.574h0l3.171-3.171a.922.922,0,0,1,1.3,1.3Z" transform="translate(-3 0)" fill="#f70000"/>
</svg>
