<svg xmlns="http://www.w3.org/2000/svg" width="55.977" height="52.793" viewBox="0 0 55.977 52.793">
  <g id="Group_18050" data-name="Group 18050" transform="translate(-9432 1886.646)">
    <g id="Group_18049" data-name="Group 18049" transform="translate(9406 -2267.646)">
      <g id="Group_12334" data-name="Group 12334" transform="translate(26 381)">
        <g id="Path_27468" data-name="Path 27468" fill="#f8f8f8">
          <path d="M 46.48860549926758 52.29351425170898 L 9.487466812133789 52.29351425170898 C 4.53175687789917 52.29351425170898 0.4999971091747284 48.2118034362793 0.4999971091747284 43.19469451904297 L 0.4999971091747284 9.598825454711914 C 0.4999971091747284 4.581715106964111 4.53175687789917 0.5000052452087402 9.487466812133789 0.5000052452087402 L 46.48860549926758 0.5000052452087402 C 51.44431686401367 0.5000052452087402 55.47607803344727 4.581715106964111 55.47607803344727 9.598825454711914 L 55.47607803344727 43.19469451904297 C 55.47607803344727 48.2118034362793 51.44431686401367 52.29351425170898 46.48860549926758 52.29351425170898 Z" stroke="none"/>
          <path d="M 9.487468719482422 0.9999961853027344 C 4.807456970214844 0.9999961853027344 0.9999961853027344 4.857406616210938 0.9999961853027344 9.59881591796875 L 0.9999961853027344 43.19468688964844 C 0.9999961853027344 47.93609619140625 4.807456970214844 51.79350662231445 9.487468719482422 51.79350662231445 L 46.48860931396484 51.79350662231445 C 51.16861724853516 51.79350662231445 54.97607803344727 47.93609619140625 54.97607803344727 43.19468688964844 L 54.97607803344727 9.59881591796875 C 54.97607803344727 4.857406616210938 51.16861724853516 0.9999961853027344 46.48860931396484 0.9999961853027344 L 9.487468719482422 0.9999961853027344 M 9.487468719482422 -3.814697265625e-06 L 46.48860931396484 -3.814697265625e-06 C 51.72838592529297 -3.814697265625e-06 55.97607803344727 4.297534942626953 55.97607803344727 9.59881591796875 L 55.97607803344727 43.19468688964844 C 55.97607803344727 48.49597549438477 51.72838592529297 52.79350662231445 46.48860931396484 52.79350662231445 L 9.487468719482422 52.79350662231445 C 4.247688293457031 52.79350662231445 -3.814697265625e-06 48.49597549438477 -3.814697265625e-06 43.19468688964844 L -3.814697265625e-06 9.59881591796875 C -3.814697265625e-06 4.297534942626953 4.247688293457031 -3.814697265625e-06 9.487468719482422 -3.814697265625e-06 Z" stroke="none" fill="#efefef"/>
        </g>
        <g id="Design" transform="translate(12.311 11.856)">
          <g id="Strategy" transform="translate(0 0)">
            <g id="partnership">
              <path id="Path_23942" data-name="Path 23942" d="M337.411,72.26a18.134,18.134,0,0,0-2.008-7.084,17.226,17.226,0,0,0-3.694-4.79l-6.11,6.541L334,75.92l3.412-3.653Z" transform="translate(-305.102 -60.386)" fill="#33495f"/>
              <path id="Path_23943" data-name="Path 23943" d="M390.118,137.192l4.312,4.617,3.415-3.656a18.134,18.134,0,0,0-2.008-7.084L393.1,134Z" transform="translate(-365.536 -126.279)" fill="#2b3e51"/>
              <path id="Path_23944" data-name="Path 23944" d="M7.511,60.387a17.222,17.222,0,0,0-3.694,4.79,18.134,18.134,0,0,0-2.008,7.084l3.415,3.656,2.848-3.049L9.537,71.3l4.084-4.372Z" transform="translate(-1.809 -60.387)" fill="#95a5a6"/>
              <path id="Path_23945" data-name="Path 23945" d="M1.809,138.153l3.415,3.656,2.848-3.049,1.464-1.567-5.72-6.123A18.134,18.134,0,0,0,1.809,138.153Z" transform="translate(-1.809 -126.279)" fill="#7f8c8d"/>
              <path id="Path_24439" data-name="Path 24439" d="M.35.357,10.836,0l-.35,10.289L0,10.646Z" transform="translate(27.399 16.225) rotate(135)" fill="#d55400"/>
              <path id="Path_23946" data-name="Path 23946" d="M127.448,301.415a1.211,1.211,0,0,0,1.79,0l4.521-4.84a1.428,1.428,0,0,0,0-1.917h0a1.211,1.211,0,0,0-1.791,0l-4.521,4.84a1.428,1.428,0,0,0,0,1.917Z" transform="translate(-119.148 -278.414)" fill="#d55400"/>
              <path id="Path_23947" data-name="Path 23947" d="M143.872,319.2a1.332,1.332,0,0,0,1.97,0l6.267-6.709a1.571,1.571,0,0,0,0-2.108h0a1.332,1.332,0,0,0-1.97,0l-6.267,6.709a1.571,1.571,0,0,0,0,2.108Z" transform="translate(-134.498 -293.032)" fill="#d55400"/>
              <path id="Path_23948" data-name="Path 23948" d="M186.684,357.832a1.09,1.09,0,0,0,1.611,0l5.372-5.75a1.285,1.285,0,0,0,0-1.725h0a1.09,1.09,0,0,0-1.611,0l-5.372,5.75a1.285,1.285,0,0,0,0,1.725Z" transform="translate(-174.67 -330.375)" fill="#d55400"/>
              <path id="Path_23949" data-name="Path 23949" d="M230.2,382.47a.848.848,0,0,0,1.253,0l4.611-4.936a1,1,0,0,0,0-1.342h0a.848.848,0,0,0-1.253,0l-4.611,4.936a1,1,0,0,0,0,1.342Z" transform="translate(-215.503 -354.534)" fill="#d55400"/>
              <path id="Path_24440" data-name="Path 24440" d="M.383.078,2.677,0,2.294,11.25,0,11.328Z" transform="translate(28.888 14.958) rotate(135)" fill="#ecf0f1"/>
              <path id="Path_24441" data-name="Path 24441" d="M.2.078,2.492,0l-.2,5.825L0,5.9Z" transform="translate(28.756 15.087) rotate(135)" fill="#bdc3c7"/>
              <ellipse id="Ellipse_430" data-name="Ellipse 430" cx="1.296" cy="1.388" rx="1.296" ry="1.388" transform="translate(27.805 9.713)" fill="#ecf0f1"/>
              <path id="Path_24442" data-name="Path 24442" d="M0,0,10.486.357l.35,10.289L.35,10.289Z" transform="translate(12.439 8.697) rotate(45)" fill="#f59d00"/>
              <path id="Path_23950" data-name="Path 23950" d="M282.233,301.415a1.211,1.211,0,0,1-1.79,0l-4.521-4.84a1.428,1.428,0,0,1,0-1.917h0a1.211,1.211,0,0,1,1.79,0l4.521,4.84a1.428,1.428,0,0,1,0,1.917Z" transform="translate(-258.223 -278.414)" fill="#f59d00"/>
              <path id="Path_23951" data-name="Path 23951" d="M236.235,319.2a1.332,1.332,0,0,1-1.97,0L228,312.487a1.571,1.571,0,0,1,0-2.108h0a1.333,1.333,0,0,1,1.97,0l6.267,6.709a1.571,1.571,0,0,1,0,2.108Z" transform="translate(-213.299 -293.032)" fill="#f59d00"/>
              <path id="Path_23952" data-name="Path 23952" d="M214.153,357.832a1.09,1.09,0,0,1-1.611,0l-5.372-5.75a1.285,1.285,0,0,1,0-1.725h0a1.09,1.09,0,0,1,1.611,0l5.372,5.75a1.285,1.285,0,0,1,0,1.725Z" transform="translate(-193.859 -330.375)" fill="#f59d00"/>
              <path id="Path_23953" data-name="Path 23953" d="M189.379,382.47a.848.848,0,0,1-1.253,0l-4.611-4.936a1,1,0,0,1,0-1.342h0a.848.848,0,0,1,1.253,0l4.611,4.936a1,1,0,0,1,0,1.342Z" transform="translate(-171.771 -354.534)" fill="#f59d00"/>
              <path id="Path_24443" data-name="Path 24443" d="M0,0,2.294.078l.383,11.25L.383,11.25Z" transform="translate(11.432 6.948) rotate(45)" fill="#ecf0f1"/>
              <path id="Path_24444" data-name="Path 24444" d="M0,0,2.294.078l.2,5.825L.2,5.825Z" transform="translate(7.728 10.913) rotate(45)" fill="#bdc3c7"/>
              <path id="Path_23954" data-name="Path 23954" d="M205.794,196.475l1.266-1.644-1.22-1.3-3.65-.916Z" transform="translate(-189.504 -183.655)" fill="#e87e04"/>
              <ellipse id="Ellipse_431" data-name="Ellipse 431" cx="0.95" cy="1.016" rx="0.95" ry="1.016" transform="translate(22.15 20.983)" fill="#ecf0f1"/>
              <ellipse id="Ellipse_432" data-name="Ellipse 432" cx="0.95" cy="1.016" rx="0.95" ry="1.016" transform="translate(21.076 24.145)" fill="#ecf0f1"/>
              <ellipse id="Ellipse_433" data-name="Ellipse 433" cx="0.823" cy="0.881" rx="0.823" ry="0.881" transform="translate(18.606 25.622)" fill="#ecf0f1"/>
              <ellipse id="Ellipse_434" data-name="Ellipse 434" cx="0.633" cy="0.678" rx="0.633" ry="0.678" transform="translate(16.289 26.497)" fill="#ecf0f1"/>
              <ellipse id="Ellipse_435" data-name="Ellipse 435" cx="1.296" cy="1.388" rx="1.296" ry="1.388" transform="translate(1.912 9.713)" fill="#ecf0f1"/>
              <path id="Path_23955" data-name="Path 23955" d="M185.985,199.181c-1.2,1.351-3.222.323-3.222.323l4.519-5.972,3.65-.916S187.183,197.83,185.985,199.181Z" transform="translate(-171.308 -183.655)" fill="#d55400"/>
              <path id="Path_23956" data-name="Path 23956" d="M284.6,246.891s2.131,1.927,4.6-.717l2.318,2.481s-1.283,5.419-3.182,3.509c-1.549-1.558-4.283-4.7-4.283-4.7Z" transform="translate(-266.187 -233.584)" fill="#e87e04"/>
            </g>
          </g>
        </g>
      </g>
    </g>
  </g>
</svg>
