<svg xmlns="http://www.w3.org/2000/svg" width="32.31" height="28.213" viewBox="0 0 32.31 28.213"><defs><style>.a{fill:#33495f;}.b{fill:#2b3e51;}.c{fill:#95a5a6;}.d{fill:#7f8c8d;}.e{fill:#d55400;}.f{fill:#ecf0f1;}.g{fill:#bdc3c7;}.h{fill:#f59d00;}.i{fill:#e87e04;}</style></defs><g transform="translate(0 0)"><path class="a" d="M337.411,72.26a18.134,18.134,0,0,0-2.008-7.084,17.226,17.226,0,0,0-3.694-4.79l-6.11,6.541L334,75.92l3.412-3.653Z" transform="translate(-305.102 -60.386)"/><path class="b" d="M390.118,137.192l4.312,4.617,3.415-3.656a18.134,18.134,0,0,0-2.008-7.084L393.1,134Z" transform="translate(-365.536 -126.279)"/><path class="c" d="M7.511,60.387a17.222,17.222,0,0,0-3.694,4.79,18.134,18.134,0,0,0-2.008,7.084l3.415,3.656,2.848-3.049L9.537,71.3l4.084-4.372Z" transform="translate(-1.809 -60.387)"/><path class="d" d="M1.809,138.153l3.415,3.656,2.848-3.049,1.464-1.567-5.72-6.123A18.134,18.134,0,0,0,1.809,138.153Z" transform="translate(-1.809 -126.279)"/><path class="e" d="M.35.357,10.836,0l-.35,10.289L0,10.646Z" transform="translate(27.399 16.225) rotate(135)"/><path class="e" d="M127.448,301.415a1.211,1.211,0,0,0,1.79,0l4.521-4.84a1.428,1.428,0,0,0,0-1.917h0a1.211,1.211,0,0,0-1.791,0l-4.521,4.84a1.428,1.428,0,0,0,0,1.917Z" transform="translate(-119.148 -278.414)"/><path class="e" d="M143.872,319.2a1.332,1.332,0,0,0,1.97,0l6.267-6.709a1.571,1.571,0,0,0,0-2.108h0a1.332,1.332,0,0,0-1.97,0l-6.267,6.709a1.571,1.571,0,0,0,0,2.108Z" transform="translate(-134.498 -293.032)"/><path class="e" d="M186.684,357.832a1.09,1.09,0,0,0,1.611,0l5.372-5.75a1.285,1.285,0,0,0,0-1.725h0a1.09,1.09,0,0,0-1.611,0l-5.372,5.75a1.285,1.285,0,0,0,0,1.725Z" transform="translate(-174.67 -330.375)"/><path class="e" d="M230.2,382.47a.848.848,0,0,0,1.253,0l4.611-4.936a1,1,0,0,0,0-1.342h0a.848.848,0,0,0-1.253,0l-4.611,4.936a1,1,0,0,0,0,1.342Z" transform="translate(-215.503 -354.534)"/><path class="f" d="M.383.078,2.677,0,2.294,11.25,0,11.328Z" transform="translate(28.888 14.958) rotate(135)"/><path class="g" d="M.2.078,2.492,0l-.2,5.825L0,5.9Z" transform="translate(28.756 15.087) rotate(135)"/><ellipse class="f" cx="1.296" cy="1.388" rx="1.296" ry="1.388" transform="translate(27.805 9.713)"/><path class="h" d="M0,0,10.486.357l.35,10.289L.35,10.289Z" transform="translate(12.439 8.697) rotate(45)"/><path class="h" d="M282.233,301.415a1.211,1.211,0,0,1-1.79,0l-4.521-4.84a1.428,1.428,0,0,1,0-1.917h0a1.211,1.211,0,0,1,1.79,0l4.521,4.84a1.428,1.428,0,0,1,0,1.917Z" transform="translate(-258.223 -278.414)"/><path class="h" d="M236.235,319.2a1.332,1.332,0,0,1-1.97,0L228,312.487a1.571,1.571,0,0,1,0-2.108h0a1.333,1.333,0,0,1,1.97,0l6.267,6.709a1.571,1.571,0,0,1,0,2.108Z" transform="translate(-213.299 -293.032)"/><path class="h" d="M214.153,357.832a1.09,1.09,0,0,1-1.611,0l-5.372-5.75a1.285,1.285,0,0,1,0-1.725h0a1.09,1.09,0,0,1,1.611,0l5.372,5.75a1.285,1.285,0,0,1,0,1.725Z" transform="translate(-193.859 -330.375)"/><path class="h" d="M189.379,382.47a.848.848,0,0,1-1.253,0l-4.611-4.936a1,1,0,0,1,0-1.342h0a.848.848,0,0,1,1.253,0l4.611,4.936a1,1,0,0,1,0,1.342Z" transform="translate(-171.771 -354.534)"/><path class="f" d="M0,0,2.294.078l.383,11.25L.383,11.25Z" transform="translate(11.432 6.948) rotate(45)"/><path class="g" d="M0,0,2.294.078l.2,5.825L.2,5.825Z" transform="translate(7.728 10.913) rotate(45)"/><path class="i" d="M205.794,196.475l1.266-1.644-1.22-1.3-3.65-.916Z" transform="translate(-189.504 -183.655)"/><ellipse class="f" cx="0.95" cy="1.016" rx="0.95" ry="1.016" transform="translate(22.15 20.983)"/><ellipse class="f" cx="0.95" cy="1.016" rx="0.95" ry="1.016" transform="translate(21.076 24.145)"/><ellipse class="f" cx="0.823" cy="0.881" rx="0.823" ry="0.881" transform="translate(18.606 25.622)"/><ellipse class="f" cx="0.633" cy="0.678" rx="0.633" ry="0.678" transform="translate(16.289 26.497)"/><ellipse class="f" cx="1.296" cy="1.388" rx="1.296" ry="1.388" transform="translate(1.912 9.713)"/><path class="e" d="M185.985,199.181c-1.2,1.351-3.222.323-3.222.323l4.519-5.972,3.65-.916S187.183,197.83,185.985,199.181Z" transform="translate(-171.308 -183.655)"/><path class="i" d="M284.6,246.891s2.131,1.927,4.6-.717l2.318,2.481s-1.283,5.419-3.182,3.509c-1.549-1.558-4.283-4.7-4.283-4.7Z" transform="translate(-266.187 -233.584)"/></g></svg>