<svg id="speech-bubble_1_" data-name="speech-bubble (1)" xmlns="http://www.w3.org/2000/svg" width="30.313" height="27.234" viewBox="0 0 30.313 27.234">
  <path id="Path_26685" data-name="Path 26685" d="M246.592,100a.592.592,0,1,0,.592.592A.592.592,0,0,0,246.592,100Zm0,0" transform="translate(-231.435 -94.079)" fill="#159beb"/>
  <path id="Path_26686" data-name="Path 26686" d="M80.592,261.184a.592.592,0,1,0-.592-.592A.592.592,0,0,0,80.592,261.184Zm0,0" transform="translate(-75.264 -244.607)" fill="#159beb"/>
  <path id="Path_26687" data-name="Path 26687" d="M19.893,0c-5.33,0-9.7,3.675-10.043,8.3C4.774,8.558,0,12.219,0,17.17a8.273,8.273,0,0,0,2.309,5.662,3.6,3.6,0,0,1-.951,3.392.592.592,0,0,0,.419,1.011A6.531,6.531,0,0,0,6.3,25.406a13.492,13.492,0,0,0,4.119.645c5.329,0,9.7-3.674,10.043-8.3a13.313,13.313,0,0,0,3.549-.632,6.531,6.531,0,0,0,4.525,1.829.592.592,0,0,0,.419-1.011A3.6,3.6,0,0,1,28,14.543a8.273,8.273,0,0,0,2.309-5.662C30.313,3.737,25.172,0,19.893,0ZM10.42,24.866a11.969,11.969,0,0,1-4.056-.7.592.592,0,0,0-.656.15,5.342,5.342,0,0,1-2.657,1.577,4.788,4.788,0,0,0,.361-3.524.591.591,0,0,0-.145-.25A7.115,7.115,0,0,1,1.184,17.17c0-4.172,4.229-7.7,9.236-7.7,4.728,0,8.881,3.288,8.881,7.7C19.3,21.414,15.317,24.866,10.42,24.866ZM27.046,13.832a.594.594,0,0,0-.145.25,4.788,4.788,0,0,0,.361,3.524,5.34,5.34,0,0,1-2.657-1.577.592.592,0,0,0-.656-.15,11.663,11.663,0,0,1-3.488.684,8.475,8.475,0,0,0-3.2-5.906h7.723a.592.592,0,0,0,0-1.184H15.443a11.042,11.042,0,0,0-4.406-1.167c.34-3.976,4.182-7.122,8.856-7.122,5.007,0,9.236,3.525,9.236,7.7A7.115,7.115,0,0,1,27.046,13.832Zm0,0" transform="translate(0)" fill="#159beb"/>
  <path id="Path_26688" data-name="Path 26688" d="M128.052,260h-7.46a.592.592,0,1,0,0,1.184h7.46a.592.592,0,1,0,0-1.184Zm0,0" transform="translate(-112.895 -244.607)" fill="#159beb"/>
  <path id="Path_26689" data-name="Path 26689" d="M90.42,320H80.592a.592.592,0,1,0,0,1.184H90.42a.592.592,0,1,0,0-1.184Zm0,0" transform="translate(-75.264 -301.054)" fill="#159beb"/>
  <path id="Path_26690" data-name="Path 26690" d="M294.052,100h-7.46a.592.592,0,0,0,0,1.184h7.46a.592.592,0,0,0,0-1.184Zm0,0" transform="translate(-269.067 -94.079)" fill="#159beb"/>
</svg>
