<svg xmlns="http://www.w3.org/2000/svg" width="162.266" height="158.131" viewBox="0 0 162.266 158.131">
  <g id="goal_3_" data-name="goal (3)" transform="translate(0 -4.829)">
    <path id="Tracé_26545" data-name="Tracé 26545" d="M186.86,37.081h4.824V90.255H186.86Z" transform="translate(-106.862 -18.444)" fill="#d09080" fill-rule="evenodd"/>
    <path id="Tracé_26546" data-name="Tracé 26546" d="M127.4,195.861,140.178,218l31.3,54.208H46.291L77.589,218q6.391-11.066,12.782-22.137Z" transform="translate(-26.473 -109.247)" fill="#477b9e" fill-rule="evenodd"/>
    <path id="Tracé_26547" data-name="Tracé 26547" d="M149.258,155.992,164.682,166.9a5.132,5.132,0,0,0,6.181,0l15.416-10.906q-8.166-14.149-16.332-28.29c-1.231-2.12-3.18-2.048-4.366.009Q157.415,141.847,149.258,155.992Z" transform="translate(-85.357 -69.375)" fill="#e1f1ff" fill-rule="evenodd"/>
    <path id="Tracé_26548" data-name="Tracé 26548" d="M293.52,319.316a2.922,2.922,0,0,1-2.668,4.627H233.626a2.919,2.919,0,0,1-2.7-4.582l14.329-24.822,4.74-8.213,24.472,0Q284,302.825,293.52,319.316Z" transform="translate(-131.78 -160.983)" fill="#365e7d" fill-rule="evenodd"/>
    <path id="Tracé_26549" data-name="Tracé 26549" d="M36.609,309.22q6.7,11.6,13.395,23.2a2.921,2.921,0,0,1-2.677,4.609H8.213a2.926,2.926,0,0,1-2.677-4.627q6.695-11.6,13.39-23.189Z" transform="translate(-2.868 -174.073)" fill="#365e7d" fill-rule="evenodd"/>
    <path id="Tracé_26550" data-name="Tracé 26550" d="M291.905,58.729H249.673a3.249,3.249,0,0,1-2.758-2.758v-22.1h44.99c.817.054,1.033.476.647,1.285L284.17,46.3l8.382,11.14a.831.831,0,0,1-.647,1.294Z" transform="translate(-141.206 -16.609)" fill="#cf4351" fill-rule="evenodd"/>
    <path id="Tracé_26551" data-name="Tracé 26551" d="M246.916,52.017V33.87h29.026V46.5a6.479,6.479,0,0,1-5.516,5.516h-23.51Z" transform="translate(-141.206 -16.608)" fill="#bd3341" fill-rule="evenodd"/>
    <path id="Tracé_26552" data-name="Tracé 26552" d="M233.125,29.687H189.618a3.249,3.249,0,0,1-2.758-2.749V7.587a3.25,3.25,0,0,1,2.758-2.758h43.507a3.241,3.241,0,0,1,2.749,2.758V26.938a3.24,3.24,0,0,1-2.749,2.749Z" transform="translate(-106.861)" fill="#ff6978" fill-rule="evenodd"/>
    <g id="Groupe_14418" data-name="Groupe 14418" transform="translate(0 36.523)">
      <path id="Tracé_26553" data-name="Tracé 26553" d="M276.147,259.76l9.954,7.034a3.671,3.671,0,0,0,4.564,0l9.954-7.034q-5.485-9.487-10.951-18.964c-.728-1.258-1.878-1.213-2.579,0Q281.617,250.281,276.147,259.76Z" transform="translate(-157.923 -170.937)" fill="#e1f1ff" fill-rule="evenodd"/>
      <path id="Tracé_26554" data-name="Tracé 26554" d="M37.519,290.513l7.223,5.112a2.579,2.579,0,0,0,3.225,0l7.232-5.112q-3.786-6.549-7.555-13.08c-.728-1.258-1.878-1.213-2.579,0Q41.292,283.968,37.519,290.513Z" transform="translate(-21.456 -191.89)" fill="#e1f1ff" fill-rule="evenodd"/>
      <path id="Tracé_26555" data-name="Tracé 26555" d="M49.428,92.955h.009a11.032,11.032,0,0,1,0,22.064h-38.4a11.032,11.032,0,0,1,0-22.065A14.093,14.093,0,0,1,36.86,85.148a8.11,8.11,0,0,1,12.64,6.72A7.291,7.291,0,0,1,49.428,92.955Z" transform="translate(0 -78.859)" fill="#e1f1ff" fill-rule="evenodd"/>
    </g>
    <path id="Tracé_26556" data-name="Tracé 26556" d="M55.652,117.988A11.057,11.057,0,0,1,44.621,129.02H6.225a10.878,10.878,0,0,1-4.231-.844,11.062,11.062,0,0,0,10.178,6.8h38.4a11.032,11.032,0,0,0,4.231-21.22A10.946,10.946,0,0,1,55.652,117.988Z" transform="translate(-1.14 -62.294)" fill="#cbe2ff" fill-rule="evenodd"/>
    <path id="Tracé_26557" data-name="Tracé 26557" d="M233.079,218l11.014,19.072,1.428-2.479,2.533-4.384L241,218l-12.783-22.136-5.624,3.98Z" transform="translate(-127.298 -109.251)" fill="#365e7d" fill-rule="evenodd"/>
    <path id="Tracé_26558" data-name="Tracé 26558" d="M189.252,141.185l10.843,18.785,5.624-3.98L189.62,128.1l-.225-.4h-.009a2.649,2.649,0,0,0-2.174-1.563,2.687,2.687,0,0,0-2.192,1.572l-.225.386-1.545,2.686,1.545,2.7,2.417,4.169Z" transform="translate(-104.797 -69.374)" fill="#cbe2ff" fill-rule="evenodd"/>
    <path id="Tracé_26559" data-name="Tracé 26559" d="M320.149,290.309q8.382,14.5,16.754,29.008a2.922,2.922,0,0,1-2.668,4.627h7.923a2.922,2.922,0,0,0,2.668-4.627q-9.527-16.494-19.045-32.988Z" transform="translate(-183.087 -160.984)" fill="#294b64" fill-rule="evenodd"/>
    <path id="Tracé_26560" data-name="Tracé 26560" d="M295.472,245.43q5.283,9.15,10.565,18.309l5.624-3.98q-5.471-9.487-10.942-18.964c-.728-1.258-1.878-1.213-2.579,0Z" transform="translate(-168.974 -134.415)" fill="#cbe2ff" fill-rule="evenodd"/>
    <path id="Tracé_26561" data-name="Tracé 26561" d="M68.4,317.937l8.364,14.491a2.921,2.921,0,0,1-2.677,4.609h7.923a2.921,2.921,0,0,0,2.677-4.609L72.36,311.074l-1.069-1.851-5.633,3.98Z" transform="translate(-37.549 -174.077)" fill="#294b64" fill-rule="evenodd"/>
    <path id="Tracé_26562" data-name="Tracé 26562" d="M48.913,282.059l7.169,12.433,5.633-3.98-7.555-13.08c-.728-1.258-1.878-1.213-2.578,0Z" transform="translate(-27.973 -155.367)" fill="#cbe2ff" fill-rule="evenodd"/>
  </g>
</svg>
