<svg xmlns="http://www.w3.org/2000/svg" xmlns:xlink="http://www.w3.org/1999/xlink" width="474.615" height="369.361" viewBox="0 0 474.615 369.361">
  <defs>
    <clipPath id="clip-path">
      <path id="Tracé_26522" data-name="Tracé 26522" d="M193.5,0C300.367,0,474.615,85.066,474.615,190S252.822,369.361,145.955,369.361,0,294.934,0,190,86.633,0,193.5,0Z" transform="translate(21 -146)" fill="#e8f7fe"/>
    </clipPath>
  </defs>
  <g id="Groupe_de_masques_26" data-name="Groupe de masques 26" transform="translate(-21 146)" clip-path="url(#clip-path)">
    <g id="goal_3_" data-name="goal (3)" transform="translate(173.169 25.391)">
      <path id="Tracé_26545" data-name="Tracé 26545" d="M186.86,37.081h5.74v63.266h-5.74Z" transform="translate(-91.679 -15.824)" fill="#d09080" fill-rule="evenodd"/>
      <path id="Tracé_26546" data-name="Tracé 26546" d="M142.792,195.861,158,222.2l37.239,64.5H46.291l37.239-64.5q7.6-13.166,15.208-26.338Z" transform="translate(-22.711 -93.726)" fill="#477b9e" fill-rule="evenodd"/>
      <path id="Tracé_26547" data-name="Tracé 26547" d="M149.258,161.657l18.352,12.976a6.106,6.106,0,0,0,7.354,0L193.3,161.657Q183.589,144.822,173.873,128c-1.465-2.522-3.784-2.437-5.195.011Q158.963,144.828,149.258,161.657Z" transform="translate(-73.23 -59.519)" fill="#e1f1ff" fill-rule="evenodd"/>
      <path id="Tracé_26548" data-name="Tracé 26548" d="M305.493,325.577c1.593,2.758,0,5.5-3.175,5.5H234.232c-3.153,0-4.746-2.715-3.207-5.451L248.074,296.1l5.64-9.771,29.116,0Q294.162,305.956,305.493,325.577Z" transform="translate(-113.057 -138.111)" fill="#365e7d" fill-rule="evenodd"/>
      <path id="Tracé_26549" data-name="Tracé 26549" d="M42.606,309.22q7.969,13.8,15.937,27.608c1.571,2.747-.021,5.483-3.185,5.483H8.82c-3.185,0-4.767-2.747-3.185-5.5q7.965-13.8,15.931-27.59Z" transform="translate(-2.46 -149.342)" fill="#365e7d" fill-rule="evenodd"/>
      <path id="Tracé_26550" data-name="Tracé 26550" d="M300.444,63.446H250.2a3.866,3.866,0,0,1-3.281-3.281V33.871h53.528c.973.064,1.229.566.769,1.529l-9.972,13.254,9.972,13.254a.989.989,0,0,1-.769,1.539Z" transform="translate(-121.144 -14.249)" fill="#cf4351" fill-rule="evenodd"/>
      <path id="Tracé_26551" data-name="Tracé 26551" d="M246.916,55.461V33.87H281.45V48.9a7.709,7.709,0,0,1-6.563,6.563H246.916Z" transform="translate(-121.144 -14.249)" fill="#bd3341" fill-rule="evenodd"/>
      <path id="Tracé_26552" data-name="Tracé 26552" d="M241.906,34.4H190.141a3.866,3.866,0,0,1-3.282-3.271V8.11a3.866,3.866,0,0,1,3.282-3.282h51.764a3.855,3.855,0,0,1,3.271,3.282V31.134a3.855,3.855,0,0,1-3.271,3.271Z" transform="translate(-91.679)" fill="#ff6978" fill-rule="evenodd"/>
      <g id="Groupe_14418" data-name="Groupe 14418" transform="translate(0 42.538)">
        <path id="Tracé_26553" data-name="Tracé 26553" d="M276.147,263.535l11.843,8.369a4.367,4.367,0,0,0,5.43,0l11.843-8.369q-6.525-11.287-13.029-22.564c-.866-1.5-2.234-1.443-3.068,0Q282.655,252.258,276.147,263.535Z" transform="translate(-135.486 -157.855)" fill="#e1f1ff" fill-rule="evenodd"/>
        <path id="Tracé_26554" data-name="Tracé 26554" d="M37.519,293.171l8.593,6.082a3.069,3.069,0,0,0,3.837,0l8.6-6.082q-4.505-7.792-8.989-15.562c-.866-1.5-2.234-1.443-3.068,0Q42.009,285.384,37.519,293.171Z" transform="translate(-18.408 -175.831)" fill="#e1f1ff" fill-rule="evenodd"/>
        <path id="Tracé_26555" data-name="Tracé 26555" d="M58.808,95.631h.011a13.126,13.126,0,0,1,0,26.252H13.126a13.126,13.126,0,0,1,0-26.252,16.768,16.768,0,0,1,30.729-9.288,9.649,9.649,0,0,1,15.039,8A8.675,8.675,0,0,1,58.808,95.631Z" transform="translate(0 -78.859)" fill="#e1f1ff" fill-rule="evenodd"/>
      </g>
      <path id="Tracé_26556" data-name="Tracé 26556" d="M65.836,118.791A13.156,13.156,0,0,1,52.71,131.917H7.028a12.942,12.942,0,0,1-5.034-1A13.162,13.162,0,0,0,14.1,139H59.8a13.125,13.125,0,0,0,5.034-25.247A13.023,13.023,0,0,1,65.836,118.791Z" transform="translate(-0.978 -53.443)" fill="#cbe2ff" fill-rule="evenodd"/>
      <path id="Tracé_26557" data-name="Tracé 26557" d="M235.069,222.2l13.1,22.692,1.7-2.95,3.014-5.216L244.5,222.2l-15.21-26.337L222.6,200.6Z" transform="translate(-109.212 -93.729)" fill="#365e7d" fill-rule="evenodd"/>
      <path id="Tracé_26558" data-name="Tracé 26558" d="M190.391,144.041l12.9,22.35,6.691-4.735-19.154-33.188-.267-.47h-.011a3.151,3.151,0,0,0-2.587-1.86,3.2,3.2,0,0,0-2.608,1.87l-.267.46-1.839,3.2,1.839,3.207,2.876,4.96Z" transform="translate(-89.908 -59.518)" fill="#cbe2ff" fill-rule="evenodd"/>
      <path id="Tracé_26559" data-name="Tracé 26559" d="M320.149,291.064q9.973,17.251,19.934,34.513c1.593,2.758,0,5.5-3.174,5.5h9.427c3.175,0,4.767-2.747,3.175-5.5q-11.335-19.624-22.659-39.249Z" transform="translate(-157.074 -138.112)" fill="#294b64" fill-rule="evenodd"/>
      <path id="Tracé_26560" data-name="Tracé 26560" d="M295.472,246.486q6.285,10.887,12.57,21.784l6.691-4.735q-6.51-11.287-13.018-22.564c-.866-1.5-2.234-1.443-3.068,0Z" transform="translate(-144.967 -115.317)" fill="#cbe2ff" fill-rule="evenodd"/>
      <path id="Tracé_26561" data-name="Tracé 26561" d="M68.918,319.591l9.951,17.241c1.571,2.747-.021,5.483-3.185,5.483h9.427c3.164,0,4.756-2.736,3.185-5.483L73.632,311.425l-1.272-2.2-6.7,4.735Z" transform="translate(-32.214 -149.345)" fill="#294b64" fill-rule="evenodd"/>
      <path id="Tracé_26562" data-name="Tracé 26562" d="M48.913,283.113l8.53,14.793,6.7-4.735-8.989-15.562c-.866-1.5-2.234-1.443-3.068,0Z" transform="translate(-23.998 -133.293)" fill="#cbe2ff" fill-rule="evenodd"/>
    </g>
  </g>
</svg>
