<svg xmlns="http://www.w3.org/2000/svg" width="212.07" height="124.124" viewBox="0 0 212.07 124.124">
  <g id="Groupe_14478" data-name="Groupe 14478" transform="translate(-81 -167.338)">
    <g id="Groupe_11172" data-name="Groupe 11172" transform="translate(81 191.002)">
      <g id="fusee">
        <g id="OBJECTS">
          <g id="Groupe_10733" data-name="Groupe 10733">
            <path id="Tracé_20852" data-name="Tracé 20852" d="M183.1,92.54c-11.06,6.55-20.16,7.93-26.56,7.93-16.37-.07-38.35-9.17-46.72-9.75a113.392,113.392,0,0,0-12.23.07c-8,.29-13.61,1-18.41,1.53-6,.65-14.85,1.46-25.91,2-.87.14-20,2.47-29.84-11.36C22.71,82,15.5,71.5,19,62.7c1.9-4.8,7.79-11.13,14.41-14.77,1.6-.87,2.62-1.24,3-2.4C37.92,40.8,24,35.71,22.56,27.19c-.73-4.29,1.38-10.91,15.07-21.1C47.09,1.65,60.48-2.57,73.8,1.94,85.15,5.8,86.17,12.42,96.57,14.46c13.18,2.48,16.74-7.13,39.3-10.84,9.47-1.6,19.5-3.06,29.48,2.25,2,1.1,13.68,7.28,15.28,18,1.89,12.88-15,18.63-13.1,29.26,2,11.79,23.8,13,25.11,24.08C193.36,82.93,188.27,88.39,183.1,92.54Z" transform="translate(0 -0.01)" fill="#dfe4f4"/>
            <circle id="Ellipse_392" data-name="Ellipse 392" cx="7.35" cy="7.35" r="7.35" transform="translate(197.37 3.81)" fill="#dfe4f4"/>
            <circle id="Ellipse_393" data-name="Ellipse 393" cx="3.64" cy="3.64" r="3.64" transform="translate(188.12 20.62)" fill="#dfe4f4"/>
            <circle id="Ellipse_394" data-name="Ellipse 394" cx="5.75" cy="5.75" r="5.75" transform="translate(0 73.68)" fill="#dfe4f4"/>
            <circle id="Ellipse_395" data-name="Ellipse 395" cx="5.75" cy="5.75" r="5.75" transform="translate(194.38 57.45)" fill="#dfe4f4"/>
            <circle id="Ellipse_396" data-name="Ellipse 396" cx="5.75" cy="5.75" r="5.75" transform="translate(11.42 2.79)" fill="#dfe4f4"/>
          </g>
        </g>
      </g>
    </g>
    <g id="Groupe_12399" data-name="Groupe 12399" transform="translate(121.003 167.338)">
      <g id="Groupe_11094" data-name="Groupe 11094" transform="translate(0 0)">
        <path id="Tracé_22938" data-name="Tracé 22938" d="M3.428,25.615C8.78,27.129,14.886,28.7,15.621,28.2c1.336-.908,1.738-3.817,2.012-7.792.561-8.127-.44-10.162-1.442-13.829s-2.94-7.15,2.3-6.5,1.747,26.786,0,30.222C17.346,32.554,6.989,30.109,0,28.16A26.083,26.083,0,0,0,3.428,25.615Z" transform="translate(123.84 45.254) rotate(21)" fill="#8595ba"/>
        <g id="Groupe_11093" data-name="Groupe 11093" transform="translate(0 0)">
          <g id="Groupe_11090" data-name="Groupe 11090">
            <path id="Tracé_22543" data-name="Tracé 22543" d="M329.738,530.8s-6.842,26.762-6.6,37.548.217,13.936,3.49,14.234c4.4.4,2.687-5.178,2.687-5.178s1.218,1.612,2.183,1-.4-2.354-2.809-4.943-3.662-3.037-1.63-14.22,7.638-23.511,7.157-26.289S329.738,530.8,329.738,530.8Z" transform="translate(-314.573 -476.965)" fill="#8595ba"/>
            <g id="Groupe_10797" data-name="Groupe 10797" transform="translate(37.822 73.317)">
              <path id="Tracé_87" data-name="Tracé 87" d="M219.56,544.795s2.824,43.877,1.413,45.178-9.171.138-10.583,2.554,11.854,2.281,13.549.792,0-48.524,0-48.524Z" transform="translate(-210.284 -543.753)" fill="#8595ba"/>
              <path id="Tracé_88" data-name="Tracé 88" d="M280.1,543.274s-2.825,43.879-1.413,45.181,9.171.136,10.583,2.552-11.854,2.282-13.549.794,0-48.527,0-48.527Z" transform="translate(-230.652 -543.274)" fill="#8595ba"/>
            </g>
            <g id="Groupe_10793" data-name="Groupe 10793">
              <g id="Groupe_10771" data-name="Groupe 10771">
                <g id="Groupe_10768" data-name="Groupe 10768">
                  <g id="Groupe_10740" data-name="Groupe 10740">
                    <g id="Groupe_10740-2" data-name="Groupe 10740">
                      <g id="Groupe_10738" data-name="Groupe 10738">
                        <g id="Groupe_34" data-name="Groupe 34">
                          <g id="Groupe_27" data-name="Groupe 27">
                            <path id="Tracé_89" data-name="Tracé 89" d="M258.07,517.8c1.357.571,5.934,2.192,9.64-.178,4.4-2.819,4.4-6.162,4.4-6.162a12.824,12.824,0,0,0,12.851-2.994c6.162-5.632,3.345-16.866,3.345-16.866s5.777-3,5.107-9.188c-1.084-10-11.267-10.565-11.267-10.565s3.168-7.568-2.465-12.851-13.029-4.049-13.029-4.049a5.816,5.816,0,0,0-2.113-6.515c-3.52-2.463-6.328-.992-6.328-.992s.606-8.007-6.68-10.733c-6.94-2.594-12.87,1.516-12.87,1.516s-4.4-4.754-10.739-3.872a19.676,19.676,0,0,0-9.86,4.049,11.2,11.2,0,0,0-10.914-2.466,10.137,10.137,0,0,0-7.394,8.1s-11.3-3.15-17.464,4.594-3.169,14.222-3.169,14.222-10.176-1.387-13.344,8.295a17.106,17.106,0,0,0,2.64,16.2s-8.274,8.273-4.753,17.252,11.959,7.082,11.959,7.082a9.32,9.32,0,0,0,8.991,8.234c8.275.529,11.8-2.463,11.8-2.463s7.217,5.983,14.259,5.28,9.684-3.519,9.684-3.519,6.69,3.808,13.2,3.577,11.8-4.635,11.8-4.635a6.962,6.962,0,0,0,6.515,3.169C256.255,520.863,257.815,517.688,258.07,517.8Z" transform="translate(-161.195 -432.652)" fill="#f3f6fe"/>
                            <g id="Groupe_26" data-name="Groupe 26">
                              <path id="Tracé_90" data-name="Tracé 90" d="M294.255,481.507c-.829-7.646-6.626-10.8-10.788-11.7.678-2.872,1.156-8.4-3.436-12.7a17.794,17.794,0,0,0-12.16-4.6h-.087a7.084,7.084,0,0,0-3.069-6.1,8.847,8.847,0,0,0-4.848-1.822,10.39,10.39,0,0,0-1.073-2.906,12.693,12.693,0,0,0-7.442-7.185,15.119,15.119,0,0,0-5.308-.959,16.633,16.633,0,0,0-5.207.864.273.273,0,0,0-.044.008c-.031.01-.175.056-.386.134-.075.027-.143.053-.216.08l-.02.009a17.716,17.716,0,0,0-2.031.9,14.922,14.922,0,0,0-9.384-3.607,12.92,12.92,0,0,0-1.786.125,22.525,22.525,0,0,0-9.591,3.594,12.812,12.812,0,0,0-7.6-2.518,13.745,13.745,0,0,0-3.809.554,11.633,11.633,0,0,0-8.143,7.786c-3.471-.508-11.822-.893-17.128,5.777-3.543,4.453-4.41,8.234-4.422,10.851,0,.014,0,.024,0,.036a9.514,9.514,0,0,0,.109,1.646c-3.453.4-10.25,2.2-12.849,10.143a18.79,18.79,0,0,0,2.032,16.5c-.18.194-.29.328-.312.355a1.6,1.6,0,0,0-.29.586c-2.405,3.137-6.363,9.815-3.512,17.084,2.559,6.524,7.623,7.5,10.414,7.5a13.112,13.112,0,0,0,1.9-.14c.811,3.632,3.536,8.547,10.011,8.961.682.044,1.362.067,2.02.067a19.924,19.924,0,0,0,9.8-2.177c2.116,1.538,7.495,4.988,13.165,4.988.448,0,.9-.023,1.33-.063a21.486,21.486,0,0,0,8.734-2.578,5.458,5.458,0,0,0,1.065-.59c2.133,1.053,7.18,3.243,12.351,3.243.212,0,.424,0,.636-.012a22.777,22.777,0,0,0,11.427-4.024,5.26,5.26,0,0,0,.567.524c.04.032.088.044.129.071a8.172,8.172,0,0,0,5.377,2h0c.3,0,.607-.016.911-.047a9.909,9.909,0,0,0,6.452-3.247,14.818,14.818,0,0,0,4.673.808,9.87,9.87,0,0,0,5.412-1.5,11.076,11.076,0,0,0,4.728-5.549,14.477,14.477,0,0,0,2.7.255,14.678,14.678,0,0,0,10.04-4.025c5.631-5.149,4.624-14.111,4.05-17.284A10.9,10.9,0,0,0,294.255,481.507Zm-7.081,7.761c-.843-.257-1.881-.548-3.139-.863a6.24,6.24,0,0,0-6.294,1.646,5.337,5.337,0,0,0-1.015,5.492,4.512,4.512,0,0,0,4.576,2.983,7.518,7.518,0,0,0,2.372-.387,1.433,1.433,0,1,0-.93-2.712c-.11.038-2.681.9-3.328-.867a2.525,2.525,0,0,1,.456-2.594,3.4,3.4,0,0,1,3.466-.781c1.136.284,2.075.547,2.846.779.453,2.422,1.531,10.436-3.025,14.6a11.45,11.45,0,0,1-7.9,3.2,10.593,10.593,0,0,1-3.157-.46l-2.853-5.492a1.584,1.584,0,0,0-2.812,1.461l3.2,6.172a7.8,7.8,0,0,1-3.521,4.114,6.758,6.758,0,0,1-3.7,1,12.146,12.146,0,0,1-4.462-.948l-.311-.129h-.323a2.049,2.049,0,0,0-1.581.919,6.866,6.866,0,0,1-4.772,2.612c-.2.02-.4.031-.587.031h0a5.308,5.308,0,0,1-4.141-2.073,5.128,5.128,0,0,1-.756-2.992,2.6,2.6,0,0,1,1.187-2.161c2.029-1.168,3.009-.176,3.264.165a1.585,1.585,0,0,0,2.6-1.812c-.915-1.337-3.648-3.286-7.446-1.1a5.653,5.653,0,0,0-2.766,4.681,8.183,8.183,0,0,0,.406,3.1,19.737,19.737,0,0,1-9.961,3.622c-4.241.15-8.637-1.585-10.868-2.622l0-.01c.911-2.23.688-5.075-.633-8.006-2.02-4.49-6.885-4.343-9.172-3.636a1.584,1.584,0,1,0,.933,3.028c.162-.049,3.961-1.181,5.351,1.909a7.312,7.312,0,0,1,.587,5.508,3.072,3.072,0,0,1-.251.493l-.241.243c-.022.023-2.454,2.42-8.7,3.043a10.12,10.12,0,0,1-1.016.049c-4.763,0-9.549-3.117-11.336-4.412l.4-4.8a1.585,1.585,0,0,0-3.16-.26l-.393,4.764c-.942.572-3.641,1.9-8.473,1.9-.591,0-1.2-.022-1.818-.059-6.563-.419-7.257-7.109-7.308-7.747a4.326,4.326,0,0,1,2.34-3.469,3.417,3.417,0,0,1,2.1-.573.477.477,0,0,1-.112-.041l1.239-2.916c-.307-.129-1.974-.709-4.7.727a7.385,7.385,0,0,0-3.867,5.021,10.083,10.083,0,0,1-1.806.167c-3.526,0-6.036-1.845-7.463-5.483-2.958-7.541,3.69-14.809,4.344-15.5a8.062,8.062,0,0,1,5.172-1.8,4.892,4.892,0,0,1,4.588,3.031,1.583,1.583,0,0,0,1.5,1.069,1.609,1.609,0,0,0,.5-.081,1.587,1.587,0,0,0,1-2.007,8.014,8.014,0,0,0-7.524-5.18,10.9,10.9,0,0,0-5.931,1.6,15.776,15.776,0,0,1-1.507-13.52c2.209-6.753,8.338-7.867,10.8-8.038a7.586,7.586,0,0,0,5.945,4.266,8.483,8.483,0,0,0,1.226.09,8.764,8.764,0,0,0,7.634-5.068,1.585,1.585,0,0,0-2.879-1.326c-.071.152-1.8,3.706-5.524,3.168a4.482,4.482,0,0,1-3.25-2.025l-.652-1.4c-.01-.02-.047-.1-.093-.236a7.739,7.739,0,0,1-.312-2.107c0-.051-.008-.1-.01-.149.018-1.982.715-5.047,3.748-8.86,4.706-5.914,12.666-4.914,14.861-4.5l2.234,5.022a1.586,1.586,0,0,0,1.448.941,1.563,1.563,0,0,0,.643-.138,1.585,1.585,0,0,0,.8-2.092l-2.411-5.421c-.016-.036-.04-.066-.057-.1a8.561,8.561,0,0,1,6.149-6.2,10.529,10.529,0,0,1,2.928-.43,9.64,9.64,0,0,1,6.4,2.468l.354.369a4.348,4.348,0,0,1,.607,4.29,3.551,3.551,0,0,1-3.336,2.239,1.584,1.584,0,0,0-.3,3.154,3.539,3.539,0,0,0,.357.014,6.735,6.735,0,0,0,6.123-4.021,7.168,7.168,0,0,0-.442-6.808,19.578,19.578,0,0,1,7.855-2.815,9.773,9.773,0,0,1,1.35-.093,11.662,11.662,0,0,1,6.994,2.588,7.46,7.46,0,0,0-1.672,3.3,6.465,6.465,0,0,0,4.464,7.805,1.659,1.659,0,0,0,.385.048,1.585,1.585,0,0,0,.384-3.123,3.288,3.288,0,0,1-2.138-4.059c.586-2.7,3.806-3.957,4.426-4.176a13.6,13.6,0,0,1,4.444-.773,11.916,11.916,0,0,1,4.2.759,9.648,9.648,0,0,1,5.614,5.405c.014.04.031.081.048.119a11.411,11.411,0,0,1,.86,3.537l-.027,2.67c-.521,2.261-1.7,2.268-2.231,2.268a3.4,3.4,0,0,1-1.8-.591,1.585,1.585,0,1,0-1.946,2.5,6.524,6.524,0,0,0,3.745,1.258c1.445,0,4.874-.579,5.535-5.948.038-.31.061-.61.075-.9A6.246,6.246,0,0,1,262.9,449a4.154,4.154,0,0,1,1.525,4.7l-.866,2.5,2.619-.42a11.567,11.567,0,0,1,1.695-.1,14.649,14.649,0,0,1,9.994,3.745c4.172,3.915,2.7,9.321,2.214,10.738-.169.355-2.375,4.862-5.467,5.007a2.158,2.158,0,0,1-1.626-.368,1.451,1.451,0,0,1-.168-1.047,1.584,1.584,0,0,0-3.08-.742,4.615,4.615,0,0,0,.8,3.8,4.68,4.68,0,0,0,3.811,1.528c.134,0,.271,0,.41-.011,3.741-.173,6.3-3.549,7.481-5.517,2.292.382,8.107,2.04,8.865,9.039C291.569,486.141,288.25,488.592,287.173,489.267Z" transform="translate(-160.462 -431.923)" fill="#b8c4e0"/>
                              <path id="Tracé_91" data-name="Tracé 91" d="M279.364,481.055a9.136,9.136,0,0,0-2.149-8.148c-5.111-6.153-12.857-4.794-17.662-2.616a11.1,11.1,0,0,0-7.517-8.437c-5.811-1.978-10.286,1.931-12.364,4.322a14.484,14.484,0,0,0-10.66-3.851c-3.731.074-7.262,2.873-8.588,6.806a8.352,8.352,0,0,0,2.706,9.563,9.7,9.7,0,0,0,12.87-.336,1.584,1.584,0,0,0-2.167-2.312,6.521,6.521,0,0,1-8.73.167,5.3,5.3,0,0,1-1.676-6.071c.893-2.647,3.269-4.6,5.651-4.651,6.579-.135,9.211,3.86,9.313,4.022a1.586,1.586,0,0,0,2.683.022c.042-.066,4.313-6.6,9.942-4.682a8.063,8.063,0,0,1,5.6,7.857,1.586,1.586,0,0,0,2.419,1.439c.406-.253,10.029-6.1,15.746.782a6.06,6.06,0,0,1,1.5,5.407,6.517,6.517,0,0,1-3.173,4.212c-2.072.931-4.666-.441-4.685-.453a1.585,1.585,0,0,0-1.526,2.78,10.662,10.662,0,0,0,3.891,1.131,7.289,7.289,0,0,0,3.618-.566A9.682,9.682,0,0,0,279.364,481.055Z" transform="translate(-178.28 -444.783)" fill="#b8c4e0"/>
                              <path id="Tracé_92" data-name="Tracé 92" d="M203.813,507.717a7.258,7.258,0,0,0-.376-4.069h.018a8.271,8.271,0,0,0,2.707-.454,7.263,7.263,0,0,0,4.61-5.193,10.033,10.033,0,0,0-1.717-8.808c-2.919-3.45-7.46-2.584-9.456-1.642a1.585,1.585,0,0,0,1.352,2.866c.036-.018,3.591-1.655,5.684.823a6.841,6.841,0,0,1,1.083,5.92,4.2,4.2,0,0,1-2.59,3.036,6.1,6.1,0,0,1-4.826-.581,13.071,13.071,0,0,0-1.84-1.235c-.1-.088-.156-.139-.159-.141a1.584,1.584,0,1,0-2.215,2.264c.034.032.212.2.5.441a.137.137,0,0,0,.011.01,13.222,13.222,0,0,0,1.96,1.326,5.208,5.208,0,0,1,2.139,4.854c-.648,3.471-3.217,3.649-3.521,3.658a1.584,1.584,0,0,0,.018,3.168C199.08,513.961,202.891,512.655,203.813,507.717Z" transform="translate(-171.53 -449.176)" fill="#b8c4e0"/>
                              <path id="Tracé_93" data-name="Tracé 93" d="M213.054,526.824a9.456,9.456,0,0,0-8.359,5.8,1.584,1.584,0,1,0,2.956,1.14,6.306,6.306,0,0,1,5.506-3.773c3.481-.106,3.849,3.79,3.882,4.226a1.585,1.585,0,0,0,1.578,1.489c.034,0,.066,0,.1-.006a1.585,1.585,0,0,0,1.483-1.677C220.041,531.456,218.352,526.655,213.054,526.824Z" transform="translate(-174.357 -461.806)" fill="#b8c4e0"/>
                              <path id="Tracé_94" data-name="Tracé 94" d="M312.138,507.468c-2.544-2.143-6.389-1.509-6.552-1.478a1.443,1.443,0,0,0,.49,2.843c.027,0,2.7-.423,4.2.845a3.562,3.562,0,0,1,1.085,2.908,4.374,4.374,0,0,1-1.174,3.345,4.95,4.95,0,0,1-3.33,1.05,1.445,1.445,0,0,0-1.53,1.784c.143.587.386,2.5-.366,3.536a2.2,2.2,0,0,1-1.724.807,3.065,3.065,0,0,1-2.485-.65,3.723,3.723,0,0,1-.823-2.6,1.444,1.444,0,0,0-2.88-.227,6.573,6.573,0,0,0,1.648,4.86,5.493,5.493,0,0,0,4.062,1.531c.229,0,.463-.011.706-.03a4.986,4.986,0,0,0,3.837-2,6.707,6.707,0,0,0,1.061-4.217,6.626,6.626,0,0,0,5.886-7.187A6.343,6.343,0,0,0,312.138,507.468Z" transform="translate(-203.469 -455.212)" fill="#b8c4e0"/>
                            </g>
                          </g>
                        </g>
                      </g>
                    </g>
                  </g>
                </g>
                <g id="Groupe_10769" data-name="Groupe 10769" transform="translate(40.29 28.734)">
                  <path id="Tracé_22523" data-name="Tracé 22523" d="M0,0A57.17,57.17,0,0,1,9.6,2.449,53.439,53.439,0,0,1,18.311,6.72" transform="translate(17.403 4.583) rotate(133)" fill="none" stroke="#8595ba" stroke-linecap="round" stroke-linejoin="bevel" stroke-width="2"/>
                  <path id="Tracé_22935" data-name="Tracé 22935" d="M0,6.72A57.17,57.17,0,0,0,9.6,4.271,53.439,53.439,0,0,0,18.311,0" transform="translate(50.135 17.975) rotate(-133)" fill="none" stroke="#8595ba" stroke-linecap="round" stroke-linejoin="bevel" stroke-width="2"/>
                </g>
                <g id="Groupe_11091" data-name="Groupe 11091" transform="translate(47.695 45.697)">
                  <g id="Groupe_10734" data-name="Groupe 10734" transform="translate(28.045 0)">
                    <g id="Groupe_29" data-name="Groupe 29">
                      <path id="Tracé_97" data-name="Tracé 97" d="M305.9,509.818a7.777,7.777,0,1,1-7.778-7.778A7.776,7.776,0,0,1,305.9,509.818Z" transform="translate(-290.343 -502.04)" fill="none" stroke="#8595ba" stroke-width="2"/>
                      <path id="Tracé_98" data-name="Tracé 98" d="M297.642,507.517a3.054,3.054,0,1,1-3.056-3.052A3.059,3.059,0,0,1,297.642,507.517Z" transform="translate(-283.755 -497.292)" fill="#8595ba" stroke="#8595ba" stroke-width="2"/>
                    </g>
                  </g>
                  <g id="Groupe_10742" data-name="Groupe 10742" transform="translate(0 0)">
                    <g id="Groupe_29-2" data-name="Groupe 29">
                      <path id="Tracé_97-2" data-name="Tracé 97" d="M305.9,509.818a7.777,7.777,0,1,1-7.778-7.778A7.776,7.776,0,0,1,305.9,509.818Z" transform="translate(-290.343 -502.04)" fill="none" stroke="#8595ba" stroke-width="2"/>
                      <path id="Tracé_98-2" data-name="Tracé 98" d="M297.642,507.517a3.054,3.054,0,1,1-3.056-3.052A3.059,3.059,0,0,1,297.642,507.517Z" transform="translate(-283.755 -497.292)" fill="#8595ba" stroke="#8595ba" stroke-width="2"/>
                    </g>
                  </g>
                </g>
              </g>
            </g>
          </g>
          <g id="Groupe_11092" data-name="Groupe 11092" transform="translate(63.623 69.453)">
            <g id="Groupe_22" data-name="Groupe 22">
              <path id="Tracé_51" data-name="Tracé 51" d="M368.589,473.825a3.721,3.721,0,0,1-1.1,2.57,6.086,6.086,0,0,1-2.521,1.538,8.187,8.187,0,0,1-5.025,0,6.1,6.1,0,0,1-2.521-1.538,3.729,3.729,0,0,1-1.1-2.57c0-1.814,1.458-.984,3.56-.4a8.459,8.459,0,0,0,5.143,0C367.129,472.841,368.589,472.011,368.589,473.825Z" transform="translate(-356.325 -472.719)" fill="#8595ba"/>
            </g>
            <path id="Tracé_52" data-name="Tracé 52" d="M387.125,490.8a9.006,9.006,0,0,1-5.025,0,2.538,2.538,0,0,1,5.025,0Z" transform="translate(-378.481 -485.855)" fill="#8595ba"/>
          </g>
        </g>
      </g>
    </g>
  </g>
</svg>
