<svg xmlns="http://www.w3.org/2000/svg" xmlns:xlink="http://www.w3.org/1999/xlink" width="241.278" height="267.721" viewBox="0 0 241.278 267.721"><defs><style>.a{fill:#b8c4e0;}.b{fill:#dfe4f4;}.c,.l,.n{fill:#1455d7;}.c,.q{opacity:0.5;}.d{fill:url(#a);}.e{fill:url(#b);}.f{fill:#f3f6fe;}.g{fill:url(#c);}.h{fill:url(#d);}.i{fill:url(#e);}.j{fill:url(#f);}.k,.n,.p{opacity:0.2;}.m{fill:#19a2ed;}.o,.z{fill:#fff;}.p{fill:url(#g);}.q{fill:url(#h);}.r,.t,.u,.v{fill:#1d84f4;}.s{fill:#1c83f4;}.t{opacity:0.58;}.u{opacity:0.17;}.v{opacity:0.31;}.w,.x{fill:none;stroke-miterlimit:10;}.x{stroke:#fff;stroke-linecap:round;stroke-width:2px;}.y,.z{stroke:none;}</style><linearGradient id="a" x1="0.464" y1="1.077" x2="0.474" y2="0.012" gradientUnits="objectBoundingBox"><stop offset="0" stop-color="#9ab5ff"/><stop offset="1" stop-color="#cdffff"/></linearGradient><linearGradient id="b" x1="1.879" y1="0.951" x2="1.879" y2="-0.056" gradientUnits="objectBoundingBox"><stop offset="0.01" stop-color="#838bff"/><stop offset="1" stop-color="#8693ff"/></linearGradient><linearGradient id="c" x1="2.026" y1="0.952" x2="2.026" y2="-0.059" gradientUnits="objectBoundingBox"><stop offset="0" stop-color="#b0c2ff"/><stop offset="1" stop-color="#caffff"/></linearGradient><linearGradient id="d" x1="2.418" y1="0.913" x2="2.418" y2="-0.087" xlink:href="#b"/><linearGradient id="e" x1="1.844" y1="0.917" x2="1.844" y2="-0.095" xlink:href="#c"/><linearGradient id="f" x1="0.27" y1="0.994" x2="0.27" y2="-0.014" gradientUnits="objectBoundingBox"><stop offset="0" stop-color="#ca90ff"/><stop offset="1"/></linearGradient><linearGradient id="g" x1="0.5" y1="1" x2="0.5" gradientUnits="objectBoundingBox"><stop offset="0" stop-color="#7a97ef"/><stop offset="0.38" stop-color="#a3aef6"/><stop offset="0.79" stop-color="#c8c2fd"/><stop offset="1" stop-color="#d6caff"/></linearGradient><linearGradient id="h" x1="0.478" y1="0.199" x2="0.478" y2="-0.859" gradientUnits="objectBoundingBox"><stop offset="0"/><stop offset="1" stop-color="#fff"/></linearGradient></defs><g transform="translate(-17.425 -83.789)"><g transform="translate(38.376 115.005)"><g transform="translate(0 0)"><path class="a" d="M59.768,43.75l117.356,11.4a5.572,5.572,0,0,1,4.993,4.824l21.541,164.149a5.587,5.587,0,0,1-3.747,6.012L90.8,267.024a5.58,5.58,0,0,1-7.332-4.509L53.69,50.077a5.572,5.572,0,0,1,6.078-6.328Z" transform="translate(-48.697 -43.721)"/><path class="b" d="M74.4,69.054s.491-8.666,11.093-8.065L117.93,283.677s-11.321,4.619-15.646-4.663Z" transform="translate(-54.237 -48.32)"/><path class="b" d="M86.916,60.991,204.294,72.356a5.594,5.594,0,0,1,4.964,4.832l21.563,164.171a5.565,5.565,0,0,1-3.739,6L117.974,284.236a5.572,5.572,0,0,1-7.332-4.509L80.852,67.289a5.587,5.587,0,0,1,6.064-6.3Z" transform="translate(-55.945 -48.322)"/><path class="a" d="M209.455,85.862l19.987,152.506a5.228,5.228,0,0,1-3.666,5.6l-105.456,34.8a5.719,5.719,0,0,1-1.9.286,5.25,5.25,0,0,1-5.132-4.443L85.515,77.3a5.242,5.242,0,0,1,3.791-5.7,5.5,5.5,0,0,1,2.09-.213L204.638,81.4A5.22,5.22,0,0,1,209.455,85.862Z" transform="translate(-57.191 -51.095)"/><path class="a" d="M207.739,86.183l19.987,152.506a5.235,5.235,0,0,1-3.666,5.6l-105.5,34.8-.176.051a5.25,5.25,0,0,1-5.132-4.443L85.515,77.384a5.242,5.242,0,0,1,3.791-5.7h.381L202.944,81.717A5.235,5.235,0,0,1,207.739,86.183Z" transform="translate(-57.191 -51.181)"/><path class="c" d="M103.69,208.66s13.484,75.769,37.87,109.071l12.948-4.3Z" transform="translate(-62.052 -87.727)"/><path class="d" d="M283.429,290.767s-49.33-8.49-120.179,36.88c0,0-31.748-10.441-55.621-90.917Z" transform="translate(-63.103 -95.216)"/><path class="e" d="M85.219,132.293h0a1.657,1.657,0,0,1-1.826-1.422l-4.4-32.554a1.657,1.657,0,0,1,1.422-1.862h0a1.657,1.657,0,0,1,1.862,1.422l4.4,32.517a1.664,1.664,0,0,1-1.459,1.9Z" transform="translate(-55.459 -57.787)"/><path class="f" d="M84.64,132.383h0a1.276,1.276,0,0,1-1.466-1.092L78.723,98.01a1.261,1.261,0,0,1,1.085-1.466h0a1.276,1.276,0,0,1,1.466,1.085l4.48,33.287a1.268,1.268,0,0,1-1.114,1.466Z" transform="translate(-55.386 -57.81)"/><path class="g" d="M79.828,96.555a1.283,1.283,0,0,0-1.048.9,1.3,1.3,0,0,1,.638-.286,1.276,1.276,0,0,1,1.466,1.092l4.48,33.287a1.159,1.159,0,0,1-.044.528,1.268,1.268,0,0,0,.455-1.144L81.288,97.647a1.276,1.276,0,0,0-1.459-1.092Z" transform="translate(-55.406 -57.813)"/><rect class="h" width="3.314" height="18.455" rx="1.657" transform="translate(28.798 79.735) rotate(-7.69)"/><path class="f" d="M89.767,170.53h0a1.261,1.261,0,0,1-1.466-1.085l-2.126-15.764a1.276,1.276,0,0,1,1.092-1.466h0a1.276,1.276,0,0,1,1.466,1.092l2.126,15.764a1.268,1.268,0,0,1-1.092,1.459Z" transform="translate(-57.374 -72.663)"/><path class="i" d="M87.32,152.242a1.613,1.613,0,0,0-1.1.535,2.068,2.068,0,0,1,.653-.191c.733-.1,1.3.117,1.349.477l2.288,17a.4.4,0,0,1-.073.279c.337-.161.55-.4.521-.623l-2.295-17C88.618,152.359,88.016,152.146,87.32,152.242Z" transform="translate(-57.391 -72.668)"/><path class="j" d="M105.932,308.989S89.068,186.347,89.8,186.2s16.38,113.133,16.38,113.133S107.611,309.048,105.932,308.989Z" transform="translate(-58.34 -81.735)"/><path class="f" d="M277.409,246.371c-14.29-2.258-29.775-.631-44.725,2.933-39.644,9.414-75.52,32.356-75.52,32.356-25.662-13.711-46.676-60.643-55.511-89.326l-2.288-16.226L85.1,75.3v-.044a4.4,4.4,0,0,1,4.744-4.912L203.613,81.269a4.348,4.348,0,0,1,3.879,3.666.939.939,0,0,1,0,.139c.484,3.666,1.2,9.194,2.053,15.705l.733,5.682.227,1.686c.557,4.267,1.158,8.8,1.752,13.374l1.466,11c.154,1.217.323,2.434.477,3.666l3.725,28.411c.638,4.839,1.048,7.948,1.107,8.38C239.723,218.927,277.409,246.371,277.409,246.371Z" transform="translate(-57.083 -50.82)"/><path class="a" d="M141.224,92.073l1.686,10.36a3.38,3.38,0,0,0,3.182,2.837l47.8,2.134a3.38,3.38,0,0,0,3.49-3.886l-1.4-9.172a3.387,3.387,0,0,0-3.109-2.859L144.8,88.157a3.387,3.387,0,0,0-3.571,3.915Z" transform="translate(-72.054 -55.575)"/><g class="k" transform="translate(47.755 80.368)"><rect class="l" width="97.794" height="0.631" transform="translate(0 3.754) rotate(-2.2)"/></g><g class="k" transform="translate(52.696 111.91)"><rect class="l" width="105.713" height="0.631" transform="translate(0 9.066) rotate(-4.92)"/></g><g class="k" transform="translate(63.686 139.819)"><path class="l" d="M133.936,252.632l-.176-.609c.733-.213,74.684-21.065,106.791-17.106l-.081.631C208.517,231.619,134.669,252.441,133.936,252.632Z" transform="translate(-133.76 -234.418)"/></g><path class="m" d="M123.992,129.721l.733,6.3a3.145,3.145,0,0,0,3.2,2.786l5.616-.132a3.153,3.153,0,0,0,3.05-3.556l-.785-5.954a3.145,3.145,0,0,0-3-2.735l-5.565-.22a3.145,3.145,0,0,0-3.248,3.512Z" transform="translate(-67.462 -65.728)"/><path class="m" d="M129.382,176.431l.667,5.719a3.468,3.468,0,0,0,3.769,3.05l5.132-.484a3.461,3.461,0,0,0,3.109-3.9l-.733-5.44a3.468,3.468,0,0,0-3.578-3.006l-5.1.2a3.475,3.475,0,0,0-3.27,3.864Z" transform="translate(-68.9 -78.044)"/><path class="n" d="M137.7,224.712a47.455,47.455,0,0,0,3.864,9.312,2.053,2.053,0,0,0,2.332.931c1.738-.477,4.671-1.29,7.046-1.972a2.075,2.075,0,0,0,1.371-2.713c-.792-2.148-2.009-5.484-2.771-7.7a2.075,2.075,0,0,0-2.2-1.386l-7.889.836a2.082,2.082,0,0,0-1.752,2.691Z" transform="translate(-71.099 -91.065)"/><path class="n" d="M165.31,297.934a47.447,47.447,0,0,0,5.572,8.4,2.06,2.06,0,0,0,2.471.469c1.613-.807,4.333-2.163,6.533-3.292a2.083,2.083,0,0,0,.821-2.933c-1.188-1.95-3.035-4.993-4.209-7.017a2.068,2.068,0,0,0-2.4-.938l-7.581,2.339a2.082,2.082,0,0,0-1.2,2.969Z" transform="translate(-78.426 -110.104)"/><path class="a" d="M207.462,84.905l2.09,15.844.733,5.682.227,1.686,1.752,13.374,1.466,11,.477,3.666,3.725,28.411c.389,2.933.689,5.206.88,6.657l.227,1.723-12.721-83.3a6.372,6.372,0,0,0-5.8-5.382L85.1,75.3v-.044a4.4,4.4,0,0,1,4.744-4.912L203.613,81.269A4.348,4.348,0,0,1,207.462,84.905Z" transform="translate(-57.083 -50.82)"/><path class="m" d="M221.334,75.089s-.213-9.708-1.254-17.311a3.292,3.292,0,0,1,3.827-3.666c3.666.645,8.652,1.576,11.863,2.346A3.285,3.285,0,0,1,238.219,59c.792,3.959,2.332,12.831,1.4,17.949Z" transform="translate(-93.097 -46.481)"/><g class="k" transform="translate(55.77 115.602)"><path class="l" d="M133.2,240.191a3.666,3.666,0,0,1-3.461-2.5c-1.708-5.228-4.854-15.133-6.672-22.729a3.666,3.666,0,0,1,.579-2.977,3.6,3.6,0,0,1,2.61-1.466l94.619-9.114a3.666,3.666,0,0,1,3.607,2l7.691,15.4A3.666,3.666,0,0,1,229,224.068c-11.914.3-45,2.464-94.861,15.969A3.5,3.5,0,0,1,133.2,240.191Zm88.043-38.17a1.88,1.88,0,0,0-.286,0L126.37,211.1a3,3,0,0,0-2.156,1.239,3.036,3.036,0,0,0-.477,2.464c1.811,7.567,4.949,17.45,6.665,22.671h0a3,3,0,0,0,3.666,1.965c49.924-13.528,83.071-15.69,95.008-16a3,3,0,0,0,2.61-4.341L224,203.707A3.028,3.028,0,0,0,221.239,202.02Z" transform="translate(-122.963 -201.389)"/></g><g class="k" transform="translate(50.171 81.938)"><path class="l" d="M122.654,191.545a3.827,3.827,0,0,1-3.776-3.277L115.366,163.6a3.813,3.813,0,0,1,3.622-4.348l92.148-3.776a3.813,3.813,0,0,1,3.937,3.307l2.823,20.926a3.805,3.805,0,0,1-3.468,4.311l-91.459,7.515Zm88.651-35.436h-.169l-92.156,3.776a3.182,3.182,0,0,0-3.014,3.629l3.519,24.665a3.175,3.175,0,0,0,3.409,2.72l91.467-7.508a3.175,3.175,0,0,0,2.889-3.593l-2.823-20.933a3.167,3.167,0,0,0-3.123-2.757Z" transform="translate(-115.328 -155.475)"/></g><g class="k" transform="translate(46.318 50.923)"><path class="l" d="M117.351,144.662a4.487,4.487,0,0,1-4.48-3.967l-2.764-22.451a4.509,4.509,0,0,1,4.663-5.066l91.027,3.6a4.509,4.509,0,0,1,4.3,3.908l2.148,15.932a4.516,4.516,0,0,1-4.333,5.132l-90.4,2.933Zm-3.849-4.04a3.864,3.864,0,0,0,3.981,3.409l90.4-2.933a3.886,3.886,0,0,0,3.725-4.4l-2.141-15.925a3.886,3.886,0,0,0-3.666-3.365l-91.093-3.629a3.886,3.886,0,0,0-4.011,4.363Z" transform="translate(-110.072 -113.175)"/></g><path class="o" d="M131.652,135.9a.521.521,0,0,1-.381-.161l-2.038-2.251a.506.506,0,0,1,0-.733.521.521,0,0,1,.733,0l1.576,1.738,2.295-3.813a.506.506,0,0,1,.733-.176.513.513,0,0,1,.176.733l-2.64,4.4a.528.528,0,0,1-.389.242Z" transform="translate(-68.824 -66.852)"/><path class="o" d="M136.922,182.443a.5.5,0,0,1-.381-.169l-2.046-2.244a.521.521,0,0,1,0-.733.513.513,0,0,1,.733.037l1.576,1.738,2.295-3.813a.506.506,0,0,1,.7-.176.513.513,0,0,1,.176.733l-2.64,4.4a.543.543,0,0,1-.389.249Z" transform="translate(-70.23 -79.283)"/><path class="o" d="M177.042,302.777a1.457,1.457,0,0,1-.3-.037l-2.933-.682a1.349,1.349,0,0,1,.6-2.625l2.933.689a1.342,1.342,0,0,1-.3,2.654Z" transform="translate(-80.502 -111.941)"/><path class="o" d="M170.009,300.975a1.461,1.461,0,0,1-.345-.044l-.5-.132a1.342,1.342,0,1,1,.682-2.6l.5.125a1.342,1.342,0,0,1-.337,2.647Z" transform="translate(-79.253 -111.606)"/><path class="o" d="M133.56,259.509l.455-1.679.924,1.305Z" transform="translate(-35.634 -68.79)"/><path class="p" d="M238.721,287.052l-.843.733c-39.644,9.414-75.52,32.356-75.52,32.356-25.662-13.711-46.675-60.643-55.511-89.326L104.56,214.59C111.584,220.668,179.442,278.012,238.721,287.052Z" transform="translate(-62.284 -89.309)"/><path class="b" d="M60.325,198.706l62.2-1.95a5.917,5.917,0,0,1,6.232,5.213l11.555,36.381c.389,3.233-9.2,5.594-12.428,6l-68.107,8.637a5.924,5.924,0,0,1-6.6-4.964L46.9,207.8C49.048,200.7,54.929,198.736,60.325,198.706Z" transform="translate(-46.9 -84.548)"/><path class="a" d="M63.183,197.885l70.131-4.209a5.924,5.924,0,0,1,6.24,5.213l4.26,35.8a5.932,5.932,0,0,1-5.132,6.6l-68.114,8.622a5.932,5.932,0,0,1-6.6-4.964l-6.284-40.231a5.932,5.932,0,0,1,5.5-6.833Z" transform="translate(-49.758 -83.726)"/><path class="a" d="M65.69,196.509s1.18,5.176,3.967,21.131l71.289-6.012S139.384,193,135.2,192.41Z" transform="translate(-51.913 -83.391)"/><path class="b" d="M68.451,219.145l-2.126.513L62.959,199.18l-1.789.381L64.484,198S67.769,212.4,68.451,219.145Z" transform="translate(-50.707 -84.883)"/><path class="b" d="M78.764,194.99a1.9,1.9,0,0,1-1.892-1.76,8.293,8.293,0,0,1,7.743-8.85l22.194-1.386a8.307,8.307,0,0,1,8.63,6.6l.205,1.019a1.9,1.9,0,0,1-3.717.733l-.205-1.019a4.509,4.509,0,0,0-4.678-3.593L84.85,188.1a4.495,4.495,0,0,0-4.223,4.854,1.9,1.9,0,0,1-1.76,2.024Z" transform="translate(-54.891 -80.875)"/><path class="b" d="M94.715,174.92l-1.224.535L21.3,181.445l2.126-.513Z" transform="translate(-5.683 -46.67)"/><path class="a" d="M67.48,176.17l.968,7.354,11.365-1.393.2-.337-1.408-6.5-10.536.293Z" transform="translate(-18.004 -46.768)"/><path class="b" d="M68.28,175.37,69.5,182.7l10.727-1.122-.821-7.09Z" transform="translate(-18.217 -46.555)"/><path class="q" d="M115.74,219.423l10.543-.843s.249,2.456-4.4,2.705C117.558,221.52,115.74,219.423,115.74,219.423Z" transform="translate(-65.267 -90.374)"/><path class="r" d="M257,294.161h0a1.115,1.115,0,0,1-.667-1.43l1.466-4.069a1.129,1.129,0,0,1,1.43-.675h0a1.129,1.129,0,0,1,.675,1.466l-1.466,4.069A1.122,1.122,0,0,1,257,294.161Z" transform="translate(-102.759 -108.875)"/><rect class="r" width="15.009" height="93.168" rx="7.504" transform="translate(190.743 62.275) rotate(19.99)"/><path class="r" d="M253.8,275.73s-1.158,8.065,3.277,13.066a16.864,16.864,0,0,0,10.6-7.948Z" transform="translate(-102.065 -105.621)"/><path class="s" d="M269.293,268.425a22.612,22.612,0,0,1-3.153.242,18.63,18.63,0,0,1-6.408-.975l-.117-.044a22.038,22.038,0,0,1-7.765-5.624,103.95,103.95,0,0,0,10.038-33.192l4.26-.462c.983,2.2,5.594,4.326,6.174,4.575s5.47,1.518,7.647.462l2.977,3.087A103.944,103.944,0,0,0,269.293,268.425Z" transform="translate(-101.581 -92.986)"/><path class="r" d="M317.678,134.218c-.169.469-1.43.433-2.816-.066s-2.368-1.29-2.2-1.752,1.43-.44,2.815.066S317.847,133.756,317.678,134.218Z" transform="translate(-117.801 -67.293)"/><path class="t" d="M286.612,236.472c-11.621,1.7-21.072-7.64-21.072-7.64l4.26-.462c.982,2.2,5.594,4.326,6.173,4.575s5.47,1.518,7.647.462Z" transform="translate(-105.233 -92.986)"/><path class="u" d="M296.435,136.17,273.61,204.16a12.129,12.129,0,0,0,4.714,2.933l25.4-67.418S297.578,137.915,296.435,136.17Z" transform="translate(-107.386 -68.387)"/><path class="v" d="M305.4,134.957s2-2.317,4.355-2.537c0,0,.543,1.063,3.248,2.31a17.345,17.345,0,0,1-.631,3.475A17.91,17.91,0,0,1,305.4,134.957Z" transform="translate(-115.868 -67.386)"/></g></g><g transform="translate(17.425 84.789)"><g class="w" transform="translate(-76.365 -159.294)"><path class="y" d="M93.667,209.263a4.612,4.612,0,1,1-4.612-4.612A4.612,4.612,0,0,1,93.667,209.263Z"/><path class="z" d="M 89.05480194091797 204.6509857177734 C 86.50766754150391 204.6509857177734 84.44300842285156 206.7156829833984 84.44300842285156 209.2628021240234 C 84.44300842285156 211.8099822998047 86.50766754150391 213.8753814697266 89.05480194091797 213.8753814697266 C 91.60195159912109 213.8753814697266 93.66664123535156 211.8099822998047 93.66664123535156 209.2628021240234 C 93.66664123535156 206.7156829833984 91.60195159912109 204.6509857177734 89.05480194091797 204.6509857177734 M 89.05480194091797 202.6509857177734 C 92.70058441162109 202.6509857177734 95.66664123535156 205.6170349121094 95.66664123535156 209.2628021240234 C 95.66664123535156 212.9089965820312 92.70058441162109 215.8753814697266 89.05480194091797 215.8753814697266 C 85.40904235839844 215.8753814697266 82.44300842285156 212.9089965820312 82.44300842285156 209.2628021240234 C 82.44300842285156 205.6170349121094 85.40904235839844 202.6509857177734 89.05480194091797 202.6509857177734 Z"/></g><g class="w" transform="translate(-139.458 -180.939)"><path class="y" d="M330.15,290.391a4.612,4.612,0,1,1-4.612-4.612A4.612,4.612,0,0,1,330.15,290.391Z"/><path class="z" d="M 325.53857421875 295.0026245117188 C 328.0856323242188 295.0026245117188 330.1503295898438 292.93798828125 330.1503295898438 290.390869140625 C 330.1503295898438 287.8437194824219 328.0856323242188 285.7789611816406 325.53857421875 285.7789611816406 C 322.9914245605469 285.7789611816406 320.926025390625 287.8437194824219 320.926025390625 290.390869140625 C 320.926025390625 292.93798828125 322.9914245605469 295.0026245117188 325.53857421875 295.0026245117188 M 325.53857421875 297.0026245117188 C 321.8923950195312 297.0026245117188 318.926025390625 294.03662109375 318.926025390625 290.390869140625 C 318.926025390625 286.7450561523438 321.8923950195312 283.7789611816406 325.53857421875 283.7789611816406 C 329.1842956542969 283.7789611816406 332.1503295898438 286.7450561523438 332.1503295898438 290.390869140625 C 332.1503295898438 294.03662109375 329.1842956542969 297.0026245117188 325.53857421875 297.0026245117188 Z"/></g><circle class="o" cx="2.306" cy="2.306" r="2.306" transform="translate(0 60.127)"/><circle class="o" cx="2.306" cy="2.306" r="2.306" transform="translate(178.195 123.155)"/><g transform="translate(21.818 0)"><g transform="translate(9.978)"><line class="x" y2="5.351"/><line class="x" y2="5.351" transform="translate(0 14.605)"/></g><g transform="translate(0 9.978)"><line class="x" x1="5.351" transform="translate(14.605)"/><line class="x" x1="5.351"/></g><g transform="translate(2.922 2.922)"><line class="x" x2="3.784" y2="3.784"/><line class="x" x2="3.784" y2="3.784" transform="translate(10.327 10.327)"/></g><g transform="translate(2.922 2.922)"><line class="x" x1="3.784" y2="3.784" transform="translate(10.327)"/><line class="x" x1="3.784" y2="3.784" transform="translate(0 10.327)"/></g></g><g transform="translate(14.63 67.391)"><g transform="translate(3.594)"><line class="x" y2="1.927"/><line class="x" y2="1.927" transform="translate(0 5.26)"/></g><g transform="translate(0 3.594)"><line class="x" x1="1.927" transform="translate(5.26)"/><line class="x" x1="1.928"/></g><g transform="translate(1.053 1.053)"><line class="x" x2="1.363" y2="1.363"/><line class="x" x2="1.363" y2="1.363" transform="translate(3.72 3.72)"/></g><g transform="translate(1.053 1.053)"><line class="x" x1="1.363" y2="1.363" transform="translate(3.72)"/><line class="x" x1="1.363" y2="1.363" transform="translate(0 3.72)"/></g></g></g></g></svg>