<svg xmlns="http://www.w3.org/2000/svg" width="14.926" height="15.989" viewBox="0 0 14.926 15.989">
  <g id="weighing-scale" transform="translate(-16.999)">
    <path id="Path_27474" data-name="Path 27474" d="M87.178,63.2h0a7.018,7.018,0,0,0-5.323,2.527.469.469,0,0,0,0,.616l2.557,2.939a.469.469,0,0,0,.354.161H89.59a.469.469,0,0,0,.354-.161L92.5,66.341a.469.469,0,0,0,0-.616A7.018,7.018,0,0,0,87.178,63.2ZM86.9,68.5l.276-.6.276.6Zm2.474,0h-.889L87.6,66.589a.469.469,0,0,0-.852,0L85.868,68.5h-.889l-2.141-2.461a6.771,6.771,0,0,1,.849-.739l.4.485a.469.469,0,0,0,.721-.6l-.321-.385a5.8,5.8,0,0,1,2.217-.646v.578a.469.469,0,0,0,.938,0v-.578a5.8,5.8,0,0,1,2.217.646l-.321.385a.469.469,0,0,0,.721.6l.4-.485a6.77,6.77,0,0,1,.849.739Z" transform="translate(-62.715 -61.221)" fill="#919191"/>
    <path id="Path_27475" data-name="Path 27475" d="M31.043,1.134A3.436,3.436,0,0,0,28.494,0H20.43a3.431,3.431,0,0,0-3.413,3.786l.948,9.127a3.423,3.423,0,0,0,3.413,3.076h6.167a3.423,3.423,0,0,0,3.413-3.076l.948-9.127a3.437,3.437,0,0,0-.864-2.652Zm-.069,2.555-.948,9.127a2.487,2.487,0,0,1-2.479,2.235H24.932V12.237a.469.469,0,0,0-.938,0v2.814H21.379A2.487,2.487,0,0,1,18.9,12.816l-.948-9.127A2.493,2.493,0,0,1,20.43.938h8.064a2.493,2.493,0,0,1,2.479,2.75Z" transform="translate(0 0)" fill="#919191"/>
  </g>
</svg>
