<svg xmlns="http://www.w3.org/2000/svg" width="23.346" height="25.637" viewBox="0 0 23.346 25.637">
  <g id="checkbox" transform="translate(-2 0.415)">
    <path id="Path" d="M4.859,1.27a1.144,1.144,0,0,1,2.273-.253L8.75,15.575a1.144,1.144,0,0,1-1.137,1.27H1.144a1.144,1.144,0,1,1,0-2.287H6.336Z" transform="translate(19.155 -0.415) rotate(45)" fill="#9f9f9f"/>
    <path id="Shape" d="M19.156,14.722a1.144,1.144,0,1,1,2.287,0v6.434a3.288,3.288,0,0,1-3.288,3.288H5.288A3.288,3.288,0,0,1,2,21.155V8.288A3.288,3.288,0,0,1,5.288,5h6.97a1.144,1.144,0,1,1,0,2.287H5.288a1,1,0,0,0-1,1V21.155a1,1,0,0,0,1,1H18.155a1,1,0,0,0,1-1Z" transform="translate(0 0.778)" fill="#9f9f9f"/>
  </g>
</svg>
