<svg id="dashboard" xmlns="http://www.w3.org/2000/svg" width="23.263" height="23.263" viewBox="0 0 23.263 23.263">
  <path id="Path_26809" data-name="Path 26809" d="M8.966,7.754H1.7A1.7,1.7,0,0,1,0,6.058V1.7A1.7,1.7,0,0,1,1.7,0h7.27a1.7,1.7,0,0,1,1.7,1.7V6.058A1.7,1.7,0,0,1,8.966,7.754ZM1.7,1.454a.242.242,0,0,0-.242.242V6.058A.243.243,0,0,0,1.7,6.3h7.27a.243.243,0,0,0,.242-.242V1.7a.243.243,0,0,0-.242-.242Zm0,0" fill="#9f9f9f"/>
  <path id="Path_26810" data-name="Path 26810" d="M8.966,226.9H1.7a1.7,1.7,0,0,1-1.7-1.7V215.028a1.7,1.7,0,0,1,1.7-1.7h7.27a1.7,1.7,0,0,1,1.7,1.7v10.178A1.7,1.7,0,0,1,8.966,226.9ZM1.7,214.786a.243.243,0,0,0-.242.242v10.178a.242.242,0,0,0,.242.242h7.27a.242.242,0,0,0,.242-.242V215.028a.243.243,0,0,0-.242-.242Zm0,0" transform="translate(0 -203.639)" fill="#9f9f9f"/>
  <path id="Path_26811" data-name="Path 26811" d="M286.3,349.086h-7.27a1.7,1.7,0,0,1-1.7-1.7v-4.362a1.7,1.7,0,0,1,1.7-1.7h7.27a1.7,1.7,0,0,1,1.7,1.7v4.362A1.7,1.7,0,0,1,286.3,349.086Zm-7.27-6.3a.243.243,0,0,0-.242.242v4.362a.243.243,0,0,0,.242.242h7.27a.242.242,0,0,0,.242-.242v-4.362a.242.242,0,0,0-.242-.242Zm0,0" transform="translate(-264.731 -325.823)" fill="#9f9f9f"/>
  <path id="Path_26812" data-name="Path 26812" d="M286.3,13.57h-7.27a1.7,1.7,0,0,1-1.7-1.7V1.7a1.7,1.7,0,0,1,1.7-1.7h7.27a1.7,1.7,0,0,1,1.7,1.7V11.874A1.7,1.7,0,0,1,286.3,13.57Zm-7.27-12.116a.243.243,0,0,0-.242.242V11.874a.243.243,0,0,0,.242.242h7.27a.242.242,0,0,0,.242-.242V1.7a.242.242,0,0,0-.242-.242Zm0,0" transform="translate(-264.731 0)" fill="#9f9f9f"/>
</svg>
