<svg id="tools-and-utensils" xmlns="http://www.w3.org/2000/svg" width="22.986" height="22.986" viewBox="0 0 22.986 22.986">
  <g id="Group_11861" data-name="Group 11861" transform="translate(8.62 8.53)">
    <g id="Group_11860" data-name="Group 11860" transform="translate(0)">
      <path id="Path_23932" data-name="Path 23932" d="M300.449,190a.449.449,0,1,1-.449.449A.449.449,0,0,1,300.449,190Z" transform="translate(-300 -190)" fill="#9f9f9f"/>
    </g>
  </g>
  <g id="Group_11863" data-name="Group 11863">
    <g id="Group_11862" data-name="Group 11862">
      <path id="Path_23933" data-name="Path 23933" d="M.526,19.92l5.993-5.992a8.9,8.9,0,0,1-1.49-4.949,8.979,8.979,0,1,1,8.979,8.979,8.9,8.9,0,0,1-4.949-1.49L7.4,18.124h0L3.066,22.46A1.8,1.8,0,1,1,.526,19.92Zm8.743-4.4h0a8.089,8.089,0,1,0-1.8-1.8A8.12,8.12,0,0,0,9.269,15.521Zm-.942.407a9.009,9.009,0,0,1-1.269-1.269L5.784,15.932A10.9,10.9,0,0,0,7.054,17.2Zm-7.166,5.9a.9.9,0,0,0,1.27,0l3.986-3.986a11.8,11.8,0,0,1-1.269-1.269L1.161,20.555a.9.9,0,0,0,0,1.269Z" fill="#9f9f9f"/>
    </g>
  </g>
  <g id="Group_11865" data-name="Group 11865" transform="translate(6.824 1.796)">
    <g id="Group_11864" data-name="Group 11864">
      <path id="Path_23934" data-name="Path 23934" d="M47.183,40A7.183,7.183,0,1,1,40,47.183,7.191,7.191,0,0,1,47.183,40Zm0,13.468A6.285,6.285,0,1,0,40.9,47.183,6.292,6.292,0,0,0,47.183,53.468Z" transform="translate(-40 -40)" fill="#9f9f9f"/>
    </g>
  </g>
  <g id="Group_11867" data-name="Group 11867" transform="translate(8.946 3.592)">
    <g id="Group_11866" data-name="Group 11866" transform="translate(0)">
      <path id="Path_23935" data-name="Path 23935" d="M190.03,83.46A5.4,5.4,0,0,1,195.061,80a.449.449,0,1,1,0,.9,4.52,4.52,0,0,0-4.193,2.884.449.449,0,1,1-.838-.322Z" transform="translate(-190 -80)" fill="#9f9f9f"/>
    </g>
  </g>
</svg>
