<svg xmlns="http://www.w3.org/2000/svg" width="25.099" height="25.099" viewBox="0 0 25.099 25.099">
  <g id="career_1_" data-name="career (1)" transform="translate(0)">
    <path id="Path_24599" data-name="Path 24599" d="M24.028,9.337q-.561-.073-1.125-.111V.368A.368.368,0,0,0,22.535,0H20.981a.368.368,0,0,0-.368.368v.51c-1.005-.186-1.888.54-2.681,1.192-1.008.829-1.96,1.613-3.188.973a.368.368,0,0,0-.523.43C14.264,3.616,15.284,7,17.3,7a2.84,2.84,0,0,0,.408-.03.368.368,0,1,0-.106-.728,2.1,2.1,0,0,1-.3.022c-.949,0-1.709-1.318-2.115-2.293a2.4,2.4,0,0,0,.454.043A4.619,4.619,0,0,0,18.4,2.637c.911-.75,1.533-1.218,2.213-1V5.142a2.1,2.1,0,0,0-1.585.478l-.2.121a.368.368,0,1,0,.377.631l.206-.125c.675-.412.926-.517,1.2-.279V9.217q-.636.038-1.27.12a1.237,1.237,0,0,0-1.071,1.226V12.54a.493.493,0,0,1-.167.373.5.5,0,0,1-.4.125,18.1,18.1,0,0,0-4.455.029,1.236,1.236,0,0,0-1.071,1.226v1.927a.5.5,0,0,1-.174.381.489.489,0,0,1-.4.116,15.372,15.372,0,0,0-4.466.075,1.242,1.242,0,0,0-1.055,1.224V20a.493.493,0,0,1-.167.373.5.5,0,0,1-.4.125c-.561-.066-1.132-.106-1.7-.119a.368.368,0,0,0-.016.735c.541.012,1.089.05,1.628.114A1.238,1.238,0,0,0,6.826,20V18.014a.5.5,0,0,1,.425-.5,14.657,14.657,0,0,1,4.253-.075,1.236,1.236,0,0,0,1.413-1.224V14.292a.5.5,0,0,1,.431-.5,17.358,17.358,0,0,1,4.274-.027,1.239,1.239,0,0,0,1.386-1.228V10.563a.5.5,0,0,1,.431-.5,17.341,17.341,0,0,1,4.493,0,.5.5,0,0,1,.431.5v13.8H.735V21.749a.5.5,0,0,1,.431-.5c.4-.052.808-.091,1.207-.115a.368.368,0,0,0-.044-.734c-.416.025-.84.065-1.258.12A1.237,1.237,0,0,0,0,21.749v2.982a.368.368,0,0,0,.368.368H24.731a.368.368,0,0,0,.368-.368V10.563a1.237,1.237,0,0,0-1.071-1.226Zm-2.679-.149V.735h.819V9.191Q21.758,9.18,21.348,9.188Z" fill="#9f9f9f"/>
    <path id="Path_24600" data-name="Path 24600" d="M208.593,2.724l1.059.518a1.088,1.088,0,0,0,.479.111,1.1,1.1,0,0,0,.953-.548l.054-.094a1.1,1.1,0,0,0-.338-1.458l-.978-.658a1.1,1.1,0,0,0-1.561.362l-.135.234a1.1,1.1,0,0,0,.468,1.533Zm.169-1.165.135-.234a.358.358,0,0,1,.231-.171.366.366,0,0,1,.083-.01.357.357,0,0,1,.2.062l.978.658a.362.362,0,0,1,.111.48h0l-.054.094a.362.362,0,0,1-.472.144l-1.059-.518a.361.361,0,0,1-.154-.505Z" transform="translate(-197.784 -0.389)" fill="#9f9f9f"/>
    <path id="Path_24601" data-name="Path 24601" d="M185.428,77.781a1.1,1.1,0,0,0,.749.3l.074,0,1.176-.081a1.1,1.1,0,0,0,1.021-1.094V76.79a1.1,1.1,0,0,0-1.021-1.094l-1.176-.081a1.1,1.1,0,0,0-1.172,1.094v.27A1.1,1.1,0,0,0,185.428,77.781Zm.387-1.071a.361.361,0,0,1,.36-.361h.026l1.176.081a.362.362,0,0,1,.336.36V76.9a.362.362,0,0,1-.336.36l-1.176.081a.361.361,0,0,1-.386-.36v-.27Z" transform="translate(-176.007 -71.906)" fill="#9f9f9f"/>
    <path id="Path_24602" data-name="Path 24602" d="M211.084,141.549h0a1.1,1.1,0,0,0-1.432-.437l-1.059.518a1.1,1.1,0,0,0-.468,1.533l.135.234a1.1,1.1,0,0,0,1.562.362l.978-.658a1.1,1.1,0,0,0,.338-1.458Zm-.694.942-.978.658a.361.361,0,0,1-.514-.119l-.135-.234a.361.361,0,0,1,.154-.5l1.059-.518a.362.362,0,0,1,.472.144l.054.094A.362.362,0,0,1,210.39,142.491Z" transform="translate(-197.784 -134.089)" fill="#9f9f9f"/>
  </g>
</svg>
