<svg xmlns="http://www.w3.org/2000/svg" width="18.075" height="23.386" viewBox="0 0 18.075 23.386"><defs><style>.a{fill:#979797;}</style></defs><g transform="translate(17442 15365)"><path class="a" d="M208.252,75.055c-.415,0-.752-.23-.752-.514V73.514c0-.284.337-.514.752-.514s.752.23.752.514v1.028C209,74.825,208.667,75.055,208.252,75.055Z" transform="translate(-17649.5 -15438)"/><path class="a" d="M208.252,167.371a.713.713,0,0,1-.752-.665v-8.041a.758.758,0,0,1,1.5,0v8.041A.713.713,0,0,1,208.252,167.371Z" transform="translate(-17649.5 -15508.984)"/><path class="a" d="M207.667,88h18.051l-4.513,5.265,4.513,6.017H207.667Z" transform="translate(-17649.643 -15450.593)"/></g></svg>