<svg xmlns="http://www.w3.org/2000/svg" width="27.446" height="27.4" viewBox="0 0 27.446 27.4"><defs><style>.a{fill:#979797;}</style></defs><path class="a" d="M27.782,19.9a.219.219,0,0,0-.218.218v4.733a.219.219,0,0,0,.218.218h6.447a.219.219,0,0,0,.218-.218V20.118a.219.219,0,0,0-.218-.218H31.223V16.734a.219.219,0,0,0-.218-.218H20.941V13.568h3.006a.219.219,0,0,0,.218-.218V8.618a.219.219,0,0,0-.218-.218H17.5a.219.219,0,0,0-.218.218v4.733a.219.219,0,0,0,.218.218h3.006v2.948H10.442a.219.219,0,0,0-.218.218V19.9H7.218A.219.219,0,0,0,7,20.118v4.733a.219.219,0,0,0,.218.218h6.447a.219.219,0,0,0,.218-.218V20.118a.219.219,0,0,0-.218-.218H10.66V16.952h9.846V19.9H17.5a.219.219,0,0,0-.218.218v4.733a.219.219,0,0,0,.218.218h3.006v2.948H10.442a.219.219,0,0,0-.218.218V30.63H7.218A.219.219,0,0,0,7,30.848v4.733a.219.219,0,0,0,.218.218h6.447a.219.219,0,0,0,.218-.218V30.848a.219.219,0,0,0-.218-.218H10.66V28.454H30.787V30.63H27.782a.219.219,0,0,0-.218.218v4.733a.219.219,0,0,0,.218.218h6.447a.219.219,0,0,0,.218-.218V30.848a.219.219,0,0,0-.218-.218H31.223V28.236a.219.219,0,0,0-.218-.218H20.941V25.07h3.006a.219.219,0,0,0,.218-.218V20.118a.219.219,0,0,0-.218-.218H20.941V16.952h9.846V19.9Z" transform="translate(-7 -8.4)"/></svg>