<svg xmlns="http://www.w3.org/2000/svg" width="21" height="20" viewBox="0 0 21 20"><defs><style>.a{fill:#979797;}</style></defs><path class="a" d="M20.6,20a.39.39,0,0,1-.086-.009,6.247,6.247,0,0,1-3.562-1.2,7.3,7.3,0,0,1-2.41.408c-3.563,0-6.462-2.512-6.462-5.6S10.975,8,14.539,8,21,10.512,21,13.6a5.209,5.209,0,0,1-1.762,3.835,4.715,4.715,0,0,0,1.5,1.79A.4.4,0,0,1,20.6,20ZM1.211,16.8h0a.4.4,0,0,1-.143-.774,4.487,4.487,0,0,0,1.675-2.263A7.56,7.56,0,0,1,0,8C0,3.589,3.986,0,8.885,0a9.438,9.438,0,0,1,5.885,2.011A7.787,7.787,0,0,1,17.687,6.97,8.844,8.844,0,0,0,14.539,6.4c-4.454,0-8.077,3.23-8.077,7.2a6.462,6.462,0,0,0,.381,2.18,9.57,9.57,0,0,1-1.58-.488,6.429,6.429,0,0,1-3.968,1.5A.413.413,0,0,1,1.211,16.8Z"/></svg>