<svg xmlns="http://www.w3.org/2000/svg" width="27.272" height="27.231" viewBox="0 0 27.272 27.231"><defs><style>.a{fill:#979797;}</style></defs><g transform="translate(0 -0.384)"><g transform="translate(24.086 8.731)"><path class="a" d="M453.785,157.085H452.2v18.884h.272a2.914,2.914,0,0,0,2.914-2.914V158.681A1.6,1.6,0,0,0,453.785,157.085Z" transform="translate(-452.195 -157.085)"/></g><g transform="translate(0 0.384)"><g transform="translate(0 0)"><path class="a" d="M22.082,3.9,19.432.92A1.6,1.6,0,0,0,18.239.384H1.6A1.6,1.6,0,0,0,0,1.98v24.04a1.6,1.6,0,0,0,1.6,1.6H22.485V4.961A1.6,1.6,0,0,0,22.082,3.9ZM4.99,6.471h5.185a.8.8,0,1,1,0,1.6H4.99a.8.8,0,0,1,0-1.6ZM16.91,22.288H4.99a.8.8,0,0,1,0-1.6H16.91a.8.8,0,1,1,0,1.6Zm0-3.322H4.99a.8.8,0,0,1,0-1.6H16.91a.8.8,0,0,1,0,1.6Zm0-3.322H4.99a.8.8,0,1,1,0-1.6H16.91a.8.8,0,1,1,0,1.6Z" transform="translate(0 -0.384)"/></g></g></g></svg>