<svg id="wall-clock" xmlns="http://www.w3.org/2000/svg" width="14.926" height="14.926" viewBox="0 0 14.926 14.926">
  <g id="Group_17924" data-name="Group 17924">
    <g id="Group_17923" data-name="Group 17923">
      <path id="Path_27472" data-name="Path 27472" d="M7.463,0a7.463,7.463,0,1,0,7.463,7.463A7.471,7.471,0,0,0,7.463,0Zm0,13.836a6.373,6.373,0,1,1,6.373-6.374A6.381,6.381,0,0,1,7.463,13.836Z" fill="#6e6c81"/>
    </g>
  </g>
  <g id="Group_17926" data-name="Group 17926" transform="translate(6.555 3.65)">
    <g id="Group_17925" data-name="Group 17925">
      <path id="Path_27473" data-name="Path 27473" d="M228.307,129.01h-2.361v-3.268a.545.545,0,0,0-1.089,0v3.813a.545.545,0,0,0,.545.545h2.905a.545.545,0,1,0,0-1.089Z" transform="translate(-224.857 -125.197)" fill="#6e6c81"/>
    </g>
  </g>
</svg>
