<svg xmlns="http://www.w3.org/2000/svg" width="14.203" height="12.636" viewBox="0 0 14.203 12.636">
  <path id="heart_1_" data-name="heart (1)" d="M13.076,1.237A3.819,3.819,0,0,0,10.235,0,3.573,3.573,0,0,0,8,.77a4.566,4.566,0,0,0-.9.942A4.563,4.563,0,0,0,6.2.77,3.572,3.572,0,0,0,3.968,0,3.819,3.819,0,0,0,1.127,1.237,4.439,4.439,0,0,0,0,4.268a5.286,5.286,0,0,0,1.409,3.46,30.036,30.036,0,0,0,3.526,3.31c.489.416,1.042.888,1.617,1.391a.834.834,0,0,0,1.1,0c.575-.5,1.129-.975,1.618-1.392a30.023,30.023,0,0,0,3.526-3.309A5.286,5.286,0,0,0,14.2,4.268,4.439,4.439,0,0,0,13.076,1.237Zm0,0" transform="translate(0 0)" fill="#d0021b"/>
</svg>
