<svg xmlns="http://www.w3.org/2000/svg" width="12.687" height="17.253" viewBox="0 0 12.687 17.253">
  <g id="Group_78" data-name="Group 78" transform="translate(0)">
    <g id="Group_77" data-name="Group 77">
      <path id="Path_20" data-name="Path 20" d="M82.343,0A6.216,6.216,0,0,0,76,6.065a5.857,5.857,0,0,0,.947,3.189l5.035,7.759a.534.534,0,0,0,.449.239h0a.534.534,0,0,0,.449-.246l4.907-7.834a5.858,5.858,0,0,0,.895-3.107A6.216,6.216,0,0,0,82.343,0Zm4.541,8.654-4.461,7.122L77.845,8.722a4.886,4.886,0,0,1-.8-2.657,5.3,5.3,0,0,1,10.583,0A4.884,4.884,0,0,1,86.885,8.654Z" transform="translate(-76)" fill="#6e6c81"/>
    </g>
  </g>
</svg>
