<svg xmlns="http://www.w3.org/2000/svg" width="28.297" height="24.595" viewBox="0 0 28.297 24.595">
  <g id="send_1_" data-name="send (1)" transform="translate(-0.001 -33.492)">
    <path id="Path_28411" data-name="Path 28411" d="M28.278,34.5a.829.829,0,0,0-1.106-.949L.534,43.716a.829.829,0,0,0,0,1.548l7.483,2.89v9.1a.829.829,0,0,0,1.569.373l3.095-6.142,7.553,5.605a.829.829,0,0,0,1.287-.424c7.052-23.121,6.747-22.116,6.76-22.174ZM21.7,37.41,8.726,46.652,3.143,44.5Zm-12.03,10.6,11.311-8.055c-9.733,10.268-9.225,9.728-9.267,9.785-.063.085.11-.246-2.044,4.028Zm10.6,7.049-6.648-4.934L25.649,37.447Z" transform="translate(0)" fill="#585d6e"/>
  </g>
</svg>
