<svg id="eye" xmlns="http://www.w3.org/2000/svg" width="20.321" height="12.952" viewBox="0 0 20.321 12.952">
  <g id="Group_11695" data-name="Group 11695" transform="translate(0)">
    <g id="Group_11694" data-name="Group 11694" transform="translate(0 0)">
      <path id="Path_23916" data-name="Path 23916" d="M20.192,98.916c-.182-.249-4.507-6.081-10.032-6.081S.311,98.667.129,98.915a.67.67,0,0,0,0,.791c.182.248,4.507,6.081,10.032,6.081s9.85-5.832,10.032-6.081A.67.67,0,0,0,20.192,98.916Zm-10.031,5.531c-4.069,0-7.594-3.871-8.638-5.138,1.042-1.266,4.559-5.138,8.638-5.138s7.594,3.871,8.638,5.138C17.756,100.579,14.239,104.447,10.162,104.447Z" transform="translate(0 -92.835)" fill="#4884ff"/>
    </g>
  </g>
  <g id="Group_11697" data-name="Group 11697" transform="translate(6.141 2.456)">
    <g id="Group_11696" data-name="Group 11696">
      <path id="Path_23917" data-name="Path 23917" d="M158.741,154.725a4.019,4.019,0,1,0,4.019,4.019,4.019,4.019,0,0,0-4.019-4.019Zm0,6.7a2.68,2.68,0,1,1,2.68-2.68,2.68,2.68,0,0,1-2.68,2.68Z" transform="translate(-154.722 -154.725)" fill="#4884ff"/>
    </g>
  </g>
</svg>
