<svg xmlns="http://www.w3.org/2000/svg" width="274.145" height="213.652" viewBox="0 0 274.145 213.652">
  <g id="Group_12776" data-name="Group 12776" transform="translate(-44.164 -150.495)">
    <g id="Group_12773" data-name="Group 12773" transform="translate(245.403 217.312)">
      <g id="Group_12772" data-name="Group 12772" transform="translate(0 0)">
        <g id="Group_12753" data-name="Group 12753" transform="translate(0 0)">
          <path id="Path_26312" data-name="Path 26312" d="M810.852,720.767a.3.3,0,0,1,.139-.228.1.1,0,0,1,.076-.011s2.239.3,2.239.3,1.917.265,1.917.265a.693.693,0,0,1,.352.117l36.715,22.34a.65.65,0,0,1,.082.05l.018.01,1.875,1.118a.952.952,0,0,1,.4.911A3.041,3.041,0,0,1,853.237,748a1,1,0,0,1-.914.1.759.759,0,0,1-.1-.057l-1.921-1.143-36.729-22.355a.67.67,0,0,1-.235-.194c0,.005-1.207-1.707-1.207-1.707l-1.269-1.814A.129.129,0,0,1,810.852,720.767Z" transform="translate(-810.852 -681.438)" opacity="0.1" style="mix-blend-mode: multiply;isolation: isolate"/>
          <g id="Group_12724" data-name="Group 12724" transform="translate(16.06 23.933)" opacity="0.1" style="mix-blend-mode: multiply;isolation: isolate">
            <path id="Path_26313" data-name="Path 26313" d="M891.023,699.717l26.713-14.608L891.99,669.23,865.218,683.87Z" transform="translate(-865.218 -669.23)"/>
          </g>
          <path id="Path_26314" data-name="Path 26314" d="M897.34,616.372l24.716-13.516L897.993,588.21l-24.716,13.516Z" transform="translate(-854.836 -588.21)" fill="#e5f7ff"/>
          <g id="Group_12737" data-name="Group 12737" transform="translate(41.919 14.596)">
            <g id="Group_12725" data-name="Group 12725">
              <path id="Path_26315" data-name="Path 26315" d="M952.757,675.149l24.716-13.516.557-24.014-24.716,13.516Z" transform="translate(-952.757 -637.619)" fill="#c5dcfc"/>
            </g>
            <g id="Group_12726" data-name="Group 12726" transform="translate(0.509 1.78)">
              <path id="Path_26316" data-name="Path 26316" d="M954.479,657.441l24.672-13.492.007-.3-24.672,13.492Z" transform="translate(-954.479 -643.645)" fill="#bbd1f4"/>
            </g>
            <g id="Group_12727" data-name="Group 12727" transform="translate(7.752 4.634)">
              <path id="Path_26317" data-name="Path 26317" d="M979,661.9l15.164-8.292.007-.3L979.006,661.6Z" transform="translate(-978.999 -653.306)" fill="#bbd1f4"/>
            </g>
            <g id="Group_12728" data-name="Group 12728" transform="translate(0.433 5.053)">
              <path id="Path_26318" data-name="Path 26318" d="M954.223,668.52l24.672-13.492.007-.3L954.23,668.216Z" transform="translate(-954.223 -654.724)" fill="#bbd1f4"/>
            </g>
            <g id="Group_12729" data-name="Group 12729" transform="translate(0.395 6.689)">
              <path id="Path_26319" data-name="Path 26319" d="M954.094,674.06l24.672-13.492.007-.3L954.1,673.756Z" transform="translate(-954.094 -660.264)" fill="#bbd1f4"/>
            </g>
            <g id="Group_12730" data-name="Group 12730" transform="translate(0.357 8.326)">
              <path id="Path_26320" data-name="Path 26320" d="M953.966,679.6l24.672-13.492.007-.3L953.973,679.3Z" transform="translate(-953.966 -665.804)" fill="#bbd1f4"/>
            </g>
            <g id="Group_12731" data-name="Group 12731" transform="translate(3.192 13.335)">
              <path id="Path_26321" data-name="Path 26321" d="M963.561,691.614l15.631-8.548.007-.3-15.631,8.548Z" transform="translate(-963.561 -682.761)" fill="#bbd1f4"/>
            </g>
            <g id="Group_12732" data-name="Group 12732" transform="translate(0.281 11.599)">
              <path id="Path_26322" data-name="Path 26322" d="M953.709,690.679l24.671-13.492.007-.3-24.672,13.492Z" transform="translate(-953.709 -676.883)" fill="#bbd1f4"/>
            </g>
            <g id="Group_12733" data-name="Group 12733" transform="translate(0.205 14.872)">
              <path id="Path_26323" data-name="Path 26323" d="M953.452,701.759l24.672-13.492.007-.3-24.672,13.492Z" transform="translate(-953.452 -687.962)" fill="#bbd1f4"/>
            </g>
            <g id="Group_12734" data-name="Group 12734" transform="translate(1.303 18.274)">
              <path id="Path_26324" data-name="Path 26324" d="M957.168,710.889l20.307-11.105.007-.3-20.307,11.105Z" transform="translate(-957.168 -699.479)" fill="#bbd1f4"/>
            </g>
            <g id="Group_12735" data-name="Group 12735" transform="translate(0.13 18.145)">
              <path id="Path_26325" data-name="Path 26325" d="M953.2,712.838l24.672-13.492.007-.3L953.2,712.534Z" transform="translate(-953.195 -699.042)" fill="#bbd1f4"/>
            </g>
            <g id="Group_12736" data-name="Group 12736" transform="translate(0.054 21.417)">
              <path id="Path_26326" data-name="Path 26326" d="M952.939,723.917l24.672-13.492.007-.3-24.671,13.492Z" transform="translate(-952.939 -710.121)" fill="#bbd1f4"/>
            </g>
          </g>
          <g id="Group_12750" data-name="Group 12750" transform="translate(17.887 13.542)">
            <g id="Group_12738" data-name="Group 12738">
              <path id="Path_26327" data-name="Path 26327" d="M871.4,658.066l24.063,14.647.557-24.014-24.063-14.647Z" transform="translate(-871.402 -634.052)" fill="#bbd1f4"/>
            </g>
            <g id="Group_12739" data-name="Group 12739" transform="translate(0.509 1.756)">
              <path id="Path_26328" data-name="Path 26328" d="M873.124,640.3l24.02,14.62.007-.3L873.131,640Z" transform="translate(-873.124 -639.995)" fill="#a9bfec"/>
            </g>
            <g id="Group_12740" data-name="Group 12740" transform="translate(7.56 7.707)">
              <path id="Path_26329" data-name="Path 26329" d="M896.994,660.446l14.763,8.986.007-.3L897,660.141Z" transform="translate(-896.994 -660.141)" fill="#a9bfec"/>
            </g>
            <g id="Group_12741" data-name="Group 12741" transform="translate(0.433 5.029)">
              <path id="Path_26330" data-name="Path 26330" d="M872.868,651.379,896.888,666l.007-.3-24.02-14.62Z" transform="translate(-872.868 -651.075)" fill="#a9bfec"/>
            </g>
            <g id="Group_12742" data-name="Group 12742" transform="translate(0.395 6.665)">
              <path id="Path_26331" data-name="Path 26331" d="M872.739,656.919l24.02,14.62.007-.3-24.02-14.62Z" transform="translate(-872.739 -656.614)" fill="#a9bfec"/>
            </g>
            <g id="Group_12743" data-name="Group 12743" transform="translate(0.357 8.301)">
              <path id="Path_26332" data-name="Path 26332" d="M872.611,662.459l24.02,14.62.007-.3-24.02-14.62Z" transform="translate(-872.611 -662.154)" fill="#a9bfec"/>
            </g>
            <g id="Group_12744" data-name="Group 12744" transform="translate(3.116 11.64)">
              <path id="Path_26333" data-name="Path 26333" d="M881.949,673.76l15.219,9.263.007-.3-15.219-9.263Z" transform="translate(-881.949 -673.456)" fill="#a9bfec"/>
            </g>
            <g id="Group_12745" data-name="Group 12745" transform="translate(0.281 11.574)">
              <path id="Path_26334" data-name="Path 26334" d="M872.354,673.538l24.02,14.62.007-.3-24.02-14.62Z" transform="translate(-872.354 -673.234)" fill="#a9bfec"/>
            </g>
            <g id="Group_12746" data-name="Group 12746" transform="translate(0.205 14.847)">
              <path id="Path_26335" data-name="Path 26335" d="M872.1,684.617l24.02,14.62.007-.3-24.02-14.62Z" transform="translate(-872.097 -684.313)" fill="#a9bfec"/>
            </g>
            <g id="Group_12747" data-name="Group 12747" transform="translate(1.273 17.157)">
              <path id="Path_26336" data-name="Path 26336" d="M875.712,692.435l19.771,12.034.007-.3-19.771-12.034Z" transform="translate(-875.712 -692.131)" fill="#a9bfec"/>
            </g>
            <g id="Group_12748" data-name="Group 12748" transform="translate(0.13 18.12)">
              <path id="Path_26337" data-name="Path 26337" d="M871.841,695.7l24.02,14.62.007-.3-24.02-14.62Z" transform="translate(-871.841 -695.392)" fill="#a9bfec"/>
            </g>
            <g id="Group_12749" data-name="Group 12749" transform="translate(0.054 21.393)">
              <path id="Path_26338" data-name="Path 26338" d="M871.584,706.776,895.6,721.4l.007-.3-24.02-14.62Z" transform="translate(-871.584 -706.472)" fill="#a9bfec"/>
            </g>
          </g>
          <path id="Path_26339" data-name="Path 26339" d="M897.993,588.21l15.645,9.527-.035,9.709-16.264,8.927-24.063-14.646Z" transform="translate(-854.836 -588.21)" fill="#e5f7ff"/>
          <path id="Path_26340" data-name="Path 26340" d="M1009.348,629.922l-.076-9.864,7.209,1.132Z" transform="translate(-950.658 -610.65)" fill="#d1e7fc"/>
          <path id="Path_26341" data-name="Path 26341" d="M924.308,624.984a2.23,2.23,0,0,0,.87-.065c.347-.111.507-.349.385-.564l-.7.1c.009.015-.023.059-.09.082a1.194,1.194,0,0,1-.428.02,2.653,2.653,0,0,1-1.885-.9.927.927,0,0,1,.243-1.292,21.73,21.73,0,0,0,5.427.871,7.305,7.305,0,0,0,3.014-.38l.031-.014a.749.749,0,0,0,.486-.536.57.57,0,0,0-.147-.445l.018,0a1.316,1.316,0,0,0,.582-.036c.276-.1.339-.316.167-.572a4.726,4.726,0,0,0-1.357-1.222c.273,0,.554,0,.841,0s.56.005.835,0c.572-.008.932-.17.92-.413a.455.455,0,0,0-.188-.29,5.356,5.356,0,0,0-.887-.573,5.47,5.47,0,0,1-.7-.436l-.026-.021a1.408,1.408,0,0,1,.335-.006l2.03.186.1-.42c-2.135-.411-4.339-.679-6.472-.938-1.472-.179-2.995-.365-4.473-.594l-.376-.059c-.228-.035-.264-.151-.27-.185s-.007-.146.2-.179a13.259,13.259,0,0,1,1.359-.129,54.738,54.738,0,0,1,6.6.123c1.972.447,3.977.835,5.992,1.16a25.3,25.3,0,0,0,4.15.4c.512,0,.832-.143.836-.364l0-.128-.194-.074a13.91,13.91,0,0,0-2.659-.642c-1.027-.166-2.127-.3-3.272-.394l-1.242-.105c-1.156-.1-2.326-.2-3.5-.281q-1.747-.4-3.454-.856l-.389-.105a27.8,27.8,0,0,0-2.843-.663l-.13.418a26.919,26.919,0,0,1,2.718.636l.392.106q.622.167,1.25.326c-1.474-.06-2.944-.07-4.394.007a14.262,14.262,0,0,0-1.481.142c-.454.073-.726.313-.678.6s.406.531.889.606l.376.059c1.5.233,3.033.42,4.516.6,1.146.139,2.313.281,3.475.446a.277.277,0,0,0-.162.278.5.5,0,0,0,.214.285,6.184,6.184,0,0,0,.8.5,4.714,4.714,0,0,1,.768.491l.028.025a1.135,1.135,0,0,1-.251.027c-.265,0-.535,0-.8,0-.485,0-.978-.01-1.459.021a13.843,13.843,0,0,0-4.153-1.473,13.022,13.022,0,0,0-5.485.113,2.916,2.916,0,0,0-1.7.926c-.319.474-.143,1.1.458,1.634a7.37,7.37,0,0,0,2.3,1.2q.177.064.356.125a1.2,1.2,0,0,0-.246,1.632A3.526,3.526,0,0,0,924.308,624.984Zm9.91-8.61.108.009,1.244.105c1.112.093,2.18.221,3.175.382a16.77,16.77,0,0,1,1.726.355,25.555,25.555,0,0,1-3.6-.386Q935.54,616.626,934.219,616.375Zm-4.839,4.26c-.168-.123-.3-.282-.222-.35a.6.6,0,0,1,.185-.074,4.4,4.4,0,0,1,.693-.131q.167.1.326.2a4.243,4.243,0,0,1,1.224,1.088.324.324,0,0,1,.034.065l-.019,0A4.851,4.851,0,0,1,929.38,620.635Zm-6.153,1.415a7.536,7.536,0,0,1,2.432-.455,29.1,29.1,0,0,1,3.746.037,3.142,3.142,0,0,1,1.361.312.287.287,0,0,1,.147.284c-.012.1-.094.2-.258.266a6.235,6.235,0,0,1-2.563.3A20.531,20.531,0,0,1,923.227,622.05Zm-3.262-1.444c-.462-.411-.6-.882-.371-1.23a2.381,2.381,0,0,1,1.369-.721,11.79,11.79,0,0,1,4.964-.1,12.883,12.883,0,0,1,3.455,1.162c-.142.027-.281.059-.417.1a1.794,1.794,0,0,0-.262.093.742.742,0,0,0-.178.112c-.253.223-.143.546.294.864a4.248,4.248,0,0,0,.5.311,30.138,30.138,0,0,0-3.808-.032,7.554,7.554,0,0,0-3.031.658q-.242-.08-.478-.165A6.626,6.626,0,0,1,919.965,620.606Z" transform="translate(-886.87 -606.416)" fill="#7bbff4"/>
          <g id="Group_12752" data-name="Group 12752" transform="translate(0 37.12)">
            <path id="Path_26342" data-name="Path 26342" d="M810.852,714.115c0,.086.057.121.132.08a.3.3,0,0,0,.139-.229c0-.085-.057-.121-.132-.08A.3.3,0,0,0,810.852,714.115Z" transform="translate(-810.852 -713.87)" fill="#160000"/>
            <path id="Path_26343" data-name="Path 26343" d="M810.9,714.183,812.167,716l1.172-1.812-2.237-.308Z" transform="translate(-810.885 -713.876)"/>
            <path id="Path_26344" data-name="Path 26344" d="M814.778,716.485l1.328,1.888,1.911-3.254-2.184-.3Z" transform="translate(-813.618 -714.539)" fill="#f9f8f8"/>
            <path id="Path_26345" data-name="Path 26345" d="M820.109,716.967l37.8,22.94,1-1.578-36.815-22.4a.937.937,0,0,0-1,.054A2.785,2.785,0,0,0,820.109,716.967Z" transform="translate(-817.375 -715.235)" fill="#fbc467"/>
            <path id="Path_26346" data-name="Path 26346" d="M814.459,716.082c-.011.453.3.644.7.426a1.576,1.576,0,0,0,.742-1.215c.011-.453-.3-.644-.7-.426A1.576,1.576,0,0,0,814.459,716.082Z" transform="translate(-813.393 -714.509)" fill="#f9f8f8"/>
            <path id="Path_26347" data-name="Path 26347" d="M818.6,721.1a.931.931,0,0,0,.435.928l36.729,22.355,1.084-1.707-37.8-22.94A2.817,2.817,0,0,0,818.6,721.1Z" transform="translate(-816.312 -718.001)" fill="#eb9a2a"/>
            <g id="Group_12751" data-name="Group 12751" transform="translate(39.075 22.954)">
              <path id="Path_26348" data-name="Path 26348" d="M943.13,794.1c-.02.878.587,1.248,1.358.826a3.042,3.042,0,0,0,1.431-2.351c.02-.878-.588-1.247-1.358-.826A3.043,3.043,0,0,0,943.13,794.1Z" transform="translate(-943.129 -791.575)" fill="#f9f8f8"/>
              <path id="Path_26349" data-name="Path 26349" d="M948.4,793.185l-1.906-1.136-2.084,3.285,2.017,1.2S948.39,793.208,948.4,793.185Z" transform="translate(-944.032 -791.909)" fill="#f9f8f8"/>
              <path id="Path_26350" data-name="Path 26350" d="M944.561,791.751a.9.9,0,0,1,1.083.01,1.07,1.07,0,0,0-.827.138,3.042,3.042,0,0,0-1.431,2.352,1.053,1.053,0,0,0,.275.816.887.887,0,0,1-.531-.965A3.043,3.043,0,0,1,944.561,791.751Z" transform="translate(-943.129 -791.577)" fill="#efefef"/>
              <path id="Path_26351" data-name="Path 26351" d="M949.739,798.055c-.02.877.587,1.247,1.358.826a3.042,3.042,0,0,0,1.431-2.351c.02-.878-.587-1.247-1.358-.827A3.042,3.042,0,0,0,949.739,798.055Z" transform="translate(-947.786 -794.361)" fill="#fefefe"/>
            </g>
          </g>
        </g>
      </g>
    </g>
    <g id="Groupe_10788" data-name="Groupe 10788" transform="translate(44.164 150.495)">
      <g id="Groupe_10778" data-name="Groupe 10778" transform="translate(0 0)">
        <path id="Tracé_22543" data-name="Tracé 22543" d="M52.4,281.288s-7.926,31-7.647,43.5.253,16.142,4.036,16.488c5.1.465,3.1-6,3.1-6s1.411,1.867,2.53,1.156-.465-2.727-3.254-5.726-4.242-3.518-1.887-16.472S58.128,287,57.57,283.775,52.4,281.288,52.4,281.288Z" transform="translate(-44.747 -205.426)" fill="#8595ba"/>
        <g id="Groupe_10774" data-name="Groupe 10774" transform="translate(151.083 26.392)">
          <path id="Tracé_22528" data-name="Tracé 22528" d="M663.458,149.52a9.516,9.516,0,0,1,.657-1.059,173.933,173.933,0,0,0,20.334.667c7.134-.252-4.207-25.205-7.941-32.613-.7-1.4-6.464-1.51-6.454-3.178s2.861-.5,2.861-.5-2.831-2.184-2.768-3.364,1.948-6.723,5.644-3.684,18.042,41.179,14.655,45.242c-2.6,3.118-18.789,3.186-26.169,3.047C663.664,152.643,662.783,150.786,663.458,149.52Z" transform="translate(-663.215 -104.886)" fill="#8595ba"/>
        </g>
        <g id="Groupe_10740" data-name="Groupe 10740" transform="translate(3.716)">
          <g id="Groupe_10740-2" data-name="Groupe 10740-2">
            <g id="Groupe_10738" data-name="Groupe 10738">
              <g id="Groupe_34" data-name="Groupe 34">
                <g id="Groupe_25" data-name="Groupe 25" transform="translate(45.906 90.802)">
                  <path id="Tracé_87" data-name="Tracé 87" d="M271.253,365.89s3.427,53.257,1.714,54.837-11.132.166-12.845,3.1,14.388,2.768,16.446.961,0-58.9,0-58.9Z" transform="translate(-259.994 -364.624)" fill="#8595ba"/>
                  <path id="Tracé_88" data-name="Tracé 88" d="M479.974,360.86s-3.427,53.259-1.714,54.839,11.129.164,12.846,3.1-14.388,2.768-16.446.964,0-58.9,0-58.9Z" transform="translate(-419.959 -360.86)" fill="#8595ba"/>
                </g>
                <g id="Groupe_27" data-name="Groupe 27">
                  <path id="Tracé_89" data-name="Tracé 89" d="M200.9,109.074c1.646.692,7.2,2.662,11.7-.216,5.342-3.422,5.342-7.478,5.342-7.478a15.574,15.574,0,0,0,15.6-3.633c7.481-6.837,4.059-20.472,4.059-20.472s7.01-3.644,6.2-11.152c-1.313-12.131-13.676-12.833-13.676-12.833s3.847-9.187-2.992-15.6-15.812-4.914-15.812-4.914,1.7-4.9-2.567-7.893-7.682-1.205-7.682-1.205.735-9.718-8.107-13.027c-8.424-3.158-15.621,1.839-15.621,1.839s-5.342-5.77-13.034-4.7a23.923,23.923,0,0,0-11.97,4.914,13.592,13.592,0,0,0-13.246-2.994,12.307,12.307,0,0,0-8.976,9.831s-13.726-3.825-21.2,5.566-3.852,17.272-3.852,17.272-12.352-1.683-16.2,10.065a20.77,20.77,0,0,0,3.2,19.66S82.038,82.145,86.31,93.043s14.516,8.6,14.516,8.6.871,9.353,10.913,9.992,14.317-2.989,14.317-2.989,8.759,7.262,17.307,6.409,11.753-4.278,11.753-4.278,8.12,4.622,16.026,4.341,14.318-5.626,14.318-5.626a8.45,8.45,0,0,0,7.906,3.847C198.7,112.788,200.588,108.94,200.9,109.074Z" transform="translate(-83.314 -5.729)" fill="#f3f6fe"/>
                  <g id="Groupe_26" data-name="Groupe 26">
                    <path id="Tracé_90" data-name="Tracé 90" d="M239.947,60.184c-1.006-9.28-8.052-13.11-13.085-14.2.823-3.488,1.4-10.191-4.169-15.415a21.6,21.6,0,0,0-14.76-5.589h-.106a8.6,8.6,0,0,0-3.724-7.405,10.742,10.742,0,0,0-5.886-2.212,12.6,12.6,0,0,0-1.3-3.523,15.469,15.469,0,0,0-9.038-8.724,18.346,18.346,0,0,0-6.442-1.163A20.223,20.223,0,0,0,175.116,3h-.053a3.955,3.955,0,0,0-.468.164l-.252.1h-.025a21.556,21.556,0,0,0-2.466,1.095A18.327,18.327,0,0,0,160.451,0a15.638,15.638,0,0,0-2.171.151,27.194,27.194,0,0,0-11.638,4.363,15.543,15.543,0,0,0-9.222-3.057,16.73,16.73,0,0,0-4.625.674,14.116,14.116,0,0,0-9.884,9.444c-4.212-.616-14.343-1.085-20.787,7.01-4.3,5.4-5.355,9.995-5.37,13.173V31.8a11.528,11.528,0,0,0,.133,2c-4.192.483-12.443,2.672-15.6,12.312a22.8,22.8,0,0,0,2.466,20.022c-.219.234-.352.4-.38.43a1.958,1.958,0,0,0-.352.71C80.1,71.079,75.3,79.187,78.758,88.009c3.105,7.926,9.252,9.119,12.639,9.119a16.071,16.071,0,0,0,2.307-.169c.984,4.409,4.293,10.375,12.151,10.875.828.053,1.653.081,2.453.081,6.17,0,10.027-1.6,11.892-2.642,2.567,1.867,9.1,6.054,15.978,6.054.544,0,1.087-.028,1.615-.075a26.089,26.089,0,0,0,10.6-3.13,6.541,6.541,0,0,0,1.291-.715c2.589,1.278,8.714,3.935,14.992,3.935.252,0,.5,0,.772-.015,6.13-.229,11.356-3.191,13.872-4.889a6.112,6.112,0,0,0,.689.637,1.344,1.344,0,0,0,.156.086,9.906,9.906,0,0,0,6.527,2.431h0a10.881,10.881,0,0,0,1.107-.055,12.028,12.028,0,0,0,7.831-3.94,18,18,0,0,0,5.672.981,11.982,11.982,0,0,0,6.567-1.822,13.444,13.444,0,0,0,5.74-6.734,17.6,17.6,0,0,0,15.457-4.577c6.842-6.255,5.611-17.133,4.922-20.976C236.256,70.865,240.669,66.852,239.947,60.184Zm-8.6,9.418c-1.024-.312-2.282-.664-3.81-1.047a7.556,7.556,0,0,0-7.639,2,6.477,6.477,0,0,0-1.233,6.666,5.475,5.475,0,0,0,5.553,3.621,9.058,9.058,0,0,0,2.881-.47,1.739,1.739,0,0,0-1.129-3.289h0c-.133.045-3.254,1.09-4.026-1.054a3.067,3.067,0,0,1,.554-3.148,4.123,4.123,0,0,1,4.207-.946c1.379.345,2.516.664,3.455.944.549,2.942,1.857,12.667-3.671,17.722a13.906,13.906,0,0,1-9.589,3.88,12.916,12.916,0,0,1-3.832-.559l-3.462-6.668a1.925,1.925,0,0,0-3.432,1.739l.02.035,3.888,7.491a9.454,9.454,0,0,1-4.278,4.995,8.2,8.2,0,0,1-4.494,1.215,14.731,14.731,0,0,1-5.415-1.152l-.377-.156h-.393a2.494,2.494,0,0,0-1.92,1.115,8.331,8.331,0,0,1-5.787,3.17,6.86,6.86,0,0,1-.712.038h0a6.465,6.465,0,0,1-5.033-2.516,6.207,6.207,0,0,1-.916-3.631,3.137,3.137,0,0,1,1.439-2.624c2.463-1.417,3.651-.211,3.963.2a1.923,1.923,0,1,0,3.155-2.2c-1.112-1.623-4.429-3.988-9.038-1.336a6.86,6.86,0,0,0-3.357,5.682,9.94,9.94,0,0,0,.5,3.762c-2.013,1.4-6.706,4.2-12.091,4.4-5.148.181-10.483-1.922-13.19-3.183v-.013c1.107-2.708.835-6.16-.77-9.715-2.451-5.45-8.356-5.272-11.132-4.414a1.922,1.922,0,1,0,1.085,3.684h.03c.2-.058,4.806-1.434,6.494,2.317,1.147,2.551,1.407,4.987.712,6.686a3.83,3.83,0,0,1-.3.6l-.292.294c-.028.028-2.979,2.936-10.556,3.694a11.9,11.9,0,0,1-1.233.058c-5.787,0-11.59-3.774-13.759-5.355l.481-5.83a1.925,1.925,0,1,0-3.835-.315l-.476,5.787c-1.142.694-4.419,2.3-10.284,2.3-.717,0-1.459-.025-2.207-.07-7.966-.5-8.807-8.628-8.87-9.4a5.256,5.256,0,0,1,2.831-4.225,4.128,4.128,0,0,1,2.551-.694.68.68,0,0,1-.136-.05l1.51-3.54c-.372-.156-2.4-.861-5.707.881a8.965,8.965,0,0,0-4.693,6.094,12.31,12.31,0,0,1-2.192.2c-4.278,0-7.327-2.239-9.059-6.656-3.591-9.154,4.479-17.974,5.284-18.809A9.778,9.778,0,0,1,93.9,65.621,5.944,5.944,0,0,1,99.47,69.3a1.922,1.922,0,0,0,3.641-1.235,9.725,9.725,0,0,0-9.134-6.291,13.225,13.225,0,0,0-7.2,1.948,19.156,19.156,0,0,1-1.829-16.411c2.682-8.2,10.12-9.549,13.112-9.756a9.205,9.205,0,0,0,7.217,5.176,10.174,10.174,0,0,0,1.487.111c5.06,0,8.238-3.9,9.267-6.152a1.925,1.925,0,0,0-3.5-1.61c-.088.186-2.182,4.5-6.706,3.845a5.445,5.445,0,0,1-3.945-2.456l-.79-1.7a3.056,3.056,0,0,1-.113-.287,9.352,9.352,0,0,1-.377-2.557v-.184c.023-2.406.868-6.125,4.549-10.752,5.712-7.179,15.374-5.964,18.037-5.465l2.713,6.094a1.927,1.927,0,0,0,1.761,1.142,1.9,1.9,0,0,0,.78-.166,1.922,1.922,0,0,0,.976-2.539l-2.939-6.577c-.02-.043-.048-.078-.07-.121a10.4,10.4,0,0,1,7.466-7.529A12.765,12.765,0,0,1,137.43,5.3a11.7,11.7,0,0,1,7.76,3l.43.448c.722,1.062,1.746,3.138.74,5.2a4.308,4.308,0,0,1-4.049,2.718,1.923,1.923,0,1,0-.36,3.83c.143,0,.289.018.433.018a8.171,8.171,0,0,0,7.431-4.882,8.7,8.7,0,0,0-.536-8.263,23.748,23.748,0,0,1,9.534-3.417,11.9,11.9,0,0,1,1.638-.113,14.163,14.163,0,0,1,8.49,3.14,9.076,9.076,0,0,0-2.031,4,7.848,7.848,0,0,0,5.415,9.476,2.091,2.091,0,0,0,.468.058,1.925,1.925,0,0,0,.466-3.792,3.983,3.983,0,0,1-2.594-4.924c.712-3.284,4.62-4.8,5.372-5.068a16.552,16.552,0,0,1,5.395-.951,14.505,14.505,0,0,1,5.1.925,11.706,11.706,0,0,1,6.814,6.559c.018.048.038.1.058.146a13.893,13.893,0,0,1,1.042,4.293l-.023,3.251c-.632,2.745-2.058,2.753-2.707,2.753A4.137,4.137,0,0,1,189.529,23a1.926,1.926,0,1,0-2.39,3.02l.028.02a7.926,7.926,0,0,0,4.547,1.527c1.761,0,5.916-.7,6.718-7.219.045-.375.073-.74.091-1.1a7.613,7.613,0,0,1,3.374,1.482,5.036,5.036,0,0,1,1.852,5.7l-1.052,3.04,3.178-.5a14.093,14.093,0,0,1,2.058-.128,17.78,17.78,0,0,1,12.131,4.544c5.063,4.753,3.271,11.323,2.687,13.034-.206.433-2.884,5.9-6.635,6.079a2.621,2.621,0,0,1-1.975-.448,1.831,1.831,0,0,1-.2-1.271,1.923,1.923,0,1,0-3.739-.9h0a5.606,5.606,0,0,0,.971,4.617,5.665,5.665,0,0,0,4.625,1.854c.164,0,.33,0,.5-.013,4.529-.211,7.644-4.308,9.081-6.7,2.768.466,9.839,2.479,10.76,10.971.564,5.209-3.465,8.183-4.781,9Z" transform="translate(-77.554)" fill="#b8c4e0"/>
                    <path id="Tracé_91" data-name="Tracé 91" d="M350.5,103.741a11.091,11.091,0,0,0-2.607-9.889c-6.205-7.468-15.6-5.818-21.439-3.173a13.467,13.467,0,0,0-9.124-10.241c-7.045-2.4-12.486,2.343-15.007,5.244a17.631,17.631,0,0,0-12.939-4.673c-4.529.088-8.807,3.488-10.425,8.261a10.125,10.125,0,0,0,3.286,11.607,11.773,11.773,0,0,0,15.618-.408,1.923,1.923,0,0,0-2.63-2.806,7.913,7.913,0,0,1-10.6.2,6.429,6.429,0,0,1-2.036-7.368c1.084-3.213,3.968-5.586,6.859-5.646,7.987-.164,11.18,4.688,11.306,4.882a1.925,1.925,0,0,0,3.256.028c.05-.081,5.234-8.012,12.078-5.682a9.822,9.822,0,0,1,6.794,9.537,1.927,1.927,0,0,0,2.936,1.746c.5-.307,12.171-7.405,19.111.949a7.355,7.355,0,0,1,1.822,6.562,7.915,7.915,0,0,1-3.852,5.113c-2.516,1.13-5.662-.536-5.687-.551a1.925,1.925,0,1,0-1.862,3.364h0a12.986,12.986,0,0,0,4.723,1.374,8.847,8.847,0,0,0,4.391-.687A11.755,11.755,0,0,0,350.5,103.741Z" transform="translate(-227.812 -59.707)" fill="#b8c4e0"/>
                    <path id="Tracé_92" data-name="Tracé 92" d="M203.42,206.595a8.789,8.789,0,0,0-.458-4.939h.023a10.007,10.007,0,0,0,3.286-.549,8.817,8.817,0,0,0,5.594-6.291,12.18,12.18,0,0,0-2.083-10.692c-3.543-4.187-9.059-3.135-11.477-1.993a1.924,1.924,0,0,0,1.641,3.48c.045-.023,4.358-2.013,6.9,1.007a8.268,8.268,0,0,1,1.316,7.184,5.1,5.1,0,0,1-3.145,3.686,7.422,7.422,0,0,1-5.86-.7,15.651,15.651,0,0,0-2.232-1.51c-.123-.106-.189-.169-.194-.171a1.922,1.922,0,1,0-2.69,2.738h0a7.229,7.229,0,0,0,.609.536v.013a15.983,15.983,0,0,0,2.38,1.608c1.462,1.246,3.085,3.271,2.594,5.893-.785,4.212-3.9,4.429-4.278,4.439a1.925,1.925,0,0,0,.02,3.847C197.675,214.174,202.3,212.589,203.42,206.595Z" transform="translate(-164.235 -135.541)" fill="#b8c4e0"/>
                    <path id="Tracé_93" data-name="Tracé 93" d="M233.654,313.614a11.461,11.461,0,0,0-10.146,7.046,1.923,1.923,0,0,0,3.583,1.4h0a7.644,7.644,0,0,1,6.681-4.58c4.225-.131,4.673,4.6,4.713,5.128a1.923,1.923,0,0,0,1.915,1.807h.123a1.92,1.92,0,0,0,1.8-2.036C242.133,319.243,240.083,313.408,233.654,313.614Z" transform="translate(-186.684 -234.697)" fill="#b8c4e0"/>
                    <path id="Tracé_94" data-name="Tracé 94" d="M547.2,246.332c-3.087-2.6-7.755-1.832-7.954-1.794a1.761,1.761,0,0,0,.6,3.45c.033,0,3.271-.5,5.1,1.027a4.33,4.33,0,0,1,1.316,3.523,5.3,5.3,0,0,1-1.424,4.059,6,6,0,0,1-4.041,1.273,1.761,1.761,0,0,0-1.857,2.166c.174.712.471,3.02-.443,4.293a2.679,2.679,0,0,1-2.093.979,3.73,3.73,0,0,1-3.019-.79,4.576,4.576,0,0,1-1.007-3.16,1.761,1.761,0,0,0-3.495-.277,7.981,7.981,0,0,0,2,5.9,6.663,6.663,0,0,0,4.929,1.86c.277,0,.564-.015.856-.035a6.053,6.053,0,0,0,4.658-2.426,8.14,8.14,0,0,0,1.286-5.118,8.038,8.038,0,0,0,7.144-8.724A7.642,7.642,0,0,0,547.2,246.332Z" transform="translate(-415.3 -182.905)" fill="#b8c4e0"/>
                  </g>
                </g>
              </g>
            </g>
          </g>
        </g>
        <g id="Groupe_10805" data-name="Groupe 10805" transform="translate(52.618 40.143)">
          <path id="Tracé_22522" data-name="Tracé 22522" d="M472.8,159.829s8.135-1.258,13.417,1.412,7.7,9.28,7.7,9.28" transform="translate(-422.248 -159.533)" fill="none" stroke="#8595ba" stroke-linecap="round" stroke-linejoin="bevel" stroke-width="4"/>
          <path id="Tracé_22523" data-name="Tracé 22523" d="M293.021,159.83s-8.138-1.258-13.417,1.414-7.7,9.277-7.7,9.277" transform="translate(-271.9 -159.534)" fill="none" stroke="#8595ba" stroke-linecap="round" stroke-linejoin="bevel" stroke-width="4"/>
        </g>
        <g id="Groupe_24" data-name="Groupe 24" transform="translate(56.912 59.039)">
          <path id="Tracé_53" data-name="Tracé 53" d="M311.074,246.761l.05-.365q.023-.176.053-.438c0-.086.025-.176.033-.279s0-.229,0-.355c0-.252,0-.538-.023-.845s-.081-.609-.128-.951-.161-.694-.252-1.074a11.8,11.8,0,0,0-.413-1.163,7.988,7.988,0,0,0-.611-1.205,11.293,11.293,0,0,0-3.12-3.384c-.231-.156-.463-.315-.7-.466s-.5-.269-.755-.405l-.385-.2-.4-.164c-.272-.1-.543-.219-.823-.307a11.635,11.635,0,0,0-1.729-.4,6.576,6.576,0,0,0-.888-.1l-.445-.025h-.546l-.755.043-.189.013a1.514,1.514,0,0,0-.211.02l-.478.068a7.353,7.353,0,0,0-.929.174l-.853.237c-.279.088-.551.2-.823.3l-.4.166-.385.2c-.252.133-.5.252-.755.405s-.47.309-.7.463a11.322,11.322,0,0,0-3.12,3.387c-.232.405-.43.813-.611,1.2a7.108,7.108,0,0,0-.415,1.163c-.1.377-.194.735-.252,1.074s-.1.659-.128.954a7.585,7.585,0,0,0-.005.79v.342a2.731,2.731,0,0,0,.03.3c.02.186.038.345.05.473l.05.39a.755.755,0,0,0,1.475.093l.025-.093.088-.332a8.719,8.719,0,0,1,.252-.913l.206-.627c.1-.219.194-.458.3-.71a7.241,7.241,0,0,1,.4-.755c.143-.252.332-.521.5-.8a6.646,6.646,0,0,1,.619-.8,8.88,8.88,0,0,1,.74-.767,9.378,9.378,0,0,1,1.809-1.349,10.068,10.068,0,0,1,2.184-.911l.589-.133a1.481,1.481,0,0,1,.279-.05l.264-.038.267-.045a.873.873,0,0,1,.164-.015h.186l.755-.033a.828.828,0,1,0-.088,0h.6a3.753,3.753,0,0,1,.6.063c.2.038.405.04.6.1l.589.133a10.063,10.063,0,0,1,2.184.908,9.588,9.588,0,0,1,1.809,1.349,9.242,9.242,0,0,1,.74.767c.224.252.418.538.619.8a6.562,6.562,0,0,1,.5.8c.151.264.287.516.4.755s.2.488.3.71a5.231,5.231,0,0,1,.2.594c.03.091.06.179.091.252a2.107,2.107,0,0,1,.063.269q.055.252.1.43l.086.357a.755.755,0,0,0,1.5-.076Z" transform="translate(-288.965 -234.63)" fill="#8595ba"/>
          <path id="Tracé_54" data-name="Tracé 54" d="M472.291,246.761l.05-.365q.023-.176.053-.438c0-.086.025-.176.033-.279s0-.229,0-.355c0-.252,0-.538-.023-.845s-.081-.609-.128-.951-.161-.694-.252-1.074a11.822,11.822,0,0,0-.413-1.163,7.774,7.774,0,0,0-.614-1.205,11.243,11.243,0,0,0-3.115-3.384c-.231-.156-.463-.315-.7-.466s-.5-.269-.755-.405l-.385-.2-.4-.164c-.272-.1-.544-.219-.823-.307a11.568,11.568,0,0,0-1.729-.4,6.54,6.54,0,0,0-.886-.1l-.448-.025h-.534l-.755.043-.189.013a1.474,1.474,0,0,0-.209.02l-.478.068a7.191,7.191,0,0,0-.929.174l-.856.237c-.279.088-.548.2-.82.3l-.4.166-.385.2c-.252.133-.5.252-.755.405s-.47.309-.7.463a11.267,11.267,0,0,0-3.12,3.387c-.234.405-.433.813-.614,1.2a6.874,6.874,0,0,0-.413,1.163c-.1.377-.194.735-.252,1.074s-.1.659-.128.954-.013.569-.018.81v.342a2.722,2.722,0,0,0,.03.3c.02.186.035.345.05.473l.05.39a.755.755,0,0,0,1.475.093l.025-.093.086-.332a8.921,8.921,0,0,1,.252-.913l.209-.627c.1-.219.194-.458.3-.71a6.418,6.418,0,0,1,.4-.755c.146-.252.33-.521.5-.8a6.644,6.644,0,0,1,.619-.8,8.889,8.889,0,0,1,.74-.767,9.36,9.36,0,0,1,1.807-1.349,10.122,10.122,0,0,1,2.184-.911l.589-.133a1.552,1.552,0,0,1,.279-.05l.267-.038.264-.045a.879.879,0,0,1,.164-.015h.189l.755-.033a.83.83,0,1,0-.091,0h.589a3.758,3.758,0,0,1,.606.063c.2.038.405.04.6.1l.589.133a10.066,10.066,0,0,1,2.184.908,9.587,9.587,0,0,1,1.809,1.349,9.248,9.248,0,0,1,.74.767c.224.252.418.538.616.8a6.555,6.555,0,0,1,.5.8c.148.264.289.516.4.755s.2.488.3.71l.2.594c.033.091.06.179.091.252a2.1,2.1,0,0,1,.063.269q.058.252.1.43l.086.357a.756.756,0,0,0,1.51-.075Z" transform="translate(-409.627 -234.63)" fill="#8595ba"/>
        </g>
        <g id="Groupe_23" data-name="Groupe 23" transform="translate(73.335 80.327)">
          <g id="Groupe_22" data-name="Groupe 22">
            <path id="Tracé_51" data-name="Tracé 51" d="M383.361,321.612a7.686,7.686,0,0,1-2.612,5.536,14.832,14.832,0,0,1-5.989,3.309,21.388,21.388,0,0,1-11.935,0,14.8,14.8,0,0,1-5.989-3.309,7.668,7.668,0,0,1-2.607-5.536c0-3.9,3.462-2.116,8.455-.861a22.1,22.1,0,0,0,12.214,0C379.893,319.5,383.361,317.71,383.361,321.612Z" transform="translate(-354.23 -319.233)" fill="#8595ba"/>
          </g>
          <path id="Tracé_52" data-name="Tracé 52" d="M400.327,345.655a21.388,21.388,0,0,1-11.937,0,6.039,6.039,0,0,1,11.937,0Z" transform="translate(-379.795 -335.175)" fill="#f3f6fe"/>
        </g>
      </g>
    </g>
    <g id="Group_12775" data-name="Group 12775" transform="translate(153.24 289.717)">
      <g id="Group_12774" data-name="Group 12774" transform="translate(0 0)">
        <g id="Group_12617" data-name="Group 12617" transform="translate(51.23)">
          <path id="Path_26183" data-name="Path 26183" d="M613.339,659.894l-65.406,37.859,48.641,27.97,65.2-37.642Z" transform="translate(-547.933 -659.288)" opacity="0.1" style="mix-blend-mode: multiply;isolation: isolate"/>
          <rect id="Rectangle_17770" data-name="Rectangle 17770" width="0.444" height="0.436" transform="translate(2.274 37.404) rotate(180)" fill="#dbdbdb"/>
          <rect id="Rectangle_17771" data-name="Rectangle 17771" width="0.444" height="0.436" transform="translate(112.519 27.37) rotate(180)" fill="#dbdbdb"/>
          <path id="Path_26184" data-name="Path 26184" d="M617.521,659.381l46.667,26.943-64.023,36.964L553.5,696.344Z" transform="translate(-551.668 -658.943)" fill="#dbdbdb"/>
          <path id="Path_26185" data-name="Path 26185" d="M617.521,658.05l46.667,26.943-64.023,36.964L553.5,695.013Z" transform="translate(-551.668 -658.05)" fill="#edf5f6"/>
          <path id="Path_26186" data-name="Path 26186" d="M600.125,707.44l17.654,10.094-1.258.727-17.654-10.095Zm4.315-2.491-1.258.726,33.981,19.619,1.258-.726Zm4.314-2.491-1.257.727L641.477,722.8l1.258-.726Zm4.315-2.491-1.257.726,16.168,9.264,1.258-.726Zm18.805,10.8-1.258.726,4.609,2.678,1.258-.726ZM657.78,700.8l-1.258.726,4.609,2.678,1.257-.726Zm-40.4-3.327-1.258.726,33.981,19.619,1.258-.726Zm4.315-2.491-1.258.726,28.485,16.468,1.258-.726Zm4.315-2.491-1.258.726,16.137,9.244,1.257-.726ZM630.327,690l-1.257.726,33.981,19.619,1.258-.726Zm4.315-2.491-1.257.726,20.461,11.8,1.258-.726Zm4.315-2.491-1.258.726,33.981,19.619,1.258-.726Zm4.315-2.491-1.258.726,33.981,19.619,1.257-.726Zm4.315-2.491-1.258.726,15.924,9.181,1.257-.726Z" transform="translate(-582.119 -672.809)" fill="#dbe9fb"/>
        </g>
        <g id="Group_12642" data-name="Group 12642" transform="translate(0 4.219)">
          <g id="Group_12639" data-name="Group 12639" transform="translate(0 0)">
            <g id="Group_12618" data-name="Group 12618" transform="translate(0 1.478)" opacity="0.08">
              <path id="Path_26187" data-name="Path 26187" d="M439.767,739.97l-47.215-27.259c-.624-.36-.546-.989.175-1.405l61.635-35.585a2.706,2.706,0,0,1,2.434-.1l47.215,27.259c.624.36.546.99-.175,1.406L442.2,739.869A2.7,2.7,0,0,1,439.767,739.97Z" transform="translate(-392.131 -675.376)" opacity="0.1"/>
            </g>
            <path id="Path_26188" data-name="Path 26188" d="M398.672,777.286a.5.5,0,0,0,0,.076v-.076Z" transform="translate(-396.518 -742.299)" fill="#3f3c44"/>
            <path id="Path_26189" data-name="Path 26189" d="M444.149,804.131a1.493,1.493,0,0,0,.325.136v2.362a1.486,1.486,0,0,1-.325-.136l-45.081-26.029a.689.689,0,0,1-.393-.537c-.008,0-.008-2.411-.008-2.411a.686.686,0,0,0,.4.586Z" transform="translate(-396.518 -742.453)" fill="#393b4f"/>
            <path id="Path_26190" data-name="Path 26190" d="M602.482,752.424v2.4a.98.98,0,0,1-.567.748l-58.853,33.977a2.257,2.257,0,0,1-.487.208V787.4a2.264,2.264,0,0,0,.487-.208l58.853-33.977a.926.926,0,0,0,.559-.79Z" transform="translate(-493.107 -725.612)" fill="#393b4f"/>
            <g id="Group_12619" data-name="Group 12619" transform="translate(2.146)">
              <path id="Path_26191" data-name="Path 26191" d="M444.143,732.558,399.061,706.53c-.6-.344-.521-.945.167-1.342l58.852-33.978a2.584,2.584,0,0,1,2.325-.1l45.083,26.028c.6.344.521.945-.167,1.342l-58.852,33.978A2.584,2.584,0,0,1,444.143,732.558Z" transform="translate(-398.659 -670.881)" fill="#656285"/>
            </g>
            <path id="Path_26192" data-name="Path 26192" d="M519.776,704.936v.145l-37.818-21.834-51.982,30.012h-.764v.441l38.449,22.2,52.745-30.453V705Z" transform="translate(-417.019 -679.181)" fill="#dbdbdb"/>
            <g id="Group_12621" data-name="Group 12621" transform="translate(12.193 3.625)">
              <g id="Group_12620" data-name="Group 12620">
                <path id="Path_26193" data-name="Path 26193" d="M467.661,734.557l-38.449-22.2,52.745-30.453,38.449,22.2Z" transform="translate(-429.212 -681.906)" fill="#fff"/>
              </g>
            </g>
            <g id="Group_12624" data-name="Group 12624" transform="translate(70.612 4.101)">
              <ellipse id="Ellipse_536" data-name="Ellipse 536" cx="3.527" cy="1.984" rx="3.527" ry="1.984" transform="translate(14.381 5.103)" fill="#c9547d"/>
              <path id="Path_26194" data-name="Path 26194" d="M636.871,700.744v-.715l-1.862-.037-4.822-2.784a3.625,3.625,0,0,0,1.954-2.876.812.812,0,0,0,0-.108c0-.014,0-.029,0-.043v-1.238h-.367a4.766,4.766,0,0,0-1.828-1.723,11.8,11.8,0,0,0-10.371-.136l-6.392-3.691a1.567,1.567,0,0,0-1.417,0l-3.6,2.078v-.332h-1.287v.78a.512.512,0,0,0,.292.416l23.391,13.5a1.565,1.565,0,0,0,1.417,0l4.595-2.653a.514.514,0,0,0,.288-.375l0-.056Zm-10.108-5.3a4.562,4.562,0,0,1-4.13,0,1.258,1.258,0,0,1,0-2.384,4.563,4.563,0,0,1,4.13,0A1.258,1.258,0,0,1,626.763,695.444Z" transform="translate(-606.882 -685.951)" fill="#e15b8f"/>
              <g id="Group_12622" data-name="Group 12622">
                <path id="Path_26195" data-name="Path 26195" d="M636.576,697.028l-6.392-3.69c2.689-1.7,2.617-4.341-.236-5.988a11.806,11.806,0,0,0-10.371-.136l-6.392-3.69a1.565,1.565,0,0,0-1.417,0l-4.6,2.653a.432.432,0,0,0,0,.819l23.391,13.5a1.568,1.568,0,0,0,1.417,0l4.595-2.653A.432.432,0,0,0,636.576,697.028Zm-13.945-5.453a1.259,1.259,0,0,1,0-2.385,4.566,4.566,0,0,1,4.13,0,1.259,1.259,0,0,1,0,2.385A4.566,4.566,0,0,1,622.631,691.575Z" transform="translate(-606.879 -683.354)" fill="#ec85b0"/>
              </g>
              <g id="Group_12623" data-name="Group 12623" transform="translate(0.002 3.215)">
                <path id="Path_26196" data-name="Path 26196" d="M677.612,706.234l.174.1c1.48-.988,2.061-2.267,1.744-3.485C679.749,704.046,679.111,705.286,677.612,706.234Z" transform="translate(-654.357 -699.654)" fill="#f2a8c9"/>
                <path id="Path_26197" data-name="Path 26197" d="M652.944,699.71a4.566,4.566,0,0,1,4.13,0,1.687,1.687,0,0,1,.8.856,1.542,1.542,0,0,0-.843-1.045,4.562,4.562,0,0,0-4.13,0c-.719.415-.984.993-.8,1.528A1.373,1.373,0,0,1,652.944,699.71Z" transform="translate(-637.195 -697.089)" fill="#f2a8c9"/>
                <path id="Path_26198" data-name="Path 26198" d="M636.825,703.828a.5.5,0,0,1-.291.392l-4.595,2.653a1.566,1.566,0,0,1-1.418,0l-23.391-13.5a.618.618,0,0,1-.244-.237.486.486,0,0,0,.291.426l23.391,13.5a1.567,1.567,0,0,0,1.418,0l4.595-2.653C636.854,704.252,636.932,704.027,636.825,703.828Z" transform="translate(-606.887 -693.131)" fill="#f2a8c9"/>
              </g>
            </g>
            <path id="Path_26199" data-name="Path 26199" d="M505.32,752.349l-58.852,33.978a2.584,2.584,0,0,1-2.325.1l-45.083-26.028a.805.805,0,0,1-.346-.359.63.63,0,0,0,.346.832L444.144,786.9a2.584,2.584,0,0,0,2.325-.1l58.852-33.978c.486-.281.659-.661.513-.983A1.2,1.2,0,0,1,505.32,752.349Z" transform="translate(-396.512 -725.218)" fill="#8280a3"/>
            <path id="Path_26200" data-name="Path 26200" d="M539.489,858.791v2.362a2.712,2.712,0,0,1-1.512.026v-2.362A2.717,2.717,0,0,0,539.489,858.791Z" transform="translate(-490.021 -797.004)" fill="#4e506a"/>
            <g id="Group_12638" data-name="Group 12638" transform="translate(23.844 9.636)">
              <g id="Group_12625" data-name="Group 12625" transform="translate(38.216)">
                <path id="Path_26201" data-name="Path 26201" d="M592.131,707.26l-11.261-6.5,1-.576,11.261,6.5Z" transform="translate(-580.87 -700.188)" fill="#e1edfc"/>
              </g>
              <g id="Group_12626" data-name="Group 12626" transform="translate(34.395 2.206)">
                <path id="Path_26202" data-name="Path 26202" d="M598.446,724.327l-29.2-16.854,1-.576,29.2,16.854Z" transform="translate(-569.247 -706.898)" fill="#e1edfc"/>
              </g>
              <g id="Group_12627" data-name="Group 12627" transform="translate(30.573 4.413)">
                <path id="Path_26203" data-name="Path 26203" d="M586.823,731.037l-29.2-16.854,1-.576,29.2,16.854Z" transform="translate(-557.624 -713.608)" fill="#e1edfc"/>
              </g>
              <g id="Group_12628" data-name="Group 12628" transform="translate(38.543 13.423)">
                <path id="Path_26204" data-name="Path 26204" d="M586.9,744.492l-5.034-2.906,1-.576,5.034,2.906Z" transform="translate(-581.864 -741.01)" fill="#e1edfc"/>
              </g>
              <g id="Group_12629" data-name="Group 12629" transform="translate(26.751 6.619)">
                <path id="Path_26205" data-name="Path 26205" d="M554.424,725.751,546,720.894l1-.576,8.422,4.858Z" transform="translate(-546.002 -720.318)" fill="#e1edfc"/>
              </g>
              <g id="Group_12630" data-name="Group 12630" transform="translate(22.93 8.826)">
                <path id="Path_26206" data-name="Path 26206" d="M563.579,744.458,534.38,727.6l1-.576,29.2,16.854Z" transform="translate(-534.38 -727.028)" fill="#e1edfc"/>
              </g>
              <g id="Group_12631" data-name="Group 12631" transform="translate(19.108 11.032)">
                <path id="Path_26207" data-name="Path 26207" d="M546.721,748.145l-23.963-13.831,1-.575,23.963,13.831Z" transform="translate(-522.758 -733.739)" fill="#e1edfc"/>
              </g>
              <g id="Group_12632" data-name="Group 12632" transform="translate(15.287 13.238)">
                <path id="Path_26208" data-name="Path 26208" d="M520.778,746.587l-9.643-5.563,1-.576,9.643,5.563Z" transform="translate(-511.135 -740.449)" fill="#e1edfc"/>
              </g>
              <g id="Group_12633" data-name="Group 12633" transform="translate(11.465 15.445)">
                <path id="Path_26209" data-name="Path 26209" d="M528.711,764.588l-29.2-16.854,1-.576,29.2,16.853Z" transform="translate(-499.512 -747.159)" fill="#e1edfc"/>
              </g>
              <g id="Group_12634" data-name="Group 12634" transform="translate(26.011 28.251)">
                <path id="Path_26210" data-name="Path 26210" d="M548.432,789.386l-4.682-2.7,1-.576,4.682,2.7Z" transform="translate(-543.75 -786.107)" fill="#e1edfc"/>
              </g>
              <g id="Group_12635" data-name="Group 12635" transform="translate(7.643 17.651)">
                <path id="Path_26211" data-name="Path 26211" d="M502.835,763.069l-14.945-8.625,1-.576,14.945,8.624Z" transform="translate(-487.89 -753.869)" fill="#e1edfc"/>
              </g>
              <g id="Group_12636" data-name="Group 12636" transform="translate(3.822 19.858)">
                <path id="Path_26212" data-name="Path 26212" d="M505.466,778.009l-29.2-16.854,1-.576,29.2,16.854Z" transform="translate(-476.267 -760.58)" fill="#e1edfc"/>
              </g>
              <g id="Group_12637" data-name="Group 12637" transform="translate(0 22.064)">
                <path id="Path_26213" data-name="Path 26213" d="M486.888,780.717l-22.243-12.852,1-.576,22.243,12.852Z" transform="translate(-464.645 -767.29)" fill="#e1edfc"/>
              </g>
            </g>
          </g>
          <g id="Group_12641" data-name="Group 12641" transform="translate(62.012 38.032)">
            <path id="Path_26214" data-name="Path 26214" d="M630.441,794.018a.33.33,0,0,0-.149-.258.113.113,0,0,0-.084-.015s-2.5.288-2.5.288-2.14.252-2.14.252a.77.77,0,0,0-.395.122L583.8,818.428a.693.693,0,0,0-.092.054l-.02.011-2.112,1.2a1.059,1.059,0,0,0-.47,1,3.387,3.387,0,0,0,1.539,2.65,1.119,1.119,0,0,0,1.015.137.856.856,0,0,0,.11-.061l2.164-1.228,41.387-24.037a.743.743,0,0,0,.265-.211c0,.006,1.383-1.873,1.383-1.873l1.454-1.99A.142.142,0,0,0,630.441,794.018Z" transform="translate(-580.982 -791.377)" opacity="0.1" style="mix-blend-mode: multiply;isolation: isolate"/>
            <path id="Path_26215" data-name="Path 26215" d="M730.628,786.825c0,.095-.067.133-.149.086a.331.331,0,0,1-.149-.258c0-.095.067-.134.149-.086A.33.33,0,0,1,730.628,786.825Z" transform="translate(-681.137 -786.546)" fill="#3f3c44"/>
            <path id="Path_26216" data-name="Path 26216" d="M725.632,786.9l-1.461,1.991-1.26-2.05,2.5-.285Z" transform="translate(-676.158 -786.55)" fill="#3f3c44"/>
            <path id="Path_26217" data-name="Path 26217" d="M719.874,789.223l-1.529,2.07-2.046-3.678,2.443-.277Z" transform="translate(-671.72 -787.078)" fill="#e4e7ea"/>
            <path id="Path_26218" data-name="Path 26218" d="M632.419,789.5l-42.737,24.6-1.075-1.785,41.621-24.022a1.044,1.044,0,0,1,1.116.086A3.106,3.106,0,0,1,632.419,789.5Z" transform="translate(-586.015 -787.631)" fill="#f4756e"/>
            <path id="Path_26219" data-name="Path 26219" d="M724.276,788.786c0,.506-.354.71-.793.457a1.756,1.756,0,0,1-.8-1.374c0-.506.354-.71.793-.457A1.756,1.756,0,0,1,724.276,788.786Z" transform="translate(-676.008 -787.054)" fill="#e4e7ea"/>
            <path id="Path_26220" data-name="Path 26220" d="M635.074,793.75a1.038,1.038,0,0,1-.51,1.022l-41.524,23.974-1.164-1.931,42.737-24.6A3.153,3.153,0,0,1,635.074,793.75Z" transform="translate(-588.209 -790.353)" fill="#ce595e"/>
            <g id="Group_12640" data-name="Group 12640" transform="translate(0 24.533)">
              <path id="Path_26221" data-name="Path 26221" d="M590.5,864.024c0,.979-.687,1.375-1.535.886a3.393,3.393,0,0,1-1.535-2.659c0-.979.687-1.376,1.535-.886A3.392,3.392,0,0,1,590.5,864.024Z" transform="translate(-585.228 -861.156)" fill="#c1d9f4"/>
              <path id="Path_26222" data-name="Path 26222" d="M582.057,862.815l2.155-1.218,2.239,3.716-2.28,1.286S582.07,862.84,582.057,862.815Z" transform="translate(-581.618 -861.452)" fill="#c1d9f4"/>
              <path id="Path_26223" data-name="Path 26223" d="M589.638,861.367a1,1,0,0,0-1.207-.017,1.193,1.193,0,0,1,.918.176,3.393,3.393,0,0,1,1.535,2.659,1.175,1.175,0,0,1-.327.9c.374-.108.616-.481.616-1.062A3.393,3.393,0,0,0,589.638,861.367Z" transform="translate(-585.897 -861.158)" fill="#9bb1c6"/>
              <path id="Path_26224" data-name="Path 26224" d="M583.793,867.831c0,.979-.687,1.376-1.535.886a3.392,3.392,0,0,1-1.535-2.658c0-.979.687-1.376,1.535-.886A3.393,3.393,0,0,1,583.793,867.831Z" transform="translate(-580.723 -863.711)" fill="#e9f4ff"/>
            </g>
          </g>
        </g>
      </g>
    </g>
  </g>
</svg>
