<svg xmlns="http://www.w3.org/2000/svg" xmlns:xlink="http://www.w3.org/1999/xlink" width="229.787" height="299.164" viewBox="0 0 229.787 299.164">
  <defs>
    <linearGradient id="linear-gradient" x1="0.288" y1="0.057" x2="0.645" y2="0.804" gradientUnits="objectBoundingBox">
      <stop offset="0" stop-color="#fff"/>
      <stop offset="1" stop-color="#d4e5f6"/>
    </linearGradient>
    <linearGradient id="linear-gradient-2" x1="0.733" y1="-0.061" x2="0.373" y2="0.805" xlink:href="#linear-gradient"/>
    <linearGradient id="linear-gradient-3" x1="0.508" y1="-0.145" x2="0.502" y2="0.605" xlink:href="#linear-gradient"/>
  </defs>
  <g id="Group_12777" data-name="Group 12777" transform="translate(-73 -99)">
    <g id="Group_12765" data-name="Group 12765" transform="translate(11.438 34.478)">
      <g id="Group_12764" data-name="Group 12764" transform="translate(94.144 64.523)">
        <g id="Group_12516" data-name="Group 12516" transform="translate(0)">
          <path id="Path_25698" data-name="Path 25698" d="M306.944,253.565l-16.1-9.225-14.959-8.573,50.634-12.175Z" transform="translate(-275.889 -223.592)" fill="#70e8e8"/>
          <path id="Path_25699" data-name="Path 25699" d="M337.172,223.592l-39.151,18.757,4.741,11.989.336-9.117Z" transform="translate(-286.538 -223.592)" fill="#3db5c1"/>
          <path id="Path_25700" data-name="Path 25700" d="M313.483,268.746l-5.988-3.47-.336,9.117Z" transform="translate(-290.934 -243.648)" fill="#37aaaf"/>
        </g>
        <g id="Group_12517" data-name="Group 12517" transform="translate(155.004 41.266)">
          <path id="Path_25701" data-name="Path 25701" d="M574.625,303.122l42.2,10.147-12.468,7.146L590.944,328.1Z" transform="translate(-574.625 -303.122)" fill="#70e8e8"/>
          <path id="Path_25702" data-name="Path 25702" d="M574.625,303.122l32.631,15.633-3.952,9.993-.28-7.6Z" transform="translate(-574.625 -303.122)" fill="#3db5c1"/>
          <path id="Path_25703" data-name="Path 25703" d="M619.74,340.757l4.991-2.892.28,7.6Z" transform="translate(-596.331 -319.838)" fill="#37aaaf"/>
        </g>
        <g id="Group_12525" data-name="Group 12525" transform="translate(32.948 11.401)">
          <ellipse id="Ellipse_526" data-name="Ellipse 526" cx="47.24" cy="27.274" rx="47.24" ry="27.274" transform="translate(13.834 225.152)" opacity="0.1" style="mix-blend-mode: multiply;isolation: isolate"/>
          <circle id="Ellipse_527" data-name="Ellipse 527" cx="19.577" cy="19.577" r="19.577" transform="translate(48.604 193.668)" fill="url(#linear-gradient)"/>
          <circle id="Ellipse_528" data-name="Ellipse 528" cx="20.168" cy="20.168" r="20.168" transform="translate(27.719 235.145) rotate(-76.717)" fill="url(#linear-gradient-2)"/>
          <path id="Path_25704" data-name="Path 25704" d="M448.742,647.846a12.391,12.391,0,0,0-11.463-17.107c-.322,0-.638.024-.953.048V595.78H403.781v44.474a20.27,20.27,0,1,0,9.708,32.209A16.268,16.268,0,0,0,428,671.771a16.574,16.574,0,1,0,20.741-23.925Z" transform="translate(-357.745 -414.066)" fill="url(#linear-gradient-3)"/>
          <path id="Path_25705" data-name="Path 25705" d="M459.381,564.913c-.182-4.29,0-17.176,0-17.176H403.67s.065,13.3.01,17.73c-.052,4.2,2.606,8.415,8.154,11.619,10.885,6.285,28.533,6.285,39.418,0C457.044,573.742,459.567,569.3,459.381,564.913Z" transform="translate(-370.317 -390.95)" fill="#f9b226"/>
          <path id="Path_25706" data-name="Path 25706" d="M460.507,338.187a104.156,104.156,0,0,0-1.936-19.846c-5.916-30.517-23.968-54.461-34.129-65.956a9.534,9.534,0,0,0-14.287,0c-10.109,11.435-28.026,35.191-34.036,65.481a104.288,104.288,0,0,0-2.029,20.321c0,19.05,5.483,55.7,9.687,70.7h.127c.073,4.711,3.327,9.411,9.777,13.005,13.045,7.271,34.194,7.272,47.239,0,6.452-3.6,9.707-8.3,9.777-13.011h.128C455.024,393.881,460.507,357.234,460.507,338.187Z" transform="translate(-356.084 -247.297)" fill="#2bd4d8"/>
          <path id="Path_25707" data-name="Path 25707" d="M426.477,407.785c-18.205,0-33.018-13.14-33.018-29.292S408.271,349.2,426.477,349.2s33.017,13.14,33.017,29.293S444.682,407.785,426.477,407.785Z" transform="translate(-365.404 -295.428)" fill="#0abcc5"/>
          <path id="Path_25708" data-name="Path 25708" d="M445.358,252.385a9.535,9.535,0,0,0-14.288,0,164.333,164.333,0,0,0-13.508,17.581c.086,3,2.1,5.981,6.066,8.269,8.1,4.676,21.229,4.676,29.328,0,3.865-2.232,5.881-5.125,6.057-8.048A164.29,164.29,0,0,0,445.358,252.385Z" transform="translate(-377.001 -247.297)" fill="#0abcc5"/>
          <g id="Group_12518" data-name="Group 12518" transform="translate(8.188 266.823)">
            <path id="Path_25709" data-name="Path 25709" d="M408.736,780.747,408.725,779q1.153-.008,2.3-.043l.054,1.744Q409.911,780.739,408.736,780.747Zm-3.519-.039q-1.175-.033-2.345-.094l.09-1.742q1.15.059,2.3.092Zm9.383-.173-.114-1.741q1.152-.076,2.3-.179l.156,1.738Q415.774,780.459,414.6,780.535Zm-15.241-.164q-1.171-.1-2.335-.233l.195-1.734q1.143.128,2.293.229Zm21.084-.395-.218-1.731q1.146-.144,2.283-.317l.262,1.725Q421.612,779.829,420.443,779.976Zm-26.909-.3q-1.164-.173-2.318-.377l.3-1.719q1.131.2,2.273.369Zm32.711-.624-.328-1.713q1.136-.218,2.258-.463l.373,1.7Q427.4,778.836,426.246,779.057Zm-38.486-.43q-1.152-.25-2.288-.528l.416-1.695q1.114.273,2.243.518Zm44.219-.867-.444-1.687q1.118-.294,2.219-.618l.491,1.674Q433.122,777.458,431.978,777.76Zm-49.912-.573c-.754-.22-1.51-.453-2.248-.692l.538-1.66c.721.234,1.461.461,2.2.677Zm55.541-1.13-.569-1.65c.726-.251,1.453-.514,2.16-.784l.622,1.63C439.1,775.53,438.352,775.8,437.607,776.056Zm-61.121-.731c-.738-.279-1.475-.572-2.19-.87l.672-1.61c.7.29,1.414.575,2.135.848Zm66.6-1.416-.705-1.6c.7-.311,1.4-.636,2.081-.965l.764,1.569C444.534,773.256,443.814,773.59,443.09,773.91Zm-72.019-.9c-.71-.342-1.419-.7-2.106-1.067l.819-1.541c.667.354,1.355.7,2.045,1.036Zm77.3-1.734-.854-1.521q.261-.147.52-.3.741-.427,1.45-.868l.921,1.481q-.732.455-1.5.9C448.726,771.072,448.547,771.173,448.367,771.274Zm-82.479-1.093c-.679-.419-1.347-.851-1.986-1.287l.983-1.442c.616.421,1.261.838,1.918,1.243Zm87.464-2.089-1.026-1.412c.624-.454,1.233-.92,1.808-1.388l1.1,1.354C454.636,767.133,454,767.619,453.353,768.091Zm-92.31-1.313c-.625-.5-1.233-1.022-1.809-1.542l1.172-1.293c.549.5,1.132.994,1.731,1.476Zm-4.338-4.07c-.54-.6-1.056-1.215-1.535-1.835l1.38-1.067c.451.584.94,1.167,1.45,1.732Z" transform="translate(-355.17 -759.807)" fill="#0fbcbc"/>
          </g>
          <path id="Path_25710" data-name="Path 25710" d="M459.383,551.913c-1.089,3.715-4.192,7.281-9.331,10.146-13.044,7.271-34.194,7.271-47.239,0-5.139-2.865-8.243-6.431-9.332-10.145h-.407c.353,4.488,3.592,8.918,9.739,12.344,13.045,7.271,34.194,7.272,47.239,0,6.148-3.427,9.386-7.857,9.738-12.345Z" transform="translate(-365.219 -392.96)" fill="#ffd552"/>
          <ellipse id="Ellipse_529" data-name="Ellipse 529" cx="25.76" cy="24.067" rx="25.76" ry="24.067" transform="translate(35.312 58.997)" fill="#2051a4"/>
          <ellipse id="Ellipse_530" data-name="Ellipse 530" cx="19.025" cy="17.321" rx="19.025" ry="17.321" transform="translate(42.275 66.343)" fill="#ffd552"/>
          <path id="Path_25711" data-name="Path 25711" d="M442.382,407.891c-9.01,0-16.34-6.678-16.34-14.886s7.33-14.886,16.34-14.886,16.34,6.678,16.34,14.886S451.392,407.891,442.382,407.891Z" transform="translate(-381.081 -309.342)" fill="#fff"/>
          <path id="Path_25712" data-name="Path 25712" d="M457.706,260.9c-.787-1.353-11.52-15.281-15.62-15.336-4.357-.058-14.942,14-15.727,15.362-1.911,3.319-.58,7.124,4,9.766,6.454,3.727,16.918,3.727,23.372,0C458.313,268.045,459.64,264.227,457.706,260.9Z" transform="translate(-380.827 -245.566)" fill="#2051a4"/>
          <g id="Group_12519" data-name="Group 12519" transform="translate(88.295 107.917)">
            <path id="Path_25713" data-name="Path 25713" d="M516.257,509.353l23.717,18.695,3.485-2.114s18.379-62.158-19.727-72.382L520.26,455.7Z" transform="translate(-512.782 -453.551)" fill="#ef3a54"/>
            <path id="Path_25714" data-name="Path 25714" d="M509.559,513.434l11.224,23.478a1.87,1.87,0,0,0,2.622.813l13.356-7.711s18.379-62.158-19.727-72.382Z" transform="translate(-509.559 -455.515)" fill="#ff97c3"/>
            <path id="Path_25715" data-name="Path 25715" d="M510.868,514.846l7.348-54.855a28.178,28.178,0,0,1,17.269,13.67c10.132,18.085,3.953,47.125,1.875,55.413a4.882,4.882,0,0,1-2.3,3.042l-11.093,6.4a1.493,1.493,0,0,1-2.094-.649Z" transform="translate(-510.189 -456.65)" fill="#ff5071"/>
          </g>
          <g id="Group_12520" data-name="Group 12520" transform="translate(0 109.233)">
            <path id="Path_25716" data-name="Path 25716" d="M374.115,511.239l-26.809,19.347-3.485-2.115s-18.379-62.158,19.727-72.382l3.472,2.153Z" transform="translate(-339.39 -456.089)" fill="#ef3a54"/>
            <path id="Path_25717" data-name="Path 25717" d="M396.632,511.5l-3.346-1.249-7.222-53.9,3.472,2.153Z" transform="translate(-361.847 -456.215)" fill="#ef3a54"/>
            <path id="Path_25718" data-name="Path 25718" d="M377.721,515.973l-11.369,23.783a1.558,1.558,0,0,1-2.184.677l-13.649-7.88s-18.379-62.158,19.727-72.381Z" transform="translate(-342.612 -458.053)" fill="#ff97c3"/>
            <path id="Path_25719" data-name="Path 25719" d="M354.092,535.261a6.268,6.268,0,0,1-2.952-3.944c-2.205-9.023-7.869-37.137,2.028-54.8a28.177,28.177,0,0,1,17.268-13.67l7.349,54.855-10.991,22.993a1.527,1.527,0,0,1-2.141.664Z" transform="translate(-343.301 -459.341)" fill="#ff5071"/>
          </g>
          <g id="Group_12521" data-name="Group 12521" transform="translate(60.627 112.357)">
            <rect id="Rectangle_17757" data-name="Rectangle 17757" width="1.163" height="61.788" fill="#0fbcbc"/>
          </g>
          <g id="Group_12522" data-name="Group 12522" transform="translate(60.627 33.885)">
            <rect id="Rectangle_17758" data-name="Rectangle 17758" width="1.163" height="19.887" fill="#0fbcbc"/>
          </g>
          <circle id="Ellipse_531" data-name="Ellipse 531" cx="0.845" cy="0.845" r="0.845" transform="translate(37.855 82.261)" fill="#429df3"/>
          <path id="Path_25720" data-name="Path 25720" d="M500.342,404.811a.845.845,0,1,1-.845-.846A.845.845,0,0,1,500.342,404.811Z" transform="translate(-416.016 -321.777)" fill="#429df3"/>
          <path id="Path_25721" data-name="Path 25721" d="M486.21,433.9a.845.845,0,1,1-.845-.845A.845.845,0,0,1,486.21,433.9Z" transform="translate(-409.217 -335.771)" fill="#429df3"/>
          <path id="Path_25722" data-name="Path 25722" d="M457.118,364.935a.845.845,0,1,1-.845-.845A.845.845,0,0,1,457.118,364.935Z" transform="translate(-395.22 -302.592)" fill="#429df3"/>
          <path id="Path_25723" data-name="Path 25723" d="M428,434.08a.845.845,0,1,1-.845-.845A.845.845,0,0,1,428,434.08Z" transform="translate(-381.211 -335.86)" fill="#429df3"/>
          <path id="Path_25724" data-name="Path 25724" d="M449.472,467.806a.845.845,0,1,1-.845-.845A.845.845,0,0,1,449.472,467.806Z" transform="translate(-391.541 -352.086)" fill="#08b0b8"/>
          <path id="Path_25725" data-name="Path 25725" d="M464.358,467.806a.845.845,0,1,1-.845-.845A.845.845,0,0,1,464.358,467.806Z" transform="translate(-398.703 -352.086)" fill="#08b0b8"/>
          <circle id="Ellipse_532" data-name="Ellipse 532" cx="0.845" cy="0.845" r="0.845" transform="translate(56.241 50.004)" fill="#08b0b8"/>
          <path id="Path_25726" data-name="Path 25726" d="M464.358,342.782a.845.845,0,1,1-.845-.845A.845.845,0,0,1,464.358,342.782Z" transform="translate(-398.703 -291.933)" fill="#08b0b8"/>
          <circle id="Ellipse_533" data-name="Ellipse 533" cx="0.845" cy="0.845" r="0.845" transform="translate(75.393 67.032)" fill="#429df3"/>
          <path id="Path_25727" data-name="Path 25727" d="M427.818,375.581a.845.845,0,1,1-.845-.845A.845.845,0,0,1,427.818,375.581Z" transform="translate(-381.122 -307.714)" fill="#429df3"/>
          <path id="Path_25728" data-name="Path 25728" d="M455.857,444.34a.845.845,0,1,1,.008,1.2A.845.845,0,0,1,455.857,444.34Z" transform="translate(-395.309 -341.082)" fill="#429df3"/>
          <g id="Group_12523" data-name="Group 12523" transform="translate(91.257 56.863)">
            <path id="Path_25729" data-name="Path 25729" d="M515.85,371.309a.581.581,0,0,1-.32-1.068c5.465-3.585,6.762-10.014,6.213-14.43a.582.582,0,0,1,1.155-.144c.59,4.748-.818,11.668-6.729,15.547A.579.579,0,0,1,515.85,371.309Z" transform="translate(-515.268 -355.156)" fill="#0fbcbc"/>
          </g>
          <g id="Group_12524" data-name="Group 12524" transform="translate(23.254 57.565)">
            <path id="Path_25730" data-name="Path 25730" d="M391.723,371.74a.583.583,0,0,1-.318-.095c-4.483-2.931-7.308-8.648-7.2-14.565a.582.582,0,1,1,1.163.022c-.1,5.525,2.514,10.852,6.67,13.568a.582.582,0,0,1-.319,1.069Z" transform="translate(-384.206 -356.51)" fill="#0fbcbc"/>
          </g>
        </g>
      </g>
      <g id="Group_12405" data-name="Group 12405" transform="translate(61.563 174.232)">
        <g id="Group_12403" data-name="Group 12403" transform="translate(33.675 0)">
          <g id="Group_12402" data-name="Group 12402" transform="translate(0 3.475)">
            <path id="Path_25375" data-name="Path 25375" d="M1028.87,1200.48l8-14.345-1.61-3.522s-.2.084-.238,1.03c-.013.27.613,1.3.494,1.57-.163.362,0,1.628-.445,1.922-3.226,2.113-8.442,4.645-11.13,8.084C1019.614,1200.758,1028.83,1200.771,1028.87,1200.48Z" transform="translate(-1005.847 -1182.613)" fill="#e9d6b8"/>
            <path id="Path_25376" data-name="Path 25376" d="M942.559,1283.708s-1.582-6.425,6.162-22.265c7.914-16.183,8.758-15.344,8.758-15.344l2.636-3.127,6.606,3.374-14.531,35.791Z" transform="translate(-942.426 -1230.25)" fill="#d1dbea"/>
            <path id="Path_25377" data-name="Path 25377" d="M1024.875,1253.37l4.046,2.4,1.1.469,1.636-3.007-5.089-1.675Z" transform="translate(-1007.499 -1237.025)" fill="#b0bfde"/>
          </g>
          <path id="Path_25378" data-name="Path 25378" d="M1068.252,1169.307c.1-1.27.034-3.59.727-3.12l.279,4.147.914,1.823,1.537.581-.7,1.184c.1.514.127.908-.725,1.048l-.278.511a9.6,9.6,0,0,1-1.475-2.217l-.358-1.943A8.507,8.507,0,0,1,1068.252,1169.307Z" transform="translate(-1041.639 -1166.125)" fill="#e9d6b8"/>
        </g>
        <path id="Path_25379" data-name="Path 25379" d="M892.9,1574.644s8.288,29.364,14.93,39.878,8.962-3.166,8.962-3.166l-8.25-48.828-19.294-.123S889.733,1563.409,892.9,1574.644Z" transform="translate(-866.778 -1478.886)" fill="#3c463b"/>
        <path id="Path_25380" data-name="Path 25380" d="M881.174,1560.4s-5.552,48.17-6.348,50.589c-2.686,8.19-8.834,2.9-9.781.173s-2.532-22.926-2.215-37.663.316-13.771.316-13.771Z" transform="translate(-845.898 -1476.766)" fill="#3c463b"/>
        <path id="Path_25381" data-name="Path 25381" d="M869.168,1995.018c-.285.348-.076,1.259-.076,1.259s5,.555,6.6.179a8.546,8.546,0,0,0,1.788-.839c.112-.065.312-.451.419-.515.2-.118.305.084.476-.027a5.547,5.547,0,0,0,.765-.525c.44-2.293-.146-3.215-.146-3.215s-4.253-1.414-5.048-.429C872.069,1993.228,869.8,1994.262,869.168,1995.018Z" transform="translate(-850.814 -1816.803)" fill="#161711"/>
        <path id="Path_25382" data-name="Path 25382" d="M1017.116,1992.062l.712,3.722h3.8s.21-.527.531-.527c.271,0,.622.527.988.527h9.656s.169-.782-.037-1.05a3.66,3.66,0,0,0-1.166-.5c-1.963-.552-7.574-2.273-8.551-4.144C1021.861,1987.809,1017.116,1992.062,1017.116,1992.062Z" transform="translate(-967.7 -1815.902)" fill="#161711"/>
        <path id="Path_25383" data-name="Path 25383" d="M891.826,1301.592c.3,1.2-.118,2.328-.93,2.529h0c-.814.2-1.713-.6-2.01-1.795l-.372-1.5c-.3-1.2.12-2.326.933-2.528h0c.812-.2,1.709.6,2.007,1.8Z" transform="translate(-866.125 -1270.415)" fill="#e9d6b8"/>
        <path id="Path_25384" data-name="Path 25384" d="M904.706,1295.457c-.179,2.146-1.333,4.01-2.548,4.1H898.7c-1.218-.089-2.373-1.953-2.552-4.1q-.424-5.315-.852-10.636c-.188-2.122.643-6.393,2.483-7.65a4.581,4.581,0,0,1,5.3,0c1.842,1.257,2.672,5.528,2.482,7.65Q905.132,1290.137,904.706,1295.457Z" transform="translate(-871.533 -1253.102)" fill="#e2c59c"/>
        <path id="Path_25385" data-name="Path 25385" d="M805.175,1526.972l12.337,12.629s-14.876-3.413-15.537-9.571S805.175,1526.972,805.175,1526.972Z" transform="translate(-797.842 -1450.305)" fill="#e9d6b8"/>
        <path id="Path_25386" data-name="Path 25386" d="M879.238,1354.646l-6.312-7.532-10.99,6.719-6.675-.761-7.354,3.188s-3.321,3.19-.236,13.443,1.9,26.319,1.9,26.319l26.177,1.167a161.231,161.231,0,0,0,.911-28.556C876.083,1359.882,878.079,1357.178,879.238,1354.646Z" transform="translate(-832.931 -1308.969)" fill="#d1dbea"/>
        <path id="Path_25387" data-name="Path 25387" d="M802.367,1389.455s-4.077-3.195-8.066,2.734a110.92,110.92,0,0,0-10.912,21.191c-.712,2.051-1.663,8.2,1.186,10.022l2.846,1.825,5.931-3.644-.949-1.824-.474-1.141s3.32-7.291,6.879-13.9S802.367,1389.455,802.367,1389.455Z" transform="translate(-782.645 -1341.708)" fill="#d1dbea"/>
        <path id="Path_25388" data-name="Path 25388" d="M903.349,1279.77c-.555,2.006-1.378,2.482-2.844,2.7-1.391.137-1.731.277-3.124.415-1.475.07-2.98-1.884-3.323-3.673-.55-2.945-2.153-5.369-2.7-8.315-.354-1.764.4-3.349,2.553-4.626,1.967-1.147,4.3-3.486,6.4-2.746,2.3.841,3.553,4.332,3.446,6.142C903.621,1272.687,903.485,1276.755,903.349,1279.77Z" transform="translate(-868.377 -1242.888)" fill="#e9d6b8"/>
        <path id="Path_25389" data-name="Path 25389" d="M895.475,1367.014l-2.2,3.6-4.327-4.792,1.912-2.057Z" transform="translate(-866.546 -1322.11)" fill="#b0bfde"/>
        <path id="Path_25390" data-name="Path 25390" d="M931.7,1363.474l-2.621,2.651,1.756,3.119,2.147-4.112Z" transform="translate(-898.214 -1321.881)" fill="#b0bfde"/>
        <path id="Path_25391" data-name="Path 25391" d="M879.087,1697.957s-1.232,18.268-1.054,27.93a328.33,328.33,0,0,1-.962,33.149c-.067.731-6.011.179-6.011.179s-3.988-45.541-4.621-53S874.343,1692.626,879.087,1697.957Z" transform="translate(-848.753 -1584.281)" fill="#3c463b"/>
        <path id="Path_25392" data-name="Path 25392" d="M982.656,1792.065a67.715,67.715,0,0,1-6.961.825c-2.406.208,7.039,42.149,7.039,42.149l7.478-3.225-5.631-42.253Z" transform="translate(-934.699 -1658.167)" fill="#323b31"/>
        <path id="Path_25393" data-name="Path 25393" d="M886.57,1256.494l1.074,2.3s2.279-2.568,3.886-4.669c.507-.668,5.709-.727,7-.495.941.166,1.05,1.374,1.266,2.072.771,2.5-.331-4.216-.331-4.216s-1.763-3.159-5.071-3.426c-1.827-.145-2.678.919-3.372,2.3-.163.324,2.014-.524,1.636-.573a22.719,22.719,0,0,0-2.3,2.012,11.48,11.48,0,0,1-1.143,2.063C887.45,1256.23,886.57,1256.494,886.57,1256.494Z" transform="translate(-864.667 -1230.782)" fill="#163f59"/>
        <path id="Path_25394" data-name="Path 25394" d="M912.642,1294.656l1.435.2-.387.876,1.138.423,1.119,4.412-1.881.139-.293-2.7-1.14-1.354-2.889-.268Z" transform="translate(-882.957 -1267.567)" fill="#e2c59c"/>
        <path id="Path_25395" data-name="Path 25395" d="M804.683,1540.773l5.114-4.312,2,2.731-5.007,4.085Z" transform="translate(-800.038 -1458.41)" fill="#d1dbea"/>
        <g id="Group_12404" data-name="Group 12404" transform="translate(14.893 84.466)">
          <path id="Path_25396" data-name="Path 25396" d="M854.426,1566.905c.821.247.775.2.775.2a3.169,3.169,0,0,0,.605,1.9c.325.4,1.526,1.52,1.526,1.52l1.76,1.685.877.716s.53.37.582.564c.151.564-.332.469-.332.469l-3.646-2.484,2.753,3.212s.284.471.11.7-.285.086-.285.086l-3.957-2.9,1.237,1.816s.266.466.109.7c-.172.253-.214.327-.214.327l-3.019-3.35S853.6,1566.662,854.426,1566.905Z" transform="translate(-853.307 -1566.897)" fill="#e9d6b8"/>
          <path id="Path_25397" data-name="Path 25397" d="M863.251,1591.893l1.806,2.371a2.466,2.466,0,0,1,.54.847.4.4,0,0,1-.266.5l-3.073-3.311Z" transform="translate(-860.372 -1586.625)" fill="#e9d6b8"/>
        </g>
        <path id="Path_25398" data-name="Path 25398" d="M918.439,1418.691h2.766a104.55,104.55,0,0,0-.424-43.425q-1.255.5-2.5,1A99.882,99.882,0,0,1,918.439,1418.691Z" transform="translate(-889.692 -1331.188)" fill="#b0bfde"/>
      </g>
    </g>
  </g>
</svg>
