<svg xmlns="http://www.w3.org/2000/svg" xmlns:xlink="http://www.w3.org/1999/xlink" width="105.174" height="79.348" viewBox="0 0 105.174 79.348">
  <defs>
    <linearGradient id="linear-gradient" x1="0.5" x2="0.5" y2="1" gradientUnits="objectBoundingBox">
      <stop offset="0" stop-color="#1da2f7"/>
      <stop offset="1" stop-color="#1d62f1"/>
    </linearGradient>
  </defs>
  <g id="_18771" data-name="18771" transform="translate(0 0)">
    <g id="Group_14469" data-name="Group 14469" transform="translate(0 0)">
      <path id="Path_26554" data-name="Path 26554" d="M447.277,268.946a24.648,24.648,0,0,1-2.7-6.359l-4.769-.913-.052-5.278-.049-5.278,4.754-1a24.741,24.741,0,0,1,2.577-6.4l-2.727-4.017,3.7-3.766,3.688-3.759,4.07,2.648a24.569,24.569,0,0,1,6.358-2.7l.913-4.769,5.278-.049,5.278-.052,1,4.765A24.819,24.819,0,0,1,481,234.6l3.995-2.734,3.77,3.7,3.763,3.7-2.648,4.069a24.621,24.621,0,0,1,2.7,6.359l4.769.913.049,5.278.052,5.278-4.754,1a24.762,24.762,0,0,1-2.577,6.4l2.734,4.006-3.7,3.767-3.7,3.767-4.069-2.652a24.624,24.624,0,0,1-6.359,2.7l-.883,4.769-5.278.052-5.278.049-1.014-4.735a24.638,24.638,0,0,1-6.385-2.6l-4.017,2.727-3.766-3.7-3.767-3.7Zm30.544-3.74a12.942,12.942,0,1,0-18.3.168,12.942,12.942,0,0,0,18.3-.168Z" transform="translate(-439.71 -227.26)" fill="#1d62f1"/>
      <path id="Path_26555" data-name="Path 26555" d="M470.532,368.655a1.8,1.8,0,0,1,3.149.5h0a1.931,1.931,0,0,1,.093.554,1.819,1.819,0,0,1-.108.643,1.871,1.871,0,0,1-.591.808,1.792,1.792,0,0,1-.939.374h-.262a1.946,1.946,0,0,1-.516-.1,1.8,1.8,0,0,1-.827-2.779Zm.98,2.353h0a1.329,1.329,0,0,0,.374.079h.09a1.32,1.32,0,0,0,.374-.06,1.233,1.233,0,0,0,.441-.224,1.022,1.022,0,0,0,.135-.12,1.324,1.324,0,0,0,.374-.965,1.185,1.185,0,0,0-.034-.284A1.349,1.349,0,1,0,471.489,371Z" transform="translate(-427.436 -315.318)" fill="#4da8f2"/>
      <rect id="Rectangle_1698" data-name="Rectangle 1698" width="99.852" height="1.825" transform="translate(5.322 77.522)" fill="#1d62f1"/>
      <g id="Group_14468" data-name="Group 14468" transform="translate(30.606 6.056)">
        <path id="Path_26556" data-name="Path 26556" d="M397.937,261.236s-4.283-12.564,3.894-16.458,15.122,1.721,16.428,4.769.965,8.6-.153,12.452-.957,9.725,1.474,11.711,5.442,5.236,5.293,11.883c-.094,4.114-16.233-10.551-16.233-10.551Z" transform="translate(-381.707 -243.451)" fill="#252e3b"/>
        <path id="Path_26557" data-name="Path 26557" d="M417.75,330.359s6.733,1.5,9.385,3.048,8.6,8.73,8.6,11.812-25.906,5.966-25.906,5.966l-4.907,17.924s-13.091-3.194-14.655-5.846,4.975-21.642,6.093-25.483c1.141-3.924,5.831-6.658,11.288-7.421A37.533,37.533,0,0,1,417.75,330.359Z" transform="translate(-390.03 -297.639)" fill="url(#linear-gradient)"/>
        <path id="Path_26558" data-name="Path 26558" d="M432.158,329.969s.15,8.165,6.628,8.408,5.128-7.832,5.128-7.832A22.458,22.458,0,0,0,432.158,329.969Z" transform="translate(-414.08 -297.309)" fill="#eea886"/>
        <path id="Path_26559" data-name="Path 26559" d="M454.427,264.87s-2.293,13.136,4.234,22.625C465.419,297.325,454.427,264.87,454.427,264.87Z" transform="translate(-439.091 -256.859)" fill="#252e3b"/>
        <path id="Path_26560" data-name="Path 26560" d="M434.861,310.839a19.431,19.431,0,0,1-.3,6.336c-.752,2.431,9.9,2.495,9.9.5,0-2.27-1.088-4.167-.067-8.057S434.861,310.839,434.861,310.839Z" transform="translate(-415.396 -283.954)" fill="#eea886"/>
        <path id="Path_26561" data-name="Path 26561" d="M445.754,316.66a5.758,5.758,0,0,1-7.664.374s.355,2.244,3.449,2.528S445.754,316.66,445.754,316.66Z" transform="translate(-418.022 -289.277)" fill="#a77860"/>
        <path id="Path_26562" data-name="Path 26562" d="M431.478,252.4s-8.506,2.517-7.29,14.318,6.77,11.195,7.29,11.281,7.107.52,9.2-13.8S431.478,252.4,431.478,252.4Z" transform="translate(-407.958 -248.949)" fill="#eea886"/>
        <path id="Path_26563" data-name="Path 26563" d="M432.2,256.458s-4.623,7.35-9.485,9.055c0,0-2.656-12.343,8.311-14.916s9.25,12.455,8.434,16.458A32.611,32.611,0,0,0,432.2,256.458Z" transform="translate(-406.48 -247.74)" fill="#252e3b"/>
        <path id="Path_26564" data-name="Path 26564" d="M440,254.473s-2.435-4.709-6.542-4.922-6.549,3.366-6.549,3.366a6.987,6.987,0,0,1,6.546-4.013C438.4,248.893,440,254.473,440,254.473Z" transform="translate(-408.088 -246.862)" fill="#88c0ff"/>
      </g>
      <path id="Path_26565" data-name="Path 26565" d="M373.024,362.85l-2.884,26.807H408.1l2.884-26.807Z" transform="translate(-327.227 -312.135)" fill="#1d62f1"/>
      <path id="Path_26566" data-name="Path 26566" d="M366.71,386.64H405l2.921-27.14h-38.29Zm37.991-.329H367.077l2.85-26.478h37.62Z" transform="translate(-322.881 -310.038)" fill="#5fa0ff"/>
      <path id="Path_26567" data-name="Path 26567" d="M418.266,393.215c-.34,1.668.438,3.235,1.739,3.5s2.618-.871,2.97-2.54-.438-3.235-1.736-3.5S418.6,391.547,418.266,393.215Z" transform="translate(-357.276 -329.529)" fill="#1d62f1"/>
      <rect id="Rectangle_1699" data-name="Rectangle 1699" width="7.084" height="2.697" transform="translate(39.419 74.825)" fill="#1d62f1"/>
    </g>
  </g>
</svg>
