<svg xmlns="http://www.w3.org/2000/svg" xmlns:xlink="http://www.w3.org/1999/xlink" width="101" height="101" viewBox="0 0 101 101"><defs><style>.a{isolation:isolate;}.b{fill:#216203;opacity:0.344;}.c{fill:#fff;}.d{filter:url(#g);}.e{filter:url(#e);}.f{filter:url(#c);}.g{filter:url(#a);}</style><filter id="a" x="0" y="0" width="101" height="101" filterUnits="userSpaceOnUse"><feOffset input="SourceAlpha"/><feGaussianBlur stdDeviation="4.5" result="b"/><feFlood flood-color="#216203" flood-opacity="0.502"/><feComposite operator="in" in2="b"/><feComposite in="SourceGraphic"/></filter><filter id="c" x="9.055" y="50.491" width="84.45" height="46.508" filterUnits="userSpaceOnUse"><feOffset dx="1" dy="2" input="SourceAlpha"/><feGaussianBlur stdDeviation="2.5" result="d"/><feFlood flood-color="#44056e" flood-opacity="0.349"/><feComposite operator="in" in2="d"/><feComposite in="SourceGraphic"/></filter><filter id="e" x="13.618" y="29.963" width="75.763" height="45.074" filterUnits="userSpaceOnUse"><feOffset dx="1" dy="2" input="SourceAlpha"/><feGaussianBlur stdDeviation="2.5" result="f"/><feFlood flood-color="#44056e" flood-opacity="0.2"/><feComposite operator="in" in2="f"/><feComposite in="SourceGraphic"/></filter><filter id="g" x="9.503" y="8" width="84.441" height="46.492" filterUnits="userSpaceOnUse"><feOffset dx="1" dy="2" input="SourceAlpha"/><feGaussianBlur stdDeviation="2.5" result="h"/><feFlood flood-color="#44056e" flood-opacity="0.353"/><feComposite operator="in" in2="h"/><feComposite in="SourceGraphic"/></filter></defs><g class="a" transform="translate(18.312 4.312)"><g class="g" transform="matrix(1, 0, 0, 1, -18.31, -4.31)"><ellipse class="b" cx="37" cy="37" rx="37" ry="37" transform="translate(13.5 87.5) rotate(-90)"/></g><g class="f" transform="matrix(1, 0, 0, 1, -18.31, -4.31)"><path class="c" d="M69.415,171.6a32.2,32.2,0,0,1-58.092-3.957c-.057-.173-.124-.343-.194-.516A5.814,5.814,0,0,0,.134,170.787a5.7,5.7,0,0,0,.544,1.407,37.053,37.053,0,0,0,67.5,2.228C68.637,173.49,69.047,172.553,69.415,171.6Z" transform="translate(15.59 -107.62)"/></g><g class="e" transform="matrix(1, 0, 0, 1, -18.31, -4.31)"><path class="c" d="M.525,26.1a2.31,2.31,0,0,1,.046-2.987L.675,23l2.017-1.929a2.231,2.231,0,0,1,3.156.064l.054.054A6.613,6.613,0,0,0,9.5,22.75a2.378,2.378,0,0,0,2.531-2.058c0-1.325-1.55-2.255-3.769-2.255H6.08a2.292,2.292,0,0,1-2.306-2.329V13.68a2.242,2.242,0,0,1,2.3-2.331H8.242c.758,0,3.228-.142,3.228-1.98A2.052,2.052,0,0,0,9.287,7.388a3.436,3.436,0,0,0-2.712,1.3L6.561,8.7a2.269,2.269,0,0,1-1.568.78,2.346,2.346,0,0,1-1.7-.6l-.031-.027L1.377,7.095a2.173,2.173,0,0,1-.725-1.56A2.293,2.293,0,0,1,1.29,3.883,12.134,12.134,0,0,1,9.712,0a10.756,10.756,0,0,1,6.793,2.255A8.049,8.049,0,0,1,19.515,8.6a8.227,8.227,0,0,1-2.744,5.959,9.912,9.912,0,0,1,1.382,1.261q.218.234.415.484a17.283,17.283,0,0,1,5.5-11.326A22.234,22.234,0,0,1,32.209.127L32.264.11A2.3,2.3,0,0,1,35.209,1.6l.856,2.179a2.25,2.25,0,0,1-.014,1.814,2.527,2.527,0,0,1-1.637,1.316,15.4,15.4,0,0,0-5.428,3.26c.308-.031.618-.048.927-.048a9.37,9.37,0,0,1,6.361,2.5,9.031,9.031,0,0,1,1.866,2.5c0-.027,0-.054,0-.082,0-4.544.952-8.179,2.841-10.8A10,10,0,0,1,49.448,0a9.992,9.992,0,0,1,8.467,4.221c1.888,2.629,2.848,6.264,2.848,10.808s-.956,8.181-2.845,10.808a10,10,0,0,1-8.467,4.228,9.98,9.98,0,0,1-8.467-4.228,13.726,13.726,0,0,1-1.954-4.063,10.16,10.16,0,0,1-2.809,5.292,10.027,10.027,0,0,1-7.143,3,9.907,9.907,0,0,1-9.4-6.005,8.526,8.526,0,0,1-2.454,3.515,11.292,11.292,0,0,1-7.471,2.5A11.658,11.658,0,0,1,.525,26.1Zm25.613-7.183c.069,1.435.731,3.779,2.9,3.779A2.9,2.9,0,0,0,29,16.9,3.163,3.163,0,0,0,26.138,18.913Zm20.2-3.884c0,1.729.224,7.373,3.111,7.373s3.111-5.643,3.111-7.373-.224-7.37-3.111-7.37C48.718,7.659,46.337,8.189,46.337,15.029Z" transform="translate(20.12 35.46)"/></g><g class="d" transform="matrix(1, 0, 0, 1, -18.31, -4.31)"><path class="c" d="M70.978,24.349a5.835,5.835,0,0,0-.536-1.407A37.053,37.053,0,0,0,2.936,20.717Q2.252,22.111,1.7,23.534A32.2,32.2,0,0,1,59.795,27.49c.054.173.122.343.192.516a5.814,5.814,0,0,0,10.991-3.652Z" transform="translate(14.3 13.48)"/></g></g></svg>