<svg xmlns="http://www.w3.org/2000/svg" xmlns:xlink="http://www.w3.org/1999/xlink" width="473" height="215" viewBox="0 0 473 215"><defs><style>.a,.f{fill:#fff;}.b{fill:url(#a);}.c{clip-path:url(#d);}.d{isolation:isolate;}.e{fill:none;stroke:#fff;stroke-miterlimit:10;opacity:0.093;}.f{opacity:0.067;}.g{filter:url(#b);}</style><linearGradient id="a" x1="1" x2="0" y2="1" gradientUnits="objectBoundingBox"><stop offset="0" stop-color="#a8e063"/><stop offset="1" stop-color="#56ab2f"/></linearGradient><filter id="b" x="0" y="0" width="473" height="215" filterUnits="userSpaceOnUse"><feOffset dx="3" dy="3" input="SourceAlpha"/><feGaussianBlur stdDeviation="7.5" result="c"/><feFlood flood-color="#489823" flood-opacity="0.502"/><feComposite operator="in" in2="c"/><feComposite in="SourceGraphic"/></filter><clipPath id="d"><path class="a" d="M558.936,11.876c0,34.236.016,107.047.016,148.619C500,173.711,424.81,181.869,342.128,181.869c-79.494,0-153.252-9.061-211.171-21.374,0-37.216-.006-125.413-.006-148.626C187.243,11.869,497.056,11.876,558.936,11.876Z" transform="translate(-130.953 -11.878)"/></clipPath></defs><g transform="translate(19.501 19.509)"><g class="g" transform="matrix(1, 0, 0, 1, -19.5, -19.51)"><path class="b" d="M558.936,11.876c0,34.236.016,107.047.016,148.619C500,173.711,424.81,181.869,342.128,181.869c-79.494,0-153.252-9.061-211.171-21.374,0-37.216-.006-125.413-.006-148.626C187.243,11.869,497.056,11.876,558.936,11.876Z" transform="translate(-111.45 7.63)"/></g><g class="c"><g class="d" transform="translate(-3592.966 -1192.818)"><g transform="matrix(0.485, 0.875, -0.875, 0.485, 3639.775, 1157.47)"><path class="e" d="M166.353,136.1c-4.143,8.057-11.856,13.351-20.483,15.852-10.229,2.966-20.071,1.384-30.334-.19-9.462-1.451-19.987-1.856-27.971,4.294-12.392,9.545-13.576,28.038-24.923,38.737a31.407,31.407,0,0,1-20.973,8.463c-8.53.094-19.325-3.619-23.687-11.489-4.236-7.642.057-15.252-1.447-23.076C13.592,153.389-7.539,154.3-17.748,146.7c-4.878-3.629-8.161-9.044-10.41-14.692-2.5-6.269-3.855-13.254-2.166-19.787,2.8-10.822,13.311-14.873,23.55-15.262,7.608-.289,15.171,1.669,22.158,4.694,6.179,2.675,11.992,6.185,18.311,8.509,15.607,5.739,30.982-1.584,44.448-9.458C95.43,90.6,113.283,80.856,133.951,84.334c15.793,2.657,32.183,12.372,35.282,29.26a36.027,36.027,0,0,1-2.311,21.33Q166.65,135.52,166.353,136.1Z" transform="translate(31.073 -83.615)"/><path class="e" d="M166.353,147.342c-4.143,8.057-11.856,13.351-20.483,15.852-10.229,2.966-20.071,1.384-30.334-.19-9.462-1.451-19.987-1.856-27.971,4.294-12.392,9.545-13.576,28.037-24.923,38.737A31.408,31.408,0,0,1,41.668,214.5c-8.53.094-19.325-3.619-23.687-11.489-4.236-7.642.057-15.252-1.447-23.076-2.942-15.3-24.072-14.392-34.282-21.987-4.878-3.629-8.161-9.044-10.41-14.692-2.5-6.269-3.855-13.254-2.166-19.787,2.8-10.822,13.311-14.873,23.55-15.262,7.608-.289,15.171,1.669,22.158,4.694,6.179,2.675,11.992,6.185,18.311,8.509,15.607,5.739,30.982-1.584,44.448-9.458,17.287-10.107,35.14-19.851,55.807-16.373,15.793,2.657,32.183,12.372,35.282,29.26a36.027,36.027,0,0,1-2.311,21.33Q166.65,146.764,166.353,147.342Z" transform="translate(31.073 -91.968)"/><path class="e" d="M166.353,158.585c-4.143,8.057-11.856,13.351-20.483,15.852-10.229,2.966-20.071,1.384-30.334-.19-9.462-1.451-19.987-1.856-27.971,4.294-12.392,9.545-13.576,28.037-24.923,38.737a31.409,31.409,0,0,1-20.973,8.463c-8.53.094-19.325-3.619-23.687-11.489-4.236-7.642.057-15.252-1.447-23.076-2.942-15.3-24.072-14.392-34.282-21.987-4.878-3.629-8.161-9.044-10.41-14.692-2.5-6.269-3.855-13.254-2.166-19.787,2.8-10.822,13.311-14.873,23.55-15.262,7.608-.289,15.171,1.669,22.158,4.694,6.179,2.675,11.992,6.185,18.311,8.509,15.607,5.738,30.982-1.584,44.448-9.458,17.287-10.107,35.14-19.851,55.807-16.373,15.793,2.657,32.183,12.372,35.282,29.26a36.027,36.027,0,0,1-2.311,21.33Q166.65,158.007,166.353,158.585Z" transform="translate(31.073 -100.321)"/><path class="e" d="M166.353,169.828c-4.143,8.057-11.856,13.351-20.483,15.852-10.229,2.966-20.071,1.384-30.334-.19-9.462-1.452-19.987-1.856-27.971,4.294-12.392,9.545-13.576,28.037-24.923,38.737a31.41,31.41,0,0,1-20.973,8.463c-8.53.094-19.325-3.619-23.687-11.489-4.236-7.643.057-15.252-1.447-23.076-2.942-15.3-24.072-14.392-34.282-21.987-4.878-3.629-8.161-9.044-10.41-14.692-2.5-6.269-3.855-13.254-2.166-19.787,2.8-10.822,13.311-14.873,23.55-15.262C.834,130.4,8.4,132.36,15.384,135.385c6.179,2.675,11.992,6.185,18.311,8.509,15.607,5.738,30.982-1.584,44.448-9.458,17.287-10.107,35.14-19.851,55.807-16.374,15.793,2.657,32.183,12.372,35.282,29.26a36.028,36.028,0,0,1-2.311,21.33Q166.65,169.25,166.353,169.828Z" transform="translate(31.073 -108.674)"/></g><path class="f" d="M-11.007-19.917c-4.632,9.008-13.256,14.927-22.9,17.724C-45.347,1.123-56.352-.645-67.827-2.405-78.406-4.028-90.174-4.48-99.1,2.4c-13.856,10.672-15.179,31.349-27.867,43.313a35.118,35.118,0,0,1-23.451,9.463c-9.538.1-21.607-4.046-26.485-12.846-4.737-8.545.064-17.053-1.618-25.8C-181.811-.585-205.436.432-216.852-8.06c-5.455-4.057-9.125-10.112-11.64-16.428-2.791-7.01-4.311-14.819-2.421-22.124,3.129-12.1,14.884-16.63,26.331-17.064,8.506-.323,16.963,1.866,24.775,5.248,6.909,2.991,13.408,6.916,20.474,9.514,17.45,6.416,34.641-1.772,49.7-10.575,19.328-11.3,39.29-22.2,62.4-18.307,17.658,2.971,35.984,13.833,39.45,32.716A40.279,40.279,0,0,1-10.37-21.231Q-10.674-20.564-11.007-19.917Z" transform="translate(3759.655 1217.36) rotate(-21)"/><path class="f" d="M253.783,375.419a18.135,18.135,0,0,1-11.372,8.8c-5.679,1.646-11.143.768-16.841-.106-5.253-.806-11.1-1.03-15.529,2.384-6.88,5.3-7.537,15.566-13.837,21.506a17.438,17.438,0,0,1-11.644,4.7c-4.736.052-10.729-2.009-13.151-6.378-2.352-4.243.032-8.468-.8-12.812-.824-4.285-4.719-6.585-8.543-7.929-3.026-1.064-6.222-1.75-8.992-3.367-4.733-2.764-7.649-8.02-8.553-13.425-.543-3.246-.388-6.761,1.326-9.57,2.109-3.458,6.262-5.253,10.3-5.521a31.092,31.092,0,0,1,13.819,2.6c3.431,1.485,6.657,3.434,10.166,4.724,8.665,3.186,17.2-.88,24.677-5.251,9.6-5.611,19.509-11.021,30.983-9.09,8.768,1.475,17.867,6.869,19.588,16.245a20,20,0,0,1-1.283,11.842Q253.948,375.1,253.783,375.419Z" transform="matrix(-0.966, 0.259, -0.259, -0.966, 4193.021, 1518.265)"/><path class="f" d="M402.183,395.09c-4.632,9.009-13.256,14.927-22.9,17.725-11.437,3.316-22.442,1.547-33.917-.213-10.58-1.623-22.347-2.075-31.274,4.8-13.856,10.672-15.18,31.349-27.867,43.313a35.121,35.121,0,0,1-23.451,9.462c-9.537.1-21.607-4.046-26.485-12.846-4.736-8.545.064-17.054-1.618-25.8-3.29-17.108-26.915-16.091-38.331-24.584-5.455-4.057-9.125-10.112-11.64-16.428-2.791-7.01-4.311-14.819-2.422-22.124,3.129-12.1,14.884-16.629,26.331-17.064,8.507-.323,16.963,1.866,24.775,5.248,6.909,2.991,13.408,6.916,20.474,9.514,17.451,6.416,34.641-1.771,49.7-10.575,19.328-11.3,39.29-22.2,62.4-18.307,17.658,2.971,35.984,13.833,39.45,32.716a40.283,40.283,0,0,1-2.583,23.848Q402.516,394.443,402.183,395.09Z" transform="translate(3536.653 923.613)"/><path class="f" d="M91.233-141.237c-3.831,7.452-10.965,12.348-18.944,14.661-9.46,2.743-18.563,1.28-28.054-.176-8.751-1.342-18.484-1.716-25.868,3.971C6.905-113.953,5.81-96.851-4.684-86.955a29.048,29.048,0,0,1-19.4,7.827c-7.889.087-17.872-3.347-21.907-10.626-3.918-7.068.052-14.106-1.339-21.341-2.721-14.151-22.263-13.31-31.705-20.334-4.511-3.356-7.548-8.364-9.628-13.588-2.308-5.8-3.566-12.258-2-18.3,2.588-10.009,12.311-13.755,21.78-14.115a47.5,47.5,0,0,1,20.493,4.341c5.715,2.474,11.09,5.721,16.935,7.87,14.434,5.307,28.653-1.465,41.107-8.747,15.987-9.348,32.5-18.359,51.613-15.143C75.872-186.654,91.03-177.669,93.9-162.05a33.319,33.319,0,0,1-2.137,19.726Q91.507-141.771,91.233-141.237Z" transform="translate(3776.553 1330.017) rotate(-9)"/><path class="f" d="M423.756,41.242c.728-6.4,4.5-11.815,9.581-15.584,6.019-4.468,12.918-5.8,20.092-7.237,6.615-1.326,13.67-3.61,17.412-9.665,5.808-9.4,1.976-22.063,6.8-31.98A21.839,21.839,0,0,1,489.392-33.98c5.613-2.134,13.672-2.269,18.519,1.94,4.706,4.087,3.768,10.223,6.714,15.095,5.761,9.528,19.5,3.789,28.139,6.394,4.129,1.245,7.649,4.072,10.545,7.307,3.214,3.591,5.854,7.936,6.368,12.719.85,7.923-5.086,13.187-11.754,15.933a35.819,35.819,0,0,1-15.813,2.238c-4.751-.29-9.467-1.229-14.223-1.25-11.745-.052-20.078,8.582-27.011,17.122-8.9,10.962-18.268,21.818-32.792,24.509-11.1,2.056-24.353-.468-30.615-11.02a26.046,26.046,0,0,1-3.795-14.838Q423.7,41.7,423.756,41.242Z" transform="translate(3496.387 1276.077)"/><circle class="f" cx="6.49" cy="6.49" r="6.49" transform="translate(3779.86 1264.899)"/><circle class="f" cx="3.245" cy="3.245" r="3.245" transform="translate(3796.699 1256.38) rotate(-80.783)"/><circle class="f" cx="3.245" cy="3.245" r="3.245" transform="translate(3718.093 1300.58) rotate(-79.524)"/><circle class="f" cx="6.49" cy="6.49" r="6.49" transform="translate(3800.477 1196.975)"/><circle class="f" cx="16.377" cy="16.377" r="16.377" transform="matrix(0.122, -0.992, 0.992, 0.122, 3638.377, 1328.807)"/><circle class="f" cx="16.377" cy="16.377" r="16.377" transform="translate(3800.423 1328.789) rotate(-82.935)"/><g transform="translate(4094.149 1239.78) rotate(138)"><path class="e" d="M178.073,60.574c-3.737-7.267-10.693-12.042-18.475-14.3-9.226-2.675-18.1-1.248-27.36.172-8.535,1.309-18.027,1.674-25.229-3.873-11.178-8.609-12.245-25.289-22.48-34.94A28.328,28.328,0,0,0,65.611,0c-7.694-.085-17.43,3.264-21.365,10.363-3.821,6.893.051,13.757-1.305,20.814-2.654,13.8-21.712,12.981-30.921,19.832-4.4,3.273-7.361,8.157-9.39,13.252C.378,69.917-.848,76.216.676,82.109,3.2,91.87,12.683,95.524,21.917,95.875A46.325,46.325,0,0,0,41.9,91.641c5.573-2.413,10.816-5.579,16.516-7.675C72.5,78.79,86.364,85.395,98.51,92.5c15.592,9.116,31.695,17.9,50.337,14.768,14.245-2.4,29.028-11.159,31.824-26.392a32.5,32.5,0,0,0-2.084-19.239Q178.341,61.1,178.073,60.574Z" transform="translate(0 7.821)"/><path class="e" d="M178.073,60.574c-3.737-7.267-10.693-12.042-18.475-14.3-9.226-2.675-18.1-1.248-27.36.172-8.535,1.309-18.027,1.674-25.229-3.873-11.178-8.609-12.245-25.289-22.48-34.94A28.329,28.329,0,0,0,65.611,0c-7.694-.085-17.43,3.264-21.365,10.363-3.821,6.893.051,13.757-1.305,20.814-2.654,13.8-21.712,12.981-30.921,19.832-4.4,3.273-7.361,8.157-9.39,13.252C.378,69.917-.848,76.216.676,82.109,3.2,91.87,12.683,95.524,21.917,95.875A46.329,46.329,0,0,0,41.9,91.641c5.573-2.413,10.816-5.579,16.516-7.675C72.5,78.79,86.364,85.395,98.51,92.5c15.592,9.116,31.695,17.9,50.337,14.768,14.245-2.4,29.028-11.159,31.824-26.392a32.5,32.5,0,0,0-2.084-19.239Q178.341,61.1,178.073,60.574Z" transform="translate(0 5.214)"/><path class="e" d="M178.073,60.574c-3.737-7.267-10.693-12.042-18.475-14.3-9.226-2.675-18.1-1.248-27.36.172-8.535,1.309-18.027,1.674-25.229-3.873-11.178-8.609-12.245-25.289-22.48-34.94A28.33,28.33,0,0,0,65.611,0c-7.694-.085-17.43,3.264-21.365,10.363-3.821,6.893.051,13.757-1.305,20.814C40.287,44.98,21.228,44.159,12.019,51.01c-4.4,3.273-7.361,8.157-9.39,13.252C.378,69.917-.848,76.217.676,82.109,3.2,91.871,12.683,95.524,21.917,95.875A46.326,46.326,0,0,0,41.9,91.641c5.573-2.413,10.816-5.579,16.516-7.675C72.5,78.79,86.364,85.395,98.51,92.5c15.592,9.116,31.695,17.9,50.337,14.768,14.245-2.4,29.028-11.159,31.824-26.392a32.5,32.5,0,0,0-2.084-19.239Q178.341,61.1,178.073,60.574Z" transform="translate(0 2.607)"/><path class="e" d="M178.073,60.574c-3.737-7.267-10.693-12.042-18.475-14.3-9.226-2.675-18.1-1.248-27.36.172-8.535,1.309-18.027,1.674-25.229-3.873-11.178-8.609-12.245-25.289-22.48-34.94A28.33,28.33,0,0,0,65.611,0c-7.694-.085-17.43,3.264-21.365,10.363-3.821,6.893.051,13.757-1.305,20.814C40.287,44.98,21.228,44.159,12.019,51.01c-4.4,3.273-7.361,8.157-9.39,13.252C.378,69.917-.848,76.216.676,82.109,3.2,91.871,12.683,95.524,21.917,95.875A46.329,46.329,0,0,0,41.9,91.641c5.573-2.413,10.816-5.579,16.516-7.675C72.5,78.79,86.364,85.395,98.51,92.5c15.592,9.116,31.695,17.9,50.337,14.769,14.245-2.4,29.028-11.159,31.824-26.392a32.5,32.5,0,0,0-2.084-19.239Q178.341,61.1,178.073,60.574Z" transform="translate(0 0)"/></g></g></g></g></svg>