<svg xmlns="http://www.w3.org/2000/svg" xmlns:xlink="http://www.w3.org/1999/xlink" width="125" height="125" viewBox="0 0 125 125">
  <defs>
    <linearGradient id="linear-gradient" x1="1" y1="0.615" x2="0" y2="0.577" gradientUnits="objectBoundingBox">
      <stop offset="0" stop-color="#1da2f7"/>
      <stop offset="1" stop-color="#1d62f1"/>
    </linearGradient>
    <clipPath id="clip-path">
      <circle id="Ellipse_649" data-name="Ellipse 649" cx="62.5" cy="62.5" r="62.5" fill="url(#linear-gradient)"/>
    </clipPath>
    <filter id="Path_26953" x="1.752" y="81.077" width="66.075" height="57.715" filterUnits="userSpaceOnUse">
      <feOffset dx="4" dy="3" input="SourceAlpha"/>
      <feGaussianBlur stdDeviation="3" result="blur"/>
      <feFlood flood-color="#e3f2ff" flood-opacity="0.161"/>
      <feComposite operator="in" in2="blur"/>
      <feComposite in="SourceGraphic"/>
    </filter>
    <filter id="Path_26954" x="33.605" y="95.474" width="66.075" height="57.715" filterUnits="userSpaceOnUse">
      <feOffset dy="3" input="SourceAlpha"/>
      <feGaussianBlur stdDeviation="3" result="blur-2"/>
      <feFlood flood-color="#0089ff" flood-opacity="0.161"/>
      <feComposite operator="in" in2="blur-2"/>
      <feComposite in="SourceGraphic"/>
    </filter>
    <filter id="Path_26955" x="32.861" y="105.609" width="59.776" height="52.512" filterUnits="userSpaceOnUse">
      <feOffset dy="3" input="SourceAlpha"/>
      <feGaussianBlur stdDeviation="3" result="blur-3"/>
      <feFlood flood-color="#e3f2ff" flood-opacity="0.161"/>
      <feComposite operator="in" in2="blur-3"/>
      <feComposite in="SourceGraphic"/>
    </filter>
    <filter id="Path_26850" x="58.184" y="45.108" width="50.12" height="53.116" filterUnits="userSpaceOnUse">
      <feOffset dy="3" input="SourceAlpha"/>
      <feGaussianBlur stdDeviation="3" result="blur-4"/>
      <feFlood flood-color="#fff" flood-opacity="0.161"/>
      <feComposite operator="in" in2="blur-4"/>
      <feComposite in="SourceGraphic"/>
    </filter>
    <filter id="Path_26851" x="26.2" y="35.353" width="51.957" height="49.928" filterUnits="userSpaceOnUse">
      <feOffset dy="3" input="SourceAlpha"/>
      <feGaussianBlur stdDeviation="3" result="blur-5"/>
      <feFlood flood-color="#fff" flood-opacity="0.161"/>
      <feComposite operator="in" in2="blur-5"/>
      <feComposite in="SourceGraphic"/>
    </filter>
    <filter id="Path_26852" x="24.873" y="1.592" width="96.979" height="97.615" filterUnits="userSpaceOnUse">
      <feOffset dy="3" input="SourceAlpha"/>
      <feGaussianBlur stdDeviation="3" result="blur-6"/>
      <feFlood flood-color="#fff" flood-opacity="0.161"/>
      <feComposite operator="in" in2="blur-6"/>
      <feComposite in="SourceGraphic"/>
    </filter>
    <linearGradient id="linear-gradient-3" x1="0.5" x2="0.5" y2="1" gradientUnits="objectBoundingBox">
      <stop offset="0" stop-color="#47c38c"/>
      <stop offset="1" stop-color="#1ab772"/>
    </linearGradient>
    <filter id="Path_26959" x="42.849" y="108.944" width="66.075" height="57.715" filterUnits="userSpaceOnUse">
      <feOffset dy="3" input="SourceAlpha"/>
      <feGaussianBlur stdDeviation="3" result="blur-7"/>
      <feFlood flood-opacity="0.161"/>
      <feComposite operator="in" in2="blur-7"/>
      <feComposite in="SourceGraphic"/>
    </filter>
    <filter id="Path_26960" x="42.414" y="117.543" width="66.075" height="57.715" filterUnits="userSpaceOnUse">
      <feOffset dy="3" input="SourceAlpha"/>
      <feGaussianBlur stdDeviation="3" result="blur-8"/>
      <feFlood flood-opacity="0.161"/>
      <feComposite operator="in" in2="blur-8"/>
      <feComposite in="SourceGraphic"/>
    </filter>
    <filter id="Path_26961" x="9.929" y="109.388" width="59.776" height="52.512" filterUnits="userSpaceOnUse">
      <feOffset dy="3" input="SourceAlpha"/>
      <feGaussianBlur stdDeviation="3" result="blur-9"/>
      <feFlood flood-color="#3cafd1" flood-opacity="0.161"/>
      <feComposite operator="in" in2="blur-9"/>
      <feComposite in="SourceGraphic"/>
    </filter>
    <filter id="Path_26962" x="1.496" y="95.54" width="59.776" height="52.512" filterUnits="userSpaceOnUse">
      <feOffset dy="3" input="SourceAlpha"/>
      <feGaussianBlur stdDeviation="3" result="blur-10"/>
      <feFlood flood-color="#98bfe0" flood-opacity="0.161"/>
      <feComposite operator="in" in2="blur-10"/>
      <feComposite in="SourceGraphic"/>
    </filter>
  </defs>
  <g id="Group_14892" data-name="Group 14892" transform="translate(-66 -396.399)">
    <circle id="Ellipse_648" data-name="Ellipse 648" cx="62.5" cy="62.5" r="62.5" transform="translate(66 396.399)" fill="url(#linear-gradient)"/>
    <g id="Mask_Group_96" data-name="Mask Group 96" transform="translate(66 396.399)" clip-path="url(#clip-path)">
      <g id="Group_14890" data-name="Group 14890" transform="matrix(0.94, 0.342, -0.342, 0.94, 35.002, -11.469)">
        <g id="Group_14886" data-name="Group 14886" transform="translate(0 0)">
          <g id="Group_14885" data-name="Group 14885" transform="translate(0 0)">
            <path id="Path_26950" data-name="Path 26950" d="M0,0H4.071L2.955,50.823H.763Z" transform="matrix(-0.985, 0.174, -0.174, -0.985, 69.64, 123.428)" fill="#fff" opacity="0.407"/>
            <path id="Path_26951" data-name="Path 26951" d="M0,42.882H17.122L12.565.7,4,0Z" transform="translate(48.078 74.084)" fill="#fff"/>
            <path id="Path_26952" data-name="Path 26952" d="M0,47.877H5.851L4.247,0H1.1Z" transform="matrix(0.985, 0.174, -0.174, 0.985, 51.043, 76.278)" fill="#fff" opacity="0.407"/>
            <g transform="matrix(0.94, -0.34, 0.34, 0.94, -28.97, 22.75)" filter="url(#Path_26953)">
              <path id="Path_26953-2" data-name="Path 26953" d="M35.406,11.273c0,2.278,5.664.959,7.438-.325.915-.662,1.023-4.138-.148-6.85a6.614,6.614,0,0,0-4.534-4c-2.578-.566-6.386,1.44-6.8,1.2-4.558-2.883-9.126-.054-10.181.815A7.912,7.912,0,0,0,16.523.651c-3.906,0-7.081,2.644-7.081,5.9v.083a9.579,9.579,0,0,0-1.18-.083C3.694,6.552,0,9.727,0,13.633s3.694,7.081,8.261,7.081a8.834,8.834,0,0,0,6.4-2.6,7.406,7.406,0,0,0,1.865.236,7.23,7.23,0,0,0,2.809-.566l.012.047a6.094,6.094,0,0,0,5.441,2.88c3.257,0,5.9-2.113,5.9-4.721a.26.26,0,0,0-.012-.094H30.7c2.691-.437,4.709-2.349,4.709-4.626Z" transform="translate(17.11 87.08) rotate(30)" fill="#fff"/>
            </g>
            <g transform="matrix(0.94, -0.34, 0.34, 0.94, -28.97, 22.75)" filter="url(#Path_26954)">
              <path id="Path_26954-2" data-name="Path 26954" d="M35.406,11.273c0,2.278,5.664.959,7.438-.325.915-.662,1.023-4.138-.148-6.85a6.614,6.614,0,0,0-4.534-4c-2.578-.566-6.386,1.44-6.8,1.2-4.558-2.883-9.126-.054-10.181.815A7.912,7.912,0,0,0,16.523.651c-3.906,0-7.081,2.644-7.081,5.9v.083a9.579,9.579,0,0,0-1.18-.083C3.694,6.552,0,9.727,0,13.633s3.694,7.081,8.261,7.081a8.834,8.834,0,0,0,6.4-2.6,7.406,7.406,0,0,0,1.865.236,7.23,7.23,0,0,0,2.809-.566l.012.047a6.094,6.094,0,0,0,5.441,2.88c3.257,0,5.9-2.113,5.9-4.721a.26.26,0,0,0-.012-.094H30.7c2.691-.437,4.709-2.349,4.709-4.626Z" transform="translate(52.96 101.47) rotate(30)" fill="#fff"/>
            </g>
            <g transform="matrix(0.94, -0.34, 0.34, 0.94, -28.97, 22.75)" filter="url(#Path_26955)">
              <path id="Path_26955-2" data-name="Path 26955" d="M30.767,9.8c0,1.979,4.922.833,6.463-.282.8-.576.889-3.6-.128-5.953A5.747,5.747,0,0,0,33.163.088c-2.24-.491-5.55,1.252-5.907,1.042-3.961-2.505-7.93-.047-8.847.708A6.875,6.875,0,0,0,14.358.566C10.963.566,8.2,2.863,8.2,5.694v.072a8.324,8.324,0,0,0-1.026-.072C3.21,5.694,0,8.453,0,11.847S3.21,18,7.179,18a7.677,7.677,0,0,0,5.559-2.256,6.435,6.435,0,0,0,1.62.205,6.283,6.283,0,0,0,2.441-.492l.01.041A5.3,5.3,0,0,0,21.537,18c2.831,0,5.128-1.836,5.128-4.1a.226.226,0,0,0-.01-.082h.021c2.338-.379,4.092-2.041,4.092-4.02Z" transform="translate(50.86 111.61) rotate(30)" fill="#fff"/>
            </g>
            <g id="Group_14884" data-name="Group 14884" transform="translate(52.653 67.377)">
              <path id="Tracé_21256" data-name="Tracé 21256" d="M7.128,7.136C7.128,3.2,5.555,0,3.581,0S.033,3.207.033,7.136c0,2.208-.274,7.766.76,12.377a16.9,16.9,0,0,0,2.788,5.856,18.2,18.2,0,0,0,2.661-6.321A62.192,62.192,0,0,0,7.128,7.136Z" transform="translate(0)" fill="#ffb72e"/>
              <g id="flame" transform="translate(1.069 5.766)">
                <path id="Path_26956" data-name="Path 26956" d="M5.28,5.616C5.342,2.517,4.1,0,2.64,0S0,2.514,0,5.616A20.721,20.721,0,0,0,.3,9.507,3.783,3.783,0,0,1,.832,7.764a2.594,2.594,0,0,0,.559-.852,10.528,10.528,0,0,0,1.164,7.25,5.284,5.284,0,0,1,.233-2.456,5.215,5.215,0,0,0,.549-2.733,3.915,3.915,0,0,1,.326,2.258s.605-.792.577-4.813c0,0,.68.1.447,2.535A7.322,7.322,0,0,0,5.28,5.616Z" transform="translate(0)" fill="#ffd83b"/>
              </g>
              <g id="flame-2" data-name="flame" transform="translate(2.67 7.063)">
                <path id="Path_26957" data-name="Path 26957" d="M2.221,2.006C2.247.9,1.724,0,1.111,0S0,.9,0,2.006A6.309,6.309,0,0,0,.127,3.4,1.2,1.2,0,0,1,.35,2.774a.916.916,0,0,0,.235-.3,3.258,3.258,0,0,0,.49,2.59,1.617,1.617,0,0,1,.1-.877A1.628,1.628,0,0,0,1.4,3.206a1.223,1.223,0,0,1,.137.807s.255-.283.243-1.719c0,0,.286.035.188.906A2.293,2.293,0,0,0,2.221,2.006Z" transform="translate(0 0)" fill="#fff1b4"/>
              </g>
            </g>
            <g id="rocket" transform="matrix(0.707, -0.707, 0.707, 0.707, 8.803, 46.911)">
              <g transform="matrix(0.91, 0.42, -0.42, 0.91, -9.62, -43.79)" filter="url(#Path_26850)">
                <path id="Path_26850-2" data-name="Path 26850" d="M7.063,28.381a1.069,1.069,0,0,0,.162-.042l.027-.009a1.114,1.114,0,0,0,.161-.07h.006l.024-.015c.022-.013.045-.027.066-.042l.043-.032c.014-.01.031-.024.047-.037l.054-.05.024-.022.015-.022h0C24.429,10.918,22.145,1.313,22.039.912A1.2,1.2,0,0,0,20.6.031a1.168,1.168,0,0,0-.825,1.448c0,.019-17.583,14.91-17.583,14.91a1.179,1.179,0,0,0-1.6-.489,1.193,1.193,0,0,0-.435,1.623L5.8,27.743h0l.013.022s.006.009.009.013a1.169,1.169,0,0,0,.07.109c.008.011.015.022.024.033a1.268,1.268,0,0,0,.087.1l.01.011.008.008a1.185,1.185,0,0,0,.121.1l.031.024a1.244,1.244,0,0,0,.14.088l.019.009a1.176,1.176,0,0,0,.151.064l.014,0a1.128,1.128,0,0,0,.162.04l.032,0a1.145,1.145,0,0,0,.163.013h.024a1.136,1.136,0,0,0,.152-.013Z" transform="translate(67.18 60.49) rotate(-25)" fill="#41d494"/>
              </g>
              <g transform="matrix(0.91, 0.42, -0.42, 0.91, -9.62, -43.79)" filter="url(#Path_26851)">
                <path id="Path_26851-2" data-name="Path 26851" d="M12.228,22.092a1.233,1.233,0,0,0-.477-1.635S26.328,2.476,26.349,2.482l-.015,0L26.886.164C26.5.056,17.1-2.275.35,14.835h0l-.017.017-.022.024c-.008.008-.033.036-.048.055s-.024.031-.036.048L.2,15.023a.759.759,0,0,0-.041.07c0,.008-.01.016-.015.024v.006a1.15,1.15,0,0,0-.07.164l-.01.029a1.158,1.158,0,0,0-.041.165.081.081,0,0,1,0,.029A1.176,1.176,0,0,0,0,15.66v.027a1.216,1.216,0,0,0,.013.166.08.08,0,0,0,0,.034,1.252,1.252,0,0,0,.039.166l0,.015a1.236,1.236,0,0,0,.062.154l.009.019a1.241,1.241,0,0,0,.086.145l.023.032a1.3,1.3,0,0,0,.107.125l.007.008.011.01a1.29,1.29,0,0,0,.1.089l.032.024a1.118,1.118,0,0,0,.107.07l.013.009.022.013h0l10,5.766a1.14,1.14,0,0,0,1.588-.438Z" transform="translate(35.2 52.72) rotate(-25)" fill="#2ebc7d"/>
              </g>
              <g transform="matrix(0.91, 0.42, -0.42, 0.91, -9.62, -43.79)" filter="url(#Path_26852)">
                <path id="Path_26852-2" data-name="Path 26852" d="M.355,47.353A1.235,1.235,0,0,1,.07,46.077C3.053,37.784,14.682,23,21.576,15.947,32.6,4.68,44.45-.523,57.818.041A1.224,1.224,0,0,1,58.971,1.22C59.531,14.881,54.441,27,43.421,38.266c-6.9,7.051-21.362,18.939-29.474,21.99a1.172,1.172,0,0,1-1.249-.29Z" transform="translate(33.87 32.53) rotate(-25)" fill="#41d494"/>
              </g>
              <path id="Path_26853" data-name="Path 26853" d="M58.616,1.217A1.224,1.224,0,0,0,57.462.038C56.734.008,56.011,0,55.293,0,55.237,12.76,50.124,24.175,39.7,34.828c-6.894,7.049-21.358,18.939-29.47,21.99a1.171,1.171,0,0,1-1.248-.289L0,47.349H0L12.344,59.961a1.172,1.172,0,0,0,1.249.29c8.113-3.05,22.576-14.938,29.474-21.988C54.085,27,59.172,14.879,58.616,1.217Z" transform="translate(7.681 0.008)" fill="#2ebc7d"/>
              <path id="Path_26854" data-name="Path 26854" d="M2.617,0A36.192,36.192,0,0,0,.07,5.335,1.235,1.235,0,0,0,.354,6.61L12.7,19.226a1.172,1.172,0,0,0,1.248.29,34.74,34.74,0,0,0,5.218-2.6Z" transform="translate(7.328 40.747)" fill="#576574"/>
              <g id="Group_14669" data-name="Group 14669" transform="translate(8.533 47.051)">
                <path id="Path_26855" data-name="Path 26855" d="M2.476.362A1.155,1.155,0,0,0,.818.34L0,1.176,1.678,2.893,2.5,2.054A1.218,1.218,0,0,0,2.476.362Z" transform="translate(4.481 4.579)" fill="#222f3e"/>
                <path id="Path_26856" data-name="Path 26856" d="M2.476.362A1.155,1.155,0,0,0,.818.34L0,1.176,1.678,2.893,2.5,2.055A1.217,1.217,0,0,0,2.476.362Z" transform="translate(0 0)" fill="#222f3e"/>
              </g>
              <g id="Group_14670" data-name="Group 14670" transform="translate(27.105 15.541)">
                <path id="Path_26857" data-name="Path 26857" d="M1.656,9.5h0A5.767,5.767,0,0,1,0,5.524,5.477,5.477,0,0,1,1.553,1.59,5.239,5.239,0,0,1,5.4,0a5.523,5.523,0,0,1,3.891,1.69,5.77,5.77,0,0,1,1.654,3.973A5.475,5.475,0,0,1,9.395,9.6a5.4,5.4,0,0,1-7.739-.1Z" transform="translate(0 13.383)" fill="#5c5c5c" stroke="#fff" stroke-width="1"/>
                <path id="Path_26858" data-name="Path 26858" d="M1.651,9.494h0a5.689,5.689,0,0,1-.1-7.91,5.4,5.4,0,0,1,7.739.1,5.769,5.769,0,0,1,1.655,3.976A5.477,5.477,0,0,1,9.391,9.6a5.4,5.4,0,0,1-7.739-.1Z" transform="translate(13.098 0)" fill="#5c5c5c" stroke="#fff" stroke-width="1"/>
              </g>
              <path id="Path_26859" data-name="Path 26859" d="M13.592.046A42.594,42.594,0,0,0,0,1.613L13.213,15.118A45.38,45.38,0,0,0,14.745,1.225,1.224,1.224,0,0,0,13.592.046Z" transform="translate(51.552 0)" fill="#50b587"/>
              <path id="Path_26860" data-name="Path 26860" d="M14.045,12.724c.086-.034.172-.07.259-.107l.113-.047.308-.134.058-.025q.18-.08.361-.164l.128-.059.25-.118L15.67,12l.257-.126.132-.065.358-.182.181-.094.206-.108.2-.108.189-.1.213-.116.083-.046q.255-.14.515-.288l.14-.08.261-.15.129-.075.275-.161L15.451,6.864a34.74,34.74,0,0,1-5.218,2.6,1.171,1.171,0,0,1-1.248-.289L0,0H0L12.344,12.612a1.172,1.172,0,0,0,1.249.29l.35-.135Z" transform="translate(7.682 47.358)" fill="#222f3e"/>
              <path id="Path_26861" data-name="Path 26861" d="M1.567,0A44.884,44.884,0,0,1,0,11.675L3.361,15.11q.106-.385.2-.769l.041-.166q.28-1.135.505-2.283.027-.14.053-.28c.043-.231.085-.461.124-.694.015-.089.029-.18.043-.269q.1-.582.175-1.168c.02-.15.041-.3.06-.449q.036-.286.07-.573c.022-.187.041-.375.06-.559s.039-.392.057-.589q.038-.433.07-.868c.01-.145.018-.292.027-.438q.021-.361.037-.724c.006-.126.011-.252.016-.378q.019-.531.026-1.065V2.682c0-.108,0-.217,0-.326-.007-.376-.016-.754-.031-1.133A1.224,1.224,0,0,0,3.736.038C3.006.008,2.285,0,1.567,0Z" transform="translate(61.407 0.008)" fill="url(#linear-gradient-3)"/>
            </g>
            <path id="Path_26958" data-name="Path 26958" d="M35.406,11.273c0,2.278,5.664.959,7.438-.325.915-.662,1.023-4.138-.148-6.85a6.614,6.614,0,0,0-4.534-4c-2.578-.566-6.386,1.44-6.8,1.2-4.558-2.883-9.126-.054-10.181.815A7.912,7.912,0,0,0,16.523.651c-3.906,0-7.081,2.644-7.081,5.9v.083a9.579,9.579,0,0,0-1.18-.083C3.694,6.552,0,9.727,0,13.633s3.694,7.081,8.261,7.081a8.834,8.834,0,0,0,6.4-2.6,7.406,7.406,0,0,0,1.865.236,7.23,7.23,0,0,0,2.809-.566l.012.047a6.094,6.094,0,0,0,5.441,2.88c3.257,0,5.9-2.113,5.9-4.721a.26.26,0,0,0-.012-.094H30.7c2.691-.437,4.709-2.349,4.709-4.626Z" transform="matrix(0.985, 0.174, -0.174, 0.985, 3.597, 113.915)" fill="#fff"/>
            <g transform="matrix(0.94, -0.34, 0.34, 0.94, -28.97, 22.75)" filter="url(#Path_26959)">
              <path id="Path_26959-2" data-name="Path 26959" d="M35.406,11.273c0,2.278,5.664.959,7.438-.325.915-.662,1.023-4.138-.148-6.85a6.614,6.614,0,0,0-4.534-4c-2.578-.566-6.386,1.44-6.8,1.2-4.558-2.883-9.126-.054-10.181.815A7.912,7.912,0,0,0,16.523.651c-3.906,0-7.081,2.644-7.081,5.9v.083a9.579,9.579,0,0,0-1.18-.083C3.694,6.552,0,9.727,0,13.633s3.694,7.081,8.261,7.081a8.834,8.834,0,0,0,6.4-2.6,7.406,7.406,0,0,0,1.865.236,7.23,7.23,0,0,0,2.809-.566l.012.047a6.094,6.094,0,0,0,5.441,2.88c3.257,0,5.9-2.113,5.9-4.721a.26.26,0,0,0-.012-.094H30.7c2.691-.437,4.709-2.349,4.709-4.626Z" transform="translate(62.21 114.94) rotate(30)" fill="#fff"/>
            </g>
            <g transform="matrix(0.94, -0.34, 0.34, 0.94, -28.97, 22.75)" filter="url(#Path_26960)">
              <path id="Path_26960-2" data-name="Path 26960" d="M35.406,11.273c0,2.278,5.664.959,7.438-.325.915-.662,1.023-4.138-.148-6.85a6.614,6.614,0,0,0-4.534-4c-2.578-.566-6.386,1.44-6.8,1.2-4.558-2.883-9.126-.054-10.181.815A7.912,7.912,0,0,0,16.523.651c-3.906,0-7.081,2.644-7.081,5.9v.083a9.579,9.579,0,0,0-1.18-.083C3.694,6.552,0,9.727,0,13.633s3.694,7.081,8.261,7.081a8.834,8.834,0,0,0,6.4-2.6,7.406,7.406,0,0,0,1.865.236,7.23,7.23,0,0,0,2.809-.566l.012.047a6.094,6.094,0,0,0,5.441,2.88c3.257,0,5.9-2.113,5.9-4.721a.26.26,0,0,0-.012-.094H30.7c2.691-.437,4.709-2.349,4.709-4.626Z" transform="translate(61.77 123.54) rotate(30)" fill="#fff"/>
            </g>
            <g transform="matrix(0.94, -0.34, 0.34, 0.94, -28.97, 22.75)" filter="url(#Path_26961)">
              <path id="Path_26961-2" data-name="Path 26961" d="M30.767,9.8c0,1.979,4.922.833,6.463-.282.8-.576.889-3.6-.128-5.953A5.747,5.747,0,0,0,33.163.088c-2.24-.491-5.55,1.252-5.907,1.042-3.961-2.505-7.93-.047-8.847.708A6.875,6.875,0,0,0,14.358.566C10.963.566,8.2,2.863,8.2,5.694v.072a8.324,8.324,0,0,0-1.026-.072C3.21,5.694,0,8.453,0,11.847S3.21,18,7.179,18a7.677,7.677,0,0,0,5.559-2.256,6.435,6.435,0,0,0,1.62.205,6.283,6.283,0,0,0,2.441-.492l.01.041A5.3,5.3,0,0,0,21.537,18c2.831,0,5.128-1.836,5.128-4.1a.226.226,0,0,0-.01-.082h.021c2.338-.379,4.092-2.041,4.092-4.02Z" transform="translate(27.93 115.39) rotate(30)" fill="#fff"/>
            </g>
          </g>
          <g transform="matrix(0.94, -0.34, 0.34, 0.94, -28.97, 22.75)" filter="url(#Path_26962)">
            <path id="Path_26962-2" data-name="Path 26962" d="M30.767,9.8c0,1.979,4.922.833,6.463-.282.8-.576.889-3.6-.128-5.953A5.747,5.747,0,0,0,33.163.088c-2.24-.491-5.55,1.252-5.907,1.042-3.961-2.505-7.93-.047-8.847.708A6.875,6.875,0,0,0,14.358.566C10.963.566,8.2,2.863,8.2,5.694v.072a8.324,8.324,0,0,0-1.026-.072C3.21,5.694,0,8.453,0,11.847S3.21,18,7.179,18a7.677,7.677,0,0,0,5.559-2.256,6.435,6.435,0,0,0,1.62.205,6.283,6.283,0,0,0,2.441-.492l.01.041A5.3,5.3,0,0,0,21.537,18c2.831,0,5.128-1.836,5.128-4.1a.226.226,0,0,0-.01-.082h.021c2.338-.379,4.092-2.041,4.092-4.02Z" transform="translate(19.5 101.54) rotate(30)" fill="#fff"/>
          </g>
        </g>
      </g>
    </g>
  </g>
</svg>
