<svg xmlns="http://www.w3.org/2000/svg" xmlns:xlink="http://www.w3.org/1999/xlink" width="42" height="42" viewBox="0 0 42 42">
  <defs>
    <linearGradient id="linear-gradient" x1="1" y1="0.615" x2="0" y2="0.577" gradientUnits="objectBoundingBox">
      <stop offset="0" stop-color="#1da2f7"/>
      <stop offset="1" stop-color="#1d62f1"/>
    </linearGradient>
    <clipPath id="clip-path">
      <circle id="Ellipse_649" data-name="Ellipse 649" cx="21" cy="21" r="21" fill="url(#linear-gradient)"/>
    </clipPath>
    <filter id="Path_26953" x="-2.74" y="23.153" width="34.095" height="31.297" filterUnits="userSpaceOnUse">
      <feOffset dx="4" dy="3" input="SourceAlpha"/>
      <feGaussianBlur stdDeviation="3" result="blur"/>
      <feFlood flood-color="#e3f2ff" flood-opacity="0.161"/>
      <feComposite operator="in" in2="blur"/>
      <feComposite in="SourceGraphic"/>
    </filter>
    <filter id="Path_26954" x="5.264" y="27.973" width="34.095" height="31.297" filterUnits="userSpaceOnUse">
      <feOffset dy="3" input="SourceAlpha"/>
      <feGaussianBlur stdDeviation="3" result="blur-2"/>
      <feFlood flood-color="#0089ff" flood-opacity="0.161"/>
      <feComposite operator="in" in2="blur-2"/>
      <feComposite in="SourceGraphic"/>
    </filter>
    <filter id="Path_26955" x="5.015" y="31.366" width="31.987" height="29.555" filterUnits="userSpaceOnUse">
      <feOffset dy="3" input="SourceAlpha"/>
      <feGaussianBlur stdDeviation="3" result="blur-3"/>
      <feFlood flood-color="#e3f2ff" flood-opacity="0.161"/>
      <feComposite operator="in" in2="blur-3"/>
      <feComposite in="SourceGraphic"/>
    </filter>
    <filter id="Path_26850" x="13.493" y="11.111" width="28.754" height="29.757" filterUnits="userSpaceOnUse">
      <feOffset dy="3" input="SourceAlpha"/>
      <feGaussianBlur stdDeviation="3" result="blur-4"/>
      <feFlood flood-color="#fff" flood-opacity="0.161"/>
      <feComposite operator="in" in2="blur-4"/>
      <feComposite in="SourceGraphic"/>
    </filter>
    <filter id="Path_26851" x="2.785" y="7.845" width="29.369" height="28.689" filterUnits="userSpaceOnUse">
      <feOffset dy="3" input="SourceAlpha"/>
      <feGaussianBlur stdDeviation="3" result="blur-5"/>
      <feFlood flood-color="#fff" flood-opacity="0.161"/>
      <feComposite operator="in" in2="blur-5"/>
      <feComposite in="SourceGraphic"/>
    </filter>
    <filter id="Path_26852" x="2.34" y="-3.458" width="44.442" height="44.655" filterUnits="userSpaceOnUse">
      <feOffset dy="3" input="SourceAlpha"/>
      <feGaussianBlur stdDeviation="3" result="blur-6"/>
      <feFlood flood-color="#fff" flood-opacity="0.161"/>
      <feComposite operator="in" in2="blur-6"/>
      <feComposite in="SourceGraphic"/>
    </filter>
    <linearGradient id="linear-gradient-3" x1="0.5" x2="0.5" y2="1" gradientUnits="objectBoundingBox">
      <stop offset="0" stop-color="#47c38c"/>
      <stop offset="1" stop-color="#1ab772"/>
    </linearGradient>
    <filter id="Path_26959" x="8.359" y="32.483" width="34.095" height="31.297" filterUnits="userSpaceOnUse">
      <feOffset dy="3" input="SourceAlpha"/>
      <feGaussianBlur stdDeviation="3" result="blur-7"/>
      <feFlood flood-opacity="0.161"/>
      <feComposite operator="in" in2="blur-7"/>
      <feComposite in="SourceGraphic"/>
    </filter>
    <filter id="Path_26960" x="8.213" y="35.362" width="34.095" height="31.297" filterUnits="userSpaceOnUse">
      <feOffset dy="3" input="SourceAlpha"/>
      <feGaussianBlur stdDeviation="3" result="blur-8"/>
      <feFlood flood-opacity="0.161"/>
      <feComposite operator="in" in2="blur-8"/>
      <feComposite in="SourceGraphic"/>
    </filter>
    <filter id="Path_26961" x="-2.663" y="32.632" width="31.987" height="29.555" filterUnits="userSpaceOnUse">
      <feOffset dy="3" input="SourceAlpha"/>
      <feGaussianBlur stdDeviation="3" result="blur-9"/>
      <feFlood flood-color="#3cafd1" flood-opacity="0.161"/>
      <feComposite operator="in" in2="blur-9"/>
      <feComposite in="SourceGraphic"/>
    </filter>
    <filter id="Path_26962" x="-5.486" y="27.995" width="31.987" height="29.555" filterUnits="userSpaceOnUse">
      <feOffset dy="3" input="SourceAlpha"/>
      <feGaussianBlur stdDeviation="3" result="blur-10"/>
      <feFlood flood-color="#98bfe0" flood-opacity="0.161"/>
      <feComposite operator="in" in2="blur-10"/>
      <feComposite in="SourceGraphic"/>
    </filter>
  </defs>
  <g id="Group_14894" data-name="Group 14894" transform="translate(-66 -396.399)">
    <circle id="Ellipse_648" data-name="Ellipse 648" cx="21" cy="21" r="21" transform="translate(66 396.399)" fill="url(#linear-gradient)"/>
    <g id="Mask_Group_96" data-name="Mask Group 96" transform="translate(66 396.399)" clip-path="url(#clip-path)">
      <g id="Group_14890" data-name="Group 14890" transform="matrix(0.94, 0.342, -0.342, 0.94, 11.719, -3.84)">
        <g id="Group_14886" data-name="Group 14886" transform="translate(0 0)">
          <g id="Group_14885" data-name="Group 14885" transform="translate(0 0)">
            <path id="Path_26950" data-name="Path 26950" d="M0,0H1.363L.989,17.015H.255Z" transform="matrix(-0.985, 0.174, -0.174, -0.985, 23.315, 41.323)" fill="#fff" opacity="0.407"/>
            <path id="Path_26951" data-name="Path 26951" d="M0,14.357H5.732L4.207.234,1.338,0Z" transform="translate(16.096 24.803)" fill="#fff"/>
            <path id="Path_26952" data-name="Path 26952" d="M0,16.029H1.959L1.422,0H.367Z" transform="matrix(0.985, 0.174, -0.174, 0.985, 17.089, 25.538)" fill="#fff" opacity="0.407"/>
            <g transform="matrix(0.94, -0.34, 0.34, 0.94, -9.7, 7.62)" filter="url(#Path_26953)">
              <path id="Path_26953-2" data-name="Path 26953" d="M11.854,3.774c0,.763,1.9.321,2.49-.109.306-.222.342-1.386-.049-2.293A2.214,2.214,0,0,0,12.777.034c-.863-.189-2.138.482-2.276.4A3.016,3.016,0,0,0,7.093.708,2.649,2.649,0,0,0,5.532.218,2.2,2.2,0,0,0,3.161,2.194v.028a3.207,3.207,0,0,0-.4-.028A2.591,2.591,0,0,0,0,4.564,2.591,2.591,0,0,0,2.766,6.935a2.958,2.958,0,0,0,2.142-.869,2.479,2.479,0,0,0,.624.079,2.421,2.421,0,0,0,.94-.19l0,.016A2.04,2.04,0,0,0,8.3,6.935a1.812,1.812,0,0,0,1.976-1.581.087.087,0,0,0,0-.032h.008a1.715,1.715,0,0,0,1.577-1.549Z" transform="translate(5.73 29.15) rotate(30)" fill="#fff"/>
            </g>
            <g transform="matrix(0.94, -0.34, 0.34, 0.94, -9.7, 7.62)" filter="url(#Path_26954)">
              <path id="Path_26954-2" data-name="Path 26954" d="M11.854,3.774c0,.763,1.9.321,2.49-.109.306-.222.342-1.386-.049-2.293A2.214,2.214,0,0,0,12.777.034c-.863-.189-2.138.482-2.276.4A3.016,3.016,0,0,0,7.093.708,2.649,2.649,0,0,0,5.532.218,2.2,2.2,0,0,0,3.161,2.194v.028a3.207,3.207,0,0,0-.4-.028A2.591,2.591,0,0,0,0,4.564,2.591,2.591,0,0,0,2.766,6.935a2.958,2.958,0,0,0,2.142-.869,2.479,2.479,0,0,0,.624.079,2.421,2.421,0,0,0,.94-.19l0,.016A2.04,2.04,0,0,0,8.3,6.935a1.812,1.812,0,0,0,1.976-1.581.087.087,0,0,0,0-.032h.008a1.715,1.715,0,0,0,1.577-1.549Z" transform="translate(17.73 33.97) rotate(30)" fill="#fff"/>
            </g>
            <g transform="matrix(0.94, -0.34, 0.34, 0.94, -9.7, 7.62)" filter="url(#Path_26955)">
              <path id="Path_26955-2" data-name="Path 26955" d="M10.3,3.28c0,.663,1.648.279,2.164-.094.266-.193.3-1.2-.043-1.993A1.924,1.924,0,0,0,11.1.029c-.75-.165-1.858.419-1.978.349A2.621,2.621,0,0,0,6.163.615,2.3,2.3,0,0,0,4.807.189a1.913,1.913,0,0,0-2.06,1.717V1.93A2.787,2.787,0,0,0,2.4,1.906,2.252,2.252,0,0,0,0,3.966a2.252,2.252,0,0,0,2.4,2.06,2.57,2.57,0,0,0,1.861-.755,2.155,2.155,0,0,0,.543.069,2.1,2.1,0,0,0,.817-.165l0,.014a1.773,1.773,0,0,0,1.583.838A1.574,1.574,0,0,0,8.927,4.653a.076.076,0,0,0,0-.027h.007A1.49,1.49,0,0,0,10.3,3.28Z" transform="translate(17.03 37.37) rotate(30)" fill="#fff"/>
            </g>
            <g id="Group_14884" data-name="Group 14884" transform="translate(17.628 22.558)">
              <path id="Tracé_21256" data-name="Tracé 21256" d="M2.387,2.389C2.387,1.072,1.86,0,1.2,0S.011,1.074.011,2.389A19.039,19.039,0,0,0,.265,6.533,5.657,5.657,0,0,0,1.2,8.493,6.092,6.092,0,0,0,2.09,6.377,20.822,20.822,0,0,0,2.387,2.389Z" transform="translate(0 0)" fill="#ffb72e"/>
              <g id="flame" transform="translate(0.358 1.93)">
                <path id="Path_26956" data-name="Path 26956" d="M1.768,1.88C1.788.843,1.372,0,.884,0S0,.842,0,1.88a6.937,6.937,0,0,0,.1,1.3A1.266,1.266,0,0,1,.278,2.6a.868.868,0,0,0,.187-.285,3.525,3.525,0,0,0,.39,2.427,1.769,1.769,0,0,1,.078-.822A1.746,1.746,0,0,0,1.117,3a1.311,1.311,0,0,1,.109.756s.2-.265.193-1.611c0,0,.228.033.15.849A2.452,2.452,0,0,0,1.768,1.88Z" transform="translate(0 0)" fill="#ffd83b"/>
              </g>
              <g id="flame-2" data-name="flame" transform="translate(0.894 2.365)">
                <path id="Path_26957" data-name="Path 26957" d="M.744.672C.752.3.577,0,.372,0S0,.3,0,.672a2.112,2.112,0,0,0,.042.465A.4.4,0,0,1,.117.929.307.307,0,0,0,.2.827a1.091,1.091,0,0,0,.164.867A.541.541,0,0,1,.393,1.4.545.545,0,0,0,.47,1.073a.409.409,0,0,1,.046.27S.6,1.249.6.768c0,0,.1.012.063.3A.768.768,0,0,0,.744.672Z" transform="translate(0 0)" fill="#fff1b4"/>
              </g>
            </g>
            <g id="rocket" transform="matrix(0.707, -0.707, 0.707, 0.707, 2.947, 15.706)">
              <g transform="matrix(0.91, 0.42, -0.42, 0.91, -3.22, -14.66)" filter="url(#Path_26850)">
                <path id="Path_26850-2" data-name="Path 26850" d="M2.365,9.5a.358.358,0,0,0,.054-.014l.009,0a.373.373,0,0,0,.054-.023h0l.008,0,.022-.014.015-.011.016-.012L2.562,9.4,2.57,9.4l.005-.007h0C8.179,3.655,7.414.44,7.379.305A.4.4,0,0,0,6.9.01.391.391,0,0,0,6.621.5C6.623.5.734,5.487.734,5.487A.395.395,0,0,0,.2,5.323a.4.4,0,0,0-.146.543L1.943,9.288h0l0,.007s0,0,0,0a.391.391,0,0,0,.023.037l.008.011a.425.425,0,0,0,.029.034l0,0,0,0a.4.4,0,0,0,.04.035l.011.008a.416.416,0,0,0,.047.029l.006,0a.394.394,0,0,0,.051.021l0,0a.378.378,0,0,0,.054.013l.011,0a.383.383,0,0,0,.055,0H2.3a.38.38,0,0,0,.051,0Z" transform="translate(22.49 20.25) rotate(-25)" fill="#41d494"/>
              </g>
              <g transform="matrix(0.91, 0.42, -0.42, 0.91, -3.22, -14.66)" filter="url(#Path_26851)">
                <path id="Path_26851-2" data-name="Path 26851" d="M4.094,7.4a.413.413,0,0,0-.16-.547S8.814.829,8.821.831H8.816L9,.055C8.871.019,5.724-.762.117,4.967h0l-.006.006L.1,4.981.088,5l-.012.016L.066,5.03a.254.254,0,0,0-.014.023l0,.008v0a.385.385,0,0,0-.023.055l0,.01a.388.388,0,0,0-.014.055.027.027,0,0,1,0,.01A.394.394,0,0,0,0,5.243v.009a.407.407,0,0,0,0,.055.027.027,0,0,0,0,.011.419.419,0,0,0,.013.055l0,0a.414.414,0,0,0,.021.051l0,.006a.416.416,0,0,0,.029.048L.081,5.5a.435.435,0,0,0,.036.042l0,0,0,0a.432.432,0,0,0,.033.03l.011.008L.2,5.605l0,0,.007,0h0L3.562,7.543A.382.382,0,0,0,4.094,7.4Z" transform="translate(11.78 17.65) rotate(-25)" fill="#2ebc7d"/>
              </g>
              <g transform="matrix(0.91, 0.42, -0.42, 0.91, -3.22, -14.66)" filter="url(#Path_26852)">
                <path id="Path_26852-2" data-name="Path 26852" d="M.119,15.854a.414.414,0,0,1-.1-.427c1-2.776,4.892-7.727,7.2-10.088C10.913,1.567,14.882-.175,19.357.014a.41.41,0,0,1,.386.395c.187,4.574-1.517,8.631-5.206,12.4-2.31,2.361-7.152,6.341-9.868,7.362a.392.392,0,0,1-.418-.1Z" transform="translate(11.34 10.89) rotate(-25)" fill="#41d494"/>
              </g>
              <path id="Path_26853" data-name="Path 26853" d="M19.624.408a.41.41,0,0,0-.386-.395C18.994,0,18.752,0,18.512,0c-.019,4.272-1.73,8.094-5.22,11.66-2.308,2.36-7.15,6.341-9.867,7.362a.392.392,0,0,1-.418-.1L0,15.852H0l4.133,4.223a.392.392,0,0,0,.418.1c2.716-1.021,7.558-5,9.868-7.362C18.108,9.038,19.811,4.981,19.624.408Z" transform="translate(2.571 0.003)" fill="#2ebc7d"/>
              <path id="Path_26854" data-name="Path 26854" d="M.876,0A12.117,12.117,0,0,0,.023,1.786a.414.414,0,0,0,.1.427L4.251,6.437a.393.393,0,0,0,.418.1,11.631,11.631,0,0,0,1.747-.872Z" transform="translate(2.453 13.642)" fill="#576574"/>
              <g id="Group_14669" data-name="Group 14669" transform="translate(2.857 15.752)">
                <path id="Path_26855" data-name="Path 26855" d="M.829.121A.387.387,0,0,0,.274.114L0,.394.562.968.836.688A.408.408,0,0,0,.829.121Z" transform="translate(1.5 1.533)" fill="#222f3e"/>
                <path id="Path_26856" data-name="Path 26856" d="M.829.121A.387.387,0,0,0,.274.114L0,.394.562.969.836.688A.408.408,0,0,0,.829.121Z" transform="translate(0 0)" fill="#222f3e"/>
              </g>
              <g id="Group_14670" data-name="Group 14670" transform="translate(9.075 5.203)">
                <path id="Path_26857" data-name="Path 26857" d="M.554,3.18h0A1.931,1.931,0,0,1,0,1.849,1.834,1.834,0,0,1,.52.532,1.754,1.754,0,0,1,1.809,0a1.849,1.849,0,0,1,1.3.566A1.932,1.932,0,0,1,3.665,1.9a1.833,1.833,0,0,1-.52,1.317A1.807,1.807,0,0,1,.554,3.179Z" transform="translate(0 4.481)" fill="#5c5c5c" stroke="#fff" stroke-width="1"/>
                <path id="Path_26858" data-name="Path 26858" d="M.553,3.179h0A1.9,1.9,0,0,1,.519.53,1.807,1.807,0,0,1,3.11.565,1.932,1.932,0,0,1,3.664,1.9a1.834,1.834,0,0,1-.52,1.317A1.807,1.807,0,0,1,.553,3.179Z" transform="translate(4.385 0)" fill="#5c5c5c" stroke="#fff" stroke-width="1"/>
              </g>
              <path id="Path_26859" data-name="Path 26859" d="M4.55.015A14.26,14.26,0,0,0,0,.54L4.424,5.061A15.193,15.193,0,0,0,4.937.41.41.41,0,0,0,4.55.015Z" transform="translate(17.259 0)" fill="#50b587"/>
              <path id="Path_26860" data-name="Path 26860" d="M4.7,4.26l.087-.036.038-.016.1-.045.019-.008L5.07,4.1l.043-.02.084-.04.049-.023.086-.042.044-.022.12-.061.061-.032.069-.036.068-.036.063-.034.071-.039L5.856,3.7l.172-.1.047-.027.087-.05L6.205,3.5,6.3,3.448,5.173,2.3a11.631,11.631,0,0,1-1.747.872.392.392,0,0,1-.418-.1L0,0H0L4.133,4.223a.392.392,0,0,0,.418.1l.117-.045Z" transform="translate(2.572 15.855)" fill="#222f3e"/>
              <path id="Path_26861" data-name="Path 26861" d="M.525,0A15.027,15.027,0,0,1,0,3.909l1.125,1.15q.035-.129.068-.257l.014-.056q.094-.38.169-.764l.018-.094c.015-.077.029-.154.042-.232.005-.03.01-.06.015-.09q.032-.195.059-.391c.007-.05.014-.1.02-.15s.016-.128.023-.192.014-.125.02-.187.013-.131.019-.2q.013-.145.023-.291c0-.049.006-.1.009-.147q.007-.121.012-.242c0-.042,0-.084.005-.126q.006-.178.009-.356V.9c0-.036,0-.073,0-.109,0-.126-.005-.252-.011-.379a.41.41,0,0,0-.388-.4C1.006,0,.765,0,.525,0Z" transform="translate(20.559 0.003)" fill="url(#linear-gradient-3)"/>
            </g>
            <path id="Path_26958" data-name="Path 26958" d="M11.854,3.774c0,.763,1.9.321,2.49-.109.306-.222.342-1.386-.049-2.293A2.214,2.214,0,0,0,12.777.034c-.863-.189-2.138.482-2.276.4A3.016,3.016,0,0,0,7.093.708,2.649,2.649,0,0,0,5.532.218,2.2,2.2,0,0,0,3.161,2.194v.028a3.207,3.207,0,0,0-.4-.028A2.591,2.591,0,0,0,0,4.564,2.591,2.591,0,0,0,2.766,6.935a2.958,2.958,0,0,0,2.142-.869,2.479,2.479,0,0,0,.624.079,2.421,2.421,0,0,0,.94-.19l0,.016A2.04,2.04,0,0,0,8.3,6.935a1.812,1.812,0,0,0,1.976-1.581.087.087,0,0,0,0-.032h.008a1.715,1.715,0,0,0,1.577-1.549Z" transform="matrix(0.985, 0.174, -0.174, 0.985, 1.204, 38.138)" fill="#fff"/>
            <g transform="matrix(0.94, -0.34, 0.34, 0.94, -9.7, 7.62)" filter="url(#Path_26959)">
              <path id="Path_26959-2" data-name="Path 26959" d="M11.854,3.774c0,.763,1.9.321,2.49-.109.306-.222.342-1.386-.049-2.293A2.214,2.214,0,0,0,12.777.034c-.863-.189-2.138.482-2.276.4A3.016,3.016,0,0,0,7.093.708,2.649,2.649,0,0,0,5.532.218,2.2,2.2,0,0,0,3.161,2.194v.028a3.207,3.207,0,0,0-.4-.028A2.591,2.591,0,0,0,0,4.564,2.591,2.591,0,0,0,2.766,6.935a2.958,2.958,0,0,0,2.142-.869,2.479,2.479,0,0,0,.624.079,2.421,2.421,0,0,0,.94-.19l0,.016A2.04,2.04,0,0,0,8.3,6.935a1.812,1.812,0,0,0,1.976-1.581.087.087,0,0,0,0-.032h.008a1.715,1.715,0,0,0,1.577-1.549Z" transform="translate(20.83 38.48) rotate(30)" fill="#fff"/>
            </g>
            <g transform="matrix(0.94, -0.34, 0.34, 0.94, -9.7, 7.62)" filter="url(#Path_26960)">
              <path id="Path_26960-2" data-name="Path 26960" d="M11.854,3.774c0,.763,1.9.321,2.49-.109.306-.222.342-1.386-.049-2.293A2.214,2.214,0,0,0,12.777.034c-.863-.189-2.138.482-2.276.4A3.016,3.016,0,0,0,7.093.708,2.649,2.649,0,0,0,5.532.218,2.2,2.2,0,0,0,3.161,2.194v.028a3.207,3.207,0,0,0-.4-.028A2.591,2.591,0,0,0,0,4.564,2.591,2.591,0,0,0,2.766,6.935a2.958,2.958,0,0,0,2.142-.869,2.479,2.479,0,0,0,.624.079,2.421,2.421,0,0,0,.94-.19l0,.016A2.04,2.04,0,0,0,8.3,6.935a1.812,1.812,0,0,0,1.976-1.581.087.087,0,0,0,0-.032h.008a1.715,1.715,0,0,0,1.577-1.549Z" transform="translate(20.68 41.36) rotate(30)" fill="#fff"/>
            </g>
            <g transform="matrix(0.94, -0.34, 0.34, 0.94, -9.7, 7.62)" filter="url(#Path_26961)">
              <path id="Path_26961-2" data-name="Path 26961" d="M10.3,3.28c0,.663,1.648.279,2.164-.094.266-.193.3-1.2-.043-1.993A1.924,1.924,0,0,0,11.1.029c-.75-.165-1.858.419-1.978.349A2.621,2.621,0,0,0,6.163.615,2.3,2.3,0,0,0,4.807.189a1.913,1.913,0,0,0-2.06,1.717V1.93A2.787,2.787,0,0,0,2.4,1.906,2.252,2.252,0,0,0,0,3.966a2.252,2.252,0,0,0,2.4,2.06,2.57,2.57,0,0,0,1.861-.755,2.155,2.155,0,0,0,.543.069,2.1,2.1,0,0,0,.817-.165l0,.014a1.773,1.773,0,0,0,1.583.838A1.574,1.574,0,0,0,8.927,4.653a.076.076,0,0,0,0-.027h.007A1.49,1.49,0,0,0,10.3,3.28Z" transform="translate(9.35 38.63) rotate(30)" fill="#fff"/>
            </g>
          </g>
          <g transform="matrix(0.94, -0.34, 0.34, 0.94, -9.7, 7.62)" filter="url(#Path_26962)">
            <path id="Path_26962-2" data-name="Path 26962" d="M10.3,3.28c0,.663,1.648.279,2.164-.094.266-.193.3-1.2-.043-1.993A1.924,1.924,0,0,0,11.1.029c-.75-.165-1.858.419-1.978.349A2.621,2.621,0,0,0,6.163.615,2.3,2.3,0,0,0,4.807.189a1.913,1.913,0,0,0-2.06,1.717V1.93A2.787,2.787,0,0,0,2.4,1.906,2.252,2.252,0,0,0,0,3.966a2.252,2.252,0,0,0,2.4,2.06,2.57,2.57,0,0,0,1.861-.755,2.155,2.155,0,0,0,.543.069,2.1,2.1,0,0,0,.817-.165l0,.014a1.773,1.773,0,0,0,1.583.838A1.574,1.574,0,0,0,8.927,4.653a.076.076,0,0,0,0-.027h.007A1.49,1.49,0,0,0,10.3,3.28Z" transform="translate(6.53 34) rotate(30)" fill="#fff"/>
          </g>
        </g>
      </g>
    </g>
  </g>
</svg>
