<svg xmlns="http://www.w3.org/2000/svg" width="14.172" height="16.953" viewBox="0 0 14.172 16.953">
  <g id="deadline" transform="translate(-42)">
    <path id="Path_26917" data-name="Path 26917" d="M54.086,4.827l1.285-1.288a.5.5,0,1,0-.7-.7L53.335,4.175a7.039,7.039,0,0,0-3.753-1.4V1.646h.6a.823.823,0,0,0,0-1.646H47.989a.823.823,0,0,0,0,1.646h.6V2.771a7.039,7.039,0,0,0-3.753,1.4L43.5,2.838a.5.5,0,0,0-.7.7l1.285,1.288a7.086,7.086,0,1,0,10,0Zm-5,10.372a5.346,5.346,0,1,1,5.336-5.346A5.347,5.347,0,0,1,49.086,15.2Z" transform="translate(0 0)" fill="#1d62f1"/>
    <path id="Path_26918" data-name="Path 26918" d="M129.152,166.082a4.354,4.354,0,1,0,4.344,4.354A4.354,4.354,0,0,0,129.152,166.082Zm1.65,4.85h-1.65a.5.5,0,0,1-.5-.5v-2.363a.5.5,0,1,1,.992,0v1.867H130.8a.5.5,0,0,1,0,.992Z" transform="translate(-80.066 -160.583)" fill="#1d62f1"/>
  </g>
</svg>
