<svg xmlns="http://www.w3.org/2000/svg" width="25" height="25" viewBox="0 0 25 25">
  <g id="Group_14905" data-name="Group 14905" transform="translate(-38 -425)">
    <path id="Path_26905" data-name="Path 26905" d="M12.5,0A12.5,12.5,0,1,1,0,12.5,12.5,12.5,0,0,1,12.5,0Z" transform="translate(38 425)" fill="#b2a9e0" opacity="0.403"/>
    <g id="Group_14766" data-name="Group 14766" transform="translate(50.035 429.5) rotate(45)">
      <g id="Group_14766-2" data-name="Group 14766" transform="translate(0 -1)">
        <path id="Path_26892" data-name="Path 26892" d="M147.879,140.173h-3.948v-3.948a.987.987,0,0,0-1.974,0v3.948h-3.948a.987.987,0,0,0,0,1.974h3.948V146.1a.987.987,0,0,0,1.974,0v-3.948h3.948a.987.987,0,0,0,0-1.974Z" transform="translate(-137.022 -135.238)" fill="#8a7dd1"/>
      </g>
    </g>
  </g>
</svg>
