<svg xmlns="http://www.w3.org/2000/svg" xmlns:xlink="http://www.w3.org/1999/xlink" width="107" height="107" viewBox="0 0 107 107"><defs><style>.a{fill:#1746e4;opacity:0.252;}.b{fill:#ff5850;}.c{fill:url(#e);}.d{fill:#ffcf1b;}.e,.g{fill:#570e0e;opacity:0.6;}.e{mix-blend-mode:soft-light;}.e,.g,.i{isolation:isolate;}.f{fill:url(#f);}.g{mix-blend-mode:hard-light;}.h{fill:url(#h);}.i{filter:url(#c);mix-blend-mode:multiply;}</style><filter id="a" x="-332.001" y="-55.009" width="473" height="215" filterUnits="userSpaceOnUse"><feOffset dx="3" dy="3" input="SourceAlpha"/><feGaussianBlur stdDeviation="7.5" result="b"/><feFlood flood-color="#ff6e53" flood-opacity="0.302"/><feComposite operator="in" in2="b"/><feComposite in="SourceGraphic"/></filter><filter id="c" x="0" y="0" width="107" height="107" filterUnits="userSpaceOnUse"><feOffset input="SourceAlpha"/><feGaussianBlur stdDeviation="5.5" result="d"/><feFlood flood-color="#09277b"/><feComposite operator="in" in2="d"/><feComposite in="SourceGraphic"/></filter><linearGradient id="e" x1="1.499" y1="1.105" x2="0.819" y2="1.824" gradientUnits="objectBoundingBox"><stop offset="0" stop-color="#30e6f4"/><stop offset="1" stop-color="#1d60ba"/></linearGradient><linearGradient id="f" x1="1.34" y1="0.796" x2="1.34" y2="-0.204" gradientUnits="objectBoundingBox"><stop offset="0" stop-color="#5836ff"/><stop offset="1" stop-color="#2e11bf"/></linearGradient><linearGradient id="h" x1="0.5" y1="0.5" x2="0.5" y2="1" gradientUnits="objectBoundingBox"><stop offset="0" stop-color="#00c8fd"/><stop offset="1" stop-color="#0098ff"/></linearGradient></defs><g transform="translate(-40.5 -799.5)"><g class="i" transform="matrix(1, 0, 0, 1, 40.5, 799.5)"><path class="a" d="M37,0A37.029,37.029,0,1,0,67.463,16.021c-.5-.741-1.067-1.5-1.817-2.426-.542-.673-1.282-1.516-2.059-2.327A36.786,36.786,0,0,0,37,0Z" transform="translate(16.5 16.5)"/></g><g transform="translate(62 825)"><path class="b" d="M596.792,210.654h0a.866.866,0,0,1,.176,1.21l-2.686,3.6a.866.866,0,0,1-1.21.176h0a.865.865,0,0,1-.176-1.21l2.686-3.6A.863.863,0,0,1,596.792,210.654Z" transform="translate(-543.881 -210.481)"/><path class="c" d="M502.383,327.848c-2.938,2.433-10.487,8.147-13.968,5.548s.107-11.23,1.721-14.666a28.753,28.753,0,0,0,5.717,5.174A32.4,32.4,0,0,0,502.383,327.848Z" transform="translate(-474.667 -281.89)"/><path class="b" d="M527.725,245.813c-.052.18-.107.363-.159.543-.135.439-.276.885-.425,1.331-.152.467-.318.937-.494,1.41-.066.183-.135.366-.2.55-.076.211-.159.425-.242.636-.062.156-.124.314-.187.47-.069.187-.145.366-.225.55-.152.37-.308.736-.467,1.1-.076.183-.159.37-.242.55s-.166.366-.249.55-.166.366-.252.546-.166.366-.256.546-.173.363-.259.543a72.607,72.607,0,0,1-3.909,7.048c-.1.162-.2.321-.3.477q-.913,1.431-1.839,2.706c-.1.145-.2.283-.3.422-.135.18-.263.356-.4.532-.093.124-.183.245-.28.366-.18.235-.359.467-.543.688-.1.128-.2.249-.3.366-.149.183-.294.36-.446.532s-.3.346-.446.512c-.114.124-.225.249-.335.37-.18.194-.359.38-.536.56-.1.1-.19.194-.287.287s-.187.18-.28.27a9.226,9.226,0,0,1-3.007,2.088,8.738,8.738,0,0,1-6.229-.622,32.56,32.56,0,0,1-6.529-3.944,28.86,28.86,0,0,1-5.717-5.174,8.447,8.447,0,0,1-1.984-5.52c.121-3.36,3.57-8.855,8.4-14.1a6.624,6.624,0,1,0,8.956-8.088c.933-.684,1.87-1.331,2.81-1.922a133.02,133.02,0,0,0,12.229,9.429C524.621,243.705,526.329,244.877,527.725,245.813Z" transform="translate(-476.916 -225.21)"/><path class="d" d="M565.935,238.235s0,0-.007-.007c-1.4-.94-3.1-2.108-4.929-3.391a133.483,133.483,0,0,1-12.229-9.429c5.918-3.73,11.721-5.409,15.464-2.62a6.435,6.435,0,0,1,1.192,1.161h0C567.895,227.053,567.629,232.424,565.935,238.235Z" transform="translate(-515.119 -217.624)"/><path class="e" d="M542.312,263.664c-.052.18-.107.363-.159.543-.131.439-.273.885-.425,1.331-.152.467-.318.937-.494,1.41-.066.183-.135.366-.2.55-.076.211-.159.425-.242.636-.062.156-.124.315-.187.47-.069.187-.145.366-.225.55-.152.37-.308.736-.467,1.1-.076.183-.159.37-.242.55s-.166.366-.249.55-.166.366-.252.546-.166.366-.256.546-.173.363-.259.543a72.592,72.592,0,0,1-3.909,7.048c-.1.162-.2.321-.3.477q-.913,1.431-1.839,2.706c-.1.145-.2.283-.3.422-.135.18-.263.356-.4.532-.093.124-.183.245-.28.366-.18.235-.359.467-.543.688-.1.128-.2.249-.3.366-.149.183-.294.359-.446.532s-.3.342-.446.512c-.114.124-.225.249-.335.37-.18.194-.359.38-.536.56-.1.1-.19.194-.287.287s-.187.18-.28.27a9.227,9.227,0,0,1-3.007,2.088c-3.764,1.31-8.5-1.41-12.758-4.566,4.5,2.568,18.119-13.218,24.7-25.377C539.209,261.556,540.916,262.728,542.312,263.664Z" transform="translate(-491.504 -243.061)"/><path class="e" d="M584.15,237.469c2.879-5.33,4.411-9.962,3.228-12.049a6.488,6.488,0,0,1,1.2,1.165h0c2.454,3.094,2.195,8.441.5,14.279C587.682,239.923,585.975,238.752,584.15,237.469Z" transform="translate(-538.27 -220.256)"/><path class="b" d="M540.586,347.706a2.629,2.629,0,0,1-.612.135c-1.365.159-2.61-.705-3.66-1.469a5.819,5.819,0,0,1-2.558-3.211,3.338,3.338,0,0,1-.066-.6c-.024-3.19,9.17-11.434,12.111-9.236S544.042,346.521,540.586,347.706Z" transform="translate(-505.251 -290.623)"/><path class="f" d="M534.464,368.141c-.567.74-5.842,4.818-7.753,3.391s.684-7.532,1.224-8.261a2.5,2.5,0,0,1,.795-.781,5.819,5.819,0,0,0,2.558,3.211c1.054.764,2.295,1.628,3.66,1.469A2.118,2.118,0,0,1,534.464,368.141Z" transform="translate(-500.229 -309.949)"/><path class="b" d="M465.986,292.031a2.629,2.629,0,0,1-.612.135c-1.365.159-2.613-.709-3.66-1.469a5.854,5.854,0,0,1-2.561-3.211,3.12,3.12,0,0,1-.062-.6c-.021-3.19,9.174-11.431,12.115-9.236S469.442,290.849,465.986,292.031Z" transform="translate(-456.437 -254.19)"/><path class="f" d="M459.864,312.478c-.567.74-5.841,4.818-7.753,3.391s.684-7.532,1.224-8.261a2.445,2.445,0,0,1,.792-.778,5.866,5.866,0,0,0,2.561,3.211c1.051.764,2.3,1.628,3.66,1.469A2.168,2.168,0,0,1,459.864,312.478Z" transform="translate(-451.414 -273.527)"/><path class="g" d="M550.718,333.98c2.945,2.195-1.756,13.2-5.216,14.382-1.6.55-3.069-.46-4.272-1.334C543.788,348.673,552.54,335.763,550.718,333.98Z" transform="translate(-510.185 -291.293)"/><path class="g" d="M476.158,278.35c2.945,2.195-1.756,13.2-5.216,14.382-1.6.55-3.069-.46-4.272-1.334C469.231,293.043,477.98,280.133,476.158,278.35Z" transform="translate(-461.397 -254.891)"/><path class="h" d="M527.405,246.433a6.624,6.624,0,0,1-12.685.221,64.117,64.117,0,0,1,8.956-8.085A6.617,6.617,0,0,1,527.405,246.433Z" transform="translate(-492.838 -228.861)"/></g></g></svg>