<svg xmlns="http://www.w3.org/2000/svg" xmlns:xlink="http://www.w3.org/1999/xlink" width="153.4" height="153.4" viewBox="0 0 153.4 153.4">
  <defs>
    <clipPath id="clip-path">
      <circle id="Ellipse_648" data-name="Ellipse 648" cx="75.5" cy="75.5" r="75.5" transform="translate(0 0.173)" fill="#65b2fe"/>
    </clipPath>
    <clipPath id="clip-path-2">
      <path id="Path_26982" data-name="Path 26982" d="M75.7,0A75.7,75.7,0,1,1,0,75.7,75.7,75.7,0,0,1,75.7,0Z" fill="#65b2fe"/>
    </clipPath>
  </defs>
  <g id="Group_14784" data-name="Group 14784" transform="translate(5985 -15266)">
    <path id="Path_26980" data-name="Path 26980" d="M75.7,0A75.7,75.7,0,1,1,0,75.7,75.7,75.7,0,0,1,75.7,0Z" transform="translate(-5984 15267)" fill="#65b2fe" stroke="#65b2fe" stroke-width="2"/>
    <path id="Path_26981" data-name="Path 26981" d="M151.019,166.46A75.51,75.51,0,1,1,9.934,129a75.532,75.532,0,0,0,131.151,0A75.152,75.152,0,0,1,151.019,166.46Z" transform="translate(-5984 15176.431)" fill="#0e9ce7" stroke="#0e9ce7" stroke-width="2"/>
    <g id="Mask_Group_96" data-name="Mask Group 96" transform="translate(-5984 15267.772)" clip-path="url(#clip-path-2)">
      <g id="Groupe_10788" data-name="Groupe 10788" transform="translate(2.317 47.114)">
        <g id="Groupe_10778" data-name="Groupe 10778" transform="translate(0 0)">
          <g id="Groupe_10774" data-name="Groupe 10774" transform="translate(125.196 19.984)">
            <path id="Tracé_22528" data-name="Tracé 22528" d="M663.4,138.677a7.224,7.224,0,0,1,.5-.8,131.677,131.677,0,0,0,15.395.5c5.4-.189-3.185-19.082-6.012-24.691-.533-1.061-4.894-1.143-4.886-2.406s2.169-.377,2.169-.377-2.143-1.653-2.1-2.546,1.474-5.093,4.273-2.789,13.659,31.175,11.095,34.251c-1.97,2.358-14.225,2.412-19.812,2.307C663.555,141.042,662.889,139.635,663.4,138.677Z" transform="translate(-663.215 -104.889)" fill="#b8c4e0"/>
          </g>
          <g id="Groupe_10775" data-name="Groupe 10775" transform="translate(0 19.987)">
            <path id="Tracé_22528-2" data-name="Tracé 22528-2" d="M26.844,138.7a7.211,7.211,0,0,0-.5-.8,131.7,131.7,0,0,1-15.4.5c-5.4-.189,3.187-19.082,6.012-24.691.536-1.061,4.9-1.143,4.888-2.406s-2.169-.377-2.169-.377,2.143-1.653,2.1-2.546-1.478-5.093-4.279-2.789S3.844,136.762,6.409,139.838c1.968,2.358,14.224,2.412,19.812,2.307C26.689,141.06,27.352,139.655,26.844,138.7Z" transform="translate(-6.02 -104.909)" fill="#b8c4e0"/>
          </g>
          <g id="Groupe_10740" data-name="Groupe 10740" transform="translate(13.627)">
            <g id="Groupe_10740-2" data-name="Groupe 10740-2" transform="translate(0)">
              <g id="Groupe_10738" data-name="Groupe 10738">
                <g id="Groupe_34" data-name="Groupe 34">
                  <g id="Groupe_25" data-name="Groupe 25" transform="translate(34.755 68.743)">
                    <path id="Tracé_87" data-name="Tracé 87" d="M268.518,365.89s2.595,40.319,1.3,41.515-8.428.125-9.725,2.347,10.893,2.1,12.449.728,0-44.59,0-44.59Z" transform="translate(-259.994 -364.932)" fill="#b8c4e0"/>
                    <path id="Tracé_88" data-name="Tracé 88" d="M478.461,360.86s-2.595,40.321-1.3,41.517,8.426.124,9.725,2.346-10.893,2.1-12.449.73,0-44.592,0-44.592Z" transform="translate(-433.025 -360.86)" fill="#b8c4e0"/>
                  </g>
                  <g id="Groupe_27" data-name="Groupe 27">
                    <path id="Tracé_89" data-name="Tracé 89" d="M172.8,84.436c1.246.523,5.452,2.015,8.858-.164,4.044-2.591,4.044-5.659,4.044-5.659a11.789,11.789,0,0,0,11.811-2.751c5.663-5.176,3.073-15.5,3.073-15.5s5.307-2.759,4.692-8.443c-.994-9.184-10.354-9.714-10.354-9.714s2.912-6.955-2.263-11.811a15.2,15.2,0,0,0-11.971-3.721,5.347,5.347,0,0,0-1.943-5.976c-3.227-2.263-5.816-.913-5.816-.913s.556-7.356-6.138-9.862a13.717,13.717,0,0,0-11.826,1.393s-4.046-4.374-9.869-3.562a18.108,18.108,0,0,0-9.062,3.721,10.29,10.29,0,0,0-10.028-2.269,9.317,9.317,0,0,0-6.79,7.443s-10.391-2.9-16.047,4.214-2.916,13.075-2.916,13.075S90.906,32.665,88,41.559a15.725,15.725,0,0,0,2.425,14.883s-7.6,7.606-4.37,15.859,10.99,6.508,10.99,6.508a8.564,8.564,0,0,0,8.262,7.565c7.6.484,10.839-2.263,10.839-2.263s6.631,5.5,13.1,4.852,8.9-3.239,8.9-3.239,6.147,3.5,12.133,3.286,10.84-4.259,10.84-4.259a6.4,6.4,0,0,0,5.985,2.912C171.137,87.248,172.57,84.335,172.8,84.436Z" transform="translate(-83.784 -6.196)" fill="#f3f6fe"/>
                    <g id="Groupe_26" data-name="Groupe 26">
                      <path id="Tracé_90" data-name="Tracé 90" d="M200.5,45.564c-.762-7.025-6.1-9.925-9.9-10.752a11.819,11.819,0,0,0-3.157-11.67,16.356,16.356,0,0,0-11.175-4.231h-.08a6.508,6.508,0,0,0-2.819-5.607,8.132,8.132,0,0,0-4.456-1.674,9.535,9.535,0,0,0-.985-2.667,11.712,11.712,0,0,0-6.842-6.6,13.889,13.889,0,0,0-4.877-.88,15.311,15.311,0,0,0-4.785.792h-.04a3,3,0,0,0-.355.124l-.189.075h-.019a16.316,16.316,0,0,0-1.867.829A13.875,13.875,0,0,0,140.315,0a11.839,11.839,0,0,0-1.644.114,20.588,20.588,0,0,0-8.812,3.3A11.767,11.767,0,0,0,122.88,1.1a12.666,12.666,0,0,0-3.5.51,10.686,10.686,0,0,0-7.483,7.15c-3.189-.467-10.858-.821-15.737,5.307C92.9,18.16,92.1,21.634,92.094,24.04v.032a8.725,8.725,0,0,0,.1,1.509c-3.174.366-9.42,2.023-11.811,9.321a17.265,17.265,0,0,0,1.863,15.165c-.166.177-.267.3-.288.325a1.483,1.483,0,0,0-.267.538c-2.21,2.882-5.847,9.02-3.227,15.7,2.351,6,7,6.9,9.569,6.9a12.166,12.166,0,0,0,1.747-.127c.745,3.338,3.25,7.854,9.2,8.233.627.04,1.252.061,1.857.061a18.315,18.315,0,0,0,9-2c1.943,1.415,6.885,4.584,12.1,4.584.411,0,.823-.021,1.226-.058a19.752,19.752,0,0,0,8.026-2.37,4.953,4.953,0,0,0,.977-.541,27.539,27.539,0,0,0,11.349,2.979c.189,0,.377,0,.585-.011a21.019,21.019,0,0,0,10.5-3.7,4.623,4.623,0,0,0,.522.482,1.017,1.017,0,0,0,.118.065,7.5,7.5,0,0,0,4.942,1.84h0a8.234,8.234,0,0,0,.838-.041,9.106,9.106,0,0,0,5.928-2.983,13.624,13.624,0,0,0,4.294.743,9.072,9.072,0,0,0,4.972-1.379,10.179,10.179,0,0,0,4.345-5.1,13.325,13.325,0,0,0,11.7-3.465c5.18-4.735,4.244-12.971,3.726-15.88a10.035,10.035,0,0,0,4.507-9.3Zm-6.508,7.13c-.775-.236-1.728-.5-2.884-.792a5.72,5.72,0,0,0-5.783,1.509,4.9,4.9,0,0,0-.934,5.047,4.15,4.15,0,0,0,4.2,2.742,6.858,6.858,0,0,0,2.18-.357,1.32,1.32,0,1,0-.855-2.49h0c-.1.034-2.463.825-3.048-.8a2.322,2.322,0,0,1,.419-2.383,3.122,3.122,0,0,1,3.185-.716c1.044.261,1.905.5,2.615.714.415,2.227,1.406,9.59-2.779,13.417a10.528,10.528,0,0,1-7.262,2.938,9.778,9.778,0,0,1-2.9-.423l-2.621-5.049a1.457,1.457,0,0,0-2.6,1.32l.015.026,2.943,5.671a7.157,7.157,0,0,1-3.239,3.781,6.207,6.207,0,0,1-3.4.92,11.152,11.152,0,0,1-4.1-.872l-.283-.118h-.3a1.886,1.886,0,0,0-1.453.844,6.308,6.308,0,0,1-4.382,2.4,5.187,5.187,0,0,1-.539.028h0a4.895,4.895,0,0,1-3.81-1.905,4.7,4.7,0,0,1-.693-2.749,2.376,2.376,0,0,1,1.089-1.987c1.865-1.072,2.764-.16,3,.153a1.456,1.456,0,1,0,2.389-1.665c-.842-1.226-3.353-3.018-6.843-1.012a5.194,5.194,0,0,0-2.542,4.3,7.525,7.525,0,0,0,.377,2.848A18.114,18.114,0,0,1,144,81.368a23.527,23.527,0,0,1-9.986-2.41v-.009a9.409,9.409,0,0,0-.583-7.356c-1.855-4.126-6.326-3.991-8.428-3.341a1.455,1.455,0,1,0,.821,2.789h.023c.149-.043,3.639-1.086,4.916,1.754a6.717,6.717,0,0,1,.539,5.062,2.893,2.893,0,0,1-.23.454l-.221.223c-.021.021-2.256,2.223-7.991,2.8a9.007,9.007,0,0,1-.934.043c-4.382,0-8.771-2.858-10.417-4.055l.364-4.414a1.457,1.457,0,1,0-2.9-.238l-.36,4.382c-.865.525-3.345,1.745-7.785,1.745-.543,0-1.105-.019-1.67-.054-6.031-.377-6.668-6.532-6.715-7.119a3.98,3.98,0,0,1,2.143-3.2A3.124,3.124,0,0,1,96.52,67.9a.512.512,0,0,1-.1-.038l1.143-2.68c-.283-.118-1.814-.652-4.32.667a6.79,6.79,0,0,0-3.553,4.614,9.319,9.319,0,0,1-1.659.155c-3.239,0-5.547-1.7-6.858-5.039-2.718-6.93,3.4-13.607,4-14.241a7.4,7.4,0,0,1,4.753-1.653,4.5,4.5,0,0,1,4.218,2.785,1.456,1.456,0,0,0,2.757-.936,7.363,7.363,0,0,0-6.915-4.763,10.013,10.013,0,0,0-5.45,1.474,14.5,14.5,0,0,1-1.381-12.422c2.031-6.207,7.662-7.229,9.927-7.386a6.969,6.969,0,0,0,5.463,3.917,7.7,7.7,0,0,0,1.126.084,8.056,8.056,0,0,0,7.016-4.658,1.457,1.457,0,1,0-2.647-1.22c-.067.141-1.651,3.407-5.077,2.911a4.122,4.122,0,0,1-2.987-1.859l-.6-1.289a2.309,2.309,0,0,1-.086-.217,7.081,7.081,0,0,1-.283-1.935v-.139c.017-1.821.66-4.636,3.444-8.14,4.324-5.435,11.639-4.515,13.655-4.137l2.053,4.614a1.459,1.459,0,0,0,1.334.865,1.436,1.436,0,0,0,.59-.125,1.455,1.455,0,0,0,.739-1.922L114.6,10.2c-.015-.032-.036-.059-.054-.094a7.875,7.875,0,0,1,5.652-5.7,9.664,9.664,0,0,1,2.69-.394,8.865,8.865,0,0,1,5.875,2.271l.325.34a3.988,3.988,0,0,1,.56,3.939,3.261,3.261,0,0,1-3.065,2.057,1.456,1.456,0,1,0-.273,2.9c.108,0,.219.013.327.013a6.186,6.186,0,0,0,5.626-3.7,6.589,6.589,0,0,0-.406-6.256,17.979,17.979,0,0,1,7.218-2.587,9.005,9.005,0,0,1,1.24-.086,10.722,10.722,0,0,1,6.427,2.378A6.872,6.872,0,0,0,145.2,8.316a5.942,5.942,0,0,0,4.1,7.174,1.583,1.583,0,0,0,.355.043,1.457,1.457,0,0,0,.353-2.871,3.018,3.018,0,0,1-1.964-3.725c.539-2.486,3.5-3.637,4.067-3.837a12.531,12.531,0,0,1,4.085-.721,10.982,10.982,0,0,1,3.86.7,8.865,8.865,0,0,1,5.158,4.966c.013.036.028.075.043.11a10.518,10.518,0,0,1,.788,3.25l-.017,2.462c-.478,2.075-1.558,2.084-2.049,2.084a3.132,3.132,0,0,1-1.653-.543,1.458,1.458,0,1,0-1.81,2.286l.021.015a6,6,0,0,0,3.442,1.156c1.334,0,4.479-.532,5.086-5.47.034-.283.056-.56.069-.831a5.763,5.763,0,0,1,2.555,1.122A3.813,3.813,0,0,1,173.1,20l-.8,2.3,2.406-.377a10.67,10.67,0,0,1,1.558-.094,13.461,13.461,0,0,1,9.184,3.44c3.833,3.6,2.477,8.572,2.034,9.868-.157.327-2.183,4.469-5.023,4.6a1.98,1.98,0,0,1-1.5-.34,1.385,1.385,0,0,1-.155-.962,1.456,1.456,0,0,0-2.829-.682h0a4.244,4.244,0,0,0,.736,3.5,4.289,4.289,0,0,0,3.5,1.4c.124,0,.25,0,.377-.009,3.429-.16,5.787-3.261,6.875-5.071,2.1.353,7.451,1.877,8.146,8.306.426,3.943-2.623,6.2-3.62,6.816Z" transform="translate(-77.553 0)" fill="#b8c4e0"/>
                      <path id="Tracé_91" data-name="Tracé 91" d="M332.97,97.921A8.394,8.394,0,0,0,331,90.435c-4.7-5.659-11.811-4.4-16.23-2.4a10.2,10.2,0,0,0-6.907-7.753c-5.334-1.817-9.453,1.773-11.362,3.97a13.348,13.348,0,0,0-9.8-3.538,8.916,8.916,0,0,0-7.892,6.254,7.666,7.666,0,0,0,2.488,8.788,8.913,8.913,0,0,0,11.824-.308,1.456,1.456,0,0,0-1.991-2.124,5.991,5.991,0,0,1-8.022.153,4.868,4.868,0,0,1-1.541-5.578,6.057,6.057,0,0,1,5.193-4.275c6.046-.124,8.464,3.549,8.559,3.7a1.457,1.457,0,0,0,2.465.021c.038-.061,3.961-6.065,9.148-4.3a7.437,7.437,0,0,1,5.144,7.22,1.459,1.459,0,0,0,2.223,1.32c.377-.232,9.214-5.607,14.468.719a5.564,5.564,0,0,1,1.379,4.968,5.992,5.992,0,0,1-2.916,3.867c-1.905.855-4.286-.406-4.305-.417a1.457,1.457,0,1,0-1.41,2.546h0a9.831,9.831,0,0,0,3.575,1.037,6.7,6.7,0,0,0,3.324-.52A8.9,8.9,0,0,0,332.97,97.921Z" transform="translate(-240.083 -64.584)" fill="#b8c4e0"/>
                      <path id="Tracé_92" data-name="Tracé 92" d="M200.981,200.4a6.655,6.655,0,0,0-.347-3.739h.017a7.575,7.575,0,0,0,2.488-.415,6.675,6.675,0,0,0,4.235-4.763,9.221,9.221,0,0,0-1.577-8.094c-2.682-3.17-6.858-2.374-8.689-1.509a1.457,1.457,0,0,0,1.242,2.635c.034-.017,3.3-1.524,5.223.762a6.259,6.259,0,0,1,1,5.439,3.858,3.858,0,0,1-2.381,2.791,5.619,5.619,0,0,1-4.433-.534,11.851,11.851,0,0,0-1.69-1.143c-.094-.08-.142-.127-.147-.129a1.455,1.455,0,1,0-2.036,2.075h0a5.479,5.479,0,0,0,.461.406v.009a12.1,12.1,0,0,0,1.8,1.218,4.788,4.788,0,0,1,1.962,4.456c-.594,3.189-2.955,3.353-3.239,3.36a1.457,1.457,0,0,0,.015,2.912C196.633,206.142,200.134,204.943,200.981,200.4Z" transform="translate(-171.316 -146.612)" fill="#b8c4e0"/>
                      <path id="Tracé_93" data-name="Tracé 93" d="M231.156,313.613a8.677,8.677,0,0,0-7.681,5.334A1.456,1.456,0,1,0,226.187,320h0a5.787,5.787,0,0,1,5.058-3.467c3.2-.1,3.538,3.482,3.568,3.883a1.455,1.455,0,0,0,1.45,1.368h.094a1.453,1.453,0,0,0,1.362-1.541C237.576,317.875,236.023,313.456,231.156,313.613Z" transform="translate(-195.596 -253.867)" fill="#b8c4e0"/>
                      <path id="Tracé_94" data-name="Tracé 94" d="M542.743,245.864c-2.337-1.97-5.871-1.386-6.022-1.358a1.334,1.334,0,0,0,.452,2.611c.025,0,2.477-.377,3.861.777a3.278,3.278,0,0,1,1,2.667,4.012,4.012,0,0,1-1.078,3.073,4.538,4.538,0,0,1-3.06.964,1.334,1.334,0,0,0-1.406,1.64,4.679,4.679,0,0,1-.336,3.25,2.029,2.029,0,0,1-1.585.741,2.829,2.829,0,0,1-2.286-.6,3.465,3.465,0,0,1-.762-2.393,1.334,1.334,0,0,0-2.646-.209,6.043,6.043,0,0,0,1.515,4.466,5.044,5.044,0,0,0,3.732,1.408c.209,0,.426-.011.648-.026a4.583,4.583,0,0,0,3.526-1.836,6.16,6.16,0,0,0,.973-3.874,6.085,6.085,0,0,0,5.408-6.6A5.785,5.785,0,0,0,542.743,245.864Z" transform="translate(-442.885 -197.845)" fill="#b8c4e0"/>
                    </g>
                  </g>
                </g>
              </g>
            </g>
          </g>
          <g id="Groupe_10805" data-name="Groupe 10805" transform="translate(50.65 30.391)">
            <path id="Tracé_22522" data-name="Tracé 22522" d="M472.8,159.757s6.159-.953,10.157,1.069,5.833,7.025,5.833,7.025" transform="translate(-434.529 -159.533)" fill="none"/>
            <path id="Tracé_22523" data-name="Tracé 22523" d="M287.891,159.758s-6.16-.953-10.157,1.07-5.833,7.023-5.833,7.023" transform="translate(-271.9 -159.534)" fill="none"/>
          </g>
          <g id="Groupe_24" data-name="Groupe 24" transform="translate(53.92 44.697)">
            <path id="Tracé_53" data-name="Tracé 53" d="M305.7,243.814l.038-.276q.017-.133.04-.331c0-.065.019-.133.025-.211s0-.174,0-.269c0-.189,0-.407-.017-.64s-.061-.461-.094-.721-.122-.525-.189-.813a8.921,8.921,0,0,0-.312-.88,6.051,6.051,0,0,0-.463-.913,8.55,8.55,0,0,0-2.358-2.562c-.175-.118-.351-.238-.532-.353s-.377-.2-.572-.307l-.291-.151-.3-.124c-.206-.078-.411-.166-.623-.232a8.815,8.815,0,0,0-1.309-.3,4.98,4.98,0,0,0-.672-.078l-.338-.019h-.413l-.572.032-.143.009a1.144,1.144,0,0,0-.16.015l-.362.052a5.568,5.568,0,0,0-.7.131l-.646.179c-.211.067-.417.155-.622.23l-.3.125-.291.151c-.189.1-.377.189-.572.306s-.356.234-.532.351a8.572,8.572,0,0,0-2.358,2.564c-.175.307-.325.615-.463.911a5.371,5.371,0,0,0-.314.88,8.278,8.278,0,0,0-.189.813c-.042.257-.076.5-.094.722a5.73,5.73,0,0,0,0,.6v.259a2.051,2.051,0,0,0,.023.228c.015.141.028.261.038.358l.038.3a.572.572,0,0,0,1.117.071l.019-.071.067-.252a6.613,6.613,0,0,1,.189-.691l.157-.472c.078-.166.147-.347.226-.538a5.475,5.475,0,0,1,.3-.572c.108-.189.252-.394.377-.6a5.029,5.029,0,0,1,.472-.6,6.712,6.712,0,0,1,.56-.581,7.1,7.1,0,0,1,1.369-1.021,7.622,7.622,0,0,1,1.653-.689l.446-.1a1.118,1.118,0,0,1,.211-.038l.2-.028.2-.034a.667.667,0,0,1,.124-.011h.141l.572-.025a.627.627,0,1,0-.067,0h.456a2.842,2.842,0,0,1,.457.048c.151.028.307.03.454.073l.446.1a7.621,7.621,0,0,1,1.653.688,7.262,7.262,0,0,1,1.369,1.021,7.016,7.016,0,0,1,.56.581c.17.189.316.407.472.6a4.974,4.974,0,0,1,.377.6c.114.2.217.39.3.572s.149.37.226.538a3.98,3.98,0,0,1,.155.45c.023.069.045.135.069.189a1.608,1.608,0,0,1,.048.2q.041.189.074.325l.065.271a.572.572,0,0,0,1.132-.058Z" transform="translate(-288.985 -234.63)" fill="#8595ba"/>
            <path id="Tracé_54" data-name="Tracé 54" d="M466.925,243.814l.038-.276q.017-.133.04-.331c0-.065.019-.133.025-.211s0-.174,0-.269c0-.189,0-.407-.017-.64s-.061-.461-.094-.721-.122-.525-.189-.813a8.929,8.929,0,0,0-.312-.88,5.9,5.9,0,0,0-.465-.913,8.513,8.513,0,0,0-2.358-2.562c-.175-.118-.351-.238-.532-.353s-.377-.2-.572-.307l-.291-.151-.3-.124c-.206-.078-.411-.166-.623-.232a8.763,8.763,0,0,0-1.309-.3,4.961,4.961,0,0,0-.671-.078l-.34-.019h-.4l-.572.032-.142.009a1.114,1.114,0,0,0-.158.015l-.362.052a5.444,5.444,0,0,0-.7.131l-.648.179c-.211.067-.415.155-.621.23l-.3.125-.291.151c-.189.1-.377.189-.572.306s-.356.234-.53.351a8.531,8.531,0,0,0-2.358,2.564c-.177.307-.327.615-.465.911a5.2,5.2,0,0,0-.312.88c-.075.283-.147.556-.189.813s-.075.5-.094.722-.009.431-.013.613v.259a2.081,2.081,0,0,0,.023.228c.015.141.026.261.038.358l.038.3a.572.572,0,0,0,1.117.071l.019-.071.065-.252a6.763,6.763,0,0,1,.189-.691l.158-.472c.076-.166.147-.347.224-.538a4.863,4.863,0,0,1,.3-.572c.11-.189.25-.394.377-.6a5.035,5.035,0,0,1,.472-.6,6.711,6.711,0,0,1,.56-.581,7.086,7.086,0,0,1,1.368-1.021,7.664,7.664,0,0,1,1.653-.689l.446-.1a1.176,1.176,0,0,1,.211-.038l.2-.028.2-.034a.665.665,0,0,1,.124-.011h.142l.572-.025a.629.629,0,1,0-.069,0h.446a2.846,2.846,0,0,1,.459.047c.151.028.307.03.454.073l.446.1a7.62,7.62,0,0,1,1.653.688,7.26,7.26,0,0,1,1.369,1.021,7,7,0,0,1,.56.581c.17.189.316.407.467.6a4.965,4.965,0,0,1,.377.6c.112.2.219.39.3.572s.149.37.226.538l.155.45c.025.069.045.135.069.189a1.616,1.616,0,0,1,.047.2l.074.325.065.271a.572.572,0,0,0,1.143-.058Z" transform="translate(-419.502 -234.63)" fill="#8595ba"/>
          </g>
          <path id="Path_26993" data-name="Path 26993" d="M350.479,56.776s5.67,1.2,5.934,2.9c.162,1.037-1.3,1.834-2.728,2.557-.793.4-2.04.707-2.04,1.549,0,.692,1.567,1.73,1.567,1.73s3.447,1.13,3.2,2.339c-.363,1.779-5.934,2.931-5.934,2.931v.406s6.961-1,7.983-2.733-3.9-4.18-3.9-4.18-.193-1.139,0-1.27c.855-.581,4.984-2.253,4.138-4.011-.959-1.994-7.975-2.693-7.975-2.693Z" transform="translate(-277.017 4.059)" fill="#8595ba"/>
        </g>
      </g>
    </g>
    <path id="Path_26986" data-name="Path 26986" d="M0,0H11.945V5.309H0Z" transform="translate(-5890.792 15290.494) rotate(135)" fill="#f7f900"/>
    <path id="Path_26987" data-name="Path 26987" d="M0,0H11.945V5.309H0Z" transform="translate(-5876.25 15296.926) rotate(-38.382)" fill="#f8396c"/>
    <path id="Path_26988" data-name="Path 26988" d="M0,0H11.945V5.309H0Z" transform="translate(-5868.243 15310.968) rotate(45)" fill="#ffb33b"/>
    <path id="Path_26989" data-name="Path 26989" d="M0,0H11.945V5.309H0Z" transform="matrix(0.662, -0.75, 0.75, 0.662, -5852.395, 15328.638)" fill="#6cdc2d"/>
    <g id="Group_14862" data-name="Group 14862" transform="translate(-5942.396 15288.635) rotate(8)">
      <path id="Path_26954" data-name="Path 26954" d="M34.344,24.576,2.942,40.826l-.626-7.9-.624-7.9-.626-7.9-.626-7.9L.012,3.87A3.527,3.527,0,0,1,1.933.408,3.527,3.527,0,0,1,5.868.84l4.14,3.452,6.084,5.071,6.084,5.071,6.085,5.07Z" transform="translate(0 0)" fill="#ff4dcd"/>
      <path id="Path_26955" data-name="Path 26955" d="M32.411,24.576,16.71,32.7,0,.408A3.527,3.527,0,0,1,3.935.84l4.14,3.452,6.084,5.071,6.084,5.071,6.085,5.07Z" transform="translate(1.932 0)" fill="#ff3dc9"/>
      <path id="Path_26956" data-name="Path 26956" d="M10.008,4.292.439,9.244.012,3.87A3.527,3.527,0,0,1,1.933.408,3.527,3.527,0,0,1,5.868.84Z" fill="#3c4bdc"/>
      <path id="Path_26957" data-name="Path 26957" d="M21.11,5.071.626,15.671,0,7.775,15.026,0Z" transform="translate(1.065 9.364)" fill="#3c4bdc"/>
      <path id="Path_26958" data-name="Path 26958" d="M32.028,5.072.626,21.321,0,13.425,25.945,0Z" transform="translate(2.316 19.505)" fill="#3c4bdc"/>
      <path id="Path_26959" data-name="Path 26959" d="M8.075,4.292,3.291,6.768,0,.408A3.527,3.527,0,0,1,3.935.84Z" transform="translate(1.932 0)" fill="#3c4bdc"/>
      <path id="Path_26960" data-name="Path 26960" d="M13.6,5.071l-10.242,5.3L0,3.888,7.513,0Z" transform="translate(8.578 9.364)" fill="#3c4bdc"/>
      <path id="Path_26961" data-name="Path 26961" d="M19.056,5.072,3.355,13.2,0,6.713,12.972,0Z" transform="translate(15.288 19.505)" fill="#3c4bdc"/>
    </g>
    <path id="Path_26990" data-name="Path 26990" d="M0,0H11.945V5.309H0Z" transform="matrix(-0.763, -0.646, 0.646, -0.763, -5961.158, 15332.472)" fill="#ffb33b"/>
    <path id="Path_26991" data-name="Path 26991" d="M0,0H11.945V5.309H0Z" transform="translate(-5947.949 15300.524) rotate(135)" fill="#fe3345"/>
    <path id="Path_26992" data-name="Path 26992" d="M0,0H11.945V5.309H0Z" transform="translate(-5925.168 15279.938) rotate(2)" fill="#2060d8"/>
    <g id="Group_14864" data-name="Group 14864" transform="translate(-5907.019 15373.515)">
      <path id="Path_27010" data-name="Path 27010" d="M343.418,333.261v.707a5.043,5.043,0,0,1-5.042,5.043H318v-3.116h20.375a1.927,1.927,0,0,0,1.927-1.927v-.756a1.974,1.974,0,0,0-1.54-1.951,1.945,1.945,0,0,0-.854.016c-.089.023-.128.033-.112.176.02.172.1.172.18.174a.431.431,0,0,1,.426.43v.007l-.015,1.127v0l-.013,1.125a.432.432,0,0,1-.43.426h-.007a3.27,3.27,0,0,1-3.237-2.929,3.2,3.2,0,0,1,2.456-3.56,5.012,5.012,0,0,1,1.212-.148A5.154,5.154,0,0,1,343.418,333.261Z" transform="translate(-311.319 -328.105)" fill="#0e9be6"/>
      <path id="Path_27011" data-name="Path 27011" d="M343.418,333.261v.707a5.043,5.043,0,0,1-5.042,5.043H318v-1.558h20.375a3.484,3.484,0,0,0,3.485-3.485v-.741a3.488,3.488,0,0,0-4.326-3.462,1.738,1.738,0,0,0,.425,3.419l.43,0v0l-.013,1.125a.432.432,0,0,1-.43.426h-.007a3.27,3.27,0,0,1-3.237-2.929,3.2,3.2,0,0,1,2.456-3.56,5.014,5.014,0,0,1,1.212-.148A5.154,5.154,0,0,1,343.418,333.261Z" transform="translate(-311.319 -328.105)" fill="#0e9be6"/>
      <path id="Path_27012" data-name="Path 27012" d="M305.517,371.247v3a.92.92,0,0,1-.92.922H293.161c-.508,0-3.5-1.338-3.5-2.549s2.995-2.3,3.5-2.3H304.6A.92.92,0,0,1,305.517,371.247Z" transform="translate(-289.658 -363.402)" fill="#5965dd"/>
      <path id="Path_27015" data-name="Path 27015" d="M364.118,365.083v4.483a1.148,1.148,0,0,1-1.148,1.148h-.492a1.149,1.149,0,0,1-1.148-1.148v-4.483a1.149,1.149,0,0,1,1.148-1.148h.492A1.148,1.148,0,0,1,364.118,365.083Z" transform="translate(-347.544 -358.059)" fill="#3c4bdc"/>
      <path id="Path_27016" data-name="Path 27016" d="M364.118,385.145V387.3a1.148,1.148,0,0,1-1.148,1.148h-.492a1.149,1.149,0,0,1-1.148-1.148v-2.153Z" transform="translate(-347.544 -375.791)" fill="#3c4bdc"/>
    </g>
  </g>
</svg>
