<svg xmlns="http://www.w3.org/2000/svg" width="17.786" height="16.982" viewBox="0 0 17.786 16.982">
  <g id="Group_14673" data-name="Group 14673" transform="translate(0 0)">
    <g id="Group_70" data-name="Group 70" transform="translate(0 0)">
      <g id="Group_68" data-name="Group 68">
        <path id="Path_81" data-name="Path 81" d="M68.706,535.439a.482.482,0,0,0-.436.282l-2.351,5.19-5.657.675a.481.481,0,0,0-.267.832l4.209,3.84L63.1,551.847a.5.5,0,0,0-.009.093.48.48,0,0,0,.718.418l4.952-2.816,4.974,2.779a.481.481,0,0,0,.715-.42.468.468,0,0,0-.01-.1l-1.148-5.58,4.179-3.872a.481.481,0,0,0-.273-.83l-5.662-.632-2.391-5.171A.481.481,0,0,0,68.706,535.439Zm-2.4,6.394a.48.48,0,0,0,.381-.279l2.03-4.48,2.064,4.464a.48.48,0,0,0,.383.276l4.887.546L72.438,545.7a.48.48,0,0,0-.144.45l.991,4.817-4.293-2.4a.48.48,0,0,0-.472,0L64.245,551l.955-4.824a.493.493,0,0,0,.009-.093.481.481,0,0,0-.157-.355l-3.633-3.314Z" transform="translate(-59.838 -535.439)" fill="#707070"/>
      </g>
      <g id="Group_69" data-name="Group 69" transform="translate(0.481 0.481)">
        <path id="Path_82" data-name="Path 82" d="M67.321,555.691l1.158-5.854-4.409-4.022L70,545.107l2.463-5.436,2.5,5.417,5.931.662-4.378,4.056,1.2,5.845-5.21-2.911Z" transform="translate(-64.07 -539.671)" fill="#707070"/>
        <path id="Path_83" data-name="Path 83" d="M72.482,595.625l-8.412-1.866,4.409,4.022Z" transform="translate(-64.07 -587.615)" fill="#707070"/>
        <path id="Path_84" data-name="Path 84" d="M97.85,610.19l-5.161,8.01,5.188-2.95,5.21,2.911Z" transform="translate(-89.438 -602.179)" fill="#707070"/>
        <path id="Path_85" data-name="Path 85" d="M138.124,595.125l8.412-1.93-4.378,4.056Z" transform="translate(-129.712 -587.114)" fill="#707070"/>
        <path id="Path_86" data-name="Path 86" d="M137.92,539.671l.023,8.01,2.481-2.593Z" transform="translate(-129.531 -539.671)" fill="#707070"/>
      </g>
    </g>
  </g>
</svg>
