<svg xmlns="http://www.w3.org/2000/svg" width="24.295" height="23.197" viewBox="0 0 24.295 23.197">
  <g id="Group_14673" data-name="Group 14673" transform="translate(0 0)">
    <g id="Group_70" data-name="Group 70">
      <g id="Group_68" data-name="Group 68" transform="translate(0 0)">
        <path id="Path_81" data-name="Path 81" d="M71.951,535.439a.658.658,0,0,0-.6.386l-3.211,7.089-7.727.923a.657.657,0,0,0-.365,1.137l5.749,5.245-1.51,7.634a.676.676,0,0,0-.012.128.656.656,0,0,0,.981.571l6.765-3.847,6.794,3.8a.657.657,0,0,0,.977-.573.639.639,0,0,0-.013-.132l-1.569-7.623,5.709-5.288a.657.657,0,0,0-.373-1.134l-7.734-.864-3.266-7.064A.657.657,0,0,0,71.951,535.439Zm-3.284,8.734a.656.656,0,0,0,.52-.381l2.772-6.119,2.819,6.1a.655.655,0,0,0,.523.377l6.676.746-4.928,4.565a.657.657,0,0,0-.211.482.65.65,0,0,0,.014.132l1.354,6.58-5.865-3.276a.655.655,0,0,0-.645,0l-5.84,3.32,1.3-6.59a.673.673,0,0,0,.012-.128.658.658,0,0,0-.214-.485L62,544.97Z" transform="translate(-59.838 -535.439)" fill="#fabd3a"/>
      </g>
      <g id="Group_69" data-name="Group 69" transform="translate(0.657 0.657)">
        <path id="Path_82" data-name="Path 82" d="M68.511,561.554l1.582-8-6.022-5.494,8.094-.967,3.364-7.426,3.421,7.4,8.1.9-5.98,5.54,1.643,7.985L75.6,557.525Z" transform="translate(-64.07 -539.671)" fill="#ffdf66"/>
        <path id="Path_83" data-name="Path 83" d="M75.561,596.308l-11.49-2.549,6.022,5.494Z" transform="translate(-64.07 -585.366)" fill="#ffc823"/>
        <path id="Path_84" data-name="Path 84" d="M99.738,610.19l-7.05,10.942,7.087-4.03,7.117,3.976Z" transform="translate(-88.248 -599.248)" fill="#ffc823"/>
        <path id="Path_85" data-name="Path 85" d="M138.124,595.831l11.491-2.637-5.98,5.54Z" transform="translate(-126.634 -584.889)" fill="#ffc823"/>
        <path id="Path_86" data-name="Path 86" d="M137.92,539.671l.032,10.942,3.389-3.542Z" transform="translate(-126.461 -539.671)" fill="#ffc823"/>
      </g>
    </g>
  </g>
</svg>
