<svg id="Calque_1" data-name="Calque 1" xmlns="http://www.w3.org/2000/svg" xmlns:xlink="http://www.w3.org/1999/xlink" viewBox="0 0 200.17 140.62">
  <defs>
    <linearGradient id="Dégradé_sans_nom" data-name="Dégradé sans nom" x1="-195.52" y1="488.38" x2="-195.52" y2="487.38" gradientTransform="matrix(200, 0, 0, -140, 39203, 68373.57)" gradientUnits="userSpaceOnUse">
      <stop offset="0" stop-color="#1da2f7"/>
      <stop offset="1" stop-color="#1d62f1"/>
    </linearGradient>
    <clipPath id="clip-path" transform="translate(0 0)">
      <path d="M0,0H200V112.94s-49.15,27.68-99.15,27.68S0,112.94,0,112.94Z" style="fill: none"/>
    </clipPath>
    <linearGradient id="Dégradé_sans_nom_2" data-name="Dégradé sans nom 2" x1="-177.81" y1="402.97" x2="-177.81" y2="403.04" gradientTransform="matrix(10.54, 0, 0, -6.76, 2017.28, 2998.69)" gradientUnits="userSpaceOnUse">
      <stop offset="0" stop-color="#47c38c"/>
      <stop offset="1" stop-color="#1ab772"/>
    </linearGradient>
  </defs>
  <title>last-try</title>
  <g id="Groupe_15337" data-name="Groupe 15337">
    <g id="Groupe_15336" data-name="Groupe 15336">
      <path id="Tracé_27121" data-name="Tracé 27121" d="M0,0H200V112.45S150.85,140,100.85,140,0,112.45,0,112.45Z" transform="translate(0 0)" style="fill: url(#Dégradé_sans_nom)"/>
      <g style="clip-path: url(#clip-path)">
        <g id="Groupe_de_masques_122" data-name="Groupe de masques 122">
          <g id="Groupe_15326" data-name="Groupe 15326">
            <g id="Groupe_de_masques_79" data-name="Groupe de masques 79">
              <g id="Groupe_14660" data-name="Groupe 14660">
                <g id="Groupe_15333" data-name="Groupe 15333">
                  <g id="Groupe_de_masques_5" data-name="Groupe de masques 5">
                    <path id="Tracé_26606" data-name="Tracé 26606" d="M151.53,78s3.75,7.53,6.18,13.69c1.94,5,8.64,18,1.43,24.11-1.5,1.28-9.54,8.1-11.86,9.33-11.83,6.22-43.65,2.52-33.94,6.11,6.37,2.35,30,2.94,48.17.12a75.1,75.1,0,0,0,20-7s-15.35-29.06-17.68-35-4.69-12.64-4.69-12.64Z" transform="translate(0 0)" style="fill: #fff;stroke: #fff;stroke-width: 0.9649999737739563px"/>
                    <path id="Ellipse_481" data-name="Ellipse 481" d="M128.17,111.2c12.43,0,22.5,8.66,22.5,19.34a12.53,12.53,0,0,1-.57,3.79,179.06,179.06,0,0,1-20.76,4.3c-10.32,1.41-20.53,2-20.53,2-2.45-3-3.15-6-3.15-10.08C105.66,119.86,115.74,111.2,128.17,111.2Z" transform="translate(0 0)" style="fill: #fff"/>
                    <path id="Ellipse_482" data-name="Ellipse 482" d="M157,116.35c9.45,0,13.29,2.78,13.29,12a130.34,130.34,0,0,1-13.54,4.25c-7.68,2-17.25,4-17.25,4C139.48,127.35,147.53,116.35,157,116.35Z" transform="translate(0 0)" style="fill: #fff"/>
                    <path id="Ellipse_483" data-name="Ellipse 483" d="M194.5,101.53a26,26,0,0,1,5.34.56l.33,14.32s-27.88,15.14-27.88,4.46S182.23,101.53,194.5,101.53Z" transform="translate(0 0)" style="fill: #fff"/>
                    <path id="Ellipse_484" data-name="Ellipse 484" d="M149.18,111.2c9.78,0,17.64,8.87,17.64,18.3,0,0-10.57,3.25-19.46,5.36s-16.12,3.08-16.12,3.08C131.24,128.5,139.4,111.2,149.18,111.2Z" transform="translate(0 0)" style="fill: #fff;opacity: 0.5180000066757202;isolation: isolate"/>
                  </g>
                  <path id="Tracé_26608" data-name="Tracé 26608" d="M155.39,90.75l7.24,17.91-.85-7.2L157.2,90.1Z" transform="translate(0 0)" style="fill: #fcfcfc;opacity: 0.8379999995231628;isolation: isolate"/>
                  <path id="Tracé_26609" data-name="Tracé 26609" d="M162.75,87.73l2.67-1,6.1,17.88Z" transform="translate(0 0)" style="fill: #fff;opacity: 0.7369999885559082;isolation: isolate"/>
                  <g id="rocket">
                    <path id="Tracé_26588" data-name="Tracé 26588" d="M173,77.25a.69.69,0,0,0,0-.13h0V77h0v-.19h0c-6.16-16.93-13.22-18.44-13.51-18.49a.85.85,0,0,0-.39,1.65h0l4.43,16.8a.89.89,0,0,0-.81.94h0a.89.89,0,0,0,.31.61.84.84,0,0,0,.64.2l8.49-.6h.15l.1,0h0l.1,0h0l.1-.07h0a.76.76,0,0,0,.09-.09h0l.08-.1h0l.06-.11h0l0-.1Z" transform="translate(0 0)" style="fill: #41d494"/>
                    <path id="Tracé_26589" data-name="Tracé 26589" d="M148.93,82.74a.88.88,0,0,0-1.23-.19s-7.39-15.73-7.38-15.75h0L139,65.69c-.19.23-4.63,5.93,1.52,22.86h0v0l0,.05v.08l0,0h0a.41.41,0,0,0,.09.1h0l.1.08h0l.1.06h0l.11,0h.14a.24.24,0,0,0,.12,0h.16l.11,0h0l.09,0h0l.08,0h0l6.89-5a.88.88,0,0,0,.35-.55.9.9,0,0,0-.13-.64Z" transform="translate(0 0)" style="fill: #2ebc7d"/>
                    <path id="Tracé_26590" data-name="Tracé 26590" d="M151.76,87.9a.86.86,0,0,1-.95-.21c-4.57-4.69-10.76-17.38-13.29-24.36-4.05-11.15-3.82-20.93.66-29.91a.88.88,0,0,1,1.13-.41c9.25,4,15.67,11.34,19.74,22.49,2.53,7,5.93,20.68,5.45,27.21a.89.89,0,0,1-.58.76Z" transform="translate(0 0)" style="fill: #41d494"/>
                    <path id="Tracé_26591" data-name="Tracé 26591" d="M139.33,33a.87.87,0,0,0-1.13.42c-.25.49-.47,1-.7,1.48,8.42,4.1,14.39,11.25,18.21,21.79,2.53,7,5.93,20.68,5.45,27.21a.89.89,0,0,1-.58.77l-8.84,3.22h0l12.14-4.45a.87.87,0,0,0,.58-.77c.48-6.53-2.91-20.23-5.45-27.21C155,44.35,148.56,37,139.33,33Z" transform="translate(0 0)" style="fill: #2ebc7d"/>
                    <path id="Tracé_26592" data-name="Tracé 26592" d="M148.08,84.24a26.87,26.87,0,0,0,2.74,3.46.87.87,0,0,0,.93.21l12.15-4.44a.88.88,0,0,0,.57-.76,26.93,26.93,0,0,0-.11-4.4Z" transform="translate(0 0)" style="fill: #576574"/>
                    <g id="Groupe_14483" data-name="Groupe 14483">
                      <path id="Tracé_26595" data-name="Tracé 26595" d="M157.23,84a.87.87,0,0,0-.53,1.1h0l.3.83,1.65-.6-.3-.83a.87.87,0,0,0-1.12-.5Z" transform="translate(0 0)" style="fill: #222f3e"/>
                      <path id="Tracé_26596" data-name="Tracé 26596" d="M152.85,85.65a.88.88,0,0,0-.54,1.1h0l.3.83,1.66-.6-.3-.83A.88.88,0,0,0,152.85,85.65Z" transform="translate(0 0)" style="fill: #222f3e"/>
                    </g>
                    <g id="Groupe_14484" data-name="Groupe 14484">
                      <path id="Tracé_26597" data-name="Tracé 26597" d="M152.37,70.61h0a4.12,4.12,0,1,1,2.45-5.29v0a4.12,4.12,0,0,1-2.34,5.23Z" transform="translate(0 0)" style="fill: #5c5c5c;stroke: #fff;stroke-width: 0.9649999737739563px"/>
                      <path id="Tracé_26598" data-name="Tracé 26598" d="M147.54,57.36h0a4.12,4.12,0,0,1-2.89-7.71l.1,0A4.08,4.08,0,0,1,150,52.06v0a4.12,4.12,0,0,1-2.34,5.23Z" transform="translate(0 0)" style="fill: #5c5c5c;stroke: #fff;stroke-width: 0.9649999737739563px"/>
                    </g>
                    <path id="Tracé_26602" data-name="Tracé 26602" d="M138.2,33.42A33.32,33.32,0,0,0,135,43.23l13-4.73A32.85,32.85,0,0,0,139.33,33a.86.86,0,0,0-1.13.41Z" transform="translate(0 0)" style="fill: #50b587"/>
                    <path id="Tracé_26603" data-name="Tracé 26603" d="M164.5,82.34V79.45l0-.45v-.46l0-.24-3.3,1.21a27.05,27.05,0,0,1,.11,4.41.89.89,0,0,1-.57.76l-8.84,3.21h0L164,83.45a.91.91,0,0,0,.58-.77V82.4Z" transform="translate(0 0)" style="fill: #222f3e"/>
                    <path id="Tracé_26604" data-name="Tracé 26604" d="M137.51,34.9a32.63,32.63,0,0,1,7.23,4.81l3.31-1.21-.45-.39-.1-.08c-.44-.37-.89-.73-1.35-1.07l-.17-.13-.42-.31-.16-.11-.72-.5-.28-.18L144,35.5l-.35-.22-.37-.23-.55-.31-.29-.16-.47-.26-.25-.13-.7-.36-.18-.08-.58-.29-.22-.1-.76-.34a.89.89,0,0,0-1.13.41C138,33.91,137.72,34.41,137.51,34.9Z" transform="translate(0 0)" style="fill: url(#Dégradé_sans_nom_2)"/>
                  </g>
                  <g id="Groupe_de_masques_59" data-name="Groupe de masques 59">
                    <path id="Ellipse_485" data-name="Ellipse 485" d="M119.46,113.14c12.27,0,22.21,23.18,22.21,23.18s-15.74,2.5-26.6,3.52a111.16,111.16,0,0,1-16.82.56,12.88,12.88,0,0,1-1-6C97.25,122.68,107.19,113.14,119.46,113.14Z" transform="translate(0 0)" style="fill: #fff;opacity: 0.47099998593330383;isolation: isolate"/>
                    <path id="Ellipse_486" data-name="Ellipse 486" d="M185.49,102.17c8.87,0-22.81,22.76-22.81,19.34C162.68,110.83,172.89,102.17,185.49,102.17Z" transform="translate(0 0)" style="fill: #fff;opacity: 0.47099998593330383;isolation: isolate"/>
                  </g>
                </g>
              </g>
            </g>
          </g>
        </g>
      </g>
    </g>
  </g>
</svg>
