<svg xmlns="http://www.w3.org/2000/svg" xmlns:xlink="http://www.w3.org/1999/xlink" width="375" height="230" viewBox="0 0 375 230">
  <defs>
    <linearGradient id="linear-gradient" x1="0.812" y1="0.678" x2="0.153" y2="0.67" gradientUnits="objectBoundingBox">
      <stop offset="0" stop-color="#1da2f7"/>
      <stop offset="1" stop-color="#1d62f1"/>
    </linearGradient>
    <filter id="Rectangle" x="-381.889" y="5.254" width="772.988" height="250.234" filterUnits="userSpaceOnUse">
      <feOffset dy="8" input="SourceAlpha"/>
      <feGaussianBlur stdDeviation="7.5" result="blur"/>
      <feFlood flood-color="#e7eaf0"/>
      <feComposite operator="in" in2="blur"/>
      <feComposite in="SourceGraphic"/>
    </filter>
    <linearGradient id="linear-gradient-2" x1="0.5" y1="0" x2="0.5" y2="1" xlink:href="#linear-gradient"/>
    <filter id="Rectangle-2" x="-381.889" y="5.254" width="772.988" height="250.234" filterUnits="userSpaceOnUse">
      <feOffset dy="8" input="SourceAlpha"/>
      <feGaussianBlur stdDeviation="7.5" result="blur-2"/>
      <feFlood flood-color="#e7eaf0"/>
      <feComposite operator="in" in2="blur-2"/>
      <feComposite in="SourceGraphic"/>
    </filter>
    <clipPath id="clip-path">
      <rect id="Rectangle_17989" data-name="Rectangle 17989" width="375" height="230" fill="#fff" stroke="#707070" stroke-width="1"/>
    </clipPath>
    <clipPath id="clip-path-2">
      <path id="Tracé_24173" data-name="Tracé 24173" d="M276.5,0C429.207,0,553,75.44,553,168.5S429.207,337,276.5,337,0,261.56,0,168.5,123.793,0,276.5,0Z" transform="translate(-89 -110)" opacity="0.905" fill="url(#linear-gradient)"/>
    </clipPath>
    <clipPath id="clip-path-3">
      <g transform="matrix(1, 0, 0, 1, 0, 0)" filter="url(#Rectangle)">
        <path id="Rectangle-3" data-name="Rectangle" d="M0,0H727.988V205.234H0Z" transform="translate(0 0)" fill="#6a6a6a"/>
      </g>
    </clipPath>
    <clipPath id="clip-path-4">
      <path id="Tracé_26607" data-name="Tracé 26607" d="M6.245,0h318.5a6.143,6.143,0,0,1,6.245,6.036V221.331a6.143,6.143,0,0,1-6.245,6.036H6.245A6.143,6.143,0,0,1,0,221.331V6.036A6.143,6.143,0,0,1,6.245,0Z" fill="url(#linear-gradient-2)"/>
    </clipPath>
    <linearGradient id="linear-gradient-5" x1="0.5" x2="0.5" y2="1" gradientUnits="objectBoundingBox">
      <stop offset="0" stop-color="#47c38c"/>
      <stop offset="1" stop-color="#1ab772"/>
    </linearGradient>
    <clipPath id="clip-path-5">
      <g transform="matrix(1, 0, 0, 1, 0, 0)" filter="url(#Rectangle-2)">
        <path id="Rectangle-4" data-name="Rectangle" d="M0,0H727.988V205.234H0Z" fill="url(#linear-gradient-2)"/>
      </g>
    </clipPath>
  </defs>
  <g id="Groupe_de_masques_118" data-name="Groupe de masques 118" clip-path="url(#clip-path)">
    <g id="Groupe_15326" data-name="Groupe 15326">
      <path id="Tracé_24173-2" data-name="Tracé 24173" d="M275.5,1C428.207,1,553,75.44,553,168.5S429.207,337,276.5,337,0,261.56,0,168.5,122.793,1,275.5,1Z" transform="translate(-89 -112)" opacity="0.905" fill="url(#linear-gradient)"/>
      <g id="Groupe_de_masques_79" data-name="Groupe de masques 79" clip-path="url(#clip-path-2)">
        <g id="Groupe_14660" data-name="Groupe 14660" transform="translate(7853.611 9295.633)">
          <g id="Groupe_de_masques_5" data-name="Groupe de masques 5" transform="translate(-7809.209 -9296)" clip-path="url(#clip-path-4)">
            <path id="Tracé_26606" data-name="Tracé 26606" d="M1331.658,643.9s7.875,15.227,12.951,27.7c4.071,10,18.112,36.334,2.966,48.771-3.157,2.6-19.958,16.377-24.868,18.871-24.8,12.6-91.514,5.108-71.156,12.372s152.193,0,152.193,0l23.683-24.545-35.938,2.173s-29.187-50.262-34.077-62.332-9.838-25.574-9.838-25.574Z" transform="translate(-1083.824 -517.923)" fill="#fff" stroke="#fff" stroke-width="1"/>
            <ellipse id="Ellipse_481" data-name="Ellipse 481" cx="47.195" cy="39.133" rx="47.195" ry="39.133" transform="translate(151.65 193.057)" fill="#fff"/>
            <ellipse id="Ellipse_482" data-name="Ellipse 482" cx="35.868" cy="33.915" rx="35.868" ry="33.915" transform="translate(223.387 203.492)" fill="#fff"/>
            <ellipse id="Ellipse_483" data-name="Ellipse 483" cx="46.566" cy="39.133" rx="46.566" ry="39.133" transform="translate(291.348 173.49)" fill="#fff"/>
            <ellipse id="Ellipse_484" data-name="Ellipse 484" cx="37.127" cy="34.568" rx="37.127" ry="34.568" transform="translate(205.767 193.057)" fill="#fff" opacity="0.518"/>
          </g>
          <path id="Tracé_26608" data-name="Tracé 26608" d="M1291.462,656.041l15.171,36.246-1.784-14.55-9.6-23Z" transform="translate(-8845.742 -9800.362)" fill="#fcfcfc" opacity="0.838"/>
          <path id="Tracé_26609" data-name="Tracé 26609" d="M1299.83,653.359l5.609-2,12.781,36.194Z" transform="translate(-8836.689 -9803.776)" fill="#fff" opacity="0.737"/>
          <g id="rocket" transform="translate(-7630.006 -9170.136) rotate(-65)">
            <path id="Tracé_26588" data-name="Tracé 26588" d="M10.442,42.977a1.635,1.635,0,0,0,.248-.064l.041-.014a1.7,1.7,0,0,0,.246-.111l.008,0c.013-.007.024-.015.036-.023.034-.02.068-.041.1-.064s.044-.033.066-.049.048-.036.071-.056.055-.049.082-.075.025-.022.037-.034l.025-.027.005,0C37,16.273,33.506,1.585,33.345.972a1.842,1.842,0,0,0-2.2-1.348,1.787,1.787,0,0,0-1.262,2.214C29.891,1.867,3,24.637,3,24.637a1.8,1.8,0,0,0-2.447-.744,1.824,1.824,0,0,0-.665,2.483L8.516,42l0,0,.019.035c0,.007.009.014.014.021a1.786,1.786,0,0,0,.107.167c.012.017.024.034.036.05a1.939,1.939,0,0,0,.133.156c.005.005.01.012.015.017s.009.007.013.011a1.812,1.812,0,0,0,.185.161c.016.012.031.025.048.036a1.9,1.9,0,0,0,.216.135l.029.014a1.8,1.8,0,0,0,.231.1l.021.008a1.727,1.727,0,0,0,.248.061l.049.008a1.752,1.752,0,0,0,.249.02h.038a1.737,1.737,0,0,0,.231-.019Z" transform="translate(38.943 59.4)" fill="#41d494"/>
            <path id="Tracé_26589" data-name="Tracé 26589" d="M18.373,33.262a1.884,1.884,0,0,0-.729-2.5S39.933,3.269,39.965,3.277l-.023-.006.846-3.538C40.188-.432,25.818-4,.214,22.167l0,0L.183,22.2c-.012.012-.022.025-.033.038s-.05.054-.074.084-.037.048-.055.073-.033.045-.048.068-.043.068-.062.1c-.007.013-.015.025-.022.037l0,.008a1.759,1.759,0,0,0-.108.25c0,.015-.01.029-.015.044a1.77,1.77,0,0,0-.062.252c0,.014,0,.029-.006.043a1.8,1.8,0,0,0-.018.234c0,.014,0,.027,0,.04a1.86,1.86,0,0,0,.02.253c0,.017,0,.034.007.051a1.915,1.915,0,0,0,.06.253l.007.022a1.891,1.891,0,0,0,.1.236l.014.029a1.9,1.9,0,0,0,.132.221l.036.049a1.986,1.986,0,0,0,.158.189l.011.013.017.015a1.971,1.971,0,0,0,.152.136l.049.037a1.715,1.715,0,0,0,.163.11l.02.014.034.02,0,0,15.288,8.817A1.744,1.744,0,0,0,18.373,33.262Z" transform="translate(-0.389 28.053)" fill="#2ebc7d"/>
            <path id="Tracé_26590" data-name="Tracé 26590" d="M-.428,71.27a1.889,1.889,0,0,1-.434-1.951C3.7,56.639,21.476,34.027,32.021,23.245,48.873,6.017,67-1.939,87.438-1.076A1.872,1.872,0,0,1,89.2.727c.851,20.89-6.928,39.419-23.779,56.649C54.877,68.157,32.761,86.335,20.356,91a1.792,1.792,0,0,1-1.909-.443Z" transform="translate(11.46 -0.155)" fill="#41d494"/>
            <path id="Tracé_26591" data-name="Tracé 26591" d="M88.643.727a1.872,1.872,0,0,0-1.764-1.8c-1.113-.047-2.218-.063-3.317-.058-.086,19.511-7.9,36.967-23.837,53.258C49.179,62.906,27.062,81.084,14.657,85.748a1.791,1.791,0,0,1-1.909-.443L-.989,71.27h0L17.887,90.556A1.792,1.792,0,0,0,19.8,91C32.2,86.335,54.318,68.157,64.863,57.376,81.715,40.147,89.493,21.617,88.643.727Z" transform="translate(12.019 -0.156)" fill="#2ebc7d"/>
            <path id="Tracé_26592" data-name="Tracé 26592" d="M3.881-.053A55.343,55.343,0,0,0-.013,8.1a1.889,1.889,0,0,0,.434,1.951L19.3,29.342a1.792,1.792,0,0,0,1.909.443,53.122,53.122,0,0,0,7.98-3.982Z" transform="translate(10.61 61.059)" fill="#576574"/>
            <g id="Groupe_14483" data-name="Groupe 14483" transform="translate(12.357 70.678)">
              <path id="Tracé_26595" data-name="Tracé 26595" d="M3.762.52A1.766,1.766,0,0,0,1.226.487L-.025,1.766,2.545,4.391,3.8,3.112A1.862,1.862,0,0,0,3.762.52Z" transform="translate(6.852 7.001)" fill="#222f3e"/>
              <path id="Tracé_26596" data-name="Tracé 26596" d="M3.762.521A1.766,1.766,0,0,0,1.226.487L-.025,1.766,2.545,4.391,3.8,3.112A1.861,1.861,0,0,0,3.762.521Z" transform="translate(0 0)" fill="#222f3e"/>
            </g>
            <g id="Groupe_14484" data-name="Groupe 14484" transform="translate(41.128 22.837)">
              <path id="Tracé_26597" data-name="Tracé 26597" d="M2.417,14.416h0a8.819,8.819,0,0,1-2.53-6.08A8.375,8.375,0,0,1,2.261,2.32,8.011,8.011,0,0,1,8.145-.108a8.446,8.446,0,0,1,5.949,2.583,8.823,8.823,0,0,1,2.529,6.08,8.372,8.372,0,0,1-2.374,6.016,8.251,8.251,0,0,1-11.833-.156Z" transform="translate(-0.28 20.198)" fill="#5c5c5c" stroke="#fff" stroke-width="1"/>
              <path id="Tracé_26598" data-name="Tracé 26598" d="M2.413,14.411h0a8.7,8.7,0,0,1-.156-12.1,8.252,8.252,0,0,1,11.834.156,8.822,8.822,0,0,1,2.53,6.081,8.375,8.375,0,0,1-2.374,6.016A8.252,8.252,0,0,1,2.413,14.411Z" transform="translate(19.746 -0.268)" fill="#5c5c5c" stroke="#fff" stroke-width="1"/>
            </g>
            <path id="Tracé_26602" data-name="Tracé 26602" d="M20.753-.172A65.132,65.132,0,0,0-.031,2.224l20.21,20.651A69.392,69.392,0,0,0,22.517,1.631,1.872,1.872,0,0,0,20.753-.172Z" transform="translate(78.145 -1.059)" fill="#50b587"/>
            <path id="Tracé_26603" data-name="Tracé 26603" d="M21.476,19.457c.132-.053.263-.108.4-.163l.172-.072.471-.2.088-.039q.274-.122.553-.251l.2-.091.382-.18.225-.109q.2-.094.392-.193l.2-.1q.272-.137.548-.278l.276-.144.314-.165L26,17.3l.288-.155.326-.177.127-.07q.39-.215.786-.44l.216-.123.4-.23.2-.114.421-.246L23.624,10.5a53.124,53.124,0,0,1-7.98,3.981,1.791,1.791,0,0,1-1.909-.443L0,0H0L18.875,19.286a1.792,1.792,0,0,0,1.909.443c.175-.066.353-.136.532-.207Z" transform="translate(11.031 71.115)" fill="#222f3e"/>
            <path id="Tracé_26604" data-name="Tracé 26604" d="M2.148-.029a68.637,68.637,0,0,1-2.4,17.853l5.139,5.252q.161-.589.31-1.181l.063-.255q.433-1.735.772-3.492.041-.213.081-.427c.066-.353.13-.706.191-1.06.023-.137.044-.275.067-.411q.146-.89.268-1.785c.031-.229.063-.457.092-.686q.055-.437.1-.876c.033-.286.062-.573.091-.86s.06-.6.087-.9q.058-.662.1-1.327c.015-.223.028-.446.041-.669q.032-.553.057-1.107c.008-.193.018-.385.024-.578q.029-.812.04-1.628c0-.139,0-.279,0-.418q0-.675,0-1.353c0-.166,0-.333-.007-.5-.01-.576-.025-1.153-.049-1.732A1.872,1.872,0,0,0,5.466.028C4.352-.019,3.248-.035,2.148-.029Z" transform="translate(93.432 -1.26)" fill="url(#linear-gradient-5)"/>
          </g>
          <g id="Groupe_de_masques_59" data-name="Groupe de masques 59" transform="translate(-8213 -9275.879)" clip-path="url(#clip-path-5)">
            <ellipse id="Ellipse_485" data-name="Ellipse 485" cx="46.566" cy="43.133" rx="46.566" ry="43.133" transform="translate(537.82 176.849)" fill="#fff" opacity="0.471"/>
            <ellipse id="Ellipse_486" data-name="Ellipse 486" cx="47.825" cy="39.133" rx="47.825" ry="39.133" transform="translate(675.001 154.674)" fill="#fff" opacity="0.471"/>
          </g>
        </g>
      </g>
    </g>
  </g>
</svg>
