<svg id="Calque_1" data-name="Calque 1" xmlns="http://www.w3.org/2000/svg" xmlns:xlink="http://www.w3.org/1999/xlink" viewBox="0 0 553 393.87">
  <defs>
    <clipPath id="clip-path" transform="translate(89 111)">
      <rect width="375" height="230" style="fill: none"/>
    </clipPath>
    <linearGradient id="Dégradé_sans_nom" data-name="Dégradé sans nom" x1="-108.99" y1="534.48" x2="-109.65" y2="534.48" gradientTransform="matrix(553, 0, 0, -336, 60631, 179641.96)" gradientUnits="userSpaceOnUse">
      <stop offset="0" stop-color="#1da2f7"/>
      <stop offset="1" stop-color="#1d62f1"/>
    </linearGradient>
    <clipPath id="clip-path-2" transform="translate(89 111)">
      <ellipse cx="187.5" cy="58.5" rx="276.5" ry="168.5" style="fill: none"/>
    </clipPath>
    <clipPath id="clip-path-3" transform="translate(89 111)">
      <path d="M50.65-.37h318.5a6.15,6.15,0,0,1,6.24,6V221a6.14,6.14,0,0,1-6.24,6H50.65a6.15,6.15,0,0,1-6.25-6V5.67A6.16,6.16,0,0,1,50.65-.37Z" style="fill: none"/>
    </clipPath>
    <linearGradient id="Dégradé_sans_nom_2" data-name="Dégradé sans nom 2" x1="-140.18" y1="525.98" x2="-140.18" y2="524.98" gradientTransform="matrix(3.18, -6.82, -20.94, -9.77, 11723.79, 4217.52)" gradientUnits="userSpaceOnUse">
      <stop offset="0" stop-color="#47c38c"/>
      <stop offset="1" stop-color="#1ab772"/>
    </linearGradient>
  </defs>
  <title>rocket</title>
  <g style="clip-path: url(#clip-path)">
    <g>
      <path id="Tracé_24173-2" data-name="Tracé 24173-2" d="M186.5-111C339.21-111,464-36.56,464,56.5S340.21,225,187.5,225-89,149.56-89,56.5,33.79-111,186.5-111Z" transform="translate(89 111)" style="opacity: 0.9049999713897705;isolation: isolate;fill: url(#Dégradé_sans_nom)"/>
      <g id="Groupe_de_masques_118" data-name="Groupe de masques 118">
        <g style="clip-path: url(#clip-path-2)">
          <g id="Groupe_15326" data-name="Groupe 15326">
            <g id="Groupe_de_masques_79" data-name="Groupe de masques 79">
              <g id="Groupe_14660" data-name="Groupe 14660">
                <g style="clip-path: url(#clip-path-3)">
                  <g id="Groupe_de_masques_5" data-name="Groupe de masques 5">
                    <path id="Tracé_26606" data-name="Tracé 26606" d="M292.24,125.61s7.87,15.23,12.95,27.7c4.07,10,18.11,36.33,3,48.77-3.15,2.6-20,16.38-24.87,18.87-24.8,12.6-91.51,5.11-71.15,12.37s152.19,0,152.19,0L388,208.78,352.07,211S322.88,160.69,318,148.62s-9.84-25.57-9.84-25.57Z" transform="translate(89 111)" style="fill: #fff;stroke: #fff"/>
                    <ellipse id="Ellipse_481" data-name="Ellipse 481" cx="332.25" cy="342.82" rx="47.19" ry="39.13" style="fill: #fff"/>
                    <ellipse id="Ellipse_482" data-name="Ellipse 482" cx="392.66" cy="348.04" rx="35.87" ry="33.92" style="fill: #fff"/>
                    <ellipse id="Ellipse_483" data-name="Ellipse 483" cx="471.32" cy="323.26" rx="46.57" ry="39.13" style="fill: #fff"/>
                    <ellipse id="Ellipse_484" data-name="Ellipse 484" cx="376.3" cy="338.26" rx="37.13" ry="34.57" style="fill: #fff;opacity: 0.5180000066757202;isolation: isolate"/>
                  </g>
                  <path id="Tracé_26608" data-name="Tracé 26608" d="M299.33,151.31l15.17,36.25L312.72,173l-9.6-23Z" transform="translate(89 111)" style="fill: #fcfcfc;opacity: 0.8379999995231628;isolation: isolate"/>
                  <path id="Tracé_26609" data-name="Tracé 26609" d="M316.75,145.22l5.61-2,12.78,36.19Z" transform="translate(89 111)" style="fill: #fff;opacity: 0.7369999885559082;isolation: isolate"/>
                  <g id="rocket">
                    <path id="Tracé_26588" data-name="Tracé 26588" d="M337.26,124a2.38,2.38,0,0,0,.05-.26v0a2.44,2.44,0,0,0,0-.27h0a.08.08,0,0,0,0,0,.49.49,0,0,0,0-.12s0,0,0-.08a.37.37,0,0,0,0-.09s0-.07,0-.1a.12.12,0,0,0,0,0v0h0c-12.92-34.26-27.71-37.3-28.33-37.41a1.84,1.84,0,0,0-2.15,1.42A1.78,1.78,0,0,0,308.16,89h0s9.3,34,9.3,34a1.81,1.81,0,0,0-1.71,1.89h0a1.82,1.82,0,0,0,2,1.65l17.8-1.21h.07l.19,0,.06,0,.2-.05h0l.22-.1.06,0,.21-.14,0,0a1.54,1.54,0,0,0,.19-.17h0l.16-.2,0,0,.12-.22,0,0,.08-.21Z" transform="translate(89 111)" style="fill: #41d494"/>
                    <path id="Tracé_26589" data-name="Tracé 26589" d="M286.78,135.11a1.89,1.89,0,0,0-2.58-.39s-15.5-31.82-15.47-31.85l0,0-2.85-2.26c-.4.47-9.71,12,3.19,46.25h0v0s0,0,0,.05l.05.1a.3.3,0,0,1,0,.08l0,.07.07.1s0,0,0,0h0a1.12,1.12,0,0,0,.18.2l0,0,.2.16,0,0a2.25,2.25,0,0,0,.21.12h0l.24.09.05,0,.25,0h0a1,1,0,0,0,.25,0h0l.26,0,.06,0a1.05,1.05,0,0,0,.24-.06h0l.18-.08.06,0,.17-.1h0l0,0h0l14.45-10.13a1.74,1.74,0,0,0,.46-2.42Z" transform="translate(89 111)" style="fill: #2ebc7d"/>
                    <path id="Tracé_26590" data-name="Tracé 26590" d="M292.72,145.55a1.87,1.87,0,0,1-2-.43c-9.57-9.49-22.55-35.16-27.86-49.27-8.49-22.56-8-42.35,1.38-60.51a1.85,1.85,0,0,1,2.37-.83C286,42.57,299.46,57.45,308,80c5.31,14.11,12.44,41.84,11.42,55.05a1.8,1.8,0,0,1-1.2,1.55Z" transform="translate(89 111)" style="fill: #41d494"/>
                    <path id="Tracé_26591" data-name="Tracé 26591" d="M266.66,34.51a1.85,1.85,0,0,0-2.37.84c-.52,1-1,2-1.46,3C280.48,46.65,293,61.11,301,82.44c5.31,14.11,12.44,41.84,11.42,55.05a1.79,1.79,0,0,1-1.21,1.55l-18.52,6.51h0l25.45-9a1.79,1.79,0,0,0,1.21-1.55c1-13.21-6.11-40.94-11.42-55.05C299.46,57.45,286,42.57,266.66,34.51Z" transform="translate(89 111)" style="fill: #2ebc7d"/>
                    <path id="Tracé_26592" data-name="Tracé 26592" d="M285,138.15a55.51,55.51,0,0,0,5.74,7,1.88,1.88,0,0,0,1.95.43l25.47-9a1.77,1.77,0,0,0,1.2-1.54,52,52,0,0,0-.23-8.91Z" transform="translate(89 111)" style="fill: #576574"/>
                    <g id="Groupe_14483" data-name="Groupe 14483">
                      <path id="Tracé_26595" data-name="Tracé 26595" d="M304.19,137.73a1.75,1.75,0,0,0-1.12,2.23v0l.63,1.68,3.47-1.22-.63-1.68A1.85,1.85,0,0,0,304.19,137.73Z" transform="translate(89 111)" style="fill: #222f3e"/>
                      <path id="Tracé_26596" data-name="Tracé 26596" d="M295,141a1.77,1.77,0,0,0-1.13,2.23l0,0,.63,1.68,3.47-1.22-.63-1.68A1.85,1.85,0,0,0,295,141Z" transform="translate(89 111)" style="fill: #222f3e"/>
                    </g>
                    <g id="Groupe_14484" data-name="Groupe 14484">
                      <path id="Tracé_26597" data-name="Tracé 26597" d="M294,110.57h0a8.81,8.81,0,0,1-6.58-.28,8.38,8.38,0,0,1-4.45-4.7,8,8,0,0,1,.29-6.35,8.39,8.39,0,0,1,4.85-4.3,8.86,8.86,0,0,1,6.58.27,8.41,8.41,0,0,1,4.45,4.7,8.25,8.25,0,0,1-4.92,10.58l-.22.08Z" transform="translate(89 111)" style="fill: #5c5c5c;stroke: #fff"/>
                      <path id="Tracé_26598" data-name="Tracé 26598" d="M283.87,83.77h0a8.71,8.71,0,0,1-11-5,8.26,8.26,0,0,1,4.93-10.59l.22-.07a8.82,8.82,0,0,1,6.58.27,8.41,8.41,0,0,1,4.45,4.7,8.25,8.25,0,0,1-4.92,10.58Z" transform="translate(89 111)" style="fill: #5c5c5c;stroke: #fff"/>
                    </g>
                    <path id="Tracé_26602" data-name="Tracé 26602" d="M264.29,35.34a65.15,65.15,0,0,0-6.62,19.85l27.26-9.58a69.27,69.27,0,0,0-18.27-11.1A1.85,1.85,0,0,0,264.29,35.34Z" transform="translate(89 111)" style="fill: #50b587"/>
                    <path id="Tracé_26603" data-name="Tracé 26603" d="M319.43,134.31c0-.14,0-.28,0-.43v-.18l0-.52v-1.59c0-.15,0-.29,0-.44v-.22l0-.62V130l0-.35,0-.35,0-.33,0-.37v-.14l-.06-.9,0-.25,0-.46,0-.23-.05-.48-6.92,2.44a52.1,52.1,0,0,1,.23,8.92,1.79,1.79,0,0,1-1.2,1.54l-18.53,6.51h0l25.45-9a1.79,1.79,0,0,0,1.21-1.54c0-.19,0-.38,0-.57Z" transform="translate(89 111)" style="fill: #222f3e"/>
                    <path id="Tracé_26604" data-name="Tracé 26604" d="M262.83,38.33A68.85,68.85,0,0,1,278,48.05l6.93-2.44-.94-.78-.21-.17c-.92-.75-1.87-1.47-2.83-2.17l-.36-.25-.88-.63-.34-.23-1.51-1-.58-.37-.75-.46-.74-.45-.78-.46L273.85,38l-.59-.32-1-.52-.51-.26c-.48-.25-1-.49-1.46-.73l-.38-.17-1.23-.58-.45-.2q-.79-.36-1.59-.69a1.89,1.89,0,0,0-2.38.82C263.77,36.33,263.29,37.33,262.83,38.33Z" transform="translate(89 111)" style="fill: url(#Dégradé_sans_nom_2)"/>
                  </g>
                  <g id="Groupe_de_masques_59" data-name="Groupe de masques 59">
                    <ellipse id="Ellipse_485" data-name="Ellipse 485" cx="314" cy="350.74" rx="46.57" ry="43.13" style="fill: #fff;opacity: 0.47099998593330383;isolation: isolate"/>
                    <ellipse id="Ellipse_486" data-name="Ellipse 486" cx="452.44" cy="324.56" rx="47.83" ry="39.13" style="fill: #fff;opacity: 0.47099998593330383;isolation: isolate"/>
                  </g>
                </g>
              </g>
            </g>
          </g>
        </g>
      </g>
    </g>
  </g>
</svg>
