<svg xmlns="http://www.w3.org/2000/svg" xmlns:xlink="http://www.w3.org/1999/xlink" width="42" height="42" viewBox="0 0 42 42">
  <defs>
    <linearGradient id="linear-gradient" x1="-1.923" y1="3.844" x2="-1.931" y2="3.844" gradientUnits="objectBoundingBox">
      <stop offset="0" stop-color="#1da2f7"/>
      <stop offset="1" stop-color="#1d62f1"/>
    </linearGradient>
    <clipPath id="clip-path">
      <circle id="Ellipse_686" data-name="Ellipse 686" cx="21" cy="21" r="21" transform="translate(0 0.414)" fill="none"/>
    </clipPath>
    <filter id="Path_26955-2" x="5.726" y="33.607" width="30.4" height="24.858" filterUnits="userSpaceOnUse">
      <feOffset dy="3" input="SourceAlpha"/>
      <feGaussianBlur stdDeviation="3" result="blur"/>
      <feFlood flood-color="#e3f2ff" flood-opacity="0.161"/>
      <feComposite operator="in" in2="blur"/>
      <feComposite in="SourceGraphic"/>
    </filter>
    <linearGradient id="linear-gradient-2" x1="-38.237" y1="32.173" x2="-38.237" y2="32.102" gradientUnits="objectBoundingBox">
      <stop offset="0" stop-color="#47c38c"/>
      <stop offset="1" stop-color="#1ab772"/>
    </linearGradient>
    <filter id="Path_26959-2" x="9.229" y="35.103" width="32.247" height="25.899" filterUnits="userSpaceOnUse">
      <feOffset dy="3" input="SourceAlpha"/>
      <feGaussianBlur stdDeviation="3" result="blur-2"/>
      <feFlood flood-opacity="0.161"/>
      <feComposite operator="in" in2="blur-2"/>
      <feComposite in="SourceGraphic"/>
    </filter>
    <filter id="Path_26960-2" x="9.069" y="37.986" width="32.234" height="25.893" filterUnits="userSpaceOnUse">
      <feOffset dy="3" input="SourceAlpha"/>
      <feGaussianBlur stdDeviation="3" result="blur-3"/>
      <feFlood flood-opacity="0.161"/>
      <feComposite operator="in" in2="blur-3"/>
      <feComposite in="SourceGraphic"/>
    </filter>
    <filter id="Path_26961-2" x="-1.993" y="34.852" width="30.404" height="24.878" filterUnits="userSpaceOnUse">
      <feOffset dy="3" input="SourceAlpha"/>
      <feGaussianBlur stdDeviation="3" result="blur-4"/>
      <feFlood flood-color="#3cafd1" flood-opacity="0.161"/>
      <feComposite operator="in" in2="blur-4"/>
      <feComposite in="SourceGraphic"/>
    </filter>
    <filter id="Path_26962-2" x="-4.816" y="30.178" width="30.404" height="24.854" filterUnits="userSpaceOnUse">
      <feOffset dy="3" input="SourceAlpha"/>
      <feGaussianBlur stdDeviation="3" result="blur-5"/>
      <feFlood flood-color="#98bfe0" flood-opacity="0.161"/>
      <feComposite operator="in" in2="blur-5"/>
      <feComposite in="SourceGraphic"/>
    </filter>
  </defs>
  <g id="Group_14892" data-name="Group 14892" transform="translate(-8.22 -0.308)">
    <circle id="Ellipse_648" data-name="Ellipse 648" cx="21" cy="21" r="21" transform="translate(8.22 0.308)" fill="url(#linear-gradient)"/>
    <g id="Group_15308" data-name="Group 15308" transform="translate(8.22 -0.107)" clip-path="url(#clip-path)">
      <g id="Mask_Group_96" data-name="Mask Group 96" transform="translate(-2.762 2.744)">
        <g id="Group_14890" data-name="Group 14890" transform="translate(0)">
          <g id="Group_14886" data-name="Group 14886">
            <g id="Group_14885" data-name="Group 14885">
              <path id="Path_26950" data-name="Path 26950" d="M55.587,94.782l-1.347-.236,3.337-16.8.727.128Z" transform="translate(-33.213 -54.168)" fill="#fff" opacity="0.407" style="isolation: isolate"/>
              <path id="Path_26951" data-name="Path 26951" d="M40.19,89.1l5.418,1.97,3.415-13.874L46.393,76Z" transform="translate(-23.894 -53.007)" fill="#fff"/>
              <path id="Path_26952" data-name="Path 26952" d="M32.94,91.989l1.7.987,7.6-14.234-.919-.532Z" transform="translate(-19.086 -54.473)" fill="#fff" opacity="0.407" style="isolation: isolate"/>
              <path id="Path_26953" data-name="Path 26953" d="M20.263,101.472c-.384.673,1.488,1.236,2.219,1.162.381-.04,1.01-1.034,1.115-2.02a2.212,2.212,0,0,0-.643-1.93c-.653-.6-2.1-.673-2.182-.8a3.03,3.03,0,0,0-3.1-1.482,2.65,2.65,0,0,0-1.108-1.212,2.206,2.206,0,0,0-3.061.519v.027a2.72,2.72,0,0,0-.337-.226,2.6,2.6,0,0,0-3.6.673,2.6,2.6,0,0,0,1.209,3.458,2.977,2.977,0,0,0,2.3.337,2.563,2.563,0,0,0,.505.384,2.428,2.428,0,0,0,.913.31h0a2.054,2.054,0,0,0,1.094,1.754,1.825,1.825,0,0,0,2.515-.377.108.108,0,0,0,0-.03h0a1.717,1.717,0,0,0,2.155-.552Z" transform="translate(-3.395 -65.481)" fill="#fff"/>
              <path id="Path_26954" data-name="Path 26954" d="M56.073,115.922c-.384.673,1.485,1.236,2.219,1.162.381-.037,1.01-1.034,1.115-2.02a2.222,2.222,0,0,0-.643-1.93c-.653-.6-2.1-.673-2.182-.8a3.03,3.03,0,0,0-3.1-1.482,2.65,2.65,0,0,0-1.108-1.212,2.2,2.2,0,0,0-3.061.522v.024a3.168,3.168,0,0,0-.337-.226,2.415,2.415,0,1,0-2.394,4.132,2.987,2.987,0,0,0,2.3.337,2.439,2.439,0,0,0,.505.384,2.357,2.357,0,0,0,.913.31h0a2.051,2.051,0,0,0,1.094,1.758,1.824,1.824,0,0,0,2.515-.377.122.122,0,0,0,0-.03h0a1.715,1.715,0,0,0,2.152-.549Z" transform="translate(-27.147 -75.066)" fill="#fff"/>
              <g transform="matrix(1, 0, 0, 1, 2.76, -2.33)" filter="url(#Path_26955-2)">
                <path id="Path_26955-2-2" data-name="Path 26955-2" d="M53.223,124.2c-.337.572,1.283,1.074,1.916,1.01.337-.03.865-.892.966-1.744a1.926,1.926,0,0,0-.549-1.684c-.566-.519-1.818-.572-1.886-.694a2.643,2.643,0,0,0-2.694-1.29,2.323,2.323,0,0,0-.956-1.054,1.916,1.916,0,0,0-2.647.444v.02a2.613,2.613,0,0,0-.283-.192,2.085,2.085,0,1,0-2.078,3.559,2.576,2.576,0,0,0,1.99.286,2.084,2.084,0,0,0,.434.337,2.108,2.108,0,0,0,.788.269h0A1.781,1.781,0,0,0,49.169,125a1.576,1.576,0,0,0,2.175-.32.044.044,0,0,0,0-.027h0a1.489,1.489,0,0,0,1.862-.471Z" transform="translate(-29 -78.81)" fill="#fff"/>
              </g>
              <g id="Group_14884" data-name="Group 14884" transform="translate(21.431 21.298)">
                <path id="Tracé_21256" data-name="Tracé 21256" d="M58.9,73.673c.455-1.246.337-2.438-.3-2.667s-1.492.606-1.943,1.852a18.869,18.869,0,0,0-1.185,4,5.7,5.7,0,0,0,.209,2.172,6.061,6.061,0,0,0,1.569-1.684,20.844,20.844,0,0,0,1.65-3.677Z" transform="translate(-55.441 -70.968)" fill="#ffb72e"/>
                <g id="flame" transform="translate(0.697 1.85)">
                  <path id="Path_26956" data-name="Path 26956" d="M59.534,78.569c.377-.973.273-1.913-.189-2.081s-1.125.492-1.482,1.472a6.934,6.934,0,0,0-.354,1.266,1.27,1.27,0,0,1,.37-.492.812.812,0,0,0,.273-.205,3.553,3.553,0,0,0-.478,2.431,1.744,1.744,0,0,1,.357-.751,1.768,1.768,0,0,0,.488-.8,1.327,1.327,0,0,1-.158.751s.283-.182.737-1.458c0,0,.2.111-.152.855A2.472,2.472,0,0,0,59.534,78.569Z" transform="translate(-57.51 -76.462)" fill="#ffd83b"/>
                </g>
                <g id="flame-2" transform="translate(1.704 2.268)">
                  <path id="Path_26957" data-name="Path 26957" d="M61.322,78.476c.135-.337.074-.69-.121-.761s-.455.158-.583.508a1.922,1.922,0,0,0-.118.455.374.374,0,0,1,.141-.172.337.337,0,0,0,.108-.071,1.108,1.108,0,0,0-.141.879.522.522,0,0,1,.131-.266.559.559,0,0,0,.185-.286.428.428,0,0,1-.051.273s.114-.061.276-.519c0,0,.084.047-.047.31A.764.764,0,0,0,61.322,78.476Z" transform="translate(-60.5 -77.702)" fill="#fff1b4"/>
                </g>
              </g>
              <g id="rocket" transform="translate(16.954)">
                <path id="Path_26850" data-name="Path 26850" d="M78.575,62.016l.044-.034h0l.04-.047h0v-.024h0v-.024h0c2.7-7.7.626-10.3.552-10.412a.4.4,0,0,0-.566-.061.394.394,0,0,0-.047.556h0l-3.223,7.072a.4.4,0,0,0-.556.081h0a.4.4,0,0,0,.1.559l3.175,2.31h0l.037.02h0l.04.02h.051a.148.148,0,0,0,.054,0h0a.338.338,0,0,0,.057,0h0a.256.256,0,0,0,.054,0h0l.054-.02h0l.044-.027Z" transform="translate(-63.771 -36.643)" fill="#41d494"/>
                <path id="Path_26851" data-name="Path 26851" d="M46.811,50.159a.414.414,0,0,0-.381-.431s1.866-7.587,1.872-7.59h0l-.165-.788c-.131.024-3.337.673-5.991,8.3h0a.064.064,0,0,0,0,.027v.037a.064.064,0,0,0,0,.027h0a.366.366,0,0,0,0,.061h0v.057h0a.28.28,0,0,0,0,.051h0a.225.225,0,0,0,.03.047h0a.451.451,0,0,0,.037.047h0l.04.04h0a.225.225,0,0,0,.047.03h0l.051.024h.084l3.883.337a.384.384,0,0,0,.421-.337h0Z" transform="translate(-42.146 -30.025)" fill="#2ebc7d"/>
                <path id="Path_26852" data-name="Path 26852" d="M54.031,30.46a.414.414,0,0,1-.273-.337c-.283-2.963,1.142-9.149,2.233-12.294C57.735,12.794,60.6,9.5,64.766,7.75a.411.411,0,0,1,.522.2c2.135,4.088,2.324,8.519.583,13.547-1.094,3.159-3.8,8.853-5.836,10.951a.391.391,0,0,1-.424.091Z" transform="translate(-49.824 -7.719)" fill="#41d494"/>
                <path id="Path_26853" data-name="Path 26853" d="M65.541,8.267a.414.414,0,0,0-.522-.2c-.226.094-.448.2-.673.3,1.8,3.9,1.862,8.112.2,12.85-1.1,3.132-3.822,8.819-5.863,10.9a.391.391,0,0,1-.421.091L54.22,30.69h0l5.56,2.091a.4.4,0,0,0,.428-.091c2.041-2.084,4.761-7.772,5.863-10.9C67.828,16.783,67.653,12.358,65.541,8.267Z" transform="translate(-50.154 -7.933)" fill="#2ebc7d"/>
                <path id="Path_26854" data-name="Path 26854" d="M53.39,68.35a12.27,12.27,0,0,0,0,1.99.414.414,0,0,0,.269.337l5.563,2.095a.391.391,0,0,0,.407-.081,11.428,11.428,0,0,0,1.222-1.536Z" transform="translate(-49.577 -47.933)" fill="#576574"/>
                <g id="Group_14669" data-name="Group 14669" transform="translate(4.456 22.27)">
                  <path id="Path_26855" data-name="Path 26855" d="M61.99,76.139a.394.394,0,0,0-.505.219h0l-.135.391.758.286.135-.381a.414.414,0,0,0-.253-.515Z" transform="translate(-59.34 -75.352)" fill="#222f3e"/>
                  <path id="Path_26856" data-name="Path 26856" d="M56.013,73.883a.384.384,0,0,0-.505.219h0l-.128.37.754.286.128-.364A.407.407,0,0,0,56.013,73.883Z" transform="translate(-55.38 -73.854)" fill="#222f3e"/>
                </g>
                <g id="Group_14670" data-name="Group 14670" transform="translate(7.964 7.48)">
                  <path id="Path_26857" data-name="Path 26857" d="M67.058,51.216h0a1.953,1.953,0,0,1-1.071-.977,1.835,1.835,0,0,1-.084-1.424,1.761,1.761,0,0,1,.946-1.03,1.859,1.859,0,0,1,1.428-.034,1.953,1.953,0,0,1,1.071.977,1.852,1.852,0,0,1,.088,1.424A1.818,1.818,0,0,1,67.1,51.24l-.044-.017Z" transform="translate(-65.798 -41.668)" fill="#5c5c5c" stroke="#fff" stroke-width="1"/>
                  <path id="Path_26858" data-name="Path 26858" d="M73.278,33.532h0a1.919,1.919,0,0,1-1.158-2.4,1.818,1.818,0,0,1,2.33-1.088H74.5a1.923,1.923,0,0,1,1.071.98,1.845,1.845,0,0,1,.088,1.421,1.822,1.822,0,0,1-2.33,1.091l-.047-.02Z" transform="translate(-69.926 -29.934)" fill="#5c5c5c" stroke="#fff" stroke-width="1"/>
                </g>
                <path id="Path_26859" data-name="Path 26859" d="M78.563,8.072a14.308,14.308,0,0,0-3.923,2.411l5.954,2.26a15.332,15.332,0,0,0-1.509-4.475A.414.414,0,0,0,78.563,8.072Z" transform="translate(-63.698 -7.933)" fill="#50b587"/>
                <path id="Path_26860" data-name="Path 26860" d="M60.328,76.983l.064-.071.03-.03L60.5,76.8h0c.03-.03.057-.067.088-.1l.03-.034.061-.074.034-.04.061-.077.03-.037.084-.108.04-.054.051-.061.044-.064.044-.057.047-.064L61.13,76c.037-.054.077-.1.114-.162l.034-.044.057-.084.03-.04.061-.088L59.924,75A11.679,11.679,0,0,1,58.7,76.539a.391.391,0,0,1-.421.088L54.24,75.108h0L59.8,77.2a.391.391,0,0,0,.418-.1l.088-.091Z" transform="translate(-50.167 -52.344)" fill="#222f3e"/>
                <path id="Path_26861" data-name="Path 26861" d="M84.31,8.351a15.113,15.113,0,0,1,1.182,3.785l1.515.572a1.42,1.42,0,0,0-.047-.266v-.054c-.051-.259-.111-.515-.175-.768a.772.772,0,0,0-.024-.094c-.02-.077-.037-.152-.061-.229s0-.061-.024-.088c-.037-.128-.074-.256-.115-.384a.641.641,0,0,0-.044-.145l-.061-.185-.061-.178-.067-.189-.1-.273-.057-.138c-.027-.074-.061-.152-.091-.226s-.03-.081-.047-.118c-.047-.111-.094-.219-.145-.337l-.212-.451c-.054-.114-.111-.229-.168-.337a.411.411,0,0,0-.522-.2C84.751,8.152,84.542,8.253,84.31,8.351Z" transform="translate(-70.112 -7.919)" fill="url(#linear-gradient-2)"/>
              </g>
              <path id="Path_26958" data-name="Path 26958" d="M2.8,111.18c-.384.673,1.492,1.232,2.226,1.158.377-.04,1.01-1.034,1.108-2.02a2.216,2.216,0,0,0-.647-1.93c-.657-.6-2.1-.657-2.185-.795A3.033,3.033,0,0,0,.19,106.115,2.657,2.657,0,0,0-.921,104.9a2.2,2.2,0,0,0-3.061.529v.024a3.143,3.143,0,0,0-.337-.222,2.608,2.608,0,0,0-3.6.673A2.6,2.6,0,0,0-6.7,109.362a2.953,2.953,0,0,0,2.3.337,2.327,2.327,0,0,0,.5.374,2.388,2.388,0,0,0,.913.31h0a2.054,2.054,0,0,0,1.1,1.758,1.821,1.821,0,0,0,2.515-.384.067.067,0,0,0,0-.027h0a1.717,1.717,0,0,0,2.155-.556Z" transform="translate(8.202 -71.926)" fill="#fff"/>
              <g transform="matrix(1, 0, 0, 1, 2.76, -2.33)" filter="url(#Path_26959-2)">
                <path id="Path_26959-2-2" data-name="Path 26959-2" d="M65.032,129.492c-.384.673,1.478,1.236,2.206,1.162.377-.037,1.01-1.01,1.115-2a2.209,2.209,0,0,0-.636-1.923c-.65-.6-2.088-.673-2.169-.8a3.024,3.024,0,0,0-3.081-1.485,2.66,2.66,0,0,0-1.1-1.2,2.171,2.171,0,0,0-3.031.512v.024a3.1,3.1,0,0,0-.337-.222,2.4,2.4,0,1,0-2.391,4.095,2.967,2.967,0,0,0,2.29.337,2.384,2.384,0,0,0,.5.381,2.434,2.434,0,0,0,.909.313h0a2.041,2.041,0,0,0,1.088,1.751,1.812,1.812,0,0,0,2.505-.367.107.107,0,0,0,0-.03h0a1.707,1.707,0,0,0,2.145-.542Z" transform="translate(-35.9 -81.76)" fill="#fff"/>
              </g>
              <g transform="matrix(1, 0, 0, 1, 2.76, -2.33)" filter="url(#Path_26960-2)">
                <path id="Path_26960-2-2" data-name="Path 26960-2" d="M64.549,138.065c-.387.657,1.475,1.232,2.206,1.162.374-.037,1.01-1.01,1.111-2.02a2.219,2.219,0,0,0-.623-1.909c-.65-.6-2.091-.673-2.169-.8a3.014,3.014,0,0,0-3.085-1.485,2.636,2.636,0,0,0-1.1-1.209,2.172,2.172,0,0,0-3.031.508v.027a3.166,3.166,0,0,0-.337-.226,2.4,2.4,0,1,0-2.391,4.095,2.953,2.953,0,0,0,2.29.337,2.543,2.543,0,0,0,.5.384,2.4,2.4,0,0,0,.906.31h0a2.02,2.02,0,0,0,1.088,1.751,1.812,1.812,0,0,0,2.5-.37.068.068,0,0,0,0-.027h0a1.706,1.706,0,0,0,2.142-.542Z" transform="translate(-35.59 -87.44)" fill="#fff"/>
              </g>
              <g transform="matrix(1, 0, 0, 1, 2.76, -2.33)" filter="url(#Path_26961-2)">
                <path id="Path_26961-2-2" data-name="Path 26961-2" d="M30.3,127.9c-.337.572,1.283,1.071,1.916,1.01.337-.034.865-.892.97-1.744a1.933,1.933,0,0,0-.552-1.684c-.566-.519-1.818-.576-1.886-.7a2.641,2.641,0,0,0-2.694-1.29,2.313,2.313,0,0,0-.956-1.051,1.913,1.913,0,0,0-2.647.444v.02a3.244,3.244,0,0,0-.283-.2,2.085,2.085,0,1,0-2.078,3.559,2.576,2.576,0,0,0,1.99.286,2.222,2.222,0,0,0,.434.337,2.128,2.128,0,0,0,.788.269h0a1.775,1.775,0,0,0,.956,1.546,1.573,1.573,0,0,0,2.175-.32.037.037,0,0,0,0-.024h0A1.493,1.493,0,0,0,30.3,127.9Z" transform="translate(-13.8 -81.26)" fill="#fff"/>
              </g>
            </g>
            <g transform="matrix(1, 0, 0, 1, 2.76, -2.33)" filter="url(#Path_26962-2)">
              <path id="Path_26962-2-2" data-name="Path 26962-2" d="M21.92,114.019c-.337.572,1.283,1.071,1.916,1.01.337-.034.865-.892.97-1.744a1.933,1.933,0,0,0-.552-1.684c-.566-.519-1.818-.576-1.886-.7a2.641,2.641,0,0,0-2.694-1.29,2.313,2.313,0,0,0-.956-1.051,1.913,1.913,0,0,0-2.647.444v.02a3.252,3.252,0,0,0-.283-.2,2.248,2.248,0,0,0-3.115.569,2.247,2.247,0,0,0,1.037,2.99,2.576,2.576,0,0,0,1.99.286,2.222,2.222,0,0,0,.434.337,2.108,2.108,0,0,0,.788.269h0a1.775,1.775,0,0,0,.943,1.522,1.573,1.573,0,0,0,2.175-.32.037.037,0,0,0,0-.024h0a1.493,1.493,0,0,0,1.862-.471Z" transform="translate(-8.24 -72.06)" fill="#fff"/>
            </g>
          </g>
        </g>
      </g>
    </g>
  </g>
</svg>
