<svg xmlns="http://www.w3.org/2000/svg" xmlns:xlink="http://www.w3.org/1999/xlink" width="125" height="125" viewBox="0 0 125 125">
  <defs>
    <linearGradient id="linear-gradient" x1="-1.923" y1="3.844" x2="-1.931" y2="3.844" gradientUnits="objectBoundingBox">
      <stop offset="0" stop-color="#1da2f7"/>
      <stop offset="1" stop-color="#1d62f1"/>
    </linearGradient>
    <clipPath id="clip-path">
      <circle id="Ellipse_686" data-name="Ellipse 686" cx="62.5" cy="62.5" r="62.5" transform="translate(8.22)" fill="none"/>
    </clipPath>
    <filter id="Path_26955-2" x="34.73" y="112.419" width="54.825" height="38.367" filterUnits="userSpaceOnUse">
      <feOffset dy="3" input="SourceAlpha"/>
      <feGaussianBlur stdDeviation="3" result="blur"/>
      <feFlood flood-color="#e3f2ff" flood-opacity="0.161"/>
      <feComposite operator="in" in2="blur"/>
      <feComposite in="SourceGraphic"/>
    </filter>
    <linearGradient id="linear-gradient-2" x1="-38.237" y1="32.173" x2="-38.237" y2="32.102" gradientUnits="objectBoundingBox">
      <stop offset="0" stop-color="#47c38c"/>
      <stop offset="1" stop-color="#1ab772"/>
    </linearGradient>
    <filter id="Path_26959-2" x="45.133" y="116.863" width="60.307" height="41.457" filterUnits="userSpaceOnUse">
      <feOffset dy="3" input="SourceAlpha"/>
      <feGaussianBlur stdDeviation="3" result="blur-2"/>
      <feFlood flood-opacity="0.161"/>
      <feComposite operator="in" in2="blur-2"/>
      <feComposite in="SourceGraphic"/>
    </filter>
    <filter id="Path_26960-2" x="44.659" y="125.422" width="60.27" height="41.44" filterUnits="userSpaceOnUse">
      <feOffset dy="3" input="SourceAlpha"/>
      <feGaussianBlur stdDeviation="3" result="blur-3"/>
      <feFlood flood-opacity="0.161"/>
      <feComposite operator="in" in2="blur-3"/>
      <feComposite in="SourceGraphic"/>
    </filter>
    <filter id="Path_26961-2" x="11.808" y="116.116" width="54.835" height="38.424" filterUnits="userSpaceOnUse">
      <feOffset dy="3" input="SourceAlpha"/>
      <feGaussianBlur stdDeviation="3" result="blur-4"/>
      <feFlood flood-color="#3cafd1" flood-opacity="0.161"/>
      <feComposite operator="in" in2="blur-4"/>
      <feComposite in="SourceGraphic"/>
    </filter>
    <filter id="Path_26962-2" x="3.426" y="102.236" width="54.837" height="38.354" filterUnits="userSpaceOnUse">
      <feOffset dy="3" input="SourceAlpha"/>
      <feGaussianBlur stdDeviation="3" result="blur-5"/>
      <feFlood flood-color="#98bfe0" flood-opacity="0.161"/>
      <feComposite operator="in" in2="blur-5"/>
      <feComposite in="SourceGraphic"/>
    </filter>
  </defs>
  <g id="Group_14892" data-name="Group 14892" transform="translate(-8.22)">
    <circle id="Ellipse_648" data-name="Ellipse 648" cx="62.5" cy="62.5" r="62.5" transform="translate(8.22)" fill="url(#linear-gradient)"/>
    <g id="Group_15308" data-name="Group 15308" clip-path="url(#clip-path)">
      <g id="Mask_Group_96" data-name="Mask Group 96">
        <g id="Group_14890" data-name="Group 14890">
          <g id="Group_14886" data-name="Group 14886">
            <g id="Group_14885" data-name="Group 14885">
              <path id="Path_26950" data-name="Path 26950" d="M58.24,128.33l-4-.7,9.91-49.88,2.16.38Z" transform="translate(8.22)" fill="#fff" opacity="0.407" style="isolation: isolate"/>
              <path id="Path_26951" data-name="Path 26951" d="M40.19,114.89l16.09,5.85,10.14-41.2L58.61,76Z" transform="translate(8.22)" fill="#fff"/>
              <path id="Path_26952" data-name="Path 26952" d="M32.94,119.13,38,122.06,60.57,79.79l-2.73-1.58Z" transform="translate(8.22)" fill="#fff" opacity="0.407" style="isolation: isolate"/>
              <path id="Path_26953" data-name="Path 26953" d="M41.89,114.6c-1.14,2,4.42,3.67,6.59,3.45,1.13-.12,3-3.07,3.31-6a6.57,6.57,0,0,0-1.91-5.73c-1.94-1.79-6.24-2-6.48-2.38-2.49-4.78-7.86-4.62-9.21-4.4a7.87,7.87,0,0,0-3.29-3.6c-3.38-2-7.45-1.27-9.09,1.54v.08a8.08,8.08,0,0,0-1-.67c-3.95-2.29-8.73-1.4-10.69,2s-.36,8,3.59,10.27a8.84,8.84,0,0,0,6.83,1,7.61,7.61,0,0,0,1.5,1.14,7.21,7.21,0,0,0,2.71.92h0A6.1,6.1,0,0,0,28,117.43c2.81,1.63,6.16,1.13,7.47-1.12a.32.32,0,0,0,0-.09h0c2.55,1,5.25.33,6.4-1.64Z" transform="translate(8.22)" fill="#fff"/>
              <path id="Path_26954" data-name="Path 26954" d="M77.7,129.05c-1.14,2,4.41,3.67,6.59,3.45,1.13-.11,3-3.07,3.31-6a6.6,6.6,0,0,0-1.91-5.73c-1.94-1.78-6.24-2-6.48-2.38-2.49-4.78-7.86-4.62-9.21-4.4a7.87,7.87,0,0,0-3.29-3.6c-3.38-2-7.45-1.27-9.09,1.55v.07a9.41,9.41,0,0,0-1-.67c-4-2.29-8.73-1.4-10.69,2s-.36,8,3.58,10.27a8.87,8.87,0,0,0,6.84,1,7.24,7.24,0,0,0,1.5,1.14,7,7,0,0,0,2.71.92h0a6.09,6.09,0,0,0,3.25,5.22c2.82,1.63,6.16,1.13,7.47-1.12a.36.36,0,0,0,0-.09h0c2.55,1,5.25.33,6.39-1.63Z" transform="translate(8.22)" fill="#fff"/>
              <g transform="matrix(1, 0, 0, 1, 8.22, 0)" filter="url(#Path_26955-2)">
                <path id="Path_26955-2-2" data-name="Path 26955-2" d="M71.92,135.59c-1,1.7,3.81,3.19,5.69,3,1-.09,2.57-2.65,2.87-5.18a5.72,5.72,0,0,0-1.63-5c-1.68-1.54-5.4-1.7-5.6-2.06-2.14-4.14-6.79-4-8-3.83a6.9,6.9,0,0,0-2.84-3.13c-2.92-1.7-6.44-1.11-7.86,1.32v.06a7.759,7.759,0,0,0-.84-.57c-3.41-2-7.55-1.23-9.25,1.68s-.33,6.9,3.08,8.89a7.65,7.65,0,0,0,5.91.85,6.19,6.19,0,0,0,1.29,1,6.26,6.26,0,0,0,2.34.8h0a5.29,5.29,0,0,0,2.8,4.53c2.43,1.41,5.32,1,6.46-.95a.13.13,0,0,0,0-.08h0c2.2.85,4.54.3,5.53-1.4Z" transform="translate(0)" fill="#fff"/>
              </g>
              <g id="Group_14884" data-name="Group 14884">
                <path id="Tracé_21256" data-name="Tracé 21256" d="M65.7,79c1.35-3.7,1-7.24-.89-7.92s-4.43,1.8-5.77,5.5c-.76,2.07-2.92,7.2-3.52,11.89a16.94,16.94,0,0,0,.62,6.45,18,18,0,0,0,4.66-5A61.9,61.9,0,0,0,65.7,79Z" transform="translate(8.22)" fill="#ffb72e"/>
                <g id="flame">
                  <path id="Path_26956" data-name="Path 26956" d="M63.52,82.72c1.12-2.89.81-5.68-.56-6.18s-3.34,1.46-4.4,4.37a20.59,20.59,0,0,0-1.05,3.76,3.77,3.77,0,0,1,1.1-1.46,2.41,2.41,0,0,0,.81-.61A10.55,10.55,0,0,0,58,89.82a5.18,5.18,0,0,1,1.06-2.23,5.25,5.25,0,0,0,1.45-2.38,3.94,3.94,0,0,1-.47,2.23s.84-.54,2.19-4.33c0,0,.6.33-.45,2.54a7.34,7.34,0,0,0,1.74-2.93Z" transform="translate(8.22)" fill="#ffd83b"/>
                </g>
                <g id="flame-2">
                  <path id="Path_26957" data-name="Path 26957" d="M62.94,80c.4-1,.22-2.05-.36-2.26s-1.35.47-1.73,1.51a5.711,5.711,0,0,0-.35,1.35,1.11,1.11,0,0,1,.42-.51,1,1,0,0,0,.32-.21,3.29,3.29,0,0,0-.42,2.61,1.55,1.55,0,0,1,.39-.79,1.66,1.66,0,0,0,.55-.85,1.27,1.27,0,0,1-.15.81s.34-.18.82-1.54c0,0,.25.14-.14.92A2.27,2.27,0,0,0,62.94,80Z" transform="translate(8.22)" fill="#fff1b4"/>
                </g>
              </g>
              <g id="rocket">
                <path id="Path_26850" data-name="Path 26850" d="M86.11,83.07l.13-.1h0l.12-.14h0v-.07h0v-.07h0c8.03-22.87,1.86-30.6,1.64-30.92a1.2,1.2,0,0,0-1.68-.18,1.17,1.17,0,0,0-.14,1.65h0l-9.57,21a1.18,1.18,0,0,0-1.65.24h0a1.2,1.2,0,0,0,.3,1.66L84.69,83h0l.11.06h0l.12.06h.15a.44.44,0,0,0,.16,0h0a1,1,0,0,0,.17,0h0a.76.76,0,0,0,.16,0h0l.16-.06h0l.13-.08Z" transform="translate(8.22)" fill="#41d494"/>
                <path id="Path_26851" data-name="Path 26851" d="M56,67.51a1.23,1.23,0,0,0-1.13-1.28s5.54-22.53,5.56-22.54h0l-.49-2.34c-.39.07-9.91,2-17.79,24.64h0a.19.19,0,0,0,0,.08s0,0,0,.05v.06a.19.19,0,0,0,0,.08h0a1.09,1.09,0,0,0,0,.18h0v.17h0a.83.83,0,0,0,0,.15h0a.67.67,0,0,0,.09.14h0a1.34,1.34,0,0,0,.11.14h0l.12.12h0a.67.67,0,0,0,.14.09h0l.15.07h.25l11.53,1a1.14,1.14,0,0,0,1.25-1h0Z" transform="translate(8.22)" fill="#2ebc7d"/>
                <path id="Path_26852" data-name="Path 26852" d="M54.64,75.25a1.23,1.23,0,0,1-.81-1c-.84-8.8,3.39-27.17,6.63-36.51C65.64,22.79,74.16,13,86.52,7.81a1.22,1.22,0,0,1,1.55.58c6.34,12.14,6.9,25.3,1.73,40.23C86.55,58,78.52,74.91,72.47,81.14a1.16,1.16,0,0,1-1.26.27Z" transform="translate(8.22)" fill="#41d494"/>
                <path id="Path_26853" data-name="Path 26853" d="M87.84,8.71a1.23,1.23,0,0,0-1.55-.58c-.67.28-1.33.58-2,.88,5.34,11.59,5.53,24.09.59,38.16-3.27,9.3-11.35,26.19-17.41,32.38a1.16,1.16,0,0,1-1.25.27l-12-4.52h0l16.51,6.21A1.18,1.18,0,0,0,72,81.24c6.06-6.19,14.14-23.08,17.41-32.38C94.63,34,94.11,20.86,87.84,8.71Z" transform="translate(8.22)" fill="#2ebc7d"/>
                <path id="Path_26854" data-name="Path 26854" d="M53.47,68.35a36.439,36.439,0,0,0,0,5.91,1.23,1.23,0,0,0,.8,1l16.52,6.22A1.16,1.16,0,0,0,72,81.24a33.94,33.94,0,0,0,3.63-4.56Z" transform="translate(8.22)" fill="#576574"/>
                <g id="Group_14669" data-name="Group 14669">
                  <path id="Path_26855" data-name="Path 26855" d="M63.25,76.19a1.17,1.17,0,0,0-1.5.65h0L61.35,78l2.25.85.4-1.13a1.23,1.23,0,0,0-.75-1.53Z" transform="translate(8.22)" fill="#222f3e"/>
                  <path id="Path_26856" data-name="Path 26856" d="M57.26,73.94a1.14,1.14,0,0,0-1.5.65h0l-.38,1.1,2.24.85L58,75.46A1.21,1.21,0,0,0,57.26,73.94Z" transform="translate(8.22)" fill="#222f3e"/>
                </g>
                <g id="Group_14670" data-name="Group 14670">
                  <path id="Path_26857" data-name="Path 26857" d="M69.54,58.29h0a5.8,5.8,0,0,1-3.18-2.9,5.45,5.45,0,0,1-.25-4.23,5.23,5.23,0,0,1,2.81-3.06,5.52,5.52,0,0,1,4.24-.1,5.8,5.8,0,0,1,3.18,2.9,5.5,5.5,0,0,1,.26,4.23,5.4,5.4,0,0,1-6.92,3.23l-.13-.05Z" transform="translate(8.22)" fill="#5c5c5c" stroke="#fff" stroke-width="1"/>
                  <path id="Path_26858" data-name="Path 26858" d="M75.75,40.62h0a5.7,5.7,0,0,1-3.44-7.13,5.4,5.4,0,0,1,6.92-3.23h.14a5.71,5.71,0,0,1,3.18,2.91,5.48,5.48,0,0,1,.26,4.22,5.41,5.41,0,0,1-6.92,3.24l-.14-.06Z" transform="translate(8.22)" fill="#5c5c5c" stroke="#fff" stroke-width="1"/>
                </g>
                <path id="Path_26859" data-name="Path 26859" d="M86.29,8.13a42.49,42.49,0,0,0-11.65,7.16L92.32,22A45.53,45.53,0,0,0,87.84,8.71a1.23,1.23,0,0,0-1.55-.58Z" transform="translate(8.22)" fill="#50b587"/>
                <path id="Path_26860" data-name="Path 26860" d="M72.32,80.89l.19-.21.09-.09.22-.25h0c.09-.09.17-.2.26-.3l.09-.1.18-.22.1-.12.18-.23.09-.11.25-.32.12-.16.15-.18.13-.19.13-.17.14-.19.06-.08c.11-.16.23-.31.34-.48l.1-.13.17-.25.09-.12.18-.26L71.12,75a34.679,34.679,0,0,1-3.63,4.57,1.16,1.16,0,0,1-1.25.26l-12-4.51h0l16.52,6.21A1.16,1.16,0,0,0,72,81.24l.26-.27Z" transform="translate(8.22)" fill="#222f3e"/>
                <path id="Path_26861" data-name="Path 26861" d="M84.31,9a44.88,44.88,0,0,1,3.51,11.24l4.5,1.7a4.218,4.218,0,0,0-.14-.79v-.16c-.15-.77-.33-1.53-.52-2.28a2.292,2.292,0,0,0-.07-.28c-.06-.23-.11-.45-.18-.68s0-.18-.07-.26c-.11-.38-.22-.76-.34-1.14a1.9,1.9,0,0,0-.13-.43l-.18-.55-.18-.53-.2-.56-.3-.81-.17-.41c-.08-.22-.18-.45-.27-.67s-.09-.24-.14-.35c-.14-.33-.28-.65-.43-1L88.37,9.7c-.16-.34-.33-.68-.5-1a1.22,1.22,0,0,0-1.55-.59C85.62,8.41,85,8.71,84.31,9Z" transform="translate(8.22)" fill="url(#linear-gradient-2)"/>
              </g>
              <path id="Path_26958" data-name="Path 26958" d="M24.46,124.29c-1.14,2,4.43,3.66,6.61,3.44,1.12-.12,3-3.07,3.29-6A6.58,6.58,0,0,0,32.44,116c-1.95-1.78-6.25-1.95-6.49-2.36-2.51-4.78-7.88-4.62-9.23-4.39a7.89,7.89,0,0,0-3.3-3.6c-3.38-2-7.46-1.25-9.09,1.57v.07a9.33,9.33,0,0,0-1-.66c-3.95-2.29-8.74-1.38-10.7,2s-.34,8,3.62,10.26a8.77,8.77,0,0,0,6.84,1A6.91,6.91,0,0,0,4.57,121a7.09,7.09,0,0,0,2.71.92h0a6.1,6.1,0,0,0,3.27,5.22c2.82,1.63,6.17,1.12,7.47-1.14a.2.2,0,0,0,0-.08h0c2.55,1,5.26.32,6.4-1.65Z" transform="translate(8.22)" fill="#fff"/>
              <g transform="matrix(1, 0, 0, 1, 8.22, 0)" filter="url(#Path_26959-2)">
                <path id="Path_26959-2-2" data-name="Path 26959-2" d="M86.5,142.55c-1.14,2,4.39,3.67,6.55,3.45,1.12-.11,3-3,3.31-5.95a6.56,6.56,0,0,0-1.89-5.71c-1.93-1.78-6.2-2-6.44-2.38-2.47-4.76-7.81-4.62-9.15-4.41A7.9,7.9,0,0,0,75.61,124c-3.35-2-7.4-1.28-9,1.52v.07a9.2,9.2,0,0,0-1-.66c-3.92-2.29-8.69-1.42-10.64,1.94s-.38,7.93,3.54,10.22a8.81,8.81,0,0,0,6.8,1,7.08,7.08,0,0,0,1.48,1.13,7.23,7.23,0,0,0,2.7.93h0a6.06,6.06,0,0,0,3.23,5.2c2.8,1.64,6.13,1.15,7.44-1.09a.32.32,0,0,0,0-.09h0c2.53,1,5.22.35,6.37-1.61Z" transform="translate(0)" fill="#fff"/>
              </g>
              <g transform="matrix(1, 0, 0, 1, 8.22, 0)" filter="url(#Path_26960-2)">
                <path id="Path_26960-2-2" data-name="Path 26960-2" d="M86,151.15c-1.15,1.95,4.38,3.66,6.55,3.45,1.11-.11,3-3,3.3-6A6.59,6.59,0,0,0,94,142.93c-1.93-1.77-6.21-2-6.44-2.37-2.47-4.77-7.81-4.63-9.16-4.41a7.83,7.83,0,0,0-3.26-3.59c-3.36-2-7.41-1.28-9,1.51v.08a9.411,9.411,0,0,0-1-.67c-3.92-2.29-8.68-1.41-10.64,1.94s-.38,7.93,3.54,10.22a8.77,8.77,0,0,0,6.8,1,7.55,7.55,0,0,0,1.49,1.14,7.11,7.11,0,0,0,2.69.92h0a6,6,0,0,0,3.23,5.2c2.79,1.63,6.12,1.14,7.43-1.1a.2.2,0,0,0,0-.08h0c2.53,1,5.22.34,6.36-1.61Z" transform="translate(0)" fill="#fff"/>
              </g>
              <g transform="matrix(1, 0, 0, 1, 8.22, 0)" filter="url(#Path_26961-2)">
                <path id="Path_26961-2-2" data-name="Path 26961-2" d="M49,139.29c-1,1.7,3.81,3.18,5.69,3,1-.1,2.57-2.65,2.88-5.18a5.74,5.74,0,0,0-1.64-5c-1.68-1.54-5.4-1.71-5.6-2.07-2.14-4.14-6.78-4-8-3.83a6.87,6.87,0,0,0-2.84-3.12c-2.92-1.7-6.44-1.12-7.86,1.32v.06a9.639,9.639,0,0,0-.84-.58c-3.4-2-7.54-1.23-9.25,1.69s-.32,6.89,3.08,8.88a7.65,7.65,0,0,0,5.91.85,6.6,6.6,0,0,0,1.29,1,6.32,6.32,0,0,0,2.34.8h0A5.27,5.27,0,0,0,37,141.7c2.43,1.42,5.33,1,6.46-.95a.11.11,0,0,0,0-.07h0c2.2.84,4.54.3,5.53-1.4Z" transform="translate(0)" fill="#fff"/>
              </g>
            </g>
            <g transform="matrix(1, 0, 0, 1, 8.22, 0)" filter="url(#Path_26962-2)">
              <path id="Path_26962-2-2" data-name="Path 26962-2" d="M40.62,125.41c-1,1.7,3.81,3.18,5.69,3,1-.1,2.57-2.65,2.88-5.18a5.74,5.74,0,0,0-1.64-5c-1.68-1.54-5.4-1.71-5.6-2.07-2.14-4.14-6.78-4-8-3.83a6.87,6.87,0,0,0-2.84-3.12c-2.92-1.7-6.44-1.12-7.86,1.32v.06a9.64,9.64,0,0,0-.84-.58c-3.41-2-7.54-1.23-9.25,1.69s-.33,6.89,3.08,8.88a7.65,7.65,0,0,0,5.91.85,6.6,6.6,0,0,0,1.29,1,6.26,6.26,0,0,0,2.34.8h0a5.27,5.27,0,0,0,2.8,4.52c2.43,1.42,5.33,1,6.46-.95a.11.11,0,0,0,0-.07h0c2.2.84,4.54.3,5.53-1.4Z" transform="translate(0)" fill="#fff"/>
            </g>
          </g>
        </g>
      </g>
    </g>
  </g>
</svg>
