<svg xmlns="http://www.w3.org/2000/svg" width="15.737" height="15.746" viewBox="0 0 15.737 15.746">
  <g id="_19" data-name="19" transform="translate(-4.994 -4.996)">
    <path id="Path_27066" data-name="Path 27066" d="M12.125,20.734a1.124,1.124,0,0,1-.8-1.923l5.959-5.948L11.327,6.915A1.124,1.124,0,0,1,12.912,5.33l6.746,6.746a1.124,1.124,0,0,1,0,1.585l-6.746,6.746a1.124,1.124,0,0,1-.787.326Z" transform="translate(0.746 0.008)" fill="#afafaf"/>
    <path id="Path_27067" data-name="Path 27067" d="M6.125,20.742a1.124,1.124,0,0,1-.8-1.923l5.959-5.948L5.327,6.923a1.129,1.129,0,0,1,1.6-1.6l6.746,6.746a1.124,1.124,0,0,1,0,1.585L6.923,20.4A1.124,1.124,0,0,1,6.125,20.742Z" transform="translate(0 0)" fill="#afafaf"/>
  </g>
</svg>
